<svg
  xmlns="http://www.w3.org/2000/svg"
  width="64"
  height="64"
  viewBox="0 0 64 64"
  fill="black"
  fill-rule="nonzero"
>
  <path d="M21 58a7 7 0 0 1-7-7v-1H8c-1.1 0-2-.9-2-2s.9-2 2-2h6v-4H8c-1.1 0-2-.9-2-2s.9-2 2-2h6v-4H8c-1.1 0-2-.9-2-2s.9-2 2-2h6v-4H8c-1.1 0-2-.9-2-2s.9-2 2-2h6v-4H8c-1.1 0-2-.9-2-2s.9-2 2-2h6v-1a7 7 0 0 1 7-7h30a7 7 0 0 1 7 7v38a7 7 0 0 1-7 7zm30-4c.83 0 1.58-.33 2.12-.88.55-.55.88-1.29.88-2.12V13c0-.83-.33-1.58-.88-2.12-.55-.55-1.29-.88-2.12-.88H30v44zM21 10c-.83 0-1.58.33-2.12.88-.55.55-.88 1.29-.88 2.12v1h2c1.1 0 2 .9 2 2s-.9 2-2 2h-2v4h2c1.1 0 2 .9 2 2s-.9 2-2 2h-2v4h2c1.1 0 2 .9 2 2s-.9 2-2 2h-2v4h2c1.1 0 2 .9 2 2s-.9 2-2 2h-2v4h2c1.1 0 2 .9 2 2s-.9 2-2 2h-2v1c0 .83.33 1.58.88 2.12.55.55 1.29.88 2.12.88h5V10z" />
</svg>
