<!-- Generated by IcoMoon.io -->
<svg version="1.1" xmlns="http://www.w3.org/2000/svg" width="32" height="32" viewBox="0 0 32 32">
<title>aid</title>
<path d="M27.125 15.897c0 0-11.906-12.024-12.419-12.426l-0-0-0 0c-1.359-1.064-3.070-1.698-4.93-1.698-4.42 0-8.003 3.583-8.003 8.003 0 1.906 0.667 3.655 1.779 5.030l-0 0 0.001 0.001c0.725 0.725 12.449 12.449 12.449 12.449 1.713 1.712 3.71 2.972 6.223 2.972 4.42 0 8.003-3.583 8.003-8.003 0-2.574-0.897-4.122-3.103-6.327zM22.225 28.427c-1.709 0-3.282-0.777-4.95-2.444l-12.378-12.378c-0.866-1.101-1.323-2.422-1.323-3.829 0-1.657 0.645-3.214 1.817-4.386s2.729-1.817 4.386-1.817c1.387 0 2.697 0.447 3.79 1.292 0.702 0.634 7.88 7.855 12.28 12.299 0.002 0.002 0.004 0.004 0.006 0.006 1.998 1.998 2.575 3.131 2.575 5.054-0 3.42-2.782 6.202-6.202 6.202z"></path>
<path d="M23.545 17.258c0.347 0.347 0.347 0.91 0 1.258s-0.91 0.347-1.258 0c-0.347-0.347-0.347-0.91 0-1.258s0.91-0.347 1.258 0z"></path>
<path d="M26.060 19.773c0.347 0.347 0.347 0.91 0 1.258s-0.91 0.347-1.258 0c-0.347-0.347-0.347-0.91 0-1.258s0.91-0.347 1.258 0z"></path>
<path d="M24.802 23.545c0.347 0.347 0.347 0.91 0 1.258s-0.91 0.347-1.258 0c-0.347-0.347-0.347-0.91 0-1.258s0.91-0.347 1.258 0z"></path>
<path d="M22.287 21.030c0.347 0.347 0.347 0.91 0 1.258s-0.91 0.347-1.258 0c-0.347-0.347-0.347-0.91 0-1.258s0.91-0.347 1.258 0z"></path>
<path d="M18.515 22.288c0.347 0.347 0.347 0.91 0 1.258s-0.91 0.347-1.258 0c-0.347-0.347-0.347-0.91 0-1.258s0.91-0.347 1.258 0z"></path>
<path d="M21.030 24.803c0.347 0.347 0.347 0.91 0 1.258s-0.91 0.347-1.258 0c-0.347-0.347-0.347-0.91 0-1.258s0.91-0.347 1.258 0z"></path>
<path d="M12.227 5.94c0.347 0.347 0.347 0.91 0 1.258s-0.91 0.347-1.258 0c-0.347-0.347-0.347-0.91 0-1.258s0.91-0.347 1.258 0z"></path>
<path d="M14.742 8.455c0.347 0.347 0.347 0.91 0 1.258s-0.91 0.347-1.258 0c-0.347-0.347-0.347-0.91 0-1.258s0.91-0.347 1.258 0z"></path>
<path d="M8.455 7.197c0.347 0.347 0.347 0.91 0 1.258s-0.91 0.347-1.258 0c-0.347-0.347-0.347-0.91 0-1.258s0.91-0.347 1.258 0z"></path>
<path d="M10.97 9.712c0.347 0.347 0.347 0.91 0 1.258s-0.91 0.347-1.258 0c-0.347-0.347-0.347-0.91 0-1.258s0.91-0.347 1.258 0z"></path>
<path d="M7.197 10.97c0.347 0.347 0.347 0.91 0 1.258s-0.91 0.347-1.258 0c-0.347-0.347-0.347-0.91 0-1.258s0.91-0.347 1.258 0z"></path>
<path d="M9.712 13.485c0.347 0.347 0.347 0.91 0 1.258s-0.91 0.347-1.258 0c-0.347-0.347-0.347-0.91 0-1.258s0.91-0.347 1.258 0z"></path>
<path d="M19.773 17.258c1.389-1.389 1.389-3.641 0-5.030v0c-0.695-0.694-1.605-1.042-2.515-1.042s-1.821 0.347-2.515 1.042l-2.515 2.515c-1.389 1.389-1.389 3.641 0 5.030v0c0.694 0.695 1.605 1.042 2.515 1.042s1.821-0.347 2.515-1.042l2.515-2.515zM14.742 19.014c-0.469 0-0.91-0.183-1.242-0.514s-0.514-0.773-0.514-1.242 0.183-0.91 0.514-1.242l2.515-2.515c0.332-0.332 0.773-0.514 1.242-0.514s0.91 0.183 1.242 0.514c0.332 0.332 0.514 0.773 0.514 1.242s-0.183 0.91-0.514 1.242l-2.515 2.515c-0.332 0.332-0.773 0.514-1.242 0.514z"></path>
</svg>
