<!-- Generated by IcoMoon.io -->
<svg version="1.1" xmlns="http://www.w3.org/2000/svg" width="32" height="32" viewBox="0 0 32 32">
<title>alarm</title>
<path d="M27.348 11.515c1.982-1.982 1.982-5.195 0-7.177-0.991-0.991-2.29-1.486-3.588-1.486s-2.598 0.495-3.588 1.486c-0.317 0.317-0.399 0.766-0.306 1.289 0.018 0.105-0.083 0.19-0.183 0.154-1.148-0.422-2.388-0.653-3.682-0.653s-2.535 0.231-3.682 0.653c-0.1 0.037-0.201-0.049-0.183-0.154 0.093-0.523 0.010-0.973-0.306-1.289-0.991-0.991-2.29-1.486-3.588-1.486s-2.598 0.495-3.588 1.486c-1.982 1.982-1.982 5.195 0 7.177 0.237 0.237 0.547 0.343 0.907 0.343 0.1 0 0.203-0.008 0.31-0.024 0.104-0.015 0.188 0.086 0.15 0.184-0.446 1.175-0.69 2.45-0.69 3.781 0 2.469 0.839 4.742 2.247 6.55 0.085 0.11 0.074 0.266-0.024 0.364l-2.307 2.307c-0.943 0.943-0.943 2.477 0 3.42 0 0 0 0 0 0 0.471 0.471 1.091 0.707 1.71 0.707s1.239-0.236 1.71-0.707l2.657-2.657c0.159-0.159 0.397-0.205 0.605-0.119 1.255 0.519 2.631 0.805 4.073 0.805 1.391 0 2.72-0.267 3.939-0.751 0.206-0.082 0.441-0.035 0.598 0.122l2.6 2.6c0.471 0.471 1.091 0.707 1.71 0.707s1.239-0.236 1.71-0.707c0.943-0.943 0.943-2.477 0-3.42l-2.197-2.197c-0.099-0.099-0.109-0.257-0.022-0.367 1.459-1.825 2.332-4.139 2.332-6.657 0-1.332-0.245-2.606-0.69-3.781-0.037-0.099 0.046-0.2 0.151-0.184 0.107 0.016 0.21 0.024 0.31 0.024 0.361 0 0.671-0.106 0.908-0.342zM5.603 9.869c-0.458-0.619-0.683-1.379-0.63-2.17 0.047-0.692 0.316-1.356 0.765-1.884 0.634-0.746 1.536-1.161 2.501-1.161 0.708 0 1.382 0.223 1.941 0.637 0.1 0.074 0.137 0.206 0.093 0.322-0.065 0.171-0.17 0.396-0.336 0.674-0.344 0.576-0.857 1.219-1.442 1.811-0.598 0.604-1.254 1.136-1.847 1.499-0.312 0.191-0.553 0.303-0.728 0.369-0.115 0.043-0.245 0.004-0.318-0.094zM7.392 27.167c-0.241 0.241-0.633 0.241-0.873 0v0c-0.241-0.241-0.241-0.633 0-0.873l2.279-2.279c0.101-0.101 0.262-0.109 0.372-0.018 0.171 0.143 0.348 0.281 0.528 0.413 0.137 0.101 0.153 0.299 0.033 0.419l-2.338 2.338zM25.284 26.294c0.251 0.251 0.241 0.665-0.031 0.902-0.247 0.216-0.626 0.188-0.858-0.044l-2.24-2.24c-0.121-0.121-0.104-0.322 0.036-0.421 0.182-0.13 0.36-0.266 0.534-0.407 0.11-0.089 0.269-0.080 0.369 0.020l2.19 2.19zM22.355 21.987c-1.712 1.757-4.021 2.713-6.474 2.682-2.265-0.029-4.446-0.933-6.069-2.514-1.757-1.712-2.714-4.021-2.682-6.474 0.029-2.265 0.933-4.446 2.514-6.069 1.712-1.757 4.021-2.714 6.474-2.682 2.265 0.029 4.446 0.933 6.069 2.514 1.757 1.712 2.713 4.021 2.682 6.474-0.029 2.265-0.933 4.446-2.514 6.069zM25.35 9.594c-0.593-0.362-1.249-0.894-1.847-1.499-0.585-0.591-1.097-1.234-1.442-1.811-0.166-0.278-0.271-0.503-0.336-0.674-0.044-0.116-0.007-0.248 0.093-0.322 0.619-0.458 1.379-0.683 2.17-0.629 0.692 0.047 1.356 0.316 1.885 0.765 0.746 0.634 1.161 1.536 1.161 2.502 0 0.708-0.224 1.383-0.637 1.942-0.073 0.099-0.203 0.138-0.318 0.094-0.175-0.066-0.416-0.178-0.728-0.369z"></path>
<path d="M18.899 12.516l-2.646 2.646c-0.062 0.062-0.165 0.052-0.213-0.021l-2.846-4.286c-0.275-0.414-0.834-0.527-1.248-0.252s-0.527 0.834-0.252 1.248l3.367 5.069c0.006 0.009 0.011 0.017 0.017 0.025 0.202 0.282 0.516 0.46 0.861 0.489 0.033 0.003 0.065 0.004 0.098 0.004 0.311 0 0.61-0.123 0.832-0.345l3.326-3.326c0.356-0.356 0.352-0.935-0.012-1.285-0.357-0.344-0.932-0.318-1.282 0.033z"></path>
<path d="M16 21.124c-0.497 0-0.9 0.403-0.9 0.9v0.889c0 0.497 0.403 0.9 0.9 0.9s0.9-0.403 0.9-0.9v-0.889c0-0.497-0.403-0.9-0.9-0.9z"></path>
<path d="M16 10.476c0.497 0 0.9-0.403 0.9-0.9v-0.889c0-0.497-0.403-0.9-0.9-0.9s-0.9 0.403-0.9 0.9v0.889c0 0.497 0.403 0.9 0.9 0.9z"></path>
<path d="M9.775 14.899h-0.889c-0.497 0-0.9 0.403-0.9 0.9s0.403 0.9 0.9 0.9h0.889c0.497 0 0.9-0.403 0.9-0.9s-0.403-0.9-0.9-0.9z"></path>
<path d="M21.324 15.8c0 0.497 0.403 0.9 0.9 0.9h0.889c0.497 0 0.9-0.403 0.9-0.9s-0.403-0.9-0.9-0.9h-0.889c-0.497 0-0.9 0.403-0.9 0.9z"></path>
</svg>
