<svg
  xmlns="http://www.w3.org/2000/svg"
  width="64"
  height="64"
  viewBox="0 0 64 64"
  fill="black"
  fill-rule="nonzero"
>
  <path d="M49 32v-6c0-4.69-1.9-8.94-4.98-12.02A16.945 16.945 0 0 0 32 9c-4.69 0-8.94 1.9-12.02 4.98A16.945 16.945 0 0 0 15 26v6c0 2.76-1.12 5.26-2.93 7.07A9.995 9.995 0 0 1 7 41.8V45h50v-3.2a9.995 9.995 0 0 1-5.07-2.73A9.969 9.969 0 0 1 49 32zm5.76 4.24A5.98 5.98 0 0 0 59 38c1.1 0 2 .9 2 2v7c0 1.1-.9 2-2 2H5c-1.1 0-2-.9-2-2v-7c0-1.1.9-2 2-2 1.66 0 3.15-.67 4.24-1.76A5.98 5.98 0 0 0 11 32v-6c0-5.8 2.35-11.05 6.15-14.85C20.95 7.35 26.2 5 32 5c5.8 0 11.05 2.35 14.85 6.15C50.65 14.95 53 20.2 53 26v6c0 1.66.67 3.15 1.76 4.24zM38 54c0 1.66-.67 3.16-1.76 4.24A6.003 6.003 0 0 1 32 60c-1.66 0-3.16-.67-4.24-1.76A6.003 6.003 0 0 1 26 54c0-1.1.9-2 2-2h8c1.1 0 2 .9 2 2z" />
</svg>
