<!-- Generated by IcoMoon.io -->
<svg version="1.1" xmlns="http://www.w3.org/2000/svg" width="32" height="32" viewBox="0 0 32 32">
<title>alpine</title>
<path d="M12.17 19.28v-3l-2.24 2 2.24 1zM19.56 15.090l3.14 3.17c0.427 0.544 1.084 0.891 1.823 0.891 0.702 0 1.331-0.313 1.755-0.808l0.003-0.003-6.9-6.9-2.34 2c0.87 0.47 1.11 1.73 2.52 1.61zM13.46 13.88l0.41-0.050c0.138 0.275 0.287 0.511 0.457 0.73l-0.007-0.010c1.31 1.34 2.65 2.66 3.95 4 0.301 0.346 0.741 0.563 1.232 0.563 0.16 0 0.314-0.023 0.459-0.066l-0.012 0.003c0.699-0.225 1.285-0.466 1.848-0.745l-0.078 0.035-8.2-8.080-7.8 8c1.31 1.12 2.43 1.1 3.7-0.2s2.69-2.81 4-4.22zM9 3.53h14.2c2.31 4 4.63 8 6.91 12 0.072 0.146 0.114 0.318 0.114 0.5s-0.042 0.354-0.117 0.507l0.003-0.007c-2.11 3.77-4.33 7.55-6.5 11.34-0.158 0.358-0.509 0.603-0.918 0.603-0.029 0-0.057-0.001-0.086-0.004l0.004 0q-6.45 0-12.89 0c-0.029 0.003-0.063 0.004-0.097 0.004-0.443 0-0.823-0.266-0.99-0.647l-0.003-0.007c-0.93-1.61-1.86-3.21-2.79-4.82l-4.080-7v-0.16c0.18-0.188 0.345-0.394 0.49-0.614l0.010-0.016q3.39-5.82 6.74-11.68z"></path>
</svg>
