<svg
  xmlns="http://www.w3.org/2000/svg"
  width="64"
  height="64"
  viewBox="0 0 64 64"
  fill="black"
  fill-rule="nonzero"
>
  <path d="M46 32c0-1.1.9-2 2-2h10c1.1 0 2 .9 2 2 0 7.73-3.14 14.73-8.2 19.8A27.934 27.934 0 0 1 32 60c-7.73 0-14.73-3.14-19.8-8.2A27.934 27.934 0 0 1 4 32c0-1.1.9-2 2-2h10c1.1 0 2 .9 2 2s-.9 2-2 2H8.08c.48 5.83 3.04 11.07 6.95 14.97 3.9 3.9 9.14 6.47 14.97 6.95v-30.1a10.97 10.97 0 0 1-5.78-3.04A10.965 10.965 0 0 1 21 15c0-3.04 1.23-5.79 3.22-7.78C26.21 5.23 28.96 4 32 4s5.79 1.23 7.78 3.22C41.77 9.21 43 11.96 43 15s-1.23 5.79-3.22 7.78A10.97 10.97 0 0 1 34 25.82v30.1c5.83-.48 11.07-3.04 14.97-6.95 3.9-3.9 6.47-9.14 6.95-14.97H48c-1.1 0-2-.9-2-2zM27.05 19.95A6.976 6.976 0 0 0 32 22c1.93 0 3.68-.78 4.95-2.05A6.976 6.976 0 0 0 39 15c0-1.93-.78-3.68-2.05-4.95A6.976 6.976 0 0 0 32 8c-1.93 0-3.68.78-4.95 2.05A6.976 6.976 0 0 0 25 15c0 1.93.78 3.68 2.05 4.95z" />
</svg>
