<!-- Generated by IcoMoon.io -->
<svg version="1.1" xmlns="http://www.w3.org/2000/svg" width="32" height="32" viewBox="0 0 32 32">
<title>ansible</title>
<path d="M14.36 15.17l5.56 4.38-3.68-9.090-1.88 4.71z"></path>
<path d="M16 1.77c-7.859 0-14.23 6.371-14.23 14.23s6.371 14.23 14.23 14.23c7.859 0 14.23-6.371 14.23-14.23v0c0-7.859-6.371-14.23-14.23-14.23v0zM21.84 23.080c-0.31-0.017-0.586-0.147-0.79-0.35l0 0-7.34-5.93-2.46 6.2h-2.13l6.22-15c0.156-0.351 0.499-0.593 0.899-0.6h0.001c0.005-0 0.011-0 0.017-0 0.393 0 0.729 0.247 0.86 0.594l0.002 0.006 5.66 13.63c0.050 0.123 0.085 0.265 0.1 0.414l0 0.006c0 0.009 0 0.020 0 0.031 0 0.552-0.448 1-1 1-0.014 0-0.028-0-0.043-0.001l0.002 0z"></path>
</svg>
