<svg
  xmlns="http://www.w3.org/2000/svg"
  width="64"
  height="64"
  viewBox="0 0 64 64"
  fill="black"
  fill-rule="nonzero"
>
  <path d="M29.17 10.83a4.007 4.007 0 0 1 0-5.66 4.007 4.007 0 0 1 5.66 0 4.007 4.007 0 0 1 0 5.66 4.007 4.007 0 0 1-5.66 0zm0 48a4.007 4.007 0 0 1 0-5.66 4.007 4.007 0 0 1 5.66 0 4.007 4.007 0 0 1 0 5.66 4.007 4.007 0 0 1-5.66 0zm-24-24a4.007 4.007 0 0 1 0-5.66 4.007 4.007 0 0 1 5.66 0 4.007 4.007 0 0 1 0 5.66 4.007 4.007 0 0 1-5.66 0zm48 0a4.007 4.007 0 0 1 0-5.66 4.007 4.007 0 0 1 5.66 0 4.007 4.007 0 0 1 0 5.66 4.007 4.007 0 0 1-5.66 0zM14.98 18.92c-.64-.02-1.28-.21-1.86-.54-.34-.09-.66-.26-.92-.52s-.44-.58-.52-.92c-.33-.57-.51-1.21-.54-1.86-.04-.96.27-1.93.93-2.72.04-.05.09-.1.14-.15.05-.05.1-.1.15-.14.79-.66 1.76-.96 2.72-.93.64.02 1.28.21 1.86.54.34.09.66.26.92.52s.44.58.52.92c.33.57.51 1.21.54 1.86.04.96-.27 1.93-.93 2.72-.04.05-.09.1-.14.15-.05.05-.1.1-.15.14-.79.66-1.76.96-2.72.93zm33.94 33.94c-.64-.02-1.28-.21-1.86-.54-.34-.09-.66-.26-.92-.52s-.44-.58-.52-.92c-.33-.57-.51-1.21-.54-1.86-.04-.96.27-1.93.93-2.72.04-.05.09-.1.14-.15.05-.05.1-.1.15-.14.79-.66 1.76-.96 2.72-.93.64.02 1.28.21 1.86.54.34.09.66.26.92.52s.44.58.52.92c.33.57.51 1.21.54 1.86.04.96-.27 1.93-.93 2.72-.04.05-.09.1-.14.15-.05.05-.1.1-.15.14-.79.66-1.76.96-2.72.93zm-33.94 0c-.64-.02-1.28-.21-1.86-.54-.34-.09-.66-.26-.92-.52s-.44-.58-.52-.92c-.33-.57-.51-1.21-.54-1.86-.04-.96.27-1.94.94-2.73.01-.01.02-.03.04-.04.49-.56 1.11-.96 1.79-1.19.69-.22 1.44-.26 2.17-.08s1.38.55 1.89 1.06.88 1.16 1.06 1.89c.18.73.14 1.48-.08 2.17-.22.68-.62 1.3-1.19 1.79-.01.01-.03.02-.04.04-.79.66-1.77.97-2.73.94zm35.11-33.92c-.69.22-1.44.26-2.17.08s-1.38-.55-1.89-1.06-.88-1.16-1.06-1.89c-.18-.73-.14-1.48.08-2.17.22-.68.62-1.3 1.19-1.79.01-.01.03-.02.04-.04.79-.66 1.77-.97 2.73-.94.64.02 1.28.21 1.86.54.34.09.66.26.92.52s.44.58.52.92c.33.57.51 1.21.54 1.86.04.96-.27 1.94-.94 2.73-.01.01-.02.03-.04.04-.49.56-1.11.96-1.79 1.19z" />
</svg>
