<!-- Generated by IcoMoon.io -->
<svg version="1.1" xmlns="http://www.w3.org/2000/svg" width="32" height="32" viewBox="0 0 32 32">
<title>arrow-alt-down</title>
<path d="M30.074 15.199c-0.356-0.343-0.93-0.317-1.279 0.033l-11.416 11.416c-0.174 0.174-0.472 0.051-0.472-0.195v-23.733c0-0.484-0.372-0.9-0.855-0.923-0.516-0.024-0.942 0.387-0.942 0.897v23.793c0 0.246-0.298 0.37-0.472 0.195l-11.454-11.454c-0.351-0.351-0.92-0.351-1.27 0s-0.351 0.92 0 1.27l13.442 13.442c0.168 0.169 0.397 0.263 0.635 0.263s0.467-0.095 0.635-0.263l13.459-13.46c0.355-0.355 0.351-0.932-0.012-1.282z"></path>
</svg>
