<!-- Generated by IcoMoon.io -->
<svg version="1.1" xmlns="http://www.w3.org/2000/svg" width="32" height="32" viewBox="0 0 32 32">
<title>arrow-alt-left</title>
<path d="M16.801 30.074c0.343-0.356 0.317-0.93-0.033-1.279l-11.416-11.416c-0.174-0.174-0.051-0.472 0.195-0.472h23.733c0.484 0 0.9-0.372 0.923-0.855 0.024-0.516-0.387-0.942-0.897-0.942h-23.793c-0.246 0-0.37-0.298-0.195-0.472l11.454-11.454c0.351-0.351 0.351-0.92 0-1.27s-0.919-0.351-1.27 0l-13.442 13.442c-0.169 0.168-0.263 0.397-0.263 0.635s0.095 0.467 0.263 0.635l13.46 13.459c0.355 0.355 0.932 0.351 1.282-0.012z"></path>
</svg>
