<!-- Generated by IcoMoon.io -->
<svg version="1.1" xmlns="http://www.w3.org/2000/svg" width="32" height="32" viewBox="0 0 32 32">
<title>asia</title>
<path d="M28.504 15.642c-0.001-0.038-0.003-0.076-0.004-0.114-0.003-0.082-0.006-0.163-0.011-0.244-0.002-0.043-0.005-0.087-0.008-0.13-0.005-0.077-0.011-0.153-0.017-0.229-0.004-0.043-0.007-0.086-0.011-0.129-0.008-0.080-0.016-0.161-0.026-0.24-0.004-0.037-0.008-0.074-0.013-0.111-0.014-0.113-0.029-0.225-0.046-0.337-0-0.003-0.001-0.006-0.001-0.009-0.018-0.116-0.037-0.231-0.058-0.346-0.006-0.032-0.012-0.065-0.019-0.097-0.016-0.082-0.032-0.164-0.049-0.246-0.008-0.038-0.017-0.077-0.025-0.115-0.017-0.077-0.035-0.153-0.053-0.23-0.009-0.038-0.018-0.075-0.027-0.113-0.020-0.081-0.042-0.162-0.064-0.243-0.008-0.030-0.016-0.061-0.025-0.091-0.063-0.224-0.132-0.446-0.206-0.664-0.007-0.022-0.015-0.043-0.023-0.064-0.030-0.087-0.061-0.174-0.094-0.26-0.011-0.030-0.022-0.059-0.034-0.089-0.030-0.080-0.062-0.159-0.094-0.238-0.012-0.029-0.023-0.058-0.035-0.086-0.035-0.084-0.071-0.168-0.108-0.252-0.009-0.021-0.018-0.042-0.027-0.063-0.096-0.214-0.197-0.425-0.304-0.633-0.004-0.008-0.008-0.015-0.012-0.023-0.049-0.094-0.099-0.187-0.15-0.28-0.028-0.051-0.057-0.1-0.082-0.153-0.001-0.003-0.003-0.006-0.005-0.009-0.042-0.065-0.081-0.133-0.12-0.199-0.052-0.087-0.105-0.173-0.159-0.259-0.007-0.011-0.013-0.022-0.020-0.033-0.189-0.298-0.39-0.588-0.603-0.868-0.025-0.033-0.052-0.066-0.071-0.104-0.005-0.010-0.011-0.019-0.019-0.027-0.056-0.057-0.103-0.117-0.151-0.177-0.070-0.086-0.14-0.171-0.212-0.256-0.003-0.003-0.005-0.006-0.008-0.009-0.232-0.271-0.476-0.533-0.73-0.783-0.006-0.006-0.011-0.011-0.017-0.017-0.054-0.063-0.11-0.122-0.176-0.172-0.026-0.020-0.052-0.045-0.078-0.069-0.641-0.595-1.344-1.124-2.098-1.575 0 0 0 0 0 0-0.2-0.119-0.403-0.233-0.61-0.342-0.002-0.001-0.005-0.003-0.007-0.004-0.341-0.178-0.691-0.342-1.050-0.489-0.010-0.004-0.020-0.008-0.030-0.012-0.116-0.047-0.233-0.093-0.351-0.137-0-0-0.001-0-0.001-0.001-0.24-0.089-0.483-0.171-0.73-0.246-0.063-0.019-0.127-0.036-0.187-0.064-0.010-0.005-0.021-0.008-0.032-0.009-0.073-0.009-0.14-0.030-0.208-0.048-0.243-0.064-0.489-0.122-0.738-0.171-0.023-0.005-0.047-0.009-0.070-0.013-0.099-0.019-0.198-0.037-0.298-0.054-0.032-0.005-0.065-0.011-0.097-0.016-0.1-0.016-0.201-0.031-0.302-0.045-0.024-0.003-0.047-0.007-0.071-0.010-0.124-0.016-0.249-0.031-0.374-0.043-0.022-0.002-0.045-0.004-0.067-0.006-0.102-0.010-0.204-0.018-0.306-0.025-0.039-0.003-0.078-0.005-0.117-0.007-0.091-0.005-0.182-0.010-0.273-0.013-0.037-0.001-0.075-0.003-0.112-0.004-0.126-0.004-0.252-0.006-0.379-0.006-0.001 0-0.002 0-0.003 0-0.097 0-0.194 0.001-0.291 0.004-0.031 0.001-0.062 0.002-0.093 0.003-0.068 0.002-0.136 0.005-0.204 0.008-0.034 0.002-0.069 0.003-0.103 0.005-0.068 0.004-0.136 0.008-0.204 0.013-0.030 0.002-0.060 0.004-0.090 0.006-0.096 0.008-0.192 0.016-0.288 0.026-0.009 0.001-0.017 0.002-0.026 0.003-0.087 0.009-0.174 0.019-0.261 0.030-0.031 0.004-0.062 0.008-0.093 0.012-0.066 0.009-0.131 0.018-0.196 0.027-0.033 0.005-0.067 0.010-0.1 0.015-0.067 0.011-0.134 0.022-0.2 0.033-0.028 0.005-0.056 0.010-0.084 0.015-0.093 0.017-0.186 0.034-0.278 0.053-0.014 0.003-0.028 0.006-0.041 0.009-0.079 0.016-0.158 0.034-0.237 0.051-0.031 0.007-0.062 0.014-0.092 0.022-0.063 0.015-0.125 0.030-0.187 0.046-0.033 0.008-0.065 0.017-0.097 0.025-0.065 0.017-0.13 0.035-0.195 0.053-0.026 0.007-0.053 0.014-0.079 0.022-0.089 0.026-0.179 0.052-0.267 0.079-0.018 0.005-0.035 0.011-0.053 0.017-0.072 0.023-0.143 0.046-0.215 0.070-0.031 0.010-0.061 0.021-0.092 0.031-0.059 0.020-0.118 0.041-0.177 0.062-0.032 0.011-0.063 0.023-0.095 0.035-0.063 0.023-0.125 0.047-0.187 0.071-0.025 0.010-0.050 0.019-0.075 0.029-0.085 0.034-0.17 0.068-0.254 0.104-0.021 0.009-0.041 0.018-0.062 0.027-0.065 0.028-0.129 0.056-0.193 0.085-0.030 0.014-0.061 0.028-0.091 0.041-0.055 0.025-0.111 0.051-0.166 0.077-0.030 0.015-0.061 0.029-0.091 0.044-0.060 0.029-0.119 0.059-0.178 0.088-0.024 0.012-0.047 0.024-0.071 0.036-0.080 0.041-0.16 0.083-0.24 0.126-0.022 0.012-0.045 0.025-0.067 0.037-0.058 0.032-0.117 0.064-0.174 0.098-0.030 0.017-0.059 0.034-0.089 0.051-0.051 0.030-0.102 0.060-0.153 0.091-0.030 0.018-0.059 0.035-0.088 0.053-0.056 0.034-0.112 0.069-0.168 0.105-0.022 0.014-0.044 0.027-0.066 0.042-0.075 0.048-0.15 0.097-0.224 0.147-0.024 0.016-0.047 0.033-0.071 0.049-0.052 0.036-0.104 0.071-0.155 0.108-0.029 0.020-0.058 0.041-0.086 0.062-0.047 0.034-0.094 0.068-0.14 0.102-0.028 0.021-0.056 0.042-0.084 0.063-0.052 0.039-0.104 0.079-0.156 0.12-0.021 0.016-0.041 0.032-0.062 0.048-0.069 0.055-0.138 0.11-0.206 0.166-0.024 0.020-0.048 0.040-0.072 0.060-0.046 0.039-0.092 0.077-0.138 0.117-0.028 0.024-0.055 0.048-0.083 0.072-0.043 0.037-0.085 0.075-0.127 0.113-0.027 0.024-0.053 0.048-0.080 0.072-0.049 0.044-0.097 0.089-0.145 0.135-0.018 0.017-0.037 0.034-0.055 0.052-0.063 0.061-0.126 0.122-0.188 0.184-0.024 0.024-0.047 0.048-0.071 0.072-0.041 0.041-0.081 0.082-0.121 0.124-0.026 0.027-0.052 0.055-0.078 0.082-0.038 0.040-0.076 0.081-0.113 0.122-0.025 0.027-0.050 0.054-0.074 0.081-0.044 0.049-0.088 0.099-0.132 0.149-0.017 0.019-0.034 0.038-0.051 0.058-0.056 0.065-0.112 0.131-0.167 0.197-0.023 0.027-0.045 0.055-0.068 0.083-0.035 0.043-0.070 0.086-0.105 0.13-0.024 0.030-0.048 0.061-0.072 0.092-0.033 0.043-0.067 0.086-0.099 0.13-0.023 0.030-0.045 0.059-0.068 0.089-0.040 0.054-0.080 0.108-0.119 0.163-0.021 0.030-0.042 0.059-0.064 0.089-0.043 0.061-0.085 0.121-0.127 0.183-0.021 0.031-0.041 0.062-0.062 0.093-0.030 0.045-0.060 0.091-0.090 0.136-0.022 0.033-0.043 0.067-0.064 0.1-0.029 0.046-0.057 0.091-0.086 0.137-0.020 0.032-0.040 0.065-0.060 0.097-0.037 0.061-0.073 0.122-0.108 0.183-0.020 0.034-0.039 0.068-0.058 0.101-0.034 0.059-0.067 0.119-0.1 0.179-0.018 0.034-0.036 0.068-0.054 0.101-0.025 0.047-0.050 0.095-0.075 0.142-0.019 0.036-0.037 0.072-0.055 0.108-0.024 0.048-0.048 0.097-0.072 0.146-0.017 0.034-0.034 0.068-0.050 0.102-0.033 0.069-0.065 0.138-0.097 0.207-0.016 0.035-0.032 0.070-0.047 0.106-0.026 0.059-0.052 0.117-0.077 0.176-0.015 0.036-0.030 0.073-0.046 0.109-0.021 0.050-0.041 0.099-0.061 0.149-0.015 0.038-0.030 0.075-0.045 0.113-0.020 0.051-0.039 0.103-0.059 0.155-0.013 0.035-0.027 0.070-0.039 0.106-0.030 0.082-0.059 0.165-0.087 0.248-0 0-0 0.001-0 0.001s0 0 0 0c-0.036 0.107-0.071 0.215-0.105 0.324-0.026 0.083-0.051 0.166-0.075 0.249 0 0.001 0.001 0.001 0.001 0.002-0.010 0.036-0.022 0.072-0.032 0.108-0.014 0.050-0.027 0.099-0.040 0.149-0.010 0.040-0.021 0.080-0.031 0.12-0.015 0.058-0.029 0.117-0.043 0.176-0.011 0.048-0.023 0.097-0.033 0.145-0.013 0.059-0.026 0.118-0.039 0.177-0.008 0.038-0.015 0.075-0.023 0.113-0.012 0.059-0.023 0.118-0.034 0.178-0.005 0.030-0.011 0.059-0.017 0.089-0.015 0.083-0.028 0.167-0.042 0.251-0.005 0.033-0.010 0.066-0.015 0.099-0.010 0.064-0.018 0.128-0.027 0.192-0.004 0.028-0.008 0.057-0.011 0.085-0.011 0.088-0.021 0.176-0.030 0.264-0.006 0.057-0.010 0.114-0.018 0.171-0 0.002-0.001 0.005-0.001 0.007-0.003 0.065-0.009 0.129-0.014 0.194-0.007 0.092-0.013 0.184-0.018 0.277-0.001 0.017-0.001 0.033-0.002 0.050-0.004 0.080-0.007 0.16-0.009 0.24-0.001 0.026-0.001 0.052-0.002 0.079-0.002 0.095-0.004 0.191-0.004 0.287v0c0 1.899 0.424 3.698 1.181 5.31v0c0.37 0.787 0.818 1.529 1.337 2.216v0c0.183 0.242 0.374 0.477 0.573 0.705 2.293 2.622 5.662 4.278 9.419 4.278 3.56 0 6.772-1.487 9.050-3.874 0.006-0.007 0.013-0.014 0.019-0.020 0.125-0.132 0.248-0.267 0.367-0.404 0.018-0.020 0.035-0.040 0.052-0.061 0.359-0.418 0.691-0.86 0.993-1.323 0.039-0.060 0.078-0.121 0.117-0.182 0.48-0.764 0.88-1.584 1.188-2.447 0.045-0.127 0.089-0.255 0.13-0.385 0.385-1.203 0.593-2.484 0.593-3.815-0-0.12-0.002-0.239-0.006-0.358zM10.173 9.229c0.009-0.008 0.017-0.015 0.026-0.023 1.603-1.396 3.658-2.164 5.787-2.164 0.29 0 0.692 0.053 1.082 0.12 0.46 0.080 0.655 0.63 0.354 0.987-0.012 0.014-0.023 0.027-0.033 0.039l-0.034 0.040c-0.668 0.79-0.582 1.981 0.19 2.665 0.055 0.058 0.125 0.159 0.198 0.28 0.069 0.114 0.015 0.262-0.11 0.306l-0.003 0.001c-0.071 0.025-0.178 0.053-0.292 0.082l-0.095 0.024c-0.253 0.066-0.487 0.183-0.69 0.341-0.126 0.098-0.305 0.088-0.424-0.018l-0.002-0.002c-0.55-0.492-1.321-0.667-1.814-0.667-0.555 0-1.063 0.203-1.429 0.571l-0.002 0.002c-0.205 0.205-0.537 0.198-0.738-0.011-0.17-0.177-0.354-0.336-0.553-0.479-0.336-0.241-0.705-0.431-1.113-0.57-0.651-0.223-0.821-1.070-0.304-1.523zM20.919 24.579l-0.989 0.345c-0.205 0.072-0.432 0.041-0.61-0.083l-0.494-0.343c-0.144-0.1-0.321-0.14-0.495-0.113l-0.9 0.145c-0.475 0.077-0.877-0.352-0.768-0.821 0.046-0.198 0.178-0.364 0.359-0.454l1.744-0.864c0.226-0.112 0.494-0.089 0.698 0.058l0.602 0.436c0.092 0.067 0.199 0.109 0.312 0.123l0.28 0.036c0.215 0.027 0.403 0.156 0.508 0.345l0.123 0.223c0.202 0.367 0.026 0.828-0.37 0.967zM23.529 23.529c-0.196 0.196-0.398 0.382-0.605 0.561-0.101 0.082-0.182-0.085-0.194-0.111-0.423-0.894-0.847-1.787-1.271-2.679-0.020-0.041-0.059-0.062-0.098-0.062s-0.080 0.021-0.099 0.064c-0.139 0.306-0.278 0.613-0.468 1.032-0.019 0.042-0.059 0.064-0.099 0.064-0.034 0-0.067-0.015-0.089-0.047-0.307-0.446-0.535-0.776-0.841-1.222-0.021-0.030-0.055-0.047-0.090-0.047-0.015 0-0.030 0.003-0.044 0.009-0.525 0.235-1.225 0.521-1.89 0.871-0.544 0.285-1.013 0.723-1.568 0.975-0.507 0.23-0.724 0.515-0.701 1.072 0.021 0.523-0.040 1.050-0.075 1.641-0.004 0.060 0.043 0.112 0.103 0.115 0.036 0.002 0.069 0.004 0.101 0.004 0.035 0 0.068-0.003 0.1-0.010 0.55-0.14 1.1-0.279 1.646-0.436 0.243-0.070 0.466-0.104 0.672-0.104 0.544 0 0.966 0.244 1.297 0.732-1.047 0.345-2.166 0.533-3.329 0.533-5.199 0-9.525-3.736-10.441-8.669 0.007 0.057-0.003 0.005 0 0s0.388-0.414 0.581-0.617c0.432-0.454 0.736-1.031 1.139-1.653 0.047-0.073-0.006-0.167-0.091-0.167-0.002 0-0.004 0-0.005 0-0.351 0.016-0.683 0.064-0.924 0.064-0.168 0-0.293-0.024-0.348-0.098-0.123-0.165-0.242-0.332-0.36-0.501-0.068-0.098-0.097-0.218-0.082-0.337 0-0 0-0 0-0 0.004-0.029 0.085-0.231 0.096-0.231 0.035 0 0.070 0.016 0.091 0.052 0.101 0.166 0.201 0.332 0.302 0.499 0.020 0.033 0.056 0.053 0.093 0.053 0.010 0 0.021-0.001 0.031-0.005 1.42-0.426 2.059-0.896 2.518-1.922 0.022-0.048 0.005-0.105-0.039-0.134-0.225-0.149-0.48-0.389-0.672-0.389-0.018 0-0.035 0.002-0.052 0.007-0.161 0.043-0.299 0.062-0.419 0.062-0.539 0-0.697-0.397-0.828-0.85-0.021-0.073 0.036-0.14 0.104-0.14 0.014 0 0.028 0.003 0.042 0.009 0.714 0.301 1.392 0.711 2.090 0.748 1.418 0.077 2.284 0.647 2.706 1.995 0.157 0.502 0.419 0.972 0.714 1.593 0.020 0.041 0.059 0.062 0.098 0.062 0.041 0 0.081-0.022 0.1-0.066 0.148-0.342 0.281-0.573 0.283-0.805 0.008-1.017 0.874-1.388 1.446-1.963 0.028-0.028 0.083-0.040 0.152-0.040 0.189 0 0.483 0.091 0.613 0.208 0.883 0.791 1.725 1.628 2.544 2.416 0.021 0.020 0.048 0.030 0.075 0.030 0.015 0 0.031-0.003 0.045-0.010 1.029-0.477 0.728-1.014 0.29-1.601-0.129-0.173-0.184-0.401-0.257-0.615-0.020-0.059 0.015-0.123 0.076-0.139 0.178-0.046 0.358-0.089 0.531-0.15 0.69-0.242 1.535-0.259 1.698-1.246 0.070-0.423-0.631-1.906-1.185-2.387-0.045-0.039-0.049-0.108-0.010-0.154 0.092-0.109 0.192-0.236 0.227-0.236 0.002 0 0.004 0 0.005 0.001 0.526 0.27 1.041 0.56 1.641 0.898 0.018 0.010 0.036 0.015 0.054 0.015 0.080 0 0.143-0.094 0.088-0.171-0.131-0.187-0.263-0.375-0.422-0.601-0.031-0.044-0.025-0.105 0.014-0.142 0.263-0.25 0.618-0.509 0.816-0.857 0.457-0.804-1.599-1.984-1.484-2.099 0.485-0.485 4.489 2.475 5.802 4.884 0.725 1.437 1.134 3.060 1.134 4.779 0 3.255-0.767 5.358-3.077 7.668z"></path>
<path d="M18.283 18.274c-0.048 0-0.111 0.013-0.191 0.040-0.017 0.006-0.033 0.015-0.047 0.027-0.314 0.271-0.639 0.533-0.925 0.831-0.164 0.171-0.395 0.52-0.332 0.618 0.146 0.226 0.439 0.44 0.7 0.48 0.012 0.002 0.025 0.003 0.038 0.003 0.198 0 0.52-0.196 0.579-0.366 0.154-0.445 0.209-0.925 0.291-1.396 0.030-0.159 0.003-0.237-0.112-0.237z"></path>
<path d="M20.888 18.78c-0.212 0-0.426 0.066-0.649 0.197-0.073 0.043-0.089 0.141-0.035 0.206 0.186 0.226 0.368 0.46 0.577 0.666 0.146 0.144 0.341 0.294 0.532 0.324 0.364 0.056 0.735 0.071 1.062 0.087 0.002 0 0.005 0 0.007 0 0.109 0 0.177-0.122 0.115-0.215-0.569-0.852-1.080-1.266-1.608-1.266z"></path>
<path d="M14.754 18.984c-0.026-0.018-0.053-0.025-0.079-0.025-0.102 0-0.185 0.119-0.113 0.219 0.322 0.455 0.641 0.906 1.001 1.416 0.029 0.041 0.070 0.059 0.111 0.059 0.079 0 0.157-0.067 0.139-0.163-0.116-0.624-0.473-1.108-1.059-1.506z"></path>
</svg>
