<!-- Generated by IcoMoon.io -->
<svg version="1.1" xmlns="http://www.w3.org/2000/svg" width="32" height="32" viewBox="0 0 32 32">
<title>at</title>
<path d="M20.057 20.844c-1.139 0-2.008-0.745-2.008-1.449-0.373 0.724-1.904 1.449-3.664 1.449-2.567 0-3.892-1.553-3.892-3.685 0-2.588 1.842-6.252 6.521-6.252 1.304 0 2.567 0.373 3.167 0.58 0.414 0.145 0.621 0.331 0.621 0.704 0 0.124-0.021 0.29-0.041 0.373l-1.118 4.906c-0.041 0.186-0.062 0.435-0.062 0.58 0 0.745 0.414 1.139 0.952 1.139 1.283 0 2.877-1.925 2.877-5.196 0-3.457-2.588-6.003-6.624-6.003-4.616 0-8.198 3.188-8.198 8.115 0 4.658 2.836 7.887 7.783 7.887 3.726 0 5.651-1.076 6.314-1.076 0.497 0 0.787 0.248 0.787 0.642 0 0.414-0.248 0.662-0.642 0.828-1.304 0.58-3.892 1.097-6.5 1.097-6.748 0-9.398-4.409-9.398-9.378 0-5.506 3.995-9.585 9.895-9.585 5.299 0 8.239 3.312 8.239 7.452 0 4.534-2.463 6.873-5.010 6.873zM18.526 12.916c-0.373-0.186-1.221-0.352-1.863-0.352-2.546 0-3.933 2.588-3.933 4.596 0 1.18 0.662 2.029 2.029 2.029 1.346 0 2.422-0.704 2.608-1.449l1.159-4.823z"></path>
</svg>
