<svg
  xmlns="http://www.w3.org/2000/svg"
  width="64"
  height="64"
  viewBox="0 0 64 64"
  fill="black"
  fill-rule="nonzero"
>
  <path d="M18 32c0-3.87 1.57-7.37 4.1-9.9 2.53-2.53 6.03-4.1 9.9-4.1s7.37 1.57 9.9 4.1l.1.1V22c0-1.1.9-2 2-2s2 .9 2 2v10c0 1.38.56 2.63 1.46 3.54.91.91 2.15 1.46 3.54 1.46 1.38 0 2.63-.56 3.54-1.46.91-.91 1.46-2.15 1.46-3.54 0-5.73-2.02-11.05-5.44-15.23-3.43-4.18-8.25-7.2-13.87-8.32a23.933 23.933 0 0 0-16 2.37A23.933 23.933 0 0 0 9.83 22.8a24.003 24.003 0 0 0-.8 16.15c1.57 5.17 4.87 9.81 9.63 12.99a23.957 23.957 0 0 0 15.69 3.93c5.38-.53 10.57-2.86 14.62-6.91.78-.78 2.05-.78 2.83 0 .78.78.78 2.05 0 2.83a27.92 27.92 0 0 1-17.06 8.06c-6.27.62-12.75-.88-18.3-4.59A27.915 27.915 0 0 1 5.21 40.1a27.908 27.908 0 0 1 .93-18.84A27.937 27.937 0 0 1 18.81 7.29a27.902 27.902 0 0 1 18.66-2.76A27.993 27.993 0 0 1 60 32c0 2.48-1.01 4.74-2.64 6.36A8.972 8.972 0 0 1 51 41c-2.48 0-4.74-1.01-6.36-2.64l-.11-.11c-.68 1.36-1.57 2.59-2.63 3.65-2.53 2.53-6.03 4.1-9.9 4.1s-7.37-1.57-9.9-4.1C19.57 39.37 18 35.87 18 32zm6.93 7.07A9.969 9.969 0 0 0 32 42c2.76 0 5.26-1.12 7.07-2.93A9.969 9.969 0 0 0 42 32c0-2.76-1.12-5.26-2.93-7.07A9.969 9.969 0 0 0 32 22c-2.76 0-5.26 1.12-7.07 2.93A9.969 9.969 0 0 0 22 32c0 2.76 1.12 5.26 2.93 7.07z" />
</svg>
