<!-- Generated by IcoMoon.io -->
<svg version="1.1" xmlns="http://www.w3.org/2000/svg" width="32" height="32" viewBox="0 0 32 32">
<title>atom</title>
<path d="M28.321 8.886c-0.705-1.222-2.285-1.812-4.373-1.812-0.909 0-1.916 0.113-2.988 0.333-1.137-3.423-2.936-5.635-4.961-5.635s-3.824 2.211-4.961 5.635c-1.072-0.221-2.078-0.333-2.988-0.333-2.088 0-3.668 0.591-4.373 1.812-1.013 1.754 0.003 4.418 2.399 7.114-2.396 2.696-3.412 5.36-2.399 7.114 0.705 1.222 2.285 1.812 4.373 1.812 0.909 0 1.916-0.113 2.988-0.333 1.137 3.423 2.936 5.635 4.961 5.635s3.824-2.211 4.961-5.635c1.072 0.221 2.078 0.333 2.988 0.333 2.087 0 3.668-0.591 4.373-1.812 1.013-1.754-0.003-4.418-2.399-7.114 2.396-2.696 3.412-5.36 2.399-7.114zM23.949 8.875c1.432 0 2.484 0.341 2.813 0.912 0.425 0.737-0.084 2.278-1.299 3.927-0.216 0.294-0.451 0.588-0.703 0.881-0.051 0.060-0.142 0.065-0.2 0.010-0.73-0.686-1.543-1.363-2.428-2.019-0.062-0.046-0.102-0.115-0.11-0.191-0.125-1.094-0.305-2.136-0.534-3.111-0.018-0.077 0.031-0.153 0.109-0.168 0.837-0.158 1.628-0.242 2.351-0.242zM18.212 19.831c-0.652 0.377-1.312 0.725-1.972 1.044-0.151 0.073-0.328 0.073-0.479 0-0.66-0.319-1.32-0.667-1.972-1.044-0.655-0.378-1.287-0.774-1.892-1.184-0.139-0.095-0.228-0.248-0.24-0.416-0.053-0.729-0.080-1.474-0.080-2.231s0.027-1.502 0.080-2.231c0.012-0.168 0.101-0.321 0.24-0.416 0.605-0.41 1.237-0.806 1.892-1.184 0.652-0.377 1.312-0.725 1.972-1.044 0.151-0.073 0.328-0.073 0.479 0 0.66 0.319 1.32 0.667 1.972 1.044 0.655 0.378 1.287 0.774 1.892 1.184 0.139 0.095 0.228 0.248 0.24 0.416 0.053 0.729 0.080 1.474 0.080 2.231s-0.027 1.502-0.080 2.231c-0.012 0.168-0.101 0.321-0.24 0.416-0.605 0.41-1.237 0.806-1.892 1.184zM20.007 20.99c-0.082 0.466-0.175 0.919-0.279 1.36-0.009 0.039-0.049 0.062-0.088 0.051-0.433-0.13-0.873-0.276-1.317-0.438-0.056-0.020-0.062-0.098-0.009-0.126 0.266-0.144 0.532-0.292 0.799-0.446 0.268-0.155 0.531-0.312 0.791-0.471 0.051-0.031 0.115 0.012 0.104 0.071zM13.571 22.001c-0.409 0.147-0.813 0.28-1.212 0.4-0.038 0.012-0.078-0.012-0.088-0.051-0.105-0.44-0.198-0.894-0.279-1.36-0.010-0.059 0.054-0.102 0.104-0.071 0.259 0.16 0.523 0.317 0.791 0.471 0.233 0.135 0.466 0.265 0.699 0.392 0.091 0.050 0.081 0.183-0.016 0.218zM9.675 16.976c-0.364-0.305-0.711-0.613-1.041-0.925-0.029-0.027-0.029-0.074 0-0.101 0.33-0.312 0.677-0.62 1.041-0.925 0.046-0.038 0.115-0.005 0.114 0.055-0.009 0.304-0.013 0.611-0.013 0.921s0.004 0.616 0.013 0.921c0.002 0.060-0.068 0.093-0.114 0.055zM11.993 11.010c0.082-0.466 0.175-0.919 0.279-1.36 0.009-0.039 0.049-0.062 0.088-0.051 0.433 0.13 0.873 0.276 1.317 0.438 0.056 0.020 0.062 0.098 0.009 0.126-0.266 0.144-0.533 0.292-0.799 0.446-0.268 0.155-0.531 0.312-0.791 0.471-0.051 0.031-0.115-0.012-0.104-0.071zM18.323 10.038c0.445-0.162 0.884-0.308 1.317-0.438 0.038-0.011 0.078 0.012 0.088 0.051 0.105 0.44 0.198 0.894 0.279 1.359 0.010 0.059-0.054 0.102-0.105 0.071-0.259-0.159-0.523-0.317-0.791-0.471-0.266-0.154-0.532-0.302-0.799-0.446-0.052-0.028-0.047-0.105 0.009-0.126zM22.325 15.025c0.364 0.304 0.711 0.613 1.041 0.925 0.029 0.027 0.029 0.074 0 0.101-0.33 0.312-0.677 0.62-1.041 0.925-0.046 0.038-0.115 0.005-0.114-0.055 0.009-0.304 0.013-0.611 0.013-0.921s-0.004-0.616-0.013-0.921c-0.002-0.060 0.068-0.093 0.114-0.055zM13.248 6.661c0.821-1.876 1.901-3.088 2.752-3.088s1.931 1.212 2.752 3.088c0.146 0.334 0.284 0.685 0.412 1.049 0.026 0.074-0.015 0.155-0.091 0.178-0.959 0.289-1.952 0.654-2.962 1.093-0.070 0.031-0.151 0.031-0.221 0-1.010-0.439-2.003-0.804-2.962-1.093-0.075-0.023-0.117-0.104-0.091-0.178 0.128-0.364 0.265-0.715 0.412-1.049zM5.238 9.787c0.33-0.571 1.381-0.912 2.813-0.912h0c0.723 0 1.514 0.083 2.351 0.242 0.077 0.015 0.127 0.091 0.109 0.168-0.229 0.975-0.409 2.017-0.534 3.111-0.009 0.076-0.049 0.146-0.11 0.191-0.885 0.655-1.698 1.333-2.428 2.019-0.058 0.054-0.148 0.049-0.2-0.010-0.251-0.293-0.486-0.587-0.703-0.881-1.214-1.649-1.724-3.19-1.299-3.927zM8.051 23.125c-1.432 0-2.484-0.341-2.813-0.912-0.425-0.737 0.084-2.278 1.299-3.927 0.216-0.294 0.451-0.588 0.703-0.881 0.051-0.060 0.142-0.064 0.2-0.010 0.73 0.686 1.543 1.363 2.428 2.019 0.062 0.046 0.102 0.115 0.11 0.191 0.125 1.094 0.305 2.136 0.534 3.111 0.018 0.077-0.031 0.153-0.109 0.168-0.837 0.159-1.628 0.242-2.351 0.242zM18.752 25.339c-0.821 1.876-1.901 3.088-2.752 3.088s-1.931-1.212-2.752-3.088c-0.165-0.376-0.318-0.772-0.459-1.186 1.036-0.306 2.114-0.701 3.211-1.183 1.097 0.482 2.175 0.877 3.211 1.183-0.142 0.414-0.295 0.81-0.459 1.186zM26.762 22.213c-0.33 0.571-1.381 0.912-2.813 0.912-0.723 0-1.514-0.083-2.351-0.242-0.077-0.015-0.127-0.091-0.109-0.168 0.229-0.975 0.409-2.017 0.534-3.111 0.009-0.076 0.049-0.146 0.11-0.191 0.885-0.655 1.698-1.333 2.428-2.019 0.058-0.054 0.148-0.049 0.2 0.010 0.251 0.293 0.486 0.587 0.703 0.881 1.214 1.649 1.724 3.19 1.299 3.927z"></path>
<path d="M18.668 16c0 1.473-1.194 2.668-2.668 2.668s-2.668-1.194-2.668-2.668c0-1.473 1.194-2.668 2.668-2.668s2.668 1.194 2.668 2.668z"></path>
</svg>
