<svg
  xmlns="http://www.w3.org/2000/svg"
  width="64"
  height="64"
  viewBox="0 0 64 64"
  fill="black"
  fill-rule="nonzero"
>
  <path d="M32 10.92L13.61 29.31a15.945 15.945 0 0 0-4.69 11.32c0 4.1 1.56 8.19 4.69 11.32 3.13 3.13 7.22 4.69 11.32 4.69 4.1 0 8.19-1.56 11.32-4.69l18.38-18.39c.78-.78 2.05-.78 2.83 0 .78.78.78 2.05 0 2.83L39.08 54.78a19.937 19.937 0 0 1-14.14 5.86c-5.12 0-10.24-1.95-14.14-5.86a19.937 19.937 0 0 1-5.86-14.14c0-5.12 1.95-10.24 5.86-14.14L28.92 8.38c.07-.1.15-.2.24-.29a13.98 13.98 0 0 1 9.91-4.11c3.59 0 7.18 1.37 9.91 4.11A13.98 13.98 0 0 1 53.09 18c0 3.59-1.37 7.18-4.11 9.91L30.6 46.28a8.06 8.06 0 0 1-3.59 2.1 8.028 8.028 0 0 1-7.77-2.07 7.92 7.92 0 0 1-2.07-3.61c-.37-1.39-.35-2.82.02-4.16a7.974 7.974 0 0 1 2.1-3.58l18.37-18.37c.78-.78 2.05-.78 2.83 0 .78.78.78 2.05 0 2.83L22.11 37.8l-.01.01-.01.01c-.51.5-.87 1.12-1.05 1.79-.18.67-.19 1.39-.01 2.08.18.69.55 1.31 1.04 1.8s1.11.85 1.8 1.04c.69.18 1.41.18 2.08-.01.67-.18 1.29-.54 1.79-1.05l.01-.01.01-.01 18.39-18.38a9.976 9.976 0 0 0 2.93-7.09c0-2.57-.98-5.13-2.94-7.09a9.987 9.987 0 0 0-7.09-2.94c-2.46 0-4.91.9-6.83 2.69-.07.09-.14.18-.22.26z" />
</svg>
