<svg
  xmlns="http://www.w3.org/2000/svg"
  width="64"
  height="64"
  viewBox="0 0 64 64"
  fill="black"
  fill-rule="nonzero"
>
  <path d="M28.54 41.49l5.24-8.38a2.1 2.1 0 0 0-3.56-2.23l-3.46 5.54-3.46-5.54a2.1 2.1 0 0 0-3.55 2.23L25 41.49a2.11 2.11 0 0 0 3.56 0zM44.42 53h4.34a2.1 2.1 0 0 0 2.1-2.1V21.52a2.1 2.1 0 0 0-2.1-2.1H44.4a2.1 2.1 0 0 0 0 4.2h2.27v25.14h-2.25a2.1 2.1 0 1 0 0 4.19zm-8.23-4.19H17.33V23.62h18.86zm2.1-29.33h-23a2.1 2.1 0 0 0-2.1 2.09v29.29A2.1 2.1 0 0 0 15.24 53h23a2.1 2.1 0 0 0 2.09-2.09V21.52a2.1 2.1 0 0 0-2.04-2.09zM61.33 9v46a6.29 6.29 0 0 1-6.28 6.29H9A6.28 6.28 0 0 1 2.67 55V17.33A6.28 6.28 0 0 1 9 11.05h18.81a2.1 2.1 0 0 1 0 4.19H9a2.09 2.09 0 0 0-2.09 2.09V55A2.1 2.1 0 0 0 9 57.14h46.1A2.1 2.1 0 0 0 57.14 55V9a2.1 2.1 0 0 0-2.09-2.1H4.76a2.09 2.09 0 0 1 0-4.18h50.29A6.28 6.28 0 0 1 61.33 9z" />
</svg>
