<!-- Generated by IcoMoon.io -->
<svg version="1.1" xmlns="http://www.w3.org/2000/svg" width="32" height="32" viewBox="0 0 32 32">
<title>backup</title>
<path d="M28.837 16.872c-0.023-0.178-0.052-0.354-0.087-0.528-0.024-0.116-0.050-0.23-0.079-0.344-0.058-0.227-0.128-0.45-0.208-0.668-0.040-0.109-0.082-0.217-0.127-0.323-0.067-0.16-0.141-0.316-0.219-0.47-0.105-0.205-0.219-0.403-0.342-0.596-0.093-0.144-0.19-0.285-0.293-0.422-0.034-0.046-0.069-0.091-0.104-0.136-0.141-0.179-0.29-0.351-0.447-0.516-1.296-1.359-3.124-2.206-5.149-2.206-0.151 0-0.301 0.005-0.449 0.014l-0.147 0.009c-0.16 0.010-0.295-0.116-0.294-0.276 0.001-1.145 0.002-5.082 0.002-5.082 0-0.207-0.079-0.409-0.228-0.602-0.132-0.172-0.32-0.338-0.558-0.495-0.059-0.039-0.122-0.078-0.187-0.117-0.098-0.058-0.203-0.114-0.315-0.169-0.483-0.238-1.086-0.452-1.786-0.634-0.323-0.084-0.666-0.161-1.026-0.23-0.12-0.023-0.242-0.045-0.367-0.067-0.434-0.075-0.892-0.139-1.369-0.192-0.409-0.045-0.831-0.081-1.265-0.108-0.072-0.004-0.145-0.009-0.218-0.013-0.146-0.008-0.293-0.015-0.442-0.020s-0.298-0.010-0.448-0.014c-0.15-0.003-0.302-0.006-0.455-0.007-0.076-0.001-0.153-0.001-0.23-0.001-0.614 0-1.213 0.019-1.792 0.054-0.145 0.009-0.288 0.019-0.43 0.030-0.497 0.038-0.978 0.089-1.437 0.152-0.131 0.018-0.261 0.037-0.389 0.056-0.383 0.059-0.751 0.126-1.099 0.2-0.116 0.025-0.23 0.050-0.342 0.077s-0.222 0.054-0.329 0.082c-0.215 0.056-0.421 0.115-0.617 0.177-0.442 0.139-0.834 0.292-1.168 0.457-0.111 0.055-0.216 0.111-0.315 0.169-0.065 0.038-0.128 0.077-0.187 0.117-0.089 0.059-0.171 0.119-0.246 0.181-0.125 0.102-0.229 0.207-0.312 0.315-0.149 0.194-0.228 0.395-0.228 0.602v5.335c0 0.486 0.433 0.941 1.19 1.334-0.076 0.039-0.148 0.079-0.217 0.119-0.065 0.038-0.128 0.077-0.187 0.117-0.089 0.059-0.171 0.119-0.246 0.181-0.125 0.102-0.229 0.207-0.312 0.315-0.149 0.194-0.228 0.395-0.228 0.602v5.335c0 0.486 0.433 0.941 1.19 1.334 0.115 0.060 0.187 0.097 0.216 0.112-0.029-0.015-0.101-0.052-0.216-0.112-0.107 0.055-0.207 0.112-0.301 0.17-0.57 0.352-0.889 0.747-0.889 1.164v5.335c0 1.473 3.981 2.668 8.892 2.668 0.998 0 1.957-0.049 2.852-0.14 0.138-0.014 0.274-0.029 0.409-0.045s0.268-0.033 0.399-0.051c0.131-0.018 0.261-0.037 0.389-0.056 0.064-0.010 0.127-0.020 0.19-0.030 0.252-0.041 0.497-0.086 0.733-0.134 0.177-0.036 0.35-0.074 0.518-0.113 0.224-0.053 0.439-0.109 0.645-0.168 0.515-0.147 0.971-0.313 1.356-0.493 0.077-0.036 0.151-0.073 0.223-0.11s0.14-0.075 0.205-0.113c0.065-0.038 0.128-0.077 0.187-0.117 0.030-0.020 0.059-0.040 0.087-0.059 0.056-0.040 0.109-0.080 0.159-0.121 0.125-0.102 0.229-0.207 0.312-0.315 0.033-0.043 0.063-0.086 0.089-0.13 0.091-0.153 0.139-0.311 0.139-0.472v-1.672c0-0.086 0.075-0.152 0.16-0.143 0.001 0 0.001 0 0.002 0 0.239 0.024 0.482 0.037 0.727 0.037 2.271 0 4.294-1.065 5.596-2.722 0.070-0.090 0.139-0.181 0.205-0.274 0.033-0.046 0.066-0.093 0.098-0.141 0.064-0.095 0.126-0.191 0.185-0.289 0.089-0.147 0.173-0.297 0.252-0.45 0.052-0.102 0.102-0.206 0.15-0.311s0.093-0.211 0.135-0.319c0.021-0.054 0.042-0.108 0.062-0.163 0.040-0.109 0.077-0.219 0.112-0.331 0.091-0.292 0.164-0.593 0.216-0.9 0.018-0.102 0.033-0.206 0.046-0.309 0.009-0.074 0.018-0.149 0.025-0.224 0.021-0.225 0.032-0.452 0.032-0.682v0c0-0.307-0.019-0.609-0.057-0.906zM6.965 4.973c0.005-0.001 0.010-0.002 0.015-0.004 1.415-0.327 3.197-0.507 5.018-0.507s3.604 0.18 5.018 0.507c0.005 0.001 0.010 0.002 0.015 0.004 0.375 0.087 0.376 0.624 0 0.712-0.005 0.001-0.010 0.002-0.016 0.004-1.415 0.327-3.197 0.507-5.018 0.507s-3.604-0.18-5.018-0.507c-0.005-0.001-0.010-0.002-0.016-0.004-0.375-0.088-0.375-0.625 0-0.712zM4.907 7.662c0-0.294 0.238-0.531 0.531-0.531 0.089 0.029 0.179 0.058 0.272 0.085 0.101 0.030 0.204 0.060 0.309 0.088s0.213 0.057 0.323 0.084 0.222 0.054 0.336 0.079c0.114 0.026 0.23 0.050 0.349 0.074s0.239 0.047 0.361 0.069c0.061 0.011 0.123 0.022 0.185 0.033 0.124 0.021 0.25 0.042 0.378 0.062s0.257 0.038 0.389 0.056c0.197 0.027 0.398 0.051 0.602 0.074 0.953 0.105 1.983 0.162 3.057 0.162 0.077 0 0.153-0 0.23-0.001 0.153-0.001 0.304-0.003 0.455-0.007s0.3-0.008 0.448-0.014c0.148-0.006 0.296-0.012 0.442-0.020s0.291-0.017 0.434-0.027c0.358-0.025 0.709-0.056 1.049-0.094 0.195-0.021 0.387-0.045 0.576-0.070 0.074-0.010 0.148-0.020 0.222-0.031 0.075-0.011 0.149-0.022 0.223-0.034 0.117-0.018 0.234-0.037 0.348-0.057 0.072-0.012 0.143-0.025 0.213-0.038 0.102-0.019 0.203-0.038 0.303-0.058 0.022-0.004 0.044-0.009 0.066-0.013 0.093-0.019 0.184-0.038 0.274-0.059 0.026-0.006 0.051-0.011 0.077-0.017 0.101-0.023 0.2-0.046 0.297-0.070 0.11-0.027 0.217-0.055 0.323-0.084 0.053-0.014 0.105-0.029 0.156-0.044 0.067-0.019 0.133-0.039 0.198-0.059 0.077-0.023 0.152-0.047 0.226-0.071 0.294 0 0.531 0.238 0.531 0.531v2.063c0 0.36-0.214 0.689-0.546 0.828-0.353 0.148-0.851 0.316-1.527 0.472-0.083 0.019-0.167 0.038-0.252 0.056v0c-1.371 0.292-3.051 0.452-4.766 0.452s-3.395-0.16-4.766-0.452v0c-0.085-0.018-0.169-0.037-0.252-0.056-0.676-0.156-1.174-0.324-1.527-0.472-0.332-0.139-0.546-0.467-0.546-0.828v-2.062zM15.869 13.82c-0.044 0.065-0.112 0.11-0.189 0.121-1.131 0.168-2.396 0.258-3.681 0.258-1.822 0-3.604-0.18-5.018-0.507-0.005-0.001-0.010-0.002-0.016-0.004-0.375-0.088-0.375-0.625 0-0.712 0.005-0.001 0.010-0.002 0.015-0.004 0.083-0.019 0.167-0.038 0.252-0.056 1.378 0.263 3.013 0.415 4.766 0.415 0.998 0 1.957-0.049 2.852-0.14 0.138-0.014 0.274-0.029 0.409-0.045s0.268-0.033 0.399-0.051 0.261-0.037 0.389-0.056c0.064-0.010 0.127-0.020 0.19-0.030l0.004-0.001c0.102-0.017 0.169 0.102 0.102 0.182-0.169 0.2-0.328 0.41-0.474 0.629zM15.743 21.544c0.105 0.169 0.002 0.392-0.195 0.42-1.097 0.156-2.314 0.239-3.55 0.239-1.822 0-3.604-0.18-5.018-0.507l-0.005-0.001c-0.228-0.053-0.367-0.281-0.294-0.503 0.052-0.157 0.172-0.186 0.298-0.215 0.083-0.019 3.265 0.359 5.018 0.359 0.929 0 2.26-0.106 3.317-0.203 0.11-0.010 0.214 0.047 0.268 0.143 0.051 0.091 0.105 0.181 0.16 0.269zM4.907 15.665c0-0.294 0.238-0.531 0.531-0.531 1.626 0.533 3.963 0.867 6.56 0.867 0.077 0 0.153-0 0.23-0.001 0.153-0.001 0.304-0.003 0.455-0.007s0.3-0.008 0.448-0.014c0.148-0.006 0.296-0.012 0.442-0.020s0.291-0.017 0.434-0.027c0.181-0.013 0.359-0.027 0.535-0.043 0.187-0.017 0.336 0.152 0.295 0.335-0.112 0.5-0.171 1.020-0.171 1.554 0 0.447 0.041 0.884 0.12 1.309 0.030 0.161-0.083 0.312-0.246 0.328-0.815 0.078-1.674 0.119-2.542 0.119-1.715 0-3.395-0.16-4.766-0.452-0.085-0.018-0.169-0.037-0.252-0.056-0.676-0.156-1.174-0.324-1.527-0.472-0.332-0.139-0.546-0.467-0.546-0.828l-0-2.063zM19.090 25.73c0 0.36-0.214 0.689-0.546 0.828-0.353 0.148-0.851 0.316-1.527 0.472-1.415 0.327-3.197 0.507-5.018 0.507s-3.604-0.18-5.018-0.507c-0.676-0.156-1.174-0.324-1.527-0.472-0.332-0.139-0.546-0.467-0.546-0.827 0-0.581 0-1.49 0-2.064 0-0.294 0.238-0.531 0.531-0.531v0c-0.248-0.081-0.479-0.167-0.692-0.257 0.213 0.090 0.444 0.175 0.692 0.257 0.041 0.013 0.082 0.027 0.123 0.040 0.196 0.062 0.402 0.121 0.617 0.177 0.108 0.028 0.217 0.055 0.329 0.082s0.226 0.052 0.342 0.077c0.116 0.025 0.235 0.049 0.355 0.072 0.18 0.035 0.365 0.067 0.554 0.098 0.252 0.041 0.511 0.079 0.777 0.112 0.066 0.008 0.133 0.017 0.201 0.025 1.010 0.119 2.11 0.185 3.261 0.185 1.765 0 3.41-0.154 4.793-0.42 0.15-0.029 0.296-0.059 0.44-0.091 0.152-0.033 0.311-0.001 0.438 0.089 0.097 0.069 0.207 0.145 0.277 0.19 0.241 0.154 0.491 0.294 0.75 0.419 0.050 0.024 0.145 0.067 0.229 0.104 0.1 0.044 0.165 0.144 0.165 0.253l-0 1.183zM21.78 23.091c-0.303 0-0.6-0.027-0.889-0.076-2.069-0.35-3.735-1.899-4.255-3.906-0.11-0.425-0.169-0.871-0.169-1.331 0-0.797 0.178-1.553 0.494-2.232 0.679-1.459 2-2.56 3.599-2.938 0.392-0.093 0.8-0.143 1.221-0.143 2.93 0 5.313 2.383 5.313 5.313s-2.383 5.313-5.313 5.313z"></path>
<path d="M23.79 18.052l-0.636 0.636c-0.175 0.175-0.473 0.051-0.473-0.196v-4.246c0-0.485-0.373-0.902-0.857-0.925-0.517-0.024-0.944 0.388-0.944 0.899v4.271c0 0.247-0.298 0.37-0.473 0.196l-0.636-0.636c-0.351-0.351-0.926-0.377-1.282-0.033-0.364 0.351-0.368 0.93-0.012 1.285l2.57 2.57c0.203 0.203 0.469 0.304 0.735 0.304s0.532-0.101 0.735-0.304l2.57-2.57c0.356-0.356 0.352-0.935-0.012-1.285-0.357-0.344-0.932-0.318-1.283 0.033z"></path>
</svg>
