<svg
  xmlns="http://www.w3.org/2000/svg"
  width="64"
  height="64"
  viewBox="0 0 64 64"
  fill="black"
  fill-rule="nonzero"
>
  <path d="M57.87 50.3l3 8c.23.61.14 1.3-.23 1.84S59.65 61 59 61H5c-.66 0-1.27-.32-1.64-.86a2.01 2.01 0 0 1-.23-1.84l3-8A2 2 0 0 1 8 49h2.07l.85-23H5c-.87 0-1.64-.56-1.91-1.4-.26-.83.04-1.74.76-2.24l27-19c.69-.49 1.61-.49 2.3 0l27 19c.71.5 1.02 1.41.76 2.24-.26.83-1.03 1.4-1.91 1.4h-5.92l.85 23H56a2 2 0 0 1 1.87 1.3zM37.08 26l.85 23h4.15l.85-23zm-16 0l.85 23h4.15l.85-23zM9.39 53l-1.5 4h48.23l-1.5-4zm1.93-31h41.37L32.01 7.45zm2.76 27h3.85l-.85-23h-2.15zm18.99-23h-2.15l-.85 23h3.85zm16 0h-2.15l-.85 23h3.85z" />
</svg>
