<!-- Generated by IcoMoon.io -->
<svg version="1.1" xmlns="http://www.w3.org/2000/svg" width="32" height="32" viewBox="0 0 32 32">
<title>bank</title>
<path d="M24.95 9.946v0z"></path>
<path d="M15.745 4.912v0z"></path>
<path d="M27.424 24.896h-0.796v-1.003c0-0.798-0.668-1.447-1.489-1.447-0.086 0-0.155-0.069-0.155-0.155v-9.944c0-0.281 0.228-0.509 0.509-0.509h2.507c0.966 0 1.31-1.279 0.474-1.763l-12-6.947c-0.147-0.086-0.31-0.128-0.474-0.128s-0.327 0.042-0.474 0.127l-12 6.947c-0.836 0.485-0.492 1.764 0.474 1.764h2.506c0.281 0 0.509 0.228 0.509 0.509v9.944c0 0.086-0.069 0.155-0.155 0.155v0c-0.821 0-1.489 0.649-1.489 1.447v1.003h-0.795c-0.928 0-1.654 0.636-1.654 1.447v1.21c-0.001 0.811 0.726 1.447 1.654 1.447h22.849c0.928 0 1.654-0.636 1.654-1.447v-1.21c0-0.812-0.727-1.447-1.655-1.447zM24.036 26.539h-16.315c-0.457 0-0.827-0.37-0.827-0.827s0.37-0.827 0.827-0.827h16.315c0.457 0 0.827 0.37 0.827 0.827s-0.371 0.827-0.827 0.827zM8.67 22.445v-9.77h1.592v9.77h-1.592zM11.916 22.445v-10.608h8.168v10.608h-8.168zM21.738 22.445v-9.77h1.592v9.77h-1.592zM7.114 10.183h-0.474l0.41-0.237c0 0 0 0 0 0l8.695-5.034c0 0 0 0 0 0l0.255-0.148 0.255 0.148c0 0 0 0 0 0l8.695 5.034c0 0 0 0 0 0l0.41 0.237h-18.246z"></path>
<path d="M16.255 4.912l-0.255-0.148-0.255 0.148c0.158-0.091 0.352-0.091 0.51 0z"></path>
<path d="M24.95 9.946c0.113 0.065 0.066 0.237-0.064 0.237h0.474l-0.41-0.237z"></path>
<path d="M7.050 9.946l-0.41 0.237h0.474c-0.13 0-0.177-0.172-0.064-0.237z"></path>
<path d="M22.821 22.445h0.509v-0.509c0 0.281-0.228 0.509-0.509 0.509z"></path>
<path d="M22.247 12.675h-0.509v0.509c0-0.281 0.228-0.509 0.509-0.509z"></path>
<path d="M23.33 13.184v-0.509h-0.509c0.281 0 0.509 0.228 0.509 0.509z"></path>
<path d="M21.738 21.936v0.509h0.509c-0.281 0-0.509-0.228-0.509-0.509z"></path>
<path d="M19.575 22.445h0.509v-0.509c0 0.281-0.228 0.509-0.509 0.509z"></path>
<path d="M11.916 21.936v0.509h0.509c-0.281 0-0.509-0.228-0.509-0.509z"></path>
<path d="M20.084 12.346v-0.509h-0.509c0.281 0.001 0.509 0.228 0.509 0.509z"></path>
<path d="M12.425 11.838h-0.509v0.509c0-0.282 0.228-0.509 0.509-0.509z"></path>
<path d="M9.753 22.445h0.509v-0.509c0 0.281-0.228 0.509-0.509 0.509z"></path>
<path d="M10.262 13.184v-0.509h-0.509c0.281 0 0.509 0.228 0.509 0.509z"></path>
<path d="M9.179 12.675h-0.509v0.509c0-0.281 0.228-0.509 0.509-0.509z"></path>
<path d="M8.67 21.936v0.509h0.509c-0.281 0-0.509-0.228-0.509-0.509z"></path>
</svg>
