<svg
  xmlns="http://www.w3.org/2000/svg"
  width="64"
  height="64"
  viewBox="0 0 64 64"
  fill="black"
  fill-rule="nonzero"
>
  <path d="M54 26c0-1.1.9-2 2-2h2.09c1.12.05 2.13.56 2.83 1.32A4.13 4.13 0 0 1 62 28.21v7.57c.03 1.11-.38 2.13-1.08 2.89-.7.77-1.7 1.27-2.83 1.32H56c-1.1 0-2-.9-2-2s.9-2 2-2h1.92c.02 0 .04-.01.05-.03a.09.09 0 0 0 .03-.07v-7.72-.08a.09.09 0 0 0-.03-.07.055.055 0 0 0-.05-.03H56c-1.1 0-2-.9-2-2zM20.89 51.66a1.987 1.987 0 0 1-.55-2.77L30.27 34h-8.26c-.74 0-1.42-.41-1.76-1.06-.35-.65-.31-1.44.1-2.05l12-18c.61-.92 1.85-1.17 2.77-.55.92.61 1.17 1.85.55 2.77L25.74 30H34c.74 0 1.42.41 1.76 1.06.35.65.31 1.44-.1 2.05l-12 18c-.61.92-1.85 1.17-2.77.55zM37.29 26c0-1.1.9-2 2-2H43c1.1 0 2 .9 2 2v12c0 1.1-.9 2-2 2h-3.38c-1.1 0-2-.9-2-2s.9-2 2-2H41v-8h-1.71c-1.1 0-2-.9-2-2zM18.71 38c0 1.1-.9 2-2 2H11c-1.1 0-2-.9-2-2V26c0-1.1.9-2 2-2h5.39c1.1 0 2 .9 2 2s-.9 2-2 2H13v8h3.71c1.1 0 2 .9 2 2zm4.34-19c0 1.1-.9 2-2 2H9.31c-.9-.01-1.72.34-2.32.93-.6.58-.97 1.39-.99 2.29v15.57c.01.9.39 1.7.99 2.29.6.59 1.42.94 2.32.93H15.72c1.1 0 2 .9 2 2s-.9 2-2 2H9.34c-2 .02-3.82-.77-5.15-2.07A7.22 7.22 0 0 1 2 39.83V24.2v-.03c.03-2 .86-3.81 2.19-5.11a7.28 7.28 0 0 1 5.15-2.07h11.71c1.1 0 2 .9 2 2zM33 45c0-1.1.9-2 2-2h9.69c.9.01 1.72-.34 2.32-.93.6-.58.97-1.39.99-2.29V24.21c-.01-.9-.39-1.7-.99-2.29a3.24 3.24 0 0 0-2.32-.93H40.28c-1.1 0-2-.9-2-2s.9-2 2-2h4.38c2-.02 3.82.77 5.15 2.07A7.22 7.22 0 0 1 52 24.17V39.83c-.03 2-.86 3.81-2.19 5.11a7.28 7.28 0 0 1-5.15 2.07H35c-1.1 0-2-.9-2-2z" />
</svg>
