<svg
  xmlns="http://www.w3.org/2000/svg"
  width="64"
  height="64"
  viewBox="0 0 64 64"
  fill="black"
  fill-rule="nonzero"
>
  <path d="M62 46c0 1.1-.9 2-2 2H4c-1.1 0-2-.9-2-2V18c0-1.1.9-2 2-2h56c1.1 0 2 .9 2 2zM6 20v3.66c.85-.3 1.62-.79 2.24-1.42.63-.63 1.12-1.39 1.42-2.24zm0 24h3.66a5.91 5.91 0 0 0-1.42-2.24A5.988 5.988 0 0 0 6 40.34zm18.03 0c-.26-.31-.51-.63-.75-.96C21.21 40.13 20 36.23 20 32c0-4.22 1.22-8.13 3.28-11.04.24-.33.49-.66.75-.96H13.8a9.995 9.995 0 0 1-2.73 5.07A9.995 9.995 0 0 1 6 27.8v8.4c1.96.4 3.71 1.37 5.07 2.73A9.995 9.995 0 0 1 13.8 44zM58 44v-3.66c-.85.3-1.62.79-2.24 1.42-.63.63-1.12 1.39-1.42 2.24zm0-16.2a9.995 9.995 0 0 1-5.07-2.73A9.995 9.995 0 0 1 50.2 20H39.97c.26.31.51.63.75.96C42.79 23.87 44 27.77 44 32c0 4.22-1.22 8.13-3.28 11.04-.24.33-.49.66-.75.96H50.2c.4-1.96 1.37-3.71 2.73-5.07A9.995 9.995 0 0 1 58 36.2zm0-7.8h-3.66c.3.85.79 1.62 1.42 2.24.63.63 1.39 1.12 2.24 1.42zM26.54 40.72c1.21 1.7 2.69 2.76 4.19 3.13a5.444 5.444 0 0 0 2.54 0c1.5-.37 2.98-1.42 4.19-3.13C38.99 38.56 40 35.49 40 32s-1.01-6.56-2.54-8.72c-1.21-1.7-2.69-2.76-4.19-3.13a5.444 5.444 0 0 0-2.54 0c-1.5.37-2.98 1.42-4.19 3.13C25.01 25.44 24 28.51 24 32s1.01 6.56 2.54 8.72zM13 36c-1.1 0-2-.9-2-2v-4c0-1.1.9-2 2-2s2 .9 2 2v4c0 1.1-.9 2-2 2zm38 0c-1.1 0-2-.9-2-2v-4c0-1.1.9-2 2-2s2 .9 2 2v4c0 1.1-.9 2-2 2z" />
</svg>
