<svg
  xmlns="http://www.w3.org/2000/svg"
  width="64"
  height="64"
  viewBox="0 0 64 64"
  fill="black"
  fill-rule="nonzero"
>
  <path d="M52 53a7 7 0 0 1-7 7H19a7 7 0 0 1-7-7V18H8c-1.1 0-2-.9-2-2s.9-2 2-2h11v-3a7 7 0 0 1 7-7h12a7 7 0 0 1 7 7v3h11c1.1 0 2 .9 2 2s-.9 2-2 2h-4zm-36 0c0 .83.33 1.58.88 2.12.55.55 1.29.88 2.12.88h26c.83 0 1.58-.33 2.12-.88.55-.55.88-1.29.88-2.12V18H16zm25-42c0-.83-.33-1.58-.88-2.12C39.57 8.33 38.83 8 38 8H26c-.83 0-1.58.33-2.12.88-.55.55-.88 1.29-.88 2.12v3h18z" />
</svg>
