<!-- Generated by IcoMoon.io -->
<svg version="1.1" xmlns="http://www.w3.org/2000/svg" width="32" height="32" viewBox="0 0 32 32">
<title>bitbucket</title>
<path d="M18 15.32c-0.057-1.021-0.899-1.828-1.93-1.828-1.067 0-1.933 0.865-1.933 1.933 0 0.037 0.001 0.074 0.003 0.11l-0-0.005c0.057 1.021 0.899 1.828 1.93 1.828 1.067 0 1.933-0.865 1.933-1.933 0-0.037-0.001-0.074-0.003-0.11l0 0.005zM17.11 30.19c0.62 0 1.23-0.1 1.84-0.2 0.779-0.126 1.454-0.286 2.109-0.489l-0.109 0.029c0.676-0.205 1.259-0.453 1.808-0.754l-0.048 0.024c0.394-0.227 0.732-0.492 1.029-0.799l0.001-0.001c0.251-0.242 0.446-0.54 0.565-0.874l0.005-0.016c0-0.12 0.050-0.25 0.070-0.38 0.15-0.82 0.3-1.65 0.46-2.48s0.28-1.45 0.41-2.18c0.005-0.018 0.007-0.039 0.007-0.061 0-0.136-0.104-0.247-0.236-0.259l-0.001-0c-0.022-0.003-0.048-0.005-0.074-0.005-0.122 0-0.236 0.039-0.328 0.106l0.002-0.001-0.62 0.45c-0.861 0.515-1.856 0.957-2.905 1.275l-0.095 0.025c-0.914 0.287-1.987 0.506-3.092 0.615l-0.068 0.005c-0.442 0.049-0.957 0.078-1.478 0.080h-0.002c-0.33 0-0.67 0-1 0s-0.74 0-1.1-0.080c-0.565-0.056-1.063-0.133-1.552-0.236l0.092 0.016c-1.216-0.238-2.29-0.584-3.306-1.038l0.096 0.038c-0.742-0.326-1.38-0.694-1.971-1.121l0.031 0.021c-0.099-0.068-0.218-0.114-0.346-0.13l-0.004-0c-0.028-0.007-0.061-0.011-0.094-0.011-0.206 0-0.376 0.151-0.405 0.349l-0 0.002c-0.010 0.048-0.015 0.103-0.015 0.16s0.005 0.112 0.016 0.165l-0.001-0.005c0.15 0.8 0.31 1.61 0.46 2.41 0.1 0.57 0.21 1.13 0.31 1.69 0 0.16 0 0.33 0.080 0.5 0.102 0.395 0.305 0.734 0.579 0.999l0.001 0.001c0.313 0.312 0.672 0.578 1.066 0.788l0.024 0.012c0.573 0.318 1.237 0.591 1.935 0.785l0.065 0.015c0.863 0.25 1.883 0.444 2.93 0.545l0.070 0.005c0.56 0.050 1.12 0.070 1.68 0.080h1.080zM12.12 15.55c0.008 0.288 0.036 0.564 0.085 0.833l-0.005-0.033c0.177 0.924 0.667 1.71 1.353 2.264l0.007 0.006c0.508 0.409 1.134 0.691 1.82 0.788l0.020 0.002c0.188 0.032 0.404 0.051 0.624 0.051 1.505 0 2.809-0.862 3.446-2.119l0.010-0.022c0.255-0.469 0.413-1.024 0.43-1.615l0-0.005c0.001-0.034 0.002-0.073 0.002-0.113 0-0.286-0.033-0.564-0.097-0.831l0.005 0.024c-0.222-1.173-0.967-2.135-1.979-2.65l-0.021-0.010c-0.515-0.271-1.126-0.429-1.774-0.429-0.168 0-0.333 0.011-0.495 0.031l0.019-0.002c-0.61 0.057-1.164 0.251-1.646 0.549l0.016-0.009c-1.106 0.692-1.83 1.903-1.83 3.283 0 0.002 0 0.005 0 0.007v-0zM16 3.69c-0.74 0-1.48 0-2.22 0.080s-1.19 0.080-1.79 0.16-1 0.14-1.57 0.25c-0.548 0.111-1.023 0.252-1.48 0.431l0.060-0.021c-0.21 0.083-0.391 0.184-0.557 0.305l0.007-0.005c-0.107 0.070-0.196 0.157-0.268 0.257l-0.002 0.003c-0.045 0.066-0.072 0.147-0.072 0.235s0.027 0.169 0.073 0.236l-0.001-0.001c0.033 0.063 0.077 0.116 0.129 0.159l0.001 0.001c0.096 0.081 0.205 0.154 0.32 0.215l0.010 0.005c0.288 0.166 0.621 0.303 0.972 0.394l0.028 0.006c0.716 0.21 1.568 0.379 2.442 0.474l0.068 0.006c0.48 0 1 0.1 1.45 0.13s1 0.060 1.52 0.070c1.17 0 2.34 0 3.49-0.080l1.15-0.1 1.38-0.2c0.585-0.1 1.093-0.229 1.586-0.392l-0.076 0.022c0.342-0.092 0.642-0.233 0.91-0.416l-0.010 0.006c0.103-0.072 0.192-0.154 0.268-0.248l0.002-0.002c0.064-0.075 0.104-0.173 0.104-0.28s-0.039-0.205-0.104-0.281l0 0.001c-0.079-0.087-0.164-0.166-0.255-0.237l-0.005-0.003c-0.19-0.135-0.408-0.25-0.641-0.334l-0.019-0.006c-0.573-0.215-1.247-0.39-1.945-0.493l-0.055-0.007c-0.49-0.080-1-0.14-1.49-0.19s-1.24-0.1-1.86-0.13-1 0-1.49 0zM15.48 1.79h1.33l1.32 0.050c0.56 0 1.13 0.080 1.69 0.14s1 0.11 1.49 0.19c0.65 0.1 1.3 0.23 1.94 0.38 1 0.233 1.864 0.521 2.691 0.879l-0.101-0.039c0.576 0.242 1.074 0.53 1.528 0.873l-0.018-0.013c0.334 0.236 0.611 0.529 0.823 0.867l0.007 0.013c0.152 0.229 0.242 0.509 0.242 0.811 0 0.067-0.004 0.132-0.013 0.196l0.001-0.008-0.15 1c-0.11 0.75-0.23 1.51-0.35 2.25-0.15 0.9-0.3 1.79-0.44 2.69s-0.34 2-0.52 3-0.36 2.090-0.54 3.13c-0.058 0.386-0.218 0.727-0.452 1.003l0.002-0.003c-0.105 0.127-0.213 0.241-0.328 0.348l-0.002 0.002c-0.448 0.386-0.958 0.72-1.509 0.982l-0.041 0.018c-0.729 0.371-1.58 0.695-2.468 0.929l-0.092 0.021c-0.894 0.251-1.953 0.445-3.039 0.545l-0.071 0.005c-0.54 0.050-1.090 0.090-1.63 0.11-0.266 0.011-0.579 0.018-0.893 0.018-1 0-1.985-0.064-2.951-0.19l0.114 0.012c-0.64-0.080-1.28-0.19-1.91-0.33-0.979-0.21-1.834-0.489-2.649-0.845l0.089 0.035c-0.945-0.366-1.751-0.899-2.42-1.57l-0-0c-0.212-0.214-0.366-0.485-0.438-0.789l-0.002-0.011c-0.11-0.58-0.21-1.17-0.32-1.75s-0.23-1.36-0.34-2.050-0.23-1.3-0.34-2-0.19-1.14-0.28-1.71-0.2-1.15-0.29-1.73l-0.26-1.57c-0.080-0.53-0.15-1-0.22-1.57 0.002-0.022 0.003-0.049 0.003-0.075s-0.001-0.053-0.003-0.078l0 0.003v-0.23c0.002-0.013 0.002-0.029 0.002-0.045s-0.001-0.032-0.003-0.047l0 0.002c0.039-0.241 0.123-0.457 0.244-0.647l-0.004 0.007c0.209-0.312 0.465-0.574 0.761-0.784l0.009-0.006c0.481-0.36 1.032-0.669 1.622-0.903l0.048-0.017c0.672-0.281 1.486-0.545 2.325-0.747l0.115-0.023c0.67-0.16 1.34-0.29 2-0.39l0.96-0.13 0.93-0.1 0.63-0.050 0.94-0.060c0.35 0 0.7 0 1.050 0h0.14z"></path>
</svg>
