<svg
  xmlns="http://www.w3.org/2000/svg"
  width="64"
  height="64"
  viewBox="0 0 64 64"
  fill="black"
  fill-rule="nonzero"
>
  <path d="M30.83 2.67h2.75l2.72.1a34.25 34.25 0 0 1 3.48.29c1.15.12 2.06.23 3.07.39 1.34.21 2.68.48 4 .78a31.57 31.57 0 0 1 5.54 1.82L52.18 6a14.12 14.12 0 0 1 3.15 1.79A6.26 6.26 0 0 1 57 9.52a3 3 0 0 1 .5 1.67v.41l-.31 2.06c-.23 1.55-.48 3.11-.72 4.64-.31 1.85-.62 3.68-.91 5.54S54.84 28 54.47 30s-.74 4.31-1.11 6.45a4.14 4.14 0 0 1-.93 2.07 7.79 7.79 0 0 1-.68.72 13.67 13.67 0 0 1-3.11 2h-.08a25.72 25.72 0 0 1-5.09 1.92h-.19A35 35 0 0 1 37 44.4h-.15c-1.11.11-2.24.19-3.36.23h-1.84a46.92 46.92 0 0 1-6.08-.39h.24c-1.32-.16-2.64-.39-3.94-.68a28.18 28.18 0 0 1-5.46-1.74l.19.07a14.2 14.2 0 0 1-5-3.23 3.41 3.41 0 0 1-.9-1.63c-.22-1.2-.43-2.41-.66-3.61s-.47-2.8-.7-4.22-.47-2.68-.7-4.12-.39-2.35-.57-3.53-.42-2.37-.6-3.56L7 14.8c-.16-1.09-.31-2.06-.45-3.23v-.16-.81A3.44 3.44 0 0 1 7 9.27a6.17 6.17 0 0 1 1.56-1.6 14.64 14.64 0 0 1 3.34-1.86h.1a31.37 31.37 0 0 1 4.79-1.54h.24c1.38-.33 2.76-.6 4.12-.8l2-.27 1.91-.21 1.3-.1 1.94-.12h2.53zm1.08 3.91a41.25 41.25 0 0 0-4.58.17c-1.52.16-2.45.16-3.69.33s-2.06.29-3.23.51a18 18 0 0 0-3.05.89h.12a5.3 5.3 0 0 0-1.15.63 2 2 0 0 0-.55.53.91.91 0 0 0-.15.49.88.88 0 0 0 .15.48 1.09 1.09 0 0 0 .27.33 3.3 3.3 0 0 0 .66.44 7.93 7.93 0 0 0 2 .82h.06a29.54 29.54 0 0 0 5 1h.14c1 0 2.06.2 3 .26s2.06.13 3.13.15c2.41 0 4.82 0 7.19-.17l2.37-.2 2.85-.41a23.68 23.68 0 0 0 3.32-.83h-.16a6.26 6.26 0 0 0 1.87-.85 2.75 2.75 0 0 0 .56-.51.87.87 0 0 0 .21-.57.9.9 0 0 0-.25-.56 4.1 4.1 0 0 0-.51-.51 5.34 5.34 0 0 0-1.32-.69 20 20 0 0 0-4-1h-.12c-1-.16-2.06-.28-3.07-.39s-2.55-.2-3.83-.26-2.06 0-3.07 0zm-8 24.42a11.92 11.92 0 0 0 .18 1.72v-.07a7.9 7.9 0 0 0 2.78 4.67A7.75 7.75 0 0 0 30.63 39a8.55 8.55 0 0 0 1.29.1 8 8 0 0 0 7.1-4.37 7.45 7.45 0 0 0 .98-3.39 1.69 1.69 0 0 0 0-.23 7.41 7.41 0 0 0-.2-1.71v.05A7.7 7.7 0 0 0 35.7 24a8 8 0 0 0-3.7-.93 8.47 8.47 0 0 0-1 .06 7.84 7.84 0 0 0-3.39 1.13A8 8 0 0 0 23.89 31zm10.28 30.19a24.26 24.26 0 0 0 3.8-.41 31.15 31.15 0 0 0 4.34-1l-.22.06a19.06 19.06 0 0 0 3.72-1.55h-.1a9.37 9.37 0 0 0 2.12-1.64A4.9 4.9 0 0 0 49 54.88a6.14 6.14 0 0 1 .14-.78c.31-1.69.62-3.4.95-5.11s.58-3 .85-4.49a.56.56 0 0 0-.48-.66h-.15a1.15 1.15 0 0 0-.68.22l-1.28.93a27.28 27.28 0 0 1-6 2.63h-.2a32.8 32.8 0 0 1-6.37 1.27h-.08a28.56 28.56 0 0 1-3.05.16h-2.06a11.13 11.13 0 0 1-2.27-.16 31.27 31.27 0 0 1-3.2-.49h.19a31.37 31.37 0 0 1-6.81-2.1l.2.07a21.39 21.39 0 0 1-4.06-2.31h.06a1.57 1.57 0 0 0-.71-.27.62.62 0 0 0-.19 0 .84.84 0 0 0-.84.72 1.69 1.69 0 0 0 0 .33 1.87 1.87 0 0 0 0 .34c.31 1.65.64 3.32 1 5 .21 1.17.43 2.32.64 3.48a2.36 2.36 0 0 0 .16 1 4.37 4.37 0 0 0 1.2 2.06 9.21 9.21 0 0 0 2.19 1.62h.05a18.8 18.8 0 0 0 4 1.61h.13a34.55 34.55 0 0 0 6 1.12h.15c1.15.1 2.3.14 3.46.16h2.22zM36 30.55a4 4 0 0 0-8 .21V31a4 4 0 0 0 8-.22v-.22z" />
</svg>
