<svg
  xmlns="http://www.w3.org/2000/svg"
  width="64"
  height="64"
  viewBox="0 0 64 64"
  fill="black"
  fill-rule="nonzero"
>
  <path d="M17.8 52.7L39.17 34h-7.68c-.75 0-1.44-.42-1.78-1.08-.34-.67-.28-1.47.15-2.08L47.6 6H29.81L19.52 30h4.97c.67 0 1.3.34 1.67.9.37.56.43 1.27.17 1.89zm28.57-21.4c.29.78.07 1.66-.56 2.21l-32 28a2.001 2.001 0 0 1-3.15-2.3L21.47 34H16.5c-.67 0-1.3-.34-1.67-.9-.37-.56-.43-1.27-.17-1.89l12-28C26.98 2.47 27.7 2 28.5 2h23c.75 0 1.44.42 1.78 1.08.34.67.28 1.47-.15 2.08L35.39 30h9.11a2 2 0 0 1 1.87 1.3z" />
</svg>
