<!-- Generated by IcoMoon.io -->
<svg version="1.1" xmlns="http://www.w3.org/2000/svg" width="32" height="32" viewBox="0 0 32 32">
<title>bolt</title>
<path d="M25.799 15.651l-7.429-2.972c-0.312-0.125-0.442-0.497-0.275-0.789l5.312-9.296c0.234-0.409-0.101-0.834-0.484-0.834-0.116 0-0.237 0.039-0.348 0.13l-16.518 13.515c-0.327 0.267-0.247 0.787 0.145 0.943l7.429 2.972c0.312 0.125 0.442 0.497 0.275 0.789l-5.312 9.296c-0.234 0.409 0.101 0.834 0.484 0.834 0.116 0 0.237-0.039 0.348-0.13l16.518-13.515c0.326-0.267 0.247-0.787-0.145-0.943zM22.805 16.836l-8.146 6.665c-0.238 0.195-0.568-0.085-0.416-0.352l1.226-2.146c0.338-0.592 0.403-1.3 0.179-1.944s-0.716-1.158-1.349-1.411l-5.032-2.013c-0.196-0.078-0.236-0.338-0.073-0.472l8.146-6.665c0.238-0.195 0.568 0.085 0.416 0.352l-1.226 2.146c-0.338 0.592-0.403 1.3-0.179 1.944s0.716 1.158 1.349 1.411l5.032 2.013c0.196 0.078 0.236 0.338 0.073 0.472z"></path>
</svg>
