<svg
  xmlns="http://www.w3.org/2000/svg"
  width="64"
  height="64"
  viewBox="0 0 64 64"
  fill="black"
  fill-rule="nonzero"
>
  <path d="M20.11 50.64L42.48 32H36c-.72 0-1.39-.39-1.75-1.02a2 2 0 0 1 .04-2.02l9.59-15.59-22.37 18.64h6.48c.72 0 1.39.39 1.75 1.02a2 2 0 0 1-.04 2.02zm29.77-21.32c.29.79.05 1.68-.6 2.22l-36 30c-.75.63-1.85.62-2.59-.02-.74-.64-.91-1.73-.39-2.56l14.12-22.95H16c-.84 0-1.59-.53-1.88-1.32-.29-.79-.05-1.68.6-2.22l36-30c.75-.63 1.85-.62 2.59.02.74.64.91 1.73.39 2.56L39.58 28H48c.84 0 1.59.53 1.88 1.32z" />
</svg>
