<!-- Generated by IcoMoon.io -->
<svg version="1.1" xmlns="http://www.w3.org/2000/svg" width="32" height="32" viewBox="0 0 32 32">
<title>book</title>
<path d="M29.327 5.329h-2.656v-2.338c0-0.035-0.002-0.070-0.006-0.104-0.001-0.011-0.003-0.021-0.005-0.032-0.003-0.023-0.007-0.046-0.012-0.068-0.003-0.012-0.006-0.024-0.009-0.036-0.006-0.020-0.012-0.041-0.019-0.060-0.004-0.012-0.008-0.023-0.013-0.035-0.008-0.020-0.017-0.039-0.026-0.058-0.005-0.010-0.010-0.021-0.015-0.031-0.012-0.022-0.024-0.043-0.038-0.063-0.004-0.006-0.008-0.013-0.012-0.019-0.018-0.026-0.037-0.052-0.058-0.076-0.005-0.006-0.011-0.011-0.016-0.017-0.016-0.018-0.032-0.035-0.050-0.052-0.008-0.008-0.017-0.015-0.025-0.023-0.015-0.014-0.031-0.027-0.047-0.039-0.010-0.007-0.019-0.014-0.029-0.021-0.017-0.012-0.033-0.023-0.051-0.033-0.010-0.006-0.020-0.012-0.031-0.018-0.019-0.011-0.038-0.020-0.058-0.029-0.009-0.004-0.018-0.009-0.027-0.013-0.029-0.012-0.059-0.024-0.090-0.033-0.001-0-0.002-0.001-0.003-0.001-0.029-0.009-0.059-0.016-0.090-0.022-0.010-0.002-0.021-0.003-0.031-0.005-0.022-0.003-0.043-0.006-0.065-0.008-0.012-0.001-0.025-0.001-0.037-0.002-0.011-0-0.022-0.002-0.034-0.002-0.013 0-0.026 0.001-0.039 0.001-0.006 0-0.011 0-0.017 0.001-0.031 0.002-0.062 0.006-0.093 0.011-0.007 0.001-0.013 0.002-0.020 0.004-0.032 0.006-0.065 0.014-0.097 0.024l-10.395 3.198h-12.438c-0.497 0-0.9 0.403-0.9 0.9v21.319c0 0.497 0.403 0.9 0.9 0.9h26.654c0.497 0 0.9-0.403 0.9-0.9v-21.319c0-0.497-0.403-0.9-0.9-0.9zM24.87 5.4v17.514c0 0.385-0.251 0.726-0.62 0.839l-6.202 1.908c-0.565 0.174-1.136-0.248-1.136-0.839v-17.514c0-0.385 0.251-0.726 0.62-0.839l6.202-1.908c0.565-0.174 1.136 0.249 1.136 0.839zM4.451 7.13h9.77c0.485 0 0.878 0.393 0.878 0.878v17.762c0 0.485-0.393 0.878-0.878 0.878h-9.77c-0.485 0-0.878-0.393-0.878-0.878v-17.762c0-0.485 0.393-0.878 0.878-0.878zM27.549 26.648h-5.664c-0.159 0-0.193-0.224-0.041-0.271l4.191-1.29c0.105-0.032 0.201-0.083 0.285-0.148 0.028-0.022 0.054-0.045 0.079-0.069 0.001-0.001 0.002-0.001 0.002-0.002 0.042-0.041 0.080-0.087 0.113-0.135 0.099-0.146 0.156-0.321 0.156-0.506v-16.219c0-0.485 0.393-0.878 0.878-0.878v0c0.485 0 0.878 0.393 0.878 0.878v17.762c-0 0.485-0.393 0.878-0.878 0.878z"></path>
<path d="M12.443 9.764h-6.225c-0.497 0-0.9 0.403-0.9 0.9s0.403 0.9 0.9 0.9h6.225c0.497 0 0.9-0.403 0.9-0.9s-0.403-0.9-0.9-0.9z"></path>
<path d="M12.443 13.321h-6.225c-0.497 0-0.9 0.403-0.9 0.9s0.403 0.9 0.9 0.9h6.225c0.497 0 0.9-0.403 0.9-0.9s-0.403-0.9-0.9-0.9z"></path>
<path d="M12.443 16.878h-6.225c-0.497 0-0.9 0.403-0.9 0.9s0.403 0.9 0.9 0.9h6.225c0.497 0 0.9-0.403 0.9-0.9s-0.403-0.9-0.9-0.9z"></path>
<path d="M12.443 20.435h-6.225c-0.497 0-0.9 0.403-0.9 0.9s0.403 0.9 0.9 0.9h6.225c0.497 0 0.9-0.403 0.9-0.9s-0.403-0.9-0.9-0.9z"></path>
<path d="M19.334 11.565c0.088 0 0.177-0.013 0.265-0.040l2.89-0.889c0.475-0.146 0.742-0.65 0.596-1.125s-0.65-0.742-1.125-0.596l-2.89 0.889c-0.475 0.146-0.742 0.65-0.596 1.125 0.119 0.387 0.475 0.636 0.86 0.636z"></path>
<path d="M19.334 15.122c0.088 0 0.177-0.013 0.265-0.040l2.89-0.889c0.475-0.146 0.742-0.65 0.596-1.125s-0.65-0.742-1.125-0.596l-2.89 0.889c-0.475 0.146-0.742 0.65-0.596 1.125 0.119 0.387 0.475 0.636 0.86 0.636z"></path>
<path d="M19.334 18.679c0.088 0 0.177-0.013 0.265-0.040l2.89-0.889c0.475-0.146 0.742-0.65 0.596-1.125s-0.65-0.742-1.125-0.596l-2.89 0.889c-0.475 0.146-0.742 0.65-0.596 1.125 0.119 0.387 0.475 0.636 0.86 0.636z"></path>
<path d="M19.334 22.236c0.088 0 0.177-0.013 0.265-0.040l2.89-0.889c0.475-0.146 0.742-0.65 0.596-1.125s-0.65-0.742-1.125-0.596l-2.89 0.889c-0.475 0.146-0.742 0.65-0.596 1.125 0.119 0.387 0.475 0.636 0.86 0.636z"></path>
</svg>
