<!-- Generated by IcoMoon.io -->
<svg version="1.1" xmlns="http://www.w3.org/2000/svg" width="32" height="32" viewBox="0 0 32 32">
<title>bookmark</title>
<path d="M29.329 3.67c-0.037 0-0.075 0.002-0.113 0.007h-26.431c-0.038-0.005-0.076-0.007-0.113-0.007-0.489 0-0.899 0.397-0.899 0.901v21.206c0 0.454 0.338 0.837 0.789 0.893h26.878c0.451-0.056 0.789-0.439 0.789-0.893v-21.206c-0-0.503-0.41-0.901-0.899-0.901zM22.135 5.325h1.734c0.537-0.067 1.012 0.352 1.012 0.894v11.656l-1.268-0.845c-0.302-0.202-0.696-0.202-0.999 0l-1.268 0.845v-11.656c0-0.454 0.338-0.837 0.789-0.893zM4.554 5.353h9.781c0.437 0.055 0.764 0.426 0.764 0.866v17.801c0 0.525-0.46 0.931-0.981 0.866l-9.781 0.007c-0.437-0.055-0.764-0.426-0.764-0.866v-17.808c-0-0.525 0.46-0.931 0.981-0.866zM27.662 24.892l-9.781-0.007c-0.521 0.065-0.981-0.341-0.981-0.866v-17.801c0-0.44 0.328-0.811 0.764-0.866l0.901-0.017c0.521-0.065 0.981 0.341 0.981 0.866v13.355c0 0.719 0.802 1.148 1.4 0.749l2.168-1.445 2.168 1.445c0.598 0.399 1.4-0.030 1.4-0.749v-13.338c0-0.44 0.328-0.835 0.764-0.889v0c0.521-0.065 0.981 0.364 0.981 0.889v17.808c0 0.44-0.328 0.811-0.764 0.866z"></path>
<path d="M6.219 10.676h5.335c0.497 0 0.9-0.403 0.9-0.9s-0.403-0.9-0.9-0.9h-5.335c-0.497 0-0.9 0.403-0.9 0.9s0.403 0.9 0.9 0.9z"></path>
<path d="M11.554 12.432h-5.335c-0.497 0-0.9 0.403-0.9 0.9s0.403 0.9 0.9 0.9h5.335c0.497 0 0.9-0.403 0.9-0.9s-0.403-0.9-0.9-0.9z"></path>
<path d="M11.554 15.989h-5.335c-0.497 0-0.9 0.403-0.9 0.9s0.403 0.9 0.9 0.9h5.335c0.497 0 0.9-0.403 0.9-0.9s-0.403-0.9-0.9-0.9z"></path>
<path d="M11.554 19.546h-5.335c-0.497 0-0.9 0.403-0.9 0.9s0.403 0.9 0.9 0.9h5.335c0.497 0 0.9-0.403 0.9-0.9s-0.403-0.9-0.9-0.9z"></path>
</svg>
