<svg
  xmlns="http://www.w3.org/2000/svg"
  width="64"
  height="64"
  viewBox="0 0 64 64"
  fill="black"
  fill-rule="nonzero"
>
  <path d="M27.66 11.34A7.973 7.973 0 0 0 22 9H8v36h14c3.07 0 5.88 1.16 8 3.06V17c0-2.21-.89-4.21-2.34-5.66zM4 7c0-1.1.9-2 2-2h16c3.31 0 6.32 1.35 8.49 3.51.56.56 1.07 1.18 1.51 1.85A11.962 11.962 0 0 1 42 5h16c1.1 0 2 .9 2 2v40c0 1.1-.9 2-2 2H42c-2.21 0-4.21.89-5.66 2.34A7.973 7.973 0 0 0 34 57c0 1.1-.9 2-2 2s-2-.9-2-2c0-2.21-.89-4.21-2.34-5.66A7.973 7.973 0 0 0 22 49H6c-1.1 0-2-.9-2-2zm38 38h14V9H42c-2.21 0-4.21.89-5.66 2.34A7.973 7.973 0 0 0 34 17v31.06A11.96 11.96 0 0 1 42 45zm10.06-30c0 1.1-.9 2-2 2h-10c-1.1 0-2-.9-2-2s.9-2 2-2h10c1.1 0 2 .9 2 2zm0 8c0 1.1-.9 2-2 2h-10c-1.1 0-2-.9-2-2s.9-2 2-2h10c1.1 0 2 .9 2 2zm0 8c0 1.1-.9 2-2 2h-10c-1.1 0-2-.9-2-2s.9-2 2-2h10c1.1 0 2 .9 2 2zm0 8c0 1.1-.9 2-2 2h-10c-1.1 0-2-.9-2-2s.9-2 2-2h10c1.1 0 2 .9 2 2zm-26-24c0 1.1-.9 2-2 2h-10c-1.1 0-2-.9-2-2s.9-2 2-2h10c1.1 0 2 .9 2 2zm0 8c0 1.1-.9 2-2 2h-10c-1.1 0-2-.9-2-2s.9-2 2-2h10c1.1 0 2 .9 2 2zm0 8c0 1.1-.9 2-2 2h-10c-1.1 0-2-.9-2-2s.9-2 2-2h10c1.1 0 2 .9 2 2zm0 8c0 1.1-.9 2-2 2h-10c-1.1 0-2-.9-2-2s.9-2 2-2h10c1.1 0 2 .9 2 2z" />
</svg>
