<!-- Generated by IcoMoon.io -->
<svg version="1.1" xmlns="http://www.w3.org/2000/svg" width="32" height="32" viewBox="0 0 32 32">
<title>branch</title>
<path d="M26.981 17.745c-1.596-0.125-2.998 0.797-3.59 2.151-0.143 0.327-0.467 0.539-0.824 0.539h-1.243c-2.43 0-4.437-1.96-4.424-4.39 0.006-1.128-0.29-2.188-0.811-3.103-0.344-0.604 0.083-1.354 0.778-1.354h5.711c0.355 0 0.678 0.209 0.822 0.534 0.591 1.332 1.968 2.242 3.54 2.137 1.773-0.119 3.212-1.544 3.345-3.317 0.159-2.11-1.514-3.879-3.591-3.879-1.483 0-2.76 0.901-3.311 2.185-0.141 0.328-0.467 0.539-0.824 0.539h-13.103c-0.357 0-0.681-0.211-0.824-0.539-0.592-1.354-1.994-2.276-3.59-2.151-1.755 0.137-3.167 1.551-3.302 3.306-0.163 2.114 1.511 3.886 3.591 3.886 1.476 0 2.748-0.893 3.304-2.167 0.142-0.326 0.466-0.534 0.822-0.534h1.178c2.448 0 4.469 1.97 4.467 4.418-0.003 3.435 2.79 6.23 6.225 6.23h1.243c0.355 0 0.68 0.208 0.822 0.534 0.555 1.274 1.827 2.167 3.304 2.167 2.080 0 3.754-1.772 3.591-3.886-0.135-1.755-1.548-3.169-3.302-3.306zM24.897 10.526c0.010-0.137 0.036-0.27 0.076-0.397 0.009-0.028 0.018-0.056 0.028-0.084 0.020-0.055 0.043-0.109 0.068-0.162 0.013-0.026 0.026-0.052 0.040-0.078 0.055-0.102 0.12-0.198 0.194-0.287 0.124-0.15 0.272-0.28 0.437-0.383 0.138-0.086 0.289-0.154 0.449-0.201 0.096-0.028 0.195-0.048 0.297-0.060 0.068-0.008 0.137-0.012 0.207-0.012 0.559 0 1.059 0.255 1.39 0.655 0.073 0.089 0.138 0.185 0.194 0.287 0.014 0.025 0.027 0.051 0.040 0.078 0.025 0.053 0.048 0.106 0.068 0.162 0.010 0.028 0.020 0.055 0.028 0.084 0.039 0.127 0.065 0.26 0.076 0.397 0.003 0.046 0.005 0.092 0.005 0.139 0 0.062-0.003 0.124-0.009 0.184-0.046 0.454-0.261 0.858-0.581 1.149-0.043 0.039-0.087 0.075-0.133 0.11-0.023 0.017-0.047 0.034-0.071 0.050-0.072 0.049-0.147 0.092-0.226 0.13-0.052 0.025-0.106 0.048-0.162 0.068-0.083 0.030-0.168 0.055-0.256 0.073-0.117 0.024-0.239 0.037-0.363 0.037-0.12 0-0.236-0.012-0.349-0.034-0.010-0.002-0.020-0.004-0.030-0.006-0.072-0.015-0.143-0.035-0.212-0.059-0.017-0.006-0.034-0.012-0.051-0.019-0.038-0.015-0.076-0.031-0.114-0.048-0.022-0.010-0.043-0.021-0.065-0.032-0.054-0.028-0.107-0.058-0.158-0.091-0.034-0.022-0.067-0.044-0.099-0.069-0.046-0.035-0.091-0.071-0.133-0.11-0.085-0.078-0.163-0.163-0.232-0.255-0.035-0.046-0.067-0.094-0.097-0.144-0.090-0.149-0.16-0.311-0.204-0.484-0.015-0.058-0.027-0.116-0.036-0.176-0.005-0.030-0.008-0.060-0.011-0.090-0.006-0.061-0.009-0.122-0.009-0.184 0-0.047 0.002-0.093 0.005-0.139zM5.329 12.488c-0.995 0-1.801-0.806-1.801-1.801 0-0.155 0.020-0.306 0.057-0.45 0.022-0.086 0.051-0.17 0.085-0.251s0.074-0.159 0.119-0.233c0.030-0.050 0.062-0.097 0.097-0.144s0.071-0.091 0.11-0.133c0.329-0.362 0.805-0.59 1.333-0.59s1.004 0.228 1.333 0.59c0.039 0.043 0.075 0.087 0.11 0.133s0.067 0.094 0.097 0.144c0.007 0.011 0.013 0.022 0.019 0.033 0.037 0.064 0.071 0.131 0.1 0.199 0.034 0.081 0.063 0.165 0.085 0.251 0.037 0.144 0.057 0.295 0.057 0.45 0 0.328-0.088 0.635-0.242 0.9-0.312 0.538-0.893 0.9-1.559 0.9zM26.693 23.136c-0.093 0-0.185-0.007-0.274-0.021-0.060-0.009-0.118-0.021-0.176-0.036-0.086-0.022-0.17-0.051-0.251-0.085s-0.159-0.074-0.233-0.119c-0.050-0.030-0.097-0.062-0.144-0.097s-0.091-0.071-0.133-0.11c-0.085-0.078-0.163-0.163-0.232-0.256-0.035-0.046-0.067-0.094-0.097-0.144-0.007-0.011-0.013-0.022-0.019-0.033-0.081-0.14-0.144-0.291-0.185-0.45-0.015-0.058-0.027-0.116-0.036-0.176-0.014-0.089-0.021-0.181-0.021-0.274s0.007-0.185 0.021-0.274c0.009-0.060 0.021-0.118 0.036-0.176 0.022-0.086 0.051-0.17 0.085-0.251 0.029-0.069 0.063-0.135 0.1-0.199 0.006-0.011 0.013-0.022 0.019-0.033 0.030-0.050 0.062-0.097 0.097-0.144s0.071-0.091 0.11-0.133c0.039-0.043 0.079-0.083 0.122-0.122s0.087-0.076 0.133-0.11c0.046-0.035 0.094-0.067 0.144-0.097 0.074-0.045 0.152-0.085 0.233-0.119s0.165-0.063 0.251-0.085c0.058-0.015 0.116-0.027 0.176-0.036 0.089-0.014 0.181-0.021 0.274-0.021 0.528 0 1.004 0.228 1.333 0.59 0.039 0.043 0.076 0.087 0.11 0.133s0.067 0.094 0.097 0.144c0.045 0.074 0.085 0.152 0.119 0.233s0.063 0.165 0.085 0.251c0.037 0.144 0.057 0.295 0.057 0.45 0 0.994-0.806 1.801-1.801 1.801z"></path>
</svg>
