<!-- Generated by IcoMoon.io -->
<svg version="1.1" xmlns="http://www.w3.org/2000/svg" width="32" height="32" viewBox="0 0 32 32">
<title>breifcase</title>
<path d="M28.449 12.308v-4.3c0-0.497-0.403-0.9-0.9-0.9h-6.499c-0.384 0-0.722-0.246-0.851-0.607-0.616-1.724-2.266-2.961-4.199-2.961s-3.582 1.237-4.199 2.961c-0.129 0.362-0.467 0.607-0.851 0.607h-6.499c-0.497 0-0.9 0.403-0.9 0.9v4.3c-0.014 0.092-0.014 0.183 0 0.271v11.413c0 0.497 0.403 0.9 0.9 0.9h23.097c0.497 0 0.9-0.403 0.9-0.9v-11.413c0.014-0.088 0.014-0.179 0-0.271zM16 5.341c1.078 0 2.007 0.645 2.423 1.57 0.042 0.093-0.024 0.197-0.125 0.197h-4.596c-0.101 0-0.167-0.105-0.126-0.197 0.416-0.924 1.346-1.57 2.423-1.57zM26.648 9.809v1.307c0 0.395-0.258 0.744-0.636 0.861l-8.365 2.574c-0.201 0.062-0.424-0.009-0.542-0.184-0.239-0.356-0.645-0.59-1.106-0.59v0c-0.461 0-0.866 0.234-1.106 0.59-0.118 0.175-0.341 0.246-0.542 0.184l-8.365-2.574c-0.378-0.116-0.636-0.465-0.636-0.861v-1.307c0-0.497 0.403-0.9 0.9-0.9h19.496c0.497 0 0.901 0.403 0.901 0.9zM5.352 22.191v-7.306c0-0.606 0.586-1.039 1.165-0.861l7.807 2.402c0.203 0.062 0.342 0.25 0.342 0.463v0c0 0.737 0.597 1.334 1.334 1.334v0c0.737 0 1.334-0.597 1.334-1.334v0c0-0.212 0.139-0.4 0.342-0.463l7.807-2.402c0.579-0.178 1.165 0.255 1.165 0.861v7.306c0 0.497-0.403 0.9-0.9 0.9h-19.496c-0.497 0-0.9-0.403-0.9-0.9z"></path>
</svg>
