<!-- Generated by IcoMoon.io -->
<svg version="1.1" xmlns="http://www.w3.org/2000/svg" width="32" height="32" viewBox="0 0 32 32">
<title>broadcast</title>
<path d="M16.82 9.403c-0.146-0.322-0.467-0.528-0.82-0.528s-0.674 0.206-0.82 0.528l-8.893 19.563c-0.206 0.453-0.006 0.987 0.447 1.192 0.121 0.055 0.247 0.081 0.372 0.081 0.342 0 0.669-0.196 0.82-0.528l3.153-6.936c0.034-0.074 0.123-0.103 0.194-0.063l13.176 7.412c0.339 0.191 0.763 0.142 1.050-0.121s0.372-0.681 0.211-1.036l-8.892-19.563zM12.897 18.779l2.978-6.55c0.049-0.108 0.203-0.108 0.252 0l1.777 3.909c0.030 0.066 0.004 0.143-0.059 0.178l-4.755 2.641c-0.117 0.065-0.249-0.057-0.193-0.178zM22.563 26.995l-9.837-5.533c-0.094-0.053-0.094-0.189 0.001-0.242l5.846-3.248c0.071-0.039 0.16-0.010 0.193 0.064l3.991 8.781c0.055 0.122-0.077 0.244-0.194 0.178z"></path>
<path d="M16 1.761c-6.871 0-12.46 5.59-12.46 12.46 0 2.001 0.486 3.99 1.405 5.752 0.161 0.308 0.474 0.484 0.799 0.484 0.14 0 0.283-0.033 0.415-0.102 0.441-0.23 0.612-0.774 0.382-1.215-0.797-1.528-1.201-3.183-1.201-4.92 0-5.878 4.782-10.659 10.659-10.659s10.659 4.782 10.659 10.659c0 1.736-0.404 3.392-1.201 4.92-0.23 0.441-0.059 0.985 0.382 1.215s0.985 0.059 1.215-0.382c0.919-1.763 1.405-3.752 1.405-5.752-0-6.871-5.59-12.46-12.46-12.46z"></path>
<path d="M23.59 16.921c0.069 0.016 0.137 0.024 0.205 0.024 0.409 0 0.779-0.281 0.876-0.697 0.154-0.661 0.232-1.343 0.232-2.027 0-4.909-3.994-8.903-8.903-8.903s-8.903 3.994-8.903 8.903c0 0.684 0.078 1.366 0.232 2.027 0.113 0.484 0.597 0.786 1.081 0.673s0.786-0.597 0.673-1.081c-0.123-0.527-0.185-1.071-0.185-1.618 0-3.916 3.186-7.103 7.102-7.103s7.103 3.186 7.103 7.103c0 0.547-0.062 1.091-0.185 1.618-0.113 0.484 0.188 0.968 0.673 1.081z"></path>
</svg>
