<svg
  xmlns="http://www.w3.org/2000/svg"
  width="64"
  height="64"
  viewBox="0 0 64 64"
  fill="black"
  fill-rule="nonzero"
>
  <path d="M24 32c0-2.21.9-4.21 2.34-5.66A7.973 7.973 0 0 1 32 24c2.21 0 4.21.9 5.66 2.34A7.973 7.973 0 0 1 40 32c0 2.21-.9 4.21-2.34 5.66A7.973 7.973 0 0 1 32 40c-2.21 0-4.21-.9-5.66-2.34A7.973 7.973 0 0 1 24 32zm5.17 2.83C29.9 35.56 30.89 36 32 36s2.1-.45 2.83-1.17C35.56 34.1 36 33.11 36 32s-.45-2.1-1.17-2.83A3.966 3.966 0 0 0 32 28c-1.11 0-2.1.45-2.83 1.17C28.44 29.9 28 30.89 28 32s.45 2.1 1.17 2.83zM22.1 19.28c.78.78.78 2.05 0 2.83-2.73 2.73-4.1 6.31-4.1 9.9 0 3.58 1.37 7.16 4.1 9.9.78.78.78 2.05 0 2.83-.78.78-2.05.78-2.83 0A17.946 17.946 0 0 1 14 32.02c0-4.6 1.76-9.21 5.27-12.72.78-.78 2.05-.78 2.83 0zm19.8 25.44c-.78-.78-.78-2.05 0-2.83 2.73-2.73 4.1-6.31 4.1-9.9 0-3.58-1.37-7.16-4.1-9.9-.78-.78-.78-2.05 0-2.83.78-.78 2.05-.78 2.83 0C48.24 22.77 50 27.38 50 31.98c0 4.6-1.76 9.21-5.27 12.72-.78.78-2.05.78-2.83 0zM13.61 10.79c.78.78.78 2.05 0 2.83a26.05 26.05 0 0 0-5.64 8.44 26.09 26.09 0 0 0-1.98 9.95c0 3.45.68 6.83 1.98 9.95 1.29 3.13 3.2 6 5.64 8.44.78.78.78 2.05 0 2.83-.78.78-2.05.78-2.83 0A29.993 29.993 0 0 1 2 32.02c0-3.98.79-7.88 2.28-11.48 1.49-3.61 3.69-6.92 6.5-9.73.78-.78 2.05-.78 2.83 0zm36.78 42.42c-.78-.78-.78-2.05 0-2.83a26.05 26.05 0 0 0 5.64-8.44 26.09 26.09 0 0 0 1.98-9.95c0-3.45-.68-6.83-1.98-9.95-1.29-3.13-3.2-6-5.64-8.44-.78-.78-.78-2.05 0-2.83.78-.78 2.05-.78 2.83 0A29.993 29.993 0 0 1 62 31.98c0 3.98-.79 7.88-2.28 11.48a29.887 29.887 0 0 1-6.5 9.73c-.78.78-2.05.78-2.83 0z" />
</svg>
