<svg
  xmlns="http://www.w3.org/2000/svg"
  width="64"
  height="64"
  viewBox="0 0 64 64"
  fill="black"
  fill-rule="nonzero"
>
  <path d="M12.62 53.08l-6.04-5.46-.07-.07A11.972 11.972 0 0 1 3 39.07c0-3.06 1.17-6.13 3.5-8.47l19.33-19.99c.37-.38.88-.6 1.41-.61.53-.01 1.05.2 1.43.57L33 14.8V5c0-1.1.9-2 2-2s2 .9 2 2v13.71l17.53 17.13c.58.57.76 1.43.45 2.19-.31.75-1.04 1.25-1.85 1.25H42.68l-13.1 13.73-.03.03a11.955 11.955 0 0 1-8.48 3.51c-3.05 0-6.1-1.16-8.44-3.47zm2.79-2.87a7.957 7.957 0 0 0 5.65 2.34c2.04 0 4.08-.77 5.64-2.32L40.37 35.9c.38-.4.9-.62 1.45-.62h6.4L37 24.31V26c0 1.1-.9 2-2 2s-2-.9-2-2v-5.6l-5.69-5.56L9.37 33.39l-.02.02a7.98 7.98 0 0 0-2.34 5.66c0 2.04.77 4.06 2.31 5.62l6.03 5.45c.02.02.05.04.07.07zM61 53c0 2.21-.9 4.21-2.34 5.66A7.973 7.973 0 0 1 53 61c-2.21 0-4.21-.9-5.66-2.34A7.973 7.973 0 0 1 45 53c0-2.06 1.38-4.26 2.52-5.81 1.83-2.49 4.09-4.63 4.1-4.64a2 2 0 0 1 2.75 0c.02.02 2.27 2.15 4.1 4.64 1.14 1.54 2.52 3.75 2.52 5.81zm-5.74-3.44a32.71 32.71 0 0 0-2.26-2.7c-.68.73-1.51 1.69-2.26 2.7C49.56 51.17 49 52.4 49 53c0 1.11.45 2.1 1.17 2.83.73.73 1.72 1.17 2.83 1.17s2.1-.45 2.83-1.17C56.56 55.1 57 54.11 57 53c0-.6-.56-1.83-1.74-3.44z" />
</svg>
