<svg
  xmlns="http://www.w3.org/2000/svg"
  width="64"
  height="64"
  viewBox="0 0 64 64"
  fill="black"
  fill-rule="nonzero"
>
  <path d="M32 58c-4.97 0-9.47-2.02-12.73-5.27-.82-.82-1.56-1.72-2.21-2.68-2.11.22-4 1.16-5.43 2.59A8.972 8.972 0 0 0 8.99 59c0 1.1-.9 2-2 2s-2-.9-2-2c0-3.59 1.46-6.84 3.81-9.19 1.71-1.71 3.89-2.94 6.33-3.49-.51-1.37-.86-2.81-1.03-4.32H3.99c-1.1 0-2-.9-2-2s.9-2 2-2h10v-7.15C11.2 30.42 8.7 29.1 6.8 27.2c-2.35-2.35-3.81-5.6-3.81-9.19 0-1.1.9-2 2-2s2 .9 2 2c0 2.49 1.01 4.73 2.64 6.36a8.923 8.923 0 0 0 4.5 2.44c.5-4.09 2.37-7.77 5.14-10.53 1.3-1.3 2.79-2.4 4.43-3.25A10.965 10.965 0 0 1 19 4.01c0-1.1.9-2 2-2s2 .9 2 2c0 1.93.78 3.68 2.05 4.95A6.976 6.976 0 0 0 30 11.01h4c1.93 0 3.68-.78 4.95-2.05A6.976 6.976 0 0 0 41 4.01c0-1.1.9-2 2-2s2 .9 2 2a10.965 10.965 0 0 1-4.7 9.02c1.64.85 3.14 1.95 4.43 3.25 2.77 2.77 4.64 6.44 5.14 10.53a8.998 8.998 0 0 0 4.5-2.44 8.972 8.972 0 0 0 2.64-6.36c0-1.1.9-2 2-2s2 .9 2 2c0 3.59-1.46 6.84-3.81 9.19-1.91 1.91-4.4 3.22-7.19 3.65V38h10c1.1 0 2 .9 2 2s-.9 2-2 2H49.9c-.17 1.5-.52 2.95-1.03 4.32 2.44.55 4.63 1.78 6.33 3.49 2.35 2.35 3.81 5.6 3.81 9.19 0 1.1-.9 2-2 2s-2-.9-2-2c0-2.49-1.01-4.73-2.64-6.36a8.999 8.999 0 0 0-5.43-2.59c-.65.96-1.39 1.86-2.21 2.68A17.941 17.941 0 0 1 32 58zm9.9-8.1c2.54-2.54 4.1-6.03 4.1-9.9v-9H34v22.86c3.07-.44 5.81-1.87 7.9-3.96zM18 31v9c0 3.87 1.56 7.36 4.1 9.9 2.09 2.09 4.83 3.52 7.9 3.96V31zm23.9-11.9C39.36 16.56 35.87 15 32 15s-7.36 1.56-9.9 4.1a13.956 13.956 0 0 0-3.96 7.9h27.72c-.44-3.07-1.87-5.81-3.96-7.9z" />
</svg>
