<!-- Generated by IcoMoon.io -->
<svg version="1.1" xmlns="http://www.w3.org/2000/svg" width="32" height="32" viewBox="0 0 32 32">
<title>bug</title>
<path d="M28.46 7.997v-3.531c0-0.485-0.373-0.902-0.857-0.925-0.517-0.024-0.944 0.388-0.944 0.899v3.557c0 1.543-0.991 2.859-2.37 3.345-0.338 0.119-0.714-0.013-0.914-0.31l-0.002-0.004c-0.080-0.118-0.163-0.235-0.248-0.349-0.043-0.057-0.086-0.114-0.13-0.17-0.171-0.218-0.353-0.427-0.543-0.628-0.145-0.152-0.229-0.35-0.244-0.56-0.008-0.108-0.018-0.215-0.031-0.322-0.002-0.012-0.003-0.025-0.005-0.037-0.040-0.305-0.101-0.603-0.183-0.892-0.078-0.276-0.175-0.544-0.29-0.803s-0.245-0.509-0.392-0.748l-0.003-0.005c-0.172-0.279-0.13-0.641 0.102-0.873l1.434-1.434c0.351-0.351 0.377-0.925 0.033-1.282-0.35-0.364-0.93-0.368-1.285-0.012l-1.545 1.545c-0.183 0.183-0.468 0.213-0.685 0.074l-0.003-0.002c-0.084-0.054-0.17-0.106-0.257-0.156-0.304-0.175-0.624-0.325-0.958-0.447-0.095-0.035-0.192-0.068-0.289-0.098-0.585-0.182-1.206-0.28-1.851-0.28-0.483 0-0.954 0.055-1.406 0.159-0.1 0.023-0.2 0.049-0.298 0.077s-0.196 0.058-0.292 0.091c-0.145 0.049-0.287 0.103-0.426 0.162-0.093 0.039-0.185 0.081-0.276 0.125-0.113 0.055-0.271 0.146-0.429 0.241-0.354 0.215-0.809 0.159-1.102-0.134l-1.358-1.358c-0.356-0.356-0.935-0.352-1.285 0.012-0.344 0.357-0.318 0.932 0.033 1.282l1.434 1.434c0.251 0.251 0.331 0.626 0.205 0.958-0.313 0.819-0.866 2.301-0.971 2.801-0.034 0.164-0.114 0.314-0.229 0.434-0.112 0.117-0.247 0.26-0.321 0.346-0.233 0.269-0.45 0.552-0.65 0.848l-0.002 0.004c-0.2 0.297-0.576 0.429-0.914 0.31-1.379-0.486-2.37-1.802-2.37-3.345v-3.531c0-0.485-0.373-0.902-0.857-0.925-0.517-0.024-0.944 0.388-0.944 0.899v3.557c0 2.239 1.383 4.161 3.34 4.956 0.369 0.15 0.576 0.543 0.481 0.929-0.009 0.036-0.018 0.073-0.026 0.11-0.033 0.143-0.063 0.288-0.089 0.434-0.013 0.073-0.025 0.146-0.036 0.22-0.022 0.147-0.041 0.296-0.057 0.445-0.030 0.299-0.046 0.602-0.046 0.909 0 0.431 0.14 1.418 0.248 2.108 0.064 0.411-0.164 0.808-0.547 0.97-1.919 0.812-3.269 2.713-3.269 4.925v3.531c0 0.485 0.373 0.902 0.857 0.925 0.517 0.024 0.944-0.388 0.944-0.899v-3.557c0-1.268 0.669-2.382 1.672-3.009 0.476-0.297 1.105-0.1 1.317 0.42 0.073 0.178 0.139 0.338 0.179 0.427 0.039 0.086 0.078 0.171 0.118 0.256 0.080 0.17 0.163 0.34 0.248 0.507s0.173 0.334 0.264 0.498c0.091 0.165 0.184 0.327 0.279 0.488s0.194 0.319 0.294 0.475c0.503 0.781 1.066 1.502 1.677 2.124 0.306 0.311 0.623 0.597 0.951 0.854 0.066 0.051 0.132 0.102 0.198 0.151 0.133 0.098 0.268 0.191 0.404 0.279 0.906 0.584 1.881 0.938 2.897 0.972v0c0.052 0.009 0.105 0.015 0.16 0.015s0.108-0.006 0.16-0.015c0 0 0 0 0 0 1.016-0.034 1.991-0.388 2.897-0.972 1.362-0.879 2.568-2.276 3.525-3.883 0.191-0.321 0.373-0.651 0.543-0.986 0.085-0.168 0.168-0.337 0.248-0.507 0.079-0.168 0.189-0.428 0.295-0.687 0.213-0.518 0.84-0.715 1.315-0.418 1.005 0.627 1.675 1.742 1.675 3.011v3.531c0 0.485 0.373 0.902 0.857 0.925 0.517 0.024 0.944-0.388 0.944-0.899v-3.557c0-2.241-1.386-4.162-3.345-4.956-0.333-0.135-0.521-0.489-0.452-0.842l0.001-0.005c0.149-0.766 0.228-1.509 0.228-2.199 0-0.307-0.016-0.61-0.046-0.909-0.015-0.149-0.034-0.298-0.057-0.445-0.011-0.074-0.023-0.147-0.036-0.22-0.026-0.146-0.056-0.291-0.089-0.434-0.001-0.006-0.003-0.013-0.005-0.020-0.105-0.429 0.113-0.873 0.52-1.044 1.925-0.81 3.28-2.715 3.28-4.931zM16 5.352c0.997 0 1.917 0.332 2.658 0.891 0.331 0.25 0.626 0.544 0.875 0.875 0.228 0.302 0.417 0.633 0.563 0.988v0c0.114 0.278 0.2 0.569 0.256 0.872 0.077 0.417-0.159 0.828-0.552 0.987-0.016 0.007-0.033 0.013-0.050 0.020-0.173 0.068-0.379 0.137-0.626 0.203-0.874 0.236-1.984 0.366-3.124 0.366s-2.25-0.13-3.124-0.366c-0.246-0.066-0.453-0.136-0.626-0.203-0.017-0.007-0.034-0.013-0.050-0.020-0.393-0.159-0.628-0.57-0.552-0.987 0.056-0.302 0.142-0.594 0.256-0.872 0 0 0 0 0 0 0.145-0.354 0.335-0.686 0.563-0.988 0.25-0.331 0.544-0.626 0.875-0.875 0.741-0.558 1.661-0.891 2.658-0.891zM11.226 23.091c-0.526-0.816-0.982-1.716-1.348-2.634-0.238-0.599-0.438-1.205-0.593-1.801-0.243-0.935-0.377-1.844-0.377-2.656 0-0.939 0.184-1.836 0.517-2.656 0.265-0.654 0.626-1.26 1.064-1.801 0.001-0.001 0.002-0.002 0.002-0.003 0.141-0.173 0.386-0.222 0.583-0.116 0.075 0.041 0.153 0.081 0.228 0.114 0.004 0.002 0.007 0.003 0.011 0.005 0.097 0.044 0.196 0.085 0.3 0.126 0.25 0.097 0.519 0.184 0.803 0.26 0.447 0.12 0.931 0.215 1.436 0.284 0.228 0.031 0.459 0.057 0.694 0.078 0.314 0.028 0.554 0.292 0.554 0.607v12.165c0 0.733-0.828 1.158-1.424 0.733-0.851-0.607-1.689-1.525-2.449-2.705zM20.774 23.091c-0.76 1.18-1.598 2.098-2.449 2.705-0.596 0.425-1.424-0-1.424-0.733v-12.171c0-0.313 0.239-0.574 0.551-0.602l0.009-0.001c0.086-0.008 0.171-0.016 0.255-0.025 0.010-0.001 0.020-0.002 0.030-0.003 0.083-0.009 0.165-0.019 0.247-0.029 0.065-0.008 0.13-0.017 0.194-0.026 0.070-0.010 0.14-0.020 0.21-0.031 0.015-0.002 0.031-0.005 0.047-0.007 0.075-0.012 0.149-0.025 0.223-0.038 0.016-0.003 0.032-0.006 0.048-0.009 0.072-0.013 0.143-0.027 0.213-0.041 0.245-0.049 0.482-0.105 0.709-0.167 0.051-0.014 0.102-0.029 0.153-0.043 0.104-0.031 0.206-0.063 0.305-0.096 0.049-0.017 0.097-0.033 0.145-0.051 0.156-0.056 0.306-0.117 0.448-0.181 0.084-0.038 0.165-0.077 0.243-0.117 0.197-0.102 0.439-0.058 0.578 0.114 0.001 0.001 0.002 0.002 0.003 0.003 0.438 0.541 0.798 1.147 1.064 1.801 0.333 0.821 0.517 1.718 0.517 2.656 0 0.812-0.134 1.721-0.377 2.656-0.155 0.596-0.355 1.202-0.593 1.801-0.366 0.918-0.822 1.817-1.348 2.634z"></path>
</svg>
