<svg
  xmlns="http://www.w3.org/2000/svg"
  width="64"
  height="64"
  viewBox="0 0 64 64"
  fill="black"
  fill-rule="nonzero"
>
  <path d="M3 55V40c0-1.1.9-2 2-2h1v-2c0-1.1.45-2.11 1.17-2.83A3.99 3.99 0 0 1 10 32h4c1.1 0 2.11.45 2.83 1.17A3.99 3.99 0 0 1 18 36v2h9v-2c0-1.1.45-2.11 1.17-2.83.71-.71 1.71-1.16 2.8-1.17L19.11 20.14c-.78-.78-.78-2.05 0-2.83L29.72 6.7c.78-.78 2.05-.78 2.83 0l.71.71 2.83-2.83c.78-.78 2.05-.78 2.83 0l5.66 5.66c.78.78.78 2.05 0 2.83l-2.83 2.83 6.37 6.37 2.83-2.83c.78-.78 2.05-.78 2.83 0l5.66 5.66c.78.78.78 2.05 0 2.83l-2.83 2.83.71.71c.78.78.78 2.05 0 2.83L46.71 44.91c-.78.78-2.05.78-2.83 0l-1.85-1.85v11.97c0 1.1-.9 2-2 2h-35c-1.1 0-2-.9-2-2zm32-17v-1.97l-.03-.03H31v2zm3 15V42H7v11zM14 36h-4v2h4zm31.27 4.64l7.78-7.78-21.92-21.92-7.78 7.78 13.8 13.8c.05.04.09.09.14.14l1.06 1.06c.05.04.09.09.14.14zm-6.36-27.57l1.41-1.41-2.83-2.83-1.41 1.41zm14.85 14.85l1.41-1.41-2.83-2.83-1.41 1.41z" />
</svg>
