<!-- Generated by IcoMoon.io -->
<svg version="1.1" xmlns="http://www.w3.org/2000/svg" width="32" height="32" viewBox="0 0 32 32">
<title>bullseye</title>
<path d="M27.534 15.1h-2.804c-0.429 0-0.796-0.303-0.882-0.723-0.644-3.119-3.106-5.581-6.225-6.225-0.42-0.087-0.723-0.453-0.723-0.882v-2.804c0-0.485-0.373-0.902-0.857-0.925-0.517-0.024-0.944 0.388-0.944 0.899v2.829c0 0.429-0.303 0.796-0.723 0.882-3.119 0.644-5.581 3.106-6.225 6.225-0.087 0.42-0.453 0.723-0.882 0.723h-2.804c-0.485 0-0.902 0.373-0.925 0.857-0.024 0.517 0.388 0.944 0.899 0.944h2.829c0.429 0 0.796 0.303 0.882 0.723 0.644 3.119 3.106 5.581 6.225 6.225 0.42 0.087 0.723 0.453 0.723 0.882v2.804c0 0.485 0.373 0.902 0.857 0.925 0.517 0.024 0.944-0.388 0.944-0.899v-2.829c0-0.429 0.303-0.796 0.723-0.882 3.119-0.644 5.581-3.106 6.225-6.225 0.087-0.42 0.453-0.723 0.882-0.723h2.829c0.512 0 0.924-0.427 0.899-0.944-0.023-0.484-0.44-0.857-0.925-0.857zM16 22.213c-3.426 0-6.213-2.787-6.213-6.213s2.787-6.213 6.213-6.213c3.426 0 6.213 2.787 6.213 6.213s-2.787 6.213-6.213 6.213z"></path>
<path d="M18.668 16c0 1.473-1.194 2.668-2.668 2.668s-2.668-1.194-2.668-2.668c0-1.473 1.194-2.668 2.668-2.668s2.668 1.194 2.668 2.668z"></path>
</svg>
