<svg
  xmlns="http://www.w3.org/2000/svg"
  width="64"
  height="64"
  viewBox="0 0 64 64"
  fill="black"
  fill-rule="nonzero"
>
  <path d="M6.01 13.79c.11-1.81 1.51-3.02 2.74-3.77C12.85 7.52 21.95 6 32 6c10.06 0 19.15 1.52 23.25 4.02 1.23.75 2.63 1.96 2.74 3.77 0 .07.01.14.01.21v36c0 .07 0 .14-.01.21-.11 1.81-1.51 3.02-2.74 3.77-4.1 2.5-13.2 4.02-23.26 4.02-10.06 0-19.16-1.52-23.26-4.02-1.23-.75-2.63-1.96-2.74-3.77 0-.07-.01-.14-.01-.21V26 14c0-.07 0-.14.01-.21zM32 22c-9.13 0-17.47-1.25-22-3.35v7.25c.05.07.16.2.4.38 1.45 1.11 5.06 2.28 10.36 3.01 1.09.15 1.86 1.16 1.71 2.25a2.003 2.003 0 0 1-2.25 1.71c-4.06-.56-7.68-1.42-10.22-2.6v7.25c.05.07.16.2.4.38 1.44 1.1 5.02 2.28 10.3 3 1.09.15 1.86 1.16 1.71 2.25a2.003 2.003 0 0 1-2.25 1.71c-4.04-.55-7.63-1.42-10.16-2.59v7.24c.05.05.34.38.83.67C13.9 52.43 22 53.99 32 53.99c10.01 0 18.1-1.56 21.17-3.43.51-.31.74-.55.83-.67v-7.25c-2.64 1.23-6.46 2.12-10.74 2.68-1.1.14-2.1-.63-2.24-1.73-.14-1.1.63-2.1 1.73-2.24 5.52-.72 9.32-1.92 10.84-3.07.23-.18.37-.34.42-.4v-7.24c-2.52 1.18-6.12 2.04-10.16 2.59-1.09.15-2.1-.62-2.25-1.71-.15-1.09.62-2.1 1.71-2.25 5.28-.73 8.86-1.9 10.3-3 .22-.17.35-.32.4-.39v-7.25c-4.53 2.1-12.87 3.35-22 3.35zm-21.91-7.99c.12.13.35.33.74.56C13.9 16.44 21.99 18 32 18c10.01 0 18.1-1.56 21.17-3.43.35-.21.61-.45.74-.58-.12-.13-.35-.33-.74-.56C50.1 11.56 42.01 10 32 10c-10.01 0-18.1 1.56-21.17 3.43-.35.21-.61.45-.74.58zm14.5 36.4c-.78-.78-.78-2.05 0-2.83l8.59-8.59h-7.17c-.81 0-1.54-.49-1.85-1.23a2 2 0 0 1 .43-2.18l12-12c.78-.78 2.05-.78 2.83 0 .78.78.78 2.05 0 2.83L30.83 35H38c.81 0 1.54.49 1.85 1.23a2 2 0 0 1-.43 2.18l-12 12c-.78.78-2.05.78-2.83 0z" />
</svg>
