<!-- Generated by IcoMoon.io -->
<svg version="1.1" xmlns="http://www.w3.org/2000/svg" width="32" height="32" viewBox="0 0 32 32">
<title>calculator</title>
<path d="M24.87 1.772h-17.739c-0.995 0-1.801 0.806-1.801 1.801v24.853c0 0.995 0.806 1.801 1.801 1.801h17.74c0.995 0 1.801-0.806 1.801-1.801v-24.853c-0-0.995-0.806-1.801-1.801-1.801zM23.969 28.427h-15.939c-0.497 0-0.9-0.403-0.9-0.9v-23.052c0-0.497 0.403-0.9 0.9-0.9h15.939c0.497 0 0.9 0.403 0.9 0.9v23.052c-0 0.497-0.403 0.9-0.901 0.9z"></path>
<path d="M12.466 24.892c0 0.995-0.806 1.801-1.801 1.801s-1.801-0.806-1.801-1.801c0-0.995 0.806-1.801 1.801-1.801s1.801 0.806 1.801 1.801z"></path>
<path d="M17.801 24.892c0 0.995-0.806 1.801-1.801 1.801s-1.801-0.806-1.801-1.801c0-0.995 0.806-1.801 1.801-1.801s1.801 0.806 1.801 1.801z"></path>
<path d="M23.136 24.892c0 0.995-0.806 1.801-1.801 1.801s-1.801-0.806-1.801-1.801c0-0.995 0.806-1.801 1.801-1.801s1.801 0.806 1.801 1.801z"></path>
<path d="M12.466 19.534c0 0.995-0.806 1.801-1.801 1.801s-1.801-0.806-1.801-1.801c0-0.995 0.806-1.801 1.801-1.801s1.801 0.806 1.801 1.801z"></path>
<path d="M17.801 19.534c0 0.995-0.806 1.801-1.801 1.801s-1.801-0.806-1.801-1.801c0-0.995 0.806-1.801 1.801-1.801s1.801 0.806 1.801 1.801z"></path>
<path d="M23.136 19.534c0 0.995-0.806 1.801-1.801 1.801s-1.801-0.806-1.801-1.801c0-0.995 0.806-1.801 1.801-1.801s1.801 0.806 1.801 1.801z"></path>
<path d="M12.466 14.222c0 0.995-0.806 1.801-1.801 1.801s-1.801-0.806-1.801-1.801c0-0.995 0.806-1.801 1.801-1.801s1.801 0.806 1.801 1.801z"></path>
<path d="M17.801 14.222c0 0.995-0.806 1.801-1.801 1.801s-1.801-0.806-1.801-1.801c0-0.995 0.806-1.801 1.801-1.801s1.801 0.806 1.801 1.801z"></path>
<path d="M23.136 14.222c0 0.995-0.806 1.801-1.801 1.801s-1.801-0.806-1.801-1.801c0-0.995 0.806-1.801 1.801-1.801s1.801 0.806 1.801 1.801z"></path>
<path d="M9.787 10.665h12.427c0.497 0 0.9-0.403 0.9-0.9v-3.534c0-0.497-0.403-0.9-0.9-0.9h-12.427c-0.497 0-0.9 0.403-0.9 0.9v3.534c0 0.497 0.403 0.9 0.9 0.9z"></path>
</svg>
