<svg
  xmlns="http://www.w3.org/2000/svg"
  width="64"
  height="64"
  viewBox="0 0 64 64"
  fill="black"
  fill-rule="nonzero"
>
  <path d="M16 62a7 7 0 0 1-7-7V9a7 7 0 0 1 7-7h32a7 7 0 0 1 7 7v46a7 7 0 0 1-7 7zm32-4c.83 0 1.58-.33 2.12-.88.55-.55.88-1.29.88-2.12V9c0-.83-.33-1.58-.88-2.12C49.57 6.33 48.83 6 48 6H16c-.83 0-1.58.33-2.12.88C13.33 7.43 13 8.17 13 9v46c0 .83.33 1.58.88 2.12.55.55 1.29.88 2.12.88zM17 28v-2c0-1.1.9-2 2-2h2c1.1 0 2 .9 2 2v2c0 1.1-.9 2-2 2h-2c-1.1 0-2-.9-2-2zm8 0v-2c0-1.1.9-2 2-2h2c1.1 0 2 .9 2 2v2c0 1.1-.9 2-2 2h-2c-1.1 0-2-.9-2-2zm8 0v-2c0-1.1.9-2 2-2h2c1.1 0 2 .9 2 2v2c0 1.1-.9 2-2 2h-2c-1.1 0-2-.9-2-2zm8 0v-2c0-1.1.9-2 2-2h2c1.1 0 2 .9 2 2v2c0 1.1-.9 2-2 2h-2c-1.1 0-2-.9-2-2zm-24 8v-2c0-1.1.9-2 2-2h2c1.1 0 2 .9 2 2v2c0 1.1-.9 2-2 2h-2c-1.1 0-2-.9-2-2zm8 0v-2c0-1.1.9-2 2-2h2c1.1 0 2 .9 2 2v2c0 1.1-.9 2-2 2h-2c-1.1 0-2-.9-2-2zm8 0v-2c0-1.1.9-2 2-2h2c1.1 0 2 .9 2 2v2c0 1.1-.9 2-2 2h-2c-1.1 0-2-.9-2-2zm8 0v-2c0-1.1.9-2 2-2h2c1.1 0 2 .9 2 2v2c0 1.1-.9 2-2 2h-2c-1.1 0-2-.9-2-2zm-24 8v-2c0-1.1.9-2 2-2h2c1.1 0 2 .9 2 2v2c0 1.1-.9 2-2 2h-2c-1.1 0-2-.9-2-2zm8 0v-2c0-1.1.9-2 2-2h2c1.1 0 2 .9 2 2v2c0 1.1-.9 2-2 2h-2c-1.1 0-2-.9-2-2zm8 0v-2c0-1.1.9-2 2-2h2c1.1 0 2 .9 2 2v2c0 1.1-.9 2-2 2h-2c-1.1 0-2-.9-2-2zm-16 8v-2c0-1.1.9-2 2-2h10c1.1 0 2 .9 2 2v2c0 1.1-.9 2-2 2H19c-1.1 0-2-.9-2-2zm16 0v-2c0-1.1.9-2 2-2h2c1.1 0 2 .9 2 2v2c0 1.1-.9 2-2 2h-2c-1.1 0-2-.9-2-2zm8 0V42c0-1.1.9-2 2-2h2c1.1 0 2 .9 2 2v10c0 1.1-.9 2-2 2h-2c-1.1 0-2-.9-2-2zM17 18v-6c0-1.1.9-2 2-2h26c1.1 0 2 .9 2 2v6c0 1.1-.9 2-2 2H19c-1.1 0-2-.9-2-2z" />
</svg>
