<!-- Generated by IcoMoon.io -->
<svg version="1.1" xmlns="http://www.w3.org/2000/svg" width="32" height="32" viewBox="0 0 32 32">
<title>calendar</title>
<path d="M27.549 5.329h-1.745c-0.497 0-0.9-0.403-0.9-0.9v-1.742c0-0.485-0.373-0.902-0.857-0.925-0.517-0.024-0.944 0.388-0.944 0.899v1.767c0 0.497-0.403 0.9-0.9 0.9h-12.404c-0.497 0-0.9-0.403-0.9-0.9v-1.742c0-0.485-0.373-0.902-0.857-0.925-0.517-0.024-0.944 0.388-0.944 0.899v1.767c0 0.497-0.403 0.9-0.9 0.9-0.767 0-1.745 0-1.745 0-0.497 0-0.9 0.403-0.9 0.9v23.097c0 0.497 0.403 0.9 0.9 0.9h23.097c0.497 0 0.9-0.403 0.9-0.9v-23.097c0-0.497-0.403-0.9-0.9-0.9zM26.648 27.526c0 0.497-0.403 0.9-0.9 0.9h-19.496c-0.497 0-0.9-0.403-0.9-0.9v-14.183c0-0.497 0.403-0.9 0.9-0.9h19.496c0.497 0 0.9 0.403 0.9 0.9v14.183z"></path>
<path d="M10.653 15.111h-1.756c-0.497 0-0.9 0.403-0.9 0.9v1.756c0 0.497 0.403 0.9 0.9 0.9h1.756c0.497 0 0.9-0.403 0.9-0.9v-1.756c0-0.497-0.403-0.9-0.9-0.9z"></path>
<path d="M23.103 15.111h-1.756c-0.497 0-0.9 0.403-0.9 0.9v1.756c0 0.497 0.403 0.9 0.9 0.9h1.756c0.497 0 0.9-0.403 0.9-0.9v-1.756c0-0.497-0.403-0.9-0.9-0.9z"></path>
<path d="M16.878 15.111h-1.756c-0.497 0-0.9 0.403-0.9 0.9v1.756c0 0.497 0.403 0.9 0.9 0.9h1.756c0.497 0 0.9-0.403 0.9-0.9v-1.756c0-0.497-0.403-0.9-0.9-0.9z"></path>
<path d="M10.653 22.225h-1.756c-0.497 0-0.9 0.403-0.9 0.9v1.756c0 0.497 0.403 0.9 0.9 0.9h1.756c0.497 0 0.9-0.403 0.9-0.9v-1.756c0-0.497-0.403-0.9-0.9-0.9z"></path>
<path d="M23.103 22.225h-1.756c-0.497 0-0.9 0.403-0.9 0.9v1.756c0 0.497 0.403 0.9 0.9 0.9h1.756c0.497 0 0.9-0.403 0.9-0.9v-1.756c0-0.497-0.403-0.9-0.9-0.9z"></path>
<path d="M16.878 22.225h-1.756c-0.497 0-0.9 0.403-0.9 0.9v1.756c0 0.497 0.403 0.9 0.9 0.9h1.756c0.497 0 0.9-0.403 0.9-0.9v-1.756c0-0.497-0.403-0.9-0.9-0.9z"></path>
</svg>
