<svg
  xmlns="http://www.w3.org/2000/svg"
  width="64"
  height="64"
  viewBox="0 0 64 64"
  fill="black"
  fill-rule="nonzero"
>
  <path d="M13.33 58c-2.02 0-3.86-.82-5.18-2.15A7.325 7.325 0 0 1 6 50.67V13.33c0-2.02.82-3.86 2.15-5.18A7.325 7.325 0 0 1 13.33 6H18V5c0-1.1.9-2 2-2s2 .9 2 2v1h20V5c0-1.1.9-2 2-2s2 .9 2 2v1h4.67c2.02 0 3.86.82 5.18 2.15A7.325 7.325 0 0 1 58 13.33v37.34c0 2.02-.82 3.86-2.15 5.18A7.325 7.325 0 0 1 50.67 58zm37.34-4c.92 0 1.75-.37 2.35-.98.6-.6.98-1.43.98-2.35V25H10v25.67c0 .92.37 1.75.98 2.35.6.6 1.43.98 2.35.98zM54 13.33c0-.92-.37-1.75-.98-2.35-.6-.6-1.43-.98-2.35-.98H46v5c0 1.1-.9 2-2 2s-2-.9-2-2v-5H22v5c0 1.1-.9 2-2 2s-2-.9-2-2v-5h-4.67c-.92 0-1.75.37-2.35.98-.6.6-.98 1.43-.98 2.35V21h44zM26.41 29.59c.78.78.78 2.05 0 2.83l-4.59 4.59h20.34l-4.59-4.59c-.78-.78-.78-2.05 0-2.83.78-.78 2.05-.78 2.83 0l8 8c.19.19.34.41.43.65.1.24.15.49.15.77a1.994 1.994 0 0 1-.58 1.42l-8 8c-.78.78-2.05.78-2.83 0-.78-.78-.78-2.05 0-2.83l4.59-4.59H21.82l4.59 4.59c.78.78.78 2.05 0 2.83-.78.78-2.05.78-2.83 0l-8-8c-.19-.19-.34-.41-.43-.65-.1-.24-.15-.49-.15-.77a1.994 1.994 0 0 1 .58-1.42l8-8c.78-.78 2.05-.78 2.83 0z" />
</svg>
