<svg
  xmlns="http://www.w3.org/2000/svg"
  width="64"
  height="64"
  viewBox="0 0 64 64"
  fill="black"
  fill-rule="nonzero"
>
  <path d="M60.67 45.15v7.97c0 1.03-.21 2.04-.61 2.97-.41.93-1 1.77-1.76 2.47-.76.7-1.65 1.22-2.61 1.54-.96.32-1.98.45-3.01.35h-.03c-4.26-.46-8.43-1.42-12.43-2.85-4-1.42-7.84-3.31-11.43-5.64a54.367 54.367 0 0 1-9.21-7.39 54.367 54.367 0 0 1-7.39-9.21 54.522 54.522 0 0 1-5.66-11.49 54.364 54.364 0 0 1-2.84-12.5v-.04c-.09-1.03.04-2.05.36-3.01.33-.96.85-1.85 1.55-2.61.7-.76 1.54-1.36 2.47-1.76.93-.4 1.93-.62 2.97-.61h7.99a7.24 7.24 0 0 1 4.84 1.78 7.33 7.33 0 0 1 2.48 4.54v.01c.16 1.21.39 2.4.68 3.58.29 1.18.65 2.34 1.08 3.48v.01c.49 1.33.57 2.75.29 4.08a7.321 7.321 0 0 1-1.94 3.6l-.01.01-2.29 2.29a41.01 41.01 0 0 0 5.82 7.35c2.21 2.21 4.67 4.17 7.35 5.82l2.29-2.29.01-.01c1.02-1 2.28-1.67 3.63-1.95 1.34-.29 2.77-.2 4.11.3 1.14.42 2.3.78 3.48 1.08 1.18.29 2.37.52 3.58.68h.03c1.84.27 3.44 1.22 4.56 2.55a7.343 7.343 0 0 1 1.7 4.91zm-4-.1c.03-.85-.26-1.63-.77-2.24a3.346 3.346 0 0 0-2.06-1.16c-1.35-.18-2.68-.44-4-.76-1.32-.33-2.63-.73-3.91-1.21a3.332 3.332 0 0 0-3.52.75l-3.38 3.38c-.64.64-1.62.77-2.4.32a44.845 44.845 0 0 1-9.5-7.25 44.845 44.845 0 0 1-7.25-9.5c-.45-.78-.31-1.77.32-2.4l3.38-3.38c.45-.46.75-1.03.88-1.63.13-.61.09-1.25-.13-1.86a35.86 35.86 0 0 1-1.21-3.9c-.33-1.32-.59-2.66-.77-4.01-.12-.83-.53-1.54-1.12-2.06-.6-.51-1.37-.81-2.21-.81H11h-.01c-.47 0-.93.1-1.35.28-.42.18-.81.46-1.13.8a3.368 3.368 0 0 0-.88 2.55 50.71 50.71 0 0 0 2.63 11.57 50.76 50.76 0 0 0 5.25 10.66l.01.01c1.97 3.1 4.27 5.96 6.85 8.54 2.58 2.58 5.44 4.88 8.54 6.85l.01.01c3.33 2.16 6.89 3.91 10.6 5.23 3.71 1.32 7.57 2.21 11.51 2.64a3.342 3.342 0 0 0 2.54-.86c.35-.32.62-.7.8-1.12.18-.42.28-.88.28-1.35v-8.01-.07z" />
</svg>
