<svg
  xmlns="http://www.w3.org/2000/svg"
  width="64"
  height="64"
  viewBox="0 0 64 64"
  fill="black"
  fill-rule="nonzero"
>
  <path d="M55 58H9a7 7 0 0 1-7-7V21a7 7 0 0 1 7-7h9.76l3.45-6.89A2 2 0 0 1 24 6h16a2 2 0 0 1 1.79 1.11L45.24 14H55a7 7 0 0 1 7 7v30a7 7 0 0 1-7 7zm2.12-4.88c.55-.55.88-1.29.88-2.12V21c0-.83-.33-1.58-.88-2.12-.55-.55-1.29-.88-2.12-.88H44a2 2 0 0 1-1.79-1.11L38.76 10H25.23l-3.45 6.89A2 2 0 0 1 19.99 18h-11c-.83 0-1.58.33-2.12.88-.55.55-.88 1.29-.88 2.12v30c0 .83.33 1.58.88 2.12.55.55 1.29.88 2.12.88h46c.83 0 1.58-.33 2.12-.88zM18 36c0-3.87 1.57-7.37 4.1-9.9 2.53-2.53 6.03-4.1 9.9-4.1s7.37 1.57 9.9 4.1c2.53 2.53 4.1 6.03 4.1 9.9s-1.57 7.37-4.1 9.9C39.37 48.43 35.87 50 32 50s-7.37-1.57-9.9-4.1C19.57 43.37 18 39.87 18 36zm6.93 7.07A9.969 9.969 0 0 0 32 46c2.76 0 5.26-1.12 7.07-2.93A9.969 9.969 0 0 0 42 36c0-2.76-1.12-5.26-2.93-7.07A9.969 9.969 0 0 0 32 26c-2.76 0-5.26 1.12-7.07 2.93A9.969 9.969 0 0 0 22 36c0 2.76 1.12 5.26 2.93 7.07z" />
</svg>
