<!-- Generated by IcoMoon.io -->
<svg version="1.1" xmlns="http://www.w3.org/2000/svg" width="32" height="32" viewBox="0 0 32 32">
<title>card</title>
<path d="M16 9.764c-0.497 0-0.9 0.403-0.9 0.9v10.671c0 0.497 0.403 0.9 0.9 0.9s0.9-0.403 0.9-0.9v-10.671c0-0.497-0.403-0.9-0.9-0.9z"></path>
<path d="M12.443 14.21h-6.225c-0.497 0-0.9 0.403-0.9 0.9s0.403 0.9 0.9 0.9h6.225c0.497 0 0.9-0.403 0.9-0.9s-0.403-0.9-0.9-0.9z"></path>
<path d="M12.443 16.878h-6.225c-0.497 0-0.9 0.403-0.9 0.9s0.403 0.9 0.9 0.9h6.225c0.497 0 0.9-0.403 0.9-0.9s-0.403-0.9-0.9-0.9z"></path>
<path d="M12.443 19.546h-6.225c-0.497 0-0.9 0.403-0.9 0.9s0.403 0.9 0.9 0.9h6.225c0.497 0 0.9-0.403 0.9-0.9s-0.403-0.9-0.9-0.9z"></path>
<path d="M25.77 9.775h-1.756c-0.497 0-0.9 0.403-0.9 0.9v1.756c0 0.497 0.403 0.9 0.9 0.9h1.756c0.497 0 0.9-0.403 0.9-0.9v-1.756c0-0.497-0.403-0.9-0.9-0.9z"></path>
<path d="M29.361 6.185h-26.721c-0.497 0-0.9 0.403-0.9 0.9v17.829c0 0.497 0.403 0.9 0.9 0.9h26.721c0.497 0 0.9-0.403 0.9-0.9v-17.829c-0-0.497-0.403-0.9-0.901-0.9zM28.46 23.114c0 0.497-0.403 0.9-0.9 0.9h-23.12c-0.497 0-0.9-0.403-0.9-0.9v-14.228c0-0.497 0.403-0.9 0.9-0.9h23.12c0.497 0 0.9 0.403 0.9 0.9v14.228z"></path>
</svg>
