<svg
  xmlns="http://www.w3.org/2000/svg"
  width="64"
  height="64"
  viewBox="0 0 64 64"
  fill="black"
  fill-rule="nonzero"
>
  <path d="M32.39 13.57c.28-.27.59-.51.93-.69 1.36-.75 2.9-.64 4.18-.28 1.55.43 3.22 1.34 4.81 2.5V4.51c0-1.1.9-2 2-2s2 .9 2 2v10.1l4.05-4.05c.78-.78 2.05-.78 2.83 0 .78.78.78 2.05 0 2.83l-4.05 4.05h10.1c1.1 0 2 .9 2 2s-.9 2-2 2H48.65c1.15 1.58 2.05 3.23 2.48 4.77.36 1.29.48 2.83-.26 4.2-.19.36-.44.7-.74.99l-.01.01C27.36 54.14 5.28 61.1 5.1 61.15c-.71.22-1.49.03-2.01-.49-.53-.53-.72-1.3-.49-2.01.06-.18 7.01-22.27 29.77-45.07l.02-.02zm2.8 2.86c-1.89 1.89-3.66 3.77-5.33 5.63l3.43 3.43c.78.78.78 2.05 0 2.83-.78.78-2.05.78-2.83 0l-3.23-3.23a131.09 131.09 0 0 0-4.13 5.14l2.72 2.73c.78.78.78 2.05 0 2.83-.78.78-2.05.78-2.83 0l-2.3-2.3C13.84 43.03 9.9 51.19 7.96 55.8c7.21-3.04 23.05-10.95 39.34-27.2.02-.02.04-.05.05-.07.04-.08.16-.42-.07-1.23-.49-1.74-2.14-4.18-4.39-6.43-2.26-2.26-4.72-3.92-6.46-4.4-.8-.22-1.13-.1-1.2-.07-.02.01-.03.02-.05.04z" />
</svg>
