<!-- Generated by IcoMoon.io -->
<svg version="1.1" xmlns="http://www.w3.org/2000/svg" width="32" height="32" viewBox="0 0 32 32">
<title>cd</title>
<path d="M16 3.551c-6.875 0-12.449 5.574-12.449 12.449s5.574 12.449 12.449 12.449 12.449-5.574 12.449-12.449c0-6.875-5.574-12.449-12.449-12.449zM12.466 16c0-1.949 1.586-3.534 3.534-3.534v0c1.949 0 3.534 1.586 3.534 3.534s-1.586 3.534-3.534 3.534v0c-1.949 0-3.534-1.586-3.534-3.534zM8.471 8.471c1.909-1.909 4.415-3.004 7.097-3.11 0.237-0.009 0.433 0.182 0.433 0.419v4.485c0 0.219-0.171 0.398-0.389 0.414-0.001 0-0.003 0-0.004 0-0.13 0.010-0.258 0.024-0.385 0.043-0.027 0.004-0.054 0.008-0.081 0.013-0.080 0.013-0.159 0.028-0.237 0.044-0.236 0.049-0.465 0.114-0.688 0.193-0.297 0.106-0.582 0.237-0.853 0.391-0.091 0.052-0.18 0.106-0.267 0.163-0.241 0.157-0.47 0.332-0.682 0.525-0.063 0.057-0.125 0.116-0.185 0.177-0.121 0.121-0.236 0.247-0.344 0.379s-0.211 0.269-0.307 0.411c-0.096 0.142-0.185 0.289-0.267 0.44s-0.157 0.307-0.225 0.466c-0.135 0.319-0.24 0.654-0.311 1.002-0.036 0.174-0.063 0.35-0.081 0.53-0.005 0.051-0.010 0.102-0.013 0.153-0.016 0.221-0.197 0.393-0.418 0.393h-4.481c-0.237 0-0.429-0.196-0.419-0.433 0.107-2.682 1.201-5.188 3.11-7.097zM23.529 23.529c-1.862 1.862-4.291 2.949-6.898 3.101-0.343 0.020-0.631-0.255-0.631-0.598v-4.176c0-0.295 0.215-0.546 0.507-0.591 0.534-0.084 1.358-0.239 1.806-0.455 0.466-0.225 0.895-0.515 1.274-0.86 0.063-0.057 0.125-0.116 0.185-0.177 0.121-0.121 0.236-0.247 0.344-0.379s0.211-0.269 0.307-0.411c0.096-0.142 0.185-0.289 0.267-0.44 0.246-0.454 0.429-0.947 0.536-1.468 0.036-0.174 0.063-0.35 0.081-0.53 0-0.002 0-0.004 0.001-0.005 0.031-0.305 0.283-0.54 0.59-0.54h4.133c0.343 0 0.618 0.288 0.598 0.631-0.151 2.607-1.239 5.037-3.1 6.898z"></path>
<path d="M17.801 16c0 0.995-0.806 1.801-1.801 1.801s-1.801-0.806-1.801-1.801c0-0.995 0.806-1.801 1.801-1.801s1.801 0.806 1.801 1.801z"></path>
</svg>
