<!-- Generated by IcoMoon.io -->
<svg version="1.1" xmlns="http://www.w3.org/2000/svg" width="32" height="32" viewBox="0 0 32 32">
<title>celery</title>
<path d="M23.67 7.4c-0.49-0.24-0.88-0.47-1.3-0.65-2.214-0.934-4.787-1.477-7.487-1.477-0.18 0-0.36 0.002-0.539 0.007l0.026-0.001c-3.21 0-5.3 1.94-5.38 5.14-0.090 3.64-0.070 7.28 0 10.91 0.050 2.91 1.66 4.8 4.56 5 0.312 0.016 0.677 0.025 1.044 0.025 1.61 0 3.179-0.173 4.691-0.501l-0.145 0.026c1.84-0.453 3.368-0.939 4.852-1.512l-0.272 0.092c-0.45-0.94-0.84-1.66-1.14-2.41s-0.53-0.71-1.22-0.51c-1.512 0.479-3.408 0.938-5.345 1.279l-0.285 0.041c-1.82 0.3-2.75-0.65-2.75-2.51v-9.23c-0.014-0.088-0.021-0.188-0.021-0.291 0-1.105 0.895-2 2-2 0.074 0 0.148 0.004 0.22 0.012l-0.009-0.001c0.047-0.001 0.103-0.001 0.159-0.001 0.805 0 1.589 0.092 2.341 0.265l-0.070-0.014c1.53 0.35 3 0.81 4.65 1.24l1.42-2.93zM30.16 16c0 3.74 0 7.49 0 11.24 0.012 0.096 0.019 0.207 0.019 0.319 0 1.458-1.182 2.64-2.64 2.64-0.113 0-0.224-0.007-0.332-0.021l0.013 0.001q-11.19 0-22.39 0c-0.085 0.009-0.185 0.015-0.285 0.015-1.508 0-2.73-1.222-2.73-2.73 0-0.1 0.005-0.199 0.016-0.297l-0.001 0.012v-22.38c-0.009-0.085-0.015-0.183-0.015-0.282 0-1.513 1.227-2.74 2.74-2.74 0.121 0 0.241 0.008 0.358 0.023l-0.014-0.001q11.11 0 22.24 0c2 0 3 1 3 3 0 3.75 0 7.49 0 11.24z"></path>
</svg>
