<svg
  xmlns="http://www.w3.org/2000/svg"
  width="64"
  height="64"
  viewBox="0 0 64 64"
  fill="black"
  fill-rule="nonzero"
>
  <path d="M26 32c0-1.66.67-3.16 1.76-4.24A6.003 6.003 0 0 1 32 26c1.66 0 3.16.67 4.24 1.76A6.003 6.003 0 0 1 38 32c0 1.66-.67 3.16-1.76 4.24A6.003 6.003 0 0 1 32 38c-1.66 0-3.16-.67-4.24-1.76A6.003 6.003 0 0 1 26 32zm4.59 1.41c.36.36.86.59 1.41.59.55 0 1.05-.22 1.41-.59.36-.36.59-.86.59-1.41 0-.55-.22-1.05-.59-1.41-.36-.36-.86-.59-1.41-.59-.55 0-1.05.22-1.41.59-.36.36-.59.86-.59 1.41 0 .55.22 1.05.59 1.41zM16.44 16.44c3.54-3.54 8.28-5.88 13.56-6.35V4c0-1.1.9-2 2-2s2 .9 2 2v6.09c5.28.48 10.02 2.82 13.56 6.35 3.54 3.54 5.88 8.28 6.35 13.56H60c1.1 0 2 .9 2 2s-.9 2-2 2h-6.09a22.004 22.004 0 0 1-6.35 13.56A21.898 21.898 0 0 1 34 53.91V60c0 1.1-.9 2-2 2s-2-.9-2-2v-6.09a22.004 22.004 0 0 1-13.56-6.35A21.898 21.898 0 0 1 10.09 34H4c-1.1 0-2-.9-2-2s.9-2 2-2h6.09c.48-5.28 2.82-10.02 6.35-13.56zm2.83 28.29C22.53 47.99 27.03 50 32 50c4.97 0 9.47-2.01 12.73-5.27S50 36.97 50 32c0-4.97-2.01-9.47-5.27-12.73A17.941 17.941 0 0 0 32 14c-4.97 0-9.47 2.01-12.73 5.27A17.941 17.941 0 0 0 14 32c0 4.97 2.01 9.47 5.27 12.73z" />
</svg>
