<svg
  xmlns="http://www.w3.org/2000/svg"
  width="64"
  height="64"
  viewBox="0 0 64 64"
  fill="black"
  fill-rule="nonzero"
>
  <path d="M52 49c0-1.1.9-2 2-2 .83 0 1.58-.33 2.12-.88.55-.55.88-1.29.88-2.12V12c0-.83-.33-1.58-.88-2.12C55.57 9.33 54.83 9 54 9H10c-.83 0-1.58.33-2.12.88C7.33 10.43 7 11.17 7 12v32c0 .83.33 1.58.88 2.12.55.55 1.29.88 2.12.88h13.5c1.1 0 2 .9 2 2s-.9 2-2 2H10a7 7 0 0 1-7-7V12a7 7 0 0 1 7-7h44a7 7 0 0 1 7 7v32a7 7 0 0 1-7 7c-1.1 0-2-.9-2-2zM27.02 37.24c0-3.38 1.37-6.44 3.59-8.65 2.21-2.21 5.28-3.59 8.65-3.59 3.38 0 6.44 1.37 8.65 3.59 2.21 2.21 3.59 5.28 3.59 8.65 0 3.38-1.37 6.44-3.59 8.65-.39.39-.8.75-1.23 1.08l2.81 10.51c.2.75-.05 1.55-.65 2.05-.6.5-1.43.61-2.13.28l-7.46-3.48-7.47 3.48c-.7.33-1.54.22-2.13-.28-.6-.5-.85-1.3-.65-2.05l2.82-10.51c-.43-.33-.85-.69-1.23-1.08A12.224 12.224 0 0 1 27 37.24zm8.45 11.64L34 54.38l3.27-1.52v-3.54c-.61-.1-1.21-.25-1.79-.44zm9.05 5.5l-1.47-5.49c-.58.19-1.18.34-1.79.44v3.54zM33.43 43.07c.5.5 1.06.93 1.67 1.29.03.01.05.03.08.05 1.2.69 2.59 1.08 4.08 1.08 1.48 0 2.88-.39 4.08-1.08.03-.02.05-.03.08-.05a8.37 8.37 0 0 0 1.67-1.29 8.214 8.214 0 0 0 2.41-5.83A8.232 8.232 0 0 0 39.26 29a8.232 8.232 0 0 0-8.24 8.24c0 2.28.92 4.33 2.41 5.83zm8.47-3.19c-.67.67-1.61 1.1-2.64 1.1s-1.97-.42-2.64-1.1c-.67-.67-1.1-1.61-1.1-2.64s.42-1.97 1.1-2.64c.67-.67 1.61-1.1 2.64-1.1s1.97.42 2.64 1.1c.67.67 1.1 1.61 1.1 2.64s-.42 1.97-1.1 2.64zM53 16c0 1.1-.9 2-2 2H13c-1.1 0-2-.9-2-2s.9-2 2-2h38c1.1 0 2 .9 2 2zm-27 8c0 1.1-.9 2-2 2H13c-1.1 0-2-.9-2-2s.9-2 2-2h11c1.1 0 2 .9 2 2zm-4 8c0 1.1-.9 2-2 2h-7c-1.1 0-2-.9-2-2s.9-2 2-2h7c1.1 0 2 .9 2 2zm0 8c0 1.1-.9 2-2 2h-7c-1.1 0-2-.9-2-2s.9-2 2-2h7c1.1 0 2 .9 2 2z" />
</svg>
