<svg
  xmlns="http://www.w3.org/2000/svg"
  width="64"
  height="64"
  viewBox="0 0 64 64"
  fill="black"
  fill-rule="nonzero"
>
  <path d="M2 32c0-8.28 3.36-15.79 8.79-21.21C16.22 5.36 23.72 2 32 2c8.28 0 15.79 3.36 21.21 8.79 2.77 2.77 4.99 6.07 6.52 9.74.01.02.01.03.02.05.01.02.01.03.02.05C61.21 24.14 62 27.98 62 32c0 8.28-3.36 15.79-8.79 21.21C47.78 58.64 40.28 62 32 62c-8.28 0-15.79-3.36-21.21-8.79C5.36 47.78 2 40.28 2 32zm11.62 18.38C18.33 55.09 24.82 58 32 58s13.68-2.91 18.38-7.62a26.05 26.05 0 0 0 6.5-10.81l-25.31-5.62c-.02 0-.04-.01-.06-.01a2.01 2.01 0 0 1-1.15-.79c-.02-.04-.05-.07-.07-.11-.19-.32-.3-.69-.29-1.08V6.08c-6.38.49-12.12 3.27-16.38 7.54C8.91 18.33 6 24.82 6 32s2.91 13.68 7.62 18.38zM58 32c0-2.8-.44-5.49-1.26-8.02l-18.09 7.45 19.1 4.24c.17-1.2.26-2.42.26-3.67zm-7.62-18.38c-4.27-4.27-10-7.05-16.38-7.54v22.94l21.22-8.73a26.155 26.155 0 0 0-4.83-6.67z" />
</svg>
