<svg
  xmlns="http://www.w3.org/2000/svg"
  width="64"
  height="64"
  viewBox="0 0 64 64"
  fill="black"
  fill-rule="nonzero"
>
  <path d="M6 58c-1.1 0-2-.9-2-2V32.03 8c0-1.1.9-2 2-2s2 .9 2 2v11.78c1.13-1.84 2.63-3.57 4.61-4.66A9.008 9.008 0 0 1 17 13.99c.62 0 1.22.1 1.79.29 4.69 1.59 6.51 9.53 8.07 15.48l.06.23h18.14C46.76 21.45 47 12.93 47 12.93a2 2 0 1 1 4 .12c0 .02-.24 8.33-1.86 16.94h8.87c1.1 0 2 .9 2 2s-.9 2-2 2h-9.73c-1.62 6.65-4.45 13.81-9.76 15.59-.8.27-1.64.41-2.51.41-1.19 0-2.29-.24-3.31-.69-4.94-2.2-7.21-9.25-8.85-15.31H8.01v22c0 1.1-.9 2-2 2zm11.5-39.92c-.15-.05-.32-.08-.5-.08-.93 0-1.74.23-2.47.63-1.48.82-2.75 2.4-3.78 4.42-1.23 2.41-1.96 5.1-2.36 6.95h14.39c-1.84-6.94-3.27-11.24-5.28-11.92zm16.82 27.57a4.098 4.098 0 0 0 2.92.15c2.92-.98 5.26-5.54 6.9-11.8H27.99c1.71 5.98 3.54 10.41 6.33 11.65z" />
</svg>
