<svg
  xmlns="http://www.w3.org/2000/svg"
  width="64"
  height="64"
  viewBox="0 0 64 64"
  fill="black"
  fill-rule="nonzero"
>
  <path d="M6 58c-1.1 0-2-.9-2-2v-2.96V8c0-1.1.9-2 2-2s2 .9 2 2v39.86l7.53-8.21c.13-.14.28-.26.45-.36l14.55-8.73L43.27 8.02c.41-.72 1.21-1.11 2.03-.99.82.12 1.48.73 1.66 1.54l9.65 42.44h1.4c1.1 0 2 .9 2 2s-.9 2-2 2H8v1c0 1.1-.9 2-2 2zm38.2-43.51l-10.45 18.5c-.17.3-.42.55-.71.73l-14.75 8.85-3.13 3.41.93-.48c.12-.06.24-.11.37-.15l14.59-4.17 12.67-10.7c.47-.4 1.11-.56 1.71-.43.61.13 1.12.54 1.38 1.1l2.25 4.72zm.11 20.71l-11.02 9.31c-.22.18-.47.32-.74.39l-14.81 4.23-3.58 1.86h37.66z" />
</svg>
