<svg
  xmlns="http://www.w3.org/2000/svg"
  width="64"
  height="64"
  viewBox="0 0 64 64"
  fill="black"
  fill-rule="nonzero"
>
  <path d="M32 34c-1.1 0-2-.9-2-2V6c0-1.1.9-2 2-2 7.73 0 14.73 3.14 19.8 8.2C56.86 17.26 60 24.27 60 32c0 1.1-.9 2-2 2zm2-4h21.92a23.873 23.873 0 0 0-6.95-14.97c-3.9-3.9-9.14-6.47-14.97-6.95zM25.9 6.63c.34 1.05-.24 2.18-1.29 2.52a23.967 23.967 0 0 0-12.75 9.78 23.957 23.957 0 0 0-3.72 15.63c.61 5.65 3.16 10.7 6.98 14.48 3.82 3.78 8.89 6.27 14.55 6.83 5.66.55 11.12-.92 15.59-3.88a24.04 24.04 0 0 0 9.65-12.85 1.998 1.998 0 0 1 2.5-1.31c1.05.33 1.64 1.45 1.31 2.5a28.017 28.017 0 0 1-11.25 15 27.909 27.909 0 0 1-18.19 4.53c-6.6-.64-12.52-3.56-16.97-7.96a27.903 27.903 0 0 1-8.14-16.89 27.94 27.94 0 0 1 4.34-18.24c3.4-5.25 8.56-9.37 14.87-11.41 1.05-.34 2.18.24 2.52 1.29z" />
</svg>
