<svg
  xmlns="http://www.w3.org/2000/svg"
  width="64"
  height="64"
  viewBox="0 0 64 64"
  fill="black"
  fill-rule="nonzero"
>
  <path d="M6 58c-1.1 0-2-.9-2-2V32.02 8c0-1.1.9-2 2-2s2 .9 2 2v17.62l4.08-5.88A7.02 7.02 0 0 1 11 16a7 7 0 1 1 11.95 4.95c-.07.07-.14.14-.21.2L26.78 30h11.76l4.89-11.69c-.13-.11-.26-.23-.38-.36a7 7 0 1 1 4.04 1.99L42.88 30H58c1.1 0 2 .9 2 2s-.9 2-2 2H41.2l-3.64 8.69c.13.11.26.23.38.36a7 7 0 1 1-9.9 0l.2-.2-4.04-8.86H7.99v22c0 1.1-.9 2-2 2zm16.38-28l-3.24-7.09c-.37.06-.75.09-1.14.09-1.03 0-2-.22-2.88-.62L9.83 30zM33 41c.31 0 .61.02.91.06L36.86 34H28.6l3.24 7.09c.38-.06.76-.09 1.15-.09zM15.88 18.12c.55.55 1.29.88 2.12.88.44 0 .86-.09 1.23-.26.05-.03.11-.06.17-.09.01-.01.03-.01.04-.02.25-.14.48-.31.68-.51.55-.55.88-1.29.88-2.12 0-.83-.33-1.58-.88-2.12-.55-.55-1.29-.88-2.12-.88-.83 0-1.58.33-2.12.88-.55.55-.88 1.29-.88 2.12 0 .83.33 1.58.88 2.12zm30-3c.55.55 1.29.88 2.12.88.83 0 1.58-.33 2.12-.88.55-.55.88-1.29.88-2.12 0-.83-.33-1.58-.88-2.12-.55-.55-1.29-.88-2.12-.88-.83 0-1.58.33-2.12.88-.55.55-.88 1.29-.88 2.12 0 .83.33 1.58.88 2.12zm-15 35c.55.55 1.29.88 2.12.88.83 0 1.58-.33 2.12-.88.55-.55.88-1.29.88-2.12 0-.83-.33-1.58-.88-2.12-.55-.55-1.29-.88-2.12-.88-.46 0-.9.1-1.29.29-.03.02-.07.03-.1.05-.27.14-.51.32-.73.54-.55.55-.88 1.29-.88 2.12 0 .83.33 1.58.88 2.12z" />
</svg>
