<svg
  xmlns="http://www.w3.org/2000/svg"
  width="64"
  height="64"
  viewBox="0 0 64 64"
  fill="black"
  fill-rule="nonzero"
>
  <path d="M21 50a7 7 0 0 1-7-7V21a7 7 0 0 1 7-7h22a7 7 0 0 1 7 7v22a7 7 0 0 1-7 7zm22-4c.83 0 1.58-.33 2.12-.88.55-.55.88-1.29.88-2.12V21c0-.83-.33-1.58-.88-2.12-.55-.55-1.29-.88-2.12-.88H21c-.83 0-1.58.33-2.12.88-.55.55-.88 1.29-.88 2.12v22c0 .83.33 1.58.88 2.12.55.55 1.29.88 2.12.88zm18-22c0 1.1-.9 2-2 2h-4c-1.1 0-2-.9-2-2s.9-2 2-2h4c1.1 0 2 .9 2 2zm0 8c0 1.1-.9 2-2 2h-4c-1.1 0-2-.9-2-2s.9-2 2-2h4c1.1 0 2 .9 2 2zm0 8c0 1.1-.9 2-2 2h-4c-1.1 0-2-.9-2-2s.9-2 2-2h4c1.1 0 2 .9 2 2zM11 24c0 1.1-.9 2-2 2H5c-1.1 0-2-.9-2-2s.9-2 2-2h4c1.1 0 2 .9 2 2zm0 8c0 1.1-.9 2-2 2H5c-1.1 0-2-.9-2-2s.9-2 2-2h4c1.1 0 2 .9 2 2zm0 8c0 1.1-.9 2-2 2H5c-1.1 0-2-.9-2-2s.9-2 2-2h4c1.1 0 2 .9 2 2zm29 21c-1.1 0-2-.9-2-2v-4c0-1.1.9-2 2-2s2 .9 2 2v4c0 1.1-.9 2-2 2zm-8 0c-1.1 0-2-.9-2-2v-4c0-1.1.9-2 2-2s2 .9 2 2v4c0 1.1-.9 2-2 2zm-8 0c-1.1 0-2-.9-2-2v-4c0-1.1.9-2 2-2s2 .9 2 2v4c0 1.1-.9 2-2 2zm16-50c-1.1 0-2-.9-2-2V5c0-1.1.9-2 2-2s2 .9 2 2v4c0 1.1-.9 2-2 2zm-8 0c-1.1 0-2-.9-2-2V5c0-1.1.9-2 2-2s2 .9 2 2v4c0 1.1-.9 2-2 2zm-8 0c-1.1 0-2-.9-2-2V5c0-1.1.9-2 2-2s2 .9 2 2v4c0 1.1-.9 2-2 2z" />
</svg>
