<svg
  xmlns="http://www.w3.org/2000/svg"
  width="64"
  height="64"
  viewBox="0 0 64 64"
  fill="black"
  fill-rule="nonzero"
>
  <path d="M4 32c0-7.73 3.14-14.73 8.2-19.8C17.26 7.14 24.27 4 32 4s14.73 3.14 19.8 8.2C56.86 17.26 60 24.27 60 32s-3.14 14.73-8.2 19.8A27.934 27.934 0 0 1 32 60c-7.73 0-14.73-3.14-19.8-8.2A27.934 27.934 0 0 1 4 32zm11.03 16.97C19.38 53.32 25.37 56 32 56c6.63 0 12.63-2.68 16.97-7.03C53.32 44.62 56 38.63 56 32c0-6.63-2.68-12.63-7.03-16.97C44.62 10.68 38.63 8 32 8c-6.63 0-12.63 2.68-16.97 7.03C10.68 19.38 8 25.37 8 32c0 6.63 2.68 12.63 7.03 16.97zm33.38-27.38c.78.78.78 2.05 0 2.83l-21 21c-.78.78-2.05.78-2.83 0l-9-9c-.78-.78-.78-2.05 0-2.83.78-.78 2.05-.78 2.83 0L26 41.18l19.59-19.59c.78-.78 2.05-.78 2.83 0z" />
</svg>
