<svg
  xmlns="http://www.w3.org/2000/svg"
  width="64"
  height="64"
  viewBox="0 0 64 64"
  fill="black"
  fill-rule="nonzero"
>
  <path d="M21 17h22v-3c0-.28-.11-.52-.29-.71A.997.997 0 0 0 42 13h-2c-1.1 0-2-.9-2-2V9c0-.2-.02-.39-.05-.58 0-.02-.01-.03-.01-.05-.12-.58-.41-1.09-.81-1.5-.55-.55-1.29-.88-2.12-.88h-6c-.83 0-1.58.33-2.12.88-.4.4-.69.92-.81 1.5 0 .02-.01.03-.01.05-.04.19-.05.38-.05.58v2c0 1.1-.9 2-2 2h-2c-.28 0-.52.11-.71.29-.18.18-.29.43-.29.71zm24 4H19c-1.1 0-2-.9-2-2v-5c0-1.38.56-2.63 1.46-3.54.17-.17.35-.32.54-.46h-6c-.83 0-1.58.33-2.12.88-.55.55-.88 1.29-.88 2.12v42c0 .83.33 1.58.88 2.12.55.55 1.29.88 2.12.88h13.13c1.1 0 2 .9 2 2s-.9 2-2 2H13a7 7 0 0 1-7-7V13a7 7 0 0 1 7-7h9.67a6.9 6.9 0 0 1 1.38-1.95A7 7 0 0 1 29 2h6a7 7 0 0 1 4.95 2.05c.56.56 1.03 1.22 1.38 1.95H51a7 7 0 0 1 7 7v10.23c0 1.1-.9 2-2 2s-2-.9-2-2V13c0-.83-.33-1.58-.88-2.12-.55-.55-1.29-.88-2.12-.88h-6c.19.14.37.3.54.46.9.9 1.46 2.16 1.46 3.54v5c0 1.1-.9 2-2 2zM26 44c0-4.97 2.02-9.47 5.27-12.73C34.53 28.01 39.03 26 44 26c4.97 0 9.47 2.02 12.73 5.27C59.99 34.53 62 39.03 62 44c0 4.97-2.02 9.47-5.27 12.73A17.941 17.941 0 0 1 44 62c-4.97 0-9.47-2.02-12.73-5.27A17.941 17.941 0 0 1 26 44zm8.1 9.9c2.54 2.54 6.03 4.1 9.9 4.1s7.36-1.56 9.9-4.1c2.54-2.54 4.1-6.03 4.1-9.9s-1.56-7.36-4.1-9.9C51.36 31.56 47.87 30 44 30s-7.36 1.56-9.9 4.1C31.56 36.64 30 40.13 30 44s1.56 7.36 4.1 9.9zM54 44c0 1.1-.9 2-2 2h-6v6c0 1.1-.9 2-2 2s-2-.9-2-2v-6h-6c-1.1 0-2-.9-2-2s.9-2 2-2h6v-6c0-1.1.9-2 2-2s2 .9 2 2v6h6c1.1 0 2 .9 2 2z" />
</svg>
