<!-- Generated by IcoMoon.io -->
<svg version="1.1" xmlns="http://www.w3.org/2000/svg" width="32" height="32" viewBox="0 0 32 32">
<title>clone</title>
<path d="M19.751 21.685c0 0.734-0.595 1.328-1.328 1.328s-1.328-0.595-1.328-1.328c0-0.734 0.595-1.328 1.328-1.328s1.328 0.595 1.328 1.328z"></path>
<path d="M23.686 21.685c0 0.734-0.595 1.328-1.328 1.328s-1.328-0.595-1.328-1.328c0-0.734 0.595-1.328 1.328-1.328s1.328 0.595 1.328 1.328z"></path>
<path d="M30.216 21.344c-0.004-0.044-0.010-0.088-0.016-0.133-0.020-0.134-0.050-0.272-0.090-0.413-0.013-0.047-0.028-0.094-0.044-0.142-0.094-0.285-0.228-0.58-0.398-0.876-0.057-0.099-0.118-0.197-0.183-0.296s-0.134-0.196-0.207-0.294c-0.183-0.244-0.39-0.483-0.62-0.713-0.056-0.056-0.113-0.111-0.171-0.164-0.017-0.015-0.033-0.031-0.050-0.046-0.044-0.040-0.088-0.080-0.133-0.119-0.015-0.013-0.031-0.027-0.046-0.040-0.058-0.050-0.117-0.098-0.176-0.145-0.009-0.007-0.017-0.013-0.026-0.020-0.051-0.040-0.102-0.079-0.154-0.117-0.018-0.013-0.035-0.026-0.053-0.038-0.047-0.034-0.095-0.068-0.143-0.1-0.013-0.009-0.027-0.018-0.040-0.027-0.060-0.040-0.12-0.079-0.18-0.116-0.013-0.008-0.026-0.015-0.039-0.023-0.049-0.029-0.097-0.058-0.146-0.085-0.017-0.010-0.035-0.019-0.052-0.029-0.052-0.028-0.104-0.056-0.155-0.082-0.009-0.004-0.018-0.009-0.026-0.014-0.060-0.030-0.12-0.058-0.18-0.085-0.014-0.006-0.028-0.012-0.043-0.018 0.072-0.239 0.111-0.493 0.111-0.756 0-0.025 0.001-0.050 0.004-0.075s0.007-0.050 0.013-0.074c0.017-0.073 0.046-0.142 0.086-0.204 0.013-0.021 0.028-0.041 0.044-0.060 0.031-0.038 0.068-0.073 0.108-0.103s0.079-0.061 0.118-0.093c0.077-0.064 0.149-0.133 0.218-0.206s0.133-0.149 0.194-0.229c0.060-0.080 0.116-0.164 0.167-0.25 0.034-0.057 0.064-0.117 0.094-0.177 0.17-0.348 0.267-0.739 0.267-1.152 0-0.533-0.16-1.029-0.433-1.444-0.028-0.043-0.057-0.085-0.087-0.125-0.065-0.088-0.136-0.171-0.212-0.25-0.050-0.053-0.103-0.103-0.157-0.151s-0.111-0.094-0.169-0.138c-0.029-0.022-0.059-0.043-0.089-0.064-0.060-0.041-0.122-0.080-0.186-0.116s-0.129-0.070-0.196-0.101c-0.167-0.077-0.344-0.138-0.527-0.179-0.040-0.009-0.079-0.021-0.116-0.037-0.019-0.008-0.037-0.017-0.054-0.026-0.022-0.012-0.044-0.025-0.064-0.040-0.062-0.043-0.116-0.097-0.161-0.16-0.026-0.037-0.053-0.073-0.081-0.108-0.083-0.105-0.175-0.204-0.273-0.296-0.040-0.037-0.081-0.073-0.123-0.108-0.058-0.048-0.117-0.094-0.178-0.136-0.085-0.059-0.173-0.112-0.265-0.161-0.366-0.194-0.784-0.304-1.227-0.304-0.076 0-0.152 0.003-0.227 0.010s-0.148 0.016-0.221 0.028c-0.146 0.025-0.287 0.062-0.423 0.11-0.025 0.009-0.050 0.015-0.076 0.021-0.006 0.001-0.011 0.003-0.017 0.004-0.025 0.005-0.050 0.009-0.075 0.011-0.003 0-0.007 0-0.010 0-0.013 0.001-0.027 0.002-0.040 0.002-0.009 0-0.018-0.001-0.027-0.001-0.006-0-0.012-0-0.019-0.001-0.025-0.002-0.050-0.005-0.075-0.009-0.004-0.001-0.007-0.002-0.011-0.003-0.022-0.004-0.043-0.010-0.064-0.017-0.006-0.002-0.012-0.004-0.018-0.006-0.024-0.008-0.047-0.018-0.070-0.029-0.002-0.001-0.004-0.002-0.006-0.003-0.021-0.011-0.041-0.022-0.061-0.035-0.006-0.004-0.011-0.007-0.017-0.011-0.021-0.015-0.042-0.031-0.061-0.048-0.029-0.026-0.059-0.052-0.089-0.077-0.061-0.050-0.124-0.097-0.189-0.142-0.13-0.089-0.268-0.167-0.414-0.232-0.109-0.049-0.222-0.090-0.338-0.124-0.232-0.067-0.478-0.103-0.731-0.103s-0.499 0.036-0.731 0.103c-0.116 0.034-0.229 0.075-0.338 0.124-0.145 0.065-0.284 0.143-0.414 0.232-0.065 0.045-0.128 0.092-0.189 0.142-0.030 0.025-0.060 0.051-0.089 0.077-0.020 0.018-0.040 0.033-0.061 0.048-0.005 0.004-0.011 0.008-0.017 0.011-0.004 0.002-0.007 0.005-0.011 0.007 0.042 0.024 0.083 0.048 0.125 0.074-0.042-0.025-0.084-0.050-0.126-0.073-0-0-0.001-0-0.001-0.001-0.006-0.003-0.011-0.007-0.017-0.010-0.018-0.010-0.036-0.020-0.054-0.030-0.051-0.028-0.102-0.055-0.153-0.081-0.009-0.005-0.019-0.010-0.028-0.015-0.060-0.030-0.119-0.058-0.179-0.084-0.014-0.006-0.029-0.013-0.043-0.019 0 0 0 0 0 0-0.030 0.099-0.065 0.196-0.106 0.29-0.015 0.035-0.031 0.070-0.048 0.105 0.017-0.035 0.033-0.070 0.048-0.105 0.041-0.094 0.076-0.191 0.106-0.29 0 0 0-0 0-0 0.072-0.239 0.111-0.493 0.111-0.756-0-0.069 0.011-0.136 0.032-0.2 0.030-0.094 0.080-0.18 0.148-0.251 0.023-0.024 0.048-0.046 0.074-0.066 0.080-0.060 0.157-0.125 0.23-0.193 0.145-0.137 0.275-0.291 0.387-0.457 0.056-0.083 0.107-0.17 0.153-0.26s0.087-0.182 0.123-0.278 0.066-0.193 0.090-0.293c0.049-0.2 0.075-0.41 0.075-0.625 0-0.431-0.104-0.838-0.289-1.197-0.050-0.098-0.107-0.192-0.168-0.283-0.072-0.106-0.153-0.206-0.24-0.3-0.024-0.026-0.049-0.052-0.074-0.077-0.039-0.039-0.078-0.076-0.119-0.113-0.049-0.043-0.099-0.084-0.151-0.123-0.015-0.011-0.029-0.022-0.044-0.033-0.143-0.104-0.297-0.195-0.46-0.269s-0.334-0.132-0.513-0.172c-0.020-0.005-0.040-0.010-0.059-0.016-0.097-0.031-0.184-0.084-0.257-0.154-0.014-0.014-0.028-0.029-0.042-0.044s-0.026-0.031-0.038-0.048c-0.089-0.126-0.19-0.244-0.299-0.353-0.037-0.036-0.074-0.071-0.113-0.105-0.145-0.127-0.304-0.239-0.474-0.333-0.102-0.056-0.208-0.106-0.318-0.148-0.073-0.028-0.148-0.053-0.224-0.075s-0.154-0.040-0.233-0.055c-0.105-0.020-0.212-0.033-0.321-0.040-0.055-0.003-0.11-0.005-0.165-0.005-0.038 0-0.076 0.001-0.114 0.002-0.109 0.005-0.216 0.016-0.32 0.034-0.035 0.006-0.070 0.012-0.104 0.020-0.042 0.009-0.083 0.018-0.124 0.029-0.071 0.018-0.14 0.040-0.208 0.064-0.025 0.009-0.050 0.015-0.075 0.021-0.006 0.001-0.011 0.002-0.017 0.004-0.025 0.005-0.050 0.009-0.075 0.011-0.003 0-0.007 0-0.010 0-0.013 0.001-0.027 0.002-0.040 0.002-0.009 0-0.018-0.001-0.027-0.001-0.006-0-0.012-0-0.019-0.001-0.025-0.002-0.050-0.005-0.075-0.009-0.004-0.001-0.007-0.002-0.011-0.003-0.022-0.004-0.043-0.010-0.064-0.017-0.006-0.002-0.012-0.004-0.018-0.006-0.024-0.008-0.047-0.018-0.070-0.029-0.002-0.001-0.004-0.002-0.006-0.003-0.021-0.011-0.041-0.022-0.061-0.035-0.006-0.004-0.011-0.007-0.017-0.011-0.021-0.015-0.042-0.031-0.062-0.048-0.262-0.237-0.573-0.422-0.914-0.538-0.076-0.026-0.153-0.048-0.232-0.067-0.039-0.010-0.079-0.018-0.119-0.026-0.16-0.031-0.326-0.047-0.495-0.047-0.085 0-0.168 0.004-0.251 0.012s-0.164 0.020-0.244 0.035c-0.2 0.038-0.393 0.099-0.574 0.181-0.254 0.114-0.487 0.266-0.691 0.451-0.020 0.018-0.040 0.033-0.062 0.048-0.005 0.004-0.011 0.008-0.017 0.011-0.020 0.013-0.040 0.025-0.061 0.035-0.002 0.001-0.004 0.002-0.006 0.003-0.023 0.011-0.046 0.021-0.070 0.029-0.006 0.002-0.012 0.004-0.018 0.006-0.021 0.007-0.042 0.012-0.064 0.017-0.004 0.001-0.007 0.002-0.011 0.003-0.025 0.005-0.050 0.008-0.075 0.009-0.006 0-0.012 0.001-0.019 0.001-0.009 0-0.018 0.001-0.027 0.001-0.013 0-0.027-0.001-0.040-0.002-0.003-0-0.007-0-0.010-0-0.025-0.002-0.050-0.006-0.075-0.011-0.006-0.001-0.011-0.002-0.017-0.004-0.025-0.006-0.051-0.012-0.075-0.021-0.068-0.024-0.138-0.045-0.208-0.064s-0.142-0.034-0.215-0.046c-0.146-0.025-0.295-0.038-0.448-0.038-0.166 0-0.329 0.015-0.486 0.045-0.105 0.020-0.208 0.046-0.308 0.078s-0.198 0.070-0.293 0.113c-0.237 0.108-0.455 0.25-0.648 0.42-0.154 0.136-0.293 0.29-0.412 0.458-0.024 0.033-0.050 0.064-0.079 0.092-0.058 0.056-0.126 0.101-0.2 0.133-0.037 0.016-0.076 0.028-0.116 0.037-0.11 0.025-0.218 0.056-0.322 0.094-0.070 0.025-0.138 0.054-0.205 0.084-0.033 0.015-0.066 0.032-0.099 0.048-0.052 0.027-0.103 0.056-0.153 0.086-0.044 0.026-0.087 0.054-0.13 0.083-0.054 0.037-0.106 0.076-0.156 0.116-0.011 0.008-0.021 0.017-0.032 0.026-0.052 0.043-0.102 0.087-0.151 0.134-0.026 0.025-0.052 0.051-0.077 0.077-0.453 0.473-0.732 1.114-0.732 1.819 0 0.269 0.041 0.529 0.116 0.773 0.030 0.098 0.066 0.193 0.107 0.286 0.020 0.046 0.042 0.092 0.065 0.137 0.046 0.090 0.097 0.176 0.153 0.26 0.028 0.042 0.057 0.083 0.087 0.123 0.060 0.080 0.125 0.156 0.194 0.229s0.142 0.141 0.218 0.206c0.038 0.032 0.077 0.063 0.118 0.093 0.101 0.076 0.175 0.18 0.217 0.296 0.017 0.047 0.028 0.095 0.034 0.145 0.003 0.025 0.004 0.050 0.004 0.075v0c0 0.263 0.039 0.516 0.111 0.756-0.014 0.006-0.029 0.012-0.043 0.019-0.059 0.027-0.119 0.054-0.179 0.084-0.010 0.005-0.019 0.010-0.029 0.015-0.051 0.026-0.102 0.053-0.153 0.081-0.018 0.010-0.036 0.020-0.054 0.030-0.048 0.027-0.095 0.055-0.143 0.083-0.014 0.008-0.027 0.016-0.041 0.024-0.060 0.037-0.12 0.075-0.179 0.115-0.014 0.009-0.027 0.019-0.041 0.028-0.047 0.032-0.094 0.065-0.142 0.099-0.018 0.013-0.036 0.026-0.053 0.039-0.051 0.038-0.102 0.076-0.153 0.116-0.009 0.007-0.018 0.014-0.027 0.021-0.059 0.047-0.117 0.095-0.175 0.145-0.016 0.013-0.031 0.027-0.047 0.041-0.045 0.039-0.089 0.078-0.133 0.118-0.017 0.015-0.033 0.030-0.050 0.046-0.057 0.054-0.115 0.108-0.171 0.164-0.092 0.092-0.18 0.186-0.265 0.28-0.127 0.142-0.245 0.287-0.355 0.433-0.062 0.082-0.12 0.165-0.175 0.247-0.044 0.065-0.086 0.129-0.126 0.194-0.061 0.099-0.118 0.197-0.171 0.296s-0.101 0.197-0.146 0.294-0.084 0.195-0.12 0.291c-0.054 0.144-0.097 0.286-0.131 0.425-0.022 0.093-0.040 0.184-0.053 0.273-0.008 0.056-0.015 0.111-0.019 0.165s-0.007 0.108-0.008 0.16c-0.001 0.053 0 0.104 0.003 0.155s0.008 0.101 0.014 0.149c0.005 0.039 0.012 0.077 0.020 0.115 0.015 0.075 0.036 0.148 0.061 0.217 0.016 0.043 0.034 0.085 0.054 0.126 0.059 0.122 0.137 0.232 0.233 0.328 0 0 0 0 0 0 0.030 0.030 0.061 0.057 0.093 0.083 0.010 0.008 0.021 0.016 0.031 0.023 0.023 0.018 0.047 0.035 0.072 0.050 0.012 0.008 0.024 0.015 0.036 0.023 0.026 0.016 0.053 0.030 0.081 0.044 0.010 0.005 0.020 0.011 0.030 0.016 0.038 0.018 0.077 0.034 0.117 0.049 0.008 0.003 0.017 0.005 0.026 0.008 0.032 0.011 0.065 0.021 0.099 0.030 0.014 0.004 0.029 0.007 0.043 0.010 0.030 0.007 0.060 0.013 0.091 0.019 0.015 0.003 0.029 0.005 0.044 0.007 0.037 0.006 0.075 0.010 0.113 0.013 0.008 0.001 0.016 0.002 0.024 0.002 0.047 0.003 0.094 0.005 0.142 0.005 0.003 0 0.007 0 0.010 0 0.009 0 0.018-0.001 0.027-0.001 0.040-0.001 0.081-0.002 0.122-0.005 0.016-0.001 0.031-0.002 0.047-0.003 0.046-0.004 0.093-0.009 0.14-0.015 0.007-0.001 0.015-0.002 0.022-0.003 0.054-0.008 0.11-0.018 0.165-0.029 0.015-0.003 0.030-0.007 0.045-0.010 0.043-0.009 0.086-0.020 0.13-0.031 0.016-0.004 0.032-0.008 0.048-0.013 0.057-0.016 0.115-0.033 0.173-0.052 0-0 0.001-0 0.001-0.001 0.058-0.019 0.116-0.040 0.174-0.062 0.017-0.006 0.033-0.013 0.050-0.020 0.046-0.018 0.092-0.037 0.138-0.057 0.015-0.007 0.030-0.013 0.046-0.020 0.060-0.027 0.119-0.055 0.179-0.085 0.009-0.005 0.018-0.009 0.027-0.014 0.051-0.026 0.103-0.053 0.155-0.082 0.018-0.010 0.035-0.019 0.053-0.029 0.048-0.027 0.097-0.055 0.145-0.085 0.013-0.008 0.026-0.015 0.039-0.023 0.060-0.037 0.12-0.075 0.18-0.115 0.013-0.009 0.027-0.018 0.040-0.027 0.048-0.032 0.095-0.066 0.143-0.1 0.018-0.013 0.035-0.025 0.053-0.038 0.051-0.038 0.102-0.077 0.153-0.117 0.009-0.007 0.018-0.013 0.026-0.020 0.059-0.047 0.117-0.095 0.176-0.145 0.016-0.013 0.031-0.027 0.046-0.040 0.045-0.039 0.089-0.078 0.133-0.118 0.017-0.015 0.033-0.030 0.050-0.046 0.057-0.054 0.114-0.108 0.171-0.164 0.019-0.019 0.037-0.038 0.056-0.057v3.595c0 0.272 0.021 0.538 0.060 0.799 0.013 0.087 0.029 0.173 0.046 0.258 0.035 0.171 0.078 0.338 0.129 0.503s0.11 0.325 0.176 0.482c0.1 0.235 0.216 0.462 0.347 0.678 0.92 1.514 2.585 2.526 4.487 2.526v0c1.361 0 2.601-0.519 3.534-1.369v3.594c0 2.898 2.349 5.247 5.247 5.247v0c0.091 0 0.181-0.002 0.27-0.007 0.179-0.009 0.355-0.027 0.529-0.054s0.345-0.062 0.512-0.105c0.251-0.065 0.496-0.148 0.731-0.247 0.157-0.066 0.31-0.14 0.459-0.221 0.297-0.162 0.577-0.351 0.837-0.565 0.146-0.12 0.285-0.248 0.417-0.383 0.066-0.068 0.13-0.137 0.192-0.208 0.218-0.249 0.413-0.518 0.581-0.805 0.048-0.082 0.094-0.165 0.138-0.25 0.066-0.127 0.126-0.257 0.181-0.39 0.129-0.31 0.229-0.635 0.297-0.971 0.010-0.048 0.019-0.096 0.027-0.145 0.050-0.291 0.076-0.591 0.076-0.896v-3.595c0.019 0.019 0.037 0.038 0.056 0.057 0.056 0.056 0.113 0.111 0.171 0.164 0.017 0.015 0.033 0.030 0.050 0.046 0.044 0.040 0.088 0.080 0.133 0.118 0.015 0.013 0.031 0.027 0.046 0.040 0.058 0.050 0.117 0.098 0.176 0.145 0.009 0.007 0.017 0.013 0.026 0.020 0.051 0.040 0.102 0.079 0.154 0.117 0.018 0.013 0.035 0.026 0.053 0.038 0.047 0.034 0.095 0.067 0.143 0.1 0.013 0.009 0.027 0.018 0.040 0.027 0.060 0.040 0.12 0.078 0.18 0.115 0.013 0.008 0.026 0.015 0.039 0.023 0.048 0.029 0.097 0.057 0.145 0.085 0.018 0.010 0.035 0.020 0.053 0.029 0.052 0.028 0.103 0.056 0.155 0.082 0.009 0.005 0.018 0.009 0.027 0.014 0.060 0.030 0.12 0.058 0.179 0.084 0.015 0.007 0.031 0.013 0.046 0.020 0.046 0.020 0.092 0.039 0.137 0.057 0.017 0.007 0.034 0.013 0.050 0.020 0.058 0.022 0.116 0.043 0.173 0.062 0.001 0 0.002 0.001 0.002 0.001 0.058 0.019 0.116 0.036 0.173 0.052 0.016 0.005 0.032 0.009 0.048 0.013 0.044 0.011 0.087 0.022 0.13 0.031 0.015 0.003 0.030 0.007 0.045 0.010 0.056 0.011 0.111 0.021 0.165 0.029 0.008 0.001 0.015 0.002 0.023 0.003 0.047 0.006 0.093 0.011 0.139 0.015 0.016 0.001 0.032 0.002 0.047 0.003 0.041 0.003 0.082 0.004 0.122 0.005 0.009 0 0.018 0.001 0.027 0.001 0.003 0 0.007-0 0.010-0 0.048-0 0.096-0.002 0.142-0.005 0.008-0.001 0.017-0.002 0.025-0.003 0.038-0.003 0.076-0.008 0.113-0.013 0.015-0.002 0.030-0.005 0.044-0.008 0.031-0.005 0.061-0.012 0.091-0.019 0.015-0.003 0.029-0.007 0.043-0.011 0.034-0.009 0.066-0.019 0.099-0.030 0.009-0.003 0.018-0.005 0.026-0.008 0.040-0.014 0.079-0.031 0.116-0.049 0.010-0.005 0.020-0.011 0.031-0.016 0.027-0.014 0.055-0.029 0.081-0.044 0.012-0.007 0.024-0.015 0.036-0.023 0.025-0.016 0.049-0.033 0.072-0.050 0.010-0.008 0.021-0.015 0.031-0.023 0.032-0.026 0.064-0.054 0.093-0.083 0.089-0.089 0.161-0.191 0.219-0.303 0.015-0.030 0.030-0.060 0.043-0.091 0.023-0.053 0.043-0.108 0.059-0.166 0.030-0.105 0.049-0.217 0.058-0.334 0-0.005 0.001-0.011 0.001-0.016 0.008-0.12 0.006-0.244-0.007-0.374zM18.145 11.874c0.15 0.117 0.303 0.251 0.458 0.406 0.511 0.511 0.791 0.996 0.929 1.347-0.367-0.144-0.852-0.435-1.346-0.929-0.334-0.334-0.569-0.657-0.73-0.939-0.085-0.149-0.151-0.287-0.198-0.408 0.252 0.099 0.56 0.267 0.888 0.523zM5.034 12.698c-0.494 0.494-0.98 0.785-1.346 0.929 0.138-0.351 0.417-0.836 0.929-1.347 0.494-0.494 0.98-0.785 1.346-0.929-0.138 0.351-0.417 0.836-0.929 1.347zM15.263 12.934v4.576c0 0.32-0.042 0.631-0.12 0.928-0.022 0.085-0.049 0.169-0.077 0.252-0.405 1.182-1.399 2.092-2.631 2.378l0.934-1.168c0.348-0.435 0.038-1.079-0.519-1.079h-2.483c-0.557 0-0.866 0.644-0.519 1.079l0.934 1.168c-1.618-0.376-2.827-1.828-2.827-3.558v-5.91c0.050-0.005 0.101-0.012 0.15-0.020 0.176-0.029 0.345-0.076 0.507-0.138 0.227-0.087 0.439-0.205 0.631-0.348 0.015-0.011 0.030-0.021 0.045-0.031 0.108-0.068 0.23-0.102 0.352-0.102s0.244 0.034 0.352 0.102c0.015 0.010 0.031 0.020 0.045 0.031 0.301 0.225 0.652 0.387 1.033 0.466 0.035 0.007 0.070 0.014 0.105 0.020 0.14 0.023 0.285 0.035 0.432 0.035 0.11 0 0.219-0.007 0.326-0.020 0.071-0.009 0.141-0.021 0.211-0.035s0.138-0.032 0.205-0.051c0.302-0.089 0.582-0.231 0.829-0.415 0.015-0.011 0.030-0.021 0.045-0.031 0.027-0.017 0.054-0.031 0.082-0.044 0.012-0.005 0.024-0.009 0.035-0.013 0.017-0.006 0.033-0.013 0.051-0.018 0.016-0.005 0.032-0.007 0.048-0.011 0.014-0.003 0.027-0.007 0.041-0.009 0.018-0.003 0.037-0.003 0.056-0.005 0.011-0.001 0.022-0.002 0.034-0.002 0.024-0 0.049 0.001 0.073 0.004 0.005 0.001 0.010 0 0.015 0.001 0.025 0.003 0.050 0.008 0.075 0.014 0.004 0.001 0.008 0.001 0.012 0.002 0.024 0.006 0.048 0.015 0.071 0.024 0.005 0.002 0.009 0.003 0.014 0.005 0.028 0.012 0.055 0.025 0.081 0.041 0.021 0.013 0.042 0.026 0.063 0.041 0.082 0.061 0.168 0.118 0.257 0.17 0.037 0.021 0.075 0.042 0.113 0.062 0.054 0.028 0.108 0.054 0.164 0.078 0.064 0.027 0.128 0.052 0.194 0.075s0.133 0.042 0.201 0.059 0.138 0.032 0.208 0.043c0.050 0.008 0.1 0.015 0.15 0.020v1.334zM15.45 11.613v0c0.016 0.059 0.034 0.119 0.053 0.179-0.020-0.060-0.037-0.12-0.053-0.179zM16.375 8.984c0 0.217-0.084 0.413-0.22 0.561-0 0-0.001 0.001-0.001 0.001-0.103 0.111-0.235 0.194-0.385 0.237-0.001 0-0.001 0-0.001 0-0.071 0.020-0.146 0.031-0.223 0.031-0.226 0-0.393-0.089-0.493-0.164-0.43-0.321-0.94-0.49-1.475-0.49s-1.045 0.17-1.475 0.49c-0.1 0.075-0.267 0.164-0.493 0.164s-0.393-0.089-0.493-0.164c-0.43-0.321-0.94-0.49-1.475-0.49s-1.045 0.17-1.475 0.49c-0.1 0.075-0.267 0.164-0.493 0.164-0.077 0-0.152-0.011-0.223-0.031-0-0-0.001-0-0.001-0-0.15-0.042-0.283-0.125-0.385-0.237-0-0-0.001-0.001-0.001-0.001-0.136-0.148-0.22-0.344-0.22-0.56 0-0-0-0.001-0-0.001 0-0.768-0.365-1.5-0.976-1.958-0.213-0.16-0.336-0.402-0.336-0.665 0-0.385 0.273-0.726 0.649-0.81 0.596-0.133 1.118-0.481 1.471-0.979 0.159-0.225 0.407-0.354 0.678-0.354 0.094 0 0.186 0.016 0.273 0.046 0.263 0.093 0.538 0.14 0.816 0.14 0.606 0 1.187-0.223 1.635-0.628 0.108-0.098 0.292-0.214 0.554-0.214s0.446 0.116 0.554 0.214c0.448 0.405 1.029 0.628 1.635 0.628 0.279 0 0.553-0.047 0.816-0.14 0.087-0.031 0.179-0.046 0.273-0.046 0.272 0 0.519 0.129 0.678 0.354 0.353 0.498 0.875 0.845 1.471 0.979 0.376 0.084 0.649 0.425 0.649 0.81 0 0.263-0.122 0.505-0.336 0.665-0.612 0.458-0.976 1.191-0.976 1.958zM24.044 24.981c0 1.73-1.21 3.183-2.827 3.558l0.934-1.168c0.348-0.435 0.038-1.079-0.519-1.079h-2.483c-0.557 0-0.866 0.644-0.519 1.079l0.934 1.168c-1.618-0.376-2.827-1.828-2.827-3.558v-5.91c0.113-0.012 0.223-0.031 0.331-0.057 0.036-0.009 0.072-0.018 0.107-0.028 0.071-0.020 0.141-0.043 0.209-0.069s0.135-0.054 0.201-0.086c0.156-0.074 0.303-0.164 0.44-0.266 0.015-0.011 0.030-0.021 0.045-0.031 0.108-0.068 0.23-0.102 0.352-0.102s0.244 0.034 0.352 0.102c0.015 0.010 0.031 0.020 0.045 0.031 0.027 0.020 0.055 0.040 0.083 0.060 0.085 0.058 0.173 0.112 0.264 0.16 0.061 0.032 0.123 0.062 0.187 0.089 0.032 0.014 0.064 0.027 0.096 0.039 0.292 0.112 0.608 0.173 0.939 0.173 0.055 0 0.11-0.002 0.164-0.005 0.163-0.010 0.322-0.035 0.475-0.074 0.034-0.009 0.068-0.018 0.102-0.028 0.168-0.049 0.329-0.115 0.481-0.195 0.030-0.016 0.061-0.033 0.090-0.050 0.089-0.052 0.175-0.108 0.257-0.17 0.015-0.011 0.030-0.021 0.045-0.031s0.031-0.019 0.047-0.027c0.021-0.011 0.043-0.020 0.065-0.029 0.006-0.002 0.011-0.004 0.017-0.006 0.022-0.008 0.044-0.015 0.066-0.020 0.003-0.001 0.005-0.001 0.008-0.002 0.020-0.005 0.040-0.008 0.060-0.011 0.007-0.001 0.014-0.002 0.021-0.003 0.022-0.002 0.043-0.004 0.065-0.004 0.034-0 0.068 0.002 0.102 0.007 0.006 0.001 0.011 0.002 0.017 0.003 0.031 0.005 0.062 0.013 0.092 0.023 0.017 0.006 0.033 0.012 0.050 0.019 0.033 0.014 0.065 0.030 0.096 0.050 0.015 0.010 0.031 0.020 0.045 0.031 0.11 0.082 0.226 0.155 0.348 0.22 0.145 0.076 0.298 0.139 0.457 0.188 0.041 0.013 0.083 0.025 0.126 0.035 0.058 0.015 0.117 0.027 0.177 0.038s0.12 0.019 0.181 0.026v5.91zM25.156 16.455c0 0.217-0.084 0.413-0.22 0.561-0 0-0.001 0.001-0.001 0.001-0.103 0.111-0.235 0.195-0.385 0.237-0 0-0.001 0-0.001 0-0.071 0.020-0.146 0.031-0.223 0.031-0.226 0-0.393-0.089-0.493-0.164-0.43-0.321-0.94-0.49-1.475-0.49s-1.045 0.17-1.475 0.49c-0.1 0.075-0.267 0.164-0.493 0.164s-0.393-0.089-0.493-0.164c-0.43-0.321-0.94-0.49-1.475-0.49s-1.045 0.17-1.475 0.49c-0.026 0.019-0.057 0.040-0.092 0.059v-3.268c0.019 0.019 0.037 0.038 0.056 0.057 0.056 0.056 0.113 0.111 0.171 0.164 0.017 0.015 0.033 0.031 0.050 0.046 0.044 0.040 0.088 0.080 0.133 0.118 0.016 0.014 0.031 0.027 0.047 0.041 0.058 0.050 0.117 0.098 0.176 0.145 0.009 0.007 0.018 0.014 0.026 0.020 0.051 0.040 0.102 0.079 0.153 0.117 0.018 0.013 0.035 0.026 0.053 0.038 0.047 0.034 0.095 0.068 0.143 0.1 0.013 0.009 0.027 0.018 0.040 0.027 0.060 0.040 0.12 0.079 0.18 0.116 0.013 0.008 0.026 0.015 0.039 0.023 0.048 0.029 0.097 0.057 0.145 0.085 0.018 0.010 0.035 0.020 0.053 0.029 0.052 0.028 0.103 0.056 0.155 0.082 0.009 0.005 0.018 0.009 0.027 0.014 0.060 0.030 0.12 0.058 0.179 0.085 0.015 0.007 0.031 0.013 0.046 0.020 0.046 0.020 0.092 0.039 0.138 0.057 0.017 0.007 0.033 0.013 0.050 0.020 0.059 0.022 0.117 0.043 0.175 0.063 0 0 0.001 0 0.001 0 0.058 0.019 0.116 0.036 0.173 0.052 0.016 0.004 0.032 0.009 0.048 0.013 0.044 0.011 0.087 0.022 0.13 0.031 0.015 0.003 0.030 0.007 0.045 0.010 0.056 0.011 0.111 0.021 0.165 0.029 0.007 0.001 0.015 0.002 0.022 0.003 0.047 0.006 0.094 0.011 0.14 0.015 0.016 0.001 0.031 0.002 0.047 0.003 0.041 0.003 0.082 0.004 0.122 0.005 0.009 0 0.018 0.001 0.027 0.001 0.003 0 0.007-0 0.010-0 0.048-0 0.096-0.002 0.142-0.005 0.008-0.001 0.016-0.002 0.024-0.002 0.038-0.003 0.076-0.008 0.113-0.013 0.015-0.002 0.029-0.005 0.044-0.007 0.031-0.005 0.061-0.012 0.091-0.019 0.014-0.003 0.029-0.007 0.043-0.010 0.034-0.009 0.067-0.019 0.099-0.030 0.009-0.003 0.017-0.005 0.026-0.008 0.040-0.014 0.079-0.031 0.117-0.049 0.010-0.005 0.020-0.011 0.030-0.016 0.028-0.014 0.055-0.029 0.081-0.044 0.012-0.007 0.024-0.015 0.036-0.023 0.025-0.016 0.048-0.033 0.072-0.050 0.010-0.008 0.021-0.015 0.031-0.023 0.032-0.026 0.064-0.053 0.093-0.083 0-0 0-0 0-0 0.064-0.064 0.12-0.134 0.167-0.21s0.087-0.158 0.119-0.244c0.025-0.069 0.046-0.142 0.061-0.217 0.008-0.038 0.014-0.076 0.020-0.115 0.007-0.049 0.011-0.099 0.014-0.149s0.004-0.103 0.003-0.155-0.004-0.106-0.008-0.16c-0.005-0.054-0.011-0.109-0.019-0.165-0.013-0.089-0.031-0.18-0.053-0.273-0.033-0.139-0.077-0.281-0.131-0.425-0.036-0.096-0.076-0.193-0.12-0.291s-0.093-0.196-0.146-0.294-0.11-0.197-0.171-0.296c-0.040-0.065-0.083-0.13-0.126-0.194-0.056-0.083-0.114-0.165-0.175-0.247-0.11-0.146-0.228-0.291-0.355-0.433-0.046-0.052-0.094-0.103-0.143-0.155-0.040-0.042-0.081-0.084-0.122-0.126 0.042 0.042 0.082 0.084 0.122 0.126 0.102-0.056 0.232-0.099 0.391-0.099 0.262 0 0.446 0.116 0.554 0.214 0.448 0.405 1.029 0.628 1.635 0.628 0.279 0 0.553-0.047 0.816-0.14 0.087-0.031 0.179-0.046 0.273-0.046 0.272 0 0.519 0.129 0.678 0.354 0.353 0.498 0.875 0.845 1.471 0.978 0.376 0.084 0.649 0.425 0.649 0.81 0 0.263-0.122 0.505-0.336 0.665-0.612 0.458-0.977 1.191-0.976 1.958zM26.966 20.17c-0.511-0.511-0.791-0.996-0.929-1.347 0.367 0.144 0.852 0.435 1.346 0.929 0.511 0.511 0.791 0.996 0.929 1.347-0.367-0.144-0.852-0.435-1.346-0.929z"></path>
<path d="M10.971 14.214c0 0.734-0.595 1.328-1.328 1.328s-1.328-0.595-1.328-1.328c0-0.734 0.595-1.328 1.328-1.328s1.328 0.595 1.328 1.328z"></path>
<path d="M13.577 12.885c-0.412 0-0.78 0.188-1.024 0.482-0.19 0.23-0.304 0.524-0.304 0.846 0 0.551 0.335 1.023 0.813 1.224v0c0.158 0.067 0.333 0.104 0.515 0.104 0.581 0 1.073-0.373 1.254-0.892 0.047-0.137 0.075-0.283 0.075-0.436 0-0.363-0.146-0.691-0.382-0.931-0.241-0.245-0.576-0.397-0.947-0.397z"></path>
</svg>
