<svg
  xmlns="http://www.w3.org/2000/svg"
  width="64"
  height="64"
  viewBox="0 0 64 64"
  fill="black"
  fill-rule="nonzero"
>
  <path d="M27 58a7 7 0 0 1-7-7V27a7 7 0 0 1 7-7h24a7 7 0 0 1 7 7v24a7 7 0 0 1-7 7zm24-4c.83 0 1.58-.33 2.12-.88.55-.55.88-1.29.88-2.12V27c0-.83-.33-1.58-.88-2.12-.55-.55-1.29-.88-2.12-.88H27c-.83 0-1.58.33-2.12.88-.55.55-.88 1.29-.88 2.12v24c0 .83.33 1.58.88 2.12.55.55 1.29.88 2.12.88zm-2-15c0 1.1-.9 2-2 2h-6v6c0 1.1-.9 2-2 2s-2-.9-2-2v-6h-6c-1.1 0-2-.9-2-2s.9-2 2-2h6v-6c0-1.1.9-2 2-2s2 .9 2 2v6h6c1.1 0 2 .9 2 2zm-6-22.89c-1.1 0-2-.9-2-2V13c0-.83-.33-1.58-.88-2.12-.55-.55-1.29-.88-2.12-.88H13c-.83 0-1.58.33-2.12.88-.55.55-.88 1.29-.88 2.12v25c0 .83.33 1.58.88 2.12.55.55 1.29.88 2.12.88h1.11c1.1 0 2 .9 2 2s-.9 2-2 2H13a7 7 0 0 1-7-7V13a7 7 0 0 1 7-7h25a7 7 0 0 1 7 7v1.11c0 1.1-.9 2-2 2z" />
</svg>
