<svg
  xmlns="http://www.w3.org/2000/svg"
  width="64"
  height="64"
  viewBox="0 0 64 64"
  fill="black"
  fill-rule="nonzero"
>
  <path d="M29 43c0 1.1-.9 2-2 2h-9A14.99 14.99 0 0 1 3 30a14.99 14.99 0 0 1 15-15c.84 0 1.67.07 2.5.21l.3.06c1.1-3.55 3.27-6.57 6.09-8.72 3.37-2.57 7.67-3.93 12.19-3.52 4.52.41 8.51 2.51 11.36 5.64a17.482 17.482 0 0 1 4.5 13.22c1.97 1.21 3.53 2.93 4.56 4.92a12.52 12.52 0 0 1 1.17 8.05 12.43 12.43 0 0 1-4.03 7.06A12.44 12.44 0 0 1 49.12 45h-8.11c-1.1 0-2-.9-2-2s.9-2 2-2h7.94c1.92-.12 3.69-.89 5.06-2.09a8.465 8.465 0 0 0 2.74-4.8c.36-1.91.05-3.83-.79-5.47a8.461 8.461 0 0 0-3.99-3.82 1.987 1.987 0 0 1-1.13-2.15c.06-.36.11-.72.14-1.08.03-.36.05-.72.04-1.09v-.01c.01-3.5-1.31-6.71-3.52-9.13-2.2-2.42-5.28-4.04-8.76-4.35-3.49-.31-6.8.73-9.4 2.72-2.6 1.99-4.48 4.91-5.09 8.35a2 2 0 0 1-2.63 1.54 10.969 10.969 0 0 0-3.59-.62c-3.04 0-5.79 1.23-7.78 3.22A10.965 10.965 0 0 0 7.03 30c0 3.04 1.23 5.79 3.22 7.78 1.99 1.99 4.74 3.22 7.78 3.22h9c1.1 0 2 .9 2 2zm5 18a1.994 1.994 0 0 1-1.42-.58l-7-7c-.78-.78-.78-2.05 0-2.83.78-.78 2.05-.78 2.83 0L32 54.18V35.01c0-1.1.9-2 2-2s2 .9 2 2v19.17l3.59-3.59c.78-.78 2.05-.78 2.83 0 .78.78.78 2.05 0 2.83l-7 7c-.19.19-.41.34-.65.43-.24.1-.49.15-.77.15z" />
</svg>
