<svg
  xmlns="http://www.w3.org/2000/svg"
  width="64"
  height="64"
  viewBox="0 0 64 64"
  fill="black"
  fill-rule="nonzero"
>
  <path d="M57 40.5c0-1.68-.49-3.27-1.37-4.62a8.416 8.416 0 0 0-3.66-3.13 1.988 1.988 0 0 1-1.15-2.16c.06-.35.1-.69.13-1.04.03-.35.05-.7.05-1.05.01-3.5-1.31-6.71-3.52-9.13-2.2-2.42-5.28-4.04-8.76-4.35-3.49-.31-6.8.73-9.4 2.72-2.6 1.99-4.48 4.91-5.09 8.35a2 2 0 0 1-2.63 1.54 10.969 10.969 0 0 0-3.59-.62c-3.04 0-5.79 1.23-7.78 3.22a10.965 10.965 0 0 0-3.22 7.78c0 3.04 1.23 5.79 3.22 7.78 1.99 1.99 4.74 3.22 7.78 3.22h30.95c2.25-.11 4.26-1.1 5.71-2.62a8.424 8.424 0 0 0 2.34-5.87v-.01zm4 0c.01 3.34-1.3 6.39-3.44 8.64A12.439 12.439 0 0 1 49.09 53H18A14.99 14.99 0 0 1 3 38a14.99 14.99 0 0 1 15-15c.84 0 1.67.07 2.5.21l.3.06c1.1-3.55 3.27-6.57 6.09-8.72 3.37-2.57 7.67-3.93 12.19-3.52A17.488 17.488 0 0 1 55 28.51c0 .43-.02.86-.05 1.28 1.65.99 3.02 2.34 4.04 3.91 1.29 1.98 2.01 4.33 2.01 6.79z" />
</svg>
