<svg
  xmlns="http://www.w3.org/2000/svg"
  width="64"
  height="64"
  viewBox="0 0 64 64"
  fill="black"
  fill-rule="nonzero"
>
  <path d="M29 8c0 1.1-.9 2-2 2h-3c-.83 0-1.58.33-2.12.88-.55.55-.88 1.29-.88 2.12v14a7 7 0 0 1-2.05 4.95l-.05.05.05.05A7 7 0 0 1 21 37v14c0 .83.33 1.58.88 2.12.55.55 1.29.88 2.12.88h1.56c1.1 0 2 .9 2 2s-.9 2-2 2H24a7 7 0 0 1-7-7V37c0-.83-.33-1.58-.88-2.12-.55-.55-1.29-.88-2.12-.88h-4c-1.1 0-2-.9-2-2s.9-2 2-2h4c.83 0 1.58-.33 2.12-.88.55-.55.88-1.29.88-2.12V13a7 7 0 0 1 7-7h3c1.1 0 2 .9 2 2zm8 0c0-1.1.9-2 2-2h3a7 7 0 0 1 7 7v9.2c0 1.1-.9 2-2 2s-2-.9-2-2V13c0-.83-.33-1.58-.88-2.12-.55-.55-1.29-.88-2.12-.88h-3c-1.1 0-2-.9-2-2zM26 44c0-4.97 2.02-9.47 5.27-12.73C34.53 28.01 39.03 26 44 26c4.97 0 9.47 2.02 12.73 5.27C59.99 34.53 62 39.03 62 44c0 4.97-2.02 9.47-5.27 12.73A17.941 17.941 0 0 1 44 62c-4.97 0-9.47-2.02-12.73-5.27A17.941 17.941 0 0 1 26 44zm8.1 9.9c2.54 2.54 6.03 4.1 9.9 4.1s7.36-1.56 9.9-4.1c2.54-2.54 4.1-6.03 4.1-9.9s-1.56-7.36-4.1-9.9C51.36 31.56 47.87 30 44 30s-7.36 1.56-9.9 4.1C31.56 36.64 30 40.13 30 44s1.56 7.36 4.1 9.9zm4.02-7.78a2.993 2.993 0 0 1-4.24 0 2.993 2.993 0 0 1 0-4.24 2.993 2.993 0 0 1 4.24 0 2.993 2.993 0 0 1 0 4.24zm8 0a2.993 2.993 0 0 1-4.24 0 2.993 2.993 0 0 1 0-4.24 2.993 2.993 0 0 1 4.24 0 2.993 2.993 0 0 1 0 4.24zm8 0a2.993 2.993 0 0 1-4.24 0 2.993 2.993 0 0 1 0-4.24 2.993 2.993 0 0 1 4.24 0 2.993 2.993 0 0 1 0 4.24z" />
</svg>
