<svg
  xmlns="http://www.w3.org/2000/svg"
  width="64"
  height="64"
  viewBox="0 0 64 64"
  fill="black"
  fill-rule="nonzero"
>
  <path d="M29 8c0 1.1-.9 2-2 2h-3c-.83 0-1.58.33-2.12.88-.55.55-.88 1.29-.88 2.12v14a7 7 0 0 1-2.05 4.95l-.05.05.05.05A7 7 0 0 1 21 37v14c0 .83.33 1.58.88 2.12.55.55 1.29.88 2.12.88h3c1.1 0 2 .9 2 2s-.9 2-2 2h-3a7 7 0 0 1-7-7V37c0-.83-.33-1.58-.88-2.12-.55-.55-1.29-.88-2.12-.88h-4c-1.1 0-2-.9-2-2s.9-2 2-2h4c.83 0 1.58-.33 2.12-.88.55-.55.88-1.29.88-2.12V13a7 7 0 0 1 7-7h3c1.1 0 2 .9 2 2zm8 0c0-1.1.9-2 2-2h3a7 7 0 0 1 7 7v14c0 .83.33 1.58.88 2.12.55.55 1.29.88 2.12.88h4c1.1 0 2 .9 2 2s-.9 2-2 2h-4c-.83 0-1.58.33-2.12.88-.55.55-.88 1.29-.88 2.12v14a7 7 0 0 1-7 7h-3c-1.1 0-2-.9-2-2s.9-2 2-2h3c.83 0 1.58-.33 2.12-.88.55-.55.88-1.29.88-2.12V37a7 7 0 0 1 2.05-4.95l.05-.05-.05-.05A7 7 0 0 1 45 27V13c0-.83-.33-1.58-.88-2.12-.55-.55-1.29-.88-2.12-.88h-3c-1.1 0-2-.9-2-2z" />
</svg>
