<!-- Generated by IcoMoon.io -->
<svg version="1.1" xmlns="http://www.w3.org/2000/svg" width="32" height="32" viewBox="0 0 32 32">
<title>code</title>
<path d="M14.175 8.234v-1.012c0-0.493 0.218-0.794 0.807-0.794 0.438 0 0.603-0.219 0.603-0.574s-0.165-0.561-0.603-0.561h-0.767c-1.026 0-1.532 0.547-1.532 1.396v1.053c0 1.013-0.301 1.519-0.739 1.615-0.22 0.055-0.342 0.232-0.342 0.506s0.137 0.452 0.342 0.506c0.438 0.123 0.739 0.52 0.739 1.533v1.286c0 0.848 0.506 1.41 1.532 1.41h0.767c0.438 0 0.603-0.205 0.603-0.561s-0.165-0.575-0.603-0.575c-0.588 0-0.807-0.301-0.807-0.793v-1.273c0-0.793-0.329-1.314-1.204-1.546 0.876-0.233 1.204-0.876 1.204-1.615z"></path>
<path d="M20.055 10.369c0.205-0.055 0.343-0.232 0.343-0.506s-0.125-0.451-0.343-0.506c-0.437-0.096-0.738-0.602-0.738-1.615v-1.053c0-0.848-0.493-1.396-1.52-1.396h-0.766c-0.438 0-0.616 0.205-0.616 0.561s0.178 0.574 0.616 0.574c0.588 0 0.793 0.301 0.793 0.794v1.012c0 0.739 0.343 1.382 1.219 1.615-0.876 0.232-1.219 0.753-1.219 1.546v1.273c0 0.492-0.205 0.793-0.793 0.793-0.438 0-0.616 0.219-0.616 0.575s0.178 0.561 0.616 0.561h0.766c1.027 0 1.52-0.561 1.52-1.41v-1.286c0-1.012 0.301-1.41 0.738-1.533z"></path>
<path d="M26.415 16.222c-0.378-0.113-0.634-0.465-0.634-0.86v-12.689c0-0.497-0.403-0.9-0.9-0.9h-17.762c-0.497 0-0.9 0.403-0.9 0.9v26.654c0 0.497 0.403 0.9 0.9 0.9h17.762c0.497 0 0.9-0.403 0.9-0.9v-2.018c0-0.398 0.262-0.749 0.644-0.863 0.437-0.131 0.851-0.316 1.234-0.548 0.293-0.178 0.568-0.384 0.821-0.614 0.063-0.057 0.125-0.116 0.185-0.177 0.121-0.121 0.236-0.247 0.344-0.379 0.218-0.263 0.41-0.548 0.574-0.851 0.082-0.151 0.157-0.307 0.225-0.466 0.27-0.638 0.419-1.34 0.419-2.077 0-2.417-1.608-4.458-3.812-5.113zM23.981 27.526c0 0.497-0.403 0.9-0.9 0.9h-14.16c-0.497 0-0.9-0.403-0.9-0.9v-23.052c0-0.497 0.403-0.9 0.9-0.9h14.16c0.497 0 0.9 0.403 0.9 0.9v10.895c0 0.393-0.254 0.745-0.631 0.859-2.195 0.662-3.793 2.697-3.793 5.107 0 0.737 0.149 1.438 0.419 2.077 0.067 0.16 0.143 0.315 0.225 0.466 0.164 0.302 0.357 0.587 0.574 0.851 0.109 0.132 0.224 0.258 0.344 0.379 0.060 0.060 0.122 0.119 0.185 0.177 0.253 0.23 0.527 0.435 0.821 0.614 0.376 0.229 0.783 0.411 1.213 0.542 0.38 0.115 0.641 0.464 0.641 0.862v0.225zM25.781 24.756c-0.284 0.074-0.582 0.113-0.889 0.113-0.315 0-0.621-0.042-0.912-0.12-1.508-0.403-2.623-1.781-2.623-3.415s1.114-3.012 2.623-3.415c0.291-0.078 0.596-0.12 0.912-0.12 0.307 0 0.605 0.039 0.889 0.113 1.52 0.395 2.645 1.779 2.645 3.421s-1.125 3.026-2.645 3.421z"></path>
<path d="M26.671 20.435h-0.878v-0.878c0-0.046-0.005-0.091-0.011-0.135-0.065-0.433-0.438-0.765-0.889-0.765-0.497 0-0.9 0.403-0.9 0.9v0.878h-0.878c-0.497 0-0.9 0.403-0.9 0.9s0.403 0.9 0.9 0.9h0.878v0.878c0 0.497 0.403 0.9 0.9 0.9 0.451 0 0.824-0.332 0.889-0.765 0.007-0.044 0.011-0.089 0.011-0.135v-0.878h0.878c0.497 0 0.9-0.403 0.9-0.9s-0.403-0.9-0.9-0.9z"></path>
</svg>
