<!-- Generated by IcoMoon.io -->
<svg version="1.1" xmlns="http://www.w3.org/2000/svg" width="32" height="32" viewBox="0 0 32 32">
<title>code-hash</title>
<path d="M25.781 15.362v-12.689c0-0.497-0.403-0.9-0.9-0.9h-17.762c-0.497 0-0.9 0.403-0.9 0.9v26.654c0 0.497 0.403 0.9 0.9 0.9h17.762c0.497 0 0.9-0.403 0.9-0.9v-2.018c0-0.398 0.262-0.749 0.644-0.863 0.437-0.131 0.851-0.316 1.234-0.548 0.293-0.178 0.568-0.384 0.821-0.614 0.063-0.057 0.125-0.116 0.185-0.177 0.121-0.121 0.236-0.247 0.344-0.379 0.218-0.263 0.41-0.548 0.574-0.851 0.082-0.151 0.157-0.307 0.225-0.466 0.27-0.638 0.419-1.34 0.419-2.077 0-2.417-1.608-4.458-3.812-5.113-0.378-0.113-0.634-0.465-0.634-0.86zM23.080 28.427h-14.16c-0.497 0-0.9-0.403-0.9-0.9v-23.052c0-0.497 0.403-0.9 0.9-0.9h14.16c0.497 0 0.9 0.403 0.9 0.9v10.895c0 0.393-0.254 0.745-0.631 0.859-2.195 0.662-3.793 2.697-3.793 5.107 0 0.737 0.149 1.438 0.419 2.077 0.067 0.16 0.143 0.315 0.225 0.466 0.164 0.302 0.357 0.587 0.574 0.851 0.109 0.132 0.224 0.258 0.344 0.379 0.060 0.060 0.122 0.119 0.185 0.177 0.253 0.23 0.527 0.435 0.821 0.614 0.376 0.229 0.783 0.411 1.213 0.542 0.38 0.115 0.641 0.464 0.641 0.862v0.224c0 0.497-0.403 0.901-0.9 0.901zM25.781 24.756c-0.284 0.074-0.582 0.113-0.889 0.113-0.315 0-0.621-0.042-0.912-0.12-1.508-0.403-2.623-1.781-2.623-3.415s1.114-3.012 2.623-3.415c0.291-0.078 0.596-0.12 0.912-0.12 0.307 0 0.605 0.039 0.889 0.113 1.52 0.395 2.645 1.779 2.645 3.421s-1.125 3.026-2.645 3.421z"></path>
<path d="M26.671 20.435h-0.878v-0.878c0-0.046-0.005-0.091-0.011-0.135-0.065-0.433-0.438-0.765-0.889-0.765-0.497 0-0.9 0.403-0.9 0.9v0.878h-0.878c-0.497 0-0.9 0.403-0.9 0.9s0.403 0.9 0.9 0.9h0.878v0.878c0 0.497 0.403 0.9 0.9 0.9 0.451 0 0.824-0.332 0.889-0.765 0.007-0.044 0.011-0.089 0.011-0.135v-0.878h0.878c0.497 0 0.9-0.403 0.9-0.9s-0.403-0.9-0.9-0.9z"></path>
<path d="M19.021 9.066h-0.479l0.36-1.704c0.013-0.067 0.026-0.12 0.026-0.186 0-0.293-0.159-0.466-0.558-0.466-0.466 0-0.692 0.24-0.773 0.652l-0.346 1.704h-1.557l0.36-1.704c0.013-0.067 0.026-0.12 0.026-0.186 0-0.293-0.146-0.466-0.545-0.466-0.466 0-0.679 0.24-0.773 0.652l-0.359 1.704h-0.719c-0.387 0-0.559 0.199-0.559 0.559s0.172 0.532 0.559 0.532h0.492l-0.479 2.396h-0.719c-0.386 0-0.546 0.186-0.546 0.546s0.16 0.546 0.546 0.546h0.492l-0.373 1.704c-0.013 0.066-0.026 0.12-0.026 0.185 0 0.294 0.159 0.466 0.559 0.466 0.465 0 0.665-0.238 0.759-0.651l0.359-1.704h1.557l-0.36 1.704c-0.013 0.066-0.026 0.12-0.026 0.185 0 0.294 0.146 0.466 0.545 0.466 0.466 0 0.679-0.238 0.773-0.651l0.359-1.704h0.733c0.386 0 0.545-0.2 0.545-0.559s-0.159-0.533-0.545-0.533h-0.506l0.492-2.396h0.706c0.387 0 0.546-0.186 0.546-0.546s-0.159-0.546-0.546-0.546zM16.533 12.553h-1.557l0.492-2.396h1.571l-0.506 2.396z"></path>
</svg>
