<!-- Generated by IcoMoon.io -->
<svg version="1.1" xmlns="http://www.w3.org/2000/svg" width="32" height="32" viewBox="0 0 32 32">
<title>code-sign</title>
<path d="M10.479 7.67c0.311-0.388 0.248-0.955-0.141-1.266s-0.955-0.248-1.266 0.141l-7.114 8.892c-0.263 0.329-0.263 0.796 0 1.125l7.114 8.892c0.178 0.222 0.44 0.338 0.704 0.338 0.197 0 0.396-0.065 0.562-0.197 0.388-0.311 0.451-0.877 0.141-1.266l-6.387-7.983c-0.162-0.202-0.162-0.49 0-0.692l6.387-7.984z"></path>
<path d="M30.041 15.438l-7.114-8.892c-0.311-0.388-0.877-0.451-1.266-0.141s-0.451 0.877-0.141 1.266l6.387 7.983c0.162 0.202 0.162 0.49 0 0.692l-6.387 7.983c-0.311 0.388-0.248 0.955 0.141 1.266 0.166 0.133 0.365 0.197 0.562 0.197 0.264 0 0.526-0.116 0.704-0.338l7.114-8.892c0.263-0.329 0.263-0.796 0-1.125z"></path>
<path d="M18.87 3.563c-0.484-0.112-0.968 0.19-1.080 0.675l-5.335 23.12c-0.112 0.485 0.19 0.968 0.675 1.080 0.068 0.016 0.136 0.023 0.203 0.023 0.41 0 0.781-0.282 0.877-0.698l5.335-23.12c0.112-0.484-0.19-0.968-0.675-1.080z"></path>
</svg>
