<svg
  xmlns="http://www.w3.org/2000/svg"
  width="64"
  height="64"
  viewBox="0 0 64 64"
  fill="black"
  fill-rule="nonzero"
>
  <path d="M48 13h-4c-.61 0-1.18-.28-1.56-.75L39.04 8H24.96l-3.4 4.25c-.38.47-.95.75-1.56.75h-4c-.83 0-1.58.33-2.12.88-.55.55-.88 1.29-.88 2.12v3h37.99v-3c0-.83-.33-1.58-.88-2.12-.55-.55-1.29-.88-2.12-.88zm4.95-1.95A7 7 0 0 1 55 16v5c0 1.1-.9 2-2 2h-2.15l-2.46 30.56a6.974 6.974 0 0 1-2.24 4.59A7.02 7.02 0 0 1 41.39 60H22.64c-1.83 0-3.5-.7-4.76-1.85a7.019 7.019 0 0 1-2.24-4.59l-.83-10.24c-.02-.1-.02-.2-.02-.31l-.87-10.74c-.01-.07-.02-.14-.02-.22L13.17 23h-2.16c-1.1 0-2-.9-2-2v-5a7 7 0 0 1 7-7h3.04l3.4-4.25c.38-.47.95-.75 1.56-.75h16c.61 0 1.18.28 1.56.75L44.97 9h3.04a7 7 0 0 1 4.95 2.05zM19.62 53.24c.06.78.42 1.47.96 1.97s1.26.79 2.04.79H41.4c.78 0 1.5-.3 2.04-.79.54-.5.9-1.19.96-1.97l.66-8.24H18.95zM45.95 34H18.07l.57 7h26.75zm.88-11H17.17l.57 7h28.53z" />
</svg>
