<!-- Generated by IcoMoon.io -->
<svg version="1.1" xmlns="http://www.w3.org/2000/svg" width="32" height="32" viewBox="0 0 32 32">
<title>coffee</title>
<path d="M29.033 12.372c-0.518-0.54-1.244-0.829-1.993-0.829h-1.993c-0.256 0-0.498-0.11-0.67-0.3-0.007-0.007-0.013-0.015-0.020-0.022-0.339-0.361-0.817-0.568-1.313-0.568h-14.089c-0.495 0-0.973 0.207-1.313 0.568s-0.516 0.851-0.485 1.345l0.38 6.082c0.279 4.459 3.936 8.002 8.403 8.033 3.126 0.021 5.89-1.669 7.376-4.208 0.125-0.213 0.327-0.372 0.568-0.428 2.781-0.646 5.007-2.88 5.563-5.781l0.29-1.512c0.165-0.86-0.093-1.741-0.705-2.38zM25.53 19.341c-0.464 0.344-1.111-0.014-1.075-0.59 0-0.004 0.001-0.009 0.001-0.013l0.297-4.757c0.022-0.358 0.32-0.637 0.678-0.637h1.653c0.369 0 0.593 0.205 0.694 0.327s0.26 0.381 0.19 0.743l-0.29 1.512c-0.27 1.408-1.061 2.608-2.15 3.415zM16 24.881c-3.515 0-6.44-2.748-6.659-6.256l-0.326-5.214c-0.032-0.518 0.379-0.957 0.899-0.957h12.172c0.519 0 0.931 0.438 0.899 0.957l-0.054 0.86-0.272 4.355c-0.037 0.594-0.152 1.166-0.334 1.706-0.233 0.693-0.577 1.335-1.010 1.904-1.224 1.61-3.158 2.645-5.315 2.645z"></path>
<path d="M27.56 27.549h-23.12c-0.497 0-0.9 0.403-0.9 0.9s0.403 0.9 0.9 0.9h23.12c0.497 0 0.9-0.403 0.9-0.9s-0.403-0.9-0.901-0.9z"></path>
<path d="M11.239 7.886c-0.376 0.325-0.418 0.894-0.093 1.27 0.178 0.206 0.429 0.312 0.682 0.312 0.209 0 0.418-0.072 0.588-0.219 1.118-0.965 1.242-2.66 0.277-3.778-0-0-0-0-0-0-0.153-0.177-0.228-0.404-0.211-0.638s0.124-0.447 0.302-0.6c0.376-0.325 0.418-0.894 0.093-1.27s-0.894-0.418-1.27-0.093c-0.541 0.468-0.869 1.118-0.921 1.832s0.177 1.405 0.644 1.947c0.317 0.366 0.276 0.922-0.091 1.238z"></path>
<path d="M15.319 6.648c0.153 0.177 0.228 0.404 0.211 0.638s-0.124 0.447-0.302 0.6c-0.376 0.325-0.418 0.894-0.093 1.27 0.178 0.206 0.429 0.312 0.682 0.312 0.209 0 0.418-0.072 0.588-0.219 0.541-0.468 0.869-1.118 0.921-1.832s-0.177-1.405-0.644-1.946c-0.316-0.366-0.276-0.922 0.091-1.238 0.376-0.325 0.418-0.894 0.093-1.27s-0.894-0.418-1.27-0.093c-1.118 0.965-1.242 2.66-0.277 3.778 0 0 0 0 0 0z"></path>
<path d="M19.519 7.286c-0.017 0.234-0.124 0.447-0.302 0.6-0.376 0.325-0.418 0.894-0.093 1.27 0.178 0.206 0.429 0.312 0.682 0.312 0.209 0 0.418-0.072 0.588-0.219 0.541-0.468 0.869-1.118 0.921-1.832s-0.177-1.405-0.644-1.946c-0.316-0.366-0.276-0.922 0.091-1.238 0.376-0.325 0.418-0.894 0.093-1.27s-0.894-0.418-1.27-0.093c-0.541 0.468-0.869 1.118-0.921 1.832s0.177 1.405 0.644 1.947c0.153 0.178 0.228 0.404 0.211 0.638z"></path>
</svg>
