<svg
  xmlns="http://www.w3.org/2000/svg"
  width="64"
  height="64"
  viewBox="0 0 64 64"
  fill="black"
  fill-rule="nonzero"
>
  <path d="M16 22h40c1.1 0 2 .9 2 2v2c0 2.76-1.12 5.26-2.93 7.07A9.995 9.995 0 0 1 50 35.8v.2c0 .35-.09.67-.24.95-.63 3.79-2.43 7.18-5.03 9.77A17.941 17.941 0 0 1 32 51.99c-4.97 0-9.47-2.02-12.73-5.27A17.941 17.941 0 0 1 14 33.99v-10c0-1.1.9-2 2-2zm30 4H18v8c0 3.87 1.56 7.36 4.1 9.9 2.54 2.54 6.03 4.1 9.9 4.1s7.36-1.56 9.9-4.1c2.54-2.54 4.1-6.03 4.1-9.9zm6.24 4.24A5.98 5.98 0 0 0 54 26h-4v5.66c.85-.3 1.62-.79 2.24-1.42zM58 58c0 1.1-.9 2-2 2H8c-1.1 0-2-.9-2-2s.9-2 2-2h48c1.1 0 2 .9 2 2zM25.41 6.59c.78.78.78 2.05 0 2.83 0 0-.1.1-.29.32-.14.17-.31.39-.48.64-.23.35-.43.72-.54 1.07-.08.23-.11.41-.11.55 0 .14.03.32.11.55.11.34.31.71.54 1.07.17.25.34.47.48.64.18.22.29.32.29.32.78.78.78 2.05 0 2.83-.78.78-2.05.78-2.83 0-.01-.01-1.6-1.58-2.28-3.6a5.73 5.73 0 0 1-.31-1.82c0-.66.13-1.28.31-1.82.67-2.02 2.26-3.59 2.28-3.6.78-.78 2.05-.78 2.83 0zm8 0c.78.78.78 2.05 0 2.83 0 0-.1.1-.29.32-.14.17-.31.39-.48.64-.23.35-.43.72-.54 1.07-.08.23-.11.41-.11.55 0 .14.03.32.11.55.11.34.31.71.54 1.07.17.25.34.47.48.64.18.22.29.32.29.32.78.78.78 2.05 0 2.83-.78.78-2.05.78-2.83 0-.01-.01-1.6-1.58-2.28-3.6a5.73 5.73 0 0 1-.31-1.82c0-.66.13-1.28.31-1.82.67-2.02 2.26-3.59 2.28-3.6.78-.78 2.05-.78 2.83 0zm8 0c.78.78.78 2.05 0 2.83 0 0-.1.1-.29.32-.14.17-.31.39-.48.64-.23.35-.43.72-.54 1.07-.08.23-.11.41-.11.55 0 .14.03.32.11.55.11.34.31.71.54 1.07.17.25.34.47.48.64.18.22.29.32.29.32.78.78.78 2.05 0 2.83-.78.78-2.05.78-2.83 0-.01-.01-1.6-1.58-2.28-3.6a5.73 5.73 0 0 1-.31-1.82c0-.66.13-1.28.31-1.82.67-2.02 2.26-3.59 2.28-3.6.78-.78 2.05-.78 2.83 0z" />
</svg>
