<svg
  xmlns="http://www.w3.org/2000/svg"
  width="64"
  height="64"
  viewBox="0 0 64 64"
  fill="black"
  fill-rule="nonzero"
>
  <path d="M8 55.17l7.59-7.59c.18-.18.4-.33.65-.43.24-.1.51-.15.77-.15h36c.83 0 1.58-.33 2.12-.88.55-.55.88-1.29.88-2.12V13c0-.83-.33-1.58-.88-2.12-.55-.55-1.29-.88-2.12-.88h-42c-.83 0-1.58.33-2.12.88-.55.55-.88 1.29-.88 2.12v42.17zM17.83 51l-7 7a4.001 4.001 0 0 1-6.15-.61c-.43-.64-.67-1.41-.67-2.22V13a7 7 0 0 1 7-7h42a7 7 0 0 1 7 7v31a7 7 0 0 1-7 7zM30 37c0 1.1-.9 2-2 2H18c-1.1 0-2-.9-2-2s.9-2 2-2h10c1.1 0 2 .9 2 2zm18-8c0 1.1-.9 2-2 2H18c-1.1 0-2-.9-2-2s.9-2 2-2h28c1.1 0 2 .9 2 2zm0-8c0 1.1-.9 2-2 2H18c-1.1 0-2-.9-2-2s.9-2 2-2h28c1.1 0 2 .9 2 2z" />
</svg>
