<svg
  xmlns="http://www.w3.org/2000/svg"
  width="64"
  height="64"
  viewBox="0 0 64 64"
  fill="black"
  fill-rule="nonzero"
>
  <path d="M24 18c0-2.21.9-4.21 2.34-5.66A7.98 7.98 0 0 1 30 10.25V6c0-1.1.9-2 2-2s2 .9 2 2v4.25c1.41.36 2.66 1.1 3.66 2.09A7.973 7.973 0 0 1 40 18a8 8 0 0 1-2.33 5.65L40.56 30H48c1.1 0 2 .9 2 2s-.9 2-2 2h-5.62l10.53 23.17c.46 1.01.01 2.19-.99 2.65-1.01.46-2.19.01-2.65-.99L37.98 34H26.02L14.73 58.83a1.994 1.994 0 0 1-2.65.99 1.994 1.994 0 0 1-.99-2.65L21.62 34H16c-1.1 0-2-.9-2-2s.9-2 2-2h7.44l2.89-6.35A7.965 7.965 0 0 1 24 18zm12.16 12l-1.96-4.31c-.7.2-1.44.31-2.2.31-.76 0-1.5-.11-2.2-.31L27.84 30zm-6.99-9.17c.2.2.42.38.67.54.02.01.03.02.05.03.61.38 1.34.6 2.11.6.78 0 1.5-.22 2.11-.6.02-.01.03-.02.05-.03.24-.15.46-.34.67-.54C35.56 20.1 36 19.11 36 18s-.45-2.1-1.17-2.83A3.966 3.966 0 0 0 32 14c-1.11 0-2.1.45-2.83 1.17C28.44 15.9 28 16.89 28 18s.45 2.1 1.17 2.83z" />
</svg>
