<!-- Generated by IcoMoon.io -->
<svg version="1.1" xmlns="http://www.w3.org/2000/svg" width="32" height="32" viewBox="0 0 32 32">
<title>contract</title>
<path d="M23.794 12.443v-0.889h-5.313c-0.497 0-0.9-0.403-0.9-0.9v0-7.091h-11.548v24.875h17.762v-3.546c0-0.497 0.403-0.9 0.9-0.9s0.9 0.403 0.9 0.9v0 3.602c0 0.002 0 0.005 0 0.008 0 0.956-0.771 1.731-1.725 1.737h-17.912c-0.955-0.006-1.726-0.782-1.726-1.737 0-0.003 0-0.005 0-0.008v0-24.988c0-0.002-0-0.005-0-0.008 0-0.955 0.771-1.731 1.725-1.737h11.82c0.001 0 0.002 0 0.003 0 0.548 0 1.036 0.258 1.349 0.659l0.003 0.004 6.095 7.788c0.232 0.295 0.372 0.672 0.372 1.082v1.149c0 0.497-0.403 0.9-0.9 0.9s-0.9-0.403-0.9-0.9v0zM16.702 14.221c0-0.497-0.403-0.9-0.9-0.9v0h-7.114c-0.497 0-0.9 0.403-0.9 0.9s0.403 0.9 0.9 0.9v0h7.114c0.497 0 0.9-0.403 0.9-0.9v0zM13.145 10.667c0-0.497-0.403-0.9-0.9-0.9v0h-3.557c-0.497 0-0.9 0.403-0.9 0.9s0.403 0.9 0.9 0.9v0h3.557c0.497 0 0.9-0.403 0.9-0.9v0zM13.145 17.781c0-0.497-0.403-0.9-0.9-0.9v0h-3.557c-0.497 0-0.9 0.403-0.9 0.9s0.403 0.9 0.9 0.9v0h3.557c0 0 0 0 0 0 0.497 0 0.9-0.403 0.9-0.9 0-0.001 0-0.001 0-0.002v0zM24.233 21.271c0.069 0.087 0.111 0.199 0.111 0.32 0 0.106-0.032 0.205-0.087 0.288l0.001-0.002-2.647 4.305c-0.189 0.282-0.505 0.465-0.865 0.465h-0.005l-6.234-0.029-0.242 0.19c-0.151 0.12-0.344 0.192-0.554 0.193h-0c-0.033 0-0.065-0.002-0.098-0.005l0.004 0c-0.109 0.023-0.233 0.036-0.361 0.036h-0.058c-1.182-0.037-2.159-1.144-3.021-2.12-0.152-0.172-0.342-0.388-0.519-0.574-0.045 0.394-0.070 0.851-0.070 1.313 0 0.046 0 0.092 0.001 0.137l-0-0.007c0 0.497-0.403 0.9-0.9 0.9s-0.9-0.403-0.9-0.9v0c0-1.923 0.189-3.186 1.132-3.543 0.974-0.368 1.767 0.531 2.606 1.482 0.462 0.524 1.322 1.499 1.726 1.512v0c0.038 0 0.094-0.047 0.134-0.087 0.009-0.009 0.018-0.016 0.027-0.024l1.432-5.977c0.084-0.343 0.331-0.615 0.652-0.733l4.822-1.554c0.052-0.019 0.112-0.030 0.175-0.030 0.165 0 0.312 0.077 0.407 0.197l0.001 0.001zM22.265 21.68l-2.228-2.84-3.54 1.141-0.822 3.431 1.492-1.171c-0.003-0.039-0.005-0.084-0.005-0.129 0-0.899 0.729-1.628 1.628-1.628s1.628 0.729 1.628 1.628c0 0.899-0.729 1.628-1.628 1.628-0.182 0-0.358-0.030-0.522-0.085l0.011 0.003-1.492 1.171 3.532 0.017zM27.659 18.402l-3.154-4.017c-0.096-0.121-0.243-0.199-0.408-0.199-0.121 0-0.233 0.042-0.321 0.112l0.001-0.001-2.297 1.801c-0.121 0.096-0.199 0.243-0.199 0.408 0 0.121 0.042 0.233 0.112 0.321l-0.001-0.001 3.154 4.017c0.096 0.121 0.243 0.199 0.408 0.199 0.121 0 0.233-0.042 0.321-0.112l-0.001 0.001 2.297-1.801c0.122-0.096 0.199-0.243 0.199-0.408 0-0.122-0.042-0.234-0.112-0.322l0.001 0.001z"></path>
</svg>
