<svg
  xmlns="http://www.w3.org/2000/svg"
  width="64"
  height="64"
  viewBox="0 0 64 64"
  fill="black"
  fill-rule="nonzero"
>
  <path d="M54.95 49.24c.61-.2 1.12-.59 1.48-1.09A3 3 0 0 0 57 46.4V17.6c0-.37-.07-.73-.2-1.07L34 24.42v31.8zM7.2 16.53c-.13.33-.2.7-.2 1.07v28.8c0 .65.21 1.25.57 1.75s.87.89 1.48 1.09L30 56.22v-31.8zM32 7.11l-20.28 6.76L32 20.89l20.28-7.02zM7.79 53.04a6.926 6.926 0 0 1-3.46-2.55 6.958 6.958 0 0 1-1.32-4.09V17.6c0-1.51.48-2.93 1.32-4.09a7.074 7.074 0 0 1 3.46-2.55L31.37 3.1c.41-.14.85-.14 1.26 0l23.58 7.86c1.43.48 2.63 1.38 3.46 2.55a6.958 6.958 0 0 1 1.32 4.09v28.8c0 1.51-.48 2.93-1.32 4.09a7.074 7.074 0 0 1-3.46 2.55l-23.54 7.85c-.21.08-.44.12-.68.12-.24 0-.47-.04-.68-.12z" />
</svg>
