<!-- Generated by IcoMoon.io -->
<svg version="1.1" xmlns="http://www.w3.org/2000/svg" width="32" height="32" viewBox="0 0 32 32">
<title>curve</title>
<path d="M29.338 23.065c-0.604 0-1.218-0.662-1.826-1.969-0.464-0.996-0.874-2.266-1.263-3.596-0.088-0.3 0.137-0.6 0.449-0.6h2.615c0.485 0 0.902-0.373 0.925-0.857 0.024-0.517-0.388-0.944-0.899-0.944h-3.413c-0.209 0-0.393-0.139-0.45-0.34-0.472-1.667-0.973-3.315-1.579-4.616-0.347-0.744-1.401-3.010-3.459-3.010s-3.112 2.265-3.459 3.010c-0.606 1.301-1.106 2.949-1.579 4.616-0.057 0.201-0.241 0.34-0.45 0.34h-6.827c-0.209 0-0.393-0.139-0.45-0.34-0.472-1.667-0.973-3.315-1.579-4.616-0.272-0.584-0.981-2.106-2.269-2.733-0.161-0.078-0.263-0.241-0.263-0.42v-4.304c0-0.485-0.373-0.902-0.857-0.925-0.517-0.024-0.944 0.388-0.944 0.899v5.16c-0.017 0.068-0.026 0.14-0.026 0.213s0.010 0.145 0.026 0.213v21.065c0 0.485 0.373 0.902 0.857 0.925 0.517 0.024 0.944-0.388 0.944-0.899v-11.97c0-0.258 0.209-0.468 0.468-0.468h2.019c0.209 0 0.393 0.139 0.45 0.34 0.472 1.667 0.973 3.315 1.579 4.616 0.347 0.744 1.401 3.010 3.459 3.010s3.112-2.265 3.459-3.010c0.606-1.301 1.106-2.949 1.579-4.616 0.057-0.201 0.241-0.34 0.45-0.34h6.827c0.209 0 0.393 0.139 0.45 0.34 0.472 1.667 0.973 3.315 1.579 4.616 0.343 0.737 1.381 2.966 3.4 3.009 0.491 0.010 0.924-0.347 0.957-0.837 0.036-0.526-0.38-0.963-0.898-0.963zM18.611 10.904c0.608-1.306 1.223-1.969 1.826-1.969s1.218 0.662 1.826 1.969c0.464 0.996 0.874 2.266 1.263 3.596 0.088 0.3-0.137 0.6-0.449 0.6h-5.281c-0.312 0-0.536-0.3-0.449-0.6 0.388-1.33 0.799-2.6 1.263-3.596zM4.462 10.904c0.464 0.996 0.874 2.266 1.263 3.596 0.088 0.3-0.137 0.6-0.449 0.6h-1.246c-0.258 0-0.468-0.209-0.468-0.468v-3.547c0-0.499 0.679-0.653 0.89-0.201 0.003 0.006 0.006 0.013 0.009 0.019zM13.363 21.096c-0.608 1.306-1.223 1.969-1.826 1.969s-1.218-0.662-1.826-1.969c-0.464-0.996-0.874-2.266-1.263-3.596-0.088-0.3 0.137-0.6 0.449-0.6h5.281c0.312 0 0.536 0.3 0.449 0.6-0.389 1.33-0.799 2.6-1.263 3.596z"></path>
</svg>
