<svg
  xmlns="http://www.w3.org/2000/svg"
  width="64"
  height="64"
  viewBox="0 0 64 64"
  fill="black"
  fill-rule="nonzero"
>
  <path d="M42 26c0-1.1.9-2 2-2h11.17l-7.59-7.59a21.91 21.91 0 0 0-9.7-5.68 21.944 21.944 0 0 0-11.24-.15 21.968 21.968 0 0 0-15.73 15 1.996 1.996 0 0 1-2.49 1.34 1.996 1.996 0 0 1-1.34-2.49c1.32-4.39 3.75-8.26 6.95-11.32 3.21-3.06 7.19-5.3 11.64-6.41a25.97 25.97 0 0 1 13.28.18c4.27 1.19 8.23 3.47 11.46 6.71l7.58 7.58V10c0-1.1.9-2 2-2s2 .9 2 2v16a1.994 1.994 0 0 1-.58 1.42c-.19.19-.41.34-.65.43-.24.1-.49.15-.77.15h-16c-1.1 0-2-.9-2-2zM22 38c0 1.1-.9 2-2 2H8.83l7.59 7.59a21.91 21.91 0 0 0 9.7 5.68c3.61 1.01 7.48 1.09 11.24.15a21.968 21.968 0 0 0 15.73-15 1.996 1.996 0 0 1 2.49-1.34c1.06.32 1.66 1.43 1.34 2.49a26.023 26.023 0 0 1-6.95 11.32c-3.21 3.06-7.19 5.3-11.64 6.41a25.97 25.97 0 0 1-13.28-.18 26.048 26.048 0 0 1-11.46-6.71l-7.58-7.58V54c0 1.1-.9 2-2 2s-2-.9-2-2V38a1.994 1.994 0 0 1 .58-1.42c.19-.19.41-.34.65-.43.24-.1.49-.15.77-.15h16c1.1 0 2 .9 2 2z" />
</svg>
