<svg
  xmlns="http://www.w3.org/2000/svg"
  width="64"
  height="64"
  viewBox="0 0 64 64"
  fill="black"
  fill-rule="nonzero"
>
  <path d="M6.01 13.79c.11-1.81 1.51-3.02 2.74-3.77C12.85 7.52 21.95 6 32 6c10.06 0 19.15 1.52 23.25 4.02 1.23.75 2.63 1.96 2.74 3.77 0 .07.01.14.01.21v36c0 .07 0 .14-.01.21-.11 1.81-1.51 3.02-2.74 3.77-4.1 2.5-13.2 4.02-23.26 4.02-10.06 0-19.16-1.52-23.26-4.02-1.23-.75-2.63-1.96-2.74-3.77 0-.07-.01-.14-.01-.21V14c0-.07 0-.14.01-.21zM32 22c-9.13 0-17.47-1.25-22-3.35v7.25c.08.12.31.36.83.67C13.9 28.44 22 30 32 30c10.01 0 18.1-1.56 21.17-3.43.48-.29.78-.62.83-.67v-7.25C49.47 20.75 41.13 22 32 22zM10 37.9c.08.12.31.36.83.67C13.9 40.44 22 42 32 42c10.01 0 18.1-1.56 21.17-3.43.48-.29.78-.62.83-.67v-7.25C49.47 32.75 41.13 34 32 34s-17.47-1.25-22-3.35zm0 11.99c.05.05.34.38.83.67C13.9 52.43 22 53.99 32 53.99c10.01 0 18.1-1.56 21.17-3.43.51-.31.74-.55.83-.67v-7.25c-4.53 2.1-12.87 3.35-22 3.35s-17.47-1.25-22-3.35zm.09-35.88c.12.13.35.33.74.56C13.9 16.44 21.99 18 32 18c10.01 0 18.1-1.56 21.17-3.43.35-.21.61-.45.74-.58-.12-.13-.35-.33-.74-.56C50.1 11.56 42.01 10 32 10c-10.01 0-18.1 1.56-21.17 3.43-.35.21-.61.45-.74.58z" />
</svg>
