<svg
  xmlns="http://www.w3.org/2000/svg"
  width="64"
  height="64"
  viewBox="0 0 64 64"
  fill="black"
  fill-rule="nonzero"
>
  <path d="M6.01 13.79c.11-1.81 1.51-3.02 2.74-3.77C12.85 7.52 21.95 6 32 6c10.06 0 19.15 1.52 23.25 4.02 1.23.75 2.63 1.96 2.74 3.77 0 .07.01.14.01.21v11.56c0 1.1-.9 2-2 2s-2-.9-2-2v-6.91C49.47 20.75 41.13 22 32 22s-17.47-1.25-22-3.35v7.25c.06.09.23.27.59.52 2.17 1.48 7.73 2.87 15.24 3.38 1.1.07 1.94 1.03 1.86 2.13a1.995 1.995 0 0 1-2.13 1.86c-6.38-.43-12.07-1.51-15.57-3.14v7.26c.05.07.18.22.46.43 1.67 1.21 5.82 2.42 11.78 3.14a2.004 2.004 0 1 1-.48 3.98c-4.72-.57-8.93-1.49-11.76-2.8v7.24c.06.07.25.28.56.5 2.12 1.45 7.58 2.82 15 3.39 1.1.08 1.93 1.05 1.84 2.15a1.997 1.997 0 0 1-2.15 1.84c-7.4-.57-13.85-1.96-16.95-4.07-1.05-.72-2.19-1.84-2.3-3.45-.01-.08-.01-.16-.01-.24v-36c0-.07 0-.14.01-.21zm4.08.22c.12.13.35.33.74.56C13.9 16.44 21.99 18 32 18c10.01 0 18.1-1.56 21.17-3.43.35-.21.61-.45.74-.58-.12-.13-.35-.33-.74-.56C50.1 11.56 42.01 10 32 10c-10.01 0-18.1 1.56-21.17 3.43-.35.21-.61.45-.74.58zM26 44c0-4.97 2.02-9.47 5.27-12.73C34.53 28.01 39.03 26 44 26c4.97 0 9.47 2.02 12.73 5.27C59.99 34.53 62 39.03 62 44c0 4.97-2.02 9.47-5.27 12.73A17.941 17.941 0 0 1 44 62c-4.97 0-9.47-2.02-12.73-5.27A17.941 17.941 0 0 1 26 44zm8.1 9.9c2.54 2.54 6.03 4.1 9.9 4.1s7.36-1.56 9.9-4.1c2.54-2.54 4.1-6.03 4.1-9.9s-1.56-7.36-4.1-9.9C51.36 31.56 47.87 30 44 30s-7.36 1.56-9.9 4.1C31.56 36.64 30 40.13 30 44s1.56 7.36 4.1 9.9zM54 44c0 1.1-.9 2-2 2h-6v6c0 1.1-.9 2-2 2s-2-.9-2-2v-6h-6c-1.1 0-2-.9-2-2s.9-2 2-2h6v-6c0-1.1.9-2 2-2s2 .9 2 2v6h6c1.1 0 2 .9 2 2z" />
</svg>
