<!-- Generated by IcoMoon.io -->
<svg version="1.1" xmlns="http://www.w3.org/2000/svg" width="32" height="32" viewBox="0 0 32 32">
<title>day</title>
<path d="M22.91 9.979c-0.379-0.379-0.993-0.379-1.371 0l-4.53 4.53c-0.074 0.074-0.182 0.099-0.281 0.067-0.23-0.073-0.474-0.112-0.727-0.112s-0.498 0.039-0.727 0.112c-0.099 0.031-0.208 0.007-0.281-0.067l-2.752-2.752c-0.379-0.379-0.993-0.379-1.371 0s-0.379 0.993 0 1.371l2.752 2.752c0.073 0.073 0.099 0.181 0.067 0.28-0.101 0.318-0.138 0.665-0.094 1.025 0.134 1.111 1.032 1.997 2.145 2.115 1.454 0.153 2.687-0.988 2.687-2.411 0-0.253-0.039-0.498-0.112-0.727-0.031-0.099-0.006-0.208 0.067-0.281l4.53-4.53c0.379-0.379 0.379-0.993-0-1.371zM16.274 17.986c-0.088 0.022-0.18 0.035-0.274 0.035s-0.186-0.013-0.274-0.035c-0.404-0.101-0.721-0.419-0.822-0.823-0.022-0.088-0.035-0.18-0.035-0.274 0-0.624 0.508-1.132 1.132-1.132s1.132 0.508 1.132 1.132c0 0.095-0.013 0.186-0.035 0.274-0.101 0.404-0.419 0.722-0.823 0.823z"></path>
<path d="M17.513 7.997c0 0.835-0.677 1.513-1.513 1.513s-1.513-0.677-1.513-1.513c0-0.835 0.677-1.513 1.513-1.513s1.513 0.677 1.513 1.513z"></path>
<path d="M17.513 24.003c0 0.835-0.677 1.513-1.513 1.513s-1.513-0.677-1.513-1.513c0-0.835 0.677-1.513 1.513-1.513s1.513 0.677 1.513 1.513z"></path>
<path d="M26.182 16.889c0 0.835-0.677 1.513-1.513 1.513s-1.513-0.677-1.513-1.513c0-0.835 0.677-1.513 1.513-1.513s1.513 0.677 1.513 1.513z"></path>
<path d="M8.727 16.889c0 0.835-0.677 1.513-1.513 1.513s-1.513-0.677-1.513-1.513c0-0.835 0.677-1.513 1.513-1.513s1.513 0.677 1.513 1.513z"></path>
<path d="M16 2.581c-0.553 0-0.998 0.463-0.968 1.022 0.028 0.522 0.48 0.915 1.003 0.917 6.35 0.019 11.504 5.221 11.444 11.589-0.058 6.234-5.142 11.315-11.376 11.37-6.377 0.056-11.582-5.115-11.582-11.479 0-2.801 0.997-5.449 2.823-7.54 0.090-0.103 0.258-0.026 0.242 0.109l-0.244 1.95c-0.067 0.532 0.299 1.036 0.831 1.106 0.044 0.006 0.087 0.009 0.129 0.009 0.482 0 0.9-0.359 0.961-0.85l0.483-3.862c0.104-0.834-0.489-1.597-1.323-1.701l-3.862-0.483c-0.547-0.068-1.044 0.333-1.087 0.888-0.040 0.521 0.356 0.975 0.874 1.039l1.535 0.192c0.11 0.014 0.161 0.146 0.087 0.229-2.149 2.413-3.343 5.477-3.386 8.727-0.1 7.424 5.993 13.604 13.418 13.604 7.399 0 13.419-6.020 13.419-13.419s-6.020-13.419-13.419-13.419z"></path>
</svg>
