<!-- Generated by IcoMoon.io -->
<svg version="1.1" xmlns="http://www.w3.org/2000/svg" width="32" height="32" viewBox="0 0 32 32">
<title>denied</title>
<path d="M16 3.551c-6.875 0-12.449 5.574-12.449 12.449s5.574 12.449 12.449 12.449 12.449-5.574 12.449-12.449c0-6.875-5.574-12.449-12.449-12.449zM5.352 16c0-2.846 1.109-5.522 3.123-7.534 1.922-1.92 4.519-3.039 7.235-3.111 2.283-0.060 4.468 0.592 6.302 1.853 0.464 0.319 0.525 0.981 0.127 1.379l-13.55 13.55c-0.398 0.398-1.060 0.338-1.378-0.125-1.208-1.757-1.858-3.835-1.858-6.013zM23.525 23.534c-1.922 1.92-4.519 3.039-7.235 3.111-2.283 0.060-4.468-0.592-6.302-1.853-0.464-0.319-0.525-0.981-0.127-1.379l13.551-13.551c0.398-0.398 1.060-0.338 1.378 0.125 1.208 1.757 1.858 3.835 1.858 6.014 0 2.846-1.109 5.522-3.123 7.534z"></path>
</svg>
