<svg
  xmlns="http://www.w3.org/2000/svg"
  width="64"
  height="64"
  viewBox="0 0 64 64"
  fill="black"
  fill-rule="nonzero"
>
  <path d="M3 32c0-8.01 3.25-15.26 8.49-20.51C16.74 6.24 23.99 3 32 3c8.01 0 15.26 3.25 20.51 8.49C57.76 16.74 61 23.99 61 32c0 8.01-3.25 15.26-8.49 20.51A28.907 28.907 0 0 1 32 61c-8.01 0-15.26-3.25-20.51-8.49A28.907 28.907 0 0 1 3 32zm11.32 17.68A24.9 24.9 0 0 0 32 57c6.18 0 11.84-2.24 16.21-5.96L12.97 15.8a24.9 24.9 0 0 0-5.96 16.21c0 6.9 2.8 13.15 7.32 17.68zM57 32c0-6.9-2.8-13.15-7.32-17.68A24.9 24.9 0 0 0 32 7a24.92 24.92 0 0 0-16.21 5.96L51.03 48.2a24.9 24.9 0 0 0 5.96-16.21z" />
</svg>
