<svg
  xmlns="http://www.w3.org/2000/svg"
  width="64"
  height="64"
  viewBox="0 0 64 64"
  fill="black"
  fill-rule="nonzero"
>
  <path d="M13 50a7 7 0 0 1-7-7V13a7 7 0 0 1 7-7h38a7 7 0 0 1 7 7v30a7 7 0 0 1-7 7H34v4h6c1.1 0 2 .9 2 2s-.9 2-2 2H24c-1.1 0-2-.9-2-2s.9-2 2-2h6v-4zm38-4c.83 0 1.58-.33 2.12-.88.55-.55.88-1.29.88-2.12v-1H10v1c0 .83.33 1.58.88 2.12.55.55 1.29.88 2.12.88zm3-33c0-.83-.33-1.58-.88-2.12-.55-.55-1.29-.88-2.12-.88H13c-.83 0-1.58.33-2.12.88-.55.55-.88 1.29-.88 2.12v25h44z" />
</svg>
