<svg
  xmlns="http://www.w3.org/2000/svg"
  width="64"
  height="64"
  viewBox="0 0 64 64"
  fill="black"
  fill-rule="nonzero"
>
  <path d="M22 16c0-2.76 1.12-5.26 2.93-7.07A9.969 9.969 0 0 1 32 6c2.76 0 5.26 1.12 7.07 2.93A9.969 9.969 0 0 1 42 16c0 2.76-1.12 5.26-2.93 7.07A9.969 9.969 0 0 1 32 26c-2.76 0-5.26-1.12-7.07-2.93A9.969 9.969 0 0 1 22 16zm5.76 4.24A5.98 5.98 0 0 0 32 22c1.66 0 3.15-.67 4.24-1.76A5.98 5.98 0 0 0 38 16c0-1.66-.67-3.15-1.76-4.24A5.98 5.98 0 0 0 32 10c-1.66 0-3.15.67-4.24 1.76A5.98 5.98 0 0 0 26 16c0 1.66.67 3.15 1.76 4.24zM22 48c0-2.76 1.12-5.26 2.93-7.07A9.969 9.969 0 0 1 32 38c2.76 0 5.26 1.12 7.07 2.93A9.969 9.969 0 0 1 42 48c0 2.76-1.12 5.26-2.93 7.07A9.969 9.969 0 0 1 32 58c-2.76 0-5.26-1.12-7.07-2.93A9.969 9.969 0 0 1 22 48zm5.76 4.24A5.98 5.98 0 0 0 32 54c1.66 0 3.15-.67 4.24-1.76A5.98 5.98 0 0 0 38 48c0-1.66-.67-3.15-1.76-4.24A5.98 5.98 0 0 0 32 42c-1.66 0-3.15.67-4.24 1.76A5.98 5.98 0 0 0 26 48c0 1.66.67 3.15 1.76 4.24zM50 32c0 1.1-.9 2-2 2H16c-1.1 0-2-.9-2-2s.9-2 2-2h32c1.1 0 2 .9 2 2z" />
</svg>
