<svg
  xmlns="http://www.w3.org/2000/svg"
  width="64"
  height="64"
  viewBox="0 0 64 64"
  fill="black"
  fill-rule="nonzero"
>
  <path d="M2.38 20.18c-.08-.11-.15-.24-.21-.37-.05-.11-.09-.22-.11-.33-.11-.44-.07-.92.14-1.35 0-.01.01-.02.01-.03L9.2 4.13c.17-.35.45-.66.81-.87.02-.01.03-.02.05-.03.31-.17.65-.24.98-.24h41.93c.33-.01.67.07.98.24.02.01.03.02.05.03.37.21.64.51.81.87L61.8 18.1c0 .01.01.02.01.03.21.44.25.92.14 1.35-.03.11-.07.22-.11.33-.06.13-.13.25-.21.37L33.67 60.13c-.09.13-.19.25-.31.35a1.962 1.962 0 0 1-1.35.52c-.4 0-.77-.12-1.09-.32-.09-.06-.18-.12-.26-.2-.12-.1-.22-.22-.31-.35zm53.78.82h-9.71l-8.41 25.88zM7.84 21l18.12 25.88L17.55 21zm-.6-4h8.14l-4.29-7.71zm49.52 0L52.9 9.29 48.61 17zM32 7.91L23.42 17h17.16zm-12.8 7.73L27.36 7H14.4zm25.6 0L49.6 7H36.64zM32 52.53L42.25 21H21.76z" />
</svg>
