<svg
  xmlns="http://www.w3.org/2000/svg"
  width="64"
  height="64"
  viewBox="0 0 64 64"
  fill="black"
  fill-rule="nonzero"
>
  <path d="M25 53a1.994 1.994 0 0 1-1.42-.58l-12-12c-.78-.78-.78-2.05 0-2.83.78-.78 2.05-.78 2.83 0L23 46.18V23.01c0-3.31 1.35-6.32 3.51-8.49 2.17-2.17 5.17-3.51 8.49-3.51h16c1.1 0 2 .9 2 2s-.9 2-2 2H35c-2.21 0-4.21.89-5.66 2.34A7.973 7.973 0 0 0 27 23.01v23.17l8.59-8.59c.78-.78 2.05-.78 2.83 0 .78.78.78 2.05 0 2.83l-12 12c-.19.19-.41.34-.65.43-.24.1-.49.15-.77.15z" />
</svg>
