<svg
  xmlns="http://www.w3.org/2000/svg"
  width="64"
  height="64"
  viewBox="0 0 64 64"
  fill="black"
  fill-rule="nonzero"
>
  <path d="M39 11a1.994 1.994 0 0 1 1.42.58l12 12c.78.78.78 2.05 0 2.83-.78.78-2.05.78-2.83 0L41 17.82v23.17c0 3.31-1.35 6.32-3.51 8.49A11.962 11.962 0 0 1 29 52.99H13c-1.1 0-2-.9-2-2s.9-2 2-2h16c2.21 0 4.21-.89 5.66-2.34A7.973 7.973 0 0 0 37 40.99V17.82l-8.59 8.59c-.78.78-2.05.78-2.83 0-.78-.78-.78-2.05 0-2.83l12-12c.19-.19.41-.34.65-.43.24-.1.49-.15.77-.15z" />
</svg>
