<svg
  xmlns="http://www.w3.org/2000/svg"
  width="64"
  height="64"
  viewBox="0 0 64 64"
  fill="black"
  fill-rule="nonzero"
>
  <path d="M11 25a1.994 1.994 0 0 1 .58-1.42l12-12c.78-.78 2.05-.78 2.83 0 .78.78.78 2.05 0 2.83L17.82 23h23.17c3.31 0 6.32 1.35 8.49 3.51 2.17 2.17 3.51 5.17 3.51 8.49v16c0 1.1-.9 2-2 2s-2-.9-2-2V35c0-2.21-.89-4.21-2.34-5.66A7.973 7.973 0 0 0 40.99 27H17.82l8.59 8.59c.78.78.78 2.05 0 2.83-.78.78-2.05.78-2.83 0l-12-12c-.19-.19-.34-.41-.43-.65-.1-.24-.15-.49-.15-.77z" />
</svg>
