<svg
  xmlns="http://www.w3.org/2000/svg"
  width="64"
  height="64"
  viewBox="0 0 64 64"
  fill="black"
  fill-rule="nonzero"
>
  <path d="M11 39a1.994 1.994 0 0 1 .58-1.42l12-12c.78-.78 2.05-.78 2.83 0 .78.78.78 2.05 0 2.83L17.82 37h23.17c2.21 0 4.21-.89 5.66-2.34A7.973 7.973 0 0 0 48.99 29V13c0-1.1.9-2 2-2s2 .9 2 2v16c0 3.31-1.35 6.32-3.51 8.49A11.962 11.962 0 0 1 40.99 41H17.82l8.59 8.59c.78.78.78 2.05 0 2.83-.78.78-2.05.78-2.83 0l-12-12c-.19-.19-.34-.41-.43-.65-.1-.24-.15-.49-.15-.77z" />
</svg>
