<svg
  xmlns="http://www.w3.org/2000/svg"
  width="64"
  height="64"
  viewBox="0 0 64 64"
  fill="black"
  fill-rule="nonzero"
>
  <path d="M39 53a1.994 1.994 0 0 1-1.42-.58l-12-12c-.78-.78-.78-2.05 0-2.83.78-.78 2.05-.78 2.83 0L37 46.18V23.01c0-2.21-.89-4.21-2.34-5.66A7.973 7.973 0 0 0 29 15.01H13c-1.1 0-2-.9-2-2s.9-2 2-2h16c3.31 0 6.32 1.35 8.49 3.51 2.17 2.17 3.51 5.17 3.51 8.49v23.17l8.59-8.59c.78-.78 2.05-.78 2.83 0 .78.78.78 2.05 0 2.83l-12 12c-.19.19-.41.34-.65.43-.24.1-.49.15-.77.15z" />
</svg>
