<!-- Generated by IcoMoon.io -->
<svg version="1.1" xmlns="http://www.w3.org/2000/svg" width="32" height="32" viewBox="0 0 32 32">
<title>disk-alt</title>
<path d="M30.239 21.742c0-0.36-0.054-0.718-0.16-1.061l-3.912-12.681c-0.383-1.072-1.405-1.793-2.544-1.793h-15.246c-1.139 0-2.161 0.72-2.544 1.793l-3.912 12.681c-0.106 0.344-0.16 0.702-0.16 1.062v1.371c0 0.055 0.006 0.109 0.015 0.162 0.085 1.889 1.643 3.395 3.553 3.395h21.341c1.91 0 3.468-1.506 3.553-3.395 0.010-0.053 0.015-0.107 0.015-0.162v-1.371zM7.535 8.591c0.132-0.349 0.468-0.582 0.842-0.582h15.246c0.374 0 0.71 0.233 0.842 0.582l3.044 9.869c0.17 0.551-0.248 1.099-0.825 1.097-0.004 0-0.009 0-0.013 0h-21.341c-0.004 0-0.009 0-0.013 0-0.577 0.002-0.995-0.546-0.825-1.097l3.044-9.869zM26.671 24.87h-21.341c-0.968 0-1.756-0.788-1.756-1.756s0.788-1.756 1.756-1.756h21.341c0.968 0 1.756 0.788 1.756 1.756s-0.788 1.756-1.756 1.756z"></path>
<path d="M11.554 22.213h-5.335c-0.497 0-0.9 0.403-0.9 0.9s0.403 0.9 0.9 0.9h5.335c0.497 0 0.9-0.403 0.9-0.9s-0.403-0.9-0.9-0.9z"></path>
<path d="M14.309 22.213h-0.176c-0.497 0-0.9 0.403-0.9 0.9s0.403 0.9 0.9 0.9h0.176c0.497 0 0.9-0.403 0.9-0.9s-0.403-0.9-0.9-0.9z"></path>
</svg>
