<svg
  xmlns="http://www.w3.org/2000/svg"
  width="64"
  height="64"
  viewBox="0 0 64 64"
  fill="black"
  fill-rule="nonzero"
>
  <path d="M29 50c0 1.1-.9 2-2 2H14c-1.1 0-2-.9-2-2s.9-2 2-2h13c1.1 0 2 .9 2 2zm9 0c0 1.1-.9 2-2 2h-1c-1.1 0-2-.9-2-2s.9-2 2-2h1c1.1 0 2 .9 2 2zM32 4a1.994 1.994 0 0 1 1.42.58l7 7c.78.78.78 2.05 0 2.83-.78.78-2.05.78-2.83 0L34 10.82v23.17c0 1.1-.9 2-2 2s-2-.9-2-2V10.82l-3.59 3.59c-.78.78-2.05.78-2.83 0-.78-.78-.78-2.05 0-2.83l7-7c.19-.19.41-.34.65-.43.24-.1.49-.15.77-.15zM12.71 22.52c.04-.08.08-.15.12-.23a6.976 6.976 0 0 1 2.54-2.41c1.02-.57 2.19-.88 3.39-.88h5.23c1.1 0 2 .9 2 2s-.9 2-2 2h-5.23c-.52 0-1.02.13-1.45.38-.41.23-.76.54-1.03.94L9.11 40.01h45.77l-7.17-15.69a3.09 3.09 0 0 0-1.03-.94c-.44-.24-.94-.38-1.45-.38H40c-1.1 0-2-.9-2-2s.9-2 2-2h5.23c1.21 0 2.37.31 3.39.88a7.06 7.06 0 0 1 2.54 2.41c.05.07.09.15.12.23l8.51 18.61c.07.14.12.29.15.44.03.16.05.31.05.47V53a7 7 0 0 1-7 7h-42a7 7 0 0 1-7-7V42.04c0-.16.01-.31.05-.47.03-.16.09-.3.15-.44zM8 53c0 .83.33 1.58.88 2.12.55.55 1.29.88 2.12.88h42c.83 0 1.58-.33 2.12-.88.55-.55.88-1.29.88-2.12v-9H8z" />
</svg>
