<!-- Generated by IcoMoon.io -->
<svg version="1.1" xmlns="http://www.w3.org/2000/svg" width="32" height="32" viewBox="0 0 32 32">
<title>dislike</title>
<path d="M28.46 7.124c0.001-0.737-0.291-1.43-0.821-1.944-0.515-0.499-1.215-0.762-1.932-0.762h-12.121c-0.291 0-0.578 0.047-0.854 0.139-0.018 0.006-0.035 0.012-0.053 0.019l-2.76 1.116c-0.087 0.035-0.182-0.029-0.182-0.123v-0.161c0-0.528-0.403-0.957-0.9-0.957h-5.313c-0.497 0-0.9 0.428-0.9 0.957v13.203c0 0.528 0.403 0.957 0.9 0.957h5.313c0.497 0 0.9-0.428 0.9-0.957v0c0-0.116 0.139-0.177 0.224-0.096 0.134 0.128 0.27 0.254 0.406 0.376 1.847 1.665 2.916 3.11 2.916 5.567 0 1.69 1.374 3.091 3.063 3.123 0.020 0 0.039 0.001 0.059 0.001 1.723 0 3.125-1.421 3.125-3.167v-3.935c0-0.497 0.403-0.9 0.9-0.9h5.313c1.487 0 2.699-1.21 2.701-2.697l0.016-9.759zM7.936 7.153v9.714c0 0.497-0.403 0.9-0.9 0.9h-1.711c-0.497 0-0.9-0.403-0.9-0.9v-9.714c0-0.497 0.403-0.9 0.9-0.9h1.711c0.497 0 0.9 0.403 0.9 0.9zM26.659 7.12l-0.016 9.759c-0.001 0.496-0.405 0.899-0.9 0.899h-5.313c-1.492 0-2.701 1.209-2.701 2.701v3.935c0 0.741-0.606 1.366-1.324 1.366l-0.025-0c-0.715-0.014-1.296-0.607-1.296-1.322 0-3.104-1.404-5.005-3.511-6.905-0.546-0.492-1.081-1.032-1.594-1.611-0.147-0.166-0.23-0.379-0.23-0.601v-7.031c0-0.367 0.223-0.697 0.563-0.835l3.013-1.218c0.085-0.026 0.173-0.039 0.262-0.039h12.146c0.239 0 0.474 0.083 0.647 0.247 0.181 0.172 0.281 0.406 0.281 0.655z"></path>
<path d="M7.069 8.897c0 0.491-0.398 0.889-0.889 0.889s-0.889-0.398-0.889-0.889c0-0.491 0.398-0.889 0.889-0.889s0.889 0.398 0.889 0.889z"></path>
</svg>
