<!-- Generated by IcoMoon.io -->
<svg version="1.1" xmlns="http://www.w3.org/2000/svg" width="32" height="32" viewBox="0 0 32 32">
<title>docker</title>
<path d="M11.24 12.53c-0.18 0-0.27 0.050-0.27 0.25q0 1.070 0 2.13c0 0.17 0.070 0.24 0.25 0.24h2.39c0.18 0 0.24-0.080 0.24-0.24 0-0.72 0-1.43 0-2.14 0-0.18-0.070-0.24-0.25-0.24h-2.36zM20.56 15.15c0.16 0 0.25 0 0.25-0.23q0-1.080 0-2.16c0-0.17-0.060-0.23-0.22-0.23h-2.46c-0.16 0-0.22 0.060-0.22 0.23q0 1.080 0 2.16c0 0.19 0.090 0.23 0.25 0.23h2.4zM17.1 15.15c0.18 0 0.25-0.050 0.24-0.24v-2.13c0-0.17 0-0.25-0.22-0.25h-2.44c-0.17 0-0.24 0.050-0.24 0.24 0 0.71 0 1.42 0 2.13 0 0.21 0.080 0.25 0.27 0.25h2.39zM10.1 15.15c0.18 0 0.25-0.050 0.25-0.25 0-0.7 0-1.4 0-2.11 0-0.21-0.070-0.26-0.27-0.26h-2.35c-0.18 0-0.26 0.050-0.25 0.25 0 0.71 0 1.41 0 2.11 0 0.21 0.070 0.26 0.27 0.26h2.37zM6.67 15.15c0.16 0 0.22-0.060 0.22-0.23v-2.16c0-0.17-0.060-0.23-0.22-0.23h-2.44c-0.16 0-0.22 0.060-0.22 0.22 0 0.73 0 1.45 0 2.17 0 0.19 0.090 0.23 0.25 0.23h2.43zM11.19 9.25c-0.18 0-0.24 0.070-0.24 0.24 0 0.73 0 1.47 0 2.2 0 0.17 0.060 0.25 0.24 0.25h2.4c0.18 0 0.24-0.080 0.24-0.25 0-0.73 0-1.47 0-2.2 0-0.2-0.090-0.24-0.27-0.24-0.39 0-0.78 0-1.17 0s-0.78 0.020-1.18 0zM17.070 11.94c0.19 0 0.26-0.070 0.25-0.26v-2.17c0-0.18 0-0.26-0.24-0.26-0.8 0-1.6 0-2.4 0-0.19 0-0.26 0.060-0.26 0.26 0 0.71 0 1.44 0 2.16 0 0.21 0.080 0.27 0.28 0.27h2.37zM10.070 11.94c0.2 0 0.29 0 0.28-0.27 0-0.71 0-1.44 0-2.16 0-0.19 0-0.26-0.24-0.26-0.8 0-1.61 0-2.41 0-0.19 0-0.25 0.070-0.24 0.26 0 0.72 0 1.45 0 2.16 0 0.22 0.080 0.27 0.27 0.27h2.34zM14.43 6c0 0.8 0 1.59 0 2.39 0 0.22 0.070 0.28 0.29 0.28h2.28c0.24 0 0.31-0.070 0.31-0.31 0-0.79 0-1.58 0-2.36zM1.77 16.51c0.034-0.117 0.059-0.253 0.070-0.393l0-0.007c0-0.25 0.090-0.37 0.39-0.37 0.86 0 1.72 0 2.57 0h16.48c0.017 0 0.036 0 0.056 0 0.629 0 1.228-0.125 1.775-0.352l-0.031 0.011c0.128-0.051 0.233-0.101 0.335-0.157l-0.015 0.007c-0.344-0.611-0.546-1.341-0.546-2.118 0-0.198 0.013-0.393 0.039-0.584l-0.002 0.022c0.126-0.989 0.525-1.867 1.117-2.578l-0.007 0.008c1.12 0.591 1.957 1.591 2.321 2.797l0.009 0.033c0.11 0.42 0.1 0.38 0.53 0.35 0.232-0.045 0.5-0.071 0.773-0.071 0.986 0 1.894 0.335 2.616 0.898l-0.009-0.007c-0.337 0.882-0.903 1.613-1.627 2.141l-0.013 0.009c-0.66 0.403-1.459 0.642-2.314 0.642-0.051 0-0.102-0.001-0.153-0.003l0.007 0c-0.015-0.002-0.032-0.003-0.050-0.003-0.181 0-0.335 0.117-0.389 0.28l-0.001 0.003c-1.882 4.446-5.834 7.69-10.614 8.547l-0.086 0.013c-1.076 0.226-2.313 0.355-3.58 0.355-0.148 0-0.295-0.002-0.442-0.005l0.022 0c-0.042 0.001-0.092 0.001-0.142 0.001-1.873 0-3.628-0.505-5.136-1.387l0.048 0.026c-1.714-1.088-2.97-2.767-3.488-4.744l-0.012-0.056c-0.138-0.536-0.268-1.214-0.36-1.905l-0.010-0.095c-0.023-0.114-0.047-0.208-0.075-0.3l0.005 0.020z"></path>
</svg>
