<svg
  xmlns="http://www.w3.org/2000/svg"
  width="64"
  height="64"
  viewBox="0 0 64 64"
  fill="black"
  fill-rule="nonzero"
>
  <path d="M2 22c0-1.1.9-2 2-2h2.7c2.2-4.67 5.6-8.55 9.74-11.32A28.006 28.006 0 0 1 47.5 8.6c4.19 2.78 7.63 6.68 9.85 11.4H60c1.1 0 2 .9 2 2s-.9 2-2 2H4.01c-1.1 0-2-.9-2-2zm60 20c0 1.1-.9 2-2 2h-2.7c-2.2 4.67-5.6 8.55-9.74 11.32a28.006 28.006 0 0 1-31.06.08A27.938 27.938 0 0 1 6.65 44H4c-1.1 0-2-.9-2-2s.9-2 2-2h55.99c1.1 0 2 .9 2 2zM45.29 11.94a23.892 23.892 0 0 0-5.53-2.72c1.79 2.8 3.16 6.54 4.06 10.78h9.03a23.94 23.94 0 0 0-7.56-8.06zM18.66 12c-3.03 2.03-5.6 4.75-7.46 8h8.99c.89-4.23 2.27-7.97 4.05-10.76a24.01 24.01 0 0 0-5.58 2.77zm.05 40.06c1.71 1.14 3.57 2.05 5.53 2.72-1.79-2.8-3.16-6.54-4.06-10.78h-9.03a23.94 23.94 0 0 0 7.56 8.06zM45.34 52c3.03-2.03 5.6-4.75 7.46-8h-8.99c-.89 4.23-2.27 7.97-4.05 10.76a24.01 24.01 0 0 0 5.58-2.77zM35.36 9.97c-1.11-1.3-2.15-1.85-3.03-1.95-.11-.01-.22-.02-.33-.02-.1 0-.21.01-.31.02-.88.1-1.92.65-3.04 1.95-1.75 2.04-3.33 5.52-4.37 10.03h15.43c-1.04-4.51-2.61-7.99-4.36-10.03zm-6.72 44.06c1.11 1.3 2.15 1.85 3.03 1.95.11.01.22.02.33.02.1 0 .21-.01.31-.02.88-.1 1.92-.65 3.04-1.95 1.75-2.04 3.33-5.52 4.37-10.03H24.29c1.04 4.51 2.61 7.99 4.36 10.03zm-6.94-27.9c1.03.39 1.56 1.54 1.17 2.57l-3 8A2 2 0 0 1 18 38a2 2 0 0 1-1.87-1.3L15 33.69l-1.13 3.01A2 2 0 0 1 12 38a2 2 0 0 1-1.87-1.3l-3-8c-.39-1.03.14-2.19 1.17-2.57 1.03-.39 2.19.14 2.57 1.17L12 30.31l1.13-3.01A2 2 0 0 1 15 26a2 2 0 0 1 1.87 1.3L18 30.31l1.13-3.01a1.999 1.999 0 0 1 2.57-1.17zm17 0c1.03.39 1.56 1.54 1.17 2.57l-3 8A2 2 0 0 1 35 38a2 2 0 0 1-1.87-1.3L32 33.69l-1.13 3.01A2 2 0 0 1 29 38a2 2 0 0 1-1.87-1.3l-3-8c-.39-1.03.14-2.19 1.17-2.57 1.03-.39 2.19.14 2.57 1.17L29 30.31l1.13-3.01A2 2 0 0 1 32 26a2 2 0 0 1 1.87 1.3L35 30.31l1.13-3.01a1.999 1.999 0 0 1 2.57-1.17zm17 0c1.03.39 1.56 1.54 1.17 2.57l-3 8A2 2 0 0 1 52 38a2 2 0 0 1-1.87-1.3L49 33.69l-1.13 3.01A2 2 0 0 1 46 38a2 2 0 0 1-1.87-1.3l-3-8c-.39-1.03.14-2.19 1.17-2.57 1.03-.39 2.19.14 2.57 1.17L46 30.31l1.13-3.01A2 2 0 0 1 49 26a2 2 0 0 1 1.87 1.3L52 30.31l1.13-3.01a1.999 1.999 0 0 1 2.57-1.17z" />
</svg>
