<!-- Generated by IcoMoon.io -->
<svg version="1.1" xmlns="http://www.w3.org/2000/svg" width="32" height="32" viewBox="0 0 32 32">
<title>drone</title>
<path d="M12.41 17.88c0.104 1.932 1.696 3.459 3.645 3.459s3.541-1.527 3.645-3.45l0-0.009c-0.104-1.932-1.696-3.459-3.645-3.459s-3.541 1.527-3.645 3.45l-0 0.009zM26.46 18.88c-1.39 0-2.79 0-4.18 0-0.039-0.008-0.084-0.013-0.13-0.013-0.323 0-0.592 0.232-0.649 0.539l-0.001 0.004c-0.731 2.332-2.872 3.994-5.402 3.994-0.756 0-1.477-0.148-2.136-0.418l0.038 0.014c-1.645-0.617-2.892-1.956-3.371-3.621l-0.009-0.039c-0.1-0.3-0.2-0.42-0.53-0.42-1.52 0-3 0-4.58 0-0.121 0.014-0.23 0.035-0.335 0.064l0.016-0.004c0 0.13 0 0.22 0.050 0.3 0.051 0.184 0.109 0.34 0.178 0.49l-0.008-0.020c1.219 2.749 3.113 5.009 5.477 6.636l0.053 0.034c1.47 1.054 3.306 1.686 5.29 1.686 1.157 0 2.264-0.215 3.283-0.607l-0.063 0.021c2.866-1.040 5.179-3.028 6.608-5.578l0.032-0.062c0.55-0.853 0.91-1.877 0.998-2.977l0.002-0.023zM30.23 16.61h-0.54c-2.51 0-5 0-7.53 0-0.025 0.003-0.053 0.005-0.082 0.005-0.289 0-0.533-0.195-0.607-0.461l-0.001-0.004c-0.619-1.83-2.069-3.23-3.889-3.769l-0.041-0.011c-0.447-0.131-0.96-0.207-1.49-0.207-2.262 0-4.203 1.373-5.036 3.331l-0.014 0.036c-0.23 0.698-0.876 1.193-1.637 1.193-0.1 0-0.198-0.009-0.293-0.025l0.010 0.001c-2.19-0.090-4.39 0-6.58 0h-0.73c0.317-3.938 2.283-7.362 5.199-9.617l0.031-0.023c4.87-3.76 10.27-4 15.77-1.56 4.16 1.86 7.59 7.19 7.46 11.15z"></path>
</svg>
