<!-- Generated by IcoMoon.io -->
<svg version="1.1" xmlns="http://www.w3.org/2000/svg" width="32" height="32" viewBox="0 0 32 32">
<title>edit</title>
<path d="M25.781 12.432c-0.497 0-0.9 0.403-0.9 0.9v9.748c0 0.993-0.808 1.801-1.801 1.801h-14.16c-0.993 0-1.801-0.808-1.801-1.801v-14.16c0-0.993 0.808-1.801 1.801-1.801h9.748c0.497 0 0.9-0.403 0.9-0.9s-0.403-0.9-0.9-0.9h-9.748c-1.986 0-3.602 1.616-3.602 3.602v14.16c0 1.986 1.616 3.602 3.602 3.602h14.16c1.986 0 3.602-1.616 3.602-3.602v-9.748c0-0.497-0.403-0.9-0.9-0.9z"></path>
<path d="M27.422 5.365l-1.777-1.42c-0.332-0.265-0.729-0.394-1.123-0.394-0.529 0-1.053 0.232-1.408 0.677l-10.418 12.825c-0.101 0.127-0.158 0.284-0.162 0.446l-0.090 3.628c-0.011 0.428 0.337 0.763 0.742 0.763 0.060 0 0.122-0.007 0.184-0.023l3.519-0.889c0.157-0.040 0.298-0.13 0.399-0.257l10.418-12.825c0.621-0.777 0.494-1.91-0.283-2.531zM15.816 19.39l-0.389 0.098c-0.578 0.146-1.135-0.299-1.121-0.895l0.009-0.383c0.005-0.199 0.076-0.391 0.201-0.546l9.438-11.617c0.311-0.383 0.873-0.444 1.259-0.137l0.371 0.295c0.392 0.312 0.454 0.884 0.138 1.273l-9.429 11.607c-0.122 0.151-0.29 0.258-0.478 0.305z"></path>
</svg>
