<!-- Generated by IcoMoon.io -->
<svg version="1.1" xmlns="http://www.w3.org/2000/svg" width="32" height="32" viewBox="0 0 32 32">
<title>ehternet-socket</title>
<path d="M27.549 3.551h-23.097c-0.497 0-0.9 0.403-0.9 0.9v23.097c0 0.497 0.403 0.9 0.9 0.9h23.097c0.497 0 0.9-0.403 0.9-0.9v-23.097c0-0.497-0.403-0.9-0.9-0.9zM26.648 25.748c0 0.497-0.403 0.9-0.9 0.9h-19.496c-0.497 0-0.9-0.403-0.9-0.9v-19.496c0-0.497 0.403-0.9 0.9-0.9h19.496c0.497 0 0.9 0.403 0.9 0.9v19.496z"></path>
<path d="M24.751 8.208c-0.034-0.081-0.074-0.159-0.119-0.233-0.030-0.050-0.062-0.097-0.097-0.144s-0.071-0.091-0.11-0.133c-0.039-0.043-0.079-0.083-0.122-0.122s-0.087-0.075-0.133-0.11-0.094-0.067-0.144-0.097c-0.074-0.045-0.152-0.085-0.233-0.119s-0.165-0.063-0.251-0.085c-0.144-0.037-0.295-0.057-0.45-0.057h-14.183c-0.528 0-1.004 0.228-1.333 0.59-0.039 0.043-0.075 0.087-0.11 0.133s-0.067 0.094-0.097 0.144c-0.045 0.074-0.085 0.152-0.119 0.233s-0.063 0.165-0.085 0.251c-0.037 0.144-0.057 0.295-0.057 0.45v9.748c0 0.497 0.403 0.9 0.9 0.9h0.243c0.317 0 0.6 0.177 0.762 0.449 0.157 0.263 0.445 0.44 0.774 0.44h1.756c0.497 0 0.9 0.403 0.9 0.9v0.867c0 0.497 0.403 0.9 0.9 0.9h5.313c0.497 0 0.9-0.403 0.9-0.9v-0.867c0-0.497 0.403-0.9 0.9-0.9h1.756c0.329 0 0.617-0.177 0.774-0.44 0.162-0.272 0.445-0.449 0.762-0.449h0.243c0.497 0 0.9-0.403 0.9-0.9v-9.748c0-0.155-0.020-0.306-0.057-0.45-0.022-0.086-0.051-0.17-0.085-0.251zM11.565 16c0 0.497-0.403 0.9-0.9 0.9s-0.9-0.403-0.9-0.9v-6.225c0-0.497 0.403-0.9 0.9-0.9s0.9 0.403 0.9 0.9v6.224zM15.122 16c0 0.497-0.403 0.9-0.9 0.9s-0.9-0.403-0.9-0.9v-6.225c0-0.497 0.403-0.9 0.9-0.9s0.9 0.403 0.9 0.9v6.224zM18.679 16c0 0.497-0.403 0.9-0.9 0.9s-0.9-0.403-0.9-0.9v-6.225c0-0.497 0.403-0.9 0.9-0.9s0.9 0.403 0.9 0.9v6.224zM22.236 16c0 0.497-0.403 0.9-0.9 0.9s-0.9-0.403-0.9-0.9v-6.225c0-0.497 0.403-0.9 0.9-0.9s0.9 0.403 0.9 0.9v6.224z"></path>
</svg>
