<!-- Generated by IcoMoon.io -->
<svg version="1.1" xmlns="http://www.w3.org/2000/svg" width="32" height="32" viewBox="0 0 32 32">
<title>elipsis</title>
<path d="M8.886 16c0 1.964-1.592 3.557-3.557 3.557s-3.557-1.592-3.557-3.557c0-1.964 1.592-3.557 3.557-3.557s3.557 1.592 3.557 3.557z"></path>
<path d="M19.557 16c0 1.964-1.592 3.557-3.557 3.557s-3.557-1.592-3.557-3.557c0-1.964 1.592-3.557 3.557-3.557s3.557 1.592 3.557 3.557z"></path>
<path d="M30.227 16c0 1.964-1.592 3.557-3.557 3.557s-3.557-1.592-3.557-3.557c0-1.964 1.592-3.557 3.557-3.557s3.557 1.592 3.557 3.557z"></path>
</svg>
