<!-- Generated by IcoMoon.io -->
<svg version="1.1" xmlns="http://www.w3.org/2000/svg" width="32" height="32" viewBox="0 0 32 32">
<title>ethernet-plug</title>
<path d="M29.305 11.434l-8.739-8.739c-0.703-0.703-1.625-1.055-2.547-1.055s-1.844 0.352-2.547 1.055l-4.354 4.354c-0.352 0.352-0.922 0.352-1.273 0l-0.613-0.613c-0.176-0.176-0.406-0.264-0.637-0.264s-0.461 0.088-0.637 0.264l-3.789 3.789c-0.387 0.387-0.577 0.929-0.516 1.472l1.114 10.028c0.030 0.272-0.065 0.543-0.258 0.736l-2.209 2.209c-0.703 0.703-0.703 1.844 0 2.547l2.483 2.483c0.352 0.352 0.813 0.527 1.273 0.527s0.922-0.176 1.273-0.527l2.209-2.209c0.17-0.17 0.399-0.264 0.637-0.264 0.033 0 0.066 0.002 0.099 0.006l10.028 1.114c0.067 0.007 0.133 0.011 0.199 0.011 0.475 0 0.934-0.188 1.273-0.527l3.789-3.789c0.352-0.352 0.352-0.922 0-1.273l-0.613-0.613c-0.352-0.352-0.352-0.922 0-1.273l4.354-4.354c1.406-1.407 1.406-3.687-0-5.094zM28.032 15.254l-5.627 5.627c-0.352 0.352-0.352 0.922 0 1.273l0.637 0.637c0.338 0.338 0.338 0.887 0 1.226l-2.245 2.245c-0.186 0.186-0.447 0.278-0.709 0.249l-9.614-1.068c-0.099-0.011-0.199-0.017-0.298-0.017-0.722 0-1.4 0.281-1.91 0.791l-1.572 1.572c-0.352 0.352-0.922 0.352-1.273 0l-1.21-1.21c-0.352-0.352-0.352-0.922 0-1.273l1.572-1.572c0.583-0.583 0.866-1.388 0.775-2.208l-1.068-9.613c-0.029-0.262 0.062-0.522 0.249-0.709l2.245-2.245c0.338-0.338 0.887-0.338 1.226 0v0l0.637 0.637c0.352 0.352 0.922 0.352 1.273 0l5.601-5.601c0.33-0.33 0.769-0.537 1.235-0.553 0.505-0.018 0.983 0.171 1.338 0.526l8.739 8.739c0.703 0.703 0.703 1.844 0 2.547z"></path>
<path d="M18.656 5.799c-0.352-0.352-0.922-0.352-1.273 0l-3.773 3.773c-0.352 0.352-0.352 0.922 0 1.273 0.176 0.176 0.406 0.264 0.637 0.264s0.461-0.088 0.637-0.264l3.773-3.773c0.352-0.352 0.352-0.922 0-1.273z"></path>
<path d="M24.928 13.344l-3.773 3.773c-0.352 0.352-0.352 0.922 0 1.273 0.176 0.176 0.406 0.264 0.637 0.264s0.461-0.088 0.637-0.264l3.773-3.773c0.352-0.352 0.352-0.922 0-1.273s-0.922-0.352-1.273 0z"></path>
<path d="M23.686 10.829c-0.352-0.352-0.922-0.352-1.273 0l-3.773 3.773c-0.352 0.352-0.352 0.922 0 1.273 0.176 0.176 0.406 0.264 0.637 0.264s0.461-0.088 0.637-0.264l3.773-3.773c0.352-0.352 0.352-0.922 0-1.273z"></path>
<path d="M21.171 8.314c-0.352-0.352-0.922-0.352-1.273 0l-3.773 3.773c-0.352 0.352-0.352 0.922 0 1.273 0.176 0.176 0.406 0.264 0.637 0.264s0.461-0.088 0.637-0.264l3.773-3.773c0.352-0.352 0.352-0.922 0-1.273z"></path>
</svg>
