<!-- Generated by IcoMoon.io -->
<svg version="1.1" xmlns="http://www.w3.org/2000/svg" width="32" height="32" viewBox="0 0 32 32">
<title>eu-flag</title>
<path d="M3.5 3.5v25h25v-25h-25zM16.029 8.984l-0.754 0.543 0.284-0.884-0.749-0.549 0.929-0.004 0.29-0.882 0.29 0.882 0.929 0.004-0.749 0.549 0.284 0.884-0.754-0.543zM19.855 10.010l-0.754 0.543 0.284-0.884-0.749-0.549 0.929-0.004 0.29-0.882 0.29 0.882 0.929 0.004-0.749 0.549 0.284 0.884-0.754-0.543zM22.675 12.83l-0.754 0.543 0.284-0.884-0.749-0.549 0.929-0.004 0.29-0.882 0.29 0.882 0.929 0.004-0.749 0.549 0.284 0.884-0.754-0.543zM23.701 16.676l-0.754 0.543 0.284-0.884-0.749-0.549 0.929-0.004 0.29-0.882 0.29 0.882 0.929 0.004-0.749 0.549 0.284 0.884-0.754-0.543zM22.675 20.522l-0.754 0.543 0.284-0.884-0.749-0.549 0.929-0.004 0.29-0.882 0.29 0.882 0.929 0.004-0.749 0.549 0.284 0.884-0.754-0.543zM19.855 23.342l-0.754 0.543 0.284-0.884-0.749-0.549 0.929-0.004 0.29-0.882 0.29 0.882 0.929 0.004-0.749 0.549 0.284 0.884-0.754-0.543zM16.009 24.368l-0.754 0.543 0.284-0.884-0.749-0.549 0.929-0.004 0.29-0.882 0.29 0.882 0.929 0.004-0.749 0.549 0.284 0.884-0.754-0.543zM12.163 23.342l-0.754 0.543 0.284-0.884-0.749-0.549 0.929-0.004 0.29-0.882 0.29 0.882 0.929 0.004-0.749 0.549 0.284 0.884-0.754-0.543zM9.386 20.522l-0.754 0.543 0.284-0.884-0.749-0.549 0.929-0.004 0.29-0.882 0.29 0.882 0.929 0.004-0.749 0.549 0.284 0.884-0.754-0.543zM8.317 16.676l-0.754 0.543 0.284-0.884-0.749-0.549 0.929-0.004 0.29-0.882 0.29 0.882 0.929 0.004-0.749 0.549 0.284 0.884-0.754-0.543zM9.386 12.83l-0.754 0.543 0.284-0.884-0.749-0.549 0.929-0.004 0.29-0.882 0.29 0.882 0.929 0.004-0.749 0.549 0.284 0.884-0.754-0.543zM12.163 10.010l-0.754 0.543 0.284-0.884-0.749-0.549 0.929-0.004 0.29-0.882 0.29 0.882 0.929 0.004-0.749 0.549 0.284 0.884-0.754-0.543z"></path>
</svg>
