<svg
  xmlns="http://www.w3.org/2000/svg"
  width="64"
  height="64"
  viewBox="0 0 64 64"
  fill="black"
  fill-rule="nonzero"
>
  <path d="M30.57 55l-3.18.47 2.3 2.25-.54 3.17L32 59.38l2.85 1.5-.54-3.17 2.31-2.25-3.19-.46L32 52.1zm-12.36-3.32l-3.21.47 2.3 2.24-.54 3.18 2.85-1.5 2.85 1.5-.46-3.18 2.31-2.24-3.19-.47-1.43-2.89zm24.72 0l-3.19.47 2.31 2.24-.54 3.18 2.85-1.5 2.85 1.5-.54-3.18L49 52.15l-3.18-.47-1.43-2.89zm-33.76-9L6 43.1l2.31 2.25-.55 3.17L10.59 47l2.85 1.5-.54-3.17 2.31-2.25-3.21-.45-1.43-2.89zm42.81 0l-3.19.47 2.31 2.25-.54 3.17L53.41 47l2.85 1.5-.55-3.17L58 43.1l-3.19-.47-1.42-2.89zM5.86 30.28l-3.19.46L5 33l-.54 3.17 2.85-1.5 2.85 1.5L9.59 33l2.31-2.25-3.19-.46-1.43-2.9zm49.43 0l-3.19.46L54.41 33l-.54 3.17 2.85-1.5 2.85 1.5L59 33l2.3-2.25-3.18-.46-1.43-2.89zM9.17 17.91L6 18.38l2.31 2.25-.57 3.17 2.85-1.5 2.85 1.5-.54-3.17 2.31-2.25-3.21-.47L10.59 15zm42.81 0l-3.19.47 2.31 2.25-.54 3.17 2.85-1.5 2.85 1.5-.55-3.17L58 18.38l-3.19-.47-1.4-2.91zm-33.77-9L15 9.33l2.3 2.25-.54 3.18 2.85-1.5 2.85 1.5-.46-3.18 2.31-2.25-3.19-.46L19.64 6zm24.72 0l-3.19.46 2.31 2.25-.54 3.18 2.85-1.5 2.85 1.5-.54-3.18L49 9.33l-3.18-.46L44.36 6zM32 2.67l-1.43 2.89-3.18.44 2.3 2.25-.54 3.18L32 9.94l2.85 1.51-.54-3.18L36.62 6l-3.19-.46z" />
</svg>
