<svg
  xmlns="http://www.w3.org/2000/svg"
  width="64"
  height="64"
  viewBox="0 0 64 64"
  fill="black"
  fill-rule="nonzero"
>
  <path d="M40.21 12.88l-3.06.45 2.21 2.16-.52 3 2.74-1.44 2.74 1.44-.52-3 2.2-2.16-3-.45-1.37-2.77zm-19.79 0l-3.07.45 2.22 2.16-.52 3 2.74-1.44 2.74 1.44-.53-3 2.22-2.16-3.06-.45-1.37-2.77zm11.26-5.43l-1.37 2.78-3.06.45 2.22 2.16-.53 3.05 2.74-1.44 2.74 1.44-.52-3.05 2.22-2.16-3.07-.45zm15.78 12.68l-3.07.44 2.22 2.17-.52 3.05 2.74-1.44 2.74 1.44-.57-3.05 2.22-2.17-3.06-.44-1.37-2.78zM50.11 30l-3.11.47 2.22 2.16-.52 3 2.74-1.44 2.74 1.44-.52-3 2.21-2.16-3.02-.47-1.37-2.78zm-2.65 9.89l-3.07.45 2.22 2.16-.52 3 2.74-1.44 2.74 1.44-.53-3 2.22-2.16-3.06-.45-1.37-2.77zm-7.25 7.25l-3.06.44 2.21 2.16-.52 3.06 2.74-1.44 2.74 1.44-.52-3.06 2.2-2.13-3-.44-1.37-2.78zm-9.9 2.65l-3.06.45 2.22 2.16-.53 3 2.74-1.4 2.74 1.44-.52-3 2.22-2.16-3.07-.45L31.68 47zm-9.89-2.65l-3.07.44 2.22 2.16-.52 3.06 2.74-1.44 2.74 1.44-.53-3.03 2.22-2.16-3.06-.44-1.37-2.78zm-7.25-7.25l-3.06.45 2.21 2.16-.52 3 2.74-1.44 2.74 1.44-.52-3L19 40.37l-3.07-.45-1.37-2.77zM10.52 30l-3.07.44 2.22 2.16-.52 3 2.74-1.44 2.74 1.44-.52-3 2.21-2.16-3.06-.44-1.37-2.78zm4-12.68l-1.37 2.78-3.06.44 2.21 2.17-.52 3.05 2.74-1.44 2.74 1.44-.52-3.05L19 20.57l-3.07-.44zM4.73 2h54.54A2.73 2.73 0 0 1 62 4.73v54.54A2.73 2.73 0 0 1 59.27 62H4.73A2.73 2.73 0 0 1 2 59.27V4.73A2.73 2.73 0 0 1 4.73 2z" />
</svg>
