<!-- Generated by IcoMoon.io -->
<svg version="1.1" xmlns="http://www.w3.org/2000/svg" width="32" height="32" viewBox="0 0 32 32">
<title>europe</title>
<path d="M16 3.551c-6.875 0-12.449 5.574-12.449 12.449s5.574 12.449 12.449 12.449c6.875 0 12.449-5.574 12.449-12.449s-5.574-12.449-12.449-12.449zM8.289 17.975c-0.809-0.177-1.692-0.205-1.885-1.306-0.030-0.171-0.353-0.307-0.559-0.427-0.138-0.080-0.277-0.159-0.418-0.234-0.019-0.010-0.035-0.025-0.047-0.042 0.017-5.331 3.961-9.736 9.091-10.476-0.051 0.040-0.102 0.081-0.153 0.119-0.055 0.042 0.054 0.474 0.19 0.559 0.294 0.182 0.638 0.282 1.015 0.422 0.065 0.024 0.139-0.003 0.17-0.065 0.185-0.362 0.383-0.748 0.585-1.142 0.155 0.004 0.309 0.012 0.462 0.022-0.015 0.061-0.030 0.124-0.046 0.189-0.020 0.081 0.036 0.162 0.119 0.171 0.302 0.034 0.581 0.065 0.953 0.106-0.797 0.367-1.352 1.355-2.052 1.355-0.223 0-0.46-0.1-0.724-0.351-0.027-0.025-0.062-0.038-0.097-0.038-0.028 0-0.057 0.008-0.081 0.026-0.687 0.483-1.323 0.93-1.964 1.38-0.053 0.037-0.073 0.105-0.049 0.165 0.29 0.731 0.202 0.801-1.085 0.851-0.080 0.003-0.142 0.073-0.135 0.153 0.035 0.368 0.030 0.751 0.189 1.045 0.033 0.061 0.155 0.082 0.307 0.082 0.195 0 0.441-0.035 0.616-0.066 0.143-0.026 0.265-0.241 0.372-0.388 0.462-0.636 0.81-0.936 1.228-0.936 0.308 0 0.654 0.163 1.11 0.474 0.165 0.113 0.349 0.198 0.529 0.289 0.017 0.009 0.035 0.013 0.053 0.013 0.039 0 0.077-0.020 0.099-0.054l0.001-0.002c0.033-0.052 0.020-0.12-0.029-0.156l-0.804-0.598c-0.066-0.049-0.075-0.144-0.020-0.205l0.065-0.071c0.027-0.030 0.065-0.045 0.102-0.045 0.032 0 0.064 0.011 0.090 0.034 0.452 0.39 0.911 0.786 1.478 1.275 0.022 0.019 0.050 0.029 0.078 0.029 0.030 0 0.060-0.012 0.083-0.035 0.457-0.462 0.958-0.968 1.459-1.475 0.006 0.017 0.011 0.035 0.017 0.052 0.019 0.058 0.073 0.095 0.132 0.095 0.013 0 0.027-0.002 0.040-0.006 0.283-0.085 0.558-0.168 0.77-0.232 0.262 0.358 0.528 0.72 0.951 1.296-0.595-0.11-0.993-0.253-1.363-0.253-0.036 0-0.071 0.001-0.107 0.004-0.356 0.028-0.7 0.206-1.2 0.398-0.086 0.033-0.101 0.149-0.027 0.204 0.287 0.211 0.469 0.377 0.681 0.437 0.313 0.089 0.662 0.052 0.992 0.070 0.003 0.825-0.227 1.186-0.838 1.186-0.237 0-0.532-0.055-0.893-0.158-0.232-0.066-0.508-0.203-0.723-0.203-0.051 0-0.099 0.008-0.142 0.027-0.258 0.113-0.506 0.168-0.736 0.168-0.554 0-1.003-0.325-1.232-0.96-0.020-0.054-0.072-0.089-0.13-0.090-0.222-0.004-0.426-0.021-0.619-0.021-0.133 0-0.261 0.008-0.385 0.034-0.691 0.145-1.659 0.139-1.993 0.585-0.747 0.996-1.944 1.702-1.853 3.345 0.085 1.544 0.715 2.547 2.141 2.547 0.103 0 0.211-0.005 0.323-0.016 0.26-0.025 0.544-0.189 0.78-0.189 0.043 0 0.084 0.005 0.123 0.018 0.528 0.172 1.165 0.373 1.469 0.778 0.354 0.471 0.456 1.164 0.564 1.779 0.092 0.525 0.041 1.075 0.045 1.614 0.003 0.336-0.098 0.701 0 1.004 0.344 1.065 0.749 2.109 1.12 3.125 0.016 0.045 0.055 0.078 0.101 0.087 0.151 0.028 0.293 0.042 0.428 0.042 0.743 0 1.261-0.408 1.736-0.991 0.755-0.928 0.682-2.344 1.834-3.045 0.117-0.071 0.124-0.524 0.024-0.718-0.674-1.3 0.184-2.014 0.958-2.829 0.416-0.438 0.712-0.99 1.096-1.587 0.060-0.093-0.007-0.214-0.116-0.214-0.003 0-0.005 0-0.008 0-0.325 0.018-0.63 0.061-0.855 0.061-0.167 0-0.29-0.023-0.345-0.097-0.818-1.101-1.523-2.285-2.261-3.444-0.041-0.065-0.022-0.151 0.044-0.192l0.154-0.096c0.023-0.014 0.048-0.021 0.073-0.021 0.047 0 0.093 0.024 0.119 0.067 0.634 1.048 1.268 2.096 1.906 3.152 0.026 0.043 0.072 0.068 0.12 0.068 0.013 0 0.027-0.002 0.040-0.006 1.38-0.417 2.010-0.88 2.461-1.874 0.028-0.062 0.005-0.133-0.051-0.171-0.217-0.148-0.46-0.37-0.644-0.37-0.018 0-0.035 0.002-0.052 0.007-0.16 0.042-0.297 0.062-0.415 0.062-0.509 0-0.675-0.357-0.802-0.779-0.028-0.093 0.045-0.178 0.132-0.178 0.018 0 0.036 0.004 0.055 0.011 0.686 0.295 1.339 0.68 2.012 0.716 0.972 0.053 1.681 0.34 2.165 0.954 0 0 0 0 0 0 0.14 0.688 0.214 1.401 0.214 2.13 0 5.866-4.755 10.62-10.62 10.62-3.401 0-6.428-1.599-8.372-4.085-0.001-0.033 0.010-0.066 0.032-0.092 0.050-0.060 0.104-0.103 0.164-0.12 0.897-0.251 0.99-0.914 1.053-1.661 0.025-0.294 0.115-0.61 0.266-0.861 0.653-1.083 0.455-1.54-0.854-1.826zM18.697 20.636c-0.151 0.18-0.308 0.439-0.454 0.718-0.265 0.505-1.034 0.351-1.065-0.219-0-0.007-0.001-0.014-0.001-0.020-0.001-0.124 0.002-0.259 0.005-0.401 0.009-0.449 0.020-0.959-0.077-1.51l-0.019-0.111c-0.127-0.735-0.286-1.649-0.879-2.439-0.641-0.852-1.653-1.181-2.323-1.399l-0.029-0.009c-0.217-0.071-0.446-0.107-0.681-0.107-0.418 0-0.753 0.112-0.975 0.186-0.016 0.005-0.035 0.012-0.052 0.017-0.026 0.001-0.051 0.002-0.075 0.002-0.086 0-0.138-0.009-0.163-0.015-0.036-0.057-0.15-0.277-0.18-0.83-0.023-0.422 0.133-0.638 0.757-1.309 0 0 0-0 0-0 0.541-0.521 1.562-0.384 2.276-0.012 0.413 0.215 0.878 0.328 1.381 0.328 0.3 0 0.603-0.042 0.906-0.124 0.062 0.021 0.129 0.043 0.2 0.063 0.047 0.014 0.094 0.026 0.139 0.039 0.138 0.037 0.257 0.123 0.334 0.244 0.343 0.543 1.271 2.009 1.885 2.895 0.145 0.21 0.133 0.491-0.032 0.685-0.272 0.318-0.531 0.679-0.721 1.116-0.228 0.524-0.405 1.29-0.157 2.212z"></path>
</svg>
