<svg
  xmlns="http://www.w3.org/2000/svg"
  width="64"
  height="64"
  viewBox="0 0 64 64"
  fill="black"
  fill-rule="nonzero"
>
  <path d="M57.41 57.41c-.78.78-2.05.78-2.83 0L43.26 46.09c-1.62.57-3.29 1.01-4.97 1.32a34 34 0 0 1-6.29.58c-5.7 0-11.09-1.41-15.9-3.91-4.94-2.58-9.27-6.31-12.68-10.85-.09-.12-.17-.25-.23-.38-.13-.27-.19-.56-.19-.85 0-.29.06-.58.19-.85.06-.13.14-.26.23-.38 2.06-2.79 4.49-5.26 7.21-7.35a37.4 37.4 0 0 1 6.14-3.84L6.59 9.4c-.78-.78-.78-2.05 0-2.83.78-.78 2.05-.78 2.83 0L21.2 18.35c.41.19.76.53.97.97l4.88 4.88.01.01 4.93 4.93.03.03 2.79 2.79.03.03 4.93 4.93.01.01 17.63 17.63c.78.78.78 2.05 0 2.83zM38.27 41.1a11.13 11.13 0 0 1-3.4 1.68c-1.86.55-3.87.6-5.82.1-1.95-.5-3.68-1.51-5.06-2.88a11.028 11.028 0 0 1-2.88-5.06c-.5-1.95-.44-3.96.1-5.82.36-1.21.92-2.37 1.68-3.4l-3.13-3.13a33.084 33.084 0 0 0-12.23 9.4c2.91 3.56 6.45 6.48 10.42 8.55C22.21 42.76 26.97 44 32 44c1.87 0 3.73-.17 5.56-.52.85-.16 1.68-.35 2.51-.58zM25.36 18.63c-.16-1.09.59-2.11 1.68-2.27a34.514 34.514 0 0 1 4.95-.36c5.69 0 11.09 1.41 15.9 3.91 4.94 2.58 9.27 6.31 12.68 10.85.09.12.17.25.23.38.13.27.19.56.19.85 0 .29-.06.58-.19.85-.06.13-.14.26-.23.38-1.34 1.8-2.83 3.47-4.46 5a39 39 0 0 1-5.31 4.17 2.004 2.004 0 0 1-2.18-3.36c1.69-1.1 3.28-2.35 4.75-3.73 1.1-1.03 2.13-2.14 3.08-3.31-2.91-3.56-6.45-6.48-10.41-8.54-4.26-2.22-9.02-3.46-14.05-3.46-.73 0-1.46.02-2.19.08-.73.05-1.45.13-2.17.24-1.09.16-2.11-.59-2.27-1.68zm-.3 11.62a7.031 7.031 0 0 0-.07 3.7c.32 1.24.96 2.34 1.83 3.22.87.87 1.98 1.52 3.22 1.83 1.24.32 2.52.28 3.7-.07a7.05 7.05 0 0 0 1.64-.72l-2.42-2.42c-.33.07-.68.1-1.01.09-.64-.02-1.28-.21-1.86-.54-.34-.09-.66-.26-.92-.52s-.44-.58-.52-.92c-.33-.57-.51-1.21-.54-1.86-.01-.34.02-.68.09-1.01l-2.42-2.42c-.31.52-.55 1.07-.72 1.64zM41.08 34c-1.1.02-2.01-.87-2.03-1.97-.01-.54-.08-1.08-.21-1.6s-.32-1.03-.57-1.51c-.51-.98-.12-2.19.86-2.69.98-.51 2.19-.12 2.69.86.39.76.69 1.55.89 2.37.21.82.32 1.66.33 2.52.02 1.1-.87 2.01-1.97 2.03z" />
</svg>
