<svg
  xmlns="http://www.w3.org/2000/svg"
  width="64"
  height="64"
  viewBox="0 0 64 64"
  fill="black"
  fill-rule="nonzero"
>
  <path d="M16.1 19.91C20.91 17.41 26.3 16 32 16c5.7 0 11.09 1.41 15.9 3.91 4.94 2.58 9.27 6.31 12.68 10.85.09.12.17.25.24.38.13.27.19.56.19.85a1.951 1.951 0 0 1-.43 1.23c-3.41 4.55-7.73 8.28-12.68 10.85-4.81 2.5-10.2 3.91-15.9 3.91-5.7 0-11.09-1.41-15.9-3.91-4.94-2.58-9.27-6.31-12.68-10.85a3.03 3.03 0 0 1-.24-.38c-.13-.27-.19-.56-.19-.85a1.951 1.951 0 0 1 .43-1.23c3.41-4.55 7.73-8.28 12.68-10.85zm29.95 3.55C41.79 21.24 37.03 20 32 20c-5.03 0-9.79 1.24-14.05 3.46-3.96 2.06-7.5 4.98-10.41 8.54 2.91 3.56 6.45 6.48 10.41 8.54C22.21 42.76 26.97 44 32 44c5.03 0 9.79-1.24 14.05-3.46 3.96-2.06 7.5-4.98 10.41-8.54-2.91-3.56-6.45-6.48-10.41-8.54zm-12-.45c-.01 1.1-.91 1.99-2.01 1.99-1.57-.01-3.04.5-4.23 1.39-1.19.89-2.1 2.16-2.54 3.66-.44 1.5-.35 3.06.18 4.45a7.006 7.006 0 0 0 7.16 4.48c1.48-.13 2.92-.73 4.08-1.79a6.994 6.994 0 0 0 2.18-3.89c.28-1.46.09-3.01-.61-4.41a1.998 1.998 0 1 1 3.58-1.78c1.09 2.2 1.39 4.64.95 6.93a11.03 11.03 0 0 1-3.42 6.11c-1.82 1.65-4.09 2.6-6.41 2.81-2.33.21-4.72-.32-6.81-1.63-2.09-1.3-3.61-3.22-4.45-5.4-.83-2.18-.97-4.63-.29-6.99.69-2.36 2.12-4.35 3.99-5.75 1.87-1.4 4.19-2.2 6.65-2.18 1.1.01 1.99.91 1.99 2.01zm-4.88 11.82a4.007 4.007 0 0 1 0-5.66 4.007 4.007 0 0 1 5.66 0 4.007 4.007 0 0 1 0 5.66 4.007 4.007 0 0 1-5.66 0z" />
</svg>
