<svg
  xmlns="http://www.w3.org/2000/svg"
  width="64"
  height="64"
  viewBox="0 0 64 64"
  fill="black"
  fill-rule="nonzero"
>
  <path d="M4 42c0-1.27.2-2.49.56-3.64l5.51-19.47A12.016 12.016 0 0 1 21.68 10H24c1.1 0 2 .9 2 2s-.9 2-2 2h-2.32c-1.81 0-3.52.6-4.88 1.65a7.968 7.968 0 0 0-2.86 4.29c0 .01-.01.02-.01.03l-3.18 11.25c1.59-.78 3.37-1.21 5.26-1.21a12.022 12.022 0 0 1 10.51 6.18 7.956 7.956 0 0 1 5.5-2.19c2.13 0 4.07.83 5.5 2.19.55-.99 1.23-1.89 2.02-2.67 2.17-2.17 5.17-3.51 8.49-3.51 1.99 0 3.86.48 5.52 1.34l-3.23-11.37c0-.01-.01-.02-.01-.03a7.979 7.979 0 0 0-2.86-4.28 7.96 7.96 0 0 0-4.87-1.66h-2.32c-1.1 0-2-.9-2-2s.9-2 2-2h2.32a11.994 11.994 0 0 1 11.59 8.88l5.56 19.57c.09.33.1.66.03.98a12.022 12.022 0 0 1-3.23 11.06 11.962 11.962 0 0 1-8.49 3.51c-3.31 0-6.32-1.35-8.49-3.51a11.962 11.962 0 0 1-3.51-8.49c0-1.11-.45-2.1-1.17-2.83a3.966 3.966 0 0 0-2.83-1.17c-1.11 0-2.1.45-2.83 1.17-.73.73-1.17 1.72-1.17 2.83 0 3.31-1.35 6.32-3.51 8.49a11.962 11.962 0 0 1-8.49 3.51c-3.31 0-6.32-1.35-8.49-3.51a11.962 11.962 0 0 1-3.51-8.49zm6.34 5.66A7.973 7.973 0 0 0 16 50c2.21 0 4.21-.89 5.66-2.34A7.973 7.973 0 0 0 24 42c0-2.21-.89-4.21-2.34-5.66A7.973 7.973 0 0 0 16 34c-2.21 0-4.21.89-5.66 2.34-.88.88-1.56 1.97-1.95 3.18l-.01.03c-.01.04-.03.09-.04.13C8.12 40.42 8 41.19 8 42c0 2.21.89 4.21 2.34 5.66zm32 0A7.973 7.973 0 0 0 48 50c2.21 0 4.21-.89 5.66-2.34A7.973 7.973 0 0 0 56 42c0-2.21-.89-4.21-2.34-5.66A7.973 7.973 0 0 0 48 34c-2.21 0-4.21.89-5.66 2.34A7.973 7.973 0 0 0 40 42c0 2.21.89 4.21 2.34 5.66z" />
</svg>
