<svg
  xmlns="http://www.w3.org/2000/svg"
  width="64"
  height="64"
  viewBox="0 0 64 64"
  fill="black"
  fill-rule="nonzero"
>
  <path d="M55 55a7 7 0 0 1-7 7H16a7 7 0 0 1-7-7V9a7 7 0 0 1 7-7h21c.55 0 1.05.22 1.41.59l16 16c.38.38.59.88.59 1.41zM16 6c-.83 0-1.58.33-2.12.88C13.33 7.43 13 8.17 13 9v46c0 .83.33 1.58.88 2.12.55.55 1.29.88 2.12.88h32c.83 0 1.58-.33 2.12-.88.55-.55.88-1.29.88-2.12V22H37c-1.1 0-2-.9-2-2V6zm23 12h9.17L39 8.83zM26.79 42.29c.27-.76.52-1.56.74-2.39.19-.69.35-1.38.49-2.06-1.62-1.91-2.89-3.82-3.53-5.54-.5-1.33-.79-3 .01-4.49.54-1.01 1.45-1.67 2.5-2.03.89-.31 1.89-.37 2.85.06 1.41.63 2.06 2.01 2.37 3.13.56 1.98.51 4.77.08 7.65 1.18 1.25 2.54 2.52 4.02 3.74.9.74 1.82 1.45 2.73 2.09 2.58.73 5.07 1.97 7.24 3.92.09.07.16.15.23.24.19.23.32.49.4.76.07.27.09.56.04.86-.04.23-.12.45-.24.66-.12.21-.27.39-.45.54-.23.19-.49.32-.76.4a2.06 2.06 0 0 1-1.18-.04c-2.19-.71-4.61-2.02-6.97-3.63-2.53-.62-5.2-.66-7.68-.32-.84 1.88-1.85 3.59-3.03 4.85-1.06 1.13-2.43 2.09-4.1 2.26-.74.07-1.48-.01-2.21-.27-.82-.29-1.62-.7-2.22-1.35-.44-.48-.77-1.08-.87-1.78-.19-1.29.43-2.36 1.04-3.07 1.31-1.53 3.75-2.8 6.44-3.64.65-.2 1.33-.39 2.05-.55zm1.83-10.55c-.03-.67-.12-1.24-.24-1.7a2.64 2.64 0 0 0-.16-.44c-.16.07-.18.11-.18.11s-.02.03-.02.15c-.01.2.04.54.23 1.04.1.27.23.55.38.84zm-4.3 15.5c-1.31.55-2.25 1.13-2.76 1.61.03.01.07.02.1.04.19.07.35.08.5.07.34-.03.88-.26 1.58-1.02.2-.21.39-.44.58-.7zm6.99-5.97c-.04.13-.08.26-.11.4l.51-.03-.4-.37z" />
</svg>
