<svg
  xmlns="http://www.w3.org/2000/svg"
  width="64"
  height="64"
  viewBox="0 0 64 64"
  fill="black"
  fill-rule="nonzero"
>
  <path d="M55 55a7 7 0 0 1-7 7H16a7 7 0 0 1-7-7V9a7 7 0 0 1 7-7h21c.55 0 1.05.22 1.41.59l16 16c.38.38.59.88.59 1.41zM16 6c-.83 0-1.58.33-2.12.88C13.33 7.43 13 8.17 13 9v46c0 .83.33 1.58.88 2.12.55.55 1.29.88 2.12.88h32c.83 0 1.58-.33 2.12-.88.55-.55.88-1.29.88-2.12V22H37c-1.1 0-2-.9-2-2V6zm23 12h9.17L39 8.83zM17 52V28c0-1.1.9-2 2-2h26c1.1 0 2 .9 2 2v24c0 1.1-.9 2-2 2H19c-1.1 0-2-.9-2-2zm26-2v-2.95l-3.79-3.24L33.87 50zm0-20H21v20h7.58l8.9-10.31c.72-.83 1.98-.93 2.81-.21l2.7 2.31zm-20 7.5a5.495 5.495 0 0 1 5.5-5.5 5.495 5.495 0 0 1 5.5 5.5 5.495 5.495 0 0 1-5.5 5.5 5.495 5.495 0 0 1-5.5-5.5zm4.44 1.06c.27.27.65.44 1.06.44a1.505 1.505 0 0 0 1.5-1.5 1.505 1.505 0 0 0-1.5-1.5 1.505 1.505 0 0 0-1.5 1.5c0 .41.17.79.44 1.06z" />
</svg>
