<svg
  xmlns="http://www.w3.org/2000/svg"
  width="64"
  height="64"
  viewBox="0 0 64 64"
  fill="black"
  fill-rule="nonzero"
>
  <path d="M55 55a7 7 0 0 1-7 7H16a7 7 0 0 1-7-7V9a7 7 0 0 1 7-7h21c.55 0 1.05.22 1.41.59l16 16c.38.38.59.88.59 1.41zM16 6c-.83 0-1.58.33-2.12.88C13.33 7.43 13 8.17 13 9v46c0 .83.33 1.58.88 2.12.55.55 1.29.88 2.12.88h32c.83 0 1.58-.33 2.12-.88.55-.55.88-1.29.88-2.12V22H37c-1.1 0-2-.9-2-2V6zm23 12h9.17L39 8.83zm4 17c0 1.1-.9 2-2 2h-7v7c0 1.1-.9 2-2 2s-2-.9-2-2v-7h-7c-1.1 0-2-.9-2-2s.9-2 2-2h7v-7c0-1.1.9-2 2-2s2 .9 2 2v7h7c1.1 0 2 .9 2 2zm0 17c0 1.1-.9 2-2 2H23c-1.1 0-2-.9-2-2s.9-2 2-2h18c1.1 0 2 .9 2 2z" />
</svg>
