<svg
  xmlns="http://www.w3.org/2000/svg"
  width="64"
  height="64"
  viewBox="0 0 64 64"
  fill="black"
  fill-rule="nonzero"
>
  <path d="M50 55c0 1.07-.24 2.09-.67 3H53c.83 0 1.58-.33 2.12-.88.55-.55.88-1.29.88-2.12V18.83L43.17 6h-6.34l12.59 12.59c.38.38.59.88.59 1.41zm-39 7a7 7 0 0 1-7-7V9a7 7 0 0 1 7-7h33c.53 0 1.04.21 1.41.59l14 14c.38.38.59.88.59 1.41v37a7 7 0 0 1-7 7zm0-56c-.83 0-1.58.33-2.12.88C8.33 7.43 8 8.17 8 9v46c0 .83.33 1.58.88 2.12.55.55 1.29.88 2.12.88h32c.83 0 1.58-.33 2.12-.88.55-.55.88-1.29.88-2.12V22H32c-1.1 0-2-.9-2-2V6zm23 12h9.17L34 8.83z" />
</svg>
