<svg
  xmlns="http://www.w3.org/2000/svg"
  width="64"
  height="64"
  viewBox="0 0 64 64"
  fill="black"
  fill-rule="nonzero"
>
  <path d="M55 55a7 7 0 0 1-7 7H16a7 7 0 0 1-7-7V9a7 7 0 0 1 7-7h21c.55 0 1.05.22 1.41.59l16 16c.38.38.59.88.59 1.41zM16 6c-.83 0-1.58.33-2.12.88C13.33 7.43 13 8.17 13 9v46c0 .83.33 1.58.88 2.12.55.55 1.29.88 2.12.88h32c.83 0 1.58-.33 2.12-.88.55-.55.88-1.29.88-2.12V22H37c-1.1 0-2-.9-2-2V6zm23 12h9.17L39 8.83zM17.02 32.61c.17-1.73 1.4-2.97 2.64-3.79C22.38 27.02 27.03 26 32 26s9.62 1.02 12.34 2.82c1.24.82 2.47 2.07 2.64 3.79.01.13.02.26.02.39v14c0 .13-.01.26-.02.39-.17 1.73-1.4 2.98-2.64 3.8-2.72 1.8-7.37 2.82-12.34 2.82s-9.62-1.02-12.34-2.82c-1.24-.82-2.47-2.07-2.64-3.8-.01-.13-.02-.26-.02-.39V33c0-.13.01-.26.02-.39zM32 40c-4.23 0-8.23-.74-11-2.07v2.06c0 .01.01.05.07.13.11.16.34.41.79.71 1.78 1.18 5.52 2.16 10.14 2.16 4.62 0 8.36-.98 10.14-2.16.45-.3.69-.55.79-.71.06-.09.07-.13.07-.13v-2.06C40.23 39.26 36.23 40 32 40zm-11-7c0 .01.01.05.07.13.11.16.34.41.79.71C23.64 35.02 27.38 36 32 36c4.62 0 8.35-.98 10.14-2.16.45-.3.69-.55.79-.71.05-.08.06-.12.07-.13 0-.01-.01-.05-.07-.13-.11-.16-.34-.41-.79-.71C40.36 30.98 36.62 30 32 30c-4.62 0-8.35.98-10.14 2.16-.45.3-.69.55-.79.71-.05.08-.06.12-.07.13zm11 14c-4.23 0-8.23-.74-11-2.07v2.06c0 .01.01.05.07.13.11.16.34.41.79.71 1.78 1.18 5.52 2.16 10.14 2.16 4.62 0 8.36-.98 10.14-2.16.45-.3.69-.55.79-.71.06-.09.07-.13.07-.13v-2.06C40.23 46.26 36.23 47 32 47z" />
</svg>
