<svg
  xmlns="http://www.w3.org/2000/svg"
  width="64"
  height="64"
  viewBox="0 0 64 64"
  fill="black"
  fill-rule="nonzero"
>
  <path d="M55 55a7 7 0 0 1-7 7H16a7 7 0 0 1-7-7V9a7 7 0 0 1 7-7h21c.55 0 1.05.22 1.41.59l16 16c.38.38.59.88.59 1.41zM16 6c-.83 0-1.58.33-2.12.88C13.33 7.43 13 8.17 13 9v46c0 .83.33 1.58.88 2.12.55.55 1.29.88 2.12.88h32c.83 0 1.58-.33 2.12-.88.55-.55.88-1.29.88-2.12V22H37c-1.1 0-2-.9-2-2v-3.27c-.29.17-.64.27-1 .27h-3c-1.1 0-2-.9-2-2s.9-2 2-2h3c.36 0 .71.1 1 .27V6zm23 12h9.17L39 8.83zm-14-8c0-1.1.9-2 2-2h3c1.1 0 2 .9 2 2s-.9 2-2 2h-3c-1.1 0-2-.9-2-2zm0 10c0-1.1.9-2 2-2h3c1.1 0 2 .9 2 2s-.9 2-2 2h-3c-1.1 0-2-.9-2-2zm4 5c0-1.1.9-2 2-2h3c1.1 0 2 .9 2 2s-.9 2-2 2h-3c-1.1 0-2-.9-2-2zm-4 5c0-1.1.9-2 2-2h3c1.1 0 2 .9 2 2s-.9 2-2 2h-3c-1.1 0-2-.9-2-2zm8.99 15.15L32.36 37h-2.72l-1.63 8.15c0 .04.01.1.02.16.02.19.07.42.14.68.11.38.28.76.52 1.07.34.45.95.94 2.31.94s1.96-.49 2.31-.94c.24-.31.41-.69.52-1.07.08-.26.12-.49.14-.68.01-.07.02-.12.02-.16zm1.97-10.54l2 10c.03.13.04.26.04.39 0 .07.02 2.48-1.51 4.49C35.39 50.93 33.6 52 31 52s-4.38-1.07-5.49-2.51C23.98 47.49 24 45.07 24 45c0-.13.01-.26.04-.39l2-10A2.01 2.01 0 0 1 28 33h6a2 2 0 0 1 1.96 1.61z" />
</svg>
