<svg
  xmlns="http://www.w3.org/2000/svg"
  width="64"
  height="64"
  viewBox="0 0 64 64"
  fill="black"
  fill-rule="nonzero"
>
  <path d="M55 55a7 7 0 0 1-7 7H16a7 7 0 0 1-7-7V9a7 7 0 0 1 7-7h21c.55 0 1.05.22 1.41.59l16 16c.38.38.59.88.59 1.41zM16 6c-.83 0-1.58.33-2.12.88C13.33 7.43 13 8.17 13 9v46c0 .83.33 1.58.88 2.12.55.55 1.29.88 2.12.88h32c.83 0 1.58-.33 2.12-.88.55-.55.88-1.29.88-2.12V22H37c-1.1 0-2-.9-2-2V6zm23 12h9.17L39 8.83zM26.37 48.97c-.78.78-2.05.78-2.83 0l-5.96-5.96c-.78-.78-.78-2.05 0-2.83l7.04-7.04c.78-.78 2.05-.78 2.83 0 .78.78.78 2.05 0 2.83l-5.63 5.63 4.55 4.55c.78.78.78 2.05 0 2.83zm11.25-14.73c.78-.78 2.05-.78 2.83 0l5.96 5.95c.38.37.59.88.59 1.41 0 .53-.21 1.04-.58 1.41l-7.04 7.05c-.78.78-2.05.78-2.83 0-.78-.78-.78-2.05 0-2.83l5.63-5.63-4.54-4.54c-.78-.78-.78-2.05 0-2.83zm-1.77-4.84c1.05.33 1.64 1.46 1.31 2.51l-6.5 20.59a2.009 2.009 0 0 1-2.51 1.31 2.009 2.009 0 0 1-1.31-2.51l6.5-20.59a2.009 2.009 0 0 1 2.51-1.31z" />
</svg>
