<svg
  xmlns="http://www.w3.org/2000/svg"
  width="64"
  height="64"
  viewBox="0 0 64 64"
  fill="black"
  fill-rule="nonzero"
>
  <path d="M55 55a7 7 0 0 1-7 7H16a7 7 0 0 1-7-7V9a7 7 0 0 1 7-7h21c.55 0 1.05.22 1.41.59l16 16c.38.38.59.88.59 1.41zM16 6c-.83 0-1.58.33-2.12.88C13.33 7.43 13 8.17 13 9v46c0 .83.33 1.58.88 2.12.55.55 1.29.88 2.12.88h32c.83 0 1.58-.33 2.12-.88.55-.55.88-1.29.88-2.12V22H37c-1.1 0-2-.9-2-2V6zm23 12h9.17L39 8.83zm-2.59 31.41c-.78.78-2.05.78-2.83 0 0 0-.07-.07-.24-.2a7.3 7.3 0 0 0-.56-.39c-.34-.2-.71-.37-1.08-.45-.51-.12-1.03-.09-1.6.29-.68.46-.63.66-.67 1.12-.01.19-.04.94-.41 1.62-.29.52-.71.91-1.24 1.17-.71.35-1.52.42-2.29.42-1.02 0-1.9-.34-2.59-.93-.83-.7-1.26-1.65-1.51-2.24-.07-.16-.13-.33-.19-.47-.06-.14-.11-.27-.16-.38-.21.13-.47.31-.81.58a2 2 0 0 1-2.81-.31 2 2 0 0 1 .31-2.81c1.02-.81 2.04-1.45 3.09-1.62.74-.12 1.48-.02 2.15.36 1.24.71 1.74 2.23 1.93 2.7.06.15.11.28.16.4.23.54.36.7.41.74-.01-.01-.02-.02 0-.02.13-1.02.54-2.43 2.39-3.66 1.63-1.09 3.32-1.18 4.71-.86 2.23.51 3.77 2.07 3.82 2.11.78.78.78 2.05 0 2.83zM47 39c0 1.1-.9 2-2 2H19c-1.1 0-2-.9-2-2s.9-2 2-2h26c1.1 0 2 .9 2 2zm0-8c0 1.1-.9 2-2 2H19c-1.1 0-2-.9-2-2s.9-2 2-2h26c1.1 0 2 .9 2 2zM30 17c0 1.1-.9 2-2 2h-9c-1.1 0-2-.9-2-2s.9-2 2-2h9c1.1 0 2 .9 2 2zm-3 7c0 1.1-.9 2-2 2h-6c-1.1 0-2-.9-2-2s.9-2 2-2h6c1.1 0 2 .9 2 2z" />
</svg>
