<svg
  xmlns="http://www.w3.org/2000/svg"
  width="64"
  height="64"
  viewBox="0 0 64 64"
  fill="black"
  fill-rule="nonzero"
>
  <path d="M26 44c0-4.97 2.02-9.47 5.27-12.73C34.53 28.01 39.03 26 44 26c4.97 0 9.47 2.02 12.73 5.27C59.99 34.53 62 39.03 62 44c0 4.97-2.02 9.47-5.27 12.73A17.941 17.941 0 0 1 44 62c-4.97 0-9.47-2.02-12.73-5.27A17.941 17.941 0 0 1 26 44zm8.1 9.9c2.54 2.54 6.03 4.1 9.9 4.1s7.36-1.56 9.9-4.1c2.54-2.54 4.1-6.03 4.1-9.9s-1.56-7.36-4.1-9.9C51.36 31.56 47.87 30 44 30s-7.36 1.56-9.9 4.1C31.56 36.64 30 40.13 30 44s1.56 7.36 4.1 9.9zM37 22c-1.1 0-2-.9-2-2V6H16c-.83 0-1.58.33-2.12.88C13.33 7.43 13 8.17 13 9v46c0 .83.33 1.58.88 2.12.55.55 1.29.88 2.12.88h12.91c1.1 0 2 .9 2 2s-.9 2-2 2H16a7 7 0 0 1-7-7V9a7 7 0 0 1 7-7h21c.55 0 1.05.22 1.41.59l16 16c.38.38.59.88.59 1.41v3.93c0 1.1-.9 2-2 2s-2-.9-2-2V22zm2-4h9.17L39 8.83zm5 16c1.1 0 2 .9 2 2v11.17l4.59-4.59c.78-.78 2.05-.78 2.83 0 .78.78.78 2.05 0 2.83l-8 8c-.19.19-.41.34-.65.43-.24.1-.49.15-.77.15a1.994 1.994 0 0 1-1.42-.58l-8-8c-.78-.78-.78-2.05 0-2.83.78-.78 2.05-.78 2.83 0L42 47.17V36c0-1.1.9-2 2-2z" />
</svg>
