<svg
  xmlns="http://www.w3.org/2000/svg"
  width="64"
  height="64"
  viewBox="0 0 64 64"
  fill="black"
  fill-rule="nonzero"
>
  <path d="M55.25 42.56c-.12.09-3.95 3.14-9.8 3.85-4.14.5-9.21-.18-14.56-3.75-4.5-3-8.6-3.5-11.86-3.1-3.35.41-5.85 1.74-7.03 2.48V58c0 1.1-.9 2-2 2s-2-.9-2-2V9c0-.61.28-1.18.75-1.56.12-.09 3.95-3.14 9.8-3.85 4.14-.5 9.21.18 14.56 3.75 4.5 3 8.6 3.5 11.86 3.1 4.75-.57 7.78-3 7.78-3 .6-.48 1.42-.57 2.12-.24C55.56 7.53 56 8.23 56 9v32c0 .61-.28 1.18-.75 1.56zM52 39.96V12.5c-1.66.79-3.9 1.59-6.55 1.91-4.14.5-9.21-.18-14.56-3.75-4.5-3-8.6-3.5-11.86-3.1-3.35.41-5.85 1.74-7.03 2.48V37.5c1.66-.79 3.9-1.59 6.55-1.91 4.14-.5 9.21.18 14.56 3.75 4.5 3 8.6 3.5 11.86 3.1 3.35-.41 5.85-1.74 7.03-2.48z" />
</svg>
