<svg
  xmlns="http://www.w3.org/2000/svg"
  width="64"
  height="64"
  viewBox="0 0 64 64"
  fill="black"
  fill-rule="nonzero"
>
  <path d="M51 58H13a7 7 0 0 1-7-7V13a7 7 0 0 1 7-7h35c.53 0 1.04.21 1.41.59l8 8c.38.38.59.88.59 1.41v35a7 7 0 0 1-7 7zm2.12-4.88c.55-.55.88-1.29.88-2.12V16.83L47.17 10H45v14c0 1.1-.9 2-2 2H20c-1.1 0-2-.9-2-2V10h-5c-.83 0-1.58.33-2.12.88-.55.55-.88 1.29-.88 2.12v38c0 .83.33 1.58.88 2.12.55.55 1.29.88 2.12.88h1V32c0-1.1.9-2 2-2h32c1.1 0 2 .9 2 2v22h1c.83 0 1.58-.33 2.12-.88zM22 22h19V10h-2v8c0 1.1-.9 2-2 2h-3c-1.1 0-2-.9-2-2v-8H22zm24 12H18v20h28z" />
</svg>
