<svg
  xmlns="http://www.w3.org/2000/svg"
  width="64"
  height="64"
  viewBox="0 0 64 64"
  fill="black"
  fill-rule="nonzero"
>
  <path d="M26 8c0 1.1-.9 2-2 2h-6c-2.21 0-4.21.89-5.66 2.34A7.973 7.973 0 0 0 10 18v6c0 1.1-.9 2-2 2s-2-.9-2-2v-6c0-3.31 1.35-6.32 3.51-8.49C11.68 7.34 14.68 6 18 6h6c1.1 0 2 .9 2 2zM8 38c1.1 0 2 .9 2 2v6c0 2.21.89 4.21 2.34 5.66A7.973 7.973 0 0 0 18 54h6c1.1 0 2 .9 2 2s-.9 2-2 2h-6c-3.31 0-6.32-1.35-8.49-3.51A11.962 11.962 0 0 1 6 46v-6c0-1.1.9-2 2-2zm30 18c0-1.1.9-2 2-2h6c2.21 0 4.21-.89 5.66-2.34A7.973 7.973 0 0 0 54 46v-6c0-1.1.9-2 2-2s2 .9 2 2v6c0 3.31-1.35 6.32-3.51 8.49A11.962 11.962 0 0 1 46 58h-6c-1.1 0-2-.9-2-2zm18-30c-1.1 0-2-.9-2-2v-6c0-2.21-.89-4.21-2.34-5.66A7.973 7.973 0 0 0 46 10h-6c-1.1 0-2-.9-2-2s.9-2 2-2h6c3.31 0 6.32 1.35 8.49 3.51C56.66 11.68 58 14.68 58 18v6c0 1.1-.9 2-2 2z" />
</svg>
