<svg
  xmlns="http://www.w3.org/2000/svg"
  width="64"
  height="64"
  viewBox="0 0 64 64"
  fill="black"
  fill-rule="nonzero"
>
  <path d="M53 24H34c-.54 0-1.05-.22-1.43-.6l-7.7-7.87a3.19 3.19 0 0 1-.26-.26l-2.21-2.26H10.99c-.83 0-1.58.33-2.12.88-.55.55-.88 1.29-.88 2.12v32c0 .83.33 1.58.88 2.12.55.55 1.29.88 2.12.88h42c.83 0 1.58-.33 2.12-.88.55-.55.88-1.29.88-2.12v-21c0-.83-.33-1.58-.88-2.12-.55-.55-1.29-.88-2.12-.88zm7 24a7 7 0 0 1-7 7H11a7 7 0 0 1-7-7V16a7 7 0 0 1 7-7h12.25c.54 0 1.05.22 1.43.6l2.34 2.4H53a7 7 0 0 1 7 7zM34.84 20H53c1.07 0 2.09.24 3 .67V19c0-.83-.33-1.58-.88-2.12-.55-.55-1.29-.88-2.12-.88H30.93z" />
</svg>
