<!-- Generated by IcoMoon.io -->
<svg version="1.1" xmlns="http://www.w3.org/2000/svg" width="32" height="32" viewBox="0 0 32 32">
<title>folder</title>
<path d="M29.333 3.551h-7.338c-1.473 0-2.797 0.897-3.344 2.264v0c-0.114 0.286-0.391 0.473-0.699 0.473h-13.49c-1.492 0-2.701 1.209-2.701 2.701v7.9h0.005v8.881c0 0.497 0.403 0.9 0.9 0.9h26.667c0.497 0 0.9-0.403 0.9-0.9v-21.319c0-0.497-0.403-0.9-0.9-0.9zM4.463 8.089h12.167c0.533 0 0.897 0.538 0.699 1.032l-0.876 2.19c-0.273 0.684-0.936 1.132-1.672 1.132h-9.413c-0.247 0-0.488 0.025-0.721 0.072-0.559 0.114-1.085-0.301-1.085-0.871v-2.655c0-0.497 0.403-0.9 0.9-0.9zM27.68 24.87h-23.36c-0.416 0-0.753-0.337-0.753-0.753v-8.072c0-0.995 0.806-1.801 1.801-1.801h9.363c0.652 0 1.298-0.159 1.861-0.488 0.701-0.409 1.235-1.029 1.534-1.776l2.198-5.496c0.273-0.684 0.936-1.132 1.672-1.132h5.685c0.416 0 0.753 0.337 0.753 0.753v18.012c0 0.416-0.337 0.753-0.753 0.753z"></path>
</svg>
