<svg
  xmlns="http://www.w3.org/2000/svg"
  width="64"
  height="64"
  viewBox="0 0 64 64"
  fill="black"
  fill-rule="nonzero"
>
  <path d="M16.24 49c0 1.1-.9 2-2 2H11a7 7 0 0 1-7-7V12a7 7 0 0 1 7-7h12.25c.54 0 1.05.22 1.43.6L27.02 8H53a7 7 0 0 1 7 7v12c0 1.1-.9 2-2 2s-2-.9-2-2v-4c0-.83-.33-1.58-.88-2.12-.55-.55-1.29-.88-2.12-.88H34c-.54 0-1.05-.22-1.43-.6l-7.7-7.87a3.19 3.19 0 0 1-.26-.26L22.4 9.01H10.99c-.83 0-1.58.33-2.12.88-.55.55-.88 1.29-.88 2.12v32c0 .83.33 1.58.88 2.12.55.55 1.29.88 2.12.88h3.24c1.1 0 2 .9 2 2zm18.6-33H53c1.07 0 2.09.24 3 .67V15c0-.83-.33-1.58-.88-2.12-.55-.55-1.29-.88-2.12-.88H30.93zm21.47 20.12h-14c-.54 0-1.05-.22-1.43-.6L33.51 28h-8.16c-.47 0-.89.19-1.2.49-.31.31-.49.73-.49 1.2v23.62c0 .46.18.88.49 1.19.3.31.71.49 1.17.5h30.99c.47 0 .89-.19 1.2-.49.31-.31.49-.73.49-1.2v-15.5c0-.47-.19-.89-.49-1.2-.31-.31-.73-.49-1.2-.49zm4.02-2.33A5.669 5.669 0 0 1 62 37.81v15.5c0 1.57-.64 3-1.67 4.02A5.669 5.669 0 0 1 56.31 59H25.29a5.657 5.657 0 0 1-3.98-1.69 5.655 5.655 0 0 1-1.64-4V29.69c0-1.57.64-3 1.67-4.02A5.669 5.669 0 0 1 25.36 24h9c.54 0 1.05.22 1.43.6l7.37 7.52h13.16c1.57 0 3 .64 4.02 1.67z" />
</svg>
