<svg
  xmlns="http://www.w3.org/2000/svg"
  width="64"
  height="64"
  viewBox="0 0 64 64"
  fill="black"
  fill-rule="nonzero"
>
  <path d="M25.24 50c0 1.1-.9 2-2 2H11a7 7 0 0 1-7-7V13a7 7 0 0 1 7-7h12.25c.54 0 1.05.22 1.43.6L27.02 9H53a7 7 0 0 1 7 7v8c0 1.1-.9 2-2 2s-2-.9-2-2c0-.83-.33-1.58-.88-2.12-.55-.55-1.29-.88-2.12-.88H34c-.54 0-1.05-.22-1.43-.6l-7.7-7.87a3.19 3.19 0 0 1-.26-.26l-2.21-2.26H10.99c-.83 0-1.58.33-2.12.88-.55.55-.88 1.29-.88 2.12v32c0 .83.33 1.58.88 2.12.55.55 1.29.88 2.12.88h12.24c1.1 0 2 .9 2 2zm9.6-33H53c1.07 0 2.09.24 3 .67V16c0-.83-.33-1.58-.88-2.12-.55-.55-1.29-.88-2.12-.88H30.93zM26 41c0-4.97 2.02-9.47 5.27-12.73C34.53 25.01 39.03 23 44 23c4.97 0 9.47 2.02 12.73 5.27C59.99 31.53 62 36.03 62 41c0 4.97-2.02 9.47-5.27 12.73A17.941 17.941 0 0 1 44 59c-4.97 0-9.47-2.02-12.73-5.27A17.941 17.941 0 0 1 26 41zm8.1 9.9c2.54 2.54 6.03 4.1 9.9 4.1s7.36-1.56 9.9-4.1c2.54-2.54 4.1-6.03 4.1-9.9s-1.56-7.36-4.1-9.9C51.36 28.56 47.87 27 44 27s-7.36 1.56-9.9 4.1C31.56 33.64 30 37.13 30 41s1.56 7.36 4.1 9.9zM53.24 40a1.994 1.994 0 0 1-.58 1.42l-6 6c-.78.78-2.05.78-2.83 0-.78-.78-.78-2.05 0-2.83L46.42 42h-4.17c-.83 0-1.58.33-2.12.88-.55.55-.88 1.29-.88 2.12v1c0 1.1-.9 2-2 2s-2-.9-2-2v-1a7 7 0 0 1 7-7h4.17l-2.59-2.59c-.78-.78-.78-2.05 0-2.83.78-.78 2.05-.78 2.83 0l6 6c.19.19.34.41.43.65.1.24.15.49.15.77z" />
</svg>
