<svg
  xmlns="http://www.w3.org/2000/svg"
  width="64"
  height="64"
  viewBox="0 0 64 64"
  fill="black"
  fill-rule="nonzero"
>
  <path d="M2.88 24.61A28.72 28.72 0 0 1 10 9a2.45 2.45 0 0 1 1.94-.95H12c3.64 0 7.3.17 10.94 0A9.56 9.56 0 0 1 24.28 8 9.93 9.93 0 0 1 31 10.65a1.17 1.17 0 0 0 1.65 0c.8-.61 1.66-1.15 2.45-1.77a3.89 3.89 0 0 1 2.29-.74h14.66a2.4 2.4 0 0 1 1.95.94 28.51 28.51 0 0 1 7.37 19.19c0 .88 0 1.76-.11 2.62v-.11a29.35 29.35 0 0 1-58 3.09v-.19a28.16 28.16 0 0 1-.52-5.53 29.69 29.69 0 0 1 .22-3.68v.14zm47.86-14a.92.92 0 0 0-1.18.31q-8.09 5.73-16.1 11.6c-1.4 1-1.58 1-3 0L14.68 11.13c-.35-.26-.68-.74-1.4-.41 1.15 1.15 2.25 2.22 3.4 3.33s1.09 1.12.12 2.37A18.86 18.86 0 0 0 13 31.9v-.12a19.38 19.38 0 0 0 35.58 6.65l.05-.09a19.13 19.13 0 0 0-1.57-22c-.7-.86-.63-1.42.15-2.06 1.23-1.13 2.38-2.34 3.58-3.51z" />
</svg>
