<svg
  xmlns="http://www.w3.org/2000/svg"
  width="64"
  height="64"
  viewBox="0 0 64 64"
  fill="black"
  fill-rule="nonzero"
>
  <path d="M3 32c0-8.01 3.25-15.26 8.49-20.51C16.74 6.24 23.99 3 32 3c8.01 0 15.26 3.25 20.51 8.49C57.76 16.74 61 23.99 61 32c0 8.01-3.25 15.26-8.49 20.51A28.907 28.907 0 0 1 32 61c-8.01 0-15.26-3.25-20.51-8.49A28.907 28.907 0 0 1 3 32zm11.32 17.68c1.94 1.94 4.19 3.56 6.68 4.78V53c0-1.1.45-2.11 1.17-2.83A3.99 3.99 0 0 1 25 49h14c1.1 0 2.11.45 2.83 1.17A3.99 3.99 0 0 1 43 53v1.46c2.49-1.22 4.74-2.84 6.68-4.78A24.9 24.9 0 0 0 57 32c0-6.9-2.8-13.15-7.32-17.68A24.9 24.9 0 0 0 32 7c-6.9 0-13.15 2.8-17.68 7.32A24.9 24.9 0 0 0 7 32c0 6.9 2.8 13.15 7.32 17.68zM32 57c2.43 0 4.78-.35 7-.99V53H25v3.01c2.22.65 4.57.99 7 .99zm-8-25c0-2.21.9-4.21 2.34-5.66A7.973 7.973 0 0 1 32 24c1.48 0 2.87.4 4.06 1.11l7.96-7.96c.78-.78 2.05-.78 2.83 0 .78.78.78 2.05 0 2.83l-7.96 7.96C39.59 29.13 40 30.52 40 32c0 2.21-.9 4.21-2.34 5.66A7.973 7.973 0 0 1 32 40c-2.21 0-4.21-.9-5.66-2.34A7.973 7.973 0 0 1 24 32zm5.17 2.83C29.9 35.56 30.89 36 32 36s2.1-.45 2.83-1.17C35.56 34.1 36 33.11 36 32c0-1.07-.42-2.04-1.1-2.76l-.07-.07-.07-.07a4.007 4.007 0 0 0-5.59.07C28.44 29.9 28 30.89 28 32s.45 2.1 1.17 2.83zM19 32c0 1.1-.9 2-2 2h-4c-1.1 0-2-.9-2-2s.9-2 2-2h4c1.1 0 2 .9 2 2zm28 2c-1.1 0-2-.9-2-2s.9-2 2-2h4a2 2 0 0 1 2 2c0 2.79-.55 5.51-1.59 8.04a20.969 20.969 0 0 1-4.55 6.82c-.78.78-2.05.78-2.83 0l-2.83-2.83c-.78-.78-.78-2.05 0-2.83.78-.78 2.05-.78 2.83 0l1.33 1.33c.97-1.23 1.76-2.58 2.35-4.02.59-1.44.99-2.95 1.17-4.51zM32 11c1.1 0 2 .9 2 2v4c0 1.1-.9 2-2 2s-2-.9-2-2v-4c0-1.1.9-2 2-2zm-9.2 11.8c-.78.78-2.05.78-2.83 0l-2.83-2.83c-.78-.78-.78-2.05 0-2.83.78-.78 2.05-.78 2.83 0l2.83 2.83c.78.78.78 2.05 0 2.83zm0 18.4c.78.78.78 2.05 0 2.83l-2.83 2.83c-.78.78-2.05.78-2.83 0-.78-.78-.78-2.05 0-2.83l2.83-2.83c.78-.78 2.05-.78 2.83 0z" />
</svg>
