<!-- Generated by IcoMoon.io -->
<svg version="1.1" xmlns="http://www.w3.org/2000/svg" width="32" height="32" viewBox="0 0 32 32">
<title>gauge</title>
<path d="M29.129 10.453c-0.718-1.697-1.745-3.221-3.053-4.529s-2.832-2.335-4.529-3.053c-1.758-0.743-3.624-1.121-5.547-1.121s-3.789 0.377-5.547 1.121c-1.697 0.718-3.221 1.745-4.529 3.053s-2.335 2.832-3.053 4.529c-0.743 1.758-1.121 3.624-1.121 5.547s0.377 3.789 1.121 5.547c0.718 1.697 1.745 3.221 3.053 4.529s2.832 2.335 4.529 3.053c1.758 0.744 3.624 1.121 5.547 1.121s3.789-0.377 5.547-1.121c1.697-0.718 3.221-1.745 4.529-3.053s2.335-2.832 3.053-4.529c0.744-1.758 1.121-3.624 1.121-5.547s-0.377-3.789-1.121-5.547zM19.112 26.671h-6.225c-0.737 0-1.334-0.597-1.334-1.334s0.597-1.334 1.334-1.334h6.225c0.737 0 1.334 0.597 1.334 1.334s-0.597 1.334-1.334 1.334zM22.361 25.302l-0.615-1.846c-0.245-0.735-0.933-1.231-1.708-1.231h-8.075c-0.775 0-1.463 0.496-1.708 1.231l-0.615 1.846c-0.197 0.591-0.924 0.813-1.41 0.424-2.862-2.29-4.692-5.817-4.678-9.772 0.025-6.877 5.571-12.403 12.449-12.403 6.875 0 12.449 5.574 12.449 12.449 0 3.936-1.826 7.444-4.678 9.725-0.486 0.389-1.213 0.167-1.41-0.424z"></path>
<path d="M25.154 12.438c-0.478 0.137-0.755 0.636-0.617 1.114 0.623 2.171 0.4 4.474-0.626 6.485-0.226 0.443-0.050 0.985 0.393 1.211 0.131 0.067 0.271 0.099 0.409 0.099 0.328 0 0.644-0.179 0.803-0.491 1.235-2.418 1.502-5.188 0.754-7.8-0.137-0.478-0.636-0.755-1.114-0.617z"></path>
<path d="M16 8.008c0.497 0 0.9-0.403 0.9-0.9v-1.779c0-0.497-0.403-0.9-0.9-0.9s-0.9 0.403-0.9 0.9v1.779c0 0.497 0.403 0.9 0.9 0.9z"></path>
<path d="M10.456 6.838c-0.292-0.402-0.855-0.491-1.258-0.199s-0.492 0.855-0.199 1.258l1.045 1.439c0.176 0.242 0.451 0.371 0.729 0.371 0.183 0 0.369-0.056 0.528-0.172 0.402-0.292 0.492-0.855 0.199-1.258l-1.045-1.439z"></path>
<path d="M7.821 12.396l-1.691-0.55c-0.473-0.154-0.981 0.105-1.135 0.578s0.105 0.981 0.578 1.135l1.691 0.55c0.092 0.030 0.186 0.044 0.278 0.044 0.38 0 0.733-0.242 0.856-0.622 0.154-0.473-0.105-0.981-0.578-1.135z"></path>
<path d="M7.265 17.891l-1.691 0.55c-0.473 0.154-0.732 0.662-0.578 1.135 0.124 0.38 0.477 0.622 0.856 0.622 0.092 0 0.186-0.014 0.278-0.044l1.691-0.55c0.473-0.154 0.732-0.662 0.578-1.135s-0.662-0.732-1.135-0.578z"></path>
<path d="M20.698 9.535c0.16 0.116 0.345 0.172 0.529 0.172 0.278 0 0.553-0.129 0.729-0.371l1.045-1.439c0.292-0.402 0.203-0.965-0.199-1.258s-0.965-0.203-1.258 0.199l-1.045 1.439c-0.292 0.402-0.203 0.965 0.199 1.258z"></path>
<path d="M24.055 9.905l-5.91 3.693c-0.272 0.17-0.614 0.182-0.898 0.032-0.401-0.212-0.862-0.325-1.351-0.307-1.355 0.052-2.473 1.134-2.568 2.486-0.109 1.563 1.132 2.87 2.672 2.87 1.477 0 2.679-1.202 2.679-2.679 0-0.031-0.001-0.061-0.002-0.092-0.011-0.317 0.153-0.615 0.423-0.783l5.887-3.679c0.411-0.257 0.568-0.794 0.33-1.217-0.253-0.452-0.829-0.595-1.263-0.324zM16 16.878c-0.484 0-0.878-0.394-0.878-0.878s0.394-0.878 0.878-0.878c0.484 0 0.878 0.394 0.878 0.878s-0.394 0.878-0.878 0.878z"></path>
</svg>
