<!-- Generated by IcoMoon.io -->
<svg version="1.1" xmlns="http://www.w3.org/2000/svg" width="32" height="32" viewBox="0 0 32 32">
<title>gears</title>
<path d="M29.475 19.098l-1.77-0.295c-0.095-0.016-0.175-0.079-0.211-0.168-0.011-0.028-0.023-0.057-0.035-0.085-0.037-0.088-0.025-0.188 0.031-0.266l1.042-1.459c0.256-0.358 0.215-0.849-0.096-1.16l-0.606-0.606c-0.311-0.311-0.802-0.352-1.16-0.096l-1.459 1.042c-0.077 0.055-0.178 0.068-0.266 0.031-0.028-0.012-0.057-0.023-0.085-0.035-0.089-0.036-0.153-0.116-0.168-0.211l-0.295-1.77c-0.072-0.434-0.448-0.752-0.888-0.752h-0.856c-0.44 0-0.816 0.318-0.888 0.752l-0.294 1.766c-0.016 0.095-0.079 0.175-0.169 0.211-0.030 0.012-0.059 0.024-0.089 0.036-0.088 0.037-0.188 0.024-0.266-0.031l-1.456-1.040c-0.358-0.256-0.849-0.215-1.16 0.096l-0.606 0.606c-0.311 0.311-0.352 0.802-0.096 1.16l1.037 1.452c0.055 0.078 0.068 0.179 0.031 0.266-0.013 0.031-0.026 0.063-0.039 0.094-0.036 0.089-0.116 0.152-0.21 0.168l-1.76 0.293c-0.434 0.072-0.752 0.448-0.752 0.888v0.856c0 0.44 0.318 0.816 0.752 0.888l1.756 0.293c0.095 0.016 0.175 0.079 0.211 0.168 0.013 0.033 0.026 0.066 0.040 0.098 0.037 0.088 0.025 0.188-0.031 0.266l-1.035 1.448c-0.256 0.358-0.215 0.849 0.096 1.16l0.606 0.606c0.311 0.311 0.802 0.352 1.16 0.096l1.448-1.035c0.077-0.055 0.178-0.068 0.266-0.031 0.033 0.014 0.065 0.027 0.098 0.040 0.089 0.035 0.153 0.116 0.168 0.211l0.293 1.756c0.072 0.434 0.448 0.752 0.888 0.752h0.856c0.44 0 0.816-0.318 0.888-0.752l0.293-1.76c0.016-0.095 0.079-0.175 0.168-0.21 0.032-0.013 0.063-0.026 0.094-0.039 0.088-0.037 0.189-0.025 0.266 0.031l1.452 1.037c0.358 0.256 0.849 0.215 1.16-0.096l0.606-0.606c0.311-0.311 0.352-0.802 0.096-1.16l-1.040-1.456c-0.055-0.077-0.068-0.178-0.031-0.266 0.012-0.029 0.025-0.059 0.036-0.089 0.035-0.089 0.116-0.153 0.211-0.169l1.766-0.294c0.434-0.072 0.752-0.448 0.752-0.888v-0.856c0-0.44-0.318-0.816-0.752-0.888zM25.172 22.514c-0.56 0.56-1.304 0.868-2.095 0.868s-1.536-0.308-2.095-0.868c-1.155-1.155-1.155-3.035 0-4.19 0.56-0.56 1.304-0.868 2.095-0.868s1.536 0.308 2.095 0.868c1.155 1.155 1.155 3.035 0 4.19z"></path>
<path d="M16.403 17.209l-0.994-1.392c-0.061-0.085-0.067-0.197-0.018-0.291 0.159-0.305 0.292-0.626 0.397-0.959 0.032-0.101 0.116-0.177 0.22-0.194l1.686-0.281c0.434-0.072 0.752-0.448 0.752-0.888v-0.856c0-0.44-0.318-0.816-0.752-0.888l-1.686-0.281c-0.104-0.017-0.188-0.093-0.22-0.194-0.105-0.333-0.238-0.654-0.397-0.959-0.049-0.093-0.043-0.205 0.018-0.291l0.994-1.392c0.256-0.358 0.215-0.849-0.096-1.16l-0.606-0.606c-0.311-0.311-0.802-0.352-1.16-0.096l-1.392 0.994c-0.085 0.061-0.197 0.067-0.291 0.018-0.305-0.159-0.626-0.292-0.959-0.397-0.101-0.032-0.177-0.116-0.194-0.22l-0.281-1.686c-0.072-0.434-0.448-0.752-0.888-0.752h-0.856c-0.44 0-0.816 0.318-0.888 0.752l-0.281 1.686c-0.017 0.104-0.093 0.188-0.194 0.22-0.333 0.105-0.654 0.238-0.959 0.397-0.093 0.049-0.205 0.043-0.291-0.018l-1.391-0.994c-0.358-0.256-0.849-0.215-1.16 0.096l-0.606 0.606c-0.311 0.311-0.352 0.802-0.096 1.16l0.994 1.392c0.061 0.085 0.067 0.197 0.018 0.291-0.159 0.305-0.292 0.626-0.397 0.959-0.032 0.101-0.116 0.177-0.22 0.194l-1.686 0.281c-0.434 0.072-0.752 0.448-0.752 0.888v0.856c0 0.44 0.318 0.816 0.752 0.888l1.686 0.281c0.104 0.017 0.188 0.093 0.22 0.194 0.105 0.333 0.238 0.654 0.397 0.959 0.049 0.093 0.043 0.205-0.018 0.291l-0.994 1.391c-0.256 0.358-0.215 0.849 0.096 1.16l0.606 0.606c0.311 0.311 0.802 0.352 1.16 0.096l1.391-0.994c0.085-0.061 0.197-0.067 0.291-0.018 0.305 0.159 0.626 0.292 0.959 0.397 0.101 0.032 0.177 0.116 0.194 0.22l0.281 1.686c0.072 0.434 0.448 0.752 0.888 0.752h0.856c0.44 0 0.816-0.318 0.888-0.752l0.281-1.686c0.017-0.104 0.093-0.188 0.194-0.22 0.333-0.105 0.654-0.238 0.959-0.397 0.093-0.049 0.205-0.043 0.291 0.018l1.392 0.994c0.358 0.256 0.849 0.215 1.16-0.096l0.606-0.606c0.311-0.311 0.352-0.802 0.096-1.16zM10.109 16.931c-2.291 0-4.154-1.863-4.154-4.154s1.863-4.154 4.154-4.154 4.154 1.863 4.154 4.154-1.863 4.154-4.154 4.154z"></path>
</svg>
