<svg
  xmlns="http://www.w3.org/2000/svg"
  width="64"
  height="64"
  viewBox="0 0 64 64"
  fill="black"
  fill-rule="nonzero"
>
  <path d="M44.93 10.93A9.969 9.969 0 0 1 52 8c2.76 0 5.26 1.12 7.07 2.93A9.969 9.969 0 0 1 62 18c0 2.76-1.12 5.26-2.93 7.07A9.969 9.969 0 0 1 52 28c-2.76 0-5.26-1.12-7.07-2.93A9.995 9.995 0 0 1 42.2 20H21.8a9.995 9.995 0 0 1-2.73 5.07A9.995 9.995 0 0 1 14 27.8V36c0 2.21.89 4.21 2.34 5.66A7.973 7.973 0 0 0 22 44h10.17l-5.59-5.59c-.78-.78-.78-2.05 0-2.83.78-.78 2.05-.78 2.83 0l9 9c.19.19.34.41.43.65.1.24.15.49.15.77a1.994 1.994 0 0 1-.58 1.42l-9 9c-.78.78-2.05.78-2.83 0-.78-.78-.78-2.05 0-2.83L32.17 48H22c-3.31 0-6.32-1.35-8.49-3.51A11.962 11.962 0 0 1 10 36v-8.2a9.995 9.995 0 0 1-5.07-2.73A9.969 9.969 0 0 1 2 18c0-2.76 1.12-5.26 2.93-7.07A9.969 9.969 0 0 1 12 8c2.76 0 5.26 1.12 7.07 2.93A9.995 9.995 0 0 1 21.8 16h20.4c.4-1.96 1.37-3.71 2.73-5.07zm2.83 11.31A5.98 5.98 0 0 0 52 24c1.66 0 3.15-.67 4.24-1.76A5.98 5.98 0 0 0 58 18c0-1.66-.67-3.15-1.76-4.24A5.98 5.98 0 0 0 52 12c-1.66 0-3.15.67-4.24 1.76A5.98 5.98 0 0 0 46 18c0 1.66.67 3.15 1.76 4.24zm-40 0A5.98 5.98 0 0 0 12 24c1.66 0 3.15-.67 4.24-1.76A5.98 5.98 0 0 0 18 18c0-1.66-.67-3.15-1.76-4.24A5.98 5.98 0 0 0 12 12c-1.66 0-3.15.67-4.24 1.76A5.98 5.98 0 0 0 6 18c0 1.66.67 3.15 1.76 4.24zM42 46c0-2.76 1.12-5.26 2.93-7.07A9.969 9.969 0 0 1 52 36c2.76 0 5.26 1.12 7.07 2.93A9.969 9.969 0 0 1 62 46c0 2.76-1.12 5.26-2.93 7.07A9.969 9.969 0 0 1 52 56c-2.76 0-5.26-1.12-7.07-2.93A9.969 9.969 0 0 1 42 46zm5.76 4.24A5.98 5.98 0 0 0 52 52c1.66 0 3.15-.67 4.24-1.76A5.98 5.98 0 0 0 58 46c0-1.66-.67-3.15-1.76-4.24A5.98 5.98 0 0 0 52 40c-1.66 0-3.15.67-4.24 1.76A5.98 5.98 0 0 0 46 46c0 1.66.67 3.15 1.76 4.24z" />
</svg>
