<svg
  xmlns="http://www.w3.org/2000/svg"
  width="64"
  height="64"
  viewBox="0 0 64 64"
  fill="black"
  fill-rule="nonzero"
>
  <path d="M2 52c0-2.76 1.12-5.26 2.93-7.07A9.995 9.995 0 0 1 10 42.2V21.8a9.995 9.995 0 0 1-5.07-2.73A9.969 9.969 0 0 1 2 12c0-2.76 1.12-5.26 2.93-7.07A9.969 9.969 0 0 1 12 2c2.76 0 5.26 1.12 7.07 2.93A9.969 9.969 0 0 1 22 12c0 2.76-1.12 5.26-2.93 7.07A9.995 9.995 0 0 1 14 21.8v20.4c1.96.4 3.71 1.37 5.07 2.73A9.969 9.969 0 0 1 22 52c0 2.76-1.12 5.26-2.93 7.07A9.969 9.969 0 0 1 12 62c-2.76 0-5.26-1.12-7.07-2.93A9.969 9.969 0 0 1 2 52zm5.76 4.24A5.98 5.98 0 0 0 12 58c1.66 0 3.15-.67 4.24-1.76A5.98 5.98 0 0 0 18 52c0-1.66-.67-3.15-1.76-4.24A5.98 5.98 0 0 0 12 46c-1.66 0-3.15.67-4.24 1.76A5.98 5.98 0 0 0 6 52c0 1.66.67 3.15 1.76 4.24zm0-40A5.98 5.98 0 0 0 12 18c1.66 0 3.15-.67 4.24-1.76A5.98 5.98 0 0 0 18 12c0-1.66-.67-3.15-1.76-4.24A5.98 5.98 0 0 0 12 6c-1.66 0-3.15.67-4.24 1.76A5.98 5.98 0 0 0 6 12c0 1.66.67 3.15 1.76 4.24zM42 52c0-2.76 1.12-5.26 2.93-7.07A9.995 9.995 0 0 1 50 42.2V21.8a9.995 9.995 0 0 1-5.07-2.73A9.969 9.969 0 0 1 42 12c0-2.76 1.12-5.26 2.93-7.07A9.969 9.969 0 0 1 52 2c2.76 0 5.26 1.12 7.07 2.93A9.969 9.969 0 0 1 62 12c0 2.76-1.12 5.26-2.93 7.07A9.995 9.995 0 0 1 54 21.8v20.4c1.96.4 3.71 1.37 5.07 2.73A9.969 9.969 0 0 1 62 52c0 2.76-1.12 5.26-2.93 7.07A9.969 9.969 0 0 1 52 62c-2.76 0-5.26-1.12-7.07-2.93A9.969 9.969 0 0 1 42 52zm5.76 4.24A5.98 5.98 0 0 0 52 58c1.66 0 3.15-.67 4.24-1.76A5.98 5.98 0 0 0 58 52c0-1.66-.67-3.15-1.76-4.24A5.98 5.98 0 0 0 52 46c-1.66 0-3.15.67-4.24 1.76A5.98 5.98 0 0 0 46 52c0 1.66.67 3.15 1.76 4.24zm0-40A5.98 5.98 0 0 0 52 18c1.66 0 3.15-.67 4.24-1.76A5.98 5.98 0 0 0 58 12c0-1.66-.67-3.15-1.76-4.24A5.98 5.98 0 0 0 52 6c-1.66 0-3.15.67-4.24 1.76A5.98 5.98 0 0 0 46 12c0 1.66.67 3.15 1.76 4.24zM44 40a1.994 1.994 0 0 1-.58 1.42l-7 7c-.78.78-2.05.78-2.83 0-.78-.78-.78-2.05 0-2.83L37.18 42H24.01c-1.1 0-2-.9-2-2s.9-2 2-2h13.17l-3.59-3.59c-.78-.78-.78-2.05 0-2.83.78-.78 2.05-.78 2.83 0l7 7c.19.19.34.41.43.65.1.24.15.49.15.77zM19 25a1.994 1.994 0 0 1 .58-1.42l7-7c.78-.78 2.05-.78 2.83 0 .78.78.78 2.05 0 2.83L25.82 23h11.17c1.1 0 2 .9 2 2s-.9 2-2 2H25.82l3.59 3.59c.78.78.78 2.05 0 2.83-.78.78-2.05.78-2.83 0l-7-7c-.19-.19-.34-.41-.43-.65-.1-.24-.15-.49-.15-.77z" />
</svg>
