<svg
  xmlns="http://www.w3.org/2000/svg"
  width="64"
  height="64"
  viewBox="0 0 64 64"
  fill="black"
  fill-rule="nonzero"
>
  <path d="M22 18c0-2.76 1.12-5.26 2.93-7.07A9.969 9.969 0 0 1 32 8c2.76 0 5.26 1.12 7.07 2.93A9.969 9.969 0 0 1 42 18c0 2.76-1.12 5.26-2.93 7.07A9.995 9.995 0 0 1 34 27.8v8.4c1.96.4 3.71 1.37 5.07 2.73A9.995 9.995 0 0 1 41.8 44h2.4c.4-1.96 1.37-3.71 2.73-5.07A9.969 9.969 0 0 1 54 36c2.76 0 5.26 1.12 7.07 2.93A9.969 9.969 0 0 1 64 46c0 2.76-1.12 5.26-2.93 7.07A9.969 9.969 0 0 1 54 56c-2.76 0-5.26-1.12-7.07-2.93A9.995 9.995 0 0 1 44.2 48h-2.4a9.995 9.995 0 0 1-2.73 5.07A9.969 9.969 0 0 1 32 56c-2.76 0-5.26-1.12-7.07-2.93A9.995 9.995 0 0 1 22.2 48h-2.4a9.995 9.995 0 0 1-2.73 5.07A9.969 9.969 0 0 1 10 56c-2.76 0-5.26-1.12-7.07-2.93A9.969 9.969 0 0 1 0 46c0-2.76 1.12-5.26 2.93-7.07A9.969 9.969 0 0 1 10 36c2.76 0 5.26 1.12 7.07 2.93A9.995 9.995 0 0 1 19.8 44h2.4c.4-1.96 1.37-3.71 2.73-5.07A9.995 9.995 0 0 1 30 36.2v-8.4a9.995 9.995 0 0 1-5.07-2.73A9.969 9.969 0 0 1 22 18zm5.76 4.24A5.98 5.98 0 0 0 32 24c1.66 0 3.15-.67 4.24-1.76A5.98 5.98 0 0 0 38 18c0-1.66-.67-3.15-1.76-4.24A5.98 5.98 0 0 0 32 12c-1.66 0-3.15.67-4.24 1.76A5.98 5.98 0 0 0 26 18c0 1.66.67 3.15 1.76 4.24zm-22 28A5.98 5.98 0 0 0 10 52c1.66 0 3.15-.67 4.24-1.76A5.98 5.98 0 0 0 16 46c0-1.66-.67-3.15-1.76-4.24A5.98 5.98 0 0 0 10 40c-1.66 0-3.15.67-4.24 1.76A5.98 5.98 0 0 0 4 46c0 1.66.67 3.15 1.76 4.24zm44 0A5.98 5.98 0 0 0 54 52c1.66 0 3.15-.67 4.24-1.76A5.98 5.98 0 0 0 60 46c0-1.66-.67-3.15-1.76-4.24A5.98 5.98 0 0 0 54 40c-1.66 0-3.15.67-4.24 1.76A5.98 5.98 0 0 0 48 46c0 1.66.67 3.15 1.76 4.24zm-22 0A5.98 5.98 0 0 0 32 52c1.66 0 3.15-.67 4.24-1.76A5.98 5.98 0 0 0 38 46c0-1.66-.67-3.15-1.76-4.24A5.98 5.98 0 0 0 32 40c-1.66 0-3.15.67-4.24 1.76A5.98 5.98 0 0 0 26 46c0 1.66.67 3.15 1.76 4.24z" />
</svg>
