<svg
  xmlns="http://www.w3.org/2000/svg"
  width="64"
  height="64"
  viewBox="0 0 64 64"
  fill="black"
  fill-rule="nonzero"
>
  <path d="M2 18c0-2.76 1.12-5.26 2.93-7.07A9.969 9.969 0 0 1 12 8c2.76 0 5.26 1.12 7.07 2.93A9.995 9.995 0 0 1 21.8 16h20.4c.4-1.96 1.37-3.71 2.73-5.07A9.969 9.969 0 0 1 52 8c2.76 0 5.26 1.12 7.07 2.93A9.969 9.969 0 0 1 62 18c0 2.76-1.12 5.26-2.93 7.07A9.969 9.969 0 0 1 52 28c-2.76 0-5.26-1.12-7.07-2.93A9.995 9.995 0 0 1 42.2 20H21.8a9.995 9.995 0 0 1-3.18 5.49l5.39 9.45c1.6 2.8 3.89 5.06 6.59 6.62 2.7 1.56 5.79 2.43 9.02 2.43h2.59c.4-1.96 1.37-3.71 2.73-5.07a9.969 9.969 0 0 1 7.07-2.93c2.76 0 5.26 1.12 7.07 2.93a9.969 9.969 0 0 1 2.93 7.07c0 2.76-1.12 5.26-2.93 7.07a9.969 9.969 0 0 1-7.07 2.93c-2.76 0-5.26-1.12-7.07-2.93a9.995 9.995 0 0 1-2.73-5.07h-2.59c-3.94 0-7.73-1.06-11.02-2.97a22.026 22.026 0 0 1-8.05-8.1l-5.38-9.44c-.99.33-2.05.51-3.15.51-2.76 0-5.26-1.12-7.07-2.93a9.969 9.969 0 0 1-2.93-7.07zm5.76 4.24A5.98 5.98 0 0 0 12 24c1.66 0 3.15-.67 4.24-1.76A5.98 5.98 0 0 0 18 18c0-1.66-.67-3.15-1.76-4.24A5.98 5.98 0 0 0 12 12c-1.66 0-3.15.67-4.24 1.76A5.98 5.98 0 0 0 6 18c0 1.66.67 3.15 1.76 4.24zm40 0A5.98 5.98 0 0 0 52 24c1.66 0 3.15-.67 4.24-1.76A5.98 5.98 0 0 0 58 18c0-1.66-.67-3.15-1.76-4.24A5.98 5.98 0 0 0 52 12c-1.66 0-3.15.67-4.24 1.76A5.98 5.98 0 0 0 46 18c0 1.66.67 3.15 1.76 4.24zm0 28A5.98 5.98 0 0 0 52 52c1.66 0 3.15-.67 4.24-1.76A5.98 5.98 0 0 0 58 46c0-1.66-.67-3.15-1.76-4.24A5.98 5.98 0 0 0 52 40c-1.66 0-3.15.67-4.24 1.76A5.98 5.98 0 0 0 46 46c0 1.66.67 3.15 1.76 4.24z" />
</svg>
