<svg
  xmlns="http://www.w3.org/2000/svg"
  width="64"
  height="64"
  viewBox="0 0 64 64"
  fill="black"
  fill-rule="nonzero"
>
  <path d="M4 52c0-2.76 1.12-5.26 2.93-7.07A9.995 9.995 0 0 1 12 42.2V21.8a9.995 9.995 0 0 1-5.07-2.73A9.969 9.969 0 0 1 4 12c0-2.76 1.12-5.26 2.93-7.07A9.969 9.969 0 0 1 14 2c2.76 0 5.26 1.12 7.07 2.93A9.969 9.969 0 0 1 24 12c0 2.76-1.12 5.26-2.93 7.07A9.995 9.995 0 0 1 16 21.8v20.4c1.96.4 3.71 1.37 5.07 2.73A9.969 9.969 0 0 1 24 52c0 2.76-1.12 5.26-2.93 7.07A9.969 9.969 0 0 1 14 62c-2.76 0-5.26-1.12-7.07-2.93A9.969 9.969 0 0 1 4 52zm5.76 4.24A5.98 5.98 0 0 0 14 58c1.66 0 3.15-.67 4.24-1.76A5.98 5.98 0 0 0 20 52c0-1.66-.67-3.15-1.76-4.24A5.98 5.98 0 0 0 14 46c-1.66 0-3.15.67-4.24 1.76A5.98 5.98 0 0 0 8 52c0 1.66.67 3.15 1.76 4.24zm0-40A5.98 5.98 0 0 0 14 18c1.66 0 3.15-.67 4.24-1.76A5.98 5.98 0 0 0 20 12c0-1.66-.67-3.15-1.76-4.24A5.98 5.98 0 0 0 14 6c-1.66 0-3.15.67-4.24 1.76A5.98 5.98 0 0 0 8 12c0 1.66.67 3.15 1.76 4.24zM40 52c0-2.76 1.12-5.26 2.93-7.07A9.995 9.995 0 0 1 48 42.2V21.8a9.995 9.995 0 0 1-5.07-2.73A9.969 9.969 0 0 1 40 12c0-2.76 1.12-5.26 2.93-7.07A9.969 9.969 0 0 1 50 2c2.76 0 5.26 1.12 7.07 2.93A9.969 9.969 0 0 1 60 12c0 2.76-1.12 5.26-2.93 7.07A9.995 9.995 0 0 1 52 21.8v20.4c1.96.4 3.71 1.37 5.07 2.73A9.969 9.969 0 0 1 60 52c0 2.76-1.12 5.26-2.93 7.07A9.969 9.969 0 0 1 50 62c-2.76 0-5.26-1.12-7.07-2.93A9.969 9.969 0 0 1 40 52zm5.76 4.24A5.98 5.98 0 0 0 50 58c1.66 0 3.15-.67 4.24-1.76A5.98 5.98 0 0 0 56 52c0-1.66-.67-3.15-1.76-4.24A5.98 5.98 0 0 0 50 46c-1.66 0-3.15.67-4.24 1.76A5.98 5.98 0 0 0 44 52c0 1.66.67 3.15 1.76 4.24zm0-40A5.98 5.98 0 0 0 50 18c1.66 0 3.15-.67 4.24-1.76A5.98 5.98 0 0 0 56 12c0-1.66-.67-3.15-1.76-4.24A5.98 5.98 0 0 0 50 6c-1.66 0-3.15.67-4.24 1.76A5.98 5.98 0 0 0 44 12c0 1.66.67 3.15 1.76 4.24zM44 32a1.994 1.994 0 0 1-.58 1.42l-8 8c-.78.78-2.05.78-2.83 0-.78-.78-.78-2.05 0-2.83L37.18 34H22.01c-1.1 0-2-.9-2-2s.9-2 2-2h15.17l-4.59-4.59c-.78-.78-.78-2.05 0-2.83.78-.78 2.05-.78 2.83 0l8 8c.19.19.34.41.43.65.1.24.15.49.15.77z" />
</svg>
