<svg
  xmlns="http://www.w3.org/2000/svg"
  width="64"
  height="64"
  viewBox="0 0 64 64"
  fill="black"
  fill-rule="nonzero"
>
  <path d="M44.93 10.93A9.969 9.969 0 0 1 52 8c2.76 0 5.26 1.12 7.07 2.93A9.969 9.969 0 0 1 62 18c0 2.76-1.12 5.26-2.93 7.07A9.969 9.969 0 0 1 52 28c-1.1 0-2.16-.18-3.15-.51l-5.38 9.44a22.101 22.101 0 0 1-8.05 8.1A21.942 21.942 0 0 1 24.4 48h-2.59a9.995 9.995 0 0 1-2.73 5.07A9.969 9.969 0 0 1 12.01 56c-2.76 0-5.26-1.12-7.07-2.93A9.969 9.969 0 0 1 2.01 46c0-2.76 1.12-5.26 2.93-7.07A9.969 9.969 0 0 1 12.01 36c2.76 0 5.26 1.12 7.07 2.93A9.995 9.995 0 0 1 21.81 44h2.59c3.22 0 6.32-.87 9.02-2.43 2.69-1.56 4.98-3.82 6.59-6.62l5.39-9.45a9.995 9.995 0 0 1-3.18-5.49h-20.4a9.995 9.995 0 0 1-2.73 5.07 9.969 9.969 0 0 1-7.07 2.93c-2.76 0-5.26-1.12-7.07-2.93a9.969 9.969 0 0 1-2.93-7.07c0-2.76 1.12-5.26 2.93-7.07a9.969 9.969 0 0 1 7.07-2.93c2.76 0 5.26 1.12 7.07 2.93a9.995 9.995 0 0 1 2.73 5.07h20.4c.4-1.96 1.37-3.71 2.73-5.07zm2.83 11.31A5.98 5.98 0 0 0 52 24c1.66 0 3.15-.67 4.24-1.76A5.98 5.98 0 0 0 58 18c0-1.66-.67-3.15-1.76-4.24A5.98 5.98 0 0 0 52 12c-1.66 0-3.15.67-4.24 1.76A5.98 5.98 0 0 0 46 18c0 1.66.67 3.15 1.76 4.24zm-40 0A5.98 5.98 0 0 0 12 24c1.66 0 3.15-.67 4.24-1.76A5.98 5.98 0 0 0 18 18c0-1.66-.67-3.15-1.76-4.24A5.98 5.98 0 0 0 12 12c-1.66 0-3.15.67-4.24 1.76A5.98 5.98 0 0 0 6 18c0 1.66.67 3.15 1.76 4.24zm0 28A5.98 5.98 0 0 0 12 52c1.66 0 3.15-.67 4.24-1.76A5.98 5.98 0 0 0 18 46c0-1.66-.67-3.15-1.76-4.24A5.98 5.98 0 0 0 12 40c-1.66 0-3.15.67-4.24 1.76A5.98 5.98 0 0 0 6 46c0 1.66.67 3.15 1.76 4.24z" />
</svg>
