<svg
  xmlns="http://www.w3.org/2000/svg"
  width="64"
  height="64"
  viewBox="0 0 64 64"
  fill="black"
  fill-rule="nonzero"
>
  <path d="M2 18c0-2.76 1.12-5.26 2.93-7.07A9.969 9.969 0 0 1 12 8c2.76 0 5.26 1.12 7.07 2.93A9.995 9.995 0 0 1 21.8 16H28a7 7 0 0 1 7 7v4c0 .83.33 1.58.88 2.12.55.55 1.29.88 2.12.88h4.2c.4-1.96 1.37-3.71 2.73-5.07A9.969 9.969 0 0 1 52 22c2.76 0 5.26 1.12 7.07 2.93A9.969 9.969 0 0 1 62 32c0 2.76-1.12 5.26-2.93 7.07A9.969 9.969 0 0 1 52 42c-2.76 0-5.26-1.12-7.07-2.93A9.995 9.995 0 0 1 42.2 34H38c-.83 0-1.58.33-2.12.88-.55.55-.88 1.29-.88 2.12v4a7 7 0 0 1-7 7h-6.2a9.995 9.995 0 0 1-2.73 5.07A9.969 9.969 0 0 1 12 56c-2.76 0-5.26-1.12-7.07-2.93A9.969 9.969 0 0 1 2 46c0-2.76 1.12-5.26 2.93-7.07A9.969 9.969 0 0 1 12 36c2.76 0 5.26 1.12 7.07 2.93A9.995 9.995 0 0 1 21.8 44H28c.83 0 1.58-.33 2.12-.88.55-.55.88-1.29.88-2.12v-4a7 7 0 0 1 2.05-4.95l.05-.05-.05-.05A7 7 0 0 1 31 27v-4c0-.83-.33-1.58-.88-2.12-.55-.55-1.29-.88-2.12-.88h-6.2a9.995 9.995 0 0 1-2.73 5.07A9.969 9.969 0 0 1 12 28c-2.76 0-5.26-1.12-7.07-2.93A9.969 9.969 0 0 1 2 18zm5.76 4.24A5.98 5.98 0 0 0 12 24c1.66 0 3.15-.67 4.24-1.76A5.98 5.98 0 0 0 18 18c0-1.66-.67-3.15-1.76-4.24A5.98 5.98 0 0 0 12 12c-1.66 0-3.15.67-4.24 1.76A5.98 5.98 0 0 0 6 18c0 1.66.67 3.15 1.76 4.24zm0 28A5.98 5.98 0 0 0 12 52c1.66 0 3.15-.67 4.24-1.76A5.98 5.98 0 0 0 18 46c0-1.66-.67-3.15-1.76-4.24A5.98 5.98 0 0 0 12 40c-1.66 0-3.15.67-4.24 1.76A5.98 5.98 0 0 0 6 46c0 1.66.67 3.15 1.76 4.24zm40-14A5.98 5.98 0 0 0 52 38c1.66 0 3.15-.67 4.24-1.76A5.98 5.98 0 0 0 58 32c0-1.66-.67-3.15-1.76-4.24A5.98 5.98 0 0 0 52 26c-1.66 0-3.15.67-4.24 1.76A5.98 5.98 0 0 0 46 32c0 1.66.67 3.15 1.76 4.24z" />
</svg>
