<svg
  xmlns="http://www.w3.org/2000/svg"
  width="64"
  height="64"
  viewBox="0 0 64 64"
  fill="black"
  fill-rule="nonzero"
>
  <path d="M60.23 29.39L34.61 3.77a3.78 3.78 0 0 0-5.34 0L24 9.09l6.75 6.75a4.49 4.49 0 0 1 5.68 5.72l6.5 6.5a4.5 4.5 0 1 1-2.69 2.54l-6.06-6.07v16a4.59 4.59 0 0 1 1.18.85 4.49 4.49 0 1 1-4.88-1V24.25a4.31 4.31 0 0 1-1.47-1 4.49 4.49 0 0 1-1-4.91l-6.65-6.65L3.77 29.27a3.78 3.78 0 0 0 0 5.34l25.62 25.62a3.78 3.78 0 0 0 5.34 0l25.5-25.5a3.78 3.78 0 0 0 0-5.34z" />
</svg>
