<!-- Generated by IcoMoon.io -->
<svg version="1.1" xmlns="http://www.w3.org/2000/svg" width="32" height="32" viewBox="0 0 32 32">
<title>git</title>
<path d="M27.992 14.89l-10.882-10.882c-0.627-0.627-1.643-0.627-2.27 0l-2.259 2.26 2.866 2.866c0.666-0.225 1.43-0.074 1.961 0.457 0.534 0.534 0.684 1.305 0.453 1.973l2.763 2.763c0.669-0.23 1.439-0.081 1.973 0.453 0.746 0.746 0.746 1.955 0 2.701s-1.955 0.746-2.702 0c-0.561-0.562-0.7-1.386-0.415-2.077l-2.577-2.576v6.78c0.182 0.090 0.353 0.21 0.505 0.361 0.746 0.746 0.746 1.954 0 2.701-0.746 0.746-1.955 0.746-2.701 0-0.746-0.747-0.746-1.956 0-2.701 0.184-0.184 0.398-0.324 0.626-0.417v-6.843c-0.228-0.093-0.441-0.231-0.626-0.417-0.565-0.565-0.701-1.394-0.411-2.088l-2.826-2.826-7.462 7.461c-0.627 0.627-0.627 1.644 0 2.271l10.883 10.882c0.627 0.627 1.643 0.627 2.27 0l10.831-10.831c0.627-0.627 0.627-1.644 0-2.271z"></path>
</svg>
