<svg
  xmlns="http://www.w3.org/2000/svg"
  width="64"
  height="64"
  viewBox="0 0 64 64"
  fill="black"
  fill-rule="nonzero"
>
  <path d="M46.73 49.6H29.09a5.51 5.51 0 0 1-2.58-1.17 23.69 23.69 0 0 1-6.94-8.85l-.06-.15a1.08 1.08 0 0 0-1-.74h-.11a21.39 21.39 0 0 1-6.8-1.3l.15.05a12.74 12.74 0 0 1-8.92-11.33 10.35 10.35 0 0 0-.16-1.35v-1a11.74 11.74 0 0 1 .24-1.84A10 10 0 0 1 11 13.57h.06l1.58-.23h1.14l2.91.17 5.83.3c2.7.15 5.38.31 8.06.41 2.19 0 4.4 0 6.58.15h.31v9.86c0 .14 0 .36.1.4a13.36 13.36 0 0 0 1.42.74h.1v-11h.47c1.29 0 2.6 0 3.88-.11 2.75 0 5.49-.2 8.19-.32l3.6-.19 3.88-.18h.1a1.29 1.29 0 0 1 1 .5 3 3 0 0 1 .56.94 8.12 8.12 0 0 1 .51 2.89v.23a32.92 32.92 0 0 1-.7 6.87v-.21a62.07 62.07 0 0 1-4.11 13.88l.16-.4a32.18 32.18 0 0 1-4.29 7.68v-.08a10.24 10.24 0 0 1-4 3.25h-.07a10.5 10.5 0 0 1-1.54.45h-.07zm-29.07-16a1.15 1.15 0 0 0-.14-.49c-.56-1.64-1.13-3.3-1.62-4.95a48.84 48.84 0 0 1-1.81-9.5v-.2c0-.25 0-.35-.35-.33a8.77 8.77 0 0 0-2 .25A5 5 0 0 0 7.6 22.2a7.69 7.69 0 0 0-.21 1.8 8 8 0 0 0 .22 1.84v-.06a8.19 8.19 0 0 0 4.79 6.36 19 19 0 0 0 2.85 1h.14a17.19 17.19 0 0 0 2.13.41zm18-9.09A2.59 2.59 0 0 0 32 25.77q-2.4 4.91-4.77 9.82a2.49 2.49 0 0 0-.33 1.26 2.56 2.56 0 0 0 1.56 2.35l2.21 1.06L38.3 44a2.6 2.6 0 0 0 3.63-1.24c.18-.41.39-.82.59-1.23q2.09-4.26 4.09-8.55a2.61 2.61 0 0 0 .39-1.32v-.3a2.63 2.63 0 0 0-1.56-2l-4.95-2.41z" />
</svg>
