<!-- Generated by IcoMoon.io -->
<svg version="1.1" xmlns="http://www.w3.org/2000/svg" width="32" height="32" viewBox="0 0 32 32">
<title>gitea</title>
<path d="M23.21 24.88h-8.62c-0.484-0.085-0.911-0.286-1.265-0.574l0.005 0.004c-1.465-1.157-2.627-2.633-3.391-4.327l-0.029-0.073c-0.072-0.212-0.27-0.362-0.503-0.362-0.017 0-0.033 0.001-0.049 0.002l0.002-0c-1.175-0.035-2.287-0.256-3.324-0.634l0.074 0.023c-2.435-0.772-4.198-2.94-4.359-5.542l-0.001-0.018c0-0.22-0.050-0.44-0.080-0.66v-0.5c0-0.3 0.070-0.6 0.12-0.9 0.329-2.077 1.932-3.7 3.971-4.056l0.029-0.004 0.77-0.11h0.56l1.42 0.080 2.85 0.15c1.32 0.070 2.63 0.15 3.94 0.2 1.070 0 2.15 0 3.22 0.070h0.15v4.82c0 0.070 0 0.18 0.050 0.2 0.201 0.121 0.444 0.248 0.694 0.362l0.046 0.018v-5.4h0.23c0.63 0 1.27 0 1.9-0.050 1.34 0 2.68-0.1 4-0.16l1.76-0.090 1.9-0.090c0.015-0.001 0.032-0.002 0.049-0.002 0.199 0 0.377 0.094 0.49 0.24l0.001 0.001c0.117 0.133 0.212 0.289 0.277 0.46l0.003 0.010c0.159 0.421 0.251 0.907 0.251 1.415 0 0.037-0 0.074-0.001 0.11l0-0.005c-0.007 1.155-0.134 2.276-0.369 3.357l0.019-0.107c-0.436 2.485-1.106 4.696-2.005 6.786l0.075-0.196c-0.56 1.421-1.256 2.648-2.098 3.759l0.028-0.039c-0.515 0.691-1.189 1.236-1.968 1.587l-0.032 0.013c-0.216 0.084-0.48 0.163-0.752 0.223l-0.038 0.007zM17.8 12.62c-0.178-0.101-0.391-0.161-0.618-0.161-0.525 0-0.975 0.318-1.169 0.772l-0.003 0.008q-1.17 2.4-2.33 4.8c-0.102 0.177-0.162 0.389-0.162 0.615 0 0.518 0.315 0.962 0.764 1.152l0.008 0.003 1.080 0.52 3.72 1.81c0.177 0.099 0.388 0.158 0.613 0.158 0.52 0 0.967-0.312 1.163-0.76l0.003-0.008c0.090-0.2 0.19-0.4 0.29-0.6 0.68-1.39 1.35-2.78 2-4.18 0.105-0.184 0.167-0.405 0.167-0.641 0-0.049-0.003-0.097-0.008-0.145l0.001 0.006c-0.068-0.452-0.362-0.823-0.762-0.997l-0.008-0.003-2.42-1.18zM9 17.060c0-0.12-0.050-0.18-0.070-0.24-0.27-0.8-0.55-1.61-0.79-2.42-0.417-1.373-0.732-2.985-0.883-4.644l-0.007-0.096c0-0.12 0-0.17-0.17-0.16-0.35 0-0.7 0.050-1 0.12-0.998 0.153-1.785 0.901-1.997 1.864l-0.003 0.016c-0.064 0.261-0.101 0.561-0.101 0.87s0.037 0.609 0.106 0.896l-0.005-0.026c0.2 1.406 1.108 2.562 2.344 3.11l0.026 0.010c0.403 0.177 0.889 0.345 1.391 0.475l0.069 0.015c0.294 0.079 0.663 0.152 1.040 0.204l0.050 0.006z"></path>
</svg>
