<svg
  xmlns="http://www.w3.org/2000/svg"
  width="64"
  height="64"
  viewBox="0 0 64 64"
  fill="black"
  fill-rule="nonzero"
>
  <path d="M57.75 45.4l-9.28-34a7.49 7.49 0 0 0-7.2-5.49h-22.6a2.13 2.13 0 1 0 0 4.26h22.6a3.21 3.21 0 0 1 3.08 2.36l7.14 26a10.15 10.15 0 0 0-3.49-.66H16a10 10 0 0 0-3.47.65l5-18a3.21 3.21 0 0 1 3.08-2.35h16.72a2.13 2.13 0 1 0 0-4.26H20.59a7.5 7.5 0 0 0-7.2 5.48c.44 0-7.18 26.16-7.18 26.16A10.24 10.24 0 0 0 5.87 48 10.14 10.14 0 0 0 16 58.13h32a10 10 0 0 0 9.75-12.73M48 53.87H16a5.87 5.87 0 0 1 0-11.74h32a5.87 5.87 0 0 1 0 11.74" />
  <path d="M18.67 45.87H16a2.13 2.13 0 1 0 0 4.26h2.67a2.13 2.13 0 0 0 0-4.26M29.33 45.87h-2.66a2.13 2.13 0 1 0 0 4.26h2.66a2.13 2.13 0 1 0 0-4.26" />
</svg>
