<!-- Generated by IcoMoon.io -->
<svg version="1.1" xmlns="http://www.w3.org/2000/svg" width="32" height="32" viewBox="0 0 32 32">
<title>gitfs</title>
<path d="M8.92 22.293c0 0.434-0.352 0.787-0.787 0.787s-0.787-0.352-0.787-0.787c0-0.434 0.352-0.787 0.787-0.787s0.787 0.352 0.787 0.787z"></path>
<path d="M11.28 22.293c0 0.434-0.352 0.787-0.787 0.787s-0.787-0.352-0.787-0.787c0-0.434 0.352-0.787 0.787-0.787s0.787 0.352 0.787 0.787z"></path>
<path d="M26.866 21.34l-3.893-12.497c-0.376-1.317-1.587-2.282-3.025-2.282h-9.454c-0.434 0-0.787 0.352-0.787 0.787s0.352 0.787 0.787 0.787h9.454c0.731 0 1.346 0.499 1.522 1.175l3.089 9.916c-0.223-0.050-0.454-0.077-0.692-0.077h-15.733c-0.238 0-0.469 0.027-0.692 0.077l2.128-6.834c0.198-0.643 0.796-1.11 1.504-1.11h7.287c0.434 0 0.787-0.352 0.787-0.787s-0.352-0.787-0.787-0.787h-7.287c-1.414 0-2.61 0.933-3.007 2.216l-2.933 9.417c-0.095 0.301-0.147 0.621-0.147 0.953 0 1.738 1.409 3.147 3.147 3.147h15.733c1.738 0 3.147-1.409 3.147-3.147-0-0.332-0.052-0.652-0.147-0.953zM23.866 23.866h-15.733c-0.869 0-1.573-0.704-1.573-1.573s0.704-1.573 1.573-1.573h15.733c0.869 0 1.573 0.704 1.573 1.573s-0.704 1.573-1.573 1.573z"></path>
</svg>
