<!-- Generated by IcoMoon.io -->
<svg version="1.1" xmlns="http://www.w3.org/2000/svg" width="32" height="32" viewBox="0 0 32 32">
<title>github</title>
<path d="M15.968 3.345c1.789 0 3.471 0.341 5.047 1.022 1.576 0.682 2.955 1.603 4.136 2.763 1.182 1.161 2.113 2.523 2.795 4.088s1.033 3.232 1.054 4.999c0 1.448-0.213 2.822-0.639 4.12s-1.033 2.481-1.821 3.545c-0.788 1.065-1.72 2.002-2.795 2.811-1.076 0.81-2.263 1.427-3.561 1.853-0.319 0.043-0.548-0.010-0.687-0.16s-0.208-0.298-0.208-0.447c0-0.256 0-0.697 0-1.326 0-0.628 0-1.389 0-2.284 0-0.596-0.085-1.091-0.256-1.485s-0.373-0.687-0.607-0.878c1.426-0.17 2.763-0.649 4.009-1.437s1.869-2.438 1.869-4.951c0-0.703-0.123-1.352-0.367-1.948-0.245-0.596-0.57-1.107-0.974-1.533 0.042-0.17 0.117-0.564 0.224-1.182s-0.021-1.362-0.383-2.236c-1.15 0.064-2.343 0.511-3.577 1.342-0.511-0.128-1.044-0.224-1.597-0.287s-1.107-0.096-1.661-0.096-1.107 0.027-1.661 0.080c-0.554 0.053-1.086 0.155-1.597 0.303-1.235-0.83-2.428-1.278-3.577-1.342-0.362 0.873-0.501 1.619-0.415 2.236s0.17 1.012 0.256 1.182c-0.447 0.469-0.788 0.99-1.022 1.565-0.237 0.574-0.353 1.213-0.353 1.916 0 2.513 0.623 4.179 1.869 4.999s2.592 1.305 4.041 1.453c-0.171 0.171-0.335 0.394-0.495 0.671s-0.261 0.639-0.303 1.086c-0.362 0.149-0.926 0.251-1.693 0.303-0.767 0.053-1.448-0.42-2.044-1.421-0.705-0.852-1.375-1.299-2.014-1.342-0.639 0.128-0.66 0.394-0.064 0.799 0.681 0.511 1.16 1.15 1.437 1.916 1.128 1.555 2.587 2.13 4.376 1.725 0 0.554 0 1.028 0 1.421s0 0.666 0 0.814c0 0.149-0.069 0.303-0.208 0.463s-0.367 0.219-0.687 0.176c-1.257-0.447-2.428-1.070-3.514-1.869s-2.023-1.735-2.811-2.811c-0.788-1.075-1.4-2.262-1.837-3.561-0.435-1.298-0.653-2.661-0.653-4.087 0-1.789 0.34-3.471 1.022-5.047 0.681-1.576 1.608-2.949 2.779-4.12s2.544-2.097 4.12-2.779c1.576-0.682 3.258-1.022 5.047-1.022v0z"></path>
</svg>
