<svg
  xmlns="http://www.w3.org/2000/svg"
  width="64"
  height="64"
  viewBox="0 0 64 64"
  fill="black"
  fill-rule="nonzero"
>
  <path d="M32.73 2.67A29.12 29.12 0 0 1 44.42 5 31.17 31.17 0 0 1 54 11.44a29.94 29.94 0 0 1 8.93 21.06 30.35 30.35 0 0 1-1.48 9.55 28.57 28.57 0 0 1-4.22 8.22 32 32 0 0 1-6.48 6.52 28.43 28.43 0 0 1-8.25 4.29 1.74 1.74 0 0 1-1.59-.37 1.52 1.52 0 0 1-.49-1v-8.4a8.69 8.69 0 0 0-.59-3.45 5.24 5.24 0 0 0-1.41-2 22 22 0 0 0 9.3-3.33Q52 39.76 52.05 31a11.87 11.87 0 0 0-.85-4.51A11.46 11.46 0 0 0 48.94 23c.1-.39.27-1.3.52-2.74a9.54 9.54 0 0 0-.89-5.26 16.69 16.69 0 0 0-8.29 3.11 26.92 26.92 0 0 0-3.7-.66 33.14 33.14 0 0 0-3.85-.23c-1.29 0-2.57.07-3.85.19a20 20 0 0 0-3.7.7A16.72 16.72 0 0 0 16.89 15a10.19 10.19 0 0 0-1 5.18 11 11 0 0 0 .6 2.74A11.25 11.25 0 0 0 13.33 31q0 8.75 4.33 11.59A20.73 20.73 0 0 0 27 46a7.17 7.17 0 0 0-1.15 1.55 6.28 6.28 0 0 0-.7 2.52 13.28 13.28 0 0 1-3.93.7q-2.66.2-4.73-3.29c-1.64-2-3.19-3-4.67-3.11q-2.22.43-.15 1.85A9.49 9.49 0 0 1 15 50.64q3.93 5.41 10.14 4v5.18a1.65 1.65 0 0 1-.48 1.07 1.69 1.69 0 0 1-1.59.41A31.47 31.47 0 0 1 15 57 30.15 30.15 0 0 1 4.18 42.2a29.58 29.58 0 0 1-1.51-9.47A29 29 0 0 1 5 21 30.17 30.17 0 0 1 21 5a29 29 0 0 1 11.73-2.33z" />
</svg>
