<svg
  xmlns="http://www.w3.org/2000/svg"
  width="64"
  height="64"
  viewBox="0 0 64 64"
  fill="black"
  fill-rule="nonzero"
>
  <path d="M17.2 27.55a2.1 2.1 0 1 1 2.1-2.1 2.09 2.09 0 0 1-2.1 2.1zm29.33 16.76a2.1 2.1 0 1 1-2.09 2.09 2.09 2.09 0 0 1 2.09-2.09zM17.2 48.5a2.1 2.1 0 1 1 2.1-2.1 2.09 2.09 0 0 1-2.1 2.1zm0-8.38a6.29 6.29 0 1 0 5.93 8.38h17.48a6.28 6.28 0 1 0 .13-4.5c-1.39-.72-2.06-2.65-3.06-6.3-.84-3.07-1.79-6.56-4.09-9.36-2.43-3-5.86-4.56-10.44-4.88a6.29 6.29 0 1 0 0 4.2c7.67.65 9.06 5.76 10.54 11.15a27.51 27.51 0 0 0 1.93 5.54H23.13a6.29 6.29 0 0 0-5.93-4.23zM55.05 2.67H4.76a2.1 2.1 0 0 0 0 4.19h50.29A2.1 2.1 0 0 1 57.14 9v46.1a2.1 2.1 0 0 1-2.09 2.09H9a2.1 2.1 0 0 1-2.09-2.09V17.33A2.1 2.1 0 0 1 9 15.24h18.81a2.1 2.1 0 0 0 0-4.19H9a6.28 6.28 0 0 0-6.28 6.28v37.72A6.28 6.28 0 0 0 9 61.33h46.1a6.28 6.28 0 0 0 6.28-6.28V9a6.28 6.28 0 0 0-6.28-6.28z" />
</svg>
