<!-- Generated by IcoMoon.io -->
<svg version="1.1" xmlns="http://www.w3.org/2000/svg" width="32" height="32" viewBox="0 0 32 32">
<title>gitolite</title>
<path d="M16 22.79h3.090v-14.2h-3.090v14.2z"></path>
<path d="M23.29 8.59v5.48h-3.59v3.24h3.59v5.48h3.32v-5.48h3.59v-3.24h-3.59v-5.48h-3.32z"></path>
<path d="M11.79 13.35c-0.185-0.902-0.788-1.633-1.592-1.993l-0.018-0.007c-0.467-0.217-1.013-0.346-1.588-0.35h-0.002c-0.018-0-0.040-0.001-0.061-0.001-1.087 0-2.055 0.505-2.684 1.294l-0.005 0.007c-0.68 0.948-1.087 2.131-1.087 3.41 0 0.159 0.006 0.316 0.019 0.471l-0.001-0.021c-0.017 0.151-0.026 0.326-0.026 0.503 0 1.215 0.449 2.325 1.191 3.172l-0.005-0.006c0.681 0.668 1.615 1.080 2.645 1.080 0.002 0 0.003 0 0.005 0h-0c0.052 0.003 0.113 0.004 0.174 0.004 0.864 0 1.652-0.324 2.25-0.857l-0.003 0.003c0.614-0.57 1.033-1.343 1.148-2.211l0.002-0.019h-3.24v-2.35h5.78v7.52h-1.92l-0.29-1.76c-0.42 0.56-0.909 1.039-1.46 1.436l-0.020 0.014c-0.757 0.454-1.671 0.723-2.648 0.723-0.061 0-0.121-0.001-0.181-0.003l0.009 0c-0.052 0.002-0.113 0.003-0.174 0.003-1.723 0-3.27-0.752-4.331-1.947l-0.005-0.006c-1.167-1.302-1.88-3.032-1.88-4.929 0-0.138 0.004-0.274 0.011-0.41l-0.001 0.019c-0.005-0.109-0.008-0.236-0.008-0.364 0-1.956 0.702-3.749 1.868-5.139l-0.010 0.012c1.157-1.271 2.818-2.065 4.664-2.065 0.086 0 0.173 0.002 0.258 0.005l-0.012-0c0.080-0.004 0.174-0.006 0.268-0.006 1.512 0 2.899 0.534 3.983 1.424l-0.011-0.009c1.008 0.824 1.689 2.016 1.838 3.367l0.002 0.023z"></path>
</svg>
