<svg
  xmlns="http://www.w3.org/2000/svg"
  width="64"
  height="64"
  viewBox="0 0 64 64"
  fill="black"
  fill-rule="nonzero"
>
  <path d="M22.52 26.74a6.27 6.27 0 0 0-3.58-4.49 8.66 8.66 0 0 0-3.58-.79h-.14a7.71 7.71 0 0 0-6 2.91 13.16 13.16 0 0 0-2.45 7.68v1.06a10.07 10.07 0 0 0-.06 1.14 10.77 10.77 0 0 0 2.69 7.14 8.52 8.52 0 0 0 6 2.43h.41a7.62 7.62 0 0 0 5.07-1.93 8.33 8.33 0 0 0 2.59-5v-.05H16v-5.3h13v16.94h-4.26l-.66-4a14.65 14.65 0 0 1-3.29 3.24 11.67 11.67 0 0 1-6 1.63H14A13 13 0 0 1 4.25 45 16.58 16.58 0 0 1 0 33.91v-.93V32.18a18 18 0 0 1 4.21-11.55A14.18 14.18 0 0 1 14.7 16h1.16a14.06 14.06 0 0 1 9 3.21A11.38 11.38 0 0 1 29 26.77v.06zM48.43 16h7.48v12.36H64v7.3h-8.09V48h-7.48V35.66h-8.09v-7.3h8.09zM32 48V16h7v32z" />
</svg>
