<!-- Generated by IcoMoon.io -->
<svg version="1.1" xmlns="http://www.w3.org/2000/svg" width="32" height="32" viewBox="0 0 32 32">
<title>glasses</title>
<path d="M28.753 15.221c-0.277-0.359-0.549-0.721-0.804-1.096-1.491-2.195-6.133-8.967-6.133-8.967l-0.039-0.052c-0.319-0.4-0.796-0.645-1.307-0.674s-1.012 0.163-1.374 0.525l-1.067 1.067c-0.356 0.356-0.352 0.935 0.012 1.285 0.357 0.344 0.932 0.318 1.282-0.033l0.278-0.278c0.398-0.398 1.060-0.337 1.379 0.127l2.807 4.087c0.361 0.526-0.021 1.233-0.659 1.232-0.006 0-0.011 0-0.017 0v0c-3.238 0-5.971 2.164-6.832 5.124-0.036 0.125-0.151 0.211-0.282 0.211v0c-0.13 0-0.246-0.086-0.282-0.211-0.861-2.961-3.594-5.124-6.832-5.124v0c-0.006 0-0.011 0-0.017 0-0.638 0.002-1.020-0.706-0.659-1.232l2.807-4.087c0.319-0.464 0.981-0.525 1.379-0.127l0.299 0.299c0.356 0.356 0.935 0.351 1.285-0.012 0.344-0.357 0.318-0.932-0.033-1.282l-1.045-1.045c-0.362-0.362-0.864-0.554-1.374-0.525-0.511 0.028-0.987 0.274-1.307 0.674l-0.020 0.026c0 0-4.657 6.795-6.151 8.994-0.255 0.375-0.527 0.737-0.804 1.096-0.924 1.2-1.474 2.704-1.474 4.336v0c0 3.929 3.185 7.114 7.114 7.114v0c3.238 0 5.971-2.164 6.832-5.124 0.036-0.125 0.151-0.211 0.282-0.211v0c0.13 0 0.246 0.086 0.282 0.211 0.861 2.961 3.594 5.124 6.832 5.124v0c3.929 0 7.114-3.185 7.114-7.114v0c-0-1.632-0.55-3.136-1.474-4.336zM8.886 24.87c-2.93 0-5.313-2.383-5.313-5.313s2.383-5.313 5.313-5.313c2.93 0 5.313 2.383 5.313 5.313s-2.383 5.313-5.313 5.313zM23.114 24.87c-2.93 0-5.313-2.383-5.313-5.313s2.383-5.313 5.313-5.313c2.93 0 5.313 2.383 5.313 5.313s-2.383 5.313-5.313 5.313z"></path>
<path d="M25.77 19.557c0 1.465-1.192 2.657-2.657 2.657-0.497 0-0.9 0.403-0.9 0.9s0.403 0.9 0.9 0.9c2.458 0 4.457-2 4.457-4.457 0-0.497-0.403-0.9-0.9-0.9s-0.9 0.403-0.9 0.9z"></path>
<path d="M11.543 19.557c0 1.465-1.192 2.657-2.656 2.657-0.497 0-0.9 0.403-0.9 0.9s0.403 0.9 0.9 0.9c2.458 0 4.457-2 4.457-4.457 0-0.497-0.403-0.9-0.9-0.9s-0.9 0.403-0.9 0.9z"></path>
</svg>
