<svg
  xmlns="http://www.w3.org/2000/svg"
  width="64"
  height="64"
  viewBox="0 0 64 64"
  fill="black"
  fill-rule="nonzero"
>
  <path d="M4 32c0-7.73 3.14-14.73 8.2-19.8C17.26 7.14 24.27 4 32 4s14.73 3.14 19.8 8.2C56.86 17.26 60 24.27 60 32s-3.14 14.73-8.2 19.8A27.934 27.934 0 0 1 32 60c-7.73 0-14.73-3.14-19.8-8.2A27.934 27.934 0 0 1 4 32zm11.03 16.97c2.56 2.56 5.69 4.54 9.18 5.74-3-4.74-4.92-12.28-5.18-20.71H8.08c.48 5.83 3.04 11.07 6.95 14.97zm9.18-39.68c-3.49 1.2-6.62 3.18-9.18 5.74-3.9 3.9-6.47 9.14-6.95 14.97h10.95c.26-8.43 2.18-15.97 5.18-20.71zm24.76 39.68c3.9-3.9 6.47-9.14 6.95-14.97H44.97c-.26 8.43-2.18 15.97-5.18 20.71 3.49-1.2 6.62-3.18 9.18-5.74zm0-33.94a24.044 24.044 0 0 0-9.18-5.74c3 4.74 4.92 12.28 5.18 20.71h10.95a23.873 23.873 0 0 0-6.95-14.97zM27.81 52.9c1.41 2.1 2.78 2.96 3.89 3.08.1.01.2.02.3.02.1 0 .2-.01.3-.02 1.11-.12 2.48-.98 3.89-3.08 2.58-3.84 4.5-10.71 4.78-18.9H23.04c.27 8.19 2.2 15.07 4.78 18.9zm8.38-41.8C34.78 9 33.41 8.14 32.3 8.02c-.1-.01-.2-.02-.3-.02-.1 0-.2.01-.3.02-1.11.12-2.48.98-3.89 3.08-2.58 3.84-4.5 10.71-4.78 18.9h17.93c-.27-8.19-2.2-15.07-4.78-18.9z" />
</svg>
