<!-- Generated by IcoMoon.io -->
<svg version="1.1" xmlns="http://www.w3.org/2000/svg" width="32" height="32" viewBox="0 0 32 32">
<title>golang</title>
<path d="M26.19 16.44c-0.295-0.387-0.738-0.648-1.242-0.699l-0.008-0.001c-0.39-0.060-0.41-0.050-0.42-0.45 0-1 0-2 0-3 0.001-0.084 0.002-0.183 0.002-0.283 0-1.552-0.15-3.068-0.436-4.536l0.024 0.149c0-0.22-0.17-0.47-0.1-0.64s0.33-0.24 0.51-0.36c0.476-0.297 0.788-0.818 0.788-1.412 0-0.211-0.039-0.413-0.111-0.599l0.004 0.011c-0.266-0.814-1.018-1.391-1.905-1.391-0.334 0-0.649 0.082-0.926 0.227l0.011-0.005c-0.081 0.053-0.18 0.084-0.287 0.084-0.141 0-0.269-0.055-0.364-0.144l0 0c-0.944-0.682-2.093-1.138-3.34-1.267l-0.030-0.003c-0.49-0.070-0.95-0.12-1.36-0.12h-1.64c-0.66 0.1-1.32 0.18-2 0.3-1.385 0.209-2.617 0.748-3.649 1.534l0.019-0.014c-0.15 0.12-0.26 0-0.38 0-0.286-0.167-0.63-0.266-0.996-0.266-0.783 0-1.46 0.449-1.789 1.104l-0.005 0.012c-0.138 0.236-0.22 0.52-0.22 0.822 0 0.669 0.398 1.244 0.969 1.503l0.010 0.004c0.36 0.19 0.36 0.19 0.28 0.59-0.161 0.827-0.253 1.778-0.253 2.751 0 0.486 0.023 0.966 0.068 1.44l-0.005-0.060c0.090 1.26 0.18 2.52 0.28 3.79 0 0.2-0.060 0.28-0.26 0.28-0.005-0-0.012-0-0.018-0-0.441 0-0.85 0.135-1.189 0.365l0.007-0.005c-0.163 0.131-0.302 0.283-0.415 0.453l-0.005 0.007c-0.21 0.35 0.14 0.58 0.25 0.86s0.35 0.19 0.54 0.12c0.237-0.096 0.427-0.186 0.612-0.286l-0.032 0.016 0.48-0.22c0 0.31 0 0.55 0 0.79-0.070 1.24-0.18 2.48-0.22 3.72-0.007 0.14-0.011 0.305-0.011 0.47 0 1.077 0.165 2.116 0.47 3.093l-0.020-0.073c0.29 0.901 0.775 1.671 1.409 2.289l0.001 0.001 0.15 0.17c-0.279 0.193-0.52 0.38-0.751 0.579l0.011-0.009c-0.182 0.149-0.337 0.32-0.465 0.512l-0.005 0.008c-0.077 0.111-0.124 0.249-0.124 0.397 0 0.255 0.137 0.479 0.341 0.601l0.003 0.002c0.12 0.090 0.23 0.21 0.35 0.31h0.37c0.35-0.26 0.7-0.54 1.060-0.78 0.254-0.166 0.549-0.33 0.856-0.472l0.044-0.018c0.036-0.014 0.077-0.022 0.12-0.022s0.084 0.008 0.122 0.023l-0.002-0.001c1.325 0.518 2.858 0.818 4.462 0.818 0.493 0 0.978-0.028 1.456-0.083l-0.058 0.005c1.409-0.099 2.712-0.458 3.894-1.028l-0.064 0.028c0.053-0.026 0.115-0.041 0.18-0.041s0.127 0.015 0.183 0.042l-0.003-0.001c0.149 0.1 0.277 0.216 0.388 0.347l0.002 0.003c0.18 0.18 0.33 0.38 0.51 0.56 0.52 0.52 0.83 0.44 1.32 0 0.116-0.108 0.189-0.262 0.189-0.433 0-0.122-0.037-0.235-0.1-0.329l0.001 0.002c-0.236-0.357-0.477-0.667-0.737-0.958l0.007 0.008c-0.099-0.101-0.207-0.193-0.323-0.275l-0.007-0.005c0.029-0.062 0.059-0.114 0.093-0.164l-0.003 0.004c0.927-1.029 1.565-2.336 1.775-3.781l0.005-0.039c0.172-1.007 0.27-2.167 0.27-3.351 0-0.644-0.029-1.281-0.086-1.911l0.006 0.081c0-0.33 0-0.67-0.050-1 0 0 0 0 0-0.080l0.24 0.11c0.15 0.087 0.325 0.168 0.508 0.233l0.022 0.007c0.057 0.019 0.122 0.030 0.19 0.030s0.133-0.011 0.194-0.031l-0.004 0.001c0.242-0.168 0.398-0.445 0.398-0.758 0-0.094-0.014-0.184-0.040-0.269l0.002 0.007zM9.77 5.7c0.101-0.551 0.407-1.017 0.834-1.326l0.006-0.004c0.485-0.373 1.101-0.598 1.77-0.598 0.408 0 0.796 0.084 1.149 0.235l-0.019-0.007c0.775 0.284 1.334 0.977 1.419 1.811l0.001 0.009c0.016 0.101 0.025 0.217 0.025 0.335 0 0.759-0.374 1.431-0.948 1.84l-0.007 0.005c-0.456 0.341-1.027 0.552-1.646 0.57l-0.004 0c-0.057 0.005-0.124 0.008-0.192 0.008-1.342 0-2.43-1.088-2.43-2.43 0-0.158 0.015-0.313 0.044-0.463l-0.002 0.015zM15.69 10.51v0.79c0 0.27-0.19 0.38-0.4 0.46-0.035 0.014-0.076 0.022-0.119 0.022-0.155 0-0.284-0.106-0.32-0.25l-0-0.002c-0.069-0.267-0.122-0.585-0.149-0.909l-0.001-0.021c0-0.060 0.1-0.17 0.18-0.21s0.32-0.1 0.48-0.16c0.35-0.11 0.38-0.090 0.33 0.28zM16.69 11.74c-0.068 0.042-0.15 0.066-0.238 0.066-0.224 0-0.411-0.161-0.452-0.373l-0-0.003c-0.014-0.177-0.022-0.382-0.022-0.59s0.008-0.413 0.024-0.617l-0.002 0.027s0.12-0.12 0.16-0.11c0.238 0.057 0.445 0.129 0.642 0.219l-0.022-0.009c0.050 0 0.080 0.11 0.090 0.17s0 0.4 0.050 0.58 0.010 0.51-0.27 0.64zM17.85 10c-0.107 0.185-0.304 0.307-0.53 0.307-0.064 0-0.126-0.010-0.185-0.028l0.004 0.001c-0.2-0.060-0.39-0.14-0.59-0.22-0.168-0.067-0.362-0.105-0.565-0.105s-0.397 0.039-0.576 0.109l0.011-0.004c-0.18 0.071-0.407 0.143-0.639 0.201l-0.041 0.009c-0.46 0.090-0.76-0.17-0.76-0.69 0.030-0.327 0.222-0.602 0.495-0.748l0.005-0.002c0.080 0 0.18-0.16 0.16-0.23-0.070-0.34 0.16-0.53 0.37-0.7 0.26-0.183 0.583-0.292 0.932-0.292 0.281 0 0.546 0.071 0.777 0.197l-0.009-0.004c0.234 0.108 0.393 0.34 0.393 0.61 0 0.046-0.005 0.091-0.013 0.134l0.001-0.004c0 0.15 0 0.22 0.13 0.3 0.218 0.147 0.408 0.309 0.579 0.488l0.001 0.002c0.089 0.096 0.143 0.225 0.143 0.366 0 0.113-0.035 0.219-0.095 0.305l0.001-0.002zM21.47 6.6c-0.286 0.94-1.115 1.624-2.113 1.69l-0.007 0c-0.137 0.019-0.294 0.030-0.455 0.030-0.293 0-0.577-0.037-0.849-0.105l0.024 0.005c-0.912-0.185-1.611-0.915-1.748-1.828l-0.002-0.012c-0.025-0.126-0.039-0.272-0.039-0.42 0-0.744 0.359-1.403 0.913-1.815l0.006-0.004c0.489-0.405 1.122-0.651 1.813-0.651 0.024 0 0.047 0 0.071 0.001l-0.003-0c0.024-0.001 0.053-0.001 0.081-0.001 1.331 0 2.41 1.079 2.41 2.41 0 0.247-0.037 0.484-0.106 0.708l0.005-0.017z"></path>
<path d="M17.59 5.24c-0.424 0.046-0.752 0.402-0.752 0.835 0 0.019 0.001 0.038 0.002 0.057l-0-0.003c-0 0.006-0 0.014-0 0.021 0 0.433 0.34 0.787 0.768 0.809l0.002 0c0.432-0.026 0.772-0.383 0.772-0.819 0-0.018-0.001-0.036-0.002-0.054l0 0.002c0-0.009 0.001-0.020 0.001-0.031 0-0.443-0.351-0.803-0.789-0.819l-0.001-0zM18 6.48c-0.050-0.060-0.14-0.12-0.14-0.19s0.060-0.13 0.14-0.26c0.070 0.13 0.14 0.2 0.14 0.26s-0.14 0.12-0.14 0.19z"></path>
<path d="M11 5.45c-0.438 0.037-0.78 0.402-0.78 0.847 0 0.008 0 0.016 0 0.024l-0-0.001c0 0.436 0.354 0.79 0.79 0.79s0.79-0.354 0.79-0.79v0c0-0.006 0-0.014 0-0.021 0-0.452-0.353-0.822-0.798-0.848l-0.002-0zM11.38 6.69c-0.060-0.060-0.15-0.12-0.15-0.18s0.080-0.13 0.12-0.19l0.22 0.17z"></path>
<path d="M16.32 7.76c-0.135-0.050-0.29-0.079-0.453-0.079-0.332 0-0.635 0.121-0.869 0.32l0.002-0.002c-0.133 0.087-0.22 0.235-0.22 0.404 0 0.244 0.182 0.446 0.418 0.476l0.002 0c0.189 0.050 0.414 0.089 0.645 0.109l0.015 0.001c0.325-0.079 0.605-0.175 0.873-0.293l-0.033 0.013c0.139-0.073 0.232-0.217 0.232-0.382 0-0.131-0.059-0.249-0.152-0.328l-0.001-0c-0.126-0.113-0.281-0.197-0.453-0.239l-0.007-0.001z"></path>
</svg>
