<!-- Generated by IcoMoon.io -->
<svg version="1.1" xmlns="http://www.w3.org/2000/svg" width="32" height="32" viewBox="0 0 32 32">
<title>google-plus</title>
<path d="M11.63 14.391c1.683 0 3.034 0 4.051 0s2.368 0 4.051 0c0.074 0.296 0.125 0.597 0.153 0.902s0.042 0.615 0.042 0.93c0 1.24-0.199 2.372-0.597 3.399s-0.957 1.915-1.679 2.664c-0.721 0.749-1.591 1.332-2.608 1.748-1.018 0.416-2.155 0.624-3.413 0.624-1.184 0-2.303-0.226-3.358-0.68-1.054-0.453-1.975-1.073-2.761-1.859s-1.401-1.702-1.845-2.747c-0.444-1.045-0.666-2.169-0.666-3.372s0.222-2.326 0.666-3.371 1.059-1.961 1.845-2.747c0.786-0.786 1.707-1.406 2.761-1.859s2.173-0.68 3.358-0.68c1.073 0 2.109 0.199 3.108 0.597s1.887 0.967 2.664 1.707l-2.414 2.386c-0.444-0.425-0.957-0.754-1.54-0.985s-1.189-0.347-1.818-0.347c-1.443 0-2.678 0.513-3.704 1.54s-1.54 2.271-1.54 3.732c0 1.443 0.513 2.678 1.54 3.704 1.027 1.027 2.261 1.54 3.704 1.54 1.295 0 2.354-0.323 3.177-0.971 0.823-0.647 1.327-1.48 1.512-2.497h-4.689v-3.358zM29 17.054h-2.747v2.775h-2.137v-2.719h-2.719v-2.164h2.636v-2.719h2.164v2.664h2.719l0.084 2.163z"></path>
</svg>
