<!-- Generated by IcoMoon.io -->
<svg version="1.1" xmlns="http://www.w3.org/2000/svg" width="32" height="32" viewBox="0 0 32 32">
<title>grafana</title>
<path d="M20.77 11.67c1.537 0.136 2.896 0.806 3.91 1.82l0 0c1.494 1.336 2.431 3.269 2.431 5.421 0 0.031-0 0.063-0.001 0.094l0-0.005c-0.005 0.055-0.008 0.119-0.008 0.183 0 0.549 0.221 1.046 0.579 1.407l-0-0c0.504 0.547 0.837 1.259 0.909 2.046l0.001 0.014c0 0.006 0 0.013 0 0.021 0 0.154-0.065 0.292-0.17 0.389l-0 0c-0.642 0.506-1.449 0.829-2.329 0.879l-0.011 0.001c-0.186 0.023-0.347 0.115-0.459 0.249l-0.001 0.001c-0.616 0.875-1.33 1.626-2.137 2.263l-0.023 0.017c-0.123 0.1-0.208 0.243-0.23 0.407l-0 0.003c-0.092 0.939-0.415 1.788-0.912 2.508l0.012-0.018c-0.071 0.11-0.14 0.205-0.214 0.295l0.004-0.005c-0.18 0.21-0.36 0.58-0.55 0.59-0.407-0.025-0.783-0.14-1.113-0.327l0.013 0.007c-0.796-0.364-1.464-0.882-1.993-1.521l-0.007-0.009c-0.070-0.090-0.28-0.11-0.43-0.11-0.046 0.001-0.101 0.001-0.155 0.001-1.161 0-2.281-0.176-3.334-0.502l0.080 0.021c-0.069-0.026-0.149-0.040-0.233-0.040-0.158 0-0.303 0.053-0.419 0.142l0.002-0.001c-1.087 0.727-2.422 1.163-3.858 1.17h-0.002c-0.019 0.003-0.042 0.005-0.065 0.005-0.231 0-0.422-0.17-0.455-0.392l-0-0.003c-0.202-0.585-0.318-1.259-0.318-1.96 0-0.58 0.080-1.141 0.228-1.673l-0.010 0.044c0.021-0.060 0.033-0.129 0.033-0.2 0-0.177-0.074-0.337-0.193-0.45l-0-0c-0.45-0.56-0.85-1.17-1.3-1.74-0.127-0.165-0.302-0.287-0.503-0.348l-0.007-0.002c-1.773-0.438-3.284-1.375-4.423-2.651l-0.007-0.009c-0.034-0.064-0.053-0.14-0.053-0.22s0.020-0.156 0.055-0.223l-0.001 0.003c0.578-1.528 1.627-2.768 2.968-3.572l0.032-0.018c0.238-0.119 0.406-0.347 0.44-0.616l0-0.004c0.16-0.85 0.38-1.69 0.57-2.53 0.001-0.016 0.002-0.034 0.002-0.053 0-0.14-0.042-0.271-0.114-0.38l0.002 0.003c-0.828-1.276-1.32-2.836-1.32-4.512 0-0.144 0.004-0.287 0.011-0.428l-0.001 0.020c-0.001-0.010-0.001-0.022-0.001-0.035 0-0.228 0.156-0.42 0.368-0.475l0.003-0.001c0.808-0.337 1.747-0.534 2.732-0.534 0.811 0 1.591 0.133 2.32 0.378l-0.051-0.015c0.076 0.030 0.165 0.047 0.257 0.047 0.159 0 0.306-0.052 0.425-0.139l-0.002 0.001c0.746-0.516 1.602-0.956 2.514-1.277l0.076-0.023c0.136-0.060 0.238-0.175 0.279-0.316l0.001-0.004c0.437-1.194 1.204-2.181 2.191-2.877l0.019-0.013c0.079-0.067 0.182-0.107 0.295-0.107s0.216 0.040 0.296 0.108l-0.001-0.001c0.939 0.588 1.664 1.441 2.078 2.455l0.012 0.035c0.072 0.219 0.265 0.378 0.498 0.4l0.002 0c0.72 0.17 1.44 0.4 2.17 0.59 0.085 0.031 0.183 0.049 0.285 0.049s0.2-0.018 0.291-0.051l-0.006 0.002c0.653-0.363 1.427-0.589 2.251-0.62l0.009-0c0.020-0.003 0.044-0.005 0.068-0.005 0.204 0 0.376 0.136 0.431 0.322l0.001 0.003c0.261 0.556 0.413 1.207 0.413 1.894 0 0.192-0.012 0.382-0.035 0.568l0.002-0.022c-0.008 0.035-0.012 0.076-0.012 0.118 0 0.166 0.070 0.316 0.182 0.422l0 0c1.765 1.795 2.877 4.236 2.95 6.936l0 0.014c0 0.070 0 0.14 0 0.19s-0.14 0.26-0.2 0.38c-0.1-0.1-0.24-0.18-0.29-0.3-0.2-0.55-0.34-1.12-0.57-1.65-1.473-3.444-4.805-5.827-8.702-5.89l-0.008-0c-0.104-0.004-0.226-0.007-0.349-0.007-1.684 0-3.264 0.448-4.626 1.23l0.045-0.024c-1.762 1.101-3.049 2.824-3.558 4.855l-0.012 0.055c-0.277 0.854-0.436 1.838-0.436 2.858 0 0.293 0.013 0.583 0.039 0.869l-0.003-0.037c0.135 1.268 0.553 2.416 1.189 3.412l-0.019-0.032c1.348 2.267 3.785 3.762 6.571 3.762 0.066 0 0.132-0.001 0.198-0.003l-0.010 0c0.033 0.001 0.071 0.001 0.11 0.001 1.935 0 3.636-0.999 4.617-2.51l0.013-0.021c0.694-0.937 1.11-2.115 1.11-3.39 0-0.396-0.040-0.783-0.117-1.157l0.006 0.037c-0.476-2.049-2.286-3.553-4.447-3.553-0.341 0-0.673 0.037-0.993 0.108l0.030-0.006c-1.551 0.42-2.673 1.814-2.673 3.471 0 0.486 0.097 0.95 0.272 1.373l-0.009-0.024c0.501 0.998 1.517 1.671 2.69 1.671 0.407 0 0.796-0.081 1.15-0.228l-0.020 0.007c0.12-0.060 0.32 0 0.47 0.050-0.060 0.15-0.080 0.38-0.2 0.47-0.551 0.35-1.223 0.558-1.943 0.558-0.837 0-1.609-0.281-2.226-0.755l0.009 0.006c-1.113-0.839-1.824-2.158-1.824-3.643 0-0.688 0.153-1.34 0.426-1.925l-0.012 0.028c0.89-2.26 2.87-3.58 6.090-3.57z"></path>
</svg>
