<svg
  xmlns="http://www.w3.org/2000/svg"
  width="64"
  height="64"
  viewBox="0 0 64 64"
  fill="black"
  fill-rule="nonzero"
>
  <path d="M41.85 23a13 13 0 0 1 8.06 3.75 15 15 0 0 1 5 11.18V38.5a4.15 4.15 0 0 0 1.19 2.9 7.16 7.16 0 0 1 1.9 4.24v.07a1.09 1.09 0 0 1-.35.81 8.6 8.6 0 0 1-4.8 1.81 1.49 1.49 0 0 0-.95.51 22 22 0 0 1-4.4 4.67h-.05a1.31 1.31 0 0 0-.48.84A10.91 10.91 0 0 1 45 59.56c-.15.23-.29.42-.44.61-.37.43-.75 1.19-1.14 1.21a5.31 5.31 0 0 1-2.29-.67 11.45 11.45 0 0 1-4.11-3.13c-.14-.18-.57-.23-.88-.23h-.32a23.27 23.27 0 0 1-6.87-1l.16.05a1.21 1.21 0 0 0-.48-.09 1.38 1.38 0 0 0-.86.3 14.37 14.37 0 0 1-7.95 2.41h-.13a1 1 0 0 1-.94-.8 12.4 12.4 0 0 1-.66-4 13.12 13.12 0 0 1 .47-3.45v.09a1.3 1.3 0 0 0 .07-.41 1.28 1.28 0 0 0-.4-.93c-.93-1.15-1.75-2.41-2.68-3.58a2.09 2.09 0 0 0-1-.72 17.84 17.84 0 0 1-9.11-5.47 1 1 0 0 1-.11-.46.93.93 0 0 1 .12-.46 14.59 14.59 0 0 1 6.12-7.36h.07a1.63 1.63 0 0 0 .9-1.27c.33-1.75.79-3.48 1.18-5.21v-.11a1.38 1.38 0 0 0-.23-.78 17.12 17.12 0 0 1-2.72-9.29v-.89a1 1 0 0 1 .76-1A15 15 0 0 1 22 12.4h-.11a1.51 1.51 0 0 0 .53.1 1.5 1.5 0 0 0 .88-.29 22.12 22.12 0 0 1 5.18-2.63l.16-.05a1 1 0 0 0 .57-.65 12.48 12.48 0 0 1 4.51-5.93.93.93 0 0 1 .61-.22 1 1 0 0 1 .61.22A10.77 10.77 0 0 1 39.22 8v.07a1.2 1.2 0 0 0 1 .82c1.49.35 3 .83 4.48 1.22a1.76 1.76 0 0 0 .58.1 1.68 1.68 0 0 0 .6-.11 10.32 10.32 0 0 1 4.64-1.28h.16a.94.94 0 0 1 .89.66 9.21 9.21 0 0 1 .85 3.9 11.14 11.14 0 0 1-.07 1.17.93.93 0 0 0 0 .24 1.2 1.2 0 0 0 .37.87 21.14 21.14 0 0 1 6.08 14.3v.42a6.93 6.93 0 0 1-.41.78c-.21-.21-.5-.37-.6-.62-.41-1.13-.7-2.31-1.17-3.4A19.86 19.86 0 0 0 38.7 14.92H38a19.14 19.14 0 0 0-9.54 2.53l.1-.05a16.52 16.52 0 0 0-7.33 10v.11a19.34 19.34 0 0 0-.9 5.89c0 .61 0 1.2.08 1.79v-.07a16.1 16.1 0 0 0 2.45 7v-.07a15.72 15.72 0 0 0 13.44 7.78h.61a11.34 11.34 0 0 0 9.52-5.17 11.84 11.84 0 0 0 2-9.37v.08A9.41 9.41 0 0 0 39.35 28a9.26 9.26 0 0 0-2.05.22h.06a7.4 7.4 0 0 0-4.94 10 6.17 6.17 0 0 0 5.54 3.44 6 6 0 0 0 2.37-.47 1.52 1.52 0 0 1 1 .1c-.13.31-.17.79-.41 1a7.55 7.55 0 0 1-8.6-.41 9.38 9.38 0 0 1-2.88-11.48v.06C31.18 25.73 35.26 23 41.9 23z" />
</svg>
