<!-- Generated by IcoMoon.io -->
<svg version="1.1" xmlns="http://www.w3.org/2000/svg" width="32" height="32" viewBox="0 0 32 32">
<title>graphite</title>
<path d="M30.22 8.76c-0.193-0.118-0.417-0.229-0.651-0.32l-0.029-0.010c-0.37-0.12-0.69-0.24-0.66-0.74 0-0.12-0.21-0.35-0.35-0.38-0.224-0.050-0.482-0.079-0.747-0.079-0.089 0-0.177 0.003-0.265 0.010l0.012-0.001c-0.77 0-1.72 0-2-0.63s-0.69-0.53-1.17-0.59c-0.505-0.074-0.938-0.165-1.361-0.279l0.081 0.019h-0.94c-0.426 0.405-1.003 0.653-1.638 0.653-0.321 0-0.628-0.064-0.908-0.179l0.016 0.006c-0.175-0.096-0.383-0.152-0.605-0.152-0.315 0-0.604 0.114-0.827 0.303l0.002-0.002c-0.384 0.237-0.849 0.378-1.347 0.378-0.385 0-0.75-0.084-1.079-0.235l0.016 0.007c-0.171-0.094-0.375-0.15-0.591-0.15-0.31 0-0.593 0.114-0.81 0.301l0.002-0.001c-0.332 0.159-0.719 0.269-1.126 0.309l-0.014 0.001-0.88 0.23c0.72 0.87 0.62 1.22-0.4 1.56-0.41 0.14-0.86 0.13-1.28 0.24-0.57 0.14-0.58 0.29-0.24 0.77 0.090 0.13-0.060 0.45-0.13 0.67-0.1 0.207-0.2 0.381-0.31 0.547l0.010-0.017c0.161 0.101 0.347 0.186 0.544 0.246l0.016 0.004c0.025 0.001 0.054 0.001 0.084 0.001 0.226 0 0.446-0.030 0.654-0.085l-0.018 0.004c0.085-0.014 0.184-0.022 0.284-0.022 0.684 0 1.281 0.371 1.601 0.923l0.005 0.009c0.070 0.2-0.13 0.48-0.22 0.73s-0.29 0.42-0.23 0.54c0.103 0.206 0.29 0.357 0.515 0.409l0.005 0.001c0.128 0.021 0.275 0.033 0.425 0.033s0.297-0.012 0.441-0.036l-0.016 0.002c0.155-0.050 0.333-0.078 0.518-0.078 0.501 0 0.952 0.21 1.271 0.548l0.001 0.001c0.081 0.1 0.19 0.174 0.316 0.209l0.004 0.001c0.291 0.077 0.502 0.338 0.502 0.649 0 0.11-0.026 0.214-0.073 0.305l0.002-0.004c-0.37 0.55-0.41 1.38-1.22 1.59-0.41 0.11-0.85 0.16-1.25 0.29-0.286 0.102-0.616 0.161-0.96 0.161s-0.674-0.059-0.981-0.168l0.021 0.006c-0.46-0.16-1.23-1.1-1.17-1.55 0.092-0.248 0.203-0.463 0.337-0.661l-0.007 0.011c0.12-0.24 0.38-0.57 0.3-0.7-0.169-0.208-0.416-0.347-0.696-0.37l-0.004-0c-0.61-0.050-1.21 0-1.82 0-0.134-0.012-0.252-0.071-0.34-0.16l-0-0c-0.271-0.288-0.654-0.468-1.080-0.468s-0.809 0.18-1.079 0.467l-0.001 0.001c-0.538 0.386-1.163 0.697-1.835 0.899l-0.045 0.011c-0.44 0.18-1 0.17-1.38 0.38-0.67 0.35-0.67 0.84-0.070 1.36-0.047 0.606-0.404 1.119-0.911 1.386l-0.009 0.005c-0.28 0.12-0.45 0.46-0.66 0.71v0.26c0.44 0.68 1 0.47 1.66 0.35 0.179-0.021 0.385-0.034 0.595-0.034s0.416 0.012 0.62 0.036l-0.025-0.002c0.53 0 0.69 0.35 0.72 0.82 0.021 0.135 0.103 0.248 0.218 0.309l0.002 0.001c0.42 0.18 0.34 0.46 0.26 0.81-0.039 0.57-0.354 1.059-0.812 1.336l-0.008 0.004c-0.279 0.208-0.489 0.495-0.597 0.828l-0.003 0.012c-0.048 0.113-0.076 0.245-0.076 0.383 0 0.552 0.448 1 1 1 0.027 0 0.053-0.001 0.080-0.003l-0.003 0c0.307-0.033 0.588-0.107 0.85-0.217l-0.020 0.007c0.19-0.038 0.409-0.060 0.633-0.060 0.585 0 1.135 0.148 1.615 0.409l-0.018-0.009c0.069 0.098 0.113 0.218 0.12 0.348l0 0.002c0.030 0.606 0.528 1.085 1.139 1.085 0.1 0 0.197-0.013 0.289-0.037l-0.008 0.002c0.883-0.113 1.59-0.756 1.797-1.595l0.003-0.015c0.050-0.18 0.090-0.41 0.22-0.51 0.72-0.59 1.3-1.48 2.45-1.19 0.030 0.010 0.064 0.016 0.1 0.016s0.070-0.006 0.102-0.016l-0.002 0.001c0.321-0.195 0.71-0.311 1.125-0.311s0.804 0.116 1.135 0.317l-0.010-0.005c0.248 0.102 0.447 0.285 0.567 0.514l0.003 0.006c0.178 0.607 0.73 1.042 1.384 1.042 0.123 0 0.242-0.015 0.356-0.044l-0.010 0.002c0.65-0.12 1.136-0.682 1.136-1.358 0-0.046-0.002-0.092-0.007-0.137l0 0.006c0.197-0.813 0.89-1.417 1.734-1.48l0.006-0c0.079 0.018 0.17 0.029 0.263 0.029 0.515 0 0.955-0.319 1.134-0.77l0.003-0.008c0.012-0.069 0.020-0.148 0.020-0.228 0-0.541-0.32-1.006-0.781-1.218l-0.008-0.003c-0.495-0.303-0.82-0.841-0.82-1.454 0-0.939 0.761-1.7 1.7-1.7 0.042 0 0.084 0.002 0.125 0.005l-0.006-0c0.020 0.002 0.044 0.003 0.067 0.003 0.414 0 0.75-0.336 0.75-0.75 0-0.331-0.215-0.612-0.512-0.712l-0.005-0.002c-0.484-0.075-0.85-0.489-0.85-0.989 0-0.004 0-0.008 0-0.012v0.001c0.010-0.677 0.561-1.223 1.24-1.223 0.028 0 0.056 0.001 0.084 0.003l-0.004-0c0.37 0 0.83 0 0.89-0.46s-0.38-0.56-0.71-0.73-0.56-0.4-0.54-0.57 0.25-0.73 0.49-0.8c0.379-0.159 0.819-0.251 1.28-0.251s0.901 0.092 1.302 0.259l-0.022-0.008c0.292 0.141 0.632 0.234 0.991 0.259l0.009 0.001c0.227-0.021 0.419-0.156 0.518-0.346l0.002-0.004c0-0.5 0.38-0.5 0.73-0.55 0.309-0.066 0.577-0.149 0.834-0.252l-0.034 0.012c0-0.090-0.010-0.16-0.010-0.24zM5 18.27c-0.42-0.267-0.737-0.664-0.896-1.135l-0.004-0.015c-0.060-0.31 0.37-0.74 0.6-1.1 0.090-0.14 0.31-0.2 0.39-0.34 0.439-0.675 1.19-1.116 2.044-1.116 0.058 0 0.116 0.002 0.174 0.006l-0.008-0c0.42 0 0.85-0.19 1.26-0.19 0.007-0 0.015-0 0.024-0 0.215 0 0.417 0.056 0.593 0.153l-0.006-0.003c0.435 0.22 0.78 0.565 0.994 0.987l0.006 0.013c0.025 0.094 0.039 0.202 0.039 0.314 0 0.395-0.177 0.748-0.457 0.985l-0.002 0.002c-0.435 0.553-0.988 0.994-1.623 1.289l-0.027 0.011c-0.203 0.075-0.467 0.154-0.736 0.219l-0.054 0.011v-0.11c-0.256 0.006-0.499 0.053-0.726 0.135l0.016-0.005c-0.206 0.109-0.45 0.173-0.71 0.173-0.334 0-0.643-0.106-0.895-0.287l0.005 0.003zM13.5 20.83c-0.127 0.155-0.246 0.329-0.35 0.511l-0.010 0.019c-0.408 0.971-1.351 1.641-2.45 1.641-0.021 0-0.042-0-0.063-0.001l0.003 0c-0.038-0.004-0.081-0.006-0.126-0.006-0.19 0-0.371 0.043-0.532 0.12l0.008-0.003c-0.77 0.55-1.47 0.11-2.19-0.090 0 0 0 0-0.060 0-0.34-0.48-0.87-0.93-0.94-1.45-0.045-0.132-0.071-0.285-0.071-0.444 0-0.507 0.266-0.952 0.665-1.203l0.006-0.003c0.138-0.077 0.247-0.189 0.318-0.326l0.002-0.004c0.438-0.949 1.382-1.596 2.477-1.596 0.064 0 0.128 0.002 0.192 0.007l-0.009-0c0.43 0 0.84-0.16 1.26-0.16 0.009-0 0.019-0 0.029-0 0.252 0 0.489 0.059 0.7 0.164l-0.009-0.004c0.216 0.13 0.403 0.275 0.57 0.44l-0-0c0.090 0.090 0.14 0.26 0.25 0.3 0.6 0.21 0.63 0.7 0.75 1.27-0.16 0.26-0.3 0.54-0.47 0.82zM19.5 6.62c0.015-0 0.032-0.001 0.049-0.001 0.301 0 0.587 0.067 0.843 0.186l-0.012-0.005c0.27 0.14 0.83 0.080 0.71 0.65-0.072 0.425-0.438 0.746-0.878 0.746-0.075 0-0.148-0.009-0.218-0.027l0.006 0.001c-0.759-0.058-1.444-0.15-2.116-0.278l0.116 0.018c-0.222-0.089-0.414-0.204-0.584-0.343l0.004 0.003c0.46-0.582 1.166-0.953 1.959-0.953 0.043 0 0.085 0.001 0.127 0.003l-0.006-0zM19.5 10.010c-0.498 0.162-1.13 0.321-1.776 0.444l-0.104 0.016c-0.568-0.177-1.061-0.412-1.514-0.704l0.024 0.014c-0.45-0.39 0.1-0.74 0.37-0.95 0.369-0.219 0.815-0.349 1.29-0.349 0.074 0 0.147 0.003 0.22 0.009l-0.009-0.001c0.033-0.001 0.071-0.002 0.109-0.002 0.65 0 1.256 0.191 1.763 0.52l-0.013-0.008c0.074 0.105 0.119 0.237 0.119 0.378 0 0.285-0.181 0.528-0.434 0.62l-0.005 0.001zM14.46 7.12c0.321-0.076 0.69-0.12 1.069-0.12 0.018 0 0.036 0 0.054 0l-0.003-0c0.022-0.001 0.049-0.001 0.075-0.001 0.437 0 0.844 0.131 1.183 0.356l-0.008-0.005c0.32 0.21 0.45 0.43 0.12 0.7-0.239 0.226-0.521 0.408-0.832 0.534l-0.018 0.006c-0.389 0.085-0.837 0.135-1.297 0.14l-0.003 0c-0.123-0.004-0.24-0.029-0.347-0.072l0.007 0.002c-0.35-0.2-0.68-0.44-1-0.66 0.32-0.33 0.62-0.79 1-0.88zM11.46 10.42c-0.38-0.26-0.29-0.44 0-0.76 0.6-0.76 1.54-0.66 2.54-0.83 0.468 0.173 0.86 0.355 1.235 0.563l-0.045-0.023c0.38 0.22 0.18 0.75-0.38 1.13-0.471 0.235-1.026 0.372-1.613 0.372-0.648 0-1.257-0.168-1.786-0.462l0.019 0.010zM14.090 12.55c-0.083-0.128-0.132-0.284-0.132-0.453 0-0.114 0.023-0.224 0.064-0.323l-0.002 0.006c0.314-0.63 0.944-1.059 1.677-1.080l0.003-0c0.336-0.018 0.648-0.058 0.953-0.117l-0.043 0.007 0.060-0.13c0.685 0.276 1.254 0.554 1.801 0.867l-0.071-0.037c0.37 0.24 0.12 1.14-0.36 1.5-0.518 0.321-1.145 0.511-1.818 0.511-0.82 0-1.574-0.283-2.17-0.756l0.007 0.005zM21.020 19.55c-0.074 0.071-0.12 0.171-0.12 0.282 0 0.003 0 0.006 0 0.009v-0c0.17 0.81-0.45 1.11-1 1.45-0.239 0.122-0.518 0.201-0.814 0.22l-0.006 0c-0.26 0-0.58 0-0.77 0.11-0.82 0.54-1.52-0.050-2.27-0.17-0.090 0-0.15-0.19-0.22-0.29s-0.21-0.45-0.38-0.51c-0.407-0.133-0.695-0.509-0.695-0.952 0-0.106 0.017-0.209 0.047-0.305l-0.002 0.007-0.19-0.090c0.23-0.35 0.58-0.67 0.64-1 0.107-0.515 0.493-0.919 0.991-1.048l0.009-0.002c0.588-0.257 1.271-0.42 1.989-0.45l0.011-0c0.002 0 0.004 0 0.006 0 0.474 0 0.926 0.096 1.337 0.268l-0.023-0.008c0.524 0.219 0.96 0.561 1.284 0.992l0.006 0.008c0.29 0.37 0.65 0.93 0.15 1.48zM22.34 15.46c-0.186 0.464-0.632 0.785-1.154 0.785-0.041 0-0.081-0.002-0.121-0.006l0.005 0c-0.299 0.019-0.648 0.030-1 0.030s-0.701-0.011-1.047-0.032l0.047 0.002c-0.29 0-0.56-0.32-0.82-0.53-0.289-0.185-0.536-0.404-0.746-0.655l-0.004-0.005c-0.44-0.66 0.63-2 1.52-2 0.3-0.004 0.589-0.040 0.867-0.105l-0.027 0.005c0.039-0.005 0.084-0.008 0.13-0.008s0.091 0.003 0.135 0.009l-0.005-0.001c0.916 0.055 1.736 0.425 2.363 1.002l-0.003-0.002c0.44 0.53-0.020 1.050-0.17 1.51zM22.83 12.46c-0.49 0.090-1 0.11-1.5 0.16l-0.060 0.12c-0.725-0.29-1.317-0.572-1.89-0.885l0.090 0.045c-0.147-0.15-0.237-0.355-0.237-0.581 0-0.060 0.006-0.118 0.018-0.174l-0.001 0.005c0.126-0.494 0.537-0.864 1.044-0.929l0.006-0.001c0.42 0 0.85-0.11 1.27-0.11 0.032-0.002 0.070-0.003 0.107-0.003 0.483 0 0.926 0.167 1.277 0.446l-0.004-0.003c0.27 0.22 0.75 0.5 0.73 0.71-0.090 0.47-0.22 1.060-0.88 1.18zM24 9.59c-0.448 0.127-0.997 0.239-1.558 0.313l-0.062 0.007c-0.654-0.219-1.176-0.429-1.685-0.663l0.105 0.043c-0.37-0.17-0.22-0.76 0.24-1 0.304-0.141 0.659-0.223 1.034-0.223 0.041 0 0.082 0.001 0.122 0.003l-0.006-0c0.050-0.003 0.109-0.004 0.168-0.004 0.707 0 1.366 0.21 1.915 0.572l-0.013-0.008c0.091 0.105 0.146 0.242 0.146 0.392 0 0.262-0.168 0.485-0.402 0.566l-0.004 0.001zM24.69 7.51c-0.387 0.118-0.851 0.216-1.328 0.276l-0.043 0.004c-0.42-0.13-0.95-0.27-1.45-0.48s-0.31-0.56 0.1-0.79c0.28-0.121 0.606-0.191 0.949-0.191 0.028 0 0.057 0 0.085 0.001l-0.004-0c0.061-0.004 0.133-0.007 0.205-0.007 0.573 0 1.109 0.155 1.57 0.425l-0.015-0.008c0.127 0.074 0.211 0.209 0.211 0.364 0 0.193-0.131 0.356-0.308 0.405l-0.003 0.001zM28.54 8.85c-0.068 0.171-0.21 0.301-0.386 0.349l-0.004 0.001c-0.339 0.067-0.745 0.117-1.157 0.139l-0.023 0.001v0.11c-0.61-0.22-1.24-0.42-1.83-0.67-0.134-0.089-0.222-0.239-0.222-0.41 0-0.014 0.001-0.028 0.002-0.042l-0 0.002c0.14-0.27 0.33-0.63 0.58-0.69 0.257-0.067 0.553-0.107 0.858-0.11h0.002c0.76 0.009 1.456 0.275 2.007 0.715l-0.007-0.005c0.102 0.127 0.164 0.29 0.164 0.468 0 0.050-0.005 0.1-0.014 0.147l0.001-0.005z"></path>
</svg>
