<svg
  xmlns="http://www.w3.org/2000/svg"
  width="64"
  height="64"
  viewBox="0 0 64 64"
  fill="black"
  fill-rule="nonzero"
>
  <path d="M43.47 27.51L32.46 39.36c-.72.78-1.93.86-2.75.18l-4.48-3.73-12.92 15.2H54.8zM23.48 31.7c.71-.84 1.96-.94 2.8-.24l4.54 3.79 11.71-12.61c.45-.48 1.11-.72 1.76-.62.65.1 1.22.51 1.5 1.11l13.98 28.96c.07.14.13.3.17.46a2.026 2.026 0 0 1-.26 1.51c-.15.24-.35.45-.6.61-.2.13-.42.22-.65.28-.16.04-.33.05-.49.05H7.99c-.11 0-.21-.01-.31-.02-.13-.02-.26-.05-.39-.1-.12-.05-.24-.1-.36-.18-.1-.06-.2-.14-.29-.22-.21-.19-.37-.41-.48-.65-.11-.24-.18-.5-.18-.78 0-.12 0-.24.02-.36.02-.13.05-.26.1-.39.05-.12.1-.24.18-.36.06-.09.12-.17.19-.25zm7.97-3.32c-.73.76-1.92.83-2.73.16l-4.48-3.74L7.52 44.3c-.72.84-1.98.94-2.82.22-.84-.72-.94-1.98-.22-2.82l18-21c.71-.83 1.96-.94 2.8-.23l4.56 3.8L45.33 8H39c-1.1 0-2-.9-2-2s.9-2 2-2h11.07a1.946 1.946 0 0 1 1.27.51l.06.06c.2.19.35.41.45.65.1.24.16.5.16.77v11.02c0 1.1-.9 2-2 2s-2-.9-2-2v-6z" />
</svg>
