<!-- Generated by IcoMoon.io -->
<svg version="1.1" xmlns="http://www.w3.org/2000/svg" width="32" height="32" viewBox="0 0 32 32">
<title>gunicorn</title>
<path d="M14.24 18.42c-0.006 0.071-0.009 0.153-0.009 0.236 0 0.353 0.062 0.691 0.176 1.004l-0.007-0.020 1.080 3.42c0.060 0.2 0.11 0.41 0.16 0.62 0.012 0.030 0.018 0.064 0.018 0.1s-0.007 0.070-0.019 0.102l0.001-0.002c-0.16 0.48-0.31 1-0.49 1.43s-0.29 0.6-0.73 0.53c-0.22 0-0.45 0-0.67 0s-0.26-0.16-0.19-0.36c0.1-0.292 0.204-0.671 0.287-1.057l0.013-0.073c0.035-0.15 0.056-0.321 0.056-0.498 0-0.536-0.187-1.029-0.499-1.416l0.003 0.004c-0.414-0.483-0.752-1.047-0.987-1.661l-0.013-0.039c-0.147-0.424-0.256-0.92-0.308-1.432l-0.002-0.028c-0.060-0.46-0.37-0.56-0.74-0.42-0.734 0.298-1.333 0.586-1.911 0.906l0.091-0.046c-0.387 0.258-0.639 0.692-0.639 1.186 0 0.177 0.033 0.347 0.092 0.504l-0.003-0.010c0.069 0.251 0.161 0.47 0.277 0.674l-0.007-0.014c0.101 0.129 0.22 0.239 0.354 0.327l0.006 0.003 0.59 0.5c0.015 0.031 0.023 0.067 0.023 0.105s-0.009 0.074-0.024 0.107l0.001-0.002c-0.141 0.451-0.406 0.83-0.755 1.106l-0.005 0.004c-0.045 0.021-0.099 0.034-0.155 0.034s-0.11-0.013-0.157-0.035l0.002 0.001c-0.298-0.19-0.555-0.384-0.797-0.596l0.007 0.006c-0.25-0.22-0.47-0.46-0.71-0.68-0.26-0.257-0.428-0.607-0.45-0.996l-0-0.004c-0.064-0.347-0.101-0.747-0.101-1.155s0.037-0.808 0.107-1.196l-0.006 0.041c0.196-0.694 0.565-1.287 1.058-1.748l0.002-0.002c0.44-0.45 0.91-0.86 1.37-1.29 0.22-0.2 0.43-0.39 0.64-0.6 0.048-0.050 0.080-0.116 0.090-0.188l0-0.002c0-0.69 0-1.4 0-2.090-0.033-0.523-0.090-1-0.171-1.469l0.011 0.079c-0.065-0.427-0.314-0.786-0.664-0.996l-0.006-0.004c-0.071-0.060-0.163-0.096-0.264-0.096-0.159 0-0.297 0.091-0.365 0.224l-0.001 0.002c-0.16 0.26-0.27 0.54-0.42 0.82-0.094 0.223-0.191 0.41-0.301 0.589l0.011-0.019c-0.151 0.201-0.389 0.33-0.657 0.33-0.090 0-0.177-0.015-0.258-0.042l0.006 0.002c-0.358-0.098-0.627-0.397-0.679-0.765l-0.001-0.005c0-0.64-0.070-1.27-0.080-1.91 0.008-0.404 0.037-0.792 0.086-1.173l-0.006 0.053c0.005-0.028 0.007-0.060 0.007-0.093 0-0.243-0.14-0.453-0.343-0.555l-0.004-0.002c-0.66-0.37-1.32-0.75-2-1.11-0.4-0.22-0.8-0.42-1.2-0.65-0.459-0.258-0.848-0.513-1.219-0.791l0.029 0.021c0.407 0.11 0.74 0.223 1.064 0.353l-0.064-0.023c1.19 0.5 2.43 0.87 3.66 1.27 0.41 0.13 0.46 0 0.48-0.36s0-0.72 0-1.090h0.060c0.693 0.295 1.498 0.466 2.344 0.466 0.094 0 0.187-0.002 0.279-0.006l-0.013 0c0.792 0.086 1.49 0.206 2.173 0.364l-0.123-0.024c0.534 0.181 0.97 0.533 1.254 0.99l0.006 0.010c0.33 0.44 0.63 0.89 0.92 1.35s0.57 1 0.87 1.44c0.411 0.699 1.159 1.161 2.015 1.161 0.172 0 0.339-0.019 0.5-0.054l-0.015 0.003c1.13-0.16 2.25-0.39 3.38-0.56 0.41-0.072 0.883-0.112 1.365-0.112s0.955 0.041 1.414 0.119l-0.049-0.007c0.481 0.116 0.904 0.292 1.291 0.522l-0.021-0.012c0.83 0.45 1.541 0.993 2.158 1.628l0.002 0.002c0.346 0.406 0.655 0.861 0.911 1.35l0.019 0.040c0.198 0.342 0.396 0.75 0.566 1.173l0.024 0.067c0.39 1 0.75 2 1.12 3.050l0.45 1.1c0.26 0.59 0.26 0.64-0.36 0.62-0.229-0.004-0.449-0.029-0.663-0.074l0.023 0.004c-0.584-0.164-1.046-0.584-1.265-1.127l-0.005-0.013c-0.28-0.64-0.47-1.31-0.74-2-0.19-0.45-0.43-0.89-0.66-1.33-0.052-0.058-0.126-0.096-0.209-0.1l-0.001-0s-0.1 0.090-0.11 0.15c-0.11 0.34-0.2 0.69-0.29 1-0.025 0.098-0.039 0.21-0.039 0.325 0 0.248 0.067 0.481 0.183 0.682l-0.003-0.007c0.25 0.48 0.5 0.95 0.76 1.41 0.465 0.817 0.813 1.767 0.992 2.776l0.008 0.054c0.064 0.407 0.101 0.877 0.101 1.355s-0.037 0.948-0.108 1.406l0.006-0.051c0 0.050-0.090 0.13-0.14 0.13h-1c-0.24 0-0.34-0.14-0.35-0.44 0-0.56 0-1.11-0.050-1.66 0.002-0.030 0.002-0.065 0.002-0.1 0-0.58-0.238-1.104-0.622-1.479l-0-0c-0.189-0.179-0.365-0.365-0.532-0.56l-0.008-0.010-1.34-1.64q-0.26-0.33-0.54-0.66c-0.13-0.15-0.27-0.13-0.32 0.080-0.070 0.38-0.12 0.78-0.16 1.16s0 0.47 0 0.71c0 0.001 0 0.001 0 0.002 0 0.243-0.087 0.466-0.231 0.64l0.001-0.002c-0.476 0.611-0.825 1.345-0.994 2.145l-0.006 0.035c-0.090 0.41-0.17 0.82-0.24 1.22s-0.1 0.4-0.41 0.44-0.74 0-1.12 0c-0.16 0-0.16-0.11-0.15-0.23 0.050-0.49 0.1-1 0.16-1.48 0.232-1.078 0.373-2.322 0.39-3.597l0-0.013c0-0.42-0.080-0.84-0.14-1.26s-0.16-0.38-0.5-0.39l-3.23 0.010c-0.49 0-1 0-1.47-0.070-0.042-0.002-0.091-0.004-0.14-0.004s-0.098 0.001-0.147 0.004l0.007-0z"></path>
</svg>
