<svg
  xmlns="http://www.w3.org/2000/svg"
  width="64"
  height="64"
  viewBox="0 0 64 64"
  fill="black"
  fill-rule="nonzero"
>
  <path d="M43.31 20.69A15.93 15.93 0 0 0 32 16c-4.42 0-8.42 1.79-11.31 4.69A15.93 15.93 0 0 0 16 32c0 1.1-.9 2-2 2h-3c-.83 0-1.58.33-2.12.88C8.33 35.43 8 36.17 8 37v7c0 .83.33 1.58.88 2.12.55.55 1.29.88 2.12.88h1v-7c0-1.1.9-2 2-2s2 .9 2 2v9c0 1.1-.9 2-2 2h-3a7 7 0 0 1-7-7v-7a7 7 0 0 1 7-7h1.1c.47-4.72 2.58-8.97 5.76-12.14C21.48 14.24 26.48 12 32 12c5.52 0 10.53 2.24 14.14 5.86 3.18 3.18 5.29 7.42 5.76 12.14h1.43a7 7 0 0 1 7 7v7a7 7 0 0 1-7 7H50c-1.1 0-2-.9-2-2v-9c0-1.1.9-2 2-2s2 .9 2 2v7h1.33c.83 0 1.58-.33 2.12-.88.55-.55.88-1.29.88-2.12v-7c0-.83-.33-1.58-.88-2.12-.55-.55-1.29-.88-2.12-.88H50c-1.1 0-2-.9-2-2 0-4.42-1.79-8.42-4.69-11.31z" />
</svg>
