<!-- Generated by IcoMoon.io -->
<svg version="1.1" xmlns="http://www.w3.org/2000/svg" width="32" height="32" viewBox="0 0 32 32">
<title>headset</title>
<path d="M28.139 19.213c0-0.585-0.155-1.134-0.427-1.607-0.078-0.137-0.123-0.289-0.123-0.447v-2.984c0-6.309-5.073-11.507-11.382-11.525s-11.447 5.11-11.447 11.414v2.576c0 0.203-0.069 0.401-0.196 0.56-0.44 0.552-0.703 1.251-0.703 2.012 0 1.226 0.682 2.292 1.688 2.841 0.194 0.106 0.339 0.285 0.407 0.495 0.317 0.972 1.229 1.674 2.307 1.674v0c1.34 0 2.426-1.086 2.426-2.426v-4.853c0-1.34-1.086-2.426-2.426-2.426v0c-0.323 0-0.631 0.063-0.913 0.178-0.378 0.154-0.79-0.13-0.79-0.538v0c0-5.314 4.272-9.692 9.586-9.707s9.641 4.303 9.641 9.614v0.271c0 0.443-0.477 0.71-0.863 0.492-0.351-0.198-0.756-0.31-1.188-0.31v0c-1.34 0-2.426 1.086-2.426 2.426v4.853c0 0.939 0.534 1.754 1.315 2.157 0.296 0.153 0.477 0.462 0.477 0.794v0.099c0 1.492-1.209 2.701-2.701 2.701h-0.632c-0.25 0-0.483-0.114-0.649-0.3-0.33-0.368-0.808-0.6-1.342-0.6h-3.519c-0.981 0-1.811 0.769-1.838 1.75-0.028 1.018 0.789 1.852 1.8 1.852h3.557c0.533 0 1.012-0.232 1.342-0.6 0.167-0.186 0.399-0.3 0.649-0.3h0.632c2.486 0 4.502-2.016 4.502-4.502v-0.444c0-0.279 0.132-0.538 0.349-0.712 0.36-0.288 0.636-0.678 0.785-1.125 0.072-0.216 0.214-0.404 0.414-0.513 1.005-0.549 1.687-1.615 1.687-2.841z"></path>
</svg>
