<!-- Generated by IcoMoon.io -->
<svg version="1.1" xmlns="http://www.w3.org/2000/svg" width="32" height="32" viewBox="0 0 32 32">
<title>heart</title>
<path d="M24.766 4.779c0.904 0 1.563 0.236 2.075 0.743 0.982 0.972 1.515 2.323 1.585 4.017 0.073 1.787-0.388 3.844-1.335 5.949-1.094 2.433-2.775 4.811-4.862 6.877-1.678 1.66-3.52 3.038-5.478 4.093-0.231 0.125-0.491 0.191-0.751 0.191s-0.52-0.066-0.751-0.191c-1.957-1.056-3.8-2.433-5.478-4.093-2.087-2.066-3.768-4.444-4.862-6.877-0.946-2.105-1.408-4.162-1.335-5.949 0.069-1.693 0.602-3.045 1.585-4.017 0.512-0.507 1.171-0.743 2.075-0.743 1.897 0 4.481 1.053 6.755 2.040 0.637 0.277 1.314 0.417 2.011 0.417s1.374-0.14 2.011-0.417c2.274-0.987 4.858-2.040 6.754-2.040zM24.766 2.978c-2.171 0-4.776 1.019-7.471 2.189-0.412 0.179-0.853 0.268-1.294 0.268s-0.882-0.089-1.294-0.268c-2.695-1.17-5.3-2.189-7.471-2.189-1.292-0-2.429 0.36-3.342 1.264-2.692 2.664-2.745 7.269-0.626 11.984 1.14 2.536 2.899 5.104 5.238 7.419 1.851 1.832 3.861 3.304 5.89 4.398 0.502 0.271 1.054 0.406 1.606 0.406s1.103-0.135 1.606-0.406c2.028-1.094 4.039-2.566 5.89-4.398 2.339-2.315 4.098-4.882 5.238-7.419 2.12-4.715 2.066-9.32-0.626-11.984-0.913-0.903-2.051-1.264-3.342-1.264v0z"></path>
</svg>
