<svg
  xmlns="http://www.w3.org/2000/svg"
  width="64"
  height="64"
  viewBox="0 0 64 64"
  fill="black"
  fill-rule="nonzero"
>
  <path d="M45.87 47.36A9.49 9.49 0 0 1 49 50.17c1.7 2.29 2.35 4.69 1.43 5.37s-3-.61-4.74-2.89a9.31 9.31 0 0 1-1.81-3.8 20.26 20.26 0 0 1-9.57 3.3 9.45 9.45 0 0 1 .77 4c0 2.85-.92 5.16-2.06 5.16S31 59 31 56.17a9.56 9.56 0 0 1 .75-4 20.23 20.23 0 0 1-9.78-3 9.71 9.71 0 0 1-1.75 3.51c-1.71 2.28-3.83 3.58-4.74 2.89s-.27-3.08 1.43-5.37a10 10 0 0 1 2.82-2.64 21 21 0 0 1-3.77-4.1l2.32-1.49a17.62 17.62 0 0 0 28.92-.07l2.28 1.54a20.38 20.38 0 0 1-3.61 3.92zm-26.41-31a10.52 10.52 0 0 1-2.58-2.5c-1.7-2.29-2.35-4.69-1.43-5.37s3 .61 4.74 2.89a10.27 10.27 0 0 1 1.68 3.21 20.21 20.21 0 0 1 9.53-3.08 10.21 10.21 0 0 1-.61-3.65c0-2.85.93-5.16 2.07-5.16s2.06 2.3 2.06 5.13a10.17 10.17 0 0 1-.61 3.68A20.25 20.25 0 0 1 44 14.85a9.85 9.85 0 0 1 1.75-3.5c1.71-2.28 3.83-3.58 4.74-2.89s.27 3.08-1.43 5.37a9.79 9.79 0 0 1-2.89 2.68 20.53 20.53 0 0 1 4.09 4.91l-2.32 1.49a17.61 17.61 0 0 0-29.94-.8l-2.3-1.54a20.53 20.53 0 0 1 3.76-4.24zm36.46 8.25h4.64v15h-3.09V29l-3.72 10.57h-2.53l-3.68-10.52v10.52h-3.13v-15h4.64l3.51 10.31zm-19.82 0V36.8h7.31v2.77h-10.6v-15zm-4.85 0v2.77h-7.91v3.22h7.26v2.56h-7.26v3.64h8.08v2.77H20.05v-15zm-16.56 0H18v15h-3.3v-6.5H8.63v6.46h-3.3v-15h3.3v5.75h6.06z" />
</svg>
