<!-- Generated by IcoMoon.io -->
<svg version="1.1" xmlns="http://www.w3.org/2000/svg" width="32" height="32" viewBox="0 0 32 32">
<title>home</title>
<path d="M19.534 10.642c-1.986 0-3.602 1.616-3.602 3.602s1.616 3.602 3.602 3.602c1.986 0 3.602-1.616 3.602-3.602s-1.616-3.602-3.602-3.602zM19.534 16.045c-0.995 0-1.801-0.806-1.801-1.801s0.806-1.801 1.801-1.801 1.801 0.806 1.801 1.801-0.806 1.801-1.801 1.801z"></path>
<path d="M29.831 10.797l-13.291-8.845c-0.16-0.12-0.35-0.18-0.54-0.18s-0.38 0.060-0.54 0.18l-13.291 8.845c-0.734 0.498-0.382 1.646 0.506 1.646h1.503c0.497 0 1.151 0.403 1.151 0.9v15.984c0 0.497 0.403 0.9 0.9 0.9h4.424c0.497 0 0.9-0.403 0.9-0.9v-5.769c0-1.228 0.995-2.223 2.223-2.223s2.223 0.995 2.223 2.223v5.769c0 0.497 0.403 0.9 0.9 0.9h8.87c0.497 0 0.9-0.403 0.9-0.9v-15.983c0-0.497 0.654-0.9 1.151-0.9h1.503c0.887 0 1.24-1.148 0.506-1.646zM26.012 11.242c-0.002 0.002-0.004 0.003-0.006 0.005-0.722 0.521-1.136 1.285-1.136 2.097v14.183c0 0.497-0.403 0.9-0.9 0.9h-5.268c-0.497 0-0.9-0.403-0.9-0.9v-3.907c0-2.208-1.753-4.051-3.961-4.084-2.247-0.034-4.086 1.784-4.086 4.023v3.968c0 0.497-0.403 0.9-0.9 0.9h-0.822c-0.497 0-0.9-0.403-0.9-0.9v-14.183c0-0.811-0.414-1.576-1.136-2.097-0.002-0.002-0.004-0.003-0.006-0.005-0.287-0.206-0.286-0.633 0.008-0.828l9.223-6.138c0.236-0.114 0.501-0.178 0.781-0.178s0.545 0.064 0.781 0.178l9.223 6.138c0.294 0.196 0.295 0.622 0.008 0.828z"></path>
</svg>
