<!-- Generated by IcoMoon.io -->
<svg version="1.1" xmlns="http://www.w3.org/2000/svg" width="32" height="32" viewBox="0 0 32 32">
<title>hour</title>
<path d="M16 24.407c-0.758 0-1.374 0.616-1.374 1.374s0.616 1.374 1.374 1.374 1.374-0.616 1.374-1.374c0-0.758-0.616-1.374-1.374-1.374z"></path>
<path d="M16 11.149c0.758 0 1.374-0.616 1.374-1.374s-0.616-1.374-1.374-1.374-1.374 0.616-1.374 1.374 0.616 1.374 1.374 1.374z"></path>
<path d="M18.38 16.77l4.53-4.53c0.379-0.379 0.379-0.993 0-1.371s-0.993-0.379-1.371 0l-4.53 4.53c-0.074 0.074-0.182 0.099-0.281 0.067-0.23-0.073-0.474-0.112-0.727-0.112s-0.498 0.039-0.727 0.112c-0.099 0.031-0.208 0.007-0.281-0.067l-2.752-2.752c-0.379-0.379-0.993-0.379-1.371 0s-0.379 0.993 0 1.371l2.752 2.752c0.073 0.073 0.099 0.181 0.067 0.28-0.101 0.318-0.138 0.664-0.095 1.024 0.134 1.111 1.032 1.997 2.144 2.115 1.454 0.154 2.687-0.987 2.687-2.411 0-0.253-0.039-0.498-0.112-0.727-0.031-0.099-0.007-0.208 0.067-0.281zM17.097 18.053c-0.101 0.404-0.419 0.721-0.823 0.823-0.088 0.022-0.18 0.035-0.274 0.035s-0.186-0.013-0.274-0.035c-0.404-0.101-0.722-0.419-0.823-0.823-0.022-0.088-0.035-0.18-0.035-0.274 0-0.624 0.508-1.132 1.132-1.132s1.132 0.508 1.132 1.132c0 0.095-0.013 0.186-0.035 0.274z"></path>
<path d="M24.003 16.404c-0.758 0-1.374 0.616-1.374 1.374s0.616 1.374 1.374 1.374 1.374-0.616 1.374-1.374c0-0.758-0.616-1.374-1.374-1.374z"></path>
<path d="M7.997 16.404c-0.758 0-1.374 0.616-1.374 1.374s0.616 1.374 1.374 1.374 1.374-0.616 1.374-1.374c0-0.758-0.616-1.374-1.374-1.374z"></path>
<path d="M18.114 5.509c-0.194-0.033-0.336-0.202-0.336-0.398v-0.532c0-0.077 0.062-0.139 0.139-0.139h0.197c0.306 0 0.554-0.248 0.554-0.554v-1.559c0-0.306-0.248-0.554-0.554-0.554h-4.227c-0.306 0-0.554 0.248-0.554 0.554v1.559c0 0.306 0.248 0.554 0.554 0.554h0.197c0.077 0 0.139 0.062 0.139 0.139v0.532c0 0.197-0.142 0.365-0.337 0.399-1.607 0.275-3.109 0.858-4.443 1.687-0.16 0.099-0.366 0.075-0.499-0.058l-0.176-0.176c-0.033-0.033-0.033-0.086 0-0.118 0.216-0.216 0.216-0.567 0-0.784l-0.569-0.569c-0.216-0.216-0.567-0.216-0.784 0l-1.922 1.922c-0.216 0.216-0.216 0.567 0 0.784l0.569 0.569c0.216 0.216 0.567 0.216 0.784 0 0.033-0.033 0.086-0.033 0.118 0l0.164 0.164c0.032 0.032 0.032 0.085 0 0.117-2.199 2.235-3.561 5.296-3.575 8.676-0.030 6.862 5.563 12.492 12.425 12.505 6.886 0.013 12.473-5.566 12.473-12.449 0-6.155-4.467-11.265-10.335-12.269zM23.203 24.981c-1.924 1.924-4.482 2.984-7.203 2.984s-5.279-1.060-7.203-2.984c-1.924-1.924-2.984-4.482-2.984-7.203s1.060-5.279 2.984-7.203c1.924-1.924 4.482-2.984 7.203-2.984s5.279 1.060 7.203 2.984c1.924 1.924 2.984 4.482 2.984 7.203s-1.060 5.279-2.984 7.203z"></path>
</svg>
