<svg
  xmlns="http://www.w3.org/2000/svg"
  width="64"
  height="64"
  viewBox="0 0 64 64"
  fill="black"
  fill-rule="nonzero"
>
  <path d="M51 51v9c0 1.1-.9 2-2 2H15c-1.1 0-2-.9-2-2v-9c0-3.48 1.14-6.36 2.76-8.68 2.33-3.33 5.66-5.47 8.07-6.72A4.021 4.021 0 0 0 26 32.01v-.03c.01-.75-.2-1.48-.58-2.1-.38-.62-.92-1.14-1.59-1.49-2.42-1.24-5.74-3.39-8.07-6.72-1.62-2.32-2.76-5.2-2.76-8.68v-9c0-1.1.9-2 2-2h34c1.1 0 2 .9 2 2v9c0 3.48-1.14 6.36-2.76 8.68-2.33 3.33-5.66 5.47-8.07 6.72A4.021 4.021 0 0 0 38 31.98v.03c-.01.75.2 1.48.58 2.1.38.62.92 1.14 1.59 1.49 2.42 1.24 5.74 3.39 8.07 6.72C49.86 44.64 51 47.52 51 51zm-6.04-6.38c-1.8-2.57-4.48-4.35-6.63-5.46a7.993 7.993 0 0 1-3.18-2.97A7.964 7.964 0 0 1 34 32.01c-.01-1.5.4-2.95 1.15-4.18a7.993 7.993 0 0 1 3.18-2.97c2.15-1.1 4.83-2.89 6.63-5.46 1.05-1.5 1.81-3.28 1.99-5.38H17.04c.18 2.11.94 3.88 1.99 5.38 1.8 2.57 4.48 4.35 6.63 5.46 1.34.69 2.43 1.73 3.18 2.97a7.964 7.964 0 0 1 1.15 4.18c.01 1.5-.4 2.95-1.15 4.18a7.993 7.993 0 0 1-3.18 2.97c-2.15 1.1-4.83 2.89-6.63 5.46-1.05 1.5-1.81 3.28-1.99 5.38h29.91c-.18-2.11-.94-3.88-1.99-5.38zM47 6H17v4h30zM17 58h30v-4H17z" />
</svg>
