<svg
  xmlns="http://www.w3.org/2000/svg"
  width="64"
  height="64"
  viewBox="0 0 64 64"
  fill="black"
  fill-rule="nonzero"
>
  <path d="M49.05 59.7c-.94.58-2.17.29-2.75-.66L32 35.81 17.7 59.04c-.58.94-1.81 1.23-2.75.66a2.009 2.009 0 0 1-.66-2.75l14.77-24.01-21.84-9.1c-1.02-.42-1.5-1.6-1.08-2.62.42-1.02 1.6-1.5 2.62-1.08l23.23 9.68 23.23-9.68c1.02-.42 2.19.06 2.62 1.08.42 1.02-.06 2.19-1.08 2.62l-21.84 9.1 14.77 24.01c.58.94.29 2.17-.66 2.75zM22 14c0-2.76 1.12-5.26 2.93-7.07A9.969 9.969 0 0 1 32 4c2.76 0 5.26 1.12 7.07 2.93A9.969 9.969 0 0 1 42 14c0 2.76-1.12 5.26-2.93 7.07A9.969 9.969 0 0 1 32 24c-2.76 0-5.26-1.12-7.07-2.93A9.969 9.969 0 0 1 22 14zm5.76 4.24A5.98 5.98 0 0 0 32 20c1.66 0 3.15-.67 4.24-1.76A5.98 5.98 0 0 0 38 14c0-1.66-.67-3.15-1.76-4.24A5.98 5.98 0 0 0 32 8c-1.66 0-3.15.67-4.24 1.76A5.98 5.98 0 0 0 26 14c0 1.66.67 3.15 1.76 4.24z" />
</svg>
