<!-- Generated by IcoMoon.io -->
<svg version="1.1" xmlns="http://www.w3.org/2000/svg" width="32" height="32" viewBox="0 0 32 32">
<title>image</title>
<path d="M29.327 5.329h-26.654c-0.497 0-0.9 0.403-0.9 0.9v19.54c0 0.497 0.403 0.9 0.9 0.9h26.654c0.497 0 0.9-0.403 0.9-0.9v-19.54c0-0.497-0.403-0.9-0.9-0.9zM27.526 24.87h-23.052c-0.497 0-0.9-0.403-0.9-0.9v-15.939c0-0.497 0.403-0.9 0.9-0.9h23.052c0.497 0 0.9 0.403 0.9 0.9v15.939c0 0.497-0.403 0.9-0.9 0.9z"></path>
<path d="M6.45 23.125h18.967c0.41 0 0.795-0.225 0.969-0.596 0.188-0.4 0.105-0.868-0.205-1.178l-5.011-5.011c-0.196-0.196-0.457-0.304-0.735-0.304-0.235 0-0.465 0.081-0.649 0.228l-2.74 2.192c-0.426 0.341-1.054 0.228-1.335-0.24l-4.134-6.89c-0.189-0.316-0.522-0.505-0.891-0.505-0.421 0-0.797 0.251-0.959 0.639l-4.261 10.226c-0.156 0.375-0.082 0.809 0.205 1.114 0.2 0.213 0.486 0.324 0.779 0.324z"></path>
<path d="M20.446 14.233c1.477 0 2.679-1.202 2.679-2.679s-1.202-2.679-2.679-2.679-2.679 1.202-2.679 2.679 1.202 2.679 2.679 2.679z"></path>
</svg>
