<svg
  xmlns="http://www.w3.org/2000/svg"
  width="64"
  height="64"
  viewBox="0 0 64 64"
  fill="black"
  fill-rule="nonzero"
>
  <path d="M21.52 48.76a2.09 2.09 0 0 0-2.09-2.1h-2.1a2.1 2.1 0 0 0 0 4.2h2.1a2.09 2.09 0 0 0 2.09-2.1zm0-8.38a2.08 2.08 0 0 0-2.09-2.09h-2.1a2.1 2.1 0 0 0 0 4.19h2.1a2.09 2.09 0 0 0 2.09-2.1zm0-8.38a2.09 2.09 0 0 0-2.09-2.1h-2.1a2.1 2.1 0 0 0 0 4.19h2.1A2.08 2.08 0 0 0 21.52 32zm-2.09-6.29h-2.09a2.1 2.1 0 1 1 0-4.19h2.09a2.1 2.1 0 1 1 0 4.19zm21 23a2.09 2.09 0 0 0-2.09-2.1H25.72a2.1 2.1 0 1 0 0 4.2h12.57a2.09 2.09 0 0 0 2.09-2.05zm8.38-25.14a2.09 2.09 0 0 0-2.09-2.1h-21a2.1 2.1 0 0 0 0 4.19h21a2.09 2.09 0 0 0 2.04-2.04zM44.57 32a2.1 2.1 0 0 0-2.09-2.1H25.71a2.1 2.1 0 0 0 0 4.19h16.77A2.09 2.09 0 0 0 44.57 32zm4.19 8.38a2.08 2.08 0 0 0-2.09-2.09h-21a2.1 2.1 0 0 0 0 4.19h21a2.09 2.09 0 0 0 2.09-2.1zM61.34 9v46.1a6.29 6.29 0 0 1-6.29 6.28H9a6.28 6.28 0 0 1-6.28-6.28V17.33A6.28 6.28 0 0 1 9 11.05h18.81a2.1 2.1 0 1 1 0 4.19H9a2.09 2.09 0 0 0-2.09 2.09v37.72A2.1 2.1 0 0 0 9 57.14h46.1a2.1 2.1 0 0 0 2.1-2.09V9a2.1 2.1 0 0 0-2.1-2.1H4.76a2.09 2.09 0 0 1 0-4.18h50.29A6.29 6.29 0 0 1 61.34 9z" />
</svg>
