<svg
  xmlns="http://www.w3.org/2000/svg"
  width="64"
  height="64"
  viewBox="0 0 64 64"
  fill="black"
  fill-rule="nonzero"
>
  <path d="M13 58a7 7 0 0 1-7-7V13a7 7 0 0 1 7-7h38a7 7 0 0 1 7 7v37.99a7 7 0 0 1-7 7H14.75h-.01zm38-4c.83 0 1.58-.33 2.12-.88.55-.55.88-1.29.88-2.12V40.79L42.99 28.93 19.38 54zm3-41c0-.83-.33-1.58-.88-2.12-.55-.55-1.29-.88-2.12-.88H13c-.83 0-1.58.33-2.12.88-.55.55-.88 1.29-.88 2.12v38c0 .83.33 1.58.88 2.12.55.55 1.29.88 2.12.88h.89l27.66-29.37a1.992 1.992 0 0 1 2.92.01L54 34.91zM15 23c0-2.21.9-4.21 2.34-5.66A7.973 7.973 0 0 1 23 15c2.21 0 4.21.9 5.66 2.34A7.973 7.973 0 0 1 31 23c0 2.21-.9 4.21-2.34 5.66A7.973 7.973 0 0 1 23 31c-2.21 0-4.21-.9-5.66-2.34A7.973 7.973 0 0 1 15 23zm5.17 2.83C20.9 26.56 21.89 27 23 27s2.1-.45 2.83-1.17C26.56 25.1 27 24.11 27 23s-.45-2.1-1.17-2.83A3.966 3.966 0 0 0 23 19c-1.11 0-2.1.45-2.83 1.17C19.44 20.9 19 21.89 19 23s.45 2.1 1.17 2.83z" />
</svg>
