<svg
  xmlns="http://www.w3.org/2000/svg"
  width="64"
  height="64"
  viewBox="0 0 64 64"
  fill="black"
  fill-rule="nonzero"
>
  <path d="M19.16 62a7 7 0 0 1-7-7V28a7 7 0 0 1 7-7h36a7 7 0 0 1 7 7V54.99a7 7 0 0 1-7 7H20.9zm36-4c.83 0 1.58-.33 2.12-.88.55-.55.88-1.29.88-2.12v-3.21l-11.14-12-20.79 18.22zm3-30c0-.83-.33-1.58-.88-2.12-.55-.55-1.29-.88-2.12-.88h-36c-.83 0-1.58.33-2.12.88-.55.55-.88 1.29-.88 2.12v27c0 .83.33 1.58.88 2.12.55.55 1.29.88 2.12.88h1l25.68-22.5c.81-.71 2.05-.65 2.78.14l9.53 10.27zm-7.95-11.05c-1.08.24-2.15-.45-2.38-1.52l-1.6-7.29a3.12 3.12 0 0 0-.47-1.07 2.984 2.984 0 0 0-1.95-1.23c-.39-.07-.79-.06-1.18.03h-.01L7.49 13.68c-.39.09-.76.25-1.08.47a2.984 2.984 0 0 0-1.23 1.95c-.07.39-.06.79.03 1.18v.01l2.9 13a2.003 2.003 0 1 1-3.91.87L1.3 18.17c-.21-.91-.23-1.84-.08-2.74.15-.9.48-1.77.98-2.56s1.14-1.46 1.89-1.99 1.6-.91 2.51-1.11l35.12-7.81c.91-.21 1.84-.23 2.74-.08.9.15 1.77.48 2.56.98S48.48 4 49.01 4.75s.91 1.6 1.11 2.51l1.6 7.29c.24 1.08-.45 2.15-1.52 2.38zM19.16 36c0-2.21.9-4.21 2.34-5.66A7.973 7.973 0 0 1 27.16 28c2.21 0 4.21.9 5.66 2.34A7.973 7.973 0 0 1 35.16 36c0 2.21-.9 4.21-2.34 5.66A7.973 7.973 0 0 1 27.16 44c-2.21 0-4.21-.9-5.66-2.34A7.973 7.973 0 0 1 19.16 36zm5.17 2.83c.73.73 1.72 1.17 2.83 1.17s2.1-.45 2.83-1.17c.73-.73 1.17-1.72 1.17-2.83s-.45-2.1-1.17-2.83A3.966 3.966 0 0 0 27.16 32c-1.11 0-2.1.45-2.83 1.17-.73.73-1.17 1.72-1.17 2.83s.45 2.1 1.17 2.83z" />
</svg>
