<!-- Generated by IcoMoon.io -->
<svg version="1.1" xmlns="http://www.w3.org/2000/svg" width="32" height="32" viewBox="0 0 32 32">
<title>impulse</title>
<path d="M25.756 15.1h-1.423c-0.368 0-0.699-0.224-0.836-0.566l-3.104-7.76c-0.137-0.342-0.468-0.566-0.836-0.566s-0.699 0.224-0.836 0.566l-5.499 13.748c-0.298 0.745-1.348 0.758-1.664 0.020l-3.623-8.453c-0.138-0.322-0.451-0.535-0.801-0.545s-0.675 0.184-0.832 0.497l-1.281 2.561c-0.153 0.305-0.464 0.498-0.805 0.498h-1.529c-0.485 0-0.902 0.373-0.925 0.857-0.024 0.517 0.388 0.944 0.899 0.944h2.668c0.341 0 0.653-0.193 0.805-0.498l0.042-0.084c0.343-0.686 1.331-0.657 1.633 0.048l3.806 8.88c0.142 0.331 0.468 0.546 0.828 0.546 0.004 0 0.007 0 0.011-0 0.364-0.004 0.69-0.228 0.825-0.566l5.442-13.604c0.302-0.755 1.37-0.755 1.672 0l1.885 4.712c0.137 0.342 0.468 0.566 0.836 0.566h2.668c0.512 0 0.924-0.427 0.899-0.944-0.023-0.484-0.44-0.857-0.925-0.857z"></path>
<path d="M30.228 16c0 0.491-0.398 0.889-0.889 0.889s-0.889-0.398-0.889-0.889c0-0.491 0.398-0.889 0.889-0.889s0.889 0.398 0.889 0.889z"></path>
</svg>
