<svg
  xmlns="http://www.w3.org/2000/svg"
  width="64"
  height="64"
  viewBox="0 0 64 64"
  fill="black"
  fill-rule="nonzero"
>
  <path d="M12.71 11.52c.04-.08.08-.15.12-.23a6.976 6.976 0 0 1 2.54-2.41c1.02-.57 2.19-.88 3.39-.88h26.46c1.21 0 2.37.31 3.39.88a7.06 7.06 0 0 1 2.54 2.41c.05.07.09.15.12.23l8.51 18.61c.07.14.12.29.15.44.03.16.05.31.05.47V49a7 7 0 0 1-7 7h-42a7 7 0 0 1-7-7V31.04c0-.16.01-.31.05-.47.03-.16.09-.3.15-.44zm4.61.86c-.41.23-.76.54-1.03.94L9.12 29.01h10.7c.63 0 1.22.29 1.59.79l5.47 7.21h10.07l5.46-7.21c.38-.5.97-.79 1.59-.79h10.89l-7.17-15.69a3.09 3.09 0 0 0-1.03-.94c-.44-.24-.94-.38-1.45-.38H18.78c-.52 0-1.02.13-1.45.38zM44.99 33l-5.46 7.21c-.38.5-.97.79-1.59.79H25.88c-.63 0-1.22-.29-1.59-.79L18.82 33H8v16c0 .83.33 1.58.88 2.12.55.55 1.29.88 2.12.88h42c.83 0 1.58-.33 2.12-.88.55-.55.88-1.29.88-2.12V33z" />
</svg>
