<svg
  xmlns="http://www.w3.org/2000/svg"
  width="64"
  height="64"
  viewBox="0 0 64 64"
  fill="black"
  fill-rule="nonzero"
>
  <path d="M25.93 24.9c-.78.78-2.05.78-2.83 0a9.962 9.962 0 0 0-7.07-2.92c-2.56 0-5.11.98-7.06 2.93a9.962 9.962 0 0 0-2.92 7.07c0 2.56.97 5.11 2.92 7.07a9.95 9.95 0 0 0 7.06 2.93c2.54 0 5.08-.95 7.03-2.87l14.96-16.95.09-.09c2.74-2.73 6.32-4.09 9.9-4.08 3.58 0 7.16 1.37 9.89 4.11 2.73 2.73 4.09 6.32 4.09 9.89a14 14 0 0 1-23.88 9.92c-.78-.78-.78-2.05 0-2.83.78-.78 2.05-.78 2.83 0A9.962 9.962 0 0 0 48.01 42c2.56 0 5.11-.98 7.06-2.93A9.962 9.962 0 0 0 57.99 32c0-2.56-.97-5.11-2.92-7.07A9.95 9.95 0 0 0 48.01 22c-2.54 0-5.08.95-7.03 2.87L26.02 41.82l-.09.09a13.925 13.925 0 0 1-9.9 4.08c-3.58 0-7.16-1.37-9.89-4.11a13.955 13.955 0 0 1-4.09-9.89 14 14 0 0 1 23.88-9.92c.78.78.78 2.05 0 2.83z" />
</svg>
