<svg
  xmlns="http://www.w3.org/2000/svg"
  width="64"
  height="64"
  viewBox="0 0 64 64"
  fill="black"
  fill-rule="nonzero"
>
  <path d="M19 26c0 1.1-.9 2-2 2H4a1.994 1.994 0 0 1-1.42-.58c-.19-.19-.34-.41-.43-.65-.1-.24-.15-.49-.15-.77V13c0-1.1.9-2 2-2s2 .9 2 2v8.17l7.58-7.58c3.23-3.25 7.19-5.52 11.46-6.71a25.97 25.97 0 0 1 13.28-.18 26.005 26.005 0 0 1 18.59 17.73c.32 1.06-.28 2.17-1.34 2.49-1.06.32-2.17-.28-2.49-1.34A22.061 22.061 0 0 0 47.2 16a21.951 21.951 0 0 0-9.85-5.42c-3.76-.94-7.63-.86-11.24.15a22.005 22.005 0 0 0-9.7 5.68L8.82 24h8.17c1.1 0 2 .9 2 2zm26 12c0-1.1.9-2 2-2h13a1.994 1.994 0 0 1 1.42.58c.19.19.34.41.43.65.1.24.15.49.15.77v13c0 1.1-.9 2-2 2s-2-.9-2-2v-8.17l-7.58 7.58a25.954 25.954 0 0 1-11.46 6.71 25.97 25.97 0 0 1-13.28.18A26.005 26.005 0 0 1 7.09 39.57c-.32-1.06.28-2.17 1.34-2.49 1.06-.32 2.17.28 2.49 1.34 1.12 3.71 3.17 6.99 5.88 9.58s6.09 4.48 9.85 5.42c3.76.94 7.63.86 11.24-.15 3.61-1.01 6.97-2.93 9.7-5.68L55.18 40h-8.17c-1.1 0-2-.9-2-2zm-13 0c-1.1 0-2-.9-2-2V18c0-1.1.9-2 2-2s2 .9 2 2v18c0 1.1-.9 2-2 2zm-2.12 4.88a2.993 2.993 0 0 1 4.24 0 2.993 2.993 0 0 1 0 4.24 2.993 2.993 0 0 1-4.24 0 2.993 2.993 0 0 1 0-4.24z" />
</svg>
