<svg
  xmlns="http://www.w3.org/2000/svg"
  width="64"
  height="64"
  viewBox="0 0 64 64"
  fill="black"
  fill-rule="nonzero"
>
  <path d="M32 38c-1.1 0-2-.9-2-2V18c0-1.1.9-2 2-2s2 .9 2 2v18c0 1.1-.9 2-2 2zm-2.12 4.88a2.993 2.993 0 0 1 4.24 0 2.993 2.993 0 0 1 0 4.24 2.993 2.993 0 0 1-4.24 0 2.993 2.993 0 0 1 0-4.24zm30.53.96c.78.78.78 2.05 0 2.83l-12.5 12.5c-.78.78-2.05.78-2.83 0l-7.5-7.5c-.78-.78-.78-2.05 0-2.83.78-.78 2.05-.78 2.83 0l6.09 6.09 11.09-11.09c.78-.78 2.05-.78 2.83 0zM58 34.76c-1.1 0-2-.9-2-2V32c0-6.63-2.68-12.63-7.03-16.97C44.62 10.68 38.63 8 32 8c-6.63 0-12.63 2.68-16.97 7.03C10.68 19.38 8 25.37 8 32c0 6.63 2.68 12.63 7.03 16.97C19.38 53.32 25.37 56 32 56h.76c1.1 0 2 .9 2 2s-.9 2-2 2H32c-7.73 0-14.73-3.14-19.8-8.2A27.934 27.934 0 0 1 4 32c0-7.73 3.14-14.73 8.2-19.8C17.26 7.14 24.27 4 32 4s14.73 3.14 19.8 8.2C56.86 17.26 60 24.27 60 32v.76c0 1.1-.9 2-2 2z" />
</svg>
