<svg
  xmlns="http://www.w3.org/2000/svg"
  width="64"
  height="64"
  viewBox="0 0 64 64"
  fill="black"
  fill-rule="nonzero"
>
  <path d="M47.6 56.79h-.67a10.57 10.57 0 0 1-9.33-5.6v-.06l4.48-2.67a5.94 5.94 0 0 0 5.33 3.33h.07c2.3 0 3.74-1.13 3.74-2.7s-1.49-2.57-4-3.68l-1.37-.59c-4-1.66-6.48-3.72-6.48-8.26a7.36 7.36 0 0 1 7.34-7.36 6.12 6.12 0 0 1 .74 0 5.24 5.24 0 0 1 .58 0 8.13 8.13 0 0 1 7.22 4.39l-4.4 2.82A3.74 3.74 0 0 0 47.31 34h-.23a2.45 2.45 0 0 0-2.44 2.46c0 1.66 1 2.33 3.37 3.36l1.37.59c4.67 2 7.33 4 7.33 8.66s-3.91 7.68-9.11 7.68zm-13-8.31a7.58 7.58 0 0 1-7.44 8.36 7.34 7.34 0 0 1-.81-.05h-.45a8.53 8.53 0 0 1-7.76-5l4.5-2.79c.86 1.54 1.64 2.84 3.52 2.84s3-.71 3-3.46V29.61h5.5zM52.53 2.67H11.34a8.69 8.69 0 0 0-8.67 8.71v41.24a8.69 8.69 0 0 0 8.67 8.71h41.32a8.69 8.69 0 0 0 8.67-8.71V11.38a8.69 8.69 0 0 0-8.67-8.71z" />
</svg>
