<!-- Generated by IcoMoon.io -->
<svg version="1.1" xmlns="http://www.w3.org/2000/svg" width="32" height="32" viewBox="0 0 32 32">
<title>javascript</title>
<path d="M24.4 4.33h-16.8c-0.015-0-0.032-0-0.050-0-1.961 0-3.55 1.589-3.55 3.55 0 0 0 0 0 0v-0 16.81c0 0 0 0 0 0 0 1.961 1.589 3.55 3.55 3.55 0.018 0 0.035-0 0.053-0l-0.003 0h16.8c0.015 0 0.032 0 0.050 0 1.961 0 3.55-1.589 3.55-3.55 0-0 0-0 0-0v0-16.81c0-0 0-0 0-0 0-1.961-1.589-3.55-3.55-3.55-0.018 0-0.035 0-0.053 0l0.003-0zM17.070 23c0.013 0.104 0.020 0.225 0.020 0.347 0 1.69-1.37 3.060-3.060 3.060-0.113 0-0.224-0.006-0.333-0.018l0.014 0.001c-0.055 0.003-0.119 0.005-0.184 0.005-1.411 0-2.627-0.838-3.177-2.043l-0.009-0.022 1.83-1.11c0.35 0.63 0.67 1.16 1.44 1.16s1.21-0.29 1.21-1.41v-7.66h2.25zM22.38 26.39c-0.081 0.005-0.176 0.008-0.271 0.008-1.652 0-3.088-0.925-3.818-2.285l-0.011-0.023 1.83-1.090c0.405 0.812 1.229 1.36 2.182 1.36 0.010 0 0.020-0 0.030-0h-0.002c0.94 0 1.53-0.46 1.53-1.1s-0.61-1.050-1.64-1.5l-0.56-0.24c-1.65-0.68-2.65-1.52-2.65-3.37-0-0.004-0-0.009-0-0.014 0-1.657 1.343-3 3-3 0.102 0 0.203 0.005 0.303 0.015l-0.013-0.001c0.071-0.005 0.154-0.008 0.238-0.008 1.284 0 2.397 0.726 2.953 1.79l0.009 0.018-1.8 1.15c-0.219-0.588-0.775-1-1.428-1-0.008 0-0.015 0-0.023 0h0.001c-0.021-0.002-0.045-0.002-0.070-0.002-0.552 0-1 0.448-1 1 0 0.001 0 0.002 0 0.003v-0c0 0.68 0.42 0.95 1.38 1.37l0.56 0.24c1.91 0.82 3 1.65 3 3.53s-1.6 3.13-3.73 3.13z"></path>
</svg>
