<svg
  xmlns="http://www.w3.org/2000/svg"
  width="64"
  height="64"
  viewBox="0 0 64 64"
  fill="black"
  fill-rule="nonzero"
>
  <path d="M25.71 30.71H10.67c-1.1 0-2-.9-2-2V13.33c0-1.01.75-1.86 1.75-1.98l15.04-1.88a2.011 2.011 0 0 1 2.25 1.99v17.26c0 1.1-.9 2-2 2zm-2-16.99L12.67 15.1v11.61h11.04zm1.75 40.81l-15.04-1.88c-1-.13-1.75-.98-1.75-1.98V37.33c0-1.1.9-2 2-2h15.04c1.1 0 2 .9 2 2v15.22a2.011 2.011 0 0 1-2.25 1.99zm-1.75-15.2H12.67v9.57l11.04 1.38zm29.62-8.62H33.12c-1.1 0-2-.9-2-2V10.53c0-1.01.75-1.86 1.75-1.98l20.21-2.53a2.011 2.011 0 0 1 2.25 1.99v20.71c0 1.1-.9 2-2 2zm-2-20.44L35.12 12.3v14.41h16.21zm1.75 47.71l-20.21-2.52c-1-.12-1.75-.98-1.75-1.98V37.33c0-1.1.9-2 2-2h20.21c1.1 0 2 .9 2 2V56a2.011 2.011 0 0 1-2.25 1.99zm-1.75-18.65H35.12v12.38l16.21 2.02z" />
</svg>
