<svg
  xmlns="http://www.w3.org/2000/svg"
  width="64"
  height="64"
  viewBox="0 0 64 64"
  fill="black"
  fill-rule="nonzero"
>
  <path d="M21 32v-7h-7c-3.04 0-5.79-1.23-7.78-3.22A10.965 10.965 0 0 1 3 14c0-3.04 1.23-5.79 3.22-7.78C8.21 4.23 10.96 3 14 3s5.79 1.23 7.78 3.22C23.77 8.21 25 10.96 25 14v7h14v-7c0-3.04 1.23-5.79 3.22-7.78C44.21 4.23 46.96 3 50 3s5.79 1.23 7.78 3.22C59.77 8.21 61 10.96 61 14s-1.23 5.79-3.22 7.78A10.965 10.965 0 0 1 50 25h-7v14h7c3.04 0 5.79 1.23 7.78 3.22C59.77 44.21 61 46.96 61 50s-1.23 5.79-3.22 7.78A10.965 10.965 0 0 1 50 61c-3.04 0-5.79-1.23-7.78-3.22A10.965 10.965 0 0 1 39 50v-7H25v7c0 3.04-1.23 5.79-3.22 7.78A10.965 10.965 0 0 1 14 61c-3.04 0-5.79-1.23-7.78-3.22A10.965 10.965 0 0 1 3 50c0-3.04 1.23-5.79 3.22-7.78C8.21 40.23 10.96 39 14 39h7v-7zm18 0v-7H25v14h14v-7zm4-11h7c1.93 0 3.68-.78 4.95-2.05A6.976 6.976 0 0 0 57 14c0-1.93-.78-3.68-2.05-4.95A6.976 6.976 0 0 0 50 7c-1.93 0-3.68.78-4.95 2.05A6.976 6.976 0 0 0 43 14zm-22 0v-7c0-1.93-.78-3.68-2.05-4.95A6.976 6.976 0 0 0 14 7c-1.93 0-3.68.78-4.95 2.05A6.976 6.976 0 0 0 7 14c0 1.93.78 3.68 2.05 4.95A6.976 6.976 0 0 0 14 21zm0 22h-7c-1.93 0-3.68.78-4.95 2.05A6.976 6.976 0 0 0 7 50c0 1.93.78 3.68 2.05 4.95A6.976 6.976 0 0 0 14 57c1.93 0 3.68-.78 4.95-2.05A6.976 6.976 0 0 0 21 50zm22 0v7c0 1.93.78 3.68 2.05 4.95A6.976 6.976 0 0 0 50 57c1.93 0 3.68-.78 4.95-2.05A6.976 6.976 0 0 0 57 50c0-1.93-.78-3.68-2.05-4.95A6.976 6.976 0 0 0 50 43z" />
</svg>
