<svg
  xmlns="http://www.w3.org/2000/svg"
  width="64"
  height="64"
  viewBox="0 0 64 64"
  fill="black"
  fill-rule="nonzero"
>
  <path d="M3 43c0-4.97 2.02-9.47 5.27-12.73C11.53 27.01 16.03 25 21 25c1 0 1.98.08 2.93.24L45.58 3.59c.38-.38.88-.59 1.41-.59h12c1.1 0 2 .9 2 2v8c0 1.1-.9 2-2 2h-4v4c0 1.1-.9 2-2 2h-4v4c0 1.1-.9 2-2 2h-4v4c0 .53-.21 1.04-.59 1.41l-4.48 4.48c.69 1.91 1.06 3.96 1.06 6.11 0 4.97-2.02 9.47-5.27 12.73A17.941 17.941 0 0 1 20.98 61c-4.97 0-9.47-2.02-12.73-5.27A17.941 17.941 0 0 1 2.98 43zm30.73-12.73c.87.87 1.65 1.82 2.32 2.85L39 30.17V25c0-1.1.9-2 2-2h4v-4c0-1.1.9-2 2-2h4v-4c0-1.1.9-2 2-2h4V7h-9.17L28.29 26.54c2.04.91 3.88 2.18 5.44 3.73zM11.1 52.9c2.54 2.54 6.03 4.1 9.9 4.1s7.36-1.56 9.9-4.1c2.54-2.54 4.1-6.03 4.1-9.9s-1.56-7.36-4.1-9.9c-1.79-1.79-4.07-3.1-6.62-3.71-.09-.01-.18-.04-.27-.06-.97-.21-1.97-.32-3.01-.32-3.87 0-7.36 1.56-9.9 4.1-2.54 2.54-4.1 6.03-4.1 9.9s1.56 7.36 4.1 9.9zM11 46a7 7 0 1 1 14-.001A7 7 0 0 1 11 46zm4.88 2.12c.55.55 1.29.88 2.12.88.83 0 1.58-.33 2.12-.88.55-.55.88-1.29.88-2.12 0-.83-.33-1.58-.88-2.12-.55-.55-1.29-.88-2.12-.88-.83 0-1.58.33-2.12.88-.55.55-.88 1.29-.88 2.12 0 .83.33 1.58.88 2.12z" />
</svg>
