<svg
  xmlns="http://www.w3.org/2000/svg"
  width="64"
  height="64"
  viewBox="0 0 64 64"
  fill="black"
  fill-rule="nonzero"
>
  <path d="M8 53c-1.66 0-3.16-.67-4.24-1.76A6.003 6.003 0 0 1 2 47V23c0-1.66.67-3.16 1.76-4.24A6.003 6.003 0 0 1 8 17h22v-4a7 7 0 0 1 7-7h7c1.1 0 2 .9 2 2s-.9 2-2 2h-7c-.83 0-1.58.33-2.12.88-.55.55-.88 1.29-.88 2.12v4h22c1.66 0 3.16.67 4.24 1.76A6.003 6.003 0 0 1 62 23v24c0 1.66-.67 3.16-1.76 4.24A6.003 6.003 0 0 1 56 53zm48-4c.55 0 1.05-.22 1.41-.59.36-.36.59-.86.59-1.41V23c0-.55-.22-1.05-.59-1.41-.36-.36-.86-.59-1.41-.59H8c-.55 0-1.05.22-1.41.59-.36.36-.59.86-.59 1.41v24c0 .55.22 1.05.59 1.41.36.36.86.59 1.41.59zM17 27c0 1.1-.9 2-2 2h-3c-1.1 0-2-.9-2-2s.9-2 2-2h3c1.1 0 2 .9 2 2zm11 0c0 1.1-.9 2-2 2h-3c-1.1 0-2-.9-2-2s.9-2 2-2h3c1.1 0 2 .9 2 2zm11 0c0 1.1-.9 2-2 2h-3c-1.1 0-2-.9-2-2s.9-2 2-2h3c1.1 0 2 .9 2 2zm15 0c0 1.1-.9 2-2 2h-7c-1.1 0-2-.9-2-2s.9-2 2-2h7c1.1 0 2 .9 2 2zm-22 8c0 1.1-.9 2-2 2h-3c-1.1 0-2-.9-2-2s.9-2 2-2h3c1.1 0 2 .9 2 2zm11 0c0 1.1-.9 2-2 2h-3c-1.1 0-2-.9-2-2s.9-2 2-2h3c1.1 0 2 .9 2 2zm11 0c0 1.1-.9 2-2 2h-3c-1.1 0-2-.9-2-2s.9-2 2-2h3c1.1 0 2 .9 2 2zm-33 0c0 1.1-.9 2-2 2h-7c-1.1 0-2-.9-2-2s.9-2 2-2h7c1.1 0 2 .9 2 2zm-4 8c0 1.1-.9 2-2 2h-3c-1.1 0-2-.9-2-2s.9-2 2-2h3c1.1 0 2 .9 2 2zm37 0c0 1.1-.9 2-2 2h-3c-1.1 0-2-.9-2-2s.9-2 2-2h3c1.1 0 2 .9 2 2zm-12 0c0 1.1-.9 2-2 2H23c-1.1 0-2-.9-2-2s.9-2 2-2h17c1.1 0 2 .9 2 2z" />
</svg>
