<!-- Generated by IcoMoon.io -->
<svg version="1.1" xmlns="http://www.w3.org/2000/svg" width="32" height="32" viewBox="0 0 32 32">
<title>keyboard</title>
<path d="M25.933 7.997h-4.587c-0.491 0-0.889-0.398-0.889-0.889v0c0-1.467 1.189-2.656 2.657-2.656h1.753c0.485 0 0.902-0.373 0.925-0.857 0.024-0.517-0.388-0.944-0.899-0.944h-1.779c-2.462 0-4.457 1.996-4.457 4.457v0c0 0.491-0.398 0.889-0.889 0.889h-11.7c-2.372 0-4.294 1.923-4.294 4.294v7.417c0 2.372 1.923 4.294 4.294 4.294h19.866c2.372 0 4.294-1.923 4.294-4.294v-7.417c0-2.372-1.923-4.294-4.294-4.294zM28.427 19.709c0 1.375-1.119 2.494-2.494 2.494h-19.866c-1.375 0-2.494-1.119-2.494-2.494v-7.417c0-1.375 1.119-2.494 2.494-2.494h19.866c1.375 0 2.494 1.119 2.494 2.494v7.417z"></path>
<path d="M6.23 14.222h0.867c0.497 0 0.9-0.403 0.9-0.9v-0.867c0-0.497-0.403-0.9-0.9-0.9h-0.867c-0.497 0-0.9 0.403-0.9 0.9v0.867c0 0.497 0.403 0.9 0.9 0.9z"></path>
<path d="M25.77 11.554h-0.867c-0.497 0-0.9 0.403-0.9 0.9v0.867c0 0.497 0.403 0.9 0.9 0.9h0.867c0.497 0 0.9-0.403 0.9-0.9v-0.867c0-0.497-0.403-0.9-0.9-0.9z"></path>
<path d="M22.002 12.454c0-0.497-0.403-0.9-0.9-0.9h-0.867c-0.497 0-0.9 0.403-0.9 0.9v0.867c0 0.497 0.403 0.9 0.9 0.9h0.867c0.497 0 0.9-0.403 0.9-0.9v-0.867z"></path>
<path d="M15.567 14.222h0.867c0.497 0 0.9-0.403 0.9-0.9v-0.867c0-0.497-0.403-0.9-0.9-0.9h-0.867c-0.497 0-0.9 0.403-0.9 0.9v0.867c0 0.497 0.403 0.9 0.9 0.9z"></path>
<path d="M10.898 14.222h0.867c0.497 0 0.9-0.403 0.9-0.9v-0.867c0-0.497-0.403-0.9-0.9-0.9h-0.867c-0.497 0-0.9 0.403-0.9 0.9v0.867c0 0.497 0.403 0.9 0.9 0.9z"></path>
<path d="M10.665 16.011c0-0.497-0.403-0.9-0.9-0.9h-0.867c-0.497 0-0.9 0.403-0.9 0.9v0.867c0 0.497 0.403 0.9 0.9 0.9h0.867c0.497 0 0.9-0.403 0.9-0.9v-0.867z"></path>
<path d="M24.67 16.878v-0.867c0-0.497-0.403-0.9-0.9-0.9h-0.867c-0.497 0-0.9 0.403-0.9 0.9v0.867c0 0.497 0.403 0.9 0.9 0.9h0.867c0.497 0 0.9-0.403 0.9-0.9z"></path>
<path d="M17.334 16.878c0 0.497 0.403 0.9 0.9 0.9h0.867c0.497 0 0.9-0.403 0.9-0.9v-0.867c0-0.497-0.403-0.9-0.9-0.9h-0.867c-0.497 0-0.9 0.403-0.9 0.9v0.867z"></path>
<path d="M12.665 16.878c0 0.497 0.403 0.9 0.9 0.9h0.867c0.497 0 0.9-0.403 0.9-0.9v-0.867c0-0.497-0.403-0.9-0.9-0.9h-0.867c-0.497 0-0.9 0.403-0.9 0.9v0.867z"></path>
<path d="M20.435 18.668h-8.87c-0.497 0-0.9 0.403-0.9 0.9v0.867c0 0.497 0.403 0.9 0.9 0.9h8.87c0.497 0 0.9-0.403 0.9-0.9v-0.867c0-0.497-0.403-0.9-0.9-0.9z"></path>
<path d="M25.77 18.668h-1.756c-0.497 0-0.9 0.403-0.9 0.9v0.867c0 0.497 0.403 0.9 0.9 0.9h1.756c0.497 0 0.9-0.403 0.9-0.9v-0.867c0-0.497-0.403-0.9-0.9-0.9z"></path>
<path d="M7.986 18.668h-1.756c-0.497 0-0.9 0.403-0.9 0.9v0.867c0 0.497 0.403 0.9 0.9 0.9h1.756c0.497 0 0.9-0.403 0.9-0.9v-0.867c0-0.497-0.403-0.9-0.9-0.9z"></path>
</svg>
