<svg
  xmlns="http://www.w3.org/2000/svg"
  width="64"
  height="64"
  viewBox="0 0 64 64"
  fill="black"
  fill-rule="nonzero"
>
  <path d="M13 58a7 7 0 0 1-7-7V13a7 7 0 0 1 7-7h38a7 7 0 0 1 7 7v38a7 7 0 0 1-7 7zm38-4c.83 0 1.58-.33 2.12-.88.55-.55.88-1.29.88-2.12V13c0-.83-.33-1.58-.88-2.12-.55-.55-1.29-.88-2.12-.88h-7v26c0 1.1-.9 2-2 2v16zM13 10c-.83 0-1.58.33-2.12.88-.55.55-.88 1.29-.88 2.12v38c0 .83.33 1.58.88 2.12.55.55 1.29.88 2.12.88h9V38c-1.1 0-2-.9-2-2V10zm13 44h12V38c-1.1 0-2-.9-2-2V10h-8v26c0 1.1-.9 2-2 2z" />
</svg>
