<!-- Generated by IcoMoon.io -->
<svg version="1.1" xmlns="http://www.w3.org/2000/svg" width="32" height="32" viewBox="0 0 32 32">
<title>kibana</title>
<path d="M19.73 16.88c-0.855-0.696-1.809-1.357-2.813-1.942l-0.107-0.058 10-12c0.092-0.109 0.148-0.251 0.148-0.406 0-0.096-0.021-0.187-0.060-0.268l0.002 0.004c-0.099-0.22-0.315-0.37-0.567-0.37-0.001 0-0.002 0-0.003 0h-20.82c-0.353 0-0.64 0.287-0.64 0.64v0 27.11c0 0.353 0.287 0.64 0.64 0.64v0h21c0.196-0.002 0.371-0.090 0.489-0.229l0.001-0.001c0.093-0.11 0.149-0.254 0.149-0.411 0-0.039-0.003-0.076-0.010-0.113l0.001 0.004c-0.942-5.111-3.614-9.479-7.373-12.571l-0.037-0.029zM6.14 3h18.86l-9.31 11.2-0.57-0.27-0.33-0.16c-0.29-0.14-0.59-0.26-0.89-0.38l-0.36-0.14c-0.32-0.13-0.64-0.24-1-0.35l-0.28-0.1c-0.42-0.13-0.85-0.25-1.27-0.36l-0.3-0.070-1-0.21c-0.15 0-0.31-0.060-0.47-0.090l-0.83-0.13h-0.51l-0.82-0.080h-0.96zM6.14 27.61l0.31-0.38 9.55-11.42c0.931 0.545 1.724 1.087 2.478 1.676l-0.048-0.036-9.59 11.55h-2.7zM10.5 29l8.9-10.7c3.117 2.739 5.359 6.406 6.295 10.567l0.025 0.133z"></path>
</svg>
