<!-- Generated by IcoMoon.io -->
<svg version="1.1" xmlns="http://www.w3.org/2000/svg" width="32" height="32" viewBox="0 0 32 32">
<title>kubernetes</title>
<path d="M13 16.43c0.076-0.090 0.123-0.207 0.123-0.336 0-0.163-0.075-0.308-0.192-0.403l-0.001-0.001-2.41-2.15c-0.602 1-0.958 2.207-0.958 3.497 0 0.177 0.007 0.352 0.020 0.526l-0.001-0.023 3.15-0.91c0.117-0.025 0.214-0.098 0.269-0.198l0.001-0.002z"></path>
<path d="M13.16 18.48l-3.22 0.52c0.486 1.331 1.357 2.424 2.477 3.175l0.023 0.015 1.24-3c0.026-0.046 0.041-0.101 0.041-0.16s-0.015-0.114-0.042-0.162l0.001 0.002c-0.064-0.227-0.268-0.39-0.511-0.39-0.003 0-0.006 0-0.009 0h0z"></path>
<path d="M15.050 17.57l0.88 0.43 0.87-0.43 0.23-0.94-0.62-0.78h-0.97l-0.62 0.78 0.23 0.94z"></path>
<path d="M17 14.090c0.1 0.128 0.254 0.21 0.427 0.21 0.105 0 0.202-0.030 0.285-0.081l-0.002 0.001 2.67-1.89c-0.958-0.956-2.233-1.596-3.653-1.748l-0.027-0.002 0.2 3.28c-0 0.005-0 0.010-0 0.015 0 0.086 0.039 0.163 0.1 0.214l0 0z"></path>
<path d="M14.4 14.32c0.018 0.002 0.039 0.003 0.060 0.003 0.292 0 0.53-0.232 0.54-0.523l0-0.001 0.16-3.26-0.65 0.13c-1.177 0.293-2.191 0.873-3.001 1.661l0.001-0.001 2.7 1.92c0.055 0.032 0.118 0.057 0.186 0.069l0.004 0.001z"></path>
<path d="M30.21 19l-2.47-10.64c-0.171-0.522-0.527-0.943-0.989-1.195l-0.011-0.005-9.97-4.75c-0.218-0.101-0.473-0.16-0.742-0.16-0.010 0-0.019 0-0.029 0l0.001-0c-0.040-0.002-0.087-0.002-0.134-0.002-0.239 0-0.473 0.023-0.699 0.066l0.023-0.004-9.97 4.79c-0.501 0.22-0.872 0.657-0.998 1.188l-0.002 0.012-2.42 10.7c-0.018 0.104-0.028 0.223-0.028 0.344 0 0.459 0.145 0.884 0.392 1.232l-0.004-0.007 6.84 8.49c0.385 0.386 0.905 0.637 1.482 0.68l0.008 0h10.97c0.068 0.010 0.146 0.016 0.225 0.016 0.544 0 1.025-0.274 1.311-0.691l0.003-0.005 6.87-8.49c0.231-0.342 0.369-0.763 0.369-1.216 0-0.125-0.010-0.247-0.031-0.367l0.002 0.013zM26.14 19.72c-0.024 0.006-0.052 0.010-0.080 0.010s-0.056-0.004-0.082-0.011l0.002 0s0 0-0.060 0-0.1 0-0.13 0c-0.137-0.040-0.256-0.094-0.366-0.163l0.006 0.003c-0.074-0.006-0.142-0.028-0.203-0.061l0.003 0.001c-0.281-0.116-0.616-0.22-0.961-0.293l-0.039-0.007c-0.001 0-0.002 0-0.003 0-0.099 0-0.19 0.038-0.257 0.1l0-0s0 0 0 0h-0.26c-0.615 1.887-1.857 3.428-3.474 4.41l-0.035 0.020 0.1 0.26s0 0 0 0c-0.021 0.047-0.033 0.102-0.033 0.16s0.012 0.113 0.034 0.163l-0.001-0.003c0.134 0.382 0.31 0.713 0.528 1.011l-0.008-0.011v0.060c0.055 0.046 0.099 0.102 0.129 0.167l0.001 0.003c0.093 0.090 0.171 0.196 0.227 0.313l0.003 0.007s0.070 0.070 0.070 0.1c0.021 0.073 0.034 0.158 0.034 0.245s-0.012 0.172-0.035 0.251l0.002-0.006c-0.042 0.159-0.147 0.287-0.287 0.359l-0.003 0.001c-0.076 0.031-0.165 0.053-0.257 0.060l-0.003 0c-0.269-0.010-0.499-0.164-0.618-0.386l-0.002-0.004s0-0.070-0.070-0.1c-0.058-0.104-0.102-0.224-0.129-0.352l-0.001-0.008-0.060-0.19c-0.119-0.383-0.265-0.714-0.443-1.024l0.013 0.024c-0.059-0.095-0.15-0.166-0.257-0.199l-0.003-0.001s0 0 0 0l-0.13-0.23c-0.267 0.101-0.601 0.2-0.944 0.279l-0.056 0.011c-0.504 0.146-1.084 0.23-1.683 0.23-0.027 0-0.054-0-0.081-0l0.004 0c-0.018 0-0.039 0-0.061 0-0.996 0-1.948-0.191-2.821-0.538l0.052 0.018-0.13 0.26s0 0 0 0c-0.109 0.038-0.198 0.108-0.259 0.198l-0.001 0.002c-0.165 0.286-0.311 0.617-0.42 0.965l-0.010 0.035-0.060 0.19c0 0.13-0.1 0.23-0.13 0.36s-0.070 0.070-0.070 0.1c-0.121 0.226-0.351 0.38-0.619 0.39l-0.001 0c-0.081-0.006-0.156-0.028-0.223-0.062l0.003 0.002c-0.201-0.116-0.335-0.329-0.335-0.574 0-0.112 0.028-0.217 0.077-0.309l-0.002 0.004s0-0.070 0.060-0.1 0.17-0.26 0.23-0.33c0.057-0.040 0.101-0.094 0.129-0.158l0.001-0.002c0.195-0.288 0.37-0.617 0.508-0.965l0.012-0.035c0.021-0.047 0.033-0.102 0.033-0.16s-0.012-0.113-0.034-0.163l0.001 0.003 0.16-0.23c-0.335-0.175-0.623-0.371-0.886-0.595l0.006 0.005c-1.232-0.958-2.161-2.252-2.654-3.745l-0.016-0.055h-0.29c-0.066-0.062-0.155-0.1-0.253-0.1-0.002 0-0.005 0-0.007 0h0c-0.405 0.067-0.764 0.168-1.107 0.303l0.037-0.013c-0.075 0.005-0.144 0.031-0.201 0.071l0.001-0.001-0.36 0.13s-0.13 0-0.13 0 0 0 0 0c-0.024 0.007-0.052 0.011-0.080 0.011s-0.056-0.004-0.082-0.011l0.002 0c-0.020 0.002-0.044 0.004-0.068 0.004-0.279 0-0.514-0.191-0.581-0.45l-0.001-0.004c-0.008-0.038-0.013-0.082-0.013-0.128 0-0.314 0.229-0.574 0.529-0.622l0.004-0s0 0 0.060 0 0.1 0 0.13 0h0.39c0.030-0.007 0.065-0.011 0.1-0.011s0.070 0.004 0.103 0.012l-0.003-0.001c0.414-0.039 0.792-0.11 1.156-0.211l-0.046 0.011c-0.003-0.18-0.102-0.336-0.248-0.419l-0.002-0.001s0 0 0 0l0.26-0.060c-0.057-0.352-0.090-0.758-0.090-1.171 0-1.549 0.459-2.991 1.248-4.198l-0.018 0.029c0-0.070 0.060-0.1 0.090-0.16l-0.19-0.2c0.002-0.015 0.004-0.032 0.004-0.050 0-0.095-0.040-0.18-0.104-0.24l-0-0c-0.267-0.241-0.565-0.456-0.885-0.637l-0.025-0.013-0.2-0.1c-0.119-0.067-0.221-0.133-0.317-0.205l0.007 0.005s-0.1-0.070-0.1-0.070c-0.167-0.127-0.274-0.326-0.274-0.55 0-0.141 0.043-0.273 0.115-0.382l-0.002 0.003c0.088-0.14 0.241-0.231 0.416-0.231 0.012 0 0.024 0 0.035 0.001l-0.002-0c0.174 0.008 0.332 0.067 0.462 0.162l-0.002-0.002s0.060 0 0.1 0.060c0.085 0.106 0.17 0.2 0.26 0.29v0s0.1 0.070 0.13 0.13c0.245 0.274 0.51 0.52 0.796 0.74l0.014 0.010c0.056 0.039 0.125 0.065 0.199 0.070l0.001 0c0.060 0 0.090 0 0.13 0v0l0.19 0.13c1.045-1.116 2.41-1.922 3.948-2.27l0.052-0.010c0.39-0.070 0.75-0.13 1.1-0.16v-0.36c0.078-0.066 0.135-0.155 0.159-0.257l0.001-0.003c0.002-0.058 0.003-0.126 0.003-0.194 0-0.323-0.027-0.641-0.078-0.949l0.005 0.034c0.007-0.029 0.011-0.061 0.011-0.095s-0.004-0.066-0.011-0.098l0.001 0.003c-0.033-0.119-0.055-0.256-0.060-0.397l-0-0.003v-0.19c0.032-0.172 0.131-0.316 0.268-0.409l0.002-0.001c0.117-0.164 0.307-0.27 0.522-0.27 0.003 0 0.005 0 0.008 0h-0c0.319 0.045 0.561 0.316 0.561 0.644 0 0.013-0 0.025-0.001 0.038l0-0.002v0.2c0 0.13 0 0.26-0.070 0.39s0 0.13 0 0.19v0c-0.046 0.279-0.072 0.601-0.072 0.929 0 0.060 0.001 0.12 0.003 0.179l-0-0.009c0.026 0.107 0.087 0.197 0.169 0.259l0.001 0.001v0.26c1.614 0.172 3.060 0.78 4.249 1.704l-0.019-0.014 0.81 0.78 0.26-0.16c0.019 0.007 0.042 0.011 0.065 0.011s0.046-0.004 0.066-0.012l-0.001 0c0.071-0.007 0.135-0.028 0.192-0.061l-0.002 0.001c0.308-0.215 0.577-0.452 0.816-0.716l0.004-0.004c0.051-0.036 0.094-0.079 0.129-0.128l0.001-0.002c0.078-0.109 0.163-0.204 0.258-0.289l0.002-0.002s0.060 0 0.090-0.070v0c0.123-0.097 0.279-0.157 0.449-0.16h0.001c0.331 0.021 0.592 0.294 0.592 0.629 0 0.21-0.102 0.395-0.26 0.51l-0.002 0.001s0 0 0 0.060-0.070 0-0.1 0.070l-0.55 0.29c-0.348 0.204-0.649 0.419-0.929 0.657l0.009-0.007c-0.056 0.080-0.090 0.179-0.090 0.286 0 0.001 0 0.003 0 0.004v-0l-0.2 0.19c0.494 0.767 0.886 1.657 1.127 2.608l0.013 0.062c0.173 0.634 0.272 1.362 0.272 2.114 0 0.294-0.015 0.585-0.045 0.872l0.003-0.036 0.26 0.070c0.042 0.106 0.124 0.188 0.227 0.229l0.003 0.001c0.317 0.084 0.695 0.151 1.081 0.188l0.029 0.002c0.029 0.007 0.061 0.011 0.095 0.011s0.066-0.004 0.098-0.011l-0.003 0.001c0.059-0.009 0.126-0.015 0.195-0.015s0.136 0.005 0.202 0.016l-0.007-0.001c0.070 0 0.13 0 0.13 0s0 0 0.070 0c0.319 0.082 0.555 0.355 0.58 0.687l0 0.003c-0.066 0.295-0.314 0.515-0.618 0.54l-0.002 0z"></path>
<path d="M16.12 19.88c-0.072-0.041-0.158-0.065-0.249-0.065-0.162 0-0.307 0.076-0.4 0.194l-0.001 0.001-1.59 2.9c0.594 0.191 1.28 0.31 1.99 0.33l0.010 0c0.5-0.007 0.982-0.068 1.445-0.179l-0.045 0.009c0.162-0.047 0.368-0.092 0.578-0.126l0.032-0.004-1.56-2.83c-0.065-0.085-0.134-0.16-0.209-0.229l-0.001-0.001z"></path>
<path d="M21.33 13.54l-2.44 2.21c-0.062 0.061-0.108 0.139-0.129 0.227l-0.001 0.003c-0.011 0.040-0.017 0.087-0.017 0.134 0 0.249 0.172 0.458 0.404 0.515l0.004 0.001 3.090 0.88c0.019-0.187 0.030-0.404 0.030-0.623 0-0.506-0.058-0.998-0.169-1.47l0.009 0.043c-0.167-0.727-0.436-1.368-0.796-1.947l0.016 0.027z"></path>
<path d="M18.37 18.52c-0.188 0.084-0.317 0.27-0.317 0.485 0 0.048 0.006 0.094 0.018 0.138l-0.001-0.004 1.27 3.050c0.817-0.512 1.488-1.183 1.985-1.974l0.015-0.026c0.23-0.342 0.424-0.736 0.56-1.156l0.010-0.034-3.25-0.55c-0.106 0.003-0.205 0.029-0.294 0.072l0.004-0.002z"></path>
</svg>
