<svg
  xmlns="http://www.w3.org/2000/svg"
  width="64"
  height="64"
  viewBox="0 0 64 64"
  fill="black"
  fill-rule="nonzero"
>
  <path d="M36.87 36.2a1.12 1.12 0 0 0-.65 1 .92.92 0 0 0 0 .29l2.61 6.28A12.69 12.69 0 0 0 43 39.7v-.06a9.55 9.55 0 0 0 1.15-2.38v-.07l-6.7-1.13a1.47 1.47 0 0 0-.6.14zM43 25.94l-5 4.55a1 1 0 0 0-.27.47 1.17 1.17 0 0 0 0 .27 1.1 1.1 0 0 0 .84 1.07l6.37 1.81a12.65 12.65 0 0 0 .06-1.28 13.66 13.66 0 0 0-.34-3v.09a12.83 12.83 0 0 0-1.64-4v.06zM32.24 39a1 1 0 0 0-.52-.14 1.05 1.05 0 0 0-.82.4l-3.28 6a15 15 0 0 0 4.1.68 13.21 13.21 0 0 0 3-.37h-.09a9.74 9.74 0 0 1 1.19-.26h.06l-3.21-5.83a3.25 3.25 0 0 0-.43-.47zm-3.55-11.45h.13a1.11 1.11 0 0 0 1.11-1.08l.33-6.72-1.34.25a13.48 13.48 0 0 0-6.19 3.43l5.56 4a1 1 0 0 0 .38.14zm5.36-.48a1.1 1.1 0 0 0 .88.44 1.16 1.16 0 0 0 .59-.17L41 23.45a12.57 12.57 0 0 0-7.53-3.61h-.06l.41 6.76a.55.55 0 0 0 .21.44zm-4 7.17l1.82.89 1.79-.89.47-1.93-1.3-1.61h-2l-1.28 1.61zm-3.89 1.88l-6.66 1.07a13.29 13.29 0 0 0 5.11 6.54l2.56-6.19a.7.7 0 0 0 .08-.33.73.73 0 0 0-.08-.33 1.09 1.09 0 0 0-1.05-.8zm-.33-4.23a1.08 1.08 0 0 0 .25-.69 1.06 1.06 0 0 0-.4-.83l-5-4.43a14 14 0 0 0-2 7.21v1.08l6.49-1.87a.84.84 0 0 0 .56-.41zm27.08 6.79h-.72a2.91 2.91 0 0 1-.76-.33.93.93 0 0 1-.41-.12 11.53 11.53 0 0 0-2-.6h-.08a.75.75 0 0 0-.53.21h-.54a16.63 16.63 0 0 1-7.16 9.09h-.07l.2.53a.88.88 0 0 0-.06.33.77.77 0 0 0 .07.34 8.11 8.11 0 0 0 1.09 2.09v.1a1 1 0 0 1 .26.34 2 2 0 0 1 .47.64s.14.14.14.2a2 2 0 0 1 .07.51 1.81 1.81 0 0 1-.07.52 1.13 1.13 0 0 1-.59.74 2.16 2.16 0 0 1-.53.12 1.5 1.5 0 0 1-1.27-.8.24.24 0 0 0-.14-.21 2.76 2.76 0 0 1-.27-.73l-.12-.39a10.18 10.18 0 0 0-.89-2.1 1 1 0 0 0-.53-.41l-.26-.47a14.79 14.79 0 0 1-2 .57h-.11a12.71 12.71 0 0 1-3.47.47h-.29a15.6 15.6 0 0 1-5.81-1.11h.11l-.27.53a1.12 1.12 0 0 0-.54.41 9.71 9.71 0 0 0-.86 2v.07l-.13.39c0 .27-.2.47-.27.74s-.14.15-.14.21a1.51 1.51 0 0 1-1.28.8 1.22 1.22 0 0 1-.46-.13 1.36 1.36 0 0 1-.69-1.07 1.34 1.34 0 0 1 .16-.63.24.24 0 0 1 .13-.21c.12-.06.35-.54.47-.68a.73.73 0 0 0 .27-.33 10.71 10.71 0 0 0 1-2v-.07a.88.88 0 0 0 .07-.33 1 1 0 0 0-.07-.34l.33-.47a10.63 10.63 0 0 1-1.76-1.2 16.19 16.19 0 0 1-5.47-7.72v-.11h-.59a.77.77 0 0 0-.53-.21 11.2 11.2 0 0 0-2.28.63h.08a.76.76 0 0 0-.42.15l-.74.27h-.27a.41.41 0 0 1-.16 0 .47.47 0 0 1-.17 0h-.14a1.22 1.22 0 0 1-1.22-.91 1.84 1.84 0 0 1 0-.26 1.29 1.29 0 0 1 1.09-1.28H13a.68.68 0 0 1 .21 0 .75.75 0 0 1 .21 0 13.34 13.34 0 0 0 2.33-.46h-.1a1 1 0 0 0-.51-.87l.53-.12a15.27 15.27 0 0 1-.18-2.42 15.73 15.73 0 0 1 2.57-8.65L18 24c0-.14.12-.2.19-.33l-.4-.41a.34.34 0 0 0 0-.1.69.69 0 0 0-.21-.5 10.48 10.48 0 0 0-1.83-1.31l-.41-.2a6.66 6.66 0 0 1-.65-.43l-.2-.14a1.4 1.4 0 0 1-.57-1.13 1.42 1.42 0 0 1 .24-.79 1 1 0 0 1 .86-.48h.07a1.74 1.74 0 0 1 .95.34.26.26 0 0 1 .2.12 6.36 6.36 0 0 0 .54.6 1.08 1.08 0 0 1 .27.27A12.49 12.49 0 0 0 18.67 21a.77.77 0 0 0 .41.14h.27l.39.27a16 16 0 0 1 8.13-4.68h.11c.81-.15 1.55-.27 2.27-.33v-.74a1 1 0 0 0 .33-.53v-.4a11.4 11.4 0 0 0-.17-2v.07a.68.68 0 0 0 0-.4 3.35 3.35 0 0 1-.13-.81v-.39a1.28 1.28 0 0 1 .56-.84A1.33 1.33 0 0 1 32 9.85a1.34 1.34 0 0 1 1.16 1.32v.49a1.51 1.51 0 0 1-.15.8c-.14.27 0 .27 0 .4a12.44 12.44 0 0 0-.15 1.91v.37a.89.89 0 0 0 .35.53v.53A17.22 17.22 0 0 1 42 19.7l1.67 1.6.53-.33a.32.32 0 0 0 .14 0 .31.31 0 0 0 .13 0 1 1 0 0 0 .4-.12 9.62 9.62 0 0 0 1.68-1.48 1 1 0 0 0 .27-.26 3.85 3.85 0 0 1 .53-.6.21.21 0 0 0 .18-.15 1.57 1.57 0 0 1 .87-.36 1.31 1.31 0 0 1 1.22 1.3 1.29 1.29 0 0 1-.54 1.05v.13c0 .12-.15 0-.21.14l-1.13.6a13.35 13.35 0 0 0-1.92 1.35 1.06 1.06 0 0 0-.18.59l-.41.4a18.54 18.54 0 0 1 2.32 5.37v.13a17.1 17.1 0 0 1 .56 4.36 17.73 17.73 0 0 1-.1 1.79v-.07l.53.14a.84.84 0 0 0 .47.47 13.78 13.78 0 0 0 2.23.38h.45a2.5 2.5 0 0 1 .4 0 3 3 0 0 1 .42 0H53a1.59 1.59 0 0 1 1.2 1.42 1.45 1.45 0 0 1-1.27 1.12zm8.39-1.49l-5.11-21.93a4.38 4.38 0 0 0-2-2.46L33.58 3a3.65 3.65 0 0 0-1.53-.33h-.34a7.64 7.64 0 0 0-1.44.13h.05L9.77 12.67a3.57 3.57 0 0 0-2 2.44l-5 22a5.27 5.27 0 0 0-.05.71 4.43 4.43 0 0 0 .8 2.54l14.04 17.56a4.77 4.77 0 0 0 3.06 1.4h22.62a3.2 3.2 0 0 0 3.17-1.39l14.16-17.5a4.48 4.48 0 0 0 .76-2.51 4.77 4.77 0 0 0-.06-.76z" />
</svg>
