<svg
  xmlns="http://www.w3.org/2000/svg"
  width="64"
  height="64"
  viewBox="0 0 64 64"
  fill="black"
  fill-rule="nonzero"
>
  <path d="M10.88 29.88a2.993 2.993 0 0 1 4.24 0 2.993 2.993 0 0 1 0 4.24 2.993 2.993 0 0 1-4.24 0 2.993 2.993 0 0 1 0-4.24zM10 50a7 7 0 0 1-7-7V21a7 7 0 0 1 7-7h44a7 7 0 0 1 7 7v22a7 7 0 0 1-7 7zm44-4c.83 0 1.58-.33 2.12-.88.55-.55.88-1.29.88-2.12V21c0-.83-.33-1.58-.88-2.12-.55-.55-1.29-.88-2.12-.88H10c-.83 0-1.58.33-2.12.88C7.33 19.43 7 20.17 7 21v22c0 .83.33 1.58.88 2.12.55.55 1.29.88 2.12.88z" />
</svg>
