<svg
  xmlns="http://www.w3.org/2000/svg"
  width="64"
  height="64"
  viewBox="0 0 64 64"
  fill="black"
  fill-rule="nonzero"
>
  <path d="M14 8h36a7 7 0 0 1 7 7v25.43l4.67 7.48c.21.33.32.7.33 1.08v.06c-.01.46-.18.92-.51 1.29-.03.03-.06.06-.08.09l-4.99 4.99c-.38.38-.88.59-1.41.59h-46c-.53 0-1.04-.21-1.41-.59l-4.99-4.99c-.03-.03-.06-.06-.08-.09-.33-.37-.5-.83-.51-1.29v-.06c0-.38.11-.75.33-1.08l4.67-7.48V15a7 7 0 0 1 7-7zm-2.12 4.88c-.55.55-.88 1.29-.88 2.12v24h42V15c0-.83-.33-1.58-.88-2.12-.55-.55-1.29-.88-2.12-.88H14c-.83 0-1.58.33-2.12.88zM7.61 47h48.78l-2.5-4H10.11zm2.22 5h44.34l1-1H8.83z" />
</svg>
