<!-- Generated by IcoMoon.io -->
<svg version="1.1" xmlns="http://www.w3.org/2000/svg" width="32" height="32" viewBox="0 0 32 32">
<title>laptop</title>
<path d="M30.231 24.771c-0.002-0.111-0.010-0.223-0.023-0.335-0.001-0.009-0.002-0.019-0.003-0.028-0.013-0.104-0.031-0.208-0.053-0.312-0.004-0.018-0.008-0.035-0.012-0.053-0.080-0.342-0.212-0.682-0.404-1.011l-2.942-5.044c-0.080-0.138-0.123-0.294-0.123-0.454v-13.084c0-0.155-0.039-0.302-0.109-0.429-0.028-0.051-0.060-0.099-0.097-0.144-0.092-0.111-0.21-0.2-0.344-0.257-0.081-0.034-0.168-0.057-0.258-0.066-0.030-0.003-0.061-0.005-0.092-0.005h-19.54c-0.497 0-0.9 0.403-0.9 0.9v13.084c0 0.159-0.042 0.316-0.123 0.454l-2.942 5.044c-0.348 0.597-0.503 1.232-0.496 1.849 0 0.041 0.002 0.082 0.004 0.123 0.002 0.044 0.005 0.087 0.009 0.13 0.006 0.068 0.013 0.136 0.023 0.203 0.013 0.090 0.029 0.178 0.048 0.267 0.012 0.056 0.026 0.112 0.041 0.168 0.016 0.059 0.033 0.117 0.052 0.174 0.015 0.047 0.032 0.094 0.049 0.141 0.024 0.064 0.049 0.128 0.077 0.191 0.017 0.038 0.034 0.075 0.051 0.113 0.016 0.034 0.033 0.068 0.050 0.101 0.033 0.064 0.068 0.127 0.104 0.189 0.084 0.143 0.179 0.28 0.282 0.411 0.009 0.012 0.019 0.023 0.028 0.035 0.041 0.051 0.083 0.1 0.127 0.148 0.029 0.032 0.058 0.063 0.087 0.093 0.638 0.657 1.533 1.081 2.575 1.081h21.249c2.085 0 3.58-1.696 3.607-3.557 0.001-0.040 0.001-0.080-0-0.12zM7.13 6.252c0-0.497 0.403-0.9 0.9-0.9h15.939c0.497 0 0.9 0.403 0.9 0.9v10.603c0 0.497-0.403 0.9-0.9 0.9h-15.939c-0.497 0-0.9-0.403-0.9-0.9v-10.603zM7.744 27.308c-0.168 0.168-0.4 0.264-0.637 0.264s-0.469-0.096-0.637-0.264c-0.168-0.168-0.264-0.4-0.264-0.637s0.096-0.469 0.264-0.637c0.168-0.168 0.4-0.263 0.637-0.263s0.47 0.096 0.637 0.263c0.168 0.168 0.264 0.4 0.264 0.637s-0.096 0.47-0.264 0.637zM10.412 27.308c-0.168 0.168-0.4 0.264-0.637 0.264s-0.469-0.096-0.637-0.264c-0.168-0.168-0.264-0.4-0.264-0.637s0.096-0.469 0.264-0.637c0.168-0.168 0.4-0.263 0.637-0.263s0.469 0.096 0.637 0.263 0.264 0.4 0.264 0.637c0 0.238-0.096 0.47-0.264 0.637zM13.079 27.308c-0.168 0.168-0.4 0.264-0.637 0.264s-0.469-0.096-0.637-0.264-0.264-0.4-0.264-0.637c0-0.237 0.096-0.469 0.264-0.637s0.4-0.263 0.637-0.263 0.469 0.096 0.637 0.263 0.264 0.4 0.264 0.637c0 0.238-0.096 0.47-0.264 0.637zM27.632 24.892h-23.264c-0.483 0-0.795-0.523-0.554-0.942 0.002-0.003 0.004-0.007 0.006-0.010l2.283-3.914c0.161-0.277 0.458-0.447 0.778-0.447h18.238c0.32 0 0.616 0.17 0.778 0.447l2.283 3.914c0.002 0.003 0.004 0.007 0.006 0.010 0.241 0.419-0.070 0.942-0.554 0.942z"></path>
</svg>
