<svg
  xmlns="http://www.w3.org/2000/svg"
  width="64"
  height="64"
  viewBox="0 0 64 64"
  fill="black"
  fill-rule="nonzero"
>
  <path d="M51.21 27.1c4.24-8.47 2.98-14.62 2.35-16.64-2.02-.64-8.15-1.93-16.61 2.33-3.11 1.56-6.1 4.38-8.79 7.7-1.14 1.4-2.21 2.87-3.19 4.32-.09.21-.22.4-.38.56-2.91 4.41-5 8.63-5.95 10.64L28 45.35c1.99-.93 6.15-2.99 10.5-5.85.25-.3.58-.53.97-.65 1.34-.91 2.69-1.9 3.99-2.95 3.35-2.7 6.19-5.7 7.75-8.81zm3.58 1.8c-1.93 3.85-5.27 7.27-8.81 10.13-1.22.99-2.49 1.92-3.75 2.79.56 4.46.2 10.86-4.77 15.82-.78.78-2.05.78-2.83 0l-8.48-8.48-11.32-11.3c-.06-.06-.11-.11-.16-.18l-8.32-8.27a2.006 2.006 0 0 1 0-2.84c4.96-4.96 11.34-5.32 15.81-4.76.9-1.3 1.86-2.6 2.89-3.86 2.85-3.51 6.27-6.83 10.1-8.75 12.03-6.04 20.46-2.28 20.81-2.12.43.2.78.55.98.99.16.34 3.87 8.79-2.15 20.81zM35.94 53.29c2.03-2.81 2.57-6.08 2.48-9A92.19 92.19 0 0 1 31 48.35zM10.72 28.11l4.93 4.9c.91-1.85 2.28-4.49 4.04-7.38-2.91-.09-6.17.45-8.98 2.47zm35.23-7.06c-.77 0-1.54-.29-2.12-.88-.59-.59-.88-1.36-.88-2.12 0-.77.29-1.54.88-2.12.59-.59 1.36-.88 2.12-.88.77 0 1.54.29 2.12.88.59.59.88 1.36.88 2.12 0 .77-.29 1.54-.88 2.12-.59.59-1.36.88-2.12.88zm-29.7 22.46l4.24 4.24a2 2 0 0 1-.59 3.23l-7.74 3.52a1.875 1.875 0 0 1-1 .19c-.47-.03-.93-.22-1.28-.58-.36-.36-.55-.82-.58-1.28-.01-.14 0-.27.01-.41.03-.2.09-.4.18-.59l3.52-7.74a2 2 0 0 1 3.23-.59z" />
</svg>
