<!-- Generated by IcoMoon.io -->
<svg version="1.1" xmlns="http://www.w3.org/2000/svg" width="32" height="32" viewBox="0 0 32 32">
<title>layout</title>
<path d="M28.449 19.546v-15.094c0-0.497-0.403-0.9-0.9-0.9h-23.097c-0.497 0-0.9 0.403-0.9 0.9v23.097c0 0.497 0.403 0.9 0.9 0.9h23.097c0.497 0 0.9-0.403 0.9-0.9v-6.202l0-1.801zM11.543 25.748c0 0.497-0.403 0.9-0.9 0.9h-4.39c-0.497 0-0.9-0.403-0.9-0.9v-15.961c0-0.497 0.403-0.9 0.9-0.9h4.39c0.497 0 0.9 0.403 0.9 0.9v15.961zM26.648 25.748c0 0.497-0.403 0.9-0.9 0.9h-11.504c-0.497 0-0.9-0.403-0.9-0.9v-3.501c0-0.497 0.403-0.9 0.9-0.9h11.504c0.497 0 0.9 0.403 0.9 0.9v3.501zM26.648 18.645c0 0.497-0.403 0.9-0.9 0.9h-11.504c-0.497 0-0.9-0.403-0.9-0.9v-8.859c0-0.497 0.403-0.9 0.9-0.9h11.504c0.497 0 0.9 0.403 0.9 0.9v8.859zM25.781 7.119h-19.563c-0.497 0-0.9-0.403-0.9-0.9s0.403-0.9 0.9-0.9h19.563c0.497 0 0.9 0.403 0.9 0.9s-0.403 0.9-0.9 0.9z"></path>
</svg>
