<!-- Generated by IcoMoon.io -->
<svg version="1.1" xmlns="http://www.w3.org/2000/svg" width="32" height="32" viewBox="0 0 32 32">
<title>lego</title>
<path d="M24.338 22.225h-0.936c-0.153 0-0.277-0.124-0.277-0.277v-1.501c0-0.497-0.403-0.9-0.9-0.9h-3.557c-0.497 0-0.9 0.403-0.9 0.9v1.64c0 0.076-0.062 0.139-0.139 0.139h-0.59c-0.077 0-0.139-0.062-0.139-0.139v-1.64c0-0.497-0.403-0.9-0.9-0.9h-3.557c-0.497 0-0.9 0.403-0.9 0.9v1.64c0 0.076-0.062 0.139-0.139 0.139h-0.59c-0.077 0-0.139-0.062-0.139-0.139v-1.64c0-0.497-0.403-0.9-0.9-0.9h-3.557c-0.497 0-0.9 0.403-0.9 0.9v1.501c0 0.153-0.124 0.277-0.277 0.277h-0.936c-0.306 0-0.554 0.248-0.554 0.554v6.895c0 0.306 0.248 0.554 0.554 0.554h20.233c0.306 0 0.554-0.248 0.554-0.554v-6.895c0-0.306-0.248-0.554-0.554-0.554zM19.568 21.485c0-0.077 0.062-0.139 0.139-0.139h1.479c0.077 0 0.139 0.062 0.139 0.139v0.59c0 0.076-0.062 0.139-0.139 0.139h-1.479c-0.077 0-0.139-0.062-0.139-0.139v-0.59zM13.344 21.485c0-0.077 0.062-0.139 0.139-0.139h1.479c0.077 0 0.139 0.062 0.139 0.139v0.59c0 0.076-0.062 0.139-0.139 0.139h-1.479c-0.077 0-0.139-0.062-0.139-0.139v-0.59zM7.119 21.474c0-0.076 0.062-0.139 0.139-0.139h1.479c0.077 0 0.139 0.062 0.139 0.139v0.601c0 0.076-0.062 0.139-0.139 0.139h-1.479c-0.077 0-0.139-0.062-0.139-0.139v-0.601zM23.091 28.15c0 0.153-0.124 0.277-0.277 0.277h-17.185c-0.153 0-0.277-0.124-0.277-0.277v-3.847c0-0.153 0.124-0.277 0.277-0.277h17.185c0.153 0 0.277 0.124 0.277 0.277v3.847z"></path>
<path d="M28.185 10.226c0.352-0.352 0.352-0.922 0-1.273l-2.515-2.515c-0.352-0.352-0.922-0.352-1.273 0l-1.16 1.16c-0.054 0.054-0.142 0.054-0.196 0l-0.417-0.417c-0.054-0.054-0.054-0.142 0-0.196l1.16-1.16c0.352-0.352 0.352-0.922 0-1.273l-2.515-2.515c-0.352-0.352-0.922-0.352-1.273 0l-1.062 1.062c-0.108 0.108-0.284 0.108-0.392 0l-0.662-0.662c-0.216-0.216-0.567-0.216-0.784 0l-4.875 4.875c-0.216 0.216-0.216 0.567 0 0.784l9.906 9.906c0.216 0.216 0.567 0.216 0.784 0l4.875-4.875c0.216-0.216 0.216-0.567 0-0.784l-0.662-0.662c-0.108-0.108-0.108-0.284 0-0.392l1.062-1.062zM20.117 4.461l0.417-0.417c0.054-0.054 0.142-0.054 0.196 0l1.046 1.046c0.054 0.054 0.054 0.142 0 0.196l-0.417 0.417c-0.054 0.054-0.142 0.054-0.196 0l-1.046-1.046c-0.054-0.054-0.054-0.142 0-0.196zM25.435 12.929l-2.72 2.72c-0.108 0.108-0.284 0.108-0.392 0l-7.75-7.75c-0.108-0.108-0.108-0.284 0-0.392l2.72-2.72c0.108-0.108 0.284-0.108 0.392 0l7.75 7.75c0.108 0.108 0.108 0.284 0 0.392zM26.177 9.687l-0.417 0.417c-0.054 0.054-0.142 0.054-0.196 0l-1.046-1.046c-0.054-0.054-0.054-0.142 0-0.196l0.417-0.417c0.054-0.054 0.142-0.054 0.196 0l1.046 1.046c0.054 0.054 0.054 0.142 0 0.196z"></path>
</svg>
