<!-- Generated by IcoMoon.io -->
<svg version="1.1" xmlns="http://www.w3.org/2000/svg" width="32" height="32" viewBox="0 0 32 32">
<title>letsencrypt</title>
<path d="M23.35 17.090h-1.33c0-0.52 0-1.060 0-1.59 0-0.001 0-0.003 0-0.004 0-3.352-2.718-6.070-6.070-6.070-1.075 0-2.085 0.28-2.961 0.77l0.031-0.016c-1.511 0.803-2.587 2.252-2.866 3.968l-0.004 0.032c-0.097 0.778-0.152 1.679-0.152 2.592 0 0.105 0.001 0.209 0.002 0.314l-0-0.016h-1.27c-0.038-0.004-0.082-0.007-0.126-0.007-0.63 0-1.14 0.51-1.14 1.14 0 0.041 0.002 0.082 0.006 0.122l-0-0.005v10.53c-0.005 0.048-0.007 0.104-0.007 0.16s0.003 0.112 0.008 0.167l-0.001-0.007c0.016 0.59 0.498 1.062 1.090 1.062 0.021 0 0.042-0.001 0.063-0.002l-0.003 0h14.76c0.015 0.001 0.033 0.001 0.050 0.001 0.619 0 1.12-0.501 1.12-1.12 0-0.007-0-0.015-0-0.022l0 0.001q0-5.41 0-10.82c0.001-0.016 0.001-0.034 0.001-0.052 0-0.624-0.506-1.13-1.13-1.13-0.025 0-0.050 0.001-0.075 0.002l0.003-0zM16.96 24.090c-0.135 0.103-0.221 0.264-0.221 0.445 0 0.009 0 0.017 0.001 0.026l-0-0.001c0.012 0.19 0.019 0.412 0.019 0.635s-0.007 0.445-0.020 0.665l0.001-0.030c-0.036 0.367-0.343 0.651-0.717 0.651-0.012 0-0.023-0-0.035-0.001l0.002 0c-0.387-0.021-0.695-0.332-0.71-0.719l-0-0.001c0-0.37 0-0.75 0-1.13 0.008-0.036 0.012-0.078 0.012-0.121 0-0.216-0.116-0.405-0.29-0.508l-0.003-0.002c-0.325-0.266-0.531-0.667-0.531-1.117 0-0.181 0.033-0.354 0.094-0.513l-0.003 0.010c0.222-0.582 0.772-0.99 1.419-1h0.001c0.651 0.001 1.205 0.412 1.417 0.99l0.003 0.010c0.072 0.166 0.114 0.36 0.114 0.563 0 0.443-0.199 0.839-0.512 1.105l-0.002 0.002zM13.45 17.090c0-0.6 0-1.21 0-1.82 0.036-1.32 1.077-2.385 2.383-2.46l0.007-0c0.056-0.005 0.122-0.007 0.188-0.007 1.274 0 2.325 0.953 2.48 2.185l0.001 0.012c0 0.68 0 1.36 0 2z"></path>
<path d="M21.91 9.76c0.136 0.073 0.297 0.117 0.469 0.117 0.236 0 0.453-0.082 0.623-0.218l-0.002 0.002c0.95-0.77 1.91-1.54 2.85-2.33 0.244-0.184 0.399-0.474 0.399-0.799 0-0.254-0.094-0.485-0.25-0.662l0.001 0.001c-0.185-0.234-0.468-0.382-0.786-0.382-0.255 0-0.488 0.096-0.665 0.253l0.001-0.001c-0.95 0.76-1.89 1.54-2.82 2.31-0.228 0.19-0.374 0.472-0.38 0.789v0.001c-0 0.007-0 0.014-0 0.022 0 0.392 0.226 0.732 0.554 0.896l0.006 0.003z"></path>
<path d="M16 7.41c0.024 0.002 0.052 0.003 0.080 0.003 0.552 0 1-0.448 1-1 0-0.001 0-0.002 0-0.003v0c0-1.21 0-2.41 0-3.62 0-0.001 0-0.001 0-0.002 0-0.552-0.448-1-1-1-0.021 0-0.042 0.001-0.063 0.002l0.003-0c-0.001 0-0.003 0-0.004 0-0.552 0-1 0.448-1 1 0 0.032 0.001 0.063 0.004 0.094l-0-0.004c0 0.57 0 1.15 0 1.72s0 1.17 0 1.76c-0.001 0.015-0.001 0.033-0.001 0.050 0 0.546 0.437 0.989 0.98 1h0.001z"></path>
<path d="M8.14 14.42c0-0.001 0-0.003 0-0.004 0-0.552-0.448-1-1-1-0.032 0-0.063 0.001-0.094 0.004l0.004-0c-0.57 0-1.15 0-1.73 0s-1.19 0-1.77 0c-0.027-0.003-0.058-0.004-0.090-0.004-0.552 0-1 0.448-1 1 0 0.001 0 0.003 0 0.004v-0c0 0.001 0 0.001 0 0.002 0 0.552 0.448 1 1 1 0.021 0 0.042-0.001 0.063-0.002l-0.003 0h3.56c0.018 0.001 0.039 0.002 0.060 0.002 0.552 0 1-0.448 1-1 0-0.001 0-0.001 0-0.002v0z"></path>
<path d="M6.72 7.82c0.74 0.61 1.47 1.18 2.22 1.82 0.179 0.172 0.423 0.278 0.692 0.278 0.552 0 1-0.448 1-1 0-0.024-0.001-0.048-0.003-0.072l0 0.003h0.080c-0.099-0.269-0.234-0.501-0.403-0.704l0.003 0.004c-1-0.83-1.92-1.62-2.9-2.4-0.171-0.142-0.393-0.228-0.635-0.228-0.312 0-0.59 0.143-0.773 0.366l-0.001 0.002c-0.152 0.174-0.244 0.404-0.244 0.655 0 0.323 0.154 0.611 0.392 0.794l0.002 0.002z"></path>
<path d="M28.44 13.38h-3.44c-0.024-0.002-0.053-0.003-0.081-0.003-0.563 0-1.023 0.444-1.049 1.001l-0 0.002c-0.001 0.017-0.002 0.036-0.002 0.056 0 0.552 0.448 1 1 1 0.039 0 0.078-0.002 0.116-0.007l-0.005 0h3.51c0.031 0.003 0.066 0.005 0.102 0.005 0.552 0 1-0.448 1-1 0-0.023-0.001-0.046-0.002-0.068l0 0.003c0-0 0-0.001 0-0.001 0-0.552-0.448-1-1-1-0.053 0-0.105 0.004-0.156 0.012l0.006-0.001z"></path>
</svg>
