<svg
  xmlns="http://www.w3.org/2000/svg"
  width="64"
  height="64"
  viewBox="0 0 64 64"
  fill="black"
  fill-rule="nonzero"
>
  <path d="M56.25 26.58a1.66 1.66 0 0 1 .32 0 2.06 2.06 0 0 1 2.06 2.06v.14a2.07 2.07 0 0 1-2.07 2.06H48.88a2.07 2.07 0 0 1-2.06-2.07.37.37 0 0 1 0-.11A2.16 2.16 0 0 1 49 26.57h7.26zm-44.8-11.47l-1.17-1a2.05 2.05 0 0 1-.81-1.63 2 2 0 0 1 .53-1.35 2.05 2.05 0 0 1 1.59-.75 2 2 0 0 1 1.31.47c2 1.61 3.92 3.23 6 4.95a4.81 4.81 0 0 1 .83 1.45h-.16v.15a2.06 2.06 0 0 1-2.06 2.06 2 2 0 0 1-1.51-.6c-1.51-1.32-3-2.49-4.55-3.75zm2.93 13.61a2.07 2.07 0 0 1-2.06 2.07H4.73a2.07 2.07 0 0 1-2.06-2.07 2.06 2.06 0 0 1 2.06-2.06h7.59a2.06 2.06 0 0 1 2.06 2.06zm16.21-14.46a2.06 2.06 0 0 1-2-2.06V4.92v-.2a2.07 2.07 0 0 1 2.07-2.06h.13a2.06 2.06 0 0 1 2.06 2.06v7.48a2.06 2.06 0 0 1-2.06 2.06zm12.19 4.85a2.06 2.06 0 0 1-1.14-1.85v-.05a2.18 2.18 0 0 1 .78-1.63c1.92-1.58 3.86-3.19 5.82-4.76a2.06 2.06 0 0 1 3 .27 2 2 0 0 1 .51 1.36 2.07 2.07 0 0 1-.82 1.65C49 15.73 47 17.32 45 18.91a2.08 2.08 0 0 1-2.26.21zM25.33 34.23v-3.76a5.23 5.23 0 0 1 4.92-5.07h.4a5.16 5.16 0 0 1 5.12 4.5V34zm7.24 14.44a1.13 1.13 0 0 0-.45.91v2.75-.07a1.49 1.49 0 0 1-1.48 1.35h-.07a1.53 1.53 0 0 1-1.46-1.48v-2.35a2 2 0 0 0 0-.25 1.21 1.21 0 0 0-.6-1.05 3 3 0 0 1-1.1-2.31 2.8 2.8 0 0 1 .2-1.05 3.19 3.19 0 0 1 2.93-2.07 3.11 3.11 0 0 1 2.92 2 2.89 2.89 0 0 1 .23 1.16 3 3 0 0 1-1.05 2.28zm13.18-14.44H43V31a12.52 12.52 0 0 0-18.62-11h.07a11.29 11.29 0 0 0-5.91 8.18v.07a44.06 44.06 0 0 0-.32 5.34v.65h-2.88A2.35 2.35 0 0 0 13 36.52a2 2 0 0 0 0 .25v22.39a2.25 2.25 0 0 0 2.25 2.19h30.67A2.31 2.31 0 0 0 48.23 59V36.55a2.33 2.33 0 0 0-2.33-2.33h-.15z" />
</svg>
