<svg
  xmlns="http://www.w3.org/2000/svg"
  width="64"
  height="64"
  viewBox="0 0 64 64"
  fill="black"
  fill-rule="nonzero"
>
  <path d="M19 32c0-2.87.93-5.52 2.5-7.67l-9.25-9.25A25.913 25.913 0 0 0 5.99 32c0 6.46 2.35 12.37 6.26 16.92l9.25-9.25A12.96 12.96 0 0 1 19 32zm13 26c6.46 0 12.37-2.35 16.92-6.26l-9.25-9.25a12.96 12.96 0 0 1-7.67 2.5c-2.87 0-5.52-.93-7.67-2.5l-9.25 9.25C19.63 55.64 25.54 58 32 58zm26-26c0-6.46-2.35-12.37-6.26-16.92l-9.25 9.25c1.57 2.15 2.5 4.8 2.5 7.67s-.93 5.52-2.5 7.67l9.25 9.25C55.64 44.37 58 38.46 58 32zM32 6c-6.46 0-12.37 2.35-16.92 6.26l9.25 9.25c2.15-1.57 4.8-2.5 7.67-2.5s5.52.93 7.67 2.5l9.25-9.25A25.913 25.913 0 0 0 32 6zm-6.36 32.36A8.972 8.972 0 0 0 32 41c2.49 0 4.73-1.01 6.36-2.64A8.972 8.972 0 0 0 41 32c0-2.49-1.01-4.73-2.64-6.36A8.972 8.972 0 0 0 32 23c-2.49 0-4.73 1.01-6.36 2.64A8.972 8.972 0 0 0 23 32c0 2.49 1.01 4.73 2.64 6.36zM2 32c0-8.26 3.34-15.73 8.73-21.16.02-.02.04-.04.05-.06.02-.02.04-.04.06-.05C16.26 5.34 23.74 2 32 2s15.73 3.34 21.16 8.73c.02.02.04.04.06.05.02.02.04.04.05.06C58.66 16.26 62 23.74 62 32s-3.34 15.73-8.73 21.16c-.02.02-.04.04-.05.06-.02.02-.04.04-.06.05C47.74 58.66 40.26 62 32 62s-15.73-3.34-21.16-8.73c-.02-.02-.04-.04-.06-.05-.02-.02-.04-.04-.05-.06C5.34 47.74 2 40.26 2 32z" />
</svg>
