<svg
  xmlns="http://www.w3.org/2000/svg"
  width="64"
  height="64"
  viewBox="0 0 64 64"
  fill="black"
  fill-rule="nonzero"
>
  <path d="M54 60c0 1.1-.9 2-2 2H12c-1.1 0-2-.9-2-2s.9-2 2-2h2.37l2.17-10.57c.01-.09.03-.19.06-.28l5.41-26.35V10c0-.69.36-1.33.94-1.7l8-5a1.98 1.98 0 0 1 2.12 0l8 5c.58.37.94 1.01.94 1.7v10.8l2.84 13.86c0 .02.01.04.01.06L49.64 58h2.37c1.1 0 2 .9 2 2zm-8.45-2l-4.09-19.92-21.17 10.94L18.45 58zm-6.22-30.3l-16.41 8.49-1.6 7.8 19.3-9.98zm-.96-4.7H25.63l-1.67 8.15 14.54-7.52zM38 11.11l-6-3.75-6 3.75V19h12zM58 14c0 1.1-.9 2-2 2h-6.67c-1.1 0-2-.9-2-2s.9-2 2-2H56c1.1 0 2 .9 2 2zm-41.5 0c0 1.1-.9 2-2 2H7.83c-1.1 0-2-.9-2-2s.9-2 2-2h6.67c1.1 0 2 .9 2 2zm39.93-8.92c.38 1.04-.16 2.19-1.19 2.56l-6.26 2.28c-1.04.38-2.19-.16-2.56-1.19-.38-1.04.16-2.19 1.19-2.56l6.26-2.28c1.04-.38 2.19.16 2.56 1.19zm-39 14.2c.38 1.04-.16 2.19-1.19 2.56l-6.26 2.28c-1.04.38-2.19-.16-2.56-1.19-.38-1.04.16-2.19 1.19-2.56l6.26-2.28c1.04-.38 2.19.16 2.56 1.19zm39 3.64a1.994 1.994 0 0 1-2.56 1.19l-6.26-2.28a1.994 1.994 0 0 1-1.19-2.56 1.994 1.994 0 0 1 2.56-1.19l6.26 2.28c1.04.38 1.57 1.53 1.19 2.56zm-39-14.2a1.994 1.994 0 0 1-2.56 1.19L8.61 7.63a1.994 1.994 0 0 1-1.19-2.56 1.994 1.994 0 0 1 2.56-1.19l6.26 2.28c1.04.38 1.57 1.53 1.19 2.56z" />
</svg>
