<svg
  xmlns="http://www.w3.org/2000/svg"
  width="64"
  height="64"
  viewBox="0 0 64 64"
  fill="black"
  fill-rule="nonzero"
>
  <path d="M57.41 57.41c-.78.78-2.05.78-2.83 0L40.99 43.82v1.17c0 1.1-.45 2.11-1.17 2.83a3.99 3.99 0 0 1-2.83 1.17h-10c-1.1 0-2.11-.45-2.83-1.17a3.99 3.99 0 0 1-1.17-2.83v-1.27a14.167 14.167 0 0 1-3.31-4.01c-1-1.82-1.6-3.87-1.71-6-.11-2.13.26-4.23 1.06-6.15.53-1.28 1.26-2.48 2.15-3.55L6.57 9.4c-.78-.78-.78-2.05 0-2.83.78-.78 2.05-.78 2.83 0l15.99 15.99c.01.01.02.01.02.02l16.44 16.44c.18.08.35.19.51.32.23.2.4.44.52.7L57.4 54.56c.78.78.78 2.05 0 2.83zM27 45h3V33c0-.06 0-.11.01-.16l-5.96-5.96c-.53.69-.97 1.45-1.31 2.25-.57 1.37-.84 2.87-.76 4.39.08 1.52.51 2.98 1.22 4.28.71 1.29 1.71 2.43 2.94 3.31l.12.09c.22.18.4.4.52.64s.2.51.22.79v.15zm10 0v-2.22-.14c.02-.28.09-.55.22-.79.12-.24.3-.46.52-.64.04-.03.07-.06.11-.09.08-.06.17-.12.25-.19l-4.1-4.1V45zm7-10c-1.1 0-2-.9-2-2 0-2.76-1.12-5.26-2.93-7.07A9.969 9.969 0 0 0 32 23c-1.1 0-2-.9-2-2s.9-2 2-2c3.87 0 7.37 1.57 9.9 4.1 2.53 2.53 4.1 6.03 4.1 9.9 0 1.1-.9 2-2 2zm-4 18c0 1.1-.9 2-2 2H26c-1.1 0-2-.9-2-2s.9-2 2-2h12c1.1 0 2 .9 2 2zm-3 6c0 1.1-.9 2-2 2h-6c-1.1 0-2-.9-2-2s.9-2 2-2h6c1.1 0 2 .9 2 2z" />
</svg>
