<svg
  xmlns="http://www.w3.org/2000/svg"
  width="64"
  height="64"
  viewBox="0 0 64 64"
  fill="black"
  fill-rule="nonzero"
>
  <path d="M23 43h7V22c0-1.1.9-2 2-2s2 .9 2 2v21h7v-3.48-.15c.02-.28.09-.55.22-.79.12-.24.3-.46.52-.64l.12-.09c3.01-2.14 5.15-5.13 6.26-8.46 1.12-3.34 1.2-7.03.07-10.55a16.948 16.948 0 0 0-6.17-8.56 16.95 16.95 0 0 0-10.03-3.27c-3.7 0-7.19 1.2-10.03 3.27a17.065 17.065 0 0 0-6.17 8.56 16.993 16.993 0 0 0 6.33 19.01l.12.09c.22.18.4.4.52.64s.2.51.22.79v.15zm22 2c0 1.1-.9 2-2 2H21c-1.1 0-2-.9-2-2v-4.51a20.93 20.93 0 0 1-6.92-9.84 20.937 20.937 0 0 1-.09-13.03c1.39-4.35 4.11-8.01 7.62-10.58A20.94 20.94 0 0 1 32 3c4.57 0 8.88 1.48 12.39 4.04a21 21 0 0 1 7.62 10.58c1.39 4.35 1.29 8.91-.09 13.03A20.93 20.93 0 0 1 45 40.49zm-1 7c0 1.1-.9 2-2 2H22c-1.1 0-2-.9-2-2s.9-2 2-2h20c1.1 0 2 .9 2 2zm-5 7c0 1.1-.9 2-2 2H27c-1.1 0-2-.9-2-2s.9-2 2-2h10c1.1 0 2 .9 2 2z" />
</svg>
