<svg
  xmlns="http://www.w3.org/2000/svg"
  width="64"
  height="64"
  viewBox="0 0 64 64"
  fill="black"
  fill-rule="nonzero"
>
  <path d="M20.69 21.69c-.78.78-2.05.78-2.83 0l-7.08-7.08c-.78-.78-.78-2.05 0-2.83.78-.78 2.05-.78 2.83 0l7.08 7.08c.78.78.78 2.05 0 2.83zm22.63-.01c-.78-.78-.78-2.05 0-2.83l7.07-7.07c.78-.78 2.05-.78 2.83 0 .78.78.78 2.05 0 2.83l-7.07 7.07c-.78.78-2.05.78-2.83 0zM62 33c0 1.1-.9 2-2 2H50c-1.1 0-2-.9-2-2s.9-2 2-2h10c1.1 0 2 .9 2 2zm-46 0c0 1.1-.9 2-2 2H4c-1.1 0-2-.9-2-2s.9-2 2-2h10c1.1 0 2 .9 2 2zm16-16c-1.1 0-2-.9-2-2V5c0-1.1.9-2 2-2s2 .9 2 2v10c0 1.1-.9 2-2 2zm-5 28h3V33c0-1.1.9-2 2-2s2 .9 2 2v12h3v-2.22-.15c.02-.28.09-.55.22-.79.12-.24.3-.46.52-.64l.12-.09c1.75-1.27 3-3.02 3.65-4.98.65-1.96.69-4.13.02-6.19-.67-2.07-1.96-3.8-3.63-5.02A9.974 9.974 0 0 0 32.01 23c-2.17 0-4.22.7-5.89 1.92a10.021 10.021 0 0 0-3.63 5.02 9.92 9.92 0 0 0 .02 6.19 9.936 9.936 0 0 0 3.65 4.98l.12.09c.22.18.39.4.52.64.12.24.2.51.22.79v.15zm14 0c0 1.1-.45 2.11-1.17 2.83A3.99 3.99 0 0 1 37 49H27c-1.1 0-2.11-.45-2.83-1.17A3.99 3.99 0 0 1 23 45v-1.27c-2.03-1.7-3.5-3.92-4.3-6.34a14.015 14.015 0 0 1 5.05-15.7c2.34-1.7 5.21-2.69 8.24-2.69 3.04 0 5.91.98 8.24 2.69a13.93 13.93 0 0 1 5.08 7.03c.93 2.89.88 5.92-.03 8.67a13.89 13.89 0 0 1-4.3 6.34zm-1 8c0 1.1-.9 2-2 2H26c-1.1 0-2-.9-2-2s.9-2 2-2h12c1.1 0 2 .9 2 2zm-3 6c0 1.1-.9 2-2 2h-6c-1.1 0-2-.9-2-2s.9-2 2-2h6c1.1 0 2 .9 2 2z" />
</svg>
