<!-- Generated by IcoMoon.io -->
<svg version="1.1" xmlns="http://www.w3.org/2000/svg" width="32" height="32" viewBox="0 0 32 32">
<title>lighthouse</title>
<path d="M23.977 28.438h-2.642c-0.485 0-0.878-0.393-0.878-0.878v0c0-0.375-0.233-0.711-0.584-0.843l-7.114-2.668c-0.343-0.129-0.738-0.038-0.992 0.247-0.15 0.169-0.225 0.391-0.225 0.617v2.647c0 0.485-0.393 0.878-0.878 0.878h-2.642c-0.485 0-0.902 0.373-0.925 0.857-0.024 0.517 0.388 0.944 0.899 0.944h16.006c0.512 0 0.924-0.427 0.899-0.944-0.023-0.484-0.44-0.857-0.925-0.857z"></path>
<path d="M12.443 8.011c0 0.477-0.387 0.864-0.864 0.864v0c-0.483 0-0.9 0.37-0.924 0.853-0.018 0.351 0.165 0.66 0.444 0.824 0.275 0.161 0.444 0.457 0.444 0.775v0.226c0 0.375 0.233 0.711 0.584 0.843l7.114 2.668c0.102 0.039 0.21 0.057 0.316 0.057 0.257 0 0.511-0.11 0.69-0.321 0.141-0.167 0.211-0.383 0.211-0.602v-2.871c0-0.319 0.169-0.614 0.444-0.775 0.294-0.172 0.481-0.507 0.44-0.881-0.051-0.459-0.458-0.796-0.92-0.796v0c-0.477 0-0.864-0.387-0.864-0.864v-2.022c0-0.364 0.295-0.66 0.66-0.66v0c0.186 0 0.346-0.048 0.478-0.129 0.11-0.067 0.2-0.157 0.268-0.26 0.096-0.145 0.149-0.316 0.155-0.488 0.002-0.049-0-0.099-0.006-0.148s-0.016-0.098-0.030-0.145-0.032-0.094-0.055-0.139c-0.022-0.045-0.049-0.088-0.080-0.13s-0.066-0.080-0.105-0.117c-0.079-0.073-0.175-0.134-0.291-0.18l-4.217-1.687c-0.054-0.021-0.109-0.038-0.165-0.048s-0.113-0.016-0.17-0.016c-0.028 0-0.057 0.001-0.085 0.004-0.085 0.008-0.169 0.028-0.249 0.060l-4.217 1.687c-0.091 0.036-0.17 0.083-0.238 0.137-0.061 0.048-0.114 0.102-0.158 0.16-0.062 0.083-0.106 0.174-0.134 0.269-0.014 0.048-0.024 0.096-0.030 0.145s-0.008 0.099-0.006 0.148c0.002 0.068 0.012 0.135 0.029 0.201s0.041 0.13 0.071 0.191c0.017 0.033 0.034 0.066 0.055 0.097 0.034 0.052 0.074 0.1 0.118 0.144s0.095 0.083 0.15 0.117c0.017 0.010 0.033 0.020 0.051 0.029 0.121 0.063 0.265 0.1 0.427 0.1v0 0c0.364 0 0.66 0.295 0.66 0.66l0 2.022zM17.756 6.252v1.711c0 0.497-0.403 0.9-0.9 0.9h-1.711c-0.497 0-0.9-0.403-0.9-0.9v-1.711c0-0.497 0.403-0.9 0.9-0.9h1.711c0.497 0 0.9 0.403 0.9 0.9zM13.344 3.551v0c-0.031 0-0.062 0.002-0.092 0.005 0.030-0.003 0.061-0.005 0.092-0.005z"></path>
<path d="M19.873 16.699l-7.114-2.668c-0.466-0.175-0.985 0.061-1.159 0.527s0.061 0.985 0.527 1.159l7.114 2.668c0.104 0.039 0.211 0.058 0.316 0.058 0.365 0 0.708-0.223 0.843-0.585 0.175-0.466-0.061-0.985-0.527-1.159z"></path>
<path d="M19.873 23.466l-7.114-2.668c-0.466-0.175-0.985 0.061-1.159 0.527s0.061 0.985 0.527 1.159l7.114 2.668c0.104 0.039 0.211 0.058 0.316 0.058 0.365 0 0.708-0.223 0.843-0.585 0.175-0.466-0.061-0.985-0.527-1.159z"></path>
<path d="M19.873 20.048l-7.114-2.668c-0.466-0.175-0.985 0.061-1.159 0.527s0.061 0.985 0.527 1.159l7.114 2.668c0.104 0.039 0.211 0.058 0.316 0.058 0.365 0 0.708-0.223 0.843-0.585 0.175-0.466-0.061-0.985-0.527-1.159z"></path>
</svg>
