<svg
  xmlns="http://www.w3.org/2000/svg"
  width="64"
  height="64"
  viewBox="0 0 64 64"
  fill="black"
  fill-rule="nonzero"
>
  <path d="M52 27H33c-1.1 0-2-.9-2-2s.9-2 2-2h3v-9c0-2.41-.96-3.84-2.09-4.78-1.13-.93-2.46-1.41-3.43-1.66L20 29.45V57h23.61c1.94 0 3.74-.69 5.14-1.87 1.4-1.18 2.4-2.83 2.74-4.74l3.54-19.87c.08-.44.06-.89-.06-1.31a3.003 3.003 0 0 0-1.66-1.95c-.4-.18-.84-.27-1.28-.27H52zm-42 4c-.83 0-1.58.33-2.12.88C7.33 32.43 7 33.17 7 34v20c0 .83.33 1.58.88 2.12.55.55 1.29.88 2.12.88h6V31zm30-8h11.99c1.04-.01 2.05.2 2.98.62.93.42 1.77 1.04 2.44 1.84a6.98 6.98 0 0 1 1.57 5.75l-3.54 19.87c-.51 2.87-2.01 5.35-4.11 7.11-2.1 1.76-4.8 2.81-7.71 2.81H10.01a7 7 0 0 1-7-7V34a7 7 0 0 1 7-7h6.74L27.54 4.47c.36-.75 1.13-1.19 1.96-1.13.06 0 3.93.29 6.97 2.8 1.98 1.64 3.54 4.17 3.54 7.86z" />
</svg>
