<!-- Generated by IcoMoon.io -->
<svg version="1.1" xmlns="http://www.w3.org/2000/svg" width="32" height="32" viewBox="0 0 32 32">
<title>like</title>
<path d="M28.444 14.239c-0.003-1.487-1.214-2.697-2.701-2.697h-5.313c-0.497 0-0.9-0.403-0.9-0.9v-3.935c0-1.747-1.402-3.167-3.125-3.167-0.020 0-0.039 0-0.059 0.001-1.689 0.032-3.063 1.433-3.063 3.123 0 2.458-1.069 3.902-2.916 5.567-0.136 0.123-0.271 0.248-0.406 0.376-0.084 0.080-0.224 0.020-0.224-0.097v0c0-0.528-0.403-0.957-0.9-0.957h-5.313c-0.497 0-0.9 0.428-0.9 0.957v13.203c0 0.528 0.403 0.957 0.9 0.957h5.313c0.497 0 0.9-0.428 0.9-0.957v-0.161c0-0.094 0.095-0.158 0.182-0.123l2.76 1.116c0.017 0.007 0.035 0.014 0.053 0.019 0.276 0.092 0.563 0.139 0.854 0.139h12.121c0.717 0 1.417-0.262 1.932-0.762 0.53-0.515 0.822-1.207 0.821-1.944l-0.016-9.759zM7.035 24.87h-1.711c-0.497 0-0.9-0.403-0.9-0.9v-9.714c0-0.497 0.403-0.9 0.9-0.9h1.711c0.497 0 0.9 0.403 0.9 0.9v9.714c0 0.497-0.403 0.9-0.9 0.9zM26.379 24.656c-0.173 0.165-0.408 0.247-0.647 0.247h-12.146c-0.089 0-0.177-0.013-0.262-0.039l-3.013-1.218c-0.34-0.138-0.563-0.468-0.563-0.835v-7.031c0-0.222 0.082-0.435 0.23-0.601 0.514-0.578 1.049-1.119 1.594-1.611 2.107-1.9 3.511-3.801 3.511-6.905 0-0.715 0.582-1.309 1.296-1.322l0.025-0c0.718 0 1.324 0.626 1.324 1.367v3.935c0 1.492 1.209 2.701 2.701 2.701h5.313c0.496 0 0.9 0.403 0.9 0.899l0.016 9.759c0 0.249-0.099 0.483-0.281 0.655z"></path>
<path d="M7.069 22.225c0 0.491-0.398 0.889-0.889 0.889s-0.889-0.398-0.889-0.889c0-0.491 0.398-0.889 0.889-0.889s0.889 0.398 0.889 0.889z"></path>
</svg>
