<!-- Generated by IcoMoon.io -->
<svg version="1.1" xmlns="http://www.w3.org/2000/svg" width="32" height="32" viewBox="0 0 32 32">
<title>linkedin</title>
<path d="M8.4 4.4c0.555 0.556 0.844 1.245 0.867 2.067 0 0.8-0.283 1.483-0.85 2.050s-1.339 0.85-2.317 0.85h-0.033c-0.933 0-1.678-0.283-2.233-0.85s-0.834-1.25-0.834-2.050c0-0.822 0.283-1.511 0.85-2.067s1.328-0.833 2.283-0.833c0.956 0 1.711 0.278 2.267 0.833zM3.333 28.433v-16.766h5.567v16.767h-5.567zM29 18.8c0-2.578-0.611-4.478-1.833-5.7s-2.745-1.833-4.567-1.833c-1.489 0-2.606 0.317-3.35 0.95-0.745 0.633-1.306 1.239-1.683 1.817v0.066h-0.033c0-0.022 0.011-0.044 0.033-0.067v-2.367h-5.567c0 0.378 0.005 1.467 0.017 3.267s0.011 3.7 0 5.7-0.017 4.6-0.017 7.8h5.567v-9.367c0-0.244 0.011-0.489 0.033-0.733s0.067-0.455 0.133-0.633c0.2-0.489 0.539-0.95 1.017-1.383s1.094-0.65 1.85-0.65c1.022 0 1.75 0.35 2.183 1.050s0.65 1.617 0.65 2.75v8.967h5.567v-9.634z"></path>
</svg>
