<svg
  xmlns="http://www.w3.org/2000/svg"
  width="64"
  height="64"
  viewBox="0 0 64 64"
  fill="black"
  fill-rule="nonzero"
>
  <path d="M28 18c0 1.1-.9 2-2 2h-7c-3.31 0-6.31 1.34-8.49 3.51A11.962 11.962 0 0 0 7 32c0 3.31 1.34 6.31 3.51 8.49C12.68 42.66 15.68 44 19 44h7c1.1 0 2 .9 2 2s-.9 2-2 2h-7c-4.42 0-8.42-1.79-11.31-4.69C4.8 40.42 3 36.41 3 32c0-4.42 1.79-8.42 4.69-11.31C10.58 17.8 14.59 16 19 16h7c1.1 0 2 .9 2 2zm8 0c0-1.1.9-2 2-2h7c4.42 0 8.42 1.79 11.31 4.69C59.2 23.58 61 27.59 61 32c0 4.42-1.79 8.42-4.69 11.31C53.42 46.2 49.41 48 45 48h-7c-1.1 0-2-.9-2-2s.9-2 2-2h7c3.31 0 6.31-1.34 8.49-3.51C55.66 38.32 57 35.32 57 32c0-3.31-1.34-6.31-3.51-8.49A11.962 11.962 0 0 0 45 20h-7c-1.1 0-2-.9-2-2zm10.5 14c0 1.1-.9 2-2 2h-25c-1.1 0-2-.9-2-2s.9-2 2-2h25c1.1 0 2 .9 2 2z" />
</svg>
