<!-- Generated by IcoMoon.io -->
<svg version="1.1" xmlns="http://www.w3.org/2000/svg" width="32" height="32" viewBox="0 0 32 32">
<title>link</title>
<path d="M26.406 5.57c-0.357-0.344-0.932-0.318-1.282 0.033l-2.425 2.425c-0.288 0.287-0.734 0.35-1.085 0.144-0.946-0.557-2.030-0.854-3.162-0.854-1.67 0-3.236 0.646-4.409 1.82l-4.904 4.904c-1.174 1.174-1.82 2.74-1.82 4.409 0 1.132 0.297 2.215 0.854 3.162 0.206 0.35 0.143 0.797-0.144 1.085l-2.447 2.447c-0.352 0.352-0.352 0.922 0 1.273 0.176 0.176 0.406 0.264 0.637 0.264s0.461-0.088 0.637-0.264l2.447-2.447c0.287-0.288 0.734-0.35 1.085-0.144 0.946 0.557 2.030 0.854 3.162 0.854 1.67 0 3.236-0.646 4.409-1.82l4.904-4.904c1.174-1.174 1.82-2.74 1.82-4.409 0-1.132-0.297-2.215-0.854-3.162-0.206-0.35-0.143-0.797 0.144-1.085l2.447-2.447c0.356-0.356 0.352-0.934-0.012-1.285zM22.88 13.548c0 1.189-0.459 2.302-1.292 3.136l-4.904 4.904c-0.833 0.833-1.947 1.292-3.136 1.292-0.372 0-0.737-0.045-1.089-0.133-0.681-0.17-0.918-1.016-0.422-1.512l1.105-1.105c0.352-0.352 0.352-0.922 0-1.273s-0.922-0.352-1.273 0l-1.105 1.106c-0.496 0.496-1.342 0.259-1.512-0.422-0.088-0.351-0.133-0.716-0.133-1.089 0-1.189 0.459-2.302 1.293-3.136l4.904-4.904c0.834-0.833 1.947-1.293 3.136-1.293 0.372 0 0.737 0.045 1.089 0.133 0.681 0.17 0.918 1.016 0.422 1.512l-1.087 1.087c-0.35 0.35-0.369 0.942-0.019 1.292 0.176 0.176 0.406 0.264 0.637 0.264s0.461-0.088 0.637-0.264l1.105-1.105c0.496-0.496 1.342-0.259 1.512 0.422 0.088 0.351 0.133 0.716 0.133 1.089z"></path>
</svg>
