<svg
  xmlns="http://www.w3.org/2000/svg"
  width="64"
  height="64"
  viewBox="0 0 64 64"
  fill="black"
  fill-rule="nonzero"
>
  <path d="M61.33 37q0-8.73-4.13-12.86A14 14 0 0 0 46.89 20c-3.36 0-5.88.72-7.56 2.14a19.88 19.88 0 0 0-3.79 4.1v.15h-.08a.22.22 0 0 1 .08-.15v-5.3H23v37.83h12.54V37.64c0-.55 0-1.1.07-1.66a5.45 5.45 0 0 1 .3-1.42 8.58 8.58 0 0 1 2.3-3.12A5.93 5.93 0 0 1 42.38 30q3.46 0 4.93 2.37a11.73 11.73 0 0 1 1.46 6.2v20.21h12.56zM3.42 58.77V20.94H16v37.84H3.42zM14.85 4.55a6.61 6.61 0 0 1 2 4.66 6.3 6.3 0 0 1-1.92 4.63 7.06 7.06 0 0 1-5.23 1.91h-.11a6.72 6.72 0 0 1-5-1.91 6.39 6.39 0 0 1-1.92-4.63 6.29 6.29 0 0 1 1.91-4.66 7 7 0 0 1 5.16-1.88 6.88 6.88 0 0 1 5.11 1.88z" />
</svg>
