<svg
  xmlns="http://www.w3.org/2000/svg"
  width="64"
  height="64"
  viewBox="0 0 64 64"
  fill="black"
  fill-rule="nonzero"
>
  <path d="M26.97 34.2c.78-.78 2.05-.78 2.83 0 2.2 2.2 5.07 3.29 7.96 3.29 2.88 0 5.76-1.1 7.96-3.29l7.48-7.48c2.2-2.2 3.29-5.07 3.29-7.96 0-2.88-1.1-5.76-3.29-7.96-2.2-2.19-5.07-3.29-7.96-3.29-2.88 0-5.76 1.1-7.96 3.29l-3.74 3.74c-.78.78-2.05.78-2.83 0-.78-.78-.78-2.05 0-2.83l3.74-3.74C37.43 5 41.33 3.51 45.23 3.51a15.229 15.229 0 0 1 15.24 15.24c0 3.9-1.49 7.8-4.46 10.78l-7.48 7.48a15.229 15.229 0 0 1-10.78 4.46c-3.9 0-7.8-1.49-10.78-4.46-.78-.78-.78-2.05 0-2.83zm10.06-4.4c-.78.78-2.05.78-2.83 0-2.2-2.2-5.07-3.29-7.96-3.29-2.88 0-5.76 1.1-7.96 3.29l-7.48 7.48c-2.2 2.2-3.29 5.07-3.29 7.96 0 2.88 1.1 5.76 3.29 7.96 2.2 2.19 5.07 3.29 7.96 3.29 2.88 0 5.76-1.1 7.96-3.29l3.74-3.74c.78-.78 2.05-.78 2.83 0 .78.78.78 2.05 0 2.83l-3.74 3.74a15.229 15.229 0 0 1-10.78 4.46A15.229 15.229 0 0 1 3.53 45.25c0-3.9 1.49-7.8 4.46-10.78l7.48-7.48c2.98-2.97 6.88-4.46 10.78-4.46 3.9 0 7.8 1.49 10.78 4.46.78.78.78 2.05 0 2.83z" />
</svg>
