<svg
  xmlns="http://www.w3.org/2000/svg"
  width="64"
  height="64"
  viewBox="0 0 64 64"
  fill="black"
  fill-rule="nonzero"
>
  <path d="M48.12 31.67a20.52 20.52 0 0 1 3.69 11.76 20.94 20.94 0 0 1-.75 5.51H51a11.9 11.9 0 0 1-5.08-6c-.83-1.83-1.5-5.68-2-7.65a4.09 4.09 0 0 0-.49-1.16A79.33 79.33 0 0 1 37.67 23c-.09-.23-.18-.46-.25-.7L36 17.84a.49.49 0 0 0 0-.11 1.21 1.21 0 0 0-2.2 0c-.44.88-1.43 2.58-2.58 2.58s-2.08-1.61-2.51-2.53a1.14 1.14 0 0 0-2.08 0 .56.56 0 0 0 0 .12l-1.39 4.47c-.08.24-.16.47-.26.7a79.27 79.27 0 0 1-5.75 11.14 4.09 4.09 0 0 0-.49 1.16 43.84 43.84 0 0 1-2.21 7.32c-1.35 2.73-2.4 4.75-5.07 6.3a20.89 20.89 0 0 1-.74-5.52A20.49 20.49 0 0 1 14.83 31a28.53 28.53 0 0 0 5-16.24v-2.58-.77a11.43 11.43 0 1 1 22.85 0v3.35a28.53 28.53 0 0 0 5.5 16.89zm-14 17c0-.15.08-.28.13-.41s0 0 0-.07a2.78 2.78 0 0 1 4.86-1 .42.42 0 0 0 .72-.12 2.79 2.79 0 0 1 5.3 1.74.25.25 0 0 0 .36.29 2.79 2.79 0 0 1 4 3.21l-.09.26c0 .07 0 .14-.05.22-1.35 4.55-7.64 12.08-11.2 11.12s-5.3-10.64-4.06-15.28zm-5.66-.41c0 .12.08.26.12.4 1.24 4.64-.49 14.33-4.05 15.29S14.6 57.34 13.36 52.7a1.74 1.74 0 0 1 0-.22 1.34 1.34 0 0 1-.09-.26 2.79 2.79 0 0 1 2-3.42 2.83 2.83 0 0 1 2 .21.25.25 0 0 0 .36-.29A2.79 2.79 0 0 1 22.82 47a.42.42 0 0 0 .73.12 2.73 2.73 0 0 1 1.45-.94 2.77 2.77 0 0 1 3.41 2l.02.04z" />
</svg>
