<svg
  xmlns="http://www.w3.org/2000/svg"
  width="64"
  height="64"
  viewBox="0 0 64 64"
  fill="black"
  fill-rule="nonzero"
>
  <path d="M56 16c0 1.1-.9 2-2 2H24c-1.1 0-2-.9-2-2s.9-2 2-2h30c1.1 0 2 .9 2 2zm0 16c0 1.1-.9 2-2 2H24c-1.1 0-2-.9-2-2s.9-2 2-2h30c1.1 0 2 .9 2 2zm0 16c0 1.1-.9 2-2 2H24c-1.1 0-2-.9-2-2s.9-2 2-2h30c1.1 0 2 .9 2 2zM9.17 18.83a4.007 4.007 0 0 1 0-5.66 4.007 4.007 0 0 1 5.66 0 4.007 4.007 0 0 1 0 5.66 4.007 4.007 0 0 1-5.66 0zm0 16a4.007 4.007 0 0 1 0-5.66 4.007 4.007 0 0 1 5.66 0 4.007 4.007 0 0 1 0 5.66 4.007 4.007 0 0 1-5.66 0zm0 16a4.007 4.007 0 0 1 0-5.66 4.007 4.007 0 0 1 5.66 0 4.007 4.007 0 0 1 0 5.66 4.007 4.007 0 0 1-5.66 0z" />
</svg>
