<svg
  xmlns="http://www.w3.org/2000/svg"
  width="64"
  height="64"
  viewBox="0 0 64 64"
  fill="black"
  fill-rule="nonzero"
>
  <path d="M56 14c0 1.1-.9 2-2 2H34c-1.1 0-2-.9-2-2s.9-2 2-2h20c1.1 0 2 .9 2 2zm0 28c0 1.1-.9 2-2 2H34c-1.1 0-2-.9-2-2s.9-2 2-2h20c1.1 0 2 .9 2 2zM46 22c0 1.1-.9 2-2 2H34c-1.1 0-2-.9-2-2s.9-2 2-2h10c1.1 0 2 .9 2 2zm0 28c0 1.1-.9 2-2 2H34c-1.1 0-2-.9-2-2s.9-2 2-2h10c1.1 0 2 .9 2 2zM10 10v16h16V10zM7.17 28.83A3.99 3.99 0 0 1 6 26V10c0-1.1.45-2.11 1.17-2.83A3.99 3.99 0 0 1 10 6h16c1.1 0 2.11.45 2.83 1.17A3.99 3.99 0 0 1 30 10v16c0 1.1-.45 2.11-1.17 2.83A3.99 3.99 0 0 1 26 30H10c-1.1 0-2.11-.45-2.83-1.17zM26 38H10v16h16V38zM7.17 56.83A3.99 3.99 0 0 1 6 54V38c0-1.1.45-2.11 1.17-2.83A3.99 3.99 0 0 1 10 34h16c1.1 0 2.11.45 2.83 1.17A3.99 3.99 0 0 1 30 38v16c0 1.1-.45 2.11-1.17 2.83A3.99 3.99 0 0 1 26 58H10c-1.1 0-2.11-.45-2.83-1.17z" />
</svg>
