<svg
  xmlns="http://www.w3.org/2000/svg"
  width="64"
  height="64"
  viewBox="0 0 64 64"
  fill="black"
  fill-rule="nonzero"
>
  <path d="M21 27c0-3.04 1.23-5.79 3.22-7.78C26.21 17.23 28.96 16 32 16s5.79 1.23 7.78 3.22C41.77 21.21 43 23.96 43 27s-1.23 5.79-3.22 7.78A10.965 10.965 0 0 1 32 38c-3.04 0-5.79-1.23-7.78-3.22A10.965 10.965 0 0 1 21 27zm6.05 4.95A6.976 6.976 0 0 0 32 34c1.93 0 3.68-.78 4.95-2.05A6.976 6.976 0 0 0 39 27c0-1.93-.78-3.68-2.05-4.95A6.976 6.976 0 0 0 32 20c-1.93 0-3.68.78-4.95 2.05A6.976 6.976 0 0 0 25 27c0 1.93.78 3.68 2.05 4.95zM57 27c0 8.01-3.12 14.74-7.04 20.03-7.07 9.55-16.96 14.7-17.03 14.74-.58.3-1.27.3-1.85 0-.07-.04-9.96-5.19-17.03-14.74C10.13 41.74 7.01 35 7.01 27c0-6.9 2.8-13.16 7.32-17.68A24.924 24.924 0 0 1 32.01 2c6.9 0 13.16 2.8 17.68 7.32A24.924 24.924 0 0 1 57.01 27zM46.85 12.15C43.05 8.35 37.8 6 32 6c-5.8 0-11.05 2.35-14.85 6.15C13.35 15.95 11 21.2 11 27c0 6.92 2.69 12.84 6.26 17.65C22.53 51.76 29.52 56.25 32 57.7c2.49-1.46 9.48-5.94 14.74-13.05C50.31 39.83 53 33.92 53 27c0-5.8-2.35-11.05-6.15-14.85z" />
</svg>
