<!-- Generated by IcoMoon.io -->
<svg version="1.1" xmlns="http://www.w3.org/2000/svg" width="32" height="32" viewBox="0 0 32 32">
<title>login</title>
<path d="M27.531 13.356h-9.103c-0.137 0-0.191-0.178-0.077-0.254l2.575-1.717c0.398-0.265 0.505-0.803 0.24-1.201s-0.803-0.505-1.201-0.24l-5.335 3.557c-0 0-0.001 0-0.001 0.001-0.028 0.018-0.054 0.039-0.079 0.060-0.007 0.006-0.013 0.012-0.020 0.018-0.018 0.016-0.034 0.032-0.050 0.049-0.007 0.008-0.015 0.016-0.022 0.024-0.016 0.018-0.031 0.037-0.045 0.056-0.005 0.007-0.010 0.013-0.015 0.020-0.019 0.027-0.036 0.055-0.052 0.084-0 0.001-0.001 0.001-0.001 0.002-0.015 0.028-0.028 0.057-0.040 0.086-0.003 0.007-0.005 0.015-0.008 0.023-0.009 0.023-0.016 0.047-0.023 0.071-0.002 0.009-0.005 0.018-0.007 0.027-0.006 0.024-0.010 0.048-0.014 0.073-0.001 0.009-0.003 0.018-0.004 0.027-0.004 0.033-0.006 0.066-0.006 0.1s0.002 0.067 0.006 0.1c0.001 0.009 0.003 0.018 0.004 0.027 0.004 0.024 0.008 0.049 0.014 0.073 0.002 0.009 0.005 0.018 0.007 0.027 0.007 0.024 0.014 0.048 0.023 0.071 0.003 0.007 0.005 0.015 0.008 0.023 0.012 0.029 0.025 0.058 0.040 0.086 0 0.001 0.001 0.001 0.001 0.002 0.015 0.029 0.033 0.057 0.052 0.084 0.005 0.007 0.010 0.013 0.015 0.020 0.014 0.019 0.029 0.038 0.045 0.056 0.007 0.008 0.014 0.016 0.022 0.024 0.016 0.017 0.033 0.033 0.050 0.049 0.007 0.006 0.013 0.012 0.020 0.018 0.025 0.021 0.051 0.041 0.079 0.060 0 0 0.001 0 0.001 0.001l5.335 3.557c0.148 0.098 0.314 0.146 0.479 0.146 0.28 0 0.554-0.135 0.721-0.386 0.265-0.398 0.158-0.935-0.24-1.201l-2.575-1.717c-0.114-0.076-0.060-0.254 0.077-0.254h9.132c0.484 0 0.875-0.396 0.866-0.882-0.009-0.477-0.418-0.85-0.894-0.85z"></path>
<path d="M18.624 19.547c-0.484 0.023-0.857 0.44-0.857 0.925v3.509c0 0.497-0.403 0.9-0.9 0.9h-3.523c-0.497 0-0.9-0.403-0.9-0.9v-17.353c0-0.145-0.017-0.288-0.051-0.425-0.035-0.143-0.086-0.279-0.153-0.407-0.027-0.051-0.056-0.101-0.087-0.15-0.016-0.024-0.032-0.048-0.049-0.071-0.108-0.15-0.239-0.283-0.389-0.394s-0.319-0.2-0.503-0.261l-3.26-1.087c-0.149-0.050-0.113-0.27 0.044-0.27h8.872c0.497 0 0.9 0.403 0.9 0.9v3.509c0 0.485 0.373 0.902 0.857 0.925 0.517 0.024 0.944-0.388 0.944-0.899v-3.534c0-1.492-1.209-2.701-2.701-2.701h-13.305c-0.995 0-1.801 0.806-1.801 1.801v20.418c0 0.081 0.004 0.161 0.011 0.24v1.25c0 0.307 0.078 0.601 0.218 0.859 0.047 0.086 0.101 0.168 0.161 0.246 0.027 0.034 0.055 0.068 0.084 0.1 0.044 0.049 0.090 0.095 0.139 0.139 0.147 0.131 0.317 0.24 0.506 0.318l7.069 2.945c0.034 0.014 0.067 0.027 0.101 0.038 0.010 0.004 0.021 0.007 0.031 0.010 0.024 0.008 0.049 0.016 0.073 0.023 0.011 0.003 0.022 0.006 0.033 0.009 0.027 0.007 0.053 0.013 0.080 0.019 0.008 0.002 0.015 0.004 0.023 0.005 0.034 0.007 0.068 0.013 0.102 0.018 0.008 0.001 0.016 0.002 0.024 0.003 0.026 0.003 0.052 0.006 0.078 0.008 0.011 0.001 0.022 0.002 0.033 0.002 0.024 0.002 0.048 0.003 0.073 0.003 0.010 0 0.020 0.001 0.030 0.001 0.005 0 0.009 0 0.014 0 0.027 0 0.054-0.001 0.081-0.002 0.002-0 0.005-0 0.007-0 0.034-0.002 0.067-0.005 0.1-0.008 0.010-0.001 0.020-0.003 0.031-0.004 0.023-0.003 0.046-0.006 0.069-0.010 0.012-0.002 0.023-0.004 0.035-0.006 0.022-0.004 0.044-0.009 0.066-0.014 0.011-0.002 0.022-0.005 0.032-0.007 0.027-0.007 0.054-0.014 0.080-0.022 0.005-0.002 0.010-0.003 0.015-0.004 0.031-0.009 0.062-0.020 0.093-0.031 0.009-0.003 0.018-0.007 0.027-0.010 0.022-0.008 0.043-0.017 0.065-0.026 0.011-0.005 0.021-0.009 0.032-0.014 0.020-0.009 0.040-0.018 0.060-0.028 0.010-0.005 0.020-0.010 0.031-0.015 0.023-0.012 0.045-0.024 0.067-0.037 0.006-0.004 0.013-0.007 0.019-0.011 0.028-0.017 0.056-0.034 0.083-0.052 0.007-0.005 0.015-0.010 0.022-0.015 0.020-0.013 0.039-0.027 0.058-0.041 0.009-0.007 0.019-0.014 0.028-0.021 0.017-0.013 0.034-0.027 0.051-0.041 0.009-0.007 0.018-0.015 0.027-0.023 0.018-0.016 0.036-0.032 0.054-0.049 0.006-0.006 0.013-0.012 0.019-0.018 0.023-0.023 0.046-0.046 0.068-0.070 0.005-0.006 0.011-0.012 0.016-0.018 0.017-0.018 0.033-0.037 0.049-0.056 0.007-0.009 0.015-0.018 0.022-0.027 0.014-0.017 0.027-0.035 0.041-0.052 0.007-0.009 0.014-0.019 0.021-0.029 0.014-0.019 0.027-0.039 0.040-0.059 0.005-0.008 0.011-0.016 0.016-0.024 0.018-0.028 0.035-0.056 0.051-0.085 0.003-0.006 0.006-0.011 0.009-0.017 0.013-0.024 0.025-0.048 0.037-0.072 0.005-0.010 0.010-0.021 0.014-0.031 0.009-0.021 0.019-0.042 0.027-0.063 0.005-0.011 0.009-0.022 0.014-0.033 0.009-0.022 0.017-0.045 0.025-0.068 0.003-0.010 0.007-0.019 0.010-0.029 0.011-0.032 0.020-0.065 0.029-0.099 0.001-0.004 0.002-0.008 0.003-0.012 0.008-0.030 0.014-0.060 0.020-0.090 0.002-0.011 0.004-0.022 0.006-0.034 0.004-0.024 0.008-0.048 0.012-0.072 0.002-0.012 0.003-0.025 0.005-0.037 0.003-0.025 0.005-0.050 0.007-0.075 0.001-0.011 0.002-0.022 0.003-0.034 0.002-0.036 0.003-0.073 0.003-0.109v-0.833c0-0.497 0.403-0.9 0.9-0.9h3.523c1.492 0 2.701-1.209 2.701-2.701v-3.535c0-0.512-0.427-0.924-0.944-0.899zM4.127 25.701c-0.336-0.14-0.554-0.467-0.554-0.831 0-2.903 0-15.508 0-19.35 0-0.615 0.602-1.048 1.185-0.854l5.268 1.756c0.368 0.123 0.616 0.467 0.616 0.854v19.788c0 0.642-0.653 1.078-1.246 0.831-1.553-0.647-4.141-1.725-5.269-2.195z"></path>
</svg>
