<svg
  xmlns="http://www.w3.org/2000/svg"
  width="64"
  height="64"
  viewBox="0 0 64 64"
  fill="black"
  fill-rule="nonzero"
>
  <path d="M43 32a1.994 1.994 0 0 1-.58 1.42l-12 12c-.78.78-2.05.78-2.83 0-.78-.78-.78-2.05 0-2.83L36.18 34H13.01c-1.1 0-2-.9-2-2s.9-2 2-2h23.17l-8.59-8.59c-.78-.78-.78-2.05 0-2.83.78-.78 2.05-.78 2.83 0l12 12c.19.19.34.41.43.65.1.24.15.49.15.77zm-24-6c-1.1 0-2-.9-2-2v-9a7 7 0 0 1 7-7h21a7 7 0 0 1 7 7v34a7 7 0 0 1-7 7H24a7 7 0 0 1-7-7v-9c0-1.1.9-2 2-2s2 .9 2 2v9c0 .83.33 1.58.88 2.12.55.55 1.29.88 2.12.88h21c.83 0 1.58-.33 2.12-.88.55-.55.88-1.29.88-2.12V15c0-.83-.33-1.58-.88-2.12-.55-.55-1.29-.88-2.12-.88H24c-.83 0-1.58.33-2.12.88-.55.55-.88 1.29-.88 2.12v9c0 1.1-.9 2-2 2z" />
</svg>
