<svg
  xmlns="http://www.w3.org/2000/svg"
  width="64"
  height="64"
  viewBox="0 0 64 64"
  fill="black"
  fill-rule="nonzero"
>
  <path d="M24 26c0 1.1-.9 2-2 2H6a1.994 1.994 0 0 1-1.42-.58c-.19-.19-.34-.41-.43-.65-.1-.24-.15-.49-.15-.77V10c0-1.1.9-2 2-2s2 .9 2 2v11.17l7.59-7.59c4.13-4.13 9.39-6.62 14.88-7.36 5.49-.74 11.22.27 16.3 3.15s8.89 7.28 11.07 12.37a26.03 26.03 0 0 1 1.33 16.55 26.004 26.004 0 0 1-8.96 13.98 25.943 25.943 0 0 1-15.59 5.71c-5.84.15-11.37-1.66-15.87-4.9s-7.96-7.91-9.67-13.5c-.32-1.06.27-2.17 1.33-2.5 1.06-.32 2.17.27 2.5 1.33 1.44 4.73 4.37 8.68 8.18 11.42a21.98 21.98 0 0 0 13.43 4.14c4.94-.13 9.53-1.89 13.19-4.83 3.66-2.93 6.38-7.03 7.58-11.83 1.2-4.79.73-9.69-1.12-14.01a21.989 21.989 0 0 0-9.37-10.47c-4.3-2.44-9.15-3.29-13.8-2.66-4.65.63-9.09 2.74-12.59 6.23l-7.59 7.59h11.17c1.1 0 2 .9 2 2z" />
</svg>
