<svg
  xmlns="http://www.w3.org/2000/svg"
  width="64"
  height="64"
  viewBox="0 0 64 64"
  fill="black"
  fill-rule="nonzero"
>
  <path d="M40 26c0-1.1.9-2 2-2h11.17l-7.59-7.59c-3.5-3.49-7.94-5.6-12.59-6.23A21.989 21.989 0 0 0 9.82 23.31 21.957 21.957 0 0 0 8.7 37.32a22 22 0 0 0 34.2 12.52c3.81-2.74 6.74-6.7 8.18-11.42a2 2 0 0 1 2.5-1.33 2 2 0 0 1 1.33 2.5 25.954 25.954 0 0 1-9.67 13.5 25.979 25.979 0 0 1-15.87 4.9 25.92 25.92 0 0 1-15.59-5.71A26.004 26.004 0 0 1 4.82 38.3a25.89 25.89 0 0 1 1.33-16.55c2.18-5.09 5.99-9.49 11.07-12.37a25.972 25.972 0 0 1 16.3-3.15c5.49.74 10.75 3.24 14.88 7.36l7.59 7.59V10.01c0-1.1.9-2 2-2s2 .9 2 2v16a1.994 1.994 0 0 1-.58 1.42c-.19.19-.41.34-.65.43-.24.1-.49.15-.77.15h-16c-1.1 0-2-.9-2-2z" />
</svg>
