<svg
  xmlns="http://www.w3.org/2000/svg"
  width="64"
  height="64"
  viewBox="0 0 64 64"
  fill="black"
  fill-rule="nonzero"
>
  <path d="M32 9.96c1.61-1.6 3.5-2.84 5.57-3.69a16.987 16.987 0 0 1 17.24 2.62c2.33 1.92 4.14 4.46 5.19 7.4 1.05 2.95 1.25 6.06.66 9.02a16.95 16.95 0 0 1-4.04 8.06L35.8 57.63a5.024 5.024 0 0 1-3.8 1.75c-.73 0-1.44-.16-2.09-.46-.65-.3-1.23-.74-1.71-1.29L7.38 33.37A16.995 16.995 0 0 1 9.19 8.89 17.002 17.002 0 0 1 32 9.96zM32 15c-.63 0-1.22-.3-1.6-.8a12.98 12.98 0 0 0-5.48-4.22 13.01 13.01 0 0 0-6.87-.81 12.977 12.977 0 0 0-10.28 8.48c-.8 2.25-.96 4.63-.51 6.9.45 2.26 1.5 4.41 3.1 6.18.01.01.02.03.03.04l20.84 24.28c.1.11.21.2.34.26.13.06.27.09.42.09a.99.99 0 0 0 .76-.35l20.84-24.28c.01-.01.02-.03.03-.04a13.05 13.05 0 0 0 3.1-6.18c.45-2.26.3-4.65-.51-6.9a12.977 12.977 0 0 0-10.28-8.48c-2.36-.36-4.73-.06-6.87.81a12.98 12.98 0 0 0-5.48 4.22c-.38.5-.97.8-1.6.8z" />
</svg>
