<svg
  xmlns="http://www.w3.org/2000/svg"
  width="64"
  height="64"
  viewBox="0 0 64 64"
  fill="black"
  fill-rule="nonzero"
>
  <path d="M44.2 53.74a23.919 23.919 0 0 1-16.97 7.03c-6.14 0-12.29-2.34-16.97-7.03a23.919 23.919 0 0 1-7.03-16.97c0-6.14 2.34-12.29 7.03-16.97L27.08 2.99a1.983 1.983 0 0 1 2.82 0l9.89 9.9c.78.78.78 2.05 0 2.83l-8.37 8.37c-.04.04-.07.08-.11.12-.04.04-.08.08-.12.11l-8.21 8.21a6.014 6.014 0 0 0 0 8.5 6.014 6.014 0 0 0 8.5 0l8.21-8.21c.04-.04.07-.08.11-.12.04-.04.08-.08.12-.11l8.37-8.37c.78-.78 2.05-.78 2.83 0l9.9 9.89c.38.37.59.88.59 1.41 0 .53-.21 1.04-.59 1.41L44.21 53.75zm-2.82-2.82l6.91-6.91-7.07-7.07-6.91 6.91a9.99 9.99 0 0 1-7.07 2.93c-2.56 0-5.12-.98-7.07-2.93a9.99 9.99 0 0 1-2.93-7.07c0-2.56.98-5.12 2.93-7.07l6.91-6.91-7.07-7.07-6.91 6.91a19.926 19.926 0 0 0-5.86 14.15c0 5.12 1.95 10.24 5.86 14.15s9.02 5.86 14.15 5.86c5.12 0 10.24-1.95 14.15-5.86zM35.55 14.3l-7.06-7.07-5.66 5.66 7.07 7.07zm21.22 21.21l-7.07-7.06-5.66 5.66 7.07 7.07z" />
</svg>
