<!-- Generated by IcoMoon.io -->
<svg version="1.1" xmlns="http://www.w3.org/2000/svg" width="32" height="32" viewBox="0 0 32 32">
<title>mailgun</title>
<path d="M18.45 16c-0.006-1.343-1.096-2.43-2.44-2.43-1.348 0-2.44 1.092-2.44 2.44 0 1.344 1.087 2.434 2.429 2.44h0.001c0.012 0 0.026 0 0.040 0 1.331 0 2.41-1.079 2.41-2.41 0-0.014-0-0.028-0-0.042l0 0.002zM16 21.4c0.009 0 0.019 0 0.030 0 2.999 0 5.43-2.431 5.43-5.43s-2.431-5.43-5.43-5.43c-2.999 0-5.43 2.431-5.43 5.43 0 0.011 0 0.021 0 0.032v-0.002c-0 0.006-0 0.013-0 0.020 0 2.971 2.409 5.38 5.38 5.38 0.007 0 0.014 0 0.021-0h-0.001zM1.8 14.7c0.13-0.65 0.25-1.3 0.4-1.95 1.463-6.395 7.103-11.094 13.84-11.094 7.831 0 14.18 6.349 14.18 14.18 0 0.265-0.007 0.529-0.022 0.79l0.002-0.036c-0.017 1.169-0.35 2.258-0.916 3.188l0.016-0.028c-0.71 1.182-1.984 1.96-3.441 1.96-0.373 0-0.735-0.051-1.077-0.147l0.028 0.007c-0.672-0.288-1.251-0.623-1.784-1.017l0.024 0.017-0.34 0.44c-1.549 2.037-3.975 3.339-6.704 3.339-4.639 0-8.4-3.761-8.4-8.4s3.761-8.4 8.4-8.4c4.216 0 7.707 3.106 8.308 7.155l0.006 0.046c0.019 0.309 0.030 0.671 0.030 1.035s-0.011 0.726-0.032 1.084l0.002-0.049c-0.003 0.035-0.005 0.075-0.005 0.115 0 0.757 0.613 1.37 1.37 1.37 0.619 0 1.143-0.411 1.312-0.976l0.003-0.010c0.159-0.578 0.25-1.241 0.25-1.926 0-0.857-0.143-1.68-0.406-2.447l0.016 0.053c-1.346-4.814-5.694-8.286-10.853-8.286-6.213 0-11.25 5.037-11.25 11.25 0 6.109 4.869 11.080 10.937 11.246l0.015 0c0.122 0.005 0.265 0.008 0.408 0.008 2.975 0 5.675-1.181 7.655-3.1l-0.003 0.003c0.18-0.16 0.35-0.33 0.56-0.53l2.23 1.87c-0.16 0.17-0.29 0.35-0.44 0.49-4.16 3.95-9 5.24-14.5 3.48s-8.62-5.67-9.62-11.29c-0.050-0.31-0.11-0.61-0.17-0.9z"></path>
</svg>
