<svg
  xmlns="http://www.w3.org/2000/svg"
  width="64"
  height="64"
  viewBox="0 0 64 64"
  fill="black"
  fill-rule="nonzero"
>
  <path d="M32.94 45.76c-.59.32-1.3.32-1.89 0L5.99 32.34V50c0 .83.33 1.58.88 2.12.55.55 1.29.88 2.12.88h46c.83 0 1.58-.33 2.12-.88.55-.55.88-1.29.88-2.12V32.34zM32 41.73L58 27.8V27c0-.55-.15-1.08-.43-1.54-.27-.46-.67-.84-1.16-1.1L32 11.28 7.58 24.37a2.995 2.995 0 0 0-1.59 2.64v.8zM62 27v23a7 7 0 0 1-7 7H9a7 7 0 0 1-7-7V29.04 27c0-1.29.36-2.52 1-3.59a6.959 6.959 0 0 1 2.7-2.57l25.36-13.6c.59-.32 1.3-.32 1.89 0l25.36 13.59A7.006 7.006 0 0 1 62 27.01z" />
</svg>
