<svg
  xmlns="http://www.w3.org/2000/svg"
  width="64"
  height="64"
  viewBox="0 0 64 64"
  fill="black"
  fill-rule="nonzero"
>
  <path d="M9 52a7 7 0 0 1-7-7V24.04 19a7 7 0 0 1 7-7h46a7 7 0 0 1 7 7v26a7 7 0 0 1-7 7zm46-4c.83 0 1.58-.33 2.12-.88.55-.55.88-1.29.88-2.12V27.34L32.94 40.76c-.59.32-1.3.32-1.89 0L5.99 27.34V45c0 .83.33 1.58.88 2.12.55.55 1.29.88 2.12.88zm3-29c0-.83-.33-1.58-.88-2.12-.55-.55-1.29-.88-2.12-.88H9c-.83 0-1.58.33-2.12.88C6.33 17.43 6 18.17 6 19v3.8l26 13.93L58 22.8z" />
</svg>
