<svg
  xmlns="http://www.w3.org/2000/svg"
  width="64"
  height="64"
  viewBox="0 0 64 64"
  fill="black"
  fill-rule="nonzero"
>
  <path d="M2.67 29.47c.26-1.33.51-2.67.82-4a29.14 29.14 0 0 1 57.59 6.34v1.62-.07a12.8 12.8 0 0 1-1.88 6.55v-.06a8.24 8.24 0 0 1-7.08 4 8.08 8.08 0 0 1-2.21-.3H50a18.08 18.08 0 0 1-3.67-2.09h.05l-.7.9a17.25 17.25 0 1 1 3.3-13v.1c0 .63.06 1.38.06 2.12s0 1.5-.06 2.23v-.1a1.85 1.85 0 0 0 0 .24 2.82 2.82 0 0 0 5.51.81 15.64 15.64 0 0 0-.32-9v.11a23.12 23.12 0 1 0-23 29.2h.84a22.54 22.54 0 0 0 15.73-6.37c.37-.32.72-.67 1.15-1.08l4.58 3.84c-.33.35-.59.72-.9 1-8.55 8.11-18.5 10.77-29.8 7.15S5.13 48.09 3.08 36.54c-.11-.63-.23-1.25-.35-1.85zm29.18 13.77h.06a11.16 11.16 0 1 0-11.16-11.15v.06a11.06 11.06 0 0 0 11.06 11.09zm5-11.09a5 5 0 1 0-5 5h.08a5 5 0 0 0 5-5v-.09z" />
</svg>
