<svg
  xmlns="http://www.w3.org/2000/svg"
  width="64"
  height="64"
  viewBox="0 0 64 64"
  fill="black"
  fill-rule="nonzero"
>
  <path d="M24 47.76l16 8V16.23l-16-8zM59.03 3.25c.62-.34 1.37-.33 1.99.02.61.36.99 1.02.99 1.72v44c0 .73-.39 1.4-1.03 1.75l-17.97 9.99-.24.12c-.09.04-.19.07-.29.09-.42.1-.88.07-1.3-.12-.02-.01-.05-.02-.07-.03l-19.05-9.53-17.08 9.49c-.62.34-1.37.33-1.99-.02-.61-.36-.99-1.02-.99-1.72v-44c0-.73.39-1.4 1.03-1.75L21 3.27l.24-.12c.09-.04.19-.07.29-.09.42-.1.88-.07 1.3.12.02.01.05.02.07.03l19.05 9.53zM6 16.18V55.6l14-7.78V8.4zm38 0V55.6l14-7.78V8.4z" />
</svg>
