<svg
  xmlns="http://www.w3.org/2000/svg"
  width="64"
  height="64"
  viewBox="0 0 64 64"
  fill="black"
  fill-rule="nonzero"
>
  <path d="M20.41 44.41c-.78.78-2.05.78-2.83 0l-11-11c-.78-.78-.78-2.05 0-2.83l13-13c.78-.78 2.05-.78 2.83 0 .78.78.78 2.05 0 2.83L10.82 32l9.59 9.59c.78.78.78 2.05 0 2.83zm23.18-24.82c.78-.78 2.05-.78 2.83 0l11 11c.78.78.78 2.05 0 2.83l-13 13c-.78.78-2.05.78-2.83 0-.78-.78-.78-2.05 0-2.83L53.18 32l-9.59-9.59c-.78-.78-.78-2.05 0-2.83zm-4.99-8.5c1.05.33 1.64 1.46 1.3 2.51l-12 38a1.995 1.995 0 0 1-2.51 1.3 1.995 1.995 0 0 1-1.3-2.51l12-38a1.995 1.995 0 0 1 2.51-1.3z" />
</svg>
