<!-- Generated by IcoMoon.io -->
<svg version="1.1" xmlns="http://www.w3.org/2000/svg" width="32" height="32" viewBox="0 0 32 32">
<title>mark</title>
<path d="M25.781 12.432c-0.497 0-0.9 0.403-0.9 0.9v9.748c0 0.993-0.808 1.801-1.801 1.801h-14.16c-0.993 0-1.801-0.808-1.801-1.801v-14.16c0-0.993 0.808-1.801 1.801-1.801h9.748c0.497 0 0.9-0.403 0.9-0.9s-0.403-0.9-0.9-0.9h-9.748c-1.986 0-3.602 1.616-3.602 3.602v14.16c0 1.986 1.616 3.602 3.602 3.602h14.16c1.986 0 3.602-1.616 3.602-3.602v-9.748c0-0.497-0.403-0.9-0.9-0.9z"></path>
</svg>
