<!-- Generated by IcoMoon.io -->
<svg version="1.1" xmlns="http://www.w3.org/2000/svg" width="32" height="32" viewBox="0 0 32 32">
<title>media</title>
<path d="M29.327 1.772h-26.654c-0.497 0-0.9 0.403-0.9 0.9v26.654c0 0.497 0.403 0.9 0.9 0.9h26.654c0.497 0 0.9-0.403 0.9-0.9v-26.654c0-0.497-0.403-0.9-0.9-0.9zM28.427 27.527c-0 0.497-0.403 0.9-0.9 0.9h-23.053c-0.497 0-0.9-0.403-0.9-0.9v-23.052c0-0.497 0.403-0.901 0.901-0.9l23.074 0.002c0.498 0 0.901 0.404 0.9 0.901l-0.021 23.050z"></path>
<path d="M12.547 19.31c0 0 0 0 0 0 0.421 0 0.831-0.091 1.22-0.271l6.905-3.187c1.043-0.482 1.691-1.494 1.691-2.644s-0.648-2.162-1.691-2.643l-6.905-3.187c-0.389-0.18-0.8-0.271-1.22-0.271-1.605 0-2.911 1.307-2.911 2.914v6.374c0 1.607 1.306 2.914 2.911 2.914zM10.905 10.022c0-0.907 0.737-1.645 1.642-1.645 0.236 0 0.467 0.052 0.689 0.154l6.905 3.187c0.597 0.276 0.954 0.833 0.954 1.491s-0.357 1.216-0.954 1.491l-6.905 3.187c-0.221 0.102-0.453 0.154-0.688 0.154h-0c-0.906-0-1.642-0.738-1.642-1.645v-6.374z"></path>
<path d="M25.756 23.103h-15.117c-0.471 0-0.853-0.382-0.853-0.853v0c0-0.485-0.373-0.902-0.857-0.925-0.517-0.024-0.944 0.388-0.944 0.899v0.025c0 0.471-0.382 0.853-0.853 0.853h-0.889c-0.485 0-0.902 0.373-0.925 0.857-0.024 0.517 0.388 0.944 0.899 0.944h0.915c0.471 0 0.853 0.382 0.853 0.853v0c0 0.485 0.373 0.902 0.857 0.925 0.517 0.024 0.944-0.388 0.944-0.899v-0.026c0-0.471 0.382-0.853 0.853-0.853h15.142c0.512 0 0.924-0.427 0.899-0.944-0.023-0.484-0.44-0.857-0.925-0.857z"></path>
</svg>
