<!-- Generated by IcoMoon.io -->
<svg version="1.1" xmlns="http://www.w3.org/2000/svg" width="32" height="32" viewBox="0 0 32 32">
<title>meeting</title>
<path d="M28.427 1.772h-24.853c-0.995 0-1.801 0.806-1.801 1.801v24.853c0 0.995 0.806 1.801 1.801 1.801h24.853c0.995 0 1.801-0.806 1.801-1.801v-24.853c0-0.995-0.806-1.801-1.801-1.801zM28.496 27.596c0 0.497-0.403 0.9-0.9 0.9h-23.191c-0.497 0-0.9-0.403-0.9-0.9v-23.191c0-0.497 0.403-0.9 0.9-0.9h23.191c0.497 0 0.9 0.403 0.9 0.9v23.191z"></path>
<path d="M18.629 19.538c0 0.009 0.001 0.018 0.001 0.027 0.003 0.033 0.007 0.066 0.013 0.098 0 0 0 0 0 0.001l1.258 6.288c0.094 0.469 0.55 0.773 1.019 0.679s0.773-0.55 0.679-1.019l-0.607-3.035c-0.027-0.134 0.137-0.222 0.234-0.125l3.859 3.859c0.337 0.337 0.89 0.363 1.233 0.032 0.35-0.337 0.353-0.894 0.012-1.236l-3.879-3.879c-0.097-0.097-0.009-0.261 0.125-0.234l3.035 0.607c0.468 0.094 0.925-0.21 1.019-0.679s-0.21-0.925-0.679-1.019l-6.288-1.258c-0-0-0.001-0-0.001-0-0.023-0.005-0.046-0.008-0.069-0.010-0.005-0.001-0.010-0.002-0.016-0.002-0.028-0.003-0.056-0.004-0.084-0.004s-0.056 0.001-0.084 0.004c-0.005 0-0.010 0.002-0.015 0.002-0.023 0.003-0.046 0.006-0.068 0.010-0.003 0.001-0.007 0.002-0.010 0.002-0.024 0.005-0.048 0.011-0.072 0.018-0.001 0-0.002 0.001-0.003 0.001-0.079 0.024-0.155 0.060-0.226 0.107-0.003 0.002-0.005 0.004-0.008 0.006-0.021 0.014-0.041 0.029-0.061 0.045-0.022 0.018-0.044 0.038-0.064 0.058-0.024 0.024-0.046 0.049-0.066 0.075-0.006 0.007-0.011 0.014-0.016 0.022-0.015 0.020-0.029 0.040-0.042 0.061-0.005 0.008-0.010 0.016-0.014 0.024-0.013 0.022-0.024 0.044-0.035 0.067-0.003 0.007-0.007 0.014-0.010 0.021-0.013 0.029-0.024 0.059-0.033 0.090-0 0.001-0 0.001-0.001 0.002-0.010 0.032-0.017 0.064-0.023 0.096-0.001 0.008-0.002 0.016-0.003 0.024-0.004 0.024-0.006 0.048-0.008 0.072-0.001 0.011-0.001 0.021-0.002 0.032-0.001 0.024-0 0.047 0.001 0.071z"></path>
<path d="M6.389 21.6l3.035-0.607c0.134-0.027 0.222 0.137 0.125 0.234l-3.879 3.879c-0.338 0.338-0.338 0.886 0 1.224s0.886 0.338 1.224 0l3.879-3.879c0.097-0.097 0.261-0.009 0.234 0.125l-0.607 3.035c-0.094 0.469 0.21 0.925 0.679 1.019s0.925-0.21 1.019-0.679l1.258-6.288c0-0 0-0.001 0-0.001 0.006-0.032 0.011-0.065 0.013-0.097 0.001-0.009 0.001-0.019 0.001-0.028 0.001-0.023 0.002-0.046 0.001-0.070-0-0.011-0.001-0.022-0.002-0.032-0.002-0.024-0.004-0.048-0.008-0.071-0.001-0.008-0.002-0.016-0.004-0.025-0.006-0.032-0.013-0.064-0.023-0.096-0-0.001-0.001-0.002-0.001-0.003-0.009-0.030-0.020-0.060-0.033-0.089-0.003-0.007-0.007-0.014-0.010-0.022-0.010-0.023-0.022-0.045-0.034-0.067-0.005-0.008-0.009-0.016-0.014-0.024-0.013-0.021-0.027-0.041-0.042-0.061-0.005-0.007-0.010-0.015-0.016-0.022-0.021-0.026-0.042-0.051-0.066-0.075-0.021-0.021-0.042-0.040-0.065-0.058-0.019-0.015-0.038-0.029-0.058-0.043-0.004-0.002-0.007-0.005-0.011-0.008-0.071-0.047-0.147-0.082-0.226-0.107-0.001-0-0.002-0.001-0.003-0.001-0.024-0.007-0.048-0.013-0.072-0.018-0.003-0.001-0.007-0.002-0.010-0.003-0.023-0.004-0.045-0.007-0.068-0.010-0.005-0.001-0.010-0.002-0.016-0.002-0.028-0.003-0.056-0.004-0.084-0.004s-0.056 0.001-0.084 0.004c-0.004 0-0.008 0.001-0.011 0.002-0.025 0.003-0.049 0.006-0.073 0.011-0 0-0.001 0-0.001 0l-6.288 1.258c-0.469 0.094-0.773 0.55-0.679 1.019s0.55 0.773 1.019 0.679z"></path>
<path d="M18.63 12.566c0.002 0.024 0.004 0.048 0.008 0.072 0.001 0.008 0.002 0.016 0.003 0.024 0.006 0.032 0.013 0.064 0.023 0.096 0 0.001 0 0.001 0.001 0.002 0.009 0.030 0.021 0.060 0.033 0.090 0.003 0.007 0.007 0.014 0.010 0.021 0.010 0.023 0.022 0.045 0.035 0.067 0.005 0.008 0.009 0.016 0.014 0.024 0.013 0.021 0.027 0.041 0.042 0.061 0.005 0.007 0.010 0.014 0.016 0.022 0.021 0.026 0.042 0.051 0.066 0.075s0.049 0.046 0.075 0.066c0.007 0.006 0.014 0.011 0.022 0.016 0.020 0.015 0.040 0.029 0.061 0.042 0.008 0.005 0.016 0.010 0.024 0.014 0.022 0.013 0.044 0.024 0.067 0.034 0.007 0.003 0.014 0.007 0.022 0.010 0.029 0.013 0.059 0.024 0.090 0.033 0.001 0 0.001 0 0.002 0.001 0.032 0.010 0.064 0.017 0.096 0.023 0.007 0.001 0.015 0.002 0.023 0.003 0.025 0.004 0.049 0.007 0.074 0.008 0.010 0.001 0.020 0.001 0.031 0.001 0.024 0.001 0.048 0 0.072-0.001 0.009-0 0.017-0.001 0.026-0.001 0.033-0.003 0.066-0.007 0.098-0.013 0-0 0.001-0 0.001-0l6.288-1.258c0.469-0.094 0.773-0.55 0.679-1.019s-0.55-0.773-1.019-0.679l-3.035 0.607c-0.134 0.027-0.222-0.137-0.125-0.234l3.861-3.861c0.337-0.337 0.355-0.906 0.018-1.243-0.169-0.169-0.39-0.253-0.612-0.253s-0.443 0.085-0.612 0.254l-3.879 3.879c-0.097 0.097-0.261 0.009-0.234-0.125l0.607-3.035c0.094-0.469-0.21-0.925-0.679-1.019-0.057-0.011-0.114-0.017-0.171-0.017-0.404 0-0.766 0.285-0.848 0.696l-1.258 6.288c-0 0-0 0-0 0.001-0.006 0.033-0.011 0.065-0.013 0.098-0.001 0.009-0.001 0.018-0.001 0.027-0.001 0.024-0.002 0.047-0.001 0.071 0 0.011 0.001 0.021 0.001 0.032z"></path>
<path d="M12.526 13.37c0.024-0.002 0.048-0.004 0.072-0.008 0.008-0.001 0.016-0.002 0.024-0.003 0.032-0.006 0.064-0.013 0.096-0.023 0.001-0 0.001-0 0.002-0.001 0.030-0.009 0.060-0.021 0.090-0.033 0.007-0.003 0.014-0.007 0.021-0.010 0.023-0.010 0.045-0.022 0.067-0.034 0.008-0.005 0.016-0.009 0.024-0.014 0.021-0.013 0.041-0.027 0.061-0.042 0.007-0.005 0.014-0.010 0.022-0.016 0.026-0.021 0.051-0.042 0.075-0.066s0.046-0.049 0.066-0.075c0.006-0.007 0.011-0.014 0.016-0.022 0.015-0.020 0.029-0.040 0.042-0.061 0.005-0.008 0.010-0.016 0.014-0.024 0.013-0.022 0.024-0.044 0.034-0.067 0.003-0.007 0.007-0.014 0.010-0.022 0.013-0.029 0.024-0.059 0.033-0.090 0-0.001 0-0.001 0.001-0.002 0.010-0.032 0.017-0.064 0.023-0.096 0.001-0.007 0.002-0.015 0.003-0.023 0.004-0.025 0.007-0.049 0.008-0.074 0.001-0.010 0.001-0.020 0.001-0.031 0.001-0.024 0-0.048-0.001-0.072-0-0.009-0.001-0.017-0.001-0.026-0.003-0.033-0.007-0.066-0.013-0.098-0-0-0-0.001-0-0.001l-1.258-6.288c-0.094-0.469-0.55-0.773-1.019-0.679s-0.773 0.55-0.679 1.019l0.607 3.035c0.027 0.134-0.137 0.222-0.234 0.125l-3.861-3.861c-0.337-0.337-0.906-0.355-1.243-0.018-0.169 0.169-0.253 0.39-0.253 0.612s0.085 0.443 0.254 0.612l3.879 3.879c0.097 0.097 0.009 0.261-0.125 0.234l-3.035-0.607c-0.469-0.094-0.925 0.21-1.019 0.679-0.011 0.057-0.017 0.114-0.017 0.171 0 0.404 0.285 0.766 0.696 0.848l6.288 1.258c0 0 0 0 0.001 0 0.033 0.006 0.065 0.011 0.098 0.013 0.009 0.001 0.018 0.001 0.027 0.001 0.024 0.001 0.047 0.002 0.071 0.001 0.011-0 0.021-0.001 0.032-0.001z"></path>
<path d="M18.69 16c0 1.486-1.204 2.69-2.69 2.69s-2.69-1.204-2.69-2.69c0-1.486 1.204-2.69 2.69-2.69s2.69 1.204 2.69 2.69z"></path>
</svg>
