<!-- Generated by IcoMoon.io -->
<svg version="1.1" xmlns="http://www.w3.org/2000/svg" width="32" height="32" viewBox="0 0 32 32">
<title>memcached</title>
<path d="M19.13 18.5c-0.223-0.404-0.647-0.674-1.133-0.674-0.066 0-0.131 0.005-0.194 0.014l0.007-0.001c-0.84 0-1.35 0.23-1.6 0.67-0.143 0.326-0.227 0.706-0.227 1.106 0 0.068 0.002 0.136 0.007 0.203l-0.001-0.009v6.88h3.34v-6.8c0.003-0.057 0.005-0.123 0.005-0.189 0-0.43-0.075-0.843-0.213-1.226l0.008 0.025zM23.47 26.69h3.32v-7.29c0.002-0.032 0.003-0.070 0.003-0.109 0-0.306-0.071-0.596-0.198-0.853l0.005 0.011c-0.238-0.393-0.664-0.651-1.149-0.651-0.060 0-0.119 0.004-0.178 0.012l0.007-0.001c-0.051-0.006-0.109-0.009-0.169-0.009-0.613 0-1.145 0.349-1.407 0.86l-0.004 0.009c-0.146 0.341-0.231 0.737-0.231 1.154 0 0.023 0 0.047 0.001 0.070l-0-0.003zM1.77 26.69h8.23v-21.69h-0.81c-4.098 0-7.42 3.322-7.42 7.42v0zM22.77 16.080c0.38-0.486 0.854-0.88 1.396-1.159l0.024-0.011c0.702-0.341 1.527-0.54 2.398-0.54 0.025 0 0.051 0 0.076 0.001l-0.004-0c0.005-0 0.012-0 0.018-0 0.645 0 1.261 0.125 1.825 0.352l-0.033-0.012c0.664 0.261 1.222 0.668 1.655 1.184l0.005 0.006 0.15 0.19v-3.3c-0.011-4.305-3.504-7.79-7.81-7.79-0.021 0-0.042 0-0.063 0l0.003-0h-0.41v10.24c0.276 0.243 0.514 0.519 0.711 0.825l0.009 0.015zM11.88 14.66h4v1c0.176-0.188 0.366-0.358 0.569-0.512l0.011-0.008c0.721-0.491 1.61-0.784 2.569-0.784 0.067 0 0.134 0.001 0.201 0.004l-0.009-0c0.334 0.002 0.659 0.028 0.978 0.075l-0.038-0.005v-9.43h-8.28zM11.88 26.66v0.030z"></path>
</svg>
