<svg
  xmlns="http://www.w3.org/2000/svg"
  width="64"
  height="64"
  viewBox="0 0 64 64"
  fill="black"
  fill-rule="nonzero"
>
  <path d="M23.47 55.24zm0-24.7h8.23v2.06a9.74 9.74 0 0 1 1.17-1.05 9.36 9.36 0 0 1 5.28-1.61h.4a13.4 13.4 0 0 1 2 .15h-.08V10.67h-17zm22.41 2.93a8.81 8.81 0 0 1 2.87-2.39A11.38 11.38 0 0 1 53.74 30h.18a10.19 10.19 0 0 1 3.76.72h-.07A8.35 8.35 0 0 1 61 33.09l.31.39V26.7a16.07 16.07 0 0 0-16.07-16h-1v21.04a8.47 8.47 0 0 1 1.46 1.7zM2.67 55.3H19.6V10.67h-1.66A15.26 15.26 0 0 0 2.67 25.94zm44.65 0h6.83v-15a1.69 1.69 0 0 0 0-.23 4 4 0 0 0-.41-1.75A2.76 2.76 0 0 0 51.4 37a2.22 2.22 0 0 0-.4 0h-.3a3.25 3.25 0 0 0-2.9 1.77 6.12 6.12 0 0 0-.47 2.38v.14zm-8.93-16.85a2.65 2.65 0 0 0-2.33-1.39 2.6 2.6 0 0 0-.4 0c-1.73 0-2.77.47-3.29 1.37a5.84 5.84 0 0 0-.47 2.28V55.3h6.9v-14-.38a7.56 7.56 0 0 0-.44-2.53z" />
</svg>
