<svg
  xmlns="http://www.w3.org/2000/svg"
  width="64"
  height="64"
  viewBox="0 0 64 64"
  fill="black"
  fill-rule="nonzero"
>
  <path d="M56 32.34V16H8v16.34c.85.3 1.62.79 2.24 1.42A6.003 6.003 0 0 1 12 38c0 1.66-.67 3.16-1.76 4.24-.63.63-1.39 1.11-2.24 1.42V48h4v-3c0-1.1.9-2 2-2s2 .9 2 2v3h4v-3c0-1.1.9-2 2-2s2 .9 2 2v3h4v-3c0-1.1.9-2 2-2s2 .9 2 2v3h8v-3c0-1.1.9-2 2-2s2 .9 2 2v3h4v-3c0-1.1.9-2 2-2s2 .9 2 2v3h4v-4.34a5.91 5.91 0 0 1-2.24-1.42A6.003 6.003 0 0 1 52 38c0-1.66.67-3.16 1.76-4.24.63-.63 1.39-1.11 2.24-1.42zM58 36c-.55 0-1.05.22-1.41.59-.36.36-.59.86-.59 1.41 0 .55.22 1.05.59 1.41.36.36.86.59 1.41.59 1.1 0 2 .9 2 2v8c0 1.1-.9 2-2 2H6c-1.1 0-2-.9-2-2v-8c0-1.1.9-2 2-2 .55 0 1.05-.22 1.41-.59.36-.36.59-.86.59-1.41 0-.55-.22-1.05-.59-1.41C7.05 36.23 6.55 36 6 36c-1.1 0-2-.9-2-2V14c0-1.1.9-2 2-2h52c1.1 0 2 .9 2 2v20c0 1.1-.9 2-2 2zm-44-4V22c0-1.1.9-2 2-2h5c1.1 0 2 .9 2 2v10c0 1.1-.9 2-2 2h-5c-1.1 0-2-.9-2-2zm5-2v-6h-1v6zm8.5 2V22c0-1.1.9-2 2-2h5c1.1 0 2 .9 2 2v10c0 1.1-.9 2-2 2h-5c-1.1 0-2-.9-2-2zm5-2v-6h-1v6zm8.5 2V22c0-1.1.9-2 2-2h5c1.1 0 2 .9 2 2v10c0 1.1-.9 2-2 2h-5c-1.1 0-2-.9-2-2zm5-2v-6h-1v6z" />
</svg>
