<svg
  xmlns="http://www.w3.org/2000/svg"
  width="64"
  height="64"
  viewBox="0 0 64 64"
  fill="black"
  fill-rule="nonzero"
>
  <path d="M22 24c0 .53-.21 1.04-.59 1.41L14 32.82v22.17c0 .83.33 1.58.88 2.12.55.55 1.29.88 2.12.88h2v-14c0-1.1.9-2 2-2h23c1.1 0 2 .9 2 2v14h1c.83 0 1.58-.33 2.12-.88.55-.55.88-1.29.88-2.12v-49h-4v7c0 1.1-.9 2-2 2s-2-.9-2-2v-7h-4v7c0 1.1-.9 2-2 2s-2-.9-2-2v-7h-4v7c0 1.1-.9 2-2 2s-2-.9-2-2v-7h-4zM52.83 3.17A3.99 3.99 0 0 1 54 6v49a7 7 0 0 1-7 7H17a7 7 0 0 1-7-7V32c0-.53.21-1.04.59-1.41L18 23.18V6.01c0-1.1.45-2.11 1.17-2.83A3.99 3.99 0 0 1 22 2.01h28c1.1 0 2.11.45 2.83 1.17zM42 46H23v12h19z" />
</svg>
