<svg
  xmlns="http://www.w3.org/2000/svg"
  width="64"
  height="64"
  viewBox="0 0 64 64"
  fill="black"
  fill-rule="nonzero"
>
  <path d="M5 12a7 7 0 1 1 14 0c0 1.2-.31 2.34-.84 3.33l8.33 8.33A9.934 9.934 0 0 1 32 22c.41 0 .81.02 1.2.07l3.11-9.34c-.2-.15-.38-.32-.56-.49A6.003 6.003 0 0 1 33.99 8c0-1.66.67-3.16 1.76-4.24A6.003 6.003 0 0 1 39.99 2c1.66 0 3.16.67 4.24 1.76A6.003 6.003 0 0 1 45.99 8c0 1.66-.67 3.16-1.76 4.24A5.992 5.992 0 0 1 40.1 14l-3.11 9.34a10.082 10.082 0 0 1 3.6 3.55L48 24.31c0-.1-.01-.21-.01-.31a7 7 0 1 1 1.32 4.09l-7.41 2.58a9.984 9.984 0 0 1-2.01 7.46l5.91 6.9A8.957 8.957 0 0 1 49.99 44c2.48 0 4.74 1.01 6.36 2.64A8.972 8.972 0 0 1 58.99 53c0 2.48-1.01 4.74-2.64 6.36A8.972 8.972 0 0 1 49.99 62c-2.48 0-4.74-1.01-6.36-2.64A8.972 8.972 0 0 1 40.99 53c0-2.01.66-3.87 1.77-5.36l-5.91-6.9c-1.44.8-3.1 1.26-4.86 1.26-2.3 0-4.42-.78-6.11-2.08l-8.72 7.53a8.014 8.014 0 0 1-1.51 9.21A7.973 7.973 0 0 1 9.99 59c-2.21 0-4.21-.9-5.66-2.34A7.973 7.973 0 0 1 1.99 51c0-2.21.9-4.21 2.34-5.66A7.973 7.973 0 0 1 9.99 43c1.69 0 3.26.53 4.56 1.42l8.72-7.53A10.01 10.01 0 0 1 21.99 32c0-2.04.61-3.93 1.66-5.51l-8.33-8.33c-.99.54-2.13.84-3.33.84a7 7 0 0 1-7-7zm4.88 2.12c.55.55 1.29.88 2.12.88.83 0 1.58-.33 2.12-.88.55-.55.88-1.29.88-2.12 0-.83-.33-1.58-.88-2.12C13.57 9.33 12.83 9 12 9c-.83 0-1.58.33-2.12.88C9.33 10.43 9 11.17 9 12c0 .83.33 1.58.88 2.12zm28.71-4.71a2 2 0 0 0 .67.44c.04.01.08.02.12.04.04.01.07.03.11.04.17.04.34.07.52.07.55 0 1.05-.22 1.41-.59.36-.36.59-.86.59-1.41 0-.55-.22-1.05-.59-1.41-.36-.36-.86-.59-1.41-.59-.55 0-1.05.22-1.41.59-.36.36-.59.86-.59 1.41 0 .55.22 1.05.59 1.41zm14.29 16.71c.55.55 1.29.88 2.12.88.83 0 1.58-.33 2.12-.88.55-.55.88-1.29.88-2.12 0-.83-.33-1.58-.88-2.12-.55-.55-1.29-.88-2.12-.88-.83 0-1.58.33-2.12.88-.55.55-.88 1.29-.88 2.12 0 .31.05.61.13.89.01.03.03.06.04.1l.03.1c.15.39.38.74.68 1.04zm-6.42 30.42c.91.91 2.15 1.46 3.54 1.46 1.38 0 2.63-.56 3.54-1.46.91-.91 1.46-2.15 1.46-3.54 0-1.38-.56-2.63-1.46-3.54A4.962 4.962 0 0 0 50 48c-1.19 0-2.28.41-3.14 1.11-.03.03-.07.07-.11.1-.04.03-.07.06-.11.09-.06.05-.12.11-.17.17-.91.91-1.46 2.15-1.46 3.54 0 1.38.56 2.63 1.46 3.54zM7.17 53.83C7.9 54.56 8.89 55 10 55s2.1-.45 2.83-1.17C13.56 53.1 14 52.11 14 51c0-.97-.35-1.86-.92-2.56-.02-.02-.03-.04-.05-.06-.02-.02-.03-.04-.05-.06-.05-.05-.1-.11-.15-.16A3.966 3.966 0 0 0 10 46.99c-1.11 0-2.1.45-2.83 1.17-.73.73-1.17 1.72-1.17 2.83s.45 2.1 1.17 2.83zm20.59-17.59A5.98 5.98 0 0 0 32 38c1.47 0 2.82-.53 3.87-1.41.01-.01.03-.02.04-.04.01-.01.02-.02.04-.03.1-.09.2-.18.3-.28a5.98 5.98 0 0 0 1.47-6.08c-.02-.05-.04-.09-.05-.14a.737.737 0 0 1-.04-.14c-.3-.81-.78-1.53-1.38-2.13a5.962 5.962 0 0 0-2.28-1.43c-.02-.01-.04-.01-.07-.02-.02-.01-.04-.01-.06-.02-.58-.19-1.19-.28-1.83-.28-1.66 0-3.15.67-4.24 1.76A5.98 5.98 0 0 0 26.01 32c0 1.47.52 2.81 1.4 3.85.02.02.04.05.07.07.02.02.04.05.06.07.08.08.15.17.23.25z" />
</svg>
