<svg
  xmlns="http://www.w3.org/2000/svg"
  width="64"
  height="64"
  viewBox="0 0 64 64"
  fill="black"
  fill-rule="nonzero"
>
  <path d="M32 46c-2.76 0-5.26-1.12-7.07-2.93A9.969 9.969 0 0 1 22 36V12c0-2.76 1.12-5.26 2.93-7.07A9.969 9.969 0 0 1 32 2c2.76 0 5.26 1.12 7.07 2.93A9.969 9.969 0 0 1 42 12v24c0 2.76-1.12 5.26-2.93 7.07A9.969 9.969 0 0 1 32 46zm4.24-5.76A5.98 5.98 0 0 0 38 36V12c0-1.66-.67-3.15-1.76-4.24A5.98 5.98 0 0 0 32 6c-1.66 0-3.15.67-4.24 1.76A5.98 5.98 0 0 0 26 12v24c0 1.66.67 3.15 1.76 4.24A5.98 5.98 0 0 0 32 42c1.66 0 3.15-.67 4.24-1.76zM48 26c1.1 0 2 .9 2 2v8c0 4.97-2.02 9.47-5.27 12.73-2.81 2.81-6.56 4.7-10.73 5.16V58h6c1.1 0 2 .9 2 2s-.9 2-2 2H24c-1.1 0-2-.9-2-2s.9-2 2-2h6v-4.11c-4.17-.46-7.92-2.35-10.73-5.16A17.941 17.941 0 0 1 14 36v-8c0-1.1.9-2 2-2s2 .9 2 2v8c0 3.87 1.56 7.36 4.1 9.9 2.54 2.54 6.03 4.1 9.9 4.1s7.36-1.56 9.9-4.1c2.54-2.54 4.1-6.03 4.1-9.9v-8c0-1.1.9-2 2-2z" />
</svg>
