<!-- Generated by IcoMoon.io -->
<svg version="1.1" xmlns="http://www.w3.org/2000/svg" width="32" height="32" viewBox="0 0 32 32">
<title>migration</title>
<path d="M13.289 21.325c-0.484 0.023-0.857 0.44-0.857 0.925v3.401c0 0.316-0.166 0.609-0.437 0.772l-1.745 1.047c-0.6 0.36-1.364-0.072-1.364-0.772v-21.396c0-0.7 0.764-1.132 1.364-0.772l1.745 1.047c0.271 0.163 0.437 0.456 0.437 0.772v3.401c0 0.485 0.373 0.902 0.857 0.925 0.517 0.024 0.944-0.388 0.944-0.899v-3.936c0-0.629-0.335-1.221-0.874-1.544l-3.795-2.277c-0.28-0.168-0.6-0.257-0.927-0.257h-1.529c-0.046 0-0.091 0.005-0.135 0.011h-1.599c-1.989 0-3.602 1.613-3.602 3.602v21.252c0 1.989 1.613 3.602 3.602 3.602h1.598c0.044 0.007 0.089 0.011 0.135 0.011h1.529c0.326 0 0.647-0.089 0.927-0.257l3.795-2.277c0.539-0.324 0.874-0.915 0.874-1.544v-3.936c0-0.512-0.427-0.924-0.944-0.899zM7.085 27.526c0 0.497-0.403 0.9-0.9 0.9h-0.811c-0.995 0-1.801-0.806-1.801-1.801v-21.252c0-0.995 0.806-1.801 1.801-1.801h0.811c0.497 0 0.9 0.403 0.9 0.9v23.052z"></path>
<path d="M26.626 1.772h-1.599c-0.044-0.007-0.089-0.011-0.135-0.011h-1.529c-0.326 0-0.647 0.089-0.927 0.257l-3.795 2.277c-0.539 0.323-0.874 0.915-0.874 1.544v3.911c0 0.485 0.373 0.902 0.857 0.925 0.517 0.024 0.944-0.388 0.944-0.899v-3.426c0-0.316 0.166-0.609 0.437-0.772l1.745-1.047c0.6-0.36 1.364 0.072 1.364 0.772v21.396c0 0.7-0.764 1.132-1.364 0.772l-1.745-1.047c-0.271-0.163-0.437-0.456-0.437-0.772v-3.401c0-0.485-0.373-0.902-0.857-0.925-0.517-0.024-0.944 0.388-0.944 0.899v3.936c0 0.629 0.335 1.221 0.874 1.544l3.795 2.277c0.28 0.168 0.6 0.257 0.927 0.257h1.529c0.046 0 0.091-0.005 0.135-0.011h1.598c1.989 0 3.602-1.613 3.602-3.602v-21.252c-0-1.989-1.613-3.602-3.602-3.602zM28.427 26.626c0 0.995-0.806 1.801-1.801 1.801h-0.811c-0.497 0-0.9-0.403-0.9-0.9v-23.052c0-0.497 0.403-0.9 0.9-0.9h0.811c0.995 0 1.801 0.806 1.801 1.801v21.252z"></path>
<path d="M21.816 16.72c0.027-0.018 0.053-0.038 0.078-0.060 0.007-0.006 0.014-0.012 0.020-0.019 0.017-0.016 0.034-0.032 0.050-0.049 0.007-0.008 0.015-0.016 0.022-0.024 0.016-0.018 0.031-0.037 0.045-0.056 0.005-0.007 0.010-0.013 0.015-0.020 0.019-0.027 0.036-0.055 0.052-0.084 0-0.001 0.001-0.002 0.001-0.003 0.015-0.028 0.028-0.056 0.039-0.086 0.003-0.007 0.006-0.015 0.008-0.023 0.009-0.023 0.016-0.047 0.023-0.071 0.003-0.009 0.005-0.018 0.007-0.027 0.006-0.024 0.010-0.048 0.014-0.073 0.001-0.009 0.003-0.018 0.004-0.027 0.004-0.033 0.006-0.066 0.006-0.1s-0.002-0.067-0.006-0.1c-0.001-0.009-0.003-0.018-0.004-0.027-0.004-0.025-0.008-0.049-0.014-0.073-0.002-0.009-0.005-0.018-0.007-0.027-0.007-0.024-0.014-0.048-0.023-0.071-0.003-0.008-0.005-0.015-0.008-0.023-0.012-0.029-0.025-0.058-0.039-0.086-0-0.001-0.001-0.002-0.001-0.003-0.016-0.029-0.033-0.057-0.052-0.084-0.005-0.007-0.010-0.013-0.015-0.020-0.014-0.019-0.029-0.038-0.045-0.056-0.007-0.008-0.014-0.016-0.022-0.024-0.016-0.017-0.033-0.033-0.050-0.049-0.007-0.006-0.013-0.013-0.020-0.019-0.025-0.021-0.051-0.041-0.078-0.060-0-0-0-0-0.001-0.001l-5.311-3.541c-0.397-0.264-0.944-0.181-1.215 0.211-0.277 0.399-0.171 0.946 0.231 1.214l2.575 1.717c0.114 0.076 0.060 0.254-0.077 0.254h-7.325c-0.477 0-0.886 0.373-0.894 0.85-0.009 0.486 0.382 0.882 0.866 0.882h7.354c0.137 0 0.191 0.178 0.077 0.254l-2.575 1.717c-0.398 0.265-0.505 0.803-0.24 1.201 0.167 0.25 0.441 0.386 0.721 0.386 0.165 0 0.332-0.047 0.479-0.146l5.335-3.557c0 0 0.001-0 0.001-0z"></path>
</svg>
