<!-- Generated by IcoMoon.io -->
<svg version="1.1" xmlns="http://www.w3.org/2000/svg" width="32" height="32" viewBox="0 0 32 32">
<title>mobile-theme</title>
<path d="M26.667 7.619v16.762c0 1.262-1.023 2.286-2.286 2.286h-16.762c-1.262 0-2.286-1.023-2.286-2.286v-13.714c0-1.262 1.023-2.286 2.286-2.286l6.855 0c0.001 0 0.001-0 0.002-0 0.421 0 0.762 0.341 0.762 0.762s-0.341 0.762-0.762 0.762h-6.857c-0.421 0-0.762 0.341-0.762 0.762v13.714c0 0.421 0.341 0.762 0.762 0.762h16.762c0.421 0 0.762-0.341 0.762-0.762v-16.762c0-0.421-0.341-0.762-0.762-0.762h-18.286c-0.42 0-0.761-0.341-0.761-0.761s0.341-0.761 0.761-0.761l18.286-0.001c1.262 0 2.286 1.023 2.286 2.286zM16 11.429h-6.095c-0.421 0-0.762 0.341-0.762 0.762v10.667c0 0.421 0.341 0.762 0.762 0.762h6.095c0.421 0 0.762-0.341 0.762-0.762v-10.667c0-0.421-0.341-0.762-0.762-0.762zM15.238 22.095h-4.572v-9.143l4.572 0v9.143zM18.23 19.048h3.865c0.421 0 0.762-0.341 0.762-0.762v-6.095c0-0.421-0.341-0.762-0.762-0.762h-3.87c-0.421 0-0.762 0.341-0.762 0.762v0c0 0.421 0.341 0.762 0.762 0.762h3.108l-0 4.571h-3.103c-0.423 0-0.765 0.344-0.762 0.767v0c0.003 0.419 0.343 0.756 0.762 0.756z"></path>
</svg>
