<svg
  xmlns="http://www.w3.org/2000/svg"
  width="64"
  height="64"
  viewBox="0 0 64 64"
  fill="black"
  fill-rule="nonzero"
>
  <path d="M38.13 40.38h10.63a2.1 2.1 0 0 0 2.1-2.1V21.52a2.1 2.1 0 0 0-2.1-2.09H38.12a2.1 2.1 0 1 0 0 4.19h8.55v12.57h-8.54a2.1 2.1 0 0 0 0 4.19zm-8.23 8.38H17.33V23.62H29.9zM32 19.43H15.24a2.1 2.1 0 0 0-2.1 2.09v29.34a2.1 2.1 0 0 0 2.1 2.14H32a2.1 2.1 0 0 0 2.1-2.09V21.52a2.1 2.1 0 0 0-2.1-2.09zM61.33 9v46a6.29 6.29 0 0 1-6.28 6.29H9A6.28 6.28 0 0 1 2.67 55V17.33A6.28 6.28 0 0 1 9 11.05h18.81a2.1 2.1 0 0 1 0 4.19H9a2.09 2.09 0 0 0-2.09 2.09V55A2.1 2.1 0 0 0 9 57.14h46.1A2.1 2.1 0 0 0 57.14 55V9a2.1 2.1 0 0 0-2.09-2.1H4.76a2.09 2.09 0 0 1 0-4.18h50.29A6.28 6.28 0 0 1 61.33 9z" />
</svg>
