<svg
  xmlns="http://www.w3.org/2000/svg"
  width="64"
  height="64"
  viewBox="0 0 64 64"
  fill="black"
  fill-rule="nonzero"
>
  <path d="M46 5c0 1.1-.9 2-2 2h-7c-.83 0-1.58.33-2.12.88-.55.55-.88 1.29-.88 2.12v4.11c4.17.46 7.92 2.35 10.73 5.16C47.99 22.53 50 27.03 50 32v11c0 4.97-2.02 9.47-5.27 12.73A17.941 17.941 0 0 1 32 61c-4.97 0-9.47-2.02-12.73-5.27A17.941 17.941 0 0 1 14 43V32c0-4.97 2.02-9.47 5.27-12.73 2.81-2.81 6.56-4.7 10.73-5.16V10a7 7 0 0 1 7-7h7c1.1 0 2 .9 2 2zm-4.1 47.9c2.54-2.54 4.1-6.03 4.1-9.9V32c0-3.87-1.56-7.36-4.1-9.9-2.54-2.54-6.03-4.1-9.9-4.1s-7.36 1.56-9.9 4.1C19.56 24.64 18 28.13 18 32v11c0 3.87 1.56 7.36 4.1 9.9 2.54 2.54 6.03 4.1 9.9 4.1s7.36-1.56 9.9-4.1zM32 32c-1.1 0-2-.9-2-2v-4c0-1.1.9-2 2-2s2 .9 2 2v4c0 1.1-.9 2-2 2z" />
</svg>
