<!-- Generated by IcoMoon.io -->
<svg version="1.1" xmlns="http://www.w3.org/2000/svg" width="32" height="32" viewBox="0 0 32 32">
<title>mouse</title>
<path d="M19.512 7.113h-1.461c-0.698 0-1.133-0.762-0.774-1.361 0.465-0.775 1.313-1.295 2.28-1.295h1.753c0.485 0 0.902-0.373 0.925-0.857 0.024-0.517-0.388-0.944-0.899-0.944h-1.779c-2.202 0-4.036 1.605-4.394 3.706-0.073 0.431-0.438 0.751-0.875 0.751h-1.8c-1.989 0-3.602 1.613-3.602 3.602v11.515c0 3.929 3.185 7.113 7.113 7.113h0.001c3.929 0 7.113-3.185 7.113-7.113v-11.515c0-1.989-1.613-3.602-3.602-3.602zM21.313 22.23c0 2.946-2.411 5.34-5.364 5.312-2.925-0.028-5.261-2.455-5.261-5.38v-11.448c0-0.995 0.806-1.801 1.801-1.801h1.711c0.497 0 0.9 0.403 0.9 0.9v0.632c0 0.258-0.101 0.51-0.293 0.684-0.359 0.325-0.585 0.795-0.585 1.318v1.482c0 0.523 0.226 0.993 0.585 1.318 0.192 0.174 0.293 0.425 0.293 0.684v0.937c0 0.485 0.373 0.902 0.857 0.925 0.517 0.024 0.944-0.388 0.944-0.899v-0.962c0-0.258 0.101-0.51 0.293-0.684 0.359-0.325 0.585-0.795 0.585-1.318v-1.482c0-0.523-0.226-0.993-0.585-1.318-0.192-0.174-0.293-0.425-0.293-0.684v-0.632c0-0.497 0.403-0.9 0.9-0.9h1.711c0.995 0 1.801 0.806 1.801 1.801v11.515z"></path>
</svg>
