<!-- Generated by IcoMoon.io -->
<svg version="1.1" xmlns="http://www.w3.org/2000/svg" width="32" height="32" viewBox="0 0 32 32">
<title>net</title>
<path d="M30.104 16.847c-0.027-0.099-0.058-0.196-0.093-0.292-0.060-0.163-0.131-0.321-0.213-0.472-0.192-0.353-0.441-0.669-0.736-0.937-0.126-0.115-0.261-0.221-0.403-0.317-0.568-0.383-1.252-0.607-1.989-0.607v0c-0.713 0-1.376 0.21-1.932 0.571-0.039 0.025-0.077 0.051-0.114 0.077-0.099 0.070-0.194 0.144-0.285 0.223-0.063 0.055-0.125 0.111-0.183 0.17-0.081 0.081-0.157 0.165-0.23 0.253-0.036 0.044-0.071 0.089-0.106 0.134-0.068 0.091-0.132 0.186-0.192 0.284-0.030 0.049-0.058 0.099-0.086 0.149-0.026 0.048-0.065 0.135-0.106 0.235-0.14 0.338-0.468 0.56-0.833 0.56h-2.537c-0.366 0-0.694-0.222-0.833-0.56-0.041-0.1-0.080-0.187-0.106-0.235-0.027-0.050-0.056-0.1-0.086-0.149-0.059-0.098-0.123-0.193-0.192-0.284-0.034-0.046-0.069-0.090-0.106-0.134-0.073-0.088-0.149-0.172-0.23-0.253-0.059-0.059-0.121-0.115-0.183-0.17-0.091-0.079-0.186-0.154-0.285-0.223-0.038-0.027-0.076-0.052-0.114-0.077-0.19-0.123-0.392-0.229-0.605-0.315-0.258-0.104-0.427-0.353-0.427-0.631v-2.808c0-0.278 0.169-0.527 0.427-0.631 0.212-0.086 0.415-0.191 0.605-0.315 0.039-0.025 0.077-0.051 0.114-0.077 0.099-0.070 0.194-0.144 0.285-0.223 0.041-0.036 0.081-0.072 0.12-0.109 0.041-0.039 0.081-0.079 0.121-0.121 0.059-0.062 0.117-0.126 0.172-0.192 0.036-0.044 0.071-0.089 0.106-0.134 0.068-0.091 0.132-0.186 0.192-0.284 0.030-0.049 0.058-0.099 0.086-0.149 0.082-0.151 0.154-0.309 0.213-0.472 0.035-0.095 0.066-0.193 0.093-0.292 0.080-0.297 0.123-0.609 0.123-0.931v0c0-0.184-0.014-0.365-0.041-0.542-0.018-0.118-0.042-0.234-0.071-0.347s-0.064-0.225-0.104-0.334-0.085-0.215-0.135-0.319c-0.050-0.104-0.105-0.205-0.164-0.302s-0.123-0.192-0.192-0.284c-0.034-0.046-0.069-0.090-0.106-0.134-0.073-0.088-0.149-0.172-0.23-0.253s-0.165-0.157-0.253-0.23c-0.044-0.036-0.089-0.071-0.134-0.106-0.091-0.068-0.186-0.132-0.284-0.192-0.202-0.123-0.416-0.226-0.642-0.306-0.376-0.135-0.78-0.208-1.203-0.208v0 0c-0.913 0-1.745 0.344-2.374 0.909-0.008 0.007-0.015 0.013-0.023 0.020-0.712 0.65-1.16 1.587-1.16 2.627v0c0 1.496 0.923 2.776 2.231 3.301 0.257 0.103 0.425 0.353 0.425 0.63v2.807c0 0.28-0.173 0.528-0.432 0.633-0.855 0.346-1.544 1.014-1.918 1.854-0.146 0.328-0.467 0.544-0.827 0.544h-2.526c-0.366 0-0.694-0.222-0.833-0.56-0.041-0.1-0.080-0.187-0.106-0.235-0.192-0.353-0.441-0.669-0.736-0.937-0.126-0.115-0.261-0.221-0.403-0.317-0.568-0.383-1.252-0.607-1.989-0.607v0c-0.737 0-1.421 0.224-1.989 0.607-0.142 0.096-0.277 0.202-0.403 0.317-0.295 0.268-0.544 0.585-0.736 0.937-0.082 0.151-0.154 0.309-0.213 0.472-0.035 0.095-0.066 0.193-0.093 0.292-0.080 0.297-0.123 0.609-0.123 0.931v0c0 0.123 0.006 0.244 0.018 0.364s0.030 0.237 0.054 0.353c0.024 0.116 0.053 0.229 0.088 0.341 0.017 0.056 0.036 0.111 0.056 0.165 0.060 0.163 0.131 0.321 0.213 0.472 0.027 0.050 0.056 0.1 0.086 0.149 0.059 0.098 0.123 0.192 0.192 0.284 0.102 0.137 0.214 0.266 0.335 0.387 0.080 0.081 0.165 0.157 0.253 0.23 0.615 0.507 1.403 0.812 2.263 0.812v0 0c0.269 0 0.53-0.030 0.782-0.086 0.151-0.034 0.298-0.077 0.441-0.13 0.123-0.045 0.242-0.096 0.358-0.154 0.039-0.019 0.077-0.039 0.115-0.060 0.202-0.11 0.391-0.238 0.567-0.383 0.088-0.073 0.172-0.149 0.253-0.23 0.121-0.121 0.233-0.25 0.335-0.387 0.068-0.091 0.132-0.186 0.192-0.284 0.030-0.049 0.058-0.099 0.086-0.149 0.024-0.045 0.062-0.133 0.104-0.235 0.138-0.339 0.468-0.56 0.834-0.56h2.528c0.355 0 0.678 0.208 0.822 0.533 0.201 0.456 0.495 0.862 0.858 1.194 0.008 0.007 0.015 0.014 0.023 0.020 0.63 0.565 1.462 0.909 2.374 0.909v0 0c0.422 0 0.827-0.073 1.202-0.208 0.225-0.081 0.44-0.184 0.642-0.306 0.098-0.059 0.192-0.123 0.284-0.192 0.046-0.034 0.090-0.069 0.134-0.106 0.088-0.073 0.172-0.149 0.253-0.23s0.157-0.165 0.23-0.253c0.036-0.044 0.071-0.089 0.106-0.134 0.068-0.091 0.132-0.186 0.192-0.284 0.030-0.049 0.058-0.099 0.086-0.149 0.024-0.045 0.062-0.132 0.103-0.233 0.137-0.339 0.467-0.561 0.833-0.561 0.702-0 1.841-0 2.543 0 0.366 0 0.696 0.222 0.833 0.561 0.041 0.101 0.079 0.189 0.103 0.233 0.027 0.050 0.056 0.1 0.086 0.149 0.059 0.098 0.123 0.192 0.192 0.284 0.034 0.046 0.069 0.090 0.106 0.134 0.073 0.088 0.149 0.172 0.23 0.253s0.165 0.157 0.253 0.23c0.044 0.036 0.089 0.071 0.134 0.106 0.091 0.068 0.186 0.132 0.284 0.192 0.202 0.123 0.416 0.226 0.642 0.306 0.376 0.135 0.78 0.208 1.203 0.208v0 0 0c0.269 0 0.53-0.030 0.782-0.086 0.151-0.034 0.298-0.077 0.441-0.13 0.123-0.045 0.242-0.096 0.358-0.154 0.039-0.019 0.077-0.039 0.115-0.060 0.202-0.11 0.391-0.238 0.567-0.383 0.088-0.073 0.172-0.149 0.253-0.23 0.121-0.121 0.233-0.25 0.335-0.387 0.068-0.091 0.132-0.186 0.192-0.284 0.030-0.049 0.058-0.099 0.086-0.149 0.082-0.151 0.154-0.309 0.213-0.472 0.020-0.054 0.039-0.11 0.056-0.165 0.035-0.111 0.064-0.225 0.088-0.341s0.042-0.234 0.054-0.353c0.012-0.12 0.018-0.241 0.018-0.364v0c0-0.323-0.043-0.635-0.123-0.932zM7.085 17.778c0 0.329-0.091 0.637-0.249 0.9-0.307 0.512-0.868 0.856-1.507 0.856-0.852 0-1.564-0.61-1.723-1.416-0.022-0.11-0.033-0.224-0.033-0.34s0.012-0.23 0.033-0.34c0.159-0.806 0.871-1.416 1.723-1.416 0.639 0 1.2 0.344 1.507 0.856 0.158 0.263 0.249 0.571 0.249 0.9v0zM15.136 8.635c-0.758-0.431-1.167-1.408-0.682-2.393 0.148-0.301 0.397-0.545 0.7-0.69 1.309-0.629 2.602 0.315 2.602 1.556 0 0.654-0.36 1.226-0.892 1.528-0.255 0.145-0.55 0.228-0.864 0.228s-0.609-0.083-0.864-0.228zM17.756 17.778c0 0.329-0.091 0.637-0.249 0.9-0.307 0.512-0.868 0.856-1.507 0.856s-1.2-0.344-1.507-0.856c-0.158-0.263-0.249-0.572-0.249-0.9s0.091-0.637 0.249-0.9c0.149-0.249 0.358-0.457 0.606-0.606 0.263-0.158 0.572-0.249 0.9-0.249v0c0.329 0 0.637 0.091 0.9 0.249 0.249 0.149 0.457 0.358 0.606 0.606 0.158 0.263 0.249 0.571 0.249 0.9v0zM28.393 18.119c-0.159 0.806-0.871 1.416-1.723 1.416-0.639 0-1.2-0.344-1.507-0.856-0.158-0.263-0.249-0.572-0.249-0.9s0.091-0.637 0.249-0.9c0.307-0.512 0.868-0.856 1.507-0.856 0.852 0 1.564 0.61 1.723 1.416 0.022 0.11 0.033 0.224 0.033 0.34s-0.012 0.23-0.033 0.34z"></path>
</svg>
