<svg
  xmlns="http://www.w3.org/2000/svg"
  width="64"
  height="64"
  viewBox="0 0 64 64"
  fill="black"
  fill-rule="nonzero"
>
  <path d="M2 32c0-8.28 3.36-15.79 8.79-21.21C16.22 5.36 23.72 2 32 2c8.28 0 15.79 3.36 21.21 8.79C58.64 16.22 62 23.72 62 32c0 .91-.04 1.81-.12 2.7 0 .09-.01.19-.03.28a29.865 29.865 0 0 1-7.27 16.76c-.09.14-.2.26-.33.37-.34.38-.69.74-1.05 1.1C47.77 58.64 40.27 62 31.99 62c-8.28 0-15.79-3.36-21.21-8.79C5.35 47.78 1.99 40.28 1.99 32zm31.51 3.65c3.77-1.54 7.73-2.61 11.79-3.18.1-.25.23-.49.38-.71-1.33-2.49-2.9-4.85-4.66-7.04a46.945 46.945 0 0 0-3.41-3.77 4.009 4.009 0 0 1-2.5-.42 45.055 45.055 0 0 0-10.51 9.72 3.996 3.996 0 0 1-.12 3.75c.79.89 1.62 1.75 2.49 2.57.6-.36 1.3-.56 2.04-.56.82 0 1.58.25 2.21.66.76-.36 1.53-.69 2.31-1.01zM58 32.37V32c0-6.99-2.76-13.34-7.25-18.02-3.42.72-6.68 1.81-9.75 3.24-.02.42-.11.82-.26 1.2 1.2 1.2 2.33 2.47 3.4 3.79 1.96 2.42 3.68 5.03 5.15 7.79.99.07 1.89.5 2.55 1.16.25.25.46.53.64.84 1.84.02 3.68.13 5.53.36zm-37.25 3.62a44.438 44.438 0 0 0-4.53 11.59c2.64-2.83 5.58-5.31 8.75-7.41l-.3-.27a49.455 49.455 0 0 1-3.76-3.9c-.05 0-.1 0-.16-.01zM32 6c-2.87 0-5.64.47-8.22 1.33 4.06 1.58 7.84 3.67 11.26 6.19.58-.33 1.25-.51 1.96-.51.81 0 1.56.24 2.19.65 2.5-1.17 5.11-2.14 7.82-2.88a25.843 25.843 0 0 0-15.02-4.77zm-18.02 7.25c1.13 5.39 3.21 10.4 6.04 14.87a3.906 3.906 0 0 1 1.23-.11c.9-1.16 1.84-2.27 2.84-3.34 2.65-2.85 5.64-5.39 8.91-7.54v-.12-.02a44.92 44.92 0 0 0-14.48-7.22c-1.64 1-3.16 2.17-4.53 3.49zM6 32c0 6.27 2.22 12.03 5.92 16.52a49.112 49.112 0 0 1 5.49-14.75 4.007 4.007 0 0 1-.28-2.77c-2.8-4.24-4.97-8.96-6.35-14.02A25.843 25.843 0 0 0 6.01 32zm26 26c6.27 0 12.03-2.22 16.52-5.92a48.92 48.92 0 0 1-18.88-8.13 4.072 4.072 0 0 1-2.51-.41 45.239 45.239 0 0 0-10.37 9.53C21.04 56.17 26.3 58 31.99 58zm25.64-21.65a43.04 43.04 0 0 0-5.18-.34c-.1.17-.2.32-.32.47 1.01 2.82 1.76 5.74 2.25 8.76 1.59-2.69 2.71-5.69 3.25-8.88zm-22.61 3.01c-.69.28-1.36.58-2.04.89-.02.36-.09.7-.2 1.03 5.3 3.59 11.4 6.08 17.98 7.15-.37-3.62-1.17-7.13-2.35-10.46-.87-.13-1.66-.54-2.25-1.13-.12-.12-.24-.25-.34-.39-3.72.52-7.35 1.5-10.8 2.92z" />
</svg>
