<svg
  xmlns="http://www.w3.org/2000/svg"
  width="64"
  height="64"
  viewBox="0 0 64 64"
  fill="black"
  fill-rule="nonzero"
>
  <path d="M6 52c0-1.66.67-3.16 1.76-4.24.59-.59 1.31-1.06 2.1-1.36L8.14 25.71A6.003 6.003 0 0 1 4 20.01c0-1.66.67-3.16 1.76-4.24A6.003 6.003 0 0 1 10 14.01c1.66 0 3.16.67 4.24 1.76.23.23.44.48.63.74l8.2-7.46A6.003 6.003 0 0 1 28.99 4c1.66 0 3.16.67 4.24 1.76.84.84 1.43 1.92 1.65 3.13l14.03 9.9c.24-.38.52-.72.83-1.04a6.003 6.003 0 0 1 4.24-1.76c1.66 0 3.16.67 4.24 1.76a6.003 6.003 0 0 1 1.76 4.24c0 1.66-.67 3.16-1.76 4.24-.72.72-1.62 1.26-2.63 1.54l-5.18 20.74c.68.3 1.29.73 1.81 1.24a6.003 6.003 0 0 1 1.76 4.24c0 1.66-.67 3.16-1.76 4.24a6.003 6.003 0 0 1-4.24 1.76c-1.66 0-3.16-.67-4.24-1.76a6.062 6.062 0 0 1-1.46-2.36l-24.69-1.76a6.007 6.007 0 0 1-5.61 3.88c-1.66 0-3.16-.67-4.24-1.76a6.003 6.003 0 0 1-1.76-4.24zm10.24-4.24c.24.24.46.5.66.78L38.25 29.7l-2.43-6.48-8.94-.5-12.01 24.01c.51.28.97.62 1.37 1.03zm-.62-25.67a5.991 5.991 0 0 1-3.48 3.51l1.26 15.12 9.12-18.25zm17.03-7.33c-.68.52-1.48.9-2.34 1.09l-1.48 2.96 5.46.3zm-7.89-.52c-.23-.23-.44-.48-.63-.74l-5.25 4.77 5.6.31 1.65-3.31c-.51-.28-.97-.62-1.37-1.03zM10.59 53.41c.36.36.86.59 1.41.59.55 0 1.05-.22 1.41-.59.36-.36.58-.85.59-1.4v-.03c0-.55-.22-1.04-.59-1.4-.36-.36-.85-.58-1.4-.59h-.03c-.55 0-1.04.23-1.4.59-.36.36-.59.86-.59 1.41 0 .55.22 1.05.59 1.41zm-2-32c.36.36.85.58 1.4.59h.03c.55 0 1.04-.23 1.4-.59.36-.36.58-.85.59-1.4v-.03c0-.55-.22-1.04-.59-1.4-.36-.36-.86-.59-1.41-.59-.55 0-1.05.22-1.41.59-.36.36-.59.86-.59 1.41 0 .55.22 1.05.59 1.41zm19-10c.36.36.84.58 1.39.59h.06c.54-.01 1.03-.23 1.38-.59.36-.36.58-.85.59-1.4v-.03c0-.55-.23-1.04-.59-1.4-.36-.36-.86-.59-1.41-.59-.55 0-1.05.22-1.41.59-.36.36-.58.86-.59 1.41V10c0 .55.22 1.05.59 1.41zm22.17 14.83c-.24-.24-.46-.5-.66-.78l-6.14 5.41 4.65 12.41 3.95-15.8c-.68-.3-1.29-.73-1.81-1.24zm2.83-2.83c.36.36.84.58 1.38.59h.06c.54-.01 1.03-.23 1.38-.59.36-.36.59-.86.59-1.41 0-.55-.22-1.05-.59-1.41-.36-.36-.86-.59-1.41-.59-.55 0-1.05.22-1.41.59-.36.36-.58.85-.59 1.4v.02c0 .55.22 1.04.59 1.4zm-8.83 26.35c.46-.46 1-.85 1.59-1.14l-5.59-14.91L20.9 50.35l21.49 1.53c.3-.8.78-1.53 1.37-2.12zm2.83 5.65c.36.36.86.59 1.41.59.55 0 1.05-.22 1.41-.59.36-.36.59-.86.59-1.41 0-.55-.22-1.05-.59-1.41-.36-.36-.86-.58-1.41-.59h-.01c-.55 0-1.04.22-1.41.59-.36.36-.58.85-.59 1.4v.03c0 .55.22 1.04.59 1.4zm-9.44-40.03l1.49 3.99 4.51.25zm4.31 11.49l3.56-3.14-4.84-.27z" />
</svg>
