<svg
  xmlns="http://www.w3.org/2000/svg"
  width="64"
  height="64"
  viewBox="0 0 64 64"
  fill="black"
  fill-rule="nonzero"
>
  <path d="M5.34 32V18.19a.19.19 0 0 1 0-.08 1.54 1.54 0 0 1 .92-1.4Q18.19 9.84 30.1 2.94a1.55 1.55 0 0 1 .9-.27 1.64 1.64 0 0 1 .9.27l23.84 13.81a1.53 1.53 0 0 1 .85 1.37v27.81a1.48 1.48 0 0 1-.86 1.35L32 61a1.89 1.89 0 0 1-1 .31 1.76 1.76 0 0 1-1-.31Q18.1 54.15 6.27 47.33A1.54 1.54 0 0 1 5.42 46v-.12c-.06-4.59-.08-9.21-.08-13.83zM39 37l-.51-.62c-4.72-5.63-9.42-11.22-14.12-16.87A6.18 6.18 0 0 0 20 17.19a4.58 4.58 0 0 0-.55 0 3.72 3.72 0 0 0-3.72 3.71V43.13a4.6 4.6 0 0 0 .15 1.18 3.36 3.36 0 0 0 6.6-.9V26.87a5.33 5.33 0 0 0 .52.62l14.2 17a5.85 5.85 0 0 0 4.47 2.07h.51a3.53 3.53 0 0 0 3.53-3.52v-.25c-.11-1.61 0-3.22 0-4.82V21v-.41-.44a3.13 3.13 0 0 0-2-2.77A3.35 3.35 0 0 0 39 20.5V37z" />
</svg>
