<!-- Generated by IcoMoon.io -->
<svg version="1.1" xmlns="http://www.w3.org/2000/svg" width="32" height="32" viewBox="0 0 32 32">
<title>nginx</title>
<path d="M19.88 18.41l-0.25-0.3c-2.29-2.73-4.57-5.44-6.85-8.18-0.508-0.633-1.259-1.053-2.11-1.119l-0.010-0.001c-0.082-0.013-0.176-0.021-0.271-0.021-0.994 0-1.8 0.806-1.8 1.8 0 0.025 0.001 0.050 0.002 0.074l-0-0.004c0 3.58 0 7.15 0 10.72-0 0.005-0 0.011-0 0.017 0 0.197 0.026 0.387 0.074 0.569l-0.003-0.015c0.198 0.693 0.826 1.192 1.57 1.192 0.9 0 1.63-0.73 1.63-1.63 0-0.001 0-0.001 0-0.002v0-8c0.079 0.111 0.161 0.209 0.25 0.3l-0-0 6.89 8.26c0.524 0.615 1.3 1.003 2.166 1.003 0.047 0 0.094-0.001 0.141-0.003l-0.007 0c0.034 0.002 0.074 0.004 0.114 0.004 0.944 0 1.71-0.766 1.71-1.71 0-0.040-0.001-0.080-0.004-0.119l0 0.005c-0.050-0.78 0-1.56 0-2.34v-8.24c0.005-0.060 0.007-0.13 0.007-0.2s-0.003-0.14-0.008-0.209l0.001 0.009c-0.031-0.622-0.434-1.143-0.989-1.347l-0.011-0.003c-0.183-0.078-0.397-0.123-0.62-0.123-0.895 0-1.62 0.725-1.62 1.62 0 0.012 0 0.024 0 0.035l-0-0.002v8zM3.55 16c0-2.24 0-4.46 0-6.7-0.001-0.012-0.001-0.025-0.001-0.039 0-0.304 0.184-0.566 0.446-0.679l0.005-0.002q5.78-3.33 11.56-6.68c0.121-0.082 0.27-0.131 0.43-0.131s0.309 0.049 0.433 0.133l-0.003-0.002 11.58 6.7c0.245 0.124 0.411 0.374 0.411 0.663 0 0.013-0 0.026-0.001 0.039l0-0.002q0 6.7 0 13.42c0.001 0.010 0.001 0.023 0.001 0.035 0 0.289-0.17 0.539-0.416 0.653l-0.004 0.002-11.5 6.66c-0.14 0.096-0.313 0.154-0.5 0.154s-0.36-0.057-0.503-0.156l0.003 0.002q-5.75-3.33-11.49-6.64c-0.246-0.124-0.412-0.374-0.412-0.663 0-0.020 0.001-0.040 0.002-0.059l-0 0.003c-0.030-2.23-0.040-4.47-0.040-6.71z"></path>
</svg>
