<svg
  xmlns="http://www.w3.org/2000/svg"
  width="64"
  height="64"
  viewBox="0 0 64 64"
  fill="black"
  fill-rule="nonzero"
>
  <path d="M45 26c0-1.1.9-2 2-2h6.17l-7.59-7.59c-3.5-3.49-7.94-5.6-12.59-6.23A21.989 21.989 0 0 0 9.82 23.31 21.957 21.957 0 0 0 8.7 37.32a22 22 0 0 0 34.2 12.52c3.81-2.74 6.74-6.7 8.18-11.42a2 2 0 0 1 2.5-1.33 2 2 0 0 1 1.33 2.5 25.954 25.954 0 0 1-9.67 13.5 25.979 25.979 0 0 1-15.87 4.9 25.92 25.92 0 0 1-15.59-5.71A26.004 26.004 0 0 1 4.82 38.3a25.89 25.89 0 0 1 1.33-16.55c2.18-5.09 5.99-9.49 11.07-12.37a25.972 25.972 0 0 1 16.3-3.15c5.49.74 10.75 3.24 14.88 7.36l7.59 7.59v-6.17c0-1.1.9-2 2-2s2 .9 2 2v11a1.994 1.994 0 0 1-.58 1.42c-.19.19-.41.34-.65.43-.24.1-.49.15-.77.15h-11c-1.1 0-2-.9-2-2zm-5 16c-1.1 0-2-.9-2-2v-4h-7c-.7 0-1.36-.37-1.72-.97a1.98 1.98 0 0 1-.04-1.97l7-13c.52-.97 1.74-1.34 2.71-.81.97.52 1.34 1.74.81 2.71l-5.41 10.05H38v-3c0-1.1.9-2 2-2s2 .9 2 2v3h2c1.1 0 2 .9 2 2s-.9 2-2 2h-2v4c0 1.1-.9 2-2 2zm-10-2c0 1.1-.9 2-2 2H16c-1.1 0-2-.9-2-2 0-3.28 4.35-6.26 6.8-8.1 3.55-2.66 5.2-4.18 5.2-4.9 0-1.11-.45-2.1-1.17-2.83A3.966 3.966 0 0 0 22 23c-1.11 0-2.1.45-2.83 1.17C18.44 24.9 18 25.89 18 27c0 1.1-.9 2-2 2s-2-.9-2-2c0-2.21.9-4.21 2.34-5.66A7.973 7.973 0 0 1 22 19c2.21 0 4.21.9 5.66 2.34A7.973 7.973 0 0 1 30 27c0 3.28-4.35 6.26-6.8 8.1-1.58 1.18-2.78 2.14-3.63 2.9H28c1.1 0 2 .9 2 2z" />
</svg>
