<svg
  xmlns="http://www.w3.org/2000/svg"
  width="64"
  height="64"
  viewBox="0 0 64 64"
  fill="black"
  fill-rule="nonzero"
>
  <path d="M13 9h38a7 7 0 0 1 7 7v25h2c1.1 0 2 .9 2 2v5a7 7 0 0 1-7 7H9a7 7 0 0 1-7-7v-5c0-1.1.9-2 2-2h2V16a7 7 0 0 1 7-7zm-2.12 4.88c-.55.55-.88 1.29-.88 2.12v25h44V16c0-.83-.33-1.58-.88-2.12-.55-.55-1.29-.88-2.12-.88H13c-.83 0-1.58.33-2.12.88zM58 45H42v1c0 1.1-.9 2-2 2H24c-1.1 0-2-.9-2-2v-1H6v3c0 .83.33 1.58.88 2.12.55.55 1.29.88 2.12.88h46c.83 0 1.58-.33 2.12-.88.55-.55.88-1.29.88-2.12zm-18-4z" />
</svg>
