<svg
  xmlns="http://www.w3.org/2000/svg"
  width="64"
  height="64"
  viewBox="0 0 64 64"
  fill="black"
  fill-rule="nonzero"
>
  <path d="M50.28 45.56a6.3 6.3 0 0 0 .37-2.13v-.38a21.48 21.48 0 0 0-.37-3.64v.14a3 3 0 0 0-2.2-2.33c-1.53-.48-3.07-.91-4.58-1.41a33.37 33.37 0 0 1-3.89-1.39l.24.1A6.34 6.34 0 0 1 37 32c-.07-.13-.15-.28-.22-.44v-.26a17.52 17.52 0 0 0 10 3.95h.05a12 12 0 0 1 3.4.87h-.08a3.79 3.79 0 0 1 2.56 3.57 4.18 4.18 0 0 1-.07.72 11.09 11.09 0 0 1-2.24 5.22zm-10.94 7.49a13 13 0 0 1-6.46-5.35v-.05a27 27 0 0 0 9.93 4.62H43c-1.22.58-2.19 1.26-3.55.75zm-15.23.35l-2.52-1.07a28.58 28.58 0 0 0 10.52-4.68l-.09.06a13.17 13.17 0 0 1-7.82 5.67h-.09zM21.63 40a10.8 10.8 0 0 1 1.31 0 11.59 11.59 0 0 1 3.84.65h-.08a9.67 9.67 0 0 0-1.76-.16 10.09 10.09 0 0 0-7.32 3.14A4.13 4.13 0 0 1 21.69 40zm-8.24 1v4.68A12 12 0 0 1 11.33 40v-.34a3.73 3.73 0 0 1 2.06-3.34 9.76 9.76 0 0 1 3.75-1.05 18.4 18.4 0 0 0 6.75-1.82h-.11c1.17-.58 2.24-1.36 3.42-2.06a6 6 0 0 1-1.82 2.3 12.77 12.77 0 0 1-4.17 2h-.09c-1.51.43-3 .87-4.52 1.26a4.12 4.12 0 0 0-3.23 3.93zm9.87-24.6a7.88 7.88 0 0 1 5.67-6.18H29a9 9 0 0 0-4.12 6.28v.05a13.45 13.45 0 0 0-.11 1.75 14.46 14.46 0 0 0 .61 4.17v-.11c.19.6.35 1.2.52 1.8a11.66 11.66 0 0 1-2.61-7.38v-.39zM31.4 30c-5-3-5.81-7-1.89-11.38-2.13 4.74-1.78 7.3 1.89 11.38zm-.74-16.86c.56-.68 1.26-.56 1.81.12a4.33 4.33 0 0 1 .39 1.82 4.38 4.38 0 0 1-.4 1.84 1 1 0 0 1-.92.56 1.06 1.06 0 0 1-.93-.55 3.52 3.52 0 0 1-.51-1.84 3.63 3.63 0 0 1 .56-1.93zm.47-4.39a5.06 5.06 0 0 0 .95-2.71 2.59 2.59 0 0 1 .51 1.55 2.65 2.65 0 0 1-.51 1.57 2.36 2.36 0 0 0 0 2.32s-1.94-1.2-.95-2.7zM42.2 44.31a18 18 0 0 0-5.42-1.76h-.1a18.93 18.93 0 0 0-3.48-.31 19.55 19.55 0 0 0-3.61.33h.12a77.81 77.81 0 0 0-8.22 2l.55-.14a23.47 23.47 0 0 1 10.88-3.44H33a19.36 19.36 0 0 1 9.25 3.48h-.06zm-4.12-20.08a17 17 0 0 0 3.09-6.54v-.12.64a9.41 9.41 0 0 1-3.83 7.59v-.54A8.24 8.24 0 0 0 33 18c3.93.93 4.72 2.79 5.15 6.27zm3-9a13.13 13.13 0 0 0-7.06-5.07h-.09a5.71 5.71 0 0 1 1-.09 6.19 6.19 0 0 1 6.1 5.15zM32 2.67A29.33 29.33 0 1 0 61.33 32 29.33 29.33 0 0 0 32 2.67z" />
</svg>
