<!-- Generated by IcoMoon.io -->
<svg version="1.1" xmlns="http://www.w3.org/2000/svg" width="32" height="32" viewBox="0 0 32 32">
<title>opsgenie</title>
<path d="M15.83 1.77c-7.859 0-14.23 6.371-14.23 14.23s6.371 14.23 14.23 14.23c7.859 0 14.23-6.371 14.23-14.23v0c0-7.859-6.371-14.23-14.23-14.23v0zM20.25 7.89c-0.831-1.18-2.029-2.053-3.425-2.459l-0.045-0.011c0.153-0.028 0.33-0.044 0.51-0.044 1.485 0 2.718 1.079 2.958 2.496l0.002 0.018zM18.78 12.23c0.701-0.91 1.225-1.994 1.499-3.174l0.011-0.056c0.007 0.092 0.010 0.199 0.010 0.308 0 1.51-0.731 2.849-1.858 3.684l-0.012 0.009c0.005-0.078 0.008-0.168 0.008-0.259 0-1.536-0.866-2.87-2.137-3.54l-0.022-0.011c1.91 0.45 2.29 1.35 2.5 3.040zM20.78 21.97c-0.776-0.403-1.678-0.704-2.63-0.854l-0.050-0.006c-0.508-0.098-1.093-0.154-1.69-0.154s-1.182 0.056-1.748 0.163l0.058-0.009c-1.514 0.284-2.766 0.592-3.991 0.96l0.271-0.070c1.516-0.942 3.331-1.547 5.277-1.668l0.033-0.002c1.687 0.18 3.207 0.779 4.489 1.69l-0.029-0.020zM15.41 4.74c0.265-0.368 0.434-0.822 0.46-1.314l0-0.006c0.154 0.209 0.246 0.471 0.246 0.755s-0.092 0.546-0.249 0.759l0.002-0.004c-0.092 0.161-0.147 0.354-0.147 0.56s0.055 0.399 0.15 0.566l-0.003-0.006s-0.94-0.58-0.46-1.31zM15.18 6.87c0.27-0.33 0.61-0.27 0.88 0.060 0.118 0.259 0.187 0.561 0.187 0.88s-0.069 0.621-0.193 0.894l0.006-0.014c-0.088 0.162-0.256 0.27-0.45 0.27s-0.362-0.108-0.449-0.267l-0.001-0.003c-0.154-0.255-0.245-0.564-0.245-0.894 0-0.343 0.099-0.663 0.27-0.934l-0.004 0.007zM15.54 15.050c-2.42-1.45-2.82-3.38-0.92-5.52-1.030 2.28-0.86 3.52 0.92 5.52zM11.59 8.43c0.274-1.463 1.355-2.617 2.753-2.994l0.027-0.006c-1.066 0.671-1.811 1.768-1.997 3.047l-0.003 0.023c-0.032 0.254-0.051 0.548-0.051 0.847 0 0.703 0.103 1.382 0.294 2.023l-0.013-0.050c0.090 0.29 0.17 0.58 0.25 0.87-0.787-0.969-1.263-2.218-1.263-3.578 0-0.064 0.001-0.128 0.003-0.191l-0 0.009zM6.8 20.34c0 0.74 0 1.48 0 2.27-0.535-0.776-0.894-1.713-0.998-2.725l-0.002-0.025c-0.005-0.048-0.007-0.105-0.007-0.162 0-0.709 0.405-1.323 0.997-1.624l0.010-0.005c0.535-0.275 1.161-0.458 1.823-0.509l0.017-0.001c1.186-0.091 2.281-0.399 3.273-0.883l-0.053 0.023c0.57-0.28 1.090-0.66 1.66-1-0.205 0.453-0.507 0.829-0.883 1.115l-0.007 0.005c-0.589 0.438-1.28 0.781-2.026 0.989l-0.044 0.011c-0.73 0.21-1.46 0.42-2.19 0.61-0.891 0.201-1.549 0.976-1.57 1.908l-0 0.002zM10.8 19.9c0.191-0.023 0.411-0.036 0.635-0.036 0.654 0 1.281 0.112 1.864 0.318l-0.039-0.012c-0.258-0.048-0.554-0.076-0.857-0.076-1.397 0-2.658 0.585-3.551 1.523l-0.002 0.002c0.142-0.977 0.974-1.72 1.98-1.72h0zM12 26.38l-1.22-0.52c1.927-0.429 3.623-1.206 5.101-2.268l-0.041 0.028c-0.875 1.358-2.218 2.349-3.796 2.75l-0.044 0.009zM19.39 26.21c-1.334-0.514-2.419-1.428-3.134-2.593l-0.016-0.027c1.389 1.038 3.035 1.821 4.82 2.242l0.090 0.018c-0.59 0.28-1.060 0.61-1.72 0.36zM24.7 22.58c0.111-0.309 0.175-0.665 0.175-1.036 0-0.061-0.002-0.122-0.005-0.182l0 0.008c-0.013-0.61-0.074-1.196-0.18-1.767l0.010 0.067c-0.119-0.554-0.535-0.986-1.070-1.128l-0.010-0.002c-0.74-0.23-1.49-0.44-2.22-0.68-0.726-0.216-1.314-0.43-1.886-0.674l0.116 0.044c-0.589-0.26-1.065-0.685-1.382-1.216l-0.008-0.014c-0.034-0.061-0.071-0.137-0.104-0.214l-0.006-0.016s0-0.060 0-0.11c1.325 1.090 3.005 1.793 4.844 1.919l0.026 0.001c0.596 0.066 1.14 0.21 1.649 0.424l-0.039-0.014c0.728 0.253 1.241 0.933 1.241 1.733 0 0.119-0.011 0.236-0.033 0.349l0.002-0.012c-0.147 0.965-0.53 1.82-1.089 2.532l0.009-0.012z"></path>
</svg>
