<!-- Generated by IcoMoon.io -->
<svg version="1.1" xmlns="http://www.w3.org/2000/svg" width="32" height="32" viewBox="0 0 32 32">
<title>orchestrator</title>
<path d="M26.93 2c-1.813 0.006-3.28 1.476-3.28 3.29 0 1.817 1.473 3.29 3.29 3.29s3.29-1.473 3.29-3.29v0c0 0 0 0 0 0 0-1.817-1.473-3.29-3.29-3.29-0.003 0-0.007 0-0.011 0h0.001zM14.26 10.62c-3.833 0-6.94 3.107-6.94 6.94s3.107 6.94 6.94 6.94c3.833 0 6.94-3.107 6.94-6.94v0c0-3.833-3.107-6.94-6.94-6.94v0zM26.76 17.56c0 0.003 0 0.006 0 0.010 0 6.904-5.596 12.5-12.5 12.5s-12.5-5.596-12.5-12.5c0-6.904 5.596-12.5 12.5-12.5v0c6.9 0 12.494 5.591 12.5 12.489v0.001z"></path>
</svg>
