<svg
  xmlns="http://www.w3.org/2000/svg"
  width="64"
  height="64"
  viewBox="0 0 64 64"
  fill="black"
  fill-rule="nonzero"
>
  <path d="M2 32c0-8.28 3.36-15.79 8.79-21.21C16.22 5.36 23.72 2 32 2c8.28 0 15.79 3.36 21.21 8.79C58.64 16.22 62 23.72 62 32c0 8.28-3.36 15.79-8.79 21.21C47.78 58.64 40.28 62 32 62c-8.28 0-15.79-3.36-21.21-8.79C5.36 47.78 2 40.28 2 32zm11.62 18.38C18.33 55.09 24.82 58 32 58s13.68-2.91 18.38-7.62C55.09 45.67 58 39.18 58 32s-2.91-13.68-7.62-18.38C45.67 8.91 39.18 6 32 6s-13.68 2.91-18.38 7.62C8.91 18.33 6 24.82 6 32s2.91 13.68 7.62 18.38zM36 32a1.994 1.994 0 0 1 .58-1.42l8-8c.78-.78 2.05-.78 2.83 0 .78.78.78 2.05 0 2.83L42.82 30h10.17c1.1 0 2 .9 2 2s-.9 2-2 2H42.82l4.59 4.59c.78.78.78 2.05 0 2.83-.78.78-2.05.78-2.83 0l-8-8c-.19-.19-.34-.41-.43-.65-.1-.24-.15-.49-.15-.77zm-8 0a1.994 1.994 0 0 1-.58 1.42l-8 8c-.78.78-2.05.78-2.83 0-.78-.78-.78-2.05 0-2.83L21.18 34H11.01c-1.1 0-2-.9-2-2s.9-2 2-2h10.17l-4.59-4.59c-.78-.78-.78-2.05 0-2.83.78-.78 2.05-.78 2.83 0l8 8c.19.19.34.41.43.65.1.24.15.49.15.77zm4 23a1.994 1.994 0 0 1-1.42-.58l-8-8c-.78-.78-.78-2.05 0-2.83.78-.78 2.05-.78 2.83 0L30 48.18V38.01c0-1.1.9-2 2-2s2 .9 2 2v10.17l4.59-4.59c.78-.78 2.05-.78 2.83 0 .78.78.78 2.05 0 2.83l-8 8c-.19.19-.41.34-.65.43-.24.1-.49.15-.77.15zm0-46a1.994 1.994 0 0 1 1.42.58l8 8c.78.78.78 2.05 0 2.83-.78.78-2.05.78-2.83 0L34 15.82v10.17c0 1.1-.9 2-2 2s-2-.9-2-2V15.82l-4.59 4.59c-.78.78-2.05.78-2.83 0-.78-.78-.78-2.05 0-2.83l8-8c.19-.19.41-.34.65-.43.24-.1.49-.15.77-.15z" />
</svg>
