<!-- Generated by IcoMoon.io -->
<svg version="1.1" xmlns="http://www.w3.org/2000/svg" width="32" height="32" viewBox="0 0 32 32">
<title>orient</title>
<path d="M28.451 15.878c-0.002-0.017-0.004-0.033-0.004-0.050-0.091-6.738-5.536-12.183-12.274-12.275-0.017-0-0.033-0.002-0.050-0.004-0.040-0.006-0.081-0.009-0.123-0.009s-0.083 0.004-0.123 0.009c-0.017 0.002-0.033 0.004-0.050 0.004-6.739 0.092-12.183 5.536-12.274 12.274-0 0.017-0.002 0.033-0.004 0.050-0.006 0.040-0.009 0.081-0.009 0.123s0.004 0.082 0.009 0.123c0.002 0.017 0.004 0.033 0.004 0.050 0.092 6.738 5.536 12.183 12.274 12.275 0.017 0 0.033 0.002 0.050 0.004 0.040 0.006 0.081 0.009 0.123 0.009s0.082-0.004 0.123-0.009c0.017-0.002 0.033-0.004 0.050-0.004 6.739-0.092 12.183-5.536 12.275-12.275 0-0.017 0.002-0.033 0.004-0.050 0.006-0.040 0.009-0.081 0.009-0.122s-0.003-0.082-0.009-0.123zM26.561 17.364c-0.296 2.327-1.346 4.479-3.032 6.165s-3.838 2.736-6.165 3.032c-0.247 0.031-0.464-0.164-0.464-0.413v-2.41c0-0.119-0.051-0.231-0.139-0.311-0.768-0.698-1.662-0.166-1.662 0.575v2.146c0 0.249-0.217 0.444-0.464 0.413-2.327-0.296-4.479-1.346-6.165-3.032s-2.736-3.838-3.032-6.165c-0.031-0.247 0.164-0.464 0.413-0.464h2.41c0.119 0 0.231-0.051 0.311-0.139 0.698-0.768 0.166-1.662-0.575-1.662h-2.146c-0.249 0-0.444-0.217-0.413-0.464 0.296-2.327 1.346-4.479 3.032-6.165s3.838-2.736 6.165-3.032c0.247-0.031 0.464 0.164 0.464 0.413v2.409c0 0.119 0.051 0.231 0.139 0.311 0.768 0.698 1.662 0.166 1.662-0.575v-2.146c0-0.249 0.217-0.444 0.464-0.413 2.327 0.296 4.479 1.346 6.165 3.032s2.736 3.838 3.032 6.165c0.031 0.247-0.164 0.464-0.413 0.464h-2.41c-0.119 0-0.231 0.051-0.311 0.139-0.698 0.768-0.166 1.662 0.575 1.662h2.146c0.249 0 0.444 0.217 0.413 0.464z"></path>
<path d="M21.135 10.481l-6.254 4.17c-0.091 0.061-0.17 0.139-0.23 0.23l-4.17 6.254c-0.168 0.252 0.132 0.552 0.384 0.384l6.254-4.17c0.091-0.061 0.17-0.139 0.23-0.23l4.17-6.254c0.168-0.252-0.132-0.552-0.384-0.384zM16 16.889c-0.491 0-0.889-0.398-0.889-0.889s0.398-0.889 0.889-0.889 0.889 0.398 0.889 0.889c0 0.491-0.398 0.889-0.889 0.889z"></path>
</svg>
