<svg
  xmlns="http://www.w3.org/2000/svg"
  width="64"
  height="64"
  viewBox="0 0 64 64"
  fill="black"
  fill-rule="nonzero"
>
  <path d="M11.05 39.05A7 7 0 0 1 22.71 42h2.58a7 7 0 0 1 13.42 0h2.58a7 7 0 0 1 13.42 0H58c1.1 0 2 .9 2 2s-.9 2-2 2h-3.29a7 7 0 0 1-13.42 0h-2.58a7 7 0 0 1-13.42 0h-2.58a7 7 0 0 1-13.42 0H6c-1.1 0-2-.9-2-2s.9-2 2-2h3.29c.34-1.13.95-2.14 1.76-2.95zm2.83 7.07c.55.55 1.29.88 2.12.88.83 0 1.58-.33 2.12-.88.55-.55.88-1.29.88-2.12 0-.83-.33-1.58-.88-2.12-.55-.55-1.29-.88-2.12-.88-.83 0-1.58.33-2.12.88-.55.55-.88 1.29-.88 2.12 0 .83.33 1.58.88 2.12zm16 0c.55.55 1.29.88 2.12.88.83 0 1.58-.33 2.12-.88.55-.55.88-1.29.88-2.12 0-.83-.33-1.58-.88-2.12-.55-.55-1.29-.88-2.12-.88-.83 0-1.58.33-2.12.88-.55.55-.88 1.29-.88 2.12 0 .83.33 1.58.88 2.12zm16 0c.55.55 1.29.88 2.12.88.83 0 1.58-.33 2.12-.88.55-.55.88-1.29.88-2.12 0-.83-.33-1.58-.88-2.12-.55-.55-1.29-.88-2.12-.88-.83 0-1.58.33-2.12.88-.55.55-.88 1.29-.88 2.12 0 .83.33 1.58.88 2.12zM58 23a1.994 1.994 0 0 1-.58 1.42l-8 8c-.78.78-2.05.78-2.83 0-.78-.78-.78-2.05 0-2.83L51.18 25H26.01c-1.1 0-2-.9-2-2s.9-2 2-2h25.17l-4.59-4.59c-.78-.78-.78-2.05 0-2.83.78-.78 2.05-.78 2.83 0l8 8c.19.19.34.41.43.65.1.24.15.49.15.77zm-37 0c0 1.1-.9 2-2 2h-3c-1.1 0-2-.9-2-2s.9-2 2-2h3c1.1 0 2 .9 2 2zm-10 0c0 1.1-.9 2-2 2H8c-1.1 0-2-.9-2-2s.9-2 2-2h1c1.1 0 2 .9 2 2z" />
</svg>
