<svg
  xmlns="http://www.w3.org/2000/svg"
  width="64"
  height="64"
  viewBox="0 0 64 64"
  fill="black"
  fill-rule="nonzero"
>
  <path d="M2.67 23.1a63.82 63.82 0 0 1 24.84-10.8l.41-.07A61.22 61.22 0 0 1 40.06 11v.14l-4.25 4h1.6a80.44 80.44 0 0 0 12-1.81l-.54.11a25.57 25.57 0 0 0 9.23-3.69H58A24.76 24.76 0 0 0 60.1 8a4.41 4.41 0 0 1-.22.85A22.87 22.87 0 0 1 54 18.58a32.89 32.89 0 0 1-6.59 4.59l-.18.08a74.28 74.28 0 0 1-13.81 5.79l-.55.14c-3.24 1-6.57 1.81-9.85 2.67h-.17a.93.93 0 0 1-.55-.18 31.8 31.8 0 0 0-8.37-5.46l-.2-.08a32.79 32.79 0 0 0-10.91-2.92h-.13zm23.86 13a31.21 31.21 0 0 0-2.07-2.48 104 104 0 0 1 30.9-4.52q3 0 6 .17h-.27a1.67 1.67 0 0 0-.92.18c-2.53.82-5.11 1.54-7.6 2.5a167.54 167.54 0 0 0-20.85 10.2l.81-.43c-.41.23-.86.39-1.25.64s-.66.22-1-.25q-1.8-3-3.75-5.89zm7.84 18.46h-.19a33.78 33.78 0 0 0-2.4-9.41l.08.22L51 37.22a.16.16 0 0 0 .12.14c-5.55 5.74-11.05 11.49-16.75 17.25z" />
</svg>
