<!-- Generated by IcoMoon.io -->
<svg version="1.1" xmlns="http://www.w3.org/2000/svg" width="32" height="32" viewBox="0 0 32 32">
<title>papertrail</title>
<path d="M17.22 27.36h-0.090c-0.181-1.657-0.58-3.173-1.17-4.589l0.040 0.109 9.33-4s0 0.050 0.060 0.070c-2.71 2.8-5.39 5.6-8.17 8.41zM13.4 18.36c-0.333-0.445-0.661-0.836-1.008-1.209l0.008 0.009c4.504-1.418 9.684-2.234 15.054-2.234 0.977 0 1.947 0.027 2.91 0.080l-0.134-0.006c-0.15 0-0.3 0-0.45 0.090-1.23 0.4-2.49 0.75-3.7 1.22-3.867 1.585-7.079 3.181-10.165 4.971l0.395-0.211c-0.2 0.11-0.42 0.19-0.61 0.31s-0.32 0.11-0.47-0.12q-0.88-1.46-1.83-2.87zM1.77 12c3.484-2.518 7.625-4.368 12.109-5.266l0.201-0.034c1.776-0.372 3.819-0.59 5.913-0.6l0.007-0c-0.002 0.011-0.002 0.023-0.002 0.035s0.001 0.024 0.003 0.036l-0-0.001-2.070 1.93c0.32 0 0.55 0 0.78 0 2.087-0.159 4-0.453 5.862-0.881l-0.262 0.051c1.682-0.322 3.177-0.939 4.498-1.799l-0.048 0.029c0.35-0.25 0.65-0.55 1-0.86-0.022 0.15-0.057 0.285-0.105 0.414l0.005-0.014c-0.574 1.876-1.573 3.479-2.887 4.758l-0.003 0.002c-0.96 0.864-2.044 1.622-3.213 2.238l-0.087 0.042c-1.991 1.094-4.31 2.076-6.733 2.82l-0.267 0.070c-1.58 0.49-3.2 0.88-4.8 1.3-0.026 0.005-0.055 0.008-0.085 0.008-0.1 0-0.192-0.033-0.266-0.089l0.001 0.001c-1.195-1.079-2.575-1.985-4.081-2.66l-0.099-0.040c-1.564-0.742-3.381-1.254-5.294-1.435l-0.066-0.005z"></path>
</svg>
