<svg
  xmlns="http://www.w3.org/2000/svg"
  width="64"
  height="64"
  viewBox="0 0 64 64"
  fill="black"
  fill-rule="nonzero"
>
  <path d="M32.1 26.91a5.23 5.23 0 0 1 5.21 5.22 5.24 5.24 0 1 1-5.23-5.24zM32 19a2.09 2.09 0 1 0 2.09 2.09A2.1 2.1 0 0 0 32 19zm-6 .26a2 2 0 1 0 2 2 2 2 0 0 0-2-2zm-6.78 1.21A1.83 1.83 0 1 0 21 22.3a1.83 1.83 0 0 0-1.81-1.83zm-6.28 1.93a1.69 1.69 0 1 0 1.7 1.69 1.69 1.69 0 0 0-1.7-1.69zm-5.67 2.92a1.56 1.56 0 1 0 1.56 1.56 1.56 1.56 0 0 0-1.56-1.56zm-3.18 5.36a1.43 1.43 0 1 0 1.42 1.43 1.42 1.42 0 0 0-1.42-1.43zm3.3 5.46a1.29 1.29 0 1 0 1.28 1.29 1.29 1.29 0 0 0-1.28-1.29zm5.65 3a1.16 1.16 0 1 0 1.15 1.15A1.15 1.15 0 0 0 13 39.15zM19.26 41a1 1 0 1 0 1 1 1 1 0 0 0-1-1zm7.17 1.56a.88.88 0 1 0 .88.88.87.87 0 0 0-.88-.92zm5.64-.16a.82.82 0 0 0-.81.82.82.82 0 0 0 1.63 0 .82.82 0 0 0-.82-.86zm4-21.14a2 2 0 1 0 2-2 2 2 0 0 0-2 1.96zM43 22.3a1.83 1.83 0 1 0 1.83-1.83A1.83 1.83 0 0 0 43 22.3zm6.38 1.79a1.7 1.7 0 1 0 1.7-1.69 1.69 1.69 0 0 0-1.72 1.69zm5.81 2.79a1.56 1.56 0 1 0 1.56-1.56 1.56 1.56 0 0 0-1.58 1.56zm3.32 5.23a1.42 1.42 0 1 0 1.42-1.43 1.42 1.42 0 0 0-1.44 1.43zm-3.16 5.32a1.29 1.29 0 1 0 1.29-1.29 1.29 1.29 0 0 0-1.31 1.29zm-5.54 2.87A1.15 1.15 0 1 0 51 39.15a1.16 1.16 0 0 0-1.19 1.15zM43.73 42a1 1 0 1 0 1-1 1 1 0 0 0-1 1zm-6.63 1.18a.89.89 0 1 0 .9-.88.88.88 0 0 0-.9.88zM43 25.45a2.09 2.09 0 1 0-.81 2.84 2.1 2.1 0 0 0 .81-2.84zM35.46 15a1.83 1.83 0 1 0-.71 2.48 1.83 1.83 0 0 0 .71-2.48zm-4.72-4.52a1.7 1.7 0 0 0-2.31-.66 1.69 1.69 0 0 0 1.65 3 1.7 1.7 0 0 0 .66-2.37zM25.42 6.9a1.56 1.56 0 1 0-.6 2.1 1.54 1.54 0 0 0 .6-2.1zm-6.23-.17a1.42 1.42 0 1 0-.55 1.93 1.42 1.42 0 0 0 .55-1.93zM16 12.26a1.29 1.29 0 1 0-.5 1.75 1.29 1.29 0 0 0 .5-1.75zm.11 6.4a1.15 1.15 0 0 0-2 1.12 1.15 1.15 0 1 0 2-1.12zM17.58 25a1 1 0 0 0-1.78 1 1 1 0 1 0 1.78-1zm5 11.89a.81.81 0 1 0-1.42.78.81.81 0 0 0 1.42-.78zM43 30.08a2 2 0 1 0 2.67.77 2 2 0 0 0-2.67-.77zm2.42 6.57a1.83 1.83 0 1 0 2.49.71 1.84 1.84 0 0 0-2.5-.71zm1.53 6.45a1.69 1.69 0 1 0 2.3.66 1.7 1.7 0 0 0-2.31-.66zm.39 6.44a1.56 1.56 0 1 0 2.11.6 1.55 1.55 0 0 0-2.12-.6zm-3 5.43a1.42 1.42 0 1 0 1.93.55 1.43 1.43 0 0 0-1.9-.52zm-6.19-.18a1.29 1.29 0 1 0 1.75.5 1.29 1.29 0 0 0-1.72-.5zm-4.85-3.34a1.15 1.15 0 1 0 1.57.45 1.15 1.15 0 0 0-1.54-.45zm-4.76-4.59a1 1 0 1 0 1.39.39 1 1 0 0 0-1.36-.39zm-4.42-5.57a.88.88 0 0 0 .88 1.54.86.86 0 0 0 .34-1.19.88.88 0 0 0-1.19-.35zM20.73 26a2.09 2.09 0 1 0 2.8-1 2.09 2.09 0 0 0-2.8 1zm-2.42 5.52a2 2 0 1 0 2.63-.9 2 2 0 0 0-2.63.94zm-1.91 6.66a1.83 1.83 0 1 0 2.45-.83 1.83 1.83 0 0 0-2.45.83zm-1 6.46a1.7 1.7 0 0 0 3 1.49 1.7 1.7 0 0 0-3-1.49zm.11 6.36a1.56 1.56 0 1 0 2.08-.71 1.56 1.56 0 0 0-2.08.71zm3.41 5.22a1.42 1.42 0 1 0 1.91-.65 1.42 1.42 0 0 0-1.91.67zm6.35-.56A1.29 1.29 0 1 0 27 55.1a1.3 1.3 0 0 0-1.73.58zM30 52a1.15 1.15 0 1 0 1.54-.53A1.15 1.15 0 0 0 30 52zm4.81-4.81a1 1 0 1 0 1.82.9 1 1 0 0 0-1.82-.9zM39 41.67a.88.88 0 1 0 1.58.78.88.88 0 1 0-1.58-.78zm2.73-5.41a.81.81 0 1 0 1.09-.37.81.81 0 0 0-1.08.37zm-13.2-18.63a1.83 1.83 0 1 0-.84-2.45 1.84 1.84 0 0 0 .84 2.45zM33 12.69a1.69 1.69 0 1 0-.77-2.26 1.7 1.7 0 0 0 .77 2.26zm5-3.99a1.55 1.55 0 1 0-.71-2.08A1.55 1.55 0 0 0 38 8.7zm6.17-.7a1.42 1.42 0 1 0-.65-1.9 1.41 1.41 0 0 0 .65 1.9zm3.39 5.19a1.29 1.29 0 1 0 1.13-2.31 1.27 1.27 0 0 0-1.72.58 1.29 1.29 0 0 0 .59 1.76zm.14 6.21a1.15 1.15 0 1 0 1-2.06 1.15 1.15 0 0 0-1 2.06zm-1.18 6.2a1 1 0 1 0-.47-1.36 1 1 0 0 0 .47 1.39z" />
</svg>
