<svg
  xmlns="http://www.w3.org/2000/svg"
  width="64"
  height="64"
  viewBox="0 0 64 64"
  fill="black"
  fill-rule="nonzero"
>
  <path d="M31.89 25.81A5.16 5.16 0 1 0 37 31a5.16 5.16 0 0 0-5.13-5.14zM45 8.44A1.63 1.63 0 0 1 44.17 7a1.72 1.72 0 0 1 .21-.82 1.67 1.67 0 0 1 1.45-.85 1.74 1.74 0 0 1 .69.14 1.66 1.66 0 0 1 .6 2.28 1.64 1.64 0 0 1-1.43.83h-.09a1.58 1.58 0 0 1-.69-.15H45zM38.16 8a1.49 1.49 0 0 1-.16-.73 1.62 1.62 0 0 1 1-1.49 1.72 1.72 0 0 1 2.23.83 1.66 1.66 0 0 1 .13.64 1.68 1.68 0 0 1-1.08 1.57 1.88 1.88 0 0 1-.68.15 1.7 1.7 0 0 1-1.39-1V8zM33 11.85a1.67 1.67 0 0 1 .19-2.36 1.66 1.66 0 0 1 2.34.2 1.62 1.62 0 0 1 .47 1.09 1.6 1.6 0 0 1-.6 1.25 1.65 1.65 0 0 1-1.08.4 1.58 1.58 0 0 1-1.32-.58zm13.84.73v-.16a1.69 1.69 0 0 1 1.48-1.68h.19a1.69 1.69 0 0 1 1.67 1.48 1.27 1.27 0 0 1 0 .2 1.65 1.65 0 0 1-1.51 1.64h-.16a1.69 1.69 0 0 1-1.68-1.47zm-18.2 3.9a1.65 1.65 0 0 1-.58-1.26 1.69 1.69 0 0 1 .41-1.1 1.73 1.73 0 0 1 1.27-.56 1.7 1.7 0 0 1 1.11.42 1.68 1.68 0 0 1 .57 1.26 1.71 1.71 0 0 1-.4 1.1 1.7 1.7 0 0 1-1.25.56 1.63 1.63 0 0 1-1.09-.42zm19.21 3.88a1.66 1.66 0 0 1-1.39-1.64 1.63 1.63 0 0 1 0-.31 1.66 1.66 0 0 1 1.7-1.41 1.74 1.74 0 0 1 .45.06A1.68 1.68 0 0 1 50 18.71a1.63 1.63 0 0 1 0 .31 1.66 1.66 0 0 1-1.63 1.38H48zm-23 1.24a1.69 1.69 0 0 1-.7-1.38 1.65 1.65 0 0 1 .31-1 1.68 1.68 0 0 1 2.34-.4 1.66 1.66 0 0 1 .7 1.36 1.6 1.6 0 0 1-.31 1 1.67 1.67 0 0 1-1.36.71 2 2 0 0 1-1-.3zm21.21 4.76A1.69 1.69 0 0 1 45 24.78a1.77 1.77 0 0 1 .08-.52 1.65 1.65 0 0 1 1.56-1.13 1.61 1.61 0 0 1 .54.09 1.68 1.68 0 0 1 1.12 1.58 1.77 1.77 0 0 1-.08.52 1.68 1.68 0 0 1-1.59 1.15h-.22a2 2 0 0 1-.35 0zm-24.42.56a1.66 1.66 0 0 1-.86-1.46 1.7 1.7 0 0 1 .19-.78 1.66 1.66 0 0 1 1.44-.83 1.58 1.58 0 0 1 .84.23 1.63 1.63 0 0 1 .85 1.43 1.54 1.54 0 0 1-.25.85 1.65 1.65 0 0 1-1.44.83h-.1a1.54 1.54 0 0 1-.74-.2zm18.83 10.81a1.64 1.64 0 0 1-.83-1.43 1.74 1.74 0 0 1 .23-.85 1.65 1.65 0 0 1 1.44-.85 1.58 1.58 0 0 1 .84.23 1.68 1.68 0 0 1 .63 2.29 1.74 1.74 0 0 1-1.48.88h-.16a1.91 1.91 0 0 1-.68-.13zm-23.82.86a1.73 1.73 0 0 1-1-2.1 1.67 1.67 0 0 1 1.58-1.12 1.82 1.82 0 0 1 .52.08A1.65 1.65 0 0 1 18.83 37a1.91 1.91 0 0 1-.09.54 1.66 1.66 0 0 1-1.56 1.14h.1-.23a2.71 2.71 0 0 1-.41 0zm-1.35 6.26a1.65 1.65 0 0 1-1.37-1.62 1.84 1.84 0 0 1 0-.33 1.65 1.65 0 0 1 1.63-1.36h.3a1.64 1.64 0 0 1 1.42 1.63 2.45 2.45 0 0 1 0 .27 1.66 1.66 0 0 1-1.64 1.38h-.34zM32.85 48a1.71 1.71 0 0 1-.58-1.27 1.66 1.66 0 0 1 .46-1.16A1.68 1.68 0 0 1 34 45a1.66 1.66 0 0 1 1.11.42 1.64 1.64 0 0 1 .55 1.24 1.66 1.66 0 0 1-.43 1.12 1.62 1.62 0 0 1-1.23.57 1.65 1.65 0 0 1-1.08-.4zm-19.24 1.74a1.09 1.09 0 0 1 0-.18 1.67 1.67 0 0 1 1.46-1.66h.2a1.64 1.64 0 0 1 1.64 1.49 1.1 1.1 0 0 1 0 .18 1.67 1.67 0 0 1-1.47 1.66h-.26a1.67 1.67 0 0 1-1.58-1.47zm14.61 2.48a1.64 1.64 0 0 1 .21-2.33 1.57 1.57 0 0 1 1.08-.41 1.63 1.63 0 0 1 1.26.59 1.67 1.67 0 0 1-.19 2.36 1.77 1.77 0 0 1-1.08.4 1.64 1.64 0 0 1-1.28-.61zm-5.53 3.07a1.64 1.64 0 0 1-.15-.67 1.67 1.67 0 0 1 1-1.52 1.63 1.63 0 0 1 .59-.11 1.68 1.68 0 0 1 1.5.93 1.57 1.57 0 0 1 .14.67 1.67 1.67 0 0 1-1 1.53 1.55 1.55 0 0 1-.65.14 1.65 1.65 0 0 1-1.42-1zm-5.41 1.09a1.66 1.66 0 0 1-.85-1.44 1.58 1.58 0 0 1 .23-.84 1.71 1.71 0 0 1 1.46-.84 1.69 1.69 0 0 1 .83.22 1.64 1.64 0 0 1 .85 1.44 1.6 1.6 0 0 1-.23.84 1.65 1.65 0 0 1-1.45.86 1.64 1.64 0 0 1-.82-.24zm-.69-48.54a1.65 1.65 0 0 1 .68-2.27 1.69 1.69 0 0 1 2.29.58 1.74 1.74 0 0 1 .24.85 1.69 1.69 0 0 1-.8 1.44 1.48 1.48 0 0 1-.81.23H18a1.64 1.64 0 0 1-1.43-.83zm7 .94a1.7 1.7 0 0 1-1-1.55 1.72 1.72 0 0 1 .14-.68 1.67 1.67 0 0 1 2.2-.86 1.65 1.65 0 0 1 1 1.5 1.59 1.59 0 0 1-.2.78 1.63 1.63 0 0 1-1.5 1 1.61 1.61 0 0 1-.59-.22zm4.87 3.4a1.66 1.66 0 0 1-.59-1.29 1.68 1.68 0 0 1 .38-1.07 1.66 1.66 0 0 1 2.36-.18 1.66 1.66 0 0 1 .6 1.26 1.62 1.62 0 0 1-.46 1.1 1.64 1.64 0 0 1-1.27.61 1.59 1.59 0 0 1-1.1-.61zm-13.33 2.09a1.65 1.65 0 0 1-1.49-1.64 1.48 1.48 0 0 1 0-.21 1.67 1.67 0 0 1 1.66-1.49h.17A1.68 1.68 0 0 1 17 12.61a1.09 1.09 0 0 1 0 .18 1.69 1.69 0 0 1-1.67 1.5h-.23zm17.62 2.09a1.69 1.69 0 0 1-.43-1.11 1.64 1.64 0 0 1 .57-1.25 1.63 1.63 0 0 1 1.11-.42 1.65 1.65 0 0 1 1.24.56 1.61 1.61 0 0 1 .33 1 1.66 1.66 0 0 1-.57 1.19 1.7 1.7 0 0 1-1.08.42h-.16a1.59 1.59 0 0 1-1.1-.43zM14 19.15a1.39 1.39 0 0 1 0-.3 1.68 1.68 0 0 1 1.36-1.64 1.78 1.78 0 0 1 .35 0 1.71 1.71 0 0 1 1.63 1.24 1.39 1.39 0 0 1 0 .3 1.67 1.67 0 0 1-1.38 1.64h-.34A1.66 1.66 0 0 1 14 19.06zm1.67 6.27a1.7 1.7 0 0 1-.08-.51 1.68 1.68 0 0 1 1.11-1.58 1.67 1.67 0 0 1 2.08 1 1.66 1.66 0 0 1-1 2.08 1.23 1.23 0 0 1-.28 0 1.37 1.37 0 0 1-.29 0 1.67 1.67 0 0 1-1.54-1zm24.2.87a1.64 1.64 0 0 1-.23-.83 1.66 1.66 0 0 1 .79-1.46 1.67 1.67 0 0 1 .84-.22 1.74 1.74 0 0 1 1.46.82 1.63 1.63 0 0 1 .22.83 1.67 1.67 0 0 1-.86 1.45 1.39 1.39 0 0 1-.76.23h-.06a1.66 1.66 0 0 1-1.43-.83zm-21.8 5.18a1.65 1.65 0 0 1 .81-2.21 1.57 1.57 0 0 1 .7-.15 1.68 1.68 0 0 1 1.51.95 1.74 1.74 0 0 1 .15.69 1.69 1.69 0 0 1-.95 1.52 1.63 1.63 0 0 1-.7.15 1.6 1.6 0 0 1-1.47-.95zm24.62.31a1.57 1.57 0 0 1-.16-.7 1.68 1.68 0 0 1 .94-1.5 1.64 1.64 0 0 1 .71-.15 1.68 1.68 0 0 1 1.52 1 1.7 1.7 0 0 1 .15.69 1.65 1.65 0 0 1-1 1.51 1.71 1.71 0 0 1-.69.17 1.69 1.69 0 0 1-1.52-1zM21 37.21a1.62 1.62 0 0 1-.22-.82 1.71 1.71 0 0 1 .82-1.45 1.67 1.67 0 0 1 .84-.22 1.71 1.71 0 0 1 1.45.82 1.64 1.64 0 0 1 .23.83 1.68 1.68 0 0 1-.82 1.44 1.67 1.67 0 0 1-.84.23 1.78 1.78 0 0 1-1.46-.81zm24 .38a1.71 1.71 0 0 1 1-2.09 1.57 1.57 0 0 1 .49-.07 1.71 1.71 0 0 1 1.6 1.12 1.63 1.63 0 0 1-1 2.08 1.09 1.09 0 0 1-.26 0 1.12 1.12 0 0 1-.27 0A1.69 1.69 0 0 1 45 37.52zm-20.43 5.2a1.61 1.61 0 0 1-.32-1 1.64 1.64 0 0 1 .71-1.35 1.66 1.66 0 0 1 2.34.39 1.64 1.64 0 0 1-.41 2.32 1.54 1.54 0 0 1-.94.31 1.68 1.68 0 0 1-1.36-.78zm22 .69a1.39 1.39 0 0 1 0-.3 1.67 1.67 0 0 1 1.4-1.64h.28a1.69 1.69 0 0 1 1.66 1.37 1.39 1.39 0 0 1 0 .3 1.67 1.67 0 0 1-1.38 1.64h-.3a1.72 1.72 0 0 1-1.67-1.34zM28.6 47.82a1.61 1.61 0 0 1-.38-1 1.65 1.65 0 0 1 .52-1.21 1.67 1.67 0 0 1 2.36.17 1.63 1.63 0 0 1 .42 1.1 1.68 1.68 0 0 1-.52 1.19 1.7 1.7 0 0 1-1.1.42 1.61 1.61 0 0 1-1.25-.67zm19.79 3.26a1.72 1.72 0 0 1-1.53-1.71v-.14a1.7 1.7 0 0 1 1.68-1.49h.16a1.67 1.67 0 0 1 1.53 1.66.86.86 0 0 1 0 .16 1.7 1.7 0 0 1-1.67 1.51zm-15.12 1.37a1.72 1.72 0 0 1-.59-1.3 1.7 1.7 0 0 1 .32-1.06 1.68 1.68 0 0 1 1.29-.59 1.66 1.66 0 0 1 1.09.4 1.63 1.63 0 0 1 .6 1.27 1.67 1.67 0 0 1-.39 1.07 1.69 1.69 0 0 1-1.29.6 1.55 1.55 0 0 1-1-.4zm5.81 3.72A1.7 1.7 0 0 1 38 54.6a1.83 1.83 0 0 1 .15-.7 1.67 1.67 0 0 1 1.5-.9 1.74 1.74 0 0 1 .61.11 1.69 1.69 0 0 1 1 1.53 1.58 1.58 0 0 1-.15.69 1.73 1.73 0 0 1-1.52 1 1.94 1.94 0 0 1-.64-.16h.14zm5.34-.42a1.6 1.6 0 0 1-.24-.85 1.63 1.63 0 0 1 .82-1.42 1.55 1.55 0 0 1 .86-.25 1.65 1.65 0 0 1 1.44.77 1.64 1.64 0 0 1-.53 2.29 1.56 1.56 0 0 1-.8.23h-.25a1.59 1.59 0 0 1-1.38-.81h.12zM30.06 20.09a1.67 1.67 0 0 1 1.67-1.68h.16a1.65 1.65 0 0 1 1.65 1.65 1.66 1.66 0 0 1-1.65 1.67h-.08a1.67 1.67 0 0 1-1.67-1.67h-.08zM38 22a1.66 1.66 0 0 1-1.51-1.66.86.86 0 0 1 0-.16 1.7 1.7 0 0 1 1.68-1.53h.14a1.66 1.66 0 0 1 1.51 1.66v.16A1.66 1.66 0 0 1 38.16 22H38zm6.1.86a1.69 1.69 0 0 1-1.35-1.65 1.66 1.66 0 0 1 0-.32 1.69 1.69 0 0 1 1.66-1.35 1.32 1.32 0 0 1 .34 0 1.67 1.67 0 0 1 1.35 1.64 1.55 1.55 0 0 1 0 .31 1.69 1.69 0 0 1-1.65 1.36zm-26.55-1.22a1.66 1.66 0 0 1 0-.32 1.71 1.71 0 0 1 1.32-1.66 1.37 1.37 0 0 1 .36 0 1.64 1.64 0 0 1 1.6 1.34 1.63 1.63 0 0 1-1.28 2h-.34a1.71 1.71 0 0 1-1.65-1.28zM50 24.5a1.72 1.72 0 0 1-1.09-1.6 1.69 1.69 0 0 1 .08-.5 1.69 1.69 0 0 1 1.58-1.08 1.82 1.82 0 0 1 .52.08 1.7 1.7 0 0 1 1.05 1.6 1.82 1.82 0 0 1-.08.52 1.7 1.7 0 0 1-1.6 1.11 1.66 1.66 0 0 1-.49-.11zm-38.45-.94a1.51 1.51 0 0 1-.09-.53 1.66 1.66 0 0 1 1.06-1.55 1.59 1.59 0 0 1 .5-.07 1.71 1.71 0 0 1 1.58 1.06 1.65 1.65 0 0 1 .08.51 1.71 1.71 0 0 1-1.07 1.58 1.48 1.48 0 0 1-.48.13 1.72 1.72 0 0 1-1.59-1.12zm43.69 3.49a1.73 1.73 0 0 1-.68-1.36 1.67 1.67 0 0 1 .33-1 1.66 1.66 0 0 1 1.36-.7 1.64 1.64 0 0 1 1 .32A1.67 1.67 0 0 1 58 25.7a1.65 1.65 0 0 1-.4 1.08 1.69 1.69 0 0 1-1.37.71 1.8 1.8 0 0 1-1-.37zm-49.1-.28a1.62 1.62 0 0 1-.33-1 1.63 1.63 0 0 1 .68-1.34 1.64 1.64 0 0 1 1-.33 1.68 1.68 0 0 1 1.34.68 1.62 1.62 0 0 1 .33 1 1.66 1.66 0 0 1-.68 1.34 1.59 1.59 0 0 1-1 .33 1.7 1.7 0 0 1-1.36-.68zM58 31a1.68 1.68 0 0 1 1.63-1.69 1.64 1.64 0 0 1 1.65 1.63V31a1.67 1.67 0 0 1-1.67 1.67h-.08A1.67 1.67 0 0 1 57.91 31H58zM2.67 31a1.65 1.65 0 0 1 1.65-1.65A1.7 1.7 0 0 1 6 30.91a1.7 1.7 0 0 1-1.66 1.69A1.65 1.65 0 0 1 2.67 31zm52.19 6.12a1.69 1.69 0 0 1 .35-2.34 1.7 1.7 0 0 1 1-.32 1.66 1.66 0 0 1 1.35.69 1.59 1.59 0 0 1 .33 1 1.66 1.66 0 0 1-.68 1.34 1.59 1.59 0 0 1-1 .34 1.73 1.73 0 0 1-1.36-.71zm-48.33.35a1.61 1.61 0 0 1-.68-1.31 1.57 1.57 0 0 1 .35-1 1.66 1.66 0 0 1 2.33-.37 1.64 1.64 0 0 1 .42 2.46 1.71 1.71 0 0 1-1.36.69 1.51 1.51 0 0 1-1-.44zM49 39.51a1.66 1.66 0 0 1 0-.51 1.7 1.7 0 0 1 1-1.58 1.59 1.59 0 0 1 .5-.08 1.69 1.69 0 0 1 1.58 1.09 1.65 1.65 0 0 1 .08.51 1.7 1.7 0 0 1-1.09 1.58 1.47 1.47 0 0 1-.56.1 1.68 1.68 0 0 1-1.46-1.11zm-36.43 1A1.65 1.65 0 0 1 11.51 39a1.72 1.72 0 0 1 .1-.55 1.67 1.67 0 0 1 1.55-1.1 1.63 1.63 0 0 1 .55.1A1.69 1.69 0 0 1 14.77 39a1.77 1.77 0 0 1-.08.52 1.72 1.72 0 0 1-1.58 1.1 1.86 1.86 0 0 1-.48-.1zm30.28.49a1.79 1.79 0 0 1 0-.34A1.64 1.64 0 0 1 44.16 39a1.63 1.63 0 0 1 2 1.28 1.68 1.68 0 0 1-1.3 2h-.35A1.62 1.62 0 0 1 42.9 41zM19 42.26a1.64 1.64 0 0 1-1.35-1.62 1.34 1.34 0 0 1 0-.35A1.66 1.66 0 0 1 19.27 39a1.87 1.87 0 0 1 .34 0 1.65 1.65 0 0 1 1.33 1.62 1.34 1.34 0 0 1 0 .35 1.65 1.65 0 0 1-1.61 1.36zm17.6-.58v-.13a1.7 1.7 0 0 1 1.53-1.69h.15a1.65 1.65 0 0 1 1.65 1.5v.15a1.66 1.66 0 0 1-1.48 1.66h-.17a1.66 1.66 0 0 1-1.63-1.49zm-4.66 1.8a1.67 1.67 0 0 1-1.67-1.67 1.67 1.67 0 0 1 1.67-1.67 1.67 1.67 0 1 1 0 3.34z" />
</svg>
