<!-- Generated by IcoMoon.io -->
<svg version="1.1" xmlns="http://www.w3.org/2000/svg" width="32" height="32" viewBox="0 0 32 32">
<title>particles</title>
<path d="M16 22c-0.003 0-0.006 0-0.010 0-0.442 0-0.8-0.358-0.8-0.8 0-0 0-0 0-0v0c0-0 0-0 0-0 0-0.442 0.358-0.8 0.8-0.8 0.004 0 0.007 0 0.011 0h-0.001c0.442 0 0.8 0.358 0.8 0.8v0c0 0.442-0.358 0.8-0.8 0.8v0zM18.23 21.14c-0.002-0.019-0.003-0.041-0.003-0.064 0-0.42 0.32-0.765 0.729-0.806l0.003-0c0.022-0.002 0.047-0.003 0.073-0.003 0.413 0 0.752 0.317 0.787 0.72l0 0.003c0.002 0.022 0.003 0.048 0.003 0.075 0 0.411-0.31 0.75-0.71 0.795l-0.004 0h-0.080c-0.407-0.008-0.739-0.319-0.78-0.717l-0-0.003zM9.8 21.42c-0.371-0.070-0.647-0.391-0.647-0.777 0-0.058 0.006-0.114 0.018-0.168l-0.001 0.005c0.075-0.37 0.398-0.645 0.785-0.645 0.055 0 0.108 0.006 0.16 0.016l-0.005-0.001c0.366 0.074 0.637 0.393 0.637 0.775 0 0.058-0.006 0.115-0.018 0.17l0.001-0.005c-0.068 0.369-0.386 0.646-0.77 0.65h-0zM21.25 20.79c-0.011-0.049-0.017-0.105-0.017-0.163 0-0.386 0.276-0.707 0.642-0.776l0.005-0.001c0.047-0.010 0.102-0.016 0.157-0.016 0.384 0 0.704 0.27 0.782 0.63l0.001 0.005c0.010 0.047 0.015 0.1 0.015 0.155 0 0.387-0.275 0.71-0.64 0.784l-0.005 0.001h-0.16c-0.373-0.002-0.684-0.265-0.759-0.615l-0.001-0.005zM6.76 20.59v0c-0.307-0.113-0.523-0.403-0.523-0.743 0-0.092 0.016-0.18 0.045-0.262l-0.002 0.006c0.113-0.307 0.403-0.523 0.743-0.523 0.092 0 0.18 0.016 0.262 0.044l-0.006-0.002c0.306 0.121 0.518 0.413 0.518 0.755 0 0.087-0.014 0.171-0.039 0.25l0.002-0.006c-0.122 0.309-0.415 0.524-0.759 0.53h-0.001c-0.081-0.008-0.156-0.025-0.226-0.052l0.006 0.002zM24.21 20.1c-0.024-0.073-0.038-0.157-0.038-0.245 0-0.342 0.212-0.635 0.512-0.754l0.006-0.002c0.072-0.023 0.155-0.037 0.241-0.037 0.346 0 0.641 0.216 0.757 0.521l0.002 0.006c0.023 0.072 0.037 0.155 0.037 0.241 0 0.346-0.216 0.641-0.521 0.757l-0.006 0.002c-0.080 0.032-0.173 0.050-0.27 0.050h-0c-0.325-0.027-0.593-0.242-0.698-0.534l-0.002-0.006zM3.85 19.1v0c-0.196-0.141-0.323-0.369-0.323-0.627 0-0.179 0.061-0.344 0.164-0.475l-0.001 0.002c0.145-0.202 0.379-0.332 0.644-0.332 0.175 0 0.337 0.057 0.468 0.154l-0.002-0.002c0.23 0.141 0.381 0.391 0.381 0.676 0 0.192-0.069 0.368-0.183 0.505l0.001-0.001c-0.15 0.199-0.385 0.328-0.65 0.33h-0c-0.188-0.008-0.356-0.087-0.48-0.21v0zM27 18.93c-0.095-0.131-0.153-0.295-0.153-0.473 0-0.263 0.126-0.497 0.321-0.645l0.002-0.001c0.13-0.096 0.294-0.153 0.47-0.153 0.266 0 0.503 0.13 0.648 0.331l0.002 0.002c0.098 0.131 0.156 0.296 0.156 0.475 0 0.264-0.128 0.497-0.324 0.643l-0.002 0.002c-0.129 0.099-0.292 0.159-0.47 0.16h-0c-0.267-0.005-0.502-0.137-0.648-0.338l-0.002-0.002zM2 16c-0-0.006-0-0.013-0-0.020 0-0.436 0.354-0.79 0.79-0.79 0 0 0 0 0 0v0c0 0 0 0 0 0 0.44 0 0.799 0.351 0.81 0.789l0 0.001c0 0 0 0 0 0 0 0.444-0.357 0.804-0.799 0.81h-0.001c-0.003 0-0.006 0-0.010 0-0.436 0-0.79-0.354-0.79-0.79 0-0 0-0 0-0v0zM28.51 16v0 0c-0-0.003-0-0.007-0-0.011 0-0.437 0.346-0.793 0.779-0.809l0.002-0c0.006-0 0.013-0 0.020-0 0.433 0 0.784 0.348 0.79 0.78v0.041c0 0.442-0.358 0.8-0.8 0.8v0c-0.012 0.001-0.026 0.001-0.040 0.001-0.442 0-0.8-0.358-0.8-0.8 0-0 0-0.001 0-0.001v0zM3.65 14c-0.1-0.131-0.161-0.297-0.161-0.477 0-0.264 0.129-0.498 0.328-0.641l0.002-0.002c0.131-0.098 0.296-0.156 0.475-0.156 0.264 0 0.497 0.128 0.643 0.324l0.002 0.002c0.098 0.131 0.156 0.296 0.156 0.475 0 0.264-0.128 0.498-0.324 0.643l-0.002 0.002c-0.127 0.1-0.29 0.16-0.466 0.16-0.001 0-0.002 0-0.004 0h0c-0.266-0.001-0.501-0.13-0.648-0.328l-0.002-0.002zM27.17 14.13c-0.2-0.149-0.327-0.385-0.327-0.65 0-0.18 0.059-0.347 0.159-0.482l-0.002 0.002c0.147-0.203 0.383-0.333 0.65-0.333 0.177 0 0.34 0.057 0.473 0.155l-0.002-0.002c0.216 0.145 0.357 0.389 0.357 0.666 0 0.196-0.071 0.376-0.188 0.515l0.001-0.001c-0.15 0.206-0.389 0.338-0.66 0.34h-0c-0.176-0.014-0.334-0.079-0.462-0.181l0.002 0.001zM6.24 12.46c-0.026-0.076-0.041-0.163-0.041-0.254 0-0.338 0.21-0.627 0.506-0.744l0.005-0.002c0.071-0.023 0.154-0.036 0.239-0.036 0.343 0 0.637 0.211 0.759 0.51l0.002 0.005c0.024 0.073 0.038 0.157 0.038 0.245 0 0.342-0.212 0.635-0.512 0.754l-0.005 0.002c-0.067 0.031-0.145 0.052-0.227 0.060l-0.003 0c-0.349-0.002-0.646-0.224-0.758-0.534l-0.002-0.006zM24.66 12.91c-0.309-0.122-0.524-0.418-0.524-0.765 0-0.084 0.013-0.165 0.036-0.241l-0.002 0.006c0.121-0.306 0.413-0.518 0.755-0.518 0.087 0 0.171 0.014 0.25 0.039l-0.006-0.002c0.31 0.118 0.527 0.413 0.527 0.759 0 0.086-0.013 0.169-0.038 0.247l0.002-0.006c-0.121 0.312-0.418 0.53-0.767 0.53-0.001 0-0.002 0-0.003 0h0c-0.084-0.006-0.162-0.024-0.236-0.052l0.006 0.002zM9.13 11.54c-0.009-0.046-0.014-0.098-0.014-0.151 0-0.387 0.268-0.711 0.629-0.798l0.006-0.001c0.052-0.012 0.111-0.019 0.173-0.019 0.386 0 0.708 0.278 0.777 0.644l0.001 0.005c0.010 0.047 0.016 0.101 0.016 0.157 0 0.384-0.27 0.704-0.63 0.782l-0.005 0.001h-0.16c-0.38-0.002-0.698-0.263-0.789-0.614l-0.001-0.006zM21.84 12.14c-0.37-0.080-0.643-0.404-0.643-0.793 0-0.052 0.005-0.103 0.014-0.152l-0.001 0.005c0.079-0.371 0.404-0.645 0.793-0.645 0.056 0 0.11 0.006 0.162 0.016l-0.005-0.001c0.369 0.076 0.643 0.398 0.643 0.784 0 0.051-0.005 0.102-0.014 0.15l0.001-0.005c-0.077 0.372-0.401 0.648-0.79 0.65h-0zM18.92 11.73c-0.408-0.040-0.723-0.381-0.723-0.796 0-0.026 0.001-0.052 0.004-0.077l-0 0.003c0.041-0.413 0.386-0.732 0.806-0.732 0.022 0 0.045 0.001 0.067 0.003l-0.003-0c0.408 0.040 0.723 0.381 0.723 0.796 0 0.026-0.001 0.052-0.004 0.077l0-0.003c-0.032 0.41-0.373 0.73-0.788 0.73-0.001 0-0.002 0-0.002 0h-0.080zM15.12 10.8c0-0.001 0-0.003 0-0.004 0-0.442 0.358-0.8 0.8-0.8 0.028 0 0.056 0.001 0.083 0.004l-0.003-0c0.436 0 0.79 0.354 0.79 0.79v0 0c0 0.003 0 0.007 0 0.010 0 0.438-0.353 0.794-0.79 0.8h-0.001c-0.012 0.001-0.026 0.001-0.040 0.001-0.442 0-0.8-0.358-0.8-0.8 0-0 0-0.001 0-0.001v0zM22 27.88c-0.072-0.116-0.114-0.256-0.114-0.406 0-0.293 0.162-0.548 0.4-0.681l0.004-0.002c0.118-0.074 0.262-0.118 0.416-0.118 0.284 0 0.533 0.15 0.672 0.375l0.002 0.003c0.077 0.12 0.123 0.266 0.123 0.423 0 0.286-0.152 0.536-0.379 0.675l-0.003 0.002c-0.11 0.069-0.243 0.11-0.386 0.11-0.005 0-0.010-0-0.015-0h0.001c-0.035 0.006-0.076 0.009-0.117 0.009-0.283 0-0.531-0.155-0.661-0.385l-0.002-0.004zM19.44 28.080v0c-0.301-0.123-0.509-0.413-0.509-0.752 0-0.119 0.026-0.231 0.071-0.333l-0.002 0.005c0.134-0.264 0.404-0.442 0.716-0.442 0.102 0 0.2 0.019 0.29 0.054l-0.005-0.002c0.285 0.127 0.48 0.407 0.48 0.733 0 0.118-0.026 0.231-0.072 0.332l0.002-0.005c-0.132 0.279-0.408 0.471-0.729 0.48l-0.001 0c-0.11-0.007-0.212-0.032-0.306-0.072l0.006 0.002zM16.66 26.3c-0.176-0.151-0.286-0.374-0.286-0.622 0-0.192 0.066-0.369 0.177-0.509l-0.001 0.002c0.149-0.174 0.37-0.283 0.615-0.283 0.201 0 0.384 0.073 0.526 0.194l-0.001-0.001c0.176 0.146 0.287 0.365 0.287 0.609 0 0.195-0.071 0.374-0.188 0.512l0.001-0.001c-0.149 0.178-0.372 0.29-0.62 0.29h-0c-0.003 0-0.007 0-0.011 0-0.192 0-0.367-0.072-0.5-0.191l0.001 0.001zM23.9 25.64c-0.414-0.046-0.733-0.393-0.733-0.815 0-0.023 0.001-0.045 0.003-0.068l-0 0.003c0.050-0.404 0.391-0.714 0.804-0.714 0.027 0 0.053 0.001 0.079 0.004l-0.003-0c0.412 0.035 0.733 0.379 0.733 0.797 0 0.026-0.001 0.051-0.004 0.076l0-0.003c-0.047 0.405-0.386 0.717-0.8 0.72h-0.080zM14.42 24.080v0c-0.112-0.135-0.181-0.311-0.181-0.503 0-0.228 0.096-0.433 0.25-0.577l0-0c0.14-0.122 0.324-0.196 0.525-0.196 0.241 0 0.457 0.107 0.604 0.275l0.001 0.001c0.124 0.139 0.2 0.323 0.2 0.525 0 0.237-0.104 0.449-0.269 0.594l-0.001 0.001c-0.141 0.123-0.327 0.198-0.53 0.2h-0c-0.247-0.008-0.463-0.132-0.598-0.318l-0.002-0.002zM23 22c-0.008-0.042-0.012-0.091-0.012-0.14 0-0.397 0.289-0.726 0.668-0.789l0.005-0.001c0.040-0.007 0.087-0.011 0.134-0.011 0.395 0 0.723 0.282 0.795 0.656l0.001 0.005c0.008 0.043 0.013 0.092 0.013 0.142 0 0.393-0.284 0.72-0.658 0.787l-0.005 0.001h-0.14c-0.392-0.001-0.719-0.277-0.799-0.645l-0.001-0.005zM12.48 21.67v0c-0.093-0.128-0.149-0.288-0.149-0.462 0-0.267 0.133-0.504 0.336-0.647l0.003-0.002c0.129-0.093 0.291-0.15 0.466-0.15 0.269 0 0.508 0.133 0.653 0.337l0.002 0.002c0.091 0.127 0.146 0.286 0.146 0.457 0 0.27-0.136 0.509-0.343 0.651l-0.003 0.002c-0.124 0.094-0.28 0.15-0.45 0.15-0.004 0-0.007-0-0.010-0h0.001c-0.275-0.009-0.513-0.158-0.648-0.377l-0.002-0.003zM22.27 19.18c-0.024-0.073-0.038-0.157-0.038-0.244 0-0.348 0.222-0.644 0.533-0.754l0.006-0.002c0.070-0.022 0.151-0.035 0.235-0.035 0.352 0 0.652 0.225 0.764 0.539l0.002 0.006c0.026 0.075 0.041 0.161 0.041 0.25 0 0.347-0.224 0.642-0.535 0.748l-0.006 0.002c-0.038 0.007-0.081 0.011-0.125 0.011s-0.087-0.004-0.129-0.011l0.004 0.001c-0.348-0.004-0.643-0.231-0.748-0.544l-0.002-0.006zM10.8 19c-0.065-0.114-0.103-0.25-0.103-0.395 0-0.293 0.156-0.55 0.39-0.692l0.004-0.002c0.116-0.067 0.255-0.107 0.403-0.107 0.295 0 0.553 0.158 0.695 0.394l0.002 0.004c0.067 0.115 0.107 0.252 0.107 0.399 0 0.293-0.158 0.55-0.393 0.689l-0.004 0.002c-0.115 0.067-0.252 0.108-0.399 0.11h-0.001c-0.295-0.008-0.551-0.164-0.698-0.396l-0.002-0.003zM21.17 16.4v0c-0.047-0.099-0.075-0.215-0.075-0.338 0-0.316 0.184-0.59 0.45-0.72l0.005-0.002c0.099-0.047 0.215-0.074 0.338-0.074 0.322 0 0.599 0.187 0.73 0.459l0.002 0.005c0.046 0.098 0.073 0.213 0.073 0.334 0 0.32-0.187 0.595-0.458 0.724l-0.005 0.002c-0.096 0.047-0.209 0.076-0.329 0.080l-0.001 0c-0 0-0.001 0-0.001 0-0.322 0-0.6-0.191-0.727-0.465l-0.002-0.005zM9.38 16.25v0c-0.048-0.099-0.077-0.216-0.077-0.339 0-0.319 0.189-0.594 0.462-0.719l0.005-0.002c0.098-0.046 0.213-0.073 0.334-0.073 0.32 0 0.595 0.187 0.724 0.458l0.002 0.005c0.044 0.097 0.070 0.21 0.070 0.329 0 0.32-0.186 0.597-0.455 0.728l-0.005 0.002c-0.099 0.044-0.214 0.070-0.336 0.070-0.005 0-0.010-0-0.015-0h0.001c-0.002 0-0.003 0-0.005 0-0.313 0-0.583-0.187-0.703-0.455l-0.002-0.005zM19.8 13.77c-0.067-0.115-0.107-0.252-0.107-0.399 0-0.293 0.158-0.55 0.393-0.689l0.004-0.002c0.115-0.065 0.253-0.104 0.399-0.104 0.295 0 0.554 0.156 0.699 0.39l0.002 0.004c0.066 0.113 0.105 0.249 0.105 0.394 0 0.299-0.166 0.559-0.411 0.694l-0.004 0.002c-0.103 0.069-0.229 0.11-0.366 0.11-0.009 0-0.017-0-0.026-0.001l0.001 0c-0.001 0-0.002 0-0.003 0-0.293 0-0.549-0.159-0.685-0.396l-0.002-0.004zM8.21 13.35c-0.024-0.073-0.038-0.157-0.038-0.244 0-0.348 0.222-0.644 0.533-0.754l0.006-0.002c0.073-0.024 0.157-0.038 0.244-0.038 0.348 0 0.644 0.222 0.754 0.533l0.002 0.006c0.026 0.075 0.041 0.161 0.041 0.25 0 0.347-0.224 0.642-0.535 0.748l-0.006 0.002c-0.041 0.007-0.087 0.010-0.135 0.010s-0.094-0.004-0.14-0.011l0.005 0.001h0.060c-0.014 0.001-0.031 0.001-0.048 0.001-0.334 0-0.621-0.205-0.74-0.496l-0.002-0.005zM7.41 10.35v0c-0.008-0.043-0.013-0.093-0.013-0.144 0-0.39 0.279-0.715 0.648-0.786l0.005-0.001c0.051-0.011 0.109-0.018 0.168-0.018 0.372 0 0.685 0.251 0.78 0.592l0.001 0.006c0.008 0.043 0.013 0.092 0.013 0.142 0 0.393-0.284 0.72-0.658 0.787l-0.005 0.001h-0.15c-0.002 0-0.005 0-0.008 0-0.382 0-0.701-0.267-0.781-0.625l-0.001-0.005zM16.41 9.010c-0.127-0.14-0.205-0.326-0.205-0.531 0-0.239 0.106-0.453 0.274-0.598l0.001-0.001c0.139-0.124 0.323-0.2 0.525-0.2 0.237 0 0.449 0.104 0.594 0.269l0.001 0.001c0.096 0.129 0.154 0.293 0.154 0.469 0 0.229-0.098 0.436-0.254 0.58l-0.001 0c-0.139 0.12-0.32 0.195-0.519 0.2l-0.001 0c-0.023 0.003-0.051 0.004-0.078 0.004-0.202 0-0.385-0.078-0.523-0.204l0.001 0zM7.97 8.010c-0.403-0.039-0.716-0.376-0.716-0.787 0-0.033 0.002-0.065 0.006-0.097l-0 0.004c0.045-0.404 0.384-0.714 0.795-0.714 0.030 0 0.059 0.002 0.088 0.005l-0.004-0c0.403 0.045 0.714 0.384 0.714 0.795 0 0.030-0.002 0.059-0.005 0.088l0-0.004c-0.047 0.405-0.386 0.717-0.8 0.72h-0.11zM14.33 7.010c-0.174-0.149-0.284-0.37-0.284-0.616 0-0.196 0.069-0.375 0.185-0.515l-0.001 0.001c0.148-0.173 0.366-0.282 0.61-0.282 0.199 0 0.381 0.073 0.521 0.193l-0.001-0.001c0.175 0.144 0.286 0.361 0.286 0.603 0 0.199-0.074 0.38-0.196 0.517l0.001-0.001c-0.144 0.178-0.362 0.29-0.607 0.29-0.005 0-0.009-0-0.014-0h0.001c-0.216-0.021-0.404-0.129-0.529-0.288l-0.001-0.002zM12 5.38c-0.288-0.128-0.485-0.412-0.485-0.742 0-0.115 0.024-0.224 0.067-0.323l-0.002 0.005c0.127-0.283 0.407-0.476 0.732-0.476 0.115 0 0.225 0.024 0.324 0.068l-0.005-0.002c0.275 0.128 0.463 0.401 0.463 0.719 0 0.136-0.034 0.264-0.095 0.375l0.002-0.004c-0.121 0.284-0.398 0.48-0.72 0.48v0c-0.105-0.018-0.199-0.053-0.284-0.102l0.004 0.002zM8.67 4.93c-0.063-0.111-0.101-0.244-0.101-0.386 0-0.305 0.173-0.57 0.427-0.702l0.004-0.002c0.117-0.069 0.257-0.11 0.407-0.11 0.292 0 0.548 0.155 0.691 0.386l0.002 0.004c0.066 0.115 0.105 0.252 0.105 0.399 0 0.298-0.161 0.559-0.401 0.699l-0.004 0.002c-0.111 0.068-0.246 0.109-0.39 0.11h-0c-0.016 0.001-0.034 0.002-0.052 0.002-0.294 0-0.55-0.16-0.686-0.398l-0.002-0.004zM9 28.18c-0.245-0.137-0.408-0.395-0.408-0.691 0-0.147 0.040-0.284 0.11-0.402l-0.002 0.004c0.14-0.243 0.399-0.404 0.695-0.404 0.145 0 0.281 0.039 0.399 0.106l-0.004-0.002c0.245 0.137 0.408 0.395 0.408 0.691 0 0.147-0.040 0.284-0.11 0.402l0.002-0.004c-0.137 0.246-0.396 0.41-0.693 0.41-0.003 0-0.005 0-0.008-0h0c-0.144-0.004-0.278-0.044-0.394-0.112l0.004 0.002zM11.59 27.66c-0.044-0.095-0.069-0.206-0.069-0.324 0-0.324 0.195-0.603 0.474-0.724l0.005-0.002c0.083-0.032 0.18-0.051 0.28-0.051 0.315 0 0.587 0.182 0.718 0.446l0.002 0.005c0.042 0.095 0.067 0.205 0.067 0.322 0 0.327-0.193 0.608-0.472 0.736l-0.005 0.002c-0.091 0.044-0.197 0.070-0.31 0.070-0.007 0-0.014-0-0.021-0l0.001 0c-0.306-0.019-0.563-0.209-0.678-0.475l-0.002-0.005zM14.24 26.19c-0.116-0.137-0.187-0.315-0.187-0.511 0-0.245 0.111-0.463 0.286-0.608l0.001-0.001c0.137-0.121 0.318-0.196 0.517-0.196 0.243 0 0.459 0.111 0.602 0.284l0.001 0.001c0.119 0.139 0.192 0.321 0.192 0.52 0 0.244-0.109 0.462-0.281 0.609l-0.001 0.001c-0.141 0.115-0.322 0.186-0.519 0.19h-0.001c-0.002 0-0.005 0-0.008 0-0.246 0-0.466-0.112-0.611-0.289l-0.001-0.001zM7.24 25c-0.003-0.026-0.005-0.055-0.005-0.086 0-0.408 0.306-0.745 0.701-0.794l0.004-0c0.028-0.004 0.061-0.006 0.094-0.006 0.41 0 0.747 0.312 0.786 0.712l0 0.003c0.003 0.026 0.005 0.055 0.005 0.086 0 0.408-0.306 0.745-0.701 0.794l-0.004 0h-0.12c-0.395-0.018-0.715-0.32-0.76-0.706l-0-0.004zM16.46 24.16c-0.172-0.148-0.281-0.365-0.281-0.608 0-0.214 0.084-0.408 0.221-0.552l-0 0c0.147-0.166 0.361-0.271 0.6-0.271 0.204 0 0.39 0.076 0.531 0.201l-0.001-0.001c0.163 0.147 0.265 0.359 0.265 0.595 0 0.206-0.078 0.394-0.206 0.536l0.001-0.001c-0.144 0.166-0.355 0.27-0.59 0.27v0c-0.008 0-0.017 0-0.026 0-0.197 0-0.377-0.072-0.515-0.191l0.001 0.001zM8.050 22.66c-0.374-0.067-0.655-0.39-0.655-0.778 0-0.054 0.005-0.106 0.016-0.157l-0.001 0.005c0.068-0.373 0.39-0.653 0.778-0.653 0.050 0 0.099 0.005 0.147 0.014l-0.005-0.001c0.387 0.056 0.68 0.385 0.68 0.782 0 0.045-0.004 0.089-0.011 0.132l0.001-0.005c-0.069 0.378-0.395 0.66-0.788 0.66-0.001 0-0.002 0-0.002 0h-0.16zM8.7 19.66c-0.315-0.116-0.536-0.413-0.536-0.762 0-0.085 0.013-0.167 0.037-0.244l-0.002 0.006c0.112-0.316 0.408-0.538 0.756-0.538 0.087 0 0.171 0.014 0.25 0.040l-0.006-0.002c0.317 0.108 0.541 0.402 0.541 0.75 0 0.090-0.015 0.176-0.042 0.256l0.002-0.006c-0.107 0.319-0.402 0.546-0.749 0.55h0.049c-0.033 0.003-0.072 0.005-0.111 0.005-0.067 0-0.132-0.006-0.196-0.016l0.007 0.001zM20.11 19.25c-0.241-0.138-0.4-0.394-0.4-0.687 0-0.149 0.041-0.288 0.112-0.406l-0.002 0.004c0.137-0.245 0.395-0.408 0.691-0.408 0.147 0 0.284 0.040 0.402 0.11l-0.004-0.002c0.243 0.14 0.404 0.399 0.404 0.695 0 0.145-0.039 0.281-0.106 0.399l0.002-0.004c-0.146 0.241-0.406 0.4-0.704 0.4-0.002 0-0.004 0-0.006-0h0c-0.021 0.002-0.046 0.003-0.071 0.003-0.115 0-0.225-0.023-0.325-0.065l0.006 0.002zM11.11 14.070c-0.247-0.139-0.411-0.4-0.411-0.699 0-0.136 0.034-0.263 0.093-0.375l-0.002 0.004c0.141-0.239 0.398-0.397 0.691-0.397 0.147 0 0.285 0.040 0.403 0.109l-0.004-0.002c0.243 0.135 0.404 0.391 0.404 0.684 0 0.15-0.043 0.291-0.116 0.41l0.002-0.003c-0.138 0.241-0.394 0.4-0.687 0.4-0.001 0-0.002 0-0.003 0h0c-0.014 0.001-0.030 0.001-0.046 0.001-0.13 0-0.252-0.034-0.357-0.093l0.004 0.002zM22.81 13.8c-0.316-0.112-0.538-0.408-0.538-0.756 0-0.087 0.014-0.171 0.040-0.25l-0.002 0.006c0.108-0.317 0.402-0.541 0.75-0.541 0.090 0 0.176 0.015 0.256 0.042l-0.006-0.002c0.316 0.112 0.538 0.408 0.538 0.756 0 0.087-0.014 0.171-0.040 0.25l0.002-0.006c-0.108 0.322-0.407 0.55-0.76 0.55-0 0-0 0-0 0v0c-0.033 0.005-0.070 0.008-0.108 0.008-0.057 0-0.113-0.007-0.166-0.019l0.005 0.001zM12.65 11.52c-0.204-0.149-0.336-0.387-0.336-0.657 0-0.173 0.055-0.334 0.147-0.466l-0.002 0.003c0.147-0.206 0.385-0.34 0.654-0.34 0.175 0 0.336 0.056 0.468 0.151l-0.002-0.002c0.204 0.147 0.335 0.384 0.335 0.651 0 0.172-0.054 0.331-0.147 0.462l0.002-0.002c-0.145 0.207-0.381 0.34-0.649 0.34-0 0-0.001 0-0.001 0h0c-0.175-0.004-0.336-0.055-0.474-0.142l0.004 0.002zM23.65 10.93c-0.379-0.068-0.663-0.395-0.663-0.788 0-0.050 0.005-0.099 0.013-0.147l-0.001 0.005c0.061-0.386 0.392-0.678 0.791-0.678 0.074 0 0.147 0.010 0.215 0.029l-0.006-0.001c0.374 0.072 0.653 0.397 0.653 0.786 0 0.051-0.005 0.1-0.014 0.149l0.001-0.005c-0.065 0.377-0.389 0.66-0.779 0.66-0.004 0-0.008-0-0.011-0h-0.139zM14.45 9.070c-0.17-0.148-0.276-0.364-0.276-0.605 0-0.201 0.074-0.385 0.197-0.526l-0.001 0.001c0.15-0.165 0.366-0.268 0.606-0.268 0.204 0 0.391 0.075 0.535 0.199l-0.001-0.001c0.167 0.149 0.272 0.365 0.272 0.606 0 0.2-0.073 0.384-0.193 0.525l0.001-0.001c-0.149 0.164-0.362 0.268-0.6 0.27h-0c-0.002 0-0.005 0-0.008 0-0.201 0-0.384-0.076-0.522-0.201l0.001 0.001zM23.17 7.2c-0.002-0.023-0.004-0.049-0.004-0.076 0-0.413 0.31-0.754 0.71-0.804l0.004-0c0.026-0.003 0.055-0.005 0.086-0.005 0.414 0 0.755 0.31 0.804 0.711l0 0.004c0.003 0.028 0.005 0.060 0.005 0.093 0 0.414-0.318 0.753-0.723 0.787l-0.003 0h-0.050c-0.008 0-0.017 0-0.026 0-0.412 0-0.753-0.308-0.803-0.706l-0-0.004zM16.54 6.85c-0.119-0.139-0.192-0.321-0.192-0.52 0-0.244 0.109-0.462 0.281-0.609l0.001-0.001c0.137-0.116 0.315-0.187 0.511-0.187 0.245 0 0.463 0.111 0.608 0.286l0.001 0.001c0.121 0.137 0.196 0.318 0.196 0.517 0 0.243-0.111 0.459-0.284 0.602l-0.001 0.001c-0.141 0.116-0.322 0.187-0.519 0.19h-0.001c-0 0-0.001 0-0.001 0-0.24 0-0.455-0.108-0.598-0.279l-0.001-0.001zM19 5c-0.050-0.1-0.080-0.219-0.080-0.344 0-0.319 0.191-0.593 0.465-0.714l0.005-0.002c0.097-0.044 0.21-0.069 0.329-0.069 0.325 0 0.606 0.189 0.739 0.464l0.002 0.005c0.039 0.091 0.062 0.198 0.062 0.31 0 0.342-0.215 0.634-0.517 0.748l-0.006 0.002c-0.097 0.042-0.21 0.068-0.329 0.070h-0.001c-0.299-0.023-0.55-0.207-0.668-0.465l-0.002-0.005zM22.29 5.22v0 0c-0.247-0.137-0.411-0.396-0.411-0.693 0-0.142 0.038-0.275 0.103-0.391l-0.002 0.004c0.14-0.245 0.4-0.408 0.697-0.408 0.117 0 0.228 0.025 0.328 0.070l-0.005-0.002s0 0 0 0v0 0 0c0.239 0.141 0.397 0.398 0.397 0.691 0 0.147-0.040 0.285-0.109 0.403l0.002-0.004c-0.138 0.241-0.394 0.4-0.687 0.4-0.001 0-0.002 0-0.003 0h0c-0.011 0-0.023 0.001-0.035 0.001-0.118 0-0.229-0.026-0.329-0.073l0.005 0.002zM16 13.54c-0.003 0-0.006-0-0.010-0-1.364 0-2.47 1.106-2.47 2.47s1.106 2.47 2.47 2.47c1.364 0 2.47-1.106 2.47-2.47 0-0.003 0-0.007-0-0.011v0.001c-0.006-1.356-1.104-2.454-2.459-2.46h-0.001z"></path>
</svg>
