<svg
  xmlns="http://www.w3.org/2000/svg"
  width="64"
  height="64"
  viewBox="0 0 64 64"
  fill="black"
  fill-rule="nonzero"
>
  <path d="M29.88 40.12a2.993 2.993 0 0 1 0-4.24 2.993 2.993 0 0 1 4.24 0 2.993 2.993 0 0 1 0 4.24 2.993 2.993 0 0 1-4.24 0zm0-12a2.993 2.993 0 0 1 0-4.24 2.993 2.993 0 0 1 4.24 0 2.993 2.993 0 0 1 0 4.24 2.993 2.993 0 0 1-4.24 0zm-6 6a2.993 2.993 0 0 1 0-4.24 2.993 2.993 0 0 1 4.24 0 2.993 2.993 0 0 1 0 4.24 2.993 2.993 0 0 1-4.24 0zm12 0a2.993 2.993 0 0 1 0-4.24 2.993 2.993 0 0 1 4.24 0 2.993 2.993 0 0 1 0 4.24 2.993 2.993 0 0 1-4.24 0zM7.96 26.35a12.964 12.964 0 0 1-3.81-9.19c0-3.32 1.27-6.65 3.81-9.19 2.54-2.54 5.87-3.81 9.19-3.81 3.32 0 6.65 1.27 9.19 3.81l5.65 5.65 5.66-5.66c1.22-1.22 2.66-2.17 4.22-2.82a13.013 13.013 0 0 1 14.18 2.82c1.22 1.22 2.17 2.66 2.82 4.22a13.013 13.013 0 0 1-2.82 14.18l-5.66 5.66 5.66 5.66c2.54 2.54 3.81 5.87 3.81 9.19 0 3.32-1.27 6.65-3.81 9.19a12.964 12.964 0 0 1-9.19 3.81c-3.32 0-6.65-1.27-9.19-3.81l-5.66-5.66-5.65 5.65a13.079 13.079 0 0 1-4.22 2.82 13.013 13.013 0 0 1-14.18-2.82 13.079 13.079 0 0 1-2.82-4.22 13.013 13.013 0 0 1 2.82-14.18L13.61 32zm2.83-2.83l7.03 7.03.04.04.04.04 15.48 15.48.04.04.04.04 7.03 7.03a8.966 8.966 0 0 0 6.36 2.64c2.31 0 4.61-.88 6.36-2.64a8.966 8.966 0 0 0 2.64-6.36c0-2.31-.88-4.61-2.64-6.36l-29.7-29.7a8.966 8.966 0 0 0-6.36-2.64c-2.31 0-4.61.88-6.36 2.64a8.966 8.966 0 0 0-2.64 6.36c0 2.31.88 4.61 2.64 6.36zm23.8 21.89c-.78-.78-.78-2.05 0-2.83l8-8c.78-.78 2.05-.78 2.83 0 .78.78.78 2.05 0 2.83l-8 8c-.78.78-2.05.78-2.83 0zm-16-16c-.78-.78-.78-2.05 0-2.83l8-8c.78-.78 2.05-.78 2.83 0 .78.78.78 2.05 0 2.83l-8 8c-.78.78-2.05.78-2.83 0zm34.63-5.89c.84-.84 1.5-1.84 1.95-2.92a8.964 8.964 0 0 0 0-6.9 9.066 9.066 0 0 0-1.95-2.92c-.84-.84-1.84-1.5-2.92-1.95a8.964 8.964 0 0 0-6.9 0 9.066 9.066 0 0 0-2.92 1.95l-5.66 5.66 12.73 12.73zM10.78 40.48c-.84.84-1.5 1.84-1.95 2.92a8.964 8.964 0 0 0 0 6.9 9.066 9.066 0 0 0 1.95 2.92c.84.84 1.84 1.5 2.92 1.95a8.964 8.964 0 0 0 6.9 0 9.066 9.066 0 0 0 2.92-1.95l5.66-5.66-12.73-12.73z" />
</svg>
