<!-- Generated by IcoMoon.io -->
<svg version="1.1" xmlns="http://www.w3.org/2000/svg" width="32" height="32" viewBox="0 0 32 32">
<title>payu</title>
<path d="M29 4.42s0 0 0 0v0.060c0-0.009 0-0.019 0-0.030s-0-0.021-0.001-0.032l0 0.002zM29.050 4.81c0 0.84 0 1.69 0 2.53-0.050-0.84-0.050-1.69-0.050-2.53zM22.44 13.81c-0.037 0.124-0.065 0.271-0.079 0.421l-0.001 0.009q0 4 0 8c0.012 0.158 0.040 0.304 0.084 0.444l-0.004-0.014zM23.13 3c0 1.17-0.23 1.19 1.2 1.18s1.19 0 1.2-1.19c0-1.41 0-1.18-1.19-1.19s-1.22-0.22-1.21 1.2zM29 4.81c0-0.1 0-0.2 0-0.3v-0.060s0 0 0 0-0.3-0.23-0.45-0.23c-0.81 0-1.61 0-2.43 0-0.37 0-0.53 0.2-0.53 0.57 0 0.77 0 1.55 0 2.32 0 0.39 0.16 0.59 0.58 0.58 0.78 0 1.58 0 2.37 0 0.16 0 0.32-0.18 0.49-0.29-0.030-0.9-0.030-1.75-0.030-2.59zM19.44 9c0.827 0.093 1.549 0.216 2.256 0.376l-0.136-0.026c0.487 0.157 0.832 0.605 0.832 1.135 0 0.026-0.001 0.053-0.003 0.079l0-0.004c0 1 0 2.090 0 3.13h2.060c0.73 0 1-0.27 1-1 0-1.34 0-2.69 0-4 0-0.7-0.33-1-1-1-1.35 0-2.69 0-4 0-0.68 0-1 0.31-1 1 0 0.41-0.14 0.54-0.51 0.52 0.1 0.090 0.28 0.18 0.28 0.29 0 0.91 0 1.82 0.050 2.73 0.026 0.301 0.075 0.577 0.148 0.843l-0.008-0.033zM22.39 22.69c0.002 0.060 0.003 0.131 0.003 0.202 0 2.903-1.801 5.386-4.346 6.392l-0.047 0.016c-1.509 0.599-3.257 0.946-5.086 0.946-0.579 0-1.15-0.035-1.711-0.102l0.068 0.007c-1.611-0.099-3.103-0.513-4.447-1.18l0.067 0.030c-2.248-1.050-3.781-3.284-3.8-5.878v-0.002c-0.12-4-0.080-8-0.080-12-0.010-1.42 0.59-1.95 1.99-1.95h1.91c1.55 0 2.1 0.54 2.1 2.090v10.74c-0.002 0.053-0.003 0.115-0.003 0.178 0 0.308 0.027 0.61 0.078 0.904l-0.005-0.031c0.156 0.878 0.81 1.569 1.655 1.777l0.015 0.003c0.573 0.174 1.233 0.274 1.915 0.274s1.341-0.1 1.963-0.286l-0.048 0.012c1.073-0.223 1.868-1.16 1.868-2.284 0-0.069-0.003-0.137-0.009-0.205l0.001 0.009v-10.75c0-2 0.53-2.52 2.53-2.41 0.1 0.090 0.28 0.18 0.28 0.29 0 0.91 0 1.82 0.050 2.73 0.026 0.301 0.075 0.577 0.148 0.843l-0.008-0.033c0.102 0.417 0.473 0.721 0.914 0.721 0.051 0 0.102-0.004 0.151-0.012l-0.005 0.001c0.64 0 1.27 0 1.91 0v0s0 0.070 0 0.11c-0.037 0.124-0.065 0.271-0.079 0.421l-0.001 0.009q0 4 0 8c0.002 0.164 0.024 0.323 0.063 0.474l-0.003-0.014z"></path>
</svg>
