<!-- Generated by IcoMoon.io -->
<svg version="1.1" xmlns="http://www.w3.org/2000/svg" width="32" height="32" viewBox="0 0 32 32">
<title>payu</title>
<path d="M24.34 1.78c-1.33 0-1.22-0.2-1.21 1.2 0 1.17-0.23 1.19 1.2 1.18s1.19 0 1.2-1.19c0.010-1.41 0.040-1.18-1.19-1.19z"></path>
<path d="M29 4.51c0.001-0.013 0.001-0.029 0.001-0.045s-0-0.032-0.001-0.047l0 0.002c-0.15-0.080-0.3-0.23-0.45-0.23-0.81 0-1.61 0-2.43 0-0.37 0-0.53 0.2-0.53 0.57 0 0.77 0 1.55 0 2.32 0 0.39 0.16 0.59 0.58 0.58 0.78 0 1.58 0 2.37 0 0.16 0 0.32-0.18 0.49-0.29 0-0.84 0-1.69 0-2.53-0.030-0.13-0.030-0.23-0.030-0.33z"></path>
<path d="M24.5 7.69c-1.35 0-2.69 0-4 0-0.68 0-1 0.31-1 1 0 0.41-0.14 0.54-0.51 0.52-2-0.11-2.53 0.4-2.53 2.41v10.76c0.005 0.059 0.008 0.127 0.008 0.196 0 1.123-0.795 2.061-1.853 2.281l-0.015 0.003c-0.573 0.174-1.233 0.274-1.915 0.274s-1.341-0.1-1.963-0.286l0.048 0.012c-0.86-0.211-1.514-0.902-1.668-1.767l-0.002-0.013c-0.064-0.307-0.1-0.66-0.1-1.021 0-0.021 0-0.041 0-0.062l-0 0.003v-10.74c0-1.55-0.55-2.090-2.1-2.090h-1.9c-1.44 0-2 0.53-2 1.95 0 4 0 8 0.080 12 0.021 2.599 1.558 4.833 3.77 5.863l0.040 0.017c1.273 0.622 2.76 1.022 4.33 1.109l0.030 0.001c0.522 0.068 1.126 0.107 1.738 0.107 1.801 0 3.524-0.337 5.108-0.95l-0.097 0.033c2.602-1.017 4.412-3.505 4.412-6.415 0-0.054-0.001-0.109-0.002-0.163l0 0.008v-8.9s0-0.070 0-0.1c-0.64 0-1.28 0-1.91 0-0.043 0.007-0.091 0.011-0.141 0.011-0.449 0-0.824-0.314-0.917-0.734l-0.001-0.006v-4c0.827 0.093 1.549 0.216 2.256 0.376l-0.136-0.026c0.487 0.157 0.832 0.605 0.832 1.135 0 0.026-0.001 0.053-0.003 0.079l0-0.004c0 1 0 2.080 0 3.12h2.060c0.73 0 1-0.27 1-1 0-1.34 0-2.69 0-4 0.080-0.68-0.25-0.99-0.95-0.99z"></path>
<path d="M22.41 13.73v0z"></path>
</svg>
