<svg
  xmlns="http://www.w3.org/2000/svg"
  width="64"
  height="64"
  viewBox="0 0 64 64"
  fill="black"
  fill-rule="nonzero"
>
  <path d="M25.96 32.69c0-1.66.68-3.17 1.76-4.26a5.991 5.991 0 0 1 4.26-1.76c1.66 0 3.17.68 4.26 1.76A5.991 5.991 0 0 1 38 32.69c0 1.66-.68 3.17-1.76 4.26-.63.63-1.4 1.12-2.26 1.42v12.62l10.37-19.34a86.79 86.79 0 0 1-3.9-4.88c-1.28-1.74-2.5-3.53-3.64-5.37h-9.64c-1 1.63-3.14 4.98-5.62 8.07-.61.76-1.25 1.52-1.91 2.24l10.33 19.28V38.37c-.86-.3-1.63-.79-2.26-1.42a5.991 5.991 0 0 1-1.76-4.26zm4.59 1.43c.34.34.78.55 1.29.59.05 0 .1-.01.14-.01.05 0 .1 0 .14.01.5-.03.95-.25 1.29-.59.37-.37.59-.87.59-1.43 0-.56-.22-1.06-.59-1.43-.37-.37-.87-.59-1.43-.59-.56 0-1.06.22-1.43.59-.37.37-.59.87-.59 1.43 0 .56.22 1.06.59 1.43zm13.13-9.72c1.43 1.94 2.95 3.81 4.56 5.62.09.1.17.2.24.31.16.25.25.53.29.82.03.28.01.58-.09.86-.04.12-.09.25-.16.36L33.77 59.86a2.255 2.255 0 0 1-.47.6c-.35.3-.81.49-1.31.49a1.965 1.965 0 0 1-1.54-.73c-.09-.11-.17-.23-.24-.36L15.47 32.37c-.07-.13-.13-.27-.17-.41-.09-.29-.11-.58-.06-.87.04-.29.15-.56.31-.81.08-.12.17-.24.28-.34.87-.88 1.76-1.89 2.61-2.97 1.54-1.93 2.95-3.96 4-5.57h-.09c-.98 0-1.82-.71-1.97-1.68L18.05 5.36l-.03-.2c-.02-.23 0-.46.06-.68a2.016 2.016 0 0 1 1.11-1.31c.2-.09.43-.15.66-.17.07-.01.13-.01.2-.01h23.93a2.141 2.141 0 0 1 .86.18c.28.12.51.31.7.53.19.22.33.49.41.78.06.22.08.44.06.68-.01.07-.01.13-.03.2l-2.36 14.36c-.16.97-.99 1.68-1.97 1.68h-.06c.68 1.02 1.38 2.02 2.11 3zm-19.64-7h1.73c.19-.03.38-.03.57 0h11.3c.19-.03.38-.03.57 0h1.73L41.65 7H22.36z" />
</svg>
