<!-- Generated by IcoMoon.io -->
<svg version="1.1" xmlns="http://www.w3.org/2000/svg" width="32" height="32" viewBox="0 0 32 32">
<title>pen</title>
<path d="M24.584 18.632l-3.044-8.241c-0.123-0.368-0.467-0.616-0.854-0.616h-9.373c-0.388 0-0.732 0.248-0.854 0.616l-3.044 8.241c-0.192 0.577-0.081 1.212 0.297 1.688l7.521 9.49c0.159 0.257 0.442 0.428 0.766 0.428s0.607-0.171 0.765-0.428l7.522-9.49c0.378-0.476 0.489-1.111 0.297-1.688zM16.9 24.155v-3.498c0-0.255 0.107-0.499 0.297-0.668 0.39-0.348 0.628-0.862 0.601-1.432-0.043-0.907-0.777-1.653-1.684-1.709-1.047-0.065-1.916 0.765-1.916 1.797 0 0.533 0.232 1.012 0.6 1.342 0.186 0.167 0.3 0.399 0.3 0.649v3.519c0 0.853-1.076 1.228-1.606 0.559l-4.054-5.115c-0.195-0.246-0.248-0.576-0.139-0.871l2.424-6.563c0.131-0.354 0.468-0.588 0.845-0.588h6.862c0.377 0 0.714 0.235 0.845 0.588l2.424 6.563c0.109 0.295 0.056 0.625-0.139 0.871l-4.054 5.115c-0.53 0.669-1.606 0.294-1.606-0.559z"></path>
<path d="M11.565 8.886h8.87c0.497 0 0.9-0.403 0.9-0.9v-5.313c0-0.497-0.403-0.9-0.9-0.9h-8.87c-0.497 0-0.9 0.403-0.9 0.9v5.313c0 0.497 0.403 0.9 0.9 0.9zM13.366 3.573h5.268c0.497 0 0.9 0.403 0.9 0.9v1.711c0 0.497-0.403 0.9-0.9 0.9h-5.268c-0.497 0-0.9-0.403-0.9-0.9v-1.711c0-0.497 0.403-0.9 0.9-0.9z"></path>
</svg>
