<svg
  xmlns="http://www.w3.org/2000/svg"
  width="64"
  height="64"
  viewBox="0 0 64 64"
  fill="black"
  fill-rule="nonzero"
>
  <path d="M6 16c0-2.76 1.12-5.26 2.93-7.07A9.969 9.969 0 0 1 16 6c2.76 0 5.26 1.12 7.07 2.93A9.969 9.969 0 0 1 26 16c0 2.76-1.12 5.26-2.93 7.07A9.969 9.969 0 0 1 16 26c-2.76 0-5.26-1.12-7.07-2.93A9.969 9.969 0 0 1 6 16zm5.76 4.24A5.98 5.98 0 0 0 16 22c1.66 0 3.15-.67 4.24-1.76A5.98 5.98 0 0 0 22 16c0-1.66-.67-3.15-1.76-4.24A5.98 5.98 0 0 0 16 10c-1.66 0-3.15.67-4.24 1.76A5.98 5.98 0 0 0 10 16c0 1.66.67 3.15 1.76 4.24zM38 48c0-2.76 1.12-5.26 2.93-7.07A9.969 9.969 0 0 1 48 38c2.76 0 5.26 1.12 7.07 2.93A9.969 9.969 0 0 1 58 48c0 2.76-1.12 5.26-2.93 7.07A9.969 9.969 0 0 1 48 58c-2.76 0-5.26-1.12-7.07-2.93A9.969 9.969 0 0 1 38 48zm5.76 4.24A5.98 5.98 0 0 0 48 54c1.66 0 3.15-.67 4.24-1.76A5.98 5.98 0 0 0 54 48c0-1.66-.67-3.15-1.76-4.24A5.98 5.98 0 0 0 48 42c-1.66 0-3.15.67-4.24 1.76A5.98 5.98 0 0 0 42 48c0 1.66.67 3.15 1.76 4.24zM57.41 6.59c.78.78.78 2.05 0 2.83l-48 48c-.78.78-2.05.78-2.83 0-.78-.78-.78-2.05 0-2.83l48-48c.78-.78 2.05-.78 2.83 0z" />
</svg>
