<!-- Generated by IcoMoon.io -->
<svg version="1.1" xmlns="http://www.w3.org/2000/svg" width="32" height="32" viewBox="0 0 32 32">
<title>percona</title>
<path d="M16 1.93c-0.002 0-0.003 0-0.005 0-7.771 0-14.070 6.299-14.070 14.070 0 4.721 2.325 8.899 5.893 11.451l0.043 0.029v-11.48c0-0.001 0-0.001 0-0.002 0-4.496 3.644-8.14 8.14-8.14s8.14 3.644 8.14 8.14c0 4.496-3.644 8.14-8.14 8.14-1.818 0-3.497-0.596-4.852-1.603l0.022 0.015v6.67c1.432 0.538 3.088 0.85 4.816 0.85 7.771 0 14.070-6.299 14.070-14.070 0-7.766-6.292-14.062-14.055-14.070h-0.001z"></path>
<path d="M20.83 16c0 2.668-2.162 4.83-4.83 4.83s-4.83-2.162-4.83-4.83c0-2.668 2.162-4.83 4.83-4.83s4.83 2.162 4.83 4.83z"></path>
</svg>
