<svg
  xmlns="http://www.w3.org/2000/svg"
  width="64"
  height="64"
  viewBox="0 0 64 64"
  fill="black"
  fill-rule="nonzero"
>
  <path d="M37.57 34.81c.42-1.85.81-3.71 1.2-5.54a9.16 9.16 0 0 0 .31-2.17V27a2.54 2.54 0 0 0-2-2.48 8.72 8.72 0 0 0-2.08-.3h-3.9c.37-1.81.74-3.55 1.11-5.32h-3.49L25.5 34.78H29c.56-2.66 1.11-5.32 1.67-8h3.12a4.77 4.77 0 0 1 1.1.23.75.75 0 0 1 .59.7 4.45 4.45 0 0 1 0 .53 5.12 5.12 0 0 1 0 .56c-.35 1.65-.72 3.33-1.09 5l-.2 1h3.53zm5.82-2.6h3.69a2.56 2.56 0 0 0 2-1 3.94 3.94 0 0 0 .72-2.28v-.44a1.41 1.41 0 0 0-.63-1 2.46 2.46 0 0 0-1.3-.49H44.4c-.35 1.57-.68 3.31-1 5.1zm-2-8h7.42a4.93 4.93 0 0 1 2.88.93 3.65 3.65 0 0 1 1.59 2.92v.42a6.63 6.63 0 0 1-1.61 4.34 5.2 5.2 0 0 1-2.94 1.63 14.31 14.31 0 0 1-3.1.33H43c-.24 1.36-.48 2.66-.7 4h-3.72c1-4.88 1.87-9.74 2.79-14.54zm-26 7.89h3.8a2.6 2.6 0 0 0 1.94-1.1 3.82 3.82 0 0 0 .72-2.25 3.4 3.4 0 0 0 0-.45 1.39 1.39 0 0 0-.62-1 2.49 2.49 0 0 0-1.28-.41h-3.54l-1 5.27zm-.48 2.66l-.72 4h-3.5l2.69-14.54h7.34a5.19 5.19 0 0 1 2.22.49 3.82 3.82 0 0 1 2.3 3.29v.43a6.76 6.76 0 0 1-1.64 4.42 5.22 5.22 0 0 1-3 1.65 14.12 14.12 0 0 1-3.08.33h-.42c-.7-.06-1.44-.08-2.18-.08zm17.58-18.61H32a56.45 56.45 0 0 0-9.26.76h.32a43 43 0 0 0-9.23 2.5l.3-.1a26.86 26.86 0 0 0-6.54 3.49l.07-.05a13.43 13.43 0 0 0-3.82 4.13v.06a7.48 7.48 0 0 0-.22 7.32 12.57 12.57 0 0 0 3.2 3.93 26.43 26.43 0 0 0 7.34 4.19l.18.06a38.44 38.44 0 0 0 5.75 1.73l.27.05a50.35 50.35 0 0 0 8 1.13h.16c1.12.08 2.42.12 3.74.12s2.62 0 3.91-.13H36a59.39 59.39 0 0 0 6.9-.91l-.36.06A43.38 43.38 0 0 0 51 41.92l-.28.1a26.41 26.41 0 0 0 5.42-3h-.08A14.25 14.25 0 0 0 60 35v-.06A7.64 7.64 0 0 0 61.31 31 7.92 7.92 0 0 0 60 26.62a14.06 14.06 0 0 0-3.77-3.91h-.05A27.38 27.38 0 0 0 49 19l-.2-.07a45.24 45.24 0 0 0-9.8-2.18h-.2a49.51 49.51 0 0 0-6.24-.58zM32 13.49a60.83 60.83 0 0 1 6.5.35h-.27a49.46 49.46 0 0 1 10.3 2.1l-.36-.1a33.43 33.43 0 0 1 9.13 4.31l-.12-.08a18.1 18.1 0 0 1 4.91 4.8v.06A10.54 10.54 0 0 1 64 29.79v.05a9.71 9.71 0 0 1 0 1 10 10 0 0 1-1.36 5.08A15.7 15.7 0 0 1 59 40.19a27.6 27.6 0 0 1-7.5 4.43l-.19.06a41.5 41.5 0 0 1-6.09 2l-.3.06c-1.74.39-3.49.72-5.25.94a57.05 57.05 0 0 1-7.56.49h-1.34a59.89 59.89 0 0 1-6.66-.51h.3A49.25 49.25 0 0 1 14 45.19l.34.1a33.78 33.78 0 0 1-6.68-3.15l.14.08a20 20 0 0 1-5.29-4.63 11.19 11.19 0 0 1-2.4-5.29v-.07A8.82 8.82 0 0 1 0 30.82 9.84 9.84 0 0 1 .76 27v.07a14.06 14.06 0 0 1 3.56-5 25.14 25.14 0 0 1 6.55-4.29l.16-.07a41.25 41.25 0 0 1 9.28-3.05h.27a47.79 47.79 0 0 1 6.37-.91h.17l4.88-.42z" />
</svg>
