<!-- Generated by IcoMoon.io -->
<svg version="1.1" xmlns="http://www.w3.org/2000/svg" width="32" height="32" viewBox="0 0 32 32">
<title>php</title>
<path d="M16 8.070c1.008 0 2.002 0.055 2.981 0.161l-0.121-0.011c1.692 0.169 3.24 0.493 4.722 0.965l-0.162-0.045c1.572 0.478 2.943 1.139 4.185 1.975l-0.055-0.035c0.903 0.598 1.658 1.34 2.252 2.203l0.018 0.027c0.439 0.638 0.733 1.408 0.818 2.239l0.002 0.021c0.014 0.135 0.022 0.291 0.022 0.449 0 0.85-0.227 1.647-0.624 2.333l0.012-0.023c-0.447 0.782-1.007 1.445-1.668 1.99l-0.012 0.010c-1.010 0.837-2.177 1.532-3.443 2.030l-0.087 0.030c-0.809 0.34-1.786 0.659-2.793 0.902l-0.137 0.028c-0.8 0.18-1.6 0.33-2.41 0.43-1.041 0.145-2.244 0.227-3.467 0.227-0.216 0-0.431-0.003-0.645-0.008l0.032 0.001c-1.051-0.020-2.062-0.099-3.054-0.235l0.134 0.015c-1.735-0.221-3.302-0.604-4.797-1.139l0.157 0.049c-1.149-0.399-2.14-0.875-3.065-1.448l0.065 0.038c-0.954-0.578-1.761-1.291-2.426-2.122l-0.014-0.018c-0.543-0.675-0.923-1.504-1.066-2.411l-0.004-0.029c-0.030-0.194-0.046-0.419-0.046-0.647 0-0.618 0.124-1.207 0.347-1.743l-0.011 0.030c0.383-0.913 0.939-1.684 1.634-2.305l0.006-0.005c0.881-0.798 1.897-1.469 3.007-1.97l0.073-0.030c1.259-0.599 2.725-1.089 4.256-1.399l0.124-0.021c0.85-0.187 1.876-0.336 2.922-0.415l0.078-0.005 2.26-0.16zM16.21 9.29c-0.072-0.001-0.157-0.001-0.242-0.001-1.447 0-2.866 0.12-4.247 0.352l0.149-0.021c-1.544 0.245-2.924 0.628-4.234 1.147l0.134-0.047c-1.126 0.428-2.1 0.968-2.983 1.623l0.033-0.023c-0.721 0.51-1.314 1.15-1.754 1.892l-0.016 0.028c-0.308 0.505-0.491 1.115-0.491 1.769 0 0.574 0.141 1.115 0.39 1.59l-0.009-0.019c0.378 0.715 0.874 1.317 1.47 1.802l0.010 0.008c0.985 0.802 2.128 1.462 3.367 1.923l0.083 0.027c0.761 0.303 1.684 0.585 2.634 0.796l0.126 0.024c1.073 0.247 2.346 0.432 3.647 0.516l0.073 0.004c0.513 0.036 1.112 0.056 1.715 0.056s1.202-0.020 1.795-0.061l-0.080 0.004c1.131-0.082 2.158-0.221 3.165-0.417l-0.165 0.027c1.435-0.282 2.698-0.672 3.9-1.178l-0.13 0.048c0.937-0.382 1.743-0.828 2.488-1.356l-0.038 0.026c0.745-0.505 1.363-1.138 1.835-1.874l0.015-0.026c0.341-0.514 0.554-1.14 0.58-1.813l0-0.007c0-0.008 0-0.018 0-0.029 0-0.732-0.216-1.414-0.589-1.985l0.009 0.014c-0.467-0.72-1.050-1.322-1.729-1.796l-0.021-0.014c-0.974-0.705-2.096-1.295-3.299-1.712l-0.091-0.028c-1.335-0.467-2.894-0.819-4.506-0.992l-0.094-0.008c-0.843-0.138-1.843-0.235-2.86-0.269l-0.040-0.001zM8.15 17.84l-0.33 1.83h-1.61l1.23-6.67h0.060c1.1 0 2.21 0 3.31 0 0.363 0.001 0.707 0.082 1.015 0.226l-0.015-0.006c0.613 0.257 1.041 0.84 1.070 1.527l0 0.003c0.004 0.059 0.006 0.129 0.006 0.199 0 0.774-0.282 1.481-0.75 2.025l0.003-0.004c-0.353 0.39-0.829 0.663-1.365 0.758l-0.015 0.002c-0.425 0.097-0.913 0.153-1.415 0.153-0.069 0-0.137-0.001-0.205-0.003l0.010 0c-0.32-0.030-0.66-0.040-1-0.040zM8.37 16.62h0.63c0.37 0 0.74 0 1.11 0 0.371-0.031 0.691-0.228 0.887-0.516l0.003-0.004c0.207-0.287 0.331-0.646 0.331-1.034 0-0.069-0.004-0.137-0.012-0.205l0.001 0.008c-0.020-0.201-0.13-0.374-0.288-0.479l-0.002-0.002c-0.166-0.111-0.369-0.181-0.588-0.19l-0.002-0c-0.45 0-0.91 0-1.37 0h-0.24c-0.15 0.8-0.3 1.6-0.46 2.42zM20.28 13h0.060c1.1 0 2.19 0 3.29 0 0.017-0 0.037-0.001 0.057-0.001 0.493 0 0.949 0.158 1.32 0.425l-0.007-0.005c0.433 0.297 0.716 0.784 0.73 1.338l0 0.002c0.004 0.058 0.006 0.125 0.006 0.193 0 0.761-0.279 1.457-0.739 1.991l0.003-0.004c-0.349 0.383-0.817 0.652-1.345 0.748l-0.015 0.002c-0.428 0.097-0.919 0.153-1.423 0.153-0.066 0-0.131-0.001-0.197-0.003l0.010 0c-0.34 0-0.68 0-1 0-0.11 0.62-0.22 1.22-0.32 1.83h-1.71c0.45-2.24 0.86-4.47 1.28-6.67zM21.21 16.66h0.57c0.37 0 0.75 0 1.12 0 0.372-0.011 0.699-0.192 0.908-0.467l0.002-0.003c0.207-0.291 0.33-0.654 0.33-1.046 0-0.068-0.004-0.136-0.011-0.203l0.001 0.008c-0.020-0.201-0.13-0.374-0.288-0.479l-0.002-0.002c-0.163-0.11-0.363-0.18-0.577-0.19l-0.003-0c-0.46 0-0.93 0-1.39 0h-0.2c-0.16 0.72-0.31 1.52-0.46 2.34zM18.54 17.85c0.19-0.85 0.37-1.7 0.55-2.54 0.080-0.297 0.131-0.641 0.14-0.994l0-0.006c0.001-0.018 0.002-0.038 0.002-0.059 0-0.555-0.386-1.019-0.904-1.14l-0.008-0.002c-0.292-0.074-0.627-0.117-0.972-0.117-0.084 0-0.167 0.002-0.249 0.007l0.011-0.001c-0.47 0-0.95 0-1.43 0h-0.11c0.17-0.83 0.34-1.63 0.51-2.44h-1.6l-1.48 7.28h1.6c0.26-1.22 0.51-2.44 0.77-3.66h1.43c0.18 0.015 0.347 0.051 0.505 0.104l-0.015-0.004c0.151 0.033 0.264 0.162 0.27 0.319l0 0.001c0.010 0.074 0.015 0.159 0.015 0.245s-0.005 0.171-0.016 0.255l0.001-0.010c-0.16 0.76-0.33 1.53-0.5 2.3l-0.090 0.45h1.62z"></path>
</svg>
