<svg
  xmlns="http://www.w3.org/2000/svg"
  width="64"
  height="64"
  viewBox="0 0 64 64"
  fill="black"
  fill-rule="nonzero"
>
  <path d="M55.05 2.67H4.76a2.09 2.09 0 0 0 0 4.18h50.29A2.09 2.09 0 0 1 57.14 9v46.1a2.09 2.09 0 0 1-2.09 2.09H9a2.1 2.1 0 0 1-2.09-2.09V29A2.1 2.1 0 0 1 9 26.9l22.34.1-10.67 10.65a2.19 2.19 0 0 0-.46.69 2.1 2.1 0 0 0 0 1.63 2.19 2.19 0 0 0 .46.69l10.67 10.67a2.13 2.13 0 0 0 1.5.62 2.15 2.15 0 0 0 1.51-.62 2.12 2.12 0 0 0 0-3l-7-7h21.6a2.14 2.14 0 0 0 0-4.27H27.33L38 26.35a2.06 2.06 0 0 0 .47-.69 2.19 2.19 0 0 0 0-1.63 2.06 2.06 0 0 0-.47-.69L27.33 12.67a2.14 2.14 0 0 0-3 3l7 7H9A6.29 6.29 0 0 0 2.67 29v26.05A6.28 6.28 0 0 0 9 61.33h46.1a6.28 6.28 0 0 0 6.28-6.28V9a6.28 6.28 0 0 0-6.28-6.28" />
</svg>
