<!-- Generated by IcoMoon.io -->
<svg version="1.1" xmlns="http://www.w3.org/2000/svg" width="32" height="32" viewBox="0 0 32 32">
<title>pingdownload</title>
<path d="M24.315 5.333h-18.057c-0.484 0-0.901 0.372-0.924 0.856-0.024 0.516 0.387 0.943 0.898 0.943h18.083c0.306 0 0.553 0.248 0.553 0.553v16.63c0 0.306-0.248 0.553-0.553 0.553h-16.63c-0.306 0-0.553-0.248-0.553-0.553v-9.526c0-0.306 0.248-0.553 0.553-0.553h6.698c0.123 0 0.185 0.149 0.098 0.236l-2.669 2.669c-0.021 0.021-0.041 0.043-0.060 0.066-0.008 0.010-0.016 0.021-0.024 0.032-0.010 0.013-0.020 0.026-0.029 0.039s-0.016 0.026-0.023 0.039c-0.007 0.012-0.015 0.024-0.022 0.037s-0.013 0.027-0.019 0.040c-0.006 0.013-0.013 0.026-0.018 0.040s-0.010 0.026-0.015 0.040c-0.005 0.014-0.011 0.029-0.015 0.043-0.004 0.013-0.007 0.027-0.010 0.040-0.004 0.015-0.008 0.030-0.011 0.045s-0.005 0.031-0.007 0.046c-0.002 0.014-0.005 0.027-0.006 0.041-0.003 0.028-0.004 0.057-0.004 0.086 0 0.001-0 0.002-0 0.003s0 0.002 0 0.003c0 0.029 0.002 0.057 0.004 0.086 0.001 0.014 0.004 0.027 0.006 0.041 0.002 0.015 0.004 0.031 0.007 0.046s0.007 0.030 0.011 0.045c0.003 0.013 0.006 0.027 0.010 0.040 0.004 0.015 0.010 0.029 0.015 0.043 0.005 0.013 0.009 0.027 0.014 0.040s0.012 0.026 0.018 0.040c0.006 0.013 0.012 0.027 0.019 0.040s0.014 0.025 0.022 0.037c0.008 0.013 0.015 0.026 0.023 0.039s0.019 0.026 0.029 0.039c0.008 0.011 0.015 0.021 0.024 0.032 0.019 0.023 0.039 0.045 0.060 0.066l3.552 3.552c0.176 0.176 0.406 0.263 0.636 0.263s0.46-0.088 0.636-0.263c0.35-0.35 0.331-0.941-0.019-1.291l-1.762-1.762c-0.087-0.087-0.025-0.236 0.098-0.236h6.349c0.484 0 0.901-0.372 0.924-0.856 0.024-0.516-0.387-0.943-0.898-0.943h-6.375c-0.123 0-0.185-0.149-0.098-0.236l2.669-2.669c0.021-0.021 0.041-0.043 0.060-0.066 0.001-0.001 0.002-0.002 0.002-0.002 0.008-0.010 0.014-0.020 0.022-0.030 0.010-0.013 0.019-0.025 0.028-0.038s0.016-0.026 0.024-0.040c0.007-0.012 0.015-0.024 0.021-0.036 0.007-0.014 0.013-0.027 0.020-0.041 0.006-0.013 0.012-0.025 0.018-0.038s0.010-0.027 0.015-0.041c0.005-0.014 0.010-0.028 0.015-0.042s0.007-0.028 0.011-0.042c0.004-0.014 0.008-0.029 0.011-0.043 0.003-0.016 0.005-0.033 0.008-0.050 0.002-0.012 0.004-0.025 0.005-0.037 0.003-0.030 0.005-0.059 0.005-0.089s-0.002-0.059-0.005-0.089c-0.001-0.012-0.004-0.025-0.005-0.037-0.002-0.017-0.004-0.034-0.008-0.050-0.003-0.014-0.007-0.028-0.010-0.043s-0.007-0.029-0.011-0.043c-0.004-0.014-0.009-0.027-0.014-0.041s-0.010-0.028-0.015-0.042c-0.005-0.013-0.012-0.025-0.017-0.037-0.007-0.014-0.013-0.028-0.020-0.042-0.006-0.012-0.014-0.023-0.021-0.035-0.008-0.014-0.016-0.027-0.025-0.040s-0.018-0.025-0.028-0.038c-0.008-0.011-0.016-0.022-0.025-0.033-0.019-0.023-0.039-0.045-0.060-0.066l-3.552-3.552c-0.355-0.355-0.933-0.351-1.283 0.012-0.344 0.356-0.317 0.931 0.033 1.281l1.76 1.76c0.087 0.087 0.025 0.236-0.098 0.236h-6.698c-1.299 0-2.352 1.053-2.352 2.352v9.526c0 1.299 1.053 2.352 2.352 2.352h16.63c1.299 0 2.352-1.053 2.352-2.352v-16.63c0-1.299-1.053-2.352-2.352-2.352z"></path>
</svg>
