<!-- Generated by IcoMoon.io -->
<svg version="1.1" xmlns="http://www.w3.org/2000/svg" width="32" height="32" viewBox="0 0 32 32">
<title>plugin</title>
<path d="M14.516 23.619h-0.079c-0.399 0-0.722-0.323-0.722-0.722v-1.603c0-0.399 0.323-0.722 0.722-0.722h0.079c0.399 0 0.722 0.323 0.722 0.722v1.603c0 0.399-0.323 0.722-0.722 0.722zM18.286 22.897v-1.603c0-0.399-0.323-0.722-0.722-0.722h-0.079c-0.399 0-0.722 0.323-0.722 0.722v1.603c0 0.399 0.323 0.722 0.722 0.722h0.079c0.399 0 0.722-0.323 0.722-0.722zM11.429 16v0 0 1.524c0 1.262 1.023 2.286 2.286 2.286h4.571c1.262 0 2.286-1.023 2.286-2.286v-1.524c0-1.262-0.512-2.405-1.339-3.233-0.297-0.298-0.779-0.297-1.077 0s-0.298 0.78-0.001 1.077c0.551 0.551 0.893 1.313 0.893 2.155v1.524c0 0.421-0.341 0.762-0.762 0.762 0 0-4.571 0-4.571 0-0.421 0-0.762-0.341-0.762-0.762v-1.524c0-1.683 1.364-3.048 3.048-3.048h-0c0.421 0 0.762-0.341 0.762-0.762v-1.524c0-1.262-1.023-2.286-2.286-2.286l-6.857-0c-1.262 0-2.286 1.023-2.286 2.286v13.714c0 1.262 1.023 2.286 2.286 2.286h16.762c1.262 0 2.286-1.023 2.286-2.286v-16.762c0-1.262-1.023-2.286-2.286-2.286l-18.286 0.001c-0.42 0-0.761 0.341-0.761 0.761s0.341 0.761 0.761 0.761h18.286c0.421 0 0.762 0.341 0.762 0.762v16.762c0 0.421-0.341 0.762-0.762 0.762h-16.762c-0.421 0-0.762-0.341-0.762-0.762v-13.714c0-0.421 0.341-0.762 0.762-0.762h6.857c0.421 0 0.762 0.341 0.762 0.762l0.001 0.825c-2.162 0.362-3.81 2.243-3.81 4.508z"></path>
</svg>
