<svg
  xmlns="http://www.w3.org/2000/svg"
  width="64"
  height="64"
  viewBox="0 0 64 64"
  fill="black"
  fill-rule="nonzero"
>
  <path d="M54.79 27H33c-1.1 0-2-.9-2-2s.9-2 2-2h2v-9c0-2.41-.96-3.84-2.09-4.78-1.13-.93-2.46-1.41-3.43-1.66L19 29.45V57h13c1.87 0 3.61-.65 4.99-1.75 1.38-1.1 2.4-2.66 2.81-4.48 0-.01.01-.03.01-.04l3.33-13.22c.18-.72.74-1.27 1.46-1.45l11-2.73h.02c.72-.17 1.34-.58 1.77-1.13.44-.55.69-1.24.69-1.98 0-.43-.09-.85-.25-1.24s-.4-.75-.71-1.05c-.31-.3-.67-.54-1.06-.69-.39-.16-.81-.24-1.24-.23h-.03zM9 31c-.83 0-1.58.33-2.12.88C6.33 32.43 6 33.17 6 34v20c0 .83.33 1.58.88 2.12.55.55 1.29.88 2.12.88h6V31zm30-8h15.78c.96-.01 1.9.17 2.78.52.88.35 1.69.88 2.38 1.56s1.23 1.48 1.59 2.35c.37.87.56 1.82.56 2.78 0 1.67-.58 3.22-1.55 4.46a7.266 7.266 0 0 1-3.97 2.54l-9.83 2.44-3.03 12.04c-.62 2.72-2.15 5.05-4.21 6.69A11.977 11.977 0 0 1 32.02 61h-23a7 7 0 0 1-7-7V34a7 7 0 0 1 7-7h6.74L26.55 4.47c.36-.75 1.13-1.19 1.96-1.13.06 0 3.93.29 6.97 2.8 1.98 1.64 3.54 4.17 3.54 7.86z" />
</svg>
