<svg
  xmlns="http://www.w3.org/2000/svg"
  width="64"
  height="64"
  viewBox="0 0 64 64"
  fill="black"
  fill-rule="nonzero"
>
  <path d="M21 61a7 7 0 0 1-7-7V10a7 7 0 0 1 7-7h22a7 7 0 0 1 7 7v44a7 7 0 0 1-7 7zm22-4c.83 0 1.58-.33 2.12-.88.55-.55.88-1.29.88-2.12V10c0-.83-.33-1.58-.88-2.12C44.57 7.33 43.83 7 43 7H21c-.83 0-1.58.33-2.12.88-.55.55-.88 1.29-.88 2.12v44c0 .83.33 1.58.88 2.12.55.55 1.29.88 2.12.88zm-13.12-3.88a2.993 2.993 0 0 1 0-4.24 2.993 2.993 0 0 1 4.24 0 2.993 2.993 0 0 1 0 4.24 2.993 2.993 0 0 1-4.24 0z" />
</svg>
