<svg
  xmlns="http://www.w3.org/2000/svg"
  width="64"
  height="64"
  viewBox="0 0 64 64"
  fill="black"
  fill-rule="nonzero"
>
  <path d="M9 53a7 7 0 0 1-7-7V18a7 7 0 0 1 7-7h46a7 7 0 0 1 7 7v28a7 7 0 0 1-7 7zm46-4c.83 0 1.58-.33 2.12-.88.55-.55.88-1.29.88-2.12V18c0-.83-.33-1.58-.88-2.12-.55-.55-1.29-.88-2.12-.88H9c-.83 0-1.58.33-2.12.88C6.33 16.43 6 17.17 6 18v28c0 .83.33 1.58.88 2.12.55.55 1.29.88 2.12.88zm-23-4c-1.1 0-2-.9-2-2V21c0-1.1.9-2 2-2s2 .9 2 2v22c0 1.1-.9 2-2 2zm-6-13c0 1.1-.9 2-2 2H12c-1.1 0-2-.9-2-2s.9-2 2-2h12c1.1 0 2 .9 2 2zm-5 8c0 1.1-.9 2-2 2h-7c-1.1 0-2-.9-2-2s.9-2 2-2h7c1.1 0 2 .9 2 2zm33-16c0 1.1-.9 2-2 2h-7c-1.1 0-2-.9-2-2s.9-2 2-2h7c1.1 0 2 .9 2 2z" />
</svg>
