<!-- Generated by IcoMoon.io -->
<svg version="1.1" xmlns="http://www.w3.org/2000/svg" width="32" height="32" viewBox="0 0 32 32">
<title>power-plug</title>
<path d="M29.151 9.152c0.356-0.356 0.352-0.935-0.012-1.285-0.357-0.344-0.932-0.318-1.282 0.033l-4.372 4.372c-0.352 0.352-0.922 0.352-1.273 0l-2.483-2.483c-0.352-0.352-0.352-0.922 0-1.273l4.372-4.372c0.351-0.351 0.377-0.925 0.033-1.282-0.35-0.364-0.93-0.368-1.285-0.012l-4.393 4.393c-0.352 0.352-0.922 0.352-1.273 0l-1.863-1.862c-0.176-0.176-0.406-0.264-0.637-0.264s-0.461 0.088-0.637 0.264l-5.835 5.835c-0.276 0.276-0.454 0.633-0.509 1.019l-1.088 7.614c-0.055 0.386-0.234 0.743-0.509 1.019l-2.091 2.091c-0.703 0.703-0.703 1.844 0 2.547l2.483 2.483c0.352 0.352 0.813 0.527 1.273 0.527s0.922-0.176 1.273-0.527l2.091-2.091c0.276-0.276 0.633-0.454 1.019-0.509l7.614-1.088c0.386-0.055 0.743-0.234 1.019-0.509l5.835-5.835c0.352-0.352 0.352-0.922 0-1.273l-1.863-1.863c-0.352-0.352-0.352-0.922 0-1.273l4.393-4.393zM24.074 17.955l-4.35 4.35c-0.138 0.138-0.316 0.227-0.509 0.255l-7.317 1.045c-0.766 0.11-1.49 0.471-2.037 1.019l-1.454 1.454c-0.352 0.352-0.922 0.352-1.273 0l-1.21-1.21c-0.352-0.352-0.352-0.922 0-1.273l1.454-1.454c0.551-0.551 0.909-1.266 1.019-2.037l1.045-7.317c0.028-0.193 0.117-0.372 0.255-0.509l4.35-4.35c0.352-0.352 0.922-0.352 1.273 0l8.755 8.755c0.352 0.352 0.352 0.922 0 1.273z"></path>
</svg>
