<!-- Generated by IcoMoon.io -->
<svg version="1.1" xmlns="http://www.w3.org/2000/svg" width="32" height="32" viewBox="0 0 32 32">
<title>power-socket</title>
<path d="M27.549 3.551h-23.097c-0.497 0-0.9 0.403-0.9 0.9v23.097c0 0.497 0.403 0.9 0.9 0.9h23.097c0.497 0 0.9-0.403 0.9-0.9v-23.097c0-0.497-0.403-0.9-0.9-0.9zM25.748 26.648h-19.496c-0.497 0-0.9-0.403-0.9-0.9v-19.496c0-0.497 0.403-0.9 0.9-0.9h19.496c0.497 0 0.9 0.403 0.9 0.9v19.496c0 0.497-0.403 0.9-0.9 0.9z"></path>
<path d="M14.222 23.828v-1.592c0-0.497 0.403-0.9 0.9-0.9h1.756c0.497 0 0.9 0.403 0.9 0.9v1.592c0 0.461 0.447 0.796 0.887 0.658 0.006-0.002 0.011-0.004 0.017-0.005 0.148-0.047 0.293-0.097 0.437-0.151s0.286-0.111 0.427-0.173c3.146-1.37 5.346-4.506 5.346-8.157 0-1.144-0.216-2.238-0.61-3.243-0.079-0.201-0.165-0.398-0.257-0.592-0.278-0.581-0.617-1.126-1.009-1.629-0.131-0.167-0.267-0.33-0.409-0.488s-0.29-0.31-0.442-0.457c-0.535-0.515-1.134-0.963-1.785-1.332-0.279-0.158-0.567-0.301-0.863-0.429-0.276-0.119-0.56-0.225-0.85-0.316-0.002-0.001-0.004-0.001-0.007-0.002-0.438-0.136-0.882 0.193-0.882 0.652 0 0.713-0 1.6-0 1.6 0 0.497-0.403 0.9-0.9 0.9h-1.756c-0.497 0-0.9-0.403-0.9-0.9v-1.592c0-0.464-0.451-0.795-0.894-0.656-0.3 0.094-0.592 0.204-0.877 0.328-0.393 0.171-0.771 0.37-1.132 0.594-0.181 0.112-0.357 0.23-0.528 0.355-0.257 0.186-0.504 0.386-0.74 0.599s-0.46 0.437-0.671 0.673-0.411 0.484-0.597 0.741c-0.124 0.172-0.242 0.348-0.353 0.529-0.056 0.090-0.11 0.182-0.163 0.274-0.105 0.185-0.204 0.374-0.296 0.567-0.552 1.158-0.861 2.454-0.861 3.823 0 3.982 2.617 7.352 6.224 8.485 0.441 0.139 0.889-0.195 0.889-0.657zM20.424 14.199c0.995 0 1.801 0.806 1.801 1.801s-0.806 1.801-1.801 1.801c-0.995 0-1.801-0.806-1.801-1.801s0.806-1.801 1.801-1.801zM11.576 14.199c0.995 0 1.801 0.806 1.801 1.801s-0.806 1.801-1.801 1.801c-0.995 0-1.801-0.806-1.801-1.801s0.806-1.801 1.801-1.801z"></path>
</svg>
