<svg
  xmlns="http://www.w3.org/2000/svg"
  width="64"
  height="64"
  viewBox="0 0 64 64"
  fill="black"
  fill-rule="nonzero"
>
  <path d="M39.74 9.28a6.003 6.003 0 0 1-5.86 4.73h-3.76c-1.66 0-3.16-.67-4.24-1.76-.8-.8-1.37-1.82-1.62-2.97a23.963 23.963 0 0 0-11.06 7.79A23.945 23.945 0 0 0 7.99 32c0 5.58 1.93 10.8 5.21 14.93 2.81 3.54 6.61 6.28 11.06 7.79a6.003 6.003 0 0 1 5.86-4.73h3.76c1.66 0 3.16.67 4.24 1.76.8.8 1.37 1.82 1.62 2.97 4.44-1.51 8.25-4.25 11.06-7.79 3.29-4.14 5.21-9.35 5.21-14.93s-1.93-10.8-5.21-14.93a23.912 23.912 0 0 0-11.06-7.79zm-3.1-4.18c.48-.38 1.1-.52 1.7-.38a27.935 27.935 0 0 1 15.6 9.85 27.97 27.97 0 0 1 6.08 17.42c0 6.52-2.25 12.6-6.08 17.42a27.916 27.916 0 0 1-15.6 9.85 2.003 2.003 0 0 1-2.46-1.95v-1.33c0-.55-.22-1.05-.59-1.41-.36-.36-.86-.59-1.41-.59h-3.76c-.55 0-1.05.22-1.41.59-.36.36-.59.86-.59 1.41v1.33c0 .61-.28 1.19-.76 1.57-.48.38-1.1.52-1.7.38a27.935 27.935 0 0 1-15.6-9.85 27.97 27.97 0 0 1-6.08-17.42c0-6.52 2.25-12.6 6.08-17.42 3.83-4.82 9.26-8.39 15.6-9.85a2.003 2.003 0 0 1 2.46 1.95V8c0 .55.22 1.05.59 1.41.36.36.86.59 1.41.59h3.76c.55 0 1.05-.22 1.41-.59.36-.36.59-.86.59-1.41V6.67c0-.61.28-1.19.76-1.57zM21.17 34.83a4.007 4.007 0 0 1 0-5.66 4.007 4.007 0 0 1 5.66 0 4.007 4.007 0 0 1 0 5.66 4.007 4.007 0 0 1-5.66 0zm16 0a4.007 4.007 0 0 1 0-5.66 4.007 4.007 0 0 1 5.66 0 4.007 4.007 0 0 1 0 5.66 4.007 4.007 0 0 1-5.66 0z" />
</svg>
