<svg
  xmlns="http://www.w3.org/2000/svg"
  width="64"
  height="64"
  viewBox="0 0 64 64"
  fill="black"
  fill-rule="nonzero"
>
  <path d="M32 23c-1.1 0-2-.9-2-2V5c0-1.1.9-2 2-2s2 .9 2 2v16c0 1.1-.9 2-2 2zM24.85 9a2 2 0 0 1-1.1 2.6 21.969 21.969 0 0 0-11.09 9.9 21.98 21.98 0 0 0-2.26 14.69A21.94 21.94 0 0 0 18 48.96c3.83 3.16 8.73 5.02 13.99 5.02 5.27 0 10.16-1.86 13.99-5.02 3.83-3.16 6.6-7.61 7.6-12.77 1.01-5.17.11-10.33-2.26-14.69a21.924 21.924 0 0 0-11.09-9.9 1.992 1.992 0 0 1-1.1-2.6 1.992 1.992 0 0 1 2.6-1.1 25.914 25.914 0 0 1 13.1 11.7c2.8 5.16 3.86 11.26 2.67 17.37a25.947 25.947 0 0 1-8.99 15.1 25.963 25.963 0 0 1-16.54 5.94c-6.22 0-12.01-2.21-16.54-5.94-4.53-3.73-7.8-8.99-8.99-15.1A25.945 25.945 0 0 1 9.11 19.6a25.95 25.95 0 0 1 13.1-11.7 2 2 0 0 1 2.6 1.1z" />
</svg>
