<!-- Generated by IcoMoon.io -->
<svg version="1.1" xmlns="http://www.w3.org/2000/svg" width="32" height="32" viewBox="0 0 32 32">
<title>presslabs</title>
<path d="M16 11.47h-3.6c-0.47-0.050-0.834-0.445-0.834-0.925s0.363-0.875 0.83-0.925l0.004-0h3.6c0.471 0.050 0.834 0.445 0.834 0.925s-0.363 0.875-0.83 0.925l-0.004 0zM16.92 15.1c0-0 0-0 0-0 0-0.51-0.411-0.924-0.919-0.93h-4.481c-0.514 0-0.93 0.416-0.93 0.93s0.416 0.93 0.93 0.93h4.48c0.505-0.011 0.91-0.423 0.91-0.93 0-0 0-0 0-0v0zM23.46 27.1c1.117-0.556 1.871-1.69 1.871-3 0-0.527-0.122-1.026-0.34-1.47l0.009 0.020-3.4-7.33c-0.632-1.359-1.001-2.949-1.001-4.626 0-0.054 0-0.108 0.001-0.162l-0 0.008v-5.23c0 0 0 0 0-0 0-1.182-0.958-2.14-2.14-2.14-0.004 0-0.007 0-0.011 0h-5.999c-0.45 0.070-0.791 0.455-0.791 0.919 0 0.447 0.315 0.82 0.735 0.909l0.006 0.001h6c0.003-0 0.006-0 0.010-0 0.16 0 0.29 0.13 0.29 0.29 0 0 0 0 0 0v0 5.23c-0 0.032-0 0.070-0 0.108 0 1.985 0.442 3.867 1.234 5.552l-0.034-0.080 3.4 7.34c0.089 0.187 0.141 0.406 0.141 0.637 0 0.598-0.348 1.115-0.852 1.359l-0.009 0.004c-1.917 0.982-4.181 1.558-6.579 1.56h-0.001c-0.036 0-0.078 0-0.121 0-2.361 0-4.587-0.573-6.549-1.588l0.080 0.037c-0.513-0.248-0.861-0.765-0.861-1.363 0-0.231 0.052-0.45 0.145-0.646l-0.004 0.009 1.31-2.71c0.049-0.092 0.142-0.154 0.249-0.16l0.001-0h6.75c0.471-0.050 0.834-0.445 0.834-0.925s-0.363-0.875-0.83-0.925l-0.004-0h-6.8c-0.83 0.003-1.549 0.477-1.904 1.168l-0.006 0.012-1.29 2.73c-0.203 0.42-0.322 0.913-0.322 1.433 0 1.304 0.745 2.434 1.833 2.988l0.019 0.009c2.128 1.11 4.647 1.761 7.318 1.761 0.053 0 0.107-0 0.16-0.001l-0.008 0c0.009 0 0.020 0 0.030 0 2.706 0 5.259-0.65 7.513-1.803l-0.093 0.043z"></path>
</svg>
