<svg
  xmlns="http://www.w3.org/2000/svg"
  width="64"
  height="64"
  viewBox="0 0 64 64"
  fill="black"
  fill-rule="nonzero"
>
  <path d="M49.05 57.38a7.66 7.66 0 0 0 3.5-10.22v.05l-7.76-16.76a25.32 25.32 0 0 1-2.29-10.58V7.56a4.89 4.89 0 0 0-4.9-4.89H23.87a2.13 2.13 0 0 0-.13 4.18H37.5a.66.66 0 0 1 .66.66v12.21A29.78 29.78 0 0 0 41 32.41l-.07-.18L48.68 49a3.47 3.47 0 0 1 .32 1.47 3.43 3.43 0 0 1-2 3.1 33.16 33.16 0 0 1-15 3.57h-.28a32.49 32.49 0 0 1-15-3.63l.18.08a3.45 3.45 0 0 1-2-3.11 3.35 3.35 0 0 1 .39-1.48l3-6.2a.68.68 0 0 1 .57-.36h15.42a2.13 2.13 0 0 0 0-4.23H18.73a4.91 4.91 0 0 0-4.35 2.67l-2.95 6.24a7.68 7.68 0 0 0 3.46 10.11 36.41 36.41 0 0 0 16.73 4h.42a37.7 37.7 0 0 0 17.18-4.12l-.22.1zm-15-27.44A2.12 2.12 0 0 0 32 27.82H21.75a2.13 2.13 0 1 0 0 4.25H32a2.13 2.13 0 0 0 2.08-2.13zM32 21.64h-8.24a2.13 2.13 0 0 1 0-4.23H32a2.13 2.13 0 0 1 0 4.23z" />
</svg>
