<!-- Generated by IcoMoon.io -->
<svg version="1.1" xmlns="http://www.w3.org/2000/svg" width="32" height="32" viewBox="0 0 32 32">
<title>presslabs</title>
<path d="M15.947 26.995c-2.138 0-4.275-0.495-6.224-1.485l-0.013-0.007c-1.395-0.709-1.963-2.443-1.264-3.864l1.113-2.262c0.308-0.625 0.926-1.013 1.614-1.013h5.626c0.427 0 0.773 0.352 0.773 0.786s-0.346 0.786-0.773 0.786h-5.626c-0.098 0-0.187 0.055-0.23 0.145l-1.113 2.262c-0.318 0.646-0.059 1.434 0.576 1.757l0.013 0.007c3.46 1.758 7.597 1.759 11.061-0.002l0.115-0.059c0.606-0.308 0.874-1.042 0.613-1.676l-2.892-6.28c-0.682-1.482-0.935-3.13-0.936-4.765l-0.003-4.485c-0-0.144-0.116-0.262-0.258-0.262h-4.488c-0.427 0-0.773-0.352-0.773-0.786s0.346-0.786 0.773-0.786h4.488c0.994 0 1.803 0.822 1.804 1.832l0.003 4.485c0.001 1.407 0.203 2.825 0.79 4.101l2.908 6.317c0.59 1.4 0.002 3.030-1.338 3.711l-0.115 0.059c-1.949 0.99-4.087 1.486-6.224 1.486z"></path>
<path d="M16 16h-3.665c-0.434 0-0.785-0.352-0.785-0.785s0.352-0.785 0.785-0.785h3.665c0.434 0 0.785 0.352 0.785 0.785s-0.352 0.785-0.785 0.785z"></path>
<path d="M16 12.073h-2.356c-0.434 0-0.785-0.352-0.785-0.785s0.352-0.785 0.785-0.785h2.356c0.434 0 0.785 0.352 0.785 0.785s-0.352 0.785-0.785 0.785z"></path>
</svg>
