<svg
  xmlns="http://www.w3.org/2000/svg"
  width="64"
  height="64"
  viewBox="0 0 64 64"
  fill="black"
  fill-rule="nonzero"
>
  <path d="M14 59v-9h-4a7 7 0 0 1-7-7V29a7 7 0 0 1 7-7h4V5c0-1.1.9-2 2-2h32c1.1 0 2 .9 2 2v17h4a7 7 0 0 1 7 7v14a7 7 0 0 1-7 7h-4v9c0 1.1-.9 2-2 2H16c-1.1 0-2-.9-2-2zm0-21c0-1.1.9-2 2-2h32c1.1 0 2 .9 2 2v8h4c.83 0 1.58-.33 2.12-.88.55-.55.88-1.29.88-2.12V29c0-.83-.33-1.58-.88-2.12-.55-.55-1.29-.88-2.12-.88H10c-.83 0-1.58.33-2.12.88C7.33 27.43 7 28.17 7 29v14c0 .83.33 1.58.88 2.12.55.55 1.29.88 2.12.88h4zm32 19V40H18v17zm0-50H18v15h28z" />
</svg>
