<!-- Generated by IcoMoon.io -->
<svg version="1.1" xmlns="http://www.w3.org/2000/svg" width="32" height="32" viewBox="0 0 32 32">
<title>print</title>
<path d="M30.207 23.366c-0.009 0.060-0.021 0.118-0.036 0.176 0.015-0.058 0.027-0.116 0.036-0.176z"></path>
<path d="M30.171 23.541c-0.022 0.086-0.051 0.17-0.085 0.251 0.034-0.081 0.063-0.165 0.085-0.251z"></path>
<path d="M29.87 24.169c-0.035 0.046-0.071 0.091-0.11 0.133 0.039-0.043 0.076-0.087 0.11-0.133z"></path>
<path d="M2.639 24.631c-0.050-0.030-0.097-0.062-0.144-0.097 0.046 0.035 0.094 0.067 0.144 0.097z"></path>
<path d="M2.24 24.302c-0.039-0.043-0.075-0.087-0.11-0.133 0.035 0.046 0.071 0.091 0.11 0.133z"></path>
<path d="M3.299 24.871c-0.060-0.009-0.118-0.021-0.176-0.036 0.058 0.015 0.116 0.027 0.176 0.036z"></path>
<path d="M28.877 24.836c-0.058 0.015-0.116 0.027-0.176 0.036 0.060-0.009 0.118-0.021 0.176-0.036z"></path>
<path d="M2.13 24.169c-0.035-0.046-0.067-0.094-0.097-0.144 0.030 0.050 0.062 0.097 0.097 0.144z"></path>
<path d="M29.504 24.534c-0.046 0.035-0.094 0.067-0.144 0.097 0.049-0.030 0.097-0.062 0.144-0.097z"></path>
<path d="M30.086 23.792c-0.034 0.081-0.074 0.159-0.119 0.233 0.045-0.074 0.085-0.152 0.119-0.233z"></path>
<path d="M1.829 23.541c-0.015-0.058-0.027-0.116-0.036-0.176 0.009 0.060 0.021 0.118 0.036 0.176z"></path>
<path d="M1.914 23.792c-0.034-0.081-0.063-0.165-0.085-0.251 0.022 0.086 0.051 0.17 0.085 0.251z"></path>
<path d="M2.033 24.025c-0.045-0.074-0.085-0.152-0.119-0.233 0.034 0.081 0.074 0.159 0.119 0.233z"></path>
<path d="M29.967 24.025c-0.030 0.050-0.062 0.097-0.097 0.144 0.035-0.046 0.067-0.094 0.097-0.144z"></path>
<path d="M30.147 11.93c-0.009-0.028-0.018-0.056-0.028-0.084-0.020-0.055-0.043-0.109-0.068-0.162-0.013-0.026-0.026-0.052-0.040-0.078-0.305-0.561-0.9-0.942-1.584-0.942h-1.526c-0.115 0-0.208-0.093-0.208-0.208v-0.681c0-0.927-0.704-1.689-1.607-1.78-0.105-0.011-0.183-0.102-0.184-0.208l-0.010-2.228c0-0.147-0.058-0.288-0.162-0.392l-3.232-3.232c-0.104-0.104-0.245-0.162-0.392-0.162h-12.197c-0.995 0-1.801 0.806-1.801 1.801l-0.011 4.214c-0 0.106-0.078 0.197-0.183 0.208-0.902 0.092-1.607 0.854-1.607 1.78v0.681c0 0.115-0.093 0.208-0.208 0.208h-1.526c-0.684 0-1.279 0.381-1.583 0.942-0.014 0.025-0.027 0.051-0.040 0.078-0.025 0.053-0.048 0.106-0.068 0.162-0.010 0.028-0.020 0.055-0.028 0.084-0.053 0.169-0.081 0.349-0.081 0.536v0 10.626c0 0.093 0.007 0.185 0.021 0.274 0.009 0.060 0.021 0.118 0.036 0.176 0.022 0.086 0.051 0.17 0.085 0.251s0.074 0.159 0.119 0.233c0.030 0.050 0.062 0.097 0.097 0.144s0.071 0.091 0.11 0.133c0.078 0.085 0.163 0.163 0.256 0.232 0.046 0.035 0.094 0.067 0.144 0.097 0.148 0.090 0.311 0.16 0.484 0.204 0.058 0.015 0.116 0.027 0.176 0.036 0.089 0.014 0.181 0.021 0.274 0.021h2.98c0.306 0 0.554 0.248 0.554 0.554v2.98c0 0.995 0.806 1.801 1.801 1.801h14.183c0.995 0 1.801-0.806 1.801-1.801v-2.98c0-0.306 0.248-0.554 0.554-0.554h2.98c0.093 0 0.185-0.007 0.274-0.021 0.060-0.009 0.118-0.021 0.176-0.036 0.173-0.044 0.335-0.114 0.484-0.204 0.050-0.030 0.097-0.062 0.144-0.097s0.091-0.071 0.133-0.11c0.043-0.039 0.083-0.079 0.122-0.122s0.076-0.087 0.11-0.133c0.035-0.046 0.067-0.094 0.097-0.144 0.045-0.074 0.085-0.152 0.119-0.233s0.063-0.165 0.085-0.251c0.015-0.058 0.027-0.116 0.036-0.176 0.014-0.089 0.021-0.181 0.021-0.274v-10.626c-0-0.187-0.028-0.366-0.081-0.536zM20.833 3.817l2.015 2.015c0.156 0.156 0.243 0.367 0.243 0.588v3.669c0 0.306-0.248 0.554-0.554 0.554h-13.075c-0.306 0-0.554-0.248-0.554-0.554v-5.961c0-0.306 0.248-0.554 0.554-0.554h10.782c0.22-0 0.432 0.087 0.588 0.243zM22.537 28.427h-13.074c-0.306 0-0.554-0.248-0.554-0.554v-5.961c0-0.306 0.248-0.554 0.554-0.554h13.074c0.306 0 0.554 0.248 0.554 0.554v5.961c0 0.306-0.248 0.554-0.554 0.554zM27.873 23.091h-2.426c-0.306 0-0.554-0.248-0.554-0.554v-2.426c0-0.306-0.248-0.554-0.554-0.554h-16.676c-0.306 0-0.554 0.248-0.554 0.554v2.426c0 0.306-0.248 0.554-0.554 0.554h-2.426c-0.306 0-0.554-0.248-0.554-0.554v-9.518c0-0.306 0.248-0.554 0.554-0.554h23.745c0.306 0 0.554 0.248 0.554 0.554v9.518c0 0.306-0.248 0.554-0.554 0.554z"></path>
<path d="M6.219 16.9h7.114c0.497 0 0.9-0.403 0.9-0.9s-0.403-0.9-0.9-0.9h-7.114c-0.497 0-0.9 0.403-0.9 0.9s0.403 0.9 0.9 0.9z"></path>
<path d="M24.009 16.176c0.012 0.058 0.029 0.114 0.051 0.168s0.050 0.107 0.083 0.155c0.016 0.025 0.034 0.049 0.053 0.071s0.038 0.045 0.059 0.066c0.020 0.021 0.042 0.041 0.065 0.060s0.047 0.036 0.071 0.053c0.048 0.032 0.101 0.060 0.155 0.082s0.111 0.039 0.169 0.051c0.028 0.006 0.058 0.010 0.087 0.013s0.059 0.005 0.089 0.005c0.029 0 0.059-0.002 0.088-0.005s0.059-0.007 0.088-0.013c0.058-0.012 0.114-0.028 0.168-0.051s0.107-0.051 0.155-0.082c0.025-0.017 0.049-0.034 0.071-0.053s0.045-0.039 0.066-0.060c0.021-0.021 0.041-0.043 0.060-0.066s0.036-0.046 0.052-0.071 0.060-0.101 0.083-0.155c0.022-0.054 0.039-0.111 0.051-0.168 0.005-0.029 0.010-0.058 0.013-0.087s0.005-0.059 0.005-0.089c0-0.030-0.002-0.060-0.005-0.089s-0.008-0.059-0.013-0.087c-0.012-0.057-0.029-0.114-0.051-0.168s-0.051-0.107-0.083-0.156c-0.016-0.024-0.034-0.048-0.052-0.071s-0.039-0.045-0.060-0.066-0.043-0.041-0.066-0.060c-0.023-0.019-0.046-0.037-0.071-0.053-0.049-0.033-0.101-0.060-0.155-0.083s-0.111-0.039-0.168-0.051c-0.029-0.006-0.058-0.010-0.088-0.013-0.058-0.006-0.118-0.006-0.177 0-0.029 0.003-0.059 0.008-0.087 0.013-0.058 0.012-0.114 0.029-0.169 0.051s-0.107 0.051-0.155 0.083c-0.024 0.016-0.049 0.034-0.071 0.053s-0.045 0.039-0.065 0.060c-0.021 0.021-0.041 0.043-0.059 0.066s-0.037 0.046-0.053 0.071c-0.033 0.049-0.060 0.101-0.083 0.156s-0.039 0.111-0.051 0.168c-0.006 0.028-0.010 0.058-0.013 0.087s-0.004 0.059-0.004 0.089c0 0.029 0.001 0.059 0.004 0.089s0.008 0.058 0.013 0.087z"></path>
</svg>
