<svg
  xmlns="http://www.w3.org/2000/svg"
  width="64"
  height="64"
  viewBox="0 0 64 64"
  fill="black"
  fill-rule="nonzero"
>
  <path d="M28 20c-1.1 0-2.11-.45-2.83-1.17A3.99 3.99 0 0 1 24 16V8c0-1.1.45-2.11 1.17-2.83A3.99 3.99 0 0 1 28 4h8c1.1 0 2.11.45 2.83 1.17A3.99 3.99 0 0 1 40 8v8c0 1.1-.45 2.11-1.17 2.83A3.99 3.99 0 0 1 36 20zm8-12h-8v8h8zm-8 32c-1.1 0-2.11-.45-2.83-1.17A3.99 3.99 0 0 1 24 36v-8c0-1.1.45-2.11 1.17-2.83A3.99 3.99 0 0 1 28 24h8c1.1 0 2.11.45 2.83 1.17A3.99 3.99 0 0 1 40 28v8c0 1.1-.45 2.11-1.17 2.83A3.99 3.99 0 0 1 36 40zm8-4v-8h-8v8zm-8 24c-1.1 0-2.11-.45-2.83-1.17A3.99 3.99 0 0 1 24 56v-8c0-1.1.45-2.11 1.17-2.83A3.99 3.99 0 0 1 28 44h8c1.1 0 2.11.45 2.83 1.17A3.99 3.99 0 0 1 40 48v8c0 1.1-.45 2.11-1.17 2.83A3.99 3.99 0 0 1 36 60zm8-4v-8h-8v8zM20 12a1.994 1.994 0 0 1-.58 1.42l-5 5c-.78.78-2.05.78-2.83 0-.78-.78-.78-2.05 0-2.83L13.18 14h-2.17c-.83 0-1.58.33-2.12.88-.55.55-.88 1.29-.88 2.12v30c0 .83.33 1.58.88 2.12.55.55 1.29.88 2.12.88h7c1.1 0 2 .9 2 2s-.9 2-2 2h-7a7 7 0 0 1-7-7V17a7 7 0 0 1 7-7h2.17l-1.59-1.59c-.78-.78-.78-2.05 0-2.83.78-.78 2.05-.78 2.83 0l5 5c.19.19.34.41.43.65.1.24.15.49.15.77zm22 20a1.994 1.994 0 0 1 .58-1.42l5-5c.78-.78 2.05-.78 2.83 0 .78.78.78 2.05 0 2.83L48.82 30h2.17c.83 0 1.58-.33 2.12-.88.55-.55.88-1.29.88-2.12V17c0-.83-.33-1.58-.88-2.12-.55-.55-1.29-.88-2.12-.88h-7c-1.1 0-2-.9-2-2s.9-2 2-2h7a7 7 0 0 1 7 7v10a7 7 0 0 1-7 7h-2.17l1.59 1.59c.78.78.78 2.05 0 2.83-.78.78-2.05.78-2.83 0l-5-5c-.19-.19-.34-.41-.43-.65-.1-.24-.15-.49-.15-.77z" />
</svg>
