<!-- Generated by IcoMoon.io -->
<svg version="1.1" xmlns="http://www.w3.org/2000/svg" width="32" height="32" viewBox="0 0 32 32">
<title>pull</title>
<path d="M5.019 14.233c1.596 0.125 2.998-0.797 3.59-2.151 0.143-0.327 0.467-0.539 0.824-0.539h12.227c0.361 0 0.687 0.216 0.828 0.548 0.581 1.369 1.986 2.307 3.589 2.188 1.761-0.13 3.182-1.547 3.318-3.308 0.163-2.114-1.511-3.886-3.591-3.886-1.462 0-2.724 0.876-3.287 2.132-0.144 0.321-0.466 0.525-0.818 0.525h-12.266c-0.355 0-0.68-0.208-0.822-0.534-0.555-1.274-1.827-2.167-3.304-2.167-2.080 0-3.754 1.772-3.591 3.886 0.135 1.755 1.548 3.169 3.302 3.306zM24.637 9.316c0.314-0.268 0.722-0.43 1.167-0.43 0.684 0 1.279 0.381 1.584 0.942 0.069 0.128 0.124 0.264 0.161 0.408 0.015 0.058 0.027 0.116 0.036 0.176 0.014 0.089 0.021 0.181 0.021 0.274v0c0 0.124-0.013 0.246-0.037 0.363-0.012 0.059-0.027 0.116-0.044 0.173-0.009 0.028-0.018 0.056-0.028 0.084-0.020 0.055-0.043 0.109-0.068 0.162-0.013 0.026-0.026 0.052-0.040 0.078-0.028 0.051-0.058 0.101-0.090 0.149s-0.067 0.094-0.104 0.139c-0.11 0.133-0.239 0.251-0.383 0.348-0.192 0.129-0.41 0.223-0.644 0.271-0.117 0.024-0.239 0.037-0.363 0.037s-0.246-0.013-0.363-0.037c-0.234-0.048-0.452-0.142-0.644-0.271-0.144-0.097-0.273-0.214-0.383-0.348-0.037-0.044-0.071-0.091-0.104-0.139s-0.062-0.097-0.090-0.149c-0-0.001-0.001-0.002-0.001-0.003-0.013-0.025-0.026-0.050-0.038-0.075-0.025-0.053-0.048-0.106-0.068-0.162-0.010-0.028-0.020-0.055-0.028-0.084-0.018-0.056-0.032-0.114-0.044-0.173-0.024-0.117-0.037-0.239-0.037-0.363 0-0.015 0.001-0.030 0.001-0.045 0.008-0.33 0.104-0.638 0.267-0.9 0.099-0.16 0.223-0.304 0.366-0.426zM3.527 10.368c0.009-0.060 0.021-0.118 0.036-0.176 0.022-0.086 0.051-0.17 0.085-0.251s0.074-0.159 0.119-0.233c0.030-0.050 0.062-0.097 0.097-0.144s0.071-0.091 0.11-0.133c0.039-0.043 0.080-0.083 0.122-0.122s0.087-0.075 0.133-0.11 0.094-0.067 0.144-0.097c0.074-0.045 0.152-0.085 0.233-0.119s0.165-0.063 0.251-0.085c0.058-0.015 0.116-0.027 0.176-0.036 0.089-0.014 0.181-0.021 0.274-0.021 0.528 0 1.004 0.228 1.333 0.59 0.039 0.043 0.075 0.087 0.11 0.133s0.067 0.094 0.097 0.144c0.007 0.011 0.013 0.022 0.019 0.033 0.037 0.064 0.071 0.131 0.1 0.199 0.034 0.081 0.063 0.165 0.085 0.251 0.037 0.144 0.057 0.295 0.057 0.45 0 0.328-0.088 0.636-0.242 0.9-0.311 0.538-0.893 0.9-1.559 0.9-0.093 0-0.185-0.007-0.274-0.021-0.060-0.009-0.118-0.021-0.176-0.036-0.086-0.022-0.17-0.051-0.251-0.085s-0.159-0.074-0.233-0.119c-0.050-0.030-0.097-0.062-0.144-0.097s-0.091-0.071-0.133-0.11c-0.085-0.078-0.163-0.163-0.232-0.255-0.035-0.046-0.067-0.094-0.097-0.144-0.090-0.149-0.16-0.311-0.204-0.484-0.015-0.058-0.027-0.116-0.036-0.176-0.014-0.089-0.021-0.181-0.021-0.274s0.007-0.185 0.021-0.274z"></path>
<path d="M28.969 22.421c-0.383-0.287-0.925-0.209-1.212 0.173l-0.803 1.070c-0.080 0.107-0.249 0.050-0.249-0.083v-0.445c0-2.486-2.016-4.502-4.502-4.502h-12.79c-0.353 0-0.675-0.207-0.82-0.529-0.597-1.325-1.971-2.226-3.538-2.119-1.77 0.122-3.205 1.546-3.338 3.316-0.159 2.111 1.514 3.879 3.591 3.879 1.49 0 2.771-0.91 3.318-2.203 0.14-0.331 0.467-0.543 0.826-0.543h12.751c1.492 0 2.701 1.209 2.701 2.701v0.505c0 0.133-0.169 0.19-0.249 0.083l-0.848-1.13c-0.287-0.382-0.83-0.46-1.212-0.173s-0.46 0.83-0.173 1.212l2.668 3.557c0.163 0.218 0.42 0.346 0.693 0.346s0.529-0.128 0.693-0.346l2.668-3.557c0.287-0.383 0.209-0.925-0.173-1.212zM6.89 20.438c-0.028 0.051-0.058 0.101-0.090 0.148s-0.067 0.094-0.104 0.139c-0.11 0.133-0.239 0.251-0.383 0.348-0.192 0.129-0.409 0.223-0.644 0.271-0.117 0.024-0.239 0.037-0.363 0.037-0.559 0-1.059-0.255-1.39-0.655-0.073-0.089-0.138-0.185-0.194-0.287-0.014-0.026-0.027-0.051-0.040-0.078-0.025-0.052-0.048-0.106-0.068-0.162-0.010-0.028-0.020-0.055-0.028-0.084-0.053-0.169-0.081-0.349-0.081-0.536v0c0-0.099 0.008-0.196 0.024-0.29 0.008-0.047 0.017-0.094 0.028-0.14 0.012-0.050 0.026-0.099 0.043-0.146 0.049-0.144 0.115-0.279 0.196-0.404 0.010-0.016 0.021-0.031 0.031-0.047 0.020-0.029 0.042-0.058 0.063-0.086 0.33-0.419 0.841-0.688 1.415-0.688 0.648 0 1.216 0.342 1.533 0.856 0.021 0.034 0.041 0.069 0.060 0.105 0.133 0.251 0.208 0.537 0.208 0.84 0 0.124-0.013 0.246-0.037 0.363-0.012 0.059-0.027 0.116-0.044 0.173-0.009 0.028-0.018 0.056-0.028 0.084-0.020 0.055-0.043 0.109-0.068 0.162-0.012 0.025-0.025 0.050-0.038 0.075-0 0.001-0.001 0.002-0.001 0.003z"></path>
</svg>
