<svg
  xmlns="http://www.w3.org/2000/svg"
  width="64"
  height="64"
  viewBox="0 0 64 64"
  fill="black"
  fill-rule="nonzero"
>
  <path d="M50 32c0 1.1-.9 2-2 2h-5c-.89 0-1.67-.58-1.92-1.43l-5.72-19.31-9.4 46.15a1.996 1.996 0 1 1-3.89.11l-8.1-30.78-1.04 3.8c-.24.87-1.03 1.47-1.93 1.47H5c-1.1 0-2-.9-2-2s.9-2 2-2h4.47l2.6-9.53c.24-.87 1.03-1.48 1.94-1.47.91 0 1.69.62 1.93 1.49l7.82 29.71 9.29-45.6c.18-.9.96-1.56 1.87-1.6.92-.04 1.74.55 2 1.43l7.58 25.57h3.51c1.1 0 2 .9 2 2zm3 0c0-1.1.9-2 2-2h4c1.1 0 2 .9 2 2s-.9 2-2 2h-4c-1.1 0-2-.9-2-2z" />
</svg>
