<!-- Generated by IcoMoon.io -->
<svg version="1.1" xmlns="http://www.w3.org/2000/svg" width="32" height="32" viewBox="0 0 32 32">
<title>push</title>
<path d="M5.019 14.233c1.596 0.125 2.998-0.797 3.59-2.151 0.143-0.327 0.467-0.539 0.824-0.539h12.227c0.361 0 0.687 0.216 0.828 0.548 0.581 1.369 1.986 2.307 3.589 2.188 1.761-0.13 3.182-1.547 3.318-3.308 0.163-2.114-1.511-3.886-3.591-3.886-1.462 0-2.724 0.876-3.287 2.132-0.144 0.321-0.466 0.525-0.818 0.525h-12.266c-0.355 0-0.68-0.208-0.822-0.534-0.555-1.274-1.827-2.167-3.304-2.167-2.080 0-3.754 1.772-3.591 3.886 0.135 1.755 1.548 3.169 3.302 3.306zM24.637 9.316c0.314-0.268 0.722-0.43 1.167-0.43 0.684 0 1.279 0.381 1.584 0.942 0.069 0.128 0.124 0.264 0.161 0.408 0.015 0.058 0.027 0.116 0.036 0.176 0.014 0.089 0.021 0.181 0.021 0.274v0c0 0.124-0.013 0.246-0.037 0.363-0.012 0.059-0.027 0.116-0.044 0.173-0.009 0.028-0.018 0.056-0.028 0.084-0.020 0.055-0.043 0.109-0.068 0.162-0.013 0.026-0.026 0.052-0.040 0.078-0.028 0.051-0.058 0.101-0.090 0.149s-0.067 0.094-0.104 0.139c-0.11 0.133-0.239 0.251-0.383 0.348-0.192 0.129-0.41 0.223-0.644 0.271-0.117 0.024-0.239 0.037-0.363 0.037s-0.246-0.013-0.363-0.037c-0.234-0.048-0.452-0.142-0.644-0.271-0.144-0.097-0.273-0.214-0.383-0.348-0.037-0.044-0.071-0.091-0.104-0.139s-0.062-0.097-0.090-0.149c-0-0.001-0.001-0.002-0.001-0.003-0.013-0.025-0.026-0.050-0.038-0.075-0.025-0.053-0.048-0.106-0.068-0.162-0.010-0.028-0.020-0.055-0.028-0.084-0.018-0.056-0.032-0.114-0.044-0.173-0.024-0.117-0.037-0.239-0.037-0.363 0-0.015 0.001-0.030 0.001-0.045 0.008-0.33 0.104-0.638 0.267-0.9 0.099-0.16 0.223-0.304 0.366-0.426zM3.527 10.368c0.009-0.060 0.021-0.118 0.036-0.176 0.022-0.086 0.051-0.17 0.085-0.251s0.074-0.159 0.119-0.233c0.030-0.050 0.062-0.097 0.097-0.144s0.071-0.091 0.11-0.133c0.039-0.043 0.080-0.083 0.122-0.122s0.087-0.075 0.133-0.11 0.094-0.067 0.144-0.097c0.074-0.045 0.152-0.085 0.233-0.119s0.165-0.063 0.251-0.085c0.058-0.015 0.116-0.027 0.176-0.036 0.089-0.014 0.181-0.021 0.274-0.021 0.528 0 1.004 0.228 1.333 0.59 0.039 0.043 0.075 0.087 0.11 0.133s0.067 0.094 0.097 0.144c0.007 0.011 0.013 0.022 0.019 0.033 0.037 0.064 0.071 0.131 0.1 0.199 0.034 0.081 0.063 0.165 0.085 0.251 0.037 0.144 0.057 0.295 0.057 0.45 0 0.328-0.088 0.636-0.242 0.9-0.311 0.538-0.893 0.9-1.559 0.9-0.093 0-0.185-0.007-0.274-0.021-0.060-0.009-0.118-0.021-0.176-0.036-0.086-0.022-0.17-0.051-0.251-0.085s-0.159-0.074-0.233-0.119c-0.050-0.030-0.097-0.062-0.144-0.097s-0.091-0.071-0.133-0.11c-0.085-0.078-0.163-0.163-0.232-0.255-0.035-0.046-0.067-0.094-0.097-0.144-0.090-0.149-0.16-0.311-0.204-0.484-0.015-0.058-0.027-0.116-0.036-0.176-0.014-0.089-0.021-0.181-0.021-0.274s0.007-0.185 0.021-0.274z"></path>
<path d="M26.474 15.481c-0.163-0.218-0.42-0.346-0.693-0.346s-0.529 0.128-0.693 0.346l-2.668 3.557c-0.287 0.382-0.209 0.925 0.173 1.212s0.925 0.209 1.212-0.173l0.848-1.13c0.080-0.107 0.249-0.050 0.249 0.083v0.505c0 1.492-1.209 2.701-2.701 2.701h-12.77c-0.357 0-0.681-0.211-0.824-0.539-0.592-1.354-1.994-2.276-3.59-2.151-1.755 0.137-3.167 1.551-3.302 3.306-0.163 2.114 1.511 3.886 3.591 3.886 1.476 0 2.748-0.893 3.304-2.167 0.142-0.326 0.466-0.534 0.822-0.534h12.77c2.486 0 4.502-2.016 4.502-4.502v-0.445c0-0.133 0.169-0.19 0.249-0.083l0.803 1.070c0.17 0.227 0.43 0.346 0.693 0.346 0.181 0 0.363-0.056 0.519-0.173 0.382-0.287 0.46-0.83 0.173-1.212l-2.668-3.557zM5.307 24.937c-0.093 0-0.185-0.007-0.274-0.021-0.060-0.009-0.118-0.021-0.176-0.036-0.086-0.022-0.17-0.051-0.251-0.085s-0.159-0.074-0.233-0.119c-0.050-0.030-0.097-0.062-0.144-0.097s-0.091-0.071-0.133-0.11c-0.085-0.078-0.163-0.163-0.232-0.256-0.035-0.046-0.067-0.094-0.097-0.144-0.090-0.148-0.16-0.311-0.204-0.484-0.015-0.058-0.027-0.116-0.036-0.176-0.014-0.089-0.021-0.181-0.021-0.274s0.007-0.185 0.021-0.274c0.009-0.060 0.021-0.118 0.036-0.176 0.022-0.086 0.051-0.17 0.085-0.251s0.074-0.159 0.119-0.233c0.030-0.050 0.062-0.097 0.097-0.144s0.071-0.091 0.11-0.133c0.039-0.043 0.080-0.083 0.122-0.122s0.087-0.076 0.133-0.11 0.094-0.067 0.144-0.097c0.074-0.045 0.152-0.085 0.233-0.119s0.165-0.063 0.251-0.085c0.058-0.015 0.116-0.027 0.176-0.036 0.089-0.014 0.181-0.021 0.274-0.021 0.528 0 1.004 0.228 1.333 0.59 0.039 0.043 0.075 0.087 0.11 0.133s0.067 0.094 0.097 0.144c0.007 0.011 0.013 0.022 0.019 0.033 0.037 0.064 0.071 0.131 0.1 0.199 0.034 0.081 0.063 0.165 0.085 0.251 0.037 0.144 0.057 0.295 0.057 0.45 0 0.328-0.088 0.636-0.242 0.9-0.311 0.538-0.893 0.9-1.559 0.9z"></path>
</svg>
