<!-- Generated by IcoMoon.io -->
<svg version="1.1" xmlns="http://www.w3.org/2000/svg" width="32" height="32" viewBox="0 0 32 32">
<title>puzzle</title>
<path d="M13.554 9.3v0zM11.561 9.602c0.072-0.011 0.142 0.035 0.157 0.107 0.421 1.977 2.181 3.465 4.282 3.465 0.101 0 0.204-0.004 0.305-0.010 1.965-0.135 3.576-1.573 3.977-3.452 0.015-0.072 0.083-0.121 0.156-0.11l2.74 0.415c0.086 0.013 0.139 0.102 0.11 0.184l-0.839 2.331c-0.214 0.594-0.125 1.256 0.237 1.771 0.363 0.517 0.957 0.826 1.589 0.826 0.46 0 0.907-0.165 1.259-0.465 0.224-0.191 0.604-0.419 1.139-0.419 0.034 0 0.068 0.001 0.102 0.003 0.861 0.047 1.585 0.756 1.649 1.614 0.040 0.54-0.156 1.051-0.552 1.422-0.34 0.319-0.8 0.489-1.266 0.472-0.5-0.018-0.857-0.235-1.071-0.417-0.352-0.3-0.799-0.465-1.259-0.465-0.631 0-1.226 0.309-1.589 0.826-0.362 0.515-0.45 1.177-0.236 1.771l0.839 2.331c0.030 0.082-0.023 0.171-0.11 0.184l-2.739 0.415c-0.072 0.011-0.142-0.035-0.157-0.107-0.421-1.977-2.181-3.465-4.282-3.465-0.101 0-0.204 0.004-0.305 0.010-1.965 0.135-3.576 1.573-3.977 3.452-0.015 0.072-0.083 0.121-0.156 0.11l-2.74-0.415c-0.086-0.013-0.139-0.102-0.11-0.184l0.839-2.331c0.214-0.594 0.125-1.256-0.236-1.77-0.363-0.517-0.957-0.826-1.589-0.826-0.46 0-0.907 0.165-1.259 0.465-0.215 0.183-0.572 0.399-1.071 0.417-0.466 0.017-0.926-0.153-1.266-0.472-0.395-0.371-0.592-0.882-0.552-1.422 0.064-0.858 0.788-1.567 1.649-1.614 0.034-0.002 0.068-0.003 0.101-0.003 0 0 0 0 0 0 0.535 0 0.915 0.228 1.139 0.419 0.351 0.3 0.799 0.465 1.259 0.465 0.631 0 1.225-0.309 1.589-0.826 0.362-0.515 0.45-1.177 0.237-1.771l-0.839-2.331c-0.030-0.082 0.023-0.171 0.11-0.184l2.739-0.415zM18.671 7.516c-0.188 0-0.326 0.19-0.257 0.375 0.123 0.328 0.182 0.689 0.159 1.065-0.078 1.281-1.111 2.323-2.391 2.411-0.061 0.004-0.122 0.006-0.182 0.006-1.423 0-2.577-1.154-2.577-2.577 0-0.32 0.058-0.626 0.165-0.909 0.069-0.183-0.073-0.371-0.261-0.371-0.014 0-0.028 0.001-0.043 0.003l-6.399 0.97c-0.345 0.052-0.557 0.407-0.438 0.736l1.41 3.918c0.036 0.099-0.043 0.186-0.131 0.186-0.030 0-0.062-0.010-0.090-0.034-0.621-0.53-1.427-0.85-2.308-0.85-0.067 0-0.133 0.002-0.201 0.006-1.769 0.097-3.214 1.511-3.346 3.278-0.156 2.088 1.492 3.83 3.547 3.83 0.88 0 1.685-0.32 2.306-0.849 0.028-0.024 0.060-0.035 0.090-0.035 0.088 0 0.167 0.086 0.131 0.186l-1.41 3.917c-0.118 0.329 0.093 0.683 0.438 0.736l6.401 0.97c0.015 0.002 0.029 0.003 0.043 0.003 0.188 0 0.326-0.19 0.257-0.375-0.123-0.328-0.182-0.689-0.159-1.065 0.077-1.281 1.111-2.323 2.391-2.411 0.061-0.004 0.122-0.006 0.182-0.006 1.423 0 2.577 1.154 2.577 2.577 0 0.32-0.058 0.626-0.165 0.909-0.069 0.183 0.073 0.371 0.261 0.371 0.014 0 0.028-0.001 0.043-0.003l6.399-0.97c0.345-0.052 0.557-0.407 0.438-0.736l-1.41-3.917c-0.036-0.1 0.043-0.186 0.131-0.186 0.031 0 0.062 0.010 0.090 0.035 0.621 0.53 1.426 0.849 2.306 0.849 2.055 0 3.703-1.742 3.547-3.83-0.132-1.767-1.577-3.181-3.346-3.278-0.067-0.004-0.134-0.006-0.201-0.006-0.881 0-1.687 0.32-2.308 0.85-0.028 0.024-0.059 0.034-0.090 0.034-0.087 0-0.166-0.086-0.131-0.186l1.41-3.918c0.118-0.329-0.093-0.683-0.438-0.736l-6.401-0.97c-0.015-0.002-0.029-0.003-0.043-0.003v0z"></path>
</svg>
