<svg
  xmlns="http://www.w3.org/2000/svg"
  width="64"
  height="64"
  viewBox="0 0 64 64"
  fill="black"
  fill-rule="nonzero"
>
  <path d="M46.23 10.14c-.57.41-1.05.91-1.44 1.48-.39.57-.68 1.2-.85 1.88 0 .01-.01.02-.01.03-.19.68-.56 1.29-1.04 1.78a4 4 0 0 1-1.79 1.02 4.014 4.014 0 0 1-3.84-1.04l-.01-.01-5.85-5.95-5.9 5.91c-.5.5-1.1.85-1.76 1.04-.66.19-1.36.2-2.05.03a3.995 3.995 0 0 1-2.87-2.74c-.01-.02-.01-.04-.02-.06a5.948 5.948 0 0 0-1.93-3.05 5.962 5.962 0 0 0-3.33-1.39 6.03 6.03 0 0 0-3.53.77c-1.05.6-1.91 1.52-2.44 2.66a6.014 6.014 0 0 0 1.19 6.78 5.825 5.825 0 0 0 2.73 1.51c.03.01.06.02.1.03.68.2 1.27.57 1.75 1.06.47.49.82 1.1 1 1.79.17.68.16 1.39-.02 2.04-.18.66-.53 1.27-1.03 1.77l-5.92 5.94 24 24 .01-.01 5.23-5.18c-2.34-.63-4.29-2.05-5.6-3.91-1.31-1.87-1.99-4.2-1.78-6.62.21-2.42 1.28-4.6 2.91-6.21a9.994 9.994 0 0 1 12.83-1.08 9.967 9.967 0 0 1 3.88 5.58l6.61-6.61-5.9-5.9c-.5-.5-.85-1.11-1.03-1.77-.18-.66-.19-1.36-.02-2.04.17-.68.52-1.3 1-1.79.47-.49 1.07-.86 1.75-1.06.02-.01.04-.01.06-.02 1.17-.31 2.18-.95 2.95-1.81.77-.86 1.29-1.95 1.46-3.14.17-1.19-.02-2.38-.52-3.42a6.105 6.105 0 0 0-2.32-2.57A6 6 0 0 0 49.54 9c-1.15.05-2.29.43-3.27 1.14zM43.89 6.9c1.63-1.18 3.52-1.81 5.45-1.9 1.92-.08 3.87.39 5.59 1.43a9.973 9.973 0 0 1 3.87 4.28c.82 1.74 1.15 3.72.86 5.7a9.949 9.949 0 0 1-2.43 5.23 9.953 9.953 0 0 1-4.86 3l5.9 5.9a3.974 3.974 0 0 1 1.17 2.83c0 .53-.11 1.05-.3 1.53-.2.48-.49.92-.87 1.3l-6.61 6.61c-.5.5-1.11.85-1.77 1.03-.66.18-1.36.19-2.04.02-.68-.17-1.3-.52-1.79-1-.49-.47-.86-1.07-1.06-1.75-.01-.02-.01-.04-.02-.06a5.99 5.99 0 0 0-2.34-3.38 6.013 6.013 0 0 0-3.97-1.08c-1.45.12-2.76.76-3.73 1.73-.97.97-1.62 2.27-1.74 3.73-.13 1.45.28 2.85 1.07 3.97a5.935 5.935 0 0 0 3.37 2.35c.01 0 .02 0 .02.01.68.19 1.29.56 1.78 1.04a4 4 0 0 1 1.02 1.79 4.014 4.014 0 0 1-1.04 3.84l-.01.01-5.24 5.19c-.37.37-.81.67-1.29.86-.48.2-1 .3-1.53.3s-1.05-.11-1.53-.3c-.48-.2-.92-.49-1.3-.87l-24-24a3.974 3.974 0 0 1-1.17-2.83c0-.53.11-1.05.3-1.53.2-.48.49-.92.87-1.3l5.92-5.94a9.931 9.931 0 0 1-4.49-2.52l-.01-.01A9.994 9.994 0 0 1 3.95 10.8a9.947 9.947 0 0 1 4.07-4.43c1.74-1 3.78-1.48 5.88-1.29 2.1.19 4.02 1.02 5.56 2.32a9.962 9.962 0 0 1 3.2 5.02l.01-.01 5.9-5.91a3.974 3.974 0 0 1 2.83-1.17c.53 0 1.05.11 1.53.3.48.2.92.49 1.3.87l.01.01 5.85 5.95c.29-1.11.77-2.16 1.41-3.1.65-.95 1.46-1.78 2.4-2.46z" />
</svg>
