<!-- Generated by IcoMoon.io -->
<svg version="1.1" xmlns="http://www.w3.org/2000/svg" width="32" height="32" viewBox="0 0 32 32">
<title>puzzle_alt</title>
<path d="M15.758 8.973v0zM13.76 9.275c0.074-0.011 0.142 0.039 0.156 0.112 0.406 2.054 2.221 3.608 4.393 3.608 0.103 0 0.208-0.004 0.312-0.011 2.033-0.139 3.695-1.643 4.081-3.597 0.014-0.073 0.083-0.123 0.157-0.112l3.573 0.541c0.135 0.021 0.236 0.137 0.236 0.274v11.818c0 0.137-0.1 0.253-0.236 0.274l-3.573 0.541c-0.074 0.011-0.142-0.038-0.156-0.112-0.406-2.054-2.221-3.608-4.393-3.608-0.103 0-0.209 0.004-0.312 0.011-2.033 0.139-3.695 1.643-4.081 3.597-0.014 0.073-0.083 0.123-0.157 0.112l-3.006-0.455c-0.086-0.013-0.139-0.102-0.11-0.184l0.902-2.506c0.214-0.596 0.126-1.259-0.237-1.775-0.364-0.519-0.96-0.828-1.593-0.828-0.461 0-0.91 0.166-1.262 0.466-0.232 0.198-0.62 0.433-1.162 0.45-0.503 0.016-0.989-0.163-1.356-0.508-0.427-0.4-0.64-0.952-0.596-1.534 0.069-0.925 0.85-1.69 1.778-1.74 0.037-0.002 0.073-0.003 0.109-0.003 0 0 0 0 0 0 0.577 0 0.986 0.246 1.228 0.452 0.353 0.301 0.801 0.467 1.262 0.467 0.633 0 1.229-0.31 1.593-0.828 0.363-0.516 0.451-1.18 0.237-1.776l-0.902-2.507c-0.030-0.082 0.023-0.171 0.11-0.184l3.006-0.456zM21.082 7.188c-0.196 0-0.339 0.198-0.267 0.389 0.128 0.341 0.189 0.715 0.165 1.106-0.081 1.33-1.153 2.413-2.483 2.504-0.063 0.004-0.126 0.007-0.189 0.007-1.478 0-2.677-1.198-2.677-2.677 0-0.332 0.061-0.65 0.171-0.944 0.072-0.19-0.076-0.385-0.271-0.386-0.015 0-0.029 0.001-0.044 0.003l-6.646 1.007c-0.359 0.054-0.578 0.423-0.455 0.764l1.465 4.069c0.037 0.103-0.045 0.193-0.136 0.193-0.031 0-0.064-0.011-0.093-0.035-0.645-0.551-1.482-0.883-2.397-0.883-0.007 0-0.014 0-0.021 0-1.811 0.010-3.371 1.346-3.633 3.138-0.333 2.287 1.431 4.25 3.653 4.25 0.914 0 1.75-0.332 2.395-0.882 0.029-0.025 0.062-0.036 0.094-0.036 0.091 0 0.173 0.089 0.136 0.193l-1.465 4.068c-0.123 0.341 0.097 0.71 0.455 0.764l6.648 1.007c0.015 0.002 0.030 0.003 0.045 0.003 0.196 0 0.339-0.198 0.267-0.389-0.128-0.341-0.189-0.715-0.165-1.106 0.080-1.33 1.153-2.413 2.483-2.504 0.063-0.004 0.126-0.006 0.189-0.006 1.478 0 2.677 1.198 2.677 2.677 0 0.332-0.061 0.65-0.171 0.944-0.072 0.19 0.076 0.386 0.271 0.386 0.015 0 0.029-0.001 0.044-0.003l6.867-1.041c0.271-0.041 0.471-0.274 0.471-0.548v-14.439c0-0.274-0.2-0.507-0.471-0.548l-6.869-1.041c-0.015-0.002-0.030-0.003-0.045-0.003v0z"></path>
</svg>
