<svg
  xmlns="http://www.w3.org/2000/svg"
  width="64"
  height="64"
  viewBox="0 0 64 64"
  fill="black"
  fill-rule="nonzero"
>
  <path d="M53.58 8.64c-.97-.68-2.1-1.04-3.24-1.07-1.14-.04-2.29.25-3.3.87-.01 0-.01.01-.02.01a6.21 6.21 0 0 0-2.74 3.42c-.01.02-.01.03-.02.05-.25.7-.67 1.32-1.22 1.8-.54.48-1.21.82-1.93.98-.73.16-1.47.12-2.17-.08-.69-.21-1.33-.59-1.84-1.12L32 8.36l-5.57 5.57c1.02.28 1.98.72 2.85 1.29 1.3.85 2.41 1.99 3.22 3.37a9.947 9.947 0 0 1 1.45 5.45c-.05 1.88-.63 3.75-1.73 5.37a10.12 10.12 0 0 1-4.77 3.88c-1.91.76-4.06.93-6.15.42-2.1-.51-3.92-1.65-5.27-3.2-1-1.15-1.74-2.52-2.15-4.02l-5.54 5.53 5.15 5.15c.53.52.91 1.15 1.11 1.84.21.69.24 1.44.08 2.17a4.34 4.34 0 0 1-2.78 3.15c-.02.01-.04.01-.06.02a6.314 6.314 0 0 0-3.43 2.71c-.62 1.01-.9 2.16-.87 3.3.04 1.14.39 2.27 1.07 3.24.01.01.02.03.03.04.65.99 1.55 1.74 2.58 2.22 1.03.48 2.19.67 3.37.52 1.17-.15 2.25-.62 3.13-1.34.87-.71 1.55-1.66 1.94-2.77a4.34 4.34 0 0 1 3.07-2.91c.74-.19 1.49-.18 2.2.01.71.19 1.37.56 1.92 1.09l.02.02 5.16 5.16 5.57-5.57c-1.02-.28-1.98-.72-2.85-1.29-1.3-.85-2.41-1.99-3.22-3.37a9.947 9.947 0 0 1-1.45-5.45c.05-1.88.63-3.75 1.73-5.37a10.12 10.12 0 0 1 4.77-3.88c1.91-.76 4.06-.93 6.15-.42 2.1.51 3.92 1.65 5.27 3.2 1 1.15 1.74 2.52 2.15 4.02l5.57-5.57-5.16-5.16-.02-.02a4.351 4.351 0 0 1-1.1-4.12 4.324 4.324 0 0 1 2.88-3.06 6.16 6.16 0 0 0 2.66-1.96c.69-.88 1.14-1.94 1.28-3.09.14-1.15-.05-2.29-.52-3.31a6.14 6.14 0 0 0-2.16-2.56c-.01 0-.01-.01-.02-.01zm2.27-3.29a10.194 10.194 0 0 1 2.29 14.74 10.257 10.257 0 0 1-4.45 3.25c-.04.01-.08.03-.12.04-.06.02-.11.05-.15.09-.04.04-.07.1-.09.15-.02.06-.01.12 0 .18s.04.11.08.15l5.15 5.15c.78.78 1.16 1.8 1.16 2.82 0 1.02-.39 2.04-1.16 2.82l-6.65 6.65c-.42.43-.94.73-1.5.87-.57.15-1.19.13-1.78-.07-.59-.2-1.09-.55-1.46-1.02-.37-.46-.61-1.03-.68-1.64v-.01A6.21 6.21 0 0 0 45 36.08a6.206 6.206 0 0 0-3.2-1.95 6.19 6.19 0 0 0-3.74.26 6.138 6.138 0 0 0-2.9 2.37c-.01.01-.01.02-.02.03-.67.97-1.01 2.1-1.04 3.23-.03 1.13.26 2.27.88 3.28.01.01.01.02.02.03a6.19 6.19 0 0 0 4.6 3.02c.6.05 1.16.27 1.62.62.48.36.86.85 1.07 1.44.22.58.25 1.21.12 1.79a3.14 3.14 0 0 1-.86 1.56l-6.67 6.67c-.78.78-1.8 1.16-2.82 1.16-1.02 0-2.04-.39-2.82-1.16l-5.15-5.15a.275.275 0 0 0-.15-.08.277.277 0 0 0-.18 0c-.06.02-.11.05-.15.09a.29.29 0 0 0-.09.15c-.01.02-.01.04-.02.07-.63 1.84-1.76 3.42-3.21 4.6a10.26 10.26 0 0 1-5.15 2.21c-1.93.24-3.84-.07-5.54-.85a10.24 10.24 0 0 1-4.24-3.63 10.002 10.002 0 0 1-.32-10.88c.64-1.06 1.45-1.98 2.41-2.73.94-.74 2.01-1.32 3.17-1.7a.36.36 0 0 0 .12-.08c.04-.04.06-.09.07-.14.01-.05.01-.11-.01-.16s-.04-.1-.08-.14l-.02-.02-5.16-5.16c-.78-.78-1.16-1.8-1.16-2.82 0-1.02.39-2.04 1.16-2.82l.01-.01 6.62-6.61c.42-.43.94-.73 1.5-.87.57-.15 1.19-.13 1.78.07.59.2 1.09.55 1.46 1.02.37.46.61 1.03.68 1.64v.01c.13 1.3.67 2.49 1.49 3.44.82.94 1.93 1.64 3.2 1.95 1.27.31 2.57.2 3.74-.26a6.138 6.138 0 0 0 2.9-2.37c.01-.01.01-.02.02-.03.67-.97 1.01-2.1 1.04-3.23.03-1.13-.26-2.27-.88-3.28-.01-.01-.01-.02-.02-.03a6.19 6.19 0 0 0-4.6-3.02c-.6-.05-1.16-.27-1.62-.62-.48-.36-.86-.85-1.07-1.44-.22-.58-.25-1.21-.12-1.79.13-.58.42-1.13.86-1.56l6.67-6.67c.78-.78 1.8-1.16 2.82-1.16 1.02 0 2.04.39 2.82 1.16l.01.01 5.12 5.16.01.01c.04.04.09.07.14.08.05.02.11.02.16.01s.1-.04.14-.07c.04-.03.07-.07.09-.12.39-1.16.97-2.24 1.73-3.18.76-.95 1.69-1.76 2.75-2.4a10.007 10.007 0 0 1 10.88.34z" />
</svg>
