<!-- Generated by IcoMoon.io -->
<svg version="1.1" xmlns="http://www.w3.org/2000/svg" width="32" height="32" viewBox="0 0 32 32">
<title>pyolite</title>
<path d="M24.626 5.022l-18.82 0.001c-0.433 0-0.784 0.351-0.784 0.784s0.351 0.784 0.784 0.784h18.82c0.433 0 0.784 0.351 0.784 0.784v17.252c0 0.433-0.351 0.784-0.784 0.784h-17.252c-0.433 0-0.784-0.351-0.784-0.784v-14.115c0-0.433 0.351-0.784 0.784-0.784l7.046 0.011c0.433 0 0.784 0.351 0.784 0.784v1.88c0 0.173-0.113 0.328-0.28 0.375-1.647 0.469-2.857 1.987-2.857 3.783v5.498c0 0.438 0.343 0.814 0.78 0.822 0.446 0.008 0.81-0.351 0.81-0.795v-2.701c0-0.427 0.346-0.773 0.773-0.773s0.773 0.346 0.773 0.773v2.853c0 0.438 0.343 0.814 0.78 0.822 0.446 0.008 0.81-0.351 0.81-0.795v-2.879c0-0.427 0.346-0.773 0.773-0.773s0.773 0.346 0.773 0.773v2.675c0 0.438 0.343 0.814 0.78 0.822 0.446 0.008 0.81-0.351 0.81-0.795v-5.289c0-0 0-0 0-0.001v-0.235c0-0.971-0.356-1.901-1.003-2.623-0.294-0.328-0.8-0.385-1.134-0.097-0.34 0.293-0.369 0.806-0.071 1.136 0.382 0.422 0.617 0.955 0.617 1.524v0.060c0 0.254-0.206 0.459-0.459 0.459h-3.764c-0.256 0-0.46-0.21-0.459-0.466 0.004-1.29 1.050-2.335 2.341-2.335v0c0.439 0 0.795-0.356 0.795-0.795v-3.697c0-0.872-0.707-1.579-1.579-1.579l-3.137 0.011c-0.001 0-4.705 0-4.705 0-1.299 0-2.353 1.053-2.353 2.352v14.115c0 1.299 1.053 2.352 2.353 2.352h17.252c1.299 0 2.352-1.053 2.352-2.352v-17.252c0-1.299-1.053-2.353-2.352-2.353z"></path>
</svg>
