<!-- Generated by IcoMoon.io -->
<svg version="1.1" xmlns="http://www.w3.org/2000/svg" width="32" height="32" viewBox="0 0 32 32">
<title>pyolite</title>
<path d="M11.22 22.83h-4.070c-2 0-3.41-1.33-4-3.66-0.281-0.973-0.442-2.090-0.442-3.245s0.162-2.272 0.463-3.33l-0.021 0.085c0.434-2.114 2.28-3.681 4.491-3.681 0.024 0 0.049 0 0.073 0.001l-0.004-0c0.442 0 0.8 0.358 0.8 0.8s-0.358 0.8-0.8 0.8v0c-0.016-0-0.034-0-0.053-0-1.459 0-2.675 1.041-2.944 2.421l-0.003 0.019c-0.252 0.86-0.397 1.848-0.397 2.87s0.145 2.010 0.416 2.945l-0.019-0.075c0.39 1.61 1.21 2.43 2.42 2.43h4.070c0.442 0 0.8 0.358 0.8 0.8s-0.358 0.8-0.8 0.8v0zM10 11.86c-0.442 0-0.8-0.358-0.8-0.8v0-4.29c0-2 0.61-3.38 3.67-3.92 0.896-0.159 1.927-0.25 2.98-0.25 0.007 0 0.014 0 0.022 0h-0.001c0.068-0.001 0.149-0.001 0.23-0.001 1.074 0 2.126 0.091 3.15 0.267l-0.11-0.016c2.009 0.238 3.567 1.882 3.67 3.91l0 0.010c0 0.442-0.358 0.8-0.8 0.8s-0.8-0.358-0.8-0.8v0c-0.114-1.244-1.096-2.226-2.33-2.339l-0.010-0.001c-0.849-0.147-1.827-0.231-2.825-0.231-0.062 0-0.123 0-0.184 0.001l0.009-0c-0.018-0-0.038-0-0.059-0-0.947 0-1.875 0.084-2.776 0.244l0.095-0.014c-2.24 0.4-2.35 1.070-2.35 2.34v4.29c0 0 0 0 0 0 0 0.435-0.347 0.789-0.779 0.8l-0.001 0zM16 29.4c-1.151-0.006-2.258-0.185-3.299-0.511l0.079 0.021c-2.27-0.66-3.58-2.060-3.58-3.82 0-0.442 0.358-0.8 0.8-0.8s0.8 0.358 0.8 0.8v0c0 1.37 1.53 2 2.43 2.29 0.831 0.271 1.787 0.428 2.78 0.428s1.949-0.156 2.845-0.446l-0.065 0.018c1.62-0.47 2.43-1.24 2.43-2.29v-4.29c0-0.442 0.358-0.8 0.8-0.8s0.8 0.358 0.8 0.8v4.29c0 1.8-1.27 3.16-3.58 3.82-0.968 0.305-2.082 0.484-3.237 0.49h-0.003zM25 22.83c-0.442 0-0.8-0.358-0.8-0.8s0.358-0.8 0.8-0.8v0c1.1 0 1.6-0.56 2.25-2.5 0.275-0.846 0.433-1.82 0.433-2.83s-0.158-1.984-0.452-2.897l0.019 0.067c-0.53-2.16-1.43-2.45-2.23-2.45h-4.28c-0.442 0-0.8-0.358-0.8-0.8s0.358-0.8 0.8-0.8h4.26c1.91 0 3.18 1.23 3.78 3.66 0.313 0.981 0.494 2.109 0.494 3.28s-0.181 2.299-0.515 3.359l0.021-0.079c-0.59 1.76-1.41 3.59-3.78 3.59zM23.37 14.57h-14.74c-0.79 0-1.43 0.64-1.43 1.43s0.64 1.43 1.43 1.43v0h14.74c0.79 0 1.43-0.64 1.43-1.43s-0.64-1.43-1.43-1.43v0zM16.42 18.86h-0.84c-0.552 0-1 0.448-1 1v0 3.5c0 0.79 0.64 1.43 1.43 1.43s1.43-0.64 1.43-1.43v-3.5c0-0 0-0 0-0 0-0.552-0.448-1-1-1-0.007 0-0.014 0-0.021 0l0.001-0zM15.58 13.15h0.84c0.552 0 1-0.448 1-1v0-3.52c0-0.79-0.64-1.43-1.43-1.43s-1.43 0.64-1.43 1.43v3.51c-0 0.003-0 0.007-0 0.010 0 0.552 0.448 1 1 1 0.007 0 0.014-0 0.021-0l-0.001 0z"></path>
</svg>
