<svg
  xmlns="http://www.w3.org/2000/svg"
  width="64"
  height="64"
  viewBox="0 0 64 64"
  fill="black"
  fill-rule="nonzero"
>
  <path d="M59.62 24.72c1.4 5.62 1.46 9.84 0 14.23S56.7 46 52.63 46h-21v1.78h14v5.33c0 4-3.48 6.1-7 7.12a23.5 23.5 0 0 1-14 0c-3.7-1.09-7-3.32-7-7.12V39.83a7.14 7.14 0 0 1 7-7.12h14a9 9 0 0 0 8.74-8.87v-6.22h5.26c4.07 0 5.99 3.05 6.99 7.1zM23.77 12.29a2.67 2.67 0 1 1 2.62-2.66 2.65 2.65 0 0 1-2.62 2.66zM24.65 31h14a7.05 7.05 0 0 0 7-7.11V10.51c0-3.79-3.2-6.64-7-7.27a43.85 43.85 0 0 0-7.29-.57 39.36 39.36 0 0 0-6.69.57c-5.92 1-7 3.23-7 7.27v5.34h14v1.77H12.4a8.75 8.75 0 0 0-8.75 7.1 26.25 26.25 0 0 0 0 14.28c1 4.09 3.35 7 7.44 7h4.81v-6.35A8.9 8.9 0 0 1 24.65 31z" />
</svg>
