<svg
  xmlns="http://www.w3.org/2000/svg"
  width="64"
  height="64"
  viewBox="0 0 64 64"
  fill="black"
  fill-rule="nonzero"
>
  <path d="M4 32c0-7.73 3.14-14.73 8.2-19.8C17.26 7.14 24.27 4 32 4s14.73 3.14 19.8 8.2C56.86 17.26 60 24.27 60 32s-3.14 14.73-8.2 19.8A27.934 27.934 0 0 1 32 60c-7.73 0-14.73-3.14-19.8-8.2A27.934 27.934 0 0 1 4 32zm11.03 16.97C19.38 53.32 25.37 56 32 56c6.63 0 12.63-2.68 16.97-7.03C53.32 44.62 56 38.63 56 32c0-6.63-2.68-12.63-7.03-16.97C44.62 10.68 38.63 8 32 8c-6.63 0-12.63 2.68-16.97 7.03C10.68 19.38 8 25.37 8 32c0 6.63 2.68 12.63 7.03 16.97zm19.09 1.15a2.993 2.993 0 0 1-4.24 0 2.993 2.993 0 0 1 0-4.24 2.993 2.993 0 0 1 4.24 0 2.993 2.993 0 0 1 0 4.24zM32 42c-1.1 0-2-.9-2-2 0-.35.03-.69.08-1.02.47-3 2.98-5.49 4.81-7.39.24-.25.48-.5.72-.74 1.74-1.83 3.01-3.37 3.44-4.97.09-.33.14-.67.15-1.01.03-1.01-.2-1.99-.65-2.88a7.239 7.239 0 0 0-2.6-2.82A7.458 7.458 0 0 0 32.2 18a7.11 7.11 0 0 0-2.82.49c-.89.35-1.71.87-2.41 1.55a7.224 7.224 0 0 0-2.18 5.16 2 2 0 1 1-4 0 11.172 11.172 0 0 1 3.39-8.03c1.08-1.05 2.36-1.87 3.74-2.41 1.38-.54 2.87-.8 4.38-.76 2.1.06 4.09.72 5.78 1.8 1.69 1.08 3.11 2.59 4.02 4.4.73 1.45 1.13 3.08 1.08 4.81-.02.67-.12 1.3-.29 1.92-.73 2.71-2.72 4.93-4.41 6.69l-.73.76c-2.16 2.23-3.51 3.74-3.74 5.22-.02.14-.03.27-.03.41 0 1.1-.9 2-2 2z" />
</svg>
