<svg
  xmlns="http://www.w3.org/2000/svg"
  width="64"
  height="64"
  viewBox="0 0 64 64"
  fill="black"
  fill-rule="nonzero"
>
  <path d="M17 26c3.31 0 6.32 1.35 8.49 3.51C27.66 31.68 29 34.68 29 38c0 3.31-1.35 6.32-3.51 8.49A11.962 11.962 0 0 1 17 50c-3.31 0-6.32-1.35-8.49-3.51A11.962 11.962 0 0 1 5 38a23.964 23.964 0 0 1 7.03-16.97A23.927 23.927 0 0 1 29 14c1.1 0 2 .9 2 2s-.9 2-2 2c-5.52 0-10.52 2.24-14.14 5.86-.94.94-1.79 1.97-2.53 3.08 1.44-.61 3.01-.94 4.67-.94zm-5.66 17.66A7.973 7.973 0 0 0 17 46c2.21 0 4.21-.89 5.66-2.34A7.973 7.973 0 0 0 25 38c0-2.21-.89-4.21-2.34-5.66A7.973 7.973 0 0 0 17 30c-2.21 0-4.21.89-5.66 2.34A7.973 7.973 0 0 0 9 38c0 2.21.89 4.21 2.34 5.66zM45 26c3.31 0 6.32 1.35 8.49 3.51C55.66 31.68 57 34.68 57 38c0 3.31-1.35 6.32-3.51 8.49A11.962 11.962 0 0 1 45 50c-3.31 0-6.32-1.35-8.49-3.51A11.962 11.962 0 0 1 33 38c0-2.54.4-4.99 1.13-7.29 1.18-3.7 3.23-7 5.9-9.68A23.927 23.927 0 0 1 57 14c1.1 0 2 .9 2 2s-.9 2-2 2c-5.52 0-10.52 2.24-14.14 5.86-.94.94-1.79 1.97-2.53 3.08 1.44-.61 3.01-.94 4.67-.94zm-5.66 17.66A7.973 7.973 0 0 0 45 46c2.21 0 4.21-.89 5.66-2.34A7.973 7.973 0 0 0 53 38c0-2.21-.89-4.21-2.34-5.66A7.973 7.973 0 0 0 45 30c-2.21 0-4.21.89-5.66 2.34A7.973 7.973 0 0 0 37 38c0 2.21.89 4.21 2.34 5.66z" />
</svg>
