<svg
  xmlns="http://www.w3.org/2000/svg"
  width="64"
  height="64"
  viewBox="0 0 64 64"
  fill="black"
  fill-rule="nonzero"
>
  <path d="M35 26c0-3.31 1.35-6.32 3.51-8.49C40.68 15.34 43.68 14 47 14c3.31 0 6.32 1.35 8.49 3.51C57.66 19.68 59 22.68 59 26c0 2.99-.55 5.85-1.54 8.49-1.22 3.22-3.1 6.1-5.49 8.49A23.927 23.927 0 0 1 35 50.01c-1.1 0-2-.9-2-2s.9-2 2-2c5.52 0 10.52-2.24 14.14-5.86.94-.94 1.79-1.97 2.53-3.08-1.44.61-3.01.94-4.67.94-3.31 0-6.32-1.35-8.49-3.51A11.962 11.962 0 0 1 35 26.01zm6.34 5.66A7.973 7.973 0 0 0 47 34c2.21 0 4.21-.89 5.66-2.34A7.973 7.973 0 0 0 55 26c0-2.21-.89-4.21-2.34-5.66A7.973 7.973 0 0 0 47 18c-2.21 0-4.21.89-5.66 2.34A7.973 7.973 0 0 0 39 26c0 2.21.89 4.21 2.34 5.66zM7 26c0-3.31 1.35-6.32 3.51-8.49C12.68 15.34 15.68 14 19 14c3.31 0 6.32 1.35 8.49 3.51C29.66 19.68 31 22.68 31 26a23.964 23.964 0 0 1-7.03 16.97A23.927 23.927 0 0 1 7 50c-1.1 0-2-.9-2-2s.9-2 2-2c5.52 0 10.52-2.24 14.14-5.86.94-.94 1.79-1.97 2.53-3.08-1.44.61-3.01.94-4.67.94-3.31 0-6.32-1.35-8.49-3.51A11.962 11.962 0 0 1 7 26zm6.34 5.66A7.973 7.973 0 0 0 19 34c2.21 0 4.21-.89 5.66-2.34A7.973 7.973 0 0 0 27 26c0-2.21-.89-4.21-2.34-5.66A7.973 7.973 0 0 0 19 18c-2.21 0-4.21.89-5.66 2.34A7.973 7.973 0 0 0 11 26c0 2.21.89 4.21 2.34 5.66z" />
</svg>
