<!-- Generated by IcoMoon.io -->
<svg version="1.1" xmlns="http://www.w3.org/2000/svg" width="32" height="32" viewBox="0 0 32 32">
<title>rack</title>
<path d="M19.343 10.665h8.206c0.249 0 0.474-0.101 0.637-0.264 0.041-0.041 0.078-0.085 0.11-0.133s0.060-0.099 0.083-0.153c0.023-0.054 0.040-0.11 0.052-0.169s0.018-0.119 0.018-0.181v-3.512c0-0.559-0.128-1.089-0.355-1.562-0.051-0.105-0.106-0.207-0.166-0.306s-0.125-0.195-0.194-0.287c-0.069-0.092-0.143-0.181-0.22-0.267-0.659-0.725-1.609-1.18-2.666-1.18h-17.695c-1.057 0-2.007 0.455-2.666 1.18-0.077 0.085-0.151 0.174-0.22 0.267s-0.134 0.188-0.194 0.287-0.116 0.201-0.166 0.306c-0.228 0.472-0.355 1.002-0.355 1.562v3.512c0 0.062 0.006 0.123 0.018 0.181s0.030 0.115 0.053 0.169c0.023 0.054 0.051 0.105 0.083 0.153s0.069 0.093 0.11 0.133 0.085 0.078 0.133 0.11c0.144 0.097 0.317 0.154 0.503 0.154h8.206c0.367 0 0.664 0.297 0.664 0.664s-0.297 0.664-0.664 0.664h-8.206c-0.497 0-0.9 0.403-0.9 0.9v6.213c0 0.062 0.006 0.123 0.018 0.181s0.030 0.115 0.053 0.169c0.023 0.054 0.051 0.105 0.083 0.153s0.069 0.093 0.11 0.133 0.085 0.078 0.133 0.11c0.144 0.097 0.317 0.154 0.503 0.154h8.206c0.367 0 0.664 0.297 0.664 0.664s-0.297 0.664-0.664 0.664h-8.206c-0.497 0-0.9 0.403-0.9 0.9v3.512c0 0.186 0.014 0.37 0.042 0.549 0.009 0.060 0.020 0.119 0.032 0.177 0.024 0.117 0.054 0.232 0.089 0.345 0.105 0.338 0.259 0.655 0.453 0.943 0.065 0.096 0.134 0.188 0.207 0.277s0.151 0.174 0.232 0.256c0.041 0.041 0.082 0.081 0.125 0.119 0.128 0.116 0.264 0.223 0.408 0.321 0.575 0.388 1.268 0.615 2.014 0.615h17.695c0.746 0 1.439-0.227 2.014-0.615 0.144-0.097 0.28-0.204 0.408-0.321 0.043-0.039 0.084-0.079 0.125-0.119 0.081-0.081 0.159-0.167 0.232-0.256s0.143-0.181 0.207-0.277c0.194-0.287 0.348-0.604 0.453-0.943 0.035-0.113 0.065-0.228 0.089-0.345 0.012-0.059 0.023-0.118 0.032-0.177 0.027-0.179 0.041-0.362 0.041-0.549v-3.512c0-0.249-0.101-0.474-0.264-0.637-0.081-0.081-0.178-0.147-0.286-0.193s-0.226-0.071-0.35-0.071h-8.205c-0.367 0-0.664-0.297-0.664-0.664s0.297-0.664 0.664-0.664h8.206c0.249 0 0.474-0.101 0.637-0.264 0.041-0.041 0.078-0.085 0.11-0.133s0.060-0.099 0.083-0.153c0.023-0.054 0.040-0.11 0.052-0.169s0.018-0.119 0.018-0.181v-6.213c0-0.249-0.101-0.474-0.264-0.637-0.081-0.081-0.178-0.147-0.286-0.193s-0.226-0.071-0.35-0.071h-8.206c-0.367 0-0.664-0.297-0.664-0.664s0.297-0.664 0.664-0.664zM25.748 23.136c0.497 0 0.9 0.403 0.9 0.9v1.711c0 0.995-0.806 1.801-1.801 1.801h-17.695c-0.995 0-1.801-0.806-1.801-1.801v-1.711c0-0.497 0.403-0.9 0.9-0.9h19.496zM15.122 20.671c0-0.367 0.297-0.664 0.664-0.664h0.428c0.367 0 0.664 0.297 0.664 0.664s-0.297 0.664-0.664 0.664h-0.428c-0.367 0-0.664-0.297-0.664-0.664zM25.748 13.794c0.497 0 0.9 0.403 0.9 0.9v2.612c0 0.497-0.403 0.9-0.9 0.9h-19.496c-0.497 0-0.9-0.403-0.9-0.9v-2.612c0-0.497 0.403-0.9 0.9-0.9h19.496zM15.122 11.329c0-0.367 0.297-0.664 0.664-0.664h0.428c0.367 0 0.664 0.297 0.664 0.664s-0.297 0.664-0.664 0.664h-0.428c-0.367 0-0.664-0.297-0.664-0.664zM13.321 8.864h-7.069c-0.497 0-0.9-0.403-0.9-0.9v-1.711c0-0.995 0.806-1.801 1.801-1.801h17.695c0.995 0 1.801 0.806 1.801 1.801v1.711c0 0.497-0.403 0.9-0.9 0.9h-12.427z"></path>
<path d="M15.989 5.791c-0.237 0-0.469 0.096-0.636 0.264s-0.264 0.4-0.264 0.636 0.096 0.469 0.264 0.637 0.4 0.264 0.636 0.264c0.237 0 0.47-0.096 0.637-0.264s0.263-0.4 0.263-0.637-0.096-0.469-0.263-0.636-0.4-0.264-0.637-0.264z"></path>
<path d="M16.637 15.364c-0.168-0.168-0.4-0.264-0.637-0.264s-0.469 0.096-0.636 0.264c-0.121 0.121-0.204 0.276-0.241 0.442-0.014 0.063-0.022 0.129-0.022 0.194s0.008 0.13 0.022 0.194c0.037 0.166 0.12 0.321 0.241 0.443 0.168 0.168 0.4 0.264 0.636 0.264s0.47-0.096 0.637-0.264c0.121-0.121 0.204-0.277 0.241-0.443 0.014-0.063 0.022-0.128 0.022-0.194s-0.008-0.13-0.022-0.194c-0.037-0.166-0.12-0.322-0.241-0.443z"></path>
<path d="M16.637 24.706c-0.168-0.168-0.4-0.264-0.637-0.264s-0.469 0.096-0.636 0.264c-0.056 0.055-0.103 0.119-0.142 0.186-0.078 0.136-0.122 0.292-0.122 0.45s0.044 0.314 0.122 0.45c0.039 0.068 0.086 0.131 0.141 0.186 0.168 0.168 0.4 0.264 0.636 0.264s0.47-0.096 0.637-0.264c0.056-0.056 0.102-0.119 0.141-0.186 0.078-0.136 0.122-0.292 0.122-0.45s-0.044-0.314-0.122-0.45c-0.039-0.068-0.086-0.131-0.141-0.186z"></path>
<path d="M12.432 5.791h-4.446c-0.497 0-0.9 0.403-0.9 0.9s0.403 0.9 0.9 0.9h4.446c0.497 0 0.9-0.403 0.9-0.9s-0.403-0.9-0.9-0.9z"></path>
<path d="M12.443 15.1h-4.446c-0.497 0-0.9 0.403-0.9 0.9s0.403 0.9 0.9 0.9h4.446c0.429 0 0.788-0.301 0.878-0.703 0.014-0.064 0.022-0.13 0.022-0.198s-0.008-0.134-0.022-0.198c-0.090-0.402-0.449-0.703-0.878-0.703z"></path>
<path d="M12.443 24.442h-4.446c-0.497 0-0.9 0.403-0.9 0.9s0.403 0.9 0.9 0.9h4.446c0.429 0 0.788-0.301 0.878-0.703 0.014-0.064 0.022-0.13 0.022-0.198s-0.008-0.134-0.022-0.198c-0.090-0.402-0.449-0.703-0.878-0.703z"></path>
</svg>
