<!-- Generated by IcoMoon.io -->
<svg version="1.1" xmlns="http://www.w3.org/2000/svg" width="32" height="32" viewBox="0 0 32 32">
<title>ram</title>
<path d="M28.427 6.663h-24.853c-0.995 0-1.801 0.806-1.801 1.801v10.626c0 0.906 0.669 1.655 1.539 1.782 0.137 0.020 0.239 0.136 0.239 0.274v2.391c0 0.995 0.806 1.801 1.801 1.801h21.296c0.995 0 1.801-0.806 1.801-1.801v-2.391c0-0.138 0.102-0.254 0.239-0.274 0.871-0.127 1.539-0.876 1.539-1.782v-10.626c0-0.995-0.806-1.801-1.801-1.801zM4.127 8.464h23.745c0.306 0 0.554 0.248 0.554 0.554v9.518c0 0.306-0.248 0.554-0.554 0.554h-23.745c-0.306 0-0.554-0.248-0.554-0.554v-9.518c0-0.306 0.248-0.554 0.554-0.554zM25.793 23.259v-0.564c0-0.485-0.373-0.902-0.857-0.925-0.517-0.024-0.944 0.388-0.944 0.899v0.59c0 0.153-0.124 0.277-0.277 0.277h-1.202c-0.153 0-0.277-0.124-0.277-0.277v-0.564c0-0.485-0.373-0.902-0.857-0.925-0.517-0.024-0.944 0.388-0.944 0.899v0.59c0 0.153-0.124 0.277-0.277 0.277h-1.202c-0.153 0-0.277-0.124-0.277-0.277v-0.564c0-0.485-0.373-0.902-0.857-0.925-0.517-0.024-0.944 0.388-0.944 0.899v0.59c0 0.153-0.124 0.277-0.277 0.277h-1.202c-0.153 0-0.277-0.124-0.277-0.277v-0.564c0-0.485-0.373-0.902-0.857-0.925-0.517-0.024-0.944 0.388-0.944 0.899v0.59c0 0.153-0.124 0.277-0.277 0.277h-1.202c-0.153 0-0.277-0.124-0.277-0.277v-0.564c0-0.485-0.373-0.902-0.857-0.925-0.517-0.024-0.944 0.388-0.944 0.899v0.59c0 0.153-0.124 0.277-0.277 0.277h-1.202c-0.153 0-0.277-0.124-0.277-0.277v-0.564c0-0.485-0.373-0.902-0.857-0.925-0.517-0.024-0.944 0.388-0.944 0.899v0.59c0 0.153-0.124 0.277-0.277 0.277h-0.301c-0.153 0-0.277-0.124-0.277-0.277v-2.069c0-0.153 0.124-0.277 0.277-0.277h20.742c0.153 0 0.277 0.124 0.277 0.277v2.069c0 0.153-0.124 0.277-0.277 0.277h-0.301c-0.153 0-0.277-0.124-0.277-0.277zM25.781 11.12v5.313c0 0.497-0.403 0.9-0.9 0.9h-1.756c-0.497 0-0.9-0.403-0.9-0.9v-5.313c0-0.497 0.403-0.9 0.9-0.9h1.756c0.497 0 0.9 0.403 0.9 0.9zM20.446 11.12v5.313c0 0.497-0.403 0.9-0.9 0.9h-1.756c-0.497 0-0.9-0.403-0.9-0.9v-5.313c0-0.497 0.403-0.9 0.9-0.9h1.756c0.497 0 0.9 0.403 0.9 0.9zM15.111 11.12v5.313c0 0.497-0.403 0.9-0.9 0.9h-1.756c-0.497 0-0.9-0.403-0.9-0.9v-5.313c0-0.497 0.403-0.9 0.9-0.9h1.756c0.497 0 0.9 0.403 0.9 0.9zM9.775 11.12v5.313c0 0.497-0.403 0.9-0.9 0.9h-1.756c-0.497 0-0.9-0.403-0.9-0.9v-5.313c0-0.497 0.403-0.9 0.9-0.9h1.756c0.497 0 0.9 0.403 0.9 0.9z"></path>
</svg>
