<!-- Generated by IcoMoon.io -->
<svg version="1.1" xmlns="http://www.w3.org/2000/svg" width="32" height="32" viewBox="0 0 32 32">
<title>ratio</title>
<path d="M26.687 5.313c-4.228-4.228-11.107-4.228-15.334 0-1.029 1.029-1.826 2.229-2.364 3.536-0.028 0.068-0.082 0.122-0.15 0.15-1.283 0.528-2.485 1.313-3.526 2.353-4.228 4.228-4.228 11.107 0 15.334v0c2.114 2.114 4.891 3.171 7.667 3.171s5.553-1.057 7.667-3.171c1.029-1.029 1.826-2.229 2.364-3.536 0.028-0.068 0.082-0.122 0.15-0.15 1.283-0.528 2.485-1.313 3.526-2.353 4.228-4.228 4.228-11.107 0-15.334zM19.406 25.446c-3.543 3.543-9.309 3.543-12.853 0s-3.543-9.309 0-12.853c0.392-0.392 0.812-0.741 1.253-1.046 0.196-0.136 0.459 0.021 0.434 0.258-0.042 0.387-0.063 0.779-0.063 1.174 0 2.896 1.128 5.619 3.176 7.667 2.114 2.114 4.891 3.171 7.667 3.171 0.394 0 0.788-0.021 1.18-0.064 0.237-0.026 0.394 0.238 0.258 0.434-0.309 0.446-0.661 0.867-1.052 1.259zM22.068 19.020c0 0.859-0.118 1.699-0.347 2.503-0.026 0.091-0.098 0.163-0.189 0.189-1.036 0.296-2.115 0.405-3.183 0.327-0.236-0.017-0.342-0.305-0.174-0.473l3.396-3.396c0.167-0.167 0.455-0.062 0.472 0.174 0.017 0.224 0.025 0.449 0.025 0.676zM15.31 21.276c-0.561-0.25-1.102-0.56-1.612-0.929-0.138-0.1-0.153-0.3-0.033-0.421l6.263-6.263c0.12-0.12 0.32-0.105 0.42 0.032 0.367 0.506 0.678 1.045 0.931 1.61 0.047 0.104 0.022 0.226-0.058 0.307l-5.605 5.605c-0.080 0.080-0.202 0.105-0.306 0.058zM11.652 18.304c-0.367-0.506-0.678-1.045-0.931-1.61-0.047-0.104-0.022-0.226 0.058-0.307l5.605-5.605c0.080-0.080 0.202-0.105 0.306-0.058 0.561 0.25 1.102 0.56 1.612 0.929 0.138 0.1 0.153 0.3 0.033 0.421l-6.263 6.263c-0.12 0.12-0.32 0.105-0.42-0.032zM10.429 13.83c-0.167 0.167-0.455 0.062-0.472-0.174-0.017-0.224-0.025-0.449-0.025-0.676 0-0.859 0.118-1.699 0.347-2.503 0.026-0.091 0.098-0.163 0.189-0.189 1.036-0.296 2.115-0.405 3.183-0.327 0.236 0.017 0.342 0.305 0.174 0.473l-3.396 3.396zM24.194 20.452c-0.196 0.136-0.459-0.021-0.434-0.258 0.042-0.387 0.063-0.779 0.063-1.174 0-2.896-1.128-5.619-3.176-7.667-2.414-2.414-5.692-3.449-8.847-3.107-0.238 0.026-0.395-0.238-0.259-0.434 0.309-0.446 0.661-0.867 1.052-1.258 1.772-1.772 4.099-2.658 6.426-2.658s4.655 0.886 6.426 2.658c3.543 3.543 3.543 9.309 0 12.853-0.392 0.392-0.812 0.741-1.253 1.046z"></path>
</svg>
