<!-- Generated by IcoMoon.io -->
<svg version="1.1" xmlns="http://www.w3.org/2000/svg" width="32" height="32" viewBox="0 0 32 32">
<title>react</title>
<path d="M30.23 16c0-2.070-2.22-3.83-5.75-4.91q0.16-0.71 0.27-1.38c0.45-3-0.13-5.16-1.64-6s-3.65-0.3-6 1.6c-0.36 0.28-0.71 0.6-1.070 0.93-0.36-0.33-0.71-0.65-1.070-0.93-2.39-1.9-4.54-2.47-6-1.6s-2.090 3-1.64 6q0.11 0.67 0.27 1.38c-3.6 1.080-5.83 2.84-5.83 4.91s2.23 3.83 5.75 4.91q-0.16 0.7-0.27 1.38c-0.45 3 0.13 5.16 1.64 6 0.43 0.252 0.946 0.4 1.497 0.4 0.015 0 0.030-0 0.045-0l-0.002 0c1.75-0.167 3.304-0.897 4.505-2.005l-0.005 0.005c0.36-0.28 0.71-0.6 1.070-0.93 0.36 0.33 0.71 0.65 1.070 0.93 1.196 1.103 2.75 1.833 4.469 1.998l0.031 0.002c0.013 0 0.028 0 0.043 0 0.551 0 1.068-0.149 1.511-0.408l-0.014 0.008c1.51-0.87 2.090-3 1.64-6q-0.11-0.67-0.27-1.38c3.52-1.080 5.75-2.84 5.75-4.91zM18 6.39c0.959-0.896 2.195-1.505 3.567-1.686l0.033-0.004c0.011-0 0.025-0 0.038-0 0.298 0 0.578 0.078 0.82 0.215l-0.008-0.004c1 0.55 1.29 2.22 0.94 4.59-0.060 0.4-0.14 0.8-0.23 1.22-1.045-0.255-2.313-0.467-3.606-0.591l-0.114-0.009c-0.796-1.077-1.596-2.026-2.451-2.922l0.011 0.012c0.32-0.29 0.64-0.57 1-0.82zM10 17.7q0.35 0.66 0.72 1.32c0.26 0.44 0.52 0.87 0.79 1.3-0.81-0.12-1.58-0.26-2.29-0.43q0.37-1.080 0.78-2.19zM9.22 12.11c0.71-0.17 1.48-0.31 2.29-0.43-0.27 0.43-0.53 0.86-0.79 1.3s-0.49 0.88-0.72 1.32q-0.41-1.11-0.74-2.19zM10.78 16c0.36-0.77 0.77-1.54 1.22-2.31s0.91-1.51 1.39-2.21c0.83-0.070 1.7-0.1 2.61-0.1s1.78 0 2.61 0.1c0.48 0.7 0.95 1.44 1.39 2.21s0.86 1.54 1.22 2.31c-0.36 0.77-0.77 1.54-1.22 2.31s-0.91 1.51-1.39 2.21c-0.83 0.070-1.7 0.1-2.61 0.1s-1.78 0-2.61-0.1c-0.48-0.7-1-1.44-1.39-2.21s-0.86-1.54-1.22-2.31zM21.24 19q0.38-0.66 0.72-1.32 0.45 1.11 0.78 2.19c-0.71 0.17-1.48 0.31-2.29 0.43 0.27-0.41 0.55-0.84 0.79-1.3zM22 14.3q-0.34-0.66-0.72-1.32c-0.26-0.44-0.52-0.87-0.79-1.3 0.81 0.12 1.58 0.26 2.29 0.43q-0.37 1.080-0.78 2.19zM17.51 10c-0.49 0-1 0-1.51 0s-1 0-1.51 0c0.49-0.63 1-1.22 1.51-1.76 0.51 0.52 1 1.11 1.51 1.76zM9.6 4.91c0.234-0.132 0.514-0.21 0.812-0.21 0.014 0 0.027 0 0.040 0l-0.002-0c1.405 0.185 2.641 0.794 3.604 1.693l-0.004-0.003c0.31 0.25 0.63 0.53 0.94 0.82-0.818 0.879-1.599 1.828-2.32 2.823l-0.060 0.087c-1.407 0.133-2.675 0.345-3.911 0.638l0.191-0.038c-0.090-0.42-0.17-0.82-0.23-1.22-0.35-2.37-0.010-4.040 0.94-4.59zM7.89 19.52c-2.89-0.91-4.69-2.26-4.69-3.52s1.8-2.61 4.69-3.52c0.428 1.402 0.88 2.569 1.403 3.696l-0.073-0.176c-0.45 0.951-0.902 2.118-1.276 3.318l-0.054 0.202zM14.050 25.61c-1.88 1.49-3.5 2-4.45 1.48s-1.29-2.22-0.94-4.59c0.060-0.4 0.14-0.8 0.23-1.22 1.045 0.255 2.313 0.467 3.606 0.591l0.114 0.009c0.783 1.081 1.567 2.030 2.406 2.927l-0.016-0.017c-0.32 0.29-0.64 0.57-0.95 0.82zM14.49 22c0.49 0 1 0 1.51 0s1 0 1.51 0c-0.49 0.63-1 1.22-1.51 1.76-0.51-0.52-1-1.11-1.51-1.76zM22.4 27.070c-0.95 0.55-2.57 0-4.45-1.48-0.31-0.25-0.63-0.53-0.94-0.82 0.818-0.879 1.599-1.828 2.32-2.823l0.060-0.087c1.407-0.133 2.675-0.345 3.911-0.638l-0.191 0.038c0.090 0.42 0.17 0.82 0.23 1.22 0.35 2.39 0.010 4.060-0.94 4.61zM24.11 19.5c-0.43-1.395-0.881-2.555-1.403-3.675l0.073 0.175c0.45-0.951 0.902-2.118 1.276-3.318l0.054-0.202c2.89 0.91 4.69 2.26 4.69 3.52s-1.8 2.61-4.69 3.52z"></path>
<path d="M16 18.55c1.408 0 2.55-1.142 2.55-2.55s-1.142-2.55-2.55-2.55c-1.408 0-2.55 1.142-2.55 2.55v0c0 1.408 1.142 2.55 2.55 2.55v0z"></path>
</svg>
