<svg
  xmlns="http://www.w3.org/2000/svg"
  width="64"
  height="64"
  viewBox="0 0 64 64"
  fill="black"
  fill-rule="nonzero"
>
  <path d="M32 36.74a5.26 5.26 0 1 1 5.26-5.25A5.26 5.26 0 0 1 32 36.74zm16.72 2a58.88 58.88 0 0 0-2.89-7.57l.15.36a55.37 55.37 0 0 0 2.63-6.84l.11-.42c6 1.88 9.67 4.66 9.67 7.26s-3.71 5.38-9.67 7.25zm-3.53 15.57c-2 1.13-5.3 0-9.17-3.05-.64-.52-1.3-1.1-1.94-1.7a60 60 0 0 0 4.78-5.81l.13-.18a58.2 58.2 0 0 0 8.06-1.32l-.39.08c.18.87.35 1.69.47 2.51.72 4.93 0 8.37-1.94 9.51zm-16.3-10.46h6.22c-1 1.3-2.06 2.52-3.11 3.63a43.34 43.34 0 0 1-3.11-3.63zM28 51.3c-3.87 3.07-7.21 4.12-9.17 3.05s-2.66-4.58-1.94-9.46c.12-.83.29-1.65.47-2.52a54.25 54.25 0 0 0 7.44 1.22h.23a62.3 62.3 0 0 0 5 6c-.75.61-1.41 1.19-2.03 1.71zM15.28 38.74c-6-1.87-9.67-4.66-9.67-7.25s3.71-5.38 9.67-7.26a58.26 58.26 0 0 0 2.89 7.62l-.17-.36a54.76 54.76 0 0 0-2.63 6.84zm3.53-30.11a3.33 3.33 0 0 1 1.67-.44h.08A13.4 13.4 0 0 1 28 11.68c.64.51 1.3 1.09 1.94 1.69a60.15 60.15 0 0 0-4.78 5.82l-.13.18A58.23 58.23 0 0 0 17 20.68l.39-.08c-.18-.86-.35-1.69-.47-2.51-.77-4.89-.07-8.33 1.89-9.46zm16.3 10.49h-6.22c1-1.3 2.06-2.52 3.11-3.63a43.34 43.34 0 0 1 3.11 3.63zM44.37 28c-.47-.9-1-1.81-1.49-2.72s-1.07-1.79-1.62-2.68c1.67.25 3.25.54 4.72.89-.51 1.51-1.05 2.97-1.61 4.51zm-1.57 9.67c.52-.91 1-1.81 1.49-2.72.61 1.53 1.15 3 1.6 4.51-1.46.35-3 .64-4.72.89a28.06 28.06 0 0 0 1.63-2.68zm-21.56-6.18c.74-1.59 1.59-3.18 2.51-4.77s1.88-3.11 2.87-4.55C28.33 22 30.12 22 32 22a44.66 44.66 0 0 1 5.38.21c1 1.44 2 3 2.87 4.55s1.75 3.14 2.51 4.73c-.74 1.58-1.59 3.17-2.51 4.76s-1.88 3.11-2.87 4.55c-1.71.2-3.5.2-5.38.2a44.66 44.66 0 0 1-5.38-.21 41.57 41.57 0 0 1-2.87-4.55c-.75-1.58-1.75-3.17-2.51-4.75zm-3.22-8c1.47-.35 3.05-.64 4.72-.89-.55.89-1.09 1.77-1.62 2.68s-1 1.82-1.49 2.72c-.56-1.52-1.07-3-1.52-4.51zM19.63 35c.48.91 1 1.82 1.49 2.72s1.07 1.8 1.62 2.68c-1.67-.25-3.25-.53-4.72-.88.51-1.52 1.05-3 1.61-4.52zm16.49-23.32a13.3 13.3 0 0 1 7.36-3.48h.14a3.33 3.33 0 0 1 1.69.45c2.06 1.13 2.65 4.57 1.93 9.46-.12.82-.28 1.65-.47 2.51a54.16 54.16 0 0 0-7.43-1.21h-.24a62.61 62.61 0 0 0-5.05-6 19.69 19.69 0 0 1 2.06-1.69zm25.21 19.81c0-4.27-4.57-7.9-11.85-10.12.22-1 .41-1.93.56-2.85.92-6.18-.27-10.64-3.38-12.37s-7.53-.62-12.37 3.3c-.74.58-1.47 1.24-2.21 1.92-.74-.68-1.46-1.34-2.2-1.92-4.88-3.92-9.36-5.09-12.37-3.3s-4.31 6.19-3.38 12.37c.15.92.33 1.87.55 2.85-7.42 2.22-12 5.85-12 10.12s4.59 7.89 11.85 10.12c-.22 1-.41 1.91-.56 2.84-.92 6.19.27 10.64 3.38 12.37a6.12 6.12 0 0 0 3.09.83h.09a15.81 15.81 0 0 0 9.28-4.14c.75-.57 1.47-1.23 2.21-1.91.74.68 1.46 1.34 2.21 1.91a15.72 15.72 0 0 0 9.21 4.12h.15a6.13 6.13 0 0 0 3.12-.85C49.77 55 51 50.64 50 44.45c-.15-.92-.34-1.87-.56-2.84 7.3-2.23 11.89-5.86 11.89-10.12z" />
</svg>
