<svg
  xmlns="http://www.w3.org/2000/svg"
  width="64"
  height="64"
  viewBox="0 0 64 64"
  fill="black"
  fill-rule="nonzero"
>
  <path d="M31 46c0 1.1-.9 2-2 2H19c-1.1 0-2-.9-2-2s.9-2 2-2h10c1.1 0 2 .9 2 2zm16-8c0 1.1-.9 2-2 2H19c-1.1 0-2-.9-2-2s.9-2 2-2h26c1.1 0 2 .9 2 2zm0-8c0 1.1-.9 2-2 2H19c-1.1 0-2-.9-2-2s.9-2 2-2h26c1.1 0 2 .9 2 2zm0-11c0 1.1-.9 2-2 2H19c-1.1 0-2-.9-2-2s.9-2 2-2h26c1.1 0 2 .9 2 2zm7.24 38.57l-5.04 4a2 2 0 0 1-2.5-.01l-3.82-3.08-4.83 3.19c-.73.48-1.68.44-2.36-.11L32 58.58l-3.65 2.98c-.68.55-1.63.6-2.36.12l-4.87-3.2-3.77 3.07a2 2 0 0 1-2.5.02l-5.09-4C9.28 57.19 9 56.61 9 56V8c0-.61.28-1.19.76-1.57l5.09-4a2 2 0 0 1 2.5.02l3.77 3.07 4.87-3.2c.73-.48 1.68-.43 2.36.12L32 5.42l3.69-2.98c.68-.55 1.63-.59 2.36-.11l4.83 3.19 3.82-3.08a2 2 0 0 1 2.5-.01l5.04 4c.48.38.76.96.76 1.57v48c0 .61-.28 1.19-.76 1.57zm-6.27-.13l3.03-2.4V8.97l-3.03-2.4-3.71 3c-.68.55-1.63.59-2.36.11l-4.83-3.19-3.81 3.08c-.74.59-1.79.59-2.52-.01l-3.77-3.07-4.87 3.2c-.73.48-1.68.43-2.36-.12l-3.67-2.99L13 8.99v46.06l3.07 2.41 3.67-2.99c.68-.55 1.63-.6 2.36-.12l4.87 3.2 3.77-3.07c.73-.6 1.78-.6 2.52-.01l3.81 3.08 4.83-3.19c.73-.48 1.68-.44 2.36.11z" />
</svg>
