<svg
  xmlns="http://www.w3.org/2000/svg"
  width="64"
  height="64"
  viewBox="0 0 64 64"
  fill="black"
  fill-rule="nonzero"
>
  <path d="M55 8v52c0 1.1-.9 2-2 2H11c-1.1 0-2-.9-2-2V8c0-.61.28-1.19.76-1.57l5.09-4a2 2 0 0 1 2.5.02l3.77 3.07 4.87-3.2c.73-.48 1.68-.43 2.36.12L32 5.42l3.69-2.98c.68-.55 1.63-.59 2.36-.11l4.83 3.19 3.82-3.08a2 2 0 0 1 2.5-.01l5.04 4c.48.38.76.96.76 1.57zM16.07 6.56L13 8.97V58h38V8.97l-3.03-2.4-3.71 3c-.68.55-1.63.59-2.36.11l-4.83-3.19-3.81 3.08c-.74.59-1.79.59-2.52-.01l-3.77-3.07-4.87 3.2c-.73.48-1.68.43-2.36-.12zM31 46c0 1.1-.9 2-2 2H19c-1.1 0-2-.9-2-2s.9-2 2-2h10c1.1 0 2 .9 2 2zm16-8c0 1.1-.9 2-2 2H19c-1.1 0-2-.9-2-2s.9-2 2-2h26c1.1 0 2 .9 2 2zm0-8c0 1.1-.9 2-2 2H19c-1.1 0-2-.9-2-2s.9-2 2-2h26c1.1 0 2 .9 2 2zm0-11c0 1.1-.9 2-2 2H19c-1.1 0-2-.9-2-2s.9-2 2-2h26c1.1 0 2 .9 2 2z" />
</svg>
