<svg
  xmlns="http://www.w3.org/2000/svg"
  width="64"
  height="64"
  viewBox="0 0 64 64"
  fill="black"
  fill-rule="nonzero"
>
  <path d="M53.5 15.07l-7.3 3-8.2-3.41a.1.1 0 0 1 0-.12l7.24-2.87 8.2 3.33a.14.14 0 0 1 0 .06.11.11 0 0 1 0 .06h.06zm-17.2 3.8l-3 5.61h-.05l-10.56-4.2v-.12c0-.13 0-.1.1-.1l13.3-1.36a.13.13 0 0 1 .12.13zM17.64 17.8h-.28a13.3 13.3 0 0 1-4.74-.87h.09c-1.35-.55-2.05-1.27-2.05-2.05s.68-1.42 1.93-1.91a12.25 12.25 0 0 1 4.15-.72h.37a13.44 13.44 0 0 1 4.72.85h-.09c1.37.54 2.05 1.28 2.05 2.05s-.66 1.4-1.85 1.89a12.36 12.36 0 0 1-4.3.76zm4.51-8.18l5.47-1-1.17-2.39v-.12H26.6l4.63 1.81 5.5-1.07h.14a.19.19 0 0 1 0 .07.24.24 0 0 1 0 .08l-2.44 2.05L39 10.83a.11.11 0 0 1 0 .07.09.09 0 0 1 0 .1h-.06l-6.36-.45-2.6 2.34-1.48-2.55-6.33-.45a.22.22 0 0 1-.17-.12s.05-.12.11-.14zm39.1 5a.55.55 0 0 0-.36-.52L32.17 2.67h-.43L3 14.11a.6.6 0 0 0-.37.53v8.2a.67.67 0 0 0 .36.54H3L31.74 34.8h.45L60.9 23.38a.68.68 0 0 0 .37-.53v-8.2zm0 12.92a.6.6 0 0 1-.3.29L32.24 39.27h-.43L3 27.87a.71.71 0 0 1-.31-.28.49.49 0 0 0 0 .12.53.53 0 0 0 0 .13V36a.59.59 0 0 0 .36.53L31.78 48h.44l28.7-11.44a.54.54 0 0 0 .37-.51v-8.18a.34.34 0 0 0 0-.1.46.46 0 0 0 0-.21zm0 13.37a.6.6 0 0 1-.3.29L32.24 52.64h-.43L3.1 41.22a.72.72 0 0 1-.31-.29.49.49 0 0 0 0 .12.53.53 0 0 0 0 .13v8.2a.55.55 0 0 0 .34.51l28.72 11.44h.45L61 49.89a.61.61 0 0 0 .36-.51v-8.2a.53.53 0 0 0-.12-.25z" />
</svg>
