<!-- Generated by IcoMoon.io -->
<svg version="1.1" xmlns="http://www.w3.org/2000/svg" width="32" height="32" viewBox="0 0 32 32">
<title>redis</title>
<path d="M30.27 20.37c-0.032 0.063-0.084 0.112-0.148 0.139l-0.002 0.001-14 5.57c-0.016 0.005-0.035 0.008-0.055 0.008s-0.039-0.003-0.056-0.008l0.001 0h-0.1l-14-5.57c-0.064-0.031-0.115-0.079-0.149-0.138l-0.001-0.002c-0.003 0.018-0.005 0.039-0.005 0.060s0.002 0.042 0.005 0.062l-0-0.002v4c0 0.113 0.070 0.209 0.168 0.249l0.002 0.001 14 5.58h0.22l14-5.58c0.1-0.044 0.17-0.138 0.18-0.249l0-0.001c0-0.12 0-3.86 0-4-0.013-0.046-0.033-0.086-0.061-0.121l0.001 0.001zM30.27 13.85c-0.032 0.063-0.084 0.112-0.148 0.139l-0.002 0.001-14 5.57h-0.21l-14.040-5.56c-0.064-0.031-0.115-0.079-0.149-0.138l-0.001-0.002c-0.003 0.018-0.005 0.039-0.005 0.060s0.002 0.042 0.005 0.062l-0-0.002v4c0.004 0.117 0.076 0.217 0.178 0.259l0.002 0.001 14 5.57h0.21l14-5.58c0.104-0.038 0.178-0.135 0.18-0.25v-3.98c0.004-0.015 0.006-0.032 0.006-0.049 0-0.037-0.010-0.072-0.026-0.102l0.001 0.001zM30.27 7.55c0-0.002 0-0.004 0-0.005 0-0.117-0.074-0.216-0.178-0.254l-0.002-0.001-14-5.58h-0.21l-14 5.58c-0.102 0.045-0.174 0.144-0.18 0.259l-0 0.001c0 0.11 0 3.85 0 4 0.012 0.114 0.082 0.21 0.178 0.259l0.002 0.001 14 5.57h0.22l14-5.57c0.098-0.050 0.168-0.146 0.18-0.259l0-0.001c0.020-0.15 0.020-3.89 0.020-4zM11.2 5.1l2.67-0.51-0.57-1.14s0-0.050 0-0.060c0.010-0.006 0.022-0.009 0.035-0.009s0.025 0.003 0.035 0.010l-0-0 2.26 0.88 2.68-0.52c0.010-0.004 0.022-0.007 0.035-0.007s0.025 0.003 0.036 0.007l-0.001-0c0.007 0.010 0.011 0.022 0.011 0.035s-0.004 0.025-0.011 0.035l0-0-1.19 1 2.24 0.87c0.007 0.010 0.011 0.022 0.011 0.035s-0.004 0.025-0.011 0.035l0-0c-0.009 0.004-0.019 0.007-0.030 0.007s-0.021-0.003-0.030-0.007l0 0-3.1-0.22-1.27 1.14-0.7-1.23-3.090-0.22c-0.029-0.009-0.051-0.031-0.060-0.059l-0-0.001s0.020-0.060 0.050-0.070zM9 9.090c-0.040 0.001-0.088 0.001-0.135 0.001-0.814 0-1.592-0.151-2.309-0.426l0.044 0.015c-0.66-0.27-1-0.62-1-1s0.33-0.69 0.94-0.93c0.602-0.222 1.296-0.351 2.021-0.351 0.031 0 0.062 0 0.094 0.001l-0.005-0c0.028-0 0.061-0.001 0.094-0.001 0.81 0 1.585 0.147 2.301 0.416l-0.045-0.015c0.67 0.26 1 0.62 1 1s-0.32 0.68-0.9 0.92c-0.625 0.233-1.346 0.369-2.1 0.37h-0zM18.1 9.61l-1.44 2.74c-0.007 0.004-0.016 0.007-0.025 0.007s-0.018-0.002-0.025-0.007l0 0-5.15-2.050s0 0 0-0.060 0-0.050 0.050-0.050l6.49-0.66s0 0 0 0c0.001-0 0.002-0 0.003-0 0.033 0 0.060 0.027 0.060 0.060 0 0.007-0.001 0.014-0.004 0.021l0-0zM26.49 7.76l-3.56 1.45-4-1.65c-0.005-0.009-0.008-0.019-0.008-0.030s0.003-0.021 0.008-0.030l-0 0 3.53-1.4 4 1.6c0.006 0.008 0.010 0.019 0.010 0.030s-0.004 0.022-0.010 0.030l0-0s0.010 0-0.010 0z"></path>
</svg>
