<!-- Generated by IcoMoon.io -->
<svg version="1.1" xmlns="http://www.w3.org/2000/svg" width="32" height="32" viewBox="0 0 32 32">
<title>redux</title>
<path d="M13.88 22.24c-0.030 1.081-0.914 1.946-1.999 1.946-1.105 0-2-0.895-2-2 0-0.446 0.146-0.858 0.393-1.191l-0.004 0.005c-1.422-2.069-2.272-4.628-2.272-7.385 0-0.072 0.001-0.144 0.002-0.216l-0 0.011c0-5.95 3.53-10.8 7.87-10.8 4 0 7.24 4 7.78 9.27-0.449-0.22-1.017-0.457-1.6-0.663l-0.12-0.037c-0.68-4-3.13-7-6.060-7-3.45 0-6.25 4.13-6.25 9.19-0.002 0.075-0.003 0.162-0.003 0.25 0 2.466 0.784 4.75 2.116 6.614l-0.023-0.035h0.16c0.003-0 0.007-0 0.010-0 1.105 0 2 0.895 2 2 0 0.014-0 0.028-0 0.042l0-0.002zM20.56 17.85c-0.612 0.35-1.018 0.999-1.018 1.742 0 0.375 0.103 0.727 0.283 1.027l-0.005-0.009c0.033 0.039 0.066 0.081 0.097 0.125l0.003 0.005c-1.042 2.252-2.725 4.060-4.812 5.23l-0.058 0.030c-4.39 2.5-9.36 2.13-11.050-0.86-1.42-2.46-0.19-5.94 2.74-8.51-0.11-0.518-0.202-1.154-0.256-1.8l-0.004-0.060c-4.11 3.090-5.85 7.82-3.91 11.23 2.17 3.76 8.13 4.39 13.29 1.41 2.365-1.338 4.234-3.313 5.406-5.693l0.034-0.077c0.084 0.012 0.181 0.020 0.279 0.020 1.105 0 2-0.895 2-2 0-0.376-0.104-0.728-0.284-1.029l0.005 0.009c-0.345-0.628-1.003-1.047-1.759-1.047-0.361 0-0.699 0.095-0.991 0.263l0.010-0.005zM24.010 13.85c-1.93-1.172-4.264-1.865-6.759-1.865-0.338 0-0.673 0.013-1.005 0.038l0.044-0.003c-0.311-0.726-1.019-1.226-1.844-1.226-1.105 0-2 0.895-2 2s0.895 2 2 2c0.738 0 1.383-0.4 1.729-0.994l0.005-0.009c0.019-0.036 0.039-0.083 0.057-0.13l0.003-0.010c0.332-0.034 0.718-0.054 1.108-0.054 2.177 0 4.212 0.612 5.942 1.672l-0.050-0.028c4.39 2.54 6.56 7 4.84 10-1.46 2.52-5.23 3.17-9 1.79-0.441 0.371-0.93 0.743-1.437 1.089l-0.063 0.041c4.79 2.13 9.92 1.31 11.89-2.11 2.13-3.7-0.3-9.18-5.47-12.16z"></path>
</svg>
