<svg
  xmlns="http://www.w3.org/2000/svg"
  width="64"
  height="64"
  viewBox="0 0 64 64"
  fill="black"
  fill-rule="nonzero"
>
  <path d="M26.52 58c0 1.1-.9 2-2 2H16c-2.21 0-4.21-.9-5.66-2.34A7.973 7.973 0 0 1 8 52V12c0-2.21.9-4.21 2.34-5.66A7.973 7.973 0 0 1 16 4h38c1.1 0 2 .9 2 2v16.19c0 1.1-.9 2-2 2s-2-.9-2-2V8H20v36c1.1 0 2 .9 2 2s-.9 2-2 2h-4c-1.11 0-2.1.45-2.83 1.17C12.44 49.9 12 50.89 12 52s.45 2.1 1.17 2.83C13.9 55.56 14.89 56 16 56h8.52c1.1 0 2 .9 2 2zM13.17 9.17C12.44 9.9 12 10.89 12 12v33.07A7.971 7.971 0 0 1 16 44V8c-1.11 0-2.1.45-2.83 1.17zM26 44c0-4.97 2.02-9.47 5.27-12.73C34.53 28.01 39.03 26 44 26c4.97 0 9.47 2.02 12.73 5.27C59.99 34.53 62 39.03 62 44c0 4.97-2.02 9.47-5.27 12.73A17.941 17.941 0 0 1 44 62c-4.97 0-9.47-2.02-12.73-5.27A17.941 17.941 0 0 1 26 44zm8.1 9.9c2.54 2.54 6.03 4.1 9.9 4.1s7.36-1.56 9.9-4.1c2.54-2.54 4.1-6.03 4.1-9.9s-1.56-7.36-4.1-9.9C51.36 31.56 47.87 30 44 30s-7.36 1.56-9.9 4.1C31.56 36.64 30 40.13 30 44s1.56 7.36 4.1 9.9zM44 34c1.1 0 2 .9 2 2v11.17l4.59-4.59c.78-.78 2.05-.78 2.83 0 .78.78.78 2.05 0 2.83l-8 8c-.19.19-.41.34-.65.43-.24.1-.49.15-.77.15a1.994 1.994 0 0 1-1.42-.58l-8-8c-.78-.78-.78-2.05 0-2.83.78-.78 2.05-.78 2.83 0L42 47.17V36c0-1.1.9-2 2-2z" />
</svg>
