<svg
  xmlns="http://www.w3.org/2000/svg"
  width="64"
  height="64"
  viewBox="0 0 64 64"
  fill="black"
  fill-rule="nonzero"
>
  <path d="M16 60c-2.21 0-4.21-.9-5.66-2.34A7.973 7.973 0 0 1 8 52V12c0-2.21.9-4.21 2.34-5.66A7.973 7.973 0 0 1 16 4h38c1.1 0 2 .9 2 2v52c0 1.1-.9 2-2 2zm0-12c-1.11 0-2.1.45-2.83 1.17C12.44 49.9 12 50.89 12 52s.45 2.1 1.17 2.83C13.9 55.56 14.89 56 16 56h36v-8zM13.17 9.17C12.44 9.9 12 10.89 12 12v33.07A7.971 7.971 0 0 1 16 44V8c-1.11 0-2.1.45-2.83 1.17zM52 44V8H20v36z" />
</svg>
