<svg
  xmlns="http://www.w3.org/2000/svg"
  width="64"
  height="64"
  viewBox="0 0 64 64"
  fill="black"
  fill-rule="nonzero"
>
  <path d="M13 58h38v-8c0-2.21-.89-4.21-2.34-5.66a7.94 7.94 0 0 0-4.83-2.3c-.43 2.5-1.63 4.73-3.34 6.44A11.962 11.962 0 0 1 32 51.99c-3.31 0-6.32-1.35-8.49-3.51a12.01 12.01 0 0 1-3.34-6.44 7.94 7.94 0 0 0-4.83 2.3A7.973 7.973 0 0 0 13 50zm40 4H11c-1.1 0-2-.9-2-2V50c0-3.31 1.35-6.32 3.51-8.49C14.68 39.34 17.68 38 21 38h22c3.31 0 6.32 1.35 8.49 3.51C53.66 43.68 55 46.68 55 50v10c0 1.1-.9 2-2 2zM32 31c1.68 0 3.23-.37 4.6-1.07 1.71-.87 3.2-2.27 4.31-4.18C42.2 23.53 43 20.59 43 17c0-3.04-1.23-5.79-3.22-7.78A10.965 10.965 0 0 0 32 6c-3.04 0-5.79 1.23-7.78 3.22A10.965 10.965 0 0 0 21 17c0 3.58.81 6.52 2.11 8.75 1.12 1.92 2.63 3.33 4.35 4.2C28.81 30.63 30.34 31 32 31zm-6.33 2.53c-2.47-1.24-4.53-3.22-6.01-5.76-1.71-2.93-2.65-6.6-2.65-10.77a14.99 14.99 0 0 1 15-15 14.99 14.99 0 0 1 15 15c0 4.18-.93 7.83-2.63 10.76-1.47 2.53-3.51 4.5-5.96 5.74-1.95.99-4.12 1.5-6.41 1.5-2.26 0-4.4-.5-6.33-1.47zm.67 12.13A7.973 7.973 0 0 0 32 48c2.21 0 4.21-.89 5.66-2.34 1-1 1.73-2.25 2.09-3.66h-15.5a7.942 7.942 0 0 0 2.09 3.66z" />
</svg>
