<svg
  xmlns="http://www.w3.org/2000/svg"
  width="64"
  height="64"
  viewBox="0 0 64 64"
  fill="black"
  fill-rule="nonzero"
>
  <path d="M54.93 27.89l-2.84-.37v-8l2.84 1zm-12.81-6.68l-5.84 1v6.4l2.93.2 2.91-.16v25.44l-9.36 4.75V5.2l9.36 4.69zm-12.91 3.53L13.4 22.68v-7.76l15.81 3.71zm26.61-6.64l-2.85-1a2.49 2.49 0 0 0-.83-.14h-.49l-6.95 1.2v-8.3a2.58 2.58 0 0 0-1.41-2.3l-9.38-4.63a2.7 2.7 0 0 0-1.15-.26 2.73 2.73 0 0 0-1.18.27l-9.37 4.7a2.57 2.57 0 0 0-1.42 2.3v4.12L14 12.4h-.6a2.88 2.88 0 0 0-1.17.28l-2.81 1.41A2.59 2.59 0 0 0 8 16.34v7.14a2.6 2.6 0 0 0 2.28 2.58l10.5 1.17v26.82a2.58 2.58 0 0 0 1.41 2.3l9.39 4.71a2.7 2.7 0 0 0 1.15.26 2.72 2.72 0 0 0 1.17-.27l9.37-4.71a2.57 2.57 0 0 0 1.42-2.3v-23L55 30.53a2.59 2.59 0 0 0 2.49-2.6v-7.47a2.59 2.59 0 0 0-1.67-2.36z" />
</svg>
