<!-- Generated by IcoMoon.io -->
<svg version="1.1" xmlns="http://www.w3.org/2000/svg" width="32" height="32" viewBox="0 0 32 32">
<title>route53</title>
<path d="M27.18 9.25l-1.38-0.5c-0.121-0.044-0.261-0.070-0.406-0.070-0.008 0-0.017 0-0.025 0l0.001-0h-0.21l-3.37 0.58v-4c0-0.001 0-0.002 0-0.002 0-0.486-0.278-0.908-0.683-1.114l-0.007-0.003-4.54-2.24c-0.164-0.078-0.356-0.126-0.559-0.13l-0.001-0c-0.204 0.003-0.396 0.050-0.568 0.133l0.008-0.004-4.55 2.28c-0.412 0.21-0.69 0.631-0.69 1.118 0 0.001 0 0.002 0 0.003v-0 2l-3.3-0.81c-0.042-0.005-0.091-0.008-0.14-0.008s-0.098 0.003-0.146 0.008l0.006-0.001c-0.204 0.003-0.396 0.051-0.568 0.133l0.008-0.003-1.37 0.69c-0.404 0.206-0.679 0.615-0.69 1.089l-0 0.001v3.46c0.001 0.643 0.482 1.173 1.104 1.249l0.006 0.001 5.090 0.57v13c0 0.001 0 0.002 0 0.002 0 0.486 0.278 0.908 0.683 1.114l0.007 0.003 4.55 2.28c0.164 0.079 0.356 0.127 0.559 0.13h0.001c0.204-0.004 0.396-0.052 0.568-0.134l-0.008 0.004 4.54-2.28c0.412-0.21 0.69-0.631 0.69-1.118 0-0.001 0-0.002 0-0.003v0-11.13l5-0.27c0.674-0.027 1.21-0.581 1.21-1.259 0-0.007-0-0.015-0-0.022v0.001-3.6c-0.013-0.526-0.346-0.97-0.811-1.147l-0.009-0.003zM14.28 12.47l-7.66-1v-3.76l7.66 1.8zM20.54 10.76l-2.83 0.48v3.1l1.42 0.1 1.41-0.080v12.34l-4.54 2.3v-26l4.54 2.27zM26.75 14l-1.38-0.18v-3.89l1.38 0.5z"></path>
</svg>
