<svg
  xmlns="http://www.w3.org/2000/svg"
  width="64"
  height="64"
  viewBox="0 0 64 64"
  fill="black"
  fill-rule="nonzero"
>
  <path d="M14.98 63.06L.84 48.92c-.78-.78-.78-2.05 0-2.83l5.6-5.6c.02-.02.03-.04.05-.05l.05-.05 5.47-5.47c.04-.05.08-.09.13-.14.04-.04.09-.09.14-.13l5.4-5.4c.04-.05.08-.09.13-.14.04-.04.09-.09.14-.13l5.47-5.47c.02-.02.03-.04.05-.05l.05-.05 5.47-5.47c.04-.05.08-.09.13-.14.04-.04.09-.09.14-.13l5.4-5.4c.04-.05.08-.09.13-.14.04-.04.09-.09.14-.13l5.47-5.47c.02-.02.03-.04.05-.05l.05-.05L46.11.82c.78-.78 2.05-.78 2.83 0l14.14 14.14c.78.78.78 2.05 0 2.83L17.83 63.04c-.78.78-2.05.78-2.83 0zm43.84-46.67L47.51 5.08l-2.83 2.83 7.06 7.06c.78.78.78 2.05 0 2.83-.78.78-2.05.78-2.83 0l-7.06-7.06-2.83 2.83 4.24 4.24c.78.78.78 2.05 0 2.83-.78.78-2.05.78-2.83 0l-4.24-4.24-2.83 2.83 4.24 4.24c.78.78.78 2.05 0 2.83-.78.78-2.05.78-2.83 0l-4.24-4.24-2.83 2.83 7.06 7.06c.78.78.78 2.05 0 2.83-.78.78-2.05.78-2.83 0l-7.06-7.06-2.83 2.83 4.24 4.24c.78.78.78 2.05 0 2.83-.78.78-2.05.78-2.83 0l-4.24-4.24-2.83 2.83 4.24 4.24c.78.78.78 2.05 0 2.83-.78.78-2.05.78-2.83 0l-4.24-4.24-2.83 2.83 7.06 7.06c.78.78.78 2.05 0 2.83-.78.78-2.05.78-2.83 0L7.89 44.7l-2.83 2.83 11.31 11.31z" />
</svg>
