<!-- Generated by IcoMoon.io -->
<svg version="1.1" xmlns="http://www.w3.org/2000/svg" width="32" height="32" viewBox="0 0 32 32">
<title>safe</title>
<path d="M30.228 19.422v-6.843c0.007-0.044 0.011-0.089 0.011-0.135s-0.005-0.091-0.011-0.135v-7.857c0-0.497-0.403-0.9-0.9-0.9h-26.654c-0.497 0-0.9 0.403-0.9 0.9v23.097c0 0.497 0.403 0.9 0.9 0.9h1.171c0.349 0 0.663 0.204 0.815 0.518 0.359 0.746 1.121 1.26 2.004 1.26v0c0.883 0 1.645-0.515 2.004-1.26 0.151-0.315 0.466-0.518 0.815-0.518h13.035c0.349 0 0.663 0.204 0.815 0.518 0.359 0.746 1.121 1.26 2.004 1.26v0c0.883 0 1.645-0.515 2.004-1.26 0.151-0.315 0.466-0.518 0.815-0.518h1.171c0.497 0 0.9-0.403 0.9-0.9v-7.857c0.007-0.044 0.011-0.089 0.011-0.135s-0.005-0.091-0.011-0.135zM3.573 25.748v-19.496c0-0.497 0.403-0.9 0.9-0.9h23.052c0.497 0 0.9 0.403 0.9 0.9v4.39c0 0.497-0.403 0.9-0.9 0.9h-1.719c-0.485 0-0.902 0.373-0.925 0.857-0.024 0.517 0.388 0.944 0.899 0.944h1.745c0.497 0 0.9 0.403 0.9 0.9v3.512c0 0.497-0.403 0.9-0.9 0.9h-1.719c-0.485 0-0.902 0.373-0.925 0.857-0.024 0.517 0.388 0.944 0.899 0.944h1.745c0.497 0 0.9 0.403 0.9 0.9v4.39c0 0.497-0.403 0.9-0.9 0.9h-23.052c-0.497 0-0.9-0.403-0.9-0.9z"></path>
<path d="M21.785 18.274l-0.167-0.096c-0.12-0.069-0.172-0.214-0.124-0.343 0.229-0.626 0.355-1.301 0.355-2.005 0-2.838-2.032-5.211-4.718-5.739-0.133-0.026-0.23-0.142-0.23-0.278v0c0-0.485-0.373-0.902-0.857-0.925-0.517-0.024-0.944 0.388-0.944 0.899v0.025c0 0.136-0.096 0.252-0.23 0.278-2.686 0.528-4.718 2.9-4.718 5.739 0 0.64 0.104 1.256 0.295 1.833 0.077 0.233-0.018 0.489-0.231 0.612v0c-0.407 0.235-0.59 0.782-0.377 1.201 0.161 0.316 0.478 0.494 0.804 0.494 0.153 0 0.308-0.039 0.449-0.121l0.077-0.044c0.206-0.119 0.465-0.081 0.63 0.089 1.064 1.1 2.554 1.785 4.201 1.785 1.71 0 3.25-0.738 4.32-1.912 0.090-0.099 0.236-0.121 0.351-0.055l0.236 0.136c0.142 0.082 0.297 0.121 0.449 0.121 0.309 0 0.609-0.159 0.777-0.444 0.253-0.43 0.083-1-0.35-1.25zM16 20.446c-0.542 0-1.060-0.107-1.533-0.3-0.693-0.284-0.759-1.24-0.11-1.614l0.108-0.063c0.229-0.132 0.506-0.162 0.753-0.068 0.235 0.089 0.489 0.137 0.755 0.137 0.275 0 0.538-0.052 0.779-0.147 0.249-0.098 0.53-0.068 0.761 0.065l0.13 0.075c0.649 0.375 0.583 1.33-0.11 1.614-0.473 0.194-0.99 0.3-1.533 0.3zM19.85 13.777c0.271 0.47 0.437 0.971 0.506 1.478 0.101 0.742-0.694 1.277-1.343 0.903l-0.108-0.063c-0.229-0.132-0.393-0.357-0.435-0.618-0.040-0.248-0.125-0.492-0.258-0.722-0.138-0.238-0.314-0.44-0.517-0.601-0.209-0.166-0.324-0.424-0.324-0.692v-0.15c0-0.749 0.861-1.17 1.453-0.712 0.404 0.313 0.755 0.707 1.027 1.177zM12.15 13.777c0.271-0.47 0.622-0.865 1.027-1.177 0.592-0.458 1.453-0.038 1.453 0.712v0.125c0 0.264-0.113 0.519-0.317 0.686-0.194 0.159-0.363 0.355-0.496 0.585-0.138 0.238-0.224 0.492-0.262 0.748-0.040 0.264-0.206 0.493-0.437 0.626l-0.13 0.075c-0.649 0.375-1.443-0.16-1.343-0.903 0.069-0.506 0.235-1.008 0.506-1.478z"></path>
<path d="M6.219 7.986c-0.497 0-0.9 0.403-0.9 0.9v14.228c0 0.497 0.403 0.9 0.9 0.9s0.9-0.403 0.9-0.9v-14.228c0-0.497-0.403-0.9-0.9-0.9z"></path>
</svg>
