<svg
  xmlns="http://www.w3.org/2000/svg"
  width="64"
  height="64"
  viewBox="0 0 64 64"
  fill="black"
  fill-rule="nonzero"
>
  <path d="M16 55h4v-2h-4zm8 2c0 1.1-.9 2-2 2h-8c-1.1 0-2-.9-2-2v-4h-1a7 7 0 0 1-7-7V12a7 7 0 0 1 7-7h38a7 7 0 0 1 7 7v3h2c1.1 0 2 .9 2 2v8c0 1.1-.9 2-2 2h-2v4h2c1.1 0 2 .9 2 2v8c0 1.1-.9 2-2 2h-2v3a7 7 0 0 1-7 7h-1v4c0 1.1-.9 2-2 2h-8c-1.1 0-2-.9-2-2v-4H24zm16-2h4v-2h-4zM18 35c-1.1 0-2-.9-2-2v-8c0-1.1.9-2 2-2s2 .9 2 2v8c0 1.1-.9 2-2 2zm7-6c0-2.76 1.12-5.26 2.93-7.07A9.969 9.969 0 0 1 35 19c2.76 0 5.26 1.12 7.07 2.93A9.969 9.969 0 0 1 45 29c0 2.76-1.12 5.26-2.93 7.07A9.969 9.969 0 0 1 35 39c-2.76 0-5.26-1.12-7.07-2.93A9.969 9.969 0 0 1 25 29zm5.76 4.24A5.98 5.98 0 0 0 35 35c1.66 0 3.15-.67 4.24-1.76A5.98 5.98 0 0 0 41 29c0-1.66-.67-3.15-1.76-4.24A5.98 5.98 0 0 0 35 23c-1.66 0-3.15.67-4.24 1.76A5.98 5.98 0 0 0 29 29c0 1.66.67 3.15 1.76 4.24zM48 25v-8c0-1.1.9-2 2-2h2v-3c0-.83-.33-1.58-.88-2.12C50.57 9.33 49.83 9 49 9H11c-.83 0-1.58.33-2.12.88C8.33 10.43 8 11.17 8 12v34c0 .83.33 1.58.88 2.12.55.55 1.29.88 2.12.88h38c.83 0 1.58-.33 2.12-.88.55-.55.88-1.29.88-2.12v-3h-2c-1.1 0-2-.9-2-2v-8c0-1.1.9-2 2-2h2v-4h-2c-1.1 0-2-.9-2-2zm8-2v-4h-4v4zm0 16v-4h-4v4z" />
</svg>
