<svg
  xmlns="http://www.w3.org/2000/svg"
  width="64"
  height="64"
  viewBox="0 0 64 64"
  fill="black"
  fill-rule="nonzero"
>
  <path d="M50.06 13.94l6.76 2.18c.98.31 1.56 1.32 1.34 2.32l-1.49 6.95 4.76 5.27c.69.76.69 1.92 0 2.68l-4.76 5.27 1.49 6.95c.22 1-.36 2.01-1.34 2.32l-6.76 2.18-2.18 6.76c-.31.98-1.32 1.56-2.32 1.34l-6.95-1.49-5.27 4.76c-.76.69-1.92.69-2.68 0l-5.27-4.76-6.95 1.49c-1 .22-2.01-.36-2.32-1.34l-2.18-6.76-6.76-2.18a1.988 1.988 0 0 1-1.34-2.32l1.49-6.95-4.76-5.27c-.69-.76-.69-1.92 0-2.68l4.76-5.27-1.49-6.95c-.22-1 .36-2.01 1.34-2.32l6.76-2.18 2.18-6.76c.31-.98 1.32-1.56 2.32-1.34l6.95 1.49 5.27-4.76c.76-.69 1.92-.69 2.68 0l5.27 4.76 6.95-1.49c1-.22 2.01.36 2.32 1.34zm-3.49 2.2l-1.94-6.02-6.18 1.33c-.63.14-1.28-.04-1.76-.47L32 6.74l-4.69 4.24c-.48.43-1.13.61-1.76.47l-6.18-1.33-1.94 6.02c-.2.61-.68 1.09-1.29 1.29l-6.02 1.94 1.33 6.18c.14.63-.04 1.28-.47 1.76L6.74 32l4.24 4.69c.43.48.61 1.13.47 1.76l-1.33 6.18 6.02 1.94c.61.2 1.09.68 1.29 1.29l1.94 6.02 6.18-1.33c.63-.14 1.28.04 1.76.47L32 57.26l4.69-4.24c.48-.43 1.13-.61 1.76-.47l6.18 1.33 1.94-6.02c.2-.61.68-1.09 1.29-1.29l6.02-1.94-1.33-6.18c-.14-.63.04-1.28.47-1.76L57.26 32l-4.24-4.69c-.43-.48-.61-1.13-.47-1.76l1.33-6.18-6.02-1.94c-.61-.2-1.09-.68-1.29-1.29zm.84 5.45c.78.78.78 2.05 0 2.83l-19 19c-.78.78-2.05.78-2.83 0l-9-9c-.78-.78-.78-2.05 0-2.83.78-.78 2.05-.78 2.83 0L27 39.18l17.59-17.59c.78-.78 2.05-.78 2.83 0z" />
</svg>
