<svg
  xmlns="http://www.w3.org/2000/svg"
  width="64"
  height="64"
  viewBox="0 0 64 64"
  fill="black"
  fill-rule="nonzero"
>
  <path d="M18 60v-5.13c-3.47-.46-5.84-2.09-7.38-4.12C7.99 47.3 8 43.06 8 42.99c0-1.1.9-2 2-2h8v-2.13c-3.47-.46-5.84-2.09-7.38-4.12C7.99 31.29 8 27.05 8 26.98c0-1.1.9-2 2-2h8v-2.13c-3.47-.46-5.84-2.09-7.38-4.12C7.99 15.28 8 11.04 8 10.97c0-1.1.9-2 2-2h8v-5c0-1.1.9-2 2-2h24c1.1 0 2 .9 2 2v5h8c1.1 0 2 .9 2 2 0 .07.02 4.31-2.62 7.76-1.54 2.02-3.92 3.66-7.38 4.12v2.13h8c1.1 0 2 .9 2 2 0 .07.02 4.31-2.62 7.76-1.54 2.02-3.92 3.66-7.38 4.12v2.13h8c1.1 0 2 .9 2 2 0 .07.02 4.31-2.62 7.76-1.54 2.02-3.92 3.66-7.38 4.12V60c0 1.1-.9 2-2 2H20c-1.1 0-2-.9-2-2zm24-2V6H22v52zM25 16a7 7 0 1 1 14-.001A7 7 0 0 1 25 16zm4.88 2.12c.55.55 1.29.88 2.12.88.83 0 1.58-.33 2.12-.88.55-.55.88-1.29.88-2.12 0-.83-.33-1.58-.88-2.12-.55-.55-1.29-.88-2.12-.88-.83 0-1.58.33-2.12.88-.55.55-.88 1.29-.88 2.12 0 .83.33 1.58.88 2.12zM25 32a7 7 0 1 1 14-.001A7 7 0 0 1 25 32zm4.88 2.12c.55.55 1.29.88 2.12.88.83 0 1.58-.33 2.12-.88.55-.55.88-1.29.88-2.12 0-.83-.33-1.58-.88-2.12-.55-.55-1.29-.88-2.12-.88-.83 0-1.58.33-2.12.88-.55.55-.88 1.29-.88 2.12 0 .83.33 1.58.88 2.12zM25 48a7 7 0 1 1 14-.001A7 7 0 0 1 25 48zm4.88 2.12c.55.55 1.29.88 2.12.88.83 0 1.58-.33 2.12-.88.55-.55.88-1.29.88-2.12 0-.83-.33-1.58-.88-2.12-.55-.55-1.29-.88-2.12-.88-.83 0-1.58.33-2.12.88-.55.55-.88 1.29-.88 2.12 0 .83.33 1.58.88 2.12zm20.32-1.79c.83-1.09 1.28-2.32 1.52-3.33H46v5.82c2.1-.4 3.37-1.41 4.2-2.5zm0-16c.83-1.09 1.28-2.32 1.52-3.33H46v5.82c2.1-.4 3.37-1.41 4.2-2.5zm0-16c.83-1.09 1.28-2.32 1.52-3.33H46v5.82c2.1-.4 3.37-1.41 4.2-2.5zM12.28 45c.24 1.01.69 2.24 1.52 3.33.83 1.09 2.1 2.1 4.2 2.5v-5.82zm0-16c.24 1.01.69 2.24 1.52 3.33.83 1.09 2.1 2.1 4.2 2.5v-5.82zm0-16c.24 1.01.69 2.24 1.52 3.33.83 1.09 2.1 2.1 4.2 2.5v-5.82z" />
</svg>
