<!-- Generated by IcoMoon.io -->
<svg version="1.1" xmlns="http://www.w3.org/2000/svg" width="32" height="32" viewBox="0 0 32 32">
<title>sentry</title>
<path d="M19.57 25.89c-0.64-6.74-4.16-11.57-9.73-15.23 1.37-2.27 2.55-4.51 4-6.56 1.24-1.77 3.58-1.47 4.79 0.49s2.38 4.060 3.54 6.1c1.59 2.82 3.16 5.66 4.75 8.47 0.89 1.58 1.87 3.13 2.68 4.75 0.393 0.727 0.629 1.59 0.64 2.506l0 0.003c-0.005 1.409-1.135 2.552-2.537 2.58l-0.003 0c-0.74 0.080-1.5 0.060-2.24 0.070-0.28-0.011-0.542-0.036-0.8-0.075l0.040 0.005v-3c0.34 0 0.65-0.060 1-0.070 1.33 0 1.57-0.4 0.93-1.53-1-1.76-2-3.51-3-5.28q-3.38-5.79-6.63-11.6c-0.74-1.28-1.17-1.27-1.89 0l-1.11 1.94c0 0.060 0 0.14-0.060 0.29 5.72 5.060 9.060 11.25 8.54 19.25h-7.9c0.040-0.398 0.062-0.86 0.062-1.328 0-2.774-0.794-5.363-2.167-7.552l0.035 0.059c-0.74-1.18-1.67-2.18-2.58-3.35-0.23 0.31-0.3 0.43-0.39 0.54-0.79 0.94-0.77 1.65 0.15 2.67 1.731 1.991 2.787 4.61 2.787 7.476 0 0.523-0.035 1.039-0.103 1.543l0.007-0.059c-0.241 0.047-0.529 0.083-0.823 0.099l-0.017 0.001c-2.11 0-4.21 0-6.31 0-3.23 0.050-4.23-2.8-2.91-5.010 0.49-0.81 1-1.65 1.5-2.59l2.3 1.76c-0.3 0.53-0.55 0.95-0.78 1.39-0.4 0.8-0.17 1.26 0.71 1.29 1.060 0 2.12 0 3.32 0-0.497-2.728-2.166-4.989-4.455-6.277l-0.045-0.023c1.34-2.32 2.64-4.6 4-6.93 4.742 2.714 8.022 7.515 8.594 13.117l0.006 0.073c0.37 0 0.72 0 1.070 0s0.62 0 1.050-0.050z"></path>
</svg>
