<svg
  xmlns="http://www.w3.org/2000/svg"
  width="64"
  height="64"
  viewBox="0 0 64 64"
  fill="black"
  fill-rule="nonzero"
>
  <path d="M19 32c0-3.59 1.46-6.84 3.81-9.19C25.16 20.46 28.41 19 32 19s6.84 1.46 9.19 3.81C43.54 25.16 45 28.41 45 32s-1.46 6.84-3.81 9.19C38.84 43.54 35.59 45 32 45s-6.84-1.46-9.19-3.81C20.46 38.84 19 35.59 19 32zm6.64 6.36A8.972 8.972 0 0 0 32 41c2.49 0 4.73-1.01 6.36-2.64A8.972 8.972 0 0 0 41 32c0-2.49-1.01-4.73-2.64-6.36A8.972 8.972 0 0 0 32 23c-2.49 0-4.73 1.01-6.36 2.64A8.972 8.972 0 0 0 23 32c0 2.49 1.01 4.73 2.64 6.36zm17.17 10.12s1.5.93 3.03 1.81c.82.47 1.53.86 2.02 1.1.35-.3.95-.84 1.82-1.71.91-.91 1.42-1.46 1.71-1.79-.25-.5-.66-1.31-1.09-2.05-.88-1.53-1.81-3.03-1.81-3.03-.34-.55-.4-1.23-.15-1.83l1.57-3.75c.25-.59.77-1.03 1.39-1.18 0 0 1.72-.4 3.42-.85.9-.24 1.68-.47 2.2-.64.03-.46.08-1.26.08-2.49 0-1.28-.03-2.03-.06-2.47-.53-.18-1.39-.45-2.21-.67-1.7-.45-3.42-.84-3.42-.84-.63-.14-1.16-.59-1.41-1.19l-1.57-3.8c-.25-.6-.19-1.27.15-1.82 0 0 .93-1.5 1.81-3.02.47-.81.86-1.53 1.1-2.01-.3-.35-.84-.95-1.71-1.82-.88-.88-1.45-1.44-1.84-1.79-.5.25-1.29.65-2.02 1.07-1.53.88-3.03 1.81-3.03 1.81-.55.34-1.23.4-1.83.15l-3.73-1.57c-.59-.25-1.03-.77-1.17-1.39 0 0-.4-1.72-.85-3.42-.24-.9-.47-1.67-.64-2.19-.48-.04-1.33-.09-2.56-.09-1.28 0-2.03.03-2.47.06-.18.53-.45 1.39-.67 2.21-.45 1.7-.84 3.42-.84 3.42-.14.63-.59 1.16-1.19 1.41l-3.8 1.57c-.6.25-1.27.19-1.82-.15 0 0-1.5-.93-3.02-1.81-.81-.47-1.53-.86-2.01-1.1-.35.3-.95.84-1.82 1.71-.92.92-1.45 1.48-1.74 1.81.25.5.66 1.3 1.09 2.05.88 1.52 1.81 3.02 1.81 3.02.34.55.4 1.23.15 1.83l-1.57 3.74c-.25.59-.77 1.03-1.39 1.17 0 0-1.72.4-3.42.85-.9.24-1.67.47-2.19.64-.04.48-.09 1.33-.09 2.56 0 1.28.03 2.03.06 2.47.53.18 1.39.45 2.21.67 1.7.45 3.42.84 3.42.84.63.14 1.16.59 1.41 1.19l1.57 3.79c.25.6.19 1.27-.15 1.82 0 0-.93 1.5-1.81 3.03-.47.82-.86 1.53-1.1 2.02.3.35.84.95 1.71 1.82.91.91 1.46 1.42 1.79 1.71.5-.25 1.3-.66 2.05-1.09 1.52-.88 3.02-1.81 3.02-1.81.55-.35 1.24-.4 1.84-.14l3.76 1.6c.59.25 1.02.77 1.17 1.39 0 0 .4 1.72.85 3.42.24.9.47 1.68.64 2.2.46.03 1.26.08 2.49.08 1.28 0 2.03-.03 2.47-.06.18-.53.45-1.39.67-2.21.45-1.7.84-3.42.84-3.42.15-.64.59-1.17 1.2-1.41l3.89-1.57c.59-.24 1.26-.18 1.81.16zm4.61-36.19zm-5.86 40.12l-1.99.8c-.16.68-.39 1.61-.64 2.54-.3 1.13-.89 3.48-1.66 4.25-1.07 1.07-3.26 1-5.34 1s-4.27.08-5.34-1c-.01-.01-.02-.03-.04-.04-.71-.75-1.3-3.06-1.61-4.21-.25-.94-.48-1.88-.65-2.56l-1.88-.8c-.59.36-1.42.86-2.25 1.34-1.02.59-3.1 1.82-4.18 1.82-1.53 0-3.01-1.6-4.48-3.08-1.48-1.48-3.08-2.97-3.08-4.48 0-1.08 1.23-3.16 1.82-4.18.48-.84.98-1.67 1.34-2.27l-.79-1.9c-.68-.16-1.61-.39-2.55-.64-1.13-.3-3.48-.89-4.25-1.66-1.07-1.07-1-3.26-1-5.34 0-2.22-.03-4.17.86-5.27.05-.06.11-.13.17-.18.75-.71 3.06-1.3 4.21-1.61.94-.25 1.87-.48 2.55-.65l.78-1.86c-.36-.59-.86-1.42-1.34-2.26-.59-1.02-1.82-3.1-1.82-4.18 0-1.54 1.65-3.05 3.11-4.5 1.47-1.47 2.96-3.08 4.48-3.08 1.08 0 3.16 1.23 4.18 1.82.84.48 1.67.98 2.26 1.34l1.91-.79c.16-.68.39-1.61.64-2.55.3-1.13.89-3.48 1.66-4.25 1.07-1.07 3.26-1 5.34-1 2.22 0 4.17-.03 5.27.86.06.05.13.11.18.17.71.75 1.3 3.06 1.61 4.21.25.94.48 1.88.65 2.55l1.85.78c.6-.36 1.42-.86 2.26-1.34 1.02-.59 3.1-1.82 4.18-1.82 1.55 0 3.13 1.8 4.5 3.18 1.48 1.48 3.08 2.97 3.08 4.48 0 1.08-1.23 3.16-1.82 4.18-.48.84-.98 1.67-1.34 2.26l.79 1.91c.68.16 1.61.39 2.55.64 1.13.3 3.48.89 4.25 1.66 1.07 1.07 1 3.26 1 5.34s.08 4.27-1 5.34c-.01.01-.03.02-.04.04-.75.71-3.06 1.3-4.21 1.61-.94.25-1.87.48-2.55.65l-.78 1.87c.36.6.86 1.42 1.34 2.26.59 1.02 1.82 3.1 1.82 4.18 0 1.51-1.6 3.01-3.08 4.48-1.48 1.48-2.97 3.08-4.48 3.08-1.08 0-3.16-1.23-4.18-1.82-.85-.49-1.68-.99-2.28-1.35z" />
</svg>
