<svg
  xmlns="http://www.w3.org/2000/svg"
  width="64"
  height="64"
  viewBox="0 0 64 64"
  fill="black"
  fill-rule="nonzero"
>
  <path d="M39.72 23.91a2 2 0 0 1-2.77.57 8.985 8.985 0 0 0-5.89-1.44c-2.01.21-3.96 1.1-5.46 2.62a9.002 9.002 0 0 0-1.06 11.36c.62.92.38 2.16-.54 2.78-.92.62-2.16.38-2.78-.54a13.009 13.009 0 0 1-2.17-8.48c.27-2.91 1.52-5.73 3.7-7.93 2.18-2.2 4.99-3.48 7.89-3.79 2.91-.3 5.92.37 8.51 2.08a2 2 0 0 1 .57 2.77zm-14.9 27.3c-.39.95-1.42 1.44-2.38 1.17-.6.36-1.43.87-2.28 1.35-1.02.59-3.1 1.82-4.18 1.82-1.53 0-3.01-1.6-4.48-3.08-1.48-1.48-3.08-2.97-3.08-4.48 0-1.08 1.23-3.16 1.82-4.18.48-.84.98-1.67 1.34-2.27l-.79-1.9c-.68-.16-1.61-.39-2.55-.64-1.13-.3-3.48-.89-4.25-1.66-1.07-1.07-1-3.26-1-5.34 0-2.22-.03-4.17.86-5.27.05-.06.11-.13.17-.18.75-.71 3.06-1.3 4.21-1.61.94-.25 1.87-.48 2.55-.65l.78-1.86c-.36-.59-.86-1.42-1.34-2.26-.59-1.02-1.82-3.1-1.82-4.18 0-1.54 1.65-3.05 3.11-4.5 1.47-1.47 2.96-3.08 4.48-3.08 1.08 0 3.16 1.23 4.18 1.82.84.48 1.67.98 2.26 1.34l1.91-.79c.16-.68.39-1.61.64-2.55.3-1.13.89-3.48 1.66-4.25 1.07-1.07 3.26-1 5.34-1 2.22 0 4.17-.03 5.27.86.06.05.13.11.18.17.71.75 1.3 3.06 1.61 4.21.25.94.48 1.88.65 2.55l1.85.78c.6-.36 1.42-.86 2.26-1.34 1.02-.59 3.1-1.82 4.18-1.82 1.54 0 3.05 1.65 4.5 3.11 1.48 1.48 3.08 2.97 3.08 4.48 0 1.08-1.23 3.16-1.82 4.18-.49.85-.99 1.68-1.35 2.28.27.96-.22 2-1.17 2.38-1.02.42-2.19-.07-2.61-1.09l-.3-.73c-.24-.6-.19-1.27.15-1.82 0 0 .93-1.5 1.81-3.02.47-.81.86-1.53 1.1-2.01-.3-.35-.84-.95-1.71-1.82-.92-.92-1.48-1.45-1.81-1.74-.5.25-1.31.66-2.05 1.09-1.53.88-3.03 1.81-3.03 1.81-.55.34-1.23.4-1.83.15l-3.73-1.57c-.59-.25-1.03-.77-1.17-1.39 0 0-.4-1.72-.85-3.42-.24-.9-.47-1.67-.64-2.19-.48-.04-1.33-.09-2.56-.09-1.28 0-2.03.03-2.47.06-.18.53-.45 1.39-.67 2.21-.45 1.7-.84 3.42-.84 3.42-.14.63-.59 1.16-1.19 1.41l-3.8 1.57c-.6.25-1.27.19-1.82-.15 0 0-1.5-.93-3.02-1.81-.81-.47-1.53-.86-2.01-1.1-.35.3-.95.84-1.82 1.71-.92.92-1.45 1.48-1.74 1.81.25.5.66 1.3 1.09 2.05.88 1.52 1.81 3.02 1.81 3.02.34.55.4 1.23.15 1.83l-1.57 3.74c-.25.59-.77 1.03-1.39 1.17 0 0-1.72.4-3.42.85-.9.24-1.67.47-2.19.64-.04.48-.09 1.33-.09 2.56 0 1.28.03 2.03.06 2.47.53.18 1.39.45 2.21.67 1.7.45 3.42.84 3.42.84.63.14 1.16.59 1.41 1.19l1.57 3.79c.25.6.19 1.27-.15 1.82 0 0-.93 1.5-1.81 3.03-.47.82-.86 1.53-1.1 2.02.3.35.84.95 1.71 1.82.91.91 1.46 1.42 1.79 1.71.5-.25 1.3-.66 2.05-1.09 1.52-.88 3.02-1.81 3.02-1.81.55-.34 1.22-.4 1.82-.15l.73.3c1.02.42 1.51 1.59 1.09 2.61zM26 44c0-4.97 2.02-9.47 5.27-12.73C34.53 28.01 39.03 26 44 26c4.97 0 9.47 2.02 12.73 5.27C59.99 34.53 62 39.03 62 44c0 4.97-2.02 9.47-5.27 12.73A17.941 17.941 0 0 1 44 62c-4.97 0-9.47-2.02-12.73-5.27A17.941 17.941 0 0 1 26 44zm8.1 9.9c2.54 2.54 6.03 4.1 9.9 4.1s7.36-1.56 9.9-4.1c2.54-2.54 4.1-6.03 4.1-9.9s-1.56-7.36-4.1-9.9C51.36 31.56 47.87 30 44 30s-7.36 1.56-9.9 4.1C31.56 36.64 30 40.13 30 44s1.56 7.36 4.1 9.9zM44 34a1.994 1.994 0 0 1 1.42.58l8 8c.78.78.78 2.05 0 2.83-.78.78-2.05.78-2.83 0L46 40.82v11.17c0 1.1-.9 2-2 2s-2-.9-2-2V40.82l-4.59 4.59c-.78.78-2.05.78-2.83 0-.78-.78-.78-2.05 0-2.83l8-8c.19-.19.41-.34.65-.43.24-.1.49-.15.77-.15z" />
</svg>
