<!-- Generated by IcoMoon.io -->
<svg version="1.1" xmlns="http://www.w3.org/2000/svg" width="32" height="32" viewBox="0 0 32 32">
<title>settings</title>
<path d="M4.466 10.665h3.442c0.111 0 0.211 0.067 0.255 0.17 0.415 0.959 1.37 1.631 2.48 1.631s2.064-0.673 2.48-1.631c0.044-0.102 0.143-0.17 0.255-0.17h14.157c0.485 0 0.902-0.373 0.925-0.857 0.024-0.517-0.388-0.944-0.899-0.944h-14.183c-0.111 0-0.211-0.067-0.255-0.17-0.415-0.959-1.37-1.631-2.48-1.631s-2.064 0.673-2.48 1.631c-0.044 0.102-0.143 0.17-0.255 0.17h-3.467c-0.512 0-0.924 0.427-0.899 0.944 0.023 0.484 0.44 0.857 0.925 0.857zM10.643 8.864c0.016 0 0.032 0.001 0.047 0.002 0.007 0 0.015 0 0.022 0.001 0.016 0.001 0.032 0.003 0.048 0.005 0.007 0.001 0.013 0.001 0.020 0.002 0.010 0.001 0.019 0.004 0.029 0.006 0.035 0.006 0.069 0.014 0.102 0.025 0.005 0.002 0.010 0.004 0.015 0.005 0.016 0.005 0.032 0.011 0.047 0.017 0.061 0.024 0.119 0.055 0.173 0.091 0.168 0.113 0.295 0.281 0.357 0.479 0.009 0.028 0.016 0.057 0.022 0.086 0.012 0.059 0.018 0.119 0.018 0.181s-0.006 0.123-0.018 0.181-0.030 0.115-0.053 0.169c-0.023 0.054-0.051 0.105-0.083 0.153s-0.069 0.093-0.11 0.133-0.085 0.078-0.133 0.11c-0.036 0.024-0.074 0.046-0.113 0.065-0.059 0.028-0.122 0.051-0.187 0.066s-0.133 0.023-0.203 0.023-0.138-0.008-0.203-0.023-0.128-0.037-0.187-0.066c-0.039-0.019-0.077-0.041-0.113-0.065-0.048-0.032-0.093-0.069-0.133-0.11-0.029-0.029-0.055-0.061-0.080-0.094-0.021-0.027-0.040-0.056-0.058-0.086-0.020-0.034-0.039-0.070-0.055-0.107-0.023-0.054-0.040-0.11-0.053-0.169s-0.018-0.119-0.018-0.181 0.006-0.123 0.018-0.181c0.006-0.029 0.013-0.058 0.022-0.086 0.008-0.025 0.016-0.049 0.026-0.073 0.019-0.047 0.043-0.093 0.069-0.136 0.040-0.065 0.088-0.123 0.143-0.176 0.037-0.035 0.076-0.067 0.118-0.095 0.054-0.036 0.112-0.067 0.173-0.091 0.015-0.006 0.031-0.011 0.047-0.017 0.005-0.002 0.010-0.004 0.015-0.005 0.015-0.005 0.030-0.008 0.045-0.012 0.007-0.002 0.013-0.004 0.020-0.005 0.011-0.003 0.022-0.004 0.033-0.006s0.022-0.005 0.033-0.006c0.006-0.001 0.012-0.001 0.018-0.002 0.016-0.002 0.033-0.004 0.049-0.006 0.007-0.001 0.013-0 0.020-0.001 0.016-0.001 0.033-0.002 0.049-0.002 0 0 0 0 0 0s0 0 0 0z"></path>
<path d="M27.534 15.077h-1.708c-0.111 0-0.211-0.067-0.255-0.17-0.415-0.959-1.37-1.631-2.48-1.631s-2.064 0.673-2.48 1.631c-0.044 0.102-0.143 0.17-0.255 0.17h-15.891c-0.485 0-0.902 0.373-0.925 0.857-0.024 0.517 0.388 0.944 0.899 0.944h15.917c0.111 0 0.211 0.067 0.255 0.17 0.415 0.959 1.37 1.631 2.48 1.631s2.064-0.673 2.48-1.631c0.044-0.102 0.143-0.17 0.255-0.17h1.734c0.512 0 0.924-0.427 0.899-0.944-0.023-0.484-0.44-0.857-0.925-0.857zM23.973 16.159c-0.006 0.029-0.013 0.058-0.022 0.086-0.008 0.025-0.016 0.049-0.026 0.073-0.019 0.047-0.043 0.093-0.069 0.136-0.040 0.064-0.088 0.123-0.143 0.176-0.037 0.035-0.076 0.067-0.118 0.095-0.018 0.012-0.036 0.024-0.055 0.035-0.132 0.076-0.285 0.119-0.448 0.119-0.105 0-0.205-0.018-0.298-0.051-0.019-0.007-0.037-0.014-0.055-0.022-0.036-0.016-0.071-0.033-0.105-0.053s-0.066-0.042-0.097-0.066c-0.018-0.014-0.035-0.028-0.052-0.044-0.033-0.030-0.064-0.063-0.093-0.098-0.014-0.017-0.028-0.035-0.041-0.054-0.021-0.031-0.040-0.063-0.058-0.096-0.008-0.016-0.016-0.032-0.024-0.049-0.015-0.032-0.028-0.065-0.038-0.1-0.009-0.028-0.016-0.057-0.022-0.086-0.012-0.059-0.018-0.119-0.018-0.181 0-0.076 0.010-0.149 0.028-0.22 0.011-0.045 0.025-0.089 0.043-0.131 0.009-0.021 0.019-0.042 0.030-0.062 0.003-0.005 0.005-0.011 0.008-0.017 0.009-0.016 0.019-0.032 0.029-0.048 0.005-0.009 0.010-0.018 0.016-0.026 0.008-0.012 0.017-0.022 0.025-0.034s0.017-0.024 0.027-0.036c0.004-0.005 0.009-0.009 0.013-0.014 0.033-0.039 0.069-0.075 0.109-0.108 0.009-0.007 0.019-0.014 0.028-0.021 0.018-0.014 0.037-0.027 0.056-0.040 0.040-0.026 0.083-0.049 0.127-0.069 0.004-0.002 0.007-0.004 0.011-0.005 0.012-0.005 0.025-0.009 0.037-0.014 0.015-0.006 0.030-0.012 0.045-0.017 0.007-0.002 0.015-0.004 0.023-0.006 0.021-0.006 0.042-0.012 0.064-0.016 0.019-0.004 0.039-0.006 0.058-0.009 0.011-0.001 0.021-0.004 0.031-0.005 0.016-0.002 0.032-0.002 0.047-0.002s0.030-0.002 0.045-0.002c0 0 0 0 0 0s0 0 0 0c0.022 0 0.042 0.002 0.064 0.004 0.016 0.001 0.032 0.001 0.048 0.003 0.028 0.003 0.055 0.009 0.082 0.015 0.009 0.002 0.017 0.003 0.026 0.005 0.026 0.007 0.051 0.015 0.076 0.024 0.009 0.003 0.018 0.005 0.027 0.009 0.025 0.009 0.048 0.021 0.072 0.033 0.008 0.004 0.017 0.007 0.025 0.011 0.015 0.008 0.028 0.017 0.043 0.026 0.018 0.011 0.037 0.022 0.055 0.034 0.055 0.039 0.106 0.083 0.151 0.133 0 0 0 0 0 0.001 0.023 0.026 0.046 0.053 0.066 0.082 0.011 0.015 0.021 0.031 0.031 0.047 0.086 0.138 0.136 0.3 0.136 0.474-0 0.062-0.006 0.123-0.018 0.181z"></path>
<path d="M27.534 21.335h-10.601c-0.111 0-0.211-0.067-0.255-0.17-0.415-0.959-1.37-1.631-2.48-1.631s-2.064 0.673-2.48 1.631c-0.044 0.102-0.143 0.17-0.255 0.17h-6.999c-0.485 0-0.902 0.373-0.925 0.857-0.024 0.517 0.388 0.944 0.899 0.944h7.024c0.111 0 0.211 0.067 0.255 0.17 0.415 0.959 1.37 1.631 2.48 1.631s2.064-0.673 2.48-1.631c0.044-0.102 0.143-0.17 0.255-0.17h10.626c0.512 0 0.924-0.427 0.899-0.944-0.023-0.484-0.44-0.857-0.925-0.857zM14.199 21.335c0 0 0 0 0.001 0 0.031 0 0.061 0.002 0.091 0.005 0.091 0.009 0.178 0.032 0.258 0.066 0.135 0.057 0.253 0.146 0.344 0.257 0.037 0.044 0.069 0.093 0.097 0.144 0.069 0.128 0.109 0.274 0.109 0.429s-0.039 0.302-0.109 0.429c-0.028 0.051-0.060 0.099-0.097 0.144-0.092 0.111-0.21 0.2-0.344 0.257-0.081 0.034-0.168 0.057-0.258 0.066-0.030 0.003-0.061 0.005-0.092 0.005-0.124 0-0.243-0.025-0.35-0.071s-0.205-0.111-0.286-0.193c-0.163-0.163-0.264-0.388-0.264-0.637s0.101-0.474 0.264-0.637c0.081-0.081 0.178-0.147 0.286-0.193s0.226-0.071 0.35-0.071c0-0 0-0 0.001-0z"></path>
</svg>
