<svg
  xmlns="http://www.w3.org/2000/svg"
  width="64"
  height="64"
  viewBox="0 0 64 64"
  fill="black"
  fill-rule="nonzero"
>
  <path d="M5 32c0-2.76 1.12-5.26 2.93-7.07A9.969 9.969 0 0 1 15 22c2.76 0 5.26 1.12 7.07 2.93.28.28.55.58.8.9l14.47-7.23c-.22-.83-.34-1.7-.34-2.59 0-2.76 1.12-5.26 2.93-7.07A9.969 9.969 0 0 1 47 6.01c2.76 0 5.26 1.12 7.07 2.93A9.969 9.969 0 0 1 57 16.01c0 2.76-1.12 5.26-2.93 7.07A9.969 9.969 0 0 1 47 26.01c-2.76 0-5.26-1.12-7.07-2.93-.28-.28-.55-.58-.8-.9l-14.47 7.23a10.128 10.128 0 0 1 0 5.2l14.47 7.23c.25-.32.51-.62.8-.9A9.969 9.969 0 0 1 47 38.01c2.76 0 5.26 1.12 7.07 2.93A9.969 9.969 0 0 1 57 48.01c0 2.76-1.12 5.26-2.93 7.07A9.969 9.969 0 0 1 47 58.01c-2.76 0-5.26-1.12-7.07-2.93A9.969 9.969 0 0 1 37 48.01c0-.9.12-1.77.34-2.59l-14.47-7.23c-.25.31-.51.61-.8.9A9.969 9.969 0 0 1 15 42.02c-2.76 0-5.26-1.12-7.07-2.93A9.969 9.969 0 0 1 5 32.02zm5.76 4.24A5.98 5.98 0 0 0 15 38c1.66 0 3.15-.67 4.24-1.76.42-.42.78-.91 1.06-1.44.02-.04.03-.08.05-.12l.06-.12a5.978 5.978 0 0 0 0-5.14l-.06-.12c-.02-.04-.04-.08-.05-.12a5.98 5.98 0 0 0-5.3-3.2c-1.66 0-3.15.67-4.24 1.76A5.98 5.98 0 0 0 9 31.98c0 1.66.67 3.15 1.76 4.24zm32 16A5.98 5.98 0 0 0 47 54c1.66 0 3.15-.67 4.24-1.76A5.98 5.98 0 0 0 53 48c0-1.66-.67-3.15-1.76-4.24A5.98 5.98 0 0 0 47 42c-1.66 0-3.15.67-4.24 1.76A5.98 5.98 0 0 0 41 48c0 1.66.67 3.15 1.76 4.24zm0-32A5.98 5.98 0 0 0 47 22c1.66 0 3.15-.67 4.24-1.76A5.98 5.98 0 0 0 53 16c0-1.66-.67-3.15-1.76-4.24A5.98 5.98 0 0 0 47 10c-1.66 0-3.15.67-4.24 1.76A5.98 5.98 0 0 0 41 16c0 1.66.67 3.15 1.76 4.24z" />
</svg>
