<svg
  xmlns="http://www.w3.org/2000/svg"
  width="64"
  height="64"
  viewBox="0 0 64 64"
  fill="black"
  fill-rule="nonzero"
>
  <path d="M57.41 6.59c.19.19.34.41.43.65.1.24.15.49.15.77v14c0 1.1-.9 2-2 2s-2-.9-2-2v-9.17L31.4 35.43c-.78.78-2.05.78-2.83 0-.78-.78-.78-2.05 0-2.83l22.59-22.59h-9.17c-1.1 0-2-.9-2-2s.9-2 2-2h14a1.994 1.994 0 0 1 1.42.58zM36 14c0 1.1-.9 2-2 2H13c-.83 0-1.58.33-2.12.88-.55.55-.88 1.29-.88 2.12v32c0 .83.33 1.58.88 2.12.55.55 1.29.88 2.12.88h32c.83 0 1.58-.33 2.12-.88.55-.55.88-1.29.88-2.12V30c0-1.1.9-2 2-2s2 .9 2 2v21a7 7 0 0 1-7 7H13a7 7 0 0 1-7-7V19a7 7 0 0 1 7-7h21c1.1 0 2 .9 2 2z" />
</svg>
