<!-- Generated by IcoMoon.io -->
<svg version="1.1" xmlns="http://www.w3.org/2000/svg" width="32" height="32" viewBox="0 0 32 32">
<title>sheep</title>
<path d="M15.133 18.645c0 0.995-0.806 1.801-1.801 1.801s-1.801-0.806-1.801-1.801c0-0.995 0.806-1.801 1.801-1.801s1.801 0.806 1.801 1.801z"></path>
<path d="M20.468 18.645c0 0.995-0.806 1.801-1.801 1.801s-1.801-0.806-1.801-1.801c0-0.995 0.806-1.801 1.801-1.801s1.801 0.806 1.801 1.801z"></path>
<path d="M29.269 17.82c-0.024-0.123-0.054-0.249-0.091-0.376-0.018-0.064-0.038-0.128-0.059-0.192-0.148-0.451-0.37-0.921-0.66-1.388-0.041-0.067-0.084-0.134-0.128-0.2-0.088-0.133-0.182-0.266-0.281-0.398-0.248-0.33-0.529-0.655-0.841-0.967-0.056-0.056-0.112-0.11-0.168-0.163-0.015-0.014-0.029-0.028-0.044-0.042-0.051-0.048-0.103-0.096-0.155-0.142-0.006-0.005-0.011-0.010-0.017-0.015-0.057-0.051-0.114-0.1-0.171-0.149-0.015-0.013-0.030-0.025-0.045-0.038-0.049-0.041-0.099-0.082-0.149-0.122-0.010-0.008-0.019-0.016-0.029-0.023-0.057-0.046-0.115-0.090-0.173-0.134-0.015-0.011-0.030-0.022-0.045-0.033-0.048-0.036-0.097-0.071-0.145-0.106-0.012-0.009-0.025-0.018-0.037-0.026-0.058-0.041-0.116-0.080-0.174-0.119-0.014-0.010-0.029-0.019-0.043-0.028-0.048-0.031-0.096-0.062-0.144-0.092-0.014-0.009-0.028-0.018-0.043-0.027-0.058-0.036-0.116-0.071-0.174-0.104-0.013-0.008-0.026-0.015-0.039-0.022-0.048-0.027-0.096-0.054-0.144-0.080-0.015-0.008-0.031-0.017-0.046-0.025-0.058-0.031-0.116-0.061-0.174-0.090-0.011-0.006-0.023-0.011-0.034-0.017-0.049-0.024-0.098-0.047-0.146-0.069-0.016-0.007-0.032-0.015-0.048-0.022-0.023-0.010-0.047-0.021-0.070-0.031 0.097-0.325 0.151-0.668 0.151-1.024 0-0.025 0.001-0.049 0.003-0.074 0-0.004 0.001-0.009 0.001-0.013 0.004-0.042 0.011-0.083 0.021-0.124 0.007-0.030 0.015-0.059 0.026-0.088 0.022-0.063 0.052-0.124 0.088-0.18 0.041-0.063 0.090-0.122 0.146-0.173 0.019-0.017 0.039-0.033 0.059-0.049 0.163-0.122 0.315-0.258 0.455-0.405 0.093-0.098 0.181-0.202 0.263-0.31s0.157-0.222 0.226-0.339c0.311-0.529 0.489-1.144 0.489-1.801 0-0.691-0.197-1.336-0.538-1.882-0.052-0.084-0.108-0.166-0.167-0.245-0.089-0.119-0.184-0.232-0.287-0.339-0.068-0.071-0.14-0.14-0.213-0.205-0.037-0.033-0.075-0.065-0.113-0.096-0.192-0.156-0.399-0.292-0.621-0.406-0.044-0.023-0.089-0.045-0.134-0.066-0.136-0.063-0.276-0.118-0.421-0.163-0.096-0.030-0.194-0.057-0.294-0.079-0.081-0.018-0.159-0.047-0.231-0.086-0.024-0.013-0.047-0.027-0.070-0.042s-0.045-0.031-0.066-0.048c-0.064-0.051-0.121-0.112-0.169-0.18-0.040-0.057-0.082-0.113-0.126-0.167-0.131-0.163-0.276-0.315-0.433-0.453-0.628-0.553-1.452-0.888-2.352-0.888-0.103 0-0.206 0.004-0.307 0.013-0.051 0.004-0.101 0.010-0.151 0.016-0.14 0.018-0.278 0.045-0.413 0.079-0.023 0.006-0.046 0.012-0.068 0.018-0.066 0.018-0.131 0.038-0.196 0.060-0.015 0.005-0.031 0.010-0.046 0.015-0.022 0.008-0.044 0.014-0.066 0.020-0.007 0.002-0.014 0.003-0.021 0.005-0.016 0.004-0.032 0.007-0.047 0.010-0.008 0.001-0.015 0.003-0.023 0.004-0.017 0.003-0.034 0.005-0.050 0.006-0.006 0.001-0.012 0.001-0.018 0.002-0.023 0.002-0.045 0.003-0.067 0.003-0.001 0-0.002 0-0.003 0-0.003 0-0.007-0-0.010-0-0.020-0-0.039-0.001-0.059-0.003-0.007-0.001-0.014-0.001-0.022-0.002-0.018-0.002-0.037-0.004-0.055-0.007-0.005-0.001-0.011-0.002-0.016-0.003-0.023-0.004-0.046-0.010-0.068-0.016-0.005-0.001-0.011-0.003-0.016-0.005-0.018-0.005-0.035-0.011-0.052-0.017-0.007-0.002-0.013-0.005-0.020-0.007-0.019-0.007-0.037-0.015-0.056-0.024-0.003-0.002-0.007-0.003-0.010-0.004-0.021-0.010-0.042-0.022-0.062-0.034-0.006-0.003-0.011-0.007-0.017-0.010-0.015-0.010-0.030-0.020-0.045-0.030-0.006-0.004-0.012-0.008-0.017-0.012-0.019-0.015-0.038-0.030-0.056-0.046-0-0-0-0-0-0-0.198-0.178-0.415-0.335-0.649-0.466-0.14-0.079-0.287-0.148-0.438-0.208-0.101-0.040-0.204-0.075-0.309-0.105-0.315-0.091-0.648-0.14-0.992-0.14s-0.677 0.049-0.992 0.14c-0.105 0.030-0.208 0.066-0.309 0.105-0.151 0.059-0.297 0.129-0.438 0.208-0.121 0.068-0.237 0.143-0.348 0.224-0.061 0.044-0.122 0.090-0.18 0.138-0.041 0.034-0.081 0.069-0.121 0.104-0.018 0.016-0.037 0.032-0.056 0.046-0.006 0.004-0.011 0.008-0.017 0.012-0.015 0.011-0.030 0.021-0.046 0.031-0.005 0.003-0.011 0.007-0.016 0.010-0.020 0.012-0.041 0.024-0.062 0.034-0.003 0.002-0.007 0.003-0.010 0.004-0.018 0.009-0.037 0.017-0.056 0.024-0.007 0.003-0.013 0.005-0.020 0.007-0.017 0.006-0.035 0.012-0.053 0.017-0.005 0.002-0.011 0.003-0.016 0.005-0.023 0.006-0.045 0.011-0.069 0.016-0.005 0.001-0.010 0.002-0.016 0.002-0.018 0.003-0.037 0.006-0.055 0.007-0.007 0.001-0.014 0.001-0.021 0.002-0.020 0.002-0.039 0.002-0.059 0.003-0.003 0-0.007 0-0.010 0-0.001 0-0.002-0-0.003-0-0.022-0-0.045-0.001-0.067-0.003-0.006-0.001-0.012-0.001-0.018-0.002-0.017-0.002-0.034-0.004-0.051-0.006-0.008-0.001-0.015-0.003-0.023-0.004-0.016-0.003-0.032-0.006-0.048-0.010-0.007-0.002-0.014-0.003-0.021-0.005-0.022-0.006-0.044-0.013-0.066-0.020-0.046-0.016-0.093-0.032-0.14-0.046s-0.095-0.028-0.142-0.040c-0.096-0.025-0.193-0.046-0.292-0.063s-0.199-0.030-0.3-0.039-0.204-0.013-0.307-0.013c-1.201 0-2.264 0.597-2.911 1.509-0.032 0.045-0.068 0.087-0.107 0.125s-0.082 0.072-0.127 0.103c-0.045 0.030-0.094 0.056-0.144 0.078-0.031 0.013-0.062 0.024-0.094 0.034-0.021 0.006-0.042 0.012-0.063 0.017-0.1 0.022-0.198 0.049-0.294 0.079s-0.191 0.065-0.283 0.103c-0.231 0.096-0.451 0.215-0.655 0.354-0.082 0.056-0.161 0.115-0.237 0.177-0.038 0.031-0.076 0.063-0.113 0.096-0.074 0.065-0.145 0.134-0.213 0.205-0.137 0.142-0.261 0.296-0.373 0.46-0.084 0.123-0.16 0.251-0.228 0.383s-0.128 0.271-0.18 0.412c-0.137 0.378-0.212 0.786-0.212 1.211 0 0.584 0.141 1.135 0.391 1.622 0.062 0.122 0.132 0.239 0.207 0.352 0.226 0.339 0.51 0.638 0.836 0.882 0.055 0.041 0.104 0.088 0.147 0.14 0.085 0.104 0.145 0.227 0.175 0.358 0.015 0.064 0.022 0.13 0.023 0.197 0 0.002 0 0.004 0 0.005v0c0 0.356 0.053 0.7 0.151 1.024-0.022 0.010-0.045 0.020-0.067 0.030-0.018 0.008-0.036 0.016-0.054 0.025-0.046 0.021-0.092 0.043-0.138 0.066-0.013 0.007-0.027 0.013-0.041 0.020-0.057 0.028-0.113 0.057-0.17 0.088-0.017 0.009-0.034 0.018-0.051 0.028-0.046 0.025-0.092 0.050-0.138 0.077-0.015 0.009-0.030 0.017-0.045 0.025-0.057 0.033-0.114 0.067-0.171 0.102-0.016 0.010-0.031 0.020-0.047 0.029-0.046 0.029-0.093 0.059-0.139 0.089-0.015 0.010-0.031 0.020-0.046 0.030-0.058 0.038-0.115 0.078-0.172 0.118-0.013 0.009-0.026 0.019-0.039 0.028-0.048 0.034-0.095 0.068-0.142 0.104-0.016 0.012-0.031 0.023-0.047 0.035-0.058 0.043-0.115 0.088-0.172 0.133-0.010 0.008-0.020 0.016-0.030 0.024-0.049 0.039-0.098 0.080-0.147 0.121-0.015 0.013-0.031 0.026-0.046 0.038-0.057 0.049-0.114 0.098-0.171 0.148-0.006 0.005-0.012 0.011-0.018 0.016-0.052 0.046-0.103 0.094-0.154 0.142-0.015 0.014-0.029 0.028-0.044 0.042-0.056 0.054-0.112 0.108-0.168 0.163-0.187 0.187-0.363 0.379-0.528 0.574-0.11 0.13-0.214 0.261-0.313 0.393s-0.193 0.265-0.281 0.398-0.171 0.267-0.248 0.401c-0.095 0.165-0.181 0.331-0.26 0.495-0.048 0.101-0.094 0.202-0.135 0.302-0.054 0.131-0.103 0.262-0.145 0.391-0.021 0.064-0.041 0.129-0.059 0.192-0.036 0.127-0.067 0.253-0.091 0.376s-0.042 0.244-0.054 0.363-0.017 0.234-0.015 0.347c0.004 0.338 0.066 0.648 0.19 0.916 0.041 0.090 0.090 0.174 0.145 0.254s0.117 0.155 0.187 0.224c0.031 0.031 0.063 0.060 0.096 0.088 0.007 0.006 0.015 0.013 0.022 0.019 0.033 0.027 0.067 0.053 0.102 0.077 0.005 0.003 0.010 0.006 0.014 0.009 0.032 0.022 0.066 0.043 0.099 0.062 0.007 0.004 0.014 0.009 0.022 0.013 0.037 0.021 0.076 0.041 0.115 0.059 0.007 0.003 0.015 0.007 0.023 0.010 0.036 0.016 0.073 0.032 0.111 0.046 0.005 0.002 0.011 0.004 0.016 0.006 0.042 0.015 0.084 0.029 0.127 0.041 0.009 0.003 0.019 0.005 0.028 0.008 0.044 0.012 0.088 0.023 0.134 0.032 0 0 0.001 0 0.001 0 0.046 0.009 0.092 0.017 0.14 0.024 0.010 0.001 0.021 0.003 0.031 0.004 0.047 0.006 0.094 0.011 0.142 0.015 0.006 0 0.012 0.001 0.019 0.001 0.044 0.003 0.089 0.005 0.134 0.005 0.010 0 0.021 0 0.031 0.001 0.007 0 0.014 0 0.021 0 0.043 0 0.086-0.001 0.13-0.003 0.010-0 0.020-0.001 0.030-0.002 0.043-0.002 0.087-0.005 0.131-0.009 0.013-0.001 0.026-0.002 0.039-0.004 0.052-0.005 0.105-0.012 0.158-0.019 0.008-0.001 0.016-0.003 0.025-0.004 0.046-0.007 0.093-0.015 0.14-0.024 0.014-0.003 0.029-0.005 0.043-0.008 0.054-0.011 0.109-0.023 0.164-0.036 0.005-0.001 0.010-0.003 0.015-0.004 0.051-0.012 0.102-0.026 0.154-0.041 0.015-0.004 0.030-0.009 0.046-0.013 0.054-0.016 0.108-0.032 0.163-0.050 0.003-0.001 0.005-0.002 0.008-0.003 0.057-0.019 0.114-0.039 0.171-0.060 0.016-0.006 0.032-0.012 0.048-0.018 0.051-0.019 0.101-0.039 0.152-0.060 0.008-0.003 0.016-0.006 0.024-0.009 0.057-0.024 0.115-0.049 0.173-0.075 0.016-0.007 0.032-0.014 0.048-0.022 0.049-0.022 0.098-0.046 0.147-0.070 0.011-0.005 0.022-0.011 0.033-0.016 0.058-0.029 0.116-0.059 0.174-0.090 0.015-0.008 0.030-0.017 0.046-0.025 0.048-0.026 0.096-0.053 0.145-0.081 0.013-0.007 0.026-0.015 0.039-0.022 0.058-0.034 0.116-0.069 0.174-0.104 0.014-0.009 0.028-0.018 0.042-0.026 0.048-0.030 0.096-0.061 0.144-0.092 0.014-0.009 0.029-0.019 0.043-0.028 0.058-0.039 0.116-0.078 0.174-0.119 0.012-0.009 0.024-0.018 0.037-0.026 0.049-0.035 0.097-0.070 0.146-0.106 0.015-0.011 0.030-0.022 0.044-0.033 0.058-0.044 0.116-0.088 0.173-0.134 0.009-0.007 0.019-0.015 0.028-0.023 0.050-0.040 0.1-0.081 0.15-0.123 0.015-0.012 0.030-0.025 0.044-0.037 0.057-0.049 0.115-0.098 0.171-0.149 0.005-0.005 0.011-0.010 0.016-0.015 0.052-0.047 0.104-0.095 0.156-0.143 0.015-0.014 0.029-0.027 0.044-0.041 0.056-0.054 0.113-0.108 0.168-0.164 0.026-0.026 0.050-0.052 0.075-0.078v4.875c0 3.929 3.185 7.114 7.114 7.114v0c3.929 0 7.114-3.185 7.114-7.114v-4.875c0.025 0.026 0.050 0.052 0.076 0.078 0.056 0.056 0.112 0.11 0.168 0.163 0.015 0.014 0.029 0.028 0.044 0.041 0.051 0.048 0.103 0.096 0.155 0.143 0.006 0.005 0.011 0.010 0.017 0.015 0.057 0.051 0.114 0.1 0.171 0.149 0.015 0.013 0.030 0.025 0.045 0.038 0.050 0.041 0.099 0.082 0.149 0.122 0.009 0.008 0.019 0.015 0.028 0.023 0.058 0.046 0.115 0.090 0.173 0.134 0.015 0.011 0.030 0.022 0.045 0.033 0.048 0.036 0.097 0.071 0.145 0.106 0.012 0.009 0.025 0.018 0.037 0.026 0.058 0.041 0.116 0.080 0.174 0.119 0.014 0.010 0.029 0.019 0.043 0.028 0.048 0.031 0.096 0.062 0.144 0.092 0.014 0.009 0.028 0.018 0.043 0.027 0.058 0.036 0.116 0.071 0.174 0.104 0.013 0.008 0.026 0.015 0.039 0.022 0.048 0.028 0.096 0.054 0.145 0.081 0.015 0.008 0.031 0.017 0.046 0.025 0.058 0.031 0.116 0.061 0.174 0.090 0.011 0.006 0.022 0.011 0.034 0.016 0.049 0.024 0.098 0.047 0.147 0.070 0.016 0.007 0.032 0.015 0.047 0.022 0.058 0.026 0.115 0.051 0.173 0.075 0.008 0.003 0.016 0.006 0.024 0.010 0.051 0.021 0.102 0.041 0.152 0.060 0.016 0.006 0.032 0.012 0.048 0.018 0.057 0.021 0.114 0.041 0.171 0.060 0.003 0.001 0.006 0.002 0.008 0.003 0.055 0.018 0.109 0.034 0.163 0.050 0.015 0.004 0.030 0.009 0.046 0.013 0.052 0.014 0.103 0.028 0.154 0.041 0.005 0.001 0.010 0.003 0.015 0.004 0.055 0.013 0.11 0.025 0.164 0.036 0.014 0.003 0.029 0.006 0.043 0.008 0.047 0.009 0.094 0.017 0.14 0.024 0.008 0.001 0.017 0.003 0.025 0.004 0.053 0.008 0.106 0.014 0.158 0.019 0.013 0.001 0.026 0.002 0.039 0.004 0.044 0.004 0.088 0.007 0.131 0.009 0.010 0 0.020 0.001 0.030 0.002 0.044 0.002 0.087 0.003 0.13 0.003 0.007 0 0.014-0 0.021-0 0.010-0 0.020-0 0.031-0.001 0.045-0.001 0.090-0.003 0.134-0.005 0.006-0 0.013-0.001 0.019-0.001 0.048-0.003 0.095-0.009 0.142-0.015 0.010-0.001 0.021-0.003 0.031-0.004 0.047-0.007 0.094-0.014 0.14-0.024 0-0 0.001-0 0.001-0 0.045-0.009 0.090-0.020 0.134-0.032 0.009-0.003 0.019-0.005 0.028-0.008 0.043-0.012 0.086-0.026 0.127-0.041 0.005-0.002 0.011-0.004 0.016-0.006 0.038-0.014 0.075-0.030 0.111-0.046 0.007-0.003 0.015-0.007 0.023-0.010 0.039-0.018 0.077-0.038 0.115-0.059 0.007-0.004 0.014-0.009 0.022-0.013 0.034-0.020 0.067-0.041 0.1-0.063 0.005-0.003 0.009-0.006 0.014-0.009 0.035-0.024 0.069-0.050 0.102-0.077 0.007-0.006 0.015-0.012 0.022-0.019 0.033-0.028 0.066-0.057 0.097-0.088 0.091-0.091 0.17-0.192 0.237-0.301 0.044-0.073 0.084-0.149 0.118-0.229s0.063-0.163 0.086-0.249c0.012-0.043 0.022-0.087 0.031-0.132 0.021-0.102 0.035-0.208 0.043-0.317 0.019-0.273-0.002-0.568-0.062-0.876zM8.962 14.938c-0.023 0.062-0.049 0.124-0.075 0.186-0.278 0.646-0.75 1.321-1.349 1.919-1.107 1.107-2.267 1.602-2.926 1.602-0.063 0-0.108-0.005-0.139-0.010-0.023-0.133-0.021-0.453 0.169-0.96 0.262-0.701 0.768-1.449 1.424-2.105 0.745-0.745 1.513-1.212 2.138-1.438 0.206 0.197 0.435 0.369 0.684 0.513 0.048 0.028 0.098 0.055 0.147 0.081-0.020 0.067-0.044 0.137-0.072 0.213zM21.521 15.974v7.14c0 2.857-2.181 5.214-4.966 5.493 0.054-0.042 0.104-0.091 0.148-0.147l1.683-2.104c0.472-0.59 0.052-1.463-0.703-1.463h-3.367c-0.755 0-1.175 0.873-0.703 1.463l1.683 2.104c0.045 0.056 0.095 0.105 0.148 0.147-2.785-0.279-4.966-2.636-4.966-5.493v-7.14c0.071-0.155 0.134-0.308 0.189-0.46 0.018-0.051 0.036-0.101 0.052-0.151 0.027-0.082 0.050-0.162 0.072-0.243v0c0.55-0.020 1.069-0.164 1.528-0.406 0.165-0.087 0.323-0.187 0.471-0.298 0.040-0.030 0.082-0.056 0.126-0.079s0.088-0.041 0.133-0.056c0.023-0.007 0.046-0.014 0.069-0.020 0.069-0.017 0.14-0.025 0.211-0.025 0.067 0 0.134 0.008 0.2 0.023 0.036 0.008 0.071 0.019 0.106 0.031 0.026 0.009 0.052 0.020 0.077 0.032 0.054 0.026 0.107 0.056 0.156 0.093 0.047 0.035 0.096 0.067 0.144 0.1 0.092 0.062 0.186 0.121 0.284 0.174 0.055 0.030 0.112 0.060 0.169 0.087 0.084 0.040 0.171 0.077 0.259 0.111 0.396 0.152 0.825 0.235 1.273 0.235 0.199 0 0.395-0.016 0.585-0.048 0.095-0.016 0.189-0.035 0.282-0.059s0.184-0.050 0.273-0.080c0.134-0.045 0.265-0.099 0.392-0.159 0.042-0.020 0.084-0.041 0.125-0.063 0.083-0.043 0.163-0.090 0.242-0.14s0.155-0.102 0.229-0.158c0.161-0.12 0.35-0.18 0.539-0.18s0.378 0.060 0.539 0.18c0.074 0.055 0.151 0.108 0.229 0.158s0.159 0.096 0.242 0.14c0.041 0.022 0.083 0.043 0.125 0.063 0.127 0.061 0.257 0.114 0.392 0.159 0.090 0.030 0.181 0.057 0.273 0.080 0.085 0.021 0.172 0.039 0.259 0.054 0.102 0.018 0.206 0.031 0.312 0.040 0.055 0.005 0.111 0.008 0.167 0.009v0c0.022 0.080 0.046 0.161 0.072 0.243 0.066 0.201 0.147 0.405 0.242 0.612 0.029 0.062 0.058 0.125 0.090 0.188-0.031-0.063-0.061-0.125-0.090-0.188zM21.521 13.311c-0.061 0.006-0.123 0.010-0.185 0.010-0.049 0-0.097-0.002-0.146-0.006v0c-0.215-0.018-0.422-0.075-0.615-0.168-0.101-0.049-0.199-0.106-0.291-0.175-0.471-0.352-1.030-0.538-1.616-0.538s-1.145 0.186-1.616 0.538c-0.092 0.069-0.189 0.126-0.291 0.175-0.236 0.114-0.494 0.174-0.761 0.174s-0.525-0.060-0.761-0.174c-0.101-0.049-0.199-0.106-0.291-0.175-0.471-0.352-1.030-0.538-1.616-0.538s-1.145 0.186-1.616 0.538c-0.092 0.069-0.189 0.126-0.291 0.175-0.193 0.093-0.4 0.151-0.615 0.168v0c-0.048 0.004-0.097 0.006-0.145 0.006-0.063 0-0.124-0.003-0.185-0.010-0.678-0.071-1.243-0.526-1.472-1.143 0-0-0-0-0-0-0.071-0.191-0.11-0.397-0.11-0.613 0-0-0-0.001-0-0.001 0-0.841-0.398-1.642-1.066-2.142-0.453-0.339-0.712-0.855-0.712-1.415 0-0.82 0.581-1.545 1.381-1.724 0.653-0.146 1.225-0.527 1.612-1.072 0.333-0.47 0.872-0.75 1.442-0.75 0.2 0 0.397 0.033 0.583 0.099 0.288 0.101 0.589 0.153 0.894 0.153 0.663 0 1.298-0.244 1.788-0.686 0.325-0.294 0.745-0.455 1.181-0.455s0.856 0.162 1.181 0.455c0.49 0.442 1.125 0.686 1.788 0.686 0.305 0 0.606-0.051 0.894-0.153 0.186-0.066 0.383-0.099 0.583-0.099 0.57 0 1.109 0.28 1.442 0.75 0.387 0.545 0.959 0.926 1.612 1.072 0.8 0.179 1.381 0.904 1.381 1.724 0 0.56-0.26 1.076-0.712 1.415-0.668 0.501-1.067 1.302-1.066 2.142 0 0.216-0.039 0.423-0.11 0.614 0 0-0 0-0 0-0.229 0.617-0.794 1.072-1.471 1.143zM27.528 18.635c-0.031 0.005-0.077 0.010-0.139 0.010-0.659 0-1.82-0.495-2.926-1.602-0.599-0.599-1.071-1.273-1.349-1.919-0.027-0.062-0.052-0.124-0.075-0.186-0.028-0.075-0.052-0.146-0.072-0.213 0.050-0.026 0.099-0.053 0.147-0.081 0.073-0.042 0.145-0.086 0.215-0.133 0.095-0.064 0.187-0.133 0.275-0.206 0.044-0.036 0.087-0.074 0.13-0.112 0.022-0.020 0.043-0.041 0.064-0.062 0.624 0.226 1.393 0.693 2.138 1.438 0.656 0.656 1.162 1.404 1.424 2.105 0.189 0.506 0.192 0.827 0.169 0.96z"></path>
</svg>
