<svg
  xmlns="http://www.w3.org/2000/svg"
  width="64"
  height="64"
  viewBox="0 0 64 64"
  fill="black"
  fill-rule="nonzero"
>
  <path d="M52 17.24l-20-10-20 10V32c0 4.35 1.61 8.86 4.61 13.01 3.48 4.8 8.78 9.04 15.39 11.83 6.61-2.79 11.91-7.03 15.39-11.83C50.39 40.87 52 36.35 52 32zM32.89 3.21l22 11A2 2 0 0 1 56 16v16c0 5.34-1.97 10.66-5.37 15.35-4.09 5.64-10.29 10.47-17.89 13.5-.48.19-1.01.19-1.49 0-7.6-3.04-13.8-7.86-17.89-13.5-3.4-4.7-5.37-10.01-5.37-15.35V16a2 2 0 0 1 1.11-1.79l22-11c.56-.28 1.23-.28 1.79 0z" />
</svg>
