<!-- Generated by IcoMoon.io -->
<svg version="1.1" xmlns="http://www.w3.org/2000/svg" width="32" height="32" viewBox="0 0 32 32">
<title>shield-checker</title>
<path d="M25.73 6.612l-8.931-4.652c-0.003-0.002-0.006-0.003-0.009-0.005-0.244-0.123-0.517-0.189-0.789-0.189s-0.546 0.065-0.789 0.189c-0.003 0.002-0.006 0.003-0.009 0.005l-8.931 4.652c-0.588 0.3-0.952 0.896-0.952 1.556v7.035c0 0.267 0.008 0.533 0.021 0.798h-0.010l0.011 0.020c0.155 2.928 1.136 5.758 2.864 8.23 1.862 2.664 4.442 4.711 7.461 5.919 0.107 0.043 0.221 0.064 0.334 0.064s0.227-0.021 0.334-0.064c3.020-1.208 5.6-3.255 7.461-5.919 1.888-2.702 2.886-5.831 2.886-9.049v-7.035c-0-0.66-0.365-1.256-0.952-1.556zM15.1 5.527v8.669c0 0.497-0.403 0.9-0.9 0.9h-6.18c-0.497 0-0.9-0.403-0.9-0.9v-5.45c0-0.336 0.187-0.644 0.484-0.799l6.18-3.219c0.599-0.312 1.316 0.123 1.316 0.799zM16.9 26.37v-8.572c0-0.497 0.403-0.9 0.9-0.9h5.908c0.572 0 0.999 0.527 0.881 1.087-0.776 3.695-3.060 7.010-6.291 9.136-0.6 0.395-1.398-0.032-1.398-0.751z"></path>
</svg>
