<svg
  xmlns="http://www.w3.org/2000/svg"
  width="64"
  height="64"
  viewBox="0 0 64 64"
  fill="black"
  fill-rule="nonzero"
>
  <path d="M27.03 56.7c-.58.94-1.82 1.23-2.75.64C14.4 51.2 8.01 41.66 8.01 32V16a2 2 0 0 1 1.11-1.79l22-11c.56-.28 1.23-.28 1.79 0l22 11A2 2 0 0 1 56.02 16v8.4c0 1.1-.9 2-2 2s-2-.9-2-2v-7.16l-20-10-20 10V32c0 7.88 5.3 16.3 14.39 21.94.94.58 1.23 1.82.64 2.75zM26 44c0-4.97 2.02-9.47 5.27-12.73C34.53 28.01 39.03 26 44 26c4.97 0 9.47 2.02 12.73 5.27C59.99 34.53 62 39.03 62 44c0 4.97-2.02 9.47-5.27 12.73A17.941 17.941 0 0 1 44 62c-4.97 0-9.47-2.02-12.73-5.27A17.941 17.941 0 0 1 26 44zm8.1 9.9c2.54 2.54 6.03 4.1 9.9 4.1s7.36-1.56 9.9-4.1c2.54-2.54 4.1-6.03 4.1-9.9s-1.56-7.36-4.1-9.9C51.36 31.56 47.87 30 44 30s-7.36 1.56-9.9 4.1C31.56 36.64 30 40.13 30 44s1.56 7.36 4.1 9.9zm17.31-2.49c-.78.78-2.05.78-2.83 0l-4.59-4.59-4.59 4.59c-.78.78-2.05.78-2.83 0-.78-.78-.78-2.05 0-2.83l4.59-4.59-4.59-4.59c-.78-.78-.78-2.05 0-2.83.78-.78 2.05-.78 2.83 0l4.59 4.59 4.59-4.59c.78-.78 2.05-.78 2.83 0 .78.78.78 2.05 0 2.83l-4.59 4.59 4.59 4.59c.78.78.78 2.05 0 2.83z" />
</svg>
