<svg
  xmlns="http://www.w3.org/2000/svg"
  width="64"
  height="64"
  viewBox="0 0 64 64"
  fill="black"
  fill-rule="nonzero"
>
  <path d="M53.41 53.41c-.78.78-2.05.78-2.83 0l-7.27-7.27c-.78-.78-.78-2.05 0-2.83.78-.78 2.05-.78 2.83 0l7.27 7.27c.78.78.78 2.05 0 2.83zM20.69 20.69c-.78.78-2.05.78-2.83 0l-7.08-7.08c-.78-.78-.78-2.05 0-2.83.78-.78 2.05-.78 2.83 0l7.08 7.08c.78.78.78 2.05 0 2.83zm-9.9 32.52c-.78-.78-.78-2.05 0-2.83l7.08-7.08c.78-.78 2.05-.78 2.83 0 .78.78.78 2.05 0 2.83l-7.08 7.08c-.78.78-2.05.78-2.83 0zm32.53-32.53c-.78-.78-.78-2.05 0-2.83l7.07-7.07c.78-.78 2.05-.78 2.83 0 .78.78.78 2.05 0 2.83l-7.07 7.07c-.78.78-2.05.78-2.83 0zM62 32c0 1.1-.9 2-2 2H50c-1.1 0-2-.9-2-2s.9-2 2-2h10c1.1 0 2 .9 2 2zm-46 0c0 1.1-.9 2-2 2H4c-1.1 0-2-.9-2-2s.9-2 2-2h10c1.1 0 2 .9 2 2zm16 30c-1.1 0-2-.9-2-2V50c0-1.1.9-2 2-2s2 .9 2 2v10c0 1.1-.9 2-2 2zm0-46c-1.1 0-2-.9-2-2V4c0-1.1.9-2 2-2s2 .9 2 2v10c0 1.1-.9 2-2 2z" />
</svg>
