<svg
  xmlns="http://www.w3.org/2000/svg"
  width="64"
  height="64"
  viewBox="0 0 64 64"
  fill="black"
  fill-rule="nonzero"
>
  <path d="M27.83 57.83a4.007 4.007 0 0 1-5.66 0 4.007 4.007 0 0 1 0-5.66 4.007 4.007 0 0 1 5.66 0 4.007 4.007 0 0 1 0 5.66zM25 55zm0 0zm0 0zm25 0zm2.83 2.83a4.007 4.007 0 0 1-5.66 0 4.007 4.007 0 0 1 0-5.66 4.007 4.007 0 0 1 5.66 0 4.007 4.007 0 0 1 0 5.66zM50 55zm0 0zm0 0zm0 0zm0 0zm6.23-30H20.27l4.66 17.76c.17.66.56 1.22 1.07 1.62.51.4 1.15.62 1.84.62H47.4c.65 0 1.25-.21 1.75-.57s.89-.87 1.09-1.48zm-37.01-4H59c.64 0 1.25.31 1.62.83.38.52.48 1.19.27 1.8l-6.86 20.58a6.926 6.926 0 0 1-2.55 3.46 6.958 6.958 0 0 1-4.09 1.32H27.84a6.995 6.995 0 0 1-6.78-5.22l-8.61-32.78H4.99c-1.1 0-2-.9-2-2s.9-2 2-2h9c.91 0 1.7.61 1.93 1.49z" />
</svg>
