<svg
  xmlns="http://www.w3.org/2000/svg"
  width="64"
  height="64"
  viewBox="0 0 64 64"
  fill="black"
  fill-rule="nonzero"
>
  <path d="M49.41 13.59l11 11c.78.78.78 2.05 0 2.83l-27 27c-.38.38-.88.59-1.41.59H21c-1.1 0-2-.9-2-2v-11c0-.53.21-1.04.59-1.41l27-27c.78-.78 2.05-.78 2.83 0zM23 42.83V51h8.17l25-25L48 17.83zM37 19c-1.1 0-2-.9-2-2V6H16c-.83 0-1.58.33-2.12.88C13.33 7.43 13 8.17 13 9v46c0 .83.33 1.58.88 2.12.55.55 1.29.88 2.12.88h32c.83 0 1.58-.33 2.12-.88.55-.55.88-1.29.88-2.12V42c0-1.1.9-2 2-2s2 .9 2 2v13a7 7 0 0 1-7 7H16a7 7 0 0 1-7-7V9a7 7 0 0 1 7-7h21c.55 0 1.05.22 1.41.59l6 6c.78.78.78 2.05 0 2.83-.78.78-2.05.78-2.83 0l-2.59-2.59V17c0 1.1-.9 2-2 2zm11 34c0 1.1-.9 2-2 2h-4c-1.1 0-2-.9-2-2s.9-2 2-2h4c1.1 0 2 .9 2 2zM24 32c0 1.1-.9 2-2 2h-1c-1.1 0-2-.9-2-2s.9-2 2-2h1c1.1 0 2 .9 2 2zm7-8c0 1.1-.9 2-2 2h-8c-1.1 0-2-.9-2-2s.9-2 2-2h8c1.1 0 2 .9 2 2zm0-8c0 1.1-.9 2-2 2h-8c-1.1 0-2-.9-2-2s.9-2 2-2h8c1.1 0 2 .9 2 2z" />
</svg>
