<svg
  xmlns="http://www.w3.org/2000/svg"
  width="64"
  height="64"
  viewBox="0 0 64 64"
  fill="black"
  fill-rule="nonzero"
>
  <path d="M49.62 36.2a2.01 2.01 0 0 1-2.73.75c-4.63-2.64-9.8-3.96-14.95-3.95A30.08 30.08 0 0 0 17 37.01c-.96.55-2.18.22-2.73-.73-.55-.96-.22-2.18.73-2.73A34.089 34.089 0 0 1 31.92 29c5.84-.01 11.69 1.48 16.94 4.47.96.55 1.29 1.77.75 2.73zm-7.94 13.9c-.55.96-1.77 1.29-2.73.74A13.995 13.995 0 0 0 32 48.99c-2.4 0-4.8.62-6.95 1.85-.96.55-2.18.22-2.73-.74-.55-.96-.22-2.18.74-2.73a18.01 18.01 0 0 1 17.86 0c.96.55 1.29 1.77.74 2.73zm15.88-27.79c-.55.96-1.77 1.29-2.73.74A45.99 45.99 0 0 0 32 16.99a45.99 45.99 0 0 0-22.83 6.06c-.96.55-2.18.22-2.73-.74-.55-.96-.22-2.18.74-2.73a49.988 49.988 0 0 1 49.62 0c.96.55 1.29 1.77.74 2.73z" />
</svg>
