<svg
  xmlns="http://www.w3.org/2000/svg"
  width="64"
  height="64"
  viewBox="0 0 64 64"
  fill="black"
  fill-rule="nonzero"
>
  <path d="M12 40c1.1 0 2 .9 2 2v13c0 .83.33 1.58.88 2.12.55.55 1.29.88 2.12.88h32c.83 0 1.58-.33 2.12-.88.55-.55.88-1.29.88-2.12V22H38c-1.1 0-2-.9-2-2V6H17c-.83 0-1.58.33-2.12.88C14.33 7.43 14 8.17 14 9v7c0 1.1-.9 2-2 2s-2-.9-2-2V9a7 7 0 0 1 7-7h21c.55 0 1.05.22 1.41.59l16 16c.38.38.59.88.59 1.41v35a7 7 0 0 1-7 7H17a7 7 0 0 1-7-7V42c0-1.1.9-2 2-2zm11-2.19c0-1.34.54-2.55 1.42-3.42.87-.87 2.09-1.42 3.42-1.42 1.34 0 2.55.54 3.42 1.42.87.87 1.42 2.09 1.42 3.42 0 .6-.11 1.17-.31 1.7l5.74 5.74-3.67-13.6c-1.56-.11-3.11-.27-4.65-.47-1.67-.22-3.33-.49-4.98-.82l-4.43 4.43c.31 1.66.58 3.32.8 4.99.2 1.55.37 3.1.49 4.66L35.3 48.1l-5.75-5.75c-.53.2-1.11.31-1.71.31-1.34 0-2.55-.54-3.42-1.42A4.847 4.847 0 0 1 23 37.82zm4.25.59c.15.15.36.25.59.25a.8.8 0 0 0 .59-.25.84.84 0 0 0 .25-.59.8.8 0 0 0-.25-.59.84.84 0 0 0-.59-.25.8.8 0 0 0-.59.25.84.84 0 0 0-.25.59c0 .23.09.44.25.59zm3.06-11.19c1.92.25 3.85.43 5.79.53.93.05 1.67.72 1.86 1.58l5.96 22.07c.04.13.06.26.07.39a2.015 2.015 0 0 1-.58 1.59c-.35.35-.81.55-1.27.58-.1.01-.21.01-.32 0-.13-.01-.26-.03-.38-.07L19.3 47.94c-.14-.03-.27-.08-.39-.14-.27-.13-.5-.31-.68-.54-.18-.22-.32-.49-.39-.78-.03-.13-.05-.27-.06-.41-.12-1.93-.31-3.86-.56-5.78-.1-.8-.22-1.59-.35-2.39-.59.16-1.23.04-1.74-.35L6.8 31.07c-.04-.03-.08-.07-.12-.1a1.79 1.79 0 0 1-.42-.53 1.95 1.95 0 0 1-.25-.85c-.02-.29.03-.59.14-.87.08-.21.2-.4.36-.58.04-.04.07-.08.11-.12l11.51-11.44a2.338 2.338 0 0 1 .69-.46c.28-.11.58-.16.87-.14.29.02.58.1.85.25.19.11.37.25.53.43.03.04.07.08.1.12l6.45 8.3c.4.52.51 1.18.35 1.77.79.13 1.57.25 2.36.35zm-14.12 6.11l6.53-6.53.04-.04.59-.59-4-5.14-8.34 8.29zM40 18h9.17L40 8.83z" />
</svg>
