<!-- Generated by IcoMoon.io -->
<svg version="1.1" xmlns="http://www.w3.org/2000/svg" width="32" height="32" viewBox="0 0 32 32">
<title>silver</title>
<path d="M9.205 13.7h9.135c0.434 0 0.785-0.352 0.785-0.785s-0.352-0.785-0.785-0.785h-9.135c-0.434 0-0.785 0.352-0.785 0.785s0.352 0.785 0.785 0.785z"></path>
<path d="M22.004 13.7h0.76c0.434 0 0.785-0.352 0.785-0.785s-0.352-0.785-0.785-0.785h-0.76c-0.434 0-0.785 0.352-0.785 0.785s0.352 0.785 0.785 0.785z"></path>
<path d="M22.004 17.611h0.76c0.434 0 0.785-0.352 0.785-0.785s-0.352-0.785-0.785-0.785h-0.76c-0.434 0-0.785 0.352-0.785 0.785s0.352 0.785 0.785 0.785z"></path>
<path d="M9.205 17.611h4.434c0.434 0 0.785-0.352 0.785-0.785s-0.352-0.785-0.785-0.785h-4.434c-0.434 0-0.785 0.352-0.785 0.785s0.352 0.785 0.785 0.785z"></path>
<path d="M22.004 21.521h0.76c0.434 0 0.785-0.352 0.785-0.785s-0.352-0.785-0.785-0.785h-0.76c-0.434 0-0.785 0.352-0.785 0.785s0.352 0.785 0.785 0.785z"></path>
<path d="M9.205 21.521h7.586c0.434 0 0.785-0.352 0.785-0.785s-0.352-0.785-0.785-0.785h-7.586c-0.434 0-0.785 0.352-0.785 0.785s0.352 0.785 0.785 0.785z"></path>
<path d="M24.964 5.040h-19.127c-0.434 0-0.785 0.352-0.785 0.785s0.352 0.785 0.785 0.785h19.127c0.228 0 0.413 0.185 0.413 0.413v17.653l-0.497-0.358c-0.32-0.231-0.741-0.269-1.098-0.1l-2.348 1.112-2.083-1.102c-0.301-0.159-0.664-0.167-0.972-0.021l-2.372 1.124-2.083-1.102c-0.301-0.159-0.665-0.167-0.972-0.021l-2.378 1.127-2.161-1.102c-0.346-0.177-0.763-0.153-1.088 0.060l-0.702 0.461v-14.554c0-0.228 0.185-0.413 0.413-0.413h12.36c0.434 0 0.785-0.352 0.785-0.785s-0.352-0.785-0.785-0.785h-12.36c-1.094 0-1.983 0.89-1.983 1.983v15.455c0 0.399 0.218 0.765 0.57 0.955s0.777 0.171 1.111-0.048l1.218-0.801 2.122 1.082c0.154 0.078 0.323 0.118 0.493 0.118 0.159 0 0.318-0.035 0.464-0.104l2.374-1.125 2.083 1.102c0.301 0.159 0.665 0.167 0.972 0.021l2.372-1.124 2.083 1.102c0.301 0.159 0.665 0.167 0.972 0.021l2.308-1.094 1.035 0.744c0.332 0.239 0.764 0.271 1.128 0.085s0.59-0.556 0.59-0.965v-18.601c0-1.094-0.89-1.983-1.983-1.983z"></path>
</svg>
