<svg
  xmlns="http://www.w3.org/2000/svg"
  width="64"
  height="64"
  viewBox="0 0 64 64"
  fill="black"
  fill-rule="nonzero"
>
  <path d="M42.48 48.76H21.53V36.19h20.95zM25.71 29.9a6.29 6.29 0 0 1 12.58 0V32H25.72v-2.1zM44.57 32h-2.09v-2.1a10.48 10.48 0 0 0-21 0V32h-2.05a2.1 2.1 0 0 0-2.1 2.09v16.77a2.1 2.1 0 0 0 2.1 2.14h25.14a2.09 2.09 0 0 0 2.09-2.09V34.09A2.09 2.09 0 0 0 44.57 32zM61.34 9v46.1a6.29 6.29 0 0 1-6.29 6.28H9a6.28 6.28 0 0 1-6.28-6.28V17.33A6.28 6.28 0 0 1 9 11.05h18.81a2.1 2.1 0 1 1 0 4.19H9a2.09 2.09 0 0 0-2.09 2.09v37.72A2.1 2.1 0 0 0 9 57.14h46.1a2.1 2.1 0 0 0 2.1-2.09V9a2.1 2.1 0 0 0-2.1-2.1H4.76a2.09 2.09 0 0 1 0-4.18h50.29A6.29 6.29 0 0 1 61.34 9z" />
</svg>
