<!-- Generated by IcoMoon.io -->
<svg version="1.1" xmlns="http://www.w3.org/2000/svg" width="32" height="32" viewBox="0 0 32 32">
<title>slack</title>
<path d="M29.32 15.86c-0.425-0.361-0.981-0.581-1.588-0.581-0.261 0-0.513 0.041-0.749 0.116l0.017-0.005-2.59 0.84s0-0.080 0-0.12c-0.45-1.37-0.89-2.74-1.34-4.11-0.12-0.36-0.23-0.73-0.34-1.1 0.055-0.029 0.118-0.053 0.184-0.069l0.006-0.001c0.78-0.25 1.56-0.5 2.35-0.77 1.024-0.339 1.75-1.288 1.75-2.407 0-0.21-0.026-0.415-0.074-0.61l0.004 0.017c-0.156-0.558-0.493-1.021-0.942-1.335l-0.008-0.005c-0.386-0.331-0.879-0.547-1.421-0.589l-0.009-0.001c-0.054-0.004-0.118-0.007-0.182-0.007-0.293 0-0.574 0.050-0.836 0.142l0.018-0.005-2.1 0.68c-0.113 0.043-0.254 0.084-0.398 0.116l-0.022 0.004c-0.28-0.82-0.55-1.65-0.81-2.48-0.317-0.988-1.183-1.709-2.229-1.809l-0.011-0.001h-0.43c-0.341 0.036-0.653 0.132-0.935 0.277l0.015-0.007c-0.836 0.424-1.4 1.278-1.4 2.263 0 0.263 0.040 0.516 0.114 0.755l-0.005-0.018 0.4 1.21c0.15 0.45 0.29 0.9 0.44 1.35l-0.45 0.15-2.75 0.94-2 0.65c-0.018 0.005-0.039 0.008-0.060 0.008s-0.042-0.003-0.062-0.009l0.002 0c-0.27-0.87-0.55-1.75-0.84-2.61-0.369-0.969-1.291-1.646-2.37-1.646-1.397 0-2.53 1.133-2.53 2.53 0 0.251 0.037 0.494 0.105 0.723l-0.005-0.018c0.19 0.63 0.4 1.27 0.61 1.9 0.080 0.24 0.15 0.48 0.23 0.71v0 0c-0.86 0.29-1.74 0.55-2.59 0.86-0.841 0.278-1.468 0.985-1.628 1.855l-0.002 0.015c-0.007 0.103-0.032 0.198-0.072 0.285l0.002-0.005v0.44c0.050 0 0 0.13 0.050 0.2 0.107 0.759 0.54 1.399 1.15 1.784l0.010 0.006c0.358 0.229 0.795 0.364 1.263 0.364 0.223 0 0.439-0.031 0.644-0.088l-0.017 0.004c0.33-0.090 0.64-0.2 1-0.31l1.58-0.51c0.058-0.030 0.127-0.049 0.2-0.050h0l1.5 4.59c0.080 0.25 0.15 0.49 0.23 0.72v0h-0.070l-2.47 0.8c-1.032 0.335-1.764 1.288-1.764 2.411 0 0.095 0.005 0.188 0.015 0.28l-0.001-0.011c0.053 0.572 0.299 1.078 0.671 1.461l-0.001-0.001c0.446 0.507 1.096 0.826 1.821 0.826 0.275 0 0.54-0.046 0.786-0.131l-0.017 0.005 1.72-0.56 0.87-0.29c0.28 0.86 0.55 1.72 0.84 2.58 0.36 0.993 1.295 1.69 2.394 1.69 0.080 0 0.159-0.004 0.236-0.011l-0.010 0.001c0.657-0.050 1.234-0.356 1.638-0.817l0.002-0.003c0.404-0.423 0.653-0.997 0.653-1.63 0-0.246-0.038-0.484-0.108-0.707l0.005 0.017c-0.14-0.47-0.3-0.94-0.45-1.4l-0.39-1.2c0.015 0.003 0.032 0.004 0.050 0.004s0.035-0.002 0.052-0.005l-0.002 0 5.22-1.7c0.29 0.87 0.56 1.73 0.85 2.59 0.349 0.995 1.28 1.695 2.374 1.695 0.097 0 0.193-0.006 0.287-0.016l-0.012 0.001c0.642-0.053 1.204-0.355 1.598-0.807l0.002-0.003c0.429-0.426 0.694-1.016 0.694-1.668 0-0.28-0.049-0.549-0.139-0.799l0.005 0.016-0.72-2.22c-0.042-0.106-0.080-0.233-0.107-0.365l-0.003-0.015 2.52-0.83c0.256-0.071 0.479-0.18 0.676-0.324l-0.006 0.004c0.668-0.445 1.102-1.195 1.102-2.046 0-0.114-0.008-0.227-0.023-0.337l0.001 0.013c-0.036-0.698-0.366-1.312-0.866-1.727l-0.004-0.003zM15.62 19.070l-1.41 0.46c-0.080-0.18-0.12-0.37-0.19-0.55l-1.53-4.73s0 0 0 0 0.060 0 0.1-0.050l5.11-1.66h0.11c0.070 0.25 0.16 0.5 0.24 0.75 0.48 1.48 1 3 1.45 4.44v0.15z"></path>
</svg>
