<svg
  xmlns="http://www.w3.org/2000/svg"
  width="64"
  height="64"
  viewBox="0 0 64 64"
  fill="black"
  fill-rule="nonzero"
>
  <path d="M19 53a7 7 0 0 1-7-7V18a7 7 0 0 1 7-7h2V7c0-1.1.9-2 2-2h18c1.1 0 2 .9 2 2v4h2a7 7 0 0 1 7 7v8h3c1.1 0 2 .9 2 2v8c0 1.1-.9 2-2 2h-3v8a7 7 0 0 1-7 7h-2v4c0 1.1-.9 2-2 2H23c-1.1 0-2-.9-2-2v-4zm26-4c.83 0 1.58-.33 2.12-.88.55-.55.88-1.29.88-2.12V18c0-.83-.33-1.58-.88-2.12-.55-.55-1.29-.88-2.12-.88H19c-.83 0-1.58.33-2.12.88-.55.55-.88 1.29-.88 2.12v28c0 .83.33 1.58.88 2.12.55.55 1.29.88 2.12.88zm-20 6h14v-2H25zM39 9H25v2h14zm2.41 32.41c-.78.78-2.05.78-2.83 0l-8-8c-.38-.38-.59-.88-.59-1.41V20c0-1.1.9-2 2-2s2 .9 2 2v11.17l7.41 7.41c.78.78.78 2.05 0 2.83zM53 34v-4h-1v4z" />
</svg>
