<svg
  xmlns="http://www.w3.org/2000/svg"
  width="64"
  height="64"
  viewBox="0 0 64 64"
  fill="black"
  fill-rule="nonzero"
>
  <path d="M26 8c0 1.1-.9 2-2 2h-6c-2.21 0-4.21.89-5.66 2.34A7.973 7.973 0 0 0 10 18v6c0 1.1-.9 2-2 2s-2-.9-2-2v-6c0-3.31 1.35-6.32 3.51-8.49C11.68 7.34 14.68 6 18 6h6c1.1 0 2 .9 2 2zM8 38c1.1 0 2 .9 2 2v6c0 2.21.89 4.21 2.34 5.66A7.973 7.973 0 0 0 18 54h6c1.1 0 2 .9 2 2s-.9 2-2 2h-6c-3.31 0-6.32-1.35-8.49-3.51A11.962 11.962 0 0 1 6 46v-6c0-1.1.9-2 2-2zm30 18c0-1.1.9-2 2-2h6c2.21 0 4.21-.89 5.66-2.34A7.973 7.973 0 0 0 54 46v-6c0-1.1.9-2 2-2s2 .9 2 2v6c0 3.31-1.35 6.32-3.51 8.49A11.962 11.962 0 0 1 46 58h-6c-1.1 0-2-.9-2-2zm18-30c-1.1 0-2-.9-2-2v-6c0-2.21-.89-4.21-2.34-5.66A7.973 7.973 0 0 0 46 10h-6c-1.1 0-2-.9-2-2s.9-2 2-2h6c3.31 0 6.32 1.35 8.49 3.51C56.66 11.68 58 14.68 58 18v6c0 1.1-.9 2-2 2zm-37 6c0-3.59 1.46-6.84 3.81-9.19C25.16 20.46 28.41 19 32 19s6.84 1.46 9.19 3.81C43.54 25.16 45 28.41 45 32s-1.46 6.84-3.81 9.19C38.84 43.54 35.59 45 32 45s-6.84-1.46-9.19-3.81C20.46 38.84 19 35.59 19 32zm6.64 6.36A8.972 8.972 0 0 0 32 41c2.49 0 4.73-1.01 6.36-2.64A8.958 8.958 0 0 0 40.77 34H23.22a8.958 8.958 0 0 0 2.41 4.36zm12.72-12.72A8.972 8.972 0 0 0 32 23c-2.49 0-4.73 1.01-6.36 2.64A8.958 8.958 0 0 0 23.23 30h17.55a8.958 8.958 0 0 0-2.41-4.36z" />
</svg>
