<svg
  xmlns="http://www.w3.org/2000/svg"
  width="64"
  height="64"
  viewBox="0 0 64 64"
  fill="black"
  fill-rule="nonzero"
>
  <path d="M44.41 44.41c-.78.78-2.05.78-2.83 0l-9.59-9.59-9.59 9.59c-.78.78-2.05.78-2.83 0-.78-.78-.78-2.05 0-2.83l9.59-9.59-9.59-9.59c-.78-.78-.78-2.05 0-2.83.78-.78 2.05-.78 2.83 0l9.59 9.59 9.59-9.59c.78-.78 2.05-.78 2.83 0 .78.78.78 2.05 0 2.83l-9.59 9.59 9.59 9.59c.78.78.78 2.05 0 2.83zM13.33 58c-2.02 0-3.86-.82-5.18-2.15A7.325 7.325 0 0 1 6 50.67V13.33c0-2.02.82-3.86 2.15-5.18A7.325 7.325 0 0 1 13.33 6h37.34c2.02 0 3.86.82 5.18 2.15A7.325 7.325 0 0 1 58 13.33v37.34c0 2.02-.82 3.86-2.15 5.18A7.325 7.325 0 0 1 50.67 58zm37.34-4c.92 0 1.75-.37 2.35-.98.6-.6.98-1.43.98-2.35V13.33c0-.92-.37-1.75-.98-2.35-.6-.6-1.43-.98-2.35-.98H13.33c-.92 0-1.75.37-2.35.98-.6.6-.98 1.43-.98 2.35v37.34c0 .92.37 1.75.98 2.35.6.6 1.43.98 2.35.98z" />
</svg>
