<svg
  xmlns="http://www.w3.org/2000/svg"
  width="64"
  height="64"
  viewBox="0 0 64 64"
  fill="black"
  fill-rule="nonzero"
>
  <path d="M42.67 8c0 1.1-.9 2-2 2H13.33c-.92 0-1.75.37-2.35.98-.6.6-.98 1.43-.98 2.35v37.34c0 .92.37 1.75.98 2.35.6.6 1.43.98 2.35.98h37.34c.92 0 1.75-.37 2.35-.98.6-.6.98-1.43.98-2.35V23.33c0-1.1.9-2 2-2s2 .9 2 2v27.34c0 2.02-.82 3.86-2.15 5.18A7.325 7.325 0 0 1 50.67 58H13.33c-2.02 0-3.86-.82-5.18-2.15A7.325 7.325 0 0 1 6 50.67V13.33c0-2.02.82-3.86 2.15-5.18A7.325 7.325 0 0 1 13.33 6h27.34c1.1 0 2 .9 2 2z" />
</svg>
