<svg
  xmlns="http://www.w3.org/2000/svg"
  width="64"
  height="64"
  viewBox="0 0 64 64"
  fill="black"
  fill-rule="nonzero"
>
  <path d="M51 62h-6c-1.1 0-2-.9-2-2v-2h-5v1c0 1.1-.9 2-2 2s-2-.9-2-2v-1H21v2c0 1.1-.9 2-2 2h-6c-1.1 0-2-.9-2-2V4c0-1.1.9-2 2-2h38c1.1 0 2 .9 2 2v56c0 1.1-.9 2-2 2zm-4-4h2V6H15v52h2v-2c0-1.1.9-2 2-2h26c1.1 0 2 .9 2 2zM17.73 8.73c.45-.45 1.08-.73 1.77-.73s1.32.28 1.77.73c.45.45.73 1.08.73 1.77s-.28 1.32-.73 1.77c-.45.45-1.08.73-1.77.73s-1.32-.28-1.77-.73c-.45-.45-.73-1.08-.73-1.77s.28-1.32.73-1.77zm25 0c.45-.45 1.08-.73 1.77-.73s1.32.28 1.77.73c.45.45.73 1.08.73 1.77s-.28 1.32-.73 1.77c-.45.45-1.08.73-1.77.73s-1.32-.28-1.77-.73c-.45-.45-.73-1.08-.73-1.77s.28-1.32.73-1.77zM21.27 51.27c-.45.45-1.08.73-1.77.73s-1.32-.28-1.77-.73c-.45-.45-.73-1.08-.73-1.77s.28-1.32.73-1.77c.45-.45 1.08-.73 1.77-.73s1.32.28 1.77.73c.45.45.73 1.08.73 1.77s-.28 1.32-.73 1.77zm25 0c-.45.45-1.08.73-1.77.73s-1.32-.28-1.77-.73c-.45-.45-.73-1.08-.73-1.77s.28-1.32.73-1.77c.45-.45 1.08-.73 1.77-.73s1.32.28 1.77.73c.45.45.73 1.08.73 1.77s-.28 1.32-.73 1.77z" />
</svg>
