<svg
  xmlns="http://www.w3.org/2000/svg"
  width="64"
  height="64"
  viewBox="0 0 64 64"
  fill="black"
  fill-rule="nonzero"
>
  <path d="M33.83 5.31l6.58 15.1 16.4 1.6c.79.08 1.46.62 1.71 1.37.25.76.02 1.59-.58 2.11L45.61 36.42l3.56 16.08c.17.78-.13 1.58-.78 2.05-.64.47-1.5.51-2.19.11l-14.21-8.35-14.21 8.35c-.69.4-1.55.36-2.19-.11-.64-.47-.95-1.27-.78-2.05l3.56-16.08L6.04 25.49a1.99 1.99 0 0 1 1.13-3.48l16.4-1.6 6.58-15.1c.32-.73 1.04-1.2 1.83-1.2.8 0 1.52.47 1.83 1.2zM32 11.12l-5.22 11.97c-.29.67-.92 1.12-1.64 1.19l-13 1.27 9.78 8.67c.54.48.78 1.22.63 1.93L19.73 48.9l11.26-6.62c.63-.37 1.4-.37 2.03 0l11.26 6.62-2.82-12.75c-.16-.71.08-1.45.63-1.93l9.78-8.67-13-1.27c-.72-.07-1.35-.53-1.64-1.19z" />
</svg>
