<svg
  xmlns="http://www.w3.org/2000/svg"
  width="64"
  height="64"
  viewBox="0 0 64 64"
  fill="black"
  fill-rule="nonzero"
>
  <path d="M57.41 57.41c-.78.78-2.05.78-2.83 0l-5.56-5.56.14.65c.17.78-.13 1.58-.78 2.05-.64.47-1.5.51-2.19.11l-14.21-8.35-14.21 8.35c-.69.4-1.55.36-2.19-.11-.64-.47-.95-1.27-.78-2.05l3.56-16.08L6.03 25.49a1.99 1.99 0 0 1 1.13-3.48l10.93-1.06L6.56 9.42c-.78-.78-.78-2.05 0-2.83.78-.78 2.05-.78 2.83 0l14.52 14.52.02.02 23.03 23.03c.02.01.03.03.04.04l10.39 10.39c.78.78.78 2.05 0 2.83zM12.14 25.55l9.78 8.67c.54.48.78 1.22.63 1.93L19.73 48.9l11.26-6.62c.63-.37 1.4-.37 2.03 0l11.26 6.61-.51-2.3-21.98-21.98zm31.69 9.79c-.73-.83-.66-2.09.17-2.82l7.86-6.97-13.01-1.27c-.72-.07-1.35-.53-1.64-1.19l-5.22-11.98-2.6 5.95a1.999 1.999 0 0 1-2.63 1.03 1.999 1.999 0 0 1-1.03-2.63l4.43-10.15c.32-.73 1.04-1.2 1.83-1.2.8 0 1.52.47 1.83 1.2l6.58 15.1 16.4 1.6c.79.08 1.46.62 1.71 1.37.25.76.02 1.59-.58 2.11L46.64 35.5c-.83.73-2.09.66-2.82-.17z" />
</svg>
