<!-- Generated by IcoMoon.io -->
<svg version="1.1" xmlns="http://www.w3.org/2000/svg" width="32" height="32" viewBox="0 0 32 32">
<title>statuspage</title>
<path d="M7.17 16c0-0.005-0-0.011-0-0.017 0-4.871 3.949-8.82 8.82-8.82 2.437 0 4.644 0.989 6.24 2.587l0 0 3.77-3.83c-2.569-2.538-6.101-4.106-10-4.106-7.844 0-14.205 6.346-14.23 14.184v0.062h5.4z"></path>
<path d="M24.83 16c-0.030 4.848-3.967 8.767-8.82 8.767-2.408 0-4.59-0.965-6.181-2.529l0.001 0.001-3.83 3.86c2.569 2.538 6.101 4.106 10 4.106 7.851 0 14.216-6.357 14.23-14.205v-0.001h-5.4z"></path>
<path d="M21.4 16c0 0.003 0 0.006 0 0.010 0 3.010-2.44 5.45-5.45 5.45s-5.45-2.44-5.45-5.45c0-3.010 2.44-5.45 5.45-5.45 0.018 0 0.035 0 0.053 0l-0.003-0c2.987 0.023 5.4 2.45 5.4 5.44 0 0 0 0 0 0v0z"></path>
</svg>
