<!-- Generated by IcoMoon.io -->
<svg version="1.1" xmlns="http://www.w3.org/2000/svg" width="32" height="32" viewBox="0 0 32 32">
<title>statuscake</title>
<path d="M28 20.31c-0.588-0.998-1.656-1.657-2.879-1.657-0.216 0-0.427 0.021-0.632 0.060l0.021-0.003c-0.909 0.219-1.645 0.822-2.042 1.622l-0.008 0.018c-0.844 1.515-2.191 2.665-3.811 3.235l-0.049 0.015-0.49 0.13c-0.024-0.004-0.052-0.006-0.080-0.006-0.116 0-0.223 0.036-0.312 0.097l0.002-0.001c-0.38 0.059-0.817 0.092-1.263 0.092-0.554 0-1.096-0.052-1.621-0.151l0.054 0.008c-1.542-0.303-2.874-1.057-3.887-2.117l-0.003-0.003c-0.496-0.586-0.946-1.241-1.329-1.938l-0.031-0.062c-0.371-0.866-0.587-1.873-0.587-2.931 0-0.527 0.054-1.041 0.155-1.538l-0.008 0.049c0.006-0.023 0.009-0.049 0.009-0.076 0-0.109-0.055-0.206-0.138-0.263l-0.001-0.001c-0.351-0.367-0.769-0.667-1.235-0.88l-0.025-0.010c-0.044-0.133-0.070-0.286-0.070-0.445 0-0.002 0-0.003 0-0.005v0c0.359 0.232 0.786 0.392 1.246 0.449l0.014 0.001c0.031 0.004 0.067 0.007 0.103 0.007 0.329 0 0.61-0.204 0.725-0.492l0.002-0.005c0.256-0.573 0.592-1.063 1.001-1.481l-0.001 0.001c0.111-0.103 0.18-0.249 0.18-0.411 0-0.053-0.007-0.104-0.021-0.153l0.001 0.004c-0.215-0.921-1.029-1.596-2-1.596-1.133 0-2.051 0.918-2.051 2.051 0 0.161 0.019 0.318 0.054 0.469l-0.003-0.014c0 0.14 0 0.28 0.080 0.43l-0.21-0.12c-0.303-0.208-0.678-0.332-1.082-0.332-0.336 0-0.652 0.086-0.928 0.237l0.010-0.005c-0.634 0.3-1.064 0.934-1.064 1.668 0 0.043 0.001 0.085 0.004 0.127l-0-0.006c-0.004 0.010-0.007 0.022-0.007 0.035s0.003 0.025 0.007 0.036l-0-0.001c-0.33 0.25-0.76 0.45-0.82 0.89-0.062 0.452-0.097 0.975-0.097 1.507 0 1.021 0.13 2.011 0.375 2.955l-0.018-0.082c0.118 0.792 0.331 1.505 0.631 2.172l-0.021-0.052c0.593 1.515 1.445 2.809 2.511 3.891l-0.001-0.001c0.331 0.45 0.714 0.836 1.146 1.16l0.014 0.010c0.818 0.819 1.781 1.492 2.849 1.975l0.061 0.025 0.19 0.1c1.040 0.535 2.25 0.914 3.53 1.065l0.050 0.005c0.595 0.117 1.279 0.184 1.979 0.184 0.412 0 0.819-0.023 1.22-0.069l-0.049 0.005c1.409-0.074 2.722-0.409 3.917-0.957l-0.067 0.027c0.285-0.061 0.536-0.172 0.757-0.325l-0.007 0.005c1.305-0.593 2.423-1.362 3.383-2.293l-0.003 0.003c1.076-0.935 1.969-2.048 2.64-3.298l0.030-0.062c0.268-0.423 0.428-0.938 0.428-1.49s-0.159-1.067-0.434-1.502l0.007 0.012z"></path>
<path d="M11.38 11.38c1.268-1.201 2.984-1.94 4.873-1.94 0.017 0 0.033 0 0.049 0h-0.003c-0.236-0.546-0.575-1.007-0.996-1.376l-0.004-0.004c0-0.73-0.19-1.090-0.65-1.23s-0.82 0-1.13 0.53h-0.070c-0.032-0.002-0.069-0.003-0.106-0.003-0.795 0-1.475 0.488-1.759 1.18l-0.005 0.013c-0.223 0.501-0.353 1.085-0.353 1.699 0 0.402 0.056 0.792 0.16 1.161l-0.007-0.030z"></path>
<path d="M19.24 10c1.070 0 1.78-0.59 1.78-1.42-0.061-1.079-0.921-1.939-1.994-2l-0.006-0c-0.83 0-1.35 0.66-1.35 1.67s0.63 1.75 1.57 1.75z"></path>
<path d="M21.76 6.49c0.72 0 1.27-0.41 1.27-1-0.043-0.738-0.617-1.33-1.344-1.4l-0.006-0c-0.57 0-0.92 0.43-0.92 1.16s0.36 1.24 1 1.24z"></path>
<path d="M8.76 7.83c0.581-0.041 1.040-0.507 1.070-1.087l0-0.003c-0.022-0.607-0.519-1.090-1.129-1.090-0 0-0.001 0-0.001 0h0c-0.561 0.043-1 0.509-1 1.077 0 0.005 0 0.009 0 0.014v-0.001c0.015 0.585 0.477 1.058 1.057 1.090l0.003 0z"></path>
<path d="M25.59 9.46c-0.349-0.154-0.756-0.244-1.184-0.244-0.316 0-0.621 0.049-0.907 0.139l0.021-0.006h-0.11c-0.227-0.271-0.566-0.443-0.945-0.443s-0.718 0.171-0.943 0.441l-0.002 0.002c-0.216 0.226-0.349 0.533-0.349 0.871 0 0.4 0.186 0.756 0.477 0.987l0.003 0.002c0.001 0.014 0.002 0.029 0.002 0.045s-0.001 0.031-0.002 0.047l0-0.002c-0.060 0.19-0.21 0.4-0.070 0.55 0.57 0.64 0.87 1.47 1.49 2.070 0.548 0.479 1.271 0.771 2.061 0.771 1.022 0 1.93-0.488 2.503-1.244l0.006-0.008c0.61-0.71 0.64-1 0.19-1.8q-0.12-0.23-0.24-0.42c0.328-0.247 0.537-0.636 0.537-1.073 0-0.484-0.257-0.908-0.641-1.144l-0.006-0.003c-0.204-0.223-0.496-0.363-0.821-0.363-0.507 0-0.935 0.34-1.067 0.805l-0.002 0.008z"></path>
<path d="M4.51 9.9c0.003 0 0.008 0 0.012 0 0.436 0 0.79-0.354 0.79-0.79 0-0.018-0.001-0.035-0.002-0.052l0 0.002c0-0.003 0-0.007 0-0.010 0-0.468-0.374-0.849-0.839-0.86l-0.001-0c-0.451 0.032-0.806 0.404-0.81 0.86v0c-0.001 0.015-0.002 0.034-0.002 0.052 0 0.442 0.358 0.8 0.8 0.8 0.018 0 0.036-0.001 0.054-0.002l-0.002 0z"></path>
<path d="M15.68 4.47c0.451-0.030 0.81-0.389 0.84-0.837l0-0.003c0-0.469-0.381-0.85-0.85-0.85s-0.85 0.381-0.85 0.85v0c0.022 0.462 0.396 0.83 0.859 0.84l0.001 0z"></path>
<path d="M24.81 7c0.003 0 0.007 0 0.010 0 0.453 0 0.82-0.367 0.82-0.82 0-0.004-0-0.007-0-0.011v0.001c0-0.006 0-0.013 0-0.020 0-0.442-0.358-0.8-0.8-0.8-0.007 0-0.014 0-0.021 0l0.001-0c-0.009-0-0.019-0.001-0.030-0.001-0.447 0-0.81 0.363-0.81 0.81 0 0 0 0 0 0.001v-0c0.020 0.452 0.379 0.814 0.828 0.84l0.002 0z"></path>
<path d="M5.82 11.65c0.52 0 0.68-0.26 0.71-0.61-0.006-0.338-0.281-0.61-0.62-0.61-0 0-0 0-0 0v0c-0.333 0.021-0.595 0.294-0.6 0.63v0c0.020 0.39 0.24 0.58 0.51 0.59z"></path>
<path d="M12.26 2.54c0.21 0 0.39-0.14 0.39-0.4s-0.13-0.34-0.37-0.37c-0.021-0.004-0.045-0.007-0.070-0.007-0.193 0-0.35 0.157-0.35 0.35 0 0.002 0 0.005 0 0.007v-0c-0.030 0.26 0.14 0.36 0.4 0.42z"></path>
<path d="M10.93 8.12c0.007 0 0.014 0.001 0.022 0.001 0.199 0 0.36-0.161 0.36-0.36 0-0.014-0.001-0.028-0.002-0.042l0 0.002c0-0.24-0.14-0.34-0.36-0.35s-0.41 0.080-0.41 0.36c-0.001 0.009-0.001 0.020-0.001 0.031 0 0.199 0.161 0.36 0.36 0.36 0.011 0 0.022-0.001 0.033-0.001l-0.001 0z"></path>
<path d="M22.91 8.11c-0.001 0.009-0.002 0.021-0.002 0.032 0 0.166 0.134 0.3 0.3 0.3 0.011 0 0.022-0.001 0.033-0.002l-0.001 0c0.006 0 0.013 0.001 0.020 0.001 0.177 0 0.32-0.143 0.32-0.32 0-0.004-0-0.007-0-0.011v0.001c-0.006-0.183-0.156-0.33-0.34-0.33-0 0-0 0-0 0v0c-0.009-0.001-0.021-0.002-0.032-0.002-0.166 0-0.3 0.134-0.3 0.3 0 0.011 0.001 0.022 0.002 0.033l-0-0.001z"></path>
</svg>
