<svg
  xmlns="http://www.w3.org/2000/svg"
  width="64"
  height="64"
  viewBox="0 0 64 64"
  fill="black"
  fill-rule="nonzero"
>
  <path d="M46.57 15.74v-.07a.61.61 0 0 1 .62-.61h.06a.7.7 0 0 1 .7.68.66.66 0 0 1-.65.66h-.11a.62.62 0 0 1-.62-.62zm-24.67 0h-.06a.74.74 0 0 1-.74-.74c0-.58.39-.77.85-.74s.74.22.74.72V15a.74.74 0 0 1-.74.74zm2.74-11.47c-.53-.13-.88-.33-.82-.87a.72.72 0 0 1 .72-.72h.14c.5.06.77.23.77.76a.78.78 0 0 1-.81.83zM11.38 23c-.55 0-1-.42-1.05-1.22a1.33 1.33 0 0 1 1.24-1.3 1.28 1.28 0 0 1 1.27 1.26c-.06.75-.39 1.26-1.46 1.26zm39.11-9.58a1.81 1.81 0 0 1-1.7-1.73 1.67 1.67 0 0 1 1.67-1.67h.1a1.65 1.65 0 0 1 1.64 1.68 1.69 1.69 0 0 1-1.69 1.69zm-18.8-5.18a1.82 1.82 0 0 1-1.77-1.73 1.76 1.76 0 0 1 3.51 0 1.87 1.87 0 0 1-1.74 1.73zm-23 11.18h-.1a1.65 1.65 0 0 1-1.65-1.65v-.11A1.8 1.8 0 0 1 8.6 15.9a1.77 1.77 0 0 1 1.73 1.77v.11A1.63 1.63 0 0 1 8.7 19.4zm43.41-.9a2.28 2.28 0 0 1 3.9-.95 2.76 2.76 0 0 1 .21 4.57c.17.26.33.55.5.86.92 1.65.86 2.25-.39 3.71a6.47 6.47 0 0 1-5.15 2.56 6.38 6.38 0 0 1-4.24-1.59c-1.28-1.24-1.9-2.95-3.07-4.26-.29-.31 0-.74.14-1.14s0-.07 0-.1v-.09a2.57 2.57 0 0 1-1-2 2.6 2.6 0 0 1 .72-1.79 2.53 2.53 0 0 1 3.88 0h.19a6.36 6.36 0 0 1 1.87-.3 6 6 0 0 1 2.43.52zm-34.66-3.36a2.31 2.31 0 0 1-2.18-2.24 2.23 2.23 0 0 1 2.06-2.22 2.34 2.34 0 0 1 2.33 2.25 2.36 2.36 0 0 1-2.21 2.21zm26.77-2.76c-1.32 0-2.06-1.05-2.06-2.55s.72-2.39 1.85-2.39a3.07 3.07 0 0 1 2.77 2.88c.05 1.22-1.08 2.06-2.56 2.06zM39 19.63A3.29 3.29 0 0 1 35.78 16c0-2.08 1.07-3.44 2.78-3.44a4.35 4.35 0 0 1 4.1 4.11c.02 1.74-1.44 2.96-3.66 2.96zm-16.17 2.84v.06a9 9 0 0 1-.33-2.39 8.66 8.66 0 0 1 .73-3.5 3.92 3.92 0 0 1 3.62-2.43h.37a1.84 1.84 0 0 1 2.32-1.09c1 .29 1.34 1 1.34 2.53A7.89 7.89 0 0 1 33 18.48h-.09a14.57 14.57 0 0 0-10.08 3.99zm34.23 18.39a5.77 5.77 0 0 1 0 6.16l-.07.13a24.1 24.1 0 0 1-5.43 6.79 24.49 24.49 0 0 1-7 4.72 4.39 4.39 0 0 1-1.56.67l.14-.06a21.92 21.92 0 0 1-8.07 2h.11a21.05 21.05 0 0 1-2.52.14 20.7 20.7 0 0 1-4.02-.41h-.1a21.49 21.49 0 0 1-7.27-2.19l-.4-.2-.12-.06a20 20 0 0 1-5.87-4.06A11.63 11.63 0 0 1 12.49 52a23.61 23.61 0 0 1-5.18-8v.1a16.58 16.58 0 0 1-1.3-4.47v.17a23.92 23.92 0 0 1-.78-6.09 24.72 24.72 0 0 1 .2-3.1c.13-.9 1-1.32 1.69-1.83a.17.17 0 0 1 0-.07.22.22 0 0 1 0-.08v-.26A3.8 3.8 0 0 1 9.4 25a4 4 0 0 1 1.91-.49 3.9 3.9 0 0 1 2.23.69l.44.24a1.67 1.67 0 0 1-.17-.88 3.9 3.9 0 0 1-.11-1 4.22 4.22 0 0 1 8.3-.91 1.55 1.55 0 0 1 0 .31 1.16 1.16 0 0 1-.37.85 10.38 10.38 0 0 0-2.06 3 1.6 1.6 0 0 1-1.49 1h-.21a6.18 6.18 0 0 1-2.56-.92 2.94 2.94 0 0 0 .14.91 8.21 8.21 0 0 1 2.54 1.82.66.66 0 0 1 .28.54.78.78 0 0 1 0 .16v-.1a15.68 15.68 0 0 0-.27 3.24 15.32 15.32 0 0 0 1.21 6l.06.13a24.92 24.92 0 0 0 2.74 4 14.94 14.94 0 0 0 8 4.36H30a18.36 18.36 0 0 0 3.34.31 17.65 17.65 0 0 0 2.6-.19 1.14 1.14 0 0 1 .65-.2h.16l1-.27h.1a14.48 14.48 0 0 0 7.85-6.66 6.34 6.34 0 0 1 4.21-3.34 6.89 6.89 0 0 1 7.23 3.29z" />
</svg>
