<svg
  xmlns="http://www.w3.org/2000/svg"
  width="64"
  height="64"
  viewBox="0 0 64 64"
  fill="black"
  fill-rule="nonzero"
>
  <path d="M4 36c0-6.9 2.8-13.16 7.32-17.68 3.17-3.17 7.18-5.49 11.68-6.6V4.99c0-1.1.9-2 2-2h8c1.1 0 2 .9 2 2v6.73c3.82.94 7.3 2.77 10.21 5.24l.97-.97-2.59-2.59c-.78-.78-.78-2.05 0-2.83l5-5c.78-.78 2.05-.78 2.83 0l8 8c.78.78.78 2.05 0 2.83l-5 5c-.78.78-2.05.78-2.83 0l-2.58-2.58-.97.97A24.88 24.88 0 0 1 54 36c0 6.9-2.8 13.16-7.32 17.68A24.924 24.924 0 0 1 29 61c-6.9 0-13.16-2.8-17.68-7.32A24.924 24.924 0 0 1 4 36zm25-25c.67 0 1.34.03 2 .08V7h-4v4.08c.66-.05 1.33-.08 2-.08zM14.15 50.85C17.95 54.65 23.2 57 29 57c5.8 0 11.05-2.35 14.85-6.15C47.65 47.05 50 41.8 50 36a20.9 20.9 0 0 0-6.06-14.75c-.03-.03-.07-.06-.1-.09s-.06-.06-.09-.1a20.983 20.983 0 0 0-10.99-5.72c-.08-.01-.15-.02-.22-.04-1.15-.2-2.33-.3-3.54-.3s-2.39.1-3.54.3c-.07.02-.15.03-.22.04a20.95 20.95 0 0 0-11.08 5.81c-3.8 3.8-6.15 9.05-6.15 14.85 0 5.8 2.35 11.05 6.15 14.85zM53 17.16l2.17-2.17L50 9.82l-2.17 2.17zM22 36a7 7 0 0 1 5-6.71V19c0-1.1.9-2 2-2s2 .9 2 2v10.29a7 7 0 0 1 0 13.42V45c0 1.1-.9 2-2 2s-2-.9-2-2v-2.29A7 7 0 0 1 22 36zm4.88 2.12c.55.55 1.29.88 2.12.88.83 0 1.58-.33 2.12-.88.55-.55.88-1.29.88-2.12 0-.83-.33-1.58-.88-2.12-.55-.55-1.29-.88-2.12-.88-.83 0-1.58.33-2.12.88-.55.55-.88 1.29-.88 2.12 0 .83.33 1.58.88 2.12z" />
</svg>
