<!-- Generated by IcoMoon.io -->
<svg version="1.1" xmlns="http://www.w3.org/2000/svg" width="32" height="32" viewBox="0 0 32 32">
<title>stop</title>
<path d="M20.401 24.903h-8.803c-2.482 0-4.502-2.020-4.502-4.502v-8.803c0-2.482 2.020-4.502 4.502-4.502h8.802c2.483 0 4.502 2.020 4.502 4.502v8.803c0 2.482-2.020 4.502-4.502 4.502zM11.599 8.897c-1.49 0-2.701 1.212-2.701 2.701v8.803c0 1.49 1.212 2.701 2.701 2.701h8.802c1.49 0 2.701-1.212 2.701-2.701v-8.803c0-1.49-1.212-2.701-2.701-2.701h-8.802z"></path>
</svg>
