<svg
  xmlns="http://www.w3.org/2000/svg"
  width="64"
  height="64"
  viewBox="0 0 64 64"
  fill="black"
  fill-rule="nonzero"
>
  <path d="M12.33 58c-2.02 0-3.86-.82-5.18-2.15A7.325 7.325 0 0 1 5 50.67V13.33c0-2.02.82-3.86 2.15-5.18A7.325 7.325 0 0 1 12.33 6h39.34c2.02 0 3.86.82 5.18 2.15A7.325 7.325 0 0 1 59 13.33v37.34c0 2.02-.82 3.86-2.15 5.18A7.325 7.325 0 0 1 51.67 58zm39.34-4c.92 0 1.75-.37 2.35-.98.6-.6.98-1.43.98-2.35V34H9v16.67c0 .92.37 1.75.98 2.35.6.6 1.43.98 2.35.98zM55 13.33c0-.92-.37-1.75-.98-2.35-.6-.6-1.43-.98-2.35-.98H12.33c-.92 0-1.75.37-2.35.98-.6.6-.98 1.43-.98 2.35V30h46zM15 14c1.1 0 2 .9 2 2v8c0 1.1-.9 2-2 2s-2-.9-2-2v-8c0-1.1.9-2 2-2zm8 0c1.1 0 2 .9 2 2v8c0 1.1-.9 2-2 2s-2-.9-2-2v-8c0-1.1.9-2 2-2zm8 0c1.1 0 2 .9 2 2v8c0 1.1-.9 2-2 2s-2-.9-2-2v-8c0-1.1.9-2 2-2zm8 0c1.1 0 2 .9 2 2v8c0 1.1-.9 2-2 2s-2-.9-2-2v-8c0-1.1.9-2 2-2zm12 2c0 1.1-.9 2-2 2h-2c-1.1 0-2-.9-2-2s.9-2 2-2h2c1.1 0 2 .9 2 2zM15 38c1.1 0 2 .9 2 2v8c0 1.1-.9 2-2 2s-2-.9-2-2v-8c0-1.1.9-2 2-2zm8 0c1.1 0 2 .9 2 2v8c0 1.1-.9 2-2 2s-2-.9-2-2v-8c0-1.1.9-2 2-2zm8 0c1.1 0 2 .9 2 2v8c0 1.1-.9 2-2 2s-2-.9-2-2v-8c0-1.1.9-2 2-2zm8 0c1.1 0 2 .9 2 2v8c0 1.1-.9 2-2 2s-2-.9-2-2v-8c0-1.1.9-2 2-2zm12 2c0 1.1-.9 2-2 2h-2c-1.1 0-2-.9-2-2s.9-2 2-2h2c1.1 0 2 .9 2 2z" />
</svg>
