<!-- Generated by IcoMoon.io -->
<svg version="1.1" xmlns="http://www.w3.org/2000/svg" width="32" height="32" viewBox="0 0 32 32">
<title>suitcase</title>
<path d="M29.327 7.108h-2.671c-0.477 0-0.864-0.387-0.864-0.864v0c0-0.485-0.373-0.902-0.857-0.925-0.517-0.024-0.944 0.388-0.944 0.899v0.025c0 0.477-0.387 0.864-0.864 0.864h-2.104c-0.369 0-0.694-0.235-0.816-0.583-0.609-1.737-2.265-2.985-4.207-2.985s-3.598 1.249-4.207 2.985c-0.122 0.348-0.448 0.583-0.816 0.583h-2.104c-0.477 0-0.864-0.387-0.864-0.864v0c0-0.485-0.373-0.902-0.857-0.925-0.517-0.024-0.944 0.388-0.944 0.899v0.025c0 0.477-0.387 0.864-0.864 0.864h-2.671c-0.497 0-0.9 0.403-0.9 0.9v15.983c0 0.497 0.403 0.9 0.9 0.9h4.3c0.044 0.007 0.089 0.011 0.135 0.011s0.091-0.005 0.135-0.011h17.514c0.044 0.007 0.089 0.011 0.135 0.011s0.091-0.005 0.135-0.011h4.3c0.497 0 0.9-0.403 0.9-0.9v-15.983c0-0.497-0.403-0.9-0.9-0.9zM16 4.925c1.078 0 2.007 0.645 2.423 1.57 0.042 0.093-0.024 0.197-0.125 0.197h-4.596c-0.101 0-0.167-0.105-0.126-0.197 0.416-0.924 1.346-1.57 2.423-1.57zM23.992 9.809v12.382c0 0.497-0.403 0.9-0.9 0.9h-14.183c-0.497 0-0.9-0.403-0.9-0.9v-12.382c0-0.497 0.403-0.9 0.9-0.9h14.183c0.497 0 0.9 0.403 0.9 0.9zM4.474 8.909h0.833c0.497 0 0.9 0.403 0.9 0.9v12.382c0 0.497-0.403 0.9-0.9 0.9h-0.833c-0.497 0-0.9-0.403-0.9-0.9v-12.382c0-0.497 0.403-0.9 0.9-0.9zM27.526 23.091h-0.833c-0.497 0-0.9-0.403-0.9-0.9v-12.382c0-0.497 0.403-0.9 0.9-0.9h0.833c0.497 0 0.9 0.403 0.9 0.9v12.382c0 0.497-0.403 0.9-0.9 0.9z"></path>
</svg>
