<!-- Generated by IcoMoon.io -->
<svg version="1.1" xmlns="http://www.w3.org/2000/svg" width="32" height="32" viewBox="0 0 32 32">
<title>tag</title>
<path d="M24.639 5.005l-18.849 0.001c-0.433 0-0.785 0.351-0.785 0.785s0.351 0.785 0.785 0.785h18.849c0.434 0 0.785 0.352 0.785 0.785v17.278c0 0.434-0.352 0.785-0.785 0.785h-17.278c-0.434 0-0.785-0.352-0.785-0.785v-14.137c0-0.434 0.352-0.785 0.785-0.785h7.068c0.434 0 0.785-0.352 0.785-0.785s-0.352-0.785-0.785-0.785c-0.001 0-0.001 0-0.002 0l-7.066-0c-1.301 0-2.356 1.055-2.356 2.356v14.136c0 1.301 1.055 2.356 2.356 2.356h17.278c1.301 0 2.356-1.055 2.356-2.356v-17.278c-0-1.301-1.055-2.356-2.356-2.356z"></path>
<path d="M20.578 13.776c0 0.473-0.384 0.857-0.857 0.857s-0.857-0.384-0.857-0.857c0-0.473 0.384-0.857 0.857-0.857s0.857 0.384 0.857 0.857z"></path>
<path d="M9.308 18.66c0 0.576 0.224 1.117 0.632 1.525l3.446 3.446c0.42 0.42 0.973 0.631 1.525 0.631s1.104-0.21 1.525-0.631l6.001-6.001c0.407-0.407 0.632-0.949 0.632-1.525v-3.446c0-1.189-0.967-2.156-2.156-2.156l-3.446-0c-0.576 0-1.117 0.224-1.525 0.631l-6.001 6.001c-0.407 0.407-0.632 0.949-0.632 1.525zM11.050 18.246l6.001-6.001c0.111-0.111 0.258-0.172 0.414-0.172l3.446 0c0.323 0 0.585 0.263 0.585 0.585v3.446c0 0.156-0.061 0.303-0.172 0.414l-6.001 6.001c-0.228 0.228-0.6 0.228-0.828 0l-3.446-3.446c-0.111-0.111-0.171-0.258-0.171-0.414s0.061-0.303 0.171-0.414z"></path>
</svg>
