<svg
  xmlns="http://www.w3.org/2000/svg"
  width="64"
  height="64"
  viewBox="0 0 64 64"
  fill="black"
  fill-rule="nonzero"
>
  <path d="M29.66 54.17L53.8 30.01v-19.8H34L9.84 34.42c-.59.59-.88 1.35-.88 2.12s.29 1.53.88 2.12l15.58 15.51c.59.59 1.35.88 2.12.88s1.53-.29 2.12-.88zm27.55-21.93L32.48 56.99a6.973 6.973 0 0 1-4.95 2.05c-1.79 0-3.58-.68-4.95-2.05L7 41.48a6.973 6.973 0 0 1-2.05-4.95c0-1.79.68-3.58 2.05-4.95l24.75-24.8c.38-.38.88-.59 1.42-.59H55.8c1.1 0 2 .9 2 2v22.63c0 .53-.21 1.04-.59 1.41zM40.48 19.52a3.998 3.998 0 0 1 6.83-2.83c.78.78 1.17 1.81 1.17 2.83a3.998 3.998 0 0 1-6.83 2.83 3.998 3.998 0 0 1-1.17-2.83z" />
</svg>
