<svg
  xmlns="http://www.w3.org/2000/svg"
  width="64"
  height="64"
  viewBox="0 0 64 64"
  fill="black"
  fill-rule="nonzero"
>
  <path d="M37 38.27V11c0-1.38-.56-2.63-1.46-3.54A4.962 4.962 0 0 0 32 6c-1.38 0-2.63.56-3.54 1.46C27.55 8.37 27 9.61 27 11v27.27c0 .64-.31 1.25-.83 1.62a9.98 9.98 0 0 0-3.66 4.99 9.92 9.92 0 0 0-.02 6.19c.67 2.07 1.96 3.8 3.63 5.02a9.974 9.974 0 0 0 5.89 1.92c2.17 0 4.22-.7 5.89-1.92s2.96-2.95 3.63-5.02a9.92 9.92 0 0 0-.02-6.19 9.996 9.996 0 0 0-3.66-4.99c-.52-.38-.83-.98-.83-1.62zm4-.98c2.03 1.7 3.5 3.92 4.3 6.34a14.015 14.015 0 0 1-5.05 15.7c-2.34 1.7-5.21 2.69-8.24 2.69-3.04 0-5.91-.98-8.24-2.69a13.93 13.93 0 0 1-5.08-7.03c-.93-2.89-.88-5.92.03-8.67.8-2.43 2.26-4.64 4.3-6.34V11c0-2.48 1.01-4.74 2.64-6.36A8.972 8.972 0 0 1 32.02 2c2.48 0 4.74 1.01 6.36 2.64A8.972 8.972 0 0 1 41.02 11zM32 48zm-2.83 2.83a4.007 4.007 0 0 1 0-5.66 4.007 4.007 0 0 1 5.66 0 4.007 4.007 0 0 1 0 5.66 4.007 4.007 0 0 1-5.66 0zM32 48zm0 0z" />
</svg>
