<!-- Generated by IcoMoon.io -->
<svg version="1.1" xmlns="http://www.w3.org/2000/svg" width="32" height="32" viewBox="0 0 32 32">
<title>text</title>
<path d="M22.225 14.21h-12.449c-0.497 0-0.9 0.403-0.9 0.9s0.403 0.9 0.9 0.9h12.449c0.497 0 0.9-0.403 0.9-0.9s-0.403-0.9-0.9-0.9z"></path>
<path d="M22.225 18.656h-12.449c-0.497 0-0.9 0.403-0.9 0.9s0.403 0.9 0.9 0.9h12.449c0.497 0 0.9-0.403 0.9-0.9s-0.403-0.9-0.9-0.9z"></path>
<path d="M22.225 23.103h-12.449c-0.497 0-0.9 0.403-0.9 0.9s0.403 0.9 0.9 0.9h12.449c0.497 0 0.9-0.403 0.9-0.9s-0.403-0.9-0.9-0.9z"></path>
<path d="M26.473 10.418l-6.646-8.308c-0.171-0.214-0.43-0.338-0.703-0.338h-12.894c-0.497 0-0.9 0.403-0.9 0.9v26.654c0 0.497 0.403 0.9 0.9 0.9h19.54c0.497 0 0.9-0.403 0.9-0.9v-18.347c-0-0.204-0.070-0.403-0.197-0.563zM24.87 27.526c0 0.497-0.403 0.9-0.9 0.9h-15.939c-0.497 0-0.9-0.403-0.9-0.9v-23.052c0-0.497 0.403-0.9 0.9-0.9h9.737c0.497 0 0.9 0.403 0.9 0.9v6.18c0 0.497 0.403 0.9 0.9 0.9h4.401c0.497 0 0.9 0.403 0.9 0.9v15.072z"></path>
</svg>
