<!-- Generated by IcoMoon.io -->
<svg version="1.1" xmlns="http://www.w3.org/2000/svg" width="32" height="32" viewBox="0 0 32 32">
<title>themeperuser</title>
<path d="M26.667 7.619v16.762c0 1.262-1.023 2.286-2.286 2.286h-16.762c-1.262 0-2.286-1.023-2.286-2.286v-13.714c0-1.262 1.023-2.286 2.286-2.286l6.855 0c0.001 0 0.001-0 0.002-0 0.421 0 0.762 0.341 0.762 0.762s-0.341 0.762-0.762 0.762h-6.857c-0.421 0-0.762 0.341-0.762 0.762v13.714c0 0.421 0.341 0.762 0.762 0.762h16.762c0.421 0 0.762-0.341 0.762-0.762v-16.762c0-0.421-0.341-0.762-0.762-0.762h-18.286c-0.42 0-0.761-0.341-0.761-0.761s0.341-0.761 0.761-0.761l18.286-0.001c1.262 0 2.286 1.023 2.286 2.286zM18.646 17.035c0.489-0.593 0.783-1.352 0.783-2.178 0-1.89-1.538-3.429-3.429-3.429s-3.429 1.538-3.429 3.429c0 0.775 0.259 1.491 0.694 2.066-1.503 0.461-2.599 1.862-2.599 3.515v1.925c0 0.693 0.564 1.257 1.257 1.257h8.153c0.693 0 1.257-0.564 1.257-1.257v-1.43c0-1.777-1.118-3.298-2.687-3.897zM16 12.952c1.050 0 1.905 0.854 1.905 1.905s-0.854 1.905-1.905 1.905-1.905-0.854-1.905-1.905c0-1.050 0.854-1.905 1.905-1.905zM19.81 22.095h-7.619v-1.657c0-1.187 0.965-2.152 2.152-2.152h2.82c1.459 0 2.647 1.187 2.647 2.647v1.163z"></path>
</svg>
