<svg
  xmlns="http://www.w3.org/2000/svg"
  width="64"
  height="64"
  viewBox="0 0 64 64"
  fill="black"
  fill-rule="nonzero"
>
  <path d="M42.48 48.76H21.53V44.2a5.92 5.92 0 0 1 5.91-5.91h7.76a7.29 7.29 0 0 1 7.28 7.27v3.2zM32 23.62a5.24 5.24 0 1 1-5.24 5.24A5.25 5.25 0 0 1 32 23.62zm7.28 11.22a9.43 9.43 0 1 0-14.8-.3 10.12 10.12 0 0 0-7.15 9.66v5.3a3.46 3.46 0 0 0 3.46 3.5h22.42a3.46 3.46 0 0 0 3.46-3.45v-3.99a11.48 11.48 0 0 0-7.39-10.71zM61.34 9v46.1a6.29 6.29 0 0 1-6.29 6.28H9a6.28 6.28 0 0 1-6.28-6.28V17.33A6.28 6.28 0 0 1 9 11.05h18.81a2.1 2.1 0 1 1 0 4.19H9a2.09 2.09 0 0 0-2.09 2.09v37.72A2.1 2.1 0 0 0 9 57.14h46.1a2.1 2.1 0 0 0 2.1-2.09V9a2.1 2.1 0 0 0-2.1-2.1H4.76a2.09 2.09 0 0 1 0-4.18h50.29A6.29 6.29 0 0 1 61.34 9z" />
</svg>
