<svg
  xmlns="http://www.w3.org/2000/svg"
  width="64"
  height="64"
  viewBox="0 0 64 64"
  fill="black"
  fill-rule="nonzero"
>
  <path d="M10 10v16h16V10zM7.17 28.83A3.99 3.99 0 0 1 6 26V10c0-1.1.45-2.11 1.17-2.83A3.99 3.99 0 0 1 10 6h16c1.1 0 2.11.45 2.83 1.17A3.99 3.99 0 0 1 30 10v16c0 1.1-.45 2.11-1.17 2.83A3.99 3.99 0 0 1 26 30H10c-1.1 0-2.11-.45-2.83-1.17zM26 38H10v16h16V38zM7.17 56.83A3.99 3.99 0 0 1 6 54V38c0-1.1.45-2.11 1.17-2.83A3.99 3.99 0 0 1 10 34h16c1.1 0 2.11.45 2.83 1.17A3.99 3.99 0 0 1 30 38v16c0 1.1-.45 2.11-1.17 2.83A3.99 3.99 0 0 1 26 58H10c-1.1 0-2.11-.45-2.83-1.17zM38 10v16h16V10zm-2.83 18.83A3.99 3.99 0 0 1 34 26V10c0-1.1.45-2.11 1.17-2.83A3.99 3.99 0 0 1 38 6h16c1.1 0 2.11.45 2.83 1.17A3.99 3.99 0 0 1 58 10v16c0 1.1-.45 2.11-1.17 2.83A3.99 3.99 0 0 1 54 30H38c-1.1 0-2.11-.45-2.83-1.17zM54 38H38v16h16V38zM35.17 56.83A3.99 3.99 0 0 1 34 54V38c0-1.1.45-2.11 1.17-2.83A3.99 3.99 0 0 1 38 34h16c1.1 0 2.11.45 2.83 1.17A3.99 3.99 0 0 1 58 38v16c0 1.1-.45 2.11-1.17 2.83A3.99 3.99 0 0 1 54 58H38c-1.1 0-2.11-.45-2.83-1.17z" />
</svg>
