<!-- Generated by IcoMoon.io -->
<svg version="1.1" xmlns="http://www.w3.org/2000/svg" width="32" height="32" viewBox="0 0 32 32">
<title>ticket</title>
<path d="M23.867 4.91l-2.404-1.289c-0.082-0.044-0.18-0.044-0.262 0l-2.404 1.289c-0.082 0.044-0.18 0.044-0.262 0l-2.404-1.289c-0.082-0.044-0.18-0.044-0.262 0l-2.404 1.289c-0.082 0.044-0.18 0.044-0.262 0l-2.404-1.289c-0.082-0.044-0.18-0.044-0.262 0l-2.404 1.289c-0.082 0.044-0.18 0.044-0.262 0l-2.127-1.141c-0.185-0.099-0.408 0.035-0.408 0.244v23.972c0 0.209 0.223 0.343 0.408 0.244l2.127-1.141c0.082-0.044 0.18-0.044 0.262 0l2.404 1.289c0.082 0.044 0.18 0.044 0.262 0l2.404-1.289c0.082-0.044 0.18-0.044 0.262 0l2.404 1.289c0.082 0.044 0.18 0.044 0.262 0l2.404-1.289c0.082-0.044 0.18-0.044 0.262 0l2.404 1.289c0.082 0.044 0.18 0.044 0.262 0l2.404-1.289c0.082-0.044 0.18-0.044 0.262 0l2.127 1.141c0.185 0.099 0.408-0.035 0.408-0.244v-23.972c0-0.209-0.223-0.343-0.408-0.244l-2.127 1.141c-0.082 0.044-0.18 0.044-0.262 0zM24.862 16.715v8.262c0 0.209-0.223 0.343-0.408 0.244l-0.326-0.175c-0.082-0.044-0.18-0.044-0.262 0l-2.404 1.289c-0.082 0.044-0.18 0.044-0.262 0l-2.404-1.289c-0.082-0.044-0.18-0.044-0.262 0l-2.404 1.289c-0.082 0.044-0.18 0.044-0.262 0l-2.404-1.289c-0.082-0.044-0.18-0.044-0.262 0l-2.404 1.289c-0.082 0.044-0.18 0.044-0.262 0l-2.404-1.289c-0.082-0.044-0.18-0.044-0.262 0l-0.326 0.175c-0.185 0.099-0.408-0.035-0.408-0.244v-17.954c0-0.209 0.223-0.343 0.408-0.244l0.326 0.175c0.082 0.044 0.18 0.044 0.262 0l2.404-1.289c0.082-0.044 0.18-0.044 0.262 0l2.404 1.289c0.082 0.044 0.18 0.044 0.262 0l2.404-1.289c0.082-0.044 0.18-0.044 0.262 0l2.404 1.289c0.082 0.044 0.18 0.044 0.262 0l2.404-1.289c0.082-0.044 0.18-0.044 0.262 0l2.404 1.289c0.082 0.044 0.18 0.044 0.262 0l0.326-0.175c0.185-0.099 0.408 0.035 0.408 0.244v9.692z"></path>
<path d="M21.004 9.764h-10.008c-0.497 0-0.9 0.403-0.9 0.9s0.403 0.9 0.9 0.9h10.008c0.497 0 0.9-0.403 0.9-0.9s-0.403-0.9-0.9-0.9z"></path>
<path d="M21.004 20.435h-10.008c-0.497 0-0.9 0.403-0.9 0.9s0.403 0.9 0.9 0.9h10.008c0.497 0 0.9-0.403 0.9-0.9s-0.403-0.9-0.9-0.9z"></path>
<path d="M21.004 16.768h-10.008c-0.497 0-0.9 0.403-0.9 0.9s0.403 0.9 0.9 0.9h10.008c0.497 0 0.9-0.403 0.9-0.9s-0.403-0.9-0.9-0.9z"></path>
<path d="M21.004 13.432h-10.008c-0.497 0-0.9 0.403-0.9 0.9s0.403 0.9 0.9 0.9h10.008c0.497 0 0.9-0.403 0.9-0.9s-0.403-0.9-0.9-0.9z"></path>
</svg>
