<svg
  xmlns="http://www.w3.org/2000/svg"
  width="64"
  height="64"
  viewBox="0 0 64 64"
  fill="black"
  fill-rule="nonzero"
>
  <path d="M47.37 37.19v10.18h-4.09V37.19zm-4.07-4.07a4.09 4.09 0 0 0-4.08 4.09v10.13a4.09 4.09 0 0 0 4.08 4.09h4a4.09 4.09 0 0 0 4.09-4.09V37.21a4.09 4.09 0 0 0-4.09-4.09zM33.14 23v24.4h-4.08V23zm-4.06-4.1A4.09 4.09 0 0 0 25 23v24.34a4.09 4.09 0 0 0 4.09 4.09h4a4.09 4.09 0 0 0 4.09-4.09V23a4.09 4.09 0 0 0-4.09-4.09zM18.94 31.11v16.26h-4.08V31.11zm-4.06-4.06a4.09 4.09 0 0 0-4.09 4.09v16.2a4.09 4.09 0 0 0 4.09 4.09h4A4.09 4.09 0 0 0 23 47.34v-16.2a4.09 4.09 0 0 0-4.09-4.09zM55.05 2.67H4.76a2.1 2.1 0 0 0 0 4.19h50.29A2.1 2.1 0 0 1 57.14 9v46.1a2.1 2.1 0 0 1-2.09 2.09H9a2.1 2.1 0 0 1-2.09-2.09V17.33A2.1 2.1 0 0 1 9 15.24h18.81a2.1 2.1 0 0 0 0-4.19H9a6.28 6.28 0 0 0-6.28 6.28v37.72A6.28 6.28 0 0 0 9 61.33h46.1a6.28 6.28 0 0 0 6.28-6.28V9a6.28 6.28 0 0 0-6.28-6.28z" />
</svg>
