<svg
  xmlns="http://www.w3.org/2000/svg"
  width="64"
  height="64"
  viewBox="0 0 64 64"
  fill="black"
  fill-rule="nonzero"
>
  <path d="M34 40a1.994 1.994 0 0 1-.58 1.42l-10 10c-.78.78-2.05.78-2.83 0-.78-.78-.78-2.05 0-2.83L27.18 42H8.01c-1.1 0-2-.9-2-2s.9-2 2-2h19.17l-6.59-6.59c-.78-.78-.78-2.05 0-2.83.78-.78 2.05-.78 2.83 0l10 10c.19.19.34.41.43.65.1.24.15.49.15.77zm-4-16a1.994 1.994 0 0 1 .58-1.42l10-10c.78-.78 2.05-.78 2.83 0 .78.78.78 2.05 0 2.83L36.82 22h19.17c1.1 0 2 .9 2 2s-.9 2-2 2H36.82l6.59 6.59c.78.78.78 2.05 0 2.83-.78.78-2.05.78-2.83 0l-10-10c-.19-.19-.34-.41-.43-.65-.1-.24-.15-.49-.15-.77zM8 46c1.1 0 2 .9 2 2v3c0 .83.33 1.58.88 2.12.55.55 1.29.88 2.12.88h38c.83 0 1.58-.33 2.12-.88.55-.55.88-1.29.88-2.12V32c0-1.1.9-2 2-2s2 .9 2 2v19a7 7 0 0 1-7 7H13a7 7 0 0 1-7-7v-3c0-1.1.9-2 2-2zm48-28c-1.1 0-2-.9-2-2v-3c0-.83-.33-1.58-.88-2.12-.55-.55-1.29-.88-2.12-.88H13c-.83 0-1.58.33-2.12.88-.55.55-.88 1.29-.88 2.12v19c0 1.1-.9 2-2 2s-2-.9-2-2V13a7 7 0 0 1 7-7h38a7 7 0 0 1 7 7v3c0 1.1-.9 2-2 2z" />
</svg>
