<!-- Generated by IcoMoon.io -->
<svg version="1.1" xmlns="http://www.w3.org/2000/svg" width="32" height="32" viewBox="0 0 32 32">
<title>traffic</title>
<path d="M28.55 19.546h-3.145c-0.7 0-1.132-0.764-0.772-1.364l0.266-0.443c0.37-0.617 0.958-1.054 1.656-1.23l2.778-0.7c0.125-0.031 0.242-0.089 0.342-0.17 0.613-0.49 0.836-1.289 0.565-2.028-0.263-0.717-0.963-1.179-1.727-1.179h-3.108c-0.7 0-1.132-0.764-0.772-1.364l0.266-0.443c0.37-0.617 0.958-1.054 1.656-1.229l2.778-0.7c0.125-0.031 0.242-0.089 0.342-0.17 0.606-0.485 0.831-1.271 0.574-2.002s-0.924-1.205-1.699-1.205h-4.646c-0.425 0-0.784-0.301-0.874-0.716-0.353-1.618-1.794-2.83-3.518-2.83h-7.024c-1.724 0-3.164 1.212-3.518 2.83-0.091 0.415-0.45 0.716-0.874 0.716h-4.613c-0.763 0-1.46 0.464-1.723 1.18-0.272 0.742-0.045 1.543 0.572 2.033 0.099 0.078 0.214 0.134 0.336 0.165l2.778 0.7c0.698 0.176 1.286 0.613 1.656 1.229l0.266 0.443c0.36 0.6-0.072 1.364-0.772 1.364h-3.112c-0.763 0-1.46 0.464-1.723 1.18-0.272 0.742-0.045 1.543 0.572 2.033 0.099 0.078 0.213 0.134 0.335 0.164l2.778 0.7c0.698 0.176 1.286 0.613 1.656 1.23l0.266 0.443c0.36 0.6-0.072 1.364-0.772 1.364h-3.112c-0.763 0-1.46 0.464-1.723 1.18-0.272 0.742-0.045 1.543 0.572 2.033 0.099 0.078 0.213 0.134 0.336 0.165l2.778 0.7c0.698 0.176 1.286 0.613 1.656 1.23l1.657 2.761c0.084 0.14 0.128 0.3 0.128 0.463v1.25c0 0.497 0.403 0.9 0.9 0.9h12.427c0.497 0 0.9-0.403 0.9-0.9v-1.25c0-0.163 0.044-0.323 0.128-0.463l1.657-2.761c0.37-0.617 0.958-1.054 1.656-1.23l2.778-0.7c0.125-0.032 0.242-0.090 0.342-0.17 0.606-0.485 0.831-1.27 0.574-2.002s-0.924-1.205-1.699-1.205zM26.114 14.763c-1.163 0.293-2.143 1.021-2.76 2.049l-0.23 0.383v-2.963h5.093l-2.104 0.53zM23.249 7.119h3.973c0.146 0 0.172 0.208 0.030 0.244l-1.137 0.287c-1.163 0.293-2.143 1.021-2.76 2.049v0c-0.065 0.108-0.23 0.062-0.23-0.064v-2.392c0-0.068 0.055-0.124 0.124-0.124zM5.886 7.649l-1.138-0.287c-0.141-0.036-0.115-0.244 0.030-0.244h3.973c0.068 0 0.124 0.055 0.124 0.124v2.392c0 0.125-0.165 0.171-0.23 0.064v-0c-0.613-1.021-1.605-1.758-2.76-2.049zM5.886 14.763l-1.138-0.287c-0.141-0.036-0.115-0.244 0.030-0.244h3.973c0.068 0 0.124 0.055 0.124 0.124v2.392c0 0.125-0.165 0.171-0.23 0.064v-0c-0.613-1.021-1.605-1.758-2.76-2.049zM8.875 23.863c0 0.125-0.165 0.171-0.23 0.064v-0c-0.617-1.028-1.597-1.756-2.76-2.049l-1.138-0.287c-0.141-0.036-0.115-0.244 0.030-0.244h3.973c0.068 0 0.124 0.055 0.124 0.124v2.392zM20.412 28.427h-8.825c-0.497 0-0.9-0.403-0.9-0.9v-22.152c0-0.995 0.806-1.801 1.801-1.801h7.024c0.995 0 1.801 0.806 1.801 1.801v22.152c0 0.497-0.403 0.9-0.9 0.9zM26.115 21.877c-1.163 0.293-2.143 1.021-2.76 2.049v0c-0.065 0.108-0.23 0.062-0.23-0.064v-2.392c0-0.068 0.055-0.124 0.124-0.124h3.973c0.146 0 0.172 0.208 0.030 0.244l-1.138 0.287z"></path>
<path d="M16 4.429c-1.967 0-3.568 1.601-3.568 3.568s1.601 3.568 3.568 3.568c1.967 0 3.568-1.601 3.568-3.568s-1.601-3.568-3.568-3.568zM16 9.764c-0.974 0-1.767-0.793-1.767-1.767s0.793-1.767 1.767-1.767 1.767 0.793 1.767 1.767-0.793 1.767-1.767 1.767z"></path>
<path d="M16 12.432c-1.967 0-3.568 1.601-3.568 3.568s1.601 3.568 3.568 3.568c1.967 0 3.568-1.601 3.568-3.568s-1.601-3.568-3.568-3.568zM16 17.767c-0.974 0-1.767-0.793-1.767-1.767s0.793-1.767 1.767-1.767 1.767 0.793 1.767 1.767-0.793 1.767-1.767 1.767z"></path>
<path d="M16 20.435c-1.967 0-3.568 1.601-3.568 3.568s1.601 3.568 3.568 3.568c1.967 0 3.568-1.601 3.568-3.568s-1.601-3.568-3.568-3.568zM16 25.77c-0.974 0-1.767-0.793-1.767-1.767s0.793-1.767 1.767-1.767 1.767 0.793 1.767 1.767-0.793 1.767-1.767 1.767z"></path>
</svg>
