<svg
  xmlns="http://www.w3.org/2000/svg"
  width="64"
  height="64"
  viewBox="0 0 64 64"
  fill="black"
  fill-rule="nonzero"
>
  <path d="M34 40a1.994 1.994 0 0 1-.58 1.42l-10 10c-.78.78-2.05.78-2.83 0-.78-.78-.78-2.05 0-2.83L27.18 42H8.01c-1.1 0-2-.9-2-2s.9-2 2-2h19.17l-6.59-6.59c-.78-.78-.78-2.05 0-2.83.78-.78 2.05-.78 2.83 0l10 10c.19.19.34.41.43.65.1.24.15.49.15.77zm-4-16a1.994 1.994 0 0 1 .58-1.42l10-10c.78-.78 2.05-.78 2.83 0 .78.78.78 2.05 0 2.83L36.82 22h19.17c1.1 0 2 .9 2 2s-.9 2-2 2H36.82l6.59 6.59c.78.78.78 2.05 0 2.83-.78.78-2.05.78-2.83 0l-10-10c-.19-.19-.34-.41-.43-.65-.1-.24-.15-.49-.15-.77z" />
</svg>
