<svg
  xmlns="http://www.w3.org/2000/svg"
  width="64"
  height="64"
  viewBox="0 0 64 64"
  fill="black"
  fill-rule="nonzero"
>
  <path d="M9.34 41.34A7.973 7.973 0 0 1 15 39c2.21 0 4.21.9 5.66 2.34A7.98 7.98 0 0 1 22.75 45h15.5c.36-1.41 1.1-2.66 2.09-3.66.49-.49 1.05-.92 1.66-1.27V14H6v31h1.25c.36-1.41 1.1-2.66 2.09-3.66zm42.32 0A7.98 7.98 0 0 1 53.75 45H55c.83 0 1.58-.33 2.12-.88.55-.55.88-1.29.88-2.12V31l-6.67-5H46v13c2.21 0 4.21.9 5.66 2.34zM51.33 22c.43 0 .86.07 1.26.21.41.14.79.34 1.13.59l6.67 5c.5.38.9.86 1.18 1.41.27.55.42 1.16.42 1.79v11a7 7 0 0 1-7 7h-1.25a8.031 8.031 0 0 1-2.09 3.66A7.973 7.973 0 0 1 45.99 55c-2.21 0-4.21-.9-5.66-2.34A7.98 7.98 0 0 1 38.24 49h-15.5a8.031 8.031 0 0 1-2.09 3.66A7.973 7.973 0 0 1 14.99 55c-2.21 0-4.21-.9-5.66-2.34A7.98 7.98 0 0 1 7.24 49H3.99c-1.1 0-2-.9-2-2V12c0-1.1.9-2 2-2h40c1.1 0 2 .9 2 2v10zM12.17 49.83C12.9 50.56 13.89 51 15 51s2.1-.45 2.83-1.17C18.56 49.1 19 48.11 19 47s-.45-2.1-1.17-2.83A3.966 3.966 0 0 0 15 43c-1.11 0-2.1.45-2.83 1.17C11.44 44.9 11 45.89 11 47s.45 2.1 1.17 2.83zm31 0C43.9 50.56 44.89 51 46 51s2.1-.45 2.83-1.17C49.56 49.1 50 48.11 50 47s-.45-2.1-1.17-2.83A3.966 3.966 0 0 0 46 43c-1.11 0-2.1.45-2.83 1.17C42.44 44.9 42 45.89 42 47s.45 2.1 1.17 2.83z" />
</svg>
