<svg
  xmlns="http://www.w3.org/2000/svg"
  width="64"
  height="64"
  viewBox="0 0 64 64"
  fill="black"
  fill-rule="nonzero"
>
  <path d="M57 24v-8.6L47.65 12h-6.49a10.05 10.05 0 0 1-3.04 3.89 9.986 9.986 0 0 1-6.11 2.09c-2.27 0-4.41-.77-6.11-2.09A10.05 10.05 0 0 1 22.86 12h-6.49l-9.35 3.4V24h9c1.1 0 2 .9 2 2v23c0 .83.33 1.58.88 2.12.55.55 1.29.88 2.12.88h22c.83 0 1.58-.33 2.12-.88.55-.55.88-1.29.88-2.12V26c0-1.1.9-2 2-2zM39.74 8H48c.23 0 .46.04.68.12l11 4c.79.29 1.32 1.04 1.32 1.88v12c0 1.1-.9 2-2 2h-9v21a7 7 0 0 1-7 7H21a7 7 0 0 1-7-7V28H5c-1.1 0-2-.9-2-2V14c0-.84.53-1.59 1.32-1.88l11-4c.22-.08.45-.12.68-.12h8.26c.91 0 1.7.61 1.93 1.49a5.982 5.982 0 0 0 2.14 3.23c1.02.79 2.3 1.25 3.67 1.25 1.36 0 2.64-.46 3.67-1.25a6.037 6.037 0 0 0 2.14-3.23C38.04 8.61 38.84 8 39.75 8z" />
</svg>
