<svg
  xmlns="http://www.w3.org/2000/svg"
  width="64"
  height="64"
  viewBox="0 0 64 64"
  fill="black"
  fill-rule="nonzero"
>
  <path d="M61.33 13.63a23.9 23.9 0 0 1-6.91 1.9 12.07 12.07 0 0 0 5.29-6.65 24.42 24.42 0 0 1-7.65 2.92A12 12 0 0 0 31.24 20a12.44 12.44 0 0 0 .31 2.74A34.19 34.19 0 0 1 6.75 10.2a12 12 0 0 0 3.73 16.06A11.94 11.94 0 0 1 5 24.75v.15a12 12 0 0 0 9.65 11.8 12.25 12.25 0 0 1-3.17.42 11.42 11.42 0 0 1-2.27-.22 12.05 12.05 0 0 0 11.24 8.36A24.17 24.17 0 0 1 5.54 50.4a27.15 27.15 0 0 1-2.87-.16 34 34 0 0 0 18.45 5.42c22.14 0 34.24-18.34 34.24-34.25v-1.56a24 24 0 0 0 6-6.22z" />
</svg>
