<!-- Generated by IcoMoon.io -->
<svg version="1.1" xmlns="http://www.w3.org/2000/svg" width="32" height="32" viewBox="0 0 32 32">
<title>twitter</title>
<path d="M29.506 7.625c-0.994 0.441-2.059 0.741-3.181 0.872 1.144-0.684 2.022-1.772 2.434-3.063-1.072 0.634-2.259 1.097-3.522 1.347-1.012-1.078-2.45-1.75-4.044-1.75-3.059 0-5.541 2.481-5.541 5.541 0 0.434 0.050 0.856 0.144 1.262-4.603-0.231-8.688-2.438-11.419-5.791-0.478 0.816-0.75 1.769-0.75 2.784 0 1.922 0.978 3.619 2.466 4.613-0.909-0.031-1.763-0.281-2.509-0.697v0.069c0 2.684 1.909 4.925 4.444 5.434-0.466 0.125-0.953 0.194-1.459 0.194-0.356 0-0.703-0.034-1.044-0.103 0.706 2.203 2.75 3.803 5.175 3.847-1.897 1.484-4.284 2.369-6.881 2.369-0.447 0-0.888-0.028-1.322-0.075 2.453 1.575 5.366 2.494 8.494 2.494 10.194 0 15.766-8.444 15.766-15.766l-0.019-0.719c1.084-0.775 2.028-1.75 2.769-2.862z"></path>
</svg>
