<!-- Generated by IcoMoon.io -->
<svg version="1.1" xmlns="http://www.w3.org/2000/svg" width="32" height="32" viewBox="0 0 32 32">
<title>umbrella</title>
<path d="M16.897 3.958v-1.271c0-0.485-0.373-0.902-0.857-0.925-0.517-0.024-0.944 0.388-0.944 0.899v1.296c0 0.284-0.215 0.523-0.497 0.551-6.889 0.672-12.339 6.256-12.798 13.206-0.028 0.417 0.394 0.717 0.776 0.547 1.252-0.558 2.593-0.836 3.935-0.836 1.551 0 3.101 0.372 4.513 1.117 0.147 0.078 0.321 0.084 0.474 0.018 0.584-0.251 2.075-0.868 2.955-1.011 0.337-0.055 0.643 0.206 0.643 0.547v8.984c0 0.684-0.556 1.312-1.239 1.354-0.756 0.047-1.388-0.547-1.405-1.289-0.012-0.497-0.388-0.923-0.885-0.932-0.504-0.009-0.916 0.398-0.916 0.9 0 1.704 1.372 3.094 3.069 3.123 1.748 0.030 3.178-1.431 3.178-3.178v-8.963c0-0.342 0.306-0.602 0.643-0.547 0.88 0.143 2.371 0.76 2.955 1.011 0.153 0.066 0.327 0.059 0.474-0.018 1.412-0.745 2.962-1.117 4.513-1.117 1.126 0 2.951 0.589 3.978 0.956 0.374 0.134 0.764-0.157 0.741-0.553-0.408-7.002-5.879-12.644-12.806-13.319-0.283-0.028-0.497-0.267-0.497-0.551zM25.482 15.624c-1.529 0-3.046 0.308-4.45 0.899-0.187 0.078-0.397 0.078-0.584 0-1.405-0.59-2.921-0.899-4.45-0.899s-3.046 0.308-4.45 0.899c-0.187 0.078-0.397 0.078-0.584 0-1.405-0.59-2.921-0.899-4.45-0.899-0.744 0-1.485 0.073-2.212 0.216-0.201 0.039-0.377-0.142-0.325-0.34 0.533-2.039 1.583-3.913 3.082-5.465 2.31-2.39 5.496-3.763 8.819-3.794 3.364-0.032 6.532 1.264 8.907 3.639 1.581 1.581 2.683 3.513 3.235 5.62 0.052 0.198-0.124 0.38-0.325 0.34-0.727-0.143-1.468-0.216-2.212-0.216z"></path>
</svg>
