<svg
  xmlns="http://www.w3.org/2000/svg"
  width="64"
  height="64"
  viewBox="0 0 64 64"
  fill="black"
  fill-rule="nonzero"
>
  <path d="M32 4c1.1 0 2 .9 2 2v2.07c7.21.49 13.7 3.62 18.51 8.43C57.75 21.74 61 28.98 61 36.98a1.924 1.924 0 0 1-.42 1.25 1.954 1.954 0 0 1-1.43.77 2.026 2.026 0 0 1-1.28-.34A16.163 16.163 0 0 0 49.55 36c-1.35.05-2.68.28-3.96.68-1.3.4-2.55.97-3.71 1.7-.65.41-1.48.41-2.13 0-1.17-.74-2.44-1.31-3.75-1.71-.65-.2-1.32-.36-2-.47V52c0 .83.33 1.58.88 2.12.55.55 1.29.88 2.12.88.83 0 1.58-.33 2.12-.88.55-.55.88-1.29.88-2.12v-2c0-1.1.9-2 2-2s2 .9 2 2v2a7 7 0 1 1-14 0V36.2c-.68.11-1.34.27-2 .47-1.31.4-2.58.97-3.75 1.71-.65.41-1.48.41-2.13 0a15.56 15.56 0 0 0-3.71-1.7c-1.28-.39-2.61-.62-3.96-.68-1.48.05-2.93.3-4.32.75-1.41.45-2.75 1.09-4 1.91-.17.11-.35.2-.55.26-.24.07-.48.1-.73.08a1.954 1.954 0 0 1-1.43-.77 2.12 2.12 0 0 1-.34-.65c-.06-.2-.09-.4-.08-.6.01-8 3.25-15.24 8.49-20.48A28.937 28.937 0 0 1 30 8.07V6c0-1.1.9-2 2-2zm17.68 15.32A24.9 24.9 0 0 0 32 12c-6.9 0-13.15 2.8-17.68 7.32-3.76 3.76-6.32 8.7-7.09 14.23.55-.23 1.11-.43 1.67-.61 1.77-.56 3.61-.88 5.48-.93h.13c1.73.06 3.43.35 5.07.85 1.25.38 2.46.89 3.61 1.52a19.863 19.863 0 0 1 8.73-2.37h.16c1.73.06 3.44.35 5.09.85 1.26.38 2.48.89 3.64 1.52 1.15-.63 2.36-1.14 3.61-1.52 1.64-.5 3.34-.79 5.07-.85h.13c1.87.06 3.71.37 5.48.93.57.18 1.13.39 1.67.61a24.928 24.928 0 0 0-7.09-14.23z" />
</svg>
