<svg
  xmlns="http://www.w3.org/2000/svg"
  width="64"
  height="64"
  viewBox="0 0 64 64"
  fill="black"
  fill-rule="nonzero"
>
  <path d="M16 61a7 7 0 0 1-7-7V35a7 7 0 0 1 7-7h1V18A14.99 14.99 0 0 1 32 3a14.99 14.99 0 0 1 15 15c0 1.1-.9 2-2 2s-2-.9-2-2c0-3.04-1.23-5.79-3.22-7.78A10.965 10.965 0 0 0 32 7c-3.04 0-5.79 1.23-7.78 3.22A10.965 10.965 0 0 0 21 18v10h27a7 7 0 0 1 7 7v19a7 7 0 0 1-7 7zm32-4c.83 0 1.58-.33 2.12-.88.55-.55.88-1.29.88-2.12V35c0-.83-.33-1.58-.88-2.12-.55-.55-1.29-.88-2.12-.88H16c-.83 0-1.58.33-2.12.88-.55.55-.88 1.29-.88 2.12v19c0 .83.33 1.58.88 2.12.55.55 1.29.88 2.12.88z" />
</svg>
