<!-- Generated by IcoMoon.io -->
<svg version="1.1" xmlns="http://www.w3.org/2000/svg" width="32" height="32" viewBox="0 0 32 32">
<title>upload-alt</title>
<path d="M11.963 10.496c0.398 0.265 0.935 0.158 1.201-0.24l1.717-2.575c0.076-0.114 0.254-0.060 0.254 0.077v7.325c0 0.477 0.373 0.886 0.85 0.894 0.486 0.009 0.882-0.382 0.882-0.866v-7.354c0-0.137 0.178-0.191 0.254-0.077l1.717 2.575c0.167 0.25 0.441 0.386 0.721 0.386 0.165 0 0.332-0.047 0.479-0.146 0.398-0.265 0.505-0.803 0.24-1.201l-3.557-5.335c-0-0-0-0.001-0.001-0.001-0.018-0.027-0.038-0.053-0.060-0.078-0.006-0.007-0.012-0.014-0.019-0.021-0.016-0.017-0.032-0.034-0.049-0.050-0.008-0.007-0.016-0.015-0.024-0.022-0.018-0.016-0.037-0.031-0.056-0.045-0.007-0.005-0.013-0.010-0.020-0.015-0.027-0.019-0.055-0.036-0.084-0.052-0.001-0.001-0.002-0.001-0.003-0.001-0.028-0.015-0.056-0.028-0.086-0.039-0.007-0.003-0.015-0.005-0.023-0.008-0.023-0.009-0.047-0.016-0.071-0.023-0.009-0.002-0.018-0.005-0.027-0.007-0.024-0.006-0.048-0.010-0.073-0.014-0.009-0.001-0.018-0.003-0.027-0.004-0.033-0.004-0.066-0.006-0.1-0.006s-0.067 0.002-0.1 0.006c-0.009 0.001-0.018 0.003-0.027 0.004-0.025 0.004-0.049 0.008-0.073 0.014-0.009 0.002-0.018 0.005-0.027 0.007-0.024 0.007-0.048 0.014-0.071 0.023-0.008 0.003-0.015 0.005-0.023 0.008-0.029 0.012-0.058 0.025-0.086 0.039-0.001 0.001-0.002 0.001-0.003 0.001-0.029 0.016-0.057 0.033-0.084 0.052-0.007 0.005-0.013 0.010-0.020 0.015-0.019 0.014-0.038 0.029-0.056 0.045-0.008 0.007-0.016 0.014-0.024 0.022-0.017 0.016-0.033 0.033-0.049 0.050-0.006 0.007-0.013 0.014-0.019 0.021-0.021 0.025-0.041 0.051-0.059 0.078-0 0-0.001 0.001-0.001 0.001l-3.557 5.335c-0.265 0.398-0.158 0.935 0.24 1.201z"></path>
<path d="M30.239 23.363c0-0.326-0.089-0.647-0.257-0.927l-2.277-3.795c-0.324-0.539-0.915-0.874-1.544-0.874h-20.322c-0.629 0-1.221 0.335-1.544 0.874l-2.277 3.795c-0.168 0.28-0.257 0.6-0.257 0.927v1.529h0.011v1.734c0 1.989 1.613 3.602 3.602 3.602h21.252c1.989 0 3.602-1.613 3.602-3.602v-1.734h0.011v-1.529zM6.349 19.568h19.302c0.316 0 0.609 0.166 0.772 0.437l1.047 1.745c0.36 0.6-0.072 1.364-0.772 1.364h-7.141c-3.613 0-3.938 0-7.114 0v0h-7.141c-0.7 0-1.132-0.764-0.772-1.364l1.047-1.745c0.163-0.271 0.456-0.437 0.772-0.437zM28.427 26.626c0 0.995-0.806 1.801-1.801 1.801h-21.252c-0.995 0-1.801-0.806-1.801-1.801v-0.811c0-0.497 0.403-0.9 0.9-0.9h7.982c0.278 0 0.543 0.127 0.711 0.349 0.649 0.855 1.676 1.407 2.833 1.407s2.183-0.552 2.833-1.407c0.168-0.222 0.433-0.349 0.711-0.349h7.982c0.497 0 0.9 0.403 0.9 0.9v0.811z"></path>
</svg>
