<!-- Generated by IcoMoon.io -->
<svg version="1.1" xmlns="http://www.w3.org/2000/svg" width="32" height="32" viewBox="0 0 32 32">
<title>usb-plug</title>
<path d="M29.173 10.309l-7.482-7.482c-0.703-0.703-1.625-1.055-2.547-1.055s-1.844 0.352-2.547 1.055l-4.991 4.991-0.621-0.621c-0.176-0.176-0.406-0.264-0.637-0.264s-0.461 0.088-0.637 0.264l-3.874 3.874c-0.338 0.338-0.527 0.796-0.527 1.273v8.941c0 0.239-0.095 0.468-0.264 0.637l-2.747 2.747c-0.703 0.703-0.703 1.844 0 2.547l2.483 2.483c0.352 0.352 0.813 0.527 1.273 0.527s0.922-0.176 1.273-0.527l2.747-2.747c0.169-0.169 0.398-0.264 0.637-0.264h8.941c0.478 0 0.936-0.19 1.273-0.527l3.874-3.874c0.352-0.352 0.352-0.922 0-1.273l-0.621-0.621 4.991-4.991c1.407-1.407 1.407-3.687-0-5.094zM27.899 14.129l-5.635 5.635c-0.347 0.347-0.347 0.91 0 1.258v0c0.347 0.347 0.347 0.91 0 1.258l-2.348 2.348c-0.167 0.167-0.393 0.26-0.629 0.26h-8.573c-0.722 0-1.4 0.281-1.91 0.791l-2.111 2.11c-0.352 0.352-0.922 0.352-1.273 0l-1.21-1.21c-0.352-0.352-0.352-0.922 0-1.273l2.111-2.111c0.507-0.507 0.791-1.194 0.791-1.91v-8.573c0-0.236 0.094-0.462 0.26-0.629l2.348-2.348c0.347-0.347 0.91-0.347 1.258 0s0.91 0.347 1.258 0l5.635-5.635c0.34-0.34 0.792-0.527 1.273-0.527s0.933 0.187 1.273 0.527l7.482 7.482c0.702 0.702 0.702 1.845-0 2.547z"></path>
<path d="M21.022 8.447l-1.242-1.242c-0.352-0.352-0.922-0.352-1.273 0l-1.242 1.242c-0.352 0.352-0.352 0.922 0 1.273l1.242 1.242c0.352 0.352 0.922 0.352 1.273 0l1.242-1.242c0.352-0.352 0.352-0.922 0-1.273z"></path>
<path d="M23.553 10.978c-0.352-0.352-0.922-0.352-1.273 0l-1.242 1.242c-0.352 0.352-0.352 0.922 0 1.273l1.242 1.242c0.352 0.352 0.922 0.352 1.273 0l1.242-1.242c0.352-0.352 0.352-0.922 0-1.273l-1.242-1.242z"></path>
</svg>
