<!-- Generated by IcoMoon.io -->
<svg version="1.1" xmlns="http://www.w3.org/2000/svg" width="32" height="32" viewBox="0 0 32 32">
<title>usb-socket</title>
<path d="M25.77 11.554h-1.756c-0.497 0-0.9 0.403-0.9 0.9v0.878c0 0.497 0.403 0.9 0.9 0.9h1.756c0.497 0 0.9-0.403 0.9-0.9v-0.878c0-0.497-0.403-0.9-0.9-0.9z"></path>
<path d="M6.23 14.233h1.756c0.497 0 0.9-0.403 0.9-0.9v-0.878c0-0.497-0.403-0.9-0.9-0.9h-1.756c-0.497 0-0.9 0.403-0.9 0.9v0.878c0 0.497 0.403 0.9 0.9 0.9z"></path>
<path d="M12.158 14.233h1.756c0.497 0 0.9-0.403 0.9-0.9v-0.878c0-0.497-0.403-0.9-0.9-0.9h-1.756c-0.497 0-0.9 0.403-0.9 0.9v0.878c0 0.497 0.403 0.9 0.9 0.9z"></path>
<path d="M18.086 14.233h1.756c0.497 0 0.9-0.403 0.9-0.9v-0.878c0-0.497-0.403-0.9-0.9-0.9h-1.756c-0.497 0-0.9 0.403-0.9 0.9v0.878c0 0.497 0.403 0.9 0.9 0.9z"></path>
<path d="M24.892 16.889h-17.784c-0.982 0-1.778 0.796-1.778 1.778s0.796 1.778 1.778 1.778h17.784c0.982 0 1.778-0.796 1.778-1.778s-0.796-1.778-1.778-1.778z"></path>
<path d="M29.327 7.975h-26.677c-0.497 0-0.9 0.403-0.9 0.9v14.261c0 0.497 0.403 0.9 0.9 0.9h26.677c0.497 0 0.9-0.403 0.9-0.9v-14.261c0-0.497-0.403-0.9-0.9-0.9zM28.427 21.335c0 0.497-0.403 0.9-0.9 0.9h-23.075c-0.497 0-0.9-0.403-0.9-0.9v-10.659c0-0.497 0.403-0.9 0.9-0.9h23.075c0.497 0 0.9 0.403 0.9 0.9v10.659z"></path>
</svg>
