<svg
  xmlns="http://www.w3.org/2000/svg"
  width="64"
  height="64"
  viewBox="0 0 64 64"
  fill="black"
  fill-rule="nonzero"
>
  <path d="M26 44c0-4.97 2.02-9.47 5.27-12.73C34.53 28.01 39.03 26 44 26c4.97 0 9.47 2.02 12.73 5.27C59.99 34.53 62 39.03 62 44c0 4.97-2.02 9.47-5.27 12.73A17.941 17.941 0 0 1 44 62c-4.97 0-9.47-2.02-12.73-5.27A17.941 17.941 0 0 1 26 44zm8.1 9.9c2.54 2.54 6.03 4.1 9.9 4.1s7.36-1.56 9.9-4.1c2.54-2.54 4.1-6.03 4.1-9.9s-1.56-7.36-4.1-9.9C51.36 31.56 47.87 30 44 30s-7.36 1.56-9.9 4.1C31.56 36.64 30 40.13 30 44s1.56 7.36 4.1 9.9zM30.9 60c0 1.1-.9 2-2 2H11c-1.1 0-2-.9-2-2V50c0-3.31 1.35-6.32 3.51-8.49C14.68 39.34 17.68 38 21 38h1.36c1.1 0 2 .9 2 2s-.9 2-2 2H21c-2.21 0-4.21.89-5.66 2.34A7.973 7.973 0 0 0 13 50v8h15.9c1.1 0 2 .9 2 2zm-3.16-27.6a2.01 2.01 0 0 1-2.73.75c-2.3-1.31-4.2-3.29-5.57-5.76-1.58-2.87-2.44-6.4-2.44-10.38a14.99 14.99 0 0 1 15-15c4.14 0 7.89 1.68 10.61 4.39A14.95 14.95 0 0 1 47 17a24.96 24.96 0 0 1-.58 5.43 2.002 2.002 0 0 1-3.91-.85c.16-.75.29-1.51.37-2.27.08-.76.12-1.53.12-2.3V17c0-3.04-1.23-5.79-3.22-7.78A10.965 10.965 0 0 0 32 6c-3.04 0-5.79 1.23-7.78 3.22A10.965 10.965 0 0 0 21 17c0 3.42.74 6.26 1.94 8.45 1.04 1.89 2.43 3.3 4.05 4.22.96.55 1.29 1.77.75 2.73zM44 34a1.994 1.994 0 0 1 1.42.58l8 8c.78.78.78 2.05 0 2.83-.78.78-2.05.78-2.83 0L46 40.82v11.17c0 1.1-.9 2-2 2s-2-.9-2-2V40.82l-4.59 4.59c-.78.78-2.05.78-2.83 0-.78-.78-.78-2.05 0-2.83l8-8c.19-.19.41-.34.65-.43.24-.1.49-.15.77-.15z" />
</svg>
