<svg
  xmlns="http://www.w3.org/2000/svg"
  width="64"
  height="64"
  viewBox="0 0 64 64"
  fill="black"
  fill-rule="nonzero"
>
  <path d="M6 58h38v-8c0-2.21-.89-4.21-2.34-5.66A7.973 7.973 0 0 0 36 42H14c-2.21 0-4.21.89-5.66 2.34A7.973 7.973 0 0 0 6 50zm40 4H4c-1.1 0-2-.9-2-2V50c0-3.31 1.35-6.32 3.51-8.49C7.68 39.34 10.68 38 14 38h22c3.31 0 6.32 1.35 8.49 3.51C46.66 43.68 48 46.68 48 50v10c0 1.1-.9 2-2 2zM25 31c1.68 0 3.23-.37 4.6-1.07 1.71-.87 3.2-2.27 4.31-4.18C35.2 23.53 36 20.59 36 17v-.02c.01-1.46-.26-2.89-.81-4.22-.54-1.33-1.34-2.54-2.38-3.58a10.837 10.837 0 0 0-3.58-2.38c-1.33-.54-2.76-.82-4.22-.81h-.04c-1.46-.01-2.89.26-4.22.81-1.33.54-2.54 1.34-3.58 2.38a10.837 10.837 0 0 0-2.38 3.58c-.54 1.33-.82 2.76-.81 4.22V17c0 3.58.81 6.52 2.11 8.75 1.12 1.92 2.63 3.33 4.35 4.2 1.35.68 2.88 1.05 4.54 1.05zm-6.33 2.53c-2.47-1.24-4.53-3.22-6.01-5.76-1.71-2.93-2.65-6.59-2.65-10.76a14.836 14.836 0 0 1 4.35-10.65 14.89 14.89 0 0 1 4.89-3.25c1.81-.74 3.76-1.12 5.75-1.1 1.99-.02 3.94.36 5.75 1.1 1.81.74 3.48 1.84 4.89 3.25a14.836 14.836 0 0 1 4.35 10.65c0 4.18-.93 7.83-2.63 10.75-1.47 2.53-3.51 4.5-5.96 5.74-1.95.99-4.12 1.5-6.41 1.5-2.26 0-4.4-.5-6.33-1.47zM46.48 40c0-1.1.9-2 2-2H50c3.31 0 6.32 1.35 8.49 3.51C60.66 43.68 62 46.68 62 50v10c0 1.1-.9 2-2 2h-8c-1.1 0-2-.9-2-2s.9-2 2-2h6v-8c0-2.21-.89-4.21-2.34-5.66A7.973 7.973 0 0 0 50 42h-1.52c-1.1 0-2-.9-2-2zM37 4.02c-.01-1.1.88-2.01 1.98-2.02a14.85 14.85 0 0 1 15.01 15c0 4.18-.93 7.83-2.63 10.75-1.47 2.53-3.51 4.5-5.96 5.74-1.95.99-4.12 1.5-6.41 1.5h-.56c-1.1 0-2-.9-2-2s.9-2 2-2h.56c1.68 0 3.23-.37 4.6-1.07 1.71-.87 3.2-2.27 4.31-4.18 1.29-2.22 2.09-5.16 2.09-8.75v-.02c.01-1.46-.26-2.89-.81-4.22-.54-1.33-1.34-2.54-2.38-3.58a10.837 10.837 0 0 0-3.58-2.38c-1.33-.54-2.76-.82-4.22-.81-1.1.01-2.01-.88-2.02-1.98z" />
</svg>
