<!-- Generated by IcoMoon.io -->
<svg version="1.1" xmlns="http://www.w3.org/2000/svg" width="32" height="32" viewBox="0 0 32 32">
<title>users</title>
<path d="M26.42 11.419c-0.283-0.205-0.367-0.591-0.2-0.898l0.003-0.005c0.142-0.262 0.266-0.536 0.368-0.821 0.082-0.227 0.15-0.461 0.203-0.7 0.094-0.419 0.143-0.854 0.143-1.301 0-0.434-0.047-0.857-0.136-1.264-0.006-0.027-0.012-0.054-0.018-0.080-0.047-0.204-0.105-0.404-0.173-0.599-0.027-0.077-0.054-0.153-0.084-0.228-0.044-0.112-0.092-0.222-0.142-0.331s-0.105-0.215-0.162-0.32c-0.073-0.135-0.153-0.266-0.236-0.394-0.042-0.064-0.085-0.128-0.129-0.19-0.063-0.089-0.128-0.176-0.195-0.262-0.135-0.171-0.278-0.334-0.43-0.489-0.076-0.077-0.154-0.153-0.235-0.226-0.14-0.127-0.287-0.248-0.439-0.362s-0.31-0.22-0.472-0.319c-0.168-0.102-0.341-0.196-0.519-0.281s-0.361-0.162-0.549-0.229c-0.625-0.225-1.299-0.347-2.002-0.347-0.987 0-1.917 0.243-2.736 0.67-0.113 0.059-0.225 0.121-0.334 0.187-0.115 0.070-0.227 0.145-0.337 0.223-0.089 0.063-0.176 0.128-0.261 0.195-0.107 0.085-0.212 0.172-0.313 0.263-0.491 0.446-0.906 0.973-1.225 1.561-0.057 0.105-0.111 0.212-0.162 0.32s-0.098 0.219-0.142 0.331c-0.265 0.672-0.411 1.405-0.411 2.171 0 0.447 0.050 0.883 0.143 1.301 0.054 0.239 0.122 0.473 0.204 0.7 0.102 0.284 0.225 0.558 0.368 0.821 0.033 0.061 0.084 0.146 0.137 0.231 0.107 0.173 0.060 0.398-0.108 0.513l-0.006 0.004c-0.157 0.107-0.37 0.086-0.499-0.053-1.121-1.214-2.743-1.957-4.537-1.902-3.102 0.095-5.627 2.613-5.732 5.714-0.035 1.049 0.203 2.038 0.648 2.904 0.198 0.384 0.086 0.858-0.26 1.118-2.236 1.681-3.681 4.354-3.681 7.366 0 2.544 4.605 3.815 9.211 3.815s9.211-1.272 9.211-3.815c0-0.895-0.128-1.76-0.366-2.578-0.167-0.574 0.275-1.15 0.873-1.142 0.105 0.001 0.21 0.002 0.315 0.002 4.605 0 9.211-1.272 9.211-3.815 0-3.068-1.5-5.786-3.807-7.459zM17.856 7.1l0.757 0.379c0.256 0.128 0.566 0.078 0.769-0.125l1.906-1.906c0.225-0.225 0.576-0.259 0.841-0.083l1.248 0.832c0.171 0.114 0.385 0.143 0.58 0.078l0.192-0.064c0.364-0.121 0.762 0.086 0.858 0.458 0.085 0.328 0.13 0.671 0.13 1.025 0 0.965-0.334 1.853-0.892 2.556-0.484 0.61-1.137 1.080-1.888 1.339-0.421 0.145-0.871 0.225-1.341 0.225s-0.92-0.080-1.341-0.225c-0.751-0.259-1.404-0.729-1.888-1.339-0.558-0.703-0.892-1.591-0.892-2.556 0-0.003 0-0.007 0-0.010 0.001-0.489 0.523-0.801 0.96-0.583zM7.823 14.634l0.757 0.379c0.257 0.128 0.566 0.078 0.769-0.125l1.906-1.906c0.225-0.225 0.576-0.259 0.841-0.083l1.248 0.832c0.008 0.005 0.017 0.010 0.025 0.015 0.167 0.101 0.369 0.125 0.555 0.063l0.191-0.064c0.365-0.122 0.763 0.087 0.858 0.46 0.025 0.097 0.046 0.195 0.064 0.294 0.043 0.237 0.066 0.48 0.066 0.729 0 0.965-0.334 1.853-0.892 2.556-0.175 0.221-0.373 0.423-0.589 0.604-0.381 0.319-0.82 0.57-1.299 0.736-0.157 0.054-0.318 0.099-0.482 0.134-0.277 0.059-0.564 0.091-0.858 0.091-0.469 0-0.92-0.080-1.341-0.225-0.751-0.259-1.404-0.729-1.888-1.339-0.558-0.703-0.892-1.591-0.892-2.556 0-0.003 0-0.007 0-0.010 0.001-0.488 0.523-0.801 0.96-0.583zM16.694 27.584c-1.455 0.536-3.536 0.843-5.71 0.843s-4.255-0.307-5.71-0.843c-1.238-0.456-1.7-0.961-1.7-1.172 0-1.979 0.771-3.84 2.17-5.24 0.345-0.345 0.717-0.651 1.113-0.917 0.295-0.198 0.679-0.202 0.979-0.013 0.912 0.574 1.991 0.906 3.147 0.906 0.68 0 1.332-0.115 1.94-0.326 0.427-0.148 0.831-0.344 1.207-0.58 0.301-0.189 0.685-0.186 0.98 0.013 0.396 0.266 0.768 0.572 1.113 0.917 0.374 0.374 0.703 0.781 0.984 1.215 0.772 1.188 1.186 2.575 1.186 4.025 0 0.211-0.461 0.716-1.7 1.171zM24.131 12.727c0.304-0.209 0.704-0.212 1.010-0.007 0.396 0.266 0.77 0.573 1.115 0.918 1.4 1.4 2.17 3.26 2.17 5.24 0 0.211-0.461 0.716-1.7 1.172-1.455 0.536-3.536 0.843-5.71 0.843-0.832 0-1.651-0.045-2.426-0.131-0.23-0.026-0.441-0.14-0.591-0.316-0.442-0.519-0.94-0.989-1.486-1.399-0.35-0.263-0.453-0.743-0.254-1.132 0.412-0.806 0.645-1.719 0.645-2.687 0-0.686-0.118-1.344-0.332-1.956-0.054-0.153-0.002-0.323 0.13-0.418 0.164-0.118 0.333-0.23 0.505-0.333 0.125-0.075 0.282-0.070 0.401 0.014l0.002 0.001c0.11 0.077 0.221 0.153 0.337 0.223 0.109 0.066 0.221 0.128 0.334 0.187 0.102 0.053 0.206 0.104 0.312 0.152 0.74 0.333 1.56 0.519 2.424 0.519 0.632 0 1.241-0.099 1.813-0.283 0.064-0.020 0.126-0.042 0.189-0.064 0.188-0.067 0.371-0.144 0.549-0.229s0.352-0.179 0.519-0.281l0.044-0.031z"></path>
</svg>
