<svg
  xmlns="http://www.w3.org/2000/svg"
  width="64"
  height="64"
  viewBox="0 0 64 64"
  fill="black"
  fill-rule="nonzero"
>
  <path d="M30.91 60c0 1.1-.9 2-2 2H4c-1.1 0-2-.9-2-2V50c0-3.31 1.35-6.32 3.51-8.49C7.68 39.34 10.68 38 14 38h8.36c1.1 0 2 .9 2 2s-.9 2-2 2H14c-2.21 0-4.21.89-5.66 2.34A7.973 7.973 0 0 0 6 50v8h22.91c1.1 0 2 .9 2 2zM27 33c0 1.1-.9 2-2 2-2.26 0-4.4-.5-6.33-1.47-2.47-1.24-4.53-3.22-6.01-5.76-1.71-2.93-2.65-6.59-2.65-10.76a14.836 14.836 0 0 1 4.35-10.65 14.89 14.89 0 0 1 4.89-3.25c1.81-.74 3.76-1.12 5.75-1.1 1.99-.02 3.94.36 5.75 1.1 1.81.74 3.48 1.84 4.89 3.25a14.89 14.89 0 0 1 3.25 4.89c.74 1.81 1.12 3.76 1.1 5.75.01 1.12-.06 2.23-.21 3.33-.15 1.11-.37 2.21-.68 3.29a2 2 0 1 1-3.85-1.09 19.731 19.731 0 0 0 .73-5.52v-.04c.01-1.46-.26-2.89-.81-4.22-.54-1.33-1.34-2.54-2.38-3.58a10.837 10.837 0 0 0-3.58-2.38c-1.33-.54-2.76-.82-4.22-.81h-.04c-1.46-.01-2.89.26-4.22.81-1.33.54-2.54 1.34-3.58 2.38a10.837 10.837 0 0 0-2.38 3.58c-.54 1.33-.82 2.76-.81 4.22v.02c0 3.58.81 6.52 2.11 8.75 1.12 1.92 2.63 3.33 4.35 4.2 1.35.68 2.88 1.05 4.54 1.05 1.1 0 2 .9 2 2zM37 4.02c-.01-1.1.88-2.01 1.98-2.02a14.85 14.85 0 0 1 15.01 14.99 23.93 23.93 0 0 1-.92 6.73 2.005 2.005 0 0 1-2.47 1.38 2.005 2.005 0 0 1-1.38-2.47c.26-.91.45-1.85.58-2.79.13-.94.19-1.89.18-2.84v-.04c.01-1.46-.26-2.89-.81-4.22-.54-1.33-1.34-2.54-2.38-3.58a10.837 10.837 0 0 0-3.58-2.38c-1.33-.54-2.76-.82-4.22-.81-1.1.01-2.01-.88-2.02-1.98zM26 44c0-4.97 2.02-9.47 5.27-12.73C34.53 28.01 39.03 26 44 26c4.97 0 9.47 2.02 12.73 5.27C59.99 34.53 62 39.03 62 44c0 4.97-2.02 9.47-5.27 12.73A17.941 17.941 0 0 1 44 62c-4.97 0-9.47-2.02-12.73-5.27A17.941 17.941 0 0 1 26 44zm8.1 9.9c2.54 2.54 6.03 4.1 9.9 4.1s7.36-1.56 9.9-4.1c2.54-2.54 4.1-6.03 4.1-9.9s-1.56-7.36-4.1-9.9C51.36 31.56 47.87 30 44 30s-7.36 1.56-9.9 4.1C31.56 36.64 30 40.13 30 44s1.56 7.36 4.1 9.9zM44 34a1.994 1.994 0 0 1 1.42.58l8 8c.78.78.78 2.05 0 2.83-.78.78-2.05.78-2.83 0L46 40.82v11.17c0 1.1-.9 2-2 2s-2-.9-2-2V40.82l-4.59 4.59c-.78.78-2.05.78-2.83 0-.78-.78-.78-2.05 0-2.83l8-8c.19-.19.41-.34.65-.43.24-.1.49-.15.77-.15z" />
</svg>
