<!-- Generated by IcoMoon.io -->
<svg version="1.1" xmlns="http://www.w3.org/2000/svg" width="32" height="32" viewBox="0 0 32 32">
<title>utf</title>
<path d="M13.714 22.095c-0.202 0-0.396-0.080-0.539-0.223l-3.048-3.048c-0.298-0.298-0.298-0.78 0-1.077s0.78-0.297 1.077 0l2.509 2.509 7.080-7.080c0.298-0.298 0.78-0.298 1.077 0s0.298 0.78 0 1.077l-7.619 7.619c-0.143 0.143-0.337 0.223-0.539 0.223zM24.381 5.333l-18.286 0.001c-0.42 0-0.761 0.341-0.761 0.761s0.341 0.761 0.761 0.761h18.286c0.421 0 0.762 0.341 0.762 0.762v16.762c0 0.421-0.341 0.762-0.762 0.762h-16.762c-0.421 0-0.762-0.341-0.762-0.762v-13.714c0-0.421 0.341-0.762 0.762-0.762h6.857c0.421 0 0.762-0.341 0.762-0.762s-0.341-0.762-0.762-0.762c-0.001 0-0.001 0-0.002 0l-6.855-0c-1.262 0-2.286 1.023-2.286 2.286v13.714c0 1.262 1.023 2.286 2.286 2.286h16.762c1.262 0 2.286-1.023 2.286-2.286v-16.762c0-1.262-1.023-2.286-2.286-2.286z"></path>
</svg>
