<svg
  xmlns="http://www.w3.org/2000/svg"
  width="64"
  height="64"
  viewBox="0 0 64 64"
  fill="black"
  fill-rule="nonzero"
>
  <path d="M55.05 2.67H4.76a2.1 2.1 0 0 0 0 4.19h50.29A2.1 2.1 0 0 1 57.14 9v46.1a2.1 2.1 0 0 1-2.09 2.09H9a2.1 2.1 0 0 1-2.09-2.09V17.33A2.1 2.1 0 0 1 9 15.24h18.81a2.1 2.1 0 0 0 0-4.19H9a6.28 6.28 0 0 0-6.28 6.28v37.72A6.28 6.28 0 0 0 9 61.33h46.1a6.28 6.28 0 0 0 6.28-6.28V9a6.28 6.28 0 0 0-6.28-6.28zM25.71 48.76a2.11 2.11 0 0 1-1.48-.61l-8.38-8.38a2.09 2.09 0 0 1 3-3l6.9 6.9 19.43-19.43a2.09 2.09 0 0 1 3 3l-20.95 21a2.11 2.11 0 0 1-1.48.61z" />
</svg>
