<!-- Generated by IcoMoon.io -->
<svg version="1.1" xmlns="http://www.w3.org/2000/svg" width="32" height="32" viewBox="0 0 32 32">
<title>vector</title>
<path d="M28.427 19.112h-0.034c-0.128 0-0.24-0.087-0.269-0.211-0.744-3.135-2.677-5.816-5.293-7.537-0.115-0.076-0.063-0.255 0.075-0.255h3.852c0.092 0 0.177 0.046 0.229 0.122 0.336 0.485 0.908 0.796 1.55 0.765 0.896-0.043 1.632-0.767 1.688-1.663 0.064-1.034-0.755-1.892-1.775-1.892-0.599 0-1.128 0.296-1.45 0.749-0.052 0.073-0.136 0.117-0.226 0.117h-7.854c-0.137 0-0.252-0.101-0.274-0.236-0.135-0.861-0.88-1.52-1.779-1.52h-1.734c-0.899 0-1.644 0.659-1.778 1.52-0.021 0.135-0.136 0.236-0.274 0.236h-7.854c-0.091 0-0.174-0.045-0.227-0.119-0.34-0.477-0.909-0.779-1.546-0.745-0.892 0.047-1.623 0.77-1.678 1.662-0.064 1.034 0.755 1.892 1.775 1.892 0.607 0 1.143-0.304 1.464-0.769 0.052-0.075 0.137-0.121 0.228-0.121h3.852c0.138 0 0.19 0.179 0.075 0.255-2.616 1.722-4.549 4.402-5.293 7.537-0.030 0.124-0.142 0.211-0.269 0.211h-0.034c-0.995 0-1.801 0.806-1.801 1.801v1.734c0 0.995 0.806 1.801 1.801 1.801h1.734c0.995 0 1.801-0.806 1.801-1.801v-1.734c0-0.779-0.495-1.443-1.188-1.694-0.139-0.050-0.218-0.197-0.178-0.339 1.005-3.551 3.809-6.354 7.36-7.359 0.142-0.040 0.288 0.039 0.339 0.178 0.251 0.693 0.914 1.188 1.693 1.188h1.734c0.779 0 1.442-0.495 1.693-1.188 0.050-0.139 0.196-0.218 0.339-0.178 3.551 1.005 6.355 3.808 7.36 7.359 0.040 0.142-0.039 0.288-0.178 0.339-0.693 0.251-1.188 0.915-1.188 1.694v1.734c0 0.995 0.806 1.801 1.801 1.801h1.734c0.995 0 1.801-0.806 1.801-1.801v-1.734c0-0.994-0.806-1.801-1.801-1.801zM5.191 22.669h-1.501c-0.077 0-0.139-0.062-0.139-0.139v-1.501c0-0.077 0.062-0.139 0.139-0.139h1.501c0.077 0 0.139 0.062 0.139 0.139v1.501c0 0.076-0.062 0.139-0.138 0.139zM16.751 11.109h-1.501c-0.077 0-0.139-0.062-0.139-0.139v-1.501c0-0.077 0.062-0.139 0.139-0.139h1.501c0.077 0 0.139 0.062 0.139 0.139v1.501c0 0.077-0.062 0.139-0.139 0.139zM28.311 22.669h-1.501c-0.077 0-0.139-0.062-0.139-0.139v-1.501c0-0.077 0.062-0.139 0.139-0.139h1.501c0.077 0 0.139 0.062 0.139 0.139v1.501c0 0.076-0.062 0.139-0.139 0.139z"></path>
</svg>
