<svg
  xmlns="http://www.w3.org/2000/svg"
  width="64"
  height="64"
  viewBox="0 0 64 64"
  fill="black"
  fill-rule="nonzero"
>
  <path d="M4 47c0-2.21.9-4.21 2.34-5.66a8.019 8.019 0 0 1 3.73-2.11c.33-4.15 1.83-8.04 4.21-11.28 1.4-1.9 3.11-3.58 5.06-4.96h-9.1c-.04.04-.08.08-.11.12a2.993 2.993 0 0 1-4.24 0 2.993 2.993 0 0 1 0-4.24 2.993 2.993 0 0 1 4.35.12h14.02c.36-1.41 1.1-2.66 2.09-3.66a7.973 7.973 0 0 1 5.66-2.34c2.21 0 4.21.9 5.66 2.34a7.98 7.98 0 0 1 2.09 3.66h14.02c.04-.04.08-.08.11-.12a2.993 2.993 0 0 1 4.24 0 2.993 2.993 0 0 1 0 4.24 2.993 2.993 0 0 1-4.24 0c-.04-.04-.08-.08-.11-.12h-9.1c1.95 1.37 3.65 3.05 5.05 4.95 2.38 3.24 3.88 7.13 4.21 11.29 1.43.36 2.72 1.1 3.73 2.11A7.973 7.973 0 0 1 60.01 47c0 2.21-.9 4.21-2.34 5.66A7.973 7.973 0 0 1 52.01 55c-2.21 0-4.21-.9-5.66-2.34A7.973 7.973 0 0 1 44.01 47c0-2.21.9-4.21 2.34-5.66.97-.97 2.2-1.7 3.58-2.07-.31-3.3-1.53-6.38-3.42-8.96a17.983 17.983 0 0 0-7.3-5.83c-.39.81-.92 1.54-1.54 2.16a7.973 7.973 0 0 1-5.66 2.34c-2.21 0-4.21-.9-5.66-2.34a8.03 8.03 0 0 1-1.54-2.16 18.049 18.049 0 0 0-7.3 5.83c-1.89 2.58-3.1 5.65-3.42 8.95a7.93 7.93 0 0 1 3.57 2.07A7.973 7.973 0 0 1 20 46.99c0 2.21-.9 4.21-2.34 5.66A7.973 7.973 0 0 1 12 54.99c-2.21 0-4.21-.9-5.66-2.34A7.973 7.973 0 0 1 4 46.99zm5.17 2.83C9.9 50.56 10.89 51 12 51s2.1-.45 2.83-1.17C15.56 49.1 16 48.11 16 47s-.45-2.1-1.17-2.83A3.966 3.966 0 0 0 12 43c-1.11 0-2.1.45-2.83 1.17C8.44 44.9 8 45.89 8 47s.45 2.1 1.17 2.83zm40 0C49.9 50.56 50.89 51 52 51s2.1-.45 2.83-1.17C55.56 49.1 56 48.11 56 47s-.45-2.1-1.17-2.83A3.966 3.966 0 0 0 52 43c-1.11 0-2.1.45-2.83 1.17C48.44 44.9 48 45.89 48 47s.45 2.1 1.17 2.83zm-20-26C29.9 24.56 30.89 25 32 25s2.1-.45 2.83-1.17c.57-.57.96-1.3 1.11-2.12l.03-.22a4.007 4.007 0 0 0-1.14-3.32A3.966 3.966 0 0 0 32 17c-1.11 0-2.1.45-2.83 1.17C28.44 18.9 28 19.89 28 21s.45 2.1 1.17 2.83z" />
</svg>
