<svg
  xmlns="http://www.w3.org/2000/svg"
  width="64"
  height="64"
  viewBox="0 0 64 64"
  fill="black"
  fill-rule="nonzero"
>
  <path d="M30.59 10.59a2 2 0 0 1 2.18-.43c.75.31 1.23 1.04 1.23 1.85v40c0 .81-.49 1.54-1.23 1.85a2 2 0 0 1-2.18-.43L19.18 42.02H8.01c-1.1 0-2-.9-2-2v-16c0-1.1.9-2 2-2h11.17zm-9.18 28L30 47.18V16.84l-8.59 8.59c-.19.19-.41.34-.65.43-.24.1-.49.15-.77.15h-10v12h10a1.994 1.994 0 0 1 1.42.58zm20.49 6.13c-.78-.78-.78-2.05 0-2.83 2.73-2.73 4.1-6.31 4.1-9.9 0-3.58-1.37-7.16-4.1-9.9-.78-.78-.78-2.05 0-2.83.78-.78 2.05-.78 2.83 0C48.24 22.77 50 27.38 50 31.98c0 4.6-1.76 9.21-5.27 12.72-.78.78-2.05.78-2.83 0z" />
</svg>
