<!-- Generated by IcoMoon.io -->
<svg version="1.1" xmlns="http://www.w3.org/2000/svg" width="32" height="32" viewBox="0 0 32 32">
<title>wallet</title>
<path d="M29.327 12.443h-0.856v-4.435c0-0.497-0.403-0.9-0.9-0.9h-1.778v-3.546c0-0.54-0.472-0.958-1.008-0.894l-22.231 2.668c-0.453 0.054-0.793 0.438-0.793 0.894v2.668h0.011v15.094c0 0.497 0.403 0.9 0.9 0.9h24.898c0.497 0 0.9-0.403 0.9-0.9v-4.435h0.856c0.497 0 0.9-0.403 0.9-0.9v-5.313c0-0.497-0.403-0.9-0.9-0.9zM22.984 4.698c0.536-0.064 1.008 0.354 1.008 0.894v1.516h-18.1c-0.173 0-0.19-0.253-0.018-0.276 4.859-0.635 17.11-2.134 17.11-2.134zM26.671 22.191c0 0.497-0.403 0.9-0.9 0.9h-21.296c-0.497 0-0.9-0.403-0.9-0.9v-12.382c0-0.497 0.403-0.9 0.9-0.9h21.296c0.497 0 0.9 0.403 0.9 0.9v2.634h-1.756c-0.528 0-1.004 0.228-1.333 0.59-0.039 0.043-0.076 0.087-0.11 0.133s-0.067 0.094-0.097 0.144c-0.045 0.074-0.085 0.152-0.119 0.233s-0.063 0.165-0.085 0.251c-0.037 0.144-0.057 0.295-0.057 0.45v3.512c0 0.062 0.003 0.124 0.009 0.184 0.046 0.454 0.261 0.858 0.581 1.149 0.043 0.039 0.087 0.076 0.133 0.11 0.023 0.017 0.047 0.034 0.071 0.050 0.072 0.049 0.147 0.092 0.226 0.13 0.052 0.025 0.106 0.048 0.162 0.068 0.083 0.030 0.168 0.055 0.256 0.073 0.117 0.024 0.239 0.037 0.363 0.037h1.756v2.634zM28.427 16.399c-0.152 0.674-0.683 1.205-1.357 1.357-0.128 0.029-0.262 0.045-0.399 0.045v0c-0.137 0-0.27-0.016-0.399-0.045-0.674-0.153-1.205-0.683-1.357-1.357-0.029-0.128-0.045-0.262-0.045-0.399s0.016-0.27 0.045-0.399c0.153-0.674 0.683-1.205 1.357-1.357 0.128-0.029 0.262-0.045 0.399-0.045v0c0.137 0 0.27 0.016 0.399 0.045 0.674 0.153 1.205 0.683 1.357 1.357 0.029 0.128 0.045 0.262 0.045 0.399s-0.016 0.27-0.045 0.399z"></path>
</svg>
