<svg
  xmlns="http://www.w3.org/2000/svg"
  width="64"
  height="64"
  viewBox="0 0 64 64"
  fill="black"
  fill-rule="nonzero"
>
  <path d="M29.61 11.38L7.38 49.88c-.24.42-.36.9-.36 1.37 0 .47.13.95.37 1.37.25.42.59.77 1.01 1 .41.24.88.37 1.37.37h44.45c.49 0 .97-.13 1.38-.37.41-.24.76-.58 1.01-1.01.25-.43.37-.9.37-1.38 0-.48-.12-.95-.37-1.38L34.38 11.37c-.25-.43-.6-.77-1.01-1.01-.41-.24-.89-.37-1.38-.37-.49 0-.97.13-1.38.37-.41.24-.76.58-1.01 1.01zm-3.46-2A6.726 6.726 0 0 1 32 6.01a6.726 6.726 0 0 1 5.85 3.37l22.23 38.48c.6 1.05.91 2.21.91 3.38s-.3 2.33-.9 3.38a6.652 6.652 0 0 1-2.47 2.47c-1.01.58-2.17.91-3.38.91H9.78h-.01c-1.2 0-2.36-.33-3.36-.91-1-.58-1.86-1.42-2.46-2.46a6.73 6.73 0 0 1-.91-3.36 6.76 6.76 0 0 1 .88-3.37s0-.01.01-.01L26.16 9.38zM32 40c-1.1 0-2-.9-2-2V21c0-1.1.9-2 2-2s2 .9 2 2v17c0 1.1-.9 2-2 2zm-2.12 4.88a2.993 2.993 0 0 1 4.24 0 2.993 2.993 0 0 1 0 4.24 2.993 2.993 0 0 1-4.24 0 2.993 2.993 0 0 1 0-4.24z" />
</svg>
