<!-- Generated by IcoMoon.io -->
<svg version="1.1" xmlns="http://www.w3.org/2000/svg" width="32" height="32" viewBox="0 0 32 32">
<title>wifi</title>
<path d="M18.634 23.564c0 1.473-1.194 2.667-2.667 2.667s-2.667-1.194-2.667-2.667c0-1.473 1.194-2.667 2.667-2.667s2.667 1.194 2.667 2.667z"></path>
<path d="M27.075 11.509c-2.944-3.702-6.877-5.74-11.075-5.74s-8.13 2.039-11.075 5.74c-0.31 0.389-0.245 0.956 0.144 1.265s0.956 0.245 1.265-0.144c2.596-3.263 6.028-5.061 9.665-5.061s7.070 1.797 9.665 5.061c0.178 0.223 0.44 0.34 0.705 0.34 0.196 0 0.394-0.064 0.56-0.196 0.389-0.31 0.454-0.876 0.144-1.265z"></path>
<path d="M16 11.037c-3.078 0-5.959 1.491-8.112 4.197-0.31 0.389-0.245 0.956 0.144 1.265s0.956 0.245 1.265-0.144c1.804-2.268 4.185-3.518 6.703-3.518s4.898 1.249 6.703 3.518c0.178 0.224 0.44 0.34 0.705 0.34 0.196 0 0.394-0.064 0.56-0.196 0.389-0.31 0.454-0.876 0.144-1.265-2.153-2.707-5.034-4.197-8.112-4.197z"></path>
<path d="M16 16.117c-1.999 0-3.865 0.962-5.255 2.709-0.31 0.389-0.245 0.956 0.144 1.265s0.956 0.245 1.265-0.144c1.041-1.309 2.407-2.030 3.846-2.030s2.804 0.721 3.845 2.030c0.178 0.224 0.44 0.34 0.705 0.34 0.196 0 0.394-0.064 0.56-0.196 0.389-0.31 0.454-0.876 0.144-1.265-1.39-1.747-3.256-2.709-5.255-2.709z"></path>
</svg>
