<svg
  xmlns="http://www.w3.org/2000/svg"
  width="64"
  height="64"
  viewBox="0 0 64 64"
  fill="black"
  fill-rule="nonzero"
>
  <path d="M55 34a1.994 1.994 0 0 1-.58 1.42l-10 10c-.78.78-2.05.78-2.83 0-.78-.78-.78-2.05 0-2.83L48.18 36H14.01c-1.1 0-2-.9-2-2s.9-2 2-2h34.17l-6.59-6.59c-.78-.78-.78-2.05 0-2.83.78-.78 2.05-.78 2.83 0l10 10c.19.19.34.41.43.65.1.24.15.49.15.77zm-27-6c-1.1 0-2-.9-2-2v-6l-10-7.5L6 20v29c0 .83.33 1.58.88 2.12.55.55 1.29.88 2.12.88h14c.83 0 1.58-.33 2.12-.88.55-.55.88-1.29.88-2.12v-7c0-1.1.9-2 2-2s2 .9 2 2v7a7 7 0 0 1-7 7H9a7 7 0 0 1-7-7V19c0-.63.3-1.22.8-1.6l12-9a2.01 2.01 0 0 1 2.4 0l12 9c.5.38.8.97.8 1.6v7c0 1.1-.9 2-2 2zm8 0c-1.1 0-2-.9-2-2v-7c0-.63.3-1.22.8-1.6l12-9a2.01 2.01 0 0 1 2.4 0l12 9c.5.38.8.97.8 1.6v30a7 7 0 0 1-7 7H41a7 7 0 0 1-7-7v-7c0-1.1.9-2 2-2s2 .9 2 2v7c0 .83.33 1.58.88 2.12.55.55 1.29.88 2.12.88h14c.83 0 1.58-.33 2.12-.88.55-.55.88-1.29.88-2.12V20l-10-7.5L38 20v6c0 1.1-.9 2-2 2z" />
</svg>
