<!-- Generated by IcoMoon.io -->
<svg version="1.1" xmlns="http://www.w3.org/2000/svg" width="32" height="32" viewBox="0 0 32 32">
<title>wire</title>
<path d="M29 14.375c0-6.282-5.093-11.375-11.375-11.375s-11.375 5.093-11.375 11.375c0 0.622 0.051 1.233 0.147 1.828h-2.574c-0.114 0-0.222 0.023-0.32 0.065s-0.187 0.102-0.262 0.176c-0.149 0.149-0.241 0.355-0.241 0.582v11.151c0 0.227 0.092 0.433 0.241 0.582 0.074 0.074 0.163 0.135 0.262 0.176 0.098 0.042 0.206 0.065 0.32 0.065h21.104c0.028 0 0.056-0.001 0.084-0.004 0.083-0.008 0.162-0.029 0.236-0.060 0.123-0.052 0.231-0.133 0.315-0.235 0.034-0.041 0.063-0.085 0.089-0.131 0.063-0.117 0.099-0.25 0.099-0.392v-5.843c2.010-2.052 3.25-4.861 3.25-7.96zM26.227 18.931c-0.124 0.233-0.477 0.144-0.477-0.12v-1.785c0-0.142-0.036-0.276-0.099-0.392-0.025-0.047-0.055-0.091-0.089-0.131-0.084-0.102-0.192-0.183-0.315-0.235-0.074-0.031-0.153-0.052-0.236-0.060-0.028-0.003-0.056-0.004-0.084-0.004h-1.69c-0.22 0-0.393-0.186-0.378-0.405 0.031-0.465 0.048-0.94 0.048-1.423 0-0.972-0.066-1.914-0.189-2.808-0.031-0.229 0.145-0.432 0.376-0.432h3.438c0.166 0 0.312 0.107 0.362 0.265 0.304 0.949 0.461 1.95 0.461 2.975 0 1.614-0.391 3.168-1.128 4.555zM13.989 14.375c0-1.050 0.080-2.027 0.22-2.919 0.029-0.185 0.188-0.32 0.375-0.32h6.080c0.187 0 0.346 0.136 0.375 0.32 0.14 0.893 0.22 1.869 0.22 2.919 0 0.51-0.019 1.003-0.055 1.478-0.015 0.198-0.18 0.351-0.379 0.351h-6.404c-0.199 0-0.364-0.153-0.379-0.351-0.034-0.475-0.053-0.968-0.053-1.478zM17.625 5.458c0.903 0 2.056 1.29 2.819 3.53 0.084 0.246-0.1 0.501-0.36 0.501h-4.917c-0.26 0-0.444-0.256-0.36-0.501 0.762-2.24 1.915-3.53 2.818-3.53zM25.354 9.49h-2.755c-0.17 0-0.319-0.113-0.365-0.277-0.411-1.464-0.991-2.713-1.688-3.639-0.149-0.198 0.049-0.473 0.283-0.391 1.368 0.476 2.622 1.258 3.676 2.312 0.434 0.434 0.822 0.903 1.162 1.399 0.172 0.253-0.008 0.596-0.313 0.596zM10.745 7.495c1.054-1.054 2.308-1.837 3.676-2.312 0.234-0.081 0.432 0.193 0.283 0.391-0.697 0.927-1.277 2.175-1.688 3.639-0.046 0.164-0.195 0.277-0.365 0.277h-2.755c-0.306 0-0.486-0.343-0.313-0.595 0.34-0.497 0.728-0.965 1.162-1.4zM7.895 14.375c0-1.025 0.158-2.026 0.461-2.975 0.050-0.158 0.197-0.265 0.362-0.265h3.438c0.231 0 0.407 0.204 0.376 0.432-0.123 0.894-0.189 1.835-0.189 2.808 0 0.483 0.016 0.957 0.048 1.423 0.015 0.219-0.159 0.405-0.378 0.405h-3.626c-0.187 0-0.347-0.136-0.376-0.321-0.076-0.494-0.116-0.997-0.116-1.507zM4.645 26.848v-8.493c0-0.28 0.227-0.506 0.506-0.506h18.446c0.28 0 0.506 0.227 0.506 0.506v8.493c0 0.28-0.227 0.506-0.506 0.506h-18.445c-0.28 0.001-0.507-0.226-0.507-0.506z"></path>
<path d="M3.241 16.444c0.074-0.074 0.163-0.135 0.262-0.176-0.099 0.041-0.188 0.102-0.262 0.176z"></path>
<path d="M3.503 28.935c-0.098-0.042-0.187-0.102-0.262-0.176 0.074 0.074 0.163 0.135 0.262 0.176z"></path>
<path d="M8.706 22.602c0 0.795-0.645 1.44-1.44 1.44s-1.44-0.645-1.44-1.44c0-0.795 0.645-1.44 1.44-1.44s1.44 0.645 1.44 1.44z"></path>
<path d="M22.924 22.602c0 0.795-0.645 1.44-1.44 1.44s-1.44-0.645-1.44-1.44c0-0.795 0.645-1.44 1.44-1.44s1.44 0.645 1.44 1.44z"></path>
<path d="M17.219 22.602c0 2.356-1.273 4.266-2.844 4.266s-2.844-1.91-2.844-4.266c0-2.356 1.273-4.266 2.844-4.266s2.844 1.91 2.844 4.266z"></path>
</svg>
