<!-- Generated by IcoMoon.io -->
<svg version="1.1" xmlns="http://www.w3.org/2000/svg" width="32" height="32" viewBox="0 0 32 32">
<title>wordpress</title>
<path d="M16 3.532c-6.886 0-12.468 5.582-12.468 12.468s5.582 12.468 12.468 12.468c6.886 0 12.468-5.582 12.468-12.468s-5.582-12.468-12.468-12.468zM26.667 16c0 2.849-1.11 5.528-3.124 7.542-0.431 0.431-0.893 0.821-1.381 1.167l3.087-8.924c0.504-1.262 0.748-2.327 0.834-3.282 0.384 1.11 0.584 2.288 0.584 3.497zM8.458 23.542c-2.015-2.015-3.124-4.693-3.124-7.542 0-1.237 0.209-2.441 0.611-3.573l4.665 12.781c-0.776-0.456-1.498-1.013-2.151-1.666zM16 5.333c2.493 0 4.856 0.85 6.757 2.412-0.672 0.336-1.1 1.067-1.1 1.837 0 0.944 0.544 1.742 1.123 2.684 0.435 0.762 0.944 1.741 0.944 3.156 0 0.98-0.292 2.212-0.871 3.7l-1.142 3.812-4.136-12.299c0.69-0.037 1.309-0.109 1.309-0.109 0.617-0.073 0.544-0.978-0.072-0.944 0 0-1.854 0.146-3.051 0.146-1.125 0-3.013-0.146-3.013-0.146-0.617-0.034-0.689 0.908-0.073 0.944 0 0 0.585 0.072 1.202 0.109l1.781 4.885-2.503 7.509-4.168-12.394c0.69-0.037 1.311-0.109 1.311-0.109 0.617-0.073 0.542-0.978-0.073-0.944 0 0-1.662 0.131-2.855 0.145 0.326-0.447 0.689-0.872 1.087-1.27 2.015-2.015 4.693-3.124 7.543-3.124zM16.201 17.003l3.312 9.074c-1.115 0.388-2.299 0.59-3.514 0.59-1.023 0-2.024-0.144-2.981-0.421l3.182-9.243z"></path>
</svg>
