<!-- Generated by IcoMoon.io -->
<svg version="1.1" xmlns="http://www.w3.org/2000/svg" width="32" height="32" viewBox="0 0 32 32">
<title>wrench</title>
<path d="M29.956 6.029c-0.148-0.533-0.625-0.839-1.115-0.839-0.291 0-0.586 0.108-0.819 0.341l-1.258 1.258c-0.226 0.226-0.523 0.339-0.82 0.339s-0.593-0.113-0.82-0.339l-0.028-0.028c-0.453-0.453-0.453-1.187 0-1.639l1.258-1.258c0.627-0.627 0.348-1.7-0.506-1.936-0.514-0.142-1.043-0.212-1.572-0.212-1.508 0-3.016 0.575-4.167 1.726-1.492 1.492-2.016 3.585-1.573 5.5 0.071 0.305-0.017 0.625-0.238 0.847l-8.609 8.609c-0.218 0.218-0.532 0.306-0.833 0.242-0.411-0.088-0.829-0.133-1.247-0.133-1.457-0-2.914 0.532-4.041 1.594-1.657 1.561-2.203 3.838-1.64 5.871 0.148 0.533 0.625 0.839 1.115 0.839 0.291 0 0.586-0.108 0.819-0.341l1.258-1.258c0.226-0.226 0.523-0.339 0.82-0.339s0.593 0.113 0.82 0.339l0.028 0.028c0.453 0.453 0.453 1.187-0 1.639l-1.258 1.258c-0.627 0.627-0.348 1.7 0.506 1.936 0.514 0.142 1.043 0.212 1.572 0.212 1.508 0 3.016-0.575 4.167-1.726 1.52-1.52 2.035-3.665 1.547-5.609-0.076-0.304 0.019-0.626 0.241-0.848l8.522-8.522c0.218-0.218 0.533-0.312 0.833-0.242 0.446 0.105 0.902 0.157 1.358 0.157 1.457 0 2.914-0.532 4.041-1.594 1.657-1.562 2.203-3.838 1.64-5.871zM10.622 27.161c-0.659 0.715-1.525 1.162-2.466 1.287-0.145 0.019-0.233-0.156-0.129-0.259v0c0.565-0.564 0.902-1.325 0.904-2.124 0.002-0.793-0.306-1.539-0.867-2.099l-0.007-0.007c-0.475-0.475-1.093-0.791-1.76-0.867-0.92-0.106-1.805 0.205-2.446 0.847l-0.037 0.037c-0.104 0.104-0.279 0.016-0.259-0.13 0.123-0.915 0.555-1.777 1.253-2.434 0.755-0.712 1.752-1.104 2.805-1.104v0c1.027 0 2.003 0.375 2.75 1.056 0.849 0.775 1.326 1.835 1.34 2.981 0.012 1.039-0.375 2.052-1.079 2.817zM20.136 12.982l-6.822 6.822c-0.343 0.343-0.899 0.343-1.242 0v0c-0.343-0.343-0.343-0.899 0-1.242l6.822-6.822c0.343-0.343 0.899-0.343 1.242 0v0c0.343 0.343 0.343 0.899 0 1.242zM27.082 10.59c-0.755 0.712-1.752 1.104-2.805 1.104-0.893 0-1.748-0.284-2.447-0.806l-0.828-0.828c-0.555-0.738-0.844-1.639-0.813-2.591 0.030-0.932 0.382-1.831 0.993-2.535 0.669-0.77 1.568-1.25 2.55-1.38 0.145-0.019 0.233 0.156 0.129 0.259v0c-0.538 0.538-0.873 1.254-0.902 2.015-0.031 0.833 0.279 1.622 0.865 2.208l0.007 0.007c0.475 0.475 1.093 0.791 1.761 0.868 0.92 0.106 1.805-0.205 2.447-0.847l0.037-0.037c0.104-0.104 0.279-0.016 0.259 0.13-0.123 0.915-0.555 1.777-1.253 2.434z"></path>
</svg>
