<svg
  xmlns="http://www.w3.org/2000/svg"
  width="64"
  height="64"
  viewBox="0 0 64 64"
  fill="black"
  fill-rule="nonzero"
>
  <path d="M52.05 31.74c1.29-1.28 2.3-2.8 3-4.44.7-1.65 1.07-3.43 1.09-5.25v-.04l-.01.01-7.18 7.18c-.51.51-1.24.7-1.93.52l-8.93-2.39c-.69-.18-1.23-.72-1.41-1.41l-2.39-8.93c-.18-.69.01-1.43.52-1.93l7.18-7.18.01-.01h-.04c-2.17.03-4.27.56-6.15 1.52a14.06 14.06 0 0 0-4.85 4.07c-1.3 1.73-2.17 3.72-2.56 5.79-.39 2.07-.32 4.23.25 6.31.27.93.27 1.9.01 2.8-.26.9-.78 1.73-1.51 2.38l-.01.01L9.61 45.94a5.973 5.973 0 0 0-1.59 4.14c.02 1.51.61 3.02 1.76 4.17a5.984 5.984 0 0 0 4.17 1.76c1.49.02 2.97-.51 4.14-1.59l15.19-17.53.01-.01c.64-.74 1.48-1.25 2.38-1.51.9-.26 1.86-.27 2.8.01a13.989 13.989 0 0 0 13.6-3.61zm-5.3 7.51c-3.02.8-6.26.81-9.38-.04-.01 0-.03-.01-.04-.01a.893.893 0 0 0-.56 0 .91.91 0 0 0-.47.3L21.04 57.11c-.04.05-.09.1-.13.14A9.986 9.986 0 0 1 13.89 60a9.93 9.93 0 0 1-6.94-2.93 9.965 9.965 0 0 1-2.93-6.94c-.03-2.52.88-5.05 2.75-7.02.04-.05.09-.09.14-.13l17.61-15.26c.15-.13.25-.29.3-.47.05-.18.05-.38 0-.56 0-.01-.01-.03-.01-.04-.74-2.69-.83-5.47-.33-8.14.51-2.67 1.62-5.22 3.29-7.45a17.83 17.83 0 0 1 6.24-5.23c2.42-1.23 5.11-1.91 7.89-1.95.81-.02 1.6.21 2.25.62.66.42 1.2 1.04 1.53 1.79.32.76.4 1.57.25 2.34-.15.77-.53 1.5-1.11 2.07l-6.36 6.36 1.79 6.7 6.7 1.79 6.36-6.36c.58-.58 1.3-.96 2.07-1.11a4.02 4.02 0 0 1 2.34.25c.76.32 1.37.86 1.79 1.53a4 4 0 0 1 .62 2.25c-.03 2.34-.51 4.63-1.41 6.74-.89 2.12-2.2 4.07-3.86 5.72-2.29 2.29-5.1 3.88-8.13 4.68zM10.92 50.07c.03-.73.32-1.45.88-2.01a3 3 0 0 1 4.98 1.19c.17.52.19 1.08.06 1.63-.13.55-.41 1.04-.8 1.42-.38.38-.87.66-1.42.8-.55.13-1.11.1-1.63-.06-.52-.17-.99-.47-1.35-.9-.51-.59-.75-1.34-.72-2.07z" />
</svg>
