<!-- Generated by IcoMoon.io -->
<svg version="1.1" xmlns="http://www.w3.org/2000/svg" width="32" height="32" viewBox="0 0 32 32">
<title>writing</title>
<path d="M28.454 12.47c-0.023-0.387-0.291-0.716-0.666-0.816l-9.053-2.426c-0.077-0.021-0.156-0.031-0.233-0.031-0.297 0-0.582 0.148-0.751 0.404l-5.073 7.173c-0.335 0.507-0.391 1.149-0.15 1.707l4.809 11.114c0.087 0.289 0.316 0.528 0.629 0.611 0.078 0.021 0.156 0.031 0.234 0.031 0.233 0 0.454-0.091 0.619-0.248l9.719-7.219c0.488-0.362 0.76-0.947 0.724-1.554l-0.807-8.748zM27.056 21.629l-5.24 3.892c-0.685 0.509-1.627-0.132-1.407-0.956l0.905-3.379c0.066-0.246 0.233-0.454 0.46-0.568 0.467-0.235 0.83-0.671 0.951-1.228 0.193-0.888-0.323-1.798-1.184-2.087-0.994-0.334-2.049 0.243-2.316 1.24-0.138 0.515-0.038 1.038 0.233 1.451 0.137 0.209 0.187 0.463 0.122 0.705l-0.911 3.399c-0.221 0.824-1.357 0.908-1.696 0.125l-2.592-5.99c-0.125-0.288-0.090-0.621 0.091-0.878l4.040-5.712c0.218-0.308 0.604-0.447 0.968-0.35l6.628 1.776c0.364 0.098 0.629 0.412 0.664 0.787l0.642 6.967c0.029 0.313-0.108 0.618-0.36 0.806z"></path>
<path d="M29.56 4.099l-8.568-2.296c-0.078-0.021-0.156-0.031-0.234-0.031-0.398 0-0.761 0.265-0.869 0.668l-1.318 4.892c-0.129 0.48 0.156 0.974 0.637 1.103l8.568 2.296c0.078 0.021 0.156 0.031 0.234 0.031 0.398 0 0.761-0.265 0.869-0.668l1.318-4.892c0.129-0.48-0.156-0.974-0.637-1.103zM27.988 6.476l-0.381 1.414c-0.129 0.48-0.623 0.764-1.102 0.636l-5.089-1.363c-0.481-0.129-0.766-0.623-0.636-1.104l0.381-1.414c0.129-0.48 0.623-0.764 1.102-0.635l5.089 1.363c0.481 0.129 0.766 0.623 0.636 1.104z"></path>
<path d="M15.111 28.438h-12.449c-0.497 0-0.9 0.403-0.9 0.9s0.403 0.9 0.9 0.9h12.449c0.497 0 0.9-0.403 0.9-0.9s-0.403-0.9-0.9-0.9z"></path>
</svg>
