<svg
  xmlns="http://www.w3.org/2000/svg"
  width="64"
  height="64"
  viewBox="0 0 64 64"
  fill="black"
  fill-rule="nonzero"
>
  <path d="M58 59c0 1.1-.9 2-2 2H8c-1.1 0-2-.9-2-2s.9-2 2-2h48c1.1 0 2 .9 2 2zM21.96 33.02c0-1.66.68-3.17 1.76-4.26A5.991 5.991 0 0 1 27.98 27c1.66 0 3.17.68 4.26 1.76A5.991 5.991 0 0 1 34 33.02c0 1.66-.68 3.17-1.76 4.26a5.991 5.991 0 0 1-4.26 1.76c-.93 0-1.81-.21-2.6-.59l-9.98 9.98 22.05-7.35c.15-2.09.39-4.17.7-6.24.32-2.15.73-4.28 1.22-6.4l-6.79-6.79c-1.86.44-5.77 1.3-9.74 1.74-.97.11-1.96.19-2.93.23l-7.33 21.99 9.97-9.97c-.38-.79-.59-1.67-.59-2.6zm6.02 2.02c.56 0 1.06-.22 1.43-.59.37-.37.59-.87.59-1.43 0-.56-.22-1.06-.59-1.43-.37-.37-.87-.59-1.43-.59-.56 0-1.06.22-1.43.59a2.036 2.036 0 0 0-.06 2.8l.06.06.06.06c.36.33.84.53 1.37.53zm14.12.39c-.35 2.33-.6 4.68-.74 7.03.04.87-.5 1.7-1.37 1.99L8.66 54.89c-.15.05-.31.09-.46.11-.12.01-.24.01-.35.01-.46-.03-.92-.23-1.27-.58s-.55-.81-.58-1.27c-.01-.12-.01-.24.01-.35.02-.16.05-.31.11-.46l10.42-31.28c.04-.14.1-.26.16-.39.15-.26.34-.48.58-.65.23-.17.5-.29.8-.34.14-.03.28-.04.42-.03 1.23 0 2.55-.09 3.9-.24 2.47-.27 4.93-.72 6.83-1.11l-.08-.08a2 2 0 0 1-.16-2.64l9.12-11.73c.03-.04.06-.08.1-.12.15-.18.33-.32.53-.43.26-.15.55-.23.85-.25.29-.02.59.03.87.14.21.08.4.2.58.36.04.03.08.07.11.1l16.26 16.17.11.11c.15.17.27.37.36.58.11.28.16.58.14.87-.02.29-.1.58-.25.85-.11.19-.25.37-.42.53-.04.04-.08.07-.12.1l-11.77 9.16a2 2 0 0 1-2.64-.16l-.05-.05c-.24 1.2-.45 2.41-.63 3.63zm-8.88-18.8l11.14 11.14 8.61-6.7L39.88 8.05z" />
</svg>
