<!-- Generated by IcoMoon.io -->
<svg version="1.1" xmlns="http://www.w3.org/2000/svg" width="32" height="32" viewBox="0 0 32 32">
<title>write</title>
<path d="M26.483 6.15l-5.132-1.375c-0.48-0.129-0.974 0.156-1.103 0.637l-5.107 19.060c-0.051 0.19-0.038 0.391 0.036 0.573l1.66 4.067c0.146 0.357 0.486 0.56 0.836 0.56 0.19 0 0.384-0.060 0.55-0.189l3.471-2.692c0.155-0.121 0.267-0.289 0.318-0.478l5.107-19.060c0.129-0.48-0.156-0.974-0.637-1.103zM24.914 8.527l-4.484 16.735c-0.051 0.19-0.163 0.358-0.318 0.478l-1.118 0.867c-0.471 0.365-1.16 0.18-1.385-0.371l-0.535-1.31c-0.074-0.182-0.087-0.383-0.036-0.573l4.484-16.735c0.129-0.48 0.622-0.765 1.103-0.637l1.653 0.443c0.48 0.129 0.765 0.622 0.637 1.103z"></path>
<path d="M28.902 4.037l-1.493-0.4c-0.251-0.067-0.469-0.232-0.587-0.464-0.22-0.436-0.618-0.779-1.126-0.915l-1.718-0.46c-0.626-0.168-1.263 0.020-1.697 0.44-0.096 0.092-0.212 0.16-0.34 0.196-0.015 0.004-0.030 0.009-0.045 0.014-0.773 0.243-0.73 1.358 0.052 1.568l5.634 1.51c0.456 0.122 0.726 0.591 0.604 1.047l-2.771 10.341c-0.064 0.238-0.031 0.487 0.092 0.701s0.323 0.367 0.561 0.43c0.079 0.021 0.159 0.032 0.24 0.032 0.417 0 0.784-0.282 0.892-0.685l2.893-10.933 0.065-0.242-0.001-0 0.009-0.033c0.232-0.938-0.328-1.893-1.266-2.144z"></path>
<path d="M14.222 28.438h-9.781c-0.497 0-0.9 0.403-0.9 0.9s0.403 0.9 0.9 0.9h9.781c0.497 0 0.9-0.403 0.9-0.9s-0.403-0.9-0.9-0.9z"></path>
</svg>
