<!-- Generated by IcoMoon.io -->
<svg version="1.1" xmlns="http://www.w3.org/2000/svg" width="32" height="32" viewBox="0 0 32 32">
<title>zinc</title>
<path d="M26.35 23.21c-0.057-0.173-0.158-0.318-0.289-0.429l-0.001-0.001-5.19-4.3c-0.163-0.165-0.39-0.268-0.641-0.268-0.497 0-0.9 0.403-0.9 0.9 0 0.298 0.145 0.562 0.368 0.726l0.003 0.002 2.8 2.26c0.062 0.050 0.101 0.125 0.101 0.21 0 0.149-0.121 0.27-0.27 0.27-0.004 0-0.007-0-0.011-0l0.001 0h-11.24l11.76-11.76h2.63c0.004 0 0.008 0 0.012 0 0.482 0 0.876-0.374 0.908-0.847l0-0.003c0.001-0.012 0.001-0.026 0.001-0.040 0-0.497-0.403-0.9-0.9-0.9-0 0-0.001 0-0.001 0h-0.86l0.85-0.85c0.171-0.164 0.277-0.395 0.277-0.65s-0.106-0.486-0.277-0.65l-0-0c-0.164-0.155-0.386-0.25-0.63-0.25s-0.466 0.095-0.63 0.25l0-0-2.13 2.12h-13c-0.152-0.003-0.275-0.127-0.275-0.28 0-0.084 0.037-0.159 0.095-0.21l0-0 3.8-3.26c0.16-0.162 0.259-0.386 0.259-0.632 0-0.497-0.403-0.9-0.9-0.9-0.199 0-0.383 0.065-0.532 0.174l0.002-0.002-6.23 5.34c-0.198 0.166-0.322 0.414-0.322 0.69s0.125 0.524 0.321 0.689l0.001 0.001 5.21 4.32c0.155 0.134 0.358 0.215 0.58 0.215 0.272 0 0.515-0.122 0.679-0.314l0.001-0.001c0.136-0.156 0.22-0.361 0.22-0.585 0-0.269-0.12-0.511-0.308-0.674l-0.001-0.001-2.8-2.26c-0.058-0.052-0.095-0.127-0.095-0.21 0-0.153 0.122-0.277 0.275-0.28h11.23l-11.76 11.76h-2.66c-0.498 0.005-0.901 0.411-0.901 0.91 0 0.011 0 0.021 0.001 0.032l-0-0.002c0.032 0.482 0.431 0.86 0.918 0.86 0.004 0 0.008-0 0.013-0h0.829l-0.85 0.85c-0.171 0.164-0.277 0.395-0.277 0.65s0.106 0.486 0.277 0.65l0 0c0.161 0.138 0.372 0.222 0.603 0.222 0.257 0 0.489-0.104 0.657-0.272v0l2.1-2.1h13c0.003-0 0.007-0 0.011-0 0.149 0 0.27 0.121 0.27 0.27 0 0.085-0.039 0.16-0.1 0.21l-0 0-3.8 3.26c-0.194 0.166-0.316 0.411-0.316 0.685 0 0.224 0.082 0.429 0.217 0.586l-0.001-0.001c0.166 0.191 0.409 0.31 0.68 0.31 0.226 0 0.433-0.083 0.591-0.221l-0.001 0.001 6.21-5.32c0.224-0.166 0.368-0.429 0.368-0.726 0-0.080-0.010-0.157-0.030-0.23l0.001 0.006z"></path>
</svg>
