<!-- Generated by IcoMoon.io -->
<svg version="1.1" xmlns="http://www.w3.org/2000/svg" width="32" height="32" viewBox="0 0 32 32">
<title>zip</title>
<path d="M14.36 21.335c-0.077 0-0.139 0.062-0.139 0.139v3.407c0 0.497 0.403 0.9 0.9 0.9h1.756c0.497 0 0.9-0.403 0.9-0.9v-5.186c0-0.077-0.062-0.139-0.139-0.139h-1.501c-0.077 0-0.139 0.062-0.139 0.139v1.501c0 0.077-0.062 0.139-0.139 0.139h-1.501z"></path>
<path d="M14.36 8.886h1.501c0.077 0 0.139-0.062 0.139-0.139v-1.501c0-0.077-0.062-0.139-0.139-0.139h-1.501c-0.077 0-0.139 0.062-0.139 0.139v1.501c0 0.077 0.062 0.139 0.139 0.139z"></path>
<path d="M14.36 12.443h1.501c0.077 0 0.139-0.062 0.139-0.139v-1.501c0-0.077-0.062-0.139-0.139-0.139h-1.501c-0.077 0-0.139 0.062-0.139 0.139v1.501c0 0.076 0.062 0.139 0.139 0.139z"></path>
<path d="M14.36 16h1.501c0.077 0 0.139-0.062 0.139-0.139v-1.501c0-0.077-0.062-0.139-0.139-0.139h-1.501c-0.077 0-0.139 0.062-0.139 0.139v1.501c0 0.077 0.062 0.139 0.139 0.139z"></path>
<path d="M14.36 19.557h1.501c0.077 0 0.139-0.062 0.139-0.139v-1.501c0-0.077-0.062-0.139-0.139-0.139h-1.501c-0.077 0-0.139 0.062-0.139 0.139v1.501c0 0.077 0.062 0.139 0.139 0.139z"></path>
<path d="M17.778 6.969v-1.501c0-0.077-0.062-0.139-0.139-0.139h-1.501c-0.077 0-0.139 0.062-0.139 0.139v1.501c0 0.077 0.062 0.139 0.139 0.139h1.501c0.077 0 0.139-0.062 0.139-0.139z"></path>
<path d="M17.778 10.526v-1.501c0-0.077-0.062-0.139-0.139-0.139h-1.501c-0.077 0-0.139 0.062-0.139 0.139v1.501c0 0.077 0.062 0.139 0.139 0.139h1.501c0.077 0 0.139-0.062 0.139-0.139z"></path>
<path d="M17.778 14.083v-1.501c0-0.077-0.062-0.139-0.139-0.139h-1.501c-0.077 0-0.139 0.062-0.139 0.139v1.501c0 0.077 0.062 0.139 0.139 0.139h1.501c0.077 0 0.139-0.062 0.139-0.139z"></path>
<path d="M17.778 17.64v-1.501c0-0.077-0.062-0.139-0.139-0.139h-1.501c-0.077 0-0.139 0.062-0.139 0.139v1.501c0 0.077 0.062 0.139 0.139 0.139h1.501c0.077 0 0.139-0.062 0.139-0.139z"></path>
<path d="M26.473 10.418l-6.646-8.308c-0.171-0.214-0.43-0.338-0.703-0.338h-12.894c-0.497 0-0.9 0.403-0.9 0.9v26.654c0 0.497 0.403 0.9 0.9 0.9h19.54c0.497 0 0.9-0.403 0.9-0.9v-18.347c-0-0.204-0.070-0.403-0.197-0.563zM24.87 27.526c0 0.497-0.403 0.9-0.9 0.9h-15.939c-0.497 0-0.9-0.403-0.9-0.9v-23.052c0-0.497 0.403-0.9 0.9-0.9h6.052c0.077 0 0.139 0.062 0.139 0.139v1.479c0 0.077 0.062 0.139 0.139 0.139h1.501c0.077 0 0.139-0.062 0.139-0.139v-1.479c0-0.077 0.062-0.139 0.139-0.139h1.629c0.497 0 0.9 0.403 0.9 0.9v6.18c0 0.497 0.403 0.9 0.9 0.9h4.401c0.497 0 0.9 0.403 0.9 0.9v15.072z"></path>
</svg>
