<svg
  xmlns="http://www.w3.org/2000/svg"
  width="64"
  height="64"
  viewBox="0 0 64 64"
  fill="black"
  fill-rule="nonzero"
>
  <path d="M25.72 38.28v6.29H32v-6.29zM38.29 32H32v6.28h6.29zm-12.57-6.29V32H32v-6.29zm12.57 0v-6.28H32v6.28zm-12.57-6.28H32v-6.29h-6.28zM55.05 2.67H4.77a2.1 2.1 0 1 0 0 4.19H32v6.28h6.29V6.86h16.76A2.09 2.09 0 0 1 57.14 9v46.1a2.08 2.08 0 0 1-2.09 2.09H32v-6.33h-6.29v6.28H9a2.09 2.09 0 0 1-2.09-2.09V17.34A2.1 2.1 0 0 1 9 15.24h10.44a2.1 2.1 0 0 0 0-4.19H9a6.28 6.28 0 0 0-6.28 6.29v37.71A6.28 6.28 0 0 0 9 61.33h46.1a6.28 6.28 0 0 0 6.28-6.28V9a6.28 6.28 0 0 0-6.28-6.28zM38.29 50.85H32v-6.28h6.29z" />
</svg>
