<!-- Generated by IcoMoon.io -->
<svg version="1.1" xmlns="http://www.w3.org/2000/svg" width="32" height="32" viewBox="0 0 32 32">
<title>zipa</title>
<path d="M18.352 23.057h-2.352v-2.352h2.352v2.352zM24.626 5.022l-18.82 0.001c-0.433 0-0.784 0.351-0.784 0.784s0.351 0.784 0.784 0.784h10.194v2.352h2.352v-2.352h6.273c0.433 0 0.784 0.351 0.784 0.784v17.252c0 0.433-0.351 0.784-0.784 0.784h-8.626v-2.353h-2.353v2.353h-6.273c-0.433 0-0.784-0.351-0.784-0.784v-14.115c0-0.433 0.351-0.784 0.784-0.784h3.923c0.433 0 0.784-0.351 0.784-0.784s-0.351-0.784-0.784-0.784c-0.001 0-0.001 0-0.002 0l-3.921-0c-1.299 0-2.353 1.053-2.353 2.352v14.115c0 1.299 1.053 2.352 2.353 2.352h17.252c1.299 0 2.352-1.053 2.352-2.352v-17.252c-0-1.299-1.053-2.353-2.353-2.353zM13.648 11.295h2.352v-2.352h-2.352v2.352zM18.352 13.647v-2.352h-2.352v2.352h2.352zM13.648 13.647v2.352h2.352v-2.352h-2.352zM18.352 16h-2.352v2.352h2.352v-2.352zM13.648 18.352v2.352h2.352v-2.352h-2.352z"></path>
</svg>
