<svg
  xmlns="http://www.w3.org/2000/svg"
  width="64"
  height="64"
  viewBox="0 0 64 64"
  fill="black"
  fill-rule="nonzero"
>
  <path d="M4 27c0-6.35 2.58-12.1 6.74-16.26A22.93 22.93 0 0 1 27 4c6.35 0 12.1 2.58 16.26 6.74A22.93 22.93 0 0 1 50 27c0 5.63-2.03 10.79-5.38 14.79l14.8 14.8c.78.78.78 2.05 0 2.83-.78.78-2.05.78-2.83 0l-14.8-14.8C37.79 47.98 32.63 50 27 50c-6.35 0-12.1-2.58-16.26-6.74A22.93 22.93 0 0 1 4 27zm9.56 13.44C17 43.88 21.75 46 27 46s9.99-2.12 13.44-5.56C43.88 37 46 32.25 46 27s-2.12-9.99-5.56-13.44A18.938 18.938 0 0 0 27 8c-5.25 0-9.99 2.12-13.44 5.56A18.938 18.938 0 0 0 8 27c0 5.25 2.12 9.99 5.56 13.44zM38 27c0 1.1-.9 2-2 2H18c-1.1 0-2-.9-2-2s.9-2 2-2h18c1.1 0 2 .9 2 2z" />
</svg>
