<!-- Generated by IcoMoon.io -->
<svg version="1.1" xmlns="http://www.w3.org/2000/svg" width="32" height="32" viewBox="0 0 32 32">
<title>zsync</title>
<path d="M26.978 7.374v17.252c0 1.299-1.053 2.352-2.352 2.352h-17.252c-1.299 0-2.353-1.053-2.353-2.352v-14.115c0-1.299 1.053-2.352 2.353-2.352l8.234-0.013c4.547 0 8.246 3.699 8.246 8.246s-3.699 8.246-8.246 8.246-8.246-3.699-8.246-8.246c0-1.165 0.315-2.345 0.938-3.522l-0.327-0.327c-0.309-0.309-0.168-0.838 0.255-0.951l2.351-0.63c0.423-0.113 0.81 0.274 0.696 0.696l-0.63 2.351c-0.113 0.423-0.642 0.564-0.951 0.255l-0.204-0.204c-0.355 0.792-0.535 1.572-0.535 2.331 0 3.668 2.985 6.653 6.653 6.653s6.653-2.985 6.653-6.653-2.985-6.653-6.653-6.653l-8.234-0.012c-0.433 0-0.784 0.351-0.784 0.784v14.115c0 0.433 0.351 0.784 0.784 0.784h17.252c0.433 0 0.784-0.351 0.784-0.784v-17.252c0-0.433-0.351-0.784-0.784-0.784h-18.82c-0.433 0-0.784-0.351-0.784-0.784s0.351-0.784 0.784-0.784l18.82-0.001c1.299 0 2.352 1.053 2.352 2.353zM11.379 14.448c0.517-0.1 1.048 0.062 1.42 0.434l2.75 2.75c0.020 0.020 0.040 0.041 0.059 0.063 0.019-0.021 0.039-0.042 0.059-0.063l2.75-2.75c0.372-0.372 0.903-0.534 1.42-0.434s0.947 0.448 1.152 0.931c0.591 1.388 0.284 2.975-0.784 4.042-0.707 0.707-1.641 1.080-2.595 1.080-0.486 0-0.978-0.097-1.447-0.297-0.215-0.092-0.404-0.229-0.556-0.398-0.152 0.169-0.34 0.306-0.556 0.398-0.469 0.2-0.96 0.297-1.447 0.297-0.954 0-1.888-0.374-2.595-1.080-1.067-1.067-1.375-2.654-0.784-4.042 0.206-0.483 0.636-0.831 1.152-0.931zM16.806 18.746c0.783 0.325 1.673 0.148 2.273-0.452s0.777-1.49 0.452-2.273l-2.725 2.725zM12.137 18.294c0.6 0.6 1.49 0.777 2.273 0.452l-2.725-2.725c-0.325 0.783-0.148 1.673 0.452 2.273z"></path>
</svg>
