<svg
  xmlns="http://www.w3.org/2000/svg"
  width="64"
  height="64"
  viewBox="0 0 64 64"
  fill="black"
  fill-rule="nonzero"
>
  <path d="M21.68 38.13a5.54 5.54 0 0 0 6.07 1.21l-7.28-7.28a5.54 5.54 0 0 0 1.21 6.07zm12.47 1.21a5.58 5.58 0 0 0 7.29-7.28zm-14.5-11.48a4.21 4.21 0 0 1 3.8 1.14l7.35 7.34.15.17.16-.17L38.46 29a4.23 4.23 0 0 1 6.87 1.32 9.81 9.81 0 0 1-12.89 12.91A4.18 4.18 0 0 1 31 42.17a4.15 4.15 0 0 1-1.48 1.06 9.83 9.83 0 0 1-12.9-12.89 4.19 4.19 0 0 1 3.08-2.48zM61.33 9v46.05a6.28 6.28 0 0 1-6.28 6.28H9a6.28 6.28 0 0 1-6.28-6.28V17.34A6.29 6.29 0 0 1 9 11.05h22a22 22 0 1 1-22 22 20 20 0 0 1 2.51-9.41l-.88-.87a1.52 1.52 0 0 1 .69-2.54l6.28-1.69a1.52 1.52 0 0 1 1.86 1.86l-1.69 6.28a1.52 1.52 0 0 1-2.54.68l-.54-.54a15.19 15.19 0 0 0-1.43 6.23A17.78 17.78 0 1 0 31 15.27H9a2.1 2.1 0 0 0-2.09 2.09v37.69A2.1 2.1 0 0 0 9 57.14h46.1a2.09 2.09 0 0 0 2.09-2.09V9a2.09 2.09 0 0 0-2.09-2.09H4.76a2.1 2.1 0 0 1 0-4.19h50.29A6.28 6.28 0 0 1 61.33 9z" />
</svg>
