<svg
  xmlns="http://www.w3.org/2000/svg"
  width="64"
  height="64"
  viewBox="0 0 64 64"
  fill="black"
  fill-rule="nonzero"
>
  <path d="M56.66 13.94L35.33 3.27a7.54 7.54 0 0 0-6.65 0L18.22 8.5a2.14 2.14 0 0 0 0 3.82l25.47 12.74v8.27a2.14 2.14 0 0 0 4.27 0v-9.59a2.14 2.14 0 0 0-1.18-1.91L23.94 10.41l6.64-3.32a3.22 3.22 0 0 1 2.84 0l21.34 10.67a3.18 3.18 0 0 1 1.77 2.86v22.75a3.18 3.18 0 0 1-1.77 2.86L34.13 56.55v-25.9A2.12 2.12 0 0 0 33 28.74L6.29 15.41a2.11 2.11 0 0 0-2.08.09 2.14 2.14 0 0 0-1 1.82v26a7.41 7.41 0 0 0 4.12 6.72l21.32 10.68a7.54 7.54 0 0 0 6.68 0l21.33-10.67a7.43 7.43 0 0 0 4.14-6.68V20.62a7.43 7.43 0 0 0-4.14-6.68zM29.87 56.56L9.23 46.24a3.2 3.2 0 0 1-1.76-2.9V20.77L29.87 32z" />
</svg>
