<svg width="32" height="32" viewBox="0 0 32 32" fill="none" xmlns="http://www.w3.org/2000/svg">
<path fill-rule="evenodd" clip-rule="evenodd" d="M10.5061 7.27086C11.3607 6.90458 12.2018 6.79001 13 6.79001C13.7982 6.79001 14.6393 6.90458 15.4939 7.27086C16.2787 7.60721 16.9435 8.05044 17.527 8.43946L17.6371 8.51288L17.7071 8.5829C17.7226 8.59835 17.7381 8.61393 17.7539 8.62964C18.2076 9.0831 18.7656 9.64074 19.1308 10.2317C19.5174 10.7626 19.8 11.4513 19.8 12.19V15.9066C19.8 16.2071 19.8001 16.7884 19.6806 17.3861L19.6778 17.3998C19.5786 17.8961 19.4684 18.447 19.2487 19.1062L19.2394 19.1341L19.2285 19.1614C19.0071 19.7148 18.6827 20.3625 18.3575 20.9045C18.09 21.3503 17.8018 21.7582 17.387 22.1545L23.461 25.0017L24.1707 25.4073C24.2584 25.4507 24.4502 25.5468 24.6152 25.6843C24.83 25.8633 25.1 26.1949 25.1 26.69V27.29C25.1 29.1423 23.5523 30.69 21.7 30.69H4.4C2.54772 30.69 1 29.1423 1 27.29V26.69C1 26.3735 1.13844 26.1421 1.20233 26.0462C1.28508 25.9221 1.38463 25.8178 1.48482 25.7343C1.6123 25.6281 1.80718 25.5018 2.05464 25.4356L2.63896 25.1017L8.67094 22.2742C8.33015 21.9282 7.94744 21.5127 7.64251 21.0045L7.62467 20.9748C7.33814 20.4974 6.99525 19.926 6.76049 19.2335C6.55673 18.7133 6.44128 18.1152 6.35735 17.6805C6.34399 17.6112 6.33142 17.5461 6.31942 17.4861C6.19994 16.8887 6.19997 16.4062 6.2 16.008L6.2 12.29C6.2 11.5421 6.49102 10.8683 6.82348 10.3074C7.20768 9.55756 7.80306 8.97232 8.33444 8.54203C8.96787 7.92894 9.79995 7.57297 10.436 7.30086C10.4596 7.29075 10.483 7.28075 10.5061 7.27086ZM13 8.79001C12.3982 8.79001 11.8393 8.87543 11.2939 9.10915C10.5516 9.42729 10.0457 9.65857 9.70711 9.99712L9.66794 10.0363L9.62469 10.0709C9.17445 10.4311 8.80129 10.8235 8.59443 11.2372L8.57725 11.2716L8.55749 11.3045C8.29779 11.7373 8.2 12.0521 8.2 12.29V15.99C8.2 16.3884 8.20187 16.7003 8.28058 17.0939C8.29653 17.1736 8.31183 17.2517 8.32681 17.3281C8.41644 17.7854 8.49449 18.1836 8.62848 18.5186L8.63939 18.5459L8.64868 18.5738C8.80891 19.0545 9.05124 19.4651 9.35749 19.9755C9.57691 20.3412 9.87451 20.6497 10.2683 21.0441C10.7634 21.4577 10.894 22.0622 10.8445 22.5322C10.7944 23.008 10.5334 23.5913 9.94721 23.8844L9.93589 23.8901L3.56104 26.8783L3 27.1989V27.29C3 28.0377 3.65228 28.69 4.4 28.69H21.7C22.4477 28.69 23.1 28.0377 23.1 27.29V27.0989L22.539 26.7783L16.1966 23.8053C15.6444 23.5723 15.2701 23.0932 15.1761 22.5294C15.0817 21.963 15.2814 21.3944 15.6929 20.9829L15.7321 20.9437L15.7753 20.9091C16.154 20.6062 16.3816 20.3104 16.6425 19.8755C16.9118 19.4267 17.1818 18.8874 17.3606 18.4457C17.5327 17.9234 17.6211 17.4853 17.7194 16.9939C17.7976 16.6028 17.8 16.1946 17.8 15.89V12.19C17.8 11.9482 17.6978 11.6537 17.5 11.39L17.469 11.3487L17.4425 11.3045C17.2291 10.9489 16.8556 10.5609 16.3628 10.0671C15.7875 9.68409 15.2815 9.35575 14.7061 9.10915C14.1607 8.87543 13.6018 8.79001 13 8.79001Z" fill="black"/>
<path fill-rule="evenodd" clip-rule="evenodd" d="M16.5061 1.17086C17.3607 0.804577 18.2018 0.690002 19 0.690002C19.9648 0.690002 20.7885 0.932091 21.4162 1.14132L21.4557 1.15447L21.4939 1.17086C22.2787 1.50721 22.9435 1.95044 23.527 2.33946L23.6371 2.41288L23.7071 2.4829C23.7226 2.49835 23.7382 2.51394 23.7539 2.52964C24.2076 2.9831 24.7656 3.54073 25.1308 4.13169C25.5174 4.66264 25.8 5.35128 25.8 6.09L25.8 9.9066C25.8 10.2071 25.8001 10.7884 25.6806 11.3861L25.6778 11.3999C25.5786 11.8961 25.4684 12.447 25.2487 13.1062L25.2394 13.1341L25.2285 13.1614C25.0071 13.7148 24.6827 14.3625 24.3575 14.9045C24.09 15.3503 23.8018 15.7582 23.387 16.1545L29.461 19.0017L30.1707 19.4072C30.2584 19.4507 30.4502 19.5468 30.6152 19.6843C30.83 19.8633 31.1 20.1949 31.1 20.69V21.29C31.1 23.1423 29.5523 24.69 27.7 24.69H25C24.4477 24.69 24 24.2423 24 23.69C24 23.1377 24.4477 22.69 25 22.69H27.7C28.4477 22.69 29.1 22.0377 29.1 21.29V21.0989L28.5389 20.7783L22.1963 17.8052C21.5944 17.5504 21.2577 17.0092 21.1747 16.4835C21.0921 15.9599 21.2447 15.3168 21.7841 14.902C22.1576 14.6015 22.3836 14.307 22.6425 13.8755C22.9118 13.4267 23.1818 12.8874 23.3606 12.4457C23.5327 11.9234 23.6211 11.4853 23.7194 10.9939C23.7976 10.6028 23.8 10.1946 23.8 9.89V6.09C23.8 5.84821 23.6978 5.55367 23.5 5.29L23.469 5.24873L23.4425 5.2045C23.2291 4.84885 22.8556 4.46086 22.3628 3.96709C21.7999 3.59236 21.3034 3.26996 20.7433 3.02525C20.1843 2.84056 19.6202 2.69 19 2.69C18.3982 2.69 17.8393 2.77543 17.2939 3.00915C16.5516 3.32728 16.0457 3.55856 15.7071 3.89711L15.675 3.92918L15.6402 3.95822C15.1256 4.38704 14.8101 4.70182 14.5053 5.13744C14.4981 5.15378 14.4903 5.17039 14.4819 5.18722C14.4164 5.31835 14.3023 5.4799 14.1125 5.60643C13.9165 5.73713 13.7 5.79 13.5 5.79C12.9477 5.79 12.5 5.34229 12.5 4.79C12.5 4.49901 12.6243 4.23705 12.8227 4.05431C13.2684 3.40358 13.7243 2.95379 14.3274 2.44886C14.9617 1.83158 15.7976 1.47398 16.436 1.20086C16.4596 1.19074 16.483 1.18075 16.5061 1.17086Z" fill="black"/>
</svg>
