<svg width="32" height="32" viewBox="0 0 32 32" fill="none" xmlns="http://www.w3.org/2000/svg">
<path d="M16.5061 1.17086C17.3607 0.804577 18.2018 0.690002 19 0.690002C19.9409 0.690002 20.7558 0.922957 21.4337 1.11676L21.5357 1.14589L21.5939 1.17086C22.3787 1.50721 23.0435 1.95044 23.627 2.33946L23.7371 2.41288L23.8539 2.52964C24.3076 2.9831 24.8656 3.54073 25.2308 4.13169C25.6174 4.66264 25.9 5.35128 25.9 6.09L25.9 9.90658C25.9 10.2071 25.9001 10.7884 25.7806 11.3861L25.7778 11.3999C25.6786 11.8961 25.5684 12.447 25.3487 13.1062C25.174 13.6302 24.6077 13.9133 24.0838 13.7387C23.5598 13.564 23.2767 12.9977 23.4513 12.4738C23.6296 11.9391 23.7194 11.4941 23.8194 10.9939C23.8976 10.6028 23.9 10.1946 23.9 9.89V6.09C23.9 5.84821 23.7978 5.55367 23.6 5.29L23.569 5.24873L23.5425 5.2045C23.3291 4.84885 22.9556 4.46086 22.4628 3.96709C21.9062 3.59654 21.4145 3.27716 20.862 3.03347C20.1773 2.8383 19.621 2.69 19 2.69C18.3982 2.69 17.8393 2.77543 17.2939 3.00915C16.5516 3.32728 16.0457 3.55856 15.7071 3.89711L15.675 3.92918L15.6402 3.95822C15.1256 4.38704 14.8101 4.70182 14.5053 5.13744C14.4981 5.15378 14.4903 5.17039 14.4819 5.18722C14.4164 5.31835 14.3023 5.4799 14.1125 5.60643C13.9165 5.73713 13.7 5.79 13.5 5.79C12.9477 5.79 12.5 5.34229 12.5 4.79C12.5 4.49901 12.6243 4.23705 12.8227 4.05431C13.2684 3.40358 13.7243 2.95379 14.3274 2.44886C14.9617 1.83158 15.7976 1.47398 16.436 1.20086L16.5061 1.17086Z" fill="black"/>
<path d="M23 18.2758L26.7071 21.9829C27.0976 22.3734 27.0976 23.0066 26.7071 23.3971C26.3166 23.7876 25.6834 23.7876 25.2929 23.3971L24 22.1042V25.69C24 26.2423 23.5523 26.69 23 26.69C22.4477 26.69 22 26.2423 22 25.69V22.1042L20.7071 23.3971C20.3166 23.7876 19.6834 23.7876 19.2929 23.3971C18.9024 23.0066 18.9024 22.3734 19.2929 21.9829L23 18.2758Z" fill="black"/>
<path fill-rule="evenodd" clip-rule="evenodd" d="M15 22.69C15 18.2717 18.5817 14.69 23 14.69C27.4183 14.69 31 18.2717 31 22.69C31 27.1083 27.4183 30.69 23 30.69C18.5817 30.69 15 27.1083 15 22.69ZM23 16.69C19.6863 16.69 17 19.3763 17 22.69C17 26.0037 19.6863 28.69 23 28.69C26.3137 28.69 29 26.0037 29 22.69C29 19.3763 26.3137 16.69 23 16.69Z" fill="black"/>
<path d="M13.1 6.79001C12.3018 6.79001 11.4607 6.90458 10.6061 7.27086L10.536 7.30086C9.89995 7.57297 9.06787 7.92894 8.43444 8.54203C7.90306 8.97232 7.30768 9.55756 6.92348 10.3074C6.59102 10.8683 6.3 11.5421 6.3 12.29L6.3 16.008C6.29997 16.4062 6.29994 16.8887 6.41942 17.4861C6.43142 17.5461 6.44399 17.6112 6.45736 17.6805C6.54128 18.1152 6.65673 18.7133 6.86049 19.2335C7.09525 19.926 7.43814 20.4974 7.72467 20.9748L7.74251 21.0045C8.04744 21.5127 8.43015 21.9282 8.77094 22.2742L2.73896 25.1017L2.1801 25.4211C1.93932 25.4685 1.72751 25.5665 1.55626 25.6888C1.43595 25.7747 1.3186 25.8848 1.2222 26.0197C1.14336 26.1301 1 26.3665 1 26.69V27.29C1 29.1148 2.42059 30.69 4.4 30.69H15.9C16.4523 30.69 16.9 30.2423 16.9 29.69C16.9 29.1377 16.4523 28.69 15.9 28.69H4.4C3.57941 28.69 3 28.0652 3 27.29V27.256L3.66104 26.8783L10.0359 23.8901L10.0472 23.8844C10.6334 23.5913 10.8944 23.008 10.9445 22.5322C10.994 22.0622 10.8634 21.4577 10.3683 21.0441C9.97451 20.6497 9.67691 20.3412 9.45749 19.9755C9.15124 19.4651 8.90891 19.0545 8.74868 18.5738L8.73939 18.5459L8.72848 18.5186C8.59449 18.1836 8.51644 17.7854 8.42681 17.3281C8.41183 17.2517 8.39652 17.1736 8.38058 17.0939C8.30187 16.7003 8.3 16.3884 8.3 15.99V12.29C8.3 12.0521 8.39779 11.7373 8.65749 11.3045L8.67725 11.2716L8.69443 11.2372C8.90129 10.8235 9.27445 10.4311 9.7247 10.0709L9.76794 10.0363L9.80711 9.99712C10.1457 9.65857 10.6516 9.42729 11.3939 9.10915C11.9393 8.87543 12.4982 8.79001 13.1 8.79001C13.7018 8.79001 14.2607 8.87543 14.8061 9.10915C15.3815 9.35574 15.8875 9.68409 16.4628 10.0671C16.9556 10.5609 17.3291 10.9489 17.5425 11.3045L17.569 11.3487L17.6 11.39C17.7978 11.6537 17.9 11.9482 17.9 12.19V13.59C17.9 14.1423 18.3477 14.59 18.9 14.59C19.4523 14.59 19.9 14.1423 19.9 13.59V12.19C19.9 11.4513 19.6174 10.7626 19.2308 10.2317C18.8656 9.64074 18.3076 9.0831 17.8539 8.62964L17.7371 8.51288L17.627 8.43947C17.0435 8.05044 16.3787 7.60721 15.5939 7.27086C14.7393 6.90458 13.8982 6.79001 13.1 6.79001Z" fill="black"/>
</svg>
