<svg width="32" height="32" viewBox="0 0 32 32" fill="none" xmlns="http://www.w3.org/2000/svg">
<path fill-rule="evenodd" clip-rule="evenodd" d="M23 16.69C19.6863 16.69 17 19.3763 17 22.69C17 26.0037 19.6863 28.69 23 28.69C26.3137 28.69 29 26.0037 29 22.69C29 19.3763 26.3137 16.69 23 16.69ZM15 22.69C15 18.2717 18.5817 14.69 23 14.69C27.4183 14.69 31 18.2717 31 22.69C31 27.1083 27.4183 30.69 23 30.69C18.5817 30.69 15 27.1083 15 22.69Z" fill="black"/>
<path fill-rule="evenodd" clip-rule="evenodd" d="M23 17.69C23.5523 17.69 24 18.1377 24 18.69V22.2758L25.7071 23.9829C26.0976 24.3734 26.0976 25.0066 25.7071 25.3971C25.3166 25.7876 24.6834 25.7876 24.2929 25.3971L22 23.1042V18.69C22 18.1377 22.4477 17.69 23 17.69Z" fill="black"/>
<path fill-rule="evenodd" clip-rule="evenodd" d="M13.0838 1.24132C14.042 0.921922 15.0545 0.690002 16.1 0.690002C17.1451 0.690002 18.1548 0.922424 19.1873 1.23218L19.2481 1.25041L19.3061 1.27619C20.221 1.68278 21.1341 2.13071 21.9508 2.83075C22.6663 3.44405 23.3644 4.12513 23.8508 4.96349C24.3156 5.66742 24.6 6.35217 24.6 7.29C24.6 9.43934 24.7965 11.1378 25.1615 12.4153C25.3132 12.9463 25.0058 13.4998 24.4747 13.6515C23.9437 13.8033 23.3902 13.4958 23.2385 12.9647C22.8035 11.4423 22.6 9.54066 22.6 7.29C22.6 6.84034 22.492 6.53082 22.1679 6.0447L22.1488 6.01605L22.1318 5.98614C21.8188 5.43846 21.3251 4.92857 20.6492 4.34926C20.0788 3.8603 19.4092 3.51279 18.552 3.12973C17.612 2.85063 16.8391 2.69 16.1 2.69C15.359 2.69 14.5862 2.85213 13.7613 3.12376C12.8516 3.52838 12.1103 3.86972 11.5508 4.34926C10.8749 4.92857 10.3812 5.43846 10.0682 5.98614L10.0512 6.01605L10.0321 6.0447C9.70797 6.53082 9.6 6.84034 9.6 7.29V7.32654L9.59733 7.36298C9.28919 11.5742 8.4371 14.1884 7.6876 15.8613C7.40532 16.4915 7.13202 16.9968 6.93742 17.3567C6.92599 17.3779 6.91484 17.3985 6.90398 17.4186C6.92527 17.4238 6.94711 17.4291 6.9695 17.4345C7.47597 17.5553 8.13751 17.672 8.84225 17.7916C8.94123 17.8084 9.04108 17.8252 9.14128 17.8421C9.73751 17.9427 10.3459 18.0454 10.8518 18.1496C11.1474 18.2105 11.4317 18.2767 11.6723 18.3497C11.8612 18.407 12.1836 18.5122 12.4306 18.7139C13.5398 19.608 13.244 21.286 12.0472 21.8844L12.036 21.89L3.95571 25.6808L3.12115 26.1444C3.07617 26.1745 3.03649 26.2011 3 26.2264V26.69C3 27.8377 3.85228 28.69 5 28.69H15.8C16.3523 28.69 16.8 29.1377 16.8 29.69C16.8 30.2423 16.3523 30.69 15.8 30.69H5C2.74772 30.69 1 28.9423 1 26.69V25.89C1 25.3143 1.40033 24.9518 1.52314 24.8426C1.68898 24.6952 1.89003 24.5613 2.02351 24.4725C2.03099 24.4675 2.03826 24.4626 2.0453 24.458L2.07898 24.4355L3.04428 23.8992L10.9043 20.2118C10.7769 20.1793 10.6245 20.1448 10.4482 20.1085C9.9808 20.0122 9.41447 19.9166 8.81486 19.8153C8.71333 19.7982 8.61086 19.7809 8.50775 19.7634C7.81249 19.6455 7.08653 19.5185 6.5055 19.3799C6.21707 19.3111 5.93201 19.2321 5.69098 19.1386C5.57058 19.092 5.43685 19.0325 5.30988 18.9556C5.19604 18.8867 5.01042 18.7584 4.86795 18.5447L4.84884 18.516L4.83176 18.4861C4.59421 18.0704 4.6501 17.6556 4.72162 17.398C4.78955 17.1534 4.91077 16.9101 5.01342 16.7134C5.07201 16.6011 5.1344 16.4856 5.20041 16.3635C5.39202 16.0089 5.61411 15.5979 5.8624 15.0437C6.51105 13.5958 7.30627 11.2193 7.60017 7.25101C7.60795 6.33312 7.89085 5.65763 8.34924 4.9635C8.83561 4.12513 9.53369 3.44405 10.2492 2.83075C11.0613 2.13469 12.0757 1.68407 12.933 1.30324C12.9534 1.29418 12.9737 1.28517 12.9939 1.27619L13.038 1.25658L13.0838 1.24132Z" fill="black"/>
</svg>
