<svg width="32" height="32" viewBox="0 0 32 32" fill="none" xmlns="http://www.w3.org/2000/svg">
<path fill-rule="evenodd" clip-rule="evenodd" d="M16 1.69C8.26801 1.69 2 7.95802 2 15.69C2 23.422 8.26801 29.69 16 29.69C23.732 29.69 30 23.422 30 15.69C30 7.95802 23.732 1.69 16 1.69ZM4 15.69C4 9.06259 9.37258 3.69 16 3.69C22.6274 3.69 28 9.06259 28 15.69C28 19.0745 26.5989 22.1317 24.345 24.3133L20.5818 22.5518C21.0638 22.1152 21.4493 21.6142 21.745 21.1252C22.1813 20.4676 22.5192 19.7946 22.7487 19.1062L22.7598 19.0729C22.9523 18.4954 23.1734 17.8324 23.2864 17.1544C23.4 16.4726 23.4 15.9046 23.4 15.5024V11.49C23.4 10.7352 23.0983 10.0506 22.7944 9.44279L22.7666 9.3871L22.7321 9.3353C22.2592 8.62603 21.6811 8.05587 21.0402 7.52178C20.3462 6.94348 19.5464 6.48939 18.6511 6.15367L18.6134 6.13954L18.5747 6.12848C17.8652 5.92576 16.9499 5.69 16 5.69C15.0501 5.69 14.1348 5.92576 13.4253 6.12848L13.3866 6.13954L13.3489 6.15367C12.4536 6.48939 11.6538 6.94348 10.9598 7.52178C10.3189 8.05587 9.7408 8.62603 9.26795 9.3353L9.25475 9.3551L9.24251 9.37551C8.87803 9.98297 8.6 10.76 8.6 11.49V15.5025C8.59999 15.9046 8.59997 16.4726 8.71361 17.1544C8.8266 17.8323 9.04766 18.4954 9.24019 19.0729L9.25132 19.1062C9.4774 19.7845 9.80883 20.4479 10.2359 21.0963C10.5669 21.726 11.0813 22.2115 11.4135 22.525L11.4341 22.5444L7.65501 24.3133C5.40114 22.1317 4 19.0745 4 15.69ZM9.3922 25.7084C11.2872 26.9608 13.5585 27.69 16 27.69C18.4415 27.69 20.7128 26.9608 22.6078 25.7084L19.3974 24.2057C18.1018 23.6614 18.0843 22.0019 19.0753 21.2091C19.4641 20.8981 19.7902 20.496 20.0425 20.0755L20.0548 20.0551L20.068 20.0353C20.4254 19.4991 20.683 18.9786 20.8513 18.4738C21.0562 17.859 21.2288 17.3346 21.3136 16.8256C21.3988 16.3145 21.4 15.8871 21.4 15.49V11.49C21.4 11.2529 21.308 10.95 21.0341 10.3946C20.7118 9.92455 20.2998 9.50821 19.7598 9.05822C19.2626 8.64389 18.6746 8.30272 17.9857 8.04026C17.3086 7.84803 16.6377 7.69 16 7.69C15.3623 7.69 14.6914 7.84803 14.0143 8.04026C13.3254 8.30272 12.7374 8.64389 12.2402 9.05822C11.6888 9.5177 11.2709 9.94208 10.9457 10.4244C10.7179 10.8113 10.6 11.2246 10.6 11.49V15.49C10.6 15.8871 10.6012 16.3145 10.6864 16.8256C10.7712 17.3346 10.9438 17.859 11.1487 18.4738C11.317 18.9786 11.5746 19.4991 11.9321 20.0353L11.9666 20.0871L11.9944 20.1428C12.1512 20.4564 12.3676 20.6642 12.6855 20.9694C12.7828 21.0628 12.8896 21.1654 13.0071 21.2829C13.3805 21.6562 13.6154 22.1733 13.5861 22.7301C13.5555 23.3112 13.2397 23.8324 12.7145 24.1475L12.6705 24.1739L9.3922 25.7084Z" fill="black"/>
</svg>
