<svg width="32" height="32" viewBox="0 0 32 32" fill="none" xmlns="http://www.w3.org/2000/svg">
<path d="M16.1 0.690002C15.0545 0.690002 14.042 0.921922 13.0838 1.24132L13.038 1.25658L12.933 1.30324C12.0757 1.68407 11.0613 2.13469 10.2492 2.83075C9.53356 3.44416 8.83537 4.12537 8.34899 4.96393C7.87358 5.68655 7.6 6.46658 7.6 7.29V11.99C7.6 12.4567 7.67465 12.9418 7.74978 13.4301C7.77034 13.5637 7.79094 13.6976 7.81005 13.8314C7.92338 14.6247 8.14892 15.4094 8.48085 16.1839L8.48957 16.2043C8.78432 16.892 9.1033 17.6363 9.53176 18.3861L9.54884 18.416L9.56795 18.4447C9.98135 19.0648 10.5014 19.7 11.1339 20.251L3.14428 23.9992L2.31805 24.4582C2.07873 24.5303 1.83679 24.6361 1.62654 24.7833C1.4248 24.9245 1 25.2853 1 25.89V26.69C1 28.9423 2.74772 30.69 5 30.69H15.8C16.3523 30.69 16.8 30.2423 16.8 29.69C16.8 29.1377 16.3523 28.69 15.8 28.69H5C3.85228 28.69 3 27.8377 3 26.69V26.3458L3.07042 26.3282L4.05571 25.7808L12.136 21.99L12.1472 21.9844C13.3427 21.3867 13.6392 19.7115 12.5341 18.8167C12.0355 18.4 11.6056 17.8908 11.2511 17.3638C10.8922 16.7308 10.6172 16.0916 10.3191 15.3961C10.0511 14.7706 9.87662 14.1553 9.78995 13.5486C9.76123 13.3475 9.73466 13.1734 9.71105 13.0186C9.64338 12.575 9.6 12.2907 9.6 11.99V7.29C9.6 6.92431 9.71914 6.51407 10.0321 6.0447L10.0512 6.01605L10.0682 5.98614C10.3812 5.43846 10.8749 4.92857 11.5508 4.34926C12.1103 3.86972 12.8516 3.52838 13.7613 3.12376C14.5862 2.85213 15.359 2.69 16.1 2.69C16.8409 2.69 17.6137 2.85209 18.4384 3.12366C19.3021 3.50913 19.9757 3.85772 20.5492 4.34926C21.2251 4.92857 21.7188 5.43846 22.0318 5.98614L22.0488 6.01605L22.0679 6.0447C22.3809 6.51407 22.5 6.92431 22.5 7.29V12.69C22.5 13.2423 22.9477 13.69 23.5 13.69C24.0523 13.69 24.5 13.2423 24.5 12.69V7.29C24.5 6.46658 24.2264 5.68654 23.751 4.96392C23.2646 4.12536 22.5664 3.44415 21.8508 2.83075C21.0341 2.13071 20.121 1.68278 19.2061 1.27619L19.162 1.25658L19.1162 1.24132C18.158 0.921923 17.1455 0.690002 16.1 0.690002Z" fill="black"/>
<path d="M25.7071 19.9829C26.0976 20.3734 26.0976 21.0066 25.7071 21.3971L24.4142 22.69L25.7071 23.9829C26.0976 24.3734 26.0976 25.0066 25.7071 25.3971C25.3166 25.7876 24.6834 25.7876 24.2929 25.3971L23 24.1042L21.7071 25.3971C21.3166 25.7876 20.6834 25.7876 20.2929 25.3971C19.9024 25.0066 19.9024 24.3734 20.2929 23.9829L21.5858 22.69L20.2929 21.3971C19.9024 21.0066 19.9024 20.3734 20.2929 19.9829C20.6834 19.5924 21.3166 19.5924 21.7071 19.9829L23 21.2758L24.2929 19.9829C24.6834 19.5924 25.3166 19.5924 25.7071 19.9829Z" fill="black"/>
<path fill-rule="evenodd" clip-rule="evenodd" d="M23 14.69C18.5817 14.69 15 18.2717 15 22.69C15 27.1083 18.5817 30.69 23 30.69C27.4183 30.69 31 27.1083 31 22.69C31 18.2717 27.4183 14.69 23 14.69ZM17 22.69C17 19.3763 19.6863 16.69 23 16.69C26.3137 16.69 29 19.3763 29 22.69C29 26.0037 26.3137 28.69 23 28.69C19.6863 28.69 17 26.0037 17 22.69Z" fill="black"/>
</svg>
