<svg width="32" height="32" viewBox="0 0 32 32" fill="none" xmlns="http://www.w3.org/2000/svg">
<path fill-rule="evenodd" clip-rule="evenodd" d="M13.0838 1.24132C14.042 0.921922 15.0545 0.690002 16.1 0.690002C17.1455 0.690002 18.158 0.921923 19.1162 1.24132L19.162 1.25658L19.2061 1.27619C20.121 1.68278 21.0341 2.13071 21.8508 2.83075C22.5664 3.44415 23.2646 4.12536 23.751 4.96392C24.2264 5.68654 24.5 6.46658 24.5 7.29V12.69C24.5 13.2423 24.0523 13.69 23.5 13.69C22.9477 13.69 22.5 13.2423 22.5 12.69V7.29C22.5 6.92431 22.3809 6.51407 22.0679 6.0447L22.0488 6.01605L22.0318 5.98614C21.7188 5.43846 21.2251 4.92857 20.5492 4.34926C19.9757 3.85772 19.3021 3.50913 18.4384 3.12366C17.6137 2.85209 16.8409 2.69 16.1 2.69C15.359 2.69 14.5862 2.85213 13.7613 3.12376C12.8516 3.52838 12.1103 3.86972 11.5508 4.34926C10.8749 4.92857 10.3812 5.43846 10.0682 5.98614L10.0512 6.01605L10.0321 6.0447C9.71914 6.51407 9.6 6.92431 9.6 7.29V11.99C9.6 12.2907 9.64335 12.5749 9.71102 13.0184C9.73464 13.1732 9.76122 13.3475 9.78995 13.5486C9.87662 14.1553 10.0511 14.7706 10.3191 15.3961C10.6172 16.0916 10.8922 16.7308 11.2511 17.3638C11.6056 17.8908 12.0355 18.4 12.5341 18.8167C13.6392 19.7115 13.3427 21.3867 12.1472 21.9844L12.136 21.99L4.05571 25.7808L3.07042 26.3282L3 26.3458V26.69C3 27.8377 3.85228 28.69 5 28.69H15.8C16.3523 28.69 16.8 29.1377 16.8 29.69C16.8 30.2423 16.3523 30.69 15.8 30.69H5C2.74772 30.69 1 28.9423 1 26.69V25.89C1 25.2853 1.4248 24.9245 1.62654 24.7833C1.83679 24.6361 2.07873 24.5303 2.31805 24.4582L3.14428 23.9992L11.1339 20.251C10.5014 19.7 9.98135 19.0648 9.56795 18.4447L9.54884 18.416L9.53176 18.3861C9.1033 17.6363 8.78432 16.892 8.48957 16.2043L8.48085 16.1839C8.14892 15.4094 7.92338 14.6247 7.81005 13.8314C7.79094 13.6976 7.77034 13.5637 7.74978 13.4301C7.67465 12.9418 7.6 12.4567 7.6 11.99V7.29C7.6 6.46658 7.87358 5.68655 8.34899 4.96393C8.83537 4.12537 9.53356 3.44416 10.2492 2.83075C11.0613 2.13469 12.0757 1.68407 12.933 1.30324C12.9534 1.29418 12.9737 1.28517 12.9939 1.27619L13.038 1.25658L13.0838 1.24132Z" fill="black"/>
<path fill-rule="evenodd" clip-rule="evenodd" d="M23 16.69C19.6863 16.69 17 19.3763 17 22.69C17 26.0037 19.6863 28.69 23 28.69C26.3137 28.69 29 26.0037 29 22.69C29 19.3763 26.3137 16.69 23 16.69ZM15 22.69C15 18.2717 18.5817 14.69 23 14.69C27.4183 14.69 31 18.2717 31 22.69C31 27.1083 27.4183 30.69 23 30.69C18.5817 30.69 15 27.1083 15 22.69Z" fill="black"/>
<path fill-rule="evenodd" clip-rule="evenodd" d="M23 17.69C23.5523 17.69 24 18.1377 24 18.69V22.2758L25.7071 23.9829C26.0976 24.3734 26.0976 25.0066 25.7071 25.3971C25.3166 25.7876 24.6834 25.7876 24.2929 25.3971L22 23.1042V18.69C22 18.1377 22.4477 17.69 23 17.69Z" fill="black"/>
</svg>
