<svg width="32" height="32" viewBox="0 0 32 32" fill="none" xmlns="http://www.w3.org/2000/svg">
<path fill-rule="evenodd" clip-rule="evenodd" d="M13.0838 1.24132C14.042 0.921922 15.0545 0.690002 16.1 0.690002C17.1527 0.690002 18.1905 0.924774 19.2061 1.37619C20.121 1.78278 21.0341 2.23071 21.8508 2.93075C22.5663 3.54405 23.2644 4.22513 23.7508 5.06349C24.2156 5.76742 24.5 6.45217 24.5 7.39C24.5 11.0428 25.2427 13.4857 25.9209 15.0876C26.1861 15.7141 26.4375 16.2053 26.6537 16.6278C26.7199 16.7572 26.7829 16.8802 26.8419 16.9987C26.9579 17.2315 27.083 17.494 27.157 17.742C27.2216 17.9581 27.3314 18.4256 27.0682 18.8861L27.0512 18.916L27.0321 18.9447C26.8872 19.162 26.6984 19.2906 26.578 19.3608C26.4466 19.4374 26.3097 19.4938 26.1887 19.5365C25.9468 19.6217 25.6644 19.6878 25.3837 19.7421C24.8179 19.8516 24.1137 19.9398 23.4445 20.0203C23.3576 20.0308 23.2713 20.0411 23.1857 20.0514C22.5936 20.1222 22.0366 20.1889 21.5786 20.2631C21.4461 20.2845 21.3287 20.3056 21.2263 20.3262L29.0557 23.9992L29.9689 24.5065C30.1134 24.5804 30.3074 24.6958 30.4835 24.8499C30.613 24.9632 31 25.322 31 25.89V26.69C31 28.9423 29.2523 30.69 27 30.69H5C2.84772 30.69 1 28.8423 1 26.69V25.89C1 25.3143 1.40033 24.9518 1.52314 24.8426C1.68898 24.6952 1.89003 24.5613 2.02351 24.4725C2.03099 24.4675 2.03826 24.4626 2.0453 24.458L2.07898 24.4355L3.04428 23.8992L10.9043 20.2118C10.7769 20.1793 10.6245 20.1448 10.4482 20.1085C9.9808 20.0122 9.41447 19.9166 8.81486 19.8153C8.71333 19.7982 8.61086 19.7809 8.50775 19.7634C7.81249 19.6455 7.08653 19.5185 6.5055 19.3799C6.21707 19.3111 5.93201 19.2321 5.69098 19.1386C5.57058 19.092 5.43685 19.0325 5.30988 18.9556C5.19604 18.8867 5.01042 18.7584 4.86795 18.5447L4.84884 18.516L4.83176 18.4861C4.59421 18.0704 4.6501 17.6556 4.72162 17.398C4.78955 17.1534 4.91077 16.9101 5.01342 16.7134C5.07201 16.6011 5.1344 16.4856 5.20041 16.3635C5.39202 16.0089 5.61411 15.5979 5.8624 15.0437C6.51105 13.5958 7.30627 11.2193 7.60017 7.25101C7.60795 6.33312 7.89085 5.65763 8.34924 4.9635C8.83561 4.12513 9.53369 3.44405 10.2492 2.83075C11.0613 2.13469 12.0757 1.68407 12.933 1.30324C12.9534 1.29418 12.9737 1.28517 12.9939 1.27619L13.038 1.25658L13.0838 1.24132ZM13.7613 3.12376C12.8516 3.52838 12.1103 3.86972 11.5508 4.34926C10.8749 4.92857 10.3812 5.43846 10.0682 5.98614L10.0512 6.01605L10.0321 6.0447C9.70797 6.53082 9.6 6.84034 9.6 7.29V7.32654L9.59733 7.36298C9.28919 11.5742 8.4371 14.1884 7.6876 15.8613C7.40532 16.4915 7.13202 16.9968 6.93742 17.3567C6.92599 17.3779 6.91484 17.3985 6.90398 17.4186C6.92527 17.4238 6.94711 17.4291 6.9695 17.4345C7.47597 17.5553 8.13751 17.672 8.84225 17.7916C8.94123 17.8084 9.04108 17.8252 9.14128 17.8421C9.73751 17.9427 10.3459 18.0454 10.8518 18.1496C11.1474 18.2105 11.4317 18.2767 11.6723 18.3497C11.8612 18.407 12.1836 18.5122 12.4306 18.7139C13.5398 19.608 13.244 21.286 12.0472 21.8844L12.036 21.89L3.95571 25.6808L3.12115 26.1444C3.07617 26.1745 3.03649 26.2011 3 26.2264V26.69C3 27.7377 3.95228 28.69 5 28.69H27C28.1477 28.69 29 27.8377 29 26.69V26.2562L28.1443 25.7808L20.064 21.99L20.0528 21.9844C18.856 21.386 18.5602 19.708 19.6694 18.8139C19.9282 18.6026 20.2607 18.5047 20.4493 18.4539C20.69 18.3891 20.9709 18.3354 21.2589 18.2888C21.7614 18.2074 22.365 18.1352 22.9507 18.0652C23.0361 18.055 23.1212 18.0448 23.2055 18.0347C23.8827 17.9532 24.5129 17.873 24.9961 17.78C24.9635 17.7156 24.9282 17.6467 24.8905 17.5732C24.672 17.1464 24.376 16.5685 24.0791 15.8674C23.3073 14.0443 22.5 11.3372 22.5 7.39C22.5 6.94034 22.392 6.63082 22.0679 6.1447L22.0488 6.11605L22.0318 6.08614C21.7188 5.53846 21.2251 5.02857 20.5492 4.44926C19.9659 3.9493 19.279 3.59722 18.3939 3.20381C17.6095 2.85523 16.8473 2.69 16.1 2.69C15.359 2.69 14.5862 2.85213 13.7613 3.12376ZM25.246 18.336C25.246 18.336 25.2438 18.3295 25.2418 18.3182C25.2454 18.3307 25.246 18.336 25.246 18.336Z" fill="black"/>
</svg>
