<svg width="32" height="32" viewBox="0 0 32 32" fill="none" xmlns="http://www.w3.org/2000/svg">
<path fill-rule="evenodd" clip-rule="evenodd" d="M13.0838 1.24132C14.042 0.921922 15.0545 0.690002 16.1 0.690002C17.1451 0.690002 18.1548 0.922424 19.1873 1.23218L19.2481 1.25041L19.3061 1.27619C20.221 1.68278 21.1341 2.13071 21.9508 2.83075C22.6664 3.44415 23.3646 4.12536 23.851 4.96392C24.3264 5.68654 24.6 6.46658 24.6 7.29V11.99C24.6 12.4021 24.5169 12.9662 24.4365 13.5121C24.4207 13.6197 24.4049 13.7266 24.3899 13.8314L24.3803 13.899L24.3615 13.9647C24.3006 14.1779 24.254 14.3742 24.2021 14.5925C24.1733 14.7135 24.143 14.8413 24.1076 14.9825C24.0196 15.3348 23.9107 15.7241 23.7436 16.126C23.5054 16.9217 23.0672 17.6883 22.6973 18.3352C22.6876 18.3523 22.6779 18.3693 22.6682 18.3861C22.2168 19.1761 21.6637 19.742 21.0669 20.2514L29.0557 23.9992L29.9689 24.5065C30.1134 24.5804 30.3074 24.6958 30.4835 24.8499C30.613 24.9632 31 25.322 31 25.89V26.69C31 28.9423 29.2523 30.69 27 30.69H5C2.84772 30.69 1 28.8423 1 26.69V25.89C1 25.2853 1.4248 24.9245 1.62654 24.7833C1.83679 24.6361 2.07873 24.5303 2.31805 24.4582L3.14428 23.9992L11.1339 20.251C10.5014 19.7 9.98135 19.0648 9.56795 18.4447L9.54884 18.416L9.53176 18.3861C9.1033 17.6363 8.78432 16.892 8.48957 16.2043L8.48085 16.1839C8.14892 15.4094 7.92338 14.6247 7.81005 13.8314C7.79094 13.6976 7.77034 13.5637 7.74978 13.4301C7.67465 12.9418 7.6 12.4567 7.6 11.99V7.29C7.6 6.46658 7.87358 5.68655 8.34899 4.96393C8.83537 4.12537 9.53356 3.44416 10.2492 2.83075C11.0613 2.13469 12.0757 1.68407 12.933 1.30324C12.9534 1.29418 12.9737 1.28517 12.9939 1.27619L13.038 1.25658L13.0838 1.24132ZM13.7613 3.12376C12.8516 3.52838 12.1103 3.86972 11.5508 4.34926C10.8749 4.92857 10.3812 5.43846 10.0682 5.98614L10.0512 6.01605L10.0321 6.0447C9.71914 6.51407 9.6 6.92431 9.6 7.29V11.99C9.6 12.2907 9.64335 12.5749 9.71102 13.0184C9.73464 13.1732 9.76122 13.3475 9.78995 13.5486C9.87662 14.1553 10.0511 14.7706 10.3191 15.3961C10.6172 16.0916 10.8922 16.7308 11.2511 17.3638C11.6056 17.8908 12.0355 18.4 12.5341 18.8167C13.6392 19.7115 13.3427 21.3867 12.1472 21.9844L12.136 21.99L4.05571 25.7808L3.07042 26.3282L3 26.3458V26.69C3 27.7377 3.95228 28.69 5 28.69H27C28.1477 28.69 29 27.8377 29 26.69V26.2562L28.1443 25.7808L20.064 21.99L20.0528 21.9844C18.8572 21.3866 18.5608 19.7114 19.6661 18.8166C20.2177 18.3563 20.6161 17.9462 20.9318 17.3939C21.3467 16.6677 21.6781 16.0767 21.8385 15.5153L21.8559 15.4543L21.8809 15.3961C21.9998 15.1185 22.0847 14.8283 22.1674 14.4975C22.1909 14.4032 22.2158 14.2988 22.2421 14.1886C22.2954 13.965 22.3544 13.7176 22.4195 13.4828C22.4356 13.3707 22.451 13.2648 22.4656 13.1646C22.5454 12.6163 22.6 12.2417 22.6 11.99V7.29C22.6 6.92431 22.4809 6.51407 22.1679 6.0447L22.1488 6.01605L22.1318 5.98614C21.8188 5.43846 21.3251 4.92857 20.6492 4.34926C20.0788 3.8603 19.4092 3.51279 18.552 3.12973C17.612 2.85063 16.8391 2.69 16.1 2.69C15.359 2.69 14.5862 2.85213 13.7613 3.12376Z" fill="black"/>
</svg>
