<svg width="32" height="32" viewBox="0 0 32 32" fill="none" xmlns="http://www.w3.org/2000/svg">
<path fill-rule="evenodd" clip-rule="evenodd" d="M6 1.69C3.74772 1.69 2 3.43772 2 5.69V25.69C2 27.9423 3.74772 29.69 6 29.69H26C28.2523 29.69 30 27.9423 30 25.69V5.69C30 3.43772 28.2523 1.69 26 1.69H6ZM4 5.69C4 4.54229 4.85228 3.69 6 3.69H26C27.1477 3.69 28 4.54229 28 5.69V25.69C28 25.8447 27.9845 25.9941 27.9549 26.1367C27.784 25.9966 27.6134 25.8601 27.449 25.7286L27.394 25.6846L27.3615 25.6625C25.8796 24.657 24.0581 23.8018 22.637 23.2054C21.9205 22.9047 21.2937 22.6649 20.8452 22.4999C20.7639 22.47 20.6884 22.4425 20.6192 22.4176C21.0838 21.9891 21.457 21.5014 21.745 21.0252C22.1813 20.3676 22.5192 19.6946 22.7487 19.0062L22.7598 18.9729C22.9523 18.3955 23.1734 17.7323 23.2864 17.0544C23.4 16.3726 23.4 15.8046 23.4 15.4025V11.39C23.4 10.6352 23.0983 9.95063 22.7944 9.34279L22.7666 9.2871L22.7321 9.2353C22.2592 8.52603 21.6811 7.95587 21.0402 7.42178C20.3462 6.84348 19.5464 6.38939 18.6511 6.05367L18.5492 6.01545L18.4414 6.00005C18.2984 5.97962 18.1263 5.94916 17.9344 5.91519C17.3808 5.8172 16.6621 5.69 16 5.69C15.0501 5.69 14.1348 5.92576 13.4253 6.12848L13.3866 6.13954L13.3489 6.15367C12.4536 6.48939 11.6538 6.94348 10.9598 7.52178C10.3189 8.05587 9.7408 8.62603 9.26795 9.3353L9.25475 9.3551L9.24251 9.37551C8.87803 9.98297 8.6 10.76 8.6 11.49V15.5025C8.59999 15.9046 8.59997 16.4726 8.71361 17.1544C8.8266 17.8324 9.04767 18.4954 9.2402 19.0729L9.25132 19.1062C9.4774 19.7845 9.80884 20.4479 10.2359 21.0963C10.5669 21.726 11.0813 22.2115 11.4135 22.525L11.4368 22.547C11.2863 22.6198 11.0897 22.7155 10.8563 22.8306C10.2928 23.1084 9.51295 23.4999 8.64729 23.9548C7.2218 24.704 5.52304 25.6461 4.1762 26.5458C4.06241 26.2895 4 26.0006 4 25.69V5.69ZM6.09548 27.69H26C26.2092 27.69 26.4086 27.6617 26.5948 27.6084C26.47 27.5069 26.3403 27.4029 26.2065 27.2958C24.8933 26.4102 23.2308 25.6236 21.863 25.0496C21.1795 24.7628 20.5813 24.5338 20.1548 24.377C19.9417 24.2986 19.7719 24.2383 19.6564 24.198C19.5987 24.1779 19.5545 24.1627 19.5252 24.1527L19.4928 24.1417L19.4853 24.1392L19.4838 24.1387L19.4559 24.1294L19.4286 24.1185C18.1022 23.5879 18.0764 21.9082 19.0753 21.1091C19.4641 20.7981 19.7902 20.396 20.0425 19.9755L20.0548 19.9551L20.068 19.9353C20.4254 19.3991 20.683 18.8786 20.8513 18.3738C21.0562 17.759 21.2288 17.2346 21.3136 16.7256C21.3988 16.2145 21.4 15.7871 21.4 15.39V11.39C21.4 11.1529 21.308 10.85 21.0341 10.2946C20.7118 9.82455 20.2998 9.40822 19.7598 8.95822C19.277 8.55592 18.7086 8.22258 18.0454 7.9633C17.8133 7.92818 17.5989 7.88998 17.3946 7.85357C16.9068 7.76667 16.4766 7.69 16 7.69C15.3623 7.69 14.6914 7.84803 14.0143 8.04026C13.3254 8.30272 12.7374 8.64389 12.2402 9.05822C11.6888 9.5177 11.2709 9.94208 10.9457 10.4244C10.7179 10.8113 10.6 11.2246 10.6 11.49V15.49C10.6 15.8871 10.6012 16.3145 10.6864 16.8256C10.7712 17.3346 10.9438 17.859 11.1487 18.4738C11.317 18.9786 11.5746 19.4991 11.9321 20.0353L11.9666 20.0871L11.9944 20.1428C12.1512 20.4564 12.3676 20.6642 12.6855 20.9694C12.7828 21.0628 12.8896 21.1654 13.0071 21.2829C13.3805 21.6562 13.6154 22.1733 13.5861 22.7301C13.5555 23.3112 13.2397 23.8324 12.7145 24.1475L12.6721 24.1729L12.6274 24.1941L12.6131 24.2009L12.5681 24.2223C12.5283 24.2413 12.4691 24.2696 12.3925 24.3065C12.2392 24.3803 12.0165 24.4884 11.7406 24.6244C11.1885 24.8966 10.4246 25.2801 9.57772 25.7252C8.44401 26.321 7.18745 27.0138 6.09548 27.69Z" fill="black"/>
</svg>
