<svg width="32" height="32" viewBox="0 0 32 32" fill="none" xmlns="http://www.w3.org/2000/svg">
<path d="M16.1 0.690002C15.0545 0.690002 14.042 0.921922 13.0838 1.24132L13.038 1.25658L12.933 1.30324C12.0757 1.68407 11.0613 2.13469 10.2492 2.83075C9.53369 3.44405 8.83561 4.12513 8.34924 4.9635C7.89085 5.65763 7.60795 6.33312 7.60017 7.25101C7.30627 11.2193 6.51105 13.5958 5.8624 15.0437C5.61411 15.5979 5.39202 16.0089 5.20041 16.3635C5.1344 16.4856 5.07201 16.6011 5.01342 16.7134C4.91077 16.9101 4.78955 17.1534 4.72162 17.398C4.6501 17.6556 4.59421 18.0704 4.83176 18.4861L4.84884 18.516L4.86795 18.5447C5.01042 18.7584 5.19604 18.8867 5.30988 18.9556C5.43685 19.0325 5.57058 19.092 5.69098 19.1386C5.93201 19.2321 6.21707 19.3111 6.5055 19.3799C7.08653 19.5185 7.81249 19.6455 8.50775 19.7634L8.81486 19.8153C9.41446 19.9166 9.98081 20.0122 10.4482 20.1085C10.6245 20.1448 10.7769 20.1793 10.9043 20.2118L3.04428 23.8992L2.07898 24.4355L2.02351 24.4725C1.89003 24.5613 1.68898 24.6952 1.52314 24.8426C1.40033 24.9518 1 25.3143 1 25.89V26.69C1 28.9423 2.74772 30.69 5 30.69H15.8C16.3523 30.69 16.8 30.2423 16.8 29.69C16.8 29.1377 16.3523 28.69 15.8 28.69H5C3.85228 28.69 3 27.8377 3 26.69V26.2264C3.03649 26.2011 3.07617 26.1745 3.12115 26.1444L3.95571 25.6808L12.036 21.89L12.0472 21.8844C13.244 21.286 13.5398 19.608 12.4306 18.7139C12.1836 18.5122 11.8612 18.407 11.6723 18.3497C11.4317 18.2767 11.1474 18.2105 10.8518 18.1496C10.3459 18.0454 9.73761 17.9428 9.14143 17.8422L8.84225 17.7916C8.13751 17.672 7.47597 17.5553 6.9695 17.4345L6.90398 17.4186L6.93742 17.3567C7.13202 16.9968 7.40532 16.4915 7.6876 15.8613C8.4371 14.1884 9.28919 11.5742 9.59733 7.36298L9.6 7.32654V7.29C9.6 6.84034 9.70798 6.53082 10.0321 6.0447L10.0512 6.01605L10.0682 5.98614C10.3812 5.43846 10.8749 4.92857 11.5508 4.34926C12.1103 3.86972 12.8516 3.52838 13.7613 3.12376C14.5862 2.85213 15.359 2.69 16.1 2.69C16.8391 2.69 17.612 2.85063 18.552 3.12973C19.4092 3.51279 20.0788 3.8603 20.6492 4.34926C21.3251 4.92857 21.8188 5.43846 22.1318 5.98614L22.1488 6.01605L22.1679 6.0447C22.492 6.53082 22.6 6.84034 22.6 7.29C22.6 9.54066 22.8035 11.4423 23.2385 12.9647C23.3902 13.4958 23.9437 13.8033 24.4747 13.6515C25.0058 13.4998 25.3132 12.9463 25.1615 12.4153C24.7965 11.1378 24.6 9.43934 24.6 7.29C24.6 6.35217 24.3156 5.66742 23.8508 4.96349C23.3644 4.12513 22.6663 3.44405 21.9508 2.83075C21.1341 2.13071 20.221 1.68278 19.3061 1.27619L19.2481 1.25041L19.1873 1.23218C18.1548 0.922424 17.1451 0.690002 16.1 0.690002Z" fill="black"/>
<path d="M24 19.69C24 19.1377 23.5523 18.69 23 18.69C22.4477 18.69 22 19.1377 22 19.69V21.69H20C19.4477 21.69 19 22.1377 19 22.69C19 23.2423 19.4477 23.69 20 23.69H22V25.69C22 26.2423 22.4477 26.69 23 26.69C23.5523 26.69 24 26.2423 24 25.69V23.69H26C26.5523 23.69 27 23.2423 27 22.69C27 22.1377 26.5523 21.69 26 21.69H24V19.69Z" fill="black"/>
<path fill-rule="evenodd" clip-rule="evenodd" d="M15 22.69C15 18.2717 18.5817 14.69 23 14.69C27.4183 14.69 31 18.2717 31 22.69C31 27.1083 27.4183 30.69 23 30.69C18.5817 30.69 15 27.1083 15 22.69ZM23 16.69C19.6863 16.69 17 19.3763 17 22.69C17 26.0037 19.6863 28.69 23 28.69C26.3137 28.69 29 26.0037 29 22.69C29 19.3763 26.3137 16.69 23 16.69Z" fill="black"/>
</svg>
