<svg width="32" height="32" viewBox="0 0 32 32" fill="none" xmlns="http://www.w3.org/2000/svg">
<path d="M7.5 15.69C7.5 15.1377 7.94772 14.69 8.5 14.69H15V8.19C15 7.63772 15.4477 7.19 16 7.19C16.5523 7.19 17 7.63772 17 8.19V14.69H23.5C24.0523 14.69 24.5 15.1377 24.5 15.69C24.5 16.2423 24.0523 16.69 23.5 16.69H17V23.19C17 23.7423 16.5523 24.19 16 24.19C15.4477 24.19 15 23.7423 15 23.19V16.69H8.5C7.94772 16.69 7.5 16.2423 7.5 15.69Z" fill="black"/>
<path fill-rule="evenodd" clip-rule="evenodd" d="M2 15.69C2 7.95802 8.26801 1.69 16 1.69C23.732 1.69 30 7.95802 30 15.69C30 23.422 23.732 29.69 16 29.69C8.26801 29.69 2 23.422 2 15.69ZM16 3.69C9.37258 3.69 4 9.06259 4 15.69C4 22.3174 9.37258 27.69 16 27.69C22.6274 27.69 28 22.3174 28 15.69C28 9.06259 22.6274 3.69 16 3.69Z" fill="black"/>
</svg>
