<svg width="32" height="32" viewBox="0 0 32 32" fill="none" xmlns="http://www.w3.org/2000/svg">
<path d="M16 6.69C16.5523 6.69 17 7.13772 17 7.69V14.69H24C24.5523 14.69 25 15.1377 25 15.69C25 16.2423 24.5523 16.69 24 16.69H17V23.69C17 24.2423 16.5523 24.69 16 24.69C15.4477 24.69 15 24.2423 15 23.69V16.69H8C7.44772 16.69 7 16.2423 7 15.69C7 15.1377 7.44772 14.69 8 14.69H15V7.69C15 7.13772 15.4477 6.69 16 6.69Z" fill="black"/>
<path fill-rule="evenodd" clip-rule="evenodd" d="M6 1.69C3.74772 1.69 2 3.43772 2 5.69V25.69C2 27.9423 3.74772 29.69 6 29.69H26C28.2523 29.69 30 27.9423 30 25.69V5.69C30 3.43772 28.2523 1.69 26 1.69H6ZM4 5.69C4 4.54229 4.85228 3.69 6 3.69H26C27.1477 3.69 28 4.54229 28 5.69V25.69C28 26.8377 27.1477 27.69 26 27.69H6C4.85228 27.69 4 26.8377 4 25.69V5.69Z" fill="black"/>
</svg>
