<?xml version="1.0" encoding="UTF-8"?>
<svg width="24px" height="24px" viewBox="0 0 24 24" version="1.1" xmlns="http://www.w3.org/2000/svg" xmlns:xlink="http://www.w3.org/1999/xlink">
    <!-- Generator: Sketch 48.2 (47327) - http://www.bohemiancoding.com/sketch -->
    <title>address-book</title>
    <desc>Created with Sketch.</desc>
    <defs></defs>
    <g id="Page-1" stroke="none" stroke-width="1" fill="none" fill-rule="evenodd" stroke-linecap="round" stroke-linejoin="round">
        <g id="address-book" stroke="#000000" stroke-width="2">
            <path d="M19,21 C20.104,21 21,20.104 21,19 L21,5 C21,3.896 20.104,3 19,3 L7,3 C5.896,3 5,3.896 5,5 L5,19 C5,20.104 5.896,21 7,21 L19,21 Z" id="Stroke-1"></path>
            <path d="M9,3 L9,21" id="Stroke-3"></path>
            <path d="M3,6 L6,6" id="Stroke-5"></path>
            <path d="M3,9 L6,9" id="Stroke-7"></path>
            <path d="M3,12 L6,12" id="Stroke-9"></path>
            <path d="M3,15 L6,15" id="Stroke-11"></path>
            <path d="M3,18 L6,18" id="Stroke-13"></path>
        </g>
    </g>
</svg>