<svg width="32" height="32" viewBox="0 0 32 32" fill="none" xmlns="http://www.w3.org/2000/svg">
<path fill-rule="evenodd" clip-rule="evenodd" d="M5 16.69V18.69H4C3.44772 18.69 3 19.1377 3 19.69C3 20.2423 3.44772 20.69 4 20.69H5V22.69H4C3.44772 22.69 3 23.1377 3 23.69C3 24.2423 3.44772 24.69 4 24.69H5V25.69C5 27.9423 6.74772 29.69 9 29.69H25C27.2523 29.69 29 27.9423 29 25.69V5.69C29 3.43772 27.2523 1.69 25 1.69H9C6.74772 1.69 5 3.43772 5 5.69V6.69H4C3.44772 6.69 3 7.13772 3 7.69C3 8.24229 3.44772 8.69 4 8.69H5V10.69H4C3.44772 10.69 3 11.1377 3 11.69C3 12.2423 3.44772 12.69 4 12.69H5V14.69H4C3.44772 14.69 3 15.1377 3 15.69C3 16.2423 3.44772 16.69 4 16.69H5ZM9 3.69C7.85228 3.69 7 4.54229 7 5.69V6.69H8C8.55228 6.69 9 7.13772 9 7.69C9 8.24229 8.55228 8.69 8 8.69H7V10.69H8C8.55228 10.69 9 11.1377 9 11.69C9 12.2423 8.55228 12.69 8 12.69H7V14.69H8C8.55228 14.69 9 15.1377 9 15.69C9 16.2423 8.55228 16.69 8 16.69H7V18.69H8C8.55228 18.69 9 19.1377 9 19.69C9 20.2423 8.55228 20.69 8 20.69H7V22.69H8C8.55228 22.69 9 23.1377 9 23.69C9 24.2423 8.55228 24.69 8 24.69H7V25.69C7 26.8377 7.85228 27.69 9 27.69H11V3.69H9ZM25 3.69H13V27.69H25C26.1477 27.69 27 26.8377 27 25.69V5.69C27 4.54229 26.1477 3.69 25 3.69Z" fill="black"/>
</svg>
