<svg width="32" height="32" viewBox="0 0 32 32" fill="none" xmlns="http://www.w3.org/2000/svg">
<path d="M11 17.19C11 16.6377 11.4477 16.19 12 16.19H15V13.19C15 12.6377 15.4477 12.19 16 12.19C16.5523 12.19 17 12.6377 17 13.19V16.19H20C20.5523 16.19 21 16.6377 21 17.19C21 17.7423 20.5523 18.19 20 18.19H17V21.19C17 21.7423 16.5523 22.19 16 22.19C15.4477 22.19 15 21.7423 15 21.19V18.19H12C11.4477 18.19 11 17.7423 11 17.19Z" fill="black"/>
<path fill-rule="evenodd" clip-rule="evenodd" d="M11.1009 7.69C11.5668 5.41346 13.59 3.69 16 3.69C18.41 3.69 20.4332 5.41346 20.8991 7.69H26C28.2523 7.69 30 9.43772 30 11.69V23.69C30 25.9423 28.2523 27.69 26 27.69H6C3.74772 27.69 2 25.9423 2 23.69V11.69C2 9.43772 3.74772 7.69 6 7.69H11.1009ZM13.173 7.69C13.5879 6.52875 14.7023 5.69 16 5.69C17.2977 5.69 18.4121 6.52875 18.827 7.69H13.173ZM6 9.69C4.85228 9.69 4 10.5423 4 11.69V23.69C4 24.8377 4.85228 25.69 6 25.69H26C27.1477 25.69 28 24.8377 28 23.69V11.69C28 10.5423 27.1477 9.69 26 9.69H6Z" fill="black"/>
</svg>
