<svg width="32" height="32" viewBox="0 0 32 32" fill="none" xmlns="http://www.w3.org/2000/svg">
<path d="M16.31 5.47C13.8156 5.47 11.3771 6.20982 9.30322 7.59587C7.2293 8.98191 5.61305 10.9519 4.65893 13.2567C3.7048 15.5614 3.45566 18.0974 3.94303 20.5438C4.43041 22.9901 5.63238 25.237 7.39692 27.0002C9.16147 28.7633 11.4093 29.9635 13.856 30.4489C16.3028 30.9344 18.8386 30.6832 21.1426 29.7273C23.4466 28.7713 25.4153 27.1535 26.7997 25.0785C28.1841 23.0034 28.922 20.5644 28.92 18.07C28.92 16.4145 28.5938 14.7752 27.9599 13.2459C27.3261 11.7165 26.3971 10.3271 25.226 9.15692C24.0549 7.98677 22.6647 7.05887 21.1349 6.42625C19.605 5.79363 17.9655 5.46869 16.31 5.47V5.47ZM16.31 26.97C14.5537 26.97 12.8368 26.4492 11.3765 25.4735C9.91623 24.4977 8.77806 23.1108 8.10595 21.4882C7.43384 19.8656 7.25799 18.0802 7.60063 16.3576C7.94326 14.635 8.789 13.0528 10.0309 11.8109C11.2728 10.569 12.855 9.72327 14.5776 9.38063C16.3001 9.03799 18.0856 9.21385 19.7082 9.88595C21.3308 10.5581 22.7177 11.6962 23.6935 13.1565C24.6692 14.6168 25.19 16.3337 25.19 18.09C25.1874 20.4443 24.2509 22.7014 22.5862 24.3662C20.9214 26.0309 18.6643 26.9674 16.31 26.97V26.97ZM16.31 11.02V17.69C16.3101 17.7346 16.3217 17.7785 16.3437 17.8173C16.3656 17.8561 16.3972 17.8887 16.4354 17.9118C16.4735 17.9349 16.517 17.9478 16.5616 17.9492C16.6062 17.9507 16.6504 17.9406 16.69 17.92L22.57 14.92C22.6006 14.9033 22.6276 14.8807 22.6493 14.8534C22.671 14.8261 22.687 14.7948 22.6963 14.7612C22.7056 14.7276 22.7081 14.6925 22.7036 14.6579C22.6991 14.6234 22.6876 14.5901 22.67 14.56C22.0549 13.4749 21.1723 12.5653 20.1064 11.9177C19.0404 11.27 17.8264 10.9059 16.58 10.86C16.5239 10.8552 16.4678 10.8681 16.4194 10.8967C16.371 10.9254 16.3327 10.9685 16.31 11.02V11.02ZM8.08 6.16L7.31 5.39C7.13059 5.2092 6.91717 5.06569 6.68204 4.96776C6.4469 4.86983 6.19471 4.81941 5.94 4.81941C5.68529 4.81941 5.4331 4.86983 5.19796 4.96776C4.96283 5.06569 4.74941 5.2092 4.57 5.39L3.65 6.31C3.29031 6.67326 3.08854 7.1638 3.08854 7.675C3.08854 8.18621 3.29031 8.67675 3.65 9.04L4.41 9.8C4.43535 9.82957 4.46679 9.85331 4.50218 9.86959C4.53756 9.88586 4.57605 9.89429 4.615 9.89429C4.65395 9.89429 4.69244 9.88586 4.72782 9.86959C4.76321 9.85331 4.79465 9.82957 4.82 9.8C5.26161 9.17456 5.75322 8.58596 6.29 8.04C6.82243 7.50179 7.39399 7.00376 8 6.55C8.03475 6.53333 8.06518 6.50884 8.0889 6.47845C8.11262 6.44807 8.12899 6.41261 8.13674 6.37485C8.14449 6.33709 8.1434 6.29804 8.13355 6.26077C8.12371 6.2235 8.10538 6.18901 8.08 6.16ZM20.44 4.16V2.63C20.44 2.11548 20.2356 1.62204 19.8718 1.25822C19.508 0.894395 19.0145 0.690002 18.5 0.690002H14C13.4855 0.690002 12.992 0.894395 12.6282 1.25822C12.2644 1.62204 12.06 2.11548 12.06 2.63V4.2C12.0616 4.24051 12.0723 4.28014 12.0913 4.31594C12.1103 4.35174 12.1372 4.3828 12.1698 4.40682C12.2025 4.43083 12.2402 4.44718 12.28 4.45466C12.3198 4.46214 12.3609 4.46054 12.4 4.45C14.9249 3.74379 17.5951 3.74379 20.12 4.45C20.1614 4.4603 20.2047 4.46025 20.2461 4.44984C20.2875 4.43944 20.3257 4.419 20.3573 4.39034C20.389 4.36168 20.413 4.32568 20.4275 4.28551C20.4419 4.24533 20.4462 4.20223 20.44 4.16V4.16Z" fill="black"/>
</svg>
