<svg width="32" height="32" viewBox="0 0 32 32" fill="none" xmlns="http://www.w3.org/2000/svg">
<path fill-rule="evenodd" clip-rule="evenodd" d="M9.11 29.02C8.9015 29.0371 8.69287 28.9885 8.51348 28.8808C8.33409 28.7732 8.19297 28.612 8.11 28.42L1.18 16.22C1.11175 16.0621 1.07655 15.892 1.07655 15.72C1.07655 15.548 1.11175 15.3778 1.18 15.22L8.18 2.86999C8.27103 2.73015 8.39164 2.612 8.53333 2.52387C8.67502 2.43575 8.83432 2.3798 9 2.35999H23.08C23.2301 2.37213 23.3755 2.41801 23.5053 2.4942C23.6352 2.57039 23.7462 2.67491 23.83 2.79999L30.83 15.14C30.9089 15.3161 30.9497 15.507 30.9497 15.7C30.9497 15.893 30.9089 16.0838 30.83 16.26L23.94 28.46C23.8508 28.6446 23.7071 28.7973 23.5282 28.8975C23.3493 28.9976 23.144 29.0404 22.94 29.02H9.11ZM13.39 9.36999L5 18.23C5.23862 18.5086 5.53723 18.7296 5.87345 18.8764C6.20966 19.0232 6.57475 19.092 6.94132 19.0775C7.30789 19.0631 7.66644 18.9659 7.99008 18.7931C8.31371 18.6203 8.59403 18.3765 8.81 18.08C10.29 16.53 13.2 13.34 13.2 13.34C13.2 13.34 16.44 16.59 17.94 18.12C18.1797 18.4148 18.4829 18.6515 18.827 18.8126C19.1711 18.9736 19.5472 19.0547 19.9271 19.0499C20.307 19.0451 20.6809 18.9545 21.0208 18.7848C21.3607 18.6151 21.6578 18.3707 21.89 18.07L18.44 14.45C18.63 14.54 19.01 14.83 19.1 14.76C19.53 14.41 19.68 14.76 19.89 15C21.03 16.15 22.13 17.36 23.34 18.43C23.807 18.82 24.402 19.023 25.01 19C25.6663 18.8555 26.2991 18.6199 26.89 18.3L19.18 10.3L16.94 12.81L13.39 9.36999ZM11.88 15.74L9.46 18.24L11.88 19.24V15.74Z" fill="black"/>
</svg>
