<svg width="32" height="32" viewBox="0 0 32 32" fill="none" xmlns="http://www.w3.org/2000/svg">
<path fill-rule="evenodd" clip-rule="evenodd" d="M20.5 6.19C20.5 8.33159 19.004 10.1238 17 10.5785V10.69H20C20.5523 10.69 21 11.1377 21 11.69C21 12.2423 20.5523 12.69 20 12.69H17V26.6413C21.7444 26.1762 25.4862 22.4344 25.9513 17.69H24.5C23.9477 17.69 23.5 17.2423 23.5 16.69C23.5 16.1377 23.9477 15.69 24.5 15.69H28V16.69C28 23.0054 23.1802 28.1451 17 28.6494V28.69C17 29.2423 16.5523 29.69 16 29.69C15.4477 29.69 15 29.2423 15 28.69V28.6494C8.81984 28.1451 4 23.0054 4 16.69V15.69H7.5C8.05228 15.69 8.5 16.1377 8.5 16.69C8.5 17.2423 8.05228 17.69 7.5 17.69H6.04872C6.51378 22.4344 10.2556 26.1762 15 26.6413V12.69H12C11.4477 12.69 11 12.2423 11 11.69C11 11.1377 11.4477 10.69 12 10.69H15V10.5785C12.996 10.1238 11.5 8.33159 11.5 6.19C11.5 3.70472 13.5147 1.69 16 1.69C18.4853 1.69 20.5 3.70472 20.5 6.19ZM16 3.69C14.6193 3.69 13.5 4.80929 13.5 6.19C13.5 7.57071 14.6193 8.69 16 8.69C17.3807 8.69 18.5 7.57071 18.5 6.19C18.5 4.80929 17.3807 3.69 16 3.69Z" fill="black"/>
</svg>
