<svg width="32" height="32" viewBox="0 0 32 32" fill="none" xmlns="http://www.w3.org/2000/svg">
<path d="M9 11.02V22.02C8.99868 22.2594 9.04485 22.4966 9.13584 22.7181C9.22683 22.9395 9.36084 23.1406 9.53011 23.3099C9.69938 23.4792 9.90054 23.6132 10.122 23.7042C10.3434 23.7952 10.5806 23.8413 10.82 23.84H11.33V27.99C11.3456 28.448 11.5393 28.8819 11.8698 29.1994C12.2004 29.5169 12.6417 29.6929 13.1 29.69C13.5545 29.6927 13.9915 29.5154 14.3157 29.1968C14.6398 28.8783 14.8247 28.4444 14.83 27.99V23.86H17.17V27.99C17.1831 28.4471 17.3746 28.881 17.7035 29.1987C18.0324 29.5165 18.4727 29.6928 18.93 29.69C19.3854 29.6927 19.8235 29.5157 20.1493 29.1975C20.475 28.8792 20.6621 28.4453 20.67 27.99V23.86H21.18C21.6627 23.86 22.1256 23.6683 22.4669 23.3269C22.8083 22.9856 23 22.5227 23 22.04V11.04L9 11.02ZM27.67 12.74C27.67 12.2759 27.4856 11.8308 27.1574 11.5026C26.8292 11.1744 26.3841 10.99 25.92 10.99C25.4559 10.99 25.0108 11.1744 24.6826 11.5026C24.3544 11.8308 24.17 12.2759 24.17 12.74V19.86C24.17 20.3241 24.3544 20.7693 24.6826 21.0974C25.0108 21.4256 25.4559 21.61 25.92 21.61C26.3841 21.61 26.8292 21.4256 27.1574 21.0974C27.4856 20.7693 27.67 20.3241 27.67 19.86V12.74ZM7.83 12.74C7.83 12.2759 7.64563 11.8308 7.31744 11.5026C6.98925 11.1744 6.54413 10.99 6.08 10.99C5.61587 10.99 5.17075 11.1744 4.84257 11.5026C4.51438 11.8308 4.33 12.2759 4.33 12.74V19.86C4.34309 20.3118 4.53453 20.7401 4.86246 21.0511C5.19039 21.3622 5.62813 21.5308 6.08 21.52C6.30409 21.5267 6.52729 21.4889 6.73674 21.409C6.94618 21.329 7.13775 21.2084 7.3004 21.0541C7.46306 20.8998 7.59359 20.7149 7.68448 20.51C7.77537 20.305 7.82483 20.0841 7.83 19.86V12.74ZM19.44 4.21L20.54 2.04C20.5582 2.00513 20.5676 1.96632 20.5672 1.92698C20.5669 1.88765 20.5569 1.84899 20.5382 1.81442C20.5194 1.77985 20.4924 1.75042 20.4596 1.72872C20.4268 1.70703 20.3892 1.69373 20.35 1.69C20.3102 1.68995 20.2712 1.70121 20.2376 1.72245C20.204 1.74369 20.1771 1.77406 20.16 1.81L19.05 4C18.0947 3.5555 17.0537 3.32518 16 3.32518C14.9463 3.32518 13.9053 3.5555 12.95 4L11.84 1.81C11.823 1.77406 11.796 1.74369 11.7624 1.72245C11.7288 1.70121 11.6898 1.68995 11.65 1.69C11.6108 1.69373 11.5732 1.70703 11.5404 1.72872C11.5076 1.75042 11.4806 1.77985 11.4618 1.81442C11.4431 1.84899 11.4331 1.88765 11.4328 1.92698C11.4324 1.96632 11.4418 2.00513 11.46 2.04L12.56 4.21C11.4916 4.7168 10.5894 5.51722 9.95903 6.51771C9.32862 7.51821 8.99599 8.67747 9 9.86H23C23.004 8.67747 22.6714 7.51821 22.041 6.51771C21.4106 5.51722 20.5084 4.7168 19.44 4.21ZM13.08 7.52C12.9657 7.51803 12.8546 7.48235 12.7605 7.41743C12.6665 7.35251 12.5937 7.26126 12.5513 7.15512C12.509 7.04898 12.4989 6.93269 12.5224 6.82084C12.5459 6.709 12.6019 6.60659 12.6834 6.52648C12.7649 6.44636 12.8682 6.3921 12.9805 6.37052C13.0927 6.34894 13.2088 6.361 13.3142 6.40518C13.4196 6.44935 13.5096 6.52368 13.5729 6.61884C13.6362 6.71399 13.67 6.82572 13.67 6.94C13.67 7.01702 13.6547 7.09326 13.6249 7.16429C13.5951 7.23532 13.5515 7.29971 13.4966 7.3537C13.4417 7.40769 13.3766 7.4502 13.305 7.47876C13.2335 7.50731 13.157 7.52133 13.08 7.52V7.52ZM18.92 7.52C18.8053 7.52 18.6932 7.48599 18.5978 7.42226C18.5024 7.35852 18.4281 7.26794 18.3842 7.16196C18.3403 7.05598 18.3288 6.93936 18.3511 6.82685C18.3735 6.71434 18.4288 6.61099 18.5099 6.52988C18.591 6.44877 18.6943 6.39353 18.8069 6.37115C18.9194 6.34877 19.036 6.36025 19.142 6.40415C19.2479 6.44805 19.3385 6.52239 19.4023 6.61777C19.466 6.71315 19.5 6.82529 19.5 6.94C19.5 7.09383 19.4389 7.24135 19.3301 7.35012C19.2214 7.4589 19.0738 7.52 18.92 7.52V7.52Z" fill="black"/>
</svg>
