<svg width="32" height="32" viewBox="0 0 32 32" fill="none" xmlns="http://www.w3.org/2000/svg">
<path d="M14.31 14.83L20 19.35L16.21 9.98003L14.31 14.83ZM21.2 22.63L13.64 16.51L11.1 22.9H8.91L15.32 7.44003C15.3972 7.25771 15.5268 7.10241 15.6924 6.99381C15.8579 6.88522 16.052 6.82822 16.25 6.83003C16.4447 6.82594 16.6359 6.88244 16.7971 6.99171C16.9584 7.10099 17.0817 7.25764 17.15 7.44003L23 21.49C23.0497 21.6291 23.0832 21.7733 23.1 21.92C23.1096 22.0571 23.0909 22.1947 23.045 22.3242C22.999 22.4538 22.9269 22.5724 22.8331 22.6728C22.7392 22.7732 22.6257 22.8532 22.4996 22.9078C22.3734 22.9624 22.2374 22.9904 22.1 22.99C21.9336 22.9924 21.7685 22.9618 21.614 22.9C21.4595 22.8383 21.3188 22.7465 21.2 22.63V22.63ZM17.5 1.10003C14.5499 0.796801 11.5772 1.39479 8.97391 2.81514C6.37056 4.2355 4.25883 6.41152 2.91716 9.05627C1.57548 11.701 1.06688 14.6903 1.45841 17.6299C1.84995 20.5696 3.12323 23.3215 5.11036 25.5229C7.09749 27.7243 9.70516 29.2718 12.5895 29.9612C15.4739 30.6506 18.4994 30.4497 21.2673 29.3849C24.0351 28.3201 26.4153 26.4414 28.0938 23.9966C29.7724 21.5518 30.6706 18.6556 30.67 15.69C30.6493 12.0653 29.2955 8.57482 26.8667 5.88408C24.4378 3.19334 21.1037 1.49045 17.5 1.10003" fill="black"/>
</svg>
