<svg width="32" height="32" viewBox="0 0 32 32" fill="none" xmlns="http://www.w3.org/2000/svg">
<path d="M11 6.69C11 7.24229 10.5523 7.69 10 7.69C9.44772 7.69 9 7.24229 9 6.69C9 6.13772 9.44772 5.69 10 5.69C10.5523 5.69 11 6.13772 11 6.69Z" fill="black"/>
<path d="M7 7.69C7.55228 7.69 8 7.24229 8 6.69C8 6.13772 7.55228 5.69 7 5.69C6.44772 5.69 6 6.13772 6 6.69C6 7.24229 6.44772 7.69 7 7.69Z" fill="black"/>
<path d="M14 6.69C14 7.24229 13.5523 7.69 13 7.69C12.4477 7.69 12 7.24229 12 6.69C12 6.13772 12.4477 5.69 13 5.69C13.5523 5.69 14 6.13772 14 6.69Z" fill="black"/>
<path fill-rule="evenodd" clip-rule="evenodd" d="M2 5.69V25.69C2 27.9423 3.74772 29.69 6 29.69H26C28.2523 29.69 30 27.9423 30 25.69V5.69C30 3.43772 28.2523 1.69 26 1.69H6C3.74772 1.69 2 3.43772 2 5.69ZM6 3.69C4.85228 3.69 4 4.54229 4 5.69V9.69H28V5.69C28 4.54229 27.1477 3.69 26 3.69H6ZM28 25.69V11.69H4V25.69C4 26.8377 4.85228 27.69 6 27.69H26C27.1477 27.69 28 26.8377 28 25.69Z" fill="black"/>
</svg>
