<svg width="32" height="32" viewBox="0 0 32 32" fill="none" xmlns="http://www.w3.org/2000/svg">
<path d="M27.3 23.51C26.887 24.4608 26.3812 25.3685 25.79 26.22C25.2343 27.0712 24.5835 27.8562 23.85 28.56C23.1918 29.2366 22.3026 29.6402 21.36 29.69C20.565 29.6567 19.784 29.4699 19.06 29.14C18.2772 28.7963 17.4347 28.6095 16.58 28.59C15.7024 28.6068 14.8365 28.7936 14.03 29.14C13.3343 29.455 12.5906 29.651 11.83 29.72C11.3509 29.7124 10.8782 29.6085 10.4401 29.4143C10.002 29.2202 9.60746 28.9399 9.28001 28.59C8.52572 27.8563 7.85497 27.0413 7.28001 26.16C6.36614 24.8499 5.64543 23.4152 5.14001 21.9C4.56051 20.2717 4.25635 18.5583 4.24001 16.83C4.18946 15.1315 4.61183 13.4524 5.46001 11.98C6.06156 10.9011 6.93789 10.0007 8.00001 9.37C9.03567 8.73292 10.2242 8.38741 11.44 8.37C12.3587 8.42407 13.2615 8.63371 14.11 8.99C14.7733 9.31306 15.4759 9.54837 16.2 9.69C17.0056 9.5207 17.7927 9.27285 18.55 8.95C19.5615 8.53899 20.649 8.34809 21.74 8.39C22.7671 8.41831 23.7743 8.67967 24.6855 9.15435C25.5967 9.62902 26.3882 10.3046 27 11.13C26.031 11.6435 25.2247 12.4173 24.6717 13.3642C24.1187 14.3112 23.841 15.3938 23.87 16.49C23.8611 17.3266 24.0294 18.1557 24.3638 18.9226C24.6981 19.6896 25.191 20.3771 25.81 20.94C26.3745 21.4772 27.0318 21.9075 27.75 22.21C27.6 22.66 27.43 23.1 27.26 23.51H27.3ZM21.9 2.25C21.8772 3.69983 21.3301 5.09235 20.36 6.17C19.8623 6.85461 19.205 7.40737 18.4452 7.78031C17.6854 8.15324 16.846 8.33507 16 8.31C15.9898 8.13348 15.9898 7.95652 16 7.78C16.0346 6.29381 16.6106 4.87139 17.62 3.78C18.1805 3.15482 18.8606 2.6482 19.62 2.29C20.3236 1.94499 21.088 1.74115 21.87 1.69C21.88 1.87654 21.88 2.06347 21.87 2.25H21.9Z" fill="black"/>
</svg>
