<svg width="32" height="32" viewBox="0 0 32 32" fill="none" xmlns="http://www.w3.org/2000/svg">
<path fill-rule="evenodd" clip-rule="evenodd" d="M26 1.69H6C3.74772 1.69 2 3.43772 2 5.69V25.69C2 27.9423 3.74772 29.69 6 29.69H6.99902C6.99967 29.69 7.00033 29.69 7.00098 29.69H26C28.2523 29.69 30 27.9423 30 25.69V6.69098C30 6.69033 30 6.68968 30 6.68902V5.69C30 3.43772 28.2523 1.69 26 1.69ZM28 6.27579V5.69C28 4.54229 27.1477 3.69 26 3.69H25.4142L4 25.1042V25.69C4 26.8377 4.85228 27.69 6 27.69H6.58579L28 6.27579ZM9.41421 27.69H14.5858L28 14.2758V9.10422L9.41421 27.69ZM4 22.2758L22.5858 3.69H17.4142L4 17.1042V22.2758ZM17.4142 27.69H22.5858L28 22.2758V17.1042L17.4142 27.69ZM4 14.2758L14.5858 3.69H9.41421L4 9.10422V14.2758ZM26 27.69C27.1477 27.69 28 26.8377 28 25.69V25.1042L25.4142 27.69H26ZM4 6.27579L6.58579 3.69H6C4.85228 3.69 4 4.54229 4 5.69V6.27579Z" fill="black"/>
</svg>
