<svg width="32" height="32" viewBox="0 0 32 32" fill="none" xmlns="http://www.w3.org/2000/svg">
<path fill-rule="evenodd" clip-rule="evenodd" d="M8.70711 2.9829C9.09763 3.37342 9.09763 4.00659 8.70711 4.39711L4.70711 8.39711C4.31658 8.78763 3.68342 8.78763 3.29289 8.39711C2.90237 8.00659 2.90237 7.37342 3.29289 6.9829L7.29289 2.9829C7.68342 2.59237 8.31658 2.59237 8.70711 2.9829Z" fill="black"/>
<path fill-rule="evenodd" clip-rule="evenodd" d="M28.7071 22.9829C29.0976 23.3734 29.0976 24.0066 28.7071 24.3971L24.7071 28.3971C24.3166 28.7876 23.6834 28.7876 23.2929 28.3971C22.9024 28.0066 22.9024 27.3734 23.2929 26.9829L27.2929 22.9829C27.6834 22.5924 28.3166 22.5924 28.7071 22.9829Z" fill="black"/>
<path fill-rule="evenodd" clip-rule="evenodd" d="M16.7071 2.9829C17.0976 3.37342 17.0976 4.00659 16.7071 4.39711L4.70711 16.3971C4.31658 16.7876 3.68342 16.7876 3.29289 16.3971C2.90237 16.0066 2.90237 15.3734 3.29289 14.9829L15.2929 2.9829C15.6834 2.59237 16.3166 2.59237 16.7071 2.9829Z" fill="black"/>
<path fill-rule="evenodd" clip-rule="evenodd" d="M28.7071 14.9829C29.0976 15.3734 29.0976 16.0066 28.7071 16.3971L16.7071 28.3971C16.3166 28.7876 15.6834 28.7876 15.2929 28.3971C14.9024 28.0066 14.9024 27.3734 15.2929 26.9829L27.2929 14.9829C27.6834 14.5924 28.3166 14.5924 28.7071 14.9829Z" fill="black"/>
<path fill-rule="evenodd" clip-rule="evenodd" d="M24.7071 2.9829C25.0976 3.37342 25.0976 4.00659 24.7071 4.39711L4.70711 24.3971C4.31658 24.7876 3.68342 24.7876 3.29289 24.3971C2.90237 24.0066 2.90237 23.3734 3.29289 22.9829L23.2929 2.9829C23.6834 2.59237 24.3166 2.59237 24.7071 2.9829Z" fill="black"/>
<path fill-rule="evenodd" clip-rule="evenodd" d="M28.7071 6.9829C29.0976 7.37342 29.0976 8.00659 28.7071 8.39711L8.70711 28.3971C8.31658 28.7876 7.68342 28.7876 7.29289 28.3971C6.90237 28.0066 6.90237 27.3734 7.29289 26.9829L27.2929 6.9829C27.6834 6.59237 28.3166 6.59237 28.7071 6.9829Z" fill="black"/>
</svg>
