<svg width="32" height="32" viewBox="0 0 32 32" fill="none" xmlns="http://www.w3.org/2000/svg">
<path d="M16 6.19C16.8284 6.19 17.5 5.51843 17.5 4.69C17.5 3.86158 16.8284 3.19 16 3.19C15.1716 3.19 14.5 3.86158 14.5 4.69C14.5 5.51843 15.1716 6.19 16 6.19Z" fill="black"/>
<path d="M24 9.19C24.8284 9.19 25.5 8.51843 25.5 7.69C25.5 6.86158 24.8284 6.19 24 6.19C23.1716 6.19 22.5 6.86158 22.5 7.69C22.5 8.51843 23.1716 9.19 24 9.19Z" fill="black"/>
<path d="M8 9.19C8.82843 9.19 9.5 8.51843 9.5 7.69C9.5 6.86158 8.82843 6.19 8 6.19C7.17157 6.19 6.5 6.86158 6.5 7.69C6.5 8.51843 7.17157 9.19 8 9.19Z" fill="black"/>
<path d="M5 17.19C5.82843 17.19 6.5 16.5184 6.5 15.69C6.5 14.8616 5.82843 14.19 5 14.19C4.17157 14.19 3.5 14.8616 3.5 15.69C3.5 16.5184 4.17157 17.19 5 17.19Z" fill="black"/>
<path d="M8 25.19C8.82843 25.19 9.5 24.5184 9.5 23.69C9.5 22.8616 8.82843 22.19 8 22.19C7.17157 22.19 6.5 22.8616 6.5 23.69C6.5 24.5184 7.17157 25.19 8 25.19Z" fill="black"/>
<path d="M16 28.19C16.8284 28.19 17.5 27.5184 17.5 26.69C17.5 25.8616 16.8284 25.19 16 25.19C15.1716 25.19 14.5 25.8616 14.5 26.69C14.5 27.5184 15.1716 28.19 16 28.19Z" fill="black"/>
<path d="M24 25.19C24.8284 25.19 25.5 24.5184 25.5 23.69C25.5 22.8616 24.8284 22.19 24 22.19C23.1716 22.19 22.5 22.8616 22.5 23.69C22.5 24.5184 23.1716 25.19 24 25.19Z" fill="black"/>
<path d="M27 17.19C27.8284 17.19 28.5 16.5184 28.5 15.69C28.5 14.8616 27.8284 14.19 27 14.19C26.1716 14.19 25.5 14.8616 25.5 15.69C25.5 16.5184 26.1716 17.19 27 17.19Z" fill="black"/>
</svg>
