<svg width="32" height="32" viewBox="0 0 32 32" fill="none" xmlns="http://www.w3.org/2000/svg">
<path fill-rule="evenodd" clip-rule="evenodd" d="M25 15.69C25 15.1377 25.4477 14.69 26 14.69H29C29.5523 14.69 30 15.1377 30 15.69C30 16.2423 29.5523 16.69 29 16.69H26C25.4477 16.69 25 16.2423 25 15.69Z" fill="black"/>
<path fill-rule="evenodd" clip-rule="evenodd" d="M2 15.69C2 15.1377 2.44772 14.69 3 14.69H6C6.55228 14.69 7 15.1377 7 15.69C7 16.2423 6.55228 16.69 6 16.69H3C2.44772 16.69 2 16.2423 2 15.69Z" fill="black"/>
<path fill-rule="evenodd" clip-rule="evenodd" d="M16 1.69C16.5523 1.69 17 2.13772 17 2.69V5.69C17 6.24229 16.5523 6.69 16 6.69C15.4477 6.69 15 6.24229 15 5.69V2.69C15 2.13772 15.4477 1.69 16 1.69Z" fill="black"/>
<path fill-rule="evenodd" clip-rule="evenodd" d="M16 24.69C16.5523 24.69 17 25.1377 17 25.69V28.69C17 29.2423 16.5523 29.69 16 29.69C15.4477 29.69 15 29.2423 15 28.69V25.69C15 25.1377 15.4477 24.69 16 24.69Z" fill="black"/>
<path fill-rule="evenodd" clip-rule="evenodd" d="M22.3929 22.0829C22.7834 21.6924 23.4166 21.6924 23.8071 22.0829L25.9071 24.1829C26.2976 24.5734 26.2976 25.2066 25.9071 25.5971C25.5166 25.9876 24.8834 25.9876 24.4929 25.5971L22.3929 23.4971C22.0024 23.1066 22.0024 22.4734 22.3929 22.0829Z" fill="black"/>
<path fill-rule="evenodd" clip-rule="evenodd" d="M6.09288 5.7829C6.48341 5.39237 7.11657 5.39237 7.50709 5.7829L9.60709 7.8829C9.99762 8.27342 9.99762 8.90659 9.60709 9.29711C9.21657 9.68764 8.58341 9.68764 8.19288 9.29711L6.09288 7.19711C5.70236 6.80659 5.70236 6.17342 6.09288 5.7829Z" fill="black"/>
<path fill-rule="evenodd" clip-rule="evenodd" d="M9.60709 22.0829C9.99762 22.4734 9.99762 23.1066 9.60709 23.4971L7.50709 25.5971C7.11657 25.9876 6.48341 25.9876 6.09288 25.5971C5.70236 25.2066 5.70236 24.5734 6.09288 24.1829L8.19288 22.0829C8.5834 21.6924 9.21657 21.6924 9.60709 22.0829Z" fill="black"/>
<path fill-rule="evenodd" clip-rule="evenodd" d="M25.9071 5.7829C26.2976 6.17342 26.2976 6.80659 25.9071 7.19711L23.8071 9.29711C23.4166 9.68764 22.7834 9.68764 22.3929 9.29711C22.0024 8.90659 22.0024 8.27342 22.3929 7.8829L24.4929 5.7829C24.8834 5.39237 25.5166 5.39237 25.9071 5.7829Z" fill="black"/>
</svg>
