<svg xmlns="http://www.w3.org/2000/svg" width="64" height="64" viewBox="0 0 64 64">
  <title>array</title>
  <path d="M32,10a2,2,0,0,1,0-4" fill="none" stroke="#000" stroke-linecap="round" stroke-linejoin="round" stroke-width="2"/>
  <path d="M32,6a2,2,0,0,1,0,4" fill="none" stroke="#000" stroke-linecap="round" stroke-linejoin="round" stroke-width="2"/>
  <line x1="32" y1="6" x2="32" y2="10" fill="none" stroke="#000" stroke-linecap="round" stroke-linejoin="round" stroke-width="2"/>
  <line x1="30" y1="8" x2="34" y2="8" fill="none" stroke="#000" stroke-linecap="round" stroke-linejoin="round" stroke-width="2"/>
  <path d="M32,58a2,2,0,0,1,0-4" fill="none" stroke="#000" stroke-linecap="round" stroke-linejoin="round" stroke-width="2"/>
  <path d="M32,54a2,2,0,0,1,0,4" fill="none" stroke="#000" stroke-linecap="round" stroke-linejoin="round" stroke-width="2"/>
  <line x1="32" y1="54" x2="32" y2="58" fill="none" stroke="#000" stroke-linecap="round" stroke-linejoin="round" stroke-width="2"/>
  <line x1="30" y1="56" x2="34" y2="56" fill="none" stroke="#000" stroke-linecap="round" stroke-linejoin="round" stroke-width="2"/>
  <path d="M8,34a2,2,0,0,1,0-4" fill="none" stroke="#000" stroke-linecap="round" stroke-linejoin="round" stroke-width="2"/>
  <path d="M8,30a2,2,0,0,1,0,4" fill="none" stroke="#000" stroke-linecap="round" stroke-linejoin="round" stroke-width="2"/>
  <line x1="8" y1="30" x2="8" y2="34" fill="none" stroke="#000" stroke-linecap="round" stroke-linejoin="round" stroke-width="2"/>
  <line x1="6" y1="32" x2="10" y2="32" fill="none" stroke="#000" stroke-linecap="round" stroke-linejoin="round" stroke-width="2"/>
  <path d="M56,34a2,2,0,0,1,0-4" fill="none" stroke="#000" stroke-linecap="round" stroke-linejoin="round" stroke-width="2"/>
  <path d="M56,30a2,2,0,0,1,0,4" fill="none" stroke="#000" stroke-linecap="round" stroke-linejoin="round" stroke-width="2"/>
  <line x1="56" y1="30" x2="56" y2="34" fill="none" stroke="#000" stroke-linecap="round" stroke-linejoin="round" stroke-width="2"/>
  <line x1="54" y1="32" x2="58" y2="32" fill="none" stroke="#000" stroke-linecap="round" stroke-linejoin="round" stroke-width="2"/>
  <path d="M16.44,16.44a2,2,0,0,1-2.82-2.82" fill="none" stroke="#000" stroke-linecap="round" stroke-linejoin="round" stroke-width="2"/>
  <path d="M13.62,13.62a2,2,0,0,1,2.82,2.82" fill="none" stroke="#000" stroke-linecap="round" stroke-linejoin="round" stroke-width="2"/>
  <line x1="13.62" y1="13.62" x2="16.44" y2="16.44" fill="none" stroke="#000" stroke-linecap="round" stroke-linejoin="round" stroke-width="2"/>
  <line x1="13.62" y1="16.44" x2="16.44" y2="13.62" fill="none" stroke="#000" stroke-linecap="round" stroke-linejoin="round" stroke-width="2"/>
  <path d="M50.38,50.38a2,2,0,0,1-2.82-2.82" fill="none" stroke="#000" stroke-linecap="round" stroke-linejoin="round" stroke-width="2"/>
  <path d="M47.56,47.56a2,2,0,0,1,2.82,2.82" fill="none" stroke="#000" stroke-linecap="round" stroke-linejoin="round" stroke-width="2"/>
  <line x1="47.56" y1="47.56" x2="50.38" y2="50.38" fill="none" stroke="#000" stroke-linecap="round" stroke-linejoin="round" stroke-width="2"/>
  <line x1="47.56" y1="50.38" x2="50.38" y2="47.56" fill="none" stroke="#000" stroke-linecap="round" stroke-linejoin="round" stroke-width="2"/>
  <path d="M16.44,50.38a2,2,0,0,1-2.82-2.82" fill="none" stroke="#000" stroke-linecap="round" stroke-linejoin="round" stroke-width="2"/>
  <path d="M13.62,47.56a2,2,0,1,1,2.82,2.82" fill="none" stroke="#000" stroke-linecap="round" stroke-linejoin="round" stroke-width="2"/>
  <line x1="13.62" y1="47.56" x2="16.44" y2="50.38" fill="none" stroke="#000" stroke-linecap="round" stroke-linejoin="round" stroke-width="2"/>
  <line x1="13.62" y1="50.38" x2="16.44" y2="47.56" fill="none" stroke="#000" stroke-linecap="round" stroke-linejoin="round" stroke-width="2"/>
  <path d="M50.38,16.44a2,2,0,1,1-2.82-2.82" fill="none" stroke="#000" stroke-linecap="round" stroke-linejoin="round" stroke-width="2"/>
  <path d="M47.56,13.62a2,2,0,0,1,2.82,2.82" fill="none" stroke="#000" stroke-linecap="round" stroke-linejoin="round" stroke-width="2"/>
  <line x1="47.56" y1="13.62" x2="50.38" y2="16.44" fill="none" stroke="#000" stroke-linecap="round" stroke-linejoin="round" stroke-width="2"/>
  <line x1="47.56" y1="16.44" x2="50.38" y2="13.62" fill="none" stroke="#000" stroke-linecap="round" stroke-linejoin="round" stroke-width="2"/>
</svg>
