<?xml version="1.0" encoding="UTF-8"?>
<svg width="24px" height="24px" viewBox="0 0 24 24" version="1.1" xmlns="http://www.w3.org/2000/svg" xmlns:xlink="http://www.w3.org/1999/xlink">
    <!-- Generator: Sketch 48.2 (47327) - http://www.bohemiancoding.com/sketch -->
    <title>array</title>
    <desc>Created with Sketch.</desc>
    <defs></defs>
    <g id="Page-1" stroke="none" stroke-width="1" fill="none" fill-rule="evenodd" stroke-linecap="round" stroke-linejoin="round">
        <g id="array" stroke="#000000" stroke-width="2">
            <path d="M13,4 C13,4.552 12.553,5 12,5 C11.447,5 11,4.552 11,4 C11,3.448 11.447,3 12,3 C12.553,3 13,3.448 13,4 Z" id="Stroke-1"></path>
            <path d="M13,20 C13,20.552 12.553,21 12,21 C11.447,21 11,20.552 11,20 C11,19.448 11.447,19 12,19 C12.553,19 13,19.448 13,20 Z" id="Stroke-3"></path>
            <path d="M20,13 C19.447,13 19,12.552 19,12 C19,11.448 19.447,11 20,11 C20.553,11 21,11.448 21,12 C21,12.552 20.553,13 20,13 Z" id="Stroke-5"></path>
            <path d="M4,13 C3.447,13 3,12.552 3,12 C3,11.448 3.447,11 4,11 C4.553,11 5,11.448 5,12 C5,12.552 4.553,13 4,13 Z" id="Stroke-7"></path>
            <path d="M18.3643,7.0503 C17.9733,7.4413 17.3403,7.4413 16.9503,7.0503 C16.5593,6.6593 16.5593,6.0263 16.9503,5.6363 C17.3403,5.2453 17.9733,5.2453 18.3643,5.6363 C18.7553,6.0263 18.7553,6.6593 18.3643,7.0503 Z" id="Stroke-9"></path>
            <path d="M7.0498,18.3638 C6.6598,18.7548 6.0268,18.7548 5.6358,18.3638 C5.2448,17.9738 5.2448,17.3408 5.6358,16.9498 C6.0268,16.5588 6.6598,16.5588 7.0498,16.9498 C7.4408,17.3408 7.4408,17.9738 7.0498,18.3638 Z" id="Stroke-11"></path>
            <path d="M16.9502,18.3638 C16.5592,17.9738 16.5592,17.3408 16.9502,16.9498 C17.3402,16.5588 17.9732,16.5588 18.3642,16.9498 C18.7552,17.3408 18.7552,17.9738 18.3642,18.3638 C17.9732,18.7548 17.3402,18.7548 16.9502,18.3638 Z" id="Stroke-13"></path>
            <path d="M5.6357,7.0503 C5.2447,6.6593 5.2447,6.0263 5.6357,5.6363 C6.0267,5.2453 6.6597,5.2453 7.0497,5.6363 C7.4407,6.0263 7.4407,6.6593 7.0497,7.0503 C6.6597,7.4413 6.0267,7.4413 5.6357,7.0503 Z" id="Stroke-15"></path>
        </g>
    </g>
</svg>