<svg width="32" height="32" viewBox="0 0 32 32" fill="none" xmlns="http://www.w3.org/2000/svg">
<path d="M4 3.69H12C12.5523 3.69 13 4.13772 13 4.69C13 5.24229 12.5523 5.69 12 5.69H7.41421L12.7071 10.9829C13.0976 11.3734 13.0976 12.0066 12.7071 12.3971C12.3166 12.7876 11.6834 12.7876 11.2929 12.3971L6 7.10422V11.69C6 12.2423 5.55228 12.69 5 12.69C4.44772 12.69 4 12.2423 4 11.69V3.69Z" fill="black"/>
<path d="M28 3.69V11.69C28 12.2423 27.5523 12.69 27 12.69C26.4477 12.69 26 12.2423 26 11.69V7.10422L20.7071 12.3971C20.3166 12.7876 19.6834 12.7876 19.2929 12.3971C18.9024 12.0066 18.9024 11.3734 19.2929 10.9829L24.5858 5.69H20C19.4477 5.69 19 5.24229 19 4.69C19 4.13772 19.4477 3.69 20 3.69H28Z" fill="black"/>
<path d="M26 19.69C26 19.1377 26.4477 18.69 27 18.69C27.5523 18.69 28 19.1377 28 19.69V27.69H20C19.4477 27.69 19 27.2423 19 26.69C19 26.1377 19.4477 25.69 20 25.69H24.5858L19.2929 20.3971C18.9024 20.0066 18.9024 19.3734 19.2929 18.9829C19.6834 18.5924 20.3166 18.5924 20.7071 18.9829L26 24.2758V19.69Z" fill="black"/>
<path d="M5 18.69C5.55228 18.69 6 19.1377 6 19.69V24.2758L11.2929 18.9829C11.6834 18.5924 12.3166 18.5924 12.7071 18.9829C13.0976 19.3734 13.0976 20.0066 12.7071 20.3971L7.41421 25.69H12C12.5523 25.69 13 26.1377 13 26.69C13 27.2423 12.5523 27.69 12 27.69H5.00098C5.00033 27.69 4.99967 27.69 4.99902 27.69H4V26.6902C4 26.6903 4 26.6901 4 26.6902V19.69C4 19.1377 4.44772 18.69 5 18.69Z" fill="black"/>
</svg>
