<svg width="32" height="32" viewBox="0 0 32 32" fill="none" xmlns="http://www.w3.org/2000/svg">
<path d="M26.7071 11.3971C27.0976 11.0066 27.0976 10.3734 26.7071 9.9829C26.3166 9.59237 25.6834 9.59237 25.2929 9.9829L19 16.2758L14 11.2758L7 18.2758V14.69C7 14.1377 6.55228 13.69 6 13.69C5.44772 13.69 5 14.1377 5 14.69V20.6898C5 20.6899 5 20.6897 5 20.6898V21.69H5.99931C5.99977 21.69 6.00023 21.69 6.00069 21.69H12C12.5523 21.69 13 21.2423 13 20.69C13 20.1377 12.5523 19.69 12 19.69H8.41421L14 14.1042L19 19.1042L26.7071 11.3971Z" fill="black"/>
</svg>
