<svg width="32" height="32" viewBox="0 0 32 32" fill="none" xmlns="http://www.w3.org/2000/svg">
<path d="M5.70711 3.9829C5.31658 3.59237 4.68342 3.59237 4.29289 3.9829C3.90237 4.37342 3.90237 5.00659 4.29289 5.39711L9.58579 10.69H5C4.44772 10.69 4 11.1377 4 11.69C4 12.2423 4.44772 12.69 5 12.69H13V4.69C13 4.13772 12.5523 3.69 12 3.69C11.4477 3.69 11 4.13772 11 4.69V9.27579L5.70711 3.9829Z" fill="black"/>
<path d="M22.4142 10.69L27.7071 5.39711C28.0976 5.00659 28.0976 4.37342 27.7071 3.9829C27.3166 3.59237 26.6834 3.59237 26.2929 3.9829L21 9.27579V4.69C21 4.13772 20.5523 3.69 20 3.69C19.4477 3.69 19 4.13772 19 4.69V12.69H27C27.5523 12.69 28 12.2423 28 11.69C28 11.1377 27.5523 10.69 27 10.69H22.4142Z" fill="black"/>
<path d="M27 18.69C27.5523 18.69 28 19.1377 28 19.69C28 20.2423 27.5523 20.69 27 20.69H22.4142L27.7071 25.9829C28.0976 26.3734 28.0976 27.0066 27.7071 27.3971C27.3166 27.7876 26.6834 27.7876 26.2929 27.3971L21 22.1042V26.69C21 27.2423 20.5523 27.69 20 27.69C19.4477 27.69 19 27.2423 19 26.69V18.69H27Z" fill="black"/>
<path d="M13 18.69V26.69C13 27.2423 12.5523 27.69 12 27.69C11.4477 27.69 11 27.2423 11 26.69V22.1042L5.70711 27.3971C5.31658 27.7876 4.68342 27.7876 4.29289 27.3971C3.90237 27.0066 3.90237 26.3734 4.29289 25.9829L9.58579 20.69H5C4.44772 20.69 4 20.2423 4 19.69C4 19.1377 4.44772 18.69 5 18.69H13Z" fill="black"/>
</svg>
