<svg width="32" height="32" viewBox="0 0 32 32" fill="none" xmlns="http://www.w3.org/2000/svg">
<path fill-rule="evenodd" clip-rule="evenodd" d="M4 16C4 9.35228 9.35228 4 16 4C22.6477 4 28 9.35228 28 16C28 17.3477 26.8477 18.5 25.5 18.5C24.1523 18.5 23 17.3477 23 16V10C23 9.44772 22.5523 9 22 9C21.4477 9 21 9.44772 21 10V11.101C19.7295 9.80447 17.9587 9 16 9C12.134 9 9 12.134 9 16C9 19.866 12.134 23 16 23C18.7486 23 21.1272 21.4158 22.2726 19.1107C23.0954 19.9634 24.2447 20.5 25.5 20.5C27.9523 20.5 30 18.4523 30 16C30 8.24772 23.7523 2 16 2C8.24772 2 2 8.24772 2 16C2 23.7523 8.24772 30 16 30C19.8884 30 23.329 28.3781 25.8919 25.922C26.2906 25.5399 26.3041 24.9068 25.922 24.5081C25.5399 24.1094 24.9068 24.0959 24.5081 24.478C22.271 26.6219 19.3116 28 16 28C9.35228 28 4 22.6477 4 16ZM21 16C21 13.2386 18.7614 11 16 11C13.2386 11 11 13.2386 11 16C11 18.7614 13.2386 21 16 21C18.7614 21 21 18.7614 21 16Z" fill="black"/>
</svg>
