<svg width="32" height="32" viewBox="0 0 32 32" fill="none" xmlns="http://www.w3.org/2000/svg">
<path fill-rule="evenodd" clip-rule="evenodd" d="M26.2929 7.18211C23.3834 4.27263 18.6166 4.27263 15.7071 7.18211L4.70711 18.1821C2.89763 19.9916 2.89763 22.9584 4.70711 24.7679C6.51658 26.5774 9.48342 26.5774 11.2929 24.7679L22.2929 13.7679C23.0024 13.0584 23.0024 11.8916 22.2929 11.1821C21.5834 10.4726 20.4166 10.4726 19.7071 11.1821L9.7071 21.1821C9.31658 21.5726 8.68342 21.5726 8.29289 21.1821C7.90237 20.7916 7.90237 20.1584 8.29289 19.7679L18.2929 9.76789C19.7834 8.27737 22.2166 8.27737 23.7071 9.76789C25.1976 11.2584 25.1976 13.6916 23.7071 15.1821L12.7071 26.1821C10.1166 28.7726 5.88342 28.7726 3.29289 26.1821C0.702367 23.5916 0.702368 19.3584 3.29289 16.7679L14.2929 5.76789C17.9834 2.07737 24.0166 2.07737 27.7071 5.76789C31.3976 9.45842 31.3976 15.4916 27.7071 19.1821L17.7071 29.1821C17.3166 29.5726 16.6834 29.5726 16.2929 29.1821C15.9024 28.7916 15.9024 28.1584 16.2929 27.7679L26.2929 17.7679C29.2024 14.8584 29.2024 10.0916 26.2929 7.18211Z" fill="black"/>
</svg>
