<svg width="32" height="32" viewBox="0 0 32 32" fill="none" xmlns="http://www.w3.org/2000/svg">
<path d="M14.27 20.42L16.89 16.23C17.0372 15.9939 17.0846 15.7091 17.0218 15.4381C16.9589 15.1671 16.791 14.9322 16.555 14.785C16.319 14.6378 16.0341 14.5904 15.7631 14.6532C15.4921 14.716 15.2572 14.8839 15.11 15.12L13.38 17.89L11.65 15.12C11.5028 14.8839 11.2679 14.716 10.9969 14.6532C10.7259 14.5904 10.441 14.6378 10.205 14.785C9.96896 14.9322 9.80106 15.1671 9.73823 15.4381C9.67541 15.7091 9.72281 15.9939 9.87 16.23L12.49 20.42C12.5739 20.5838 12.7014 20.7212 12.8584 20.8172C13.0155 20.9132 13.196 20.964 13.38 20.964C13.564 20.964 13.7445 20.9132 13.9016 20.8172C14.0586 20.7212 14.1861 20.5838 14.27 20.42V20.42ZM22.21 26.15H24.38C24.5155 26.1568 24.6509 26.1359 24.7781 26.0887C24.9052 26.0415 25.0214 25.9689 25.1197 25.8754C25.2179 25.7818 25.296 25.6693 25.3494 25.5446C25.4027 25.4199 25.4302 25.2856 25.43 25.15V10.44C25.4372 10.3002 25.4149 10.1605 25.3647 10.0298C25.3145 9.89917 25.2374 9.78052 25.1384 9.68155C25.0395 9.58258 24.9208 9.50549 24.7902 9.45526C24.6595 9.40503 24.5198 9.38279 24.38 9.38998H22.2C21.9215 9.38998 21.6545 9.5006 21.4575 9.69751C21.2606 9.89443 21.15 10.1615 21.15 10.44C21.15 10.7185 21.2606 10.9855 21.4575 11.1824C21.6545 11.3794 21.9215 11.49 22.2 11.49H23.33V24.06H22.21C21.9328 24.06 21.6671 24.1701 21.4711 24.366C21.2751 24.562 21.165 24.8278 21.165 25.105C21.165 25.3821 21.2751 25.6479 21.4711 25.8439C21.6671 26.0399 21.9328 26.15 22.21 26.15ZM18.09 24.06H8.67V11.49H18.09V24.06ZM19.14 9.38998H7.62C7.48436 9.38981 7.35011 9.41723 7.22541 9.47058C7.1007 9.52394 6.98816 9.6021 6.89461 9.70032C6.80107 9.79854 6.72849 9.91476 6.68128 10.0419C6.63407 10.1691 6.61322 10.3045 6.62 10.44V25.11C6.62 25.3752 6.72536 25.6295 6.9129 25.8171C7.10043 26.0046 7.35479 26.11 7.62 26.11H19.14C19.2755 26.1168 19.4109 26.0959 19.5381 26.0487C19.6652 26.0015 19.7814 25.9289 19.8797 25.8354C19.9779 25.7418 20.056 25.6293 20.1094 25.5046C20.1627 25.3799 20.1902 25.2456 20.19 25.11V10.44C20.1972 10.3002 20.1749 10.1605 20.1247 10.0298C20.0745 9.89917 19.9974 9.78052 19.8984 9.68155C19.7995 9.58258 19.6808 9.50549 19.5502 9.45526C19.4195 9.40503 19.2798 9.38279 19.14 9.38998ZM30.67 4.14998V27.2C30.67 27.6132 30.5885 28.0223 30.43 28.4039C30.2716 28.7855 30.0394 29.1321 29.7468 29.4238C29.4541 29.7155 29.1068 29.9466 28.7247 30.1038C28.3426 30.261 27.9332 30.3413 27.52 30.34H4.52C4.10681 30.3413 3.69742 30.261 3.3153 30.1038C2.93319 29.9466 2.58586 29.7155 2.29322 29.4238C2.00058 29.1321 1.7684 28.7855 1.60997 28.4039C1.45155 28.0223 1.37 27.6132 1.37 27.2V8.34998C1.36993 7.52143 1.69631 6.72622 2.27843 6.13661C2.86054 5.54701 3.65152 5.2105 4.48 5.19998H13.9C14.1785 5.19998 14.4456 5.3106 14.6425 5.50751C14.8394 5.70443 14.95 5.9715 14.95 6.24998C14.95 6.52845 14.8394 6.79552 14.6425 6.99244C14.4456 7.18935 14.1785 7.29998 13.9 7.29998H4.48C4.34453 7.29319 4.2091 7.31404 4.08195 7.36125C3.95479 7.40846 3.83857 7.48104 3.74035 7.57459C3.64213 7.66813 3.56396 7.78068 3.51061 7.90538C3.45726 8.03008 3.42983 8.16434 3.43 8.29998V27.2C3.42983 27.3356 3.45726 27.4699 3.51061 27.5946C3.56396 27.7193 3.64213 27.8318 3.74035 27.9254C3.83857 28.0189 3.95479 28.0915 4.08195 28.1387C4.2091 28.1859 4.34453 28.2068 4.48 28.2H27.48C27.6155 28.2068 27.7509 28.1859 27.8781 28.1387C28.0052 28.0915 28.1214 28.0189 28.2197 27.9254C28.3179 27.8318 28.396 27.7193 28.4494 27.5946C28.5027 27.4699 28.5302 27.3356 28.53 27.2V4.19998C28.5302 4.06434 28.5027 3.93008 28.4494 3.80538C28.396 3.68068 28.3179 3.56813 28.2197 3.47459C28.1214 3.38104 28.0052 3.30846 27.8781 3.26125C27.7509 3.21404 27.6155 3.19319 27.48 3.19998H2.38C2.10152 3.19998 1.83445 3.08935 1.63754 2.89244C1.44063 2.69552 1.33 2.42845 1.33 2.14998C1.33 1.8715 1.44063 1.60443 1.63754 1.40751C1.83445 1.2106 2.10152 1.09998 2.38 1.09998H27.52C28.3554 1.09998 29.1566 1.43185 29.7474 2.02259C30.3381 2.61333 30.67 3.41454 30.67 4.24998V4.14998Z" fill="black"/>
</svg>
