<svg width="32" height="32" viewBox="0 0 32 32" fill="none" xmlns="http://www.w3.org/2000/svg">
<path fill-rule="evenodd" clip-rule="evenodd" d="M16 7C13.2386 7 11 9.23858 11 12C11 14.7614 13.2386 17 16 17C18.7614 17 21 14.7614 21 12C21 9.23858 18.7614 7 16 7ZM13 12C13 10.3431 14.3431 9 16 9C17.6569 9 19 10.3431 19 12C19 13.6569 17.6569 15 16 15C14.3431 15 13 13.6569 13 12Z" fill="black"/>
<path fill-rule="evenodd" clip-rule="evenodd" d="M6 12C6 14.7771 7.13204 17.2898 8.95983 19.1018L6.6666 30.568L16 27.068L25.3334 30.568L23.0402 19.1018C24.868 17.2898 26 14.7771 26 12C26 6.47715 21.5228 2 16 2C10.4772 2 6 6.47715 6 12ZM16 4C11.5817 4 8 7.58172 8 12C8 16.4183 11.5817 20 16 20C20.4183 20 24 16.4183 24 12C24 7.58172 20.4183 4 16 4ZM10.7209 20.4946C11.9862 21.2826 13.4404 21.7958 15 21.9506V25.307L9.33342 27.432L10.7209 20.4946ZM22.6666 27.432L21.2791 20.4946C20.0138 21.2826 18.5596 21.7958 17 21.9506V25.307L22.6666 27.432Z" fill="black"/>
</svg>
