<svg width="32" height="32" viewBox="0 0 32 32" fill="none" xmlns="http://www.w3.org/2000/svg">
<path fill-rule="evenodd" clip-rule="evenodd" d="M15.3273 1.95006C15.7087 1.60332 16.2913 1.60332 16.6727 1.95006L18.4767 3.59006L20.7575 3.01986C21.2684 2.89212 21.7909 3.18258 21.952 3.68399L22.6949 5.99511L25.006 6.73797C25.5074 6.89914 25.7979 7.42159 25.6701 7.93254L25.0999 10.2133L26.7399 12.0173C27.0867 12.3988 27.0867 12.9813 26.7399 13.3627L25.0999 15.1667L25.6701 17.4475C25.7552 17.7878 25.6548 18.1332 25.4301 18.3735L28.7675 24.1925C28.9558 24.5209 28.9425 24.9276 28.7332 25.243C28.5238 25.5584 28.1543 25.7286 27.7785 25.6826L23.6194 25.1733L21.9171 29.0887C21.7666 29.4347 21.4343 29.6666 21.0576 29.6883C20.6809 29.7101 20.3241 29.5179 20.1349 29.1915L16.7527 23.3572L16.6727 23.4299C16.2913 23.7767 15.7087 23.7767 15.3273 23.4299L15.2473 23.3572L11.8651 29.1915C11.6759 29.5179 11.3191 29.7101 10.9424 29.6883C10.5657 29.6666 10.2334 29.4347 10.0829 29.0887L8.38058 25.1733L4.22154 25.6826C3.84574 25.7286 3.47618 25.5584 3.26681 25.243C3.05745 24.9276 3.04418 24.5209 3.23254 24.1925L6.56989 18.3735C6.3452 18.1331 6.24478 17.7878 6.32986 17.4475L6.90006 15.1667L5.26006 13.3627C4.91331 12.9813 4.91331 12.3988 5.26006 12.0173L6.90006 10.2133L6.32986 7.93254C6.20212 7.42159 6.49258 6.89914 6.99399 6.73797L9.30511 5.99511L10.048 3.68399C10.2091 3.18258 10.7316 2.89212 11.2425 3.01986L13.5233 3.59006L15.3273 1.95006ZM8.5052 17.027C8.50268 17.0255 8.50016 17.0241 8.49762 17.0226L8.97014 15.1325C9.05123 14.8082 8.96485 14.4647 8.73994 14.2173L7.35146 12.69L8.73994 11.1627C8.96485 10.9153 9.05123 10.5718 8.97014 10.2475L8.49717 8.35559L10.406 7.74203C10.7129 7.64339 10.9534 7.40288 11.052 7.09601L11.6656 5.18718L13.5575 5.66015C13.8818 5.74124 14.2253 5.65485 14.4727 5.42994L16 4.04146L17.5273 5.42994C17.7747 5.65485 18.1182 5.74124 18.4425 5.66015L20.3344 5.18717L20.948 7.09601C21.0466 7.40288 21.2871 7.64339 21.594 7.74203L23.5028 8.35559L23.0299 10.2475C22.9488 10.5718 23.0351 10.9153 23.2601 11.1627L24.6485 12.69L23.2601 14.2173C23.0351 14.4647 22.9488 14.8082 23.0299 15.1325L23.5024 17.0226L23.4948 17.027L21.594 17.638C21.2871 17.7366 21.0466 17.9771 20.948 18.284L20.3344 20.1928L18.4425 19.7199C18.1182 19.6388 17.7747 19.7252 17.5273 19.9501L16 21.3385L14.4727 19.9501C14.2253 19.7252 13.8818 19.6388 13.5575 19.7199L11.6656 20.1928L11.052 18.284C10.9534 17.9771 10.7129 17.7366 10.406 17.638L8.5052 17.027ZM8.45259 19.1109L5.96132 23.4546L8.87846 23.0974C9.31796 23.0436 9.74052 23.2852 9.91707 23.6913L11.1277 26.4758L13.7334 21.9809L13.5233 21.7899L11.2425 22.3601C10.7316 22.4879 10.2091 22.1974 10.048 21.696L9.30511 19.3849L8.45259 19.1109ZM26.0387 23.4546L23.5474 19.1109L22.6949 19.3849L21.952 21.696C21.7909 22.1974 21.2684 22.4879 20.7575 22.3601L18.4767 21.7899L18.2666 21.9809L20.8723 26.4758L22.0829 23.6913C22.2595 23.2852 22.682 23.0436 23.1215 23.0974L26.0387 23.4546Z" fill="black"/>
</svg>
