<svg width="32" height="32" viewBox="0 0 32 32" fill="none" xmlns="http://www.w3.org/2000/svg">
<path fill-rule="evenodd" clip-rule="evenodd" d="M10 9V8C10 4.64772 12.6477 2 16 2C19.3523 2 22 4.64772 22 8V9H23C25.2523 9 27 10.7477 27 13V26C27 28.2523 25.2523 30 23 30H9C6.74772 30 5 28.2523 5 26V13C5 10.7477 6.74772 9 9 9H10ZM12 8C12 5.75228 13.7523 4 16 4C18.2477 4 20 5.75228 20 8V9H12V8ZM10 11V13C10 13.5523 10.4477 14 11 14C11.5523 14 12 13.5523 12 13V11H20V13C20 13.5523 20.4477 14 21 14C21.5523 14 22 13.5523 22 13V11H23C24.1477 11 25 11.8523 25 13V26C25 27.1477 24.1477 28 23 28H9C7.85228 28 7 27.1477 7 26V13C7 11.8523 7.85228 11 9 11H10Z" fill="black"/>
</svg>
