<svg width="32" height="32" viewBox="0 0 32 32" fill="none" xmlns="http://www.w3.org/2000/svg">
<path fill-rule="evenodd" clip-rule="evenodd" d="M14.2498 5.96856C14.1699 5.98908 14.0862 6 14 6H9.80425L13.848 12.47C13.9484 12.6306 13.9993 12.8131 14 12.996L14 13.0033C13.9982 16.354 11.3512 19 8 19C4.64772 19 2 16.3523 2 13C2 12.7998 2.05885 12.6133 2.16019 12.4569L7.14281 4.48471C7.17229 4.43578 7.20583 4.38958 7.24298 4.34658C7.27431 4.31027 7.30807 4.27645 7.34391 4.24529C7.51952 4.09251 7.74896 4 8 4H14C14.0862 4 14.1699 4.01092 14.2498 4.03144C14.5909 3.41634 15.2468 3 16 3C16.7532 3 17.4091 3.41634 17.7502 4.03144C17.8301 4.01092 17.9138 4 18 4H24C24.2496 4 24.4779 4.09147 24.6531 4.24272C24.6908 4.27523 24.7262 4.31068 24.759 4.34886C24.7953 4.39118 24.8282 4.43658 24.8571 4.48462L29.848 12.47C29.9484 12.6306 29.9993 12.8131 30 12.996L30 13.0033C29.9982 16.354 27.3512 19 24 19C20.6477 19 18 16.3523 18 13C18 12.7998 18.0588 12.6133 18.1602 12.4569L22.1958 6H18C17.9138 6 17.8301 5.98908 17.7502 5.96856C17.5683 6.2967 17.2967 6.56827 16.9686 6.75025C16.9891 6.83008 17 6.91376 17 7V28H21C21.5523 28 22 28.4477 22 29C22 29.5523 21.5523 30 21 30H11C10.4477 30 10 29.5523 10 29C10 28.4477 10.4477 28 11 28H15V7C15 6.91376 15.0109 6.83008 15.0314 6.75025C14.7033 6.56827 14.4317 6.2967 14.2498 5.96856ZM4.12043 14C4.55228 15.7465 6.09894 17 8 17C9.90106 17 11.4477 15.7465 11.8796 14H4.12043ZM11.1958 12H4.80425L8 6.8868L11.1958 12ZM24 17C22.0989 17 20.5523 15.7465 20.1204 14H27.8796C27.4477 15.7465 25.9011 17 24 17ZM20.8042 12H27.1958L24 6.8868L20.8042 12Z" fill="black"/>
</svg>
