<svg width="32" height="32" viewBox="0 0 32 32" fill="none" xmlns="http://www.w3.org/2000/svg">
<path fill-rule="evenodd" clip-rule="evenodd" d="M16.6001 2.2C16.2557 1.94174 15.7848 1.9328 15.4309 2.17781L2.43086 11.1778C2.07122 11.4268 1.91513 11.8806 2.04556 12.2982C2.17599 12.7157 2.56265 13 3.00007 13H7.00006V23H5.00006C4.44778 23 4.00006 23.4477 4.00006 24C4.00006 24.5523 4.44778 25 5.00006 25H27.0001C27.5523 25 28.0001 24.5523 28.0001 24C28.0001 23.4477 27.5523 23 27.0001 23H25.0001V13H28.0001C28.4305 13 28.8126 12.7246 28.9488 12.3162C29.0849 11.9079 28.9444 11.4583 28.6001 11.2L16.6001 2.2ZM25.0001 11L15.9767 4.23246L6.20134 11H25.0001ZM23.0001 13V23H21.0001V13H23.0001ZM19.0001 13V23H17.0001V13H19.0001ZM13.0001 23H15.0001V13H13.0001V23ZM11.0001 13V23H9.00006V13H11.0001Z" fill="black"/>
<path d="M2.00006 28C2.00006 27.4477 2.44778 27 3.00006 27H29.0001C29.5523 27 30.0001 27.4477 30.0001 28C30.0001 28.5523 29.5523 29 29.0001 29H3.00006C2.44778 29 2.00006 28.5523 2.00006 28Z" fill="black"/>
</svg>
