<svg width="32" height="32" viewBox="0 0 32 32" fill="none" xmlns="http://www.w3.org/2000/svg">
<path d="M7 23.222C7 22.6697 7.44772 22.222 8 22.222H12C12.5523 22.222 13 22.6697 13 23.222C13 23.7743 12.5523 24.222 12 24.222H8C7.44772 24.222 7 23.7743 7 23.222Z" fill="black"/>
<path fill-rule="evenodd" clip-rule="evenodd" d="M14.9908 8.75771C14.4106 8.41211 13.729 8.22199 13 8.22199H7C4.74772 8.22199 3 9.96971 3 12.222V27.222C2.44772 27.222 2 27.6697 2 28.222C2 28.7743 2.44772 29.222 3 29.222H17C17.5523 29.222 18 28.7743 18 28.222C18 27.6697 17.5523 27.222 17 27.222V14.7576L25.4081 8.4159L25.4139 8.41134C26.7129 7.40102 27.0565 5.58007 25.9894 4.20805C24.9806 2.91109 23.1638 2.56659 21.7925 3.62765L21.0583 4.1814C21.017 4.20807 20.9776 4.23775 20.9406 4.27017L16.3643 7.72177C16.2468 7.77878 16.1413 7.85837 16.0541 7.95574L14.9908 8.75771ZM23.0139 5.21134C23.4419 4.87847 24.021 4.93492 24.4106 5.43593C24.7424 5.86246 24.6875 6.43902 24.1912 6.82866L22.13 8.38328L22.5311 5.57569L23.0081 5.2159L23.0139 5.21134ZM20.2668 7.28349L19.8657 10.0911L17.3267 12.0061L17.7278 9.19849L20.2668 7.28349ZM13.0487 10.2225L10.3748 12.2393C10.2514 12.2279 10.1264 12.222 10 12.222C7.79086 12.222 6 14.0129 6 16.222C6 18.4311 7.79086 20.222 10 20.222C11.9104 20.222 13.508 18.8827 13.9052 17.0918L15 16.2661V27.222H5V12.222C5 11.0743 5.85228 10.222 7 10.222H13C13.0163 10.222 13.0326 10.2222 13.0487 10.2225ZM15.4547 10.9129C15.4575 10.9115 15.4604 10.91 15.4632 10.9086L15.0624 13.7139L13.7131 14.7316C13.4588 14.0986 13.0473 13.5457 12.527 13.1211L15.4547 10.9129ZM10.1807 14.23C10.3203 14.2943 10.4727 14.3255 10.6255 14.3217C11.4237 14.5843 12 15.3359 12 16.222C12 17.3266 11.1046 18.222 10 18.222C8.89543 18.222 8 17.3266 8 16.222C8 15.1174 8.89543 14.222 10 14.222C10.0609 14.222 10.1212 14.2247 10.1807 14.23Z" fill="black"/>
</svg>
