<svg width="32" height="32" viewBox="0 0 32 32" fill="none" xmlns="http://www.w3.org/2000/svg">
<path d="M8 20C7.44772 20 7 20.4477 7 21C7 21.5523 7.44772 22 8 22H12C12.5523 22 13 21.5523 13 21C13 20.4477 12.5523 20 12 20H8Z" fill="black"/>
<path fill-rule="evenodd" clip-rule="evenodd" d="M17 17H27C28.6523 17 30 15.6523 30 14C30 12.3477 28.6523 11 27 11H17V10C17 7.74772 15.2523 6 13 6H7C4.74772 6 3 7.74772 3 10V25C2.44772 25 2 25.4477 2 26C2 26.5523 2.44772 27 3 27H17C17.5523 27 18 26.5523 18 26C18 25.4477 17.5523 25 17 25V17ZM7 8C5.85228 8 5 8.85228 5 10V25H15V17H12.6458C11.9407 17.6224 11.0144 18 10 18C7.79086 18 6 16.2091 6 14C6 11.7909 7.79086 10 10 10C11.0144 10 11.9407 10.3776 12.6458 11H15V10C15 8.85228 14.1477 8 13 8H7ZM18.4142 15L20.4142 13H23.5858L21.5858 15H18.4142ZM17.5858 13L15.5858 15H13.874C13.9562 14.6804 14 14.3453 14 14C14 13.6547 13.9562 13.3196 13.874 13H17.5858ZM10 12C8.89543 12 8 12.8954 8 14C8 15.1046 8.89543 16 10 16C10.5185 16 10.9909 15.8027 11.3462 15.4791C11.4126 15.3706 11.499 15.2757 11.6004 15.1996C11.8513 14.8654 12 14.4501 12 14C12 13.5499 11.8513 13.1346 11.6004 12.8004C11.499 12.7243 11.4126 12.6294 11.3462 12.5209C10.9909 12.1973 10.5185 12 10 12ZM24.4142 15H27C27.5477 15 28 14.5477 28 14C28 13.4523 27.5477 13 27 13H26.4142L24.4142 15Z" fill="black"/>
</svg>
