<svg width="32" height="32" viewBox="0 0 32 32" fill="none" xmlns="http://www.w3.org/2000/svg">
<path fill-rule="evenodd" clip-rule="evenodd" d="M9 4C7.85228 4 7 4.85228 7 6V15H30.3092L27.5605 25.0787L27.5558 25.0941C27.0661 26.6857 25.7317 27.8667 24 27.9894V29C24 29.5523 23.5523 30 23 30C22.4477 30 22 29.5523 22 29V28H10V29C10 29.5523 9.55228 30 9 30C8.44772 30 8 29.5523 8 29V27.9894C6.2683 27.8667 4.93394 26.6857 4.44422 25.0941L4.43948 25.0787L1.69075 15H5V6C5 3.74772 6.74771 2 9 2H12C14.2523 2 16 3.74772 16 6H18C18.5523 6 19 6.44772 19 7C19 7.55228 18.5523 8 18 8H12C11.4477 8 11 7.55228 11 7C11 6.44772 11.4477 6 12 6H14C14 4.85228 13.1477 4 12 4H9ZM23.7 26C24.6185 26 25.3542 25.4295 25.6398 24.5201L27.6908 17H4.30925L6.36018 24.5201C6.64575 25.4295 7.38154 26 8.3 26H23.7Z" fill="black"/>
<path d="M13 11C13.5523 11 14 10.5523 14 10C14 9.44772 13.5523 9 13 9C12.4477 9 12 9.44772 12 10C12 10.5523 12.4477 11 13 11Z" fill="black"/>
<path d="M18 10C18 10.5523 17.5523 11 17 11C16.4477 11 16 10.5523 16 10C16 9.44772 16.4477 9 17 9C17.5523 9 18 9.44772 18 10Z" fill="black"/>
<path d="M13 14C13.5523 14 14 13.5523 14 13C14 12.4477 13.5523 12 13 12C12.4477 12 12 12.4477 12 13C12 13.5523 12.4477 14 13 14Z" fill="black"/>
<path d="M18 13C18 13.5523 17.5523 14 17 14C16.4477 14 16 13.5523 16 13C16 12.4477 16.4477 12 17 12C17.5523 12 18 12.4477 18 13Z" fill="black"/>
</svg>
