<svg width="32" height="32" viewBox="0 0 32 32" fill="none" xmlns="http://www.w3.org/2000/svg">
<path fill-rule="evenodd" clip-rule="evenodd" d="M6 9C3.74772 9 2 10.7477 2 13V19C2 21.2523 3.74772 23 6 23H20C22.2523 23 24 21.2523 24 19V13C24 10.7477 22.2523 9 20 9H6ZM4 13C4 11.8523 4.85228 11 6 11H20C21.1477 11 22 11.8523 22 13V19C22 20.1477 21.1477 21 20 21H6C4.85228 21 4 20.1477 4 19V13Z" fill="black"/>
<path d="M27 13H26V19H27C28.6523 19 30 17.6523 30 16C30 14.3477 28.6523 13 27 13Z" fill="black"/>
</svg>
