<svg width="32" height="32" viewBox="0 0 32 32" fill="none" xmlns="http://www.w3.org/2000/svg">
<path d="M13.8682 9.49631C14.1423 9.01679 13.9757 8.40594 13.4961 8.13193C13.0166 7.85792 12.4058 8.02451 12.1318 8.50403L7.27682 17.0002H15.2768L12.1318 22.504C11.8577 22.9835 12.0243 23.5944 12.5039 23.8684C12.9834 24.1424 13.5942 23.9758 13.8682 23.4963L18.7232 15.0002H10.7232L13.8682 9.49631Z" fill="black"/>
<path d="M27 13.0002H26V19.0002H27C28.6523 19.0002 30 17.6525 30 16.0002C30 14.3479 28.6523 13.0002 27 13.0002Z" fill="black"/>
<path d="M16 10.0002C16 9.44789 16.4477 9.00017 17 9.00017H20C22.2523 9.00017 24 10.7479 24 13.0002V19.0002C24 21.2525 22.2523 23.0002 20 23.0002H18C17.4477 23.0002 17 22.5525 17 22.0002C17 21.4479 17.4477 21.0002 18 21.0002H20C21.1477 21.0002 22 20.1479 22 19.0002V13.0002C22 11.8525 21.1477 11.0002 20 11.0002H17C16.4477 11.0002 16 10.5525 16 10.0002Z" fill="black"/>
<path d="M4 13.0002C4 11.8525 4.85228 11.0002 6 11.0002H8C8.55228 11.0002 9 10.5525 9 10.0002C9 9.44789 8.55228 9.00017 8 9.00017H6C3.74772 9.00017 2 10.7479 2 13.0002V19.0002C2 21.2525 3.74772 23.0002 6 23.0002H9C9.55228 23.0002 10 22.5525 10 22.0002C10 21.4479 9.55228 21.0002 9 21.0002H6C4.85228 21.0002 4 20.1479 4 19.0002V13.0002Z" fill="black"/>
</svg>
