<?xml version="1.0" encoding="UTF-8"?>
<svg width="24px" height="24px" viewBox="0 0 24 24" version="1.1" xmlns="http://www.w3.org/2000/svg" xmlns:xlink="http://www.w3.org/1999/xlink">
    <!-- Generator: Sketch 48.2 (47327) - http://www.bohemiancoding.com/sketch -->
    <title>battery-full</title>
    <desc>Created with Sketch.</desc>
    <defs></defs>
    <g id="Page-1" stroke="none" stroke-width="1" fill="none" fill-rule="evenodd" stroke-linecap="round" stroke-linejoin="round">
        <g id="battery-full" stroke="#000000" stroke-width="2">
            <path d="M3,6 L17,6 C18.104,6 19,6.896 19,8 L19,16 C19,17.104 18.104,18 17,18 L3,18 C1.896,18 1,17.104 1,16 L1,8 C1,6.896 1.896,6 3,6 Z" id="Stroke-1"></path>
            <path d="M3,6 L17,6 C18.104,6 19,6.896 19,8 L19,16 C19,17.104 18.104,18 17,18 L3,18 C1.896,18 1,17.104 1,16 L1,8 C1,6.896 1.896,6 3,6 Z" id="Stroke-3"></path>
            <path d="M23,13 L23,11" id="Stroke-5"></path>
            <path d="M5,12 L15,12" id="Stroke-7"></path>
        </g>
    </g>
</svg>