<svg width="32" height="32" viewBox="0 0 32 32" fill="none" xmlns="http://www.w3.org/2000/svg">
<path fill-rule="evenodd" clip-rule="evenodd" d="M27 5H5V13.1198C3.25092 13.5502 2 15.0945 2 17V25H4V26C4 26.5523 4.44772 27 5 27C5.55228 27 6 26.5523 6 26V25H26V26C26 26.5523 26.4477 27 27 27C27.5523 27 28 26.5523 28 26V25H30V17C30 15.0945 28.7491 13.5502 27 13.1198V5ZM28 18V17C28 15.8523 27.1477 15 26 15H6C4.85228 15 4 15.8523 4 17V18H28ZM4 20H28V23H4V20ZM25 13H22C22 10.7477 20.2523 9 18 9H14C11.7477 9 10 10.7477 10 13H7V7H25V13ZM14 11C12.8523 11 12 11.8523 12 13H20C20 11.8523 19.1477 11 18 11H14Z" fill="black"/>
</svg>
