<svg width="32" height="32" viewBox="0 0 32 32" fill="none" xmlns="http://www.w3.org/2000/svg">
<path fill-rule="evenodd" clip-rule="evenodd" d="M27 5H5V13.1198C3.25092 13.5502 2 15.0945 2 17V25H4V26C4 26.5523 4.44772 27 5 27C5.55228 27 6 26.5523 6 26V25H26V26C26 26.5523 26.4477 27 27 27C27.5523 27 28 26.5523 28 26V25H30V17C30 15.0945 28.7491 13.5502 27 13.1198V5ZM17 23H28V20H17V23ZM15 20V23H4V20H15ZM28 18V17C28 15.8523 27.1477 15 26 15H6C4.85228 15 4 15.8523 4 17V18H28ZM17 13H15V9H9V13H7V7H25V13H23V9H17V13ZM19 13H21V11H19V13ZM11 11V13H13V11H11Z" fill="black"/>
</svg>
