<svg width="32" height="32" viewBox="0 0 32 32" fill="none" xmlns="http://www.w3.org/2000/svg">
<path d="M14 16C14 15.4477 13.5523 15 13 15C12.4477 15 12 15.4477 12 16V24C12 24.5523 12.4477 25 13 25C13.5523 25 14 24.5523 14 24V16Z" fill="black"/>
<path d="M9 15C9.55228 15 10 15.4477 10 16V24C10 24.5523 9.55228 25 9 25C8.44772 25 8 24.5523 8 24V16C8 15.4477 8.44772 15 9 15Z" fill="black"/>
<path d="M18 16C18 15.4477 17.5523 15 17 15C16.4477 15 16 15.4477 16 16V24C16 24.5523 16.4477 25 17 25C17.5523 25 18 24.5523 18 24V16Z" fill="black"/>
<path fill-rule="evenodd" clip-rule="evenodd" d="M2 7C2 4.24772 4.24772 2 7 2C8.09816 2 9.15623 2.34196 10 2.99735C10.8438 2.34196 11.9018 2 13 2C14.0982 2 15.1562 2.34196 16 2.99735C16.8438 2.34196 17.9018 2 19 2C21.7523 2 24 4.24772 24 7C24 8.05961 23.6668 9.04444 23.1 9.855V10H26C28.2523 10 30 11.7477 30 14V17.2C30 19.4523 28.2523 21.2 26 21.2H23.1V25.2C23.1 27.8857 20.8183 30 18.2 30H7.9C5.16478 30 3 27.8692 3 25.2V9.99297C2.37254 9.15736 2 8.12049 2 7ZM4.86882 9.10452C4.80348 8.9902 4.71623 8.89002 4.61279 8.80969C4.22878 8.30547 4 7.67773 4 7C4 5.35228 5.35228 4 7 4C7.92313 4 8.71876 4.38151 9.21065 5.01394L10 6.02882L10.7894 5.01394C11.2812 4.38151 12.0769 4 13 4C13.9231 4 14.7188 4.38151 15.2106 5.01394L16 6.02882L16.7894 5.01394C17.2812 4.38151 18.0769 4 19 4C20.6477 4 22 5.35228 22 7C22 8.64772 20.6477 10 19 10C18.1279 10 17.2904 9.55612 16.7526 8.9415L15.9546 8.02954L15.2106 8.98606C14.7188 9.61849 13.9231 10 13 10C12.1279 10 11.2904 9.55612 10.7526 8.9415L9.95461 8.02954L9.21065 8.98606C8.71876 9.61849 7.92313 10 7 10C6.16941 10 5.4139 9.65638 4.86882 9.10452ZM5 11.5809V25.2C5 26.7308 6.23522 28 7.9 28H18.2C19.7817 28 21.1 26.7143 21.1 25.2V20.6364C21.0359 20.5045 21 20.3565 21 20.2C21 20.0435 21.0359 19.8955 21.1 19.7636V11.5356C20.4608 11.8335 19.7491 12 19 12C17.8751 12 16.8399 11.5902 16.028 10.9807C15.1797 11.6504 14.1103 12 13 12C11.8751 12 10.8399 11.5902 10.028 10.9807C9.17969 11.6504 8.11034 12 7 12C6.28975 12 5.61309 11.8503 5 11.5809ZM23.1 12V19.2H26C27.1477 19.2 28 18.3477 28 17.2V14C28 12.8523 27.1477 12 26 12H23.1Z" fill="black"/>
</svg>
