<svg width="32" height="32" viewBox="0 0 32 32" fill="none" xmlns="http://www.w3.org/2000/svg">
<path fill-rule="evenodd" clip-rule="evenodd" d="M16.5651 3.01922C11.3816 2.68117 7 6.8461 7 12.0171V16.0171C7 17.6648 5.64772 19.0171 4 19.0171H3V24.0171H29V19.0171H28C26.3523 19.0171 25 17.6648 25 16.0171V12.3171C25 7.53312 21.4338 3.35888 16.5696 3.01952L16.5651 3.01922ZM9 12.0171C9 7.98886 12.4172 4.75425 16.4327 5.01484C20.1673 5.27662 23 8.50186 23 12.3171V16.0171C23 18.4271 24.7235 20.4503 27 20.9162V22.0171H5V20.9162C7.27654 20.4503 9 18.4271 9 16.0171V12.0171Z" fill="black"/>
<path d="M13 25.0171V26.0171C13 27.6694 14.3477 29.0171 16 29.0171C17.6523 29.0171 19 27.6694 19 26.0171V25.0171H13Z" fill="black"/>
</svg>
