<svg width="32" height="32" viewBox="0 0 32 32" fill="none" xmlns="http://www.w3.org/2000/svg">
<path fill-rule="evenodd" clip-rule="evenodd" d="M17 3C17 2.44772 16.5523 2 16 2C15.4477 2 15 2.44772 15 3V4.05553C10.5142 4.55653 7 8.38559 7 13V21.5858L4.29289 24.2929C4.0069 24.5789 3.92134 25.009 4.07612 25.3827C4.2309 25.7564 4.59554 26 5 26H11.1009C11.5668 28.2765 13.59 30 16 30C18.41 30 20.4332 28.2765 20.8991 26H27C27.4045 26 27.7691 25.7564 27.9239 25.3827C28.0787 25.009 27.9931 24.5789 27.7071 24.2929L25 21.5858V13C25 8.38559 21.4858 4.55653 17 4.05553V3ZM16 28C17.2977 28 18.4121 27.1612 18.827 26H13.173C13.5879 27.1612 14.7023 28 16 28ZM24.5858 24H7.41422L8.70711 22.7071C8.89464 22.5196 9 22.2652 9 22V13C9 9.15228 12.1523 6 16 6C19.8477 6 23 9.15228 23 13V22C23 22.2652 23.1054 22.5196 23.2929 22.7071L24.5858 24Z" fill="black"/>
</svg>
