<svg width="32" height="32" viewBox="0 0 32 32" fill="none" xmlns="http://www.w3.org/2000/svg">
<path fill-rule="evenodd" clip-rule="evenodd" d="M26 5C26 4.44772 25.5523 4 25 4C24.4477 4 24 4.44772 24 5C24 6.14772 23.1477 7 22 7H20C19.66 7 19.3433 7.17275 19.1592 7.45861C18.9752 7.74448 18.9489 8.10428 19.0896 8.4138L19.8652 10.1199L12.6164 10.9254L12.2185 10H13C13.5523 10 14 9.55228 14 9C14 8.44772 13.5523 8 13 8H10.7221C10.7071 7.99966 10.692 7.99966 10.677 8H9C8.44772 8 8 8.44772 8 9C8 9.55228 8.44772 10 9 10H10.0415L10.8525 11.8861L9.62572 13.6035C8.83264 13.2169 7.94166 13 7 13C3.68629 13 1 15.6863 1 19C1 22.3137 3.68629 25 7 25C9.973 25 12.441 22.8377 12.917 20H14.9779C15.1117 20.003 15.2481 19.9791 15.3795 19.9252C15.3889 19.9213 15.3983 19.9173 15.4076 19.9132C15.5741 19.8389 15.7106 19.7244 15.8104 19.5861L21.0142 12.6478L21.6413 14.0274C20.0476 15.106 19 16.9307 19 19C19 22.3137 21.6863 25 25 25C28.3137 25 31 22.3137 31 19C31 15.6863 28.3137 13 25 13C24.4682 13 23.9526 13.0692 23.4617 13.199L21.553 9H22C24.2523 9 26 7.25228 26 5ZM15.2364 17.0182L18.8132 12.2491L13.4423 12.8459L15.2364 17.0182ZM11.7761 14.034L11.2524 14.7671C12.1097 15.6283 12.7071 16.7485 12.917 18H13.4815L11.7761 14.034ZM10.0649 16.4296C10.4426 16.8795 10.7231 17.4137 10.874 18H8.94319L10.0649 16.4296ZM8.43804 15.2663L6.18627 18.4188C5.96855 18.7236 5.93943 19.1245 6.11084 19.4576C6.28224 19.7907 6.62542 20 7 20H10.874C10.4299 21.7252 8.86384 23 7 23C4.79086 23 3 21.2091 3 19C3 16.7909 4.79086 15 7 15C7.5069 15 7.99177 15.0943 8.43804 15.2663ZM21 19C21 17.7428 21.58 16.6211 22.4869 15.8878L24.0896 19.4138C24.3182 19.9166 24.911 20.1389 25.4138 19.9104C25.9166 19.6818 26.1389 19.089 25.9104 18.5862L24.3074 15.0597C24.5324 15.0205 24.7638 15 25 15C27.2091 15 29 16.7909 29 19C29 21.2091 27.2091 23 25 23C22.7909 23 21 21.2091 21 19Z" fill="black"/>
</svg>
