<svg width="32" height="32" viewBox="0 0 32 32" fill="none" xmlns="http://www.w3.org/2000/svg">
<path d="M19.2929 2.29289C19.6834 1.90237 20.3166 1.90237 20.7071 2.29289L29.9282 11.514L26.5931 14.7208C26.195 15.1036 25.562 15.0912 25.1792 14.6931C24.7964 14.295 24.8088 13.662 25.2069 13.2792L27.0718 11.486L20 4.41421L14.7023 9.71189C14.7856 9.72557 14.8687 9.74097 14.9516 9.75804C16.4435 10.0652 17.982 10.9227 19.2919 12.178L19.2996 12.1854L19.3543 12.2401C19.7174 12.6027 20.1207 13.0053 20.3944 13.5528C20.6414 14.0468 20.4412 14.6474 19.9472 14.8944C19.4532 15.1414 18.8526 14.9412 18.6056 14.4472C18.4919 14.2199 18.32 14.0344 17.9006 13.6148C16.8124 12.5743 15.6041 11.9343 14.5483 11.717C13.4905 11.4992 12.6991 11.7161 12.2084 12.2059L11.9617 12.4525C11.678 12.7989 11.5335 13.2852 11.595 13.9005C11.65 14.45 11.249 14.9401 10.6995 14.995C10.342 15.0308 10.0098 14.8736 9.80603 14.6082L9.70711 14.7071C9.31658 15.0976 8.68342 15.0976 8.29289 14.7071C7.90237 14.3166 7.90237 13.6834 8.29289 13.2929L10.4855 11.1003C10.5872 10.9841 10.6979 10.8731 10.8179 10.7679L19.2929 2.29289Z" fill="black"/>
<path d="M7 21C7.55228 21 8 21.4477 8 22V23C8 23.5523 7.55228 24 7 24C6.44772 24 6 23.5523 6 23V22C6 21.4477 6.44772 21 7 21Z" fill="black"/>
<path d="M24 22C24 21.4477 23.5523 21 23 21C22.4477 21 22 21.4477 22 22V23C22 23.5523 22.4477 24 23 24C23.5523 24 24 23.5523 24 23V22Z" fill="black"/>
<path fill-rule="evenodd" clip-rule="evenodd" d="M2 16V30H28V16H2ZM11.4804 18H4V28H11.4804C11.4322 27.9335 11.3852 27.8659 11.3395 27.7973C10.4918 26.5258 10 24.8267 10 23C10 21.1733 10.4918 19.4742 11.3395 18.2027C11.3852 18.1341 11.4322 18.0665 11.4804 18ZM15 28C14.3338 28 13.6083 27.5949 13.0036 26.6879C12.4036 25.7879 12 24.487 12 23C12 21.513 12.4036 20.2121 13.0036 19.3121C13.6083 18.4051 14.3338 18 15 18C15.6662 18 16.3917 18.4051 16.9964 19.3121C17.5964 20.2121 18 21.513 18 23C18 24.487 17.5964 25.7879 16.9964 26.6879C16.3917 27.5949 15.6662 28 15 28ZM18.5196 28C18.5678 27.9335 18.6148 27.8659 18.6605 27.7973C19.5082 26.5258 20 24.8267 20 23C20 21.1733 19.5082 19.4742 18.6605 18.2027C18.6148 18.1341 18.5678 18.0665 18.5196 18H26V28H18.5196Z" fill="black"/>
<path d="M21.4071 8.6929C21.0166 8.30237 20.3834 8.30237 19.9929 8.69289C19.6024 9.08342 19.6024 9.71658 19.9929 10.1071L20.6929 10.8071C21.0834 11.1976 21.7166 11.1976 22.1071 10.8071C22.4976 10.4166 22.4976 9.78342 22.1071 9.3929L21.4071 8.6929Z" fill="black"/>
</svg>
