<svg width="32" height="32" viewBox="0 0 32 32" fill="none" xmlns="http://www.w3.org/2000/svg">
<path d="M6 14C6.55228 14 7 14.4477 7 15V16C7 16.5523 6.55228 17 6 17C5.44772 17 5 16.5523 5 16V15C5 14.4477 5.44772 14 6 14Z" fill="black"/>
<path d="M27 15C27 14.4477 26.5523 14 26 14C25.4477 14 25 14.4477 25 15V16C25 16.5523 25.4477 17 26 17C26.5523 17 27 16.5523 27 16V15Z" fill="black"/>
<path fill-rule="evenodd" clip-rule="evenodd" d="M1 8V24H31V8H1ZM11.3639 10H3V22H11.3639C9.89627 20.5092 9 18.3349 9 16C9 13.6651 9.89627 11.4908 11.3639 10ZM16 22C13.3776 22 11 19.4639 11 16C11 12.5361 13.3776 10 16 10C18.6224 10 21 12.5361 21 16C21 19.4639 18.6224 22 16 22ZM20.6361 22C22.1037 20.5092 23 18.3349 23 16C23 13.6651 22.1037 11.4908 20.6361 10H29V22H20.6361Z" fill="black"/>
</svg>
