<svg width="32" height="32" viewBox="0 0 32 32" fill="none" xmlns="http://www.w3.org/2000/svg">
<path fill-rule="evenodd" clip-rule="evenodd" d="M13 2C10.7477 2 9 3.74772 9 6V7H4C3.44772 7 3 7.44772 3 8C3 8.55228 3.44772 9 4 9H6V26C6 28.2523 7.74771 30 10 30H22C24.2523 30 26 28.2523 26 26V9H28C28.5523 9 29 8.55228 29 8C29 7.44772 28.5523 7 28 7H23V6C23 3.74772 21.2523 2 19 2H13ZM21 7V6C21 4.85228 20.1477 4 19 4H13C11.8523 4 11 4.85228 11 6V7H21ZM8 9V26C8 27.1477 8.85228 28 10 28H22C23.1477 28 24 27.1477 24 26V9H8Z" fill="black"/>
</svg>
