<svg width="32" height="32" viewBox="0 0 32 32" fill="none" xmlns="http://www.w3.org/2000/svg">
<path d="M15.42 1.02002H16.79L18.15 1.08002C18.732 1.09724 19.3127 1.14397 19.89 1.22002C20.46 1.28002 20.89 1.33002 21.42 1.42002C22.09 1.52002 22.76 1.65002 23.42 1.81002C24.3691 2.02404 25.2964 2.32532 26.19 2.71002H26.09C26.649 2.94308 27.1764 3.24545 27.66 3.61002V3.61002C27.9982 3.84582 28.2841 4.14879 28.5 4.50002V4.50002C28.666 4.74472 28.7532 5.03433 28.75 5.33002C28.7553 5.39658 28.7553 5.46346 28.75 5.53002V5.53002L28.59 6.53002C28.48 7.31002 28.36 8.09002 28.23 8.85002C28.08 9.78002 27.92 10.7 27.78 11.62C27.64 12.54 27.42 13.69 27.23 14.69C27.04 15.69 26.86 16.84 26.68 17.91C26.6203 18.2809 26.4575 18.6274 26.21 18.91C26.1078 19.037 25.9976 19.1572 25.88 19.27C25.4113 19.6724 24.8898 20.0089 24.33 20.27C23.5176 20.6922 22.6628 21.0274 21.78 21.27H21.69C20.6658 21.5513 19.6182 21.7387 18.56 21.83H18.49C17.93 21.88 17.36 21.92 16.81 21.94H15.89C14.8867 21.9377 13.8847 21.8709 12.89 21.74H13C12.34 21.65 11.68 21.54 11 21.4C10.0661 21.1988 9.1548 20.904 8.28 20.52H8.37C7.4323 20.1613 6.58054 19.6093 5.87 18.9C5.65372 18.6726 5.49886 18.3938 5.42 18.09V18.09L5 16.43C4.89 15.83 4.76 15.02 4.65 14.31C4.54 13.6 4.41 12.97 4.3 12.25C4.19 11.53 4.13 11.08 4 10.49C3.87 9.90002 3.84 9.31002 3.74 8.69002L3.48 7.09002C3.39 6.55002 3.32 6.09002 3.25 5.47002V5.32002V4.99002C3.28459 4.75141 3.36983 4.52296 3.5 4.32002C3.71313 4.00524 3.98064 3.73095 4.29 3.51002C4.81524 3.12659 5.39061 2.81704 6 2.59002V2.59002C6.77847 2.26529 7.58085 2.00117 8.4 1.80002H8.52C9.21 1.63002 9.9 1.50002 10.58 1.39002L11.58 1.26002L12.58 1.16002L13.23 1.11002L14.23 1.04002H15.5L15.42 1.02002ZM15.95 3.02002C15.1858 3.00689 14.4214 3.03359 13.66 3.10002C12.9 3.19002 12.44 3.19002 11.82 3.27002C11.2 3.35002 10.82 3.41002 10.2 3.53002C9.68146 3.63202 9.17285 3.77925 8.68 3.97002H8.74C8.53679 4.04696 8.34502 4.15126 8.17 4.28002V4.28002C8.06442 4.34889 7.97281 4.43711 7.9 4.54002V4.54002C7.86235 4.58334 7.835 4.63462 7.82 4.69002C7.8207 4.77645 7.8487 4.86045 7.9 4.93002V4.93002C7.90983 5.00605 7.94507 5.07653 8 5.13002C8.10446 5.21134 8.21476 5.28488 8.33 5.35002V5.35002C8.64548 5.52672 8.98128 5.6644 9.33 5.76002V5.76002C10.154 5.99693 10.9973 6.16089 11.85 6.25002H12C12.49 6.25002 13 6.35002 13.49 6.38002C13.98 6.41002 14.49 6.44002 15.06 6.45002C16.26 6.45002 17.47 6.45002 18.65 6.37002L19.84 6.27002L21.26 6.06002C21.8089 5.97964 22.3506 5.85592 22.88 5.69002H22.8C23.1366 5.60434 23.4551 5.45868 23.74 5.26002V5.26002C23.8384 5.19379 23.9261 5.11284 24 5.02002V5.02002C24.0794 4.92862 24.1221 4.81107 24.12 4.69002C24.108 4.59593 24.0659 4.50824 24 4.44002V4.44002C23.9181 4.35497 23.8313 4.27483 23.74 4.20002V4.20002C23.5369 4.05398 23.3148 3.93624 23.08 3.85002V3.85002C22.4322 3.61316 21.7621 3.44229 21.08 3.34002H21C20.5 3.26002 20 3.20002 19.47 3.15002C18.94 3.10002 18.19 3.04002 17.55 3.01002C16.91 2.98002 16.55 3.01002 16.01 3.01002L15.95 3.02002ZM12 15.2C12.0093 15.4885 12.0394 15.7759 12.09 16.06V16.06C12.2595 16.978 12.7527 17.8047 13.48 18.39V18.39C14.0163 18.8297 14.6632 19.1134 15.35 19.21V19.21C15.5651 19.2427 15.7824 19.2594 16 19.26C16.7349 19.2578 17.455 19.0532 18.0812 18.6686C18.7074 18.2841 19.2156 17.7344 19.55 17.08V17.08C19.8357 16.551 19.99 15.9611 20 15.36V15.36V15.24C20.0025 14.9503 19.9689 14.6614 19.9 14.38C19.7959 13.8029 19.5617 13.2572 19.2151 12.7842C18.8686 12.3111 18.4188 11.9233 17.9 11.65V11.65C17.3119 11.353 16.6585 11.2085 16 11.23H15.49C14.8866 11.2775 14.3035 11.4696 13.79 11.79V11.79C13.2146 12.1473 12.7393 12.6449 12.4087 13.2361C12.0781 13.8272 11.9031 14.4927 11.9 15.17V15.17L12 15.2ZM17.1 30.28C17.7343 30.2629 18.3662 30.196 18.99 30.08C19.7247 29.9627 20.4499 29.7922 21.16 29.57H21.05C21.6961 29.3816 22.3198 29.1234 22.91 28.8V28.8C23.3002 28.5779 23.657 28.3019 23.97 27.98V27.98C24.2306 27.7291 24.4292 27.421 24.55 27.08V27.08C24.568 26.9484 24.5947 26.8181 24.63 26.69C24.78 25.84 24.93 24.99 25.1 24.13C25.27 23.27 25.39 22.64 25.52 21.89C25.5247 21.8703 25.5247 21.8497 25.52 21.83C25.5204 21.7633 25.4961 21.6988 25.4518 21.649C25.4075 21.5991 25.3463 21.5674 25.28 21.56H25.2C25.0779 21.56 24.9589 21.5985 24.86 21.67V21.67L24.22 22.14C23.2767 22.6966 22.2694 23.1365 21.22 23.45H21.12C20.0852 23.7736 19.0194 23.9881 17.94 24.09H17.87C17.41 24.09 16.87 24.17 16.35 24.18H15.35C14.9711 24.1937 14.5919 24.1635 14.22 24.09C13.682 24.0454 13.1475 23.9652 12.62 23.85H12.72C11.5462 23.6247 10.4021 23.2657 9.31 22.78H9.41C8.70444 22.4647 8.03407 22.0759 7.41 21.62V21.62C7.27614 21.5837 7.13547 21.5802 7 21.61H6.9C6.79827 21.609 6.69961 21.6449 6.62236 21.7111C6.54512 21.7773 6.49453 21.8693 6.48 21.97V21.97C6.47503 22.0232 6.47503 22.0768 6.48 22.13C6.46967 22.1862 6.46967 22.2438 6.48 22.3V22.3L7 24.77C7.1 25.36 7.21 25.94 7.32 26.51C7.30787 26.6871 7.3352 26.8647 7.4 27.03C7.50548 27.4117 7.7129 27.7574 8 28.03V28.03C8.32498 28.3525 8.69561 28.6254 9.1 28.84V28.84C9.73306 29.1865 10.4042 29.4584 11.1 29.65H11.17C12.1515 29.9248 13.1554 30.1122 14.17 30.21H14.24C14.82 30.27 15.4 30.29 15.97 30.3H17.09L17.1 30.28ZM18 14.96C17.9854 14.4296 17.7607 13.9267 17.3753 13.5619C16.9899 13.1972 16.4754 13.0004 15.945 13.015C15.4146 13.0296 14.9117 13.2543 14.5469 13.6397C14.1821 14.0251 13.9854 14.5396 14 15.07C13.9951 15.1099 13.9951 15.1502 14 15.19C14.0146 15.7205 14.2393 16.2234 14.6247 16.5881C15.0101 16.9529 15.5246 17.1496 16.055 17.135C16.5854 17.1204 17.0883 16.8957 17.4531 16.5103C17.8179 16.125 18.0146 15.6105 18 15.08C18 15.08 18 15.01 18 14.97V14.96Z" fill="black"/>
</svg>
