<svg width="32" height="32" viewBox="0 0 32 32" fill="none" xmlns="http://www.w3.org/2000/svg">
<path d="M28.12 15.74L16 3.62002L10.69 8.90002L16.75 14.9C16.943 15.098 17.051 15.3635 17.051 15.64C17.051 15.9165 16.943 16.1821 16.75 16.38L10.69 22.52L16 27.85L28.12 15.74ZM10.31 20.02L14.54 15.74L10.31 11.45V20.02ZM30.31 16.5L16.75 30.06C16.552 30.253 16.2865 30.3611 16.01 30.3611C15.7335 30.3611 15.4679 30.253 15.27 30.06L8.42999 23.22C8.27846 23.0361 8.19072 22.808 8.17999 22.57V8.90002C8.18178 8.62409 8.28912 8.3593 8.47999 8.16002L15.32 1.32002C15.5193 1.12916 15.7841 1.02181 16.06 1.02002C16.3355 1.0238 16.5996 1.13086 16.8 1.32002L30.34 14.99C30.5269 15.1931 30.6307 15.459 30.6307 15.735C30.6307 16.011 30.5269 16.277 30.34 16.48L30.31 16.5ZM6.55999 13.08L3.89999 15.74L6.55999 18.39C6.73232 18.5248 6.8557 18.7124 6.91121 18.924C6.96673 19.1356 6.95131 19.3596 6.86733 19.5616C6.78334 19.7636 6.63542 19.9325 6.44625 20.0424C6.25707 20.1523 6.03708 20.1971 5.81999 20.17C5.54385 20.1693 5.2787 20.0618 5.07999 19.87L1.66999 16.45C1.57183 16.3539 1.49454 16.2386 1.44292 16.1113C1.3913 15.9839 1.36648 15.8474 1.36999 15.71C1.36863 15.4335 1.47644 15.1676 1.66999 14.97L5.07999 11.55C5.18023 11.4469 5.29987 11.3647 5.43202 11.3081C5.56417 11.2515 5.70622 11.2215 5.84999 11.22C5.98545 11.2132 6.12089 11.2341 6.24804 11.2813C6.3752 11.3285 6.49142 11.4011 6.58964 11.4946C6.68786 11.5882 6.76603 11.7007 6.81938 11.8254C6.87273 11.9501 6.90016 12.0844 6.89999 12.22C6.90269 12.3654 6.87367 12.5096 6.81495 12.6425C6.75623 12.7755 6.66922 12.8941 6.55999 12.99V13.08Z" fill="black"/>
</svg>
