<svg width="32" height="32" viewBox="0 0 32 32" fill="none" xmlns="http://www.w3.org/2000/svg">
<path d="M6 10C6 9.44772 6.44772 9 7 9H12C12.5523 9 13 9.44772 13 10C13 10.5523 12.5523 11 12 11H7C6.44772 11 6 10.5523 6 10Z" fill="black"/>
<path d="M7 13C6.44772 13 6 13.4477 6 14C6 14.5523 6.44772 15 7 15H12C12.5523 15 13 14.5523 13 14C13 13.4477 12.5523 13 12 13H7Z" fill="black"/>
<path d="M6 18C6 17.4477 6.44772 17 7 17H12C12.5523 17 13 17.4477 13 18C13 18.5523 12.5523 19 12 19H7C6.44772 19 6 18.5523 6 18Z" fill="black"/>
<path d="M7 21C6.44772 21 6 21.4477 6 22C6 22.5523 6.44772 23 7 23H12C12.5523 23 13 22.5523 13 22C13 21.4477 12.5523 21 12 21H7Z" fill="black"/>
<path d="M19 10C19 9.44772 19.4477 9 20 9H25C25.5523 9 26 9.44772 26 10C26 10.5523 25.5523 11 25 11H20C19.4477 11 19 10.5523 19 10Z" fill="black"/>
<path d="M20 13C19.4477 13 19 13.4477 19 14C19 14.5523 19.4477 15 20 15H25C25.5523 15 26 14.5523 26 14C26 13.4477 25.5523 13 25 13H20Z" fill="black"/>
<path d="M19 18C19 17.4477 19.4477 17 20 17H25C25.5523 17 26 17.4477 26 18C26 18.5523 25.5523 19 25 19H20C19.4477 19 19 18.5523 19 18Z" fill="black"/>
<path d="M20 21C19.4477 21 19 21.4477 19 22C19 22.5523 19.4477 23 20 23H25C25.5523 23 26 22.5523 26 22C26 21.4477 25.5523 21 25 21H20Z" fill="black"/>
<path fill-rule="evenodd" clip-rule="evenodd" d="M13 5H2V27H13C14.1477 27 15 27.8523 15 29C15 29.5523 15.4477 30 16 30C16.5523 30 17 29.5523 17 29C17 27.8523 17.8523 27 19 27H30V5H19C17.7902 5 16.726 5.50426 16 6.32011C15.274 5.50426 14.2098 5 13 5ZM15 9C15 7.85228 14.1477 7 13 7H4V25H13C13.7348 25 14.4158 25.186 15 25.5148V9ZM17 9V25.5148C17.5842 25.186 18.2652 25 19 25H28V7H19C17.8523 7 17 7.85228 17 9Z" fill="black"/>
</svg>
