<svg xmlns="http://www.w3.org/2000/svg" width="64" height="64" viewBox="0 0 64 64">
  <title>book-text</title>
  <path d="M6,47V7H22A10,10,0,0,1,32,17V57" fill="none" stroke="#000" stroke-linecap="round" stroke-linejoin="round" stroke-width="4"/>
  <path d="M32,17A10,10,0,0,1,42,7H58V47H42A10,10,0,0,0,32,57" fill="none" stroke="#000" stroke-linecap="round" stroke-linejoin="round" stroke-width="4"/>
  <path d="M6,47H22A10,10,0,0,1,32,57" fill="none" stroke="#000" stroke-linecap="round" stroke-linejoin="round" stroke-width="4"/>
  <line x1="40.06" y1="15" x2="50.06" y2="15" fill="none" stroke="#000" stroke-linecap="round" stroke-linejoin="round" stroke-width="4"/>
  <line x1="40.06" y1="23" x2="50.06" y2="23" fill="none" stroke="#000" stroke-linecap="round" stroke-linejoin="round" stroke-width="4"/>
  <line x1="40.06" y1="31" x2="50.06" y2="31" fill="none" stroke="#000" stroke-linecap="round" stroke-linejoin="round" stroke-width="4"/>
  <line x1="40.06" y1="39" x2="50.06" y2="39" fill="none" stroke="#000" stroke-linecap="round" stroke-linejoin="round" stroke-width="4"/>
  <line x1="14.06" y1="15" x2="24.06" y2="15" fill="none" stroke="#000" stroke-linecap="round" stroke-linejoin="round" stroke-width="4"/>
  <line x1="14.06" y1="23" x2="24.06" y2="23" fill="none" stroke="#000" stroke-linecap="round" stroke-linejoin="round" stroke-width="4"/>
  <line x1="14.06" y1="31" x2="24.06" y2="31" fill="none" stroke="#000" stroke-linecap="round" stroke-linejoin="round" stroke-width="4"/>
  <line x1="14.06" y1="39" x2="24.06" y2="39" fill="none" stroke="#000" stroke-linecap="round" stroke-linejoin="round" stroke-width="4"/>
</svg>
