<svg width="32" height="32" viewBox="0 0 32 32" fill="none" xmlns="http://www.w3.org/2000/svg">
<path fill-rule="evenodd" clip-rule="evenodd" d="M13 5H2V27H13C14.1477 27 15 27.8523 15 29C15 29.5523 15.4477 30 16 30C16.5523 30 17 29.5523 17 29C17 27.8523 17.8523 27 19 27H30V5H19C17.7902 5 16.726 5.50426 16 6.32011C15.274 5.50426 14.2098 5 13 5ZM15 9C15 7.85228 14.1477 7 13 7H4V25H13C13.7348 25 14.4158 25.186 15 25.5148V9ZM17 9V25.5148C17.5842 25.186 18.2652 25 19 25H28V7H19C17.8523 7 17 7.85228 17 9Z" fill="black"/>
</svg>
