<svg width="32" height="32" viewBox="0 0 32 32" fill="none" xmlns="http://www.w3.org/2000/svg">
<path fill-rule="evenodd" clip-rule="evenodd" d="M18.985 1L23.369 5.38402L21.1118 7.64127L24.6216 11.151L26.8641 8.90848L31.2481 13.2925L29.0056 15.5351L30.2132 16.7427L23.1422 23.8137L21.4 22.0715V29.4711H1.8V19.4711H3.3V18.3711C3.3 17.2188 4.24771 16.2711 5.4 16.2711H7.5C8.65228 16.2711 9.6 17.2188 9.6 18.3711V19.4711H13.5V18.4711C13.5 17.3188 14.4477 16.3711 15.6 16.3711H15.6996L8.57596 9.24744L15.647 2.17644L16.7278 3.25725L18.985 1ZM17.6996 18.3711H15.6C15.5826 18.3711 15.5572 18.3781 15.5321 18.4032C15.507 18.4283 15.5 18.4536 15.5 18.4711V19.4711H17.7L17.6996 18.3711ZM14.502 21.4711C14.5013 21.4711 14.5007 21.4711 14.5 21.4711C14.4993 21.4711 14.4987 21.4711 14.498 21.4711H8.60279L8.6 21.4711L8.59721 21.4711H4.30279L4.3 21.4711L4.29721 21.4711H3.8V27.4711H19.4V21.4711H14.502ZM23.2074 12.5652L23.1872 12.5854L27.3647 16.7629L23.1422 20.9853L11.4044 9.24744L15.6415 5.01031L19.6921 9.06094L19.6976 9.05547L23.2074 12.5652ZM27.5914 14.1209L28.4197 13.2925L26.8641 11.7369L26.0358 12.5652L27.5914 14.1209ZM20.5406 5.38402L19.6976 6.22707L18.142 4.67145L18.985 3.8284L20.5406 5.38402ZM7.6 18.3711V19.4711H5.3V18.3711C5.3 18.3536 5.30702 18.3283 5.33211 18.3032C5.35719 18.2781 5.38255 18.2711 5.4 18.2711H7.5C7.51745 18.2711 7.5428 18.2781 7.56789 18.3032C7.59298 18.3283 7.6 18.3536 7.6 18.3711Z" fill="black"/>
</svg>
