<?xml version="1.0" encoding="UTF-8"?>
<svg width="24px" height="24px" viewBox="0 0 24 24" version="1.1" xmlns="http://www.w3.org/2000/svg" xmlns:xlink="http://www.w3.org/1999/xlink">
    <!-- Generator: Sketch 48.2 (47327) - http://www.bohemiancoding.com/sketch -->
    <title>briefcase</title>
    <desc>Created with Sketch.</desc>
    <defs></defs>
    <g id="Page-1" stroke="none" stroke-width="1" fill="none" fill-rule="evenodd" stroke-linecap="round" stroke-linejoin="round">
        <g id="briefcase" stroke="#000000" stroke-width="1.5">
            <path d="M4,21 L20,21 C21.104,21 22,20.104 22,19 L22,9 C22,7.896 21.104,7 20,7 L4,7 C2.896,7 2,7.896 2,9 L2,19 C2,20.104 2.896,21 4,21 Z" id="Stroke-1"></path>
            <path d="M12,15 L12,13" id="Stroke-3"></path>
            <polyline id="Stroke-5" points="2 11 12 14 22 11"></polyline>
            <path d="M8,7 C8,4.791 9.791,3 12,3 C14.209,3 16,4.791 16,7" id="Stroke-7"></path>
        </g>
    </g>
</svg>