<svg width="32" height="32" viewBox="0 0 32 32" fill="none" xmlns="http://www.w3.org/2000/svg">
<path fill-rule="evenodd" clip-rule="evenodd" d="M18 2C18.5523 2 19 2.44772 19 3V7.58579L29.4142 18H22.3802L13.6848 25.7292C12.1159 27.2747 9.5862 27.3179 8.07867 25.6929L3.29289 20.9071C1.7257 19.3399 1.67438 16.7933 3.30713 15.2787L15 3.58578L17 5.58579V3C17 2.44772 17.4477 2 18 2ZM17 8.41421L15 6.41421L4.69174 16.7225L4.67572 16.7372C3.92596 17.4244 3.87976 18.6655 4.7071 19.4929L9.52247 24.3083L9.53715 24.3243C10.2244 25.074 11.4655 25.1202 12.2929 24.2929L12.3137 24.2721L21.6198 16H24.5858L19 10.4142V13C19 13.5523 18.5523 14 18 14C17.4477 14 17 13.5523 17 13V8.41421Z" fill="black"/>
<path fill-rule="evenodd" clip-rule="evenodd" d="M25.4186 21.0681L26.1 20.4337L26.7814 21.0681L26.7852 21.0717L26.7932 21.0791L26.8211 21.1055C26.8448 21.128 26.8786 21.1603 26.921 21.2015C27.0058 21.2838 27.1254 21.4017 27.2682 21.5479C27.5528 21.839 27.935 22.2473 28.32 22.712C28.7019 23.1728 29.1043 23.7104 29.4162 24.2588C29.7131 24.781 30 25.4355 30 26.1C30 28.2523 28.2523 30 26.1 30C23.9477 30 22.2 28.2523 22.2 26.1C22.2 25.4355 22.4869 24.781 22.7838 24.2588C23.0957 23.7104 23.4981 23.1728 23.88 22.712C24.265 22.2473 24.6472 21.839 24.9318 21.5479C25.0746 21.4017 25.1942 21.2838 25.279 21.2015C25.3214 21.1603 25.3552 21.128 25.3789 21.1055L25.4068 21.0791L25.4148 21.0717L25.4186 21.0681ZM26.1 21.8L25.4186 21.0681C25.4186 21.0681 25.4186 21.0681 26.1 21.8ZM26.1 23.2194C25.891 23.4421 25.6548 23.7046 25.42 23.988C25.0769 24.4022 24.7543 24.8396 24.5224 25.2474C24.2756 25.6815 24.2 25.9646 24.2 26.1C24.2 27.1477 25.0523 28 26.1 28C27.1477 28 28 27.1477 28 26.1C28 25.9646 27.9244 25.6815 27.6776 25.2474C27.4457 24.8396 27.1231 24.4022 26.78 23.988C26.5451 23.7046 26.309 23.4421 26.1 23.2194Z" fill="black"/>
</svg>
