<?xml version="1.0" encoding="UTF-8"?>
<svg width="24px" height="24px" viewBox="0 0 24 24" version="1.1" xmlns="http://www.w3.org/2000/svg" xmlns:xlink="http://www.w3.org/1999/xlink">
    <!-- Generator: Sketch 48.2 (47327) - http://www.bohemiancoding.com/sketch -->
    <title>bug</title>
    <desc>Created with Sketch.</desc>
    <defs></defs>
    <g id="Page-1" stroke="none" stroke-width="1" fill="none" fill-rule="evenodd" stroke-linecap="round" stroke-linejoin="round">
        <g id="bug" stroke="#000000" stroke-width="2">
            <path d="M12,5 C15.313,5 18,7.687 18,11 L18,15 C18,18.313 15.313,21 12,21 C8.687,21 6,18.313 6,15 L6,11 C6,7.687 8.687,5 12,5 Z" id="Stroke-1"></path>
            <path d="M2,7 L2,8 C2,9.657 3.343,11 5,11 L19,11 C20.657,11 22,9.657 22,8 L22,7.05" id="Stroke-3"></path>
            <path d="M8,2 C8,3.657 9.343,5 11,5 L13.037,5 C14.674,5 16,3.674 16,2.038" id="Stroke-5"></path>
            <path d="M12,11 L12,21" id="Stroke-7"></path>
            <path d="M22,15 L18,15" id="Stroke-9"></path>
            <path d="M20,22 C20,20.343 18.657,19 17,19 L16.472,19" id="Stroke-11"></path>
            <path d="M4,22 C4,20.343 5.343,19 7,19 L7.528,19" id="Stroke-13"></path>
            <path d="M6,15 L2,15" id="Stroke-15"></path>
        </g>
    </g>
</svg>