<svg width="32" height="32" viewBox="0 0 32 32" fill="none" xmlns="http://www.w3.org/2000/svg">
<path fill-rule="evenodd" clip-rule="evenodd" d="M12 3C12 2.44772 11.5523 2 11 2C10.4477 2 10 2.44772 10 3C10 4.6102 10.7693 6.04769 11.9589 6.96344C9.33656 8.29102 7.44228 10.8657 7.06779 13.8957C5.286 13.4875 4 11.9256 4 10C4 9.44772 3.55228 9 3 9C2.44772 9 2 9.44772 2 10C2 13.011 4.136 15.4535 7 15.9197V18H3C2.44772 18 2 18.4477 2 19C2 19.5523 2.44772 20 3 20H7V22.0803C4.136 22.5465 2 24.989 2 28C2 28.5523 2.44772 29 3 29C3.55228 29 4 28.5523 4 28C4 26.0676 5.29515 24.5014 7.08679 24.1C7.61792 27.4339 10.5218 30 14 30H18C21.4782 30 24.3821 27.4339 24.9132 24.1C26.7049 24.5014 28 26.0676 28 28C28 28.5523 28.4477 29 29 29C29.5523 29 30 28.5523 30 28C30 24.989 27.864 22.5465 25 22.0803V20H29C29.5523 20 30 19.5523 30 19C30 18.4477 29.5523 18 29 18H25V15.9197C27.864 15.4535 30 13.011 30 10C30 9.44772 29.5523 9 29 9C28.4477 9 28 9.44772 28 10C28 11.9256 26.714 13.4875 24.9322 13.8957C24.5577 10.8657 22.6634 8.29102 20.0411 6.96344C21.2307 6.04769 22 4.6102 22 3C22 2.44772 21.5523 2 21 2C20.4477 2 20 2.44772 20 3C20 4.64772 18.6477 6 17 6H15C13.3523 6 12 4.64772 12 3ZM23 16H17V28H18C20.7477 28 23 25.7477 23 23V16ZM15 28V16H9V23C9 25.7477 11.2523 28 14 28H15ZM9.07185 14C9.56136 10.6208 12.4916 8 16 8C19.5084 8 22.4386 10.6208 22.9281 14H9.07185Z" fill="black"/>
</svg>
