<svg width="32" height="32" viewBox="0 0 32 32" fill="none" xmlns="http://www.w3.org/2000/svg">
<path d="M21 9C21.5523 9 22 9.44772 22 10V14H24C24.5523 14 25 14.4477 25 15C25 15.5523 24.5523 16 24 16H20V10C20 9.44772 20.4477 9 21 9Z" fill="black"/>
<path d="M16 10C16 9.44772 15.5523 9 15 9C14.4477 9 14 9.44772 14 10V16H18C18.5523 16 19 15.5523 19 15C19 14.4477 18.5523 14 18 14H16V10Z" fill="black"/>
<path d="M9 9C9.55229 9 10 9.44772 10 10V14H12C12.5523 14 13 14.4477 13 15C13 15.5523 12.5523 16 12 16H8V10C8 9.44772 8.44772 9 9 9Z" fill="black"/>
<path d="M5 14C4.44772 14 4 14.4477 4 15C4 15.5523 4.44772 16 5 16H6C6.55228 16 7 15.5523 7 15C7 14.4477 6.55228 14 6 14H5Z" fill="black"/>
<path fill-rule="evenodd" clip-rule="evenodd" d="M19.126 23H15.874C15.4299 24.7252 13.8638 26 12 26C10.8053 26 9.73294 25.4762 9 24.6458C8.26705 25.4762 7.19469 26 6 26C4.13616 26 2.57006 24.7252 2.12602 23H1V10C1 7.79086 2.79086 6 5 6H21.259C22.6945 6 24.0198 6.76914 24.732 8.01544L27.6787 13.1721L28.2649 13.3675C29.8983 13.912 31 15.4406 31 17.1623V19C31 21.2091 29.2091 23 27 23H26.874C26.4299 24.7252 24.8638 26 23 26C21.1362 26 19.5701 24.7252 19.126 23ZM3 10C3 8.89543 3.89543 8 5 8H21.259C21.9767 8 22.6394 8.38457 22.9955 9.00772L26.3213 14.8279L27.6325 15.2649C28.4491 15.5371 29 16.3014 29 17.1623V19C29 20.1046 28.1046 21 27 21H26.874C26.4299 19.2748 24.8638 18 23 18C21.1362 18 19.5701 19.2748 19.126 21H15.874C15.4299 19.2748 13.8638 18 12 18C10.8053 18 9.73294 18.5238 9 19.3542C8.26705 18.5238 7.19469 18 6 18C4.80531 18 3.73294 18.5238 3 19.3542V10ZM12 24C10.8954 24 10 23.1046 10 22C10 20.8954 10.8954 20 12 20C13.1046 20 14 20.8954 14 22C14 23.1046 13.1046 24 12 24ZM6 20C7.10457 20 8 20.8954 8 22C8 23.1046 7.10457 24 6 24C4.89543 24 4 23.1046 4 22C4 20.8954 4.89543 20 6 20ZM21 22C21 20.8954 21.8954 20 23 20C24.1046 20 25 20.8954 25 22C25 23.1046 24.1046 24 23 24C21.8954 24 21 23.1046 21 22Z" fill="black"/>
</svg>
