<svg width="32" height="32" viewBox="0 0 32 32" fill="none" xmlns="http://www.w3.org/2000/svg">
<path d="M23 9C23.5523 9 24 9.44772 24 10V14H27C27.5523 14 28 14.4477 28 15C28 15.5523 27.5523 16 27 16H22V10C22 9.44772 22.4477 9 23 9Z" fill="black"/>
<path d="M18 10C18 9.44772 17.5523 9 17 9C16.4477 9 16 9.44772 16 10V16H20C20.5523 16 21 15.5523 21 15C21 14.4477 20.5523 14 20 14H18V10Z" fill="black"/>
<path d="M11 9C11.5523 9 12 9.44772 12 10V14H14C14.5523 14 15 14.4477 15 15C15 15.5523 14.5523 16 14 16H10V10C10 9.44772 10.4477 9 11 9Z" fill="black"/>
<path d="M6 10C6 9.44772 5.55228 9 5 9C4.44772 9 4 9.44772 4 10V16H8C8.55228 16 9 15.5523 9 15C9 14.4477 8.55228 14 8 14H6V10Z" fill="black"/>
<path fill-rule="evenodd" clip-rule="evenodd" d="M26.874 23H27C29.2091 23 31 21.2091 31 19V11.2426C31 10.1818 30.5786 9.16436 29.8284 8.41421L28.5858 7.17157C27.8356 6.42143 26.8182 6 25.7574 6H5C2.79086 6 1 7.79086 1 10V23H2.12602C2.57006 24.7252 4.13616 26 6 26C7.86384 26 9.42994 24.7252 9.87398 23H19.126C19.5701 24.7252 21.1362 26 23 26C24.8638 26 26.4299 24.7252 26.874 23ZM5 8C3.89543 8 3 8.89543 3 10V19.3542C3.73294 18.5238 4.80531 18 6 18C7.86384 18 9.42994 19.2748 9.87398 21H19.126C19.5701 19.2748 21.1362 18 23 18C24.8638 18 26.4299 19.2748 26.874 21H27C28.1046 21 29 20.1046 29 19V11.2426C29 10.7122 28.7893 10.2035 28.4142 9.82843L27.1716 8.58579C26.7965 8.21071 26.2878 8 25.7574 8H5ZM6 20C4.89543 20 4 20.8954 4 22C4 23.1046 4.89543 24 6 24C7.10457 24 8 23.1046 8 22C8 20.8954 7.10457 20 6 20ZM21 22C21 20.8954 21.8954 20 23 20C24.1046 20 25 20.8954 25 22C25 23.1046 24.1046 24 23 24C21.8954 24 21 23.1046 21 22Z" fill="black"/>
</svg>
