<svg width="32" height="32" viewBox="0 0 32 32" fill="none" xmlns="http://www.w3.org/2000/svg">
<path d="M23 9C23.5523 9 24 9.44772 24 10V14H27C27.5523 14 28 14.4477 28 15C28 15.5523 27.5523 16 27 16H22V10C22 9.44772 22.4477 9 23 9Z" fill="black"/>
<path d="M18 10C18 9.44772 17.5523 9 17 9C16.4477 9 16 9.44772 16 10V16H20C20.5523 16 21 15.5523 21 15C21 14.4477 20.5523 14 20 14H18V10Z" fill="black"/>
<path d="M11 9C11.5523 9 12 9.44772 12 10V14H14C14.5523 14 15 14.4477 15 15C15 15.5523 14.5523 16 14 16H10V10C10 9.44772 10.4477 9 11 9Z" fill="black"/>
<path d="M6 10C6 9.44772 5.55228 9 5 9C4.44772 9 4 9.44772 4 10V16H8C8.55228 16 9 15.5523 9 15C9 14.4477 8.55228 14 8 14H6V10Z" fill="black"/>
<path fill-rule="evenodd" clip-rule="evenodd" d="M19.126 23H15.874C15.4299 24.7252 13.8638 26 12 26C10.8053 26 9.73295 25.4762 9 24.6458C8.26706 25.4762 7.19469 26 6 26C4.13616 26 2.57006 24.7252 2.12602 23H1V10C1 7.79086 2.79086 6 5 6H25.7574C26.8182 6 27.8356 6.42143 28.5858 7.17157L29.8284 8.41421C30.5786 9.16436 31 10.1818 31 11.2426V19C31 21.2091 29.2091 23 27 23H26.874C26.4299 24.7252 24.8638 26 23 26C21.1362 26 19.5701 24.7252 19.126 23ZM3 10C3 8.89543 3.89543 8 5 8H25.7574C26.2878 8 26.7965 8.21071 27.1716 8.58579L28.4142 9.82843C28.7893 10.2035 29 10.7122 29 11.2426V19C29 20.1046 28.1046 21 27 21H26.874C26.4299 19.2748 24.8638 18 23 18C21.1362 18 19.5701 19.2748 19.126 21H15.874C15.4299 19.2748 13.8638 18 12 18C10.8053 18 9.73295 18.5238 9 19.3542C8.26706 18.5238 7.19469 18 6 18C4.80531 18 3.73294 18.5238 3 19.3542V10ZM6 20C7.10457 20 8 20.8954 8 22C8 23.1046 7.10457 24 6 24C4.89543 24 4 23.1046 4 22C4 20.8954 4.89543 20 6 20ZM12 24C10.8954 24 10 23.1046 10 22C10 20.8954 10.8954 20 12 20C13.1046 20 14 20.8954 14 22C14 23.1046 13.1046 24 12 24ZM21 22C21 20.8954 21.8954 20 23 20C24.1046 20 25 20.8954 25 22C25 23.1046 24.1046 24 23 24C21.8954 24 21 23.1046 21 22Z" fill="black"/>
</svg>
