<svg width="32" height="32" viewBox="0 0 32 32" fill="none" xmlns="http://www.w3.org/2000/svg">
<path d="M19.7071 13.7071C20.0976 13.3166 20.0976 12.6834 19.7071 12.2929C19.3166 11.9024 18.6834 11.9024 18.2929 12.2929L10.5858 20H16.5858L12.2929 24.2929C11.9024 24.6834 11.9024 25.3166 12.2929 25.7071C12.6834 26.0976 13.3166 26.0976 13.7071 25.7071L21.4142 18H15.4142L19.7071 13.7071Z" fill="black"/>
<path fill-rule="evenodd" clip-rule="evenodd" d="M6.56859 2.96624C9.01989 2.36285 12.3539 2 16 2C19.6461 2 22.9801 2.36285 25.4314 2.96624C26.6493 3.26603 27.7055 3.63858 28.4814 4.09013C29.1859 4.50011 30 5.17871 30 6.2L30 12.8L30 25.8C30 26.8143 29.1715 27.4838 28.482 27.8827C27.7106 28.3291 26.6591 28.7035 25.4425 29.0076C22.9943 29.6197 19.6597 30 16 30C12.3409 30 9.00407 29.6198 6.55262 28.9939C5.33444 28.6829 4.27907 28.2974 3.50425 27.8325C2.79468 27.4067 2 26.7165 2 25.7V6.2C2 5.17871 2.81414 4.50011 3.51861 4.09013C4.2945 3.63858 5.35071 3.26603 6.56859 2.96624ZM4.02862 6.2C4.08055 6.26639 4.21033 6.3984 4.5246 6.58129C5.06438 6.89543 5.91198 7.21243 7.04663 7.49173C9.30041 8.0465 12.4664 8.4 16 8.4C19.5336 8.4 22.6996 8.0465 24.9534 7.49173C26.088 7.21243 26.9356 6.89543 27.4754 6.58129C27.7897 6.3984 27.9195 6.26638 27.9714 6.2C27.9195 6.13361 27.7897 6.0016 27.4754 5.81871C26.9356 5.50457 26.088 5.18757 24.9534 4.90827C22.6996 4.3535 19.5336 4 16 4C12.4664 4 9.30041 4.3535 7.04663 4.90827C5.91198 5.18757 5.06438 5.50457 4.5246 5.81871C4.21033 6.0016 4.08055 6.13361 4.02862 6.2ZM28 12.7623C27.9855 12.7872 27.9465 12.8416 27.8524 12.925C27.6522 13.1024 27.3015 13.317 26.7668 13.5388C25.7053 13.9792 24.1272 14.3638 22.176 14.6077C21.6279 14.6762 21.2392 15.176 21.3077 15.724C21.3762 16.2721 21.876 16.6608 22.424 16.5923C24.4728 16.3362 26.2447 15.9208 27.5332 15.3862C27.6933 15.3197 27.8493 15.2501 28 15.1771V19.1784C27.9884 19.2033 27.9479 19.2698 27.8247 19.3769C27.6056 19.5677 27.2263 19.7925 26.6536 20.0215C25.5166 20.4763 23.8372 20.8623 21.7818 21.107C21.2334 21.1723 20.8417 21.6698 20.907 22.2182C20.9723 22.7666 21.4698 23.1583 22.0182 23.093C24.1628 22.8377 26.0334 22.4237 27.3964 21.8785C27.605 21.795 27.807 21.7065 28 21.6122V25.7438C27.9758 25.7807 27.8705 25.926 27.4805 26.1516C26.9394 26.4647 26.0909 26.784 24.9575 27.0674C22.7057 27.6303 19.5403 28 16 28C12.4591 28 9.29593 27.6302 7.04738 27.0561C5.91556 26.7671 5.07093 26.4401 4.53325 26.1175C4.10011 25.8576 4.0141 25.6955 4 25.668V21.6448C4.1535 21.7173 4.31236 21.7863 4.47521 21.8521C5.75531 22.3696 7.51836 22.7839 9.55166 23.0889C10.0978 23.1709 10.607 22.7945 10.6889 22.2483C10.7709 21.7022 10.3945 21.193 9.84834 21.1111C7.88164 20.8161 6.29469 20.4304 5.22479 19.9979C4.68559 19.7799 4.33555 19.5727 4.13702 19.4017C4.05361 19.3299 4.01573 19.2817 4 19.2575V15.1409C4.15836 15.2153 4.32255 15.2861 4.49111 15.3535C5.78406 15.8707 7.57233 16.2847 9.6552 16.5895C10.2017 16.6694 10.7095 16.2913 10.7895 15.7448C10.8694 15.1983 10.4913 14.6905 9.9448 14.6105C7.92767 14.3154 6.31594 13.9293 5.23389 13.4965C4.6886 13.2784 4.33609 13.071 4.13673 12.9001C4.05379 12.829 4.01587 12.7812 4 12.757V8.56334C4.7096 8.90297 5.58653 9.19202 6.56859 9.43376C9.01989 10.0372 12.3539 10.4 16 10.4C19.6461 10.4 22.9801 10.0372 25.4314 9.43376C26.4135 9.19202 27.2904 8.90297 28 8.56334V12.7623Z" fill="black"/>
</svg>
