<?xml version="1.0" encoding="UTF-8"?>
<svg width="24px" height="24px" viewBox="0 0 24 24" version="1.1" xmlns="http://www.w3.org/2000/svg" xmlns:xlink="http://www.w3.org/1999/xlink">
    <!-- Generator: Sketch 48.2 (47327) - http://www.bohemiancoding.com/sketch -->
    <title>cache</title>
    <desc>Created with Sketch.</desc>
    <defs></defs>
    <g id="Page-1" stroke="none" stroke-width="1" fill="none" fill-rule="evenodd" stroke-linecap="round" stroke-linejoin="round">
        <g id="cache" stroke="#000000" stroke-width="2">
            <path d="M21,5 C21,6.104 16.97,7 12,7 C7.03,7 3,6.104 3,5 C3,3.896 7.03,3 12,3 C16.97,3 21,3.896 21,5 Z" id="Stroke-1"></path>
            <path d="M17,11.6631 C19.412,11.3041 21,10.6931 21,10.0001 L21,5.0001" id="Stroke-3"></path>
            <path d="M3,5 L3,10 C3,10.69 4.574,11.299 6.969,11.658" id="Stroke-5"></path>
            <path d="M17,16.6631 C19.412,16.3041 21,15.6931 21,15.0001 L21,10.0001" id="Stroke-7"></path>
            <path d="M3,10 L3,15 C3,15.69 4.574,16.299 6.969,16.658" id="Stroke-9"></path>
            <path d="M3,15 L3,20 C3,21.104 7.03,22 12,22 C16.97,22 21,21.104 21,20 L21,15" id="Stroke-11"></path>
            <polyline id="Stroke-13" points="14 10 10 14 14 14 10 18"></polyline>
        </g>
    </g>
</svg>