<svg width="32" height="32" viewBox="0 0 32 32" fill="none" xmlns="http://www.w3.org/2000/svg">
<path d="M8 10C7.44772 10 7 10.4477 7 11C7 11.5523 7.44772 12 8 12H10V14C10 14.5523 10.4477 15 11 15C11.5523 15 12 14.5523 12 14V12H14C14.5523 12 15 11.5523 15 11C15 10.4477 14.5523 10 14 10H12V8C12 7.44772 11.5523 7 11 7C10.4477 7 10 7.44772 10 8V10H8Z" fill="black"/>
<path d="M17 11C17 10.4477 17.4477 10 18 10H24C24.5523 10 25 10.4477 25 11C25 11.5523 24.5523 12 24 12H18C17.4477 12 17 11.5523 17 11Z" fill="black"/>
<path d="M18 18C17.4477 18 17 18.4477 17 19C17 19.5523 17.4477 20 18 20H24C24.5523 20 25 19.5523 25 19C25 18.4477 24.5523 18 24 18H18Z" fill="black"/>
<path d="M17 23C17 22.4477 17.4477 22 18 22H24C24.5523 22 25 22.4477 25 23C25 23.5523 24.5523 24 24 24H18C17.4477 24 17 23.5523 17 23Z" fill="black"/>
<path d="M14.7071 17.2929C15.0976 17.6834 15.0976 18.3166 14.7071 18.7071L12.4142 21L14.7071 23.2929C15.0976 23.6834 15.0976 24.3166 14.7071 24.7071C14.3166 25.0976 13.6834 25.0976 13.2929 24.7071L11 22.4142L8.70711 24.7071C8.31658 25.0976 7.68342 25.0976 7.29289 24.7071C6.90237 24.3166 6.90237 23.6834 7.29289 23.2929L9.58579 21L7.29289 18.7071C6.90237 18.3166 6.90237 17.6834 7.29289 17.2929C7.68342 16.9024 8.31658 16.9024 8.70711 17.2929L11 19.5858L13.2929 17.2929C13.6834 16.9024 14.3166 16.9024 14.7071 17.2929Z" fill="black"/>
<path fill-rule="evenodd" clip-rule="evenodd" d="M6 2C3.74772 2 2 3.74772 2 6V26C2 28.2523 3.74772 30 6 30H26C28.2523 30 30 28.2523 30 26V6C30 3.74772 28.2523 2 26 2H6ZM4 6C4 4.85228 4.85228 4 6 4H26C27.1477 4 28 4.85228 28 6V26C28 27.1477 27.1477 28 26 28H6C4.85228 28 4 27.1477 4 26V6Z" fill="black"/>
</svg>
