<svg width="32" height="32" viewBox="0 0 32 32" fill="none" xmlns="http://www.w3.org/2000/svg">
<path fill-rule="evenodd" clip-rule="evenodd" d="M11 16C12.8638 16 14.4299 17.2748 14.874 19H25V23C25 23.5523 24.5523 24 24 24C23.4477 24 23 23.5523 23 23V21H21V23C21 23.5523 20.5523 24 20 24C19.4477 24 19 23.5523 19 23V21H14.874C14.4299 22.7252 12.8638 24 11 24C8.79086 24 7 22.2091 7 20C7 17.7909 8.79086 16 11 16ZM9 20C9 18.8954 9.89543 18 11 18C12.1046 18 13 18.8954 13 20C13 21.1046 12.1046 22 11 22C9.89543 22 9 21.1046 9 20Z" fill="black"/>
<path fill-rule="evenodd" clip-rule="evenodd" d="M10 2C10.5523 2 11 2.44772 11 3V4H21V3C21 2.44772 21.4477 2 22 2C22.5523 2 23 2.44772 23 3V4H25C27.2523 4 29 5.74772 29 8V26C29 28.2523 27.2523 30 25 30H7C4.74772 30 3 28.2523 3 26V8C3 5.74772 4.74772 4 7 4H9V3C9 2.44772 9.44772 2 10 2ZM9 8V6H7C5.85228 6 5 6.85228 5 8V10H27V8C27 6.85228 26.1477 6 25 6H23V8C23 8.55228 22.5523 9 22 9C21.4477 9 21 8.55228 21 8V6H11V8C11 8.55228 10.5523 9 10 9C9.44772 9 9 8.55228 9 8ZM5 26V12H27V26C27 27.1477 26.1477 28 25 28H7C5.85228 28 5 27.1477 5 26Z" fill="black"/>
</svg>
