<svg width="32" height="32" viewBox="0 0 32 32" fill="none" xmlns="http://www.w3.org/2000/svg">
<path d="M19.7071 15.2929C19.3166 14.9024 18.6834 14.9024 18.2929 15.2929C17.9024 15.6834 17.9024 16.3166 18.2929 16.7071L20.5858 19H9C8.44772 19 8 19.4477 8 20C8 20.5523 8.44772 21 9 21H20.5858L18.2929 23.2929C17.9024 23.6834 17.9024 24.3166 18.2929 24.7071C18.6834 25.0976 19.3166 25.0976 19.7071 24.7071L24.4142 20L19.7071 15.2929Z" fill="black"/>
<path fill-rule="evenodd" clip-rule="evenodd" d="M10 2C10.5523 2 11 2.44772 11 3V4H21V3C21 2.44772 21.4477 2 22 2C22.5523 2 23 2.44772 23 3V4H25C27.2523 4 29 5.74772 29 8V26C29 28.2523 27.2523 30 25 30H7C4.74772 30 3 28.2523 3 26V8C3 5.74772 4.74772 4 7 4H9V3C9 2.44772 9.44772 2 10 2ZM9 6H7C5.85228 6 5 6.85228 5 8V10H27V8C27 6.85228 26.1477 6 25 6H23V8C23 8.55228 22.5523 9 22 9C21.4477 9 21 8.55228 21 8V6H11V8C11 8.55228 10.5523 9 10 9C9.44772 9 9 8.55228 9 8V6ZM27 12H5V26C5 27.1477 5.85228 28 7 28H25C26.1477 28 27 27.1477 27 26V12Z" fill="black"/>
</svg>
