<svg width="32" height="32" viewBox="0 0 32 32" fill="none" xmlns="http://www.w3.org/2000/svg">
<path fill-rule="evenodd" clip-rule="evenodd" d="M10 2C10.5523 2 11 2.44772 11 3V4H21V3C21 2.44772 21.4477 2 22 2C22.5523 2 23 2.44772 23 3V4H25C27.2523 4 29 5.74772 29 8V26C29 28.2523 27.2523 30 25 30H7C4.74772 30 3 28.2523 3 26V8C3 5.74772 4.74772 4 7 4H9V3C9 2.44772 9.44772 2 10 2ZM23 28H25C26.1477 28 27 27.1477 27 26V24H23V28ZM21 24V28H17V24H21ZM23 22H27V18H23V22ZM21 18V22H17V18H21ZM23 16H27V12H23V16ZM21 12V16H17V12H21ZM27 10V8C27 6.85228 26.1477 6 25 6H23V8C23 8.55228 22.5523 9 22 9C21.4477 9 21 8.55228 21 8V6H11V8C11 8.55228 10.5523 9 10 9C9.44772 9 9 8.55228 9 8V6H7C5.85228 6 5 6.85228 5 8V10H27ZM11 28H15V24H11V28ZM15 22V18H11V22H15ZM15 16V12H11V16H15ZM9 28H7C5.85228 28 5 27.1477 5 26V24H9V28ZM9 18V22H5V18H9ZM9 12V16H5V12H9Z" fill="black"/>
</svg>
