<svg width="32" height="32" viewBox="0 0 32 32" fill="none" xmlns="http://www.w3.org/2000/svg">
<path d="M13.7071 15.2929C14.0976 15.6834 14.0976 16.3166 13.7071 16.7071L11.4142 19H23C23.5523 19 24 19.4477 24 20C24 20.5523 23.5523 21 23 21H11.4142L13.7071 23.2929C14.0976 23.6834 14.0976 24.3166 13.7071 24.7071C13.3166 25.0976 12.6834 25.0976 12.2929 24.7071L7.58578 20L12.2929 15.2929C12.6834 14.9024 13.3166 14.9024 13.7071 15.2929Z" fill="black"/>
<path fill-rule="evenodd" clip-rule="evenodd" d="M11 3C11 2.44772 10.5523 2 10 2C9.44772 2 9 2.44772 9 3V4H7C4.74772 4 3 5.74772 3 8V26C3 28.2523 4.74772 30 7 30H25C27.2523 30 29 28.2523 29 26V8C29 5.74772 27.2523 4 25 4H23V3C23 2.44772 22.5523 2 22 2C21.4477 2 21 2.44772 21 3V4H11V3ZM9 6V8C9 8.55228 9.44772 9 10 9C10.5523 9 11 8.55228 11 8V6H21V8C21 8.55228 21.4477 9 22 9C22.5523 9 23 8.55228 23 8V6H25C26.1477 6 27 6.85228 27 8V10H5V8C5 6.85228 5.85228 6 7 6H9ZM5 12V26C5 27.1477 5.85228 28 7 28H25C26.1477 28 27 27.1477 27 26V12H5Z" fill="black"/>
</svg>
