<svg xmlns="http://www.w3.org/2000/svg" width="64" height="64" viewBox="0 0 64 64">
  <title>call</title>
  <path d="M58.67,45.12v8a5.33,5.33,0,0,1-5.82,5.33,52.79,52.79,0,0,1-23-8.18,52.08,52.08,0,0,1-16-16A52.82,52.82,0,0,1,5.65,11.15,5.35,5.35,0,0,1,11,5.33h8a5.33,5.33,0,0,1,5.33,4.59,34.52,34.52,0,0,0,1.87,7.49A5.35,5.35,0,0,1,25,23l-3.39,3.39a42.81,42.81,0,0,0,16,16L41,39a5.35,5.35,0,0,1,5.63-1.2,34.52,34.52,0,0,0,7.49,1.87A5.33,5.33,0,0,1,58.67,45.12Z" fill="none" stroke="#000" stroke-linecap="round" stroke-linejoin="round" stroke-width="4"/>
</svg>
