<?xml version="1.0" encoding="UTF-8"?>
<svg width="24px" height="24px" viewBox="0 0 24 24" version="1.1" xmlns="http://www.w3.org/2000/svg" xmlns:xlink="http://www.w3.org/1999/xlink">
    <!-- Generator: Sketch 48.2 (47327) - http://www.bohemiancoding.com/sketch -->
    <title>call</title>
    <desc>Created with Sketch.</desc>
    <defs></defs>
    <g id="Page-1" stroke="none" stroke-width="1" fill="none" fill-rule="evenodd" stroke-linecap="round" stroke-linejoin="round">
        <g id="call" stroke="#000000" stroke-width="1.5">
            <path d="M22,16.92 L22,19.92 C22.0022858,20.4831451 21.767048,21.0211584 21.3520779,21.4018649 C20.9371078,21.7825714 20.3808639,21.9706881 19.82,21.92 C16.7428339,21.5856408 13.7869992,20.5341445 11.19,18.85 C8.77382812,17.3146639 6.72533615,15.2661719 5.19,12.85 C3.49997806,10.241204 2.448243,7.27099456 2.12,4.18 C2.06947321,3.62087233 2.25627201,3.06625242 2.63476578,2.65162106 C3.01325955,2.23698969 3.54859424,2.00052869 4.11,2 L7.11,2 C8.11386406,1.99011984 8.96950085,2.72596748 9.11,3.72 C9.23662301,4.68006645 9.47144946,5.62272688 9.81,6.53 C10.084735,7.26087503 9.90901507,8.08480626 9.36,8.64 L8.09,9.91 C9.51355547,12.4135458 11.5864542,14.4864445 14.09,15.91 L15.36,14.64 C15.9151937,14.0909849 16.739125,13.915265 17.47,14.19 C18.3772731,14.5285505 19.3199335,14.763377 20.28,14.89 C21.2855627,15.0318603 22.02519,15.9047926 22,16.92 Z" id="Shape"></path>
        </g>
    </g>
</svg>