<svg width="32" height="32" viewBox="0 0 32 32" fill="none" xmlns="http://www.w3.org/2000/svg">
<path fill-rule="evenodd" clip-rule="evenodd" d="M16 12.1C12.6863 12.1 10 14.7863 10 18.1C10 21.4137 12.6863 24.1 16 24.1C19.3137 24.1 22 21.4137 22 18.1C22 14.7863 19.3137 12.1 16 12.1ZM12 18.1C12 15.8909 13.7909 14.1 16 14.1C18.2091 14.1 20 15.8909 20 18.1C20 20.3091 18.2091 22.1 16 22.1C13.7909 22.1 12 20.3091 12 18.1Z" fill="black"/>
<path fill-rule="evenodd" clip-rule="evenodd" d="M20.3106 4H11.6894L9.78937 7.7H6C3.74772 7.7 2 9.44772 2 11.7V24.2C2 26.4523 3.74772 28.2 6 28.2H26C28.23 28.2 30 26.4743 30 24.3V11.7C30 9.44772 28.2523 7.7 26 7.7H22.2106L20.3106 4ZM11.0106 9.7L12.9106 6H19.0894L20.9894 9.7H26C27.1477 9.7 28 10.5523 28 11.7V24.3C28 25.3257 27.17 26.2 26 26.2H6C4.85228 26.2 4 25.3477 4 24.2V11.7C4 10.5523 4.85228 9.7 6 9.7H11.0106Z" fill="black"/>
</svg>
