<svg width="32" height="32" viewBox="0 0 32 32" fill="none" xmlns="http://www.w3.org/2000/svg">
<path d="M14 10C14 9.44772 13.5523 9 13 9C12.4477 9 12 9.44772 12 10V16H18C18.5523 16 19 15.5523 19 15C19 14.4477 18.5523 14 18 14H14V10Z" fill="black"/>
<path d="M5.5 14C4.94772 14 4.5 14.4477 4.5 15C4.5 15.5523 4.94772 16 5.5 16H10C10.5523 16 11 15.5523 11 15C11 14.4477 10.5523 14 10 14H5.5Z" fill="black"/>
<path fill-rule="evenodd" clip-rule="evenodd" d="M4.12602 23H1V15.544C1 15.0644 1.08627 14.5886 1.25468 14.1395L3.33368 8.59551C3.91914 7.03429 5.41162 6 7.079 6H15.5949C16.782 6 17.9078 6.52729 18.6678 7.43926L22.5592 12.109L27.9701 13.4618C29.7508 13.9069 31 15.5069 31 17.3423V19C31 21.2091 29.2091 23 27 23H26.874C26.4299 24.7252 24.8638 26 23 26C21.1362 26 19.5701 24.7252 19.126 23H11.874C11.4299 24.7252 9.86384 26 8 26C6.13616 26 4.57006 24.7252 4.12602 23ZM5.20634 9.29775C5.49907 8.51715 6.24531 8 7.079 8H15.5949C16.1884 8 16.7513 8.26365 17.1313 8.71963L21.4408 13.891L27.4851 15.402C28.3754 15.6246 29 16.4246 29 17.3423V19C29 20.1046 28.1046 21 27 21H26.874C26.4299 19.2748 24.8638 18 23 18C21.1362 18 19.5701 19.2748 19.126 21H11.874C11.4299 19.2748 9.86384 18 8 18C6.13616 18 4.57006 19.2748 4.12602 21H3V15.544C3 15.3042 3.04313 15.0663 3.12734 14.8418L5.20634 9.29775ZM10 22C10 20.8954 9.10457 20 8 20C6.89543 20 6 20.8954 6 22C6 23.1046 6.89543 24 8 24C9.10457 24 10 23.1046 10 22ZM21 22C21 23.1046 21.8954 24 23 24C24.1046 24 25 23.1046 25 22C25 20.8954 24.1046 20 23 20C21.8954 20 21 20.8954 21 22Z" fill="black"/>
</svg>
