<svg width="32" height="32" viewBox="0 0 32 32" fill="none" xmlns="http://www.w3.org/2000/svg">
<path d="M16 19C15.7 19 15.5 18.9 15.3 18.7C14.9 18.3 14.9 17.7 15.3 17.3L16.6 16H13C12.4 16 12 15.6 12 15C12 14.4 12.4 14 13 14H16.6L15.3 12.7C14.9 12.3 14.9 11.7 15.3 11.3C15.7 10.9 16.3 10.9 16.7 11.3L20.4 15L16.7 18.7C16.5 18.9 16.3 19 16 19Z" fill="black"/>
<path fill-rule="evenodd" clip-rule="evenodd" d="M27.9 9.3C26.4 7.8 24.1 7 21 7C11.8 7 2 14.2 2 18C2 20.4 3.1 21.4 4.1 21.8C4.5 23.6 6.1 25 8 25C9.9 25 11.4 23.7 11.9 22H20.2C20.6 23.7 22.2 25 24.1 25C26 25 27.6 23.6 28 21.8C29 21.4 30.1 20.4 30.1 18V17.2C30.1 17.1143 30.1002 17.0268 30.1003 16.9376L30.1003 16.9357C30.1042 14.735 30.1098 11.5098 27.9 9.3ZM8 23C6.9 23 6 22.1 6 21C6 19.9 6.9 19 8 19C9.1 19 10 19.9 10 21C10 22.1 9.1 23 8 23ZM24 23C22.9 23 22 22.1 22 21C22 19.9 22.9 19 24 19C25.1 19 26 19.9 26 21C26 22.1 25.1 23 24 23ZM28 17.1V18C28 18.7 27.9 19.2 27.7 19.5C27.1 18 25.7 17 24 17C22.1 17 20.6 18.3 20.1 20H11.8C11.4 18.3 9.8 17 7.9 17C6.2 17 4.8 18 4.2 19.5C4.1 19.2 4 18.7 4 18C4 15.9 12 9 21 9C23.5 9 25.3 9.6 26.5 10.7C28.1 12.4 28.1 15.2 28 17.1Z" fill="black"/>
</svg>
