<svg width="32" height="32" viewBox="0 0 32 32" fill="none" xmlns="http://www.w3.org/2000/svg">
<path fill-rule="evenodd" clip-rule="evenodd" d="M20.4062 7C23.4094 7 25.6375 7.8 27.0906 9.3C29.2314 11.5098 29.2259 14.735 29.2222 16.9357C29.222 17.0256 29.2219 17.1137 29.2219 17.2V18C29.2219 20.4 28.1562 21.4 27.1875 21.8C26.8 23.6 25.25 25 23.4094 25C21.5688 25 20.0188 23.7 19.6313 22H11.5906C11.1062 23.7 9.65312 25 7.8125 25C5.97188 25 4.42188 23.6 4.03437 21.8C3.06562 21.4 2 20.4 2 18C2 14.2 11.4938 7 20.4062 7ZM5.875 21C5.875 22.1 6.74687 23 7.8125 23C8.87813 23 9.75 22.1 9.75 21C9.75 19.9 8.87813 19 7.8125 19C6.74687 19 5.875 19.9 5.875 21ZM21.375 21C21.375 22.1 22.2469 23 23.3125 23C24.3781 23 25.25 22.1 25.25 21C25.25 19.9 24.3781 19 23.3125 19C22.2469 19 21.375 19.9 21.375 21ZM27.1875 18V17.1C27.2844 15.2 27.2844 12.4 25.7344 10.7C24.5719 9.6 22.8281 9 20.4062 9C11.6875 9 3.9375 15.9 3.9375 18C3.9375 18.7 4.03437 19.2 4.13125 19.5C4.7125 18 6.06875 17 7.71563 17C9.55625 17 11.1062 18.3 11.4938 20H19.5344C20.0188 18.3 21.4719 17 23.3125 17C24.9594 17 26.3156 18 26.8969 19.5C27.0906 19.2 27.1875 18.7 27.1875 18ZM14.9375 15C14.9375 15.5523 14.5038 16 13.9688 16C13.4337 16 13 15.5523 13 15C13 14.4477 13.4337 14 13.9688 14C14.5038 14 14.9375 14.4477 14.9375 15ZM17.9375 15C17.9375 15.5523 17.5038 16 16.9688 16C16.4337 16 16 15.5523 16 15C16 14.4477 16.4337 14 16.9688 14C17.5038 14 17.9375 14.4477 17.9375 15ZM19.9688 16C20.5038 16 20.9375 15.5523 20.9375 15C20.9375 14.4477 20.5038 14 19.9688 14C19.4337 14 19 14.4477 19 15C19 15.5523 19.4337 16 19.9688 16Z" fill="black"/>
</svg>
