<svg width="32" height="32" viewBox="0 0 32 32" fill="none" xmlns="http://www.w3.org/2000/svg">
<path d="M27.9 9.30001C26.4 7.80001 24.1 7.00001 21 7.00001C20.3 7.00001 19.4 7.00001 18.7 7.10001C18.2 7.20001 17.8 7.70001 17.9 8.20001C18 8.70001 18.5 9.10001 19 9.00001C19.6 9.00001 20.3 9.00001 21 9.00001C23.5 9.00001 25.3 9.60001 26.5 10.7C28.2 12.4 28.1 15.1 28 17.1C28 17.4 28 17.7 28 18C28 18.7 27.9 19.2 27.7 19.5C27.1 18 25.7 17 24 17C22.1 17 20.6 18.3 20.1 20C19.6 20.1 19.3 20.5 19.3 21C19.3 21.5 19.7 21.9 20.1 22C20.5 23.7 22.1 25 24 25C25.9 25 27.5 23.6 27.9 21.8C28.9 21.4 30 20.4 30 18C30 17.8 30 17.5 30 17.2C30.1 15 30.2 11.6 27.9 9.30001ZM24 23C22.9 23 22 22.1 22 21C22 19.9 22.9 19 24 19C25.1 19 26 19.9 26 21C26 22.1 25.1 23 24 23Z" fill="black"/>
<path d="M13.6 20H11.9C11.5 18.3 9.9 17 8 17C6.3 17 4.9 18 4.3 19.5C4.1 19.2 4 18.7 4 18C4 16.8 6.8 13.8 11.3 11.5C11.8 11.2 12 10.6 11.7 10.2C11.4 9.70001 10.8 9.50001 10.4 9.80001C6.3 11.8 2 15.4 2 18C2 20.4 3.1 21.4 4.1 21.8C4.5 23.6 6.1 25 8 25C9.9 25 11.4 23.7 11.9 22H13.6C14.2 22 14.6 21.6 14.6 21C14.6 20.4 14.2 20 13.6 20ZM8 23C6.9 23 6 22.1 6 21C6 19.9 6.9 19 8 19C9.1 19 10 19.9 10 21C10 22.1 9.1 23 8 23Z" fill="black"/>
<path d="M20.9 14.5C20.7 14.2 20.3 14 20 14H13.6L16.9 7.40001C17.1 6.90001 16.9 6.30001 16.5 6.10001C16 5.90001 15.4 6.10001 15.2 6.50001L11.2 14.5C11 14.8 11.1 15.2 11.2 15.5C11.4 15.8 11.7 16 12.1 16H18.5L15.2 22.6C15 23.1 15.2 23.7 15.6 23.9C15.7 24 15.8 24 16 24C16.4 24 16.7 23.8 16.9 23.4L20.9 15.4C21 15.1 21 14.8 20.9 14.5Z" fill="black"/>
</svg>
