<svg width="32" height="32" viewBox="0 0 32 32" fill="none" xmlns="http://www.w3.org/2000/svg">
<path d="M7 21C6.44772 21 6 21.4477 6 22C6 22.5523 6.44772 23 7 23H11C11.5523 23 12 22.5523 12 22C12 21.4477 11.5523 21 11 21H7Z" fill="black"/>
<path fill-rule="evenodd" clip-rule="evenodd" d="M2 9C2 6.74772 3.74772 5 6 5H26C28.2523 5 30 6.74772 30 9V23C30 25.2523 28.2523 27 26 27H6C3.74772 27 2 25.2523 2 23V9ZM6 7C4.85228 7 4 7.85228 4 9V11H28V9C28 7.85228 27.1477 7 26 7H6ZM4 23V15H28V23C28 24.1477 27.1477 25 26 25H6C4.85228 25 4 24.1477 4 23Z" fill="black"/>
</svg>
