<svg width="32" height="32" viewBox="0 0 32 32" fill="none" xmlns="http://www.w3.org/2000/svg">
<path d="M16 1L20.7071 5.70711C21.0976 6.09763 21.0976 6.7308 20.7071 7.12132C20.3166 7.51184 19.6834 7.51184 19.2929 7.12132L17 4.82843V12.4142C17 12.9665 16.5523 13.4142 16 13.4142C15.4477 13.4142 15 12.9665 15 12.4142V4.82843L12.7071 7.12132C12.3166 7.51184 11.6834 7.51184 11.2929 7.12132C10.9024 6.7308 10.9024 6.09763 11.2929 5.70711L16 1Z" fill="black"/>
<path d="M7 23.4142C6.44772 23.4142 6 23.8619 6 24.4142C6 24.9665 6.44772 25.4142 7 25.4142H11C11.5523 25.4142 12 24.9665 12 24.4142C12 23.8619 11.5523 23.4142 11 23.4142H7Z" fill="black"/>
<path fill-rule="evenodd" clip-rule="evenodd" d="M4 13.4142C4 12.2665 4.85228 11.4142 6 11.4142H11C11.5523 11.4142 12 10.9665 12 10.4142C12 9.86193 11.5523 9.41422 11 9.41422H6C3.74772 9.41422 2 11.1619 2 13.4142V25.4142C2 27.6665 3.74772 29.4142 6 29.4142H26C28.2523 29.4142 30 27.6665 30 25.4142V13.4142C30 11.1619 28.2523 9.41422 26 9.41422H21C20.4477 9.41422 20 9.86193 20 10.4142C20 10.9665 20.4477 11.4142 21 11.4142H26C27.1477 11.4142 28 12.2665 28 13.4142V15.4142H4V13.4142ZM4 25.4142V19.4142H28V25.4142C28 26.5619 27.1477 27.4142 26 27.4142H6C4.85228 27.4142 4 26.5619 4 25.4142Z" fill="black"/>
</svg>
