<svg width="32" height="32" viewBox="0 0 32 32" fill="none" xmlns="http://www.w3.org/2000/svg">
<path d="M22.7071 12.7071L16 6L9.29289 12.7071C8.90237 13.0976 8.90237 13.7308 9.29289 14.1213C9.68342 14.5118 10.3166 14.5118 10.7071 14.1213L16 8.82843L21.2929 14.1213C21.6834 14.5118 22.3166 14.5118 22.7071 14.1213C23.0976 13.7308 23.0976 13.0976 22.7071 12.7071Z" fill="black"/>
<path d="M10.7071 16.7071C10.3166 16.3166 9.68342 16.3166 9.29289 16.7071C8.90237 17.0976 8.90237 17.7308 9.29289 18.1213L16 24.8284L22.7071 18.1213C23.0976 17.7308 23.0976 17.0976 22.7071 16.7071C22.3166 16.3166 21.6834 16.3166 21.2929 16.7071L16 22L10.7071 16.7071Z" fill="black"/>
</svg>
