<svg width="32" height="32" viewBox="0 0 32 32" fill="none" xmlns="http://www.w3.org/2000/svg">
<path fill-rule="evenodd" clip-rule="evenodd" d="M3.46156 4.11299C2.97156 3.85819 2.36779 4.04886 2.11299 4.53885C1.85819 5.02885 2.04886 5.63262 2.53885 5.88742L7.17413 8.29777L11.355 21.2947C9.78986 21.9993 8.70021 23.5725 8.70021 25.4002C8.70021 27.8855 10.7149 29.9002 13.2002 29.9002C15.6855 29.9002 17.7002 27.8855 17.7002 25.4002C17.7002 25.0789 17.6665 24.7654 17.6025 24.4631L29.1072 20.7519C29.6328 20.5824 29.9215 20.0188 29.7519 19.4932C29.5824 18.9676 29.0188 18.679 28.4932 18.8485L16.7515 22.6361C15.9527 21.6113 14.7201 20.9413 13.3296 20.902L8.82628 6.90264L3.46156 4.11299ZM10.7002 25.4002C10.7002 24.0195 11.8195 22.9002 13.2002 22.9002C14.5809 22.9002 15.7002 24.0195 15.7002 25.4002C15.7002 26.7809 14.5809 27.9002 13.2002 27.9002C11.8195 27.9002 10.7002 26.7809 10.7002 25.4002Z" fill="black"/>
<path fill-rule="evenodd" clip-rule="evenodd" d="M12.4761 8.29616C11.9506 8.46632 11.6626 9.03022 11.8328 9.55566L15.2219 20.0211C15.392 20.5465 15.9559 20.8345 16.4814 20.6644L26.9468 17.2753C27.4722 17.1051 27.7602 16.5412 27.5901 16.0158L24.201 5.55036C24.0308 5.02492 23.4669 4.7369 22.9415 4.90706L12.4761 8.29616ZM16.8166 18.4535L14.0437 9.89086L22.6063 7.11796L25.3792 15.6806L16.8166 18.4535Z" fill="black"/>
</svg>
