<svg width="32" height="32" viewBox="0 0 32 32" fill="none" xmlns="http://www.w3.org/2000/svg">
<path fill-rule="evenodd" clip-rule="evenodd" d="M22.5191 2C23.0714 2 23.5191 2.44772 23.5191 3V7.58579L25.812 5.29289C26.2025 4.90237 26.8357 4.90237 27.2262 5.29289C27.6167 5.68342 27.6167 6.31658 27.2262 6.70711L24.9333 9H29.5191C30.0714 9 30.5191 9.44772 30.5191 10C30.5191 10.5523 30.0714 11 29.5191 11H24.4698C24.835 11.4955 25.1486 12.0011 25.3821 12.4935C25.6274 13.0111 25.8126 13.5731 25.8365 14.1285C25.8613 14.7041 25.7102 15.3231 25.2262 15.8071C19.7981 21.2352 14.4677 24.7648 10.486 26.9401C8.49499 28.0278 6.84003 28.7776 5.67693 29.2573C5.09532 29.4972 4.63649 29.6696 4.31988 29.783C4.16157 29.8397 4.03879 29.8817 3.95397 29.91C3.91156 29.9242 3.87864 29.9349 3.85551 29.9424L3.8282 29.9511L3.82012 29.9536L3.81652 29.9548L3.5191 29L2.56436 28.7026L2.56466 28.7016L2.56548 28.699L2.56803 28.6909L2.57675 28.6636C2.5842 28.6405 2.59494 28.6075 2.60909 28.5651C2.6374 28.4803 2.67938 28.3575 2.7361 28.1992C2.84954 27.8826 3.02196 27.4238 3.26182 26.8422C3.74151 25.6791 4.49127 24.0241 5.57903 22.0331C7.268 18.9416 9.77342 15.0369 13.3501 10.9048C13.3898 10.8352 13.4386 10.7693 13.4965 10.7088C13.5318 10.6718 13.5694 10.6381 13.6087 10.6077C14.5665 9.51409 15.5993 8.40555 16.712 7.2929C17.196 6.80892 17.815 6.65781 18.3906 6.68257C18.946 6.70646 19.508 6.89168 20.0256 7.13702C20.5181 7.37048 21.0237 7.68412 21.5191 8.04927V3C21.5191 2.44772 21.9668 2 22.5191 2ZM21.5191 11V10.6672C20.7289 9.90494 19.8845 9.28347 19.1689 8.94424C18.7833 8.76146 18.4938 8.68886 18.3046 8.68072C18.2159 8.6769 18.168 8.68813 18.1487 8.69456C18.1339 8.69948 18.1305 8.70283 18.1262 8.70711C17.2388 9.59457 16.4038 10.4791 15.6187 11.3549L17.2103 12.8774C17.6094 13.2591 17.6235 13.8921 17.2417 14.2912C16.86 14.6903 16.227 14.7044 15.8279 14.3226L14.3051 12.866C13.6404 13.6546 13.0161 14.433 12.4302 15.1969L13.7262 16.4929C14.1167 16.8834 14.1167 17.5166 13.7262 17.9071C13.3357 18.2976 12.7025 18.2976 12.312 17.9071L11.2254 16.8206C9.59983 19.086 8.32111 21.1855 7.33418 22.9919C6.38717 24.7254 5.70934 26.1881 5.2519 27.2672C6.33106 26.8098 7.79374 26.1319 9.52716 25.1849C13.3705 23.0852 18.5401 19.6648 23.812 14.3929C23.8163 14.3886 23.8196 14.3852 23.8246 14.3704C23.831 14.3511 23.8422 14.3032 23.8384 14.2145C23.8302 14.0253 23.7577 13.7358 23.5749 13.3502C23.2356 12.6346 22.6142 11.7902 21.8519 11H21.5191Z" fill="black"/>
<path d="M2.56436 28.7026C2.56436 28.7026 2.56413 28.7033 3.5191 29C3.81579 29.955 3.81652 29.9548 3.81652 29.9548L2 30.5191L2.56436 28.7026Z" fill="black"/>
</svg>
