<svg width="32" height="32" viewBox="0 0 32 32" fill="none" xmlns="http://www.w3.org/2000/svg">
<path d="M3 2C2.44772 2 2 2.44772 2 3C2 3.55228 2.44772 4 3 4H5.10496L5.7403 9.71809C5.71408 9.8075 5.70001 9.90211 5.70001 10C5.70001 10.1762 5.74558 10.3417 5.82557 10.4855L6.70732 18.4213L6.70877 18.4322C6.97086 20.3979 8.66804 22 10.7 22H13.2C13.7523 22 14.2 21.5523 14.2 21C14.2 20.4477 13.7523 20 13.2 20H10.7C9.73501 20 8.83482 19.2072 8.69255 18.1776L7.89504 11H27.4371L26.292 13.4809C26.0606 13.9824 26.2795 14.5765 26.781 14.808C27.2824 15.0394 27.8765 14.8205 28.108 14.3191L29.899 10.4385C29.9336 10.3677 29.9601 10.2921 29.9773 10.2131C30.0349 9.94975 29.9821 9.67828 29.8408 9.45844C29.7649 9.34029 29.6634 9.23705 29.5397 9.15801C29.4421 9.09527 29.3328 9.04906 29.2158 9.02334C29.1369 9.00584 29.0573 8.99826 28.9786 9H7.67282L6.89504 2H3Z" fill="black"/>
<path d="M19 23C19 22.4477 19.4477 22 20 22H26C26.5523 22 27 22.4477 27 23C27 23.5523 26.5523 24 26 24H20C19.4477 24 19 23.5523 19 23Z" fill="black"/>
<path fill-rule="evenodd" clip-rule="evenodd" d="M15 23C15 18.5817 18.5817 15 23 15C27.4183 15 31 18.5817 31 23C31 27.4183 27.4183 31 23 31C18.5817 31 15 27.4183 15 23ZM23 17C19.6863 17 17 19.6863 17 23C17 26.3137 19.6863 29 23 29C26.3137 29 29 26.3137 29 23C29 19.6863 26.3137 17 23 17Z" fill="black"/>
<path fill-rule="evenodd" clip-rule="evenodd" d="M12.8293 26C12.4175 24.8348 11.3062 24 10 24C8.34315 24 7 25.3431 7 27C7 28.6569 8.34315 30 10 30C11.3062 30 12.4175 29.1652 12.8293 28H13.8C14.3523 28 14.8 27.5523 14.8 27C14.8 26.4477 14.3523 26 13.8 26H12.8293ZM9 27C9 26.4477 9.44772 26 10 26C10.5523 26 11 26.4477 11 27C11 27.5523 10.5523 28 10 28C9.44772 28 9 27.5523 9 27Z" fill="black"/>
</svg>
