<svg width="32" height="32" viewBox="0 0 32 32" fill="none" xmlns="http://www.w3.org/2000/svg">
<path d="M3 2C2.44772 2 2 2.44772 2 3C2 3.55228 2.44772 4 3 4H5.10496L5.7403 9.71805C5.71407 9.80747 5.7 9.90209 5.7 10C5.7 10.1762 5.74557 10.3418 5.82557 10.4855L6.70732 18.4213L6.70877 18.4322C6.97086 20.3979 8.66804 22 10.7 22H13.2C13.7523 22 14.2 21.5523 14.2 21C14.2 20.4477 13.7523 20 13.2 20H10.7C9.73501 20 8.83482 19.2072 8.69255 18.1776L7.89504 11H27.4371L26.292 13.4809C26.0606 13.9824 26.2795 14.5765 26.7809 14.808C27.2824 15.0394 27.8765 14.8205 28.108 14.3191L29.8991 10.4382C29.9331 10.3686 29.9593 10.2944 29.9764 10.2169C30.035 9.95445 29.9836 9.68366 29.8442 9.46371C29.7675 9.34275 29.6642 9.23716 29.5378 9.1568C29.4409 9.09483 29.3325 9.04912 29.2166 9.02352C29.1375 9.00589 29.0576 8.99825 28.9786 9H7.67282L6.89504 2H3Z" fill="black"/>
<path d="M26.7071 22.2929L23 18.5858L19.2929 22.2929C18.9024 22.6834 18.9024 23.3166 19.2929 23.7071C19.6834 24.0976 20.3166 24.0976 20.7071 23.7071L22 22.4142V26C22 26.5523 22.4477 27 23 27C23.5523 27 24 26.5523 24 26V22.4142L25.2929 23.7071C25.6834 24.0976 26.3166 24.0976 26.7071 23.7071C27.0976 23.3166 27.0976 22.6834 26.7071 22.2929Z" fill="black"/>
<path fill-rule="evenodd" clip-rule="evenodd" d="M23 15C18.5817 15 15 18.5817 15 23C15 27.4183 18.5817 31 23 31C27.4183 31 31 27.4183 31 23C31 18.5817 27.4183 15 23 15ZM17 23C17 19.6863 19.6863 17 23 17C26.3137 17 29 19.6863 29 23C29 26.3137 26.3137 29 23 29C19.6863 29 17 26.3137 17 23Z" fill="black"/>
<path fill-rule="evenodd" clip-rule="evenodd" d="M12.8293 26C12.4175 24.8348 11.3062 24 10 24C8.34315 24 7 25.3431 7 27C7 28.6569 8.34315 30 10 30C11.3062 30 12.4175 29.1652 12.8293 28H13.8C14.3523 28 14.8 27.5523 14.8 27C14.8 26.4477 14.3523 26 13.8 26H12.8293ZM9 27C9 26.4477 9.44772 26 10 26C10.5523 26 11 26.4477 11 27C11 27.5523 10.5523 28 10 28C9.44772 28 9 27.5523 9 27Z" fill="black"/>
</svg>
