<?xml version="1.0" encoding="UTF-8"?>
<svg width="24px" height="24px" viewBox="0 0 24 24" version="1.1" xmlns="http://www.w3.org/2000/svg" xmlns:xlink="http://www.w3.org/1999/xlink">
    <!-- Generator: Sketch 48.2 (47327) - http://www.bohemiancoding.com/sketch -->
    <title>cart</title>
    <desc>Created with Sketch.</desc>
    <defs></defs>
    <g id="Page-1" stroke="none" stroke-width="1" fill="none" fill-rule="evenodd" stroke-linecap="round" stroke-linejoin="round">
        <g id="cart" stroke="#000000" stroke-width="1.5">
            <path d="M10,22 C10,21.447 9.553,21 9,21 C8.447,21 8,21.447 8,22 C8,22.553 8.447,23 9,23 C9.553,23 10,22.553 10,22 Z" id="Stroke-1"></path>
            <path d="M8,22 L10,22" id="Stroke-3"></path>
            <path d="M9,21 L9,23" id="Stroke-5"></path>
            <path d="M21,22 C21,21.447 20.553,21 20,21 C19.447,21 19,21.447 19,22 C19,22.553 19.447,23 20,23 C20.553,23 21,22.553 21,22 Z" id="Stroke-7"></path>
            <path d="M19,22 L21,22" id="Stroke-9"></path>
            <path d="M20,21 L20,23" id="Stroke-11"></path>
            <path d="M1,2 L5,2 L7.68,15.39 C7.869,16.34 8.711,17.019 9.68,17 L19.4,17 C20.368,17.019 21.211,16.34 21.4,15.39 L23,7 L6,7" id="Stroke-17"></path>
        </g>
    </g>
</svg>