<svg width="32" height="32" viewBox="0 0 32 32" fill="none" xmlns="http://www.w3.org/2000/svg">
<path d="M3 2C2.44772 2 2 2.44772 2 3C2 3.55228 2.44772 4 3 4H5.10496L5.7403 9.71805C5.71407 9.80747 5.7 9.90209 5.7 10C5.7 10.1762 5.74557 10.3418 5.82557 10.4855L6.70732 18.4213L6.70877 18.4322C6.97086 20.3979 8.66804 22 10.7 22H13.2C13.7523 22 14.2 21.5523 14.2 21C14.2 20.4477 13.7523 20 13.2 20H10.7C9.73501 20 8.83482 19.2072 8.69255 18.1776L7.89504 11H27.4371L26.292 13.4809C26.0606 13.9824 26.2795 14.5765 26.781 14.808C27.2824 15.0394 27.8765 14.8205 28.108 14.3191L29.8993 10.4379C29.9326 10.3695 29.9584 10.2967 29.9756 10.2206C30.0352 9.9582 29.9847 9.68709 29.846 9.46661C29.7689 9.34404 29.6645 9.23711 29.5366 9.15601C29.4402 9.09459 29.3326 9.04923 29.2175 9.02371C29.1381 9.00595 29.0579 8.99824 28.9786 9H7.67282L6.89504 2H3Z" fill="black"/>
<path d="M24.4142 23L25.7071 21.7071C26.0976 21.3166 26.0976 20.6834 25.7071 20.2929C25.3166 19.9024 24.6834 19.9024 24.2929 20.2929L23 21.5858L21.7071 20.2929C21.3166 19.9024 20.6834 19.9024 20.2929 20.2929C19.9024 20.6834 19.9024 21.3166 20.2929 21.7071L21.5858 23L20.2929 24.2929C19.9024 24.6834 19.9024 25.3166 20.2929 25.7071C20.6834 26.0976 21.3166 26.0976 21.7071 25.7071L23 24.4142L24.2929 25.7071C24.6834 26.0976 25.3166 26.0976 25.7071 25.7071C26.0976 25.3166 26.0976 24.6834 25.7071 24.2929L24.4142 23Z" fill="black"/>
<path fill-rule="evenodd" clip-rule="evenodd" d="M23 15C18.5817 15 15 18.5817 15 23C15 27.4183 18.5817 31 23 31C27.4183 31 31 27.4183 31 23C31 18.5817 27.4183 15 23 15ZM17 23C17 19.6863 19.6863 17 23 17C26.3137 17 29 19.6863 29 23C29 26.3137 26.3137 29 23 29C19.6863 29 17 26.3137 17 23Z" fill="black"/>
<path fill-rule="evenodd" clip-rule="evenodd" d="M12.8293 26C12.4175 24.8348 11.3062 24 10 24C8.34315 24 7 25.3431 7 27C7 28.6569 8.34315 30 10 30C11.3062 30 12.4175 29.1652 12.8293 28H13.8C14.3523 28 14.8 27.5523 14.8 27C14.8 26.4477 14.3523 26 13.8 26H12.8293ZM9 27C9 26.4477 9.44772 26 10 26C10.5523 26 11 26.4477 11 27C11 27.5523 10.5523 28 10 28C9.44772 28 9 27.5523 9 27Z" fill="black"/>
</svg>
