<svg width="32" height="32" viewBox="0 0 32 32" fill="none" xmlns="http://www.w3.org/2000/svg">
<path fill-rule="evenodd" clip-rule="evenodd" d="M3 2C2.44772 2 2 2.44772 2 3C2 3.55228 2.44772 4 3 4H5.10496L5.7403 9.71805C5.71407 9.80747 5.7 9.90209 5.7 10C5.7 10.1762 5.74557 10.3418 5.82557 10.4855L6.70732 18.4213L6.70877 18.4322C6.97086 20.3979 8.66804 22 10.7 22H22.1C23.7264 22 25.0628 21.038 25.7104 19.6138L29.9008 10.4347C29.9342 10.3657 29.9598 10.2923 29.9767 10.2156C30.0669 9.80879 29.8931 9.3825 29.5373 9.15649C29.4395 9.09403 29.3301 9.04813 29.213 9.02273C29.135 9.00566 29.0564 8.99828 28.9786 9H7.67282L6.89504 2H3ZM8.69255 18.1776L7.89504 11H27.4442L23.8896 18.7862C23.5371 19.5617 22.8734 20 22.1 20H10.7C9.73501 20 8.83482 19.2072 8.69255 18.1776Z" fill="black"/>
<path fill-rule="evenodd" clip-rule="evenodd" d="M12.8293 26C12.4175 24.8348 11.3062 24 10 24C8.34315 24 7 25.3431 7 27C7 28.6569 8.34315 30 10 30C11.3062 30 12.4175 29.1652 12.8293 28H20.1707C20.5825 29.1652 21.6938 30 23 30C24.6569 30 26 28.6569 26 27C26 25.3431 24.6569 24 23 24C21.6938 24 20.5825 24.8348 20.1707 26H12.8293ZM10 26C9.44772 26 9 26.4477 9 27C9 27.5523 9.44772 28 10 28C10.5523 28 11 27.5523 11 27C11 26.4477 10.5523 26 10 26ZM22 27C22 27.5523 22.4477 28 23 28C23.5523 28 24 27.5523 24 27C24 26.4477 23.5523 26 23 26C22.4477 26 22 26.4477 22 27Z" fill="black"/>
</svg>
