<svg width="32" height="32" viewBox="0 0 32 32" fill="none" xmlns="http://www.w3.org/2000/svg">
<path d="M30.64 15.69V27.29C30.6503 27.3998 30.6503 27.5102 30.64 27.62C30.64 28.344 30.3524 29.0384 29.8404 29.5504C29.3284 30.0624 28.634 30.35 27.91 30.35C27.7969 30.3596 27.6831 30.3596 27.57 30.35H4.16C3.41209 30.35 2.69481 30.0529 2.16596 29.524C1.63711 28.9952 1.34 28.2779 1.34 27.53C1.34 27.43 1.34 27.33 1.34 27.23V4.13999C1.33482 4.0434 1.33482 3.94659 1.34 3.84999C1.34 3.09943 1.63816 2.37961 2.16889 1.84888C2.69962 1.31815 3.41944 1.01999 4.17 1.01999C4.29314 1.0101 4.41687 1.0101 4.54 1.01999H27.54C29.6133 1.01999 30.6467 2.04999 30.64 4.10999V15.71V15.69ZM23.93 6.82999C23.43 6.57999 23.02 6.33999 22.59 6.15999C20.1372 5.14111 17.506 4.621 14.85 4.62999H14.32C11 4.68999 8.84 6.68999 8.76 9.93999C8.66 13.7 8.68 17.46 8.76 21.2C8.81 24.2 10.47 26.2 13.47 26.36C13.79 26.36 14.17 26.36 14.55 26.36C16.1806 26.3605 17.8066 26.1862 19.4 25.84H19.25C20.9478 25.4256 22.6178 24.9046 24.25 24.28L23.97 24.37C23.5 23.37 23.1 22.66 22.79 21.89C22.48 21.12 22.24 21.15 21.53 21.36C19.7173 21.9349 17.8703 22.3958 16 22.74H15.7C13.82 23.05 12.86 22.07 12.86 20.15V10.69C12.8544 10.5901 12.8544 10.4899 12.86 10.39C12.86 10.1186 12.9136 9.84993 13.0178 9.59935C13.1219 9.34876 13.2745 9.12123 13.4669 8.92981C13.6592 8.73839 13.8875 8.58686 14.1386 8.48392C14.3897 8.38099 14.6586 8.32868 14.93 8.32999H15.31C16.124 8.33303 16.9353 8.42355 17.73 8.59999H17.66C19.24 8.95999 20.76 9.43999 22.47 9.87999L23.93 6.87999V6.82999Z" fill="black"/>
</svg>
