<svg width="32" height="32" viewBox="0 0 32 32" fill="none" xmlns="http://www.w3.org/2000/svg">
<path fill-rule="evenodd" clip-rule="evenodd" d="M17 3C17 2.44772 16.5523 2 16 2C15.4477 2 15 2.44772 15 3V6.04938C10.2756 6.51844 6.51844 10.2756 6.04938 15H3C2.44772 15 2 15.4477 2 16C2 16.5523 2.44772 17 3 17H6.04938C6.51844 21.7244 10.2756 25.4816 15 25.9506V29C15 29.5523 15.4477 30 16 30C16.5523 30 17 29.5523 17 29V25.9506C21.7244 25.4816 25.4816 21.7244 25.9506 17H29C29.5523 17 30 16.5523 30 16C30 15.4477 29.5523 15 29 15H25.9506C25.4816 10.2756 21.7244 6.51844 17 6.04938V3ZM15 8.06189C11.3813 8.51314 8.51314 11.3813 8.06189 15H15V8.06189ZM17 15V8.06189C20.6187 8.51314 23.4869 11.3813 23.9381 15H17ZM15 17H8.06189C8.51314 20.6187 11.3813 23.4869 15 23.9381V17ZM17 23.9381V17H23.9381C23.4869 20.6187 20.6187 23.4869 17 23.9381Z" fill="black"/>
</svg>
