<?xml version="1.0" encoding="UTF-8"?>
<svg width="24px" height="24px" viewBox="0 0 24 24" version="1.1" xmlns="http://www.w3.org/2000/svg" xmlns:xlink="http://www.w3.org/1999/xlink">
    <!-- Generator: Sketch 48.2 (47327) - http://www.bohemiancoding.com/sketch -->
    <title>center</title>
    <desc>Created with Sketch.</desc>
    <defs></defs>
    <g id="Page-1" stroke="none" stroke-width="1" fill="none" fill-rule="evenodd" stroke-linecap="round" stroke-linejoin="round">
        <g id="center" stroke="#000000" stroke-width="2">
            <path d="M13,12 C13,12.552 12.553,13 12,13 C11.447,13 11,12.552 11,12 C11,11.448 11.447,11 12,11 C12.553,11 13,11.448 13,12 Z" id="Stroke-1"></path>
            <path d="M19,12 C19,15.866 15.866,19 12,19 C8.134,19 5,15.866 5,12 C5,8.134 8.134,5 12,5 C15.866,5 19,8.134 19,12 Z" id="Stroke-3"></path>
            <path d="M19,12 L22,12" id="Stroke-5"></path>
            <path d="M2,12 L5,12" id="Stroke-7"></path>
            <path d="M12,19 L12,22" id="Stroke-9"></path>
            <path d="M12,2 L12,5" id="Stroke-11"></path>
        </g>
    </g>
</svg>