<svg width="32" height="32" viewBox="0 0 32 32" fill="none" xmlns="http://www.w3.org/2000/svg">
<path d="M4 6C4 4.85228 4.85228 4 6 4H26C27.1477 4 28 4.85228 28 6V22C28 22.5523 28.4477 23 29 23C29.5523 23 30 22.5523 30 22V6C30 3.74772 28.2523 2 26 2H6C3.74772 2 2 3.74772 2 6V22C2 24.2523 3.74772 26 6 26H9C9.55228 26 10 25.5523 10 25C10 24.4477 9.55228 24 9 24H6C4.85228 24 4 23.1477 4 22V6Z" fill="black"/>
<path d="M19 16C18.0138 16 17 16.7839 17 18C17 18.5752 17.2775 19.0668 17.6054 19.3946C17.9332 19.7225 18.4248 20 19 20C19.9862 20 21 19.2161 21 18C21 17.4248 20.7225 16.9332 20.3946 16.6054C20.0668 16.2775 19.5752 16 19 16Z" fill="black"/>
<path fill-rule="evenodd" clip-rule="evenodd" d="M19 11C15.134 11 12 14.134 12 18C12 19.9097 12.7647 21.6407 14.0046 22.9037C14.0016 22.9354 14 22.9675 14 23V30.618L19 28.118L24 30.618V23C24 22.9675 23.9984 22.9354 23.9954 22.9037C25.2353 21.6407 26 19.9097 26 18C26 14.134 22.866 11 19 11ZM14 18C14 15.2386 16.2386 13 19 13C21.7614 13 24 15.2386 24 18C24 20.7614 21.7614 23 19 23C16.2386 23 14 20.7614 14 18ZM22 24.3264C21.0907 24.7583 20.0736 25 19 25C17.9264 25 16.9093 24.7583 16 24.3264V27.382L19 25.882L22 27.382V24.3264Z" fill="black"/>
<path d="M5 8C5 7.44772 5.44772 7 6 7H26C26.5523 7 27 7.44772 27 8C27 8.55228 26.5523 9 26 9H6C5.44772 9 5 8.55228 5 8Z" fill="black"/>
<path d="M6 11C5.44772 11 5 11.4477 5 12C5 12.5523 5.44772 13 6 13H9C9.55228 13 10 12.5523 10 12C10 11.4477 9.55228 11 9 11H6Z" fill="black"/>
<path d="M5 16C5 15.4477 5.44772 15 6 15H9C9.55228 15 10 15.4477 10 16C10 16.5523 9.55228 17 9 17H6C5.44772 17 5 16.5523 5 16Z" fill="black"/>
<path d="M6 19C5.44772 19 5 19.4477 5 20C5 20.5523 5.44772 21 6 21H9C9.55228 21 10 20.5523 10 20C10 19.4477 9.55228 19 9 19H6Z" fill="black"/>
</svg>
