<svg xmlns="http://www.w3.org/2000/svg" width="64" height="64" viewBox="0 0 64 64">
  <title>certificate</title>
  <path d="M23.5,49H10a5,5,0,0,1-5-5V12a5,5,0,0,1,5-5H54a5,5,0,0,1,5,5V44a5,5,0,0,1-5,5" fill="none" stroke="#000" stroke-linecap="round" stroke-linejoin="round" stroke-width="2"/>
  <circle cx="39.26" cy="37.24" r="10.24" fill="none" stroke="#000" stroke-linecap="round" stroke-linejoin="round" stroke-width="2"/>
  <path d="M41,37.24a1.74,1.74,0,1,1-3.48,0" fill="none" stroke="#000" stroke-linecap="round" stroke-linejoin="round" stroke-width="2"/>
  <polyline points="34.14 46.11 30.95 58 39.26 54.13 47.56 58 44.38 46.11" fill="none" stroke="#000" stroke-linecap="round" stroke-linejoin="round" stroke-width="2"/>
  <line x1="39.26" y1="54.13" x2="39.26" y2="47.48" fill="none" stroke="#000" stroke-linecap="round" stroke-linejoin="round" stroke-width="2"/>
  <line x1="13" y1="16" x2="51" y2="16" fill="none" stroke="#000" stroke-linecap="round" stroke-linejoin="round" stroke-width="2"/>
  <line x1="13" y1="24" x2="24" y2="24" fill="none" stroke="#000" stroke-linecap="round" stroke-linejoin="round" stroke-width="2"/>
  <line x1="13" y1="32" x2="20" y2="32" fill="none" stroke="#000" stroke-linecap="round" stroke-linejoin="round" stroke-width="2"/>
  <line x1="13" y1="40" x2="20" y2="40" fill="none" stroke="#000" stroke-linecap="round" stroke-linejoin="round" stroke-width="2"/>
  <path d="M37.52,37.24a1.74,1.74,0,1,1,3.48,0" fill="none" stroke="#000" stroke-linecap="round" stroke-linejoin="round" stroke-width="2"/>
</svg>
