<svg width="32" height="32" viewBox="0 0 32 32" fill="none" xmlns="http://www.w3.org/2000/svg">
<path fill-rule="evenodd" clip-rule="evenodd" d="M4 4C4 3.44772 3.55228 3 3 3C2.44772 3 2 3.44772 2 4V15.9856C1.99988 15.9946 1.99988 16.0036 2 16.0127V28C2 28.5523 2.44772 29 3 29C3.55228 29 4 28.5523 4 28V17H12.1075L14.1293 21.4251C13.435 22.0647 13 22.9816 13 24C13 25.933 14.567 27.5 16.5 27.5C18.433 27.5 20 25.933 20 24C20 22.9236 19.5141 21.9607 18.7497 21.3187L20.591 17H29C29.5523 17 30 16.5523 30 16C30 15.4477 29.5523 15 29 15H21.4437L23.5858 9.97575C23.7216 9.99176 23.8599 10 24 10C25.933 10 27.5 8.433 27.5 6.5C27.5 4.567 25.933 3 24 3C22.067 3 20.5 4.567 20.5 6.5C20.5 7.57639 20.9859 8.53929 21.7503 9.18133L19.2695 15H13.3925L11.3707 10.5749C12.065 9.93527 12.5 9.01843 12.5 8C12.5 6.067 10.933 4.5 9 4.5C7.067 4.5 5.5 6.067 5.5 8C5.5 8.68563 5.69714 9.32521 6.03784 9.86515L4 12.8034V4ZM4.9105 15H11.1937L9.57319 11.4533C9.38669 11.484 9.19521 11.5 9 11.5C8.48439 11.5 7.99482 11.3885 7.55409 11.1883L4.9105 15ZM8.10098 9.20085C8.35151 9.38871 8.66276 9.5 9 9.5C9.1628 9.5 9.31955 9.47406 9.46633 9.4261C9.53143 9.37287 9.60436 9.32704 9.68443 9.29045C9.74205 9.26413 9.80086 9.24373 9.86019 9.22901C10.2471 8.95772 10.5 8.5084 10.5 8C10.5 7.17157 9.82843 6.5 9 6.5C8.17157 6.5 7.5 7.17157 7.5 8C7.5 8.36843 7.63283 8.70584 7.85321 8.96694C7.8588 8.97065 7.86436 8.97443 7.8699 8.97827C7.96086 9.04136 8.03812 9.11683 8.10098 9.20085ZM15.9268 20.5467L14.3063 17H18.4168L16.9142 20.5243C16.7784 20.5082 16.6401 20.5 16.5 20.5C16.3048 20.5 16.1133 20.516 15.9268 20.5467ZM15.8156 22.7096C15.7579 22.7359 15.6991 22.7563 15.6398 22.771C15.2529 23.0423 15 23.4916 15 24C15 24.8284 15.6716 25.5 16.5 25.5C17.3284 25.5 18 24.8284 18 24C18 23.1716 17.3284 22.5 16.5 22.5C16.3372 22.5 16.1805 22.5259 16.0337 22.5739C15.9686 22.6271 15.8957 22.673 15.8156 22.7096ZM22.5 6.5C22.5 5.67157 23.1716 5 24 5C24.8284 5 25.5 5.67157 25.5 6.5C25.5 7.32843 24.8284 8 24 8C23.1716 8 22.5 7.32843 22.5 6.5Z" fill="black"/>
</svg>
