<svg width="32" height="32" viewBox="0 0 32 32" fill="none" xmlns="http://www.w3.org/2000/svg">
<path fill-rule="evenodd" clip-rule="evenodd" d="M3 3C3.55228 3 4 3.44772 4 4V9.44332C4.94037 8.29813 6.26266 7.5 8 7.5C10.1229 7.5 11.4612 8.77282 12.3487 10.3544C13.0961 11.6864 13.607 13.3779 14.0686 15H23.933C24.5945 11.8865 24.8617 8.46175 25.0015 5.94453C25.0322 5.39309 25.504 4.9709 26.0555 5.00154C26.6069 5.03217 27.0291 5.50403 26.9985 6.05547C26.8643 8.47067 26.6097 11.8325 25.9749 15H29C29.5523 15 30 15.4477 30 16C30 16.5523 29.5523 17 29 17H25.5115C25.4875 17.0897 25.4632 17.1791 25.4384 17.268C24.9198 19.1325 24.2089 20.8973 23.2049 22.2154C22.1835 23.5561 20.7999 24.5 19 24.5C16.7924 24.5 15.3557 23.2742 14.3868 21.6742C13.5739 20.3318 13.0297 18.633 12.558 17H4V28C4 28.5523 3.55228 29 3 29C2.44772 29 2 28.5523 2 28V4C2 3.44772 2.44772 3 3 3ZM4.04396 15H11.9869C11.5755 13.5892 11.16 12.3231 10.6045 11.3331C9.91379 10.1022 9.12715 9.5 8 9.5C6.70976 9.5 5.74806 10.2088 5.05806 11.4296C4.49665 12.4228 4.15847 13.6985 4.04396 15ZM14.643 17C15.0622 18.4 15.5041 19.6583 16.0976 20.6383C16.8318 21.8508 17.7076 22.5 19 22.5C20.0001 22.5 20.8499 22.0063 21.6139 21.0034C22.3553 20.0302 22.9574 18.6433 23.4353 17H14.643Z" fill="black"/>
</svg>
