<svg width="32" height="32" viewBox="0 0 32 32" fill="none" xmlns="http://www.w3.org/2000/svg">
<path d="M19.622 2L29.4684 7.47024C29.5052 7.4898 29.5407 7.5116 29.5746 7.53545C29.6946 7.61948 29.7913 7.72636 29.862 7.84678C29.9326 7.96654 29.979 8.10231 29.9944 8.24733C29.9989 8.28925 30.0008 8.33154 30 8.37394V10.354C30 10.9063 29.5523 11.354 29 11.354C28.4477 11.354 28 10.9063 28 10.354V8.94239L20.378 4.70797L12.7056 18.1347L4 22.0039V24.9666L11.4598 22.4799L19.8726 14.0672L28.2729 19.6674C28.4552 19.4744 28.7136 19.354 29 19.354C29.5523 19.354 30 19.8017 30 20.354V21.3406C30.0001 21.3501 30.0001 21.3597 30 21.3692V22.354C30 22.9063 29.5523 23.354 29 23.354C28.4477 23.354 28 22.9063 28 22.354V21.8892L20.1274 16.6408L12.5402 24.228L4.10943 27.0383C4.37432 27.8245 5.0954 28.354 6 28.354H26C27.1477 28.354 28 27.5017 28 26.354C28 25.8017 28.4477 25.354 29 25.354C29.5523 25.354 30 25.8017 30 26.354C30 28.6063 28.2523 30.354 26 30.354H6C3.75652 30.354 2.01367 28.6199 2.00008 26.3804C1.99963 26.3637 1.99961 26.3471 2 26.3305V20.7041L11.2944 16.5733L19.622 2Z" fill="black"/>
<path d="M30 14.354C30 13.8017 29.5523 13.354 29 13.354C28.4477 13.354 28 13.8017 28 14.354V16.354C28 16.9063 28.4477 17.354 29 17.354C29.5523 17.354 30 16.9063 30 16.354V14.354Z" fill="black"/>
</svg>
