<svg width="32" height="32" viewBox="0 0 32 32" fill="none" xmlns="http://www.w3.org/2000/svg">
<path fill-rule="evenodd" clip-rule="evenodd" d="M26.9701 3.24257C27.0808 2.79983 26.8777 2.33833 26.4765 2.12087C26.0753 1.9034 25.5777 1.98516 25.2672 2.31958L12.2672 16.3196C11.9966 16.611 11.9244 17.0352 12.0834 17.3998C12.2423 17.7643 12.6023 18 13 18H17.7192L15.0299 28.7575C14.9192 29.2002 15.1223 29.6617 15.5235 29.8792C15.9247 30.0967 16.4223 30.0149 16.7328 29.6805L29.7328 15.6805C30.0034 15.389 30.0756 14.9649 29.9166 14.6003C29.7577 14.2357 29.3977 14 29 14H24.2808L26.9701 3.24257ZM19 16H15.2932L24.0867 6.53012L22.0299 14.7575C21.9552 15.0562 22.0223 15.3727 22.2118 15.6154C22.4013 15.8582 22.6921 16 23 16H26.7068L17.9133 25.4699L19.9701 17.2426C20.0448 16.9438 19.9777 16.6273 19.7882 16.3846C19.5987 16.1419 19.3079 16 19 16Z" fill="black"/>
<path d="M16.9695 3.24519C17.0815 2.80227 16.8791 2.33975 16.4777 2.12151C16.0763 1.90327 15.5781 1.9848 15.2672 2.31958L2.26721 16.3196C1.99657 16.611 1.92439 17.0352 2.08337 17.3998C2.24235 17.7643 2.60227 18 3.00001 18H7.71923L5.02986 28.7575C4.91902 29.2009 5.12285 29.6629 5.525 29.88C5.92716 30.0971 6.4253 30.0139 6.73512 29.678L15.0351 20.678C15.4095 20.272 15.3839 19.6393 14.9779 19.2649C14.572 18.8905 13.9393 18.9161 13.5649 19.3221L7.92004 25.443L9.97015 17.2426C10.0448 16.9438 9.97772 16.6273 9.78821 16.3846C9.5987 16.1419 9.30794 16 9.00001 16H5.29322L14.0718 6.54617L12.8305 11.4549C12.6951 11.9903 13.0194 12.5341 13.5549 12.6695C14.0903 12.8049 14.6341 12.4806 14.7695 11.9452L16.9695 3.24519Z" fill="black"/>
</svg>
