<svg width="32" height="32" viewBox="0 0 32 32" fill="none" xmlns="http://www.w3.org/2000/svg">
<path d="M29.4678 7.46989L19.622 2L11.2944 16.5733L2 20.7041V26.354C2 28.6063 3.74772 30.354 6 30.354H26C28.2523 30.354 30 28.6063 30 26.354C30 25.8017 29.5523 25.354 29 25.354C28.4477 25.354 28 25.8017 28 26.354C28 27.5017 27.1477 28.354 26 28.354H6C4.85228 28.354 4 27.5017 4 26.354V22.0039L12.7056 18.1347L20.378 4.70797L28 8.94239V10.354C28 10.9063 28.4477 11.354 29 11.354C29.5523 11.354 30 10.9063 30 10.354V8.37394C30.0008 8.33179 29.9989 8.28976 29.9945 8.24809C29.9791 8.10173 29.9321 7.96477 29.8605 7.84416C29.7666 7.68615 29.6306 7.5562 29.4678 7.46989Z" fill="black"/>
<path d="M29 13.354C29.5523 13.354 30 13.8017 30 14.354V16.354C30 16.9063 29.5523 17.354 29 17.354C28.4477 17.354 28 16.9063 28 16.354V14.354C28 13.8017 28.4477 13.354 29 13.354Z" fill="black"/>
<path d="M30 20.354C30 19.8017 29.5523 19.354 29 19.354C28.4477 19.354 28 19.8017 28 20.354V22.354C28 22.9063 28.4477 23.354 29 23.354C29.5523 23.354 30 22.9063 30 22.354V20.354Z" fill="black"/>
</svg>
