<svg width="32" height="32" viewBox="0 0 32 32" fill="none" xmlns="http://www.w3.org/2000/svg">
<path d="M21.9702 3.24257C22.0806 2.80096 21.8788 2.34052 21.4793 2.12236C21.0798 1.9042 20.5833 1.98339 20.2715 2.31501L13.9715 9.01501C13.5932 9.41736 13.6126 10.0502 14.015 10.4286C14.4173 10.8069 15.0502 10.7874 15.4285 10.3851L19.0988 6.48175L17.4299 13.1575C17.2959 13.6933 17.6217 14.2362 18.1575 14.3702C18.6933 14.5041 19.2362 14.1784 19.3702 13.6426L21.9702 3.24257Z" fill="black"/>
<path fill-rule="evenodd" clip-rule="evenodd" d="M3.70711 2.29292C3.31658 1.9024 2.68342 1.9024 2.29289 2.29292C1.90237 2.68345 1.90237 3.31661 2.29289 3.70714L10.9165 12.3308L7.26218 16.325C6.99461 16.6175 6.92505 17.0404 7.08484 17.4031C7.24462 17.7659 7.6036 18 7.99999 18H12.7192L10.0298 28.7575C9.91933 29.1996 10.1216 29.6604 10.5219 29.8783C10.9221 30.0962 11.419 30.0159 11.7303 29.6832L19.724 21.1382L28.2929 29.7071C28.6834 30.0977 29.3166 30.0977 29.7071 29.7071C30.0976 29.3166 30.0976 28.6834 29.7071 28.2929L3.70711 2.29292ZM10.2703 16L12.3321 13.7464L18.309 19.7232L12.9061 25.4987L14.9701 17.2426C15.0448 16.9438 14.9777 16.6273 14.7882 16.3846C14.5987 16.1419 14.3079 16 14 16H10.2703Z" fill="black"/>
<path d="M20 14C19.4477 14 19 14.4477 19 15C19 15.5523 19.4477 16 20 16H21.7467L21.3585 16.4291C20.9879 16.8387 21.0195 17.471 21.4291 17.8416C21.8386 18.2121 22.471 18.1805 22.8415 17.7709L24.7415 15.6709C25.0068 15.3778 25.0744 14.9558 24.914 14.5944C24.7536 14.233 24.3954 14 24 14H20Z" fill="black"/>
</svg>
