<svg width="32" height="32" viewBox="0 0 32 32" fill="none" xmlns="http://www.w3.org/2000/svg">
<path fill-rule="evenodd" clip-rule="evenodd" d="M15 3C15 2.44772 15.4477 2 16 2C23.7523 2 30 8.24772 30 16C30 16.5523 29.5523 17 29 17H15V3ZM17 4.0407C22.8467 4.51876 27.4812 9.15329 27.9593 15H17V4.0407Z" fill="black"/>
<path d="M12.3107 4.5505C12.8357 4.37888 13.1221 3.81421 12.9505 3.28926C12.7789 2.76432 12.2142 2.47789 11.6893 2.64951C6.09322 4.47898 2 9.75176 2 16C2 23.7523 8.24772 30 16 30C22.2396 30 27.6295 25.9125 29.3573 20.189C29.5169 19.6603 29.2177 19.1023 28.689 18.9427C28.1603 18.7831 27.6023 19.0823 27.4427 19.611C25.9705 24.4875 21.3604 28 16 28C9.35228 28 4 22.6477 4 16C4 10.6482 7.50678 6.12102 12.3107 4.5505Z" fill="black"/>
</svg>
