<svg width="32" height="32" viewBox="0 0 32 32" fill="none" xmlns="http://www.w3.org/2000/svg">
<path fill-rule="evenodd" clip-rule="evenodd" d="M29.6603 19.079C28.2575 25.3297 22.6742 30 16 30C8.26801 30 2 23.732 2 16C2 8.26801 8.26801 2 16 2C23.732 2 30 8.26801 30 16C30 17.0115 29.8927 17.998 29.6889 18.9487C29.6856 18.9708 29.6814 18.9931 29.6765 19.0153C29.6718 19.0368 29.6664 19.0581 29.6603 19.079ZM17 14.5V4.04107C21.2093 4.38834 24.8027 6.90815 26.6561 10.4766L17 14.5ZM19.3075 15.7052L27.426 12.3225C27.7987 13.4814 28 14.7172 28 16C28 16.5419 27.9641 17.0755 27.8945 17.5984L19.3075 15.7052ZM15.784 16.9764L15.7882 16.9773L27.4656 19.5519C25.9515 24.4452 21.3909 28 16 28C9.37258 28 4 22.6274 4 16C4 9.70934 8.84047 4.54922 15 4.04107V15.9804C14.9905 16.4374 15.297 16.8534 15.7537 16.9692C15.7638 16.9718 15.7738 16.9742 15.784 16.9764Z" fill="black"/>
</svg>
