<?xml version="1.0" encoding="UTF-8"?>
<svg width="24px" height="24px" viewBox="0 0 24 24" version="1.1" xmlns="http://www.w3.org/2000/svg" xmlns:xlink="http://www.w3.org/1999/xlink">
    <!-- Generator: Sketch 48.2 (47327) - http://www.bohemiancoding.com/sketch -->
    <title>chart-nodes</title>
    <desc>Created with Sketch.</desc>
    <defs></defs>
    <g id="Page-1" stroke="none" stroke-width="1" fill="none" fill-rule="evenodd" stroke-linecap="round" stroke-linejoin="round">
        <g id="chart-nodes" stroke="#000000" stroke-width="2">
            <path d="M9,8 C10.104,8 11,7.104 11,6 C11,4.896 10.104,4 9,4 C7.896,4 7,4.896 7,6 C7,7.104 7.896,8 9,8 Z" id="Stroke-1"></path>
            <path d="M14,20 C15.104,20 16,19.104 16,18 C16,16.896 15.104,16 14,16 C12.896,16 12,16.896 12,18 C12,19.104 12.896,20 14,20 Z" id="Stroke-3"></path>
            <path d="M19,7 C20.104,7 21,6.104 21,5 C21,3.896 20.104,3 19,3 C17.896,3 17,3.896 17,5 C17,6.104 17.896,7 19,7 Z" id="Stroke-5"></path>
            <path d="M3,3 L3,21" id="Stroke-7"></path>
            <polyline id="Stroke-9" points="21 12 3 12 7.646 7.466"></polyline>
            <path d="M9.9141,7.769 L13.1121,16.216" id="Stroke-11"></path>
            <path d="M14.8975,16.2163 L18.3755,7.0003" id="Stroke-13"></path>
        </g>
    </g>
</svg>