<svg width="32" height="32" viewBox="0 0 32 32" fill="none" xmlns="http://www.w3.org/2000/svg">
<path fill-rule="evenodd" clip-rule="evenodd" d="M21.4765 2.12087C21.8777 2.33833 22.0808 2.79983 21.9701 3.24257L19.2808 14H24C24.3977 14 24.7576 14.2357 24.9166 14.6003C25.0756 14.9649 25.0034 15.389 24.7328 15.6805L11.7328 29.6805C11.4223 30.0149 10.9247 30.0967 10.5235 29.8792C10.1223 29.6617 9.91916 29.2002 10.0298 28.7575L12.7192 18H7.99999C7.60226 18 7.24233 17.7643 7.08335 17.3998C6.92437 17.0352 6.99656 16.611 7.2672 16.3196L20.2672 2.31958C20.5777 1.98516 21.0753 1.9034 21.4765 2.12087ZM10.2932 16H14C14.3079 16 14.5987 16.1419 14.7882 16.3846C14.9777 16.6273 15.0448 16.9438 14.9701 17.2426L12.9133 25.4699L21.7068 16H18C17.6921 16 17.4013 15.8582 17.2118 15.6154C17.0223 15.3727 16.9552 15.0562 17.0298 14.7575L19.0867 6.53012L10.2932 16Z" fill="black"/>
<path d="M26 16C26 15.4477 26.4477 15 27 15H29C29.5523 15 30 15.4477 30 16C30 16.5523 29.5523 17 29 17H27C26.4477 17 26 16.5523 26 16Z" fill="black"/>
<path d="M3 15C2.44772 15 2 15.4477 2 16C2 16.5523 2.44772 17 3 17H5C5.55228 17 6 16.5523 6 16C6 15.4477 5.55228 15 5 15H3Z" fill="black"/>
<path d="M27.8396 8.45678C28.1396 8.92046 28.0069 9.53957 27.5432 9.8396L25.8432 10.9396C25.3796 11.2396 24.7604 11.107 24.4604 10.6433C24.1604 10.1796 24.2931 9.56049 24.7567 9.26046L26.4567 8.16046C26.9204 7.86043 27.5395 7.99309 27.8396 8.45678Z" fill="black"/>
<path d="M7.24325 22.7396C7.70693 22.4396 7.8396 21.8205 7.53957 21.3568C7.23954 20.8931 6.62043 20.7604 6.15675 21.0605L4.45675 22.1605C3.99306 22.4605 3.8604 23.0796 4.16043 23.5433C4.46046 24.007 5.07957 24.1396 5.54325 23.8396L7.24325 22.7396Z" fill="black"/>
<path d="M24.4604 21.3568C24.7604 20.8931 25.3796 20.7604 25.8432 21.0605L27.5432 22.1605C28.0069 22.4605 28.1396 23.0796 27.8396 23.5433C27.5395 24.007 26.9204 24.1396 26.4567 23.8396L24.7567 22.7396C24.2931 22.4396 24.1604 21.8205 24.4604 21.3568Z" fill="black"/>
<path d="M5.54325 8.16046C5.07957 7.86043 4.46046 7.99309 4.16043 8.45678C3.8604 8.92046 3.99306 9.53957 4.45675 9.8396L6.15675 10.9396C6.62043 11.2396 7.23954 11.107 7.53957 10.6433C7.8396 10.1796 7.70693 9.56049 7.24325 9.26046L5.54325 8.16046Z" fill="black"/>
</svg>
