<svg width="32" height="32" viewBox="0 0 32 32" fill="none" xmlns="http://www.w3.org/2000/svg">
<path fill-rule="evenodd" clip-rule="evenodd" d="M21.4927 2.12982C21.8838 2.35128 22.0792 2.8065 21.9701 3.24256L19.2808 14H25C25.4045 14 25.7691 14.2437 25.9239 14.6173C26.0787 14.991 25.9931 15.4211 25.7071 15.7071L11.7071 29.7071C11.3893 30.025 10.8984 30.0917 10.5073 29.8702C10.1162 29.6488 9.92084 29.1936 10.0299 28.7575L12.7192 18H7C6.59554 18 6.2309 17.7564 6.07612 17.3827C5.92134 17.009 6.00689 16.5789 6.29289 16.2929L20.2929 2.29292C20.6107 1.97509 21.1016 1.90837 21.4927 2.12982ZM9.41421 16H14C14.3079 16 14.5987 16.1419 14.7882 16.3846C14.9777 16.6273 15.0448 16.9438 14.9701 17.2426L12.8458 25.74L22.5858 16H18C17.6921 16 17.4013 15.8582 17.2118 15.6154C17.0223 15.3727 16.9552 15.0562 17.0299 14.7575L19.1542 6.26001L9.41421 16Z" fill="black"/>
</svg>
