<svg width="32" height="32" viewBox="0 0 32 32" fill="none" xmlns="http://www.w3.org/2000/svg">
<path d="M29 3C29 2.44772 28.5523 2 28 2C27.4477 2 27 2.44772 27 3V26C27 27.1477 26.1477 28 25 28H23V7C23 6.44772 22.5523 6 22 6C21.4477 6 21 6.44772 21 7V28H17V16C17 15.4477 16.5523 15 16 15C15.4477 15 15 15.4477 15 16V28H11V11C11 10.4477 10.5523 10 10 10C9.44772 10 9 10.4477 9 11V28H7C5.85228 28 5 27.1477 5 26V17C5 16.4477 4.55228 16 4 16C3.44772 16 3 16.4477 3 17V26C3 28.2523 4.74772 30 7 30H25C27.2523 30 29 28.2523 29 26V3Z" fill="black"/>
</svg>
