<svg width="32" height="32" viewBox="0 0 32 32" fill="none" xmlns="http://www.w3.org/2000/svg">
<path d="M13 3C13 2.44772 12.5523 2 12 2C11.4477 2 11 2.44772 11 3V5C11 5.55228 11.4477 6 12 6C12.5523 6 13 5.55228 13 5V3Z" fill="black"/>
<path fill-rule="evenodd" clip-rule="evenodd" d="M7 11.4C7 8.94771 8.94771 7 11.4 7H20.6C23.0523 7 25 8.94771 25 11.4V20.6C25 23.0523 23.0523 25 20.6 25H11.4C8.94771 25 7 23.0523 7 20.6V11.4ZM11.4 9C10.0523 9 9 10.0523 9 11.4V20.6C9 21.9477 10.0523 23 11.4 23H20.6C21.9477 23 23 21.9477 23 20.6V11.4C23 10.0523 21.9477 9 20.6 9H11.4Z" fill="black"/>
<path d="M2 12C2 11.4477 2.44772 11 3 11H5C5.55228 11 6 11.4477 6 12C6 12.5523 5.55228 13 5 13H3C2.44772 13 2 12.5523 2 12Z" fill="black"/>
<path d="M3 15C2.44772 15 2 15.4477 2 16C2 16.5523 2.44772 17 3 17H5C5.55228 17 6 16.5523 6 16C6 15.4477 5.55228 15 5 15H3Z" fill="black"/>
<path d="M2 20C2 19.4477 2.44772 19 3 19H5C5.55228 19 6 19.4477 6 20C6 20.5523 5.55228 21 5 21H3C2.44772 21 2 20.5523 2 20Z" fill="black"/>
<path d="M27 11C26.4477 11 26 11.4477 26 12C26 12.5523 26.4477 13 27 13H29C29.5523 13 30 12.5523 30 12C30 11.4477 29.5523 11 29 11H27Z" fill="black"/>
<path d="M26 16C26 15.4477 26.4477 15 27 15H29C29.5523 15 30 15.4477 30 16C30 16.5523 29.5523 17 29 17H27C26.4477 17 26 16.5523 26 16Z" fill="black"/>
<path d="M27 19C26.4477 19 26 19.4477 26 20C26 20.5523 26.4477 21 27 21H29C29.5523 21 30 20.5523 30 20C30 19.4477 29.5523 19 29 19H27Z" fill="black"/>
<path d="M12 26C12.5523 26 13 26.4477 13 27V29C13 29.5523 12.5523 30 12 30C11.4477 30 11 29.5523 11 29V27C11 26.4477 11.4477 26 12 26Z" fill="black"/>
<path d="M17 27C17 26.4477 16.5523 26 16 26C15.4477 26 15 26.4477 15 27V29C15 29.5523 15.4477 30 16 30C16.5523 30 17 29.5523 17 29V27Z" fill="black"/>
<path d="M20 26C20.5523 26 21 26.4477 21 27V29C21 29.5523 20.5523 30 20 30C19.4477 30 19 29.5523 19 29V27C19 26.4477 19.4477 26 20 26Z" fill="black"/>
<path d="M16 2C16.5523 2 17 2.44772 17 3V5C17 5.55228 16.5523 6 16 6C15.4477 6 15 5.55228 15 5V3C15 2.44772 15.4477 2 16 2Z" fill="black"/>
<path d="M21 3C21 2.44772 20.5523 2 20 2C19.4477 2 19 2.44772 19 3V5C19 5.55228 19.4477 6 20 6C20.5523 6 21 5.55228 21 5V3Z" fill="black"/>
</svg>
