<svg xmlns="http://www.w3.org/2000/svg" width="64" height="64" viewBox="0 0 64 64">
  <title>clipboard-copy</title>
  <path d="M45,19V14a3,3,0,0,0-3-3H40V9a5,5,0,0,0-5-5H29a5,5,0,0,0-5,5v2H22a3,3,0,0,0-3,3v5Z" fill="none" stroke="#000" stroke-linecap="round" stroke-linejoin="round" stroke-width="4"/>
  <circle cx="44" cy="44" r="16" fill="none" stroke="#000" stroke-linecap="round" stroke-linejoin="round" stroke-width="4"/>
  <path d="M26.13,60H13a5,5,0,0,1-5-5V13a5,5,0,0,1,5-5H24.1" fill="none" stroke="#000" stroke-linecap="round" stroke-linejoin="round" stroke-width="4"/>
  <path d="M39.9,8H51a5,5,0,0,1,5,5V23.23" fill="none" stroke="#000" stroke-linecap="round" stroke-linejoin="round" stroke-width="4"/>
  <line x1="36" y1="44" x2="52" y2="44" fill="none" stroke="#000" stroke-linecap="round" stroke-linejoin="round" stroke-width="4"/>
  <line x1="44" y1="36" x2="44" y2="52" fill="none" stroke="#000" stroke-linecap="round" stroke-linejoin="round" stroke-width="4"/>
</svg>
