<svg width="32" height="32" viewBox="0 0 32 32" fill="none" xmlns="http://www.w3.org/2000/svg">
<path fill-rule="evenodd" clip-rule="evenodd" d="M20.4852 4H24C26.2523 4 28 5.74772 28 8V26C28 28.2523 26.2523 30 24 30H8C5.74772 30 4 28.2523 4 26V8C4 5.74772 5.74772 4 8 4H11.5148C12.194 2.79342 13.4825 2 15 2H17C18.5175 2 19.806 2.79342 20.4852 4ZM11 6H8C6.85228 6 6 6.85228 6 8V26C6 27.1477 6.85228 28 8 28H24C25.1477 28 26 27.1477 26 26V8C26 6.85228 25.1477 6 24 6H21V6.17183C22.1632 6.58522 23 7.69806 23 9V11H9V9C9 7.69806 9.83678 6.58522 11 6.17183V6ZM13 6C13 4.85228 13.8523 4 15 4H17C18.1477 4 19 4.85228 19 6V8H20C20.5477 8 21 8.45228 21 9H11C11 8.45228 11.4523 8 12 8H13V6Z" fill="black"/>
</svg>
