<svg width="32" height="32" viewBox="0 0 32 32" fill="none" xmlns="http://www.w3.org/2000/svg">
<path fill-rule="evenodd" clip-rule="evenodd" d="M8 6H11V6.17183C9.83678 6.58522 9 7.69806 9 9V11H23V9C23 7.69806 22.1632 6.58522 21 6.17183V6H24C25.1477 6 26 6.85228 26 8V13C26 13.5523 26.4477 14 27 14C27.5523 14 28 13.5523 28 13V8C28 5.74772 26.2523 4 24 4H20.4852C19.806 2.79342 18.5175 2 17 2H15C13.4825 2 12.194 2.79342 11.5148 4H8C5.74772 4 4 5.74772 4 8V26C4 28.2523 5.74772 30 8 30H14C14.5523 30 15 29.5523 15 29C15 28.4477 14.5523 28 14 28H8C6.85228 28 6 27.1477 6 26V8C6 6.85228 6.85228 6 8 6ZM15 4C13.8523 4 13 4.85228 13 6V8H12C11.4523 8 11 8.45228 11 9H21C21 8.45228 20.5477 8 20 8H19V6C19 4.85228 18.1477 4 17 4H15Z" fill="black"/>
<path d="M19 23C19 22.4477 19.4477 22 20 22H22V20C22 19.4477 22.4477 19 23 19C23.5523 19 24 19.4477 24 20V22H26C26.5523 22 27 22.4477 27 23C27 23.5523 26.5523 24 26 24H24V26C24 26.5523 23.5523 27 23 27C22.4477 27 22 26.5523 22 26V24H20C19.4477 24 19 23.5523 19 23Z" fill="black"/>
<path fill-rule="evenodd" clip-rule="evenodd" d="M23 15C18.5817 15 15 18.5817 15 23C15 27.4183 18.5817 31 23 31C27.4183 31 31 27.4183 31 23C31 18.5817 27.4183 15 23 15ZM17 23C17 19.6863 19.6863 17 23 17C26.3137 17 29 19.6863 29 23C29 26.3137 26.3137 29 23 29C19.6863 29 17 26.3137 17 23Z" fill="black"/>
</svg>
