<?xml version="1.0" encoding="UTF-8"?>
<svg width="24px" height="24px" viewBox="0 0 24 24" version="1.1" xmlns="http://www.w3.org/2000/svg" xmlns:xlink="http://www.w3.org/1999/xlink">
    <!-- Generator: Sketch 48.2 (47327) - http://www.bohemiancoding.com/sketch -->
    <title>clone</title>
    <desc>Created with Sketch.</desc>
    <defs></defs>
    <g id="Page-1" stroke="none" stroke-width="1" fill="none" fill-rule="evenodd" stroke-linecap="round" stroke-linejoin="round">
        <g id="clone" stroke="#000000" stroke-width="1.5">
            <path d="M10.8457,9 L19.1547,9 C20.1737,9 20.9997,9.827 20.9997,10.846 L20.9997,19.154 C20.9997,20.174 20.1737,21 19.1547,21 L10.8457,21 C9.8257,21 8.9997,20.174 8.9997,19.154 L8.9997,10.846 C8.9997,9.827 9.8257,9 10.8457,9 Z" id="Stroke-2"></path>
            <path d="M15,6 L15,4.714 C15,3.768 14.232,3 13.286,3 L4.714,3 C3.768,3 3,3.768 3,4.714 L3,13.286 C3,14.232 3.768,15 4.714,15 L6,15" id="Stroke-4"></path>
        </g>
    </g>
</svg>