<svg width="32" height="32" viewBox="0 0 32 32" fill="none" xmlns="http://www.w3.org/2000/svg">
<path d="M4 6C4 4.85228 4.85228 4 6 4H17C18.1477 4 19 4.85228 19 6V7C19 7.55228 19.4477 8 20 8C20.5523 8 21 7.55228 21 7V6C21 3.74772 19.2523 2 17 2H6C3.74772 2 2 3.74772 2 6V26C2 28.2523 3.74772 30 6 30H17C19.2523 30 21 28.2523 21 26V25C21 24.4477 20.5523 24 20 24C19.4477 24 19 24.4477 19 25V26C19 27.1477 18.1477 28 17 28H6C4.85228 28 4 27.1477 4 26V6Z" fill="black"/>
<path d="M23 2C22.4477 2 22 2.44772 22 3C22 3.55228 22.4477 4 23 4H26C27.1477 4 28 4.85228 28 6V26C28 27.1477 27.1477 28 26 28H23C22.4477 28 22 28.4477 22 29C22 29.5523 22.4477 30 23 30H26C28.2523 30 30 28.2523 30 26V6C30 3.74772 28.2523 2 26 2H23Z" fill="black"/>
<path d="M24.7075 15.2933L25.4142 16L24.7074 16.7068C24.7076 16.7066 24.7072 16.707 24.7074 16.7068L19.7071 21.7071C19.3166 22.0976 18.6834 22.0976 18.2929 21.7071C17.9024 21.3166 17.9024 20.6834 18.2929 20.2929L21.5858 17H9C8.44772 17 8 16.5523 8 16C8 15.4477 8.44772 15 9 15H21.5858L18.2929 11.7071C17.9024 11.3166 17.9024 10.6834 18.2929 10.2929C18.6834 9.90237 19.3166 9.90237 19.7071 10.2929L24.7067 15.2925C24.707 15.2928 24.7072 15.293 24.7075 15.2933Z" fill="black"/>
</svg>
