<svg width="32" height="32" viewBox="0 0 32 32" fill="none" xmlns="http://www.w3.org/2000/svg">
<path d="M12.9965 11.583C13.255 8.48199 15.8393 6 19 6C22.3477 6 25 8.65228 25 12C25 12.7284 24.9071 13.3782 24.6809 13.9061L24.2591 14.8902L25.2696 15.2439C26.8983 15.8139 28 17.2556 28 19C28 21.2477 26.2477 23 24 23H21C20.4477 23 20 23.4477 20 24C20 24.5523 20.4477 25 21 25H24C27.3523 25 30 22.3523 30 19C30 16.6911 28.7162 14.7582 26.8225 13.7473C26.9552 13.1602 27 12.5637 27 12C27 7.54772 23.4523 4 19 4C15.1876 4 12.0413 6.68345 11.1978 10.2051C10.6654 10.0775 10.1047 10 9.5 10C5.34772 10 2 13.3477 2 17.5C2 21.6523 5.34772 25 9.5 25H11C11.5523 25 12 24.5523 12 24C12 23.4477 11.5523 23 11 23H9.5C6.45228 23 4 20.5477 4 17.5C4 14.4523 6.45228 12 9.5 12C10.2432 12 10.9205 12.1632 11.6489 12.4363L12.8868 12.9005L12.9965 11.583Z" fill="black"/>
<path d="M16 13.5858L20.7071 18.2929C21.0976 18.6834 21.0976 19.3166 20.7071 19.7071C20.3166 20.0976 19.6834 20.0976 19.2929 19.7071L17 17.4142V27C17 27.5523 16.5523 28 16 28C15.4477 28 15 27.5523 15 27V17.4142L12.7071 19.7071C12.3166 20.0976 11.6834 20.0976 11.2929 19.7071C10.9024 19.3166 10.9024 18.6834 11.2929 18.2929L16 13.5858Z" fill="black"/>
</svg>
