<svg width="32" height="32" viewBox="0 0 32 32" fill="none" xmlns="http://www.w3.org/2000/svg">
<path fill-rule="evenodd" clip-rule="evenodd" d="M19 8C15.8393 8 13.255 10.482 12.9965 13.583L12.8868 14.9005L11.6489 14.4363C10.9205 14.1632 10.2432 14 9.5 14C6.45228 14 4 16.4523 4 19.5C4 22.5477 6.45228 25 9.5 25H24C26.2477 25 28 23.2477 28 21C28 19.2556 26.8983 17.8139 25.2696 17.2439L24.2591 16.8902L24.6809 15.9061C24.9071 15.3782 25 14.7284 25 14C25 10.6523 22.3477 8 19 8ZM11.1978 12.2051C12.0413 8.68345 15.1876 6 19 6C23.4523 6 27 9.54772 27 14C27 14.5637 26.9552 15.1602 26.8225 15.7473C28.7162 16.7582 30 18.6911 30 21C30 24.3523 27.3523 27 24 27H9.5C5.34772 27 2 23.6523 2 19.5C2 15.3477 5.34772 12 9.5 12C10.1047 12 10.6654 12.0775 11.1978 12.2051Z" fill="black"/>
</svg>
