<svg width="32" height="32" viewBox="0 0 32 32" fill="none" xmlns="http://www.w3.org/2000/svg">
<path d="M13.3795 23.0347L21.7071 14.7071C22.0976 14.3166 22.0976 13.6834 21.7071 13.2929C21.3166 12.9024 20.6834 12.9024 20.2929 13.2929L13.4205 20.1653L10.727 17.3134C10.3478 16.9119 9.71489 16.8938 9.31338 17.273C8.91186 17.6522 8.89377 18.2851 9.27299 18.6866L13.3795 23.0347Z" fill="black"/>
<path fill-rule="evenodd" clip-rule="evenodd" d="M19 6C15.1876 6 12.0413 8.68345 11.1978 12.2051C10.6654 12.0775 10.1047 12 9.5 12C5.34772 12 2 15.3477 2 19.5C2 23.6523 5.34772 27 9.5 27H24C27.3523 27 30 24.3523 30 21C30 18.6911 28.7162 16.7582 26.8225 15.7473C26.9552 15.1602 27 14.5637 27 14C27 9.54772 23.4523 6 19 6ZM12.9965 13.583C13.255 10.482 15.8393 8 19 8C22.3477 8 25 10.6523 25 14C25 14.7284 24.9071 15.3782 24.6809 15.9061L24.2591 16.8902L25.2696 17.2439C26.8983 17.8139 28 19.2556 28 21C28 23.2477 26.2477 25 24 25H9.5C6.45228 25 4 22.5477 4 19.5C4 16.4523 6.45228 14 9.5 14C10.2432 14 10.9205 14.1632 11.6489 14.4363L12.8868 14.9005L12.9965 13.583Z" fill="black"/>
</svg>
