<svg width="32" height="32" viewBox="0 0 32 32" fill="none" xmlns="http://www.w3.org/2000/svg">
<path d="M12.9965 9.58305C13.255 6.48199 15.8393 4 19 4C22.3477 4 25 6.65228 25 10C25 10.7284 24.9071 11.3782 24.6809 11.9061L24.2591 12.8902L25.2696 13.2439C26.8983 13.8139 28 15.2556 28 17C28 19.2477 26.2477 21 24 21H21C20.4477 21 20 21.4477 20 22C20 22.5523 20.4477 23 21 23H24C27.3523 23 30 20.3523 30 17C30 14.6911 28.7162 12.7582 26.8225 11.7473C26.9552 11.1602 27 10.5637 27 10C27 5.54772 23.4523 2 19 2C15.1876 2 12.0413 4.68345 11.1978 8.20509C10.6654 8.07753 10.1047 8 9.5 8C5.34772 8 2 11.3477 2 15.5C2 19.6523 5.34772 23 9.5 23H11C11.5523 23 12 22.5523 12 22C12 21.4477 11.5523 21 11 21H9.5C6.45228 21 4 18.5477 4 15.5C4 12.4523 6.45228 10 9.5 10C10.2432 10 10.9205 10.1632 11.6489 10.4363L12.8868 10.9005L12.9965 9.58305Z" fill="black"/>
<path d="M16 16C16.5523 16 17 16.4477 17 17V26.5858L19.2929 24.2929C19.6834 23.9024 20.3166 23.9024 20.7071 24.2929C21.0976 24.6834 21.0976 25.3166 20.7071 25.7071L16 30.4142L11.2929 25.7071C10.9024 25.3166 10.9024 24.6834 11.2929 24.2929C11.6834 23.9024 12.3166 23.9024 12.7071 24.2929L15 26.5858V17C15 16.4477 15.4477 16 16 16Z" fill="black"/>
</svg>
