<svg xmlns="http://www.w3.org/2000/svg" width="64" height="64" viewBox="0 0 64 64">
  <title>code</title>
  <path d="M10,32h4a5,5,0,0,0,5-5V13a5,5,0,0,1,5-5h3" fill="none" stroke="#000" stroke-linecap="round" stroke-linejoin="round" stroke-width="4"/>
  <path d="M14,32a5,5,0,0,1,5,5V51a5,5,0,0,0,5,5h3" fill="none" stroke="#000" stroke-linecap="round" stroke-linejoin="round" stroke-width="4"/>
  <path d="M56,32H52a5,5,0,0,1-5-5V13a5,5,0,0,0-5-5H39" fill="none" stroke="#000" stroke-linecap="round" stroke-linejoin="round" stroke-width="4"/>
  <path d="M52,32a5,5,0,0,0-5,5V51a5,5,0,0,1-5,5H39" fill="none" stroke="#000" stroke-linecap="round" stroke-linejoin="round" stroke-width="4"/>
</svg>
