<svg width="32" height="32" viewBox="0 0 32 32" fill="none" xmlns="http://www.w3.org/2000/svg">
<path d="M11 2C8.74771 2 7 3.74772 7 6V13C7 14.1477 6.14772 15 5 15H4C3.44772 15 3 15.4477 3 16C3 16.5523 3.44772 17 4 17H5C6.14772 17 7 17.8523 7 19V26C7 28.2523 8.74771 30 11 30H13C13.5523 30 14 29.5523 14 29C14 28.4477 13.5523 28 13 28H11C9.85228 28 9 27.1477 9 26V19C9 17.7902 8.49574 16.726 7.67989 16C8.49574 15.274 9 14.2098 9 13V6C9 4.85228 9.85228 4 11 4H13C13.5523 4 14 3.55228 14 3C14 2.44772 13.5523 2 13 2H11Z" fill="black"/>
<path d="M19 23C19 22.4477 19.4477 22 20 22H26C26.5523 22 27 22.4477 27 23C27 23.5523 26.5523 24 26 24H20C19.4477 24 19 23.5523 19 23Z" fill="black"/>
<path fill-rule="evenodd" clip-rule="evenodd" d="M15 23C15 18.5817 18.5817 15 23 15C27.4183 15 31 18.5817 31 23C31 27.4183 27.4183 31 23 31C18.5817 31 15 27.4183 15 23ZM23 17C19.6863 17 17 19.6863 17 23C17 26.3137 19.6863 29 23 29C26.3137 29 29 26.3137 29 23C29 19.6863 26.3137 17 23 17Z" fill="black"/>
<path d="M19 2C18.4477 2 18 2.44772 18 3C18 3.55228 18.4477 4 19 4H21C22.1477 4 23 4.85228 23 6V13C23 13.5523 23.4477 14 24 14C24.5523 14 25 13.5523 25 13V6C25 3.74772 23.2523 2 21 2H19Z" fill="black"/>
</svg>
