<svg width="32" height="32" viewBox="0 0 32 32" fill="none" xmlns="http://www.w3.org/2000/svg">
<path d="M11 2C8.74771 2 7 3.74772 7 6V13C7 14.1477 6.14772 15 5 15H4C3.44772 15 3 15.4477 3 16C3 16.5523 3.44772 17 4 17H5C6.14772 17 7 17.8523 7 19V26C7 28.2523 8.74771 30 11 30H13C13.5523 30 14 29.5523 14 29C14 28.4477 13.5523 28 13 28H11C9.85228 28 9 27.1477 9 26V19C9 17.7902 8.49574 16.726 7.67989 16C8.49574 15.274 9 14.2098 9 13V6C9 4.85228 9.85228 4 11 4H13C13.5523 4 14 3.55228 14 3C14 2.44772 13.5523 2 13 2H11Z" fill="black"/>
<path d="M18 3C18 2.44772 18.4477 2 19 2H21C23.2523 2 25 3.74772 25 6V13C25 14.1477 25.8523 15 27 15H28C28.5523 15 29 15.4477 29 16C29 16.5523 28.5523 17 28 17H27C25.8523 17 25 17.8523 25 19V26C25 28.2523 23.2523 30 21 30H19C18.4477 30 18 29.5523 18 29C18 28.4477 18.4477 28 19 28H21C22.1477 28 23 27.1477 23 26V19C23 17.7902 23.5043 16.726 24.3201 16C23.5043 15.274 23 14.2098 23 13V6C23 4.85228 22.1477 4 21 4H19C18.4477 4 18 3.55228 18 3Z" fill="black"/>
</svg>
