<?xml version="1.0" encoding="UTF-8"?>
<svg width="24px" height="24px" viewBox="0 0 24 24" version="1.1" xmlns="http://www.w3.org/2000/svg" xmlns:xlink="http://www.w3.org/1999/xlink">
    <!-- Generator: Sketch 48.2 (47327) - http://www.bohemiancoding.com/sketch -->
    <title>code-ok</title>
    <desc>Created with Sketch.</desc>
    <defs></defs>
    <g id="Page-1" stroke="none" stroke-width="1" fill="none" fill-rule="evenodd" stroke-linecap="round" stroke-linejoin="round">
        <g id="code-ok" stroke="#000000" stroke-width="2">
            <path d="M4,12 L5,12 C6.104,12 7,11.104 7,10 L7,5 C7,3.896 7.896,3 9,3 L10,3" id="Stroke-1"></path>
            <path d="M5,12 C6.104,12 7,12.896 7,14 L7,19 C7,20.104 7.896,21 9,21" id="Stroke-3"></path>
            <path d="M17,8 L17,5 C17,3.896 16.104,3 15,3 L14,3" id="Stroke-5"></path>
            <path d="M17,23 C20.313,23 23,20.313 23,17 C23,13.687 20.313,11 17,11 C13.687,11 11,13.687 11,17 C11,20.313 13.687,23 17,23 Z" id="Stroke-7"></path>
            <polyline id="Shape" points="14 17 16 19 19.5 15.5"></polyline>
        </g>
    </g>
</svg>