<svg width="32" height="32" viewBox="0 0 32 32" fill="none" xmlns="http://www.w3.org/2000/svg">
<path d="M11 2C8.74771 2 7 3.74772 7 6V13C7 14.1477 6.14772 15 5 15H4C3.44772 15 3 15.4477 3 16C3 16.5523 3.44772 17 4 17H5C6.14772 17 7 17.8523 7 19V26C7 28.2523 8.74771 30 11 30H13C13.5523 30 14 29.5523 14 29C14 28.4477 13.5523 28 13 28H11C9.85228 28 9 27.1477 9 26V19C9 17.7902 8.49574 16.726 7.67989 16C8.49574 15.274 9 14.2098 9 13V6C9 4.85228 9.85228 4 11 4H13C13.5523 4 14 3.55228 14 3C14 2.44772 13.5523 2 13 2H11Z" fill="black"/>
<path d="M25.7071 21.7071C26.0976 21.3166 26.0976 20.6834 25.7071 20.2929C25.3166 19.9024 24.6834 19.9024 24.2929 20.2929L23 21.5858L21.7071 20.2929C21.3166 19.9024 20.6834 19.9024 20.2929 20.2929C19.9024 20.6834 19.9024 21.3166 20.2929 21.7071L21.5858 23L20.2929 24.2929C19.9024 24.6834 19.9024 25.3166 20.2929 25.7071C20.6834 26.0976 21.3166 26.0976 21.7071 25.7071L23 24.4142L24.2929 25.7071C24.6834 26.0976 25.3166 26.0976 25.7071 25.7071C26.0976 25.3166 26.0976 24.6834 25.7071 24.2929L24.4142 23L25.7071 21.7071Z" fill="black"/>
<path fill-rule="evenodd" clip-rule="evenodd" d="M23 15C18.5817 15 15 18.5817 15 23C15 27.4183 18.5817 31 23 31C27.4183 31 31 27.4183 31 23C31 18.5817 27.4183 15 23 15ZM17 23C17 19.6863 19.6863 17 23 17C26.3137 17 29 19.6863 29 23C29 26.3137 26.3137 29 23 29C19.6863 29 17 26.3137 17 23Z" fill="black"/>
<path d="M19 2C18.4477 2 18 2.44772 18 3C18 3.55228 18.4477 4 19 4H21C22.1477 4 23 4.85228 23 6V13C23 13.5523 23.4477 14 24 14C24.5523 14 25 13.5523 25 13V6C25 3.74772 23.2523 2 21 2H19Z" fill="black"/>
</svg>
