<svg width="32" height="32" viewBox="0 0 32 32" fill="none" xmlns="http://www.w3.org/2000/svg">
<path fill-rule="evenodd" clip-rule="evenodd" d="M20.666 2H11.334L9.23401 4.5H7.6C5.69935 4.5 4 5.99746 4 8V11.5H6.18269L7.02689 21.2687C7.00931 21.3429 7 21.4204 7 21.5C7 21.6403 7.02888 21.7738 7.08102 21.8949L7.50334 26.7818C7.64847 28.6337 9.21351 30 11.1 30H20.9C22.7865 30 24.3516 28.6337 24.4967 26.7817L24.919 21.895C24.9711 21.7738 25 21.6403 25 21.5C25 21.4204 24.9907 21.3429 24.9731 21.2686L25.8173 11.5H28V8C28 5.99746 26.3007 4.5 24.4 4.5H22.766L20.666 2ZM23.032 20.5L23.3345 17H8.66545L8.96792 20.5H23.032ZM9.14076 22.5L9.4971 26.6233C9.55444 27.3688 10.1882 28 11.1 28H20.9C21.8118 28 22.4456 27.3688 22.5029 26.6233L22.5037 26.6139L22.8592 22.5H9.14076ZM6 9.5V8C6 7.20254 6.70065 6.5 7.6 6.5H10.166L12.266 4H19.734L21.834 6.5H24.4C25.2993 6.5 26 7.20254 26 8V9.5H6ZM8.19014 11.5H23.8098L23.5074 15H8.49261L8.19014 11.5Z" fill="black"/>
</svg>
