<svg width="32" height="32" viewBox="0 0 32 32" fill="none" xmlns="http://www.w3.org/2000/svg">
<path d="M13 4C13 3.44772 12.5523 3 12 3C11.4477 3 11 3.44772 11 4V7C11 7.55228 11.4477 8 12 8C12.5523 8 13 7.55228 13 7V4Z" fill="black"/>
<path fill-rule="evenodd" clip-rule="evenodd" d="M7 10V21C7 23.2523 8.74771 25 11 25H21C23.2523 25 25 23.2523 25 21V17C27.2523 17 29 15.2523 29 13V10H7ZM27 13C27 14.1477 26.1477 15 25 15V12H27V13ZM9 21V12H23V21C23 22.1477 22.1477 23 21 23H11C9.85228 23 9 22.1477 9 21Z" fill="black"/>
<path d="M4 27C3.44772 27 3 27.4477 3 28C3 28.5523 3.44772 29 4 29H28C28.5523 29 29 28.5523 29 28C29 27.4477 28.5523 27 28 27H4Z" fill="black"/>
<path d="M16 3C16.5523 3 17 3.44772 17 4V7C17 7.55228 16.5523 8 16 8C15.4477 8 15 7.55228 15 7V4C15 3.44772 15.4477 3 16 3Z" fill="black"/>
<path d="M21 4C21 3.44772 20.5523 3 20 3C19.4477 3 19 3.44772 19 4V7C19 7.55228 19.4477 8 20 8C20.5523 8 21 7.55228 21 7V4Z" fill="black"/>
</svg>
