<svg width="32" height="32" viewBox="0 0 32 32" fill="none" xmlns="http://www.w3.org/2000/svg">
<path fill-rule="evenodd" clip-rule="evenodd" d="M4 3C3.47275 3 2.95567 3.18011 2.56789 3.56789C2.18011 3.95567 2 4.47275 2 5V9C2 9.52725 2.18011 10.0443 2.56789 10.4321C2.95567 10.8199 3.47275 11 4 11V15C4 15.5272 4.18011 16.0443 4.56789 16.4321C4.70223 16.5664 4.85208 16.6759 5.0125 16.7615C5.00413 16.8405 5 16.9201 5 17V21C4.47275 21 3.95567 21.1801 3.56789 21.5679C3.18011 21.9557 3 22.4728 3 23V27C3 27.5272 3.18011 28.0443 3.56789 28.4321C3.95567 28.8199 4.47275 29 5 29H17C17.5272 29 18.0443 28.8199 18.4321 28.4321C18.4923 28.3719 18.5475 28.3086 18.5978 28.2426C19.6302 28.7284 20.7834 29 22 29C26.4183 29 30 25.4183 30 21C30 16.5817 26.4183 13 22 13C21.3094 13 20.6392 13.0875 20 13.252V11C20 10.4728 19.8199 9.95567 19.4321 9.56789C19.0443 9.18011 18.5272 9 18 9V5C18 4.47275 17.8199 3.95567 17.4321 3.56789C17.0443 3.18011 16.5272 3 16 3H4ZM18.7615 26.0518C18.6524 25.9238 18.5116 25.8236 18.3513 25.7634C17.1931 24.875 16.3684 23.5737 16.0969 22.0796C16.0989 22.0534 16.1 22.0268 16.1 22C16.1 21.8738 16.0766 21.753 16.0339 21.6418C16.0115 21.4309 16 21.2168 16 21C16 18.6814 17.3152 16.6699 19.2403 15.6709C19.3736 15.6381 19.4963 15.5785 19.6026 15.4981C20.3369 15.1777 21.1477 15 22 15C25.3137 15 28 17.6863 28 21C28 24.3137 25.3137 27 22 27C20.8072 27 19.6957 26.6519 18.7615 26.0518ZM14 21C14 19.5429 14.3896 18.1767 15.0703 17H7V21H14ZM14.252 23C14.6568 24.5724 15.5275 25.9578 16.7084 27H5V23H14.252ZM16.7084 15H6V11H18V14.0703C17.5383 14.3373 17.1058 14.6492 16.7084 15ZM16 9V5H4V9H16Z" fill="black"/>
</svg>
