<svg width="32" height="32" viewBox="0 0 32 32" fill="none" xmlns="http://www.w3.org/2000/svg">
<path fill-rule="evenodd" clip-rule="evenodd" d="M7.00606 13.8591C5.85196 13.2293 5 12.2359 5 11V7C5 5.58874 6.11805 4.5803 7.31015 3.98425C8.56205 3.3583 10.2216 3 12 3C13.7784 3 15.4379 3.3583 16.6899 3.98425C17.8819 4.5803 19 5.58874 19 7V11C19 11.064 18.996 11.1288 18.9888 11.1936C19.403 11.4386 19.781 11.7168 20.0946 12.0304C20.5946 12.5304 21 13.1948 21 14V16.1739C21.4815 16.0602 21.9837 16 22.5 16C26.0899 16 29 18.9101 29 22.5C29 26.0899 26.0899 29 22.5 29C19.9233 29 17.6969 27.5008 16.6453 25.327C16.221 26.0761 15.4686 26.6445 14.6806 27.034C13.4258 27.6542 11.767 28 10 28C8.23302 28 6.5742 27.6542 5.31941 27.034C4.11833 26.4403 3 25.431 3 24V20C3 18.879 3.72959 18.0141 4.57282 17.4372C5.23992 16.9807 6.07699 16.6286 7 16.3921V14C7 13.9985 7 13.9971 7.00001 13.9956C7.00014 13.9504 7.00224 13.9048 7.00606 13.8591ZM7 7C7 6.7544 7.22509 6.26285 8.20457 5.77311C9.12424 5.31327 10.4647 5 12 5C13.5353 5 14.8758 5.31327 15.7954 5.77311C16.7749 6.26285 17 6.7544 17 7C17 7.2456 16.7749 7.73715 15.7954 8.22689C14.8758 8.68673 13.5353 9 12 9C10.4647 9 9.12424 8.68673 8.20457 8.22689C7.22509 7.73715 7 7.2456 7 7ZM16.6899 10.0157C16.794 9.96366 16.8976 9.90842 17 9.85004V10.9809L16.9994 10.9845C16.9962 11.0015 16.99 11.0281 16.9797 11.0627C16.9584 11.1336 16.9298 11.2039 16.9066 11.2507C16.9059 11.2522 16.9051 11.2537 16.9044 11.2552L16.8986 11.2668L16.892 11.2809C16.7496 11.5896 16.2833 12.0349 15.3517 12.4098C14.4596 12.7688 13.2884 13 12 13C10.7304 13 9.46009 12.7257 8.57882 12.3745C8.573 12.3721 8.56717 12.3698 8.56133 12.3675L8.55399 12.3646L8.54796 12.3624C8.53975 12.3594 8.53153 12.3564 8.52328 12.3536C7.29787 11.9122 7 11.2724 7 11V9.85004C7.10235 9.90842 7.20597 9.96366 7.31015 10.0157C8.56205 10.6417 10.2216 11 12 11C13.7784 11 15.4379 10.6417 16.6899 10.0157ZM9 16.8648V17.1831C9.00022 17.1952 9.00022 17.2072 9 17.2193V18C9 18.269 9.23167 18.7597 10.2056 19.241C11.1258 19.6958 12.467 20 14 20C14.5729 20 15.1022 19.9578 15.5995 19.8834C15.7221 19.8298 15.8576 19.8 16 19.8C16.0229 19.8 16.0456 19.8008 16.0681 19.8023C16.2653 19.7635 16.4576 19.7197 16.6459 19.6718C17.1716 18.5857 17.9906 17.6681 19 17.0218V16.8648C18.8947 16.9245 18.788 16.9809 18.6806 17.034C17.4258 17.6542 15.767 18 14 18C12.233 18 10.5742 17.6542 9.31941 17.034C9.21203 16.9809 9.10532 16.9245 9 16.8648ZM19 14C19 13.9052 18.9554 13.7196 18.6804 13.4446C18.5325 13.2967 18.338 13.1445 18.0986 12.9933C17.5718 13.5402 16.8544 13.9609 16.0983 14.2652C14.9404 14.7312 13.5116 15 12 15C11.1035 15 10.2072 14.8883 9.39363 14.7054C9.57715 14.877 9.8387 15.0597 10.2056 15.241C11.1258 15.6958 12.467 16 14 16C15.533 16 16.8742 15.6958 17.7944 15.241C18.7683 14.7597 19 14.269 19 14ZM5 24V22.8648C5.10532 22.9245 5.21203 22.9809 5.31941 23.034C6.5742 23.6542 8.23302 24 10 24C11.4547 24 12.8254 23.7585 13.9511 23.3363C14.3158 23.1996 14.6703 23.0379 15 22.85V24C15 24.269 14.7683 24.7597 13.7944 25.241C12.8742 25.6958 11.533 26 10 26C8.46698 26 7.1258 25.6958 6.20559 25.241C5.23167 24.7597 5 24.269 5 24ZM7.03997 18.4612C6.49947 18.6358 6.04641 18.8523 5.70218 19.0878C5.12041 19.4859 5 19.821 5 20C5 20.269 5.23167 20.7597 6.20559 21.241C7.1258 21.6958 8.46698 22 10 22C10.6751 22 11.316 21.9387 11.9008 21.8304C10.9402 21.6702 10.0595 21.3998 9.31941 21.034C8.25174 20.5063 7.24945 19.6501 7.03997 18.4612ZM20.4729 18.4814C20.4607 18.4879 20.4485 18.4941 20.4361 18.5002C19.5281 18.9696 18.8005 19.7391 18.3843 20.6775C18.361 20.8064 18.3125 20.9291 18.2427 21.0385C18.0854 21.4967 18 21.9884 18 22.5C18 24.9853 20.0147 27 22.5 27C24.9853 27 27 24.9853 27 22.5C27 20.0147 24.9853 18 22.5 18C21.7708 18 21.082 18.1735 20.4729 18.4814Z" fill="black"/>
</svg>
