<svg width="32" height="32" viewBox="0 0 32 32" fill="none" xmlns="http://www.w3.org/2000/svg">
<path fill-rule="evenodd" clip-rule="evenodd" d="M23.5 3C21.8721 3 20.3498 3.2979 19.1971 3.82187C18.1347 4.3048 17 5.17637 17 6.5C17 7.82363 18.1347 8.6952 19.1971 9.17813C20.3498 9.7021 21.8721 10 23.5 10C25.1279 10 26.6502 9.7021 27.8029 9.17813C28.8653 8.6952 30 7.82363 30 6.5C30 5.17637 28.8653 4.3048 27.8029 3.82187C26.6502 3.2979 25.1279 3 23.5 3ZM19 6.5C19 6.44292 19.0966 6.06449 20.0247 5.6426C20.8626 5.26174 22.0904 5 23.5 5C24.9096 5 26.1374 5.26174 26.9753 5.6426C27.9034 6.06449 28 6.44292 28 6.5C28 6.55708 27.9034 6.93551 26.9753 7.3574C26.1374 7.73826 24.9096 8 23.5 8C22.0904 8 20.8626 7.73826 20.0247 7.3574C19.0966 6.93551 19 6.55708 19 6.5Z" fill="black"/>
<path d="M19 10.5C19 9.94772 18.5523 9.5 18 9.5C17.4477 9.5 17 9.94772 17 10.5C17 11.8372 18.1497 12.7077 19.2146 13.1869C20.3709 13.7073 21.8919 14 23.5 14C25.1081 14 26.6291 13.7073 27.7854 13.1869C28.8503 12.7077 30 11.8372 30 10.5C30 9.94772 29.5523 9.5 29 9.5C28.4477 9.5 28 9.94772 28 10.5C28 10.5628 27.8997 10.9423 26.9646 11.3631C26.1209 11.7427 24.8919 12 23.5 12C22.1081 12 20.8791 11.7427 20.0354 11.3631C19.1003 10.9423 19 10.5628 19 10.5Z" fill="black"/>
<path d="M18 13.5C18.5523 13.5 19 13.9477 19 14.5C19 14.5628 19.1003 14.9423 20.0354 15.3631C20.8791 15.7427 22.1081 16 23.5 16C24.8919 16 26.1209 15.7427 26.9646 15.3631C27.8997 14.9423 28 14.5628 28 14.5C28 13.9477 28.4477 13.5 29 13.5C29.5523 13.5 30 13.9477 30 14.5C30 15.8372 28.8503 16.7077 27.7854 17.1869C26.6291 17.7073 25.1081 18 23.5 18C21.8919 18 20.3709 17.7073 19.2146 17.1869C18.1497 16.7077 17 15.8372 17 14.5C17 13.9477 17.4477 13.5 18 13.5Z" fill="black"/>
<path d="M19 18.5C19 17.9477 18.5523 17.5 18 17.5C17.4477 17.5 17 17.9477 17 18.5C17 19.8372 18.1497 20.7077 19.2146 21.1869C20.3709 21.7073 21.8919 22 23.5 22C25.1081 22 26.6291 21.7073 27.7854 21.1869C28.8503 20.7077 30 19.8372 30 18.5C30 17.9477 29.5523 17.5 29 17.5C28.4477 17.5 28 17.9477 28 18.5C28 18.5628 27.8997 18.9423 26.9646 19.3631C26.1209 19.7427 24.8919 20 23.5 20C22.1081 20 20.8791 19.7427 20.0354 19.3631C19.1003 18.9423 19 18.5628 19 18.5Z" fill="black"/>
<path d="M18 21.5C18.5523 21.5 19 21.9477 19 22.5C19 22.5628 19.1003 22.9423 20.0354 23.3631C20.8791 23.7427 22.1081 24 23.5 24C24.8919 24 26.1209 23.7427 26.9646 23.3631C27.8997 22.9423 28 22.5628 28 22.5C28 21.9477 28.4477 21.5 29 21.5C29.5523 21.5 30 21.9477 30 22.5C30 23.8372 28.8503 24.7077 27.7854 25.1869C26.6291 25.7073 25.1081 26 23.5 26C21.8919 26 20.3709 25.7073 19.2146 25.1869C18.1497 24.7077 17 23.8372 17 22.5C17 21.9477 17.4477 21.5 18 21.5Z" fill="black"/>
<path d="M19 26.5C19 25.9477 18.5523 25.5 18 25.5C17.4477 25.5 17 25.9477 17 26.5C17 27.8372 18.1497 28.7077 19.2146 29.1869C20.3709 29.7073 21.8919 30 23.5 30C25.1081 30 26.6291 29.7073 27.7854 29.1869C28.8503 28.7077 30 27.8372 30 26.5C30 25.9477 29.5523 25.5 29 25.5C28.4477 25.5 28 25.9477 28 26.5C28 26.5628 27.8997 26.9423 26.9646 27.3631C26.1209 27.7427 24.8919 28 23.5 28C22.1081 28 20.8791 27.7427 20.0354 27.3631C19.1003 26.9423 19 26.5628 19 26.5Z" fill="black"/>
<path fill-rule="evenodd" clip-rule="evenodd" d="M4.19711 11.8219C5.34983 11.2979 6.87207 11 8.5 11C10.1279 11 11.6502 11.2979 12.8029 11.8219C13.8653 12.3048 15 13.1764 15 14.5C15 15.8236 13.8653 16.6952 12.8029 17.1781C11.6502 17.7021 10.1279 18 8.5 18C6.87207 18 5.34983 17.7021 4.19711 17.1781C3.13466 16.6952 2 15.8236 2 14.5C2 13.1764 3.13466 12.3048 4.19711 11.8219ZM5.02472 13.6426C4.09656 14.0645 4 14.4429 4 14.5C4 14.5571 4.09656 14.9355 5.02472 15.3574C5.8626 15.7383 7.09036 16 8.5 16C9.90964 16 11.1374 15.7383 11.9753 15.3574C12.9034 14.9355 13 14.5571 13 14.5C13 14.4429 12.9034 14.0645 11.9753 13.6426C11.1374 13.2617 9.90964 13 8.5 13C7.09036 13 5.8626 13.2617 5.02472 13.6426Z" fill="black"/>
<path d="M4 18.5C4 17.9477 3.55228 17.5 3 17.5C2.44772 17.5 2 17.9477 2 18.5C2 19.8372 3.14969 20.7077 4.21464 21.1869C5.37095 21.7073 6.89187 22 8.5 22C10.1081 22 11.6291 21.7073 12.7854 21.1869C13.8503 20.7077 15 19.8372 15 18.5C15 17.9477 14.5523 17.5 14 17.5C13.4477 17.5 13 17.9477 13 18.5C13 18.5628 12.8997 18.9423 11.9646 19.3631C11.1209 19.7427 9.89187 20 8.5 20C7.10813 20 5.87905 19.7427 5.03536 19.3631C4.10031 18.9423 4 18.5628 4 18.5Z" fill="black"/>
<path d="M3 21.5C3.55228 21.5 4 21.9477 4 22.5C4 22.5628 4.10031 22.9423 5.03536 23.3631C5.87905 23.7427 7.10813 24 8.5 24C9.89187 24 11.1209 23.7427 11.9646 23.3631C12.8997 22.9423 13 22.5628 13 22.5C13 21.9477 13.4477 21.5 14 21.5C14.5523 21.5 15 21.9477 15 22.5C15 23.8372 13.8503 24.7077 12.7854 25.1869C11.6291 25.7073 10.1081 26 8.5 26C6.89187 26 5.37095 25.7073 4.21464 25.1869C3.14969 24.7077 2 23.8372 2 22.5C2 21.9477 2.44772 21.5 3 21.5Z" fill="black"/>
<path d="M4 26.5C4 25.9477 3.55228 25.5 3 25.5C2.44772 25.5 2 25.9477 2 26.5C2 27.8372 3.14969 28.7077 4.21464 29.1869C5.37095 29.7073 6.89187 30 8.5 30C10.1081 30 11.6291 29.7073 12.7854 29.1869C13.8503 28.7077 15 27.8372 15 26.5C15 25.9477 14.5523 25.5 14 25.5C13.4477 25.5 13 25.9477 13 26.5C13 26.5628 12.8997 26.9423 11.9646 27.3631C11.1209 27.7427 9.89187 28 8.5 28C7.10813 28 5.87905 27.7427 5.03536 27.3631C4.10031 26.9423 4 26.5628 4 26.5Z" fill="black"/>
</svg>
