<svg width="32" height="32" viewBox="0 0 32 32" fill="none" xmlns="http://www.w3.org/2000/svg">
<path fill-rule="evenodd" clip-rule="evenodd" d="M2 6C2 3.74772 3.74772 2 6 2H26C28.2523 2 30 3.74772 30 6V20C30 22.2523 28.2523 24 26 24H10.3937L6.2754 27.8375L6.26896 27.8433C4.65989 29.2915 2 28.2118 2 26V6ZM6 4C4.85228 4 4 4.85228 4 6V26C4 26.1998 4.11314 26.3677 4.31892 26.4559C4.52095 26.5424 4.74553 26.5203 4.92604 26.3612L9.6063 22H26C27.1477 22 28 21.1477 28 20V6C28 4.85228 27.1477 4 26 4H6Z" fill="black"/>
</svg>
