<svg width="32" height="32" viewBox="0 0 32 32" fill="none" xmlns="http://www.w3.org/2000/svg">
<path fill-rule="evenodd" clip-rule="evenodd" d="M6 3C3.74772 3 2 4.74772 2 7V22C2 24.2118 4.65989 25.2915 6.26896 23.8433L6.2754 23.8375L10.3937 20H19C21.2523 20 23 18.2523 23 16V7C23 4.74772 21.2523 3 19 3H6ZM4 7C4 5.85228 4.85228 5 6 5H19C20.1477 5 21 5.85228 21 7V16C21 17.1477 20.1477 18 19 18H9.6063L4.92604 22.3612C4.74553 22.5203 4.52095 22.5424 4.31892 22.4559C4.11314 22.3677 4 22.1998 4 22V7Z" fill="black"/>
<path d="M25 8C24.4477 8 24 8.44772 24 9C24 9.55228 24.4477 10 25 10H26C27.1477 10 28 10.8523 28 12V27C28 27.1998 27.8869 27.3677 27.6811 27.4559C27.4791 27.5424 27.2545 27.5203 27.074 27.3612L22.3937 23H13C12.2281 23 11.6814 22.6674 11.3742 22.1144C11.1059 21.6316 10.4971 21.4576 10.0144 21.7258C9.53157 21.9941 9.35763 22.6029 9.62584 23.0856C10.3186 24.3326 11.5719 25 13 25H21.6063L25.7246 28.8375L25.731 28.8433C27.3401 30.2915 30 29.2118 30 27V12C30 9.74771 28.2523 8 26 8H25Z" fill="black"/>
</svg>
