<svg width="32" height="32" viewBox="0 0 32 32" fill="none" xmlns="http://www.w3.org/2000/svg">
<path d="M10.5 13C10.5 13.8284 9.82843 14.5 9 14.5C8.17157 14.5 7.5 13.8284 7.5 13C7.5 12.1716 8.17157 11.5 9 11.5C9.82843 11.5 10.5 12.1716 10.5 13Z" fill="black"/>
<path d="M16 14.5C16.8284 14.5 17.5 13.8284 17.5 13C17.5 12.1716 16.8284 11.5 16 11.5C15.1716 11.5 14.5 12.1716 14.5 13C14.5 13.8284 15.1716 14.5 16 14.5Z" fill="black"/>
<path d="M24.5 13C24.5 13.8284 23.8284 14.5 23 14.5C22.1716 14.5 21.5 13.8284 21.5 13C21.5 12.1716 22.1716 11.5 23 11.5C23.8284 11.5 24.5 12.1716 24.5 13Z" fill="black"/>
<path fill-rule="evenodd" clip-rule="evenodd" d="M6 2C3.74772 2 2 3.74772 2 6V26C2 28.2118 4.65989 29.2915 6.26896 27.8433L6.2754 27.8375L10.3937 24H26C28.2523 24 30 22.2523 30 20V6C30 3.74772 28.2523 2 26 2H6ZM4 6C4 4.85228 4.85228 4 6 4H26C27.1477 4 28 4.85228 28 6V20C28 21.1477 27.1477 22 26 22H9.6063L4.92604 26.3612C4.74553 26.5203 4.52095 26.5424 4.31892 26.4559C4.11314 26.3677 4 26.1998 4 26V6Z" fill="black"/>
</svg>
