<svg width="32" height="32" viewBox="0 0 32 32" fill="none" xmlns="http://www.w3.org/2000/svg">
<path fill-rule="evenodd" clip-rule="evenodd" d="M17 3C17 2.44772 16.5523 2 16 2C15.4477 2 15 2.44772 15 3V5.11151C12.996 5.56624 11.5 7.35841 11.5 9.5C11.5 11.2226 12.4679 12.7191 13.8895 13.4754L12.3034 17H10C9.44772 17 9 17.4477 9 18C9 18.5523 9.44772 19 10 19H11.4034L7.08808 28.5896C6.86144 29.0933 7.086 29.6853 7.58964 29.9119C8.09328 30.1386 8.68529 29.914 8.91192 29.4104L13.5966 19H18.4034L23.0881 29.4104C23.3147 29.914 23.9067 30.1386 24.4104 29.9119C24.914 29.6853 25.1386 29.0933 24.9119 28.5896L20.5966 19H22C22.5523 19 23 18.5523 23 18C23 17.4477 22.5523 17 22 17H19.6966L18.1105 13.4754C19.5321 12.7191 20.5 11.2226 20.5 9.5C20.5 7.35841 19.004 5.56624 17 5.11151V3ZM16 7C14.6193 7 13.5 8.11929 13.5 9.5C13.5 10.8807 14.6193 12 16 12C17.3807 12 18.5 10.8807 18.5 9.5C18.5 8.11929 17.3807 7 16 7ZM16.1523 13.9975L17.5034 17H14.4966L15.8477 13.9975C15.8983 13.9992 15.949 14 16 14C16.051 14 16.1017 13.9992 16.1523 13.9975Z" fill="black"/>
</svg>
