<svg width="32" height="32" viewBox="0 0 32 32" fill="none" xmlns="http://www.w3.org/2000/svg">
<path fill-rule="evenodd" clip-rule="evenodd" d="M19.9418 19.3369L19.7906 19.7906L19.3371 19.9417C19.3238 19.9465 19.3103 19.951 19.2968 19.9552L8.41886 23.5811L12.045 12.7028C12.0491 12.6895 12.0535 12.6764 12.0581 12.6633L12.2094 12.2094L12.6635 12.0581C12.6765 12.0534 12.6895 12.0491 12.7025 12.0451L23.5811 8.41885L19.9551 19.297C19.9509 19.3104 19.9465 19.3237 19.9418 19.3369ZM18.563 17.1488L20.4189 11.5811L14.8512 13.437L18.563 17.1488ZM13.437 14.8512L11.5811 20.4189L17.1488 18.563L13.437 14.8512Z" fill="black"/>
<path fill-rule="evenodd" clip-rule="evenodd" d="M2 16C2 8.26801 8.26801 2 16 2C23.732 2 30 8.26801 30 16C30 23.732 23.732 30 16 30C8.26801 30 2 23.732 2 16ZM16 4C9.37258 4 4 9.37258 4 16C4 22.6274 9.37258 28 16 28C22.6274 28 28 22.6274 28 16C28 9.37258 22.6274 4 16 4Z" fill="black"/>
</svg>
