<svg width="32" height="32" viewBox="0 0 32 32" fill="none" xmlns="http://www.w3.org/2000/svg">
<path d="M9.5 11.6C10.3284 11.6 11 10.9284 11 10.1C11 9.27158 10.3284 8.60001 9.5 8.60001C8.67157 8.60001 8 9.27158 8 10.1C8 10.9284 8.67157 11.6 9.5 11.6Z" fill="black"/>
<path d="M22.5 11.6C23.3284 11.6 24 10.9284 24 10.1C24 9.27158 23.3284 8.60001 22.5 8.60001C21.6716 8.60001 21 9.27158 21 10.1C21 10.9284 21.6716 11.6 22.5 11.6Z" fill="black"/>
<path d="M14 13.1C14 13.9284 13.3284 14.6 12.5 14.6C11.6716 14.6 11 13.9284 11 13.1C11 12.2716 11.6716 11.6 12.5 11.6C13.3284 11.6 14 12.2716 14 13.1Z" fill="black"/>
<path d="M19.5 14.6C20.3284 14.6 21 13.9284 21 13.1C21 12.2716 20.3284 11.6 19.5 11.6C18.6716 11.6 18 12.2716 18 13.1C18 13.9284 18.6716 14.6 19.5 14.6Z" fill="black"/>
<path fill-rule="evenodd" clip-rule="evenodd" d="M10.5 4C6.44772 4 3 7.44771 3 11.5V11.9647L2.20318 23.1199C2.07152 24.6159 2.87753 26.0996 4.23921 26.7876C6.03296 27.7442 8.22314 27.0456 9.17775 25.2791L12.5901 19.1H19.4099L22.8223 25.2792C23.7769 27.0456 25.9671 27.7442 27.7608 26.7876C29.1225 26.0996 29.9285 24.6159 29.7968 23.1199L29 11.9647V11.5C29 7.34771 25.6523 4 21.5 4C20.1009 4 18.815 4.39945 17.7324 5H14.2676C13.185 4.39945 11.8991 4 10.5 4ZM5 11.5C5 8.55228 7.55229 6 10.5 6C11.593 6 12.6172 6.33653 13.4855 6.85749C13.6409 6.95074 13.8188 7 14 7H18C18.1812 7 18.3591 6.95074 18.5145 6.85749C19.3828 6.33653 20.407 6 21.5 6C24.5477 6 27 8.45228 27 11.5V12C27 12.0238 27.0008 12.0475 27.0025 12.0712L27.8025 23.2712L27.8041 23.2905C27.8673 23.986 27.4797 24.6921 26.8528 25.0056C26.8438 25.0101 26.8348 25.0147 26.8259 25.0195C26.0238 25.4514 25.025 25.1513 24.5805 24.3259L20.8754 17.6166C20.6994 17.2979 20.3641 17.1 20 17.1H12C11.6359 17.1 11.3006 17.2979 11.1246 17.6166L7.42457 24.3166L7.41953 24.3259C6.97505 25.1514 5.97618 25.4514 5.1741 25.0195C5.16521 25.0147 5.15625 25.0101 5.14722 25.0056C4.52028 24.6921 4.13267 23.986 4.1959 23.2905L4.19746 23.2712L4.99746 12.0712C4.99915 12.0475 5 12.0238 5 12V11.5Z" fill="black"/>
</svg>
