<svg width="32" height="32" viewBox="0 0 32 32" fill="none" xmlns="http://www.w3.org/2000/svg">
<path fill-rule="evenodd" clip-rule="evenodd" d="M27.2129 5.90604L16.0087 2L4.76351 5.714L4.74102 5.72265C3.09403 6.35611 2 7.80176 2 9.556V22.556C2 24.2954 3.08524 25.7758 4.79125 26.3072L15.9957 30.1106L27.2136 26.4055L27.2162 26.4047C28.7946 25.8786 30 24.3172 30 22.656V9.656C30 7.91802 28.9165 6.4386 27.2129 5.90604ZM4.19559 8.6886C4.06612 8.95645 4 9.25025 4 9.556V22.556C4 23.4116 4.50854 24.1277 5.39409 24.4002L5.40782 24.4044L15 27.6605V12.4658L4.19559 8.6886ZM17 12.4658V27.6726L26.5838 24.5073L26.5851 24.5069C27.4061 24.2325 28 23.3944 28 22.656V9.656C28 9.30926 27.9165 8.98543 27.7582 8.70476L17 12.4658ZM15.9913 4.112L25.4263 7.40127L16 10.6967L6.31059 7.3093L15.9913 4.112Z" fill="black"/>
</svg>
