<svg width="32" height="32" viewBox="0 0 32 32" fill="none" xmlns="http://www.w3.org/2000/svg">
<path d="M12 18C12 17.4477 12.4477 17 13 17H15V15.362L10.2318 9.64018C9.87822 9.2159 9.93554 8.58534 10.3598 8.23177C10.7841 7.87821 11.4147 7.93553 11.7682 8.35981L16 13.4379L20.2318 8.35981C20.5853 7.93553 21.2159 7.87821 21.6402 8.23177C22.0645 8.58534 22.1218 9.2159 21.7682 9.64018L17 15.362V17H19C19.5523 17 20 17.4477 20 18C20 18.5523 19.5523 19 19 19H17V20H19C19.5523 20 20 20.4477 20 21C20 21.5523 19.5523 22 19 22H17V23C17 23.5523 16.5523 24 16 24C15.4477 24 15 23.5523 15 23V22H13C12.4477 22 12 21.5523 12 21C12 20.4477 12.4477 20 13 20H15V19H13C12.4477 19 12 18.5523 12 18Z" fill="black"/>
<path fill-rule="evenodd" clip-rule="evenodd" d="M2 16C2 8.26801 8.26801 2 16 2C23.732 2 30 8.26801 30 16C30 23.732 23.732 30 16 30C8.26801 30 2 23.732 2 16ZM16 4C9.37258 4 4 9.37258 4 16C4 22.6274 9.37258 28 16 28C22.6274 28 28 22.6274 28 16C28 9.37258 22.6274 4 16 4Z" fill="black"/>
</svg>
