<svg width="32" height="32" viewBox="0 0 32 32" fill="none" xmlns="http://www.w3.org/2000/svg">
<path fill-rule="evenodd" clip-rule="evenodd" d="M16 8H15V7C15 6.44772 14.5523 6 14 6C13.4477 6 13 6.44772 13 7V8H11V24H13V25C13 25.5523 13.4477 26 14 26C14.5523 26 15 25.5523 15 25V24H16V25C16 25.5523 16.4477 26 17 26C17.5523 26 18 25.5523 18 25V24H18.5C20.9523 24 23 21.9523 23 19.5C23 18.0993 22.3319 16.8305 21.3019 16C22.3319 15.1695 23 13.9007 23 12.5C23 10.0477 20.9523 8 18.5 8H18V7C18 6.44772 17.5523 6 17 6C16.4477 6 16 6.44772 16 7V8ZM18.5 22C19.8477 22 21 20.8477 21 19.5C21 18.1523 19.8477 17 18.5 17H13V22H18.5ZM13 10V15H18.5C19.8477 15 21 13.8477 21 12.5C21 11.1523 19.8477 10 18.5 10H13Z" fill="black"/>
<path fill-rule="evenodd" clip-rule="evenodd" d="M16 2C8.26801 2 2 8.26801 2 16C2 23.732 8.26801 30 16 30C23.732 30 30 23.732 30 16C30 8.26801 23.732 2 16 2ZM4 16C4 9.37258 9.37258 4 16 4C22.6274 4 28 9.37258 28 16C28 22.6274 22.6274 28 16 28C9.37258 28 4 22.6274 4 16Z" fill="black"/>
</svg>
