<svg width="32" height="32" viewBox="0 0 32 32" fill="none" xmlns="http://www.w3.org/2000/svg">
<path d="M16.2747 8.03849C16.8057 8.19021 17.1132 8.7437 16.9615 9.27473L15.3257 15H17C17.5523 15 18 15.4477 18 16C18 16.5523 17.5523 17 17 17H14.7543L13.3257 22H20C20.5523 22 21 22.4477 21 23C21 23.5523 20.5523 24 20 24H10.6743L12.6743 17H11C10.4477 17 10 16.5523 10 16C10 15.4477 10.4477 15 11 15H13.2457L15.0385 8.72529C15.1902 8.19426 15.7437 7.88677 16.2747 8.03849Z" fill="black"/>
<path fill-rule="evenodd" clip-rule="evenodd" d="M2 16C2 8.26801 8.26801 2 16 2C23.732 2 30 8.26801 30 16C30 23.732 23.732 30 16 30C8.26801 30 2 23.732 2 16ZM16 4C9.37258 4 4 9.37258 4 16C4 22.6274 9.37258 28 16 28C22.6274 28 28 22.6274 28 16C28 9.37258 22.6274 4 16 4Z" fill="black"/>
</svg>
