<svg width="32" height="32" viewBox="0 0 32 32" fill="none" xmlns="http://www.w3.org/2000/svg">
<path d="M17 7V8.0777C17.9087 8.22098 18.7454 8.55863 19.4206 9.05919C20.3421 9.74238 21 10.7675 21 12C21 12.5523 20.5523 13 20 13C19.4477 13 19 12.5523 19 12C19 11.5325 18.7579 11.0576 18.2294 10.6658C17.6964 10.2707 16.9114 10 16 10C15.0886 10 14.3036 10.2707 13.7706 10.6658C13.2421 11.0576 13 11.5325 13 12C13 12.6049 13.28 13.0983 13.8902 13.6068C14.5333 14.1427 15.4189 14.5914 16.4472 15.1056L16.505 15.1344C17.4628 15.6133 18.5503 16.1569 19.3902 16.8568C20.28 17.5983 21 18.6049 21 20C21 21.2325 20.3421 22.2576 19.4206 22.9408C18.7454 23.4414 17.9087 23.779 17 23.9223V25C17 25.5523 16.5523 26 16 26C15.4477 26 15 25.5523 15 25V23.9223C14.0913 23.779 13.2546 23.4414 12.5794 22.9408C11.6579 22.2576 11 21.2325 11 20C11 19.4477 11.4477 19 12 19C12.5523 19 13 19.4477 13 20C13 20.4675 13.2421 20.9424 13.7706 21.3342C14.3036 21.7293 15.0886 22 16 22C16.9114 22 17.6964 21.7293 18.2294 21.3342C18.7579 20.9424 19 20.4675 19 20C19 19.3951 18.72 18.9017 18.1098 18.3932C17.4667 17.8573 16.5811 17.4086 15.5528 16.8944L15.495 16.8656C14.5372 16.3867 13.4497 15.8431 12.6098 15.1432C11.72 14.4017 11 13.3951 11 12C11 10.7675 11.6579 9.74238 12.5794 9.05919C13.2546 8.55863 14.0913 8.22098 15 8.0777V7C15 6.44772 15.4477 6 16 6C16.5523 6 17 6.44772 17 7Z" fill="black"/>
<path fill-rule="evenodd" clip-rule="evenodd" d="M16 2C8.26801 2 2 8.26801 2 16C2 23.732 8.26801 30 16 30C23.732 30 30 23.732 30 16C30 8.26801 23.732 2 16 2ZM4 16C4 9.37258 9.37258 4 16 4C22.6274 4 28 9.37258 28 16C28 22.6274 22.6274 28 16 28C9.37258 28 4 22.6274 4 16Z" fill="black"/>
</svg>
