<svg width="32" height="32" viewBox="0 0 32 32" fill="none" xmlns="http://www.w3.org/2000/svg">
<path d="M9 16C9 15.4477 9.44772 15 10 15H11.5417C11.4426 14.5909 11.3414 14.221 11.2538 13.9262C10.9824 13.2222 10.9945 12.6286 11.1194 12.0039L11.1215 11.9935L11.1238 11.9831C11.6178 9.76011 13.5968 8 16 8C18.7523 8 21 10.2477 21 13C21 13.5523 20.5523 14 20 14C19.4477 14 19 13.5523 19 13C19 11.3523 17.6477 10 16 10C14.6067 10 13.3882 11.0348 13.0785 12.4067C13.0084 12.7619 13.0191 12.9552 13.1285 13.2286L13.145 13.27L13.1578 13.3127C13.2821 13.7268 13.4452 14.3248 13.5948 15H16C16.5523 15 17 15.4477 17 16C17 16.5523 16.5523 17 16 17H13.9348C13.9758 17.3775 14 17.7492 14 18.1C14 18.8952 13.6846 19.6951 13.3174 20.3751C12.9892 20.983 12.5751 21.5752 12.1613 22.1H20C20.5523 22.1 21 22.5477 21 23.1C21 23.6523 20.5523 24.1 20 24.1H11.9C11.1499 24.1 10.4874 23.7109 10.1681 23.0722C9.84571 22.4275 9.93855 21.6547 10.4284 21.0639C10.8535 20.544 11.261 19.9741 11.5576 19.4249C11.8653 18.8549 12 18.4048 12 18.1C12 17.7599 11.9705 17.3855 11.9215 17H10C9.44772 17 9 16.5523 9 16Z" fill="black"/>
<path fill-rule="evenodd" clip-rule="evenodd" d="M2 16C2 8.26801 8.26801 2 16 2C23.732 2 30 8.26801 30 16C30 23.732 23.732 30 16 30C8.26801 30 2 23.732 2 16ZM16 4C9.37258 4 4 9.37258 4 16C4 22.6274 9.37258 28 16 28C22.6274 28 28 22.6274 28 16C28 9.37258 22.6274 4 16 4Z" fill="black"/>
</svg>
