<svg width="32" height="32" viewBox="0 0 32 32" fill="none" xmlns="http://www.w3.org/2000/svg">
<path d="M17.4806 17L21.7809 22.3753C22.1259 22.8066 22.056 23.4359 21.6247 23.7809C21.1934 24.1259 20.5641 24.056 20.2191 23.6247L16.5194 19H15.4806L11.7809 23.6247C11.4359 24.056 10.8066 24.1259 10.3753 23.7809C9.94404 23.4359 9.87412 22.8066 10.2191 22.3753L14.5194 17H17.4806Z" fill="black"/>
<path d="M11.7809 8.37531C11.4359 7.94405 10.8066 7.87413 10.3753 8.21914C9.94404 8.56415 9.87412 9.19344 10.2191 9.6247L14.5194 15H17.4806L21.7809 9.6247C22.1259 9.19344 22.056 8.56415 21.6247 8.21914C21.1934 7.87413 20.5641 7.94405 20.2191 8.37531L16.5194 13H15.4806L11.7809 8.37531Z" fill="black"/>
<path fill-rule="evenodd" clip-rule="evenodd" d="M2 16C2 8.26801 8.26801 2 16 2C23.732 2 30 8.26801 30 16C30 23.732 23.732 30 16 30C8.26801 30 2 23.732 2 16ZM16 4C9.37258 4 4 9.37258 4 16C4 22.6274 9.37258 28 16 28C22.6274 28 28 22.6274 28 16C28 9.37258 22.6274 4 16 4Z" fill="black"/>
</svg>
