<svg width="32" height="32" viewBox="0 0 32 32" fill="none" xmlns="http://www.w3.org/2000/svg">
<path d="M12.1203 11.6936C14.3197 9.40966 17.9759 9.3901 20.2929 11.7071C20.6834 12.0976 21.3166 12.0976 21.7071 11.7071C22.0976 11.3166 22.0976 10.6834 21.7071 10.2929C18.6241 7.20991 13.6803 7.19035 10.6797 10.3064C9.89723 11.1189 9.31226 12.0753 8.93263 13.1H8C7.44772 13.1 7 13.5477 7 14.1C7 14.6523 7.44772 15.1 8 15.1H8.46152C8.39279 15.7312 8.39578 16.3696 8.47205 17H7C6.44772 17 6 17.4477 6 18C6 18.5523 6.44772 19 7 19H8.9792C9.35717 19.9511 9.92628 20.8405 10.6929 21.6071C13.7759 24.6901 18.7197 24.7097 21.7203 21.5936C22.1034 21.1958 22.0915 20.5628 21.6936 20.1797C21.2958 19.7966 20.6628 19.8085 20.2797 20.2064C18.0803 22.4904 14.4241 22.5099 12.1071 20.1929C11.7449 19.8307 11.4414 19.4289 11.1961 19H15C15.5523 19 16 18.5523 16 18C16 17.4477 15.5523 17 15 17H10.4931C10.3912 16.3733 10.386 15.7309 10.4759 15.1H17C17.5523 15.1 18 14.6523 18 14.1C18 13.5477 17.5523 13.1 17 13.1H11.1134C11.3762 12.5926 11.7122 12.1175 12.1203 11.6936Z" fill="black"/>
<path fill-rule="evenodd" clip-rule="evenodd" d="M16 2C8.26801 2 2 8.26801 2 16C2 23.732 8.26801 30 16 30C23.732 30 30 23.732 30 16C30 8.26801 23.732 2 16 2ZM4 16C4 9.37258 9.37258 4 16 4C22.6274 4 28 9.37258 28 16C28 22.6274 22.6274 28 16 28C9.37258 28 4 22.6274 4 16Z" fill="black"/>
</svg>
