<?xml version="1.0" encoding="UTF-8"?>
<svg width="24px" height="24px" viewBox="0 0 24 24" version="1.1" xmlns="http://www.w3.org/2000/svg" xmlns:xlink="http://www.w3.org/1999/xlink">
    <!-- Generator: Sketch 48.2 (47327) - http://www.bohemiancoding.com/sketch -->
    <title>cycle-nonstop</title>
    <desc>Created with Sketch.</desc>
    <defs></defs>
    <g id="Page-1" stroke="none" stroke-width="1" fill="none" fill-rule="evenodd" stroke-linecap="round" stroke-linejoin="round">
        <g id="cycle-nonstop" stroke="#000000" stroke-width="2">
            <polyline id="Stroke-1" points="21.9967 5.9982 21.9967 9.9982 17.9967 9.9982"></polyline>
            <path d="M19.4869,14.9982 C18.1509,18.7782 14.4769,21.2192 10.4749,20.9852 C6.4729,20.7502 3.1089,17.8982 2.2229,13.9882 C1.3379,10.0792 3.1439,6.0542 6.6549,4.1192 C10.1659,2.1832 14.5329,2.8032 17.3669,5.6382 L21.9969,9.9982" id="Stroke-3"></path>
            <path d="M5.9967,9.9982 C5.9967,8.8942 6.8927,7.9982 7.9967,7.9982 C9.1007,7.9982 9.9967,8.8942 9.9967,9.9982 C9.9967,10.7342 8.66336667,12.4008667 5.9967,14.9982 L9.9967,14.9982" id="Stroke-5"></path>
            <polyline id="Stroke-7" points="14.9967 7.9982 11.9967 11.9982 14.9967 11.9982 14.9967 14.9982"></polyline>
            <path d="M14.9967,11.9982 L15.9967,11.9982" id="Stroke-9"></path>
        </g>
    </g>
</svg>