<svg width="32" height="32" viewBox="0 0 32 32" fill="none" xmlns="http://www.w3.org/2000/svg">
<path d="M8 3C5.74772 3 4 4.74772 4 7V23C4 25.2523 5.74772 27 8 27H10C10.5523 27 11 26.5523 11 26C11 25.4477 10.5523 25 10 25H8C6.85228 25 6 24.1477 6 23V7C6 5.85228 6.85228 5 8 5H24C25.1477 5 26 5.85228 26 7V23C26 24.1477 25.1477 25 24 25H18.4142L19.7071 23.7071C20.0976 23.3166 20.0976 22.6834 19.7071 22.2929C19.3166 21.9024 18.6834 21.9024 18.2929 22.2929L14.5858 26L18.2929 29.7071C18.6834 30.0976 19.3166 30.0976 19.7071 29.7071C20.0976 29.3166 20.0976 28.6834 19.7071 28.2929L18.4142 27H24C26.2523 27 28 25.2523 28 23V7C28 4.74772 26.2523 3 24 3H8Z" fill="black"/>
</svg>
