<svg width="32" height="32" viewBox="0 0 32 32" fill="none" xmlns="http://www.w3.org/2000/svg">
<path d="M7.50711 7.53211C12.2166 2.82263 19.7834 2.82263 24.4929 7.53211L25.5858 8.62499H22.4C21.8477 8.62499 21.4 9.07271 21.4 9.62499C21.4 10.1773 21.8477 10.625 22.4 10.625H27.9965C27.9989 10.625 28.0012 10.625 28.0035 10.625H29V9.6299C29 9.62663 29 9.62337 29 9.6201V4.02499C29 3.47271 28.5523 3.02499 28 3.02499C27.4477 3.02499 27 3.47271 27 4.02499V7.21077L25.9071 6.11789C20.4166 0.627369 11.5834 0.627369 6.0929 6.11789C0.602375 11.6084 0.602375 20.4416 6.0929 25.9321C11.5834 31.4226 20.4166 31.4226 25.9071 25.9321C28.8121 23.0271 30.2139 19.1481 29.9985 15.2695C29.9678 14.7181 29.496 14.2959 28.9445 14.3265C28.3931 14.3572 27.9709 14.829 28.0015 15.3805C28.1861 18.7019 26.9879 22.0229 24.4929 24.5179C19.7834 29.2274 12.2166 29.2274 7.50711 24.5179C2.79764 19.8084 2.79764 12.2416 7.50711 7.53211Z" fill="black"/>
</svg>
