<svg width="32" height="32" viewBox="0 0 32 32" fill="none" xmlns="http://www.w3.org/2000/svg">
<path d="M25.9071 6.11789C20.4166 0.627369 11.5834 0.627369 6.0929 6.11789L5 7.21079V4.02499C5 3.47271 4.55228 3.02499 4 3.02499C3.44772 3.02499 3 3.47271 3 4.02499V10.625H3.99654C3.99885 10.625 4.00116 10.625 4.00347 10.625H9.6C10.1523 10.625 10.6 10.1773 10.6 9.62499C10.6 9.07271 10.1523 8.62499 9.6 8.62499H6.41423L7.50711 7.53211C12.2166 2.82263 19.7834 2.82263 24.4929 7.53211C29.2024 12.2416 29.2024 19.8084 24.4929 24.5179C19.7834 29.2274 12.2166 29.2274 7.50711 24.5179C5.01214 22.0229 3.81394 18.7019 3.99847 15.3805C4.0291 14.829 3.60691 14.3572 3.05548 14.3265C2.50404 14.2959 2.03218 14.7181 2.00155 15.2695C1.78607 19.1481 3.18787 23.0271 6.0929 25.9321C11.5834 31.4226 20.4166 31.4226 25.9071 25.9321C31.3976 20.4416 31.3976 11.6084 25.9071 6.11789Z" fill="black"/>
</svg>
