<svg width="32" height="32" viewBox="0 0 32 32" fill="none" xmlns="http://www.w3.org/2000/svg">
<path fill-rule="evenodd" clip-rule="evenodd" d="M4 9.733C4.70178 10.141 5.55892 10.4905 6.51353 10.7842C8.98521 11.5447 12.339 12 16 12C19.661 12 23.0148 11.5447 25.4865 10.7842C26.4411 10.4905 27.2982 10.141 28 9.733L28 13C28 13.0643 27.9636 13.2891 27.5453 13.5679C27.0858 13.8743 26.9616 14.4952 27.2679 14.9547C27.4571 15.2385 27.7662 15.3943 28.0832 15.3999C28.2375 15.7532 28.5899 16 29 16C29.5523 16 30 15.5523 30 15V7C30 5.97447 29.3273 5.18767 28.5667 4.63436C27.7842 4.06512 26.7162 3.59417 25.4865 3.21579C23.0148 2.45527 19.661 2 16 2C12.339 2 8.98521 2.45527 6.51353 3.21579C5.2838 3.59417 4.21582 4.06512 3.43333 4.63436C2.67273 5.18767 2 5.97447 2 7V25C2 25.9795 2.61786 26.7387 3.32721 27.2786C4.0523 27.8304 5.04024 28.2885 6.17457 28.6623C8.45472 29.4135 11.556 29.8976 14.9702 29.9996C15.5222 30.016 15.9831 29.5819 15.9996 29.0298C16.016 28.4778 15.5819 28.0169 15.0298 28.0004C11.744 27.9024 8.84528 27.4365 6.80043 26.7627C5.77226 26.424 5.01645 26.0508 4.53842 25.687C4.04464 25.3113 4 25.0705 4 25V21.7382C4.44917 22.0004 4.95678 22.2356 5.50352 22.4458C7.41268 23.1801 10.0178 23.6932 12.93 23.8975C13.4809 23.9362 13.9589 23.5209 13.9975 22.97C14.0362 22.4191 13.6209 21.9411 13.07 21.9025C10.2822 21.7068 7.88732 21.2199 6.22148 20.5792C5.38423 20.2571 4.78506 19.9166 4.41312 19.5966C4.03616 19.2723 4 19.0685 4 19V15.7229C4.62056 16.0818 5.3598 16.3938 6.17457 16.6623C8.45472 17.4135 11.556 17.8976 14.9702 17.9996C15.5222 18.016 15.9831 17.5819 15.9996 17.0298C16.016 16.4778 15.5819 16.0169 15.0298 16.0004C11.744 15.9024 8.84528 15.4365 6.80043 14.7627C5.77226 14.424 5.01645 14.0508 4.53842 13.687C4.04464 13.3113 4 13.0705 4 13V9.733ZM4 7C4 6.92096 4.0548 6.65548 4.60988 6.25168C5.14306 5.86381 5.97889 5.47283 7.1017 5.12735C9.33509 4.44016 12.4813 4 16 4C19.5187 4 22.6649 4.44016 24.8983 5.12735C26.0211 5.47283 26.8569 5.86381 27.3901 6.25168C27.9452 6.65548 28 6.92096 28 7C28 7.07904 27.9452 7.34452 27.3901 7.74832C26.8569 8.13619 26.0211 8.52717 24.8983 8.87265C22.6649 9.55984 19.5187 10 16 10C12.4813 10 9.33509 9.55984 7.1017 8.87265C5.97889 8.52717 5.14306 8.13619 4.60988 7.74832C4.0548 7.34452 4 7.07904 4 7Z" fill="black"/>
<path d="M23 18C23.5523 18 24 18.4477 24 19V22.5858L25.7071 24.2929C26.0976 24.6834 26.0976 25.3166 25.7071 25.7071C25.3166 26.0976 24.6834 26.0976 24.2929 25.7071L22 23.4142V19C22 18.4477 22.4477 18 23 18Z" fill="black"/>
<path fill-rule="evenodd" clip-rule="evenodd" d="M15 23C15 18.5817 18.5817 15 23 15C27.4183 15 31 18.5817 31 23C31 27.4183 27.4183 31 23 31C18.5817 31 15 27.4183 15 23ZM23 17C19.6863 17 17 19.6863 17 23C17 26.3137 19.6863 29 23 29C26.3137 29 29 26.3137 29 23C29 19.6863 26.3137 17 23 17Z" fill="black"/>
</svg>
