<svg width="32" height="32" viewBox="0 0 32 32" fill="none" xmlns="http://www.w3.org/2000/svg">
<path fill-rule="evenodd" clip-rule="evenodd" d="M2 25C2 26.0231 2.67127 26.8086 3.42989 27.3614C4.21064 27.9302 5.27661 28.4015 6.5052 28.7806C8.97457 29.5424 12.3286 30 16 30C19.6714 30 23.0254 29.5424 25.4948 28.7806C26.7234 28.4015 27.7894 27.9302 28.5701 27.3614C29.3287 26.8086 30 26.0231 30 25V7C30 5.97447 29.3273 5.18767 28.5667 4.63436C27.7842 4.06512 26.7162 3.59417 25.4865 3.21579C23.0148 2.45527 19.661 2 16 2C12.339 2 8.98521 2.45527 6.51353 3.21579C5.2838 3.59417 4.21582 4.06512 3.43333 4.63436C2.67273 5.18767 2 5.97447 2 7V25ZM4 7C4 6.92096 4.0548 6.65548 4.60988 6.25168C5.14306 5.86381 5.97889 5.47283 7.1017 5.12735C9.33509 4.44016 12.4813 4 16 4C19.5187 4 22.6649 4.44016 24.8983 5.12735C26.0211 5.47283 26.8569 5.86381 27.3901 6.25168C27.9452 6.65548 28 6.92096 28 7C28 7.07904 27.9452 7.34452 27.3901 7.74832C26.8569 8.13619 26.0211 8.52717 24.8983 8.87265C22.6649 9.55984 19.5187 10 16 10C12.4813 10 9.33509 9.55984 7.1017 8.87265C5.97889 8.52717 5.14306 8.13619 4.60988 7.74832C4.0548 7.34452 4 7.07904 4 7ZM6.51353 10.7842C5.55892 10.4905 4.70178 10.141 4 9.733V13C4 13.0769 4.05373 13.3414 4.60761 13.7449C5.13936 14.1323 5.97339 14.5235 7.0948 14.8694C9.32543 15.5576 12.4714 16 16 16C19.5286 16 22.6746 15.5576 24.9052 14.8694C26.0266 14.5235 26.8606 14.1323 27.3924 13.7449C27.9463 13.3414 28 13.0769 28 13V9.733C27.2982 10.141 26.4411 10.4905 25.4865 10.7842C23.0148 11.5447 19.661 12 16 12C12.339 12 8.98521 11.5447 6.51353 10.7842ZM28 15.7313C27.3005 16.138 26.4464 16.487 25.4948 16.7806C23.0254 17.5424 19.6714 18 16 18C12.3286 18 8.97457 17.5424 6.5052 16.7806C5.55358 16.487 4.69952 16.138 4 15.7313V19C4 19.0769 4.05373 19.3414 4.60761 19.7449C5.13936 20.1323 5.97339 20.5235 7.0948 20.8694C9.32543 21.5576 12.4714 22 16 22C19.5286 22 22.6746 21.5576 24.9052 20.8694C26.0266 20.5235 26.8606 20.1323 27.3924 19.7449C27.9463 19.3414 28 19.0769 28 19V15.7313ZM6.5052 22.7806C5.55358 22.487 4.69952 22.138 4 21.7313V25C4 25.0769 4.05373 25.3414 4.60761 25.7449C5.13936 26.1323 5.97339 26.5235 7.0948 26.8694C9.32543 27.5576 12.4714 28 16 28C19.5286 28 22.6746 27.5576 24.9052 26.8694C26.0266 26.5235 26.8606 26.1323 27.3924 25.7449C27.9463 25.3414 28 25.0769 28 25V21.7313C27.3005 22.138 26.4464 22.487 25.4948 22.7806C23.0254 23.5424 19.6714 24 16 24C12.3286 24 8.97457 23.5424 6.5052 22.7806Z" fill="black"/>
</svg>
