<?xml version="1.0" encoding="UTF-8"?>
<svg width="24px" height="24px" viewBox="0 0 24 24" version="1.1" xmlns="http://www.w3.org/2000/svg" xmlns:xlink="http://www.w3.org/1999/xlink">
    <!-- Generator: Sketch 48.2 (47327) - http://www.bohemiancoding.com/sketch -->
    <title>db</title>
    <desc>Created with Sketch.</desc>
    <defs></defs>
    <g id="Page-1" stroke="none" stroke-width="1" fill="none" fill-rule="evenodd" stroke-linecap="round" stroke-linejoin="round">
        <g id="db" stroke="#000000" stroke-width="2">
            <path d="M21,5 C21,6.104 16.9698,7 12,7 C7.0302,7 3,6.104 3,5 C3,3.896 7.0302,3 12,3 C16.9698,3 21,3.896 21,5 Z" id="Stroke-1"></path>
            <path d="M3,5 L3,10 C3,11.104 7.0302,12 12,12 C16.9698,12 21,11.104 21,10 L21,5" id="Stroke-3"></path>
            <path d="M3,10 L3,15 C3,16.104 7.0302,17 12,17 C16.9698,17 21,16.104 21,15 L21,10" id="Stroke-5"></path>
            <path d="M3,15 L3,20 C3,21.104 7.0302,22 12,22 C16.9698,22 21,21.104 21,20 L21,15" id="Stroke-7"></path>
        </g>
    </g>
</svg>