<svg width="32" height="32" viewBox="0 0 32 32" fill="none" xmlns="http://www.w3.org/2000/svg">
<path d="M9.79289 9.79289C10.1834 9.40237 10.8166 9.40237 11.2071 9.79289L16 14.5858L20.7929 9.79289C21.1834 9.40237 21.8166 9.40237 22.2071 9.79289C22.5976 10.1834 22.5976 10.8166 22.2071 11.2071L17.4142 16L22.2071 20.7929C22.5976 21.1834 22.5976 21.8166 22.2071 22.2071C21.8166 22.5976 21.1834 22.5976 20.7929 22.2071L16 17.4142L11.2071 22.2071C10.8166 22.5976 10.1834 22.5976 9.79289 22.2071C9.40237 21.8166 9.40237 21.1834 9.79289 20.7929L14.5858 16L9.79289 11.2071C9.40237 10.8166 9.40237 10.1834 9.79289 9.79289Z" fill="black"/>
<path fill-rule="evenodd" clip-rule="evenodd" d="M2 16C2 8.26801 8.26801 2 16 2C23.732 2 30 8.26801 30 16C30 23.732 23.732 30 16 30C8.26801 30 2 23.732 2 16ZM16 4C9.37258 4 4 9.37258 4 16C4 22.6274 9.37258 28 16 28C22.6274 28 28 22.6274 28 16C28 9.37258 22.6274 4 16 4Z" fill="black"/>
</svg>
