<svg width="32" height="32" viewBox="0 0 32 32" fill="none" xmlns="http://www.w3.org/2000/svg">
<path d="M8.29289 8.29289C8.68342 7.90237 9.31658 7.90237 9.70711 8.29289L16 14.5858L22.2929 8.29289C22.6834 7.90237 23.3166 7.90237 23.7071 8.29289C24.0976 8.68342 24.0976 9.31658 23.7071 9.70711L17.4142 16L23.7071 22.2929C24.0976 22.6834 24.0976 23.3166 23.7071 23.7071C23.3166 24.0976 22.6834 24.0976 22.2929 23.7071L16 17.4142L9.70711 23.7071C9.31658 24.0976 8.68342 24.0976 8.29289 23.7071C7.90237 23.3166 7.90237 22.6834 8.29289 22.2929L14.5858 16L8.29289 9.70711C7.90237 9.31658 7.90237 8.68342 8.29289 8.29289Z" fill="black"/>
<path fill-rule="evenodd" clip-rule="evenodd" d="M2 6C2 3.74772 3.74772 2 6 2H26C28.2523 2 30 3.74772 30 6V26C30 28.2523 28.2523 30 26 30H6C3.74772 30 2 28.2523 2 26V6ZM6 4C4.85228 4 4 4.85228 4 6V26C4 27.1477 4.85228 28 6 28H26C27.1477 28 28 27.1477 28 26V6C28 4.85228 27.1477 4 26 4H6Z" fill="black"/>
</svg>
