<svg width="32" height="32" viewBox="0 0 32 32" fill="none" xmlns="http://www.w3.org/2000/svg">
<path fill-rule="evenodd" clip-rule="evenodd" d="M16 5C9.92487 5 5 9.92487 5 16C5 22.0751 9.92487 27 16 27C22.0751 27 27 22.0751 27 16C27 9.92487 22.0751 5 16 5ZM10.3823 8.9681C11.922 7.73647 13.875 7 16 7C20.9706 7 25 11.0294 25 16C25 18.125 24.2635 20.078 23.0319 21.6177L10.3823 8.9681ZM8.9681 10.3823C7.73647 11.922 7 13.875 7 16C7 20.9706 11.0294 25 16 25C18.125 25 20.078 24.2635 21.6177 23.0319L8.9681 10.3823Z" fill="black"/>
</svg>
