<svg width="32" height="32" viewBox="0 0 32 32" fill="none" xmlns="http://www.w3.org/2000/svg">
<path d="M17.5 24C17.5 24.8284 16.8284 25.5 16 25.5C15.1716 25.5 14.5 24.8284 14.5 24C14.5 23.1716 15.1716 22.5 16 22.5C16.8284 22.5 17.5 23.1716 17.5 24Z" fill="black"/>
<path fill-rule="evenodd" clip-rule="evenodd" d="M11 2C8.74772 2 7 3.74772 7 6V26C7 28.2523 8.74772 30 11 30H21C23.2523 30 25 28.2523 25 26V6C25 3.74772 23.2523 2 21 2H11ZM9 6C9 4.85228 9.85228 4 11 4H21C22.1477 4 23 4.85228 23 6V26C23 27.1477 22.1477 28 21 28H11C9.85228 28 9 27.1477 9 26V6Z" fill="black"/>
</svg>
