<svg width="32" height="32" viewBox="0 0 32 32" fill="none" xmlns="http://www.w3.org/2000/svg">
<path d="M9.5 16C9.5 16.8284 8.82843 17.5 8 17.5C7.17157 17.5 6.5 16.8284 6.5 16C6.5 15.1716 7.17157 14.5 8 14.5C8.82843 14.5 9.5 15.1716 9.5 16Z" fill="black"/>
<path fill-rule="evenodd" clip-rule="evenodd" d="M6 7C3.74772 7 2 8.74772 2 11V21C2 23.2523 3.74772 25 6 25H26C28.2523 25 30 23.2523 30 21V11C30 8.74772 28.2523 7 26 7H6ZM4 11C4 9.85228 4.85228 9 6 9H26C27.1477 9 28 9.85228 28 11V21C28 22.1477 27.1477 23 26 23H6C4.85228 23 4 22.1477 4 21V11Z" fill="black"/>
</svg>
