<svg width="32" height="32" viewBox="0 0 32 32" fill="none" xmlns="http://www.w3.org/2000/svg">
<path fill-rule="evenodd" clip-rule="evenodd" d="M6.5909 2.08775C6.63555 2.06772 6.68176 2.05093 6.72919 2.03758C6.82643 2.01011 6.92495 1.99809 7.02187 2.00024H24.9781C25.0743 1.99811 25.1721 2.00992 25.2686 2.03695C25.3187 2.05093 25.3675 2.06875 25.4145 2.09017C25.6135 2.18057 25.77 2.32969 25.871 2.50893C25.8791 2.52338 25.887 2.53808 25.8944 2.55303L29.884 10.5322C29.9294 10.6181 29.9617 10.7096 29.9805 10.8035C29.9913 10.8574 29.9976 10.9119 29.9994 10.9665C30.0068 11.1826 29.9446 11.4019 29.8089 11.5882C29.7967 11.605 29.784 11.6213 29.7709 11.6372L16.7843 27.6208C16.598 27.8562 16.3112 28.0003 16 28.0003C15.6886 28.0003 15.4016 27.856 15.2153 27.6202L2.22913 11.6372C2.216 11.6214 2.20333 11.605 2.19114 11.5882C2.04897 11.393 1.9874 11.1615 2.0021 10.9355C2.00426 10.9021 2.00811 10.8687 2.01365 10.8356C2.03116 10.7304 2.06542 10.6278 2.11599 10.5322L6.10558 2.55303L6.11366 2.53722C6.21464 2.34378 6.3789 2.18255 6.5909 2.08775ZM19.0879 21.614L26.899 12.0002H22.693L19.0879 21.614ZM20.557 12.0002H11.443L16 24.1523L20.557 12.0002ZM9.30699 12.0002L12.9121 21.6139L5.101 12.0002H9.30699ZM6.86887 5.49859L4.61804 10.0002H8.55699L6.86887 5.49859ZM12 10.0002H20L16 4.66694L12 10.0002ZM23.443 10.0002H27.382L25.1311 5.49857L23.443 10.0002ZM23.557 4.00024H18L21.7047 8.93983L23.557 4.00024ZM14 4.00024H8.44299L10.2953 8.93983L14 4.00024Z" fill="black"/>
</svg>
