<svg width="32" height="32" viewBox="0 0 32 32" fill="none" xmlns="http://www.w3.org/2000/svg">
<path fill-rule="evenodd" clip-rule="evenodd" d="M16 30.36V24.69C17.4687 24.6917 18.9156 24.334 20.2143 23.6481C21.513 22.9621 22.624 21.9687 23.4505 20.7546C24.277 19.5405 24.7938 18.1425 24.9559 16.6828C25.1179 15.223 24.9202 13.7458 24.38 12.38C23.9485 11.2285 23.2715 10.1848 22.396 9.32132C21.5204 8.45787 20.4674 7.79541 19.31 7.37999C17.9497 6.84196 16.4788 6.64362 15.0246 6.80213C13.5703 6.96065 12.1767 7.47124 10.9642 8.28971C9.75181 9.10817 8.75715 10.2098 8.0664 11.4993C7.37565 12.7888 7.00962 14.2272 7 15.69H1.33C1.33572 13.3637 1.89269 11.072 2.95524 9.00257C4.0178 6.93316 5.55568 5.14505 7.44281 3.78483C9.32994 2.42462 11.5126 1.53102 13.8118 1.17732C16.111 0.823612 18.4613 1.01987 20.67 1.74999C22.8444 2.43708 24.8217 3.63705 26.4351 5.24868C28.0485 6.8603 29.2506 8.8363 29.94 11.01C30.6721 13.2193 30.8698 15.5707 30.5171 17.8712C30.1643 20.1717 29.271 22.3558 27.9106 24.2442C26.5501 26.1327 24.7613 27.6716 22.6909 28.7347C20.6204 29.7978 18.3274 30.3548 16 30.36ZM10.35 24.69H16V19.03H10.35V24.69ZM6 29.04H10.34V24.69H6V29.04ZM2.36 24.69H6V21.06H2.36V24.69Z" fill="black"/>
</svg>
