<svg width="32" height="32" viewBox="0 0 32 32" fill="none" xmlns="http://www.w3.org/2000/svg">
<path fill-rule="evenodd" clip-rule="evenodd" d="M9 6C9 3.79086 10.7909 2 13 2C15.2091 2 17 3.79086 17 6C17 8.20914 15.2091 10 13 10C10.7909 10 9 8.20914 9 6ZM13 4C11.8954 4 11 4.89543 11 6C11 7.10457 11.8954 8 13 8C14.1046 8 15 7.10457 15 6C15 4.89543 14.1046 4 13 4Z" fill="black"/>
<path d="M14 13C14 12.4477 13.5523 12 13 12C12.4477 12 12 12.4477 12 13V23H19.4197L23.4197 30H26C26.5523 30 27 29.5523 27 29C27 28.4477 26.5523 28 26 28H24.5803L20.5803 21H14V16H19C19.5523 16 20 15.5523 20 15C20 14.4477 19.5523 14 19 14H14V13Z" fill="black"/>
<path d="M10.4167 16.6091C10.9187 16.379 11.1392 15.7854 10.9091 15.2834C10.679 14.7813 10.0854 14.5608 9.58335 14.7909C6.82991 16.0529 5 18.8068 5 22C5 26.4523 8.54772 30 13 30C15.7496 30 18.1502 28.6206 19.6253 26.4647C19.9372 26.0089 19.8205 25.3866 19.3647 25.0747C18.9089 24.7628 18.2866 24.8795 17.9747 25.3353C16.8498 26.9794 15.0504 28 13 28C9.65228 28 7 25.3477 7 22C7 19.5932 8.37009 17.5471 10.4167 16.6091Z" fill="black"/>
</svg>
