<svg width="32" height="32" viewBox="0 0 32 32" fill="none" xmlns="http://www.w3.org/2000/svg">
<path d="M10 13C10.5523 13 11 12.5523 11 12C11 11.4477 10.5523 11 10 11C9.44772 11 9 11.4477 9 12C9 12.5523 9.44772 13 10 13Z" fill="black"/>
<path d="M11 16C11 16.5523 10.5523 17 10 17C9.44772 17 9 16.5523 9 16C9 15.4477 9.44772 15 10 15C10.5523 15 11 15.4477 11 16Z" fill="black"/>
<path d="M10 21C10.5523 21 11 20.5523 11 20C11 19.4477 10.5523 19 10 19C9.44772 19 9 19.4477 9 20C9 20.5523 9.44772 21 10 21Z" fill="black"/>
<path d="M17.2071 20.7071L25.2071 12.7071C25.5976 12.3166 25.5976 11.6834 25.2071 11.2929C24.8166 10.9024 24.1834 10.9024 23.7929 11.2929L15.7929 19.2929C15.4024 19.6834 15.4024 20.3166 15.7929 20.7071C16.1834 21.0976 16.8166 21.0976 17.2071 20.7071Z" fill="black"/>
<path fill-rule="evenodd" clip-rule="evenodd" d="M15 12.5C15 11.1193 16.1193 10 17.5 10C18.8807 10 20 11.1193 20 12.5C20 13.8807 18.8807 15 17.5 15C16.1193 15 15 13.8807 15 12.5ZM17.5 12C17.2239 12 17 12.2239 17 12.5C17 12.7761 17.2239 13 17.5 13C17.7761 13 18 12.7761 18 12.5C18 12.2239 17.7761 12 17.5 12Z" fill="black"/>
<path fill-rule="evenodd" clip-rule="evenodd" d="M23.5 17C22.1193 17 21 18.1193 21 19.5C21 20.8807 22.1193 22 23.5 22C24.8807 22 26 20.8807 26 19.5C26 18.1193 24.8807 17 23.5 17ZM23 19.5C23 19.2239 23.2239 19 23.5 19C23.7761 19 24 19.2239 24 19.5C24 19.7761 23.7761 20 23.5 20C23.2239 20 23 19.7761 23 19.5Z" fill="black"/>
<path fill-rule="evenodd" clip-rule="evenodd" d="M2 11C2 8.74772 3.74772 7 6 7H26C28.2523 7 30 8.74772 30 11V21C30 23.2523 28.2523 25 26 25H6C3.74772 25 2 23.2523 2 21V11ZM6 9C4.85228 9 4 9.85228 4 11V21C4 22.1477 4.85228 23 6 23H26C27.1477 23 28 22.1477 28 21V11C28 9.85228 27.1477 9 26 9H6Z" fill="black"/>
</svg>
