<svg width="32" height="32" viewBox="0 0 32 32" fill="none" xmlns="http://www.w3.org/2000/svg">
<path fill-rule="evenodd" clip-rule="evenodd" d="M11 8C11 5.23858 13.2386 3 16 3C18.7614 3 21 5.23858 21 8C21 10.7614 18.7614 13 16 13C13.2386 13 11 10.7614 11 8ZM16 5C14.3431 5 13 6.34315 13 8C13 9.65685 14.3431 11 16 11C17.6569 11 19 9.65685 19 8C19 6.34315 17.6569 5 16 5Z" fill="black"/>
<path fill-rule="evenodd" clip-rule="evenodd" d="M11 24C11 21.2386 13.2386 19 16 19C18.7614 19 21 21.2386 21 24C21 26.7614 18.7614 29 16 29C13.2386 29 11 26.7614 11 24ZM16 21C14.3431 21 13 22.3431 13 24C13 25.6569 14.3431 27 16 27C17.6569 27 19 25.6569 19 24C19 22.3431 17.6569 21 16 21Z" fill="black"/>
<path d="M9 15C8.44772 15 8 15.4477 8 16C8 16.5523 8.44772 17 9 17H23C23.5523 17 24 16.5523 24 16C24 15.4477 23.5523 15 23 15H9Z" fill="black"/>
</svg>
