<svg width="32" height="32" viewBox="0 0 32 32" fill="none" xmlns="http://www.w3.org/2000/svg">
<path d="M1.33 16.22C1.36952 16.09 1.39303 15.9557 1.4 15.82V15.82C1.4 15.56 1.5 15.44 1.81 15.44H21.48C22.1076 15.4406 22.7293 15.3183 23.31 15.08V15.08L23.66 14.92C23.2917 14.2489 23.099 13.4956 23.1 12.73C23.085 12.5303 23.085 12.3297 23.1 12.13C23.2221 11.1549 23.6212 10.2353 24.25 9.48002V9.48002C24.8183 9.77919 25.3219 10.1876 25.7321 10.6818C26.1422 11.176 26.4507 11.7463 26.64 12.36V12.36C26.75 12.8 26.74 12.75 27.18 12.72C27.4521 12.6876 27.7263 12.6775 28 12.69C28.9739 12.6898 29.9202 13.0135 30.69 13.61V13.61C30.3601 14.5044 29.7719 15.2806 29 15.84C28.2796 16.2765 27.4523 16.505 26.61 16.5H26.41C26.3212 16.4999 26.2347 16.5279 26.1628 16.58C26.091 16.6321 26.0375 16.7056 26.01 16.79V16.79C25.0653 19.0512 23.5707 21.0405 21.6619 22.5773C19.7532 24.1141 17.4907 25.1497 15.08 25.59H14.99C13.7752 25.8335 12.539 25.9541 11.3 25.95H10.72C8.85346 25.9669 7.01647 25.4835 5.4 24.55V24.55C3.65272 23.4308 2.38935 21.6964 1.86 19.69V19.63C1.69636 18.9714 1.5728 18.3036 1.49 17.63V17.53C1.49 17.41 1.44 17.32 1.41 17.22L1.33 16.22ZM14.33 5.40002V7.86002C14.33 8.09002 14.4 8.15002 14.63 8.15002H17C17.24 8.15002 17.32 8.08002 17.32 7.83002V5.40002H14.33ZM9.88 11.52C10.09 11.52 10.18 11.52 10.17 11.24V9.01002C10.17 8.82002 10.17 8.75002 9.92 8.75002H7.44C7.24 8.75002 7.18 8.82002 7.19 9.01002V11.24C7.19 11.47 7.27 11.52 7.47 11.52H9.88ZM17.09 11.52C17.29 11.52 17.36 11.44 17.35 11.25V9.01002C17.35 8.83002 17.35 8.75002 17.1 8.75002H14.63C14.43 8.75002 14.36 8.81002 14.36 9.01002V11.24C14.36 11.46 14.44 11.52 14.65 11.52H17.09ZM11 8.75002C10.82 8.75002 10.76 8.82002 10.76 8.99002V11.26C10.76 11.43 10.82 11.52 11 11.52H13.48C13.66 11.52 13.72 11.43 13.72 11.26V8.99002C13.72 8.79002 13.63 8.75002 13.44 8.75002H12.24C11.84 8.75002 11.44 8.75002 11.02 8.75002H11ZM6.38 14.82C6.54 14.82 6.6 14.76 6.6 14.59V12.36C6.6 12.19 6.54 12.12 6.38 12.12H3.87C3.7 12.12 3.64 12.19 3.64 12.35V14.59C3.64 14.78 3.73 14.82 3.9 14.82H6.38ZM9.91 14.82C10.1 14.82 10.17 14.77 10.17 14.57V12.39C10.17 12.18 10.1 12.12 9.89 12.12H7.47C7.28 12.12 7.2 12.18 7.21 12.38V14.56C7.21 14.77 7.28 14.82 7.49 14.82H9.91V14.82ZM17.12 14.82C17.31 14.82 17.38 14.77 17.37 14.58V12.38C17.37 12.21 17.37 12.12 17.14 12.12H14.63C14.45 12.12 14.38 12.18 14.38 12.37V14.57C14.38 14.78 14.46 14.82 14.66 14.82H17.12ZM20.68 14.82C20.85 14.82 20.94 14.82 20.94 14.59V12.36C20.94 12.19 20.88 12.12 20.72 12.12H18.18C18.02 12.12 17.96 12.19 17.96 12.36V14.59C17.96 14.78 18.05 14.82 18.21 14.82H20.68ZM11.09 12.12C10.9 12.12 10.81 12.18 10.81 12.38V14.58C10.81 14.75 10.88 14.82 11.06 14.82H13.53C13.71 14.82 13.77 14.74 13.77 14.58V12.37C13.77 12.19 13.7 12.12 13.52 12.12H11.09Z" fill="black"/>
</svg>
