<svg width="32" height="32" viewBox="0 0 32 32" fill="none" xmlns="http://www.w3.org/2000/svg">
<path d="M8.29289 15.2929C8.68342 14.9024 9.31658 14.9024 9.70711 15.2929L15 20.5858V9C15 8.44772 15.4477 8 16 8C16.5523 8 17 8.44772 17 9V20.5858L22.2929 15.2929C22.6834 14.9024 23.3166 14.9024 23.7071 15.2929C24.0976 15.6834 24.0976 16.3166 23.7071 16.7071L16.7075 23.7067L16.7067 23.7075L16 24.4142L8.29289 16.7071C7.90237 16.3166 7.90237 15.6834 8.29289 15.2929Z" fill="black"/>
<path fill-rule="evenodd" clip-rule="evenodd" d="M2 6C2 3.74772 3.74772 2 6 2H26C28.2523 2 30 3.74772 30 6V26C30 28.2523 28.2523 30 26 30H6C3.74772 30 2 28.2523 2 26V6ZM6 4C4.85228 4 4 4.85228 4 6V26C4 27.1477 4.85228 28 6 28H26C27.1477 28 28 27.1477 28 26V6C28 4.85228 27.1477 4 26 4H6Z" fill="black"/>
</svg>
