<svg width="32" height="32" viewBox="0 0 32 32" fill="none" xmlns="http://www.w3.org/2000/svg">
<path fill-rule="evenodd" clip-rule="evenodd" d="M13 1.69H3V10.6698C2.99971 10.6838 2.99971 10.6977 3 10.7117V14.69C3 17.1 4.72346 19.1232 7 19.5891V27.69H4C3.44772 27.69 3 28.1377 3 28.69C3 29.2423 3.44772 29.69 4 29.69H12C12.5523 29.69 13 29.2423 13 28.69C13 28.1377 12.5523 27.69 12 27.69H9V19.5891C11.2765 19.1232 13 17.1 13 14.69V1.69ZM5 14.69V11.5448C5.14407 11.5647 5.31839 11.6023 5.52915 11.6646C6.00815 11.8061 6.51481 12.0216 7.09088 12.2666C7.25933 12.3382 7.43402 12.4125 7.61538 12.4881C8.36226 12.7992 9.23058 13.1345 10.0746 13.2305C10.377 13.2648 10.6891 13.2695 11 13.2297V14.69C11 16.3377 9.64772 17.69 8 17.69C6.35228 17.69 5 16.3377 5 14.69ZM10.3004 11.2432C10.6002 11.2773 10.8224 11.2543 11 11.1813V3.69H5V9.53504C5.38895 9.56171 5.76314 9.64828 6.09585 9.74658C6.69679 9.92413 7.34753 10.2014 7.93994 10.4538C8.09259 10.5188 8.24156 10.5823 8.38461 10.6419C9.13774 10.9557 9.76942 11.1829 10.3004 11.2432Z" fill="black"/>
<path fill-rule="evenodd" clip-rule="evenodd" d="M29 5.69H15V11.6698C14.9997 11.6838 14.9997 11.6978 15 11.7118V12.69C15 16.2029 17.6176 19.13 21 19.6184V27.69H18C17.4477 27.69 17 28.1377 17 28.69C17 29.2423 17.4477 29.69 18 29.69H26C26.5523 29.69 27 29.2423 27 28.69C27 28.1377 26.5523 27.69 26 27.69H23V19.6184C26.3824 19.13 29 16.2029 29 12.69V11.7063C29.0002 11.6948 29.0002 11.6833 29 11.6718V5.69ZM27 11.0995V7.69H17V10.1953C18.0267 9.86207 18.945 9.77204 19.795 9.8505C21.0001 9.96174 21.9843 10.4083 22.7941 10.7821L22.8263 10.7969C23.6607 11.1821 24.2781 11.4671 24.9641 11.5393C25.505 11.5962 26.1501 11.522 27 11.0995ZM17 12.329V12.69C17 15.4377 19.2523 17.69 22 17.69C24.5502 17.69 26.6737 15.7498 26.9658 13.2741C26.1835 13.533 25.4553 13.602 24.7547 13.5283C23.731 13.4205 22.8391 13.0072 22.0918 12.6609L21.9559 12.598C21.1407 12.2217 20.4374 11.9183 19.6112 11.842C18.9229 11.7785 18.0862 11.8697 17 12.329Z" fill="black"/>
</svg>
