<svg width="32" height="32" viewBox="0 0 32 32" fill="none" xmlns="http://www.w3.org/2000/svg">
<path d="M16 1L20.7071 5.70711C21.0976 6.09763 21.0976 6.7308 20.7071 7.12132C20.3166 7.51184 19.6834 7.51184 19.2929 7.12132L17 4.82843V15.4142C17 15.9664 16.5523 16.4142 16 16.4142C15.4477 16.4142 15 15.9664 15 15.4142V4.82843L12.7071 7.12132C12.3166 7.51184 11.6834 7.51184 11.2929 7.12132C10.9024 6.7308 10.9024 6.09763 11.2929 5.70711L16 1Z" fill="black"/>
<path d="M6 24.4142C6 23.8619 6.44772 23.4142 7 23.4142H10C10.5523 23.4142 11 23.8619 11 24.4142C11 24.9665 10.5523 25.4142 10 25.4142H7C6.44772 25.4142 6 24.9665 6 24.4142Z" fill="black"/>
<path d="M14 23.4142C13.4477 23.4142 13 23.8619 13 24.4142C13 24.9665 13.4477 25.4142 14 25.4142H15C15.5523 25.4142 16 24.9665 16 24.4142C16 23.8619 15.5523 23.4142 15 23.4142H14Z" fill="black"/>
<path fill-rule="evenodd" clip-rule="evenodd" d="M2 20.4356C1.99828 20.3579 2.00565 20.2793 2.02269 20.2014C2.03953 20.1237 2.06542 20.0493 2.09919 19.9794L6.28963 10.8004C6.94557 9.3581 8.39266 8.41418 9.9 8.41418H12C12.5523 8.41418 13 8.8619 13 9.41418C13 9.96647 12.5523 10.4142 12 10.4142H9.9C9.2076 10.4142 8.45459 10.8707 8.11037 11.628L4.5558 19.4142H27.4442L23.8896 11.628C23.5371 10.8525 22.8734 10.4142 22.1 10.4142H20C19.4477 10.4142 19 9.96647 19 9.41418C19 8.8619 19.4477 8.41418 20 8.41418H22.1C23.7263 8.41418 25.0624 9.37554 25.71 10.7996L29.9008 19.9794C29.9346 20.0494 29.9606 20.124 29.9774 20.2019C29.9944 20.2796 30.0017 20.358 30 20.4356V25.4142C30 27.6665 28.2523 29.4142 26 29.4142H6C3.74772 29.4142 2 27.6665 2 25.4142V20.4356ZM4 25.4142V21.4142H28V25.4142C28 26.5619 27.1477 27.4142 26 27.4142H6C4.85228 27.4142 4 26.5619 4 25.4142Z" fill="black"/>
</svg>
