<svg width="32" height="32" viewBox="0 0 32 32" fill="none" xmlns="http://www.w3.org/2000/svg">
<path d="M6 22C6 21.4477 6.44772 21 7 21H10C10.5523 21 11 21.4477 11 22C11 22.5523 10.5523 23 10 23H7C6.44772 23 6 22.5523 6 22Z" fill="black"/>
<path d="M14 21C13.4477 21 13 21.4477 13 22C13 22.5523 13.4477 23 14 23H15C15.5523 23 16 22.5523 16 22C16 21.4477 15.5523 21 15 21H14Z" fill="black"/>
<path fill-rule="evenodd" clip-rule="evenodd" d="M2.01852 17.8074C2.00439 17.8791 1.99837 17.9511 2 18.0223V23C2 25.2523 3.74772 27 6 27H26C28.2523 27 30 25.2523 30 23V18.0226C30.0017 17.9498 29.9954 17.8761 29.9806 17.8028C29.9664 17.7318 29.9446 17.6634 29.9162 17.5986L25.7247 7.41925C25.7201 7.40815 25.7153 7.39713 25.7104 7.3862C25.0468 5.92626 23.5889 5 22 5H10C8.41111 5 6.95325 5.92626 6.28964 7.3862C6.28467 7.39713 6.2799 7.40815 6.27533 7.41925L2.08393 17.5984C2.05484 17.6646 2.03273 17.7346 2.01852 17.8074ZM4.49323 17L8.11715 8.19904C8.45666 7.46745 9.19431 7 10 7H22C22.8057 7 23.5433 7.46744 23.8828 8.19902L27.5068 17H4.49323ZM4 23V19H28V23C28 24.1477 27.1477 25 26 25H6C4.85229 25 4 24.1477 4 23Z" fill="black"/>
</svg>
