<svg width="32" height="32" viewBox="0 0 32 32" fill="none" xmlns="http://www.w3.org/2000/svg">
<path d="M16 3C16.5523 3 17 3.44772 17 4V13.5858L19.2929 11.2929C19.6834 10.9024 20.3166 10.9024 20.7071 11.2929C21.0976 11.6834 21.0976 12.3166 20.7071 12.7071L16 17.4142L11.2929 12.7071C10.9024 12.3166 10.9024 11.6834 11.2929 11.2929C11.6834 10.9024 12.3166 10.9024 12.7071 11.2929L15 13.5858V4C15 3.44772 15.4477 3 16 3Z" fill="black"/>
<path d="M6 24C6 23.4477 6.44772 23 7 23H10C10.5523 23 11 23.4477 11 24C11 24.5523 10.5523 25 10 25H7C6.44772 25 6 24.5523 6 24Z" fill="black"/>
<path d="M14 23C13.4477 23 13 23.4477 13 24C13 24.5523 13.4477 25 14 25H15C15.5523 25 16 24.5523 16 24C16 23.4477 15.5523 23 15 23H14Z" fill="black"/>
<path fill-rule="evenodd" clip-rule="evenodd" d="M2 20.0214C1.99828 19.9437 2.00565 19.8651 2.02269 19.7872C2.03953 19.7095 2.06542 19.6351 2.09919 19.5653L6.28963 10.3862C6.94557 8.94392 8.39266 8 9.9 8H12C12.5523 8 13 8.44772 13 9C13 9.55228 12.5523 10 12 10H9.9C9.2076 10 8.45459 10.4565 8.11037 11.2138L4.5558 19H27.4442L23.8896 11.2138C23.5371 10.4383 22.8734 10 22.1 10H20C19.4477 10 19 9.55228 19 9C19 8.44772 19.4477 8 20 8H22.1C23.7263 8 25.0624 8.96136 25.71 10.3854L29.9008 19.5652C29.9346 19.6352 29.9606 19.7098 29.9774 19.7877C29.9944 19.8654 30.0017 19.9438 30 20.0214V25C30 27.2523 28.2523 29 26 29H6C3.74772 29 2 27.2523 2 25V20.0214ZM4 25V21H28V25C28 26.1477 27.1477 27 26 27H6C4.85228 27 4 26.1477 4 25Z" fill="black"/>
</svg>
