<svg width="32" height="32" viewBox="0 0 32 32" fill="none" xmlns="http://www.w3.org/2000/svg">
<path d="M30.66 16.31H22.26C22.1168 16.3106 21.9774 16.2639 21.8635 16.1771C21.7495 16.0903 21.6675 15.9683 21.63 15.83V15.83C21.3282 14.9061 20.8065 14.0694 20.1097 13.3918C19.4129 12.7142 18.5619 12.216 17.63 11.94H17.58C17.0837 11.7875 16.569 11.7034 16.05 11.69C14.9442 11.6911 13.863 12.0167 12.9404 12.6264C12.0179 13.2361 11.2945 14.1031 10.86 15.12V15.12C10.7459 15.4763 10.5218 15.7872 10.22 16.0082C9.91816 16.2292 9.55408 16.3488 9.18 16.35C9.07693 16.3604 8.97308 16.3604 8.87 16.35V16.35C6.62 16.26 4.35 16.35 2.09 16.35H1.33C1.4902 14.4245 2.0495 12.5535 2.9723 10.8559C3.8951 9.15838 5.1612 7.67154 6.69 6.49003V6.49003C11.74 2.60003 17.3 2.35003 23 4.86003C27.29 6.78003 30.82 12.27 30.69 16.35L30.66 16.31ZM26.78 18.69H22.33C22.173 18.6898 22.0209 18.7448 21.9002 18.8453C21.7796 18.9458 21.6981 19.0855 21.67 19.24C21.303 20.4287 20.5654 21.4687 19.565 22.2082C18.5647 22.9477 17.354 23.3478 16.11 23.35C15.3555 23.3535 14.6077 23.2073 13.91 22.92V22.92C13.0811 22.6114 12.3358 22.1135 11.7334 21.4659C11.1309 20.8183 10.688 20.039 10.44 19.19V19.19C10.34 18.88 10.24 18.75 9.9 18.75H5.19L4.84 18.82C4.81167 18.918 4.81167 19.022 4.84 19.12C4.88452 19.2951 4.94477 19.4658 5.02 19.63V19.63C6.2338 22.3891 8.18976 24.757 10.67 26.47V26.47C11.9375 27.3701 13.408 27.9425 14.9505 28.1362C16.4929 28.3299 18.0593 28.1388 19.51 27.58H19.44C22.3283 26.5458 24.7464 24.5041 26.25 21.83V21.76C26.8285 20.8371 27.1719 19.7865 27.25 18.7V18.7L26.78 18.69ZM12.3 17.69C12.3497 18.6524 12.767 19.559 13.4657 20.2226C14.1645 20.8862 15.0913 21.2562 16.055 21.2562C17.0187 21.2562 17.9455 20.8862 18.6443 20.2226C19.343 19.559 19.7603 18.6524 19.81 17.69V17.69C19.7603 16.7277 19.343 15.8211 18.6443 15.1575C17.9455 14.4939 17.0187 14.1239 16.055 14.1239C15.0913 14.1239 14.1645 14.4939 13.4657 15.1575C12.767 15.8211 12.3497 16.7277 12.3 17.69V17.69Z" fill="black"/>
</svg>
