<svg width="32" height="32" viewBox="0 0 32 32" fill="none" xmlns="http://www.w3.org/2000/svg">
<path fill-rule="evenodd" clip-rule="evenodd" d="M16.7433 2.82588L16 3.49485L15.2567 2.82588L16 2L16.7433 2.82588ZM16 5.0293C15.817 5.2482 15.6057 5.50469 15.3723 5.79425C14.5418 6.82471 13.436 8.26866 12.3321 9.92455C11.2263 11.5832 10.1344 13.4367 9.32189 15.2875C8.50426 17.1498 8 18.9415 8 20.4948C8 24.9426 11.5523 28.4948 16 28.4948C20.4477 28.4948 24 24.9426 24 20.4948C24 18.9415 23.4957 17.1498 22.6781 15.2875C21.8656 13.4367 20.7737 11.5832 19.6679 9.92455C18.564 8.26866 17.4582 6.82471 16.6277 5.79425C16.3943 5.50469 16.183 5.2482 16 5.0293ZM16 3.49485C15.2567 2.82588 15.2567 2.82588 15.2567 2.82588L15.2542 2.82872L15.2483 2.83521L15.2272 2.85894C15.2089 2.8795 15.1823 2.90947 15.148 2.94845C15.0795 3.02642 14.98 3.14046 14.854 3.28742C14.6022 3.58125 14.2441 4.00701 13.8152 4.5392C12.9582 5.60248 11.814 7.09604 10.6679 8.81515C9.52369 10.5315 8.36556 12.4905 7.49061 14.4835C6.62074 16.4649 6 18.5482 6 20.4948C6 26.0471 10.4477 30.4948 16 30.4948C21.5523 30.4948 26 26.0471 26 20.4948C26 18.5482 25.3793 16.4649 24.5094 14.4835C23.6344 12.4905 22.4763 10.5315 21.3321 8.81515C20.186 7.09604 19.0418 5.60248 18.1848 4.5392C17.7559 4.00701 17.3978 3.58125 17.146 3.28742C17.02 3.14046 16.9205 3.02642 16.852 2.94845C16.8177 2.90947 16.7911 2.8795 16.7728 2.85894L16.7517 2.83521L16.7458 2.82872L16.7442 2.82685C16.7442 2.82685 16.7433 2.82588 16 3.49485Z" fill="black"/>
</svg>
