<svg width="32" height="32" viewBox="0 0 32 32" fill="none" xmlns="http://www.w3.org/2000/svg">
<path d="M4 6C4 4.85228 4.85228 4 6 4H18C19.1477 4 20 4.85228 20 6C20 6.55228 20.4477 7 21 7C21.5523 7 22 6.55228 22 6C22 3.74772 20.2523 2 18 2H6C3.74772 2 2 3.74772 2 6V18C2 20.2523 3.74772 22 6 22C6.55228 22 7 21.5523 7 21C7 20.4477 6.55228 20 6 20C4.85228 20 4 19.1477 4 18V6Z" fill="black"/>
<path d="M15 20C15 19.4477 15.4477 19 16 19H24C24.5523 19 25 19.4477 25 20C25 20.5523 24.5523 21 24 21H16C15.4477 21 15 20.5523 15 20Z" fill="black"/>
<path fill-rule="evenodd" clip-rule="evenodd" d="M10 14C10 11.7477 11.7477 10 14 10H26C28.2523 10 30 11.7477 30 14V26C30 28.2523 28.2523 30 26 30H14C11.7477 30 10 28.2523 10 26V14ZM14 12C12.8523 12 12 12.8523 12 14V26C12 27.1477 12.8523 28 14 28H26C27.1477 28 28 27.1477 28 26V14C28 12.8523 27.1477 12 26 12H14Z" fill="black"/>
</svg>
