<svg width="32" height="32" viewBox="0 0 32 32" fill="none" xmlns="http://www.w3.org/2000/svg">
<path d="M4 6C4 4.85228 4.85228 4 6 4H18C19.1477 4 20 4.85228 20 6C20 6.55228 20.4477 7 21 7C21.5523 7 22 6.55228 22 6C22 3.74772 20.2523 2 18 2H6C3.74772 2 2 3.74772 2 6V18C2 20.2523 3.74772 22 6 22C6.55228 22 7 21.5523 7 21C7 20.4477 6.55228 20 6 20C4.85228 20 4 19.1477 4 18V6Z" fill="black"/>
<path fill-rule="evenodd" clip-rule="evenodd" d="M14 10C11.7477 10 10 11.7477 10 14V26C10 28.2523 11.7477 30 14 30H26C28.2523 30 30 28.2523 30 26V14C30 11.7477 28.2523 10 26 10H14ZM12 14C12 12.8523 12.8523 12 14 12H26C27.1477 12 28 12.8523 28 14V26C28 27.1477 27.1477 28 26 28H14C12.8523 28 12 27.1477 12 26V14Z" fill="black"/>
</svg>
