<svg width="32" height="32" viewBox="0 0 32 32" fill="none" xmlns="http://www.w3.org/2000/svg">
<path fill-rule="evenodd" clip-rule="evenodd" d="M8.30843 2.27769C8.70735 1.89575 9.34036 1.90951 9.72231 2.30843L14.2155 7.00131C15.1491 7.94167 15.3436 9.27909 14.7992 10.3849L16 11.5858L17.1812 10.4046C16.738 8.43003 17.2693 6.31648 18.7929 4.79291L19.7929 3.79291C22.0834 1.50238 25.9166 1.50238 28.2071 3.79291C30.4976 6.08343 30.4976 9.91659 28.2071 12.2071L27.2071 13.2071C25.6937 14.7206 23.5094 15.2601 21.591 14.8232L20.4142 16L29.1071 24.6929C30.2976 25.8834 30.2976 27.9166 29.1071 29.1071C27.9166 30.2976 25.8834 30.2976 24.6929 29.1071L16 20.4142L7.30711 29.1071C6.11658 30.2976 4.08342 30.2976 2.89289 29.1071C1.70237 27.9166 1.70237 25.8834 2.89289 24.6929L11.5858 16L10.3849 14.7992C9.27909 15.3436 7.94167 15.1491 7.00131 14.2155L2.30843 9.72231C1.90951 9.34036 1.89575 8.70735 2.27769 8.30843C2.65964 7.90951 3.29265 7.89575 3.69157 8.27769L8.39157 12.7777L8.40711 12.7929C8.81658 13.2024 9.38342 13.2024 9.79289 12.7929C10.1834 12.4024 10.8166 12.4024 11.2071 12.7929L13 14.5858L14.5858 13L12.7929 11.2071C12.4024 10.8166 12.4024 10.1834 12.7929 9.79289C13.2024 9.38342 13.2024 8.81658 12.7929 8.40711L12.7777 8.39157L8.27769 3.69157C7.89575 3.29265 7.90951 2.65964 8.30843 2.27769ZM4.30711 26.1071C3.89763 26.5166 3.89763 27.2834 4.30711 27.6929C4.71658 28.1024 5.48342 28.1024 5.89289 27.6929L15.29 18.2958L15.2929 18.2929L15.2958 18.29L18.2899 15.2959L18.2929 15.2929L18.2959 15.2899L21.0385 12.5473L21.6328 12.757C22.9806 13.2327 24.6733 12.9125 25.7929 11.7929L26.7929 10.7929C28.3024 9.28343 28.3024 6.71659 26.7929 5.20712C25.2834 3.69764 22.7166 3.69764 21.2071 5.20712L20.2071 6.20712C19.0894 7.32486 18.7619 8.92335 19.2487 10.3838L19.4441 10.9701L4.30711 26.1071ZM19 17.4142L17.4142 19L26.1071 27.6929C26.5166 28.1024 27.2834 28.1024 27.6929 27.6929C28.1024 27.2834 28.1024 26.5166 27.6929 26.1071L19 17.4142Z" fill="black"/>
<path d="M6.70711 5.29289C6.31658 4.90237 5.68342 4.90237 5.29289 5.29289C4.90237 5.68342 4.90237 6.31658 5.29289 6.70711L9.29289 10.7071C9.68342 11.0976 10.3166 11.0976 10.7071 10.7071C11.0976 10.3166 11.0976 9.68342 10.7071 9.29289L6.70711 5.29289Z" fill="black"/>
</svg>
