<svg width="32" height="32" viewBox="0 0 32 32" fill="none" xmlns="http://www.w3.org/2000/svg">
<path fill-rule="evenodd" clip-rule="evenodd" d="M14 2C11.7909 2 10 3.79086 10 6C10 8.20914 11.7909 10 14 10C16.2091 10 18 8.20914 18 6C18 3.79086 16.2091 2 14 2ZM12 6C12 4.89543 12.8954 4 14 4C15.1046 4 16 4.89543 16 6C16 7.10457 15.1046 8 14 8C12.8954 8 12 7.10457 12 6Z" fill="black"/>
<path fill-rule="evenodd" clip-rule="evenodd" d="M18 11C18 8.79086 19.7909 7 22 7C24.2091 7 26 8.79086 26 11C26 13.2091 24.2091 15 22 15C19.7909 15 18 13.2091 18 11ZM22 9C20.8954 9 20 9.89543 20 11C20 12.1046 20.8954 13 22 13C23.1046 13 24 12.1046 24 11C24 9.89543 23.1046 9 22 9Z" fill="black"/>
<path fill-rule="evenodd" clip-rule="evenodd" d="M19.8819 18.5069C19.9207 18.5023 19.96 18.5 20 18.5H26C28.1523 18.5 29.9 20.2477 29.9 22.4C29.9 24.0476 28.8081 25.5181 27.2162 26.0487L27.1983 26.0545L19.2011 28.5536L19.1996 28.5541C17.0692 29.2264 14.8417 29.1074 12.7543 28.3383L12.7509 28.3371L7.81977 26.5H3C2.44772 26.5 2 26.0523 2 25.5V14.5C2 13.9477 2.44772 13.5 3 13.5H7.97873C8.06723 13.498 8.15672 13.5079 8.24487 13.5302C8.3219 13.5496 8.39538 13.5779 8.46414 13.614L12.2361 15.5H16C17.908 15.5 19.4539 16.7542 19.8819 18.5069ZM9 16.118V24.8054L13.4457 26.4617L13.4474 26.4623C15.159 27.0925 16.9303 27.1733 18.5989 26.6464L18.6017 26.6455L26.5918 24.1486C27.3953 23.8771 27.9 23.1499 27.9 22.4C27.9 21.3523 27.0477 20.5 26 20.5H20C19.96 20.5 19.9206 20.4977 19.8819 20.4931C19.4539 22.2458 17.908 23.5 16 23.5H13C12.4477 23.5 12 23.0523 12 22.5C12 21.9477 12.4477 21.5 13 21.5H16C17.1477 21.5 18 20.6477 18 19.5C18 18.3523 17.1477 17.5 16 17.5H12C11.8448 17.5 11.6916 17.4638 11.5528 17.3944L9 16.118ZM4 15.5V24.5H7V15.5H4Z" fill="black"/>
</svg>
