<svg width="32" height="32" viewBox="0 0 32 32" fill="none" xmlns="http://www.w3.org/2000/svg">
<path d="M5 6.69C5 5.54229 5.85228 4.69 7 4.69H16C16.5523 4.69 17 4.24229 17 3.69C17 3.13772 16.5523 2.69 16 2.69H7C4.74772 2.69 3 4.43772 3 6.69V24.69C3 26.9423 4.74772 28.69 7 28.69H25C27.2523 28.69 29 26.9423 29 24.69V15.69C29 15.1377 28.5523 14.69 28 14.69C27.4477 14.69 27 15.1377 27 15.69V24.69C27 25.8377 26.1477 26.69 25 26.69H7C5.85228 26.69 5 25.8377 5 24.69V6.69Z" fill="black"/>
<path fill-rule="evenodd" clip-rule="evenodd" d="M26.8071 4.08291C25.2399 2.51573 22.6933 2.4644 21.1787 4.09715L20.2966 4.9792L20.2929 4.9829L20.2892 4.98661L11.2965 13.9793L11.2929 13.9829L11.2893 13.9865L11.1097 14.1661L11.044 14.3958C11.0403 14.4082 11.0367 14.4205 11.0334 14.433L8.54398 23.146L17.2581 20.6563C17.2698 20.6532 17.2815 20.6498 17.2931 20.6463L17.5239 20.5804L27.6071 10.4971C29.1743 8.92995 29.2256 6.38338 27.5929 4.86869L26.8071 4.08291ZM17 18.2758L24.5858 10.69L21 7.10423L13.4142 14.69L17 18.2758ZM12.4946 16.5989L11.456 20.234L15.0912 19.1954L12.4946 16.5989ZM22.4142 5.69001L26 9.2758L26.1929 9.08292C27.0202 8.25557 26.974 7.01446 26.2243 6.32718L26.2083 6.31249L25.3929 5.49713C24.5655 4.66978 23.3244 4.71598 22.6372 5.46575L22.6225 5.48176L22.4142 5.69001Z" fill="black"/>
</svg>
