<svg width="32" height="32" viewBox="0 0 32 32" fill="none" xmlns="http://www.w3.org/2000/svg">
<path fill-rule="evenodd" clip-rule="evenodd" d="M25.8071 4.1929C24.2399 2.62571 21.6933 2.57438 20.1787 4.20713L19.2964 5.08938L19.2929 5.09288L19.2894 5.0964L8.29633 16.0895L8.29289 16.0929L8.28948 16.0963L8.10966 16.2761L8.04401 16.5059C8.04025 16.5182 8.03673 16.5305 8.03345 16.5429L5.54398 25.256L14.2581 22.7663C14.2698 22.7632 14.2815 22.7598 14.2931 22.7563L14.5239 22.6903L26.6071 10.6071C28.1743 9.03993 28.2256 6.49336 26.5929 4.97868L25.8071 4.1929ZM8.45602 22.344L9.49463 18.7088L12.0912 21.3054L8.45602 22.344ZM10.4142 16.8L14 20.3858L23.5858 10.8L20 7.21421L10.4142 16.8ZM25 9.38578L25.1929 9.1929C26.0202 8.36555 25.974 7.12444 25.2243 6.43716L25.2083 6.42248L24.3929 5.60711C23.5655 4.77977 22.3244 4.82597 21.6372 5.57573L21.6225 5.59175L21.4142 5.8L25 9.38578Z" fill="black"/>
<path d="M4 26.8C3.44772 26.8 3 27.2477 3 27.8C3 28.3523 3.44772 28.8 4 28.8H28C28.5523 28.8 29 28.3523 29 27.8C29 27.2477 28.5523 26.8 28 26.8H4Z" fill="black"/>
</svg>
