<svg width="32" height="32" viewBox="0 0 32 32" fill="none" xmlns="http://www.w3.org/2000/svg">
<path fill-rule="evenodd" clip-rule="evenodd" d="M21.729 2.36315C22.0808 1.93736 22.7111 1.87733 23.1369 2.22907L24.6412 3.47173L24.7224 3.37128C24.8903 3.16362 25.1342 3.03174 25.3999 3.00502C25.6656 2.9783 25.931 3.05897 26.1369 3.22904L28.4244 5.11878C30.0809 6.40542 30.3867 8.75418 29.1854 10.4588C30.2803 12.4689 31 14.8284 31 17.3001C31 20.5765 29.8346 23.55 27.9844 25.9447C27.9947 26.0617 28 26.1803 28 26.3C28 28.5092 26.2091 30.3 24 30.3C22.1214 30.3 20.5453 29.005 20.1157 27.2591C19.7019 27.1366 19.4 26.7536 19.4 26.3C19.4 25.8465 19.7019 25.4635 20.1157 25.341C20.5453 23.5951 22.1214 22.3 24 22.3C25.2411 22.3 26.3501 22.8653 27.0838 23.7523C28.2856 21.8677 29 19.669 29 17.3001C29 15.3884 28.488 13.5221 27.665 11.8683C26.3117 12.5824 24.6139 12.4262 23.3589 11.3675L21.0631 9.47096C20.658 9.13633 20.5835 8.54889 20.8816 8.12534L19.3631 6.87097C18.9373 6.51922 18.8773 5.88891 19.229 5.46312C19.5808 5.03733 20.2111 4.9773 20.6369 5.32904L22.1373 6.56855L23.3836 5.02707L21.8631 3.77099C21.4373 3.41925 21.3773 2.78894 21.729 2.36315ZM23.1184 8.57468C23.1503 8.52935 23.178 8.48214 23.2014 8.43354L25.4306 5.67642C25.4809 5.63542 25.528 5.58889 25.571 5.53691C25.6012 5.50036 25.6283 5.4623 25.6525 5.42304L27.1631 6.67097C27.172 6.67834 27.1811 6.68556 27.1903 6.69263C28.0253 7.33493 28.1786 8.57722 27.4366 9.45406C27.4189 9.47493 27.4022 9.49652 27.3863 9.51877C26.7373 10.4273 25.5146 10.5716 24.646 9.83656L23.1184 8.57468ZM25.992 26.1195C25.9275 25.9796 25.8965 25.8271 25.9003 25.6747C25.6377 24.8764 24.8862 24.3 24 24.3C22.8954 24.3 22 25.1955 22 26.3C22 27.4046 22.8954 28.3 24 28.3C25.1046 28.3 26 27.4046 26 26.3C26 26.2392 25.9973 26.1789 25.992 26.1195Z" fill="black"/>
<path d="M20.9981 12.3001L21 12.3C23.7523 12.3 26 14.5478 26 17.3V19.3C26 19.8523 25.5523 20.3 25 20.3H22.8C22.2477 20.3 21.8 19.8523 21.8 19.3C21.8 18.7478 22.2477 18.3 22.8 18.3H24V17.3C24 15.6523 22.6477 14.3 21 14.3C20.186 14.3001 19.5587 14.3018 18.9414 14.39C18.3947 14.4681 17.8881 14.0882 17.81 13.5415C17.7319 12.9947 18.1118 12.4882 18.6586 12.4101C19.4293 12.3 20.1903 12.3 20.9639 12.3L20.9981 12.3001Z" fill="black"/>
<path fill-rule="evenodd" clip-rule="evenodd" d="M11.874 25.3C11.4299 23.5748 9.86384 22.3 8 22.3C6.33074 22.3 4.9003 23.3225 4.30084 24.7754C4.14339 24.501 4 24.0488 4 23.3001C4 22.6652 4.48241 21.4228 5.78049 19.9819C7.03962 18.5841 8.9658 17.1183 11.5858 16.0226C12.0953 15.8096 12.3357 15.2238 12.1226 14.7142C11.9095 14.2047 11.3237 13.9644 10.8142 14.1775C7.9342 15.3818 5.76038 17.016 4.29451 18.6432C2.86759 20.2273 2 21.9349 2 23.3001C2 25.044 2.5965 26.1224 3.4 26.7251C3.6342 26.9007 3.86861 27.0222 4.0813 27.1064C4.45435 28.929 6.06706 30.3 8 30.3C9.86384 30.3 11.4299 29.0253 11.874 27.3H13.7C14.2523 27.3 14.7 26.8523 14.7 26.3C14.7 25.7478 14.2523 25.3 13.7 25.3H11.874ZM6 26.3C6 25.1955 6.89543 24.3 8 24.3C9.10457 24.3 10 25.1955 10 26.3C10 27.4046 9.10457 28.3 8 28.3C6.89543 28.3 6 27.4046 6 26.3Z" fill="black"/>
<path d="M16.4472 11.4056C16.9412 11.6526 17.1414 12.2533 16.8944 12.7472L13.618 19.3H20C20.3466 19.3 20.6684 19.4795 20.8507 19.7743C21.0329 20.0691 21.0494 20.4372 20.8944 20.7472L16.8944 28.7472C16.6474 29.2412 16.0468 29.4414 15.5528 29.1945C15.0588 28.9475 14.8586 28.3468 15.1056 27.8528L18.382 21.3H12C11.6534 21.3 11.3316 21.1206 11.1494 20.8258C10.9671 20.5309 10.9506 20.1628 11.1056 19.8528L15.1056 11.8528C15.3526 11.3588 15.9532 11.1586 16.4472 11.4056Z" fill="black"/>
</svg>
