<svg width="32" height="32" viewBox="0 0 32 32" fill="none" xmlns="http://www.w3.org/2000/svg">
<path fill-rule="evenodd" clip-rule="evenodd" d="M6 4C6 3.44772 6.44772 3 7 3H10C11.9055 3 13.4498 4.25092 13.8802 6H18C24.6523 6 30 11.3477 30 18V23C30 24.744 29.4035 25.8224 28.6 26.425C28.3658 26.6006 28.1314 26.7222 27.9187 26.8063C27.5457 28.629 25.9329 30 24 30C22.1362 30 20.5701 28.7252 20.126 27H11.874C11.4299 28.7252 9.86384 30 8 30C6.06706 30 4.45435 28.629 4.0813 26.8063C3.86861 26.7222 3.6342 26.6006 3.4 26.425C2.5965 25.8224 2 24.744 2 23C2 21.9595 2.4991 20.758 3.30409 19.6008C4.12739 18.4173 5.3382 17.1808 6.92198 16.059C10.0969 13.8101 14.8004 12 21 12C23.7523 12 26 14.2477 26 17V19C26 19.5523 25.5523 20 25 20H12C11.4477 20 11 19.5523 11 19C11 18.4477 11.4477 18 12 18H19V17C19 16.4477 19.4477 16 20 16C20.5523 16 21 16.4477 21 17V18H24V17C24 15.3523 22.6477 14 21 14C15.1996 14 10.9031 15.6899 8.07802 17.691C6.6618 18.6942 5.62261 19.7702 4.94591 20.7429C4.2509 21.742 4 22.5405 4 23C4 23.7487 4.14339 24.201 4.30084 24.4753C4.46599 24.0751 4.6942 23.7075 4.97309 23.385L4.94591 20.7429L4.98112 23.3757C5.71447 22.5328 6.79501 22 8 22C9.86384 22 11.4299 23.2748 11.874 25H20.126C20.5701 23.2748 22.1362 22 24 22C25.6693 22 27.0997 23.0225 27.6992 24.4753C27.8566 24.201 28 23.7487 28 23V18C28 12.4523 23.5477 8 18 8H13.8802C13.4498 9.74908 11.9055 11 10 11H7C6.44772 11 6 10.5523 6 10H4C3.44772 10 3 9.55228 3 9C3 8.44772 3.44772 8 4 8H6V6H4C3.44772 6 3 5.55228 3 5C3 4.44772 3.44772 4 4 4H6ZM12 7C12 5.85228 11.1477 5 10 5H8V9H10C11.1477 9 12 8.14772 12 7ZM6 26C6 24.8954 6.89543 24 8 24C9.10457 24 10 24.8954 10 26C10 27.1046 9.10457 28 8 28C6.89543 28 6 27.1046 6 26ZM22 26C22 27.1046 22.8954 28 24 28C25.1046 28 26 27.1046 26 26C26 24.8954 25.1046 24 24 24C22.8954 24 22 24.8954 22 26Z" fill="black"/>
</svg>
