<svg width="32" height="32" viewBox="0 0 32 32" fill="none" xmlns="http://www.w3.org/2000/svg">
<path fill-rule="evenodd" clip-rule="evenodd" d="M21.7 2.35464C22.1 1.95464 22.7 1.85464 23.1 2.25464L24.6 3.45464L24.7 3.35464C24.9 3.15464 25.1 2.95464 25.4 2.95464C25.7 2.95464 25.9 3.05464 26.1 3.15464L28.4 5.05464C30.1 6.35464 30.4 8.65464 29.2 10.3546C30.3 12.3546 31 14.7546 31 17.1546C31 20.4546 29.8 23.3546 28 25.7546C28 25.8546 28 25.9546 28 26.1546C28 28.3546 26.2 30.1546 24 30.1546C22.1 30.1546 20.6 28.8546 20.1 27.1546H11.9C11.5 28.8546 9.9 30.1546 8 30.1546C6.1 30.1546 4.5 28.7546 4.1 26.9546C3.9 26.8546 3.7 26.7546 3.4 26.5546C2.6 26.0546 2 24.9546 2 23.2546C2 22.2546 2.5 21.0546 3.3 19.8546C4.1 18.6546 5.3 17.4546 6.9 16.3546C10.1 14.1546 14.8 12.2546 21 12.2546C23.8 12.2546 26 14.4546 26 17.2546V19.2546C26 19.8546 25.6 20.2546 25 20.2546H12C11.4 20.2546 11 19.8546 11 19.2546C11 18.6546 11.4 18.2546 12 18.2546H19V17.2546C19 16.6546 19.4 16.2546 20 16.2546C20.6 16.2546 21 16.6546 21 17.2546V18.2546H24V17.2546C24 15.6546 22.6 14.2546 21 14.2546C15.2 14.2546 10.9 15.9546 8.1 17.9546C6.7 18.9546 5.6 20.0546 5 21.0546C4.3 21.9546 4 22.7546 4 23.2546C4 23.9546 4.1 24.4546 4.3 24.7546C4.5 24.3546 4.7 23.9546 5 23.6546C5.7 22.8546 6.8 22.2546 8 22.2546C9.9 22.2546 11.4 23.5546 11.9 25.2546H20.2C20.6 23.5546 22.2 22.2546 24.1 22.2546C25.3 22.2546 26.5 22.8546 27.2 23.7546C28.4 21.8546 29.1 19.6546 29.1 17.2546C29.1 15.3546 28.6 13.4546 27.8 11.8546C26.4 12.5546 24.7 12.4546 23.5 11.3546L21.2 9.45464C20.8 9.15464 20.7 8.55464 21 8.15464L19.5 6.85464C19.1 6.45464 19 5.85464 19.4 5.45464C19.8 5.05464 20.4 4.95464 20.8 5.35464L22.3 6.55464L23.4 4.95464L21.9 3.65464C21.4 3.35464 21.4 2.75464 21.7 2.35464ZM25.9 25.6546C25.6 24.8546 24.9 24.2546 24 24.2546C22.9 24.2546 22 25.1546 22 26.2546C22 27.3546 22.9 28.2546 24 28.2546C25.1 28.2546 26 27.3546 26 26.2546C26 26.1546 26 26.1546 26 26.0546C25.9 25.9546 25.9 25.7546 25.9 25.6546ZM23.1 8.55464L23.2 8.45464L25.4 5.65464C25.5 5.65464 25.5 5.55464 25.5 5.55464L25.6 5.45464L27.1 6.65464C27.9 7.25464 28.1 8.55464 27.3 9.45464C27.3 9.45464 27.3 9.45464 27.2 9.55464C26.6 10.4546 25.3 10.6546 24.5 9.85464L23.1 8.55464ZM8 24.2546C9.1 24.2546 10 25.1546 10 26.2546C10 27.3546 9.1 28.2546 8 28.2546C6.9 28.2546 6 27.3546 6 26.2546C6 25.1546 6.9 24.2546 8 24.2546Z" fill="black"/>
</svg>
