<?xml version="1.0" encoding="UTF-8"?>
<svg width="24px" height="24px" viewBox="0 0 24 24" version="1.1" xmlns="http://www.w3.org/2000/svg" xmlns:xlink="http://www.w3.org/1999/xlink">
    <!-- Generator: Sketch 48.2 (47327) - http://www.bohemiancoding.com/sketch -->
    <title>ellipsis-v</title>
    <desc>Created with Sketch.</desc>
    <defs></defs>
    <g id="Page-1" stroke="none" stroke-width="1" fill="none" fill-rule="evenodd" stroke-linecap="round" stroke-linejoin="round">
        <g id="ellipsis-v" stroke="#000000" stroke-width="1.5">
            <path d="M12,6 C12.553,6 13,5.552 13,5 C13,4.448 12.553,4 12,4 C11.447,4 11,4.448 11,5 C11,5.552 11.447,6 12,6 Z" id="Stroke-1"></path>
            <path d="M12,4 L12,6" id="Stroke-3"></path>
            <path d="M13,5 L11,5" id="Stroke-5"></path>
            <path d="M12,13 C12.553,13 13,12.552 13,12 C13,11.448 12.553,11 12,11 C11.447,11 11,11.448 11,12 C11,12.552 11.447,13 12,13 Z" id="Stroke-7"></path>
            <path d="M12,11 L12,13" id="Stroke-9"></path>
            <path d="M13,12 L11,12" id="Stroke-11"></path>
            <path d="M12,20 C12.553,20 13,19.553 13,19 C13,18.447 12.553,18 12,18 C11.447,18 11,18.447 11,19 C11,19.553 11.447,20 12,20 Z" id="Stroke-13"></path>
            <path d="M12,18 L12,20" id="Stroke-15"></path>
            <path d="M13,19 L11,19" id="Stroke-17"></path>
        </g>
    </g>
</svg>