<svg width="32" height="32" viewBox="0 0 32 32" fill="none" xmlns="http://www.w3.org/2000/svg">
<path d="M24 14C25.1046 14 26 14.8954 26 16C26 17.1046 25.1046 18 24 18C22.8954 18 22 17.1046 22 16C22 14.8954 22.8954 14 24 14Z" fill="black"/>
<path d="M8 14C9.10457 14 10 14.8954 10 16C10 17.1046 9.10457 18 8 18C6.89543 18 6 17.1046 6 16C6 14.8954 6.89543 14 8 14Z" fill="black"/>
<path d="M16 14C17.1046 14 18 14.8954 18 16C18 17.1046 17.1046 18 16 18C14.8954 18 14 17.1046 14 16C14 14.8954 14.8954 14 16 14Z" fill="black"/>
<path fill-rule="evenodd" clip-rule="evenodd" d="M2 6C2 3.74772 3.74772 2 6 2H26C28.2523 2 30 3.74772 30 6V26C30 28.2523 28.2523 30 26 30H6C3.74772 30 2 28.2523 2 26V6ZM6 4C4.85228 4 4 4.85228 4 6V26C4 27.1477 4.85228 28 6 28H26C27.1477 28 28 27.1477 28 26V6C28 4.85228 27.1477 4 26 4H6Z" fill="black"/>
</svg>
