<svg width="32" height="32" viewBox="0 0 32 32" fill="none" xmlns="http://www.w3.org/2000/svg">
<path d="M2.29289 2.29289C2.68342 1.90237 3.31658 1.90237 3.70711 2.29289L27.0909 25.6767C27.1016 25.687 27.1121 25.6975 27.1224 25.7082L29.7071 28.2929C30.0976 28.6834 30.0976 29.3166 29.7071 29.7071C29.3166 30.0976 28.6834 30.0976 28.2929 29.7071L26.1912 27.6054C25.5111 27.8718 24.7769 28 24 28C20.6477 28 18 25.3523 18 22C18 21.4477 18.4477 21 19 21C19.5523 21 20 21.4477 20 22C20 24.2477 21.7523 26 24 26C24.1924 26 24.3767 25.9891 24.5535 25.9677L16.5858 18H3C2.44772 18 2 17.5523 2 17C2 16.4477 2.44772 16 3 16H14.5858L11.5858 13H3C2.44772 13 2 12.5523 2 12C2 11.4477 2.44772 11 3 11H9.58579L2.29289 3.70711C1.90237 3.31658 1.90237 2.68342 2.29289 2.29289Z" fill="black"/>
<path d="M15 8C15 5.24772 17.2477 3 20 3C22.7523 3 25 5.24772 25 8C25 10.7523 22.7523 13 20 13H17C16.4477 13 16 12.5523 16 12C16 11.4477 16.4477 11 17 11H20C21.6477 11 23 9.64772 23 8C23 6.35228 21.6477 5 20 5C18.3523 5 17 6.35228 17 8C17 8.55228 16.5523 9 16 9C15.4477 9 15 8.55228 15 8Z" fill="black"/>
<path d="M22 16C21.4477 16 21 16.4477 21 17C21 17.5523 21.4477 18 22 18H24C26.2477 18 28 19.7523 28 22C28 22.4985 27.9156 22.9684 27.7715 23.3286C27.5664 23.8414 27.8158 24.4234 28.3286 24.6285C28.8414 24.8336 29.4234 24.5842 29.6285 24.0714C29.8844 23.4316 30 22.7015 30 22C30 18.6477 27.3523 16 24 16H22Z" fill="black"/>
<path d="M3 21C2.44772 21 2 21.4477 2 22C2 22.5523 2.44772 23 3 23H12C13.1477 23 14 23.8523 14 25C14 26.1477 13.1477 27 12 27C10.8523 27 10 26.1477 10 25C10 24.4477 9.55228 24 9 24C8.44772 24 8 24.4477 8 25C8 27.2523 9.74771 29 12 29C14.2523 29 16 27.2523 16 25C16 22.7477 14.2523 21 12 21H3Z" fill="black"/>
</svg>
