<svg width="32" height="32" viewBox="0 0 32 32" fill="none" xmlns="http://www.w3.org/2000/svg">
<path d="M15 8C15 5.24772 17.2477 3 20 3C22.7523 3 25 5.24772 25 8C25 10.7523 22.7523 13 20 13H3C2.44772 13 2 12.5523 2 12C2 11.4477 2.44772 11 3 11H20C21.6477 11 23 9.64772 23 8C23 6.35228 21.6477 5 20 5C18.3523 5 17 6.35228 17 8C17 8.55228 16.5523 9 16 9C15.4477 9 15 8.55228 15 8Z" fill="black"/>
<path d="M2 17C2 16.4477 2.44772 16 3 16H24C27.3523 16 30 18.6477 30 22C30 25.3523 27.3523 28 24 28C20.6477 28 18 25.3523 18 22C18 21.4477 18.4477 21 19 21C19.5523 21 20 21.4477 20 22C20 24.2477 21.7523 26 24 26C26.2477 26 28 24.2477 28 22C28 19.7523 26.2477 18 24 18H3C2.44772 18 2 17.5523 2 17Z" fill="black"/>
<path d="M3 21C2.44772 21 2 21.4477 2 22C2 22.5523 2.44772 23 3 23H12C13.1477 23 14 23.8523 14 25C14 26.1477 13.1477 27 12 27C10.8523 27 10 26.1477 10 25C10 24.4477 9.55228 24 9 24C8.44772 24 8 24.4477 8 25C8 27.2523 9.74771 29 12 29C14.2523 29 16 27.2523 16 25C16 22.7477 14.2523 21 12 21H3Z" fill="black"/>
</svg>
