<svg width="32" height="32" viewBox="0 0 32 32" fill="none" xmlns="http://www.w3.org/2000/svg">
<path fill-rule="evenodd" clip-rule="evenodd" d="M20.1 6.12998L18.57 6.34998L19.68 7.42998L19.42 8.95998L20.79 8.23998L22.16 8.95998L21.9 7.42998L23 6.34998L21.46 6.12998L20.78 4.73998L20.1 6.12998ZM10.21 6.12998L8.67 6.34998L9.78 7.42998L9.52 8.95998L10.89 8.23998L12.26 8.95998L12 7.42998L13.11 6.34998L11.58 6.12998L10.89 4.73998L10.21 6.12998ZM15.84 3.41998L15.15 4.80998L13.62 5.02998L14.73 6.10998L14.47 7.62998L15.84 6.90998L17.21 7.62998L17 6.10998L18.11 5.02998L16.58 4.80998L15.84 3.41998ZM23.73 9.74998L22.19 9.97998L23.3 11.06L23 12.58L24.37 11.86L25.74 12.58L25.48 11.06L26.59 9.97998L25.06 9.74998L24.37 8.36998L23.73 9.74998ZM25.05 14.69L23.52 14.92L24.63 16L24.37 17.52L25.74 16.8L27.11 17.52L26.85 16L28 14.93L26.42 14.69L25.74 13.3L25.05 14.69ZM23.73 19.69L22.19 19.91L23.3 20.99L23 22.48L24.37 21.76L25.74 22.48L25.48 20.95L26.59 19.87L25.1 19.69L24.41 18.3L23.73 19.69ZM20.1 23.27L18.57 23.5L19.68 24.58L19.42 26.1L20.79 25.38L22.16 26.1L21.9 24.58L23 23.5L21.46 23.27L20.78 21.89L20.1 23.27ZM15.1 24.6L13.57 24.82L14.68 25.9L14.42 27.43L15.84 26.69L17.21 27.41L17 25.9L18.11 24.82L16.57 24.6L15.89 23.21L15.1 24.6ZM10.16 23.27L8.62 23.5L9.73 24.58L9.47 26.1L10.84 25.38L12.21 26.1L12 24.58L13.11 23.5L11.58 23.27L10.89 21.89L10.16 23.27ZM6.58 19.69L5.05 19.91L6.16 20.99L5.9 22.48L7.27 21.76L8.64 22.48L8.38 20.95L9.49 19.87L8 19.69L7.32 18.3L6.58 19.69ZM5.26 14.69L3.72 14.92L4.83 16L4.57 17.52L5.94 16.8L7.31 17.52L7.05 16L8.16 14.92L6.63 14.69L5.94 13.3L5.26 14.69ZM7.26 8.35998L6.57 9.73998L5.04 9.96998L6.15 11.05L5.9 12.58L7.27 11.86L8.64 12.58L8.38 11.06L9.49 9.97998L8 9.74998L7.26 8.35998ZM2.36 0.689978H29.63C29.8094 0.688659 29.9874 0.722862 30.1535 0.790618C30.3197 0.858373 30.4708 0.958341 30.5981 1.08476C30.7255 1.21118 30.8266 1.36155 30.8955 1.52721C30.9645 1.69287 31 1.87054 31 2.04998V29.33C31 29.5094 30.9645 29.6871 30.8955 29.8527C30.8266 30.0184 30.7255 30.1688 30.5981 30.2952C30.4708 30.4216 30.3197 30.5216 30.1535 30.5893C29.9874 30.6571 29.8094 30.6913 29.63 30.69H2.36C1.99931 30.69 1.65338 30.5467 1.39833 30.2916C1.14329 30.0366 1 29.6907 1 29.33V2.04998C1 1.68928 1.14329 1.34336 1.39833 1.08831C1.65338 0.833263 1.99931 0.689978 2.36 0.689978V0.689978Z" fill="black"/>
</svg>
