<svg width="32" height="32" viewBox="0 0 32 32" fill="none" xmlns="http://www.w3.org/2000/svg">
<path fill-rule="evenodd" clip-rule="evenodd" d="M15.29 27.3L13.69 27.53L14.85 28.69L14.57 30.27L16 29.49L17.43 30.24L17.15 28.69L18.31 27.56L16.71 27.33L16 25.85L15.29 27.3ZM9.11 25.69L7.51 25.93L8.67 27.05L8.39 28.59L9.82 27.84L11.25 28.59L11 27L12.16 25.88L10.53 25.69L9.82 24.25L9.11 25.69ZM21.47 25.69L19.87 25.93L21 27L20.72 28.59L22.15 27.84L23.58 28.59L23.3 27L24.46 25.88L22.89 25.69L22.18 24.25L21.47 25.69ZM4.58 21.12L3 21.35L4.15 22.48L3.88 24.06L5.31 23.31L6.73 24.06L6.46 22.48L7.6 21.35L6 21.12L5.3 19.69L4.58 21.12ZM25.99 21.12L24.4 21.35L25.55 22.48L25.28 24.06L26.7 23.31L28.13 24.06L27.86 22.48L29 21.35L27.41 21.12L26.7 19.69L25.99 21.12ZM2.93 14.94L1.33 15.17L2.49 16.3L2.21 17.88L3.64 17.13L5.07 17.88L4.79 16.3L6 15.17L4.4 14.94L3.69 13.5L2.93 14.94ZM27.65 14.94L26.05 15.17L27.21 16.3L26.93 17.88L28.36 17.13L29.79 17.88L29.51 16.3L30.67 15.17L29.07 14.94L28.36 13.5L27.65 14.94ZM4.58 8.76001L3 8.99002L4.15 10.12L3.87 11.69L5.3 10.94L6.72 11.69L6.45 10.11L7.6 8.99002L6 8.76001L5.3 7.32001L4.58 8.76001ZM26 8.76001L24.4 8.99002L25.55 10.12L25.28 11.69L26.7 10.94L28.13 11.69L27.86 10.11L29 8.99002L27.41 8.76001L26.7 7.32001L26 8.76001ZM9.11 4.24001L7.51 4.47001L8.67 5.59001L8.39 7.18001L9.82 6.43001L11.25 7.18001L11 5.59001L12.16 4.47001L10.56 4.24001L9.82 2.79001L9.11 4.24001ZM21.47 4.24001L19.87 4.47001L21 5.59001L20.72 7.18001L22.15 6.43001L23.58 7.18001L23.33 5.59001L24.49 4.47001L22.89 4.24001L22.18 2.79001L21.47 4.24001ZM16 1.14001L15.29 2.58001L13.69 2.81001L14.85 3.94001L14.57 5.53001L16 4.78001L17.43 5.53001L17.15 3.94001L18.31 2.81001L16.71 2.58001L16 1.14001Z" fill="black"/>
</svg>
