<svg width="32" height="32" viewBox="0 0 32 32" fill="none" xmlns="http://www.w3.org/2000/svg">
<path fill-rule="evenodd" clip-rule="evenodd" d="M3.9375 6C3.9375 4.85228 4.76315 4 5.875 4H16.5312C17.6431 4 18.4688 4.85228 18.4688 6V7C18.4688 7.55228 18.9025 8 19.4375 8C19.9725 8 20.4062 7.55228 20.4062 7V6C20.4062 3.74772 18.7132 2 16.5312 2H5.875C3.6931 2 2 3.74772 2 6V26C2 28.2523 3.6931 30 5.875 30H16.5312C18.7132 30 20.4062 28.2523 20.4062 26V25C20.4062 24.4477 19.9725 24 19.4375 24C18.9025 24 18.4688 24.4477 18.4688 25V26C18.4688 27.1477 17.6431 28 16.5312 28H5.875C4.76315 28 3.9375 27.1477 3.9375 26V6ZM19.6538 10.2929C19.2754 9.90237 18.6621 9.90237 18.2837 10.2929C17.9054 10.6834 17.9054 11.3166 18.2837 11.7071L21.4737 15H8.96875C8.43372 15 8 15.4477 8 16C8 16.5523 8.43372 17 8.96875 17H21.4737L18.2837 20.2929C17.9054 20.6834 17.9054 21.3166 18.2837 21.7071C18.6621 22.0976 19.2754 22.0976 19.6538 21.7071L25.1825 16L19.6538 10.2929ZM21.9688 2C21.4337 2 21 2.44772 21 3C21 3.55228 21.4337 4 21.9688 4H22.9375C23.4725 4 23.9062 3.55228 23.9062 3C23.9062 2.44772 23.4725 2 22.9375 2H21.9688ZM25.8438 2C25.3087 2 24.875 2.44772 24.875 3C24.875 3.55228 25.3087 4 25.8438 4C26.9556 4 27.7812 4.85228 27.7812 6C27.7812 6.55228 28.215 7 28.75 7C29.285 7 29.7188 6.55228 29.7188 6C29.7188 3.74772 28.0257 2 25.8438 2ZM29.7188 9C29.7188 8.44772 29.285 8 28.75 8C28.215 8 27.7812 8.44772 27.7812 9V10C27.7812 10.5523 28.215 11 28.75 11C29.285 11 29.7188 10.5523 29.7188 10V9ZM29.7188 13C29.7188 12.4477 29.285 12 28.75 12C28.215 12 27.7812 12.4477 27.7812 13V14C27.7812 14.5523 28.215 15 28.75 15C29.285 15 29.7188 14.5523 29.7188 14V13ZM29.7188 18C29.7188 17.4477 29.285 17 28.75 17C28.215 17 27.7812 17.4477 27.7812 18V19C27.7812 19.5523 28.215 20 28.75 20C29.285 20 29.7188 19.5523 29.7188 19V18ZM29.7188 22C29.7188 21.4477 29.285 21 28.75 21C28.215 21 27.7812 21.4477 27.7812 22V23C27.7812 23.5523 28.215 24 28.75 24C29.285 24 29.7188 23.5523 29.7188 23V22ZM29.7188 26C29.7188 25.4477 29.285 25 28.75 25C28.215 25 27.7812 25.4477 27.7812 26C27.7812 27.1477 26.9556 28 25.8438 28C25.3087 28 24.875 28.4477 24.875 29C24.875 29.5523 25.3087 30 25.8438 30C28.0257 30 29.7188 28.2523 29.7188 26ZM21.9688 28C21.4337 28 21 28.4477 21 29C21 29.5523 21.4337 30 21.9688 30H22.9375C23.4725 30 23.9062 29.5523 23.9062 29C23.9062 28.4477 23.4725 28 22.9375 28H21.9688Z" fill="black"/>
</svg>
