<svg width="32" height="32" viewBox="0 0 32 32" fill="none" xmlns="http://www.w3.org/2000/svg">
<path fill-rule="evenodd" clip-rule="evenodd" d="M3.9375 6C3.9375 4.85228 4.76315 4 5.875 4H17.5C18.6118 4 19.4375 4.85228 19.4375 6C19.4375 6.55228 19.8712 7 20.4062 7C20.9413 7 21.375 6.55228 21.375 6C21.375 3.74772 19.6819 2 17.5 2H5.875C3.6931 2 2 3.74772 2 6V18C2 20.2523 3.6931 22 5.875 22C6.41003 22 6.84375 21.5523 6.84375 21C6.84375 20.4477 6.41003 20 5.875 20C4.76315 20 3.9375 19.1477 3.9375 18V6ZM18.7188 10C18.1837 10 17.75 10.4477 17.75 11C17.75 11.5523 18.1837 12 18.7188 12H25.5C26.6118 12 27.4375 12.8523 27.4375 14V26C27.4375 27.1477 26.6118 28 25.5 28H13.875C12.7632 28 11.9375 27.1477 11.9375 26V19C11.9375 18.4477 11.5038 18 10.9688 18C10.4337 18 10 18.4477 10 19V26C10 28.2523 11.6931 30 13.875 30H25.5C27.6819 30 29.375 28.2523 29.375 26V14C29.375 11.7477 27.6819 10 25.5 10H18.7188ZM7 7H13.7812C14.3163 7 14.75 7.44772 14.75 8C14.75 8.55228 14.3163 9 13.7812 9H10.3075L15.435 14.2929C15.8133 14.6834 15.8133 15.3166 15.435 15.7071C15.0567 16.0976 14.4433 16.0976 14.065 15.7071L8.9375 10.4142V14C8.9375 14.5523 8.50378 15 7.96875 15C7.43372 15 7 14.5523 7 14V8V7ZM17.2837 17.2929C17.6621 16.9024 18.2754 16.9024 18.6538 17.2929L20.5913 19.2929C20.9696 19.6834 20.9696 20.3166 20.5913 20.7071C20.2129 21.0976 19.5996 21.0976 19.2212 20.7071L17.2837 18.7071C16.9054 18.3166 16.9054 17.6834 17.2837 17.2929ZM23.6538 22.2929C23.2754 21.9024 22.6621 21.9024 22.2837 22.2929C21.9054 22.6834 21.9054 23.3166 22.2837 23.7071L23.2525 24.7071C23.6308 25.0976 24.2442 25.0976 24.6225 24.7071C25.0008 24.3166 25.0008 23.6834 24.6225 23.2929L23.6538 22.2929Z" fill="black"/>
</svg>
