<svg width="32" height="32" viewBox="0 0 32 32" fill="none" xmlns="http://www.w3.org/2000/svg">
<path fill-rule="evenodd" clip-rule="evenodd" d="M4.70711 3.29289C4.31658 2.90237 3.68342 2.90237 3.29289 3.29289C2.90237 3.68342 2.90237 4.31658 3.29289 4.70711L7.98366 9.39787C5.70468 10.8823 3.76687 12.9578 2.15882 15.4592C1.94848 15.7864 1.94696 16.2059 2.15492 16.5346C5.38967 21.6476 10.3753 25 16 25C18.2283 25 20.2708 24.4767 22.1923 23.6065L27.2929 28.7071C27.6834 29.0976 28.3166 29.0976 28.7071 28.7071C29.0976 28.3166 29.0976 27.6834 28.7071 27.2929L23.1237 21.7095C23.1128 21.698 23.1017 21.6869 23.0903 21.6761L17.5098 16.0956L17.5071 16.0929L17.5044 16.0902L10.3233 8.90906C10.3125 8.89781 10.3016 8.88684 10.2904 8.87616L4.70711 3.29289ZM9.43364 10.8479C7.44466 12.0603 5.69559 13.8067 4.19715 16.0032C7.15385 20.3693 11.4102 23 16 23C17.6403 23 19.1789 22.6696 20.6673 22.0815L19.4459 20.8601C18.4938 21.5557 17.3251 22 16 22C12.6477 22 10 19.3523 10 16C10 14.6749 10.4443 13.5062 11.1399 12.5542L9.43364 10.8479ZM12.5792 13.9934C12.2126 14.5829 12 15.2592 12 16C12 18.2477 13.7523 20 16 20C16.7408 20 17.4171 19.7874 18.0066 19.4208L16.6055 18.0197C16.4038 18.0744 16.2008 18.0992 16.0093 18.1L16 18.1C14.8477 18.1 13.9 17.1523 13.9 16C13.9 15.8058 13.9247 15.5995 13.9803 15.3945L12.5792 13.9934Z" fill="black"/>
<path d="M16 7C14.6924 7 13.4025 7.21735 12.2369 7.53524C11.7041 7.68055 11.3899 8.23029 11.5352 8.76312C11.6806 9.29594 12.2303 9.61008 12.7631 9.46476C13.7975 9.18265 14.9076 9 16 9C20.5912 9 24.8488 11.6323 27.8056 16.0009C26.7402 17.5821 25.5273 18.9206 24.1694 20.0239C23.7408 20.3722 23.6756 21.002 24.0239 21.4306C24.3722 21.8592 25.002 21.9244 25.4306 21.5761C27.1222 20.2017 28.5927 18.5176 29.8455 16.534C30.0517 16.2076 30.0515 15.7916 29.8451 15.4654C26.6103 10.3524 21.6247 7 16 7Z" fill="black"/>
<path d="M15.3162 12.0487C15.4313 12.0103 15.6533 12 16 12C16.5523 12 17 11.5523 17 11C17 10.4477 16.5523 10 16 10L15.9568 9.99995C15.6854 9.9994 15.1429 9.99829 14.6838 10.1513C14.1598 10.326 13.8767 10.8923 14.0513 11.4162C14.226 11.9402 14.7923 12.2233 15.3162 12.0487Z" fill="black"/>
<path d="M20.1061 12.8809C20.6137 12.6633 21.2016 12.8985 21.4191 13.4061C21.7525 14.1839 22 15.0217 22 16L22 16.0376C22.0004 16.318 22.0009 16.7596 21.8487 17.2162C21.674 17.7402 21.1077 18.0233 20.5838 17.8487C20.0598 17.674 19.7767 17.1077 19.9513 16.5838C19.9921 16.4614 20 16.3225 20 16C20 15.3783 19.8475 14.8161 19.5809 14.1939C19.3633 13.6863 19.5984 13.0984 20.1061 12.8809Z" fill="black"/>
</svg>
