<svg xmlns="http://www.w3.org/2000/svg" width="64" height="64" viewBox="0 0 64 64">
  <title>eye-off</title>
  <line x1="8" y1="8" x2="56" y2="56" fill="none" stroke="#000" stroke-linecap="round" stroke-linejoin="round" stroke-width="4"/>
  <path d="M20.35,20.18A35.13,35.13,0,0,0,5,32" fill="none" stroke="#000" stroke-linecap="round" stroke-linejoin="round" stroke-width="4"/>
  <path d="M59,32c-6.39-8.54-16.11-14-27-14a31.17,31.17,0,0,0-4.66.34" fill="none" stroke="#000" stroke-linecap="round" stroke-linejoin="round" stroke-width="4"/>
  <path d="M38.36,38.36A9,9,0,1,1,25.64,25.64" fill="none" stroke="#000" stroke-linecap="round" stroke-linejoin="round" stroke-width="4"/>
  <path d="M40.05,28a9,9,0,0,1,1,4" fill="none" stroke="#000" stroke-linecap="round" stroke-linejoin="round" stroke-width="4"/>
  <path d="M33.41,33.41a2,2,0,0,1-2.82-2.82" fill="none" stroke="#000" stroke-linecap="round" stroke-linejoin="round" stroke-width="4"/>
  <line x1="30.59" y1="30.59" x2="33.41" y2="33.41" fill="none" stroke="#000" stroke-linecap="round" stroke-linejoin="round" stroke-width="4"/>
  <line x1="30.59" y1="33.41" x2="32" y2="32" fill="none" stroke="#000" stroke-linecap="round" stroke-linejoin="round" stroke-width="4"/>
  <path d="M49.72,40.72A35.91,35.91,0,0,0,59,32" fill="none" stroke="#000" stroke-linecap="round" stroke-linejoin="round" stroke-width="4"/>
  <path d="M5,32c6.39,8.54,16.11,14,27,14a32.23,32.23,0,0,0,11.65-2.18" fill="none" stroke="#000" stroke-linecap="round" stroke-linejoin="round" stroke-width="4"/>
</svg>
