<svg width="32" height="32" viewBox="0 0 32 32" fill="none" xmlns="http://www.w3.org/2000/svg">
<path d="M12 16C12 13.7523 13.7523 12 16 12C16.5523 12 17 11.5523 17 11C17 10.4477 16.5523 10 16 10C12.6477 10 10 12.6477 10 16C10 19.3523 12.6477 22 16 22C19.3523 22 22 19.3523 22 16C22 15.0217 21.7525 14.1839 21.4191 13.4061C21.2016 12.8985 20.6137 12.6633 20.1061 12.8809C19.5984 13.0984 19.3633 13.6863 19.5809 14.1939C19.8475 14.8161 20 15.3783 20 16C20 18.2477 18.2477 20 16 20C13.7523 20 12 18.2477 12 16Z" fill="black"/>
<path d="M16.0032 13.9L16 13.9C14.8477 13.9 13.9 14.8477 13.9 16C13.9 17.1523 14.8477 18.1 16 18.1C17.1523 18.1 18.1 17.1523 18.1 16C18.1 14.8488 17.1541 13.9018 16.0032 13.9Z" fill="black"/>
<path fill-rule="evenodd" clip-rule="evenodd" d="M29.8082 15.4111C30.0634 15.7618 30.0638 16.2376 29.8086 16.5883L29 16C29.8086 16.5883 29.8077 16.5896 29.8077 16.5896L29.8062 16.5916L29.8016 16.5979L29.7862 16.6188C29.773 16.6366 29.7543 16.6616 29.73 16.6936C29.6816 16.7576 29.6112 16.8492 29.5199 16.9644C29.3375 17.1948 29.0714 17.5204 28.7302 17.9094C28.049 18.6861 27.0624 19.7227 25.8401 20.7619C23.4255 22.8147 19.9466 25 16 25C12.0534 25 8.57454 22.8147 6.1599 20.7619C4.93758 19.7227 3.95104 18.6861 3.26982 17.9094C2.92861 17.5204 2.66246 17.1948 2.48006 16.9644C2.38882 16.8492 2.31843 16.7576 2.26998 16.6936C2.24575 16.6616 2.22699 16.6366 2.21385 16.6188L2.19835 16.5979L2.19379 16.5916L2.19137 16.5883C1.93621 16.2376 1.93621 15.7624 2.19137 15.4117L3 16C2.19137 15.4117 2.19231 15.4104 2.19231 15.4104L2.19379 15.4084L2.19835 15.4021L2.21385 15.3812C2.22699 15.3634 2.24575 15.3384 2.26998 15.3064C2.31843 15.2424 2.38882 15.1508 2.48006 15.0356C2.66246 14.8052 2.92861 14.4796 3.26982 14.0906C3.95104 13.3139 4.93758 12.2773 6.1599 11.2381C8.57454 9.18532 12.0534 7 16 7C19.9466 7 23.4255 9.18532 25.8401 11.2381C27.0624 12.2773 28.049 13.3139 28.7302 14.0906C29.0714 14.4796 29.3375 14.8052 29.5199 15.0356C29.6112 15.1508 29.6816 15.2424 29.73 15.3064C29.7543 15.3384 29.773 15.3634 29.7862 15.3812L29.8016 15.4021L29.8062 15.4084L29.8082 15.4111ZM4.77339 16.5906C4.57806 16.3679 4.41013 16.1686 4.27163 16C4.41013 15.8314 4.57806 15.6321 4.77339 15.4094C5.40784 14.6861 6.3251 13.7227 7.45532 12.7619C9.74576 10.8147 12.7669 9 16 9C19.2331 9 22.2542 10.8147 24.5447 12.7619C25.6749 13.7227 26.5922 14.6861 27.2266 15.4094C27.4219 15.6321 27.5899 15.8314 27.7284 16C27.5899 16.1686 27.4219 16.3679 27.2266 16.5906C26.5922 17.3139 25.6749 18.2773 24.5447 19.2381C22.2542 21.1853 19.2331 23 16 23C12.7669 23 9.74576 21.1853 7.45532 19.2381C6.3251 18.2773 5.40784 17.3139 4.77339 16.5906ZM29 16C29.8086 15.4117 29.8082 15.4111 29.8082 15.4111L29 16Z" fill="black"/>
</svg>
