<?xml version="1.0" encoding="UTF-8"?>
<svg width="24px" height="24px" viewBox="0 0 24 24" version="1.1" xmlns="http://www.w3.org/2000/svg" xmlns:xlink="http://www.w3.org/1999/xlink">
    <!-- Generator: Sketch 48.2 (47327) - http://www.bohemiancoding.com/sketch -->
    <title>eye</title>
    <desc>Created with Sketch.</desc>
    <defs></defs>
    <g id="Page-1" stroke="none" stroke-width="1" fill="none" fill-rule="evenodd" stroke-linecap="round" stroke-linejoin="round">
        <g id="eye" stroke="#000000" stroke-width="2">
            <path d="M11.9948,6 C7.0748,6 2.8518,8.47 0.9998,12 C2.8518,15.53 7.0748,18 11.9948,18 C16.9148,18 21.1378,15.53 22.9898,12 C21.1378,8.47 16.9148,6 11.9948,6 Z" id="Stroke-1"></path>
            <path d="M15.9948,12 C15.9948,14.209 14.2038,16 11.9948,16 C9.7858,16 7.9948,14.209 7.9948,12 C7.9948,9.791 9.7858,8 11.9948,8" id="Stroke-3"></path>
            <path d="M12.9948,12 C12.9948,12.552 12.5478,13 11.9948,13 C11.4418,13 10.9948,12.552 10.9948,12 C10.9948,11.448 11.4418,11 11.9948,11" id="Stroke-5"></path>
        </g>
    </g>
</svg>