<?xml version="1.0" encoding="UTF-8"?>
<svg width="24px" height="24px" viewBox="0 0 24 24" version="1.1" xmlns="http://www.w3.org/2000/svg" xmlns:xlink="http://www.w3.org/1999/xlink">
    <!-- Generator: Sketch 48.2 (47327) - http://www.bohemiancoding.com/sketch -->
    <title>eyeware</title>
    <desc>Created with Sketch.</desc>
    <defs></defs>
    <g id="Page-1" stroke="none" stroke-width="1" fill="none" fill-rule="evenodd" stroke-linecap="round" stroke-linejoin="round">
        <g id="eyeware" stroke="#000000" stroke-width="2">
            <path d="M11,12 C11,14.209 9.209,16 7,16 C4.791,16 3,14.209 3,12 C3,9.791 4.791,8 7,8 C9.209,8 11,9.791 11,12 Z" id="Stroke-1"></path>
            <path d="M21,12 C21,14.209 19.209,16 17,16 C14.791,16 13,14.209 13,12 C13,9.791 14.791,8 17,8 C19.209,8 21,9.791 21,12 Z" id="Stroke-3"></path>
            <path d="M10.5977,10.2524 C11.0347,10.0894 11.5067,10.0004 11.9997,10.0004 C12.4937,10.0004 12.9657,10.0894 13.4027,10.2524" id="Stroke-5"></path>
        </g>
    </g>
</svg>