<svg width="32" height="32" viewBox="0 0 32 32" fill="none" xmlns="http://www.w3.org/2000/svg">
<path d="M12.88 30.36V16.96H8.39001V11.75H12.88V7.91002C12.8143 6.97309 12.9468 6.03283 13.269 5.1506C13.5912 4.26838 14.0959 3.46401 14.75 2.79002C16.0683 1.58063 17.8127 0.944007 19.6 1.02002C20.6 1.02002 21.41 1.02002 22.15 1.09002C22.6388 1.11068 23.1262 1.15741 23.61 1.23002V5.89002H20.87C19.77 5.89002 19.06 6.12002 18.74 6.59002C18.3973 7.14054 18.2299 7.78222 18.26 8.43002V11.75H23.44L22.75 16.99H18.26V30.36H12.88Z" fill="black"/>
</svg>
