<svg width="32" height="32" viewBox="0 0 32 32" fill="none" xmlns="http://www.w3.org/2000/svg">
<path fill-rule="evenodd" clip-rule="evenodd" d="M5.875 2L9.75 6V11.4142H12V6L15.875 2L19.75 6V11.4142H22V6L25.875 2L29.75 6V30.4142H22V25.4142H19.75V30.4142H12V25.4142H9.75V30.4142H2V6L5.875 2ZM22 13.4142H19.75V23.4142H22V13.4142ZM9.75 23.4142V13.4142H12V23.4142H9.75ZM3.9375 6.82843V28.4142H7.8125V6.82843L5.875 4.82843L3.9375 6.82843ZM13.9375 6.82843V28.4142H17.8125V6.82843L15.875 4.82843L13.9375 6.82843ZM23.9375 28.4142V6.82843L25.875 4.82843L27.8125 6.82843V28.4142H23.9375Z" fill="black"/>
</svg>
