<svg width="32" height="32" viewBox="0 0 32 32" fill="none" xmlns="http://www.w3.org/2000/svg">
<path fill-rule="evenodd" clip-rule="evenodd" d="M7 6C7 4.85228 7.85228 4 9 4H18V11H25V13C25 13.5523 25.4477 14 26 14C26.5523 14 27 13.5523 27 13V9.58579L19.4142 2H9C6.74772 2 5 3.74772 5 6V26C5 28.2523 6.74772 30 9 30H15C15.5523 30 16 29.5523 16 29C16 28.4477 15.5523 28 15 28H9C7.85228 28 7 27.1477 7 26V6ZM23.5858 9L20 5.41421V9H23.5858Z" fill="black"/>
<path d="M26.7071 21.7071C27.0976 21.3166 27.0976 20.6834 26.7071 20.2929C26.3166 19.9024 25.6834 19.9024 25.2929 20.2929L22 23.5858L20.7071 22.2929C20.3166 21.9024 19.6834 21.9024 19.2929 22.2929C18.9024 22.6834 18.9024 23.3166 19.2929 23.7071L22 26.4142L26.7071 21.7071Z" fill="black"/>
<path fill-rule="evenodd" clip-rule="evenodd" d="M15 23C15 18.5817 18.5817 15 23 15C27.4183 15 31 18.5817 31 23C31 27.4183 27.4183 31 23 31C18.5817 31 15 27.4183 15 23ZM23 17C19.6863 17 17 19.6863 17 23C17 26.3137 19.6863 29 23 29C26.3137 29 29 26.3137 29 23C29 19.6863 26.3137 17 23 17Z" fill="black"/>
</svg>
