<svg width="32" height="32" viewBox="0 0 32 32" fill="none" xmlns="http://www.w3.org/2000/svg">
<path fill-rule="evenodd" clip-rule="evenodd" d="M8.875 4C7.76315 4 6.9375 4.85228 6.9375 6V26C6.9375 27.1477 7.76315 28 8.875 28H22.4375C23.5493 28 24.375 27.1477 24.375 26V11H18.9062C18.9062 11.5523 18.4725 12 17.9375 12H16.9688C16.4337 12 16 11.5523 16 11C16 10.4477 16.4337 10 16.9688 10H17.9375C17.9585 10 17.9793 10.0007 18 10.002V7.99795C17.9793 7.99931 17.9585 8 17.9375 8H16.9688C16.4337 8 16 7.55228 16 7C16 6.44772 16.4337 6 16.9688 6H17.9375C17.9585 6 17.9793 6.00069 18 6.00205V4H14.9375C15.4725 4 15.9062 4.44772 15.9062 5C15.9062 5.55228 15.4725 6 14.9375 6H13.9688C13.4337 6 13 5.55228 13 5C13 4.44772 13.4337 4 13.9688 4H8.875ZM25.75 9V9.00514L26.3125 9.58579V26C26.3125 28.2523 24.6194 30 22.4375 30H8.875C6.6931 30 5 28.2523 5 26V6C5 3.74772 6.6931 2 8.875 2H18.9638L19.9325 3H19.9375V3.00514L25.745 9H25.75ZM23.005 9L19.9375 5.83357V9H23.005ZM15.875 18L16.5918 17.3273C16.5917 17.3272 16.5918 17.3273 15.875 18ZM15.1582 17.3273L15.875 16.5134L16.5918 17.3273L16.5952 17.3312L16.6028 17.3399L16.6299 17.3711C16.6532 17.3979 16.6864 17.4365 16.7283 17.4858C16.812 17.5843 16.9303 17.7257 17.0719 17.9002C17.3541 18.2482 17.7326 18.7331 18.1132 19.2766C18.4913 19.8165 18.8855 20.434 19.1892 21.0452C19.4779 21.6265 19.75 22.3279 19.75 23C19.75 25.2523 18.0569 27 15.875 27C13.6931 27 12 25.2523 12 23C12 22.3279 12.2721 21.6265 12.5608 21.0452C12.8645 20.434 13.2587 19.8165 13.6368 19.2766C14.0174 18.7331 14.3959 18.2482 14.6781 17.9002C14.8197 17.7257 14.938 17.5843 15.0217 17.4858C15.0636 17.4365 15.0968 17.3979 15.1201 17.3711L15.1472 17.3399L15.1548 17.3312L15.1582 17.3273ZM15.875 18C15.1582 17.3273 15.1583 17.3272 15.1582 17.3273L15.875 18ZM15.207 20.4483C15.4373 20.1194 15.6686 19.8116 15.875 19.547C16.0814 19.8116 16.3127 20.1194 16.543 20.4483C16.8915 20.9459 17.2238 21.4722 17.4651 21.9579C17.7213 22.4735 17.8125 22.8221 17.8125 23C17.8125 24.1477 16.9868 25 15.875 25C14.7632 25 13.9375 24.1477 13.9375 23C13.9375 22.8221 14.0287 22.4735 14.2849 21.9579C14.5262 21.4722 14.8585 20.9459 15.207 20.4483ZM13 9C13 8.44772 13.4337 8 13.9688 8H14.9375C15.4725 8 15.9062 8.44772 15.9062 9C15.9062 9.55228 15.4725 10 14.9375 10H13.9688C13.4337 10 13 9.55228 13 9ZM13 13C13 12.4477 13.4337 12 13.9688 12H14.9375C15.4725 12 15.9062 12.4477 15.9062 13C15.9062 13.5523 15.4725 14 14.9375 14H13.9688C13.4337 14 13 13.5523 13 13ZM16.9688 14C16.4337 14 16 14.4477 16 15C16 15.5523 16.4337 16 16.9688 16H17.9375C18.4725 16 18.9062 15.5523 18.9062 15C18.9062 14.4477 18.4725 14 17.9375 14H16.9688Z" fill="black"/>
</svg>
