<?xml version="1.0" encoding="UTF-8"?>
<svg width="24px" height="24px" viewBox="0 0 24 24" version="1.1" xmlns="http://www.w3.org/2000/svg" xmlns:xlink="http://www.w3.org/1999/xlink">
    <!-- Generator: Sketch 48.2 (47327) - http://www.bohemiancoding.com/sketch -->
    <title>files-download</title>
    <desc>Created with Sketch.</desc>
    <defs></defs>
    <g id="Page-1" stroke="none" stroke-width="1" fill="none" fill-rule="evenodd" stroke-linecap="round" stroke-linejoin="round">
        <g id="files-download" stroke="#000000" stroke-width="2">
            <path d="M10,23 L4,23 C2.896,23 2,22.104 2,21 L2,3 C2,1.896 2.896,1 4,1 L12,1 L18,7 L18,8" id="Stroke-3"></path>
            <polyline id="Stroke-1" points="12 1 12 7 18 7"></polyline>
            <polyline id="Stroke-5" points="12 1 17 1 22 6 22 9"></polyline>
            <path d="M17,23 C20.313,23 23,20.313 23,17 C23,13.687 20.313,11 17,11 C13.687,11 11,13.687 11,17 C11,20.313 13.687,23 17,23 Z" id="Stroke-7"></path>
            <polyline id="Shape" points="14 17 17 20 20 17"></polyline>
            <path d="M17,14 L17,19" id="Shape"></path>
        </g>
    </g>
</svg>