<svg width="32" height="32" viewBox="0 0 32 32" fill="none" xmlns="http://www.w3.org/2000/svg">
<path d="M12.7071 17.7071C13.0976 17.3166 13.0976 16.6834 12.7071 16.2929C12.3166 15.9024 11.6834 15.9024 11.2929 16.2929L7.58578 20L11.2929 23.7071C11.6834 24.0976 12.3166 24.0976 12.7071 23.7071C13.0976 23.3166 13.0976 22.6834 12.7071 22.2929L10.4142 20L12.7071 17.7071Z" fill="black"/>
<path d="M20.7071 16.2929L24.4142 20L20.7071 23.7071C20.3166 24.0976 19.6834 24.0976 19.2929 23.7071C18.9024 23.3166 18.9024 22.6834 19.2929 22.2929L21.5858 20L19.2929 17.7071C18.9024 17.3166 18.9024 16.6834 19.2929 16.2929C19.6834 15.9024 20.3166 15.9024 20.7071 16.2929Z" fill="black"/>
<path d="M17.9806 15.1961C18.0889 14.6546 17.7377 14.1277 17.1961 14.0194C16.6546 13.9111 16.1277 14.2623 16.0194 14.8039L14.0194 24.8039C13.9111 25.3455 14.2623 25.8723 14.8039 25.9806C15.3454 26.0889 15.8723 25.7377 15.9806 25.1961L17.9806 15.1961Z" fill="black"/>
<path fill-rule="evenodd" clip-rule="evenodd" d="M5 6C5 3.74772 6.74772 2 9 2H19.4142L27 9.58579V26C27 28.2523 25.2523 30 23 30H9C6.74772 30 5 28.2523 5 26V6ZM9 4C7.85228 4 7 4.85228 7 6V26C7 27.1477 7.85228 28 9 28H23C24.1477 28 25 27.1477 25 26V11H18V4H9ZM20 5.41421L23.5858 9H20V5.41421Z" fill="black"/>
</svg>
