<svg width="32" height="32" viewBox="0 0 32 32" fill="none" xmlns="http://www.w3.org/2000/svg">
<path fill-rule="evenodd" clip-rule="evenodd" d="M6.9375 6C6.9375 4.85228 7.76315 4 8.875 4H18V11H24.375V26C24.375 27.1477 23.5493 28 22.4375 28H8.875C7.76315 28 6.9375 27.1477 6.9375 26V6ZM25.75 9.00514V9H25.745L19.9375 3.00514V3H19.9325L18.9638 2H8.875C6.6931 2 5 3.74772 5 6V26C5 28.2523 6.6931 30 8.875 30H22.4375C24.6194 30 26.3125 28.2523 26.3125 26V9.58579L25.75 9.00514ZM19.9375 5.83357L23.005 9H19.9375V5.83357ZM13.3906 14C13.1507 14 12.9062 14.2523 12.9062 14.5V17.5C12.9062 18.0659 12.7116 18.5959 12.3891 19.021C12.6928 19.4388 12.875 19.9527 12.875 20.5V23.5C12.875 23.7477 13.1194 24 13.3594 24H14.8125V26H13.3594C12.0493 26 10.9375 24.8523 10.9375 23.5V20.5C10.9375 20.2523 10.6931 20 10.4531 20H10H9V18H10H10.4531H10.4844C10.7243 18 10.9688 17.7477 10.9688 17.5V14.5C10.9688 13.1477 12.0806 12 13.3906 12H14.8438V14H13.3906ZM17 12H18.4531C19.7632 12 20.875 13.1477 20.875 14.5V17.5C20.875 17.7477 21.1194 18 21.3594 18H21.8438H22.8125V20H21.8438H21.3594C21.1194 20 20.875 20.2523 20.875 20.5V23.5C20.875 24.8523 19.7632 26 18.4531 26H17V24H18.4531C18.6931 24 18.9375 23.7477 18.9375 23.5V20.5C18.9375 19.9434 19.1258 19.4215 19.4388 19C19.1258 18.5785 18.9375 18.0566 18.9375 17.5V14.5C18.9375 14.2523 18.6931 14 18.4531 14H17V12Z" fill="black"/>
</svg>
