<svg width="32" height="32" viewBox="0 0 32 32" fill="none" xmlns="http://www.w3.org/2000/svg">
<path fill-rule="evenodd" clip-rule="evenodd" d="M8.875 4C7.76315 4 6.9375 4.85228 6.9375 6V26C6.9375 27.1477 7.76315 28 8.875 28H14.6875C15.2225 28 15.6562 28.4477 15.6562 29C15.6562 29.5523 15.2225 30 14.6875 30H8.875C6.6931 30 5 28.2523 5 26V6C5 3.74772 6.6931 2 8.875 2H18.9638L19.9325 3H19.9375V3.00514L25.745 9H25.75V9.00514L26.3125 9.58579V13C26.3125 13.5523 25.8788 14 25.3438 14C24.8087 14 24.375 13.5523 24.375 13V11H18V4H8.875ZM19.9375 5.83357V9H23.005L19.9375 5.83357ZM22.75 17C19.5398 17 16.9375 19.6863 16.9375 23C16.9375 26.3137 19.5398 29 22.75 29C25.9602 29 28.5625 26.3137 28.5625 23C28.5625 19.6863 25.9602 17 22.75 17ZM15 23C15 18.5817 18.4698 15 22.75 15C27.0302 15 30.5 18.5817 30.5 23C30.5 27.4183 27.0302 31 22.75 31C18.4698 31 15 27.4183 15 23ZM19 23C19 22.4477 19.4337 22 19.9688 22H22V20C22 19.4477 22.4337 19 22.9688 19C23.5038 19 23.9375 19.4477 23.9375 20V22H25.7812C26.3163 22 26.75 22.4477 26.75 23C26.75 23.5523 26.3163 24 25.7812 24H23.9375V26C23.9375 26.5523 23.5038 27 22.9688 27C22.4337 27 22 26.5523 22 26V24H19.9688C19.4337 24 19 23.5523 19 23Z" fill="black"/>
</svg>
