<svg width="32" height="32" viewBox="0 0 32 32" fill="none" xmlns="http://www.w3.org/2000/svg">
<path fill-rule="evenodd" clip-rule="evenodd" d="M14 2C12.0945 2 10.5502 3.25092 10.1198 5H6C3.74772 5 2 6.74771 2 9V26C2 28.2523 3.74772 30 6 30H18C19.9055 30 21.4498 28.7491 21.8802 27H26C28.2523 27 30 25.2523 30 23V9.58579L22.4142 2H14ZM14 4C13.2226 4 12.5808 4.39101 12.2475 5H14.4142L22 12.5858V25H26C27.1477 25 28 24.1477 28 23V11H21V4H14ZM23 5.41421V9H26.5858L23 5.41421ZM4 9C4 7.85228 4.85228 7 6 7H13V14H20V26C20 27.1477 19.1477 28 18 28H6C4.85228 28 4 27.1477 4 26V9ZM18.5858 12L15 8.41421V12H18.5858Z" fill="black"/>
</svg>
