<?xml version="1.0" encoding="UTF-8"?>
<svg width="24px" height="24px" viewBox="0 0 24 24" version="1.1" xmlns="http://www.w3.org/2000/svg" xmlns:xlink="http://www.w3.org/1999/xlink">
    <!-- Generator: Sketch 48.2 (47327) - http://www.bohemiancoding.com/sketch -->
    <title>file-sql</title>
    <desc>Created with Sketch.</desc>
    <defs></defs>
    <g id="Page-1" stroke="none" stroke-width="1" fill="none" fill-rule="evenodd" stroke-linecap="round" stroke-linejoin="round">
        <g id="file-sql" stroke="#000000" stroke-width="1.5">
            <polyline id="Stroke-1" points="14 1 14 7 20 7"></polyline>
            <path d="M20,21 C20,22.104 19.104,23 18,23 L6,23 C4.896,23 4,22.104 4,21 L4,3 C4,1.896 4.896,1 6,1 L14,1 L20,7 L20,21 Z" id="Stroke-3"></path>
            <path d="M16,12 C16,13.104 14.209,14 12,14 C9.791,14 8,13.104 8,12 C8,10.896 9.791,10 12,10 C14.209,10 16,10.896 16,12 Z" id="Stroke-5"></path>
            <path d="M16,15 C16,16.104 14.209,17 12,17 C9.791,17 8,16.104 8,15" id="Stroke-7"></path>
            <path d="M8,12 L8,18 C8,19.104 9.791,20 12,20 C14.209,20 16,19.104 16,18 L16,12" id="Stroke-9"></path>
        </g>
    </g>
</svg>