<svg xmlns="http://www.w3.org/2000/svg" width="64" height="64" viewBox="0 0 64 64">
  <title>files-pending</title>
  <path d="M28.91,60H11a5,5,0,0,1-5-5V9a5,5,0,0,1,5-5H32L48,20v2.37" fill="none" stroke="#000" stroke-linecap="round" stroke-linejoin="round" stroke-width="4"/>
  <polyline points="32 4 32 20 48 20" fill="none" stroke="#000" stroke-linecap="round" stroke-linejoin="round" stroke-width="4"/>
  <circle cx="44" cy="44" r="16" fill="none" stroke="#000" stroke-linecap="round" stroke-linejoin="round" stroke-width="4"/>
  <polyline points="32 4 44 4 58 18 58 27.03" fill="none" stroke="#000" stroke-linecap="round" stroke-linejoin="round" stroke-width="4"/>
  <path d="M37,44a1,1,0,0,1-2,0" fill="none" stroke="#000" stroke-linecap="round" stroke-linejoin="round" stroke-width="4"/>
  <path d="M45,44a1,1,0,0,1-2,0" fill="none" stroke="#000" stroke-linecap="round" stroke-linejoin="round" stroke-width="4"/>
  <path d="M53,44a1,1,0,0,1-2,0" fill="none" stroke="#000" stroke-linecap="round" stroke-linejoin="round" stroke-width="4"/>
  <path d="M35,44a1,1,0,0,1,2,0" fill="none" stroke="#000" stroke-linecap="round" stroke-linejoin="round" stroke-width="4"/>
  <path d="M43,44a1,1,0,0,1,2,0" fill="none" stroke="#000" stroke-linecap="round" stroke-linejoin="round" stroke-width="4"/>
  <path d="M51,44a1,1,0,0,1,2,0" fill="none" stroke="#000" stroke-linecap="round" stroke-linejoin="round" stroke-width="4"/>
</svg>
