<svg width="32" height="32" viewBox="0 0 32 32" fill="none" xmlns="http://www.w3.org/2000/svg">
<path fill-rule="evenodd" clip-rule="evenodd" d="M8.875 4C7.76315 4 6.9375 4.85228 6.9375 6V26C6.9375 27.1477 7.76315 28 8.875 28H14.6875C15.2225 28 15.6562 28.4477 15.6562 29C15.6562 29.5523 15.2225 30 14.6875 30H8.875C6.6931 30 5 28.2523 5 26V6C5 3.74772 6.6931 2 8.875 2H18.9638L19.9325 3H19.9375V3.00514L25.745 9H25.75V9.00514L26.3125 9.58579V13C26.3125 13.5523 25.8788 14 25.3438 14C24.8087 14 24.375 13.5523 24.375 13V11H18V4H8.875ZM19.9375 9V5.83357L23.005 9H19.9375ZM16.9375 23C16.9375 19.6863 19.5398 17 22.75 17C25.9602 17 28.5625 19.6863 28.5625 23C28.5625 26.3137 25.9602 29 22.75 29C19.5398 29 16.9375 26.3137 16.9375 23ZM22.75 15C18.4698 15 15 18.5817 15 23C15 27.4183 18.4698 31 22.75 31C27.0302 31 30.5 27.4183 30.5 23C30.5 18.5817 27.0302 15 22.75 15ZM25.5288 20.2929C25.9071 20.6834 25.9071 21.3166 25.5288 21.7071L24.2763 23L25.5288 24.2929C25.9071 24.6834 25.9071 25.3166 25.5288 25.7071C25.1504 26.0976 24.5371 26.0976 24.1587 25.7071L22.9062 24.4142L21.6538 25.7071C21.2754 26.0976 20.6621 26.0976 20.2837 25.7071C19.9054 25.3166 19.9054 24.6834 20.2837 24.2929L21.5362 23L20.2837 21.7071C19.9054 21.3166 19.9054 20.6834 20.2837 20.2929C20.6621 19.9024 21.2754 19.9024 21.6538 20.2929L22.9062 21.5858L24.1587 20.2929C24.5371 19.9024 25.1504 19.9024 25.5288 20.2929Z" fill="black"/>
</svg>
