<svg width="32" height="32" viewBox="0 0 32 32" fill="none" xmlns="http://www.w3.org/2000/svg">
<path fill-rule="evenodd" clip-rule="evenodd" d="M12.2475 5C12.5808 4.39101 13.2226 4 14 4H21V11H28V15C28 15.5523 28.4477 16 29 16C29.5523 16 30 15.5523 30 15V9.58579L22.7075 2.29326L22.7067 2.29253L22.4142 2H14C12.0945 2 10.5502 3.25092 10.1198 5H6C3.74772 5 2 6.74771 2 9V26C2 28.2523 3.74772 30 6 30H15C15.5523 30 16 29.5523 16 29C16 28.4477 15.5523 28 15 28H6C4.85228 28 4 27.1477 4 26V9C4 7.85228 4.85228 7 6 7H13V14H20.5C20.5864 14 20.6702 13.989 20.7502 13.9685C21.0814 14.0536 21.4478 13.9665 21.7071 13.7071C22.0976 13.3166 22.0976 12.6834 21.7071 12.2929L14.4142 5H12.2475ZM15 12V8.41421L18.5858 12H15ZM23 5.41421V9H26.5858L23 5.41421Z" fill="black"/>
<path d="M25.7071 21.7071C26.0976 21.3166 26.0976 20.6834 25.7071 20.2929C25.3166 19.9024 24.6834 19.9024 24.2929 20.2929L23 21.5858L21.7071 20.2929C21.3166 19.9024 20.6834 19.9024 20.2929 20.2929C19.9024 20.6834 19.9024 21.3166 20.2929 21.7071L21.5858 23L20.2929 24.2929C19.9024 24.6834 19.9024 25.3166 20.2929 25.7071C20.6834 26.0976 21.3166 26.0976 21.7071 25.7071L23 24.4142L24.2929 25.7071C24.6834 26.0976 25.3166 26.0976 25.7071 25.7071C26.0976 25.3166 26.0976 24.6834 25.7071 24.2929L24.4142 23L25.7071 21.7071Z" fill="black"/>
<path fill-rule="evenodd" clip-rule="evenodd" d="M23 15C18.5817 15 15 18.5817 15 23C15 27.4183 18.5817 31 23 31C27.4183 31 31 27.4183 31 23C31 18.5817 27.4183 15 23 15ZM17 23C17 19.6863 19.6863 17 23 17C26.3137 17 29 19.6863 29 23C29 26.3137 26.3137 29 23 29C19.6863 29 17 26.3137 17 23Z" fill="black"/>
</svg>
