<svg width="32" height="32" viewBox="0 0 32 32" fill="none" xmlns="http://www.w3.org/2000/svg">
<path fill-rule="evenodd" clip-rule="evenodd" d="M16.0299 16.7829C16.2167 15.5565 16.2774 14.3678 16.1632 13.4153C16.0873 12.7827 15.9169 12.0894 15.508 11.5879C15.2862 11.316 14.978 11.082 14.5771 10.9806C14.1806 10.8804 13.7922 10.9349 13.4489 11.0636C13.0591 11.2098 12.7304 11.4644 12.507 11.8235C12.2917 12.1692 12.2127 12.549 12.2013 12.8981C12.1793 13.5705 12.4021 14.3097 12.6997 15.0035C13.0002 15.704 13.4242 16.4648 13.9218 17.2331C13.888 17.406 13.8513 17.5803 13.8119 17.7553C13.5613 18.8682 13.213 19.9467 12.8057 20.8365C11.8895 21.0804 11.0685 21.3599 10.4576 21.6533C10.1851 21.7842 9.92051 21.9337 9.69844 22.1051C9.49946 22.2587 9.21551 22.5193 9.08443 22.9065C9.01184 23.1209 8.98863 23.3695 9.05315 23.627C9.11627 23.8788 9.24754 24.0767 9.38687 24.2228C9.63971 24.4879 9.97389 24.6414 10.2618 24.7412C11.0521 25.0345 11.8149 24.8882 12.4521 24.4992C13.0564 24.1303 13.5517 23.5467 13.9541 22.9158C14.0271 22.8013 14.0985 22.6829 14.1684 22.5609C14.5481 22.475 14.9448 22.3945 15.351 22.3219C16.2141 22.1675 17.0851 22.0548 17.8903 21.9979C18.3991 22.4718 18.8992 22.884 19.367 23.2037C19.9215 23.5827 20.58 23.9381 21.2272 23.9767C21.5846 23.998 21.9971 23.925 22.3558 23.6453C22.708 23.3707 22.8884 22.9901 22.9734 22.629C23.0658 22.2364 23.0499 21.8219 22.8741 21.431C22.7026 21.0497 22.4185 20.7782 22.1245 20.5893C21.5672 20.2312 20.8288 20.0756 20.119 20.0063C19.6707 19.9625 19.1799 19.9488 18.6643 19.9599C18.1717 19.4587 17.6653 18.8929 17.1742 18.2921C16.768 17.7951 16.3818 17.2858 16.0299 16.7829ZM15.4651 19.3595C15.3715 19.685 15.2696 20.0081 15.1597 20.3248C15.4839 20.2687 15.8127 20.2174 16.1425 20.1722C15.9676 19.9702 15.795 19.765 15.6257 19.5578C15.572 19.4921 15.5184 19.426 15.4651 19.3595ZM10.8809 23.7226C10.8809 23.7226 10.8831 23.7198 10.8891 23.7143C10.8842 23.7199 10.8809 23.7226 10.8809 23.7226Z" fill="black"/>
<path fill-rule="evenodd" clip-rule="evenodd" d="M5 6C5 3.74772 6.74772 2 9 2H19.4142L27 9.58579V26C27 28.2523 25.2523 30 23 30H9C6.74772 30 5 28.2523 5 26V6ZM9 4C7.85228 4 7 4.85228 7 6V26C7 27.1477 7.85228 28 9 28H23C24.1477 28 25 27.1477 25 26V11H18V4H9ZM20 5.41421V9H23.5858L20 5.41421Z" fill="black"/>
</svg>
