<svg xmlns="http://www.w3.org/2000/svg" width="64" height="64" viewBox="0 0 64 64">
  <title>file-code</title>
  <path d="M53,20V55a5,5,0,0,1-5,5H16a5,5,0,0,1-5-5V9a5,5,0,0,1,5-5H37Z" fill="none" stroke="#000" stroke-linecap="round" stroke-linejoin="round" stroke-width="4"/>
  <polyline points="37 4 37 20 53 20" fill="none" stroke="#000" stroke-linecap="round" stroke-linejoin="round" stroke-width="4"/>
  <path d="M19,40a5,5,0,0,0,5-5V33a5,5,0,0,1,5-5" fill="none" stroke="#000" stroke-linecap="round" stroke-linejoin="round" stroke-width="4"/>
  <path d="M19,40a5,5,0,0,1,5,5v2a5,5,0,0,0,5,5" fill="none" stroke="#000" stroke-linecap="round" stroke-linejoin="round" stroke-width="4"/>
  <path d="M45,40a5,5,0,0,1-5-5V33a5,5,0,0,0-5-5" fill="none" stroke="#000" stroke-linecap="round" stroke-linejoin="round" stroke-width="4"/>
  <path d="M45,40a5,5,0,0,0-5,5v2a5,5,0,0,1-5,5" fill="none" stroke="#000" stroke-linecap="round" stroke-linejoin="round" stroke-width="4"/>
</svg>
