<svg width="32" height="32" viewBox="0 0 32 32" fill="none" xmlns="http://www.w3.org/2000/svg">
<path fill-rule="evenodd" clip-rule="evenodd" d="M14.5 16C13.1193 16 12 17.1193 12 18.5C12 19.8807 13.1193 21 14.5 21C15.8807 21 17 19.8807 17 18.5C17 17.1193 15.8807 16 14.5 16ZM14 18.5C14 18.2239 14.2239 18 14.5 18C14.7761 18 15 18.2239 15 18.5C15 18.7761 14.7761 19 14.5 19C14.2239 19 14 18.7761 14 18.5Z" fill="black"/>
<path fill-rule="evenodd" clip-rule="evenodd" d="M9 13H23V26H9V13ZM11 15V24H14.334L18.81 18.6714L21 20.1315V15H11ZM21 24H16.946L19.19 21.3285L21 22.5352V24Z" fill="black"/>
<path fill-rule="evenodd" clip-rule="evenodd" d="M9 2C6.74772 2 5 3.74772 5 6V26C5 28.2523 6.74772 30 9 30H23C25.2523 30 27 28.2523 27 26V9.58579L19.4142 2H9ZM7 6C7 4.85228 7.85228 4 9 4H18V11H25V26C25 27.1477 24.1477 28 23 28H9C7.85228 28 7 27.1477 7 26V6ZM20 9V5.41421L23.5858 9H20Z" fill="black"/>
</svg>
