<svg width="32" height="32" viewBox="0 0 32 32" fill="none" xmlns="http://www.w3.org/2000/svg">
<path fill-rule="evenodd" clip-rule="evenodd" d="M8.875 4C7.76315 4 6.9375 4.85228 6.9375 6V26C6.9375 27.1477 7.76315 28 8.875 28H22.4375C23.5493 28 24.375 27.1477 24.375 26V11H18V4H8.875ZM25.75 9V9.00514L26.3125 9.58579V26C26.3125 28.2523 24.6194 30 22.4375 30H8.875C6.6931 30 5 28.2523 5 26V6C5 3.74772 6.6931 2 8.875 2H18.9638L19.9325 3H19.9375V3.00514L25.745 9H25.75ZM23.005 9L19.9375 5.83357V9H23.005ZM12.9688 23C12.4337 23 12 23.4477 12 24C12 24.5523 12.4337 25 12.9688 25H18.7812C19.3163 25 19.75 24.5523 19.75 24C19.75 23.4477 19.3163 23 18.7812 23H12.9688ZM15.9688 14C16.5038 14 16.9375 14.4477 16.9375 15V17H18.7812C19.3163 17 19.75 17.4477 19.75 18C19.75 18.5523 19.3163 19 18.7812 19H16.9375V21C16.9375 21.5523 16.5038 22 15.9688 22C15.4337 22 15 21.5523 15 21V19H12.9688C12.4337 19 12 18.5523 12 18C12 17.4477 12.4337 17 12.9688 17H15V15C15 14.4477 15.4337 14 15.9688 14Z" fill="black"/>
</svg>
