<?xml version="1.0" encoding="UTF-8"?>
<svg width="24px" height="24px" viewBox="0 0 24 24" version="1.1" xmlns="http://www.w3.org/2000/svg" xmlns:xlink="http://www.w3.org/1999/xlink">
    <!-- Generator: Sketch 48.2 (47327) - http://www.bohemiancoding.com/sketch -->
    <title>file-image</title>
    <desc>Created with Sketch.</desc>
    <defs></defs>
    <g id="Page-1" stroke="none" stroke-width="1" fill="none" fill-rule="evenodd" stroke-linecap="round" stroke-linejoin="round">
        <g id="file-image" stroke="#000000" stroke-width="1.5">
            <polyline id="Stroke-1" points="14 1 14 7 20 7"></polyline>
            <path d="M20,21 C20,22.104 19.104,23 18,23 L6,23 C4.896,23 4,22.104 4,21 L4,3 C4,1.896 4.896,1 6,1 L14,1 L20,7 L20,21 Z" id="Stroke-3"></path>
            <polygon id="Stroke-5" points="7 20 17 20 17 10 7 10"></polygon>
            <polyline id="Stroke-7" points="10 20 14 15 17 17"></polyline>
            <path d="M11,13.5 C11,13.776 10.776,14 10.5,14 C10.224,14 10,13.776 10,13.5 C10,13.224 10.224,13 10.5,13 C10.776,13 11,13.224 11,13.5 Z" id="Stroke-8"></path>
        </g>
    </g>
</svg>