<?xml version="1.0" encoding="UTF-8"?>
<svg width="24px" height="24px" viewBox="0 0 24 24" version="1.1" xmlns="http://www.w3.org/2000/svg" xmlns:xlink="http://www.w3.org/1999/xlink">
    <!-- Generator: Sketch 48.2 (47327) - http://www.bohemiancoding.com/sketch -->
    <title>file-archive</title>
    <desc>Created with Sketch.</desc>
    <defs></defs>
    <g id="Page-1" stroke="none" stroke-width="1" fill="none" fill-rule="evenodd" stroke-linecap="round" stroke-linejoin="round">
        <g id="file-archive" stroke="#000000" stroke-width="1.5">
            <polyline id="Stroke-1" points="14 1 14 7 20 7"></polyline>
            <path d="M20,21 C20,22.104 19.104,23 18,23 L6,23 C4.896,23 4,22.104 4,21 L4,3 C4,1.896 4.896,1 6,1 L14,1 L20,7 L20,21 Z" id="Stroke-3"></path>
            <path d="M10,3 L11,3" id="Stroke-5"></path>
            <path d="M12,5 L13,5" id="Stroke-7"></path>
            <path d="M10,7 L11,7" id="Stroke-9"></path>
            <path d="M12,9 L13,9" id="Stroke-11"></path>
            <path d="M10,11 L11,11" id="Stroke-13"></path>
            <path d="M12,13 L13,13" id="Stroke-15"></path>
            <polygon id="Stroke-17" points="11 17 12 17 12 15 11 15"></polygon>
        </g>
    </g>
</svg>