<svg width="32" height="32" viewBox="0 0 32 32" fill="none" xmlns="http://www.w3.org/2000/svg">
<path fill-rule="evenodd" clip-rule="evenodd" d="M9 4C7.85228 4 7 4.85228 7 6V26C7 27.1477 7.85228 28 9 28H15C15.5523 28 16 28.4477 16 29C16 29.5523 15.5523 30 15 30H9C6.74772 30 5 28.2523 5 26V6C5 3.74772 6.74772 2 9 2H19.4142L27 9.58579V13C27 13.5523 26.5523 14 26 14C25.4477 14 25 13.5523 25 13V11H18V4H9ZM20 5.41421L23.5858 9H20V5.41421Z" fill="black"/>
<path d="M22 23.5858L20.7071 22.2929C20.3166 21.9024 19.6834 21.9024 19.2929 22.2929C18.9024 22.6834 18.9024 23.3166 19.2929 23.7071L23 27.4142L26.7071 23.7071C27.0976 23.3166 27.0976 22.6834 26.7071 22.2929C26.3166 21.9024 25.6834 21.9024 25.2929 22.2929L24 23.5858V20C24 19.4477 23.5523 19 23 19C22.4477 19 22 19.4477 22 20V23.5858Z" fill="black"/>
<path fill-rule="evenodd" clip-rule="evenodd" d="M23 15C18.5817 15 15 18.5817 15 23C15 27.4183 18.5817 31 23 31C27.4183 31 31 27.4183 31 23C31 18.5817 27.4183 15 23 15ZM17 23C17 19.6863 19.6863 17 23 17C26.3137 17 29 19.6863 29 23C29 26.3137 26.3137 29 23 29C19.6863 29 17 26.3137 17 23Z" fill="black"/>
</svg>
