<svg width="32" height="32" viewBox="0 0 32 32" fill="none" xmlns="http://www.w3.org/2000/svg">
<path d="M10 18C10 17.4477 10.4477 17 11 17H21C21.5523 17 22 17.4477 22 18C22 18.5523 21.5523 19 21 19H11C10.4477 19 10 18.5523 10 18Z" fill="black"/>
<path d="M11 13C10.4477 13 10 13.4477 10 14C10 14.5523 10.4477 15 11 15H21C21.5523 15 22 14.5523 22 14C22 13.4477 21.5523 13 21 13H11Z" fill="black"/>
<path d="M10 10C10 9.44772 10.4477 9 11 9H14C14.5523 9 15 9.44772 15 10C15 10.5523 14.5523 11 14 11H11C10.4477 11 10 10.5523 10 10Z" fill="black"/>
<path d="M16.158 22.2436C16.4858 22.2125 16.6322 22.2475 16.7776 22.3333C16.9625 22.4424 17.0622 22.6158 17.3679 23.168C17.7043 23.7757 18.0578 24.3084 18.4808 24.614C18.7208 24.7874 19.0418 24.9309 19.4254 24.9133C19.802 24.896 20.0918 24.7299 20.2863 24.5743C20.6044 24.32 20.8657 23.9219 21.0444 23.6497L21.0957 23.5718C21.3058 23.2523 21.5087 22.944 21.7602 22.6498C22.119 22.23 22.0696 21.5988 21.6498 21.2399C21.23 20.8811 20.5988 20.9305 20.2399 21.3503C19.9043 21.7429 19.6392 22.1463 19.4388 22.4513L19.4017 22.5077L19.3473 22.5901C19.2792 22.4824 19.2028 22.3532 19.1177 22.1994C19.0979 22.1637 19.0769 22.1246 19.0542 22.0826C18.838 21.681 18.4795 21.0153 17.7939 20.6108C17.1557 20.2342 16.5373 20.1986 15.9689 20.2526C15.5424 20.2931 15.0309 20.3722 14.5454 20.5551C14.0907 20.7263 13.4929 21.0532 13.1889 21.2194L13.1805 21.224C12.5716 21.5569 12.1091 21.9091 11.6932 22.2379C11.6355 22.2835 11.579 22.3284 11.5234 22.3726C11.1727 22.6513 10.8555 22.9034 10.4582 23.1596C9.99398 23.4589 9.8603 24.0777 10.1596 24.5419C10.4588 25.0061 11.0777 25.1398 11.5419 24.8405C12.0286 24.5267 12.427 24.2096 12.776 23.9319L12.7774 23.9309C12.8305 23.8885 12.8826 23.8471 12.9336 23.8068C13.3258 23.4967 13.6824 23.229 14.14 22.9788C14.4806 22.7926 14.9507 22.5395 15.2502 22.4267C15.4974 22.3337 15.8091 22.2767 16.158 22.2436Z" fill="black"/>
<path fill-rule="evenodd" clip-rule="evenodd" d="M9 2C6.74772 2 5 3.74772 5 6V26C5 28.2523 6.74772 30 9 30H23C25.2523 30 27 28.2523 27 26V9.58579L19.4142 2H9ZM7 6C7 4.85228 7.85228 4 9 4H18V11H25V26C25 27.1477 24.1477 28 23 28H9C7.85228 28 7 27.1477 7 26V6ZM23.5858 9L20 5.41421V9H23.5858Z" fill="black"/>
</svg>
