<svg width="32" height="32" viewBox="0 0 32 32" fill="none" xmlns="http://www.w3.org/2000/svg">
<path d="M20 22C19.4477 22 19 22.4477 19 23C19 23.5523 19.4477 24 20 24H26C26.5523 24 27 23.5523 27 23C27 22.4477 26.5523 22 26 22H20Z" fill="black"/>
<path fill-rule="evenodd" clip-rule="evenodd" d="M15 23C15 18.5817 18.5817 15 23 15C27.4183 15 31 18.5817 31 23C31 27.4183 27.4183 31 23 31C18.5817 31 15 27.4183 15 23ZM23 17C19.6863 17 17 19.6863 17 23C17 26.3137 19.6863 29 23 29C26.3137 29 29 26.3137 29 23C29 19.6863 26.3137 17 23 17Z" fill="black"/>
<path fill-rule="evenodd" clip-rule="evenodd" d="M14 4C13.2226 4 12.5808 4.39101 12.2475 5H14.4142L21.7071 12.2929C22.0976 12.6834 22.0976 13.3166 21.7071 13.7071C21.4478 13.9665 21.0814 14.0536 20.7502 13.9685C20.6702 13.989 20.5864 14 20.5 14H13V7H6C4.85228 7 4 7.85228 4 9V26C4 27.1477 4.85228 28 6 28H15C15.5523 28 16 28.4477 16 29C16 29.5523 15.5523 30 15 30H6C3.74772 30 2 28.2523 2 26V9C2 6.74771 3.74772 5 6 5H10.1198C10.5502 3.25092 12.0945 2 14 2H22.4142L22.7067 2.29253L22.7075 2.29326L30 9.58579V15C30 15.5523 29.5523 16 29 16C28.4477 16 28 15.5523 28 15V11H21V4H14ZM15 8.41421V12H18.5858L15 8.41421ZM23 9V5.41421L26.5858 9H23Z" fill="black"/>
</svg>
