<svg width="32" height="32" viewBox="0 0 32 32" fill="none" xmlns="http://www.w3.org/2000/svg">
<path fill-rule="evenodd" clip-rule="evenodd" d="M10 21C10 20.4477 10.4477 20 11 20H12.7802L13.1802 18H11C10.4477 18 10 17.5523 10 17C10 16.4477 10.4477 16 11 16H13.5802L14.0194 13.8039C14.1277 13.2623 14.6546 12.9111 15.1961 13.0194C15.7377 13.1277 16.0889 13.6546 15.9806 14.1961L15.6198 16H17.5802L18.0194 13.8039C18.1277 13.2623 18.6546 12.9111 19.1961 13.0194C19.7377 13.1277 20.0889 13.6546 19.9806 14.1961L19.6198 16H21C21.5523 16 22 16.4477 22 17C22 17.5523 21.5523 18 21 18H19.2198L18.8198 20H21C21.5523 20 22 20.4477 22 21C22 21.5523 21.5523 22 21 22H18.4198L17.9806 24.1961C17.8723 24.7377 17.3454 25.0889 16.8039 24.9806C16.2623 24.8723 15.9111 24.3455 16.0194 23.8039L16.3802 22H14.4198L13.9806 24.1961C13.8723 24.7377 13.3454 25.0889 12.8039 24.9806C12.2623 24.8723 11.9111 24.3455 12.0194 23.8039L12.3802 22H11C10.4477 22 10 21.5523 10 21ZM16.7802 20L17.1802 18H15.2198L14.8198 20H16.7802Z" fill="black"/>
<path fill-rule="evenodd" clip-rule="evenodd" d="M9 2C6.74772 2 5 3.74772 5 6V26C5 28.2523 6.74772 30 9 30H23C25.2523 30 27 28.2523 27 26V9.58579L19.4142 2H9ZM7 6C7 4.85228 7.85228 4 9 4H18V11H25V26C25 27.1477 24.1477 28 23 28H9C7.85228 28 7 27.1477 7 26V6ZM23.5858 9L20 5.41421V9H23.5858Z" fill="black"/>
</svg>
