<svg width="32" height="32" viewBox="0 0 32 32" fill="none" xmlns="http://www.w3.org/2000/svg">
<path fill-rule="evenodd" clip-rule="evenodd" d="M16 11.69C14.2656 11.69 12.6538 11.9229 11.4411 12.3271C10.84 12.5275 10.2814 12.7881 9.85254 13.1261C9.60882 13.3182 9.3592 13.5756 9.19357 13.8985C9.07188 14.0642 9 14.2687 9 14.49V22.89C9 23.1132 9.07314 23.3194 9.19677 23.4858C9.36359 23.8074 9.61372 24.0631 9.85615 24.2533C10.2855 24.5902 10.8447 24.8507 11.4463 25.0512C12.66 25.4558 14.2715 25.69 16 25.69C17.7285 25.69 19.34 25.4558 20.5537 25.0512C21.1553 24.8507 21.7145 24.5902 22.1438 24.2533C22.3863 24.0631 22.6364 23.8074 22.8032 23.4858C22.9269 23.3194 23 23.1132 23 22.89V14.49C23 14.2687 22.9281 14.0642 22.8064 13.8985C22.6408 13.5756 22.3912 13.3182 22.1475 13.1261C21.7186 12.7881 21.16 12.5275 20.5589 12.3271C19.3462 11.9229 17.7344 11.69 16 11.69ZM12.0736 14.2245C11.5969 14.3834 11.2794 14.5508 11.0994 14.69C11.2794 14.8292 11.5969 14.9966 12.0736 15.1555C13.0325 15.4752 14.4207 15.69 16 15.69C17.5793 15.69 18.9675 15.4752 19.9264 15.1555C20.4031 14.9966 20.7206 14.8292 20.9006 14.69C20.7206 14.5508 20.4031 14.3834 19.9264 14.2245C18.9675 13.9049 17.5793 13.69 16 13.69C14.4207 13.69 13.0325 13.9049 12.0736 14.2245ZM21 18.5994V16.8912C20.8565 16.949 20.709 17.0028 20.5589 17.0529C19.3462 17.4571 17.7344 17.69 16 17.69C14.2656 17.69 12.6538 17.4571 11.4411 17.0529C11.291 17.0028 11.1435 16.949 11 16.8912V18.5994C11.018 18.6183 11.0466 18.6452 11.0907 18.6798C11.2707 18.8211 11.5928 18.9919 12.0787 19.1538C13.04 19.4742 14.4285 19.69 16 19.69C17.5715 19.69 18.96 19.4742 19.9213 19.1538C20.4072 18.9919 20.7293 18.8211 20.9093 18.6798C20.9534 18.6452 20.982 18.6183 21 18.5994ZM11 20.8875C11.1451 20.9461 11.2943 21.0005 11.4463 21.0512C12.66 21.4558 14.2715 21.69 16 21.69C17.7285 21.69 19.34 21.4558 20.5537 21.0512C20.7057 21.0005 20.8549 20.9461 21 20.8875V22.5994C20.982 22.6183 20.9534 22.6452 20.9093 22.6798C20.7293 22.8211 20.4072 22.9919 19.9213 23.1538C18.96 23.4742 17.5715 23.69 16 23.69C14.4285 23.69 13.04 23.4742 12.0787 23.1538C11.5928 22.9919 11.2707 22.8211 11.0907 22.6798C11.0466 22.6452 11.018 22.6183 11 22.5994V20.8875Z" fill="black"/>
<path fill-rule="evenodd" clip-rule="evenodd" d="M5 5.69C5 3.43772 6.74772 1.69 9 1.69H19.4142L27 9.27579V25.69C27 27.9423 25.2523 29.69 23 29.69H9C6.74772 29.69 5 27.9423 5 25.69V5.69ZM9 3.69C7.85228 3.69 7 4.54229 7 5.69V25.69C7 26.8377 7.85228 27.69 9 27.69H23C24.1477 27.69 25 26.8377 25 25.69V10.69H18V3.69H9ZM20 5.10422L23.5858 8.69H20V5.10422Z" fill="black"/>
</svg>
