<?xml version="1.0" encoding="UTF-8"?>
<svg width="24px" height="24px" viewBox="0 0 24 24" version="1.1" xmlns="http://www.w3.org/2000/svg" xmlns:xlink="http://www.w3.org/1999/xlink">
    <!-- Generator: Sketch 48.2 (47327) - http://www.bohemiancoding.com/sketch -->
    <title>file-pdf</title>
    <desc>Created with Sketch.</desc>
    <defs></defs>
    <g id="Page-1" stroke="none" stroke-width="1" fill="none" fill-rule="evenodd" stroke-linecap="round" stroke-linejoin="round">
        <g id="file-pdf" stroke="#000000" stroke-width="1.5">
            <polyline id="Stroke-1" points="15 1 15 7 21 7"></polyline>
            <path d="M21,21 C21,22.104 20.104,23 19,23 L7,23 C5.896,23 5,22.104 5,21 L5,3 C5,1.896 5.896,1 7,1 L15,1 L21,7 L21,21 Z" id="Stroke-3"></path>
            <path d="M9,18 C9,18 14,15 12,10" id="Stroke-5"></path>
            <path d="M9,18 C11,15 15,14 18,17" id="Stroke-7"></path>
            <path d="M12,10 C12,14 16,16 18,17" id="Stroke-9"></path>
        </g>
    </g>
</svg>