<svg width="32" height="32" viewBox="0 0 32 32" fill="none" xmlns="http://www.w3.org/2000/svg">
<path d="M11 14C10.4477 14 10 14.4477 10 15C10 15.5523 10.4477 16 11 16H21C21.5523 16 22 15.5523 22 15C22 14.4477 21.5523 14 21 14H11Z" fill="black"/>
<path d="M10 19C10 18.4477 10.4477 18 11 18H21C21.5523 18 22 18.4477 22 19C22 19.5523 21.5523 20 21 20H11C10.4477 20 10 19.5523 10 19Z" fill="black"/>
<path d="M10 23C10 22.4477 10.4477 22 11 22H15C15.5523 22 16 22.4477 16 23C16 23.5523 15.5523 24 15 24H11C10.4477 24 10 23.5523 10 23Z" fill="black"/>
<path fill-rule="evenodd" clip-rule="evenodd" d="M5 6C5 3.74772 6.74772 2 9 2H19.4142L27 9.58579V26C27 28.2523 25.2523 30 23 30H9C6.74772 30 5 28.2523 5 26V6ZM9 4C7.85228 4 7 4.85228 7 6V26C7 27.1477 7.85228 28 9 28H23C24.1477 28 25 27.1477 25 26V11H18V4H9ZM20 5.41421V9H23.5858L20 5.41421Z" fill="black"/>
</svg>
