<svg width="32" height="32" viewBox="0 0 32 32" fill="none" xmlns="http://www.w3.org/2000/svg">
<path fill-rule="evenodd" clip-rule="evenodd" d="M3.09441 3.57584C3.25899 3.22446 3.61198 3 4 3H28C28.388 3 28.741 3.22446 28.9056 3.57584C29.0702 3.92723 29.0166 4.3421 28.7682 4.64018L19 16.362V29C19 29.4045 18.7564 29.7691 18.3827 29.9239C18.009 30.0787 17.5789 29.9931 17.2929 29.7071L13.2929 25.7071C13.1054 25.5196 13 25.2652 13 25V16.362L3.23178 4.64018C2.98337 4.3421 2.92983 3.92723 3.09441 3.57584ZM6.13504 5L14.7682 15.3598C14.918 15.5395 15 15.7661 15 16V24.5858L17 26.5858V16C17 15.7661 17.082 15.5395 17.2318 15.3598L25.865 5H6.13504Z" fill="black"/>
</svg>
