<svg width="32" height="32" viewBox="0 0 32 32" fill="none" xmlns="http://www.w3.org/2000/svg">
<path fill-rule="evenodd" clip-rule="evenodd" d="M27.3911 4.95845L27.3933 4.95682L27.3952 4.95533C27.6972 4.72383 28.103 4.68459 28.443 4.85427C28.7841 5.02444 29 5.37528 29 5.7594V21.9134C29 22.2279 28.8549 22.5244 28.6075 22.7154L28 21.9134C28.6075 22.7154 28.6066 22.7161 28.6066 22.7161L28.6056 22.7168L28.6033 22.7186L28.5972 22.7233L28.5793 22.7367C28.5714 22.7426 28.5619 22.7496 28.551 22.7576C28.542 22.7641 28.5321 22.7713 28.5212 22.7792C28.4726 22.8141 28.4044 22.8617 28.3178 22.9191C28.1446 23.0338 27.8966 23.188 27.5822 23.3576C26.955 23.6959 26.0536 24.1008 24.9479 24.3712C22.7158 24.9171 19.6703 24.9058 16.4486 22.7556C13.7703 20.9682 11.3158 20.9796 9.52293 21.4181C8.61613 21.6398 7.87372 21.9732 7.36028 22.2502C7.22254 22.3245 7.10202 22.3943 7 22.4563V28.9904C7 29.548 6.55228 30 6 30C5.44772 30 5 29.548 5 28.9904V5.7594C5 5.44493 5.14513 5.14842 5.39255 4.9574C5.39255 4.9574 5.38862 4.96043 5.39342 4.95673L5.3944 4.95597L5.39674 4.95418L5.40283 4.94954L5.4207 4.9361C5.43512 4.92535 5.45454 4.91106 5.47884 4.8936C5.52741 4.85869 5.59556 4.81105 5.68222 4.75367C5.85539 4.63899 6.10343 4.48477 6.41785 4.31518C7.04503 3.97688 7.94637 3.572 9.05207 3.30158C11.2842 2.75568 14.3297 2.76701 17.5514 4.91715C20.2297 6.70455 22.6842 6.69322 24.4771 6.25473C25.3839 6.03296 26.1263 5.69956 26.6397 5.42261C26.8956 5.28458 27.0921 5.16194 27.2209 5.07667C27.2852 5.03408 27.3324 5.00097 27.3614 4.98012C27.3759 4.9697 27.3858 4.96236 27.3911 4.95845ZM7 20.1773V6.30227C7.10202 6.24032 7.22254 6.17048 7.36028 6.09619C7.87372 5.81925 8.61613 5.48584 9.52293 5.26407C11.3158 4.82559 13.7703 4.81426 16.4486 6.60165C19.6703 8.75179 22.7158 8.76312 24.9479 8.21722C25.7477 8.02163 26.4405 7.7557 27 7.49549V21.3705C26.898 21.4325 26.7775 21.5023 26.6397 21.5766C26.1263 21.8535 25.3839 22.1869 24.4771 22.4087C22.6842 22.8472 20.2297 22.8585 17.5514 21.0711C14.3297 18.921 11.2842 18.9097 9.05207 19.4556C8.25234 19.6512 7.55951 19.9171 7 20.1773Z" fill="black"/>
</svg>
