<svg width="32" height="32" viewBox="0 0 32 32" fill="none" xmlns="http://www.w3.org/2000/svg">
<path fill-rule="evenodd" clip-rule="evenodd" d="M8.09999 13.4C8.09999 7.14772 13.1477 2 19.6 2H20.3C20.6938 2 21.0509 2.23111 21.2122 2.59034C21.3735 2.94958 21.309 3.37004 21.0474 3.66436C19.6121 5.27906 18.8 7.34189 18.8 9.7C18.8 9.80824 18.802 9.91653 18.8059 10.0247C19.3997 8.90673 20.1806 7.89521 21.1384 7.05016C21.4331 6.79006 21.853 6.72681 22.2113 6.88851C22.5696 7.05022 22.8 7.40687 22.8 7.8V8.5C22.8 10.9633 23.9139 13.4997 25.1071 14.6929L25.122 14.7081C27.7528 17.4534 27.4107 20.6618 27.1762 21.7169C27.1723 21.7343 27.168 21.7516 27.1632 21.7688C25.844 26.4958 21.4542 30 16.2 30C9.9477 30 4.79999 24.8523 4.79999 18.6C4.79999 17.1543 5.1317 15.7366 5.56019 14.5583C5.69545 14.1863 6.03733 13.9291 6.43219 13.9023C6.82704 13.8755 7.20058 14.084 7.38491 14.4343C7.6692 14.9744 8.00875 15.4805 8.39557 15.949C8.20229 15.1326 8.09999 14.281 8.09999 13.4ZM18.2807 4.08786C13.5846 4.72001 10.1 8.68428 10.1 13.4C10.1 15.3789 10.7273 17.1797 11.817 18.7233C12.0835 19.101 12.0565 19.6122 11.7516 19.9596C11.4467 20.3071 10.9433 20.4002 10.5342 20.1849C9.15436 19.4587 7.90983 18.4832 6.90651 17.2864C6.83849 17.7214 6.79999 18.1627 6.79999 18.6C6.79999 23.7477 11.0523 28 16.2 28C20.5358 28 24.1393 25.1175 25.2293 21.258C25.3945 20.4867 25.625 18.1296 23.6848 16.099C22.4114 14.8209 21.3407 12.6283 20.9542 10.311C20.276 11.3639 19.8103 12.5773 19.5852 13.8713C19.509 14.3093 19.1529 14.6444 18.7111 14.6938C18.2693 14.7432 17.8479 14.495 17.6769 14.0846C17.128 12.7673 16.8 11.2368 16.8 9.7C16.8 7.63725 17.3204 5.73502 18.2807 4.08786Z" fill="black"/>
</svg>
