<svg width="32" height="32" viewBox="0 0 32 32" fill="none" xmlns="http://www.w3.org/2000/svg">
<path fill-rule="evenodd" clip-rule="evenodd" d="M6 30C3.74772 30 2 28.2523 2 26V6C2 3.74772 3.74772 2 6 2H24.4142L30 7.58579V26C30 28.2523 28.2523 30 26 30H6ZM6 4C4.85228 4 4 4.85228 4 6V26C4 27.1477 4.85228 28 6 28V18C6 17.4477 6.44772 17 7 17H25C25.5523 17 26 17.4477 26 18V28C27.1477 28 28 27.1477 28 26V8.41421L24 4.41422V13C24 13.5523 23.5523 14 23 14H9C8.44772 14 8 13.5523 8 13V4H6ZM24 28V19H8V28H24ZM20 10V4H22V12H10V4H17V10H20Z" fill="black"/>
</svg>
