<svg width="32" height="32" viewBox="0 0 32 32" fill="none" xmlns="http://www.w3.org/2000/svg">
<path d="M7 3C4.74772 3 3 4.74772 3 7V11C3 11.5523 3.44772 12 4 12C4.55228 12 5 11.5523 5 11V7C5 5.85228 5.85228 5 7 5H11C11.5523 5 12 4.55228 12 4C12 3.44772 11.5523 3 11 3H7Z" fill="black"/>
<path d="M21 3C20.4477 3 20 3.44772 20 4C20 4.55228 20.4477 5 21 5H25C26.1477 5 27 5.85228 27 7V11C27 11.5523 27.4477 12 28 12C28.5523 12 29 11.5523 29 11V7C29 4.74772 27.2523 3 25 3H21Z" fill="black"/>
<path d="M28 20C28.5523 20 29 20.4477 29 21V25C29 27.2523 27.2523 29 25 29H21C20.4477 29 20 28.5523 20 28C20 27.4477 20.4477 27 21 27H25C26.1477 27 27 26.1477 27 25V21C27 20.4477 27.4477 20 28 20Z" fill="black"/>
<path d="M5 21C5 20.4477 4.55228 20 4 20C3.44772 20 3 20.4477 3 21V25C3 27.2523 4.74772 29 7 29H11C11.5523 29 12 28.5523 12 28C12 27.4477 11.5523 27 11 27H7C5.85228 27 5 26.1477 5 25V21Z" fill="black"/>
<path fill-rule="evenodd" clip-rule="evenodd" d="M9 16C9 12.134 12.134 9 16 9C19.866 9 23 12.134 23 16C23 19.866 19.866 23 16 23C12.134 23 9 19.866 9 16ZM20.9 17C20.4367 19.2822 18.419 21 16 21C13.581 21 11.5633 19.2822 11.1 17H20.9ZM20.9 15C20.4367 12.7178 18.419 11 16 11C13.581 11 11.5633 12.7178 11.1 15H20.9Z" fill="black"/>
</svg>
