<svg width="32" height="32" viewBox="0 0 32 32" fill="none" xmlns="http://www.w3.org/2000/svg">
<path fill-rule="evenodd" clip-rule="evenodd" d="M7 6C5.35228 6 4 7.35228 4 9V23C4 24.6477 5.35228 26 7 26H14C14.5523 26 15 26.4477 15 27C15 27.5523 14.5523 28 14 28H7C4.24772 28 2 25.7523 2 23V9C2 6.24772 4.24772 4 7 4H12.4142L14.4142 6H25C27.7523 6 30 8.24771 30 11V15C30 15.5523 29.5523 16 29 16C28.4477 16 28 15.5523 28 15C28 13.3523 26.6477 12 25 12H17.5858L11.5858 6H7ZM18.4142 10L16.4142 8H25C26.6477 8 28 9.35228 28 11V11.0053C27.1632 10.3746 26.1236 10 25 10H18.4142Z" fill="black"/>
<path d="M19.9 20.9C19.9 20.3477 20.3477 19.9 20.9 19.9H26.1V25.1C26.1 25.6523 25.6523 26.1 25.1 26.1C24.5477 26.1 24.1 25.6523 24.1 25.1V23.3142L23.6071 23.8071C23.182 24.2322 23 24.6826 23 25.2V26C23 26.5523 22.5523 27 22 27C21.4477 27 21 26.5523 21 26V25.2C21 24.1175 21.418 23.1678 22.1929 22.3929L22.6858 21.9H20.9C20.3477 21.9 19.9 21.4523 19.9 20.9Z" fill="black"/>
<path fill-rule="evenodd" clip-rule="evenodd" d="M23 15C18.5817 15 15 18.5817 15 23C15 27.4183 18.5817 31 23 31C27.4183 31 31 27.4183 31 23C31 18.5817 27.4183 15 23 15ZM17 23C17 19.6863 19.6863 17 23 17C26.3137 17 29 19.6863 29 23C29 26.3137 26.3137 29 23 29C19.6863 29 17 26.3137 17 23Z" fill="black"/>
</svg>
