<svg width="32" height="32" viewBox="0 0 32 32" fill="none" xmlns="http://www.w3.org/2000/svg">
<path fill-rule="evenodd" clip-rule="evenodd" d="M30 23C30 25.7523 27.7523 28 25 28H7C4.24772 28 2 25.7523 2 23V9C2 6.24772 4.24772 4 7 4H12.4142L14.4142 6H25C27.7523 6 30 8.24771 30 11V23ZM4 9C4 7.35228 5.35228 6 7 6H11.5858L17.5858 12H25C26.6477 12 28 13.3523 28 15V23C28 24.6477 26.6477 26 25 26H7C5.35228 26 4 24.6477 4 23V9ZM28 11.0053V11C28 9.35228 26.6477 8 25 8H16.4142L18.4142 10H25C26.1236 10 27.1632 10.3746 28 11.0053Z" fill="black"/>
</svg>
