<svg width="32" height="32" viewBox="0 0 32 32" fill="none" xmlns="http://www.w3.org/2000/svg">
<path fill-rule="evenodd" clip-rule="evenodd" d="M7 6C5.35228 6 4 7.35228 4 9V23C4 24.6477 5.35228 26 7 26H14C14.5523 26 15 26.4477 15 27C15 27.5523 14.5523 28 14 28H7C4.24772 28 2 25.7523 2 23V9C2 6.24772 4.24772 4 7 4H12.4142L14.4142 6H25C27.7523 6 30 8.24771 30 11V15C30 15.5523 29.5523 16 29 16C28.4477 16 28 15.5523 28 15C28 13.3523 26.6477 12 25 12H17.5858L11.5858 6H7ZM18.4142 10L16.4142 8H25C26.6477 8 28 9.35228 28 11V11.0053C27.1632 10.3746 26.1236 10 25 10H18.4142Z" fill="black"/>
<path d="M19 23C19 22.4477 19.4477 22 20 22H22V20C22 19.4477 22.4477 19 23 19C23.5523 19 24 19.4477 24 20V22H26C26.5523 22 27 22.4477 27 23C27 23.5523 26.5523 24 26 24H24V26C24 26.5523 23.5523 27 23 27C22.4477 27 22 26.5523 22 26V24H20C19.4477 24 19 23.5523 19 23Z" fill="black"/>
<path fill-rule="evenodd" clip-rule="evenodd" d="M23 15C18.5817 15 15 18.5817 15 23C15 27.4183 18.5817 31 23 31C27.4183 31 31 27.4183 31 23C31 18.5817 27.4183 15 23 15ZM17 23C17 19.6863 19.6863 17 23 17C26.3137 17 29 19.6863 29 23C29 26.3137 26.3137 29 23 29C19.6863 29 17 26.3137 17 23Z" fill="black"/>
</svg>
