<svg width="32" height="32" viewBox="0 0 32 32" fill="none" xmlns="http://www.w3.org/2000/svg">
<path d="M11 22C11 19.7477 12.7477 18 15 18H18.5858L17.2929 16.7071C16.9024 16.3166 16.9024 15.6834 17.2929 15.2929C17.6834 14.9024 18.3166 14.9024 18.7071 15.2929L22.4142 19L18.7071 22.7071C18.3166 23.0976 17.6834 23.0976 17.2929 22.7071C16.9024 22.3166 16.9024 21.6834 17.2929 21.2929L18.5858 20H15C13.8523 20 13 20.8523 13 22C13 22.5523 12.5523 23 12 23C11.4477 23 11 22.5523 11 22Z" fill="black"/>
<path fill-rule="evenodd" clip-rule="evenodd" d="M30 23C30 25.7523 27.7523 28 25 28H7C4.24772 28 2 25.7523 2 23V9C2 6.24772 4.24772 4 7 4H12.4142L14.4142 6H25C27.7523 6 30 8.24771 30 11V23ZM4 9C4 7.35228 5.35228 6 7 6H11.5858L17.5858 12H25C26.6477 12 28 13.3523 28 15V23C28 24.6477 26.6477 26 25 26H7C5.35228 26 4 24.6477 4 23V9ZM28 11.0053V11C28 9.35228 26.6477 8 25 8H16.4142L18.4142 10H25C26.1236 10 27.1632 10.3746 28 11.0053Z" fill="black"/>
</svg>
