<svg width="32" height="32" viewBox="0 0 32 32" fill="none" xmlns="http://www.w3.org/2000/svg">
<path d="M1.44001 11.63C1.80032 8.72689 3.04293 6.00431 5.00001 3.82999V3.82999C5.11635 3.67605 5.26781 3.55215 5.44177 3.46865C5.61573 3.38515 5.80713 3.34447 6.00001 3.34999V3.34999C7.82001 3.34999 9.65001 3.43999 11.47 3.34999C11.6964 3.33418 11.9236 3.33418 12.15 3.34999C13.4015 3.35917 14.604 3.83732 15.52 4.68999V4.68999C15.6293 4.79787 15.7764 4.85885 15.93 4.85999C16.0832 4.85682 16.2295 4.79613 16.34 4.68999C16.74 4.37999 17.17 4.10999 17.56 3.79999C17.896 3.56107 18.2977 3.43184 18.71 3.42999H18.95H26C26.1839 3.4296 26.3654 3.47184 26.5302 3.55339C26.6951 3.63493 26.8387 3.75357 26.95 3.89999V3.89999C29.329 6.52704 30.6445 9.94585 30.64 13.49C30.64 13.94 30.64 14.37 30.58 14.8V14.69C30.2633 18.2045 28.6905 21.487 26.1498 23.9359C23.6091 26.3847 20.2709 27.8357 16.7471 28.0228C13.2234 28.2099 9.75027 27.1206 6.96453 24.9547C4.17879 22.7887 2.26713 19.6912 1.58001 16.23V16.14C1.40714 15.2268 1.3201 14.2994 1.32001 13.37C1.31953 12.7547 1.35962 12.14 1.44001 11.53V11.6V11.63ZM25.37 4.68999C25.2699 4.64093 25.1555 4.62908 25.0474 4.65656C24.9394 4.68404 24.8446 4.74906 24.78 4.83999C22.1133 6.75999 19.4467 8.69333 16.78 10.64C16.08 11.14 15.99 11.14 15.3 10.64L7.34001 4.89999C7.17001 4.75999 7.00001 4.51999 6.64001 4.68999C7.22001 5.26999 7.76001 5.79999 8.34001 6.35999C8.92001 6.91999 8.88001 6.90999 8.40001 7.53999C7.03681 9.21129 6.29473 11.3033 6.30001 13.46C6.29894 14.0712 6.35925 14.6809 6.48001 15.28V15.22C6.83109 17.1492 7.75977 18.9262 9.14312 20.3159C10.5265 21.7057 12.2993 22.6425 14.2268 23.0024C16.1543 23.3623 18.1457 23.1284 19.9374 22.3315C21.729 21.5347 23.2364 20.2125 24.26 18.54C25.2763 16.848 25.7458 14.8837 25.6044 12.9151C25.463 10.9464 24.7176 9.06936 23.47 7.53999V7.53999C23.12 7.10999 23.15 6.82999 23.54 6.53999C24.16 5.96999 24.73 5.36999 25.33 4.77999L25.37 4.68999Z" fill="black"/>
</svg>
