<svg width="32" height="32" viewBox="0 0 32 32" fill="none" xmlns="http://www.w3.org/2000/svg">
<path d="M16 7.98847C16.5016 7.98847 16.9263 7.98998 17.4356 8.07486C17.9804 8.16565 18.4956 7.79763 18.5864 7.25286C18.6772 6.70809 18.3092 6.19287 17.7644 6.10207C17.0825 5.98842 16.5131 5.98845 16.0192 5.98846L16 5.98847C15.4477 5.98847 15 6.43618 15 6.98847C15 7.54075 15.4477 7.98847 16 7.98847Z" fill="black"/>
<path fill-rule="evenodd" clip-rule="evenodd" d="M23.2071 10.1956C23.5976 9.80505 23.5976 9.17188 23.2071 8.78136C22.8166 8.39083 22.1834 8.39083 21.7929 8.78136L17.2934 13.2808C16.9018 13.0934 16.4631 12.9885 16 12.9885C14.3431 12.9885 13 14.3316 13 15.9885C13 17.6453 14.3431 18.9885 16 18.9885C17.6569 18.9885 19 17.6453 19 15.9885C19 15.5253 18.8951 15.0867 18.7076 14.695L23.2071 10.1956ZM15 15.9885C15 15.4362 15.4477 14.9885 16 14.9885C16.5523 14.9885 17 15.4362 17 15.9885C17 16.5407 16.5523 16.9885 16 16.9885C15.4477 16.9885 15 16.5407 15 15.9885Z" fill="black"/>
<path d="M25 14.9885C25.5523 14.9885 26 15.4362 26 15.9885C26 18.5496 24.9983 21.0937 23.127 23.0751C22.7478 23.4766 22.1149 23.4947 21.7134 23.1155C21.3119 22.7363 21.2938 22.1034 21.673 21.7018C23.2017 20.0832 24 18.0273 24 15.9885C24 15.4362 24.4477 14.9885 25 14.9885Z" fill="black"/>
<path d="M11.6 7.98844C11.9314 8.43027 11.8418 9.05707 11.4 9.38844C10.9957 9.69164 10.6502 9.95251 10.3071 10.2955C9.91659 10.6861 9.28342 10.6861 8.8929 10.2955C8.50238 9.90502 8.50238 9.27186 8.8929 8.88133C9.34335 8.43088 9.79133 8.09492 10.1831 7.80115L10.2 7.78844C10.6418 7.45707 11.2686 7.54661 11.6 7.98844Z" fill="black"/>
<path d="M8.0864 14.5529C8.17719 14.0081 7.80917 13.4929 7.2644 13.4021C6.71963 13.3113 6.2044 13.6793 6.11361 14.2241C5.99996 14.9059 5.99998 15.4753 6 15.9693L6 15.9885C6 16.5407 6.44772 16.9885 7 16.9885C7.55229 16.9885 8 16.5407 8 15.9885C8 15.4868 8.00152 15.0621 8.0864 14.5529Z" fill="black"/>
<path d="M8 20.3885C8.44183 20.0571 9.06863 20.1466 9.4 20.5885C9.70321 20.9927 9.96407 21.3383 10.3071 21.6814C10.6976 22.0719 10.6976 22.7051 10.3071 23.0956C9.91659 23.4861 9.28342 23.4861 8.8929 23.0956C8.44244 22.6451 8.10648 22.1971 7.8127 21.8054L7.8 21.7885C7.46863 21.3466 7.55818 20.7198 8 20.3885Z" fill="black"/>
<path fill-rule="evenodd" clip-rule="evenodd" d="M30 15.9885C30 7.70183 22.8917 1.12896 14.3919 2.09431C8.12629 2.74491 3.07872 7.704 2.11182 13.9351L2.11005 13.947C1.24824 19.9797 4.27143 25.3604 8.99127 28.1494L8.99754 28.1531L9.00386 28.1567C10.4186 28.9651 12 27.9003 12 26.3885V25.9885H20V26.3885C20 27.9003 21.5814 28.9651 22.9961 28.1567L23.008 28.1498C27.197 25.6794 30 21.1605 30 15.9885ZM14.6132 4.08204C21.9112 3.25062 28 8.87677 28 15.9885C28 20.4118 25.608 24.2894 22.0033 26.4204C22.0017 26.4141 22 26.4037 22 26.3885V25.9885C22 25.4612 21.8199 24.9441 21.4321 24.5564C21.0443 24.1686 20.5272 23.9885 20 23.9885H12C11.4728 23.9885 10.9557 24.1686 10.5679 24.5564C10.1801 24.9441 10 25.4612 10 25.9885V26.3885C10 26.4037 9.99826 26.414 9.99671 26.4204C5.92508 24.0084 3.35446 19.3957 4.0891 14.2359C4.92422 8.8715 9.27291 4.63453 14.6029 4.08316L14.6132 4.08204Z" fill="black"/>
</svg>
