<svg width="32" height="32" viewBox="0 0 32 32" fill="none" xmlns="http://www.w3.org/2000/svg">
<path d="M24.8 8.71584C24.8 9.31584 24.4 9.71584 23.8 9.71584C23.2 9.71584 22.8 9.31584 22.8 8.71584C22.8 8.11584 23.2 7.71584 23.8 7.71584C24.4 7.71584 24.8 8.11584 24.8 8.71584ZM21.6 17.5158C22 17.9158 22 18.3158 22 19.5158C22 20.7158 22 21.1158 21.6 21.5158C21.4 21.7158 21.2 21.9158 19.3 22.3158L19.2 22.7158C20.2 24.4158 20.2 24.7158 20.2 24.9158C20.2 25.4158 19.9 25.8158 19.1 26.6158C18.3 27.4158 18 27.7158 17.4 27.7158C17.2 27.7158 16.9 27.7158 15.2 26.7158L14.8 26.8158C14.3 28.7158 14.1 28.9158 14 29.1158C13.6 29.5158 13.2 29.5158 12 29.5158C10.8 29.5158 10.4 29.5158 10 29.1158C9.8 28.9158 9.6 28.7158 9.2 26.8158L8.8 26.7158C7.1 27.7158 6.8 27.7158 6.6 27.7158C6.1 27.7158 5.7 27.4158 4.9 26.6158C4.1 25.8158 3.8 25.5158 3.8 24.9158C3.8 24.7158 3.8 24.4158 4.8 22.7158L4.7 22.3158C2.8 21.8158 2.6 21.6158 2.4 21.5158C2 21.1158 2 20.7158 2 19.5158C2 18.3158 2 17.9158 2.4 17.5158C2.6 17.3158 2.8 17.1158 4.7 16.7158L4.8 16.3158C3.8 14.6158 3.8 14.3158 3.8 14.1158C3.8 13.6158 4.1 13.2158 4.9 12.4158C5.7 11.6158 6 11.3158 6.6 11.3158C6.8 11.3158 7.1 11.3158 8.8 12.3158L9.2 12.2158C9.7 10.3158 9.9 10.1158 10 9.91584C10.4 9.51584 10.8 9.51584 12 9.51584C13.2 9.51584 13.6 9.51584 14 9.91584C14.2 10.1158 14.4 10.3158 14.8 12.2158L15.2 12.3158C16.9 11.3158 17.2 11.3158 17.4 11.3158C17.9 11.3158 18.3 11.6158 19.1 12.4158C19.9 13.2158 20.2 13.5158 20.2 14.1158C20.2 14.3158 20.2 14.6158 19.2 16.3158L19.3 16.7158C21.2 17.1158 21.4 17.3158 21.6 17.5158ZM20 19.5158C20 19.3158 20 19.1158 20 18.9158C19.6 18.8158 18.9 18.6158 18.4 18.5158C18.1 18.4158 17.8 18.2158 17.7 17.9158L17.2 16.6158C17.1 16.3158 17.1 16.0158 17.3 15.7158C17.6 15.2158 17.9 14.6158 18.1 14.2158C18 14.1158 17.9 14.0158 17.7 13.8158C17.5 13.6158 17.4 13.5158 17.3 13.4158C16.9 13.6158 16.3 13.9158 15.8 14.2158C15.5 14.4158 15.2 14.4158 14.9 14.3158L13.6 13.8158C13.3 13.7158 13.1 13.4158 13 13.1158C12.9 12.5158 12.7 11.9158 12.6 11.5158C12.3 11.5158 11.8 11.5158 11.4 11.5158C11.3 11.9158 11.1 12.6158 11 13.1158C10.9 13.4158 10.7 13.7158 10.4 13.8158L9.1 14.3158C8.8 14.4158 8.5 14.4158 8.2 14.2158C7.7 13.9158 7.1 13.6158 6.7 13.4158C6.6 13.5158 6.4 13.6158 6.3 13.8158C6.1 14.0158 6 14.1158 5.9 14.2158C6.1 14.6158 6.4 15.2158 6.7 15.7158C6.9 16.0158 6.9 16.3158 6.8 16.6158L6.3 17.9158C6.2 18.2158 6 18.4158 5.6 18.5158C5 18.6158 4.4 18.8158 4 18.9158C4 19.1158 4 19.3158 4 19.5158C4 19.7158 4 19.9158 4 20.1158C4.4 20.2158 5.1 20.4158 5.6 20.5158C5.9 20.6158 6.2 20.8158 6.3 21.1158L6.8 22.4158C6.9 22.7158 6.9 23.0158 6.7 23.3158C6.4 23.8158 6.1 24.4158 5.9 24.8158C6 24.9158 6.1 25.1158 6.3 25.2158C6.5 25.4158 6.6 25.5158 6.7 25.6158C7.1 25.4158 7.7 25.1158 8.2 24.8158C8.5 24.6158 8.8 24.6158 9.1 24.7158L10.4 25.2158C10.7 25.3158 10.9 25.6158 11 25.9158C11.1 26.5158 11.3 27.1158 11.4 27.5158C11.7 27.5158 12.2 27.5158 12.6 27.5158C12.7 27.1158 12.9 26.4158 13 25.9158C13.1 25.6158 13.3 25.3158 13.6 25.2158L14.9 24.7158C15.2 24.6158 15.5 24.6158 15.8 24.8158C16.3 25.1158 16.9 25.4158 17.3 25.6158C17.4 25.5158 17.6 25.4158 17.7 25.2158C17.9 25.0158 18 24.9158 18.1 24.8158C17.9 24.4158 17.6 23.8158 17.3 23.3158C17.1 23.0158 17.1 22.7158 17.2 22.4158L17.7 21.1158C17.8 20.8158 18.1 20.6158 18.4 20.5158C19 20.4158 19.6 20.2158 20 20.1158C20 19.9158 20 19.7158 20 19.5158ZM16 19.5158C16 21.7158 14.2 23.5158 12 23.5158C9.8 23.5158 8 21.7158 8 19.5158C8 17.3158 9.8 15.5158 12 15.5158C14.2 15.5158 16 17.3158 16 19.5158ZM14 19.5158C14 18.4158 13.1 17.5158 12 17.5158C10.9 17.5158 10 18.4158 10 19.5158C10 20.6158 10.9 21.5158 12 21.5158C13.1 21.5158 14 20.6158 14 19.5158ZM30.4 11.1158C30.2 11.7158 29.9 12.1158 29.6 12.6158L29.5 12.7158C28.7 13.5158 28 13.2158 27.7 13.1158L26.2 12.5158C26 12.6158 25.8 12.7158 25.6 12.8158L25.1 14.6158C25.1 14.7158 25.1 14.7158 25 14.8158C24.7 15.3158 24.2 15.7158 23.6 15.7158C23.5 15.7158 23.5 15.7158 23.4 15.7158C23.1 15.6158 22.9 15.6158 22.7 15.5158C22.5 15.5158 22.3 15.4158 22 15.4158C21.9 15.4158 21.8 15.4158 21.8 15.3158C21.3 15.0158 20.9 14.5158 20.9 13.9158L21.1 11.9158L20.7 11.5158H18.7C18 11.5158 17.5 11.0158 17.3 10.5158C17.3 10.4158 17.2 10.4158 17.2 10.3158V10.2158C17.1 9.81584 17 9.41584 17 8.81584C17 8.11584 17.5 7.51584 18.3 7.31584L20.1 6.81584L20.2 6.61584C20.3 6.51584 20.3 6.41584 20.4 6.31584L19.8 4.51584C19.5 3.71584 19.8 3.01584 20.5 2.71584C20.9 2.51584 21.3 2.31584 21.9 2.11584C22.5 1.81584 23.3 2.11584 23.7 2.81584L24.6 4.31584C24.6 4.31584 24.7 4.31584 24.7 4.41584H24.8C24.9 4.41584 24.9 4.41584 25 4.41584L26.5 3.21584C26.5 3.21584 26.6 3.11584 26.7 3.11584C27.2 2.91584 27.7 2.91584 28.2 3.11584C28.3 3.11584 28.3 3.21584 28.4 3.21584C28.9 3.51584 29.2 3.91584 29.6 4.41584C30 4.91584 30.1 5.41584 29.7 6.11584C29.7 6.21584 29.6 6.31584 29.6 6.31584L28.4 7.71584C28.4 7.91584 28.5 8.11584 28.5 8.31584L30.1 9.31584C30.2 9.31584 30.2 9.41584 30.3 9.41584C30.8 10.2158 30.5 10.9158 30.4 11.1158ZM28.4 10.7158L26.9 9.71584C26.8 9.71584 26.8 9.61584 26.7 9.61584C26.6 9.51584 26.3 9.11584 26.3 8.51584C26.3 8.31584 26.3 8.11584 26.3 7.91584C26.3 7.81584 26.2 7.71584 26.2 7.61584C26.2 7.31584 26.2 6.91584 26.6 6.51584L27.7 5.31584C27.6 5.21584 27.5 5.11584 27.4 5.01584L26.1 6.01584C25.9 6.11584 25.8 6.21584 25.6 6.31584C25.2 6.51584 24.9 6.51584 24.6 6.31584C24.5 6.31584 24.5 6.31584 24.4 6.31584C24.3 6.31584 24.1 6.21584 23.9 6.21584C23.4 6.11584 23.2 5.91584 23 5.71584C23 5.71584 23 5.61584 22.9 5.51584L22.1 4.11584C22 4.11584 21.9 4.21584 21.8 4.21584L22.5 6.11584C22.6 6.41584 22.6 6.61584 22.5 6.91584C22.4 7.11584 22.3 7.21584 22.2 7.41584C22.1 7.51584 22 7.51584 22 7.61584L21.7 8.21584C21.6 8.51584 21.3 8.61584 21.1 8.71584L19.1 9.21584C19.1 9.31584 19.1 9.31584 19.1 9.41584H20.9C21.5 9.41584 21.9 9.71584 22 9.91584L22.6 10.5158C22.7 10.6158 23.1 11.0158 23.1 11.6158L22.9 13.4158C23 13.4158 23 13.4158 23.1 13.4158C23.2 13.4158 23.2 13.4158 23.3 13.4158L23.7 11.9158C23.8 11.4158 24.2 11.0158 24.7 10.9158C24.9 10.8158 25 10.8158 25.1 10.7158C25.7 10.2158 26.2 10.3158 26.5 10.5158L28.1 11.1158C28.3 11.0158 28.3 10.9158 28.4 10.7158Z" fill="black"/>
</svg>
