<svg width="32" height="32" viewBox="0 0 32 32" fill="none" xmlns="http://www.w3.org/2000/svg">
<path fill-rule="evenodd" clip-rule="evenodd" d="M9 3C6.79086 3 5 4.79086 5 7C5 9.20914 6.79086 11 9 11C11.2091 11 13 9.20914 13 7C13 4.79086 11.2091 3 9 3ZM7 7C7 5.89543 7.89543 5 9 5C10.1046 5 11 5.89543 11 7C11 8.10457 10.1046 9 9 9C7.89543 9 7 8.10457 7 7Z" fill="black"/>
<path fill-rule="evenodd" clip-rule="evenodd" d="M7 12C4.74772 12 3 13.7477 3 16V21C3 21.5523 3.44772 22 4 22H6V29C6 29.5523 6.44772 30 7 30H11C11.5523 30 12 29.5523 12 29V22H14C14.5523 22 15 21.5523 15 21V16C15 13.7477 13.2523 12 11 12H7ZM5 16C5 14.8523 5.85228 14 7 14H11C12.1477 14 13 14.8523 13 16V20H11C10.4477 20 10 20.4477 10 21V28H8V21C8 20.4477 7.55228 20 7 20H5V16Z" fill="black"/>
<path fill-rule="evenodd" clip-rule="evenodd" d="M19.1405 14.718C20.2364 10.7993 25.683 10.927 26.8551 14.7036L29.9552 24.7039C30.0492 25.0074 29.9935 25.3375 29.805 25.5932C29.6165 25.849 29.3177 26 29 26H26V29C26 29.5523 25.5523 30 25 30H21C20.4477 30 20 29.5523 20 29V26H17C16.6823 26 16.3835 25.849 16.195 25.5932C16.0065 25.3375 15.9508 25.0074 16.0449 24.7039L19.1405 14.718ZM24.9449 15.2964C24.3186 13.2782 21.5784 13.4011 21.064 15.2659C21.0612 15.276 21.0583 15.2861 21.0552 15.2961L18.357 24H21C21.5523 24 22 24.4477 22 25V28H24V25C24 24.4477 24.4477 24 25 24H27.6431L24.9449 15.2964Z" fill="black"/>
<path fill-rule="evenodd" clip-rule="evenodd" d="M23 3C20.7477 3 19 4.74772 19 7V10C19 10.5523 19.4477 11 20 11H26C26.5523 11 27 10.5523 27 10V7C27 4.74772 25.2523 3 23 3ZM21 7C21 5.85228 21.8523 5 23 5C24.1477 5 25 5.85228 25 7V9H21V7Z" fill="black"/>
</svg>
