<svg width="32" height="32" viewBox="0 0 32 32" fill="none" xmlns="http://www.w3.org/2000/svg">
<path fill-rule="evenodd" clip-rule="evenodd" d="M6 7C7.86384 7 9.42994 8.27477 9.87398 10H22.126C22.5701 8.27477 24.1362 7 26 7C28.2091 7 30 8.79086 30 11C30 13.2091 28.2091 15 26 15C24.1362 15 22.5701 13.7252 22.126 12H9.87398C9.71821 12.6052 9.42435 13.155 9.02799 13.6138L13.6071 18.1929C14.6221 19.2078 16.0807 19.8749 17.57 19.9842L16.2929 18.7071C15.9024 18.3166 15.9024 17.6834 16.2929 17.2929C16.6834 16.9024 17.3166 16.9024 17.7071 17.2929L21.4142 21L17.7071 24.7071C17.3166 25.0976 16.6834 25.0976 16.2929 24.7071C15.9024 24.3166 15.9024 23.6834 16.2929 23.2929L17.5962 21.9896C15.5693 21.8851 13.5878 21.0021 12.1929 19.6071L7.35165 14.7659C6.92945 14.9174 6.47437 15 6 15C3.79086 15 2 13.2091 2 11C2 8.79086 3.79086 7 6 7ZM4 11C4 9.89543 4.89543 9 6 9C7.10457 9 8 9.89543 8 11C8 12.1046 7.10457 13 6 13C4.89543 13 4 12.1046 4 11ZM26 13C24.8954 13 24 12.1046 24 11C24 9.89543 24.8954 9 26 9C27.1046 9 28 9.89543 28 11C28 12.1046 27.1046 13 26 13Z" fill="black"/>
<path fill-rule="evenodd" clip-rule="evenodd" d="M22 21C22 18.7909 23.7909 17 26 17C28.2091 17 30 18.7909 30 21C30 23.2091 28.2091 25 26 25C23.7909 25 22 23.2091 22 21ZM26 19C24.8954 19 24 19.8954 24 21C24 22.1046 24.8954 23 26 23C27.1046 23 28 22.1046 28 21C28 19.8954 27.1046 19 26 19Z" fill="black"/>
</svg>
