<?xml version="1.0" encoding="UTF-8"?>
<svg width="24px" height="24px" viewBox="0 0 24 24" version="1.1" xmlns="http://www.w3.org/2000/svg" xmlns:xlink="http://www.w3.org/1999/xlink">
    <!-- Generator: Sketch 48.2 (47327) - http://www.bohemiancoding.com/sketch -->
    <title>git-commit</title>
    <desc>Created with Sketch.</desc>
    <defs></defs>
    <g id="Page-1" stroke="none" stroke-width="1" fill="none" fill-rule="evenodd" stroke-linecap="round" stroke-linejoin="round">
        <g id="git-commit" stroke="#000000" stroke-width="1.5">
            <path d="M4,10 C5.657,10 7,8.657 7,7 C7,5.343 5.657,4 4,4 C2.343,4 1,5.343 1,7 C1,8.657 2.343,10 4,10 Z" id="Stroke-1"></path>
            <path d="M4,20 C5.657,20 7,18.657 7,17 C7,15.343 5.657,14 4,14 C2.343,14 1,15.343 1,17 C1,18.657 2.343,20 4,20 Z" id="Stroke-3"></path>
            <path d="M20,10 C21.657,10 23,8.657 23,7 C23,5.343 21.657,4 20,4 C18.343,4 17,5.343 17,7 C17,8.657 18.343,10 20,10 Z" id="Stroke-5"></path>
            <path d="M7,7 L17,7" id="Stroke-7"></path>
            <path d="M7,17 L12.171,17 C12.702,17 13.211,16.789 13.586,16.414 L17,13" id="Stroke-9"></path>
            <path d="M13,13 L17,13" id="Stroke-11"></path>
            <path d="M17,13 L17,17" id="Stroke-13"></path>
        </g>
    </g>
</svg>