<svg width="32" height="32" viewBox="0 0 32 32" fill="none" xmlns="http://www.w3.org/2000/svg">
<path fill-rule="evenodd" clip-rule="evenodd" d="M6 7C3.79086 7 2 8.79086 2 11C2 13.2091 3.79086 15 6 15C7.86384 15 9.42994 13.7252 9.87398 12H22.126C22.5701 13.7252 24.1362 15 26 15C28.2091 15 30 13.2091 30 11C30 8.79086 28.2091 7 26 7C24.1362 7 22.5701 8.27477 22.126 10H9.87398C9.42994 8.27477 7.86384 7 6 7ZM4 11C4 9.89543 4.89543 9 6 9C7.10457 9 8 9.89543 8 11C8 12.1046 7.10457 13 6 13C4.89543 13 4 12.1046 4 11ZM24 11C24 9.89543 24.8954 9 26 9C27.1046 9 28 9.89543 28 11C28 12.1046 27.1046 13 26 13C24.8954 13 24 12.1046 24 11Z" fill="black"/>
<path fill-rule="evenodd" clip-rule="evenodd" d="M22.126 22C22.5701 23.7252 24.1362 25 26 25C28.2091 25 30 23.2091 30 21C30 18.7909 28.2091 17 26 17C24.1362 17 22.5701 18.2748 22.126 20H9.87398C9.42994 18.2748 7.86384 17 6 17C3.79086 17 2 18.7909 2 21C2 23.2091 3.79086 25 6 25C7.86384 25 9.42994 23.7252 9.87398 22H22.126ZM24 21C24 19.8954 24.8954 19 26 19C27.1046 19 28 19.8954 28 21C28 22.1046 27.1046 23 26 23C24.8954 23 24 22.1046 24 21ZM6 19C4.89543 19 4 19.8954 4 21C4 22.1046 4.89543 23 6 23C7.10457 23 8 22.1046 8 21C8 19.8954 7.10457 19 6 19Z" fill="black"/>
</svg>
