<svg width="32" height="32" viewBox="0 0 32 32" fill="none" xmlns="http://www.w3.org/2000/svg">
<path fill-rule="evenodd" clip-rule="evenodd" d="M6 7C3.79086 7 2 8.79086 2 11C2 13.2091 3.79086 15 6 15C6.47437 15 6.92945 14.9174 7.35165 14.7659L12.1929 19.6071C13.6804 21.0946 15.8347 22 18 22H22.126C22.5701 23.7252 24.1362 25 26 25C28.2091 25 30 23.2091 30 21C30 18.7909 28.2091 17 26 17C24.1362 17 22.5701 18.2748 22.126 20H18C16.3653 20 14.7196 19.3054 13.6071 18.1929L9.02799 13.6138C9.42435 13.155 9.71821 12.6052 9.87398 12H22.126C22.5701 13.7252 24.1362 15 26 15C28.2091 15 30 13.2091 30 11C30 8.79086 28.2091 7 26 7C24.1362 7 22.5701 8.27477 22.126 10H9.87398C9.42994 8.27477 7.86384 7 6 7ZM4 11C4 9.89543 4.89543 9 6 9C7.10457 9 8 9.89543 8 11C8 12.1046 7.10457 13 6 13C4.89543 13 4 12.1046 4 11ZM26 9C24.8954 9 24 9.89543 24 11C24 12.1046 24.8954 13 26 13C27.1046 13 28 12.1046 28 11C28 9.89543 27.1046 9 26 9ZM26 19C24.8954 19 24 19.8954 24 21C24 22.1046 24.8954 23 26 23C27.1046 23 28 22.1046 28 21C28 19.8954 27.1046 19 26 19Z" fill="black"/>
</svg>
