<svg width="32" height="32" viewBox="0 0 32 32" fill="none" xmlns="http://www.w3.org/2000/svg">
<path fill-rule="evenodd" clip-rule="evenodd" d="M12 10C12 7.79086 13.7909 6 16 6C18.2091 6 20 7.79086 20 10C20 11.8638 18.7252 13.4299 17 13.874V18.126C18.4056 18.4878 19.5122 19.5944 19.874 21H22.126C22.5701 19.2748 24.1362 18 26 18C28.2091 18 30 19.7909 30 22C30 24.2091 28.2091 26 26 26C24.1362 26 22.5701 24.7252 22.126 23H19.874C19.4299 24.7252 17.8638 26 16 26C14.1362 26 12.5701 24.7252 12.126 23H9.87398C9.42994 24.7252 7.86384 26 6 26C3.79086 26 2 24.2091 2 22C2 19.7909 3.79086 18 6 18C7.86384 18 9.42994 19.2748 9.87398 21H12.126C12.4878 19.5944 13.5944 18.4878 15 18.126V13.874C13.2748 13.4299 12 11.8638 12 10ZM16 8C14.8954 8 14 8.89543 14 10C14 11.1046 14.8954 12 16 12C17.1046 12 18 11.1046 18 10C18 8.89543 17.1046 8 16 8ZM16 20C14.8954 20 14 20.8954 14 22C14 23.1046 14.8954 24 16 24C17.1046 24 18 23.1046 18 22C18 20.8954 17.1046 20 16 20ZM4 22C4 20.8954 4.89543 20 6 20C7.10457 20 8 20.8954 8 22C8 23.1046 7.10457 24 6 24C4.89543 24 4 23.1046 4 22ZM26 20C24.8954 20 24 20.8954 24 22C24 23.1046 24.8954 24 26 24C27.1046 24 28 23.1046 28 22C28 20.8954 27.1046 20 26 20Z" fill="black"/>
</svg>
