<svg width="32" height="32" viewBox="0 0 32 32" fill="none" xmlns="http://www.w3.org/2000/svg">
<path fill-rule="evenodd" clip-rule="evenodd" d="M6 7C7.86384 7 9.42994 8.27477 9.87398 10H22.126C22.5701 8.27477 24.1362 7 26 7C28.2091 7 30 8.79086 30 11C30 13.2091 28.2091 15 26 15C25.5256 15 25.0706 14.9174 24.6484 14.7659L19.8071 19.6071C18.3196 21.0946 16.1653 22 14 22H9.87398C9.42993 23.7252 7.86383 25 6 25C3.79086 25 2 23.2091 2 21C2 18.7909 3.79086 17 6 17C7.86384 17 9.42995 18.2748 9.87399 20H14C15.6347 20 17.2804 19.3054 18.3929 18.1929L22.972 13.6138C22.5757 13.155 22.2818 12.6052 22.126 12H9.87398C9.42994 13.7252 7.86384 15 6 15C3.79086 15 2 13.2091 2 11C2 8.79086 3.79086 7 6 7ZM6 9C4.89543 9 4 9.89543 4 11C4 12.1046 4.89543 13 6 13C7.10457 13 8 12.1046 8 11C8 9.89543 7.10457 9 6 9ZM8 21C8 19.8954 7.10457 19 6 19C4.89543 19 4 19.8954 4 21C4 22.1046 4.89543 23 6 23C7.10457 23 8 22.1046 8 21ZM26 13C24.8954 13 24 12.1046 24 11C24 9.89543 24.8954 9 26 9C27.1046 9 28 9.89543 28 11C28 12.1046 27.1046 13 26 13Z" fill="black"/>
</svg>
