<svg width="32" height="32" viewBox="0 0 32 32" fill="none" xmlns="http://www.w3.org/2000/svg">
<path fill-rule="evenodd" clip-rule="evenodd" d="M7 3C4.79086 3 3 4.79086 3 7C3 8.86384 4.27477 10.4299 6 10.874V21.126C4.27477 21.5701 3 23.1362 3 25C3 27.2091 4.79086 29 7 29C9.20914 29 11 27.2091 11 25C11 23.1362 9.72523 21.5701 8 21.126V10.874C9.72523 10.4299 11 8.86384 11 7C11 4.79086 9.20914 3 7 3ZM5 7C5 5.89543 5.89543 5 7 5C8.10457 5 9 5.89543 9 7C9 8.10457 8.10457 9 7 9C5.89543 9 5 8.10457 5 7ZM5 25C5 23.8954 5.89543 23 7 23C8.10457 23 9 23.8954 9 25C9 26.1046 8.10457 27 7 27C5.89543 27 5 26.1046 5 25Z" fill="black"/>
<path fill-rule="evenodd" clip-rule="evenodd" d="M25 3C22.7909 3 21 4.79086 21 7C21 8.86384 22.2748 10.4299 24 10.874V21.126C22.2748 21.5701 21 23.1362 21 25C21 27.2091 22.7909 29 25 29C27.2091 29 29 27.2091 29 25C29 23.1362 27.7252 21.5701 26 21.126V10.874C27.7252 10.4299 29 8.86384 29 7C29 4.79086 27.2091 3 25 3ZM23 7C23 5.89543 23.8954 5 25 5C26.1046 5 27 5.89543 27 7C27 8.10457 26.1046 9 25 9C23.8954 9 23 8.10457 23 7ZM25 23C23.8954 23 23 23.8954 23 25C23 26.1046 23.8954 27 25 27C26.1046 27 27 26.1046 27 25C27 23.8954 26.1046 23 25 23Z" fill="black"/>
<path d="M16.7071 12.2929C17.0976 12.6834 17.0976 13.3166 16.7071 13.7071L15.4142 15H19C19.5523 15 20 15.4477 20 16C20 16.5523 19.5523 17 19 17H15.4142L16.7071 18.2929C17.0976 18.6834 17.0976 19.3166 16.7071 19.7071C16.3166 20.0976 15.6834 20.0976 15.2929 19.7071L11.5858 16L15.2929 12.2929C15.6834 11.9024 16.3166 11.9024 16.7071 12.2929Z" fill="black"/>
</svg>
