<svg width="32" height="32" viewBox="0 0 32 32" fill="none" xmlns="http://www.w3.org/2000/svg">
<path fill-rule="evenodd" clip-rule="evenodd" d="M9.87398 10C9.42994 8.27477 7.86384 7 6 7C3.79086 7 2 8.79086 2 11C2 13.2091 3.79086 15 6 15C7.86384 15 9.42994 13.7252 9.87398 12H22.126C22.5701 13.7252 24.1362 15 26 15C28.2091 15 30 13.2091 30 11C30 8.79086 28.2091 7 26 7C24.1362 7 22.5701 8.27477 22.126 10H9.87398ZM4 11C4 9.89543 4.89543 9 6 9C7.10457 9 8 9.89543 8 11C8 12.1046 7.10457 13 6 13C4.89543 13 4 12.1046 4 11ZM24 11C24 12.1046 24.8954 13 26 13C27.1046 13 28 12.1046 28 11C28 9.89543 27.1046 9 26 9C24.8954 9 24 9.89543 24 11Z" fill="black"/>
<path fill-rule="evenodd" clip-rule="evenodd" d="M6 17C3.79086 17 2 18.7909 2 21C2 23.2091 3.79086 25 6 25C7.86383 25 9.42993 23.7252 9.87398 22H14C16.1653 22 18.3196 21.0946 19.8071 19.6071L21 18.4142V20C21 20.5523 21.4477 21 22 21C22.5523 21 23 20.5523 23 20V15H18C17.4477 15 17 15.4477 17 16C17 16.5523 17.4477 17 18 17H19.5858L18.3929 18.1929C17.2804 19.3054 15.6347 20 14 20H9.87399C9.42995 18.2748 7.86384 17 6 17ZM4 21C4 19.8954 4.89543 19 6 19C7.10457 19 8 19.8954 8 21C8 22.1046 7.10457 23 6 23C4.89543 23 4 22.1046 4 21Z" fill="black"/>
</svg>
