<svg width="32" height="32" viewBox="0 0 32 32" fill="none" xmlns="http://www.w3.org/2000/svg">
<path fill-rule="evenodd" clip-rule="evenodd" d="M26 13C24.1362 13 22.5701 11.7252 22.126 10H19C17.8523 10 17 10.8523 17 12V13C17 14.2098 16.4957 15.274 15.6799 16C16.4957 16.726 17 17.7902 17 19V20C17 21.1477 17.8523 22 19 22H22.126C22.5701 20.2748 24.1362 19 26 19C28.2091 19 30 20.7909 30 23C30 25.2091 28.2091 27 26 27C24.1362 27 22.5701 25.7252 22.126 24H19C16.7477 24 15 22.2523 15 20V19C15 17.8523 14.1477 17 13 17H9.87398C9.42994 18.7252 7.86384 20 6 20C3.79086 20 2 18.2091 2 16C2 13.7909 3.79086 12 6 12C7.86384 12 9.42994 13.2748 9.87398 15H13C14.1477 15 15 14.1477 15 13V12C15 9.74771 16.7477 8 19 8H22.126C22.5701 6.27477 24.1362 5 26 5C28.2091 5 30 6.79086 30 9C30 11.2091 28.2091 13 26 13ZM26 7C24.8954 7 24 7.89543 24 9C24 10.1046 24.8954 11 26 11C27.1046 11 28 10.1046 28 9C28 7.89543 27.1046 7 26 7ZM26 21C24.8954 21 24 21.8954 24 23C24 24.1046 24.8954 25 26 25C27.1046 25 28 24.1046 28 23C28 21.8954 27.1046 21 26 21ZM4 16C4 14.8954 4.89543 14 6 14C7.10457 14 8 14.8954 8 16C8 17.1046 7.10457 18 6 18C4.89543 18 4 17.1046 4 16Z" fill="black"/>
</svg>
