<?xml version="1.0" encoding="UTF-8"?>
<svg width="24px" height="24px" viewBox="0 0 24 24" version="1.1" xmlns="http://www.w3.org/2000/svg" xmlns:xlink="http://www.w3.org/1999/xlink">
    <!-- Generator: Sketch 48.2 (47327) - http://www.bohemiancoding.com/sketch -->
    <title>git-branch</title>
    <desc>Created with Sketch.</desc>
    <defs></defs>
    <g id="Page-1" stroke="none" stroke-width="1" fill="none" fill-rule="evenodd" stroke-linecap="round" stroke-linejoin="round">
        <g id="git-branch" stroke="#000000" stroke-width="1.5">
            <path d="M4,10 C5.657,10 7,8.657 7,7 C7,5.343 5.657,4 4,4 C2.343,4 1,5.343 1,7 C1,8.657 2.343,10 4,10 Z" id="Stroke-1"></path>
            <path d="M20,20 C21.657,20 23,18.657 23,17 C23,15.343 21.657,14 20,14 C18.343,14 17,15.343 17,17 C17,18.657 18.343,20 20,20 Z" id="Stroke-3"></path>
            <path d="M20,10 C21.657,10 23,8.657 23,7 C23,5.343 21.657,4 20,4 C18.343,4 17,5.343 17,7 C17,8.657 18.343,10 20,10 Z" id="Stroke-5"></path>
            <path d="M7,7 L17,7" id="Stroke-7"></path>
            <path d="M17,17 C15.079,17 13.237,16.237 11.879,14.879 L6.121,9.121" id="Stroke-9"></path>
        </g>
    </g>
</svg>