<svg width="32" height="32" viewBox="0 0 32 32" fill="none" xmlns="http://www.w3.org/2000/svg">
<path fill-rule="evenodd" clip-rule="evenodd" d="M2 9C2 6.79086 3.79086 5 6 5C7.86384 5 9.42994 6.27477 9.87398 8H13C15.2523 8 17 9.74771 17 12V13C17 14.1477 17.8523 15 19 15H22.126C22.5701 13.2748 24.1362 12 26 12C28.2091 12 30 13.7909 30 16C30 18.2091 28.2091 20 26 20C24.1362 20 22.5701 18.7252 22.126 17H19C17.8523 17 17 17.8523 17 19V20C17 22.2523 15.2523 24 13 24H9.87398C9.42994 25.7252 7.86384 27 6 27C3.79086 27 2 25.2091 2 23C2 20.7909 3.79086 19 6 19C7.86384 19 9.42994 20.2748 9.87398 22H13C14.1477 22 15 21.1477 15 20V19C15 17.7902 15.5043 16.726 16.3201 16C15.5043 15.274 15 14.2098 15 13V12C15 10.8523 14.1477 10 13 10H9.87398C9.42994 11.7252 7.86384 13 6 13C3.79086 13 2 11.2091 2 9ZM6 7C4.89543 7 4 7.89543 4 9C4 10.1046 4.89543 11 6 11C7.10457 11 8 10.1046 8 9C8 7.89543 7.10457 7 6 7ZM6 21C4.89543 21 4 21.8954 4 23C4 24.1046 4.89543 25 6 25C7.10457 25 8 24.1046 8 23C8 21.8954 7.10457 21 6 21ZM24 16C24 14.8954 24.8954 14 26 14C27.1046 14 28 14.8954 28 16C28 17.1046 27.1046 18 26 18C24.8954 18 24 17.1046 24 16Z" fill="black"/>
</svg>
