<svg width="32" height="32" viewBox="0 0 32 32" fill="none" xmlns="http://www.w3.org/2000/svg">
<path fill-rule="evenodd" clip-rule="evenodd" d="M7 2C4.79086 2 3 3.79086 3 6C3 7.86384 4.27477 9.42994 6 9.87398V22.126C4.27477 22.5701 3 24.1362 3 26C3 28.2091 4.79086 30 7 30C9.20914 30 11 28.2091 11 26C11 24.1362 9.72523 22.5701 8 22.126V9.87398C9.72523 9.42994 11 7.86384 11 6C11 3.79086 9.20914 2 7 2ZM5 6C5 4.89543 5.89543 4 7 4C8.10457 4 9 4.89543 9 6C9 7.10457 8.10457 8 7 8C5.89543 8 5 7.10457 5 6ZM5 26C5 24.8954 5.89543 24 7 24C8.10457 24 9 24.8954 9 26C9 27.1046 8.10457 28 7 28C5.89543 28 5 27.1046 5 26Z" fill="black"/>
<path fill-rule="evenodd" clip-rule="evenodd" d="M25 2C22.7909 2 21 3.79086 21 6C21 7.86384 22.2748 9.42994 24 9.87398V22.126C22.2748 22.5701 21 24.1362 21 26C21 28.2091 22.7909 30 25 30C27.2091 30 29 28.2091 29 26C29 24.1362 27.7252 22.5701 26 22.126V9.87398C27.7252 9.42994 29 7.86384 29 6C29 3.79086 27.2091 2 25 2ZM23 6C23 4.89543 23.8954 4 25 4C26.1046 4 27 4.89543 27 6C27 7.10457 26.1046 8 25 8C23.8954 8 23 7.10457 23 6ZM25 24C23.8954 24 23 24.8954 23 26C23 27.1046 23.8954 28 25 28C26.1046 28 27 27.1046 27 26C27 24.8954 26.1046 24 25 24Z" fill="black"/>
<path d="M17.2929 15.2929C17.6834 14.9024 18.3166 14.9024 18.7071 15.2929L22.4142 19L18.7071 22.7071C18.3166 23.0976 17.6834 23.0976 17.2929 22.7071C16.9024 22.3166 16.9024 21.6834 17.2929 21.2929L18.5858 20H15C14.4477 20 14 19.5523 14 19C14 18.4477 14.4477 18 15 18H18.5858L17.2929 16.7071C16.9024 16.3166 16.9024 15.6834 17.2929 15.2929Z" fill="black"/>
<path d="M14.7071 9.29289C15.0976 9.68342 15.0976 10.3166 14.7071 10.7071L13.4142 12H17C17.5523 12 18 12.4477 18 13C18 13.5523 17.5523 14 17 14H13.4142L14.7071 15.2929C15.0976 15.6834 15.0976 16.3166 14.7071 16.7071C14.3166 17.0976 13.6834 17.0976 13.2929 16.7071L9.58578 13L13.2929 9.29289C13.6834 8.90237 14.3166 8.90237 14.7071 9.29289Z" fill="black"/>
</svg>
