<svg width="32" height="32" viewBox="0 0 32 32" fill="none" xmlns="http://www.w3.org/2000/svg">
<path d="M30.11 14.38L17.31 1.57998C16.954 1.2258 16.4722 1.02698 15.97 1.02698C15.4678 1.02698 14.986 1.2258 14.63 1.57998L12 4.23998L15.37 7.60998C15.7678 7.47367 16.196 7.45209 16.6055 7.54771C17.015 7.64334 17.3893 7.85229 17.6856 8.15068C17.9819 8.44907 18.1882 8.82484 18.2809 9.235C18.3737 9.64516 18.3491 10.0731 18.21 10.47L21.44 13.69C21.82 13.5581 22.2284 13.5305 22.6227 13.6101C23.017 13.6897 23.3828 13.8735 23.6819 14.1424C23.981 14.4114 24.2026 14.7556 24.3235 15.1392C24.4445 15.5228 24.4603 15.9319 24.3695 16.3237C24.2787 16.7156 24.0844 17.0759 23.8071 17.3672C23.5297 17.6585 23.1793 17.8701 22.7923 17.98C22.4054 18.0899 21.9961 18.0941 21.607 17.9921C21.2179 17.8901 20.8633 17.6856 20.58 17.4C20.2668 17.0869 20.0538 16.6877 19.9683 16.2531C19.8828 15.8185 19.9287 15.3684 20.1 14.96L17.1 11.96V19.96C17.3242 20.0619 17.5276 20.2042 17.7 20.38C18.015 20.6945 18.2295 21.0954 18.3166 21.532C18.4036 21.9685 18.3592 22.4211 18.189 22.8324C18.0188 23.2436 17.7304 23.5952 17.3603 23.8426C16.9903 24.0899 16.5551 24.222 16.11 24.222C15.6649 24.222 15.2298 24.0899 14.8597 23.8426C14.4896 23.5952 14.2012 23.2436 14.031 22.8324C13.8608 22.4211 13.8164 21.9685 13.9034 21.532C13.9905 21.0954 14.2051 20.6945 14.52 20.38C14.7295 20.1665 14.9817 19.9995 15.26 19.89V11.89C14.9829 11.7781 14.7312 11.6115 14.52 11.4C14.184 11.0827 13.9539 10.6697 13.8608 10.217C13.7678 9.76437 13.8164 9.29405 14 8.86998L10.67 5.53998L1.89001 14.32C1.53583 14.676 1.33701 15.1578 1.33701 15.66C1.33701 16.1622 1.53583 16.6439 1.89001 17L14.69 29.8C15.046 30.1542 15.5278 30.353 16.03 30.353C16.5322 30.353 17.014 30.1542 17.37 29.8L30.11 17.06C30.4642 16.704 30.663 16.2222 30.663 15.72C30.663 15.2178 30.4642 14.736 30.11 14.38V14.38Z" fill="black"/>
</svg>
