<svg width="32" height="32" viewBox="0 0 32 32" fill="none" xmlns="http://www.w3.org/2000/svg">
<path d="M23.36 24.76H14.55C14.0745 24.6739 13.6278 24.4712 13.25 24.17V24.17C11.754 22.9979 10.5635 21.4815 9.77999 19.75V19.67C9.74312 19.5635 9.67444 19.4709 9.58322 19.4047C9.49201 19.3385 9.38266 19.302 9.26999 19.3H9.19999C8.04185 19.2745 6.89475 19.0687 5.79999 18.69H5.86999C4.64169 18.3061 3.55876 17.5586 2.76424 16.5462C1.96973 15.5339 1.501 14.3043 1.41999 13.02C1.40475 12.7949 1.37469 12.5711 1.32999 12.35V11.84C1.34309 11.5298 1.38663 11.2217 1.45999 10.92C1.61491 9.88632 2.08987 8.92718 2.81812 8.17741C3.54636 7.42765 4.49126 6.92495 5.51999 6.74V6.74L6.29999 6.62H6.87999L8.35999 6.69L11.27 6.85C12.62 6.92 13.96 7 15.27 7.05C16.37 7.05 17.47 7.05 18.57 7.12H18.72V12.05C18.72 12.13 18.72 12.24 18.77 12.26C18.98 12.38 19.23 12.51 19.48 12.63V7.13H19.71C20.36 7.13 21.01 7.13 21.66 7.08C23.03 7.08 24.4 6.98 25.75 6.92L27.55 6.83L29.49 6.74H29.54C29.637 6.74038 29.7325 6.76314 29.8192 6.8065C29.906 6.84986 29.9815 6.91266 30.04 6.99V6.99C30.1609 7.13033 30.2588 7.28897 30.33 7.46V7.46C30.5014 7.92424 30.5894 8.41512 30.59 8.91V9.02C30.5811 10.1733 30.4538 11.3227 30.21 12.45V12.34C29.816 14.7234 29.1448 17.0525 28.21 19.28L28.28 19.08C27.749 20.4534 27.0287 21.7459 26.14 22.92V22.92C25.6221 23.6239 24.9339 24.1848 24.14 24.55V24.55C23.8904 24.6486 23.6328 24.7255 23.37 24.78L23.36 24.76ZM8.82999 16.76C8.82293 16.6729 8.79916 16.5881 8.75999 16.51C8.47999 15.69 8.19999 14.87 7.99999 14.04C7.53886 12.4915 7.23729 10.8999 7.09999 9.29V9.19C7.09999 9.07 7.09999 9.02 6.92999 9.03C6.59335 9.03459 6.25815 9.07482 5.92999 9.15C5.44411 9.23251 4.99403 9.45848 4.63762 9.79885C4.28121 10.1392 4.03477 10.5784 3.92999 11.06V11.06C3.85657 11.351 3.81962 11.6499 3.81999 11.95C3.82025 12.2599 3.85717 12.5687 3.92999 12.87V12.87C4.02486 13.561 4.29529 14.2161 4.71546 14.7729C5.13562 15.3296 5.69149 15.7693 6.32999 16.05C6.78952 16.2509 7.26436 16.4147 7.74999 16.54H7.82999C8.17724 16.6378 8.53168 16.708 8.88999 16.75L8.82999 16.76ZM17.83 12.22C17.6395 12.1067 17.4216 12.0479 17.2 12.05C16.9448 12.0505 16.6952 12.1255 16.482 12.2658C16.2688 12.4062 16.1013 12.6057 16 12.84V12.84C15.2 14.48 14.41 16.11 13.62 17.75C13.5067 17.9405 13.4479 18.1584 13.45 18.38C13.4497 18.6316 13.5235 18.8777 13.6622 19.0875C13.8009 19.2974 13.9984 19.4617 14.23 19.56V19.56L15.33 20.09L19.14 21.94C19.3325 22.0485 19.5491 22.1069 19.77 22.11C20.0283 22.1185 20.2833 22.0497 20.5024 21.9126C20.7215 21.7754 20.8947 21.5761 21 21.34V21.34C21.09 21.14 21.19 20.93 21.3 20.73C21.99 19.3 22.68 17.88 23.3 16.45C23.4131 16.2521 23.4717 16.0279 23.47 15.8C23.4749 15.7501 23.4749 15.6999 23.47 15.65V15.65C23.4354 15.4323 23.3468 15.2267 23.2122 15.052C23.0777 14.8773 22.9016 14.7391 22.7 14.65V14.65L20.22 13.44L17.83 12.22Z" fill="black"/>
</svg>
