<svg width="32" height="32" viewBox="0 0 32 32" fill="none" xmlns="http://www.w3.org/2000/svg">
<path fill-rule="evenodd" clip-rule="evenodd" d="M28.87 22.39L24.23 5.39001C24.0134 4.60093 23.544 3.90466 22.8937 3.40794C22.2435 2.91122 21.4483 2.64146 20.63 2.64001H9.33C9.04622 2.64001 8.77406 2.75275 8.5734 2.95341C8.37273 3.15407 8.26 3.42623 8.26 3.71001C8.26 3.9938 8.37273 4.26595 8.5734 4.46662C8.77406 4.66728 9.04622 4.78001 9.33 4.78001H20.63C20.9805 4.77973 21.3215 4.89384 21.6013 5.105C21.881 5.31617 22.0842 5.61286 22.18 5.95001L25.74 18.95C25.1843 18.7374 24.595 18.6256 24 18.62H8C7.40835 18.6268 6.8226 18.7385 6.27 18.95L8.75 9.95002C8.8436 9.60998 9.04562 9.30977 9.32537 9.095C9.60512 8.88022 9.94732 8.76261 10.3 8.76001H18.67C18.9538 8.76001 19.2259 8.64728 19.4266 8.44662C19.6273 8.24596 19.74 7.9738 19.74 7.69001C19.74 7.40623 19.6273 7.13407 19.4266 6.93341C19.2259 6.73275 18.9538 6.62001 18.67 6.62001H10.3C9.48303 6.62085 8.68881 6.88917 8.03872 7.38396C7.38864 7.87875 6.91844 8.57279 6.7 9.36001C6.91 9.36001 3.11 22.45 3.11 22.45C2.90719 23.1968 2.88048 23.9805 3.03198 24.7393C3.18349 25.4982 3.50906 26.2115 3.98307 26.8232C4.45709 27.4349 5.06661 27.9281 5.76365 28.2642C6.46069 28.6003 7.22623 28.77 8 28.76H24C25.3438 28.7574 26.6319 28.2224 27.5821 27.2721C28.5323 26.3219 29.0674 25.0338 29.07 23.69C29.0646 23.2494 28.9973 22.8118 28.87 22.39ZM24 26.62H8C7.22292 26.62 6.47766 26.3113 5.92818 25.7618C5.3787 25.2124 5.07 24.4671 5.07 23.69C5.07 22.9129 5.3787 22.1677 5.92818 21.6182C6.47766 21.0687 7.22292 20.76 8 20.76H24C24.7771 20.76 25.5223 21.0687 26.0718 21.6182C26.6213 22.1677 26.93 22.9129 26.93 23.69C26.93 24.4671 26.6213 25.2124 26.0718 25.7618C25.5223 26.3113 24.7771 26.62 24 26.62" fill="black"/>
</svg>
