<svg width="32" height="32" viewBox="0 0 32 32" fill="none" xmlns="http://www.w3.org/2000/svg">
<path d="M16 1.02002C18.0113 1.00779 20.0033 1.413 21.85 2.21002C23.6339 2.97105 25.2614 4.05603 26.65 5.41002C28.0238 6.76778 29.1237 8.37698 29.89 10.15C30.6807 11.9787 31.0956 13.9477 31.11 15.94C31.1009 17.5545 30.8377 19.1574 30.33 20.69C29.846 22.162 29.134 23.5488 28.22 24.8C27.3092 26.0418 26.2248 27.1464 25 28.08C23.7516 29.02 22.356 29.7465 20.87 30.23C20.732 30.2664 20.5873 30.269 20.448 30.2376C20.3088 30.2063 20.1791 30.142 20.07 30.05C19.9278 29.9128 19.8421 29.7273 19.83 29.53V25.34C19.8462 24.7533 19.7477 24.169 19.54 23.62C19.3793 23.2388 19.1369 22.8974 18.83 22.62C20.4858 22.4262 22.0758 21.8586 23.48 20.96C24.92 20.05 25.64 18.13 25.64 15.22C25.647 14.4467 25.5043 13.6792 25.22 12.96C24.956 12.3052 24.5729 11.7051 24.09 11.19C24.14 10.99 24.23 10.53 24.35 9.82002C24.4476 8.93255 24.2952 8.03547 23.91 7.23002C22.4115 7.35967 20.9766 7.89557 19.76 8.78002C19.1518 8.62705 18.5336 8.51678 17.91 8.45002C17.2761 8.37224 16.6385 8.32884 16 8.32002C15.3333 8.32002 14.6933 8.35002 14.08 8.41002C13.4538 8.46877 12.8344 8.58595 12.23 8.76002C10.9899 7.86326 9.52594 7.32683 8 7.21002C7.61461 8.01598 7.44902 8.90947 7.52 9.80002C7.5623 10.2674 7.66309 10.7277 7.82 11.17C7.30991 11.6906 6.90577 12.3053 6.63 12.98C6.35147 13.6867 6.21225 14.4405 6.22 15.2C6.22 18.11 6.95 20.04 8.39 20.99C9.7965 21.9423 11.4193 22.5268 13.11 22.69C12.8918 22.9282 12.7007 23.1898 12.54 23.47C12.343 23.8492 12.224 24.2641 12.19 24.69C11.5447 24.9066 10.8705 25.0246 10.19 25.04C9.29667 25.1 8.50667 24.55 7.82 23.39C7.55334 22.9874 7.20902 22.6421 6.80721 22.3742C6.40541 22.1063 5.9542 21.9213 5.48 21.83C4.74 21.98 4.72 22.29 5.41 22.76C6.17332 23.3192 6.75432 24.0916 7.08 24.98C7.59937 25.8125 8.37237 26.4562 9.28513 26.8162C10.1979 27.1763 11.2022 27.2337 12.15 26.98V29.57C12.1363 29.7727 12.0513 29.964 11.91 30.11C11.8036 30.2069 11.6748 30.2759 11.5352 30.3108C11.3956 30.3457 11.2495 30.3455 11.11 30.31C9.65355 29.7918 8.28197 29.0605 7.04 28.14C5.79259 27.2309 4.69298 26.1346 3.78 24.89C2.87995 23.6369 2.17526 22.2545 1.69 20.79C1.18213 19.2615 0.925471 17.6607 0.930001 16.05C0.919798 14.0389 1.32492 12.0473 2.12 10.2C3.65003 6.59796 6.51795 3.73005 10.12 2.20002C11.9773 1.40431 13.9795 1.00251 16 1.02002V1.02002Z" fill="black"/>
</svg>
