<svg width="32" height="32" viewBox="0 0 32 32" fill="none" xmlns="http://www.w3.org/2000/svg">
<path d="M8.6 13.46C8.40465 13.4502 8.21645 13.3834 8.05871 13.2677C7.90097 13.1521 7.78061 12.9927 7.71253 12.8093C7.64445 12.626 7.63164 12.4266 7.67569 12.2361C7.71974 12.0455 7.81871 11.872 7.96035 11.7371C8.10199 11.6022 8.28008 11.5118 8.47257 11.4771C8.66507 11.4424 8.86352 11.4649 9.04335 11.5419C9.22318 11.6188 9.3765 11.7468 9.48433 11.91C9.59216 12.0732 9.64976 12.2644 9.65 12.46C9.65017 12.5957 9.62275 12.7299 9.56939 12.8546C9.51604 12.9793 9.43788 13.0919 9.33966 13.1854C9.24144 13.279 9.12521 13.3515 8.99806 13.3987C8.8709 13.446 8.73547 13.4668 8.6 13.46ZM23.27 21.84C23.4777 21.84 23.6807 21.9016 23.8534 22.017C24.026 22.1324 24.1606 22.2963 24.2401 22.4882C24.3195 22.6801 24.3403 22.8912 24.2998 23.0949C24.2593 23.2985 24.1593 23.4856 24.0125 23.6325C23.8656 23.7793 23.6785 23.8793 23.4748 23.9198C23.2712 23.9604 23.06 23.9396 22.8682 23.8601C22.6763 23.7806 22.5123 23.646 22.397 23.4734C22.2816 23.3007 22.22 23.0977 22.22 22.89C22.2128 22.7502 22.2351 22.6105 22.2853 22.4799C22.3355 22.3492 22.4126 22.2306 22.5116 22.1316C22.6105 22.0326 22.7292 21.9555 22.8598 21.9053C22.9905 21.8551 23.1302 21.8328 23.27 21.84V21.84ZM8.6 23.94C8.39233 23.94 8.18932 23.8784 8.01665 23.7631C7.84398 23.6477 7.7094 23.4837 7.62993 23.2918C7.55046 23.1 7.52966 22.8889 7.57018 22.6852C7.61069 22.4815 7.71069 22.2944 7.85754 22.1476C8.00438 22.0007 8.19148 21.9007 8.39516 21.8602C8.59884 21.8197 8.80996 21.8405 9.00182 21.9199C9.19368 21.9994 9.35767 22.134 9.47305 22.3067C9.58842 22.4793 9.65 22.6823 9.65 22.89C9.65718 23.0298 9.63494 23.1695 9.58472 23.3002C9.53449 23.4308 9.4574 23.5495 9.35843 23.6484C9.25945 23.7474 9.14081 23.8245 9.01016 23.8747C8.87952 23.925 8.73979 23.9472 8.6 23.94V23.94ZM8.6 19.75C8.02321 19.7549 7.45884 19.9181 6.96843 20.2217C6.47801 20.5254 6.08039 20.9578 5.81891 21.472C5.55744 21.9861 5.44216 22.5622 5.48564 23.1374C5.52912 23.7125 5.72969 24.2647 6.06548 24.7337C6.40128 25.2027 6.85939 25.5705 7.38988 25.7969C7.92037 26.0234 8.50286 26.0999 9.07383 26.018C9.6448 25.9361 10.1823 25.699 10.6278 25.3326C11.0732 24.9662 11.4095 24.4845 11.6 23.94H20.3C20.5415 24.6354 21.019 25.2243 21.6495 25.6043C22.2799 25.9843 23.0236 26.1316 23.7513 26.0204C24.479 25.9092 25.1448 25.5467 25.6331 24.9957C26.1213 24.4448 26.4012 23.7403 26.4241 23.0045C26.447 22.2687 26.2115 21.5481 25.7584 20.9679C25.3053 20.3876 24.6634 19.9844 23.944 19.8282C23.2246 19.672 22.4732 19.7727 21.8203 20.1128C21.1674 20.4529 20.6543 21.011 20.37 21.69C19.67 21.33 19.37 20.36 18.84 18.54C18.4967 16.8522 17.7979 15.2568 16.79 13.86C16.144 13.1074 15.3455 12.5007 14.4473 12.08C13.5491 11.6594 12.5717 11.4344 11.58 11.42C11.3323 10.7194 10.8449 10.129 10.204 9.75301C9.56307 9.37703 8.80985 9.23973 8.07748 9.36538C7.34511 9.49104 6.68074 9.87155 6.20179 10.4397C5.72284 11.0078 5.46015 11.7269 5.46015 12.47C5.46015 13.2131 5.72284 13.9322 6.20179 14.5004C6.68074 15.0685 7.34511 15.449 8.07748 15.5747C8.80985 15.7003 9.56307 15.563 10.204 15.187C10.8449 14.8111 11.3323 14.2206 11.58 13.52C15.41 13.84 16.11 16.4 16.85 19.09C17.0839 20.0463 17.4192 20.9749 17.85 21.86H11.56C11.3476 21.244 10.9483 20.7095 10.4177 20.3313C9.88708 19.953 9.25164 19.7498 8.6 19.75V19.75ZM27.52 1.02002H2.38C2.10285 1.02002 1.83705 1.13012 1.64108 1.32609C1.4451 1.52207 1.335 1.78787 1.335 2.06502C1.335 2.34217 1.4451 2.60797 1.64108 2.80395C1.83705 2.99992 2.10285 3.11002 2.38 3.11002H27.52C27.6598 3.10284 27.7995 3.12508 27.9302 3.1753C28.0608 3.22553 28.1795 3.30262 28.2784 3.4016C28.3774 3.50057 28.4545 3.61921 28.5047 3.74986C28.5549 3.8805 28.5772 4.02024 28.57 4.16002V27.16C28.5772 27.2998 28.5549 27.4395 28.5047 27.5702C28.4545 27.7008 28.3774 27.8195 28.2784 27.9184C28.1795 28.0174 28.0608 28.0945 27.9302 28.1447C27.7995 28.195 27.6598 28.2172 27.52 28.21H4.52C4.38022 28.2172 4.24049 28.195 4.10984 28.1447C3.9792 28.0945 3.86055 28.0174 3.76158 27.9184C3.66261 27.8195 3.58551 27.7008 3.53529 27.5702C3.48506 27.4395 3.46282 27.2998 3.47 27.16V8.36002C3.46983 8.22438 3.49726 8.09013 3.55061 7.96542C3.60396 7.84072 3.68213 7.72817 3.78035 7.63463C3.87857 7.54109 3.99479 7.4685 4.12195 7.42129C4.2491 7.37409 4.38453 7.35324 4.52 7.36002H13.9C14.1785 7.36002 14.4456 7.24939 14.6425 7.05248C14.8394 6.85557 14.95 6.5885 14.95 6.31002C14.95 6.03154 14.8394 5.76447 14.6425 5.56756C14.4456 5.37064 14.1785 5.26002 13.9 5.26002H4.48C3.65316 5.25992 2.85943 5.58492 2.27011 6.16489C1.68079 6.74485 1.34313 7.53328 1.33 8.36002V27.21C1.33 28.0455 1.66188 28.8467 2.25262 29.4374C2.84335 30.0281 3.64457 30.36 4.48 30.36H27.48C28.3154 30.36 29.1166 30.0281 29.7074 29.4374C30.2981 28.8467 30.63 28.0455 30.63 27.21V4.21002C30.63 3.37459 30.2981 2.57337 29.7074 1.98263C29.1166 1.39189 28.3154 1.06002 27.48 1.06002L27.52 1.02002Z" fill="black"/>
</svg>
