<svg width="32" height="32" viewBox="0 0 32 32" fill="none" xmlns="http://www.w3.org/2000/svg">
<path d="M11.37 12.78C11.2787 12.3 11.0715 11.8497 10.7665 11.468C10.4616 11.0863 10.068 10.7849 9.62001 10.59V10.59C9.07392 10.339 8.48099 10.2061 7.88001 10.2H7.79001C7.21417 10.1948 6.64473 10.3208 6.12491 10.5686C5.60508 10.8164 5.14856 11.1794 4.79001 11.63V11.63C4.00893 12.7243 3.58938 14.0355 3.59001 15.38C3.59001 15.56 3.59001 15.73 3.59001 15.9C3.57949 16.0832 3.57949 16.2668 3.59001 16.45C3.58965 17.7336 4.05513 18.9737 4.90001 19.94V19.94C5.69025 20.6956 6.74678 21.1089 7.84001 21.09H8.00001C8.91391 21.091 9.79641 20.7565 10.48 20.15C11.1831 19.505 11.6393 18.6351 11.77 17.69V17.69H8.21001V15.12H14.57V23.39H12.45L12.13 21.46C11.6765 22.0618 11.1375 22.5941 10.53 23.04V23.04C9.64658 23.565 8.63766 23.8414 7.61001 23.84H7.21001C6.30971 23.8383 5.42 23.6459 4.59952 23.2753C3.77904 22.9047 3.04643 22.3644 2.45001 21.69V21.69C1.11838 20.2024 0.381455 18.2765 0.380005 16.28C0.380005 16.12 0.380005 15.97 0.380005 15.83C0.380005 15.71 0.380005 15.57 0.380005 15.43C0.379711 13.3676 1.10546 11.3709 2.43001 9.78997V9.78997C3.07861 9.07702 3.8692 8.50764 4.75096 8.11842C5.63273 7.72921 6.58616 7.52876 7.55001 7.52997H8.12001C9.71803 7.52875 11.2666 8.08385 12.5 9.09997V9.09997C13.6221 10.0266 14.3394 11.3536 14.5 12.8V12.8L11.37 12.78ZM24 7.53997H27.66V13.54H31.6V17.1H27.68V23.1H24V17.1H20.07V13.57H24V7.53997ZM16 23.16V7.53997H19.4V23.16H16Z" fill="black"/>
</svg>
