<svg width="32" height="32" viewBox="0 0 32 32" fill="none" xmlns="http://www.w3.org/2000/svg">
<path d="M16 2C16.5523 2 17 2.44772 17 3V3.42325C17.4732 3.54264 17.9121 3.74613 18.2838 4.02224C18.9072 4.4853 19.4 5.20741 19.4 6.09999C19.4 6.65227 18.9523 7.09999 18.4 7.09999C17.8477 7.09999 17.4 6.65227 17.4 6.09999C17.4 5.99257 17.3428 5.81467 17.0912 5.62773C16.84 5.44112 16.4531 5.29999 16 5.29999C15.5172 5.29999 15.1309 5.43182 14.8937 5.60122C14.6743 5.75795 14.6 5.92423 14.6 6.09999C14.6 6.29627 14.6772 6.48888 14.9996 6.75318C15.3541 7.04382 15.8531 7.296 16.4972 7.61806L16.5216 7.63023C17.1047 7.92175 17.8204 8.27956 18.3807 8.75408C18.9823 9.26364 19.5 9.9882 19.5 11C19.5 11.8926 19.0072 12.6147 18.3838 13.0777C17.9861 13.3732 17.5114 13.5855 17 13.7006V14C17 14.5523 16.5523 15 16 15C15.4477 15 15 14.5523 15 14V13.6501C14.565 13.5282 14.1615 13.3343 13.8162 13.0777C13.1928 12.6147 12.7 11.8926 12.7 11C12.7 10.4477 13.1477 9.99999 13.7 9.99999C14.2523 9.99999 14.7 10.4477 14.7 11C14.7 11.1074 14.7572 11.2853 15.0088 11.4722C15.26 11.6589 15.6469 11.8 16.1 11.8C16.5531 11.8 16.94 11.6589 17.1912 11.4722C17.4428 11.2853 17.5 11.1074 17.5 11C17.5 10.7618 17.4052 10.5488 17.0881 10.2803C16.7374 9.98329 16.2403 9.72569 15.6028 9.40691L15.5241 9.36759C14.9573 9.08461 14.2707 8.74173 13.7317 8.29992C13.1354 7.8111 12.6 7.10371 12.6 6.09999C12.6 5.17575 13.0757 4.44203 13.7313 3.97375C14.1053 3.7066 14.5398 3.52108 15 3.41332V3C15 2.44772 15.4477 2 16 2Z" fill="black"/>
<path d="M9.94625 4.4672C10.2405 4.93456 10.1002 5.55198 9.63283 5.84624C7.14641 7.41176 5.29425 9.90652 4.46036 12.7788C4.30638 13.3092 3.75159 13.6143 3.22121 13.4604C2.69082 13.3064 2.38569 12.7516 2.53967 12.2212C3.50578 8.89349 5.65362 5.98825 8.5672 4.15378C9.03456 3.85951 9.65198 3.99983 9.94625 4.4672Z" fill="black"/>
<path d="M24.6247 5.01916C24.1934 4.67415 23.5641 4.74407 23.2191 5.17533C22.8741 5.60659 22.944 6.23588 23.3753 6.58089C26.1599 8.80854 28 12.2306 28 16C28 16.6221 27.9099 17.3598 27.8101 18.0586C27.732 18.6053 28.1119 19.1119 28.6586 19.19C29.2053 19.2681 29.7118 18.8882 29.79 18.3414C29.8901 17.6403 30 16.778 30 16C30 11.5694 27.8401 7.59151 24.6247 5.01916Z" fill="black"/>
<path fill-rule="evenodd" clip-rule="evenodd" d="M20 19.5C19.96 19.5 19.9207 19.5023 19.8819 19.5069C19.4539 17.7542 17.908 16.5 16 16.5H12.2361L8.46414 14.614C8.39538 14.5779 8.3219 14.5496 8.24487 14.5302C8.15672 14.5079 8.06723 14.498 7.97873 14.5H3C2.44772 14.5 2 14.9477 2 15.5V26.5C2 27.0523 2.44772 27.5 3 27.5H7.81977L12.7509 29.3371L12.7543 29.3383C14.8417 30.1074 17.0692 30.2264 19.1996 29.5541L19.2011 29.5536L27.1983 27.0545L27.2162 27.0487C28.8081 26.5181 29.9 25.0476 29.9 23.4C29.9 21.2477 28.1523 19.5 26 19.5H20ZM9 25.8054V17.118L11.5528 18.3944C11.6916 18.4638 11.8448 18.5 12 18.5H16C17.1477 18.5 18 19.3523 18 20.5C18 21.6477 17.1477 22.5 16 22.5H13C12.4477 22.5 12 22.9477 12 23.5C12 24.0523 12.4477 24.5 13 24.5H16C17.908 24.5 19.4539 23.2458 19.8819 21.4931C19.9206 21.4977 19.96 21.5 20 21.5H26C27.0477 21.5 27.9 22.3523 27.9 23.4C27.9 24.1499 27.3953 24.8771 26.5918 25.1486L18.6017 27.6455L18.5989 27.6464C16.9303 28.1733 15.159 28.0925 13.4474 27.4623L13.4457 27.4617L9 25.8054ZM4 25.5V16.5H7V25.5H4Z" fill="black"/>
</svg>
