<svg width="32" height="32" viewBox="0 0 32 32" fill="none" xmlns="http://www.w3.org/2000/svg">
<path d="M14.2233 5.30326C15.9085 3.53787 18.5614 3.58839 20.2929 5.31989C20.6834 5.71041 21.3166 5.71041 21.7071 5.31989C22.0976 4.92936 22.0976 4.2962 21.7071 3.90567C19.2386 1.43718 15.2915 1.2877 12.7766 3.92231C12.1831 4.54408 11.7315 5.25571 11.4228 6.01276H11.4C10.8477 6.01276 10.4 6.46047 10.4 7.01276C10.4 7.40557 10.6265 7.74548 10.956 7.90903C10.9206 8.27635 10.9155 8.64569 10.9407 9.01276H10C9.44772 9.01276 9 9.46047 9 10.0128C9 10.565 9.44772 11.0128 10 11.0128H11.3988C11.7097 11.7825 12.1739 12.5009 12.7929 13.1199C15.2834 15.6104 19.2166 15.6104 21.7071 13.1199C22.0976 12.7294 22.0976 12.0962 21.7071 11.7057C21.3166 11.3151 20.6834 11.3151 20.2929 11.7057C18.5834 13.4151 15.9166 13.4151 14.2071 11.7057C13.9933 11.4918 13.806 11.2594 13.6453 11.0128H15.8C16.3523 11.0128 16.8 10.565 16.8 10.0128C16.8 9.46047 16.3523 9.01276 15.8 9.01276H12.9482C12.915 8.68155 12.9174 8.346 12.9554 8.01276H17.2C17.7523 8.01276 18.2 7.56504 18.2 7.01276C18.2 6.46047 17.7523 6.01276 17.2 6.01276H13.6656C13.8254 5.76327 14.0113 5.52542 14.2233 5.30326Z" fill="black"/>
<path d="M9.94625 4.47995C10.2405 4.94731 10.1002 5.56473 9.63283 5.859C7.14641 7.42452 5.29425 9.91928 4.46036 12.7916C4.30638 13.322 3.75159 13.6271 3.22121 13.4731C2.69082 13.3191 2.38569 12.7643 2.53967 12.234C3.50578 8.90625 5.65362 6.00101 8.5672 4.16653C9.03456 3.87227 9.65198 4.01259 9.94625 4.47995Z" fill="black"/>
<path d="M24.6247 5.03191C24.1934 4.6869 23.5641 4.75682 23.2191 5.18809C22.8741 5.61935 22.944 6.24864 23.3753 6.59365C26.1599 8.8213 28 12.2434 28 16.0128C28 16.6348 27.9099 17.3725 27.8101 18.0714C27.732 18.6181 28.1119 19.1246 28.6586 19.2027C29.2053 19.2808 29.7118 18.9009 29.79 18.3542C29.8901 17.653 30 16.7907 30 16.0128C30 11.5822 27.8401 7.60427 24.6247 5.03191Z" fill="black"/>
<path fill-rule="evenodd" clip-rule="evenodd" d="M20 19.5128C19.96 19.5128 19.9207 19.5151 19.8819 19.5197C19.4539 17.767 17.908 16.5127 16 16.5127H12.2361L8.46414 14.6268C8.39538 14.5907 8.3219 14.5623 8.24487 14.543C8.15672 14.5206 8.06723 14.5108 7.97873 14.5128H3C2.44772 14.5128 2 14.9605 2 15.5128V26.5128C2 27.065 2.44772 27.5128 3 27.5128H7.81977L12.7509 29.3498L12.7543 29.3511C14.8417 30.1201 17.0692 30.2392 19.1996 29.5668L19.2011 29.5663L27.1983 27.0672L27.2162 27.0614C28.8081 26.5308 29.9 25.0603 29.9 23.4128C29.9 21.2605 28.1523 19.5128 26 19.5128H20ZM9 25.8182V17.1308L11.5528 18.4072C11.6916 18.4766 11.8448 18.5127 12 18.5127H16C17.1477 18.5127 18 19.365 18 20.5127C18 21.6604 17.1477 22.5127 16 22.5127H13C12.4477 22.5127 12 22.9604 12 23.5127C12 24.065 12.4477 24.5127 13 24.5127H16C17.908 24.5127 19.4539 23.2585 19.8819 21.5059C19.9206 21.5104 19.96 21.5128 20 21.5128H26C27.0477 21.5128 27.9 22.365 27.9 23.4128C27.9 24.1627 27.3953 24.8898 26.5918 25.1614L18.6017 27.6583L18.5989 27.6592C16.9303 28.1861 15.159 28.1053 13.4474 27.475L13.4457 27.4744L9 25.8182ZM4 25.5128V16.5128H7V25.5128H4Z" fill="black"/>
</svg>
