<svg width="32" height="32" viewBox="0 0 32 32" fill="none" xmlns="http://www.w3.org/2000/svg">
<path fill-rule="evenodd" clip-rule="evenodd" d="M10.1 6C8.39243 6 6.91387 7.04981 6.36406 8.54772L3.43687 16.104C2.5461 17.1462 2.0062 18.4974 2.00005 19.9745C1.99962 19.9913 1.99962 20.0082 2.00005 20.025C2.01351 23.3272 4.69462 26 8 26C11.3137 26 14 23.3137 14 20C14 18.8523 14.8523 18 16 18C17.1477 18 18 18.8523 18 20C18 23.3137 20.6863 26 24 26C27.3054 26 29.9865 23.3272 29.9999 20.025C30.0004 20.0082 30.0004 19.9913 29.9999 19.9744C29.9938 18.4974 29.4539 17.1462 28.5631 16.104L25.6359 8.54772C25.0861 7.04981 23.6076 6 21.9 6H19C18.4477 6 18 6.44772 18 7C18 7.55228 18.4477 8 19 8H21.9C22.7884 8 23.5069 8.54527 23.7602 9.24174L23.7675 9.26123L25.6976 14.2435C25.1593 14.085 24.5896 14 24 14C21.7488 14 19.7871 15.2398 18.7606 17.0739C18.0492 16.404 17.0829 16 16 16C14.9171 16 13.9508 16.404 13.2394 17.0739C12.2129 15.2398 10.2512 14 8 14C7.4104 14 6.84067 14.085 6.3024 14.2435L8.23248 9.26123L8.23979 9.24174C8.49306 8.54526 9.21157 8 10.1 8H13C13.5523 8 14 7.55228 14 7C14 6.44772 13.5523 6 13 6H10.1ZM4.00385 20.177L5.16591 17.1772C5.89021 16.4501 6.89255 16 8 16C10.2091 16 12 17.7909 12 20C12 22.2091 10.2091 24 8 24C5.85017 24 4.09646 22.304 4.00385 20.177ZM27.9962 20.177L26.8341 17.1772C26.1098 16.4501 25.1075 16 24 16C21.7909 16 20 17.7909 20 20C20 22.2091 21.7909 24 24 24C26.1498 24 27.9035 22.304 27.9962 20.177Z" fill="black"/>
</svg>
