<svg width="32" height="32" viewBox="0 0 32 32" fill="none" xmlns="http://www.w3.org/2000/svg">
<path d="M24.9071 2.29289C24.5166 1.90237 23.8834 1.90237 23.4929 2.29289C23.1024 2.68342 23.1024 3.31658 23.4929 3.70711C28.2024 8.41658 28.2024 15.9834 23.4929 20.6929C21.193 22.9928 18.2117 24.1695 15.2145 24.2231C15.1454 24.208 15.0736 24.2 15 24.2C14.9264 24.2 14.8546 24.208 14.7855 24.2231C11.7883 24.1695 8.80698 22.9928 6.50711 20.6929C6.11659 20.3024 5.48342 20.3024 5.0929 20.6929C4.70237 21.0834 4.70237 21.7166 5.0929 22.1071C7.58244 24.5967 10.7592 25.9574 14 26.1893V28.2H10C9.44772 28.2 9 28.6477 9 29.2C9 29.7523 9.44772 30.2 10 30.2H20C20.5523 30.2 21 29.7523 21 29.2C21 28.6477 20.5523 28.2 20 28.2H16V26.1893C19.2408 25.9574 22.4176 24.5967 24.9071 22.1071C30.3976 16.6166 30.3976 7.78342 24.9071 2.29289Z" fill="black"/>
<path fill-rule="evenodd" clip-rule="evenodd" d="M15 2.20001C9.47715 2.20001 5 6.67716 5 12.2C5 17.7229 9.47715 22.2 15 22.2C20.5228 22.2 25 17.7229 25 12.2C25 6.67716 20.5228 2.20001 15 2.20001ZM7 12.2C7 7.78173 10.5817 4.20001 15 4.20001C19.4183 4.20001 23 7.78173 23 12.2C23 16.6183 19.4183 20.2 15 20.2C10.5817 20.2 7 16.6183 7 12.2Z" fill="black"/>
</svg>
