<svg width="32" height="32" viewBox="0 0 32 32" fill="none" xmlns="http://www.w3.org/2000/svg">
<path fill-rule="evenodd" clip-rule="evenodd" d="M2 16C2 8.26801 8.26801 2 16 2C23.732 2 30 8.26801 30 16C30 23.732 23.732 30 16 30C8.26801 30 2 23.732 2 16ZM4.94288 11.3294C4.33573 12.765 4 14.3433 4 16C4 17.6567 4.33573 19.235 4.94288 20.6706C6.04108 20.3334 7.15839 20.044 8.29186 19.8055C8.10112 18.5922 8 17.315 8 16C8 14.685 8.10112 13.4078 8.29186 12.1945C7.15839 11.956 6.04108 11.6666 4.94288 11.3294ZM5.8937 22.4729C6.81336 22.2009 7.74645 21.9644 8.69108 21.7653C9.0567 23.211 9.55754 24.5295 10.1698 25.6665C10.3965 26.0875 10.6426 26.4902 10.9072 26.8688C8.85008 25.9033 7.11186 24.3709 5.8937 22.4729ZM21.8302 25.6665C21.6035 26.0875 21.3574 26.4902 21.0928 26.8688C23.1499 25.9033 24.8881 24.3709 26.1063 22.4729C25.1866 22.2009 24.2536 21.9644 23.3089 21.7653C22.9433 23.2111 22.4425 24.5295 21.8302 25.6665ZM20.0693 24.7183C20.5797 23.7703 21.0113 22.6521 21.3361 21.4066C19.9113 21.1888 18.4639 21.0559 17 21.0142V27.8194C18.0773 27.4311 19.1572 26.4121 20.0693 24.7183ZM15 27.8194C13.9227 27.4311 12.8428 26.4121 11.9307 24.7183C11.4203 23.7703 10.9887 22.6521 10.6639 21.4066C12.0887 21.1888 13.5361 21.0559 15 21.0142V27.8194ZM17 19.0135C18.6017 19.0566 20.1842 19.203 21.7402 19.4453C21.9086 18.357 22 17.2013 22 16C22 14.7987 21.9086 13.643 21.7402 12.5547C20.1842 12.797 18.6017 12.9434 17 12.9865V19.0135ZM15 12.9865V19.0135C13.3983 19.0566 11.8158 19.203 10.2598 19.4453C10.0914 18.357 10 17.2013 10 16C10 14.7987 10.0914 13.643 10.2598 12.5547C11.8158 12.797 13.3983 12.9434 15 12.9865ZM17 10.9858C18.4639 10.9441 19.9113 10.8112 21.3361 10.5934C21.0113 9.34794 20.5797 8.22971 20.0693 7.28171C19.1572 5.58793 18.0773 4.56893 17 4.18062V10.9858ZM15 4.18062V10.9858C13.5361 10.9441 12.0887 10.8112 10.6639 10.5934C10.9887 9.34794 11.4203 8.22971 11.9307 7.28171C12.8428 5.58793 13.9227 4.56893 15 4.18062ZM27.0571 20.6706C25.9589 20.3334 24.8416 20.044 23.7081 19.8055C23.8989 18.5922 24 17.315 24 16C24 14.685 23.8989 13.4078 23.7081 12.1945C24.8416 11.956 25.9589 11.6666 27.0571 11.3294C27.6643 12.765 28 14.3433 28 16C28 17.6567 27.6643 19.235 27.0571 20.6706ZM26.1063 9.52713C25.1866 9.79908 24.2536 10.0356 23.3089 10.2347C22.9433 8.78895 22.4425 7.47053 21.8302 6.33351C21.6035 5.91253 21.3574 5.50978 21.0928 5.13117C23.1499 6.09673 24.8881 7.62911 26.1063 9.52713ZM10.1698 6.33351C10.3965 5.91253 10.6426 5.50978 10.9072 5.13117C8.85008 6.09673 7.11186 7.62911 5.8937 9.52713C6.81336 9.79908 7.74644 10.0356 8.69108 10.2347C9.0567 8.78895 9.55754 7.47053 10.1698 6.33351Z" fill="black"/>
</svg>
