<svg width="32" height="32" viewBox="0 0 32 32" fill="none" xmlns="http://www.w3.org/2000/svg">
<path d="M16.35 7.07002C16.5264 7.10936 16.6888 7.19575 16.82 7.32002V7.32002C16.8785 7.36173 16.9257 7.41746 16.9571 7.48209C16.9886 7.54673 17.0033 7.61822 17 7.69002C17.0004 7.77226 16.9782 7.85303 16.9359 7.92355C16.8936 7.99407 16.8327 8.05164 16.76 8.09002V8.09002C16.4622 8.2153 16.1544 8.31564 15.84 8.39002V8.39002C15.6141 8.37124 15.39 8.33445 15.17 8.28002V8.28002C15.0499 8.26304 14.94 8.20295 14.8609 8.11096C14.7818 8.01897 14.7388 7.90135 14.74 7.78002C14.7348 7.68652 14.7566 7.5935 14.8027 7.51197C14.8488 7.43045 14.9172 7.36383 15 7.32002C15.257 7.10177 15.5828 6.98135 15.92 6.98002C16.0677 6.98307 16.2135 7.01359 16.35 7.07002ZM11.17 5.94002L11.37 5.73002L11.14 5.55002C11.14 5.62002 11.01 5.69002 11.01 5.75002C11.01 5.81002 11.11 5.88002 11.17 5.94002ZM18.11 5.69002C18.06 5.69002 18 5.60002 18 5.52002C18 5.44002 18.06 5.39002 18.14 5.25002C18.22 5.39002 18.29 5.46002 18.29 5.52002C18.29 5.58002 18.11 5.69002 18.11 5.69002ZM10.77 4.69002C10.9964 4.70514 11.2088 4.80524 11.3645 4.97027C11.5203 5.13531 11.608 5.3531 11.61 5.58002C11.61 5.80015 11.5225 6.01126 11.3669 6.16692C11.2112 6.32257 11.0001 6.41002 10.78 6.41002C10.5599 6.41002 10.3488 6.32257 10.1931 6.16692C10.0374 6.01126 9.94999 5.80015 9.94999 5.58002V5.58002C9.9493 5.35562 10.0334 5.13924 10.1855 4.9742C10.3375 4.80917 10.5463 4.70767 10.77 4.69002ZM17.68 4.47002C17.4643 4.49468 17.2654 4.59817 17.1214 4.76061C16.9775 4.92305 16.8986 5.13296 16.9 5.35002V5.41002C16.8997 5.62604 16.9827 5.83385 17.1317 5.99028C17.2807 6.14671 17.4842 6.23973 17.7 6.25002V6.25002C17.9176 6.23736 18.1223 6.14255 18.2726 5.98476C18.423 5.82697 18.5078 5.61797 18.51 5.40002C18.51 5.40002 18.51 5.40002 18.51 5.34002C18.5127 5.11796 18.4285 4.90365 18.2752 4.74293C18.122 4.58221 17.9119 4.48784 17.69 4.48002L17.68 4.47002ZM21.75 5.90002C21.6038 6.38389 21.3143 6.81205 20.9197 7.12804C20.5252 7.44403 20.0441 7.633 19.54 7.67002V7.67002C19.3802 7.68091 19.2198 7.68091 19.06 7.67002C18.76 7.66861 18.4613 7.63169 18.17 7.56002V7.56002C17.7041 7.46589 17.2781 7.2315 16.9492 6.8883C16.6203 6.54511 16.4042 6.10953 16.33 5.64002C16.3192 5.49355 16.3192 5.34649 16.33 5.20002C16.3346 4.82542 16.4276 4.45719 16.6013 4.12529C16.7751 3.7934 17.0247 3.50721 17.33 3.29002V3.29002C17.8624 2.84475 18.536 2.60368 19.23 2.61002H19.38C19.7118 2.6087 20.0405 2.67291 20.3474 2.79897C20.6543 2.92502 20.9333 3.11043 21.1684 3.34457C21.4034 3.5787 21.59 3.85695 21.7172 4.16334C21.8445 4.46974 21.91 4.79825 21.91 5.13002C21.9092 5.38398 21.8721 5.63652 21.8 5.88002V5.88002L21.75 5.90002ZM18 9.42002C17.9418 9.51681 17.8598 9.59706 17.7617 9.65308C17.6637 9.70911 17.5529 9.73904 17.44 9.74002C17.3771 9.75046 17.3129 9.75046 17.25 9.74002C17.04 9.68002 16.84 9.59002 16.63 9.51002C16.4318 9.42078 16.2174 9.37313 16 9.37002C15.795 9.36977 15.5916 9.40705 15.4 9.48002V9.48002C15.1805 9.56168 14.9568 9.63178 14.73 9.69002H14.68C14.2 9.78002 13.89 9.51002 13.89 8.96002C13.9063 8.79741 13.9623 8.64129 14.0529 8.50531C14.1436 8.36933 14.2662 8.25764 14.41 8.18002C14.49 8.18002 14.6 8.01002 14.58 7.94002C14.5 7.58002 14.75 7.38002 14.97 7.20002C15.2633 6.99698 15.6134 6.89197 15.97 6.90002C16.2557 6.89755 16.5375 6.96628 16.79 7.10002V7.10002C16.9143 7.15375 17.0197 7.24337 17.0928 7.35739C17.1658 7.47141 17.2031 7.60464 17.2 7.74002C17.205 7.78655 17.205 7.83348 17.2 7.88002C17.2 8.04002 17.2 8.12002 17.34 8.20002C17.5577 8.34807 17.7588 8.51905 17.94 8.71002C17.9897 8.7618 18.0285 8.82296 18.0542 8.88992C18.08 8.95689 18.0922 9.02831 18.09 9.10002C18.0937 9.21491 18.0584 9.32767 17.99 9.42002H18ZM16.78 11.24C16.7039 11.2841 16.6179 11.3082 16.53 11.31C16.4186 11.3097 16.3107 11.2706 16.225 11.1994C16.1392 11.1283 16.0809 11.0295 16.06 10.92V10.92C16.0495 10.7135 16.0495 10.5066 16.06 10.3C16.06 10.08 16.06 9.86002 16.06 9.65002C16.06 9.65002 16.18 9.52002 16.22 9.53002C16.4529 9.587 16.6804 9.66395 16.9 9.76002C16.96 9.76002 16.99 9.88002 17 9.94002C17.0017 10.1443 17.0184 10.3482 17.05 10.55C17.0847 10.6769 17.076 10.8118 17.0253 10.9332C16.9745 11.0546 16.8847 11.1556 16.77 11.22L16.78 11.24ZM15.78 9.95002V10.78C15.78 11.06 15.58 11.18 15.36 11.26C15.3206 11.2698 15.2794 11.2698 15.24 11.26C15.1625 11.2604 15.0871 11.2351 15.0256 11.188C14.9641 11.141 14.9199 11.0749 14.9 11V11C14.8223 10.6879 14.7688 10.3703 14.74 10.05V10.05C14.74 9.99002 14.85 9.88002 14.93 9.83002C15.01 9.78002 15.27 9.73002 15.44 9.67002C15.8 9.55002 15.83 9.57002 15.78 9.96002V9.95002ZM9.56999 4.95002C9.67735 4.39221 9.99172 3.89566 10.45 3.56002C10.9843 3.15204 11.6377 2.93071 12.31 2.93002C12.7229 2.92988 13.1315 3.01499 13.51 3.18002V3.18002C13.9119 3.32446 14.265 3.57938 14.5286 3.91548C14.7921 4.25158 14.9555 4.65522 15 5.08002C15.0102 5.19646 15.0102 5.31358 15 5.43002C15.0002 5.80832 14.9095 6.18112 14.7354 6.517C14.5614 6.85289 14.3092 7.14202 14 7.36002V7.36002C13.4987 7.73185 12.894 7.93809 12.27 7.95002H12C11.6617 7.95137 11.3266 7.88541 11.0141 7.75598C10.7016 7.62655 10.4179 7.43624 10.1797 7.19613C9.94144 6.95602 9.75335 6.67091 9.62635 6.3574C9.49936 6.04389 9.43601 5.70825 9.43999 5.37002C9.42514 5.21036 9.42514 5.04967 9.43999 4.89002L9.56999 4.95002ZM26.71 16.17C26.553 15.9654 26.3558 15.7951 26.1305 15.6695C25.9052 15.544 25.6566 15.4659 25.4 15.44V15.44C24.99 15.37 24.97 15.38 24.95 14.97V11.82C24.9553 11.7201 24.9553 11.6199 24.95 11.52C24.95 9.92226 24.7959 8.32822 24.49 6.76002V6.92002C24.49 6.69002 24.32 6.43002 24.39 6.25002C24.46 6.07002 24.74 6.00002 24.92 5.87002C25.1732 5.71468 25.3823 5.49712 25.5276 5.23805C25.6729 4.97899 25.7495 4.68704 25.75 4.39002C25.7518 4.17417 25.7111 3.96008 25.63 3.76002V3.76002C25.5389 3.46368 25.383 3.19131 25.1737 2.96266C24.9643 2.73401 24.7067 2.55479 24.4195 2.43801C24.1324 2.32122 23.8228 2.26978 23.5133 2.28743C23.2038 2.30507 22.902 2.39135 22.63 2.54002V2.54002C22.5419 2.60074 22.437 2.63223 22.33 2.63002C22.2064 2.61799 22.0903 2.56522 22 2.48002C20.9642 1.74159 19.7551 1.28343 18.49 1.15002V1.15002C18.02 1.0756 17.5457 1.03217 17.07 1.02002H15.34C14.65 1.13002 13.96 1.21002 13.25 1.34002C11.8568 1.54074 10.5382 2.09503 9.41999 2.95002V2.95002C9.25999 3.08002 9.14999 2.95002 9.01999 2.95002C8.7071 2.77938 8.35639 2.68999 7.99999 2.69002C7.61351 2.68358 7.23288 2.78497 6.9008 2.9828C6.56872 3.18063 6.29834 3.46709 6.11999 3.81002V3.81002C5.96534 4.07771 5.88266 4.38088 5.87999 4.69002C5.87847 5.02008 5.97194 5.3436 6.14926 5.62198C6.32657 5.90037 6.58024 6.12186 6.87999 6.26002C7.25999 6.46002 7.25999 6.46002 7.16999 6.88002C6.99194 7.82957 6.90488 8.79394 6.90999 9.76002C6.91424 10.2679 6.94428 10.7752 6.99999 11.28V11.22C7.09999 12.54 7.18999 13.86 7.29999 15.22C7.29999 15.43 7.22999 15.51 7.01999 15.51H6.99999C6.55446 15.5072 6.11857 15.6397 5.74999 15.89C5.58067 16.0238 5.43236 16.1823 5.30999 16.36V16.36C5.08999 16.73 5.45999 16.97 5.57999 17.26C5.69999 17.55 5.93999 17.46 6.13999 17.39C6.33999 17.32 6.58999 17.19 6.78999 17.09L7.29999 16.86V17.69C7.21999 18.99 7.10999 20.3 7.05999 21.6C7.05999 21.74 7.05999 21.92 7.05999 22.09C7.06113 23.1891 7.22973 24.2817 7.55999 25.33V25.26C7.83393 26.1756 8.32839 27.0101 8.99999 27.69V27.69L9.15999 27.87C8.86999 28.07 8.61999 28.27 8.36999 28.48C8.1766 28.6263 8.0107 28.8058 7.87999 29.01V29.01C7.82342 29.0932 7.7844 29.1871 7.76532 29.2858C7.74624 29.3846 7.7475 29.4862 7.76903 29.5845C7.79055 29.6828 7.83189 29.7756 7.89052 29.8574C7.94914 29.9392 8.02382 30.0081 8.10999 30.06V30.06C8.23999 30.16 8.34999 30.28 8.47999 30.39H8.86999C9.23999 30.11 9.59999 29.82 9.97999 29.57C10.2673 29.3815 10.5681 29.2144 10.88 29.07V29.07H11.01C11.0527 29.0598 11.0973 29.0598 11.14 29.07V29.07C12.6324 29.6471 14.2199 29.9389 15.82 29.93C16.33 29.93 16.82 29.93 17.35 29.85H17.3C18.7258 29.733 20.1151 29.339 21.39 28.69H21.32C21.3798 28.6636 21.4446 28.6499 21.51 28.6499C21.5754 28.6499 21.6401 28.6636 21.7 28.69V28.69C21.8525 28.7946 21.9904 28.919 22.11 29.06V29.06C22.3 29.25 22.46 29.46 22.64 29.65C23.19 30.19 23.52 30.11 24.03 29.65C24.0921 29.5904 24.1418 29.5191 24.1762 29.4401C24.2105 29.3611 24.2288 29.2761 24.23 29.19C24.23 29.0679 24.1915 28.949 24.12 28.85V28.85C23.8897 28.4972 23.6322 28.1629 23.35 27.85C23.24 27.75 23.13 27.65 23.01 27.56C23.035 27.4989 23.0687 27.4416 23.11 27.39V27.39C24.1139 26.2712 24.7614 24.8786 24.97 23.39V23.39C25.1638 22.2301 25.2608 21.056 25.26 19.88C25.26 19.2134 25.23 18.5467 25.17 17.88V17.97C25.1785 17.6193 25.1618 17.2684 25.12 16.92V16.83L25.37 16.95C25.5406 17.0498 25.7217 17.1302 25.91 17.19V17.19C26.0403 17.2301 26.1797 17.2301 26.31 17.19V17.19C26.4347 17.0989 26.5366 16.9802 26.6077 16.8431C26.6789 16.7061 26.7173 16.5544 26.72 16.4C26.7353 16.304 26.7353 16.2061 26.72 16.11V16.11L26.71 16.17Z" fill="black"/>
</svg>
