<svg width="32" height="32" viewBox="0 0 32 32" fill="none" xmlns="http://www.w3.org/2000/svg">
<path d="M31 16.91H27.83V20.11H25.36V16.97H22.23V14.47H25.23V11.34H27.73V14.41H30.9L31 16.91ZM11 13.83H20.35C20.4299 14.159 20.4867 14.4931 20.52 14.83C20.5568 15.1888 20.5735 15.5494 20.57 15.91C20.5858 17.2482 20.3518 18.5776 19.88 19.83C19.4486 20.9745 18.7885 22.0191 17.94 22.9C17.0927 23.7714 16.0702 24.4531 14.94 24.9C13.6908 25.418 12.3523 25.6863 11 25.69C9.66587 25.6986 8.34455 25.4295 7.11999 24.9C5.91684 24.4 4.82301 23.6696 3.89999 22.75C2.97304 21.824 2.23934 20.723 1.7415 19.511C1.24366 18.299 0.991612 17.0002 0.999989 15.69C0.990762 13.7273 1.56338 11.8059 2.64552 10.1684C3.72766 8.53099 5.27078 7.25096 7.07999 6.49001C8.82726 5.73708 10.7569 5.51293 12.6303 5.8453C14.5036 6.17766 16.2384 7.05196 17.62 8.36001L14.83 11.11C14.3213 10.6191 13.7195 10.2348 13.06 9.98C12.3919 9.71402 11.6791 9.57824 10.96 9.58001C10.1585 9.57319 9.3638 9.72702 8.62277 10.0324C7.88173 10.3378 7.2094 10.7886 6.64545 11.3581C6.08151 11.9277 5.63739 12.6044 5.33932 13.3484C5.04125 14.0924 4.89527 14.8886 4.90999 15.69C4.89834 16.4848 5.04934 17.2736 5.35373 18.0079C5.65811 18.7422 6.10945 19.4065 6.67999 19.96C7.24232 20.53 7.91623 20.9779 8.65956 21.2756C9.40289 21.5732 10.1996 21.7143 11 21.69C12.3123 21.7472 13.6044 21.3518 14.66 20.57C15.5679 19.8557 16.1775 18.8291 16.37 17.69H11V13.83Z" fill="black"/>
</svg>
