<svg width="32" height="32" viewBox="0 0 32 32" fill="none" xmlns="http://www.w3.org/2000/svg">
<path d="M27.27 12.29C26.6682 10.0839 25.4383 8.10013 23.73 6.58002V6.58002C22.5758 5.55487 21.2306 4.76743 19.7717 4.26278C18.3127 3.75813 16.7686 3.54618 15.2276 3.63907C13.6866 3.73195 12.1791 4.12785 10.7913 4.80409C9.40353 5.48033 8.16275 6.42364 7.14 7.58002C5.939 8.96201 5.07016 10.6005 4.6 12.37V12.37C3.51219 13.134 2.61946 14.1432 1.994 15.3161C1.36854 16.489 1.02792 17.7927 0.999683 19.1216C0.971449 20.4506 1.2564 21.7675 1.83147 22.9659C2.40655 24.1643 3.25562 25.2106 4.31 26.02V26.02C5.77854 27.1395 7.57339 27.7472 9.42 27.75H22.42C24.2417 27.7788 26.0239 27.2179 27.5009 26.1511C28.9778 25.0844 30.0705 23.5688 30.6158 21.8304C31.1612 20.092 31.1301 18.2239 30.5271 16.5046C29.9242 14.7854 28.7817 13.307 27.27 12.29ZM22.46 22.53H9.46C9.00107 22.5292 8.5476 22.4304 8.13 22.24C7.37017 21.8672 6.78513 21.2135 6.49857 20.4171C6.21201 19.6207 6.24641 18.7441 6.59448 17.9726C6.94255 17.2012 7.57702 16.5953 8.36372 16.2832C9.15042 15.971 10.0277 15.9771 10.81 16.3C11.5311 16.6305 12.1095 17.2089 12.44 17.93L16.22 14.15C14.9707 12.5216 13.1726 11.4023 11.16 11V11C12.2755 9.7674 13.8186 9.00588 15.4756 8.87028C17.1325 8.73468 18.7789 9.23518 20.08 10.27V10.27C20.8434 10.8928 21.4552 11.6809 21.8692 12.5748C22.2833 13.4687 22.4887 14.445 22.47 15.43V16.08C23.3346 16.08 24.1638 16.4235 24.7752 17.0349C25.3865 17.6462 25.73 18.4754 25.73 19.34C25.7248 19.7642 25.6361 20.1832 25.4689 20.5731C25.3017 20.963 25.0594 21.3161 24.7557 21.6123C24.4521 21.9086 24.0931 22.1421 23.6992 22.2995C23.3052 22.457 22.8842 22.5353 22.46 22.53V22.53Z" fill="black"/>
</svg>
