<svg width="32" height="32" viewBox="0 0 32 32" fill="none" xmlns="http://www.w3.org/2000/svg">
<path d="M20.89 11.21C22.4024 11.3486 23.8182 12.0139 24.89 13.09C25.6857 13.7898 26.323 14.6513 26.7593 15.617C27.1956 16.5827 27.4208 17.6303 27.42 18.69V18.79C27.42 18.85 27.42 18.92 27.42 18.98C27.4171 19.2497 27.4687 19.5171 27.5718 19.7663C27.675 20.0155 27.8274 20.2413 28.02 20.43C28.5622 20.9997 28.9059 21.7292 29 22.51V22.51C28.9996 22.5856 28.9834 22.6602 28.9524 22.7291C28.9214 22.798 28.8763 22.8596 28.82 22.91C28.1317 23.4499 27.2936 23.7642 26.42 23.81V23.81C26.2363 23.8348 26.0686 23.9275 25.95 24.07V24.07C25.3324 24.9515 24.5877 25.7367 23.74 26.4V26.4C23.6097 26.5046 23.524 26.6547 23.5 26.82V26.82C23.4191 27.7508 23.0949 28.644 22.56 29.41V29.41L22.34 29.71C22.15 29.93 21.97 30.31 21.77 30.32C21.3695 30.2925 20.9801 30.1764 20.63 29.98V29.98C19.8542 29.6131 19.1707 29.0765 18.63 28.41V28.41C18.56 28.32 18.34 28.3 18.19 28.3H18.03C16.8636 28.302 15.7037 28.1266 14.59 27.78H14.67C14.5904 27.7688 14.5096 27.7688 14.43 27.78C14.2742 27.7822 14.1233 27.8348 14 27.93V27.93C12.8142 28.7158 11.4225 29.1334 10 29.13H9.85C9.73508 29.131 9.6238 29.0898 9.53719 29.0142C9.45059 28.9387 9.39467 28.834 9.38 28.72V28.72C9.16102 28.076 9.04954 27.4003 9.05 26.72C9.04769 26.1382 9.12851 25.559 9.29 25V25C9.30048 24.9338 9.30048 24.8663 9.29 24.8C9.28956 24.7123 9.27165 24.6256 9.23731 24.5449C9.20297 24.4642 9.15289 24.3911 9.09 24.33C8.63 23.76 8.22 23.13 7.75 22.54C7.62018 22.3669 7.43771 22.2406 7.23 22.18V22.18C5.4684 21.7533 3.87811 20.8012 2.67 19.45V19.45C2.63679 19.3779 2.6196 19.2994 2.6196 19.22C2.6196 19.1406 2.63679 19.0621 2.67 18.99V18.99C3.24884 17.4551 4.32647 16.1592 5.73 15.31V15.31C5.85764 15.2554 5.96995 15.1703 6.05711 15.0622C6.14428 14.9541 6.20363 14.8263 6.23 14.69C6.39 13.81 6.62 12.95 6.82 12.08V12.03C6.8071 11.9089 6.766 11.7924 6.7 11.69V11.69C5.80302 10.2909 5.33064 8.66191 5.34 7.00001C5.34 6.85001 5.34 6.70001 5.34 6.56001C5.34069 6.44793 5.37829 6.3392 5.44698 6.25063C5.51566 6.16206 5.61162 6.09858 5.72 6.07001C6.61459 5.7027 7.57295 5.51578 8.54 5.52001C9.35242 5.52109 10.1594 5.65277 10.93 5.91001V5.91001C11.0113 5.9476 11.1006 5.96476 11.19 5.96001C11.3481 5.96291 11.5027 5.91372 11.63 5.82001V5.82001C12.4339 5.27195 13.3042 4.82838 14.22 4.50001H14.3C14.3673 4.47053 14.4273 4.42657 14.4757 4.37126C14.5241 4.31595 14.5597 4.25065 14.58 4.18001V4.18001C15.0062 2.97101 15.7955 1.92323 16.84 1.18001V1.18001C16.9267 1.1072 17.0368 1.06814 17.15 1.07001C17.2599 1.06965 17.3664 1.10867 17.45 1.18001C18.3989 1.77768 19.1395 2.6545 19.57 3.69001C19.6091 3.80051 19.6786 3.89768 19.7707 3.97025C19.8627 4.04281 19.9734 4.08781 20.09 4.10001C20.83 4.28001 21.57 4.51001 22.32 4.71001C22.4194 4.72607 22.5206 4.72607 22.62 4.71001C22.7194 4.7251 22.8206 4.7251 22.92 4.71001V4.71001C23.6328 4.31854 24.4273 4.09936 25.24 4.07001H25.32C25.4195 4.06862 25.5167 4.10026 25.5963 4.15997C25.6759 4.21968 25.7335 4.30409 25.76 4.40001C26.0444 5.02801 26.1877 5.71067 26.18 6.40001C26.1902 6.59654 26.1902 6.79348 26.18 6.99001V6.99001C26.1745 7.03317 26.1745 7.07685 26.18 7.12001C26.1817 7.20069 26.1993 7.28024 26.2319 7.35405C26.2645 7.42786 26.3115 7.49447 26.37 7.55001C28.2405 9.4667 29.3128 12.0225 29.37 14.7V14.7V14.9C29.3132 15.0348 29.2463 15.1652 29.17 15.29C29.06 15.19 28.92 15.1 28.87 14.98C28.66 14.41 28.52 13.83 28.28 13.28C27.5309 11.5039 26.281 9.98416 24.6829 8.9063C23.0847 7.82844 21.2074 7.23904 19.28 7.21001H19C17.3265 7.21034 15.6821 7.64815 14.23 8.48001H14.28C12.4522 9.60509 11.1354 11.399 10.61 13.48V13.54C10.3064 14.4903 10.1545 15.4825 10.16 16.48C10.16 16.78 10.16 17.08 10.16 17.38C10.2886 18.6304 10.7099 19.8329 11.39 20.89V20.89C12.083 22.0702 13.0721 23.0489 14.2595 23.7294C15.4469 24.41 16.7914 24.7686 18.16 24.77H18.47C19.4156 24.771 20.3465 24.5355 21.1778 24.0849C22.0092 23.6343 22.7147 22.9829 23.23 22.19V22.19C23.7129 21.5204 24.0512 20.7576 24.2234 19.9502C24.3956 19.1428 24.3978 18.3084 24.23 17.5C24.0223 16.4327 23.4517 15.4702 22.615 14.7758C21.7784 14.0813 20.7273 13.6977 19.64 13.69C19.3038 13.6925 18.9687 13.7293 18.64 13.8V13.8C18.1301 13.9365 17.6551 14.1802 17.2469 14.5148C16.8387 14.8495 16.5066 15.2674 16.2728 15.7407C16.039 16.214 15.9089 16.7317 15.8912 17.2593C15.8735 17.7868 15.9685 18.3121 16.17 18.8V18.8C16.4254 19.3164 16.8202 19.7512 17.3097 20.0551C17.7991 20.359 18.3638 20.5201 18.94 20.52C19.3478 20.5211 19.752 20.443 20.13 20.29V20.29C20.292 20.2514 20.4625 20.2727 20.61 20.35C20.55 20.5 20.53 20.74 20.4 20.83C19.7505 21.24 18.9908 21.4407 18.2235 21.405C17.4563 21.3692 16.7185 21.0987 16.11 20.63V20.63C15.2478 19.9861 14.6338 19.0647 14.3715 18.021C14.1092 16.9773 14.2146 15.8751 14.67 14.9V14.9C15.58 12.57 17.62 11.21 20.94 11.22L20.89 11.21Z" fill="black"/>
</svg>
