<svg width="32" height="32" viewBox="0 0 32 32" fill="none" xmlns="http://www.w3.org/2000/svg">
<path fill-rule="evenodd" clip-rule="evenodd" d="M14.7 17.11L16.12 16.25C15.89 15.6 16.67 15.25 16.67 15.25L16.45 14.25C15.55 14.12 15.64 13.63 15.64 13.63L14.23 13.33C14.09 13.4393 13.9287 13.518 13.7565 13.561C13.5842 13.6041 13.4049 13.6105 13.23 13.58C12.74 13.58 12.39 13.27 12.51 12.88C12.5692 12.7541 12.654 12.6419 12.7591 12.5506C12.8641 12.4594 12.987 12.391 13.12 12.35L13.05 11.58C12.37 11.58 12.43 11.08 12.43 11.08L11.22 10.85C10.9717 10.9511 10.7078 11.0086 10.44 11.02C10.06 11.02 9.63999 10.86 9.73999 10.54C9.83999 10.22 10.36 10.06 10.36 10.06V9.44C10.36 9.44 10.01 9.44 9.91999 9.27C9.82999 9.1 9.91999 8.92 10.16 8.77C10.505 8.61637 10.8847 8.55768 11.26 8.6L12.26 8.21C12.26 8.21 12.26 7.92 12.74 7.78V7.31C12.74 7.31 12.4 7.31 12.27 7.11C12.14 6.91 12.27 6.77 12.68 6.67C12.9208 6.62014 13.1692 6.62014 13.41 6.67L14.31 6.36C14.3061 6.29075 14.3272 6.22242 14.3694 6.16738C14.4116 6.11234 14.4721 6.07424 14.54 6.06C14.7824 5.96905 15.044 5.94151 15.3 5.98C15.74 5.98 15.74 6.26 15.74 6.26L16.67 6.39C16.9502 6.25639 17.2673 6.22116 17.57 6.29L18.34 5.99C18.34 5.99 18.25 5.81 18.52 5.7C18.7433 5.61614 18.9845 5.59201 19.22 5.63C19.62 5.69 19.7 5.88 19.7 5.88L20.7 6.01C20.9506 5.8734 21.2439 5.83763 21.52 5.91L22.16 5.64C22.1411 5.61376 22.1288 5.58333 22.1242 5.55132C22.1197 5.5193 22.1229 5.48665 22.1337 5.45617C22.1446 5.42569 22.1626 5.39829 22.1863 5.37632C22.2101 5.35434 22.2388 5.33845 22.27 5.33C22.5183 5.25833 22.7817 5.25833 23.03 5.33C23.39 5.38 23.45 5.53 23.45 5.53L24.45 5.66C24.6121 5.59467 24.7852 5.56073 24.96 5.56C25.2011 5.55304 25.4397 5.6118 25.65 5.73C25.94 5.94 25.59 6.11 25.59 6.11L25.97 6.5C25.97 6.5 26.5 6.5 26.71 6.76L27.82 6.91C28.0212 6.76615 28.2626 6.68919 28.51 6.69C28.7662 6.7009 29.0134 6.78794 29.22 6.94C29.2552 6.96142 29.2842 6.99152 29.3044 7.02742C29.3246 7.06333 29.3352 7.10382 29.3352 7.145C29.3352 7.18618 29.3246 7.22667 29.3044 7.26258C29.2842 7.29848 29.2552 7.32859 29.22 7.35L29.76 7.84C30.07 7.84565 30.3692 7.95477 30.61 8.15C30.81 8.36 30.73 8.59 30.33 8.65C30.0573 8.67606 29.7827 8.67606 29.51 8.65L28.9 9.04C28.9435 9.0656 28.9796 9.10214 29.0047 9.14599C29.0298 9.18984 29.043 9.23948 29.043 9.29C29.043 9.34052 29.0298 9.39016 29.0047 9.43401C28.9796 9.47786 28.9435 9.5144 28.9 9.54C28.7674 9.62349 28.6196 9.67975 28.4651 9.70551C28.3106 9.73126 28.1525 9.72599 28 9.69C27.7317 9.64236 27.4861 9.50902 27.3 9.31L26 9.12C26 9.12 25.78 9.31 25 9.23L24.22 9.64C24.22 9.64 24.5 9.94 24.07 10.18L24.54 10.87C24.8206 10.8656 25.0936 10.9613 25.31 11.14C25.67 11.44 25.56 11.78 25.18 11.93C24.8769 12.0435 24.543 12.0435 24.24 11.93L23.33 12.49C23.3728 12.5503 23.4009 12.6198 23.4118 12.693C23.4227 12.7661 23.4162 12.8408 23.3928 12.9109C23.3694 12.9811 23.3298 13.0447 23.2772 13.0967C23.2246 13.1487 23.1604 13.1875 23.09 13.21L23.61 14.21C23.9556 14.2482 24.279 14.3993 24.53 14.64C24.605 14.7121 24.6616 14.8013 24.695 14.8998C24.7285 14.9984 24.7377 15.1036 24.722 15.2065C24.7064 15.3094 24.6662 15.407 24.6049 15.4911C24.5437 15.5753 24.4631 15.6435 24.37 15.69C24.1959 15.7699 24.0066 15.8113 23.815 15.8113C23.6234 15.8113 23.4341 15.7699 23.26 15.69L22.13 16.5C22.2228 16.685 22.2403 16.8989 22.1788 17.0966C22.1172 17.2942 21.9815 17.4604 21.8 17.56L22.35 18.94C22.5822 18.9709 22.8053 19.0501 23.005 19.1724C23.2048 19.2946 23.3768 19.4573 23.51 19.65C23.6004 19.7909 23.654 19.9524 23.6659 20.1194C23.6777 20.2865 23.6474 20.4538 23.5777 20.6061C23.508 20.7584 23.4012 20.8908 23.2671 20.991C23.133 21.0913 22.9758 21.1563 22.81 21.18C22.4747 21.2422 22.1288 21.2111 21.81 21.09L20.33 22.34C20.4227 22.5601 20.4558 22.8008 20.426 23.0378C20.3961 23.2748 20.3044 23.4997 20.16 23.69C19.9094 23.9758 19.5697 24.1687 19.196 24.2377C18.8222 24.3066 18.4361 24.2475 18.1 24.07C17.8957 23.9591 17.7242 23.7962 17.6031 23.5978C17.4819 23.3993 17.4153 23.1724 17.41 22.94L15.36 22.33C15.1157 22.5493 14.8172 22.6993 14.4954 22.7643C14.1736 22.8294 13.8403 22.8072 13.53 22.7L11.59 24.09C11.6215 24.3722 11.5844 24.6578 11.4816 24.9224C11.3789 25.1871 11.2136 25.423 11 25.61C10.7301 25.8829 10.382 26.0652 10.004 26.1315C9.62593 26.1978 9.23662 26.1448 8.88999 25.98C8.67934 25.8459 8.51533 25.65 8.42044 25.419C8.32555 25.1881 8.30444 24.9334 8.35999 24.69L6.41999 24.03C6.01266 24.3475 5.51605 24.5294 4.99999 24.55C4.82703 24.5648 4.6532 24.5343 4.4956 24.4615C4.33801 24.3887 4.20208 24.2761 4.10118 24.1349C4.00028 23.9936 3.93789 23.8285 3.92015 23.6558C3.90241 23.4832 3.92992 23.3088 3.99999 23.15C4.25619 22.6116 4.68584 22.1749 5.21999 21.91L5.56999 20.22C5.45572 20.2094 5.34532 20.1731 5.24709 20.1138C5.14886 20.0545 5.06534 19.9736 5.0028 19.8774C4.94025 19.7812 4.90031 19.6721 4.88597 19.5582C4.87163 19.4444 4.88326 19.3287 4.91999 19.22L3.39999 18.74C3.02425 18.9683 2.59877 19.1021 2.15999 19.13C1.47999 19.13 1.15999 18.66 1.44999 18.13C1.72076 17.7232 2.11257 17.4119 2.56999 17.24L2.99999 16.03C2.99999 16.03 2.57999 16.03 2.47999 15.68C2.37999 15.33 2.62999 14.98 3.27999 14.68C3.48978 14.5622 3.72231 14.4906 3.96203 14.4699C4.20174 14.4492 4.44311 14.4799 4.66999 14.56L6.26999 13.85C6.26999 13.85 6.26999 13.19 7.43999 12.99C8.60999 12.79 8.51999 13.55 8.51999 13.55L9.85999 13.87C10.1374 13.7015 10.4554 13.6117 10.78 13.61C11.13 13.61 11.59 13.93 11.59 14.25C11.5608 14.4443 11.4751 14.6256 11.3435 14.7714C11.2119 14.9173 11.0402 15.0211 10.85 15.07V16.16C10.85 16.16 11.63 16.28 11.58 16.98L13.17 17.38C13.3844 17.2152 13.6355 17.1045 13.9019 17.0575C14.1683 17.0105 14.4421 17.0285 14.7 17.11ZM4.09999 18L5.65999 18.45C5.90373 18.2859 6.18062 18.1776 6.47099 18.1326C6.76135 18.0877 7.05805 18.1073 7.33999 18.19L9.11999 17.19C9.11999 17.19 9.05999 16.53 9.96999 16.19L9.99999 15.04C9.12999 14.96 9.35999 14.36 9.35999 14.36L7.99999 14.03C6.92999 14.49 6.56999 14.21 6.56999 14.21L4.99999 14.94C4.99999 14.94 4.99999 15.51 3.99999 15.88L3.60999 17.13C3.60999 17.13 4.42999 17.21 4.09999 18V18ZM7.20999 23L9.09999 23.62C9.36422 23.3755 9.69184 23.2103 10.0455 23.1431C10.3991 23.0759 10.7645 23.1095 11.1 23.24L13 21.91C12.9408 21.6037 12.993 21.2863 13.1469 21.015C13.3009 20.7437 13.5467 20.5363 13.84 20.43L13.71 18.85C13.71 18.85 12.66 18.67 12.81 17.91L11.16 17.48C10.9373 17.6557 10.673 17.771 10.3928 17.8148C10.1125 17.8586 9.82568 17.8294 9.55999 17.73L7.75999 18.73C7.75999 19.5 6.75999 20.01 6.75999 20.01L6.41999 21.69C6.41999 21.69 7.43999 21.75 7.20999 22.99V23ZM14.69 18.69L14.86 20.26C14.86 20.26 15.96 20.46 15.91 21.37L17.91 21.94C18.1371 21.7092 18.4297 21.5538 18.748 21.4948C19.0664 21.4358 19.3952 21.476 19.69 21.61L21.18 20.41C21.0661 20.1783 21.0461 19.9115 21.1244 19.6655C21.2027 19.4195 21.3731 19.2132 21.6 19.09L21.06 17.69C21.06 17.69 20.06 17.52 19.96 16.82L18.27 16.43C18.0605 16.5855 17.8168 16.6885 17.5592 16.7303C17.3017 16.772 17.0379 16.7514 16.79 16.67L15.35 17.56C15.35 17.56 15.68 18.14 14.69 18.69ZM18.54 15.8L20.21 16.18C20.4076 16.0239 20.6428 15.9223 20.892 15.8855C21.1411 15.8486 21.3956 15.8778 21.63 15.97L22.78 15.16C22.78 15.16 22.35 14.61 23.07 14.27L22.56 13.27C22.56 13.27 21.72 13.18 21.63 12.69L20.17 12.41C20.17 12.41 19.92 12.79 18.95 12.57L17.8 13.19C17.8 13.19 18.12 13.63 17.35 14.01L17.62 15.07C17.8307 15.0791 18.0332 15.1546 18.1984 15.2857C18.3637 15.4168 18.4832 15.5968 18.54 15.8V15.8ZM19.21 10.69L19.52 11.46C19.52 11.46 20.21 11.46 20.37 11.96L21.79 12.22C21.79 12.22 22.13 11.84 22.98 12.07L23.92 11.51C23.8771 11.4607 23.847 11.4016 23.8323 11.338C23.8175 11.2744 23.8185 11.2081 23.8353 11.1449C23.8521 11.0818 23.8841 11.0237 23.9285 10.9758C23.9729 10.9279 24.0283 10.8915 24.09 10.87L23.62 10.14C23.62 10.14 22.96 10.14 22.77 9.71L21.51 9.51C21.3612 9.59936 21.1956 9.65703 21.0236 9.6794C20.8515 9.70177 20.6766 9.68836 20.51 9.64L19.57 10.1C19.57 10.1 19.84 10.46 19.21 10.69ZM17.78 10.31L16.54 10.09C16.2029 10.2717 15.8083 10.3148 15.44 10.21L14.33 10.72C14.33 10.72 14.55 11.06 13.81 11.33L13.91 12.16C13.91 12.16 14.63 12.16 14.64 12.71L16.04 13C16.222 12.8745 16.4319 12.7952 16.6514 12.769C16.871 12.7429 17.0936 12.7707 17.3 12.85L18.43 12.23C18.43 12.23 18.12 11.84 18.82 11.53L18.53 10.75C18.53 10.75 17.87 10.8 17.78 10.34V10.31ZM15.48 9.39L15.34 8.77C15.34 8.77 14.76 8.77 14.76 8.41L13.68 8.23C13.3647 8.3638 13.018 8.40542 12.68 8.35L11.68 8.73C11.68 8.73 11.83 9.05 11.13 9.26V9.91C11.13 9.91 11.73 9.86 11.71 10.34L12.86 10.52C13.03 10.419 13.2196 10.3553 13.4161 10.3328C13.6126 10.3104 13.8116 10.3299 14 10.39L15.1 9.91C15.1 9.91 14.87 9.6 15.48 9.42V9.39ZM14 7.97L15 8.15C15.3095 7.99642 15.6615 7.95066 16 8.02L16.93 7.69C16.93 7.69 16.72 7.45 17.26 7.26L17.09 6.79C17.09 6.79 16.55 6.79 16.54 6.51L15.54 6.37C15.2599 6.49136 14.95 6.52619 14.65 6.47L13.77 6.79C13.77 6.79 13.89 7.03 13.34 7.16L13.4 7.66C13.4 7.66 14 7.69 14 7.97ZM16.85 9.77L18.05 9.98C18.212 9.8818 18.3934 9.82017 18.5817 9.79945C18.77 9.77872 18.9605 9.79939 19.14 9.86L20.04 9.42C20.04 9.42 19.83 9.07 20.32 8.89L20 8.35C20 8.35 19.43 8.35 19.34 7.99L18.24 7.82C17.9346 7.9875 17.5763 8.0305 17.24 7.94L16.3 8.32C16.3 8.32 16.44 8.63 15.92 8.79L16.06 9.35C16.06 9.35 16.78 9.34 16.81 9.77H16.85ZM17.85 7.22C17.85 7.22 18.35 7.22 18.48 7.53L19.55 7.69C19.55 7.69 19.76 7.47 20.48 7.56L21.27 7.22C21.27 7.22 21.01 6.96 21.49 6.8L21.19 6.35C21.19 6.35 20.68 6.35 20.57 6.08L19.57 5.96C19.3052 6.08535 19.0066 6.12048 18.72 6.06L17.93 6.36C17.93 6.36 18.12 6.55 17.62 6.73L17.85 7.22ZM22 6.82C22.1289 6.81372 22.2574 6.83756 22.3754 6.88963C22.4935 6.94171 22.5978 7.02059 22.68 7.12L23.77 7.27C23.77 7.27 23.93 7.1 24.66 7.17L25.35 6.84C25.35 6.84 25.06 6.62 25.46 6.47L25.06 6.03C24.48 6.03 24.38 5.77 24.38 5.77L23.4 5.69C23.1421 5.78854 22.8632 5.81952 22.59 5.78L21.9 6.05C21.9 6.05 22.14 6.25 21.71 6.42L22 6.82ZM21 8.83C21.1438 8.82518 21.2864 8.85877 21.4129 8.92732C21.5394 8.99587 21.6454 9.09689 21.72 9.22L22.96 9.42C23.1099 9.33341 23.2758 9.27814 23.4477 9.25751C23.6196 9.23689 23.7939 9.25134 23.96 9.3L24.75 8.88C24.75 8.88 24.41 8.62 24.94 8.37L24.48 7.8C24.3345 7.80667 24.1893 7.78149 24.0546 7.72622C23.9199 7.67095 23.7989 7.58692 23.7 7.48L22.58 7.32C22.58 7.32 22.38 7.52 21.68 7.45L20.91 7.8C20.91 7.8 21.19 8.04 20.66 8.25L21 8.83ZM25.06 7.83L25.51 8.37C25.662 8.36803 25.8128 8.39819 25.9524 8.4585C26.0919 8.51882 26.2172 8.60793 26.32 8.72L27.57 8.91C27.57 8.91 27.77 8.66 28.57 8.8L29.22 8.4C29.22 8.4 28.75 8.1 29.22 7.92L28.67 7.4C28.5241 7.40494 28.3788 7.37998 28.2429 7.32667C28.1071 7.27336 27.9836 7.19282 27.88 7.09L26.76 6.94C26.76 6.94 26.63 7.09 25.91 7.04L25.23 7.38C25.42 7.69 25 7.81 25 7.81L25.06 7.83Z" fill="black"/>
</svg>
