<svg width="32" height="32" viewBox="0 0 32 32" fill="none" xmlns="http://www.w3.org/2000/svg">
<path fill-rule="evenodd" clip-rule="evenodd" d="M16 7.5C16 8.67472 16.3626 9.75988 16.9826 10.6504C16.3585 11.396 15.8685 12.2402 15.5318 13.1452C15.4289 13.024 15.3206 12.9064 15.2071 12.7929L14.2994 11.8851C14.742 11.1901 15 10.3705 15 9.5C15 7.04772 12.9523 5 10.5 5H6V9.5C6 11.9523 8.04772 14 10.5 14C11.3705 14 12.1901 13.742 12.8851 13.2994L13.7929 14.2071C14.4117 14.8259 14.7916 15.6215 14.88 16.5H12.2361L9 14.8819V14.5H8.02283C8.00811 14.4997 7.9934 14.4997 7.97873 14.5H2V27.5H7.81977L12.7509 29.3371L12.7543 29.3383C14.8417 30.1074 17.0692 30.2264 19.1996 29.5541L19.2011 29.5536L27.2073 27.0517L27.2162 27.0487C28.8081 26.5181 29.9 25.0476 29.9 23.4C29.9 21.2477 28.1523 19.5 26 19.5H20C19.96 19.5 19.9206 19.5023 19.8819 19.5069C19.5317 18.0728 18.433 16.9724 17 16.6198V16.1C17 14.619 17.5065 13.2003 18.4129 12.0608C19.2913 12.6543 20.353 13 21.5 13C24.5523 13 27 10.5523 27 7.5V2H21.5C18.4477 2 16 4.44772 16 7.5ZM21.5 4C19.5523 4 18 5.55228 18 7.5C18 8.1064 18.1505 8.67447 18.4165 9.1693L21.2929 6.29289C21.6834 5.90237 22.3166 5.90237 22.7071 6.29289C23.0976 6.68342 23.0976 7.31658 22.7071 7.70711L19.8307 10.5835C20.3255 10.8495 20.8936 11 21.5 11C23.4477 11 25 9.44772 25 7.5V4H21.5ZM12.8209 10.4067L10.7071 8.29289C10.3166 7.90237 9.68342 7.90237 9.29289 8.29289C8.90237 8.68342 8.90237 9.31658 9.29289 9.70711L11.4067 11.8209C11.1236 11.9362 10.8172 12 10.5 12C9.15228 12 8 10.8477 8 9.5V7H10.5C11.8477 7 13 8.15228 13 9.5C13 9.81723 12.9362 10.1236 12.8209 10.4067ZM9 17.118V25.8054L13.4457 27.4617L13.4474 27.4623C15.159 28.0925 16.9303 28.1733 18.5989 27.6464L18.6017 27.6455L26.5918 25.1486C27.3953 24.8771 27.9 24.1499 27.9 23.4C27.9 22.3523 27.0477 21.5 26 21.5H20C19.96 21.5 19.9206 21.4977 19.8819 21.4931C19.4539 23.2458 17.908 24.5 16 24.5H13C12.4477 24.5 12 24.0523 12 23.5C12 22.9477 12.4477 22.5 13 22.5H16C17.1477 22.5 18 21.6477 18 20.5C18 19.3523 17.1477 18.5 16 18.5H11.7639L9 17.118ZM4 25.5V16.5H7V25.5H4Z" fill="black"/>
</svg>
