<svg width="32" height="32" viewBox="0 0 32 32" fill="none" xmlns="http://www.w3.org/2000/svg">
<path d="M27.7348 3.67829C28.1094 3.27246 28.0841 2.63981 27.6783 2.2652C27.2725 1.8906 26.6398 1.9159 26.2652 2.32172L15.0542 14.467L11.7809 10.3753C11.5911 10.1381 11.3038 10 11 10C10.6962 10 10.4089 10.1381 10.2191 10.3753L6.21914 15.3753C5.87413 15.8066 5.94405 16.4359 6.37531 16.7809C6.80657 17.1259 7.43587 17.056 7.78088 16.6247L11 12.6008L14.2191 16.6247C14.4012 16.8523 14.6734 16.9891 14.9647 16.9994C15.2559 17.0097 15.5371 16.8924 15.7348 16.6783L27.7348 3.67829Z" fill="black"/>
<path d="M4 3C4 2.44772 3.55228 2 3 2C2.44772 2 2 2.44772 2 3V26C2 28.2523 3.74772 30 6 30H29C29.5523 30 30 29.5523 30 29C30 28.4477 29.5523 28 29 28H6C4.85228 28 4 27.1477 4 26V3Z" fill="black"/>
<path d="M8 20C8 19.4477 7.55228 19 7 19C6.44772 19 6 19.4477 6 20V25C6 25.5523 6.44772 26 7 26C7.55228 26 8 25.5523 8 25V20Z" fill="black"/>
<path d="M11 16C11.5523 16 12 16.4477 12 17V25C12 25.5523 11.5523 26 11 26C10.4477 26 10 25.5523 10 25V17C10 16.4477 10.4477 16 11 16Z" fill="black"/>
<path d="M16 20C16 19.4477 15.5523 19 15 19C14.4477 19 14 19.4477 14 20V25C14 25.5523 14.4477 26 15 26C15.5523 26 16 25.5523 16 25V20Z" fill="black"/>
<path d="M19 16C19.5523 16 20 16.4477 20 17V25C20 25.5523 19.5523 26 19 26C18.4477 26 18 25.5523 18 25V17C18 16.4477 18.4477 16 19 16Z" fill="black"/>
<path d="M24 13C24 12.4477 23.5523 12 23 12C22.4477 12 22 12.4477 22 13V25C22 25.5523 22.4477 26 23 26C23.5523 26 24 25.5523 24 25V13Z" fill="black"/>
<path d="M27 8C27.5523 8 28 8.44772 28 9V25C28 25.5523 27.5523 26 27 26C26.4477 26 26 25.5523 26 25V9C26 8.44772 26.4477 8 27 8Z" fill="black"/>
</svg>
