<svg width="32" height="32" viewBox="0 0 32 32" fill="none" xmlns="http://www.w3.org/2000/svg">
<path d="M30 2H23C22.4477 2 22 2.44772 22 3C22 3.55228 22.4477 4 23 4H26.5858L19 11.5858L14 6.58579L2.29289 18.2929C1.90237 18.6834 1.90237 19.3166 2.29289 19.7071C2.68342 20.0976 3.31658 20.0976 3.70711 19.7071L14 9.41421L19 14.4142L28 5.41421V9C28 9.55228 28.4477 10 29 10C29.5523 10 30 9.55228 30 9V2Z" fill="black"/>
<path fill-rule="evenodd" clip-rule="evenodd" d="M27 14C27 13.5956 26.7564 13.2309 26.3827 13.0761C26.009 12.9214 25.5789 13.0069 25.2929 13.2929L19 19.5858L14.7071 15.2929C14.3166 14.9024 13.6834 14.9024 13.2929 15.2929L5.29289 23.2929C5.10536 23.4805 5 23.7348 5 24V29C5 29.5523 5.44772 30 6 30H23C25.2523 30 27 28.2523 27 26V14ZM19.7071 21.7071L25 16.4142V26C25 27.1477 24.1477 28 23 28H7V24.4142L14 17.4142L18.2929 21.7071C18.6834 22.0977 19.3166 22.0977 19.7071 21.7071Z" fill="black"/>
</svg>
