<svg width="32" height="32" viewBox="0 0 32 32" fill="none" xmlns="http://www.w3.org/2000/svg">
<path d="M14.21 18.21V18.46C14.2127 18.8011 14.2736 19.1393 14.39 19.46V19.46L15.51 23.01C15.58 23.22 15.63 23.44 15.68 23.66C15.6856 23.6931 15.6856 23.7269 15.68 23.76C15.6847 23.7965 15.6847 23.8335 15.68 23.87V23.87C15.51 24.36 15.36 24.87 15.17 25.35C14.98 25.83 14.87 25.97 14.41 25.9H13.72C13.49 25.9 13.45 25.74 13.52 25.53C13.59 25.32 13.73 24.83 13.82 24.43V24.35C13.8618 24.1833 13.882 24.0119 13.88 23.84C13.8773 23.3023 13.6942 22.7812 13.36 22.36V22.36C12.9286 21.8459 12.5902 21.2604 12.36 20.63V20.63C12.187 20.1476 12.0663 19.6481 12 19.14V19.14C11.94 18.66 11.62 18.55 11.23 18.7C10.5451 18.9731 9.87727 19.287 9.22999 19.64L9.31999 19.59C9.04326 19.7786 8.83708 20.0539 8.7339 20.3725C8.63071 20.6911 8.63637 21.035 8.74999 21.35C8.81606 21.5949 8.91353 21.8302 9.03999 22.05C9.14304 22.1836 9.26817 22.2986 9.40999 22.39V22.39L10.03 22.91C10.0356 22.9465 10.0356 22.9836 10.03 23.02C10.0347 23.0565 10.0347 23.0935 10.03 23.13C9.89208 23.5859 9.61604 23.9877 9.23999 24.28V24.28C9.18717 24.2905 9.1328 24.2905 9.07999 24.28C9.02379 24.2903 8.96618 24.2903 8.90999 24.28V24.28C8.61815 24.0945 8.3407 23.8872 8.07999 23.66V23.66C7.81999 23.43 7.58999 23.18 7.33999 22.95C7.06732 22.6846 6.9003 22.3293 6.86999 21.95V21.95C6.80565 21.5333 6.78221 21.1113 6.79999 20.69C6.79602 20.2741 6.83286 19.8587 6.90999 19.45V19.45C7.10994 18.7767 7.48627 18.169 7.99999 17.69V17.69C8.45999 17.22 8.94999 16.8 9.41999 16.35C9.64999 16.14 9.86999 15.95 10.09 15.73C10.1413 15.6751 10.1729 15.6048 10.18 15.53V15.53V13.32C10.1475 12.8071 10.0874 12.2964 9.99999 11.79V11.87C9.96228 11.664 9.88127 11.4683 9.76233 11.2959C9.64338 11.1236 9.48921 10.9784 9.30999 10.87C9.23659 10.8025 9.13962 10.7666 9.03999 10.77C8.96148 10.769 8.88426 10.79 8.81709 10.8307C8.74993 10.8713 8.6955 10.93 8.65999 11V11C8.48999 11.27 8.37999 11.56 8.21999 11.85C8.13088 12.0603 8.02729 12.2641 7.90999 12.46V12.46C7.82878 12.5634 7.72569 12.6475 7.60812 12.7063C7.49054 12.7651 7.36141 12.7971 7.22999 12.8C7.14767 12.7765 7.06991 12.7394 6.99999 12.69V12.69C6.8199 12.636 6.6587 12.5322 6.53488 12.3907C6.41107 12.2492 6.32965 12.0757 6.29999 11.89C6.29999 11.22 6.22999 10.57 6.20999 9.89C6.21338 9.48909 6.23674 9.08859 6.27999 8.69V8.75C6.27999 8.75 6.27999 8.69 6.27999 8.65C6.27896 8.53091 6.24472 8.41446 6.18112 8.31376C6.11752 8.21306 6.02709 8.13211 5.91999 8.08V8.08C5.23999 7.69 4.54999 7.31 3.84999 6.94C3.42999 6.69 2.99999 6.5 2.59999 6.26C2.15714 6.01815 1.73266 5.74407 1.32999 5.44V5.44C1.75999 5.56 2.09999 5.68 2.43999 5.81H2.36999C3.60999 6.33 4.89999 6.71 6.17999 7.13C6.59999 7.26 6.64999 7.13 6.66999 6.75C6.68999 6.37 6.66999 6 6.66999 5.62H6.73999C7.50913 5.94288 8.33584 6.10618 9.16999 6.1H9.44999C10.2106 6.17854 10.9655 6.30546 11.71 6.48H11.58C12.1142 6.65625 12.5726 7.00888 12.88 7.48V7.48C13.22 7.94 13.53 8.41 13.83 8.88C14.13 9.35 14.42 9.88 14.74 10.38C14.9503 10.7484 15.2546 11.0545 15.6217 11.267C15.9888 11.4796 16.4058 11.591 16.83 11.59C17.0051 11.5904 17.1796 11.5703 17.35 11.53V11.53C18.53 11.37 19.69 11.13 20.87 10.95C21.336 10.8719 21.8075 10.8317 22.28 10.83C22.7728 10.8322 23.2645 10.8757 23.75 10.96H23.7C24.1718 11.0699 24.6238 11.252 25.04 11.5C25.8679 11.9467 26.6232 12.5165 27.28 13.19V13.19C27.6454 13.6231 27.9607 14.0961 28.22 14.6V14.6C28.4462 14.9917 28.6434 15.3995 28.81 15.82V15.89C29.22 16.89 29.59 17.96 29.98 19.06L30.45 20.2C30.72 20.81 30.72 20.86 30.07 20.84C29.8384 20.837 29.6075 20.8136 29.38 20.77V20.77C29.0852 20.6889 28.8129 20.5412 28.584 20.3384C28.3552 20.1356 28.1759 19.883 28.06 19.6C27.77 18.93 27.57 18.23 27.29 17.52C27.09 17.05 26.84 16.59 26.6 16.14C26.546 16.0786 26.4712 16.0394 26.39 16.03V16.03C26.3401 16.0729 26.3022 16.128 26.28 16.19C26.17 16.54 26.07 16.9 25.98 17.19C25.9641 17.2994 25.9641 17.4106 25.98 17.52C25.9799 17.7692 26.0454 18.0141 26.17 18.23V18.23C26.43 18.72 26.69 19.23 26.96 19.69C27.4493 20.5885 27.7872 21.5616 27.96 22.57V22.69C28.0345 23.1563 28.0713 23.6278 28.07 24.1C28.0818 24.5877 28.0584 25.0757 28 25.56V25.51C28 25.56 27.91 25.64 27.86 25.64H26.86C26.61 25.64 26.51 25.5 26.5 25.18C26.5101 24.606 26.4901 24.0319 26.44 23.46C26.4449 23.4269 26.4449 23.3932 26.44 23.36C26.4405 23.0728 26.3832 22.7885 26.2716 22.5239C26.1599 22.2593 25.9961 22.0199 25.79 21.82C25.5964 21.6367 25.4128 21.4431 25.24 21.24V21.24L23.85 19.53C23.67 19.3 23.48 19.08 23.28 18.85C23.08 18.62 23 18.71 22.95 18.93C22.88 19.32 22.83 19.74 22.79 20.14C22.7645 20.3827 22.7645 20.6273 22.79 20.87C22.7949 21.1152 22.7094 21.3537 22.55 21.54V21.54C22.0524 22.1982 21.7105 22.9607 21.55 23.77V23.77C21.45 24.2 21.37 24.62 21.3 25.04C21.23 25.46 21.19 25.46 20.87 25.5C20.4836 25.52 20.0964 25.52 19.71 25.5C19.54 25.5 19.54 25.38 19.55 25.26C19.61 24.75 19.66 24.26 19.72 23.72C19.9779 22.4898 20.1119 21.2369 20.12 19.98V19.98C20.0823 19.546 20.0155 19.115 19.92 18.69C19.86 18.25 19.75 18.3 19.4 18.29H16C15.492 18.3038 14.9837 18.277 14.48 18.21H14.17H14.21Z" fill="black"/>
</svg>
