<svg width="32" height="32" viewBox="0 0 32 32" fill="none" xmlns="http://www.w3.org/2000/svg">
<path fill-rule="evenodd" clip-rule="evenodd" d="M25.7071 3.29289C25.3166 2.90237 24.6834 2.90237 24.2929 3.29289L21.5858 6H18C17.7348 6 17.4804 6.10536 17.2929 6.29289L15.5858 8H10.4142L7.70711 5.29289C7.31658 4.90237 6.68342 4.90237 6.29289 5.29289L2.29289 9.29289C1.90237 9.68342 1.90237 10.3166 2.29289 10.7071C2.68342 11.0976 3.31658 11.0976 3.70711 10.7071L7 7.41421L8.58579 9L2.29289 15.2929C1.90237 15.6834 1.90237 16.3166 2.29289 16.7071L6.22132 20.6355C6.10128 21.7852 6.48649 22.9673 7.40711 23.8214L11.1929 27.6071C12.502 28.9162 14.4944 29.1676 15.998 28.2633C17.4719 29.166 19.4336 28.9806 20.7071 27.7071L24.5929 23.8213C25.9343 22.5769 26.139 20.636 25.3003 19.1139L29.7071 14.7071C30.0976 14.3166 30.0976 13.6834 29.7071 13.2929L23.4142 7L25 5.41421L28.2929 8.70711C28.6834 9.09763 29.3166 9.09763 29.7071 8.70711C30.0976 8.31658 30.0976 7.68342 29.7071 7.29289L25.7071 3.29289ZM24 17.5858L27.5858 14L21.5858 8H18.4142L13.3071 13.1071C12.8976 13.5166 12.8976 14.2834 13.3071 14.6929C13.7166 15.1024 14.4834 15.1024 14.8929 14.6929L17.2929 12.2929C17.2951 12.2907 17.2974 12.2885 17.2996 12.2862C17.481 12.1082 17.7134 12.0132 17.9493 12.0013C17.9661 12.0004 17.983 12 18 12C17.9998 12 18.0002 12 18 12H22C22.5523 12 23 12.4477 23 13C23 13.5523 22.5523 14 22 14H20.4142L24 17.5858ZM18 14.4142L16.3071 16.1071C15.1166 17.2976 13.0834 17.2976 11.8929 16.1071C10.7024 14.9166 10.7024 12.8834 11.8929 11.6929L13.5858 10H10.4142L4.41421 16L7.02644 18.6122C7.13758 18.4662 7.25976 18.326 7.39288 18.1929C8.88341 16.7024 11.1166 16.7024 12.6071 18.1929L16.8071 22.3929C16.8183 22.4041 16.8293 22.4156 16.8399 22.4273C17.922 23.6176 18.1537 25.3694 17.4428 26.7394C18.0743 26.9388 18.7958 26.7899 19.2929 26.2929L23.1929 22.3929C23.2031 22.3827 23.2136 22.3726 23.2243 22.3628C23.974 21.6756 24.0202 20.4345 23.1929 19.6071L18 14.4142ZM15.3402 26.2485C15.3478 26.2405 15.3554 26.2324 15.3628 26.2243C15.3726 26.2136 15.3826 26.2031 15.3929 26.1929C15.9806 25.6052 16.0301 24.5261 15.3743 23.7886L11.1929 19.6071C10.4834 18.8976 9.51657 18.8976 8.8071 19.6071C7.97975 20.4345 8.02595 21.6756 8.77571 22.3629C8.78639 22.3726 8.79685 22.3827 8.8071 22.3929L12.6071 26.1929C13.3944 26.9802 14.5563 26.9765 15.2592 26.3282C15.2701 26.3163 15.2813 26.3045 15.2929 26.2929C15.3083 26.2775 15.3241 26.2627 15.3402 26.2485Z" fill="black"/>
</svg>
