<?xml version="1.0" encoding="UTF-8"?>
<svg width="24px" height="24px" viewBox="0 0 24 24" version="1.1" xmlns="http://www.w3.org/2000/svg" xmlns:xlink="http://www.w3.org/1999/xlink">
    <!-- Generator: Sketch 48.2 (47327) - http://www.bohemiancoding.com/sketch -->
    <title>headphones</title>
    <desc>Created with Sketch.</desc>
    <defs></defs>
    <g id="Page-1" stroke="none" stroke-width="1" fill="none" fill-rule="evenodd" stroke-linecap="round" stroke-linejoin="round">
        <g id="headphones" stroke="#000000" stroke-width="1.5">
            <path d="M5,18 C3.343,18 2,16.657 2,15 C2,13.343 3.343,12 5,12" id="Stroke-1"></path>
            <path d="M19,18 C20.657,18 22,16.657 22,15 C22,13.343 20.657,12 19,12" id="Stroke-3"></path>
            <path d="M5,18 L5,12 C5,8.134 8.134,5 12,5 C15.866,5 19,8.134 19,12 L19,18" id="Stroke-5"></path>
            <path d="M22,15 L19,15" id="Stroke-7"></path>
            <path d="M20,13 L20,17" id="Stroke-9"></path>
            <path d="M21,14 L21,16" id="Stroke-11"></path>
            <path d="M2,15 L5,15" id="Stroke-13"></path>
            <path d="M4,13 L4,17" id="Stroke-15"></path>
            <path d="M3,14 L3,16" id="Stroke-17"></path>
        </g>
    </g>
</svg>