<svg width="32" height="32" viewBox="0 0 32 32" fill="none" xmlns="http://www.w3.org/2000/svg">
<path fill-rule="evenodd" clip-rule="evenodd" d="M16 7.69C11.0523 7.69 7 11.7423 7 16.69V17.69H6C4.85228 17.69 4 18.5423 4 19.69V21.69C4 22.8377 4.85228 23.69 6 23.69H7V20.69C7 20.1377 7.44772 19.69 8 19.69C8.55228 19.69 9 20.1377 9 20.69V25.69H6C3.74772 25.69 2 23.9423 2 21.69V19.69C2 17.7716 3.26801 16.2192 5.0358 15.8011C5.49179 10.1607 10.2469 5.69 16 5.69C21.7531 5.69 26.5082 10.1607 26.9642 15.8011C28.732 16.2192 30 17.7716 30 19.69V21.69C30 23.9423 28.2523 25.69 26 25.69H23V20.69C23 20.1377 23.4477 19.69 24 19.69C24.5523 19.69 25 20.1377 25 20.69V23.69H26C27.1477 23.69 28 22.8377 28 21.69V19.69C28 18.5423 27.1477 17.69 26 17.69H25V16.69C25 11.7423 20.9477 7.69 16 7.69Z" fill="black"/>
</svg>
