<?xml version="1.0" encoding="UTF-8"?>
<svg width="24px" height="24px" viewBox="0 0 24 24" version="1.1" xmlns="http://www.w3.org/2000/svg" xmlns:xlink="http://www.w3.org/1999/xlink">
    <!-- Generator: Sketch 48.2 (47327) - http://www.bohemiancoding.com/sketch -->
    <title>headset</title>
    <desc>Created with Sketch.</desc>
    <defs></defs>
    <g id="Page-1" stroke="none" stroke-width="1" fill="none" fill-rule="evenodd" stroke-linecap="round" stroke-linejoin="round">
        <g id="headset" stroke="#000000" stroke-width="1.5">
            <path d="M5,16 C3.343,16 2,14.657 2,13 C2,11.343 3.343,10 5,10" id="Stroke-1"></path>
            <path d="M19,16 C20.657,16 22,14.657 22,13 C22,11.343 20.657,10 19,10" id="Stroke-3"></path>
            <path d="M15,21 C15,19.896 14.104,19 13,19 C11.896,19 11,19.896 11,21" id="Stroke-5"></path>
            <path d="M5,16 L5,10 C5,6.134 8.134,3 12,3 C15.866,3 19,6.134 19,10 L19,17 C19,19.209 17.209,21 15,21 L11,21" id="Stroke-7"></path>
            <path d="M2,13 L5,13" id="Stroke-9"></path>
            <path d="M4,11 L4,15" id="Stroke-11"></path>
            <path d="M3,12 L3,14" id="Stroke-13"></path>
            <path d="M22,13 L19,13" id="Stroke-15"></path>
            <path d="M20,11 L20,15" id="Stroke-17"></path>
            <path d="M21,12 L21,14" id="Stroke-19"></path>
        </g>
    </g>
</svg>