<svg width="32" height="32" viewBox="0 0 32 32" fill="none" xmlns="http://www.w3.org/2000/svg">
<path d="M7 14C7 9.05228 11.0523 5 16 5C20.9477 5 25 9.05228 25 14V15H26C27.1477 15 28 15.8523 28 17V19C28 20.1477 27.1477 21 26 21H25V18C25 17.4477 24.5523 17 24 17C23.4477 17 23 17.4477 23 18V25C23 26.1477 22.1477 27 21 27H19.4142L18.4142 26H16C15.4477 26 15 26.4477 15 27C15 27.5523 15.4477 28 16 28H17.5858L18.5858 29H21C23.2523 29 25 27.2523 25 25V23H26C28.2523 23 30 21.2523 30 19V17C30 15.0815 28.732 13.5292 26.9642 13.1111C26.5082 7.47071 21.7531 3 16 3C10.2469 3 5.49179 7.47071 5.0358 13.1111C3.26801 13.5292 2 15.0815 2 17V19C2 21.2523 3.74772 23 6 23H9V18C9 17.4477 8.55228 17 8 17C7.44772 17 7 17.4477 7 18V21H6C4.85228 21 4 20.1477 4 19V17C4 15.8523 4.85228 15 6 15H7V14Z" fill="black"/>
</svg>
