<svg xmlns="http://www.w3.org/2000/svg" width="64" height="64" viewBox="0 0 64 64">
  <title>headset</title>
  <path d="M50,34V46A10,10,0,0,1,40,56H37a3,3,0,0,1-3-3H30" fill="none" stroke="#000" stroke-linecap="round" stroke-linejoin="round" stroke-width="4"/>
  <path d="M14,26A18,18,0,0,1,32,8h0A18,18,0,0,1,50,26" fill="none" stroke="#000" stroke-linecap="round" stroke-linejoin="round" stroke-width="4"/>
  <path d="M14,26H11a5,5,0,0,0-5,5v7a5,5,0,0,0,5,5h3V34" fill="none" stroke="#000" stroke-linecap="round" stroke-linejoin="round" stroke-width="4"/>
  <path d="M50.33,43h3a5,5,0,0,0,5-5V31a5,5,0,0,0-5-5H50" fill="none" stroke="#000" stroke-linecap="round" stroke-linejoin="round" stroke-width="4"/>
</svg>
