<svg width="32" height="32" viewBox="0 0 32 32" fill="none" xmlns="http://www.w3.org/2000/svg">
<path fill-rule="evenodd" clip-rule="evenodd" d="M16 5.41151C14.2874 3.47217 11.6389 2.31971 8.73559 2.8036C5.31412 3.37384 2.68385 6.00412 2.1136 9.42559L2.11117 9.4402L2.10916 9.45488C1.77289 11.9209 2.44409 14.2105 3.9393 15.9391L12.9347 26.6337L12.9407 26.6408C14.5398 28.5064 17.4602 28.5064 19.0593 26.6408L28.0607 15.9392C29.5325 14.2376 30.3436 11.8402 29.884 9.41154C29.3112 6.11079 26.6952 3.3754 23.2644 2.8036C20.361 2.31971 17.7126 3.47217 16 5.41151ZM15.1458 7.60994C13.936 5.62241 11.6209 4.35029 9.06439 4.77638C6.49071 5.20533 4.52355 7.16847 4.08883 9.73986C3.83017 11.665 4.35721 13.3676 5.45568 14.6351L5.46052 14.6406L14.462 25.3424C15.2626 26.2725 16.7374 26.2725 17.538 25.3424L26.5395 14.6406L26.5443 14.6351C27.6676 13.339 28.254 11.5427 27.9177 9.7771L27.916 9.76851L27.9145 9.7599C27.4843 7.26447 25.5018 5.20409 22.9356 4.77638C20.379 4.35029 18.064 5.62241 16.8542 7.60994L16 9.01326L15.1458 7.60994Z" fill="black"/>
</svg>
