<svg width="32" height="32" viewBox="0 0 32 32" fill="none" xmlns="http://www.w3.org/2000/svg">
<path fill-rule="evenodd" clip-rule="evenodd" d="M22.46 23.37C23.0724 23.7189 23.5986 24.2007 24 24.78C24.85 25.92 25.18 27.12 24.72 27.46C24.26 27.8 23.2 27.15 22.35 26.01C21.9016 25.457 21.5898 24.8061 21.44 24.11C20.0143 25.0604 18.3684 25.6286 16.66 25.76C16.9299 26.3916 17.0628 27.0733 17.05 27.76C17.05 29.18 16.58 30.34 16.05 30.34C15.52 30.34 15.05 29.18 15.05 27.76C15.0325 27.0739 15.1621 26.3919 15.43 25.76C13.6964 25.6823 12.0122 25.1588 10.54 24.24C10.3706 24.8778 10.071 25.4737 9.66 25.99C8.81 27.13 7.75 27.78 7.29 27.44C6.83 27.1 7.16 25.9 8.01 24.76C8.38716 24.2276 8.86646 23.7755 9.42 23.43C8.68725 22.8475 8.04081 22.1641 7.5 21.4L8.65 20.69C9.4601 21.8575 10.5409 22.8115 11.8 23.4704C13.0591 24.1292 14.459 24.4733 15.88 24.4733C17.301 24.4733 18.7009 24.1292 19.96 23.4704C21.2191 22.8115 22.2999 21.8575 23.11 20.69L24.25 21.47C23.735 22.1756 23.1337 22.8139 22.46 23.37V23.37ZM9.26 7.85002C8.76882 7.51183 8.3421 7.08849 8 6.60002C7.15 5.46002 6.82 4.26002 7.28 3.92002C7.74 3.58002 8.8 4.23002 9.65 5.37002C10.0276 5.84615 10.3125 6.38886 10.49 6.97002C11.9257 6.06481 13.566 5.53524 15.26 5.43002C15.0434 4.84471 14.9382 4.22402 14.95 3.60002C14.95 2.18002 15.42 1.02002 15.95 1.02002C16.48 1.02002 16.95 2.18002 16.95 3.60002C16.963 4.22737 16.8579 4.85157 16.64 5.44002C18.3763 5.57102 20.0499 6.14608 21.5 7.11002C21.6763 6.47789 21.9753 5.88665 22.38 5.37002C23.23 4.23002 24.29 3.58002 24.75 3.92002C25.21 4.26002 24.88 5.46002 24.03 6.60002C23.6457 7.13961 23.1558 7.5955 22.59 7.94002C23.3774 8.65396 24.0518 9.48343 24.59 10.4L23.43 11.15C22.6749 9.85694 21.6022 8.77795 20.3137 8.01515C19.0251 7.25236 17.5632 6.831 16.0663 6.79095C14.5694 6.75089 13.087 7.09348 11.7595 7.78628C10.432 8.47908 9.30321 9.49917 8.48 10.75L7.34 9.97002C7.8808 9.17947 8.52673 8.46625 9.26 7.85002V7.85002ZM27.49 11.98H29.81V19.47H28.26V14.16L26.43 19.47H25.14L23.3 14.22V19.47H21.74V11.98H24.05L25.81 17.13L27.49 11.98ZM17.58 11.98V18.09H21.23V19.47H15.93V11.98H17.58ZM15.16 11.98V13.37H11.16V14.97H14.79V16.25H11.2V18.09H15.2V19.47H9.55V11.98H15.16ZM6.88 11.98H8.52V19.47H6.88V16.24H3.88V19.47H2.19V11.98H3.84V14.86H6.84L6.88 11.98Z" fill="black"/>
</svg>
