<svg width="32" height="32" viewBox="0 0 32 32" fill="none" xmlns="http://www.w3.org/2000/svg">
<path fill-rule="evenodd" clip-rule="evenodd" d="M16 2C8.26801 2 2 8.26801 2 16C2 23.732 8.26801 30 16 30C23.732 30 30 23.732 30 16C30 8.26801 23.732 2 16 2ZM8.25116 6.83695C10.3418 5.06716 13.0463 4 16 4C18.9537 4 21.6582 5.06716 23.7488 6.83695L20.9056 9.68014C19.551 8.62708 17.8487 8 16 8C14.1513 8 12.449 8.62708 11.0944 9.68014L8.25116 6.83695ZM22.3199 11.0944C23.3729 12.449 24 14.1513 24 16C24 17.8487 23.3729 19.551 22.3199 20.9056L25.1631 23.7488C26.9328 21.6581 28 18.9537 28 16C28 13.0463 26.9328 10.3418 25.1631 8.25116L22.3199 11.0944ZM6.83694 8.25116C5.06716 10.3418 4 13.0463 4 16C4 18.9537 5.06715 21.6581 6.83694 23.7488L9.68013 20.9056C8.62708 19.551 8 17.8487 8 16C8 14.1513 8.62708 12.449 9.68014 11.0944L6.83694 8.25116ZM16 28C13.0463 28 10.3418 26.9328 8.25115 25.163L11.0943 22.3198C12.449 23.3729 14.1513 24 16 24C17.8487 24 19.551 23.3729 20.9057 22.3198L23.7489 25.163C21.6582 26.9328 18.9537 28 16 28ZM10 16C10 12.6863 12.6863 10 16 10C19.3137 10 22 12.6863 22 16C22 19.3137 19.3137 22 16 22C12.6863 22 10 19.3137 10 16Z" fill="black"/>
</svg>
