<svg width="32" height="32" viewBox="0 0 32 32" fill="none" xmlns="http://www.w3.org/2000/svg">
<path d="M16 24.5C16.8284 24.5 17.5 23.8284 17.5 23C17.5 22.1716 16.8284 21.5 16 21.5C15.1716 21.5 14.5 22.1716 14.5 23C14.5 23.8284 15.1716 24.5 16 24.5Z" fill="black"/>
<path d="M13 12C13 10.3523 14.3523 9 16 9C17.6477 9 19 10.3523 19 12C19 13.021 18.3502 13.7356 17.2929 14.7929L17.2058 14.8798C16.2694 15.8143 15 17.0811 15 19C15 19.5523 15.4477 20 16 20C16.5523 20 17 19.5523 17 19C17 17.979 17.6498 17.2644 18.7071 16.2071L18.7942 16.1202C19.7306 15.1857 21 13.9189 21 12C21 9.24771 18.7523 7 16 7C13.2477 7 11 9.24771 11 12C11 12.5523 11.4477 13 12 13C12.5523 13 13 12.5523 13 12Z" fill="black"/>
<path fill-rule="evenodd" clip-rule="evenodd" d="M2 16C2 8.26801 8.26801 2 16 2C23.732 2 30 8.26801 30 16C30 23.732 23.732 30 16 30C8.26801 30 2 23.732 2 16ZM16 4C9.37258 4 4 9.37258 4 16C4 22.6274 9.37258 28 16 28C22.6274 28 28 22.6274 28 16C28 9.37258 22.6274 4 16 4Z" fill="black"/>
</svg>
