<svg width="32" height="32" viewBox="0 0 32 32" fill="none" xmlns="http://www.w3.org/2000/svg">
<path fill-rule="evenodd" clip-rule="evenodd" d="M29.12 2.25999H26.05C25.6407 2.26263 25.249 2.4271 24.9604 2.7175C24.6719 3.00789 24.51 3.40063 24.51 3.80999V12.62H7.51V3.77999C7.51008 3.3767 7.35195 2.98948 7.0696 2.70152C6.78725 2.41356 6.40321 2.24785 6 2.23999H2.88C2.47064 2.23998 2.0779 2.40191 1.78751 2.69043C1.49711 2.97896 1.33264 3.37064 1.33 3.77999V27.6C1.33264 28.0093 1.49711 28.401 1.78751 28.6895C2.0779 28.9781 2.47064 29.14 2.88 29.14H6C6.40844 29.14 6.80014 28.9777 7.08895 28.6889C7.37775 28.4001 7.54 28.0084 7.54 27.6V18.69H24.54V27.63C24.54 28.0384 24.7023 28.4301 24.9911 28.7189C25.2799 29.0077 25.6716 29.17 26.08 29.17H29.15C29.5603 29.1674 29.953 29.0032 30.2431 28.7131C30.5332 28.423 30.6974 28.0303 30.7 27.62V3.80999C30.6974 3.39971 30.5332 3.00699 30.2431 2.71687C29.953 2.42676 29.5603 2.26261 29.15 2.25999" fill="black"/>
</svg>
