<svg width="32" height="32" viewBox="0 0 32 32" fill="none" xmlns="http://www.w3.org/2000/svg">
<path d="M17 3C17 2.44772 17.4477 2 18 2H20C20.4282 2 20.8089 2.27266 20.9468 2.6781L22.6468 7.6781C22.8246 8.20099 22.5448 8.76899 22.0219 8.94677C21.499 9.12455 20.931 8.84479 20.7532 8.3219L19.2838 4H19V8C19 8.55228 18.5523 9 18 9C17.4477 9 17 8.55228 17 8V3Z" fill="black"/>
<path d="M2 12C2 11.4477 2.44772 11 3 11H29C29.5523 11 30 11.4477 30 12C30 12.5523 29.5523 13 29 13H26V16C26 16.5523 25.5523 17 25 17C24.4477 17 24 16.5523 24 16V13H8V16C8 16.5523 7.55228 17 7 17C6.44772 17 6 16.5523 6 16V13H3C2.44772 13 2 12.5523 2 12Z" fill="black"/>
<path d="M19 16C19 15.4477 18.5523 15 18 15C17.4477 15 17 15.4477 17 16V29C17 29.5523 17.4477 30 18 30H29C29.3233 30 29.6266 29.8437 29.8142 29.5805C30.0019 29.3173 30.0508 28.9796 29.9454 28.674L26.9454 19.974C26.7653 19.4519 26.1961 19.1746 25.674 19.3546C25.1519 19.5347 24.8746 20.1039 25.0546 20.626L27.5974 28H19V16Z" fill="black"/>
<path d="M11.0532 2.6781C11.1911 2.27266 11.5718 2 12 2H14C14.5523 2 15 2.44772 15 3V8C15 8.55228 14.5523 9 14 9C13.4477 9 13 8.55228 13 8V4H12.7162L11.2468 8.3219C11.069 8.84479 10.501 9.12455 9.9781 8.94677C9.45521 8.76899 9.17545 8.20099 9.35323 7.6781L11.0532 2.6781Z" fill="black"/>
<path d="M15 16C15 15.4477 14.5523 15 14 15C13.4477 15 13 15.4477 13 16V28H4.40262L6.94538 20.626C7.12542 20.1039 6.84811 19.5347 6.326 19.3546C5.80388 19.1746 5.23467 19.4519 5.05463 19.974L2.05463 28.674C1.94925 28.9796 1.9981 29.3173 2.18576 29.5805C2.37342 29.8437 2.67674 30 3.00001 30H14C14.5523 30 15 29.5523 15 29V16Z" fill="black"/>
</svg>
