<svg width="32" height="32" viewBox="0 0 32 32" fill="none" xmlns="http://www.w3.org/2000/svg">
<path d="M17 2H20.7162L22.6468 7.6781C22.8246 8.20099 22.5448 8.76899 22.0219 8.94677C21.499 9.12455 20.931 8.84479 20.7532 8.3219L19.2838 4H19V8C19 8.55228 18.5523 9 18 9C17.4477 9 17 8.55228 17 8V2Z" fill="black"/>
<path d="M2 12C2 11.4477 2.44772 11 3 11H29C29.5523 11 30 11.4477 30 12C30 12.5523 29.5523 13 29 13H26V16C26 16.5523 25.5523 17 25 17C24.4477 17 24 16.5523 24 16V13H8V16C8 16.5523 7.55228 17 7 17C6.44772 17 6 16.5523 6 16V13H3C2.44772 13 2 12.5523 2 12Z" fill="black"/>
<path d="M19 16C19 15.4477 18.5523 15 18 15C17.4477 15 17 15.4477 17 16V30H24.8C27.6019 30 29.4646 27.3089 28.5453 24.6739L26.9466 19.9777C26.7687 19.4549 26.2006 19.1754 25.6777 19.3533C25.1549 19.5313 24.8754 20.0994 25.0534 20.6223L26.6533 25.3223L26.6561 25.3304C27.1334 26.694 26.1966 28 24.8 28H19V16Z" fill="black"/>
<path d="M11.2838 2H15V8C15 8.55228 14.5523 9 14 9C13.4477 9 13 8.55228 13 8V4H12.7162L11.2468 8.3219C11.069 8.84479 10.501 9.12455 9.9781 8.94677C9.45521 8.76899 9.17545 8.20099 9.35323 7.6781L11.2838 2Z" fill="black"/>
<path d="M15 16C15 15.4477 14.5523 15 14 15C13.4477 15 13 15.4477 13 16V28H7.2C5.80341 28 4.86662 26.694 5.34389 25.3304L6.94665 20.6223C7.12463 20.0994 6.84508 19.5313 6.32226 19.3533C5.79944 19.1754 5.23133 19.4549 5.05335 19.9777L3.45464 24.6739C2.53543 27.3089 4.3981 30 7.2 30H15V16Z" fill="black"/>
</svg>
