<svg width="32" height="32" viewBox="0 0 32 32" fill="none" xmlns="http://www.w3.org/2000/svg">
<path d="M9.70711 5.29289C10.0976 5.68342 10.0976 6.31658 9.70711 6.70711L6.41421 10H16C16.5523 10 17 10.4477 17 11C17 11.5523 16.5523 12 16 12H6.41421L9.70711 15.2929C10.0976 15.6834 10.0976 16.3166 9.70711 16.7071C9.31658 17.0976 8.68342 17.0976 8.29289 16.7071L2.58578 11L8.29289 5.29289C8.68342 4.90237 9.31658 4.90237 9.70711 5.29289Z" fill="black"/>
<path fill-rule="evenodd" clip-rule="evenodd" d="M10.8293 22C10.4175 20.8348 9.30622 20 8 20C6.69378 20 5.58254 20.8348 5.17071 22H3C2.44772 22 2 22.4477 2 23C2 23.5523 2.44772 24 3 24H5.17071C5.58254 25.1652 6.69378 26 8 26C9.30622 26 10.4175 25.1652 10.8293 24H13.1707C13.5825 25.1652 14.6938 26 16 26C17.3062 26 18.4175 25.1652 18.8293 24H21.1707C21.5825 25.1652 22.6938 26 24 26C25.3062 26 26.4175 25.1652 26.8293 24H29C29.5523 24 30 23.5523 30 23C30 22.4477 29.5523 22 29 22H26.8293C26.4175 20.8348 25.3062 20 24 20C22.6938 20 21.5825 20.8348 21.1707 22H18.8293C18.4175 20.8348 17.3062 20 16 20C14.6938 20 13.5825 20.8348 13.1707 22H10.8293ZM8 22C7.44772 22 7 22.4477 7 23C7 23.5523 7.44772 24 8 24C8.55228 24 9 23.5523 9 23C9 22.4477 8.55228 22 8 22ZM25 23C25 22.4477 24.5523 22 24 22C23.4477 22 23 22.4477 23 23C23 23.5523 23.4477 24 24 24C24.5523 24 25 23.5523 25 23ZM16 22C16.5523 22 17 22.4477 17 23C17 23.5523 16.5523 24 16 24C15.4477 24 15 23.5523 15 23C15 22.4477 15.4477 22 16 22Z" fill="black"/>
<path d="M19 11C19 10.4477 19.4477 10 20 10H22C22.5523 10 23 10.4477 23 11C23 11.5523 22.5523 12 22 12H20C19.4477 12 19 11.5523 19 11Z" fill="black"/>
<path d="M26 10C25.4477 10 25 10.4477 25 11C25 11.5523 25.4477 12 26 12H27C27.5523 12 28 11.5523 28 11C28 10.4477 27.5523 10 27 10H26Z" fill="black"/>
</svg>
