<svg width="32" height="32" viewBox="0 0 32 32" fill="none" xmlns="http://www.w3.org/2000/svg">
<path d="M21.2929 5.29289C21.6834 4.90237 22.3166 4.90237 22.7071 5.29289L28.4142 11L22.7071 16.7071C22.3166 17.0976 21.6834 17.0976 21.2929 16.7071C20.9024 16.3166 20.9024 15.6834 21.2929 15.2929L24.5858 12H15C14.4477 12 14 11.5523 14 11C14 10.4477 14.4477 10 15 10H24.5858L21.2929 6.70711C20.9024 6.31658 20.9024 5.68342 21.2929 5.29289Z" fill="black"/>
<path fill-rule="evenodd" clip-rule="evenodd" d="M10.8293 22C10.4175 20.8348 9.30622 20 8 20C6.69378 20 5.58254 20.8348 5.17071 22H3C2.44772 22 2 22.4477 2 23C2 23.5523 2.44772 24 3 24H5.17071C5.58254 25.1652 6.69378 26 8 26C9.30622 26 10.4175 25.1652 10.8293 24H13.1707C13.5825 25.1652 14.6938 26 16 26C17.3062 26 18.4175 25.1652 18.8293 24H21.1707C21.5825 25.1652 22.6938 26 24 26C25.3062 26 26.4175 25.1652 26.8293 24H29C29.5523 24 30 23.5523 30 23C30 22.4477 29.5523 22 29 22H26.8293C26.4175 20.8348 25.3062 20 24 20C22.6938 20 21.5825 20.8348 21.1707 22H18.8293C18.4175 20.8348 17.3062 20 16 20C14.6938 20 13.5825 20.8348 13.1707 22H10.8293ZM8 22C7.44772 22 7 22.4477 7 23C7 23.5523 7.44772 24 8 24C8.55228 24 9 23.5523 9 23C9 22.4477 8.55228 22 8 22ZM25 23C25 22.4477 24.5523 22 24 22C23.4477 22 23 22.4477 23 23C23 23.5523 23.4477 24 24 24C24.5523 24 25 23.5523 25 23ZM16 22C16.5523 22 17 22.4477 17 23C17 23.5523 16.5523 24 16 24C15.4477 24 15 23.5523 15 23C15 22.4477 15.4477 22 16 22Z" fill="black"/>
<path d="M8 11C8 10.4477 8.44772 10 9 10H11C11.5523 10 12 10.4477 12 11C12 11.5523 11.5523 12 11 12H9C8.44772 12 8 11.5523 8 11Z" fill="black"/>
<path d="M4 10C3.44772 10 3 10.4477 3 11C3 11.5523 3.44772 12 4 12H5C5.55228 12 6 11.5523 6 11C6 10.4477 5.55228 10 5 10H4Z" fill="black"/>
</svg>
