<svg width="32" height="32" viewBox="0 0 32 32" fill="none" xmlns="http://www.w3.org/2000/svg">
<path fill-rule="evenodd" clip-rule="evenodd" d="M28 11.8182L16 2L4 11.8182V26.2921C4 28.5443 5.74772 30.2921 8 30.2921H12.1C12.169 30.2921 12.2364 30.2851 12.3015 30.2717C12.7572 30.1785 13.1 29.7753 13.1 29.2921L13.1 17.2921H18.9V29.2886L18.9 29.2921C18.9 29.8443 19.3477 30.2921 19.9 30.2921H24C26.2523 30.2921 28 28.5443 28 26.2921V11.8182ZM20.9 28.2921H24C25.1477 28.2921 26 27.4398 26 26.2921V12.7659L16 4.58412L6 12.7659V26.2921C6 27.4398 6.85228 28.2921 8 28.2921H11.1V15.2921H20.9V28.2921Z" fill="black"/>
</svg>
