<svg width="32" height="32" viewBox="0 0 32 32" fill="none" xmlns="http://www.w3.org/2000/svg">
<path fill-rule="evenodd" clip-rule="evenodd" d="M7.88932 2.01026C7.84382 2.0035 7.79731 2 7.75 2C7.21497 2 6.78125 2.44772 6.78125 3V8C6.78125 10.3951 7.96317 12.1517 9.5517 13.5182C10.6495 14.4626 11.992 15.2639 13.358 16C11.992 16.7361 10.6495 17.5374 9.5517 18.4818C7.96317 19.8483 6.78125 21.6049 6.78125 24V29C6.78125 29.5523 7.21497 30 7.75 30C7.80192 30 7.85288 29.9958 7.90258 29.9877C7.9282 29.9958 7.95541 30 7.98435 30H23.25H23.4843C23.5753 30 23.6456 29.9582 23.6996 29.886C24.0082 29.7188 24.2188 29.3848 24.2188 29V24C24.2188 21.6049 23.0368 19.8483 21.4483 18.4818C20.3505 17.5374 19.008 16.7361 17.642 16C19.008 15.2639 20.3505 14.4626 21.4483 13.5182C23.0368 12.1517 24.2188 10.3951 24.2188 8V3C24.2188 2.62716 24.0211 2.30197 23.728 2.13002C23.662 2.04807 23.5818 2 23.4843 2H23.25H7.98435C7.94786 2 7.91636 2.00352 7.88932 2.01026ZM22.2812 4H8.71875V8C8.71875 9.60488 9.47433 10.8483 10.7921 11.9818C12.0419 13.0569 13.7009 13.95 15.5 14.8817C17.2991 13.95 18.9581 13.0569 20.2079 11.9818C21.5257 10.8483 22.2812 9.60488 22.2812 8V4ZM22.2812 28V24C22.2812 22.3951 21.5257 21.1517 20.2079 20.0182C18.9581 18.9431 17.2991 18.05 15.5 17.1183C13.7009 18.05 12.0419 18.9431 10.7921 20.0182C9.47433 21.1517 8.71875 22.3951 8.71875 24V28H22.2812Z" fill="black"/>
</svg>
