<svg width="32" height="32" viewBox="0 0 32 32" fill="none" xmlns="http://www.w3.org/2000/svg">
<path fill-rule="evenodd" clip-rule="evenodd" d="M5 2C4.44772 2 4 2.44772 4 3C4 3.55228 4.44772 4 5 4H7V8C7 10.3951 8.22005 12.1517 9.85982 13.5182C10.9931 14.4626 12.3788 15.2639 13.7889 16C12.3788 16.7361 10.9931 17.5374 9.85982 18.4818C8.22005 19.8483 7 21.6049 7 24V28H5C4.44772 28 4 28.4477 4 29C4 29.5523 4.44772 30 5 30H27C27.5523 30 28 29.5523 28 29C28 28.4477 27.5523 28 27 28H25V24C25 21.6049 23.78 19.8483 22.1402 18.4818C21.0069 17.5374 19.6212 16.7361 18.2111 16C19.6212 15.2639 21.0069 14.4626 22.1402 13.5182C23.78 12.1517 25 10.3951 25 8V4H27C27.5523 4 28 3.55228 28 3C28 2.44772 27.5523 2 27 2H5ZM23 4H9V8C9 9.60488 9.77995 10.8483 11.1402 11.9818C12.4304 13.0569 14.1429 13.95 16 14.8817C17.8571 13.95 19.5696 13.0569 20.8598 11.9818C22.22 10.8483 23 9.60488 23 8V4ZM16 17.1183C14.1429 18.05 12.4304 18.9431 11.1402 20.0182C9.77995 21.1517 9 22.3951 9 24V28H23V24C23 22.3951 22.22 21.1517 20.8598 20.0182C19.5696 18.9431 17.8571 18.05 16 17.1183Z" fill="black"/>
</svg>
