<svg width="32" height="32" viewBox="0 0 32 32" fill="none" xmlns="http://www.w3.org/2000/svg">
<path fill-rule="evenodd" clip-rule="evenodd" d="M10 23.53V7.84998H13.28V13.56H18.71V7.84998H22V23.53H18.71V16.67H13.28V23.53H10Z" fill="black"/>
<path d="M16 30.11C15.1685 30.1111 14.3512 29.8939 13.63 29.48L5.25 24.69C4.52937 24.2728 3.93108 23.6735 3.51512 22.9521C3.09915 22.2308 2.88013 21.4127 2.88 20.58V10.85C2.88013 10.0173 3.09915 9.1993 3.51512 8.47794C3.93108 7.75659 4.52937 7.15725 5.25 6.74003L13.63 1.90003C14.3516 1.48692 15.1686 1.26959 16 1.26959C16.8314 1.26959 17.6484 1.48692 18.37 1.90003L26.75 6.74003C27.4706 7.15725 28.0689 7.75659 28.4849 8.47794C28.9008 9.1993 29.1199 10.0173 29.12 10.85V20.53C29.1287 21.3712 28.9139 22.1996 28.4975 22.9305C28.081 23.6614 27.478 24.2686 26.75 24.69L18.37 29.53C17.644 29.9264 16.827 30.1264 16 30.11V30.11ZM16 3.27003C15.5138 3.28358 15.0403 3.42873 14.63 3.69003L6.25 8.48003C5.83252 8.7187 5.48578 9.06379 5.24512 9.48012C5.00445 9.89645 4.87847 10.3691 4.88 10.85V20.53C4.87847 21.0109 5.00445 21.4836 5.24512 21.8999C5.48578 22.3163 5.83252 22.6614 6.25 22.9L14.63 27.74C15.0465 27.9805 15.519 28.1071 16 28.1071C16.481 28.1071 16.9535 27.9805 17.37 27.74L25.75 22.9C26.1675 22.6614 26.5142 22.3163 26.7549 21.8999C26.9955 21.4836 27.1215 21.0109 27.12 20.53V10.85C27.1215 10.3691 26.9955 9.89645 26.7549 9.48012C26.5142 9.06379 26.1675 8.7187 25.75 8.48003L17.37 3.69003C16.9597 3.42873 16.4862 3.28358 16 3.27003V3.27003Z" fill="black"/>
</svg>
