<svg width="32" height="32" viewBox="0 0 32 32" fill="none" xmlns="http://www.w3.org/2000/svg">
<path fill-rule="evenodd" clip-rule="evenodd" d="M11 7C11 4.23858 13.2386 2 16 2C18.7614 2 21 4.23858 21 7C21 9.76142 18.7614 12 16 12C13.2386 12 11 9.76142 11 7ZM16 4C14.3431 4 13 5.34315 13 7C13 8.65685 14.3431 10 16 10C17.6569 10 19 8.65685 19 7C19 5.34315 17.6569 4 16 4Z" fill="black"/>
<path d="M3.22487 11.0256C2.68673 10.9014 2.1498 11.237 2.02562 11.7751C1.90143 12.3133 2.23701 12.8502 2.77515 12.9744L15 15.7955V18.6748L7.19127 29.4118C6.86644 29.8585 6.96519 30.4839 7.41184 30.8087C7.85849 31.1336 8.48391 31.0348 8.80875 30.5882L16 20.7002L23.1913 30.5882C23.5161 31.0348 24.1415 31.1336 24.5882 30.8087C25.0348 30.4839 25.1336 29.8585 24.8087 29.4118L17 18.6748V15.7955L29.2249 12.9744C29.763 12.8502 30.0986 12.3133 29.9744 11.7751C29.8502 11.237 29.3133 10.9014 28.7751 11.0256L16 13.9737L3.22487 11.0256Z" fill="black"/>
</svg>
