<svg width="32" height="32" viewBox="0 0 32 32" fill="none" xmlns="http://www.w3.org/2000/svg">
<path d="M13.36 21.1C13.6869 21.094 14.0074 21.0078 14.2933 20.8492C14.5792 20.6905 14.8218 20.4642 15 20.19L19.42 13.28C19.6199 12.9514 19.727 12.5747 19.73 12.19C19.7344 11.8565 19.6552 11.5271 19.4998 11.2319C19.3443 10.9367 19.1175 10.6851 18.84 10.5C18.5391 10.3133 18.194 10.2097 17.84 10.2C17.5123 10.2034 17.1904 10.2872 16.9027 10.4441C16.615 10.6011 16.3702 10.8263 16.19 11.1L11.76 18C11.483 18.4488 11.3877 18.9864 11.4936 19.5031C11.5996 20.0197 11.8987 20.4765 12.33 20.78V20.78C12.6375 20.979 12.9938 21.0897 13.36 21.1V21.1ZM16 30.36C13.0985 30.36 10.2622 29.4996 7.84978 27.8877C5.43731 26.2757 3.55702 23.9846 2.44668 21.304C1.33634 18.6234 1.04583 15.6738 1.61187 12.8281C2.17792 9.98235 3.5751 7.36841 5.62674 5.31677C7.67837 3.26513 10.2923 1.86795 13.138 1.30191C15.9837 0.735861 18.9334 1.02638 21.614 2.13671C24.2945 3.24705 26.5857 5.12734 28.1976 7.53981C29.8096 9.95228 30.67 12.7886 30.67 15.69C30.6541 19.5731 29.1025 23.2922 26.3539 26.0352C23.6053 28.7781 19.8831 30.3221 16 30.33V30.33V30.36ZM16 4.36003C13.7567 4.36003 11.5639 5.02536 9.69879 6.27186C7.83372 7.51836 6.38025 9.29001 5.52225 11.3627C4.66424 13.4354 4.44026 15.716 4.87862 17.916C5.31699 20.116 6.39802 22.1366 7.98494 23.7222C9.57187 25.3077 11.5934 26.3869 13.7938 26.8233C15.9942 27.2598 18.2746 27.0338 20.3466 26.1739C22.4185 25.3141 24.1889 23.8591 25.4337 21.9929C26.6786 20.1267 27.342 17.9333 27.34 15.69C27.3439 14.1983 27.0535 12.7205 26.4854 11.3412C25.9173 9.96189 25.0826 8.70823 24.0292 7.65203C22.9758 6.59584 21.7244 5.75786 20.3466 5.18609C18.9688 4.61433 17.4917 4.32002 16 4.32003V4.36003Z" fill="black"/>
</svg>
