<svg width="32" height="32" viewBox="0 0 32 32" fill="none" xmlns="http://www.w3.org/2000/svg">
<path d="M10.76 24.07C10.7668 23.9345 10.7459 23.7991 10.6987 23.6719C10.6515 23.5448 10.5789 23.4286 10.4854 23.3303C10.3918 23.2321 10.2793 23.154 10.1546 23.1006C10.0299 23.0473 9.89564 23.0198 9.76 23.02H8.76C8.48152 23.02 8.21445 23.1306 8.01754 23.3275C7.82063 23.5244 7.71 23.7915 7.71 24.07C7.71 24.3485 7.82063 24.6155 8.01754 24.8125C8.21445 25.0094 8.48152 25.12 8.76 25.12H9.76C9.89564 25.1202 10.0299 25.0927 10.1546 25.0394C10.2793 24.986 10.3918 24.9079 10.4854 24.8097C10.5789 24.7114 10.6515 24.5952 10.6987 24.4681C10.7459 24.3409 10.7668 24.2055 10.76 24.07ZM10.76 19.88C10.7668 19.7445 10.7459 19.6091 10.6987 19.4819C10.6515 19.3548 10.5789 19.2386 10.4854 19.1403C10.3918 19.0421 10.2793 18.964 10.1546 18.9106C10.0299 18.8573 9.89564 18.8298 9.76 18.83H8.76C8.48152 18.83 8.21445 18.9406 8.01754 19.1375C7.82063 19.3344 7.71 19.6015 7.71 19.88C7.71 20.1585 7.82063 20.4255 8.01754 20.6225C8.21445 20.8194 8.48152 20.93 8.76 20.93H9.76C9.89564 20.9302 10.0299 20.9027 10.1546 20.8494C10.2793 20.796 10.3918 20.7179 10.4854 20.6197C10.5789 20.5214 10.6515 20.4052 10.6987 20.2781C10.7459 20.1509 10.7668 20.0155 10.76 19.88V19.88ZM10.76 15.69C10.7668 15.5545 10.7459 15.4191 10.6987 15.2919C10.6515 15.1648 10.5789 15.0486 10.4854 14.9503C10.3918 14.8521 10.2793 14.774 10.1546 14.7206C10.0299 14.6673 9.89564 14.6398 9.76 14.64H8.76C8.48152 14.64 8.21445 14.7506 8.01754 14.9475C7.82063 15.1444 7.71 15.4115 7.71 15.69C7.71 15.9685 7.82063 16.2355 8.01754 16.4325C8.21445 16.6294 8.48152 16.74 8.76 16.74H9.76C9.89564 16.7402 10.0299 16.7127 10.1546 16.6594C10.2793 16.606 10.3918 16.5279 10.4854 16.4297C10.5789 16.3314 10.6515 16.2152 10.6987 16.0881C10.7459 15.9609 10.7668 15.8255 10.76 15.69V15.69ZM9.76 12.55H8.76C8.48152 12.55 8.21445 12.4394 8.01754 12.2425C7.82063 12.0455 7.71 11.7785 7.71 11.5C7.71 11.2215 7.82063 10.9544 8.01754 10.7575C8.21445 10.5606 8.48152 10.45 8.76 10.45H9.76C10.0385 10.45 10.3056 10.5606 10.5025 10.7575C10.6994 10.9544 10.81 11.2215 10.81 11.5C10.81 11.7785 10.6994 12.0455 10.5025 12.2425C10.3056 12.4394 10.0385 12.55 9.76 12.55V12.55ZM20.19 24.07C20.1972 23.9302 20.1749 23.7905 20.1247 23.6598C20.0745 23.5292 19.9974 23.4105 19.8984 23.3116C19.7995 23.2126 19.6808 23.1355 19.5502 23.0853C19.4195 23.0351 19.2798 23.0128 19.14 23.02H12.86C12.5815 23.02 12.3145 23.1306 12.1175 23.3275C11.9206 23.5244 11.81 23.7915 11.81 24.07C11.81 24.3485 11.9206 24.6155 12.1175 24.8125C12.3145 25.0094 12.5815 25.12 12.86 25.12H19.14C19.2798 25.1272 19.4195 25.1049 19.5502 25.0547C19.6808 25.0045 19.7995 24.9274 19.8984 24.8284C19.9974 24.7294 20.0745 24.6108 20.1247 24.4802C20.1749 24.3495 20.1972 24.2098 20.19 24.07ZM24.38 11.5C24.3872 11.3602 24.3649 11.2205 24.3147 11.0898C24.2645 10.9592 24.1874 10.8405 24.0884 10.7416C23.9895 10.6426 23.8708 10.5655 23.7402 10.5153C23.6095 10.4651 23.4698 10.4428 23.33 10.45H12.86C12.5815 10.45 12.3145 10.5606 12.1175 10.7575C11.9206 10.9544 11.81 11.2215 11.81 11.5C11.81 11.7785 11.9206 12.0455 12.1175 12.2425C12.3145 12.4394 12.5815 12.55 12.86 12.55H23.33C23.4698 12.5572 23.6095 12.5349 23.7402 12.4847C23.8708 12.4345 23.9895 12.3574 24.0884 12.2584C24.1874 12.1595 24.2645 12.0408 24.3147 11.9102C24.3649 11.7795 24.3872 11.6398 24.38 11.5V11.5ZM22.29 15.69C22.2902 15.5544 22.2627 15.4201 22.2094 15.2954C22.156 15.1707 22.0779 15.0582 21.9797 14.9646C21.8814 14.8711 21.7652 14.7985 21.6381 14.7513C21.5109 14.7041 21.3755 14.6832 21.24 14.69H12.86C12.5815 14.69 12.3145 14.8006 12.1175 14.9975C11.9206 15.1944 11.81 15.4615 11.81 15.74C11.81 16.0185 11.9206 16.2855 12.1175 16.4825C12.3145 16.6794 12.5815 16.79 12.86 16.79H21.24C21.3843 16.798 21.5286 16.7746 21.663 16.7214C21.7974 16.6682 21.9187 16.5865 22.0185 16.482C22.1183 16.3774 22.1943 16.2525 22.2411 16.1158C22.288 15.979 22.3047 15.8338 22.29 15.69V15.69ZM24.38 19.88C24.3872 19.7402 24.3649 19.6005 24.3147 19.4698C24.2645 19.3392 24.1874 19.2205 24.0884 19.1216C23.9895 19.0226 23.8708 18.9455 23.7402 18.8953C23.6095 18.8451 23.4698 18.8228 23.33 18.83H12.86C12.5815 18.83 12.3145 18.9406 12.1175 19.1375C11.9206 19.3344 11.81 19.6015 11.81 19.88C11.81 20.1585 11.9206 20.4255 12.1175 20.6225C12.3145 20.8194 12.5815 20.93 12.86 20.93H23.33C23.4698 20.9372 23.6095 20.9149 23.7402 20.8647C23.8708 20.8145 23.9895 20.7374 24.0884 20.6384C24.1874 20.5395 24.2645 20.4208 24.3147 20.2902C24.3649 20.1595 24.3872 20.0198 24.38 19.88ZM30.67 4.17V27.17C30.67 28.0054 30.3381 28.8066 29.7474 29.3974C29.1566 29.9881 28.3554 30.32 27.52 30.32H4.52C3.68457 30.32 2.88336 29.9881 2.29262 29.3974C1.70188 28.8066 1.37 28.0054 1.37 27.17V8.36C1.36993 7.53145 1.69631 6.73624 2.27843 6.14664C2.86054 5.55703 3.65152 5.22052 4.48 5.21H13.9C14.1785 5.21 14.4456 5.32062 14.6425 5.51754C14.8394 5.71445 14.95 5.98152 14.95 6.26C14.95 6.53848 14.8394 6.80555 14.6425 7.00246C14.4456 7.19937 14.1785 7.31 13.9 7.31H4.48C4.34453 7.30322 4.2091 7.32406 4.08195 7.37127C3.95479 7.41848 3.83857 7.49107 3.74035 7.58461C3.64213 7.67815 3.56396 7.7907 3.51061 7.9154C3.45726 8.04011 3.42983 8.17436 3.43 8.31V27.21C3.42282 27.3498 3.44506 27.4895 3.49529 27.6202C3.54551 27.7508 3.62261 27.8695 3.72158 27.9684C3.82055 28.0674 3.9392 28.1445 4.06984 28.1947C4.20049 28.2449 4.34022 28.2672 4.48 28.26H27.48C27.6198 28.2672 27.7595 28.2449 27.8902 28.1947C28.0208 28.1445 28.1395 28.0674 28.2384 27.9684C28.3374 27.8695 28.4145 27.7508 28.4647 27.6202C28.5149 27.4895 28.5372 27.3498 28.53 27.21V4.21C28.5372 4.07021 28.5149 3.93048 28.4647 3.79984C28.4145 3.66919 28.3374 3.55055 28.2384 3.45157C28.1395 3.3526 28.0208 3.27551 27.8902 3.22528C27.7595 3.17506 27.6198 3.15281 27.48 3.16H2.38C2.10152 3.16 1.83445 3.04937 1.63754 2.85246C1.44063 2.65555 1.33 2.38847 1.33 2.11C1.33 1.83152 1.44063 1.56445 1.63754 1.36754C1.83445 1.17062 2.10152 1.06 2.38 1.06H27.52C28.3554 1.06 29.1566 1.39187 29.7474 1.98261C30.3381 2.57335 30.67 3.37457 30.67 4.21V4.17Z" fill="black"/>
</svg>
