<svg width="32" height="32" viewBox="0 0 32 32" fill="none" xmlns="http://www.w3.org/2000/svg">
<path fill-rule="evenodd" clip-rule="evenodd" d="M7 11C7 8.79086 8.79086 7 11 7C13.2091 7 15 8.79086 15 11C15 13.2091 13.2091 15 11 15C8.79086 15 7 13.2091 7 11ZM11 9C9.89543 9 9 9.89543 9 11C9 12.1046 9.89543 13 11 13C12.1046 13 13 12.1046 13 11C13 9.89543 12.1046 9 11 9Z" fill="black"/>
<path fill-rule="evenodd" clip-rule="evenodd" d="M6 30C3.74772 30 2 28.2523 2 26V6C2 3.74772 3.74772 2 6 2H26C28.2523 2 30 3.74772 30 6V20.9899C30.0001 20.9972 30.0001 21.0044 30 21.0116V26C30 28.2523 28.2523 30 26 30H6ZM4 6C4 4.85228 4.85228 4 6 4H26C27.1477 4 28 4.85228 28 6V19L20.9062 13.6796L6.58579 28H6C4.85228 28 4 27.1477 4 26V6ZM28 21.5V26C28 27.1477 27.1477 28 26 28H9.41422L21.0938 16.3204L28 21.5Z" fill="black"/>
</svg>
