<svg width="32" height="32" viewBox="0 0 32 32" fill="none" xmlns="http://www.w3.org/2000/svg">
<path d="M21.5425 4.05448C22.534 3.80661 23.6382 4.48596 23.9269 5.61529L24.7238 9.20127C24.8436 9.74041 25.3778 10.0803 25.9169 9.96053C26.4561 9.84072 26.796 9.30654 26.6762 8.76741L25.8733 5.15457L25.8701 5.14181C25.3552 3.08201 23.2706 1.56871 21.0701 2.11106L5.497 5.60503C3.2981 6.02884 2.01228 8.31231 2.52522 10.4081L3.22176 13.6918C3.33636 14.2321 3.86724 14.5772 4.4075 14.4626C4.94777 14.348 5.29283 13.8171 5.17823 13.2768L4.4745 9.95925L4.47014 9.94181C4.19686 8.84867 4.90117 7.75155 5.88429 7.56721L5.90166 7.56396L21.5308 4.05743L21.5425 4.05448Z" fill="black"/>
<path fill-rule="evenodd" clip-rule="evenodd" d="M13 14.9843C11.3431 14.9843 10 16.3275 10 17.9843C10 19.6412 11.3431 20.9843 13 20.9843C14.6569 20.9843 16 19.6412 16 17.9843C16 16.3275 14.6569 14.9843 13 14.9843ZM12 17.9843C12 17.432 12.4477 16.9843 13 16.9843C13.5523 16.9843 14 17.432 14 17.9843C14 18.5366 13.5523 18.9843 13 18.9843C12.4477 18.9843 12 18.5366 12 17.9843Z" fill="black"/>
<path fill-rule="evenodd" clip-rule="evenodd" d="M30 25.9843V14.9843C30 12.732 28.2523 10.9843 26 10.9843H10C7.74771 10.9843 6 12.732 6 14.9843V25.9843C6 28.2366 7.74771 29.9843 10 29.9843H26C28.2523 29.9843 30 28.2366 30 25.9843ZM10 12.9843C8.85228 12.9843 8 13.8366 8 14.9843V25.9843C8 27.132 8.85228 27.9843 10 27.9843H11.5804L22.7029 16.6558L28 20.6714V14.9843C28 13.8366 27.1477 12.9843 26 12.9843H10ZM26 27.9843H14.3832L22.8971 19.3128L28 23.1811V25.9843C28 27.132 27.1477 27.9843 26 27.9843Z" fill="black"/>
</svg>
