<svg width="32" height="32" viewBox="0 0 32 32" fill="none" xmlns="http://www.w3.org/2000/svg">
<path d="M4 6C4 4.85228 4.85228 4 6 4H18C19.1477 4 20 4.85228 20 6C20 6.55228 20.4477 7 21 7C21.5523 7 22 6.55228 22 6C22 3.74772 20.2523 2 18 2H6C3.74772 2 2 3.74772 2 6V18C2 20.2523 3.74772 22 6 22C6.55228 22 7 21.5523 7 21C7 20.4477 6.55228 20 6 20C4.85228 20 4 19.1477 4 18V6Z" fill="black"/>
<path d="M19 10C18.4477 10 18 10.4477 18 11C18 11.5523 18.4477 12 19 12H26C27.1477 12 28 12.8523 28 14V26C28 27.1477 27.1477 28 26 28H14C12.8523 28 12 27.1477 12 26V19C12 18.4477 11.5523 18 11 18C10.4477 18 10 18.4477 10 19V26C10 28.2523 11.7477 30 14 30H26C28.2523 30 30 28.2523 30 26V14C30 11.7477 28.2523 10 26 10H19Z" fill="black"/>
<path d="M23 18C23 17.4477 23.4477 17 24 17C24.5523 17 25 17.4477 25 18V25H18C17.4477 25 17 24.5523 17 24C17 23.4477 17.4477 23 18 23H21.5858L16.2929 17.7071C15.9024 17.3166 15.9024 16.6834 16.2929 16.2929C16.6834 15.9024 17.3166 15.9024 17.7071 16.2929L23 21.5858V18Z" fill="black"/>
<path d="M11.2929 11.2929C11.6834 10.9024 12.3166 10.9024 12.7071 11.2929L14.7071 13.2929C15.0976 13.6834 15.0976 14.3166 14.7071 14.7071C14.3166 15.0976 13.6834 15.0976 13.2929 14.7071L11.2929 12.7071C10.9024 12.3166 10.9024 11.6834 11.2929 11.2929Z" fill="black"/>
<path d="M8.70711 7.29289C8.31658 6.90237 7.68342 6.90237 7.29289 7.29289C6.90237 7.68342 6.90237 8.31658 7.29289 8.70711L8.29289 9.70711C8.68342 10.0976 9.31658 10.0976 9.70711 9.70711C10.0976 9.31658 10.0976 8.68342 9.70711 8.29289L8.70711 7.29289Z" fill="black"/>
</svg>
