<svg width="32" height="32" viewBox="0 0 32 32" fill="none" xmlns="http://www.w3.org/2000/svg">
<path d="M4 6C4 4.85228 4.85228 4 6 4H17C18.1477 4 19 4.85228 19 6V11C19 11.5523 19.4477 12 20 12C20.5523 12 21 11.5523 21 11V6C21 3.74772 19.2523 2 17 2H6C3.74772 2 2 3.74772 2 6V26C2 28.2523 3.74772 30 6 30H17C19.2523 30 21 28.2523 21 26V21C21 20.4477 20.5523 20 20 20C19.4477 20 19 20.4477 19 21V26C19 27.1477 18.1477 28 17 28H6C4.85228 28 4 27.1477 4 26V6Z" fill="black"/>
<path d="M14.7071 11.7071C15.0976 11.3166 15.0976 10.6834 14.7071 10.2929C14.3166 9.90237 13.6834 9.90237 13.2929 10.2929L7.58578 16L13.2929 21.7071C13.6834 22.0976 14.3166 22.0976 14.7071 21.7071C15.0976 21.3166 15.0976 20.6834 14.7071 20.2929L11.4142 17H24C24.5523 17 25 16.5523 25 16C25 15.4477 24.5523 15 24 15H11.4142L14.7071 11.7071Z" fill="black"/>
<path d="M22 2C21.4477 2 21 2.44772 21 3C21 3.55228 21.4477 4 22 4H23C23.5523 4 24 3.55228 24 3C24 2.44772 23.5523 2 23 2H22Z" fill="black"/>
<path d="M26 2C25.4477 2 25 2.44772 25 3C25 3.55228 25.4477 4 26 4C27.1477 4 28 4.85228 28 6C28 6.55228 28.4477 7 29 7C29.5523 7 30 6.55228 30 6C30 3.74772 28.2523 2 26 2Z" fill="black"/>
<path d="M30 9C30 8.44772 29.5523 8 29 8C28.4477 8 28 8.44772 28 9V10C28 10.5523 28.4477 11 29 11C29.5523 11 30 10.5523 30 10V9Z" fill="black"/>
<path d="M30 13C30 12.4477 29.5523 12 29 12C28.4477 12 28 12.4477 28 13V14C28 14.5523 28.4477 15 29 15C29.5523 15 30 14.5523 30 14V13Z" fill="black"/>
<path d="M30 18C30 17.4477 29.5523 17 29 17C28.4477 17 28 17.4477 28 18V19C28 19.5523 28.4477 20 29 20C29.5523 20 30 19.5523 30 19V18Z" fill="black"/>
<path d="M30 22C30 21.4477 29.5523 21 29 21C28.4477 21 28 21.4477 28 22V23C28 23.5523 28.4477 24 29 24C29.5523 24 30 23.5523 30 23V22Z" fill="black"/>
<path d="M30 26C30 25.4477 29.5523 25 29 25C28.4477 25 28 25.4477 28 26C28 27.1477 27.1477 28 26 28C25.4477 28 25 28.4477 25 29C25 29.5523 25.4477 30 26 30C28.2523 30 30 28.2523 30 26Z" fill="black"/>
<path d="M22 28C21.4477 28 21 28.4477 21 29C21 29.5523 21.4477 30 22 30H23C23.5523 30 24 29.5523 24 29C24 28.4477 23.5523 28 23 28H22Z" fill="black"/>
</svg>
