<svg width="32" height="32" viewBox="0 0 32 32" fill="none" xmlns="http://www.w3.org/2000/svg">
<path fill-rule="evenodd" clip-rule="evenodd" d="M6 2C5.44772 2 5 2.44772 5 3V11.6L2.08558 18.5947C2.05602 18.6612 2.03352 18.7316 2.01902 18.8049C2.00453 18.8774 1.99835 18.9503 2 19.0223V26C2 28.2523 3.74772 30 6 30H26C28.2523 30 30 28.2523 30 26V19.0225C30.0017 18.95 29.9954 18.8767 29.9808 18.8039C29.9663 18.731 29.9439 18.661 29.9145 18.5948L27 11.6V10C27 9.73478 26.8946 9.48043 26.7071 9.29289L19.7071 2.29289C19.5196 2.10536 19.2652 2 19 2H6ZM25 11.7777C24.9997 11.7928 24.9997 11.808 25 11.8231V18H22C21.6656 18 21.3534 18.1671 21.1679 18.4453L19.4648 21H12.5352L10.8321 18.4453C10.6466 18.1671 10.3344 18 10 18H7V11.8233C7.00035 11.808 7.00035 11.7928 7 11.7776V4H18V11H25V11.7777ZM23.5858 9.00002L20 5.41421V9.00002H23.5858ZM5 16.8L4.5 18H5V16.8ZM27 18V16.8L27.5 18H27ZM4 20V26C4 27.1477 4.85228 28 6 28H26C27.1477 28 28 27.1477 28 26V20H22.5352L20.8321 22.5547C20.6466 22.8329 20.3344 23 20 23H12C11.6656 23 11.3534 22.8329 11.1679 22.5547L9.46482 20H4Z" fill="black"/>
</svg>
