<svg width="32" height="32" viewBox="0 0 32 32" fill="none" xmlns="http://www.w3.org/2000/svg">
<path fill-rule="evenodd" clip-rule="evenodd" d="M2.01852 16.8074C2.00439 16.8791 1.99837 16.9511 2 17.0223V24C2 26.2523 3.74772 28 6 28H26C28.2523 28 30 26.2523 30 24V17.0226C30.0017 16.9498 29.9954 16.8761 29.9806 16.8028C29.9664 16.7318 29.9446 16.6634 29.9162 16.5986L25.7247 6.41925C25.7201 6.40815 25.7153 6.39713 25.7104 6.3862C25.0468 4.92626 23.5889 4 22 4H10C8.41111 4 6.95325 4.92626 6.28964 6.3862C6.28467 6.39713 6.2799 6.40815 6.27533 6.41925L2.08393 16.5984C2.05484 16.6646 2.03273 16.7346 2.01852 16.8074ZM4.49323 16L8.11715 7.19904C8.45666 6.46745 9.19431 6 10 6H22C22.8057 6 23.5433 6.46744 23.8828 7.19902L27.5068 16H22C21.6656 16 21.3534 16.1671 21.168 16.4453L19.4648 19H12.5352L10.8321 16.4453C10.6466 16.1671 10.3344 16 10 16H4.49323ZM4 24V18H9.46482L11.168 20.5547C11.3534 20.8329 11.6656 21 12 21H20C20.3344 21 20.6466 20.8329 20.8321 20.5547L22.5352 18H28V24C28 25.1477 27.1477 26 26 26H6C4.85229 26 4 25.1477 4 24Z" fill="black"/>
</svg>
