<svg width="32" height="32" viewBox="0 0 32 32" fill="none" xmlns="http://www.w3.org/2000/svg">
<path d="M10 22.4999C10 23.3284 9.32843 23.9999 8.5 23.9999C7.67157 23.9999 7 23.3284 7 22.4999C7 21.6715 7.67157 20.9999 8.5 20.9999C9.32843 20.9999 10 21.6715 10 22.4999Z" fill="black"/>
<path d="M15 22.4999C15 23.3284 14.3284 23.9999 13.5 23.9999C12.6716 23.9999 12 23.3284 12 22.4999C12 21.6715 12.6716 20.9999 13.5 20.9999C14.3284 20.9999 15 21.6715 15 22.4999Z" fill="black"/>
<path d="M18.5 23.9999C19.3284 23.9999 20 23.3284 20 22.4999C20 21.6715 19.3284 20.9999 18.5 20.9999C17.6716 20.9999 17 21.6715 17 22.4999C17 23.3284 17.6716 23.9999 18.5 23.9999Z" fill="black"/>
<path d="M25 22.4999C25 23.3284 24.3284 23.9999 23.5 23.9999C22.6716 23.9999 22 23.3284 22 22.4999C22 21.6715 22.6716 20.9999 23.5 20.9999C24.3284 20.9999 25 21.6715 25 22.4999Z" fill="black"/>
<path fill-rule="evenodd" clip-rule="evenodd" d="M30 3C30 2.44772 29.5523 2 29 2C28.4477 2 28 2.44772 28 3V11.4116L21 15.3005V11.4612L12 15.4612V11.382L2 16.382V25C2 27.2523 3.74772 29 6 29H26C28.2523 29 30 27.2523 30 25V12.0181C30.0002 12.0055 30.0002 11.9928 30 11.98V3ZM28 13.6995L19 18.6995V14.5388L10 18.5388V14.618L4 17.618V25C4 26.1477 4.85228 27 6 27H26C27.1477 27 28 26.1477 28 25V13.6995Z" fill="black"/>
</svg>
