<svg width="32" height="32" viewBox="0 0 32 32" fill="none" xmlns="http://www.w3.org/2000/svg">
<path d="M13 22.9999C12.4477 22.9999 12 23.4477 12 23.9999C12 24.5522 12.4477 24.9999 13 24.9999H15.9888L16 25L16.0112 24.9999H19C19.5523 24.9999 20 24.5522 20 23.9999C20 23.4477 19.5523 22.9999 19 22.9999H17V13H13C12.4477 13 12 13.4477 12 14C12 14.5523 12.4477 15 13 15H15V22.9999H13Z" fill="black"/>
<path d="M17.5 9C17.5 9.82843 16.8284 10.5 16 10.5C15.1716 10.5 14.5 9.82843 14.5 9C14.5 8.17157 15.1716 7.5 16 7.5C16.8284 7.5 17.5 8.17157 17.5 9Z" fill="black"/>
<path fill-rule="evenodd" clip-rule="evenodd" d="M16 2C8.26801 2 2 8.26801 2 16C2 23.732 8.26801 30 16 30C23.732 30 30 23.732 30 16C30 8.26801 23.732 2 16 2ZM4 16C4 9.37258 9.37258 4 16 4C22.6274 4 28 9.37258 28 16C28 22.6274 22.6274 28 16 28C9.37258 28 4 22.6274 4 16Z" fill="black"/>
</svg>
