<svg width="32" height="32" viewBox="0 0 32 32" fill="none" xmlns="http://www.w3.org/2000/svg">
<path d="M27.77 7.59003C27.7773 7.68822 27.7635 7.78684 27.7296 7.87927C27.6956 7.97169 27.6423 8.05578 27.5731 8.12588C27.504 8.19597 27.4206 8.25046 27.3287 8.28567C27.2367 8.32088 27.1383 8.33601 27.04 8.33003H24.1C24.0009 8.33751 23.9014 8.3235 23.8082 8.28896C23.715 8.25442 23.6304 8.20016 23.5601 8.12989C23.4899 8.05963 23.4356 7.97501 23.4011 7.88183C23.3665 7.78866 23.3525 7.68912 23.36 7.59003V4.69003C23.3542 4.59133 23.3693 4.49252 23.4045 4.4001C23.4396 4.30768 23.4939 4.22375 23.5638 4.15384C23.6337 4.08393 23.7177 4.02962 23.8101 3.99449C23.9025 3.95936 24.0013 3.94421 24.1 3.95003H27C27.0979 3.94566 27.1956 3.9619 27.2868 3.99768C27.378 4.03346 27.4607 4.08799 27.5295 4.15774C27.5983 4.22749 27.6517 4.31091 27.6863 4.4026C27.7208 4.49429 27.7357 4.59222 27.73 4.69003L27.77 7.59003ZM5 27.46C4.8954 27.4727 4.7893 27.4616 4.6896 27.4275C4.5899 27.3934 4.49918 27.3373 4.42419 27.2633C4.34921 27.1892 4.29191 27.0992 4.25655 27C4.2212 26.9007 4.2087 26.7948 4.22 26.69V14.22H7.31C7.19418 14.701 7.14705 15.1959 7.17 15.69C7.17 18.0319 8.1003 20.2778 9.75625 21.9338C11.4122 23.5897 13.6581 24.52 16 24.52C18.3419 24.52 20.5878 23.5897 22.2438 21.9338C23.8997 20.2778 24.83 18.0319 24.83 15.69C24.8546 15.1953 24.804 14.6996 24.68 14.22H27.77V26.69C27.7758 26.7874 27.7609 26.8849 27.7263 26.9761C27.6917 27.0674 27.6381 27.1502 27.5691 27.2192C27.5002 27.2882 27.4173 27.3417 27.3261 27.3763C27.2349 27.411 27.1374 27.4259 27.04 27.42L5 27.46ZM16 9.80003C17.1649 9.80003 18.3037 10.1455 19.2723 10.7927C20.2409 11.4399 20.9959 12.3598 21.4417 13.436C21.8875 14.5123 22.0041 15.6966 21.7768 16.8391C21.5496 17.9817 20.9886 19.0312 20.1649 19.8549C19.3411 20.6786 18.2916 21.2396 17.1491 21.4669C16.0065 21.6941 14.8223 21.5775 13.746 21.1317C12.6697 20.6859 11.7498 19.9309 11.1026 18.9623C10.4554 17.9937 10.11 16.855 10.11 15.69C10.1153 14.1295 10.7375 12.6344 11.841 11.531C12.9444 10.4275 14.4395 9.8053 16 9.80003ZM27.52 1.02003H4.52C4.10298 1.01473 3.68907 1.0923 3.30226 1.24823C2.91546 1.40416 2.56347 1.63535 2.26671 1.92838C1.96996 2.22141 1.73435 2.57046 1.57355 2.95527C1.41275 3.34007 1.32997 3.75298 1.33 4.17003V27.17C1.33 28.0055 1.66188 28.8067 2.25262 29.3974C2.84335 29.9882 3.64457 30.32 4.48 30.32H27.48C28.3154 30.32 29.1166 29.9882 29.7074 29.3974C30.2981 28.8067 30.63 28.0055 30.63 27.17V4.17003C30.6301 3.34148 30.3037 2.54627 29.7216 1.95667C29.1395 1.36706 28.3485 1.03055 27.52 1.02003V1.02003Z" fill="black"/>
</svg>
