<svg width="32" height="32" viewBox="0 0 32 32" fill="none" xmlns="http://www.w3.org/2000/svg">
<path fill-rule="evenodd" clip-rule="evenodd" d="M6 16.056C6 10.5331 10.4772 6.05597 16 6.05597C21.5228 6.05597 26 10.5331 26 16.056C26 21.5788 21.5228 26.056 16 26.056C10.4772 26.056 6 21.5788 6 16.056ZM8.54309 13.1527C8.19242 14.0527 8 15.0319 8 16.056C8 17.0802 8.19247 18.0594 8.5432 18.9595C9.68988 18.604 10.8748 18.3347 12.0787 18.1512C12.027 17.4745 12 16.7731 12 16.056C12 15.3409 12.0268 14.6415 12.0783 13.9665C10.8716 13.7829 9.6962 13.5118 8.54309 13.1527ZM9.52371 20.7535C10.43 20.4913 11.3633 20.2863 12.3121 20.1389C12.467 21.0968 12.6758 21.9737 12.93 22.7362C13.0264 23.0254 13.1313 23.3043 13.2452 23.569C11.7414 23.0175 10.4492 22.0273 9.52371 20.7535ZM15.9847 24.0529L15.9856 24.056L16 24.056L16.0144 24.056L16.0153 24.0529C16.0264 24.0495 16.0485 24.0411 16.0814 24.0209C16.1506 23.9784 16.2545 23.8919 16.3823 23.7297C16.6425 23.3996 16.9206 22.8598 17.1726 22.1037C17.382 21.4757 17.5609 20.7364 17.6983 19.9125C17.1415 19.8748 16.5758 19.856 16 19.856C15.4329 19.856 14.8662 19.8758 14.3022 19.9153C14.4395 20.738 14.6183 21.4764 14.8274 22.1037C15.0794 22.8598 15.3575 23.3996 15.6177 23.7297C15.7455 23.8919 15.8494 23.9784 15.9186 24.0209C15.9515 24.0411 15.9736 24.0495 15.9847 24.0529ZM19.07 22.7362C18.9736 23.0254 18.8687 23.3043 18.7548 23.569C20.2589 23.0173 21.5513 22.0268 22.4769 20.7526C21.5669 20.4874 20.6397 20.2808 19.6888 20.1331C19.5338 21.0933 19.3247 21.9721 19.07 22.7362ZM23.4569 18.9592C22.3038 18.6002 21.1284 18.329 19.9217 18.1454C19.9732 17.4705 20 16.771 20 16.056C20 15.3388 19.973 14.6375 19.9213 13.9607C21.1252 13.7772 22.3101 13.508 23.4568 13.1524C23.8075 14.0525 24 15.0318 24 16.056C24 17.0801 23.8076 18.0592 23.4569 18.9592ZM22.4763 11.3584C21.57 11.6206 20.6367 11.8256 19.6879 11.9731C19.533 11.0151 19.3242 10.1383 19.07 9.37578C18.9736 9.08654 18.8687 8.80767 18.7548 8.54292C20.2586 9.09448 21.5508 10.0847 22.4763 11.3584ZM16.0153 8.05902L16.0144 8.05598L16 8.05597L15.9856 8.05598L15.9847 8.05902C15.9736 8.06242 15.9515 8.0708 15.9186 8.09104C15.8494 8.13349 15.7455 8.22005 15.6177 8.38221C15.3575 8.71239 15.0794 9.25213 14.8274 10.0082C14.618 10.6363 14.4391 11.3756 14.3017 12.1994C14.8585 12.2371 15.4242 12.256 16 12.256C16.5671 12.256 17.1338 12.2362 17.6978 12.1966C17.5605 11.3739 17.3817 10.6356 17.1726 10.0082C16.9206 9.25213 16.6425 8.71239 16.3823 8.38221C16.2545 8.22005 16.1506 8.13349 16.0814 8.09104C16.0485 8.0708 16.0264 8.06242 16.0153 8.05902ZM12.93 9.37578C13.0264 9.08654 13.1313 8.80767 13.2452 8.54292C11.7411 9.0946 10.4487 10.0851 9.52308 11.3593C10.4331 11.6246 11.3603 11.8312 12.3112 11.9788C12.4662 11.0186 12.6753 10.1398 12.93 9.37578ZM16 14.256C15.3455 14.256 14.7017 14.2333 14.0673 14.1879C14.0234 14.7866 14 15.4116 14 16.056C14 16.7014 14.0235 17.3274 14.0675 17.927C14.7102 17.8796 15.3553 17.856 16 17.856C16.6545 17.856 17.2983 17.8786 17.9327 17.924C17.9766 17.3253 18 16.7003 18 16.056C18 15.4106 17.9765 14.7845 17.9325 14.1849C17.2898 14.2323 16.6447 14.256 16 14.256Z" fill="black"/>
<path fill-rule="evenodd" clip-rule="evenodd" d="M27.2129 5.90604L16.0087 2L4.76351 5.714L4.74102 5.72265C3.09403 6.35611 2 7.80176 2 9.556V22.556C2 24.2954 3.08524 25.7758 4.79125 26.3072L15.9957 30.1106L27.2136 26.4055L27.2162 26.4047C28.7946 25.8786 30 24.3172 30 22.656V9.656C30 7.91802 28.9165 6.4386 27.2129 5.90604ZM4 9.556C4 8.71643 4.4986 7.96692 5.43815 7.59745L15.9913 4.112L26.5883 7.80634L26.6059 7.81178C27.4915 8.08425 28 8.80036 28 9.656V22.656C28 23.3944 27.4061 24.2325 26.5851 24.5069L26.5838 24.5073L16.0044 28.0014L5.40782 24.4044L5.39409 24.4002C4.50854 24.1277 4 23.4116 4 22.556V9.556Z" fill="black"/>
</svg>
