<svg width="32" height="32" viewBox="0 0 32 32" fill="none" xmlns="http://www.w3.org/2000/svg">
<path d="M16 4C9.35228 4 4 9.35228 4 16C4 22.6477 9.35228 28 16 28C16.5523 28 17 28.4477 17 29C17 29.5523 16.5523 30 16 30C8.24772 30 2 23.7523 2 16C2 8.24772 8.24772 2 16 2C23.7523 2 30 8.24772 30 16C30 16.5523 29.5523 17 29 17C28.4477 17 28 16.5523 28 16C28 9.35228 22.6477 4 16 4Z" fill="black"/>
<path d="M16 24.5C16.8284 24.5 17.5 23.8284 17.5 23C17.5 22.1716 16.8284 21.5 16 21.5C15.1716 21.5 14.5 22.1716 14.5 23C14.5 23.8284 15.1716 24.5 16 24.5Z" fill="black"/>
<path d="M17 8C17 7.44772 16.5523 7 16 7C15.4477 7 15 7.44772 15 8V18C15 18.5523 15.4477 19 16 19C16.5523 19 17 18.5523 17 18V8Z" fill="black"/>
<path d="M29.7071 21.2929C30.0976 21.6834 30.0976 22.3166 29.7071 22.7071L26.9142 25.5L29.7071 28.2929C30.0976 28.6834 30.0976 29.3166 29.7071 29.7071C29.3166 30.0976 28.6834 30.0976 28.2929 29.7071L25.5 26.9142L22.7071 29.7071C22.3166 30.0976 21.6834 30.0976 21.2929 29.7071C20.9024 29.3166 20.9024 28.6834 21.2929 28.2929L24.0858 25.5L21.2929 22.7071C20.9024 22.3166 20.9024 21.6834 21.2929 21.2929C21.6834 20.9024 22.3166 20.9024 22.7071 21.2929L25.5 24.0858L28.2929 21.2929C28.6834 20.9024 29.3166 20.9024 29.7071 21.2929Z" fill="black"/>
</svg>
