<svg width="32" height="32" viewBox="0 0 32 32" fill="none" xmlns="http://www.w3.org/2000/svg">
<path d="M4 16C4 9.35228 9.35228 4 16 4C22.6477 4 28 9.35228 28 16C28 16.5523 28.4477 17 29 17C29.5523 17 30 16.5523 30 16C30 8.24772 23.7523 2 16 2C8.24772 2 2 8.24772 2 16C2 23.7523 8.24772 30 16 30C16.5523 30 17 29.5523 17 29C17 28.4477 16.5523 28 16 28C9.35228 28 4 22.6477 4 16Z" fill="black"/>
<path d="M17.5 23C17.5 23.8284 16.8284 24.5 16 24.5C15.1716 24.5 14.5 23.8284 14.5 23C14.5 22.1716 15.1716 21.5 16 21.5C16.8284 21.5 17.5 22.1716 17.5 23Z" fill="black"/>
<path d="M16 7C16.5523 7 17 7.44772 17 8V18C17 18.5523 16.5523 19 16 19C15.4477 19 15 18.5523 15 18V8C15 7.44772 15.4477 7 16 7Z" fill="black"/>
<path d="M29.7071 22.7071C30.0976 22.3166 30.0976 21.6834 29.7071 21.2929C29.3166 20.9024 28.6834 20.9024 28.2929 21.2929L23 26.5858L20.7071 24.2929C20.3166 23.9024 19.6834 23.9024 19.2929 24.2929C18.9024 24.6834 18.9024 25.3166 19.2929 25.7071L23 29.4142L29.7071 22.7071Z" fill="black"/>
</svg>
