<svg width="32" height="32" viewBox="0 0 32 32" fill="none" xmlns="http://www.w3.org/2000/svg">
<path d="M25.9071 6.11789C20.4166 0.627369 11.5834 0.627369 6.0929 6.11789L5 7.21079V4.02502C5 3.47274 4.55228 3.02502 4 3.02502C3.44772 3.02502 3 3.47274 3 4.02502V10.625H9.6C10.1523 10.625 10.6 10.1773 10.6 9.62502C10.6 9.07274 10.1523 8.62502 9.6 8.62502H6.41419L7.50711 7.53211C12.2166 2.82263 19.7834 2.82263 24.4929 7.53211C29.2024 12.2416 29.2024 19.8084 24.4929 24.5179C19.7834 29.2274 12.2166 29.2274 7.50711 24.5179C5.01214 22.0229 3.81394 18.7019 3.99847 15.3805C4.0291 14.829 3.60691 14.3572 3.05548 14.3265C2.50404 14.2959 2.03218 14.7181 2.00155 15.2695C1.78607 19.1481 3.18787 23.0271 6.0929 25.9321C11.5834 31.4226 20.4166 31.4226 25.9071 25.9321C31.3976 20.4416 31.3976 11.6084 25.9071 6.11789Z" fill="black"/>
<path d="M17 8.02502C17 7.47274 16.5523 7.02502 16 7.02502C15.4477 7.02502 15 7.47274 15 8.02502V18.025C15 18.5773 15.4477 19.025 16 19.025C16.5523 19.025 17 18.5773 17 18.025V8.02502Z" fill="black"/>
<path d="M17.5 23.025C17.5 23.8534 16.8284 24.525 16 24.525C15.1716 24.525 14.5 23.8534 14.5 23.025C14.5 22.1965 15.1716 21.525 16 21.525C16.8284 21.525 17.5 22.1965 17.5 23.025Z" fill="black"/>
</svg>
