<svg width="32" height="32" viewBox="0 0 32 32" fill="none" xmlns="http://www.w3.org/2000/svg">
<path d="M23.8 28.09H23.47C22.5109 28.0905 21.5697 27.8302 20.7471 27.337C19.9245 26.8438 19.2515 26.1362 18.8 25.29V25.29L21 23.93C21.2465 24.4285 21.6268 24.8486 22.0982 25.1435C22.5697 25.4384 23.1139 25.5965 23.67 25.6V25.6C24.82 25.6 25.54 25.03 25.54 24.25C25.54 23.47 24.8 22.96 23.54 22.41L22.86 22.11C20.86 21.28 19.62 20.25 19.62 17.98C19.6187 17.4981 19.7123 17.0206 19.8955 16.5748C20.0787 16.129 20.348 15.7237 20.6878 15.382C21.0277 15.0403 21.4315 14.7689 21.8763 14.5832C22.3211 14.3976 22.798 14.3013 23.28 14.3H23.65H24C24.7445 14.3 25.4747 14.5041 26.1112 14.8903C26.7477 15.2764 27.2661 15.8297 27.61 16.49V16.49L25.41 17.9C25.2752 17.5428 25.0344 17.2353 24.7197 17.019C24.4051 16.8027 24.0318 16.6879 23.65 16.69H23.54C23.2164 16.69 22.9061 16.8186 22.6773 17.0473C22.4485 17.2761 22.32 17.5865 22.32 17.91V17.91C22.32 18.74 22.83 19.07 24.01 19.59L24.69 19.88C27.02 20.88 28.36 21.88 28.36 24.21C28.36 26.54 26.36 28.05 23.8 28.05V28.09ZM17.31 23.93C17.31 24.06 17.31 24.2 17.31 24.35C17.3113 24.8425 17.2156 25.3304 17.0284 25.7858C16.8411 26.2413 16.566 26.6555 16.2187 27.0046C15.8714 27.3538 15.4588 27.6311 15.0043 27.8207C14.5498 28.0104 14.0625 28.1087 13.57 28.11H13.17H13C12.18 28.1108 11.3771 27.8755 10.6873 27.4322C9.99748 26.9888 9.4499 26.3562 9.11 25.61V25.61L11.35 24.25C11.78 25.02 12.17 25.67 13.11 25.67C14.05 25.67 14.59 25.32 14.59 23.94V14.49H17.34L17.31 23.93ZM26.31 1.02002H5.67C5.09875 1.02133 4.53335 1.13515 4.00608 1.35497C3.47882 1.57479 3.00002 1.89631 2.59701 2.30117C2.194 2.70604 1.87469 3.18631 1.65729 3.71458C1.4399 4.24285 1.32868 4.80877 1.33 5.38002V5.38002V26C1.32868 26.5713 1.4399 27.1372 1.65729 27.6655C1.87469 28.1937 2.194 28.674 2.59701 29.0789C3.00002 29.4837 3.47882 29.8053 4.00608 30.0251C4.53335 30.2449 5.09875 30.3587 5.67 30.36H26.33C26.9012 30.3587 27.4666 30.2449 27.9939 30.0251C28.5212 29.8053 29 29.4837 29.403 29.0789C29.806 28.674 30.1253 28.1937 30.3427 27.6655C30.5601 27.1372 30.6713 26.5713 30.67 26V5.38002C30.6713 4.80877 30.5601 4.24285 30.3427 3.71458C30.1253 3.18631 29.806 2.70604 29.403 2.30117C29 1.89631 28.5212 1.57479 27.9939 1.35497C27.4666 1.13515 26.9012 1.02133 26.33 1.02002H26.27H26.31Z" fill="black"/>
</svg>
