<svg width="32" height="32" viewBox="0 0 32 32" fill="none" xmlns="http://www.w3.org/2000/svg">
<path fill-rule="evenodd" clip-rule="evenodd" d="M12 10V7C12 4.24772 9.75229 2 7 2C4.24772 2 2 4.24772 2 7C2 9.75229 4.24772 12 7 12H10V20H7C4.24772 20 2 22.2477 2 25C2 27.7523 4.24772 30 7 30C9.75229 30 12 27.7523 12 25V22H20V25C20 27.7523 22.2477 30 25 30C27.7523 30 30 27.7523 30 25C30 22.2477 27.7523 20 25 20H22V12H25C27.7523 12 30 9.75229 30 7C30 4.24772 27.7523 2 25 2C22.2477 2 20 4.24772 20 7V10H12ZM7 4C5.35228 4 4 5.35228 4 7C4 8.64772 5.35228 10 7 10H10V7C10 5.35228 8.64772 4 7 4ZM12 12V20H20V12H12ZM22 10H25C26.6477 10 28 8.64772 28 7C28 5.35228 26.6477 4 25 4C23.3523 4 22 5.35228 22 7V10ZM22 22V25C22 26.6477 23.3523 28 25 28C26.6477 28 28 26.6477 28 25C28 23.3523 26.6477 22 25 22H22ZM10 22H7C5.35228 22 4 23.3523 4 25C4 26.6477 5.35228 28 7 28C8.64772 28 10 26.6477 10 25V22Z" fill="black"/>
</svg>
