<svg width="32" height="32" viewBox="0 0 32 32" fill="none" xmlns="http://www.w3.org/2000/svg">
<path d="M5 7C4.44772 7 4 7.44772 4 8C4 8.55228 4.44772 9 5 9H27C27.5523 9 28 8.55228 28 8C28 7.44772 27.5523 7 27 7H5Z" fill="black"/>
<path d="M27.6727 23.2602L16 12.6487L4.32733 23.2602C3.91868 23.6317 3.88856 24.2642 4.26007 24.6728C4.63157 25.0815 5.26402 25.1116 5.67268 24.7401L16 15.3516L26.3273 24.7401C26.736 25.1116 27.3684 25.0815 27.7399 24.6728C28.1115 24.2642 28.0813 23.6317 27.6727 23.2602Z" fill="black"/>
</svg>
