<svg width="32" height="32" viewBox="0 0 32 32" fill="none" xmlns="http://www.w3.org/2000/svg">
<path fill-rule="evenodd" clip-rule="evenodd" d="M10 18C7.79086 18 6 19.7909 6 22C6 24.2091 7.79086 26 10 26C12.2091 26 14 24.2091 14 22C14 19.7909 12.2091 18 10 18ZM8 22C8 20.8954 8.89543 20 10 20C11.1046 20 12 20.8954 12 22C12 23.1046 11.1046 24 10 24C8.89543 24 8 23.1046 8 22Z" fill="black"/>
<path fill-rule="evenodd" clip-rule="evenodd" d="M30 2H22.5858L14.3209 10.2649C13.552 10.0648 12.755 10 12 10C6.44772 10 2 14.4477 2 20C2 25.5523 6.44772 30 12 30C17.5523 30 22 25.5523 22 20C22 19.2943 21.9259 18.6273 21.8001 18H23V14H27V10H30V2ZM21 12V16H19.1126L19.5513 17.3162C19.8228 18.1307 20 19.0236 20 20C20 24.4477 16.4477 28 12 28C7.55228 28 4 24.4477 4 20C4 15.5523 7.55228 12 12 12C12.8361 12 13.6038 12.0944 14.2489 12.3363L14.8518 12.5624L23.4142 4H28V8H25V12H21Z" fill="black"/>
</svg>
