<svg width="32" height="32" viewBox="0 0 32 32" fill="none" xmlns="http://www.w3.org/2000/svg">
<path d="M10.5 23C10.5 23.8284 9.82843 24.5 9 24.5C8.17157 24.5 7.5 23.8284 7.5 23C7.5 22.1716 8.17157 21.5 9 21.5C9.82843 21.5 10.5 22.1716 10.5 23Z" fill="black"/>
<path fill-rule="evenodd" clip-rule="evenodd" d="M29 3H24.5858L14.8107 12.7751C13.6298 12.2308 12.3714 12 11 12C6.04772 12 2 16.0477 2 21C2 25.9523 6.04772 30 11 30C15.9523 30 20 25.9523 20 21C20 19.8902 19.7747 18.8712 19.4607 17.9535L21.4142 16H23V14H25V12H27V10H27.4142L29 8.41421V3ZM27 7.58579L26.5858 8H25V10H23V12H21V14H20.5858L17.1266 17.4592L17.3715 18.0714C17.7425 18.9988 18 19.9684 18 21C18 24.8477 14.8477 28 11 28C7.15228 28 4 24.8477 4 21C4 17.1523 7.15228 14 11 14C12.3568 14 13.4759 14.2686 14.4961 14.8638L15.162 15.2522L25.4142 5H27V7.58579Z" fill="black"/>
</svg>
