<?xml version="1.0" encoding="UTF-8"?>
<svg width="24px" height="24px" viewBox="0 0 24 24" version="1.1" xmlns="http://www.w3.org/2000/svg" xmlns:xlink="http://www.w3.org/1999/xlink">
    <!-- Generator: Sketch 48.2 (47327) - http://www.bohemiancoding.com/sketch -->
    <title>keyboard_alt</title>
    <desc>Created with Sketch.</desc>
    <defs></defs>
    <g id="Page-1" stroke="none" stroke-width="1" fill="none" fill-rule="evenodd" stroke-linecap="round" stroke-linejoin="round">
        <g id="keyboard_alt" stroke="#000000" stroke-width="1.5">
            <path d="M19,21 L5,21 C3.896,21 3,20.104 3,19 L3,5 C3,3.896 3.896,3 5,3 L19,3 C20.104,3 21,3.896 21,5 L21,19 C21,20.104 20.104,21 19,21 Z" id="Stroke-2"></path>
            <polyline id="Stroke-4" points="10 3 10 13 8 13 8 3"></polyline>
            <polyline id="Stroke-6" points="16 3 16 13 14 13 14 3"></polyline>
            <path d="M9,21 L9,3" id="Stroke-8"></path>
            <path d="M15,21 L15,3" id="Stroke-10"></path>
        </g>
    </g>
</svg>