<svg width="32" height="32" viewBox="0 0 32 32" fill="none" xmlns="http://www.w3.org/2000/svg">
<path d="M12 22C11.4477 22 11 22.4477 11 23C11 23.5523 11.4477 24 12 24H19C19.5523 24 20 23.5523 20 23C20 22.4477 19.5523 22 19 22H12Z" fill="black"/>
<path d="M6 23C6 22.4477 6.44772 22 7 22H8C8.55228 22 9 22.4477 9 23C9 23.5523 8.55228 24 8 24H7C6.44772 24 6 23.5523 6 23Z" fill="black"/>
<path d="M7 14C6.44772 14 6 14.4477 6 15C6 15.5523 6.44772 16 7 16H8C8.55228 16 9 15.5523 9 15C9 14.4477 8.55228 14 8 14H7Z" fill="black"/>
<path d="M11 15C11 14.4477 11.4477 14 12 14H13C13.5523 14 14 14.4477 14 15C14 15.5523 13.5523 16 13 16H12C11.4477 16 11 15.5523 11 15Z" fill="black"/>
<path d="M14 18C13.4477 18 13 18.4477 13 19C13 19.5523 13.4477 20 14 20H15C15.5523 20 16 19.5523 16 19C16 18.4477 15.5523 18 15 18H14Z" fill="black"/>
<path d="M18 19C18 18.4477 18.4477 18 19 18H20C20.5523 18 21 18.4477 21 19C21 19.5523 20.5523 20 20 20H19C18.4477 20 18 19.5523 18 19Z" fill="black"/>
<path d="M24 18C23.4477 18 23 18.4477 23 19C23 19.5523 23.4477 20 24 20H25C25.5523 20 26 19.5523 26 19C26 18.4477 25.5523 18 25 18H24Z" fill="black"/>
<path d="M16 15C16 14.4477 16.4477 14 17 14H18C18.5523 14 19 14.4477 19 15C19 15.5523 18.5523 16 18 16H17C16.4477 16 16 15.5523 16 15Z" fill="black"/>
<path d="M22 14C21.4477 14 21 14.4477 21 15C21 15.5523 21.4477 16 22 16H25C25.5523 16 26 15.5523 26 15C26 14.4477 25.5523 14 25 14H22Z" fill="black"/>
<path d="M6 19C6 18.4477 6.44772 18 7 18H10C10.5523 18 11 18.4477 11 19C11 19.5523 10.5523 20 10 20H7C6.44772 20 6 19.5523 6 19Z" fill="black"/>
<path d="M23 22C22.4477 22 22 22.4477 22 23C22 23.5523 22.4477 24 23 24H25C25.5523 24 26 23.5523 26 23C26 22.4477 25.5523 22 25 22H23Z" fill="black"/>
<path fill-rule="evenodd" clip-rule="evenodd" d="M19 6C17.8523 6 17 6.85228 17 8V10H26C28.2523 10 30 11.7477 30 14V24C30 26.2523 28.2523 28 26 28H6C3.74772 28 2 26.2523 2 24V14C2 11.7477 3.74772 10 6 10H15V8C15 5.74772 16.7477 4 19 4H20C20.5523 4 21 4.44772 21 5C21 5.55228 20.5523 6 20 6H19ZM6 12H26C27.1477 12 28 12.8523 28 14V24C28 25.1477 27.1477 26 26 26H6C4.85228 26 4 25.1477 4 24V14C4 12.8523 4.85228 12 6 12Z" fill="black"/>
</svg>
