<svg width="32" height="32" viewBox="0 0 32 32" fill="none" xmlns="http://www.w3.org/2000/svg">
<path fill-rule="evenodd" clip-rule="evenodd" d="M8 8C8 7.44772 8.44772 7 9 7H15C15.5523 7 16 7.44772 16 8V14C16 14.5523 15.5523 15 15 15H9C8.44772 15 8 14.5523 8 14V8ZM10 9V13H14V9H10Z" fill="black"/>
<path d="M19 8C18.4477 8 18 8.44772 18 9C18 9.55228 18.4477 10 19 10H23C23.5523 10 24 9.55228 24 9C24 8.44772 23.5523 8 23 8H19Z" fill="black"/>
<path d="M18 13C18 12.4477 18.4477 12 19 12H23C23.5523 12 24 12.4477 24 13C24 13.5523 23.5523 14 23 14H19C18.4477 14 18 13.5523 18 13Z" fill="black"/>
<path d="M9 17C8.44772 17 8 17.4477 8 18C8 18.5523 8.44772 19 9 19H23C23.5523 19 24 18.5523 24 18C24 17.4477 23.5523 17 23 17H9Z" fill="black"/>
<path fill-rule="evenodd" clip-rule="evenodd" d="M3 3C2.44772 3 2 3.44772 2 4C2 4.55228 2.44772 5 3 5H4V23H15V27H10C9.44772 27 9 27.4477 9 28C9 28.5523 9.44772 29 10 29H22C22.5523 29 23 28.5523 23 28C23 27.4477 22.5523 27 22 27H17V23H28V5H29C29.5523 5 30 4.55228 30 4C30 3.44772 29.5523 3 29 3H3ZM26 21V5H6V21H26Z" fill="black"/>
</svg>
