<svg width="32" height="32" viewBox="0 0 32 32" fill="none" xmlns="http://www.w3.org/2000/svg">
<path d="M18.44 18.29C18.341 18.3303 18.2565 18.3997 18.1976 18.4889C18.1387 18.5782 18.1081 18.6831 18.11 18.79C18.1058 18.8366 18.1058 18.8834 18.11 18.93L19.42 22.08C20.2273 21.5706 20.9106 20.8873 21.42 20.08C21.6614 19.7065 21.853 19.3031 21.99 18.88V18.88L18.65 18.31C18.5423 18.3152 18.4368 18.3425 18.34 18.39L18.44 18.29ZM21.44 13.15L19 15.43C18.936 15.493 18.891 15.5727 18.87 15.66V15.66C18.8644 15.7065 18.8644 15.7535 18.87 15.8C18.8727 15.9221 18.9151 16.0399 18.991 16.1356C19.0668 16.2312 19.1718 16.2995 19.29 16.33V16.33L22.48 17.23C22.5492 16.51 22.4985 15.7835 22.33 15.08V15.08C22.1724 14.3716 21.8951 13.6952 21.51 13.08V13.08L21.44 13.15ZM16.12 19.69C16.0423 19.6413 15.9517 19.6169 15.86 19.62C15.7811 19.6207 15.7033 19.639 15.6324 19.6736C15.5614 19.7082 15.4991 19.7583 15.45 19.82V19.82L13.81 22.82C14.4577 23.0255 15.1308 23.1399 15.81 23.16V23.16C16.3123 23.1535 16.8122 23.0898 17.3 22.97H17.25L17.85 22.84L16.24 19.92C16.1781 19.8363 16.1077 19.7592 16.03 19.69H16.12ZM14.35 13.96H14.41C14.5541 13.96 14.6925 13.9035 14.7954 13.8025C14.8983 13.7015 14.9574 13.5641 14.96 13.42V13.42L15.13 10.06L14.46 10.2C13.2942 10.4797 12.2261 11.0707 11.37 11.91V11.91L14.15 13.91C14.2086 13.9468 14.2728 13.9738 14.34 13.99L14.35 13.96ZM17 13.69C17.0518 13.7578 17.1183 13.8128 17.1945 13.8509C17.2708 13.889 17.3547 13.9093 17.44 13.91C17.5435 13.9095 17.6444 13.8782 17.73 13.82V13.82L20.48 11.88C19.4689 10.8626 18.1368 10.2266 16.71 10.08V10.08L16.91 13.46C16.9056 13.5027 16.9115 13.5459 16.9272 13.5859C16.9428 13.6259 16.9678 13.6616 17 13.69V13.69ZM15 17.28L15.9 17.72L16.8 17.28L17.04 16.28L16.4 15.47H15.4L14.76 16.28L15 17.28ZM13.05 18.21L9.72999 18.75C10.211 20.0833 11.1042 21.2286 12.28 22.02V22.02L13.55 18.93C13.5831 18.8795 13.6008 18.8204 13.6008 18.76C13.6008 18.6996 13.5831 18.6405 13.55 18.59V18.59C13.5227 18.4728 13.4564 18.3683 13.3619 18.2938C13.2674 18.2193 13.1503 18.1792 13.03 18.18L13.05 18.21ZM12.88 16.1C12.9535 16.013 12.9957 15.9039 13 15.79C12.9994 15.7096 12.9811 15.6304 12.9466 15.5578C12.912 15.4853 12.862 15.4212 12.8 15.37V15.37L10.32 13.15C9.6649 14.2402 9.31919 15.4882 9.31999 16.76C9.31999 16.94 9.31999 17.12 9.31999 17.3L12.57 16.36C12.628 16.3478 12.6825 16.3226 12.7292 16.2862C12.776 16.2498 12.8139 16.2032 12.84 16.15L12.88 16.1ZM26.42 19.49H26.06C25.929 19.4517 25.8044 19.3944 25.69 19.32V19.32C25.6162 19.3104 25.5449 19.2866 25.48 19.25C25.1554 19.123 24.8209 19.0227 24.48 18.95H24.43C24.3815 18.9499 24.3334 18.9596 24.2888 18.9785C24.2441 18.9974 24.2037 19.0251 24.17 19.06H23.9C23.2926 20.9552 22.0213 22.5674 20.32 23.6V23.6L20.43 23.87C20.4197 23.9262 20.4197 23.9838 20.43 24.04C20.4197 24.0929 20.4197 24.1472 20.43 24.2C20.5587 24.5586 20.7408 24.8957 20.97 25.2V25.2V25.26C21.0274 25.3108 21.0749 25.3719 21.11 25.44V25.44C21.2032 25.5337 21.2809 25.6418 21.34 25.76V25.76C21.34 25.76 21.42 25.83 21.42 25.86C21.4305 25.943 21.4305 26.027 21.42 26.11C21.4351 26.196 21.4351 26.284 21.42 26.37V26.37C21.3974 26.4487 21.3591 26.5219 21.3076 26.5855C21.2561 26.6491 21.1923 26.7016 21.12 26.74V26.74C21.033 26.7716 20.9422 26.7918 20.85 26.8C20.7177 26.7949 20.5891 26.7552 20.4768 26.6851C20.3646 26.6149 20.2726 26.5167 20.21 26.4V26.4C20.2102 26.3769 20.2037 26.3542 20.1912 26.3347C20.1788 26.3152 20.161 26.2997 20.14 26.29C20.0739 26.1795 20.0297 26.0573 20.01 25.93V25.93L19.94 25.74C19.8303 25.3709 19.6794 25.0153 19.49 24.68C19.4306 24.5817 19.3386 24.5074 19.23 24.47L19.1 24.23C18.7743 24.3514 18.4401 24.4483 18.1 24.52H18.04C17.4739 24.6801 16.8883 24.7609 16.3 24.76H16.16C15.1632 24.7598 14.1756 24.5697 13.25 24.2H13.31L13.17 24.47C13.0614 24.5074 12.9694 24.5817 12.91 24.68V24.68C12.7292 24.9973 12.5818 25.3324 12.47 25.68V25.68L12.41 25.87C12.41 26.01 12.31 26.11 12.28 26.24C12.25 26.37 12.21 26.32 12.21 26.35C12.1459 26.4654 12.0535 26.5626 11.9416 26.6326C11.8297 26.7025 11.7018 26.7429 11.57 26.75V26.75C11.4907 26.742 11.4131 26.7218 11.34 26.69V26.69C11.2346 26.6315 11.1466 26.5461 11.0851 26.4424C11.0236 26.3387 10.9908 26.2206 10.99 26.1C10.9891 25.9883 11.0167 25.8782 11.07 25.78V25.78C11.0707 25.7596 11.0765 25.7397 11.087 25.7222C11.0975 25.7047 11.1123 25.6902 11.13 25.68C11.2 25.68 11.31 25.41 11.37 25.34C11.4266 25.299 11.4714 25.2438 11.5 25.18V25.18C11.7185 24.8706 11.8966 24.5345 12.03 24.18V24.18C12.0414 24.1273 12.0414 24.0727 12.03 24.02C12.0403 23.9638 12.0403 23.9062 12.03 23.85V23.85L12.2 23.62C11.8703 23.4498 11.5615 23.2418 11.28 23V23C10.0045 22.0132 9.05079 20.6697 8.54 19.14V19.08H8.24C8.16811 19.0166 8.07584 18.9811 7.98 18.98H8C7.60985 19.0416 7.22759 19.1455 6.86 19.29V19.29C6.7846 19.292 6.7115 19.3164 6.65 19.36V19.36L6.28 19.49H6.18H6.09H6.01H5.94C5.80326 19.4902 5.67028 19.4452 5.56177 19.3621C5.45325 19.2789 5.37528 19.1621 5.34 19.03V19.03C5.33466 18.9868 5.33466 18.9432 5.34 18.9C5.34014 18.7468 5.3944 18.5986 5.49321 18.4815C5.59201 18.3644 5.72899 18.2859 5.88 18.26H6.69C7.09227 18.2212 7.49042 18.1476 7.88 18.04C7.87476 17.9526 7.84835 17.8678 7.80306 17.7929C7.75777 17.718 7.69494 17.6552 7.62 17.61V17.61L7.84 17.69C7.7744 17.29 7.74096 16.8854 7.74 16.48C7.7321 14.9452 8.1698 13.441 9 12.15V12.15C9 12.08 9.06 12.05 9.09 11.99L8.89999 11.78C8.90118 11.7343 8.89188 11.6889 8.87282 11.6473C8.85375 11.6057 8.82542 11.569 8.79 11.54C8.51244 11.2865 8.20717 11.0651 7.88 10.88L7.67 10.77C7.55499 10.7082 7.44469 10.638 7.34 10.56V10.56L7.24 10.48C7.15761 10.4087 7.09301 10.3191 7.05134 10.2184C7.00967 10.1177 6.99209 10.0087 7 9.90002C6.99938 9.75913 7.03743 9.62078 7.11 9.50002C7.15487 9.42631 7.21805 9.36546 7.2934 9.32341C7.36875 9.28135 7.4537 9.25951 7.54 9.26002C7.7075 9.27431 7.86727 9.33683 8 9.44002C8.0214 9.44167 8.04197 9.44904 8.05956 9.46135C8.07715 9.47366 8.09111 9.49047 8.1 9.51002L8.37 9.81002C8.42099 9.84494 8.46507 9.88902 8.5 9.94002C8.75092 10.2165 9.02528 10.4708 9.31999 10.7V10.7C9.37841 10.7423 9.44793 10.7667 9.52 10.77H9.66L9.85 10.91C10.9636 9.72665 12.4111 8.91045 14 8.57002V8.57002C14.4 8.50002 14.77 8.43002 15.13 8.40002V8.02002C15.2102 7.95307 15.2664 7.86179 15.29 7.76002V7.76002C15.2958 7.69348 15.2958 7.62656 15.29 7.56002C15.2906 7.22506 15.2639 6.89061 15.21 6.56002V6.56002C15.2154 6.5269 15.2154 6.49313 15.21 6.46002C15.2144 6.42683 15.2144 6.3932 15.21 6.36002C15.1795 6.22509 15.1595 6.08802 15.15 5.95002V5.95002V5.81002C15.1652 5.72449 15.1979 5.64303 15.2461 5.57075C15.2943 5.49847 15.3569 5.43694 15.43 5.39002V5.39002C15.4938 5.29918 15.5795 5.22589 15.6791 5.17695C15.7787 5.12801 15.8891 5.10499 16 5.11002V5.11002C16.159 5.1319 16.3046 5.21098 16.4095 5.33247C16.5144 5.45395 16.5715 5.6095 16.57 5.77002V5.77002V5.97002C16.581 6.11037 16.5569 6.25126 16.5 6.38002C16.43 6.51002 16.5 6.51002 16.5 6.57002C16.4477 6.90069 16.4243 7.23528 16.43 7.57002V7.75002C16.4557 7.85617 16.5154 7.951 16.6 8.02002V8.29002C18.2029 8.44426 19.729 9.0512 21 10.04V10.04L21.84 10.85L22.11 10.68H22.24C22.3094 10.6708 22.3769 10.6505 22.44 10.62V10.62C22.7447 10.4029 23.0262 10.155 23.28 9.88002C23.3309 9.84099 23.3748 9.79366 23.41 9.74002C23.4858 9.63107 23.5729 9.53051 23.67 9.44002V9.44002C23.6914 9.43836 23.712 9.43099 23.7296 9.41868C23.7471 9.40637 23.7611 9.38956 23.77 9.37002C23.8997 9.26412 24.0626 9.20745 24.23 9.21002V9.21002C24.3936 9.22009 24.5474 9.29164 24.6606 9.41033C24.7737 9.52901 24.8378 9.68607 24.84 9.85002C24.8396 9.95333 24.815 10.0551 24.7681 10.1472C24.7212 10.2392 24.6533 10.319 24.57 10.38V10.44C24.57 10.5 24.5 10.44 24.47 10.51L23.9 10.81C23.5457 11.0042 23.2108 11.2319 22.9 11.49C22.8393 11.5781 22.8078 11.6831 22.81 11.79V11.79L22.6 11.99C23.1414 12.8178 23.5403 13.7304 23.78 14.69V14.76C23.9698 15.471 24.0639 16.2041 24.06 16.94C24.06 17.24 24.06 17.54 24.06 17.84L24.33 17.91C24.3773 18.0171 24.4629 18.1027 24.57 18.15V18.15C24.9354 18.2377 25.3062 18.3012 25.68 18.34H26.11C26.1796 18.3302 26.2503 18.3302 26.32 18.34H26.52C26.6804 18.3816 26.8236 18.4725 26.9295 18.5999C27.0354 18.7273 27.0985 18.8848 27.11 19.05V19.05C27.0797 19.198 27.0016 19.332 26.8878 19.4313C26.774 19.5307 26.6307 19.59 26.48 19.6V19.6L26.42 19.49ZM30.62 18.75L28.07 7.75002C27.9087 7.2234 27.5505 6.77926 27.07 6.51002V6.51002L16.79 1.69002C16.5416 1.57824 16.2724 1.5203 16 1.52002H15.84C15.5982 1.51753 15.3568 1.54099 15.12 1.59002V1.59002L4.89 6.52002C4.63989 6.63155 4.41926 6.79991 4.24566 7.01171C4.07206 7.2235 3.95027 7.47288 3.89 7.74002V7.74002L1.39 18.74C1.37977 18.8565 1.37977 18.9736 1.39 19.09C1.38638 19.5464 1.53017 19.9919 1.8 20.36V20.36L8.8 29.11C9.21284 29.5145 9.75401 29.7621 10.33 29.81H21.85C22.1159 29.8107 22.3779 29.7464 22.6132 29.6227C22.8485 29.4989 23.0499 29.3195 23.2 29.1V29.1L30.28 20.35C30.5246 19.975 30.6565 19.5377 30.66 19.09C30.6753 18.9672 30.6753 18.8429 30.66 18.72L30.62 18.75Z" fill="black"/>
</svg>
