<svg width="32" height="32" viewBox="0 0 32 32" fill="none" xmlns="http://www.w3.org/2000/svg">
<path fill-rule="evenodd" clip-rule="evenodd" d="M21 2C21.5523 2 22 2.44772 22 3C22 3.55228 21.5523 4 21 4H20V14.6812L24.6622 21.2506C24.7768 21.352 24.868 21.4792 24.9266 21.6232L26.4193 23.7265C28.2739 26.376 26.4253 30 23.2 30H8.8C5.66007 30 3.55571 26.3236 5.59829 23.7018L7.0734 21.6233C7.13201 21.4792 7.22322 21.352 7.33786 21.2506L12 14.6812V13.0022L12 13L12 12.9978V9.00221L12 9L12 8.99779V4H11C10.4477 4 10 3.55228 10 3C10 2.44772 10.4477 2 11 2H21ZM14 12V10H16C16.5523 10 17 9.55228 17 9C17 8.44772 16.5523 8 16 8H14V4H18V15C18 15.2074 18.0645 15.4096 18.1845 15.5787L22.0319 21H9.96817L12.0972 18H16C16.5523 18 17 17.5523 17 17C17 16.4477 16.5523 16 16 16H13.5166L13.8155 15.5787C13.9355 15.4096 14 15.2074 14 15V14H16C16.5523 14 17 13.5523 17 13C17 12.4477 16.5523 12 16 12H14ZM7.21551 24.8787L8.54881 23H23.4512L24.7808 24.8735L24.7826 24.876C25.725 26.2263 24.7737 28 23.2 28H8.8C7.14851 28 6.25578 26.0965 7.18489 24.9196C7.19544 24.9063 7.20565 24.8926 7.21551 24.8787Z" fill="black"/>
</svg>
