<svg width="32" height="32" viewBox="0 0 32 32" fill="none" xmlns="http://www.w3.org/2000/svg">
<path d="M16 11C16.5523 11 17 10.5523 17 10C17 9.44772 16.5523 9 16 9C15.4477 9 15 9.44772 15 10C15 10.5523 15.4477 11 16 11Z" fill="black"/>
<path fill-rule="evenodd" clip-rule="evenodd" d="M5 10C5 7.74772 6.74771 6 9 6H23C25.2523 6 27 7.74772 27 10V20H30V23C30 24.6523 28.6523 26 27 26H5C3.34772 26 2 24.6523 2 23V20H5V10ZM4 22V23C4 23.5477 4.45228 24 5 24H27C27.5477 24 28 23.5477 28 23V22H19.7548C19.6701 22.1557 19.5629 22.3013 19.4321 22.4321C19.0443 22.8199 18.5272 23 18 23H14C13.4728 23 12.9557 22.8199 12.5679 22.4321C12.4371 22.3013 12.3299 22.1557 12.2452 22H4ZM25 20H18V21H14V20H7V10C7 8.85228 7.85228 8 9 8H23C24.1477 8 25 8.85228 25 10V20Z" fill="black"/>
</svg>
