<svg width="32" height="32" viewBox="0 0 32 32" fill="none" xmlns="http://www.w3.org/2000/svg">
<path d="M21 10C21 9.44772 20.5523 9 20 9C19.4477 9 19 9.44772 19 10V16H24C24.5523 16 25 15.5523 25 15C25 14.4477 24.5523 14 24 14H21V10Z" fill="black"/>
<path fill-rule="evenodd" clip-rule="evenodd" d="M15.874 23H19.126C19.5701 24.7252 21.1362 26 23 26C24.8638 26 26.4299 24.7252 26.874 23H27C29.2091 23 31 21.2091 31 19V17.1623C31 15.4406 29.8983 13.912 28.2649 13.3675L27.6787 13.1721L24.732 8.01544C24.0198 6.76914 22.6945 6 21.259 6H5C2.79086 6 1 7.79086 1 10V23H2.12602C2.57006 24.7252 4.13616 26 6 26C7.19469 26 8.26705 25.4762 9 24.6458C9.73294 25.4762 10.8053 26 12 26C13.8638 26 15.4299 24.7252 15.874 23ZM5 8C3.89543 8 3 8.89543 3 10V19.3542C3.73294 18.5238 4.80531 18 6 18C7.19469 18 8.26705 18.5238 9 19.3542C9.73294 18.5238 10.8053 18 12 18C13.8638 18 15.4299 19.2748 15.874 21H19.126C19.5701 19.2748 21.1362 18 23 18C24.8638 18 26.4299 19.2748 26.874 21H27C28.1046 21 29 20.1046 29 19V17.1623C29 16.3014 28.4491 15.5371 27.6325 15.2649L26.3213 14.8279L22.9955 9.00772C22.6394 8.38457 21.9767 8 21.259 8H5ZM10 22C10 23.1046 10.8954 24 12 24C13.1046 24 14 23.1046 14 22C14 20.8954 13.1046 20 12 20C10.8954 20 10 20.8954 10 22ZM8 22C8 20.8954 7.10457 20 6 20C4.89543 20 4 20.8954 4 22C4 23.1046 4.89543 24 6 24C7.10457 24 8 23.1046 8 22ZM23 20C21.8954 20 21 20.8954 21 22C21 23.1046 21.8954 24 23 24C24.1046 24 25 23.1046 25 22C25 20.8954 24.1046 20 23 20Z" fill="black"/>
</svg>
