<svg width="32" height="32" viewBox="0 0 32 32" fill="none" xmlns="http://www.w3.org/2000/svg">
<path fill-rule="evenodd" clip-rule="evenodd" d="M28.3098 3.28023C28.5631 2.315 28.5626 2.31488 28.5622 2.31476L29.0876 2.46166L29.2401 3.00116C29.2399 3.00069 29.2398 3.00023 28.3098 3.28023ZM19.1553 22.6423C19.3 22.5553 19.446 22.4663 19.593 22.3752C22.4663 20.5956 25.894 17.9494 27.5266 14.6333C29.1035 11.4301 29.5424 8.55302 29.5811 6.46183C29.6005 5.4175 29.52 4.56995 29.4326 3.9754C29.3888 3.67801 29.3432 3.44349 29.3073 3.27879C29.2894 3.19642 29.2738 3.13145 29.2621 3.08475C29.2562 3.0614 29.2513 3.04261 29.2475 3.02849L29.2428 3.01082L29.241 3.00464L29.2404 3.00221L29.2401 3.00116L28.3098 3.28023L28.5622 2.31476L28.5612 2.31448L28.5589 2.31385L28.553 2.31224L28.5361 2.30772C28.5226 2.30415 28.5045 2.2995 28.4821 2.29394C28.4372 2.28282 28.3746 2.26806 28.2952 2.25106C28.1364 2.21707 27.91 2.17407 27.6229 2.13331C27.0489 2.05181 26.2303 1.97902 25.2215 2.00555C23.202 2.05866 20.4212 2.50998 17.3229 4.08288C14.1004 5.71886 11.5336 9.26546 9.81061 12.2423C9.71943 12.3999 9.63032 12.5563 9.54331 12.7114C8.54628 12.5159 7.43375 12.4887 6.42418 12.5574C5.27126 12.6359 4.14703 12.8469 3.39132 13.1469L2 13.6993L18.0581 30.2754L18.5933 28.8392C18.8556 28.1352 19.1958 27.0033 19.3411 25.7628C19.4542 24.7964 19.4586 23.6849 19.1553 22.6423ZM17.3973 23.6411C16.7961 23.9637 16.2478 24.2396 15.7801 24.4656C15.6328 24.5368 15.4933 24.6031 15.3625 24.6645L17.2333 26.5955C17.3091 26.2559 17.3741 25.8936 17.4176 25.5228C17.4956 24.8565 17.4978 24.213 17.3973 23.6411ZM13.8936 23.1481C14.1567 23.0317 14.5203 22.8661 14.9587 22.6542C15.9102 22.1944 17.2086 21.5196 18.5962 20.6602C21.4143 18.9148 24.4288 16.5111 25.7993 13.7272C27.2255 10.8303 27.61 8.25744 27.644 6.42362C27.661 5.50546 27.59 4.77176 27.517 4.27568C27.5098 4.22642 27.5025 4.17951 27.4953 4.13502C27.4522 4.12825 27.4067 4.12143 27.3589 4.11465C26.8764 4.04615 26.1632 3.98144 25.2708 4.00491C23.4879 4.0518 20.989 4.45048 18.178 5.87758C15.4911 7.2416 13.1657 10.345 11.4739 13.2681C10.6415 14.7062 9.98788 16.0554 9.54245 17.0453C9.33565 17.5048 9.17434 17.8856 9.06144 18.1601L13.8936 23.1481ZM7.59061 16.6418C7.6506 16.5044 7.71551 16.3577 7.78527 16.2027C7.99713 15.7319 8.25421 15.1829 8.55388 14.5819C7.9224 14.5129 7.22992 14.5069 6.55164 14.5531C6.23847 14.5744 5.93782 14.6062 5.65669 14.6455L7.59061 16.6418ZM25.4014 8.28027C25.4014 9.1087 24.7508 9.78027 23.9483 9.78027C23.1458 9.78027 22.4952 9.1087 22.4952 8.28027C22.4952 7.45185 23.1458 6.78027 23.9483 6.78027C24.7508 6.78027 25.4014 7.45185 25.4014 8.28027ZM6.49115 21.4291L8.4654 23.467C8.50781 23.4984 8.54832 23.5338 8.58644 23.5732C8.62456 23.6125 8.65884 23.6543 8.68927 23.6981L10.6454 25.7173L6.37042 27.1883C6.30509 27.2194 6.2371 27.2427 6.16778 27.258L4.41403 27.8614L6.49115 21.4291Z" fill="black"/>
</svg>
