<svg width="32" height="32" viewBox="0 0 32 32" fill="none" xmlns="http://www.w3.org/2000/svg">
<path fill-rule="evenodd" clip-rule="evenodd" d="M30 2V15C30 15.0863 29.9891 15.1701 29.9685 15.25C29.9891 15.3299 30 15.4137 30 15.5C30 22.9523 23.9523 29 16.5 29C13.1336 29 10.0537 27.7659 7.68854 25.7257L3.70711 29.7071C3.31658 30.0976 2.68342 30.0976 2.29289 29.7071C1.90237 29.3166 1.90237 28.6834 2.29289 28.2929L6.27433 24.3115C4.23411 21.9463 3 18.8664 3 15.5C3 8.04772 9.04772 2 16.5 2C16.5863 2 16.6701 2.01094 16.75 2.0315C16.8299 2.01094 16.9137 2 17 2H30ZM9.1073 24.3069C11.1067 25.9874 13.6859 27 16.5 27C22.8477 27 28 21.8477 28 15.5C28 15.4137 28.0109 15.3299 28.0315 15.25C28.0109 15.1701 28 15.0863 28 15V5.41421L21.4142 12H24C24.5523 12 25 12.4477 25 13C25 13.5523 24.5523 14 24 14H19.4142L14.4142 19H22C22.5523 19 23 19.4477 23 20C23 20.5523 22.5523 21 22 21H12.4142L9.1073 24.3069ZM18 12.5858L13 17.5858V10C13 9.44772 12.5523 9 12 9C11.4477 9 11 9.44772 11 10V19.5858L7.69308 22.8927C6.01261 20.8933 5 18.3141 5 15.5C5 9.15228 10.1523 4 16.5 4C16.5863 4 16.6701 3.98906 16.75 3.9685C16.8299 3.98906 16.9137 4 17 4H26.5858L20 10.5858V8C20 7.44772 19.5523 7 19 7C18.4477 7 18 7.44772 18 8V12.5858Z" fill="black"/>
</svg>
