<svg width="32" height="32" viewBox="0 0 32 32" fill="none" xmlns="http://www.w3.org/2000/svg">
<path fill-rule="evenodd" clip-rule="evenodd" d="M15.61 10.32L2.75 13.21C2.57629 13.2461 2.39666 13.2426 2.22449 13.1997C2.05233 13.1568 1.89205 13.0757 1.75558 12.9623C1.61912 12.8489 1.50999 12.7062 1.4363 12.5447C1.36262 12.3833 1.32628 12.2074 1.33 12.03V11.62C1.33052 11.3956 1.39347 11.1757 1.51179 10.985C1.63011 10.7942 1.79915 10.6402 2 10.54L14.85 4.06C15.0312 3.97211 15.232 3.93248 15.4331 3.94495C15.6341 3.95743 15.8285 4.02158 15.9974 4.1312C16.1664 4.24082 16.3042 4.39219 16.3975 4.57067C16.4908 4.74916 16.5364 4.9487 16.53 5.15V9.15C16.5325 9.42056 16.4427 9.68389 16.2755 9.89658C16.1082 10.1093 15.8735 10.2586 15.61 10.32V10.32ZM16.53 17.76V13.62C16.5326 13.4504 16.4989 13.2822 16.4312 13.1266C16.3635 12.9711 16.2633 12.8318 16.1373 12.7182C16.0114 12.6046 15.8626 12.5192 15.7009 12.4677C15.5392 12.4163 15.3685 12.4 15.2 12.42L2.34 14.27C2.0584 14.3196 1.80348 14.4674 1.62042 14.687C1.43737 14.9067 1.33803 15.1841 1.34 15.47V16.02C1.336 16.3065 1.43461 16.5849 1.61802 16.805C1.80142 17.0251 2.05752 17.1723 2.34 17.22L15.2 18.95C15.3682 18.9733 15.5395 18.9597 15.7019 18.9101C15.8643 18.8605 16.014 18.7762 16.1406 18.663C16.2671 18.5497 16.3675 18.4103 16.4348 18.2544C16.502 18.0985 16.5345 17.9298 16.53 17.76V17.76ZM16.53 22.23C16.5343 21.9564 16.4442 21.6896 16.2748 21.4747C16.1054 21.2597 15.8671 21.1098 15.6 21.05L2.74 18.27C2.56723 18.2375 2.3894 18.2437 2.2193 18.2881C2.0492 18.3325 1.89105 18.4141 1.75623 18.5269C1.62141 18.6397 1.51326 18.781 1.43956 18.9406C1.36586 19.1002 1.32845 19.2742 1.33 19.45V19.88C1.32937 20.1047 1.39183 20.325 1.51028 20.516C1.62873 20.7069 1.79841 20.8608 2 20.96L14.85 27.32C15.0315 27.4049 15.2316 27.4423 15.4314 27.4285C15.6313 27.4147 15.8244 27.3502 15.9924 27.2412C16.1605 27.1321 16.2981 26.9821 16.3921 26.8052C16.4862 26.6283 16.5336 26.4303 16.53 26.23V22.23ZM19.12 10.23L29.32 11.78C29.4894 11.8047 29.6622 11.7922 29.8264 11.7435C29.9905 11.6947 30.142 11.6108 30.2705 11.4975C30.3989 11.3843 30.5012 11.2445 30.5702 11.0878C30.6392 10.9311 30.6732 10.7612 30.67 10.59V8.45C30.6718 8.20038 30.5957 7.95641 30.4523 7.75207C30.3089 7.54774 30.1054 7.3932 29.87 7.31L19.67 3.75C19.4903 3.69061 19.299 3.67529 19.1122 3.70535C18.9254 3.73541 18.7485 3.80996 18.5965 3.92271C18.4446 4.03547 18.3219 4.18311 18.239 4.3532C18.1561 4.52329 18.1152 4.71083 18.12 4.9V9.08C18.1184 9.36475 18.2181 9.64079 18.4013 9.85879C18.5845 10.0768 18.8392 10.2225 19.12 10.27V10.23ZM29.61 17.97C29.9034 17.9355 30.1738 17.7941 30.3694 17.5726C30.565 17.3512 30.672 17.0654 30.67 16.77V14.69C30.6702 14.3967 30.5638 14.1133 30.3706 13.8926C30.1775 13.6719 29.9107 13.5288 29.62 13.49L19.42 12.38C19.2542 12.3661 19.0874 12.3869 18.93 12.441C18.7727 12.495 18.6283 12.5812 18.5061 12.6941C18.3838 12.8069 18.2864 12.9439 18.2199 13.0965C18.1534 13.249 18.1194 13.4136 18.12 13.58V17.82C18.118 17.9859 18.1507 18.1504 18.2161 18.3029C18.2814 18.4554 18.3779 18.5925 18.4994 18.7055C18.6209 18.8185 18.7646 18.9049 18.9215 18.959C19.0783 19.0132 19.2447 19.034 19.41 19.02L29.61 17.97ZM29.86 24.14C30.0972 24.0585 30.3029 23.9047 30.4482 23.7002C30.5935 23.4957 30.6711 23.2508 30.67 23V20.85C30.6685 20.6833 30.6317 20.5187 30.562 20.3672C30.4923 20.2157 30.3913 20.0807 30.2657 19.9711C30.14 19.8615 29.9925 19.7798 29.833 19.7313C29.6734 19.6829 29.5054 19.6688 29.34 19.69L19.13 21.11C18.8492 21.1575 18.5945 21.3032 18.4113 21.5212C18.2281 21.7392 18.1284 22.0153 18.13 22.3V26.48C18.1258 26.668 18.1666 26.8543 18.249 27.0233C18.3314 27.1924 18.453 27.3393 18.6037 27.4518C18.7544 27.5643 18.9297 27.6392 19.1152 27.6702C19.3007 27.7012 19.4909 27.6874 19.67 27.63L29.86 24.14Z" fill="black"/>
</svg>
