<svg width="32" height="32" viewBox="0 0 32 32" fill="none" xmlns="http://www.w3.org/2000/svg">
<path fill-rule="evenodd" clip-rule="evenodd" d="M14 10C14 12.1087 14.7958 14.0145 16.1066 15.4365C15.3905 16.8966 15 18.5113 15 20.2001V21.5858L12.904 19.4898C13.5961 18.5112 14 17.3093 14 16C14 12.6477 11.3523 10 8 10H2V16C2 19.3523 4.64772 22 8 22C9.30935 22 10.5112 21.5961 11.4898 20.904L13.7929 23.2071C14.5931 24.0073 15 25.0474 15 26.2V30C15 30.5523 15.4477 31 16 31C16.5523 31 17 30.5523 17 30V20.2001C17 18.9984 17.2426 17.8385 17.6981 16.7641C18.9367 17.5479 20.4107 18 22 18C26.4523 18 30 14.4523 30 10V2H22C17.5477 2 14 5.54772 14 10ZM22 4C18.6523 4 16 6.65228 16 10C16 11.3765 16.4484 12.6354 17.2092 13.6408C17.5381 13.2027 17.9001 12.7858 18.2929 12.393L21.2929 9.39299C21.6834 9.00247 22.3166 9.00247 22.7071 9.39299C23.0976 9.78351 23.0976 10.4167 22.7071 10.8072L19.7071 13.8072C19.328 14.1863 18.9847 14.5909 18.6798 15.0171C19.6267 15.6397 20.7661 16 22 16C25.3477 16 28 13.3477 28 10V4H22ZM11.458 18.0438L8.70711 15.2929C8.31658 14.9024 7.68342 14.9024 7.29289 15.2929C6.90237 15.6834 6.90237 16.3166 7.29289 16.7071L10.0438 19.458C9.44947 19.8036 8.7525 20 8 20C5.75228 20 4 18.2477 4 16V12H8C10.2477 12 12 13.7523 12 16C12 16.7525 11.8036 17.4495 11.458 18.0438Z" fill="black"/>
</svg>
