<svg width="32" height="32" viewBox="0 0 32 32" fill="none" xmlns="http://www.w3.org/2000/svg">
<path d="M28.8 12.98H29C29.2652 12.98 29.5196 13.0854 29.7071 13.2729C29.8946 13.4604 30 13.7148 30 13.98V14.05C30 14.3152 29.8946 14.5696 29.7071 14.7571C29.5196 14.9446 29.2652 15.05 29 15.05H25.12C24.8548 15.05 24.6004 14.9446 24.4129 14.7571C24.2254 14.5696 24.12 14.3152 24.12 14.05V13.99C24.1425 13.7185 24.2658 13.4653 24.4657 13.2802C24.6656 13.0951 24.9276 12.9916 25.2 12.99H28.8V12.98ZM6.4 7.24L5.82 6.75C5.69594 6.65221 5.59554 6.52769 5.52628 6.38571C5.45703 6.24374 5.4207 6.08796 5.42 5.93C5.41541 5.68005 5.5046 5.43745 5.67 5.25C5.76521 5.12947 5.8869 5.0325 6.02564 4.9666C6.16437 4.9007 6.31643 4.86765 6.47 4.87C6.70834 4.86998 6.93886 4.95509 7.12 5.11C8.12 5.91 9.12 6.73 10.12 7.58C10.3039 7.79527 10.4463 8.04279 10.54 8.31H10.45C10.4549 8.33644 10.4549 8.36355 10.45 8.39C10.4674 8.59989 10.418 8.8099 10.309 8.99009C10.2 9.17028 10.0368 9.31146 9.84287 9.39348C9.6489 9.4755 9.43398 9.49419 9.22875 9.44688C9.02353 9.39957 8.83849 9.28867 8.7 9.13C7.92 8.46 7.17 7.87 6.4 7.24ZM7.87 14.05C7.87 14.3152 7.76464 14.5696 7.57711 14.7571C7.38957 14.9446 7.13522 15.05 6.87 15.05H3C2.73478 15.05 2.48043 14.9446 2.29289 14.7571C2.10536 14.5696 2 14.3152 2 14.05V14.05C2 13.7848 2.10536 13.5304 2.29289 13.3429C2.48043 13.1554 2.73478 13.05 3 13.05H6.8C7.06522 13.05 7.31957 13.1554 7.50711 13.3429C7.69464 13.5304 7.8 13.7848 7.8 14.05H7.87ZM16 6.82C15.7348 6.82 15.4804 6.71464 15.2929 6.5271C15.1054 6.33957 15 6.08521 15 5.82V2.15V2.06C15 1.79478 15.1054 1.54043 15.2929 1.35289C15.4804 1.16535 15.7348 1.06 16 1.06H16.07C16.3352 1.06 16.5896 1.16535 16.7771 1.35289C16.9646 1.54043 17.07 1.79478 17.07 2.06V5.79C17.07 6.05521 16.9646 6.30957 16.7771 6.4971C16.5896 6.68464 16.3352 6.79 16.07 6.79L16 6.82ZM22.1 9.24C21.9267 9.15751 21.7809 9.0269 21.6798 8.86377C21.5787 8.70064 21.5267 8.51187 21.53 8.32C21.5348 8.16378 21.5719 8.01024 21.639 7.8691C21.7061 7.72796 21.8018 7.60228 21.92 7.5C22.92 6.71 23.85 5.9 24.83 5.12C24.9328 5.02116 25.0555 4.94544 25.19 4.89792C25.3244 4.85041 25.4674 4.8322 25.6095 4.84451C25.7516 4.85682 25.8894 4.89937 26.0136 4.96931C26.1379 5.03925 26.2458 5.13495 26.33 5.25V5.25C26.4978 5.44 26.5871 5.68663 26.58 5.94C26.582 6.09947 26.5458 6.2571 26.4745 6.39975C26.4032 6.5424 26.2988 6.66592 26.17 6.76C25.17 7.57 24.17 8.37 23.23 9.16C23.0501 9.30908 22.8237 9.39045 22.59 9.39C22.4062 9.38874 22.2263 9.33684 22.07 9.24H22.1ZM13.37 16.8V14.93C13.3881 14.2807 13.6468 13.6613 14.0958 13.192C14.5448 12.7227 15.1522 12.4368 15.8 12.39H16C16.635 12.3912 17.2472 12.6264 17.7195 13.0508C18.1918 13.4752 18.4911 14.0588 18.56 14.69V14.69V16.69L13.37 16.8ZM17 24.02C16.9301 24.0743 16.8739 24.1442 16.8357 24.224C16.7975 24.3039 16.7784 24.3915 16.78 24.48C16.78 24.67 16.78 24.9 16.78 25.13C16.78 25.36 16.78 25.59 16.78 25.82C16.7604 26.003 16.6741 26.1724 16.5377 26.296C16.4012 26.4195 16.2241 26.4886 16.04 26.49V26.49C15.8486 26.4779 15.6684 26.3958 15.5338 26.2593C15.3991 26.1228 15.3195 25.9415 15.31 25.75V25.75V24.58C15.3153 24.5368 15.3153 24.4932 15.31 24.45C15.3091 24.3448 15.281 24.2417 15.2284 24.1505C15.1758 24.0594 15.1006 23.9834 15.01 23.93C14.766 23.7343 14.5908 23.4658 14.5099 23.1637C14.429 22.8615 14.4465 22.5415 14.56 22.25C14.6758 21.9566 14.8767 21.7046 15.1369 21.5264C15.3971 21.3482 15.7046 21.2519 16.02 21.25V21.25C16.3363 21.2478 16.6458 21.3424 16.9067 21.5212C17.1677 21.6999 17.3678 21.9542 17.48 22.25V22.25C17.5537 22.4344 17.5911 22.6314 17.59 22.83C17.5836 23.0535 17.5273 23.2728 17.4252 23.4718C17.3231 23.6708 17.1779 23.8444 17 23.98V23.98V24.02ZM23.59 16.8H22.18V15.16C22.1806 14.0687 21.8958 12.9961 21.354 12.0488C20.8122 11.1015 20.0321 10.3122 19.0912 9.75938C18.1502 9.20653 17.0811 8.90928 15.9898 8.89711C14.8985 8.88494 13.823 9.15827 12.87 9.69C12.0867 10.092 11.4079 10.6709 10.8871 11.3808C10.3664 12.0907 10.0182 12.9122 9.87 13.78V13.78C9.76265 14.6693 9.70922 15.5643 9.71 16.46C9.71 16.56 9.71 16.67 9.71 16.78H8.35C8.19551 16.7787 8.0423 16.808 7.89919 16.8662C7.75608 16.9244 7.62592 17.0103 7.51621 17.1191C7.40651 17.2279 7.31943 17.3573 7.26001 17.4999C7.20059 17.6425 7.16999 17.7955 7.17 17.95C7.16504 17.9932 7.16504 18.0368 7.17 18.08V18.08V28.93C7.1647 28.9865 7.1647 29.0435 7.17 29.1C7.16517 29.1566 7.16517 29.2134 7.17 29.27C7.17524 29.5636 7.29555 29.8433 7.50503 30.0491C7.7145 30.2548 7.99639 30.37 8.29 30.37H23.64C23.9459 30.3674 24.2384 30.244 24.4538 30.0267C24.6692 29.8095 24.79 29.5159 24.79 29.21V29.21V17.97C24.7913 17.8168 24.7623 17.6649 24.7046 17.523C24.6469 17.3811 24.5616 17.2521 24.4538 17.1433C24.346 17.0345 24.2176 16.9482 24.0762 16.8892C23.9348 16.8303 23.7832 16.8 23.63 16.8H23.59Z" fill="black"/>
</svg>
