<svg width="32" height="32" viewBox="0 0 32 32" fill="none" xmlns="http://www.w3.org/2000/svg">
<path d="M16 8C16.5523 8 17 8.44772 17 9V23C17 23.5523 16.5523 24 16 24C15.4477 24 15 23.5523 15 23V9C15 8.44772 15.4477 8 16 8Z" fill="black"/>
<path d="M7 16C6.44772 16 6 16.4477 6 17C6 17.5523 6.44772 18 7 18H12C12.5523 18 13 17.5523 13 17C13 16.4477 12.5523 16 12 16H7Z" fill="black"/>
<path d="M6 21C6 20.4477 6.44772 20 7 20H10C10.5523 20 11 20.4477 11 21C11 21.5523 10.5523 22 10 22H7C6.44772 22 6 21.5523 6 21Z" fill="black"/>
<path d="M23 8C22.4477 8 22 8.44772 22 9C22 9.55228 22.4477 10 23 10H25C25.5523 10 26 9.55228 26 9C26 8.44772 25.5523 8 25 8H23Z" fill="black"/>
<path fill-rule="evenodd" clip-rule="evenodd" d="M2 8C2 5.74772 3.74772 4 6 4H26C28.2523 4 30 5.74772 30 8V24C30 26.2523 28.2523 28 26 28H6C3.74772 28 2 26.2523 2 24V8ZM6 6C4.85228 6 4 6.85228 4 8V24C4 25.1477 4.85228 26 6 26H26C27.1477 26 28 25.1477 28 24V8C28 6.85228 27.1477 6 26 6H6Z" fill="black"/>
</svg>
