<svg width="32" height="32" viewBox="0 0 32 32" fill="none" xmlns="http://www.w3.org/2000/svg">
<path fill-rule="evenodd" clip-rule="evenodd" d="M16 2C10.4477 2 6 6.44772 6 12C6 15.6675 7.97766 18.939 11 20.6959V25C11 27.7523 13.2477 30 16 30C18.7523 30 21 27.7523 21 25V20.6959C24.0223 18.939 26 15.6675 26 12C26 6.44772 21.5523 2 16 2ZM8 12C8 7.55228 11.5523 4 16 4C20.4477 4 24 7.55228 24 12C24 15.1134 22.2211 17.8714 19.5528 19.2056L19 19.482V22H13V19.482L12.4472 19.2056C9.77892 17.8714 8 15.1134 8 12ZM13 24V25C13 26.6477 14.3523 28 16 28C17.6477 28 19 26.6477 19 25V24H13Z" fill="black"/>
</svg>
