<svg width="32" height="32" viewBox="0 0 32 32" fill="none" xmlns="http://www.w3.org/2000/svg">
<path d="M17 3C17 2.44772 16.5523 2 16 2C15.4477 2 15 2.44772 15 3V6C15 6.55228 15.4477 7 16 7C16.5523 7 17 6.55228 17 6V3Z" fill="black"/>
<path fill-rule="evenodd" clip-rule="evenodd" d="M8 16C8 11.5477 11.5477 8 16 8C20.4523 8 24 11.5477 24 16C24 18.962 22.4255 21.5459 20 22.9118V26C20 28.2523 18.2523 30 16 30C13.7477 30 12 28.2523 12 26V22.9118C9.57446 21.5459 8 18.962 8 16ZM18 21.6583V23H14V21.6583L13.4167 21.3909C11.3701 20.4529 10 18.4068 10 16C10 12.6523 12.6523 10 16 10C19.3477 10 22 12.6523 22 16C22 18.4068 20.6299 20.4529 18.5833 21.3909L18 21.6583ZM18 26V25H14V26C14 27.1477 14.8523 28 16 28C17.1477 28 18 27.1477 18 26Z" fill="black"/>
<path d="M26 15C25.4477 15 25 15.4477 25 16C25 16.5523 25.4477 17 26 17H29C29.5523 17 30 16.5523 30 16C30 15.4477 29.5523 15 29 15H26Z" fill="black"/>
<path d="M2 16C2 15.4477 2.44772 15 3 15H6C6.55228 15 7 15.4477 7 16C7 16.5523 6.55228 17 6 17H3C2.44772 17 2 16.5523 2 16Z" fill="black"/>
<path d="M22.3929 22.393C22.7834 22.0025 23.4166 22.0025 23.8071 22.393L25.9071 24.493C26.2976 24.8835 26.2976 25.5167 25.9071 25.9072C25.5166 26.2977 24.8834 26.2977 24.4929 25.9072L22.3929 23.8072C22.0024 23.4167 22.0024 22.7835 22.3929 22.393Z" fill="black"/>
<path d="M7.50711 6.09294C7.11659 5.70242 6.48342 5.70242 6.0929 6.09294C5.70237 6.48347 5.70237 7.11663 6.0929 7.50716L8.1929 9.60715C8.58342 9.99768 9.21659 9.99768 9.60711 9.60715C9.99763 9.21663 9.99763 8.58347 9.60711 8.19294L7.50711 6.09294Z" fill="black"/>
<path d="M9.60711 22.393C9.99763 22.7835 9.99763 23.4167 9.60711 23.8072L7.50711 25.9072C7.11659 26.2977 6.48342 26.2977 6.0929 25.9072C5.70237 25.5167 5.70237 24.8835 6.0929 24.493L8.1929 22.393C8.58342 22.0025 9.21658 22.0025 9.60711 22.393Z" fill="black"/>
<path d="M25.9071 7.50716C26.2976 7.11663 26.2976 6.48347 25.9071 6.09294C25.5166 5.70242 24.8834 5.70242 24.4929 6.09294L22.3929 8.19294C22.0024 8.58347 22.0024 9.21663 22.3929 9.60715C22.7834 9.99768 23.4166 9.99768 23.8071 9.60715L25.9071 7.50716Z" fill="black"/>
</svg>
