<svg width="32" height="32" viewBox="0 0 32 32" fill="none" xmlns="http://www.w3.org/2000/svg">
<path fill-rule="evenodd" clip-rule="evenodd" d="M3.70711 2.29289C3.31658 1.90237 2.68342 1.90237 2.29289 2.29289C1.90237 2.68342 1.90237 3.31658 2.29289 3.70711L9.71067 11.1249C8.63053 12.4591 8 14.1935 8 16.0001C8 18.9621 9.57446 21.546 12 22.9119V26.0001C12 28.2524 13.7477 30.0001 16 30.0001C18.2523 30.0001 20 28.2524 20 26.0001V22.9177C20.309 22.7421 20.6102 22.5365 20.8917 22.3059L28.2929 29.7071C28.6834 30.0976 29.3166 30.0976 29.7071 29.7071C30.0976 29.3166 30.0976 28.6834 29.7071 28.2929L3.70711 2.29289ZM18 23V21.6407L18.6061 21.381C18.9013 21.2544 19.1967 21.083 19.4672 20.8814L11.1357 12.5499C10.4247 13.5021 10 14.7216 10 16.0001C10 18.4069 11.3701 20.453 13.4167 21.391L14 21.6584V23H18ZM14 25H18V26.0001C18 27.1478 17.1477 28.0001 16 28.0001C14.8523 28.0001 14 27.1478 14 26.0001V25Z" fill="black"/>
<path d="M14.0697 8.20792C14.6473 8.1116 15.3166 8 16 8C20.4523 8 24 11.5477 24 16C24 16.6833 23.8884 17.3526 23.7921 17.9302L23.7864 17.9644C23.6956 18.5092 23.1804 18.8772 22.6356 18.7864C22.0908 18.6956 21.7228 18.1804 21.8136 17.6356C21.9161 17.0209 22 16.5031 22 16C22 12.6523 19.3477 10 16 10C15.4969 10 14.9791 10.0839 14.3644 10.1864C13.8196 10.2772 13.3044 9.90917 13.2136 9.3644C13.1228 8.81963 13.4908 8.3044 14.0356 8.21361L14.0697 8.20792Z" fill="black"/>
</svg>
