<svg width="32" height="32" viewBox="0 0 32 32" fill="none" xmlns="http://www.w3.org/2000/svg">
<path d="M27.2683 3.50403C27.5423 3.98355 27.3757 4.5944 26.8962 4.86841L23.3962 6.86841C22.9166 7.14242 22.3058 6.97583 22.0318 6.49631C21.7578 6.01679 21.9244 5.40594 22.4039 5.13193L25.9039 3.13193C26.3834 2.85792 26.9942 3.02451 27.2683 3.50403Z" fill="black"/>
<path d="M6.09613 3.13193C5.61662 2.85792 5.00576 3.02451 4.73175 3.50403C4.45774 3.98355 4.62434 4.5944 5.10386 4.86841L8.60386 6.86841C9.08337 7.14242 9.69423 6.97583 9.96824 6.49631C10.2422 6.01679 10.0757 5.40594 9.59613 5.13193L6.09613 3.13193Z" fill="black"/>
<path fill-rule="evenodd" clip-rule="evenodd" d="M21 7.38208L16 4.88208L11 7.38208V13.9337L9.90364 22.1564C9.82045 22.3241 9.78334 22.5171 9.80684 22.7168C9.80987 22.7426 9.81386 22.768 9.81875 22.793L9.12449 28H8C7.44772 28 7 28.4477 7 29C7 29.5523 7.44772 30 8 30H9.9797C9.99412 30.0003 10.0085 30.0003 10.0228 30H21.9772C21.9915 30.0003 22.0059 30.0003 22.0203 30H24C24.5523 30 25 29.5523 25 29C25 28.4477 24.5523 28 24 28H22.8755L21.9996 21.4311C22.0011 21.3824 21.999 21.333 21.9931 21.2832C21.986 21.2227 21.9737 21.1641 21.9565 21.1078L21.4852 17.5728C21.5023 17.475 21.5051 17.373 21.4914 17.2693C21.4776 17.1646 21.4481 17.0658 21.4055 16.9751L21 13.9338V7.38208ZM19.8614 20.5271L19.5949 18.528L12.2764 19.4931L12.0155 21.4501L19.8614 20.5271ZM11.7427 23.496L11.1422 28H20.8578L20.1258 22.5097L11.7427 23.496ZM19.1245 15.0001L19.3305 16.5456L12.5502 17.4397L12.8755 15.0001H19.1245ZM13 13.0001V8.61815L16 7.11815L19 8.61815V13.0001H13Z" fill="black"/>
<path d="M23 10C23 9.44772 23.4477 9 24 9H28C28.5523 9 29 9.44772 29 10C29 10.5523 28.5523 11 28 11H24C23.4477 11 23 10.5523 23 10Z" fill="black"/>
<path d="M4 9C3.44772 9 3 9.44772 3 10C3 10.5523 3.44772 11 4 11H8C8.55228 11 9 10.5523 9 10C9 9.44772 8.55228 9 8 9H4Z" fill="black"/>
<path d="M22.0318 13.504C22.3058 13.0245 22.9166 12.8579 23.3962 13.1319L26.8962 15.1319C27.3757 15.4059 27.5423 16.0168 27.2683 16.4963C26.9942 16.9758 26.3834 17.1424 25.9039 16.8684L22.4039 14.8684C21.9244 14.5944 21.7578 13.9836 22.0318 13.504Z" fill="black"/>
<path d="M9.59613 14.8684C10.0757 14.5944 10.2422 13.9836 9.96824 13.504C9.69423 13.0245 9.08337 12.8579 8.60386 13.1319L5.10386 15.1319C4.62434 15.4059 4.45774 16.0168 4.73175 16.4963C5.00576 16.9758 5.61662 17.1424 6.09613 16.8684L9.59613 14.8684Z" fill="black"/>
</svg>
