<?xml version="1.0" encoding="UTF-8"?>
<svg width="24px" height="24px" viewBox="0 0 24 24" version="1.1" xmlns="http://www.w3.org/2000/svg" xmlns:xlink="http://www.w3.org/1999/xlink">
    <!-- Generator: Sketch 48.2 (47327) - http://www.bohemiancoding.com/sketch -->
    <title>like</title>
    <desc>Created with Sketch.</desc>
    <defs></defs>
    <g id="Page-1" stroke="none" stroke-width="1" fill="none" fill-rule="evenodd" stroke-linecap="round" stroke-linejoin="round">
        <g id="like" stroke="#000000" stroke-width="1.5">
            <path d="M7,22 L4,22 C2.896,22 2,21.104 2,20 L2,13 C2,11.896 2.896,11 4,11 L7,11 L7,22 Z" id="Stroke-1"></path>
            <path d="M7,22.0001466 L18.28,22 C19.277,22.012 20.131,21.286 20.28,20.3 L21.66,11.3 C21.748,10.72 21.577,10.13 21.191,9.687 C20.807,9.245 20.247,8.993 19.66,9 L14,9 L14,5 C14,3.343 12.657,2 11,2 L7,11" id="Stroke-3"></path>
        </g>
    </g>
</svg>