<svg width="32" height="32" viewBox="0 0 32 32" fill="none" xmlns="http://www.w3.org/2000/svg">
<path d="M20.4142 13L28.7071 4.70711C29.0976 4.31658 29.0976 3.68342 28.7071 3.29289C28.3166 2.90237 27.6834 2.90237 27.2929 3.29289L19 11.5858V4C19 3.44772 18.5523 3 18 3C17.4477 3 17 3.44772 17 4V15H28C28.5523 15 29 14.5523 29 14C29 13.4477 28.5523 13 28 13H20.4142Z" fill="black"/>
<path d="M15 17V28C15 28.5523 14.5523 29 14 29C13.4477 29 13 28.5523 13 28V20.4142L4.70711 28.7071C4.31658 29.0976 3.68342 29.0976 3.29289 28.7071C2.90237 28.3166 2.90237 27.6834 3.29289 27.2929L11.5858 19H4C3.44772 19 3 18.5523 3 18C3 17.4477 3.44772 17 4 17H15Z" fill="black"/>
</svg>
