<svg width="32" height="32" viewBox="0 0 32 32" fill="none" xmlns="http://www.w3.org/2000/svg">
<path d="M17 3C17 2.44772 16.5523 2 16 2C15.4477 2 15 2.44772 15 3V29C15 29.5523 15.4477 30 16 30C16.5523 30 17 29.5523 17 29V3Z" fill="black"/>
<path d="M24.7071 7.70711C25.0976 7.31658 25.0976 6.68342 24.7071 6.29289C24.3166 5.90237 23.6834 5.90237 23.2929 6.29289L17.5858 12L23.2929 17.7071C23.6834 18.0976 24.3166 18.0976 24.7071 17.7071C25.0976 17.3166 25.0976 16.6834 24.7071 16.2929L21.4142 13H29C29.5523 13 30 12.5523 30 12C30 11.4477 29.5523 11 29 11H21.4142L24.7071 7.70711Z" fill="black"/>
<path d="M7.29289 14.2929C7.68342 13.9024 8.31658 13.9024 8.70711 14.2929L14.4142 20L8.70711 25.7071C8.31658 26.0976 7.68342 26.0976 7.29289 25.7071C6.90237 25.3166 6.90237 24.6834 7.29289 24.2929L10.5858 21H3C2.44772 21 2 20.5523 2 20C2 19.4477 2.44772 19 3 19H10.5858L7.29289 15.7071C6.90237 15.3166 6.90237 14.6834 7.29289 14.2929Z" fill="black"/>
</svg>
