<svg width="32" height="32" viewBox="0 0 32 32" fill="none" xmlns="http://www.w3.org/2000/svg">
<path d="M30.67 18.85C30.67 15.9433 29.98 13.8 28.6 12.42C27.9281 11.7421 27.1246 11.2087 26.2389 10.8528C25.3533 10.4968 24.4042 10.3257 23.45 10.35C22.1034 10.251 20.7649 10.6298 19.67 11.42C18.9473 11.9957 18.3079 12.6688 17.77 13.42V13.5C17.7645 13.4874 17.7617 13.4738 17.7617 13.46C17.7617 13.4462 17.7645 13.4326 17.77 13.42V10.8H11.49C11.49 11.23 11.49 12.45 11.49 14.49C11.49 16.53 11.49 18.66 11.49 20.92C11.49 23.18 11.49 26.11 11.49 29.72H17.77V19.15C17.7551 18.8735 17.7551 18.5965 17.77 18.32C17.7837 18.0771 17.8343 17.8377 17.92 17.61C18.1761 17.0099 18.5661 16.4763 19.06 16.05C19.6366 15.5455 20.3844 15.2807 21.15 15.31C21.6292 15.2684 22.1108 15.357 22.5438 15.5664C22.9768 15.7759 23.3452 16.0985 23.61 16.5C24.1408 17.4442 24.3971 18.5179 24.35 19.6V29.69H30.63L30.67 18.85ZM1.71 29.69V10.8H8V29.69H1.71ZM7.43 2.60001C8.05846 3.21379 8.41805 4.05163 8.43 4.93001C8.43185 5.3647 8.344 5.7951 8.17193 6.19429C7.99987 6.59348 7.74729 6.95288 7.43 7.25001C7.08664 7.58656 6.6778 7.84898 6.22883 8.021C5.77986 8.19302 5.30034 8.27097 4.82 8.25001V8.25001C4.35368 8.26629 3.88904 8.18585 3.45534 8.01374C3.02164 7.84164 2.62827 7.5816 2.3 7.25001C1.99637 6.94563 1.75677 6.58354 1.59533 6.18509C1.43389 5.78663 1.35387 5.35988 1.36 4.93001C1.35616 4.49354 1.44307 4.06105 1.61521 3.65995C1.78736 3.25885 2.04098 2.8979 2.36 2.60001C3.04693 1.98254 3.94696 1.65624 4.87 1.69001C5.33588 1.66283 5.80247 1.72936 6.24219 1.88566C6.6819 2.04197 7.0858 2.28487 7.43 2.60001Z" fill="black"/>
</svg>
