<svg xmlns="http://www.w3.org/2000/svg" width="64" height="64" viewBox="0 0 64 64">
  <title>link-alt</title>
  <g>
    <path d="M32.13,13.13l3.74-3.74a13.26,13.26,0,0,1,18.74,0h0a13.26,13.26,0,0,1,0,18.74l-7.48,7.48a13.26,13.26,0,0,1-18.74,0h0" fill="none" stroke="#000" stroke-linecap="round" stroke-linejoin="round" stroke-width="2"/>
    <path d="M31.87,50.87l-3.74,3.74a13.26,13.26,0,0,1-18.74,0h0a13.26,13.26,0,0,1,0-18.74l7.48-7.48a13.26,13.26,0,0,1,18.74,0h0" fill="none" stroke="#000" stroke-linecap="round" stroke-linejoin="round" stroke-width="2"/>
    <path d="M31.87,50.87l-3.74,3.74a13.26,13.26,0,0,1-18.74,0h0a13.26,13.26,0,0,1,0-18.74l7.48-7.48a13.26,13.26,0,0,1,18.74,0h0" fill="none" stroke="#000" stroke-linecap="round" stroke-linejoin="round" stroke-width="2"/>
  </g>
</svg>
