<svg width="32" height="32" viewBox="0 0 32 32" fill="none" xmlns="http://www.w3.org/2000/svg">
<path d="M9 11C6.25229 11 4 13.2523 4 16C4 18.7477 6.25229 21 9 21H12C12.5523 21 13 21.4477 13 22C13 22.5523 12.5523 23 12 23H9C5.14772 23 2 19.8523 2 16C2 12.1477 5.14772 9 9 9H12C12.5523 9 13 9.44772 13 10C13 10.5523 12.5523 11 12 11H9Z" fill="black"/>
<path d="M19 10C19 9.44772 19.4477 9 20 9H23C26.8523 9 30 12.1477 30 16C30 19.8523 26.8523 23 23 23H20C19.4477 23 19 22.5523 19 22C19 21.4477 19.4477 21 20 21H23C25.7477 21 28 18.7477 28 16C28 13.2523 25.7477 11 23 11H20C19.4477 11 19 10.5523 19 10Z" fill="black"/>
<path d="M10 15C9.44772 15 9 15.4477 9 16C9 16.5523 9.44772 17 10 17H22C22.5523 17 23 16.5523 23 16C23 15.4477 22.5523 15 22 15H10Z" fill="black"/>
</svg>
