<svg width="32" height="32" viewBox="0 0 32 32" fill="none" xmlns="http://www.w3.org/2000/svg">
<path d="M25.2004 6.43961C23.1784 4.50963 20.0061 4.53315 18.1071 6.43211L15.9917 8.54747L15.9757 8.56216C15.226 9.24944 15.1798 10.4905 16.0071 11.3179C16.3976 11.7084 16.3976 12.3416 16.0071 12.7321C15.6166 13.1226 14.9834 13.1226 14.5929 12.7321C13.0257 11.1649 12.9744 8.61834 14.6071 7.10366L16.6929 5.01789C19.3915 2.31927 23.8136 2.34043 26.5919 5.00301L26.5996 5.01037L26.6071 5.01789C29.3057 7.71651 29.2846 12.1386 26.622 14.9169L26.6146 14.9246L24.5071 17.0321C22.9345 18.6048 20.3756 18.651 18.8628 17.0007C18.4897 16.5936 18.5172 15.961 18.9243 15.5878C19.3314 15.2147 19.964 15.2422 20.3372 15.6493C21.0244 16.399 22.2655 16.4452 23.0929 15.6179L25.185 13.5258C27.1128 11.5064 27.092 8.33953 25.2004 6.43961Z" fill="black"/>
<path d="M11.6628 15.4007C10.9756 14.6509 9.73445 14.6047 8.90711 15.4321L6.81495 17.5242C4.88717 19.5436 4.90797 22.7104 6.79961 24.6103C8.82162 26.5403 11.9939 26.5168 13.8929 24.6178L16.0083 22.5025L16.0243 22.4878C16.774 21.8005 16.8202 20.5594 15.9929 19.7321C15.6024 19.3415 15.6024 18.7084 15.9929 18.3179C16.3834 17.9273 17.0166 17.9273 17.4071 18.3179C18.9743 19.885 19.0256 22.4316 17.3929 23.9463L15.3071 26.0321C12.6085 28.7307 8.18645 28.7095 5.4081 26.0469L5.40042 26.0396L5.39289 26.0321C2.69427 23.3334 2.71543 18.9114 5.37801 16.1331L5.38537 16.1254L7.49289 14.0179C9.06555 12.4452 11.6244 12.399 13.1372 14.0492C13.5103 14.4564 13.4828 15.0889 13.0757 15.4621C12.6686 15.8353 12.036 15.8078 11.6628 15.4007Z" fill="black"/>
<path d="M20.7071 12.232C21.0976 11.8415 21.0976 11.2083 20.7071 10.8178C20.3166 10.4273 19.6834 10.4273 19.2929 10.8178L11.2929 18.8178C10.9024 19.2083 10.9024 19.8415 11.2929 20.232C11.6834 20.6225 12.3166 20.6225 12.7071 20.232L20.7071 12.232Z" fill="black"/>
</svg>
