<svg width="32" height="32" viewBox="0 0 32 32" fill="none" xmlns="http://www.w3.org/2000/svg">
<path d="M23.91 15.54C24.7205 16.7042 25.2643 18.0327 25.5029 19.431C25.7414 20.8293 25.6687 22.263 25.29 23.63V23.63C24.2053 22.9898 23.3672 22.0037 22.91 20.83C22.5181 19.6561 22.2074 18.4566 21.98 17.24C21.9373 17.0474 21.8593 16.8643 21.75 16.7C20.6989 15.0342 19.7795 13.2889 19 11.48C18.9512 11.3734 18.9111 11.2631 18.88 11.15L18.23 9.05003C18.1809 8.96033 18.1086 8.88549 18.0206 8.83335C17.9326 8.78122 17.8323 8.75371 17.73 8.75371C17.6277 8.75371 17.5274 8.78122 17.4394 8.83335C17.3514 8.88549 17.2791 8.96033 17.23 9.05003C17 9.39003 16.53 10.19 16 10.19C15.47 10.19 15 9.44003 14.82 9.00003C14.7836 8.89648 14.7159 8.80679 14.6264 8.74334C14.5368 8.67989 14.4298 8.64582 14.32 8.64582C14.2102 8.64582 14.1032 8.67989 14.0136 8.74334C13.9241 8.80679 13.8564 8.89648 13.82 9.00003C13.82 9.00003 13.82 9.00003 13.82 9.00003L13.17 11.1C13.17 11.21 13.09 11.32 13.04 11.43C12.2818 13.2508 11.3823 15.0095 10.35 16.69C10.2448 16.8565 10.1671 17.0388 10.12 17.23C9.88966 18.4009 9.555 19.5488 9.12 20.66C8.67826 21.8917 7.84599 22.9452 6.75 23.66V23.66C6.35485 22.2309 6.29363 20.7301 6.57106 19.2736C6.8485 17.817 7.45716 16.4438 8.35 15.26C9.89294 13.0227 10.7163 10.3678 10.71 7.65003C10.71 7.24003 10.71 6.44003 10.71 6.44003C10.71 6.44003 10.71 6.20003 10.71 6.08003C10.71 5.37615 10.8486 4.67915 11.118 4.02885C11.3874 3.37854 11.7822 2.78766 12.2799 2.28994C12.7776 1.79222 13.3685 1.3974 14.0188 1.12804C14.6691 0.858672 15.3661 0.720032 16.07 0.720032C16.7739 0.720032 17.4709 0.858672 18.1212 1.12804C18.7715 1.3974 19.3624 1.79222 19.8601 2.28994C20.3578 2.78766 20.7526 3.37854 21.022 4.02885C21.2914 4.67915 21.43 5.37615 21.43 6.08003C21.43 6.20003 21.43 7.24003 21.43 7.65003C21.4232 10.4961 22.3234 13.2702 24 15.57L23.91 15.54ZM17.34 23.54L17.4 23.34C17.4365 23.1675 17.5073 23.004 17.6081 22.8592C17.7088 22.7145 17.8376 22.5914 17.9868 22.4972C18.1359 22.4031 18.3024 22.3398 18.4765 22.3111C18.6505 22.2823 18.8285 22.2888 19 22.33C19.263 22.4049 19.4968 22.5584 19.67 22.77C19.6943 22.7938 19.7242 22.8111 19.7569 22.8201C19.7897 22.8291 19.8242 22.8297 19.8572 22.8217C19.8902 22.8137 19.9207 22.7974 19.9457 22.7743C19.9706 22.7513 19.9893 22.7223 20 22.69V22.69C20.1276 22.3859 20.3652 22.1411 20.6653 22.0045C20.9655 21.8679 21.3061 21.8496 21.6192 21.9531C21.9323 22.0566 22.1949 22.2744 22.3544 22.563C22.514 22.8516 22.5588 23.1898 22.48 23.51V23.51C22.476 23.5318 22.478 23.5543 22.486 23.575C22.494 23.5957 22.5075 23.6137 22.5251 23.6272C22.5427 23.6407 22.5637 23.649 22.5857 23.6513C22.6078 23.6535 22.63 23.6496 22.65 23.64C22.9379 23.4949 23.2696 23.4628 23.58 23.55C23.9153 23.6392 24.2015 23.8578 24.3759 24.1577C24.5502 24.4577 24.5985 24.8145 24.51 25.15C24.5057 25.1899 24.5057 25.2301 24.51 25.27V25.37C23.93 27.55 20.96 31.08 19.29 30.63C17.62 30.18 16.76 25.69 17.34 23.49V23.54ZM14.68 23.34C14.68 23.39 14.68 23.46 14.74 23.53C15.32 25.7 14.51 30.24 12.84 30.69C11.17 31.14 8.2 27.57 7.62 25.39C7.61535 25.3569 7.61535 25.3232 7.62 25.29C7.6157 25.2501 7.6157 25.2099 7.62 25.17C7.57015 24.9359 7.58541 24.6925 7.66413 24.4665C7.74285 24.2404 7.88203 24.0402 8.06653 23.8876C8.25103 23.7351 8.47381 23.636 8.71067 23.6012C8.94752 23.5663 9.18939 23.5971 9.41 23.69C9.42998 23.6996 9.45222 23.7035 9.47426 23.7013C9.49631 23.699 9.5173 23.6907 9.5349 23.6772C9.55251 23.6637 9.56604 23.6457 9.574 23.625C9.58196 23.6043 9.58404 23.5818 9.58 23.56V23.56C9.5336 23.3919 9.52151 23.2161 9.54445 23.0432C9.56739 22.8703 9.62489 22.7038 9.71354 22.5535C9.80218 22.4033 9.92015 22.2725 10.0604 22.1688C10.2007 22.0651 10.3604 21.9907 10.53 21.95C10.8373 21.8789 11.1598 21.9193 11.4401 22.064C11.7204 22.2087 11.9401 22.4483 12.06 22.74V22.74C12.0779 22.769 12.103 22.7929 12.1327 22.8094C12.1625 22.826 12.196 22.8347 12.23 22.8347C12.2641 22.8347 12.2975 22.826 12.3273 22.8094C12.357 22.7929 12.3821 22.769 12.4 22.74C12.5543 22.5566 12.7557 22.4187 12.9825 22.341C13.2093 22.2634 13.453 22.249 13.6874 22.2994C13.9217 22.3497 14.138 22.463 14.3128 22.6269C14.4877 22.7909 14.6146 22.9994 14.68 23.23V23.34Z" fill="black"/>
</svg>
