<svg width="32" height="32" viewBox="0 0 32 32" fill="none" xmlns="http://www.w3.org/2000/svg">
<path d="M7 10C8.10457 10 9 9.10457 9 8C9 6.89543 8.10457 6 7 6C5.89543 6 5 6.89543 5 8C5 9.10457 5.89543 10 7 10Z" fill="black"/>
<path d="M14 7C13.4477 7 13 7.44772 13 8C13 8.55228 13.4477 9 14 9H26C26.5523 9 27 8.55228 27 8C27 7.44772 26.5523 7 26 7H14Z" fill="black"/>
<path d="M14 15C13.4477 15 13 15.4477 13 16C13 16.5523 13.4477 17 14 17H26C26.5523 17 27 16.5523 27 16C27 15.4477 26.5523 15 26 15H14Z" fill="black"/>
<path d="M14 23C13.4477 23 13 23.4477 13 24C13 24.5523 13.4477 25 14 25H26C26.5523 25 27 24.5523 27 24C27 23.4477 26.5523 23 26 23H14Z" fill="black"/>
<path d="M9 16C9 17.1046 8.10457 18 7 18C5.89543 18 5 17.1046 5 16C5 14.8954 5.89543 14 7 14C8.10457 14 9 14.8954 9 16Z" fill="black"/>
<path d="M7 26C8.10457 26 9 25.1046 9 24C9 22.8954 8.10457 22 7 22C5.89543 22 5 22.8954 5 24C5 25.1046 5.89543 26 7 26Z" fill="black"/>
</svg>
