<svg width="32" height="32" viewBox="0 0 32 32" fill="none" xmlns="http://www.w3.org/2000/svg">
<path d="M15.2564 29.6686C15.2564 29.6686 15.2567 29.669 16 29L16.7433 29.669L16 30.4948L15.2564 29.6686Z" fill="black"/>
<path fill-rule="evenodd" clip-rule="evenodd" d="M16 8C13.7909 8 12 9.79086 12 12C12 14.2091 13.7909 16 16 16C18.2091 16 20 14.2091 20 12C20 9.79086 18.2091 8 16 8ZM14 12C14 10.8954 14.8954 10 16 10C17.1046 10 18 10.8954 18 12C18 13.1046 17.1046 14 16 14C14.8954 14 14 13.1046 14 12Z" fill="black"/>
<path fill-rule="evenodd" clip-rule="evenodd" d="M15.2564 29.6686L16 29C16.7433 29.669 16.7442 29.668 16.7442 29.668L16.7517 29.6596L16.7728 29.6359C16.7911 29.6153 16.8177 29.5854 16.852 29.5464C16.9205 29.4684 17.02 29.3544 17.146 29.2074C17.3978 28.9136 17.7559 28.4878 18.1848 27.9557C19.0418 26.8924 20.186 25.3988 21.3321 23.6797C22.4763 21.9633 23.6344 20.0043 24.5094 18.0114C25.3793 16.03 26 13.9466 26 12C26 6.44772 21.5523 2 16 2C10.4477 2 6 6.44772 6 12C6 13.9466 6.62074 16.03 7.49061 18.0114C8.36556 20.0043 9.52369 21.9633 10.6679 23.6797C11.814 25.3988 12.9582 26.8924 13.8152 27.9557C14.2441 28.4878 14.6022 28.9136 14.854 29.2074C14.98 29.3544 15.0795 29.4684 15.148 29.5464C15.1823 29.5854 15.2089 29.6153 15.2272 29.6359L15.2483 29.6596L15.2564 29.6686ZM8 12C8 7.55228 11.5523 4 16 4C20.4477 4 24 7.55228 24 12C24 13.5534 23.4957 15.345 22.6781 17.2074C21.8656 19.0582 20.7737 20.9117 19.6679 22.5703C18.564 24.2262 17.4582 25.6701 16.6277 26.7006C16.3943 26.9902 16.183 27.2466 16 27.4655C15.817 27.2466 15.6057 26.9902 15.3723 26.7006C14.5418 25.6701 13.436 24.2262 12.3321 22.5703C11.2263 20.9117 10.1344 19.0582 9.32189 17.2074C8.50426 15.345 8 13.5534 8 12Z" fill="black"/>
</svg>
