<svg width="32" height="32" viewBox="0 0 32 32" fill="none" xmlns="http://www.w3.org/2000/svg">
<path fill-rule="evenodd" clip-rule="evenodd" d="M12 10C12 7.79086 13.7909 6 16 6C18.2091 6 20 7.79086 20 10C20 12.2091 18.2091 14 16 14C13.7909 14 12 12.2091 12 10ZM16 8C14.8954 8 14 8.89543 14 10C14 11.1046 14.8954 12 16 12C17.1046 12 18 11.1046 18 10C18 8.89543 17.1046 8 16 8Z" fill="black"/>
<path fill-rule="evenodd" clip-rule="evenodd" d="M16 24L16.7428 24.6695L16 25.4937L15.2569 24.6691L15.2549 24.667L15.25 24.6616L15.2325 24.642C15.2175 24.6251 15.1957 24.6005 15.1676 24.5687C15.1116 24.505 15.0304 24.4121 14.9277 24.2925C14.7224 24.0535 14.4308 23.7075 14.0816 23.2754C13.3841 22.4123 12.4526 21.2003 11.5191 19.8065C10.5875 18.4154 9.64184 16.8254 8.92613 15.2077C8.21579 13.6022 7.7 11.8988 7.7 10.3C7.7 5.74772 11.4477 2 16 2C20.5523 2 24.3 5.74772 24.3 10.3C24.3 11.8988 23.7842 13.6022 23.0739 15.2077C22.3582 16.8254 21.4125 18.4154 20.4809 19.8065C19.5474 21.2003 18.6159 22.4123 17.9184 23.2754C17.5692 23.7075 17.2776 24.0535 17.0723 24.2925C16.9696 24.4121 16.8884 24.505 16.8323 24.5687L16.8058 24.5988L16.7675 24.642L16.7499 24.6616L16.7436 24.6686C16.7436 24.6686 16.7428 24.6695 16 24ZM16 4C12.5523 4 9.7 6.85228 9.7 10.3C9.7 11.5012 10.0967 12.9103 10.7551 14.3985C11.4082 15.8746 12.2875 17.3596 13.1809 18.6935C14.0724 20.0247 14.9659 21.1877 15.6372 22.0183C15.7671 22.1792 15.8886 22.3274 16 22.4617C16.1113 22.3274 16.2328 22.1792 16.3628 22.0183C17.0341 21.1877 17.9276 20.0247 18.8191 18.6935C19.7125 17.3596 20.5918 15.8746 21.2449 14.3985C21.9033 12.9103 22.3 11.5012 22.3 10.3C22.3 6.85228 19.4477 4 16 4ZM15.2569 24.6691C15.2569 24.6691 15.2572 24.6695 16 24L15.2569 24.6691Z" fill="black"/>
<path d="M8.00001 18H5.25598L1.65598 30H30.344L26.744 18H24C23.4477 18 23 18.4477 23 19C23 19.5523 23.4477 20 24 20H25.256L27.656 28H4.34404L6.74404 20H8.00001C8.55229 20 9.00001 19.5523 9.00001 19C9.00001 18.4477 8.55229 18 8.00001 18Z" fill="black"/>
</svg>
