<svg width="32" height="32" viewBox="0 0 32 32" fill="none" xmlns="http://www.w3.org/2000/svg">
<path d="M14 19.7C14 18.5954 14.8954 17.7 16 17.7C17.1046 17.7 18 18.5954 18 19.7C18 20.4402 17.5978 21.0866 17 21.4324V24.7C17 25.2522 16.5523 25.7 16 25.7C15.4477 25.7 15 25.2522 15 24.7V21.4324C14.4022 21.0866 14 20.4402 14 19.7Z" fill="black"/>
<path fill-rule="evenodd" clip-rule="evenodd" d="M9.29999 13.7578V8.7C9.29999 4.93632 12.3592 2 16 2C19.7637 2 22.7 5.05918 22.7 8.7V13.7578C24.6043 14.0774 26 15.6872 26 17.7V25.7C26 27.9522 24.2523 29.7 22 29.7H10C7.74772 29.7 6 27.9522 6 25.7V17.7C6 15.6872 7.39573 14.0774 9.29999 13.7578ZM11.3 8.7C11.3 6.06368 13.4408 4 16 4C18.6363 4 20.7 6.14082 20.7 8.7V13.7H11.3V8.7ZM10.29 15.7L10.3 15.7L10.31 15.7H21.69L21.7 15.7L21.71 15.7H22C23.1477 15.7 24 16.5522 24 17.7V25.7C24 26.8477 23.1477 27.7 22 27.7H10C8.85228 27.7 8 26.8477 8 25.7V17.7C8 16.5522 8.85228 15.7 10 15.7H10.29Z" fill="black"/>
</svg>
