<svg width="32" height="32" viewBox="0 0 32 32" fill="none" xmlns="http://www.w3.org/2000/svg">
<path d="M2 6C2 3.74772 3.74772 2 6 2H26C28.2523 2 30 3.74772 30 6V26C30 28.2523 28.2523 30 26 30H6C3.74772 30 2 28.2523 2 26V22C2 21.4477 2.44772 21 3 21C3.55228 21 4 21.4477 4 22V26C4 27.1477 4.85228 28 6 28H26C27.1477 28 28 27.1477 28 26V6C28 4.85228 27.1477 4 26 4H6C4.85228 4 4 4.85228 4 6V10C4 10.5523 3.55228 11 3 11C2.44772 11 2 10.5523 2 10V6Z" fill="black"/>
<path d="M11.2929 8.29289C11.6834 7.90237 12.3166 7.90237 12.7071 8.29289L20.4142 16L19.7075 16.7067L19.7067 16.7075L12.7071 23.7071C12.3166 24.0976 11.6834 24.0976 11.2929 23.7071C10.9024 23.3166 10.9024 22.6834 11.2929 22.2929L16.5858 17H5C4.44772 17 4 16.5523 4 16C4 15.4477 4.44772 15 5 15H16.5858L11.2929 9.70711C10.9024 9.31658 10.9024 8.68342 11.2929 8.29289Z" fill="black"/>
</svg>
