<svg width="32" height="32" viewBox="0 0 32 32" fill="none" xmlns="http://www.w3.org/2000/svg">
<path d="M6 4C4.85228 4 4 4.85228 4 6V26C4 27.1477 4.85228 28 6 28H26C27.1477 28 28 27.1477 28 26V22C28 21.4477 28.4477 21 29 21C29.5523 21 30 21.4477 30 22V26C30 28.2523 28.2523 30 26 30H6C3.74772 30 2 28.2523 2 26V6C2 3.74772 3.74772 2 6 2H26C28.2523 2 30 3.74772 30 6V10C30 10.5523 29.5523 11 29 11C28.4477 11 28 10.5523 28 10V6C28 4.85228 27.1477 4 26 4H6Z" fill="black"/>
<path d="M19.2929 8.29289C19.6834 7.90237 20.3166 7.90237 20.7071 8.29289L27.7067 15.2925L27.7075 15.2933L28.4142 16L20.7071 23.7071C20.3166 24.0976 19.6834 24.0976 19.2929 23.7071C18.9024 23.3166 18.9024 22.6834 19.2929 22.2929L24.5858 17H13C12.4477 17 12 16.5523 12 16C12 15.4477 12.4477 15 13 15H24.5858L19.2929 9.70711C18.9024 9.31658 18.9024 8.68342 19.2929 8.29289Z" fill="black"/>
</svg>
