<svg width="32" height="32" viewBox="0 0 32 32" fill="none" xmlns="http://www.w3.org/2000/svg">
<path fill-rule="evenodd" clip-rule="evenodd" d="M2 15.5C2 11.9717 4.824 9 8.4 9C10.1859 9 11.7347 9.72047 12.9071 10.8929C13.2976 11.2834 13.2976 11.9166 12.9071 12.3071C12.5166 12.6976 11.8834 12.6976 11.4929 12.3071C10.6653 11.4795 9.61414 11 8.4 11C5.976 11 4 13.0283 4 15.5C4 17.9717 5.976 20 8.4 20C9.61091 20 10.6597 19.523 11.4863 18.6995L18.986 10.8998L18.9929 10.8929C20.1653 9.72047 21.7141 9 23.5 9C27.076 9 29.9 11.9717 29.9 15.5C29.9 19.0033 27.2 22 23.6 22C21.8141 22 20.2653 21.2795 19.0929 20.1071C18.7024 19.7166 18.7024 19.0834 19.0929 18.6929C19.4834 18.3024 20.1166 18.3024 20.5071 18.6929C21.3347 19.5205 22.3859 20 23.6 20C26 20 27.9 17.9967 27.9 15.5C27.9 13.0283 25.924 11 23.5 11C22.2891 11 21.2403 11.477 20.4137 12.3005L12.914 20.1002L12.9071 20.1071C11.7347 21.2795 10.1859 22 8.4 22C4.824 22 2 19.0283 2 15.5Z" fill="black"/>
</svg>
