<svg width="32" height="32" viewBox="0 0 32 32" fill="none" xmlns="http://www.w3.org/2000/svg">
<path fill-rule="evenodd" clip-rule="evenodd" d="M15.5929 2.29289C15.9834 1.90237 16.6166 1.90237 17.0071 2.29289L21.2071 6.49289C21.3946 6.68043 21.5 6.93478 21.5 7.2C21.5 7.46522 21.3946 7.71957 21.2071 7.90711L17.9188 11.1954C17.8701 11.3086 17.7996 11.4147 17.7071 11.5071C17.6147 11.5996 17.5086 11.6701 17.3954 11.7188L11.3071 17.8071C10.4798 18.6345 10.526 19.8756 11.2757 20.5628C11.2864 20.5726 11.2969 20.5827 11.3071 20.5929C12.1345 21.4202 13.3756 21.374 14.0628 20.6243C14.0726 20.6136 14.0827 20.6031 14.0929 20.5929L23.9929 10.6929C24.1804 10.5054 24.4348 10.4 24.7 10.4C24.9652 10.4 25.2196 10.5054 25.4071 10.6929L29.6071 14.8929C29.9948 15.2806 29.998 15.9083 29.6142 16.2999L26.4804 19.4977C26.4429 19.6844 26.3518 19.8624 26.2071 20.0071C26.0675 20.1467 25.8969 20.2364 25.7175 20.2762L19.8071 26.3071C15.9166 30.1977 9.58342 30.1976 5.69289 26.3071C1.80237 22.4166 1.80237 16.0834 5.69289 12.1929L11.7812 6.10457C11.8299 5.99137 11.9005 5.88534 11.9929 5.79289C12.0853 5.70045 12.1914 5.62989 12.3046 5.58121L15.5929 2.29289ZM25.3787 17.7645L27.4929 15.6071L24.7 12.8142L22.5642 14.95L25.3787 17.7645ZM21.15 16.3642L23.9788 19.193L18.3895 24.8963C15.2797 28.0024 10.2154 28.0012 7.10711 24.8929C3.99763 21.7834 3.99763 16.7166 7.10711 13.6071L12.75 7.96421L15.5358 10.75L9.89289 16.3929C8.32536 17.9604 8.27435 20.5078 9.9082 22.0223C11.4766 23.5746 14.0116 23.6203 15.5213 21.9929L21.15 16.3642ZM19.0858 7.2L16.95 9.33579L14.1642 6.55L16.3 4.41421L19.0858 7.2Z" fill="black"/>
</svg>
