<svg width="32" height="32" viewBox="0 0 32 32" fill="none" xmlns="http://www.w3.org/2000/svg">
<path fill-rule="evenodd" clip-rule="evenodd" d="M2 10.9792C1.99974 10.9925 1.99974 11.0057 2 11.019V23C2 25.2523 3.74772 27 6 27H26C28.2523 27 30 25.2523 30 23V11.0185C30.0003 11.0056 30.0003 10.9926 30 10.9796V9C30 6.74772 28.2523 5 26 5H6C3.74772 5 2 6.74772 2 9V10.9792ZM4 9C4 7.85228 4.85228 7 6 7H26C27.1477 7 28 7.85228 28 9V10.4027L16 16.8642L4 10.4027V9ZM28 12.6742V23C28 24.1477 27.1477 25 26 25H6C4.85228 25 4 24.1477 4 23V12.6742L16 19.1357L28 12.6742Z" fill="black"/>
</svg>
