<svg width="32" height="32" viewBox="0 0 32 32" fill="none" xmlns="http://www.w3.org/2000/svg">
<path fill-rule="evenodd" clip-rule="evenodd" d="M9.11979 10.9999H3C2.44772 10.9999 2 11.4477 2 11.9999C2 12.5522 2.44772 12.9999 3 12.9999H9V15H5C4.44772 15 4 15.4477 4 16C4 16.5523 4.44772 17 5 17H9V19H7C6.44772 19 6 19.4477 6 20C6 20.5523 6.44772 21 7 21H9.11978C9.55019 22.7491 11.0945 24 13 24H26C28.2523 24 30 22.2523 30 20V12.0184C30.0003 12.0045 30.0002 11.9906 29.9999 11.9767C29.9879 9.73566 28.2445 8 26 8H13C11.0945 8 9.55023 9.2509 9.11979 10.9999ZM11.0704 11.4458C11.2967 10.5884 12.0463 10 13 10H26C26.9537 10 27.7033 10.5884 27.9296 11.4458L19.5 16.0599L11.0704 11.4458ZM11 20C11 21.1477 11.8523 22 13 22H26C27.1477 22 28 21.1477 28 20V13.6873L19.5 18.34L11 13.6873V20Z" fill="black"/>
</svg>
