<svg width="32" height="32" viewBox="0 0 32 32" fill="none" xmlns="http://www.w3.org/2000/svg">
<path d="M1.39999 14.43C1.52999 13.76 1.64999 13.09 1.80999 12.43C2.59137 8.92968 4.63634 5.84051 7.55338 3.75394C10.4704 1.66737 14.0546 0.730011 17.6197 1.12132C21.1847 1.51262 24.4802 3.2051 26.8752 5.87472C29.2703 8.54434 30.5965 12.0035 30.6 15.59C30.6 15.87 30.6 16.14 30.6 16.41C30.5769 17.5692 30.2455 18.7013 29.64 19.69V19.69C29.166 20.4519 28.4568 21.0388 27.6196 21.3617C26.7825 21.6847 25.8629 21.7262 25 21.48V21.48C24.3509 21.203 23.7367 20.8506 23.17 20.43V20.43L22.82 20.88C21.6185 22.4699 19.9038 23.5949 17.967 24.0642C16.0303 24.5334 13.9908 24.3179 12.1949 23.4543C10.3989 22.5906 8.95724 21.132 8.11455 19.3262C7.27185 17.5203 7.08009 15.4785 7.57183 13.5473C8.06356 11.6161 9.20848 9.91465 10.8122 8.73173C12.4159 7.5488 14.3796 6.95735 16.3699 7.05778C18.3602 7.15821 20.2543 7.94434 21.7308 9.28269C23.2073 10.6211 24.1752 12.4291 24.47 14.4V14.4C24.47 14.72 24.47 15.09 24.47 15.46C24.47 15.83 24.47 16.21 24.47 16.58C24.47 16.58 24.47 16.65 24.47 16.69C24.4693 17.0286 24.5904 17.3561 24.8112 17.6128C25.0321 17.8694 25.3379 18.038 25.6728 18.0878C26.0077 18.1375 26.3493 18.0651 26.6353 17.8837C26.9212 17.7024 27.1323 17.4242 27.23 17.1V17.1C27.4081 16.4485 27.4956 15.7755 27.49 15.1C27.4896 14.2426 27.3477 13.3912 27.07 12.58V12.64C26.5059 10.5738 25.3789 8.70494 23.8147 7.24186C22.2505 5.77879 20.3106 4.77904 18.2114 4.35415C16.1121 3.92925 13.9361 4.09592 11.9261 4.83555C9.916 5.57519 8.15095 6.8587 6.8278 8.54293C5.50464 10.2272 4.67541 12.2459 4.4326 14.3739C4.18979 16.5019 4.54294 18.6555 5.45267 20.5945C6.36241 22.5335 7.79294 24.1816 9.5847 25.3551C11.3765 26.5285 13.459 27.1811 15.6 27.24H16.03C18.9968 27.2853 21.8614 26.1568 24 24.1V24.1C24.19 23.93 24.36 23.76 24.58 23.55L26.87 25.47C26.71 25.65 26.57 25.83 26.42 25.98C22.14 30.04 17.17 31.36 11.52 29.55C5.86999 27.74 2.62999 23.74 1.59999 17.96C1.54999 17.64 1.48999 17.34 1.42999 17.04L1.39999 14.43ZM16 21.31C17.1027 21.3139 18.1819 20.991 19.1013 20.382C20.0207 19.7731 20.739 18.9053 21.1655 17.8884C21.5921 16.8715 21.7077 15.751 21.4979 14.6684C21.2881 13.5857 20.7622 12.5896 19.9866 11.8056C19.2111 11.0217 18.2206 10.4851 17.1403 10.2637C16.06 10.0423 14.9383 10.1459 13.9168 10.5615C12.8954 10.9771 12.02 11.6861 11.4012 12.5988C10.7824 13.5116 10.4479 14.5873 10.44 15.69V15.69C10.428 16.4263 10.5632 17.1576 10.8376 17.8409C11.112 18.5242 11.5201 19.1459 12.038 19.6694C12.5559 20.1928 13.1732 20.6076 13.8535 20.8894C14.5339 21.1711 15.2636 21.3141 16 21.31V21.31ZM18.52 15.76C18.518 15.2644 18.3694 14.7805 18.0928 14.3693C17.8163 13.9581 17.4242 13.6379 16.9659 13.4492C16.5077 13.2605 16.0038 13.2116 15.5179 13.3088C15.0319 13.4059 14.5856 13.6448 14.2352 13.9952C13.8847 14.3456 13.6459 14.7919 13.5487 15.2779C13.4516 15.7639 13.5004 16.2677 13.6892 16.7259C13.8779 17.1842 14.1981 17.5763 14.6093 17.8528C15.0205 18.1294 15.5044 18.278 16 18.28C16.6577 18.28 17.2885 18.0187 17.7536 17.5536C18.2187 17.0886 18.48 16.4578 18.48 15.8L18.52 15.76Z" fill="black"/>
</svg>
