<svg width="32" height="32" viewBox="0 0 32 32" fill="none" xmlns="http://www.w3.org/2000/svg">
<path fill-rule="evenodd" clip-rule="evenodd" d="M29.573 10.3161C29.5357 10.2899 29.4965 10.2663 29.4556 10.2453L16 3L2.54457 10.2452C2.50303 10.2665 2.46318 10.2906 2.42526 10.3173C2.30876 10.3989 2.21414 10.5021 2.14398 10.6185C2.07052 10.7398 2.02212 10.878 2.00596 11.0259C2.00116 11.069 1.99915 11.1125 2 11.1561V14.1153C1.99975 14.1283 1.99975 14.1413 2 14.1543V25.1357C2 27.388 3.74772 29.1357 6 29.1357H26C28.2523 29.1357 30 27.388 30 25.1357V14.1547C30.0003 14.1415 30.0003 14.1282 30 14.115V11.1565C30.0009 11.1116 29.9988 11.0669 29.9937 11.0227C29.9773 10.8772 29.9297 10.7411 29.8577 10.6214C29.7871 10.5033 29.6913 10.3986 29.573 10.3161ZM28 11.733L16 5.27151L4 11.7331V13.5384L16 19.9999L28 13.5384V11.733ZM28 15.8099L16 22.2714L4 15.8099V25.1357C4 26.2835 4.85228 27.1357 6 27.1357H26C27.1477 27.1357 28 26.2835 28 25.1357V15.8099Z" fill="black"/>
</svg>
