<svg width="32" height="32" viewBox="0 0 32 32" fill="none" xmlns="http://www.w3.org/2000/svg">
<path fill-rule="evenodd" clip-rule="evenodd" d="M23.6529 7.13672L16 3L8.34707 7.13672H5V8.93682L2.55126 10.2428C2.49835 10.2694 2.44813 10.3006 2.40111 10.3358C2.30234 10.4095 2.22029 10.4991 2.15666 10.5991C2.07595 10.7255 2.02285 10.8711 2.00588 11.0277C2.00112 11.0707 1.99913 11.1141 2 11.1576V13.1159C1.99974 13.1292 1.99974 13.1425 2 13.1557V25.1367C2 27.389 3.74772 29.1367 6 29.1367H26C28.2523 29.1367 30 27.389 30 25.1367V13.1556C30.0003 13.1424 30.0003 13.1292 30 13.116V11.1574C30.0039 10.9593 29.9487 10.7639 29.8422 10.5974C29.7789 10.4982 29.6974 10.4094 29.5994 10.3362C29.5522 10.3008 29.5018 10.2695 29.4487 10.2428L27 8.93682V7.13672H23.6529ZM23.3783 9.13672C23.3922 9.13701 23.4061 9.13701 23.4199 9.13672H25V9.51607C24.9997 9.52934 24.9997 9.5426 25 9.55584V14.1402L16 19.0002L7 14.1402V9.55574C7.00026 9.54257 7.00026 9.52937 7 9.51617V9.13672H8.5801C8.59393 9.13701 8.60779 9.13701 8.62165 9.13672H23.3783ZM19.447 7.13672L16 5.27349L12.553 7.13672H19.447ZM5 11.2035L4 11.7368V12.5367L5 13.07V11.2035ZM5.51096 15.6092L4 14.8033V25.1367C4 26.2844 4.85228 27.1367 6 27.1367H26C27.1477 27.1367 28 26.2844 28 25.1367V14.8033L26.4896 15.6089C26.4781 15.6153 26.4665 15.6216 26.4548 15.6276L16 21.2732L5.54518 15.6275C5.53364 15.6216 5.52223 15.6155 5.51096 15.6092ZM27 13.07L28 12.5367V11.7368L27 11.2035V13.07Z" fill="black"/>
</svg>
