<svg width="32" height="32" viewBox="0 0 32 32" fill="none" xmlns="http://www.w3.org/2000/svg">
<path fill-rule="evenodd" clip-rule="evenodd" d="M2.29289 2.29289C2.68342 1.90237 3.31658 1.90237 3.70711 2.29289L6.69356 5.27935C6.70314 5.28855 6.71255 5.29796 6.72177 5.30756L26.6937 25.2795C26.7032 25.2886 26.7125 25.2979 26.7217 25.3074L29.7071 28.2929C30.0976 28.6834 30.0976 29.3166 29.7071 29.7071C29.3166 30.0976 28.6834 30.0976 28.2929 29.7071L25.7299 27.1441L20.3162 28.9487C20.0865 29.0253 19.8486 29.0139 19.6392 28.9327L11.9804 26.0607L3.31623 28.9487C3.01128 29.0504 2.67606 28.9992 2.41529 28.8113C2.15452 28.6233 2 28.3215 2 28V7.00003C2 6.5696 2.27543 6.18746 2.68377 6.05134L4.14879 5.563L2.29289 3.70711C1.90237 3.31658 1.90237 2.68342 2.29289 2.29289ZM11 24.2793V12.4142L5.72993 7.14414L4 7.72079V26.6126L11 24.2793ZM13 14.4142V24.307L19 26.557V20.4142L13 14.4142ZM21 22.4142V26.6126L24.1488 25.563L21 22.4142Z" fill="black"/>
<path d="M9.49679 3.7471L11.6896 3.04937C11.7093 3.04296 11.7291 3.03716 11.7491 3.03199C11.9571 2.97789 12.1684 2.99371 12.3569 3.06584L20.0196 5.93937L28.6838 3.05132C28.9887 2.94967 29.3239 3.00081 29.5847 3.18877C29.8455 3.37672 30 3.67856 30 4.00001V23.9C30 24.4523 29.5523 24.9 29 24.9C28.4477 24.9 28 24.4523 28 23.9V5.38743L21 7.72077V14.9C21 15.4523 20.5523 15.9 20 15.9C19.4477 15.9 19 15.4523 19 14.9V7.69301L13 5.44301V6.90001C13 7.45229 12.5523 7.90001 12 7.90001C11.4477 7.90001 11 7.45229 11 6.90001V5.3676L10.1032 5.65295C9.57691 5.8204 9.01453 5.52951 8.84707 5.00323C8.67962 4.47694 8.97051 3.91455 9.49679 3.7471Z" fill="black"/>
</svg>
