<svg width="32" height="32" viewBox="0 0 32 32" fill="none" xmlns="http://www.w3.org/2000/svg">
<path fill-rule="evenodd" clip-rule="evenodd" d="M20.3207 28.9472L29.3162 25.9487C29.7246 25.8126 30 25.4304 30 25V4.00001C30 3.67856 29.8455 3.37672 29.5847 3.18877C29.3239 3.00081 28.9887 2.94967 28.6838 3.05132L20.0196 5.93937L12.3552 3.06522C12.3337 3.05703 12.3119 3.0496 12.2899 3.04294C12.1951 3.01421 12.0975 3.00003 12.0004 3C11.8912 2.99997 11.7826 3.0178 11.6789 3.05296L2.68377 6.05132C2.27543 6.18744 2 6.56958 2 7.00001V28C2 28.3215 2.15452 28.6233 2.41529 28.8113C2.67606 28.9992 3.01128 29.0503 3.31623 28.9487L11.9804 26.0606L19.6489 28.9363M13 5.44301V24.307L19 26.557V7.69301L13 5.44301ZM21 7.72077V26.6126L28 24.2792V5.38743L21 7.72077ZM11 24.2792V5.38743L4 7.72077V26.6126L11 24.2792Z" fill="black"/>
<path d="M20.3207 28.9472L20.3162 28.9487Z" fill="black"/>
<path d="M19.6489 28.9363C19.8609 29.0158 20.0964 29.022 20.3162 28.9487Z" fill="black"/>
</svg>
