<svg width="32" height="32" viewBox="0 0 32 32" fill="none" xmlns="http://www.w3.org/2000/svg">
<path d="M21.9231 4.38488C22.1355 3.87507 21.8944 3.2896 21.3846 3.07718C20.8748 2.86477 20.2893 3.10584 20.0769 3.61565L10.0769 27.6156C9.86449 28.1254 10.1056 28.7109 10.6154 28.9233C11.1252 29.1358 11.7106 28.8947 11.9231 28.3849L21.9231 4.38488Z" fill="black"/>
<path d="M8.64018 9.23205C9.06446 9.58561 9.12179 10.2162 8.76822 10.6405L4.30171 16.0003L8.76822 21.3601C9.12179 21.7844 9.06446 22.4149 8.64018 22.7685C8.21591 23.1221 7.58534 23.0647 7.23178 22.6405L2.23178 16.6405C1.92274 16.2696 1.92274 15.7309 2.23178 15.3601L7.23178 9.36009C7.58534 8.93581 8.21591 8.87848 8.64018 9.23205Z" fill="black"/>
<path d="M23.3598 9.23205C23.7841 8.87848 24.4147 8.93581 24.7682 9.36009L29.7682 15.3601C30.0773 15.7309 30.0773 16.2696 29.7682 16.6405L24.7682 22.6405C24.4147 23.0647 23.7841 23.1221 23.3598 22.7685C22.9355 22.4149 22.8782 21.7844 23.2318 21.3601L27.6983 16.0003L23.2318 10.6405C22.8782 10.2162 22.9355 9.58561 23.3598 9.23205Z" fill="black"/>
</svg>
