<svg width="32" height="32" viewBox="0 0 32 32" fill="none" xmlns="http://www.w3.org/2000/svg">
<path d="M11.74 14.47H15.85V15.47C16.0323 15.278 16.2296 15.1008 16.44 14.94V14.94C17.2202 14.4153 18.1398 14.1366 19.08 14.14H19.28C19.6149 14.141 19.9492 14.1677 20.28 14.22V4.53H11.74V14.47ZM22.94 15.93C23.3284 15.434 23.8197 15.028 24.38 14.74V14.74C25.1507 14.3698 25.995 14.1784 26.85 14.18H27C27.6449 14.1789 28.2836 14.3047 28.88 14.55V14.55C29.5431 14.8072 30.1311 15.2267 30.59 15.77L30.75 15.96V12.55C30.75 10.4283 29.9071 8.39344 28.4069 6.89314C26.9066 5.39285 24.8717 4.55 22.75 4.55H22.27V15.07C22.552 15.3177 22.7978 15.6038 23 15.92H23.06L22.94 15.93ZM1.33 26.85H9.8V4.53H9C6.97375 4.53 5.03048 5.33493 3.59771 6.7677C2.16493 8.20048 1.36 10.1437 1.36 12.17L1.33 26.85ZM23.66 26.85H27.08V19.24C27.0812 18.9353 27.0128 18.6343 26.88 18.36V18.36C26.7592 18.1548 26.5866 17.9849 26.3795 17.8673C26.1725 17.7497 25.9381 17.6886 25.7 17.69H25.35C25.0498 17.6904 24.7555 17.7738 24.4997 17.9308C24.2438 18.0879 24.0363 18.3125 23.9 18.58V18.58C23.7411 18.9531 23.6594 19.3545 23.66 19.76V19.83V26.85ZM19.19 18.42C19.0797 18.1993 18.9097 18.0138 18.6994 17.8848C18.4891 17.7558 18.2468 17.6883 18 17.69H17.81C17.4981 17.6427 17.1793 17.682 16.8883 17.8037C16.5973 17.9254 16.3453 18.1247 16.16 18.38C16.0222 18.7607 15.9676 19.1665 16 19.57V19.78V26.86H19.4V19.69C19.4027 19.2578 19.3317 18.8283 19.19 18.42Z" fill="black"/>
</svg>
