<?xml version="1.0" encoding="UTF-8"?>
<svg width="24px" height="24px" viewBox="0 0 24 24" version="1.1" xmlns="http://www.w3.org/2000/svg" xmlns:xlink="http://www.w3.org/1999/xlink">
    <!-- Generator: Sketch 48.2 (47327) - http://www.bohemiancoding.com/sketch -->
    <title>memory</title>
    <desc>Created with Sketch.</desc>
    <defs></defs>
    <g id="Page-1" stroke="none" stroke-width="1" fill="none" fill-rule="evenodd" stroke-linecap="round" stroke-linejoin="round">
        <g id="memory" stroke="#000000" stroke-width="1.5">
            <polygon id="Stroke-1" points="6 13 8 13 8 8 6 8"></polygon>
            <polygon id="Stroke-2" points="11 13 13 13 13 8 11 8"></polygon>
            <polygon id="Stroke-3" points="16 13 18 13 18 8 16 8"></polygon>
            <path d="M21,14 C21,13.448 21.447,13 22,13 L22,5 L2,5 L2,13 C2.553,13 3,13.448 3,14 C3,14.552 2.553,15 2,15 L2,19 L22,19 L22,15 C21.447,15 21,14.552 21,14 Z" id="Stroke-4"></path>
            <path d="M5,19 L5,17" id="Stroke-6"></path>
            <path d="M8,19 L8,17" id="Stroke-8"></path>
            <path d="M11,19 L11,17" id="Stroke-10"></path>
            <path d="M16,19 L16,17" id="Stroke-12"></path>
            <path d="M19,19 L19,17" id="Stroke-14"></path>
        </g>
    </g>
</svg>