<svg width="32" height="32" viewBox="0 0 32 32" fill="none" xmlns="http://www.w3.org/2000/svg">
<path fill-rule="evenodd" clip-rule="evenodd" d="M8 9C7.47275 9 6.95567 9.18011 6.56789 9.56789C6.18011 9.95567 6 10.4728 6 11V14C6 14.5272 6.18011 15.0443 6.56789 15.4321C6.95567 15.8199 7.47275 16 8 16H9C9.52725 16 10.0443 15.8199 10.4321 15.4321C10.8199 15.0443 11 14.5272 11 14V11C11 10.4728 10.8199 9.95567 10.4321 9.56789C10.0443 9.18011 9.52725 9 9 9H8ZM8 14V11H9V14H8Z" fill="black"/>
<path fill-rule="evenodd" clip-rule="evenodd" d="M13.5679 9.56789C13.9557 9.18011 14.4728 9 15 9H17C17.5272 9 18.0443 9.18011 18.4321 9.56789C18.8199 9.95567 19 10.4728 19 11V14C19 14.5272 18.8199 15.0443 18.4321 15.4321C18.0443 15.8199 17.5272 16 17 16H15C14.4728 16 13.9557 15.8199 13.5679 15.4321C13.1801 15.0443 13 14.5272 13 14V11C13 10.4728 13.1801 9.95567 13.5679 9.56789ZM15 11V14H17V11H15Z" fill="black"/>
<path fill-rule="evenodd" clip-rule="evenodd" d="M23 9C22.4728 9 21.9557 9.18011 21.5679 9.56789C21.1801 9.95567 21 10.4728 21 11V14C21 14.5272 21.1801 15.0443 21.5679 15.4321C21.9557 15.8199 22.4728 16 23 16H24C24.5272 16 25.0443 15.8199 25.4321 15.4321C25.8199 15.0443 26 14.5272 26 14V11C26 10.4728 25.8199 9.95567 25.4321 9.56789C25.0443 9.18011 24.5272 9 24 9H23ZM23 14V11H24V14H23Z" fill="black"/>
<path fill-rule="evenodd" clip-rule="evenodd" d="M2 9C2 6.74772 3.74772 5 6 5H26C28.2523 5 30 6.74772 30 9V19H29C28.4523 19 28 19.4523 28 20C28 20.5477 28.4523 21 29 21H30V27H2V21H3C3.54772 21 4 20.5477 4 20C4 19.4523 3.54772 19 3 19H2V9ZM26 24V25H28V22.8282C26.8368 22.4148 26 21.3019 26 20C26 18.6981 26.8368 17.5852 28 17.1718V9C28 7.85228 27.1477 7 26 7H6C4.85228 7 4 7.85228 4 9V17.1718C5.16322 17.5852 6 18.6981 6 20C6 21.3019 5.16322 22.4148 4 22.8282V25H6V24C6 23.4477 6.44772 23 7 23C7.55228 23 8 23.4477 8 24V25H10V24C10 23.4477 10.4477 23 11 23C11.5523 23 12 23.4477 12 24V25H14V24C14 23.4477 14.4477 23 15 23C15.5523 23 16 23.4477 16 24V25H20V24C20 23.4477 20.4477 23 21 23C21.5523 23 22 23.4477 22 24V25H24V24C24 23.4477 24.4477 23 25 23C25.5523 23 26 23.4477 26 24Z" fill="black"/>
</svg>
