<svg width="32" height="32" viewBox="0 0 32 32" fill="none" xmlns="http://www.w3.org/2000/svg">
<path fill-rule="evenodd" clip-rule="evenodd" d="M9 6C9 3.74772 10.7477 2 13 2H23C25.2523 2 27 3.74772 27 6V26C27 28.2523 25.2523 30 23 30H9C6.74772 30 5 28.2523 5 26V15.5858L9 11.5858V6ZM21 4V7C21 7.55228 21.4477 8 22 8C22.5523 8 23 7.55228 23 7V4C24.1477 4 25 4.85228 25 6V26C25 27.1477 24.1477 28 23 28V20H9V28C7.85228 28 7 27.1477 7 26V16.4142L11 12.4142V6C11 4.85228 11.8523 4 13 4V7C13 7.55228 13.4477 8 14 8C14.5523 8 15 7.55228 15 7V4H17V7C17 7.55228 17.4477 8 18 8C18.5523 8 19 7.55228 19 7V4H21ZM21 28H11V22H21V28Z" fill="black"/>
</svg>
