<svg width="32" height="32" viewBox="0 0 32 32" fill="none" xmlns="http://www.w3.org/2000/svg">
<path fill-rule="evenodd" clip-rule="evenodd" d="M26.3881 25.4256C26.4687 25.3492 26.5369 25.2592 26.5888 25.1587C28.3813 23.0882 29.5766 20.4866 29.9071 17.6217C29.9442 17.5418 29.9712 17.4556 29.9864 17.3645C30.0102 17.2218 30.0025 17.081 29.9683 16.9494C29.9893 16.6357 30 16.3191 30 16C30 12.0869 28.3946 8.54873 25.8064 6.00828C25.7375 5.91449 25.653 5.83398 25.5575 5.76983C23.0555 3.43136 19.6949 2 16 2C12.087 2 8.54899 3.60532 6.00856 6.19331C5.91453 6.26235 5.83384 6.34704 5.76959 6.4428C3.43126 8.94478 2 12.3052 2 16C2 20.0488 3.71872 23.6962 6.46636 26.2524C6.55983 26.3933 6.68847 26.5101 6.84143 26.589C9.29642 28.7142 12.4981 30 16 30C20.0487 30 23.696 28.2814 26.2522 25.5339C26.3006 25.5017 26.3461 25.4655 26.3881 25.4256ZM9.7219 5.77131C8.98901 6.2221 8.30826 6.74944 7.69079 7.34221C8.22754 9.80176 9.18981 12.0949 10.4967 14.1427C10.6266 14.1148 10.7615 14.1001 10.9 14.1001C10.9274 14.1001 10.9546 14.1007 10.9817 14.1018C12.4941 12.1526 14.314 10.4543 16.3715 9.07852C14.4011 7.60298 12.157 6.47087 9.7219 5.77131ZM12.3623 4.56128C14.1929 5.28759 15.9029 6.24408 17.4589 7.39463C17.5395 7.35498 17.6232 7.32086 17.7098 7.29277C17.8752 7.17163 18.0793 7.1001 18.3 7.1001C18.6808 7.1001 19.0348 7.21111 19.3315 7.40265C20.4365 6.88126 21.5907 6.44478 22.7859 6.10158C20.8558 4.77585 18.5185 4 16 4C14.7319 4 13.5097 4.19671 12.3623 4.56128ZM20.082 9.66288C20.1351 9.51934 20.1715 9.36752 20.1887 9.20979C21.5976 8.54532 23.0941 8.03206 24.6578 7.6908C26.7278 9.84706 28 12.775 28 16L27.9999 16.0523C27.17 15.9591 26.3252 15.9089 25.5181 15.9012C25.2045 15.3929 24.658 15.0449 24.0254 15.004C22.9731 13.0331 21.6419 11.2346 20.082 9.66288ZM25.3885 18.0833C25.8361 19.3362 26.1784 20.6394 26.4053 21.9816C27.0949 20.7844 27.584 19.457 27.8264 18.0454C27.0574 17.9573 26.2694 17.9091 25.5166 17.9013C25.4774 17.9645 25.4346 18.0253 25.3885 18.0833ZM23.5442 18.8671C23.053 18.7747 22.6295 18.4943 22.351 18.103C20.2833 18.3906 18.3177 18.9774 16.4962 19.8214C16.4873 19.9637 16.4629 20.1017 16.4246 20.2337C18.8373 21.8679 21.6102 23.0131 24.6027 23.5322C24.4251 21.915 24.0654 20.3527 23.5442 18.8671ZM22.2241 16.1018C22.2437 16.0651 22.2645 16.0291 22.2865 15.9939C21.2986 14.1317 20.0385 12.4377 18.5572 10.9665C18.4752 10.9883 18.3889 11 18.3 11C17.9814 11 17.6816 10.9222 17.4183 10.7847C15.6007 12.0098 13.988 13.5114 12.6384 15.2298C12.7423 15.465 12.8 15.7256 12.8 16.0001C12.8 16.3201 12.7216 16.6213 12.5828 16.8854C12.9382 17.2805 13.3084 17.6621 13.6925 18.029C13.9619 17.8829 14.271 17.8 14.6 17.8C14.9477 17.8 15.273 17.8926 15.5528 18.0545C17.6228 17.0826 19.864 16.4143 22.2241 16.1018ZM14.6 21.6C14.2797 21.6 13.9784 21.5215 13.7142 21.3826C11.9252 22.5773 10.3304 24.0459 8.98249 25.7353C10.9559 27.1603 13.3799 28 16 28C18.8426 28 21.4543 27.0116 23.5103 25.3598C20.3368 24.7007 17.4053 23.3946 14.8606 21.5825C14.7754 21.5941 14.6884 21.6 14.6 21.6ZM12.5845 19.7323C11.9698 19.1638 11.3863 18.5621 10.8368 17.9298C9.97664 19.4641 9.30316 21.1182 8.84613 22.8618C9.9775 21.6884 11.2301 20.6388 12.5845 19.7323ZM9 16.0001C9 15.8557 9.01596 15.7151 9.04623 15.5801C7.76097 13.6474 6.75975 11.5062 6.10157 9.21412C4.77585 11.1442 4 13.4815 4 16C4 18.8426 4.98835 21.4543 6.64015 23.5102C7.13742 21.116 8.00301 18.8594 9.17632 16.8028C9.06313 16.5592 9 16.2873 9 16.0001Z" fill="black"/>
</svg>
