<svg width="32" height="32" viewBox="0 0 32 32" fill="none" xmlns="http://www.w3.org/2000/svg">
<path fill-rule="evenodd" clip-rule="evenodd" d="M18.9308 7.17222C18.3574 6.6258 18 5.85464 18 5C18 3.34315 19.3431 2 21 2C22.6569 2 24 3.34315 24 5C24 6.65685 22.6569 8 21 8C20.9178 8 20.8364 7.9967 20.7559 7.99022L19.3669 11.033C19.996 11.4603 20.5398 12.004 20.9671 12.6332L24.0098 11.2441C24.0033 11.1636 24 11.0822 24 11C24 9.34315 25.3431 8 27 8C28.6569 8 30 9.34315 30 11C30 12.6569 28.6569 14 27 14C26.1454 14 25.3742 13.6427 24.8278 13.0692L21.7985 14.4522C21.9299 14.946 22 15.4648 22 16C22 17.2958 21.5892 18.4957 20.8907 19.4765L23.968 22.5538C24.5635 22.2019 25.2582 22 26 22C28.2091 22 30 23.7909 30 26C30 28.2091 28.2091 30 26 30C23.7909 30 22 28.2091 22 26C22 25.2582 22.2019 24.5635 22.5538 23.968L19.4765 20.8907C18.4957 21.5892 17.2958 22 16 22C14.4578 22 13.0516 21.4182 11.9887 20.4621L9.63227 22.3224C9.8683 22.8326 10 23.4009 10 24C10 26.2091 8.20914 28 6 28C3.79086 28 2 26.2091 2 24C2 21.7909 3.79086 20 6 20C6.88514 20 7.70313 20.2875 8.36568 20.7742L10.7442 18.8965C10.2699 18.0377 10 17.0504 10 16C10 14.5818 10.4921 13.2785 11.3148 12.2515L9.11039 9.7878C8.76695 9.92471 8.39227 10 8 10C6.34315 10 5 8.65685 5 7C5 5.34315 6.34315 4 8 4C9.65685 4 11 5.34315 11 7C11 7.53431 10.8603 8.036 10.6155 8.47054L12.8066 10.9195C13.7314 10.337 14.8263 10 16 10C16.5352 10 17.0541 10.0701 17.5479 10.2016L18.9308 7.17222ZM20 5C20 4.44772 20.4477 4 21 4C21.5523 4 22 4.44772 22 5C22 5.55228 21.5523 6 21 6C20.917 6 20.8363 5.98988 20.7592 5.97081C20.7142 5.94058 20.6662 5.9136 20.6153 5.89036C20.5582 5.86429 20.4999 5.84404 20.4411 5.82937C20.175 5.64968 20 5.34528 20 5ZM26.1707 11.559C26.3504 11.8251 26.6548 12 27 12C27.5523 12 28 11.5523 28 11C28 10.4477 27.5523 10 27 10C26.4477 10 26 10.4477 26 11C26 11.083 26.0101 11.1637 26.0292 11.2408C26.0594 11.2858 26.0864 11.3338 26.1097 11.3848C26.1358 11.4419 26.156 11.5002 26.1707 11.559ZM16 20C14.7929 20 13.7107 19.4653 12.9773 18.6199C12.9509 18.5717 12.9201 18.5251 12.8849 18.4805C12.848 18.4338 12.8079 18.3913 12.765 18.353C12.2839 17.6927 12 16.8795 12 16C12 14.9064 12.4388 13.9154 13.15 13.1933C13.2267 13.1546 13.2997 13.1053 13.3668 13.0453C13.4332 12.9858 13.4898 12.9195 13.5365 12.8484C14.2156 12.3168 15.0708 12 16 12C18.2091 12 20 13.7909 20 16C20 17.003 19.6308 17.9198 19.0209 18.6219C18.9391 18.6666 18.8622 18.7236 18.7929 18.7929C18.7236 18.8622 18.6666 18.9391 18.6219 19.0209C17.9198 19.6308 17.003 20 16 20ZM7.51512 22.7198C7.48825 22.6858 7.46396 22.6505 7.4422 22.6143C7.07828 22.2357 6.56666 22 6 22C4.89543 22 4 22.8954 4 24C4 25.1046 4.89543 26 6 26C7.10457 26 8 25.1046 8 24C8 23.5702 7.86444 23.1721 7.63375 22.8461C7.59133 22.8081 7.5516 22.766 7.51512 22.7198ZM24.451 24.7347C24.1691 25.0794 24 25.52 24 26C24 27.1046 24.8954 28 26 28C27.1046 28 28 27.1046 28 26C28 24.8954 27.1046 24 26 24C25.52 24 25.0794 24.1691 24.7347 24.451C24.6982 24.5062 24.6557 24.5585 24.6071 24.6071C24.5585 24.6557 24.5062 24.6982 24.451 24.7347ZM8.6332 7.75477C8.66827 7.72339 8.70493 7.69495 8.7429 7.66941C8.90271 7.49217 9 7.25745 9 7C9 6.44772 8.55228 6 8 6C7.44772 6 7 6.44772 7 7C7 7.55228 7.44772 8 8 8C8.20615 8 8.39773 7.93762 8.55689 7.83071C8.5807 7.80435 8.60614 7.77899 8.6332 7.75477Z" fill="black"/>
</svg>
