<svg width="32" height="32" viewBox="0 0 32 32" fill="none" xmlns="http://www.w3.org/2000/svg">
<path fill-rule="evenodd" clip-rule="evenodd" d="M22.6666 7.49484C23.4706 6.95667 24 6.04015 24 5C24 3.34315 22.6569 2 21 2C19.5362 2 18.3173 3.04837 18.0531 4.43522L10.6472 5.58724C10.142 4.64265 9.14607 4 8 4C6.34315 4 5 5.34315 5 7C5 8.19523 5.69897 9.22721 6.71045 9.70948L5.50637 20.0302C3.53013 20.2734 2 21.958 2 24C2 26.2091 3.79086 28 6 28C7.72389 28 9.19308 26.9095 9.75533 25.3806L22.0462 26.6097C22.3398 28.5295 23.9982 30 26 30C28.2091 30 30 28.2091 30 26C30 24.2305 28.851 22.7293 27.2583 22.2019L27.8408 13.8806C29.0884 13.517 30 12.365 30 11C30 9.34315 28.6569 8 27 8C25.3431 8 24 9.34315 24 11C24 11.2328 24.0265 11.4594 24.0767 11.677L23.7016 11.907L22.6666 7.49484ZM21 4C20.4477 4 20 4.44772 20 5C20 5.55228 20.4477 6 21 6C21.0231 6 21.046 5.99922 21.0687 5.99768C21.1323 5.96734 21.2002 5.94331 21.2716 5.92655C21.3251 5.91401 21.3785 5.90602 21.4316 5.90232C21.7678 5.74121 22 5.39772 22 5C22 4.44772 21.5523 4 21 4ZM20.728 7.98783C20.504 7.9677 20.287 7.92294 20.0799 7.85628L15.5633 13.5496L17.5695 15.6665L21.9056 13.0081L20.728 7.98783ZM22.3867 15.0591L18.9758 17.1503L24.0513 22.5059C24.0755 22.4925 24.0997 22.4792 24.1242 22.4662L22.3867 15.0591ZM25.3837 24.0967C25.4317 24.0927 25.4801 24.085 25.5284 24.0737C25.5807 24.0614 25.631 24.0453 25.6792 24.0256C25.7837 24.0088 25.8908 24 26 24C27.1046 24 28 24.8954 28 26C28 27.1046 27.1046 28 26 28C24.8954 28 24 27.1046 24 26C24 25.1105 24.5807 24.3566 25.3837 24.0967ZM25.4518 19.3683L24.1827 13.958L25.1522 13.3636C25.3621 13.5279 25.5944 13.6648 25.8437 13.7691L25.4518 19.3683ZM18.4895 6.64302L14.1736 12.0832L10.6643 8.38031C10.7956 8.12736 10.892 7.85335 10.9469 7.56467L18.3527 6.41266C18.395 6.49162 18.4406 6.56847 18.4895 6.64302ZM12.918 13.6659L9.20512 9.74813C9.04359 9.81907 8.87462 9.87618 8.69969 9.91797L7.49001 20.2867C7.53421 20.3045 7.57803 20.323 7.62143 20.3423L12.918 13.6659ZM15.8267 16.735L14.3077 15.1322L10.3934 20.0662L15.8267 16.735ZM9.80772 22.7712L17.2329 18.2189L22.6037 23.8859C22.4602 24.1159 22.3395 24.3615 22.2446 24.6196L9.95386 23.3905C9.92139 23.1781 9.87222 22.9712 9.80772 22.7712ZM7.56458 22.7541C7.58648 22.8117 7.61405 22.8682 7.64747 22.9227C7.68813 22.989 7.73527 23.0489 7.78759 23.1021C7.92348 23.3721 8 23.6771 8 24C8 25.1046 7.10457 26 6 26C4.89543 26 4 25.1046 4 24C4 22.8954 4.89543 22 6 22C6.63346 22 7.19814 22.2945 7.56458 22.7541ZM7 7C7 6.44772 7.44772 6 8 6C8.55228 6 9 6.44772 9 7C9 7.55228 8.55228 8 8 8C7.44772 8 7 7.55228 7 7ZM26 11C26 10.4477 26.4477 10 27 10C27.5523 10 28 10.4477 28 11C28 11.5523 27.5523 12 27 12C26.4477 12 26 11.5523 26 11Z" fill="black"/>
</svg>
