<svg width="32" height="32" viewBox="0 0 32 32" fill="none" xmlns="http://www.w3.org/2000/svg">
<path fill-rule="evenodd" clip-rule="evenodd" d="M16 2C12.6477 2 10 4.64772 10 8V16C10 19.3523 12.6477 22 16 22C19.3523 22 22 19.3523 22 16V8C22 4.64772 19.3523 2 16 2ZM12 8C12 5.75228 13.7523 4 16 4C18.2477 4 20 5.75228 20 8V16C20 18.2477 18.2477 20 16 20C13.7523 20 12 18.2477 12 16V8Z" fill="black"/>
<path d="M7 15C7.55228 15 8 15.4477 8 16C8 20.4477 11.5523 24 16 24C20.4477 24 24 20.4477 24 16C24 15.4477 24.4477 15 25 15C25.5523 15 26 15.4477 26 16C26 21.2146 22.0768 25.4549 17 25.9514V28H19C19.5523 28 20 28.4477 20 29C20 29.5523 19.5523 30 19 30H13C12.4477 30 12 29.5523 12 29C12 28.4477 12.4477 28 13 28H15V25.9514C9.92318 25.4549 6 21.2146 6 16C6 15.4477 6.44772 15 7 15Z" fill="black"/>
</svg>
