<svg width="32" height="32" viewBox="0 0 32 32" fill="none" xmlns="http://www.w3.org/2000/svg">
<path d="M19.06 19.87H24.38C24.5198 19.8772 24.6595 19.8549 24.7902 19.8047C24.9208 19.7545 25.0395 19.6774 25.1384 19.5784C25.2374 19.4794 25.3145 19.3608 25.3647 19.2301C25.4149 19.0995 25.4372 18.9598 25.43 18.82V10.44C25.4372 10.3002 25.4149 10.1605 25.3647 10.0298C25.3145 9.89917 25.2374 9.78052 25.1384 9.68155C25.0395 9.58258 24.9208 9.50549 24.7902 9.45526C24.6595 9.40503 24.5198 9.38279 24.38 9.38998H19.06C18.7815 9.38998 18.5145 9.5006 18.3175 9.69751C18.1206 9.89443 18.01 10.1615 18.01 10.44C18.01 10.7185 18.1206 10.9855 18.3175 11.1824C18.5145 11.3794 18.7815 11.49 19.06 11.49H23.33V17.77H19.06C18.7815 17.77 18.5145 17.8806 18.3175 18.0775C18.1206 18.2744 18.01 18.5415 18.01 18.82C18.01 19.0985 18.1206 19.3655 18.3175 19.5624C18.5145 19.7594 18.7815 19.87 19.06 19.87V19.87ZM15 24.06H8.66V11.49H15V24.06ZM16 9.38998H7.62C7.48436 9.38981 7.35011 9.41723 7.22541 9.47058C7.1007 9.52394 6.98816 9.6021 6.89461 9.70032C6.80107 9.79854 6.72849 9.91476 6.68128 10.0419C6.63407 10.1691 6.61322 10.3045 6.62 10.44V25.11C6.62 25.3752 6.72536 25.6295 6.9129 25.8171C7.10043 26.0046 7.35479 26.11 7.62 26.11H16C16.1355 26.1168 16.2709 26.0959 16.3981 26.0487C16.5252 26.0015 16.6414 25.9289 16.7397 25.8354C16.8379 25.7418 16.916 25.6293 16.9694 25.5046C17.0227 25.3799 17.0502 25.2456 17.05 25.11V10.44C17.0572 10.3002 17.0349 10.1605 16.9847 10.0298C16.9345 9.89917 16.8574 9.78052 16.7584 9.68155C16.6595 9.58258 16.5408 9.50549 16.4102 9.45526C16.2795 9.40503 16.1398 9.38279 16 9.38998V9.38998ZM30.66 4.14998V27.2C30.6613 27.6127 30.581 28.0216 30.4237 28.4032C30.2663 28.7847 30.0351 29.1314 29.7433 29.4232C29.4514 29.7151 29.1047 29.9463 28.7232 30.1036C28.3416 30.261 27.9327 30.3413 27.52 30.34H4.52C3.68722 30.34 2.88855 30.0092 2.29969 29.4203C1.71082 28.8314 1.38 28.0328 1.38 27.2V8.34998C1.37985 7.52484 1.70348 6.73258 2.2813 6.14354C2.85913 5.55449 3.64501 5.21569 4.47 5.19998H13.9C14.1785 5.19998 14.4456 5.3106 14.6425 5.50751C14.8394 5.70443 14.95 5.9715 14.95 6.24998C14.95 6.52845 14.8394 6.79552 14.6425 6.99244C14.4456 7.18935 14.1785 7.29998 13.9 7.29998H4.47C4.20479 7.29998 3.95043 7.40533 3.7629 7.59287C3.57536 7.78041 3.47 8.03476 3.47 8.29998V27.2C3.47 27.4652 3.57536 27.7195 3.7629 27.9071C3.95043 28.0946 4.20479 28.2 4.47 28.2H27.52C27.6555 28.2068 27.7909 28.1859 27.9181 28.1387C28.0452 28.0915 28.1614 28.0189 28.2597 27.9254C28.3579 27.8318 28.436 27.7193 28.4894 27.5946C28.5427 27.4699 28.5702 27.3356 28.57 27.2V4.19998C28.5702 4.06434 28.5427 3.93008 28.4894 3.80538C28.436 3.68068 28.3579 3.56813 28.2597 3.47459C28.1614 3.38104 28.0452 3.30846 27.9181 3.26125C27.7909 3.21404 27.6555 3.19319 27.52 3.19998H2.38C2.10152 3.19998 1.83445 3.08935 1.63754 2.89244C1.44063 2.69552 1.33 2.42845 1.33 2.14998C1.33 1.8715 1.44063 1.60443 1.63754 1.40751C1.83445 1.2106 2.10152 1.09998 2.38 1.09998H27.52C27.9332 1.09997 28.3423 1.18152 28.7239 1.33995C29.1056 1.49837 29.4522 1.73056 29.7439 2.02319C30.0356 2.31583 30.2667 2.66316 30.4239 3.04528C30.5811 3.4274 30.6613 3.83678 30.66 4.24998V4.14998Z" fill="black"/>
</svg>
