<svg width="32" height="32" viewBox="0 0 32 32" fill="none" xmlns="http://www.w3.org/2000/svg">
<path fill-rule="evenodd" clip-rule="evenodd" d="M15.0852 2.38079C15.3299 2.69101 15.3689 3.11618 15.1849 3.46579C14.257 5.22887 13.7 7.26972 13.7 9.50004C13.7 16.6478 19.5523 22.5 26.7 22.5C27.226 22.5 27.4983 22.4947 27.7575 22.4299C28.1709 22.3266 28.6043 22.4965 28.8373 22.8533C29.0703 23.2101 29.0516 23.6753 28.7907 24.0122C26.2136 27.341 22.2289 29.5 17.7 29.5C9.94773 29.5 3.70001 23.2523 3.70001 15.5C3.70001 9.04165 8.11128 3.54347 14.0533 2.03095C14.4362 1.93349 14.8406 2.07058 15.0852 2.38079ZM12.4803 4.71471C8.49117 6.60586 5.70001 10.7436 5.70001 15.5C5.70001 22.1478 11.0523 27.5 17.7 27.5C20.7527 27.5 23.5219 26.3553 25.6464 24.4632C17.8811 23.9182 11.7 17.3982 11.7 9.50004C11.7 7.8023 11.9807 6.19645 12.4803 4.71471Z" fill="black"/>
</svg>
