<svg width="32" height="32" viewBox="0 0 32 32" fill="none" xmlns="http://www.w3.org/2000/svg">
<path fill-rule="evenodd" clip-rule="evenodd" d="M18 7C17.4477 7 17 7.44772 17 8C17 8.55228 17.4477 9 18 9H20.2192L21.8414 15.4887C20.4501 16.1556 19.4152 17.4471 19.1 19H15.618L13 13.7639V13C13 10.7909 11.2091 9 9 9H7C4.79086 9 3 10.7909 3 13V15H8C5.23858 15 3 17.2386 3 20C3 22.7614 5.23858 25 8 25C10.419 25 12.4367 23.2822 12.9 21H19.1C19.5633 23.2822 21.581 25 24 25C26.7614 25 29 22.7614 29 20C29 17.2386 26.7614 15 24 15C23.9269 15 23.8542 15.0016 23.7819 15.0047L21.7808 7H18ZM22.3438 17.4982L23.0299 20.2425C23.1638 20.7783 23.7067 21.1041 24.2425 20.9701C24.7783 20.8362 25.1041 20.2933 24.9701 19.7575L24.2841 17.0133C25.8077 17.1564 27 18.439 27 20C27 21.6569 25.6569 23 24 23C22.3431 23 21 21.6569 21 20C21 18.9554 21.5339 18.0354 22.3438 17.4982ZM10.8293 19H8C7.44772 19 7 19.4477 7 20C7 20.5523 7.44772 21 8 21H10.8293C10.4175 22.1652 9.30622 23 8 23C6.34315 23 5 21.6569 5 20C5 18.3431 6.34315 17 8 17C9.30622 17 10.4175 17.8348 10.8293 19ZM12.9 19C12.4367 16.7178 10.419 15 8 15H11.382L13.382 19H12.9ZM9 11C10.1046 11 11 11.8954 11 13H5C5 11.8954 5.89543 11 7 11H9Z" fill="black"/>
</svg>
