<svg width="32" height="32" viewBox="0 0 32 32" fill="none" xmlns="http://www.w3.org/2000/svg">
<path fill-rule="evenodd" clip-rule="evenodd" d="M17 6C16.4477 6 16 6.44772 16 7C16 7.55228 16.4477 8 17 8H19.2614L19.681 9.36355C18.7012 9.34722 17.6413 9.5613 16.5528 10.1056C15.7111 10.5265 15.0275 10.9308 14.5109 11.2363C14.2798 11.373 14.0822 11.4899 13.9188 11.5797C13.3727 11.8797 13.0242 12 12.5 12C12.3306 12 12.0751 11.9398 11.6752 11.7684C11.3812 11.6424 11.0793 11.489 10.7286 11.3109C10.6005 11.2458 10.4654 11.1772 10.3222 11.1056C9.31438 10.6017 8.00483 10 6.5 10L3.99971 10C2.89476 10 2 10.8958 2 12C2 13.1046 2.89542 14 4 14L6 14C6.48422 14 7.64045 14.2582 8.72182 15.0517C8.48614 15.0176 8.24513 15 8 15C5.23858 15 3 17.2386 3 20C3 22.7614 5.23858 25 8 25C10.419 25 12.4367 23.2822 12.9 21H15C16.1192 21 16.9963 20.4313 17.6224 19.7269C18.2408 19.0312 18.6718 18.1468 18.9487 17.3162C19.16 16.6823 19.5779 15.8558 20.3424 15.1932C20.604 14.9665 20.914 14.752 21.2827 14.5691L21.6032 15.6108C20.052 16.4597 19 18.107 19 20C19 22.7614 21.2386 25 24 25C26.7614 25 29 22.7614 29 20C29 17.2386 26.7614 15 24 15C23.8364 15 23.6746 15.0079 23.5149 15.0232L23.212 14.0386C23.4597 14.0135 23.7221 14 24 14H25.3874L24.9487 12.6838C24.5843 11.5906 23.452 10.4712 22.0162 9.86091C21.9821 9.84646 21.9479 9.83226 21.9134 9.81833L20.7386 6H17ZM22.2124 17.5905L23.0442 20.2941C23.2066 20.822 23.7662 21.1182 24.2941 20.9558C24.8219 20.7934 25.1182 20.2338 24.9558 19.7059L24.124 17.0025C25.7233 17.0675 27 18.3847 27 20C27 21.6569 25.6569 23 24 23C22.3431 23 21 21.6569 21 20C21 19.013 21.4767 18.1373 22.2124 17.5905ZM10.8293 19L8 19C7.44772 19 7 19.4477 7 20C7 20.5523 7.44772 21 8 21H10.8293C10.4174 22.1652 9.30621 23 8 23C6.34315 23 5 21.6569 5 20C5 18.3431 6.34315 17 8 17C9.30621 17 10.4174 17.8348 10.8293 19ZM17.4472 11.8944C18.5014 11.3673 19.4781 11.2782 20.3161 11.4278L20.689 12.6398C20.0482 12.92 19.4992 13.2774 19.0326 13.6818C17.9221 14.6443 17.34 15.8177 17.0513 16.6838C16.8282 17.3532 16.5092 17.9688 16.1276 18.3982C15.7537 18.8187 15.3808 19 15 19L12.9527 19C12.7092 16.4869 11.5554 14.7642 10.1917 13.6602C8.70563 12.4573 6.98532 12.0004 6.0011 12H6.5C7.49517 12 8.43562 12.3984 9.42779 12.8944C9.53998 12.9505 9.65544 13.0092 9.7727 13.0688C10.1414 13.2562 10.5281 13.4527 10.8873 13.6067C11.3624 13.8103 11.9194 14 12.5 14C13.4758 14 14.161 13.7286 14.8817 13.3326C15.1397 13.1909 15.3825 13.0467 15.641 12.8931C16.1219 12.6075 16.6573 12.2894 17.4472 11.8944Z" fill="black"/>
</svg>
