<svg width="32" height="32" viewBox="0 0 32 32" fill="none" xmlns="http://www.w3.org/2000/svg">
<path d="M16 16C17.1046 16 18 15.1046 18 14C18 12.8954 17.1046 12 16 12C14.8954 12 14 12.8954 14 14C14 15.1046 14.8954 16 16 16Z" fill="black"/>
<path fill-rule="evenodd" clip-rule="evenodd" d="M19 4C17.8523 4 17 4.85228 17 6V7.05553C21.4858 7.55653 25 11.3856 25 16V21C25 25.9523 20.9523 30 16 30C11.0477 30 7 25.9523 7 21V16C7 11.3856 10.5142 7.55653 15 7.05553V6C15 3.74772 16.7477 2 19 2H22C22.5523 2 23 2.44772 23 3C23 3.55228 22.5523 4 22 4H19ZM16 9C12.1523 9 9 12.1523 9 16V21C9 24.8477 12.1523 28 16 28C19.8477 28 23 24.8477 23 21V16C23 12.1523 19.8477 9 16 9Z" fill="black"/>
</svg>
