<svg width="32" height="32" viewBox="0 0 32 32" fill="none" xmlns="http://www.w3.org/2000/svg">
<path fill-rule="evenodd" clip-rule="evenodd" d="M30 8.33868V20.3156C30 23.0771 27.7614 25.3157 25 25.3157C22.2386 25.3157 20 23.0771 20 20.3157C20 17.5542 22.2386 15.3157 25 15.3157C26.1256 15.3157 27.1643 15.6876 28 16.3153V9.63132L12 14.0758V25.3156C12 28.0771 9.76142 30.3157 7 30.3157C4.23858 30.3157 2 28.0771 2 25.3157C2 22.5543 4.23858 20.3157 7 20.3157C8.12561 20.3157 9.16434 20.6876 10 21.3153V13.3376C9.99966 13.3226 9.99966 13.3076 10 13.2927V7.55556L30 2V8.29379C30.0003 8.3088 30.0003 8.32376 30 8.33868ZM28 7.5556V4.63128L12 9.07573V12L28 7.5556ZM22 20.3157C22 18.6588 23.3431 17.3157 25 17.3157C26.6569 17.3157 28 18.6588 28 20.3157C28 21.9725 26.6569 23.3157 25 23.3157C23.3431 23.3157 22 21.9725 22 20.3157ZM4 25.3157C4 23.6588 5.34315 22.3157 7 22.3157C8.65685 22.3157 10 23.6588 10 25.3157C10 26.9725 8.65685 28.3157 7 28.3157C5.34315 28.3157 4 26.9725 4 25.3157Z" fill="black"/>
</svg>
