<svg width="32" height="32" viewBox="0 0 32 32" fill="none" xmlns="http://www.w3.org/2000/svg">
<path d="M11.67 25.58C9.77777 25.4694 7.90157 25.1679 6.06999 24.68C4.37999 24.19 3.99999 23.69 3.89999 23.69V20.01C4.07999 20.1 4.27999 20.18 4.48999 20.26C6.19967 20.8582 7.97627 21.2444 9.77999 21.41H9.89999C10.1652 21.4246 10.4254 21.3332 10.6232 21.156C10.8211 20.9788 10.9404 20.7302 10.955 20.465C10.9696 20.1998 10.8782 19.9396 10.701 19.7418C10.5238 19.5439 10.2752 19.4246 10.01 19.41C8.49953 19.2647 7.00821 18.9631 5.55999 18.51C4.94371 18.3888 4.37078 18.1058 3.89999 17.69V14.01C4.28947 14.1923 4.6903 14.3493 5.09999 14.48C7.24301 15.1017 9.45131 15.4708 11.68 15.58H11.75C12.0152 15.588 12.2727 15.4902 12.4659 15.3083C12.6591 15.1264 12.772 14.8752 12.78 14.61C12.788 14.3448 12.6902 14.0873 12.5083 13.8941C12.3264 13.701 12.0752 13.588 11.81 13.58C9.88804 13.4772 7.98155 13.179 6.11999 12.69C4.38999 12.2 3.99999 11.69 3.89999 11.69V8.01001C4.62906 8.3418 5.38952 8.59975 6.16999 8.78001C9.03417 9.42504 11.9644 9.73048 14.9 9.69001C17.8323 9.72997 20.7591 9.42454 23.62 8.78001C24.4033 8.59824 25.1669 8.34035 25.9 8.01001V11.47C25.9 11.7352 26.0054 11.9896 26.1929 12.1771C26.3804 12.3647 26.6348 12.47 26.9 12.47C27.1652 12.47 27.4196 12.3647 27.6071 12.1771C27.7946 11.9896 27.9 11.7352 27.9 11.47V5.69001C27.8601 5.25853 27.7055 4.84557 27.4523 4.49392C27.1992 4.14227 26.8565 3.86471 26.46 3.69001C25.5668 3.20731 24.611 2.85059 23.62 2.63001C20.7603 1.9754 17.8335 1.6599 14.9 1.69001C11.9644 1.64955 9.03417 1.95499 6.16999 2.60001C5.17809 2.83226 4.22258 3.19899 3.32999 3.69001C2.9347 3.86523 2.59357 4.14316 2.34209 4.49488C2.0906 4.84661 1.93794 5.2593 1.89999 5.69001V23.69C1.89999 24.85 2.95999 25.78 5.05999 26.46C7.16471 27.0866 9.3368 27.4592 11.53 27.57H11.6C11.8652 27.5793 12.1233 27.4828 12.3174 27.3019C12.5115 27.1209 12.6257 26.8702 12.635 26.605C12.6443 26.3398 12.5478 26.0818 12.3668 25.8877C12.1859 25.6936 11.9352 25.5793 11.67 25.57V25.58ZM7.11999 4.43001C9.67993 3.90939 12.2878 3.66134 14.9 3.69001C17.5089 3.66152 20.1134 3.90957 22.67 4.43001C24.97 4.94001 25.67 5.50001 25.85 5.69001C25.67 5.88001 24.97 6.44001 22.67 6.95001C20.1134 7.47046 17.5089 7.71851 14.9 7.69001C12.2878 7.71869 9.67993 7.47064 7.11999 6.95001C4.81999 6.44001 4.11999 5.88001 3.93999 5.69001C4.12999 5.50001 4.81999 4.94001 7.11999 4.43001Z" fill="black"/>
<path d="M30.08 22.76L28.45 15.69C28.4169 15.5434 28.3511 15.4061 28.2576 15.2883C28.1641 15.1706 28.0453 15.0755 27.91 15.01L21.33 11.79C21.1943 11.7245 21.0456 11.6904 20.895 11.6904C20.7443 11.6904 20.5956 11.7245 20.46 11.79L13.88 14.96C13.7446 15.0255 13.6258 15.1206 13.5323 15.2383C13.4388 15.3561 13.3731 15.4934 13.34 15.64L11.72 22.76C11.6871 22.9053 11.687 23.0562 11.7199 23.2015C11.7528 23.3468 11.8177 23.483 11.91 23.6L16.46 29.31C16.5542 29.4292 16.6742 29.5253 16.8111 29.5912C16.948 29.657 17.0981 29.6908 17.25 29.69H24.55C24.7002 29.6893 24.8483 29.6548 24.9833 29.589C25.1184 29.5232 25.2369 29.4279 25.33 29.31L29.88 23.6C29.974 23.4838 30.0407 23.3481 30.0753 23.2027C30.1099 23.0573 30.1115 22.9061 30.08 22.76ZM24.08 27.69H17.73L13.73 22.69L15.14 16.51L20.86 13.76L26.57 16.51L28 22.69L24.08 27.69Z" fill="black"/>
<path d="M25.61 21.09L24.34 20.82C24.3084 20.4769 24.2276 20.1401 24.1 19.82L25.1 18.98C25.2908 18.8085 25.4084 18.5701 25.4284 18.3143C25.4483 18.0585 25.3692 17.8047 25.2074 17.6056C25.0455 17.4065 24.8133 17.2772 24.5588 17.2446C24.3043 17.2119 24.0469 17.2783 23.84 17.43L22.84 18.27C22.5506 18.0745 22.2338 17.9228 21.9 17.82V16.43C21.9 16.1648 21.7946 15.9105 21.6071 15.7229C21.4196 15.5354 21.1652 15.43 20.9 15.43C20.6348 15.43 20.3804 15.5354 20.1929 15.7229C20.0054 15.9105 19.9 16.1648 19.9 16.43V17.78C19.5654 17.8808 19.2483 18.0326 18.96 18.23L17.96 17.39C17.8577 17.307 17.74 17.2449 17.6137 17.2075C17.4873 17.1701 17.3548 17.158 17.2238 17.1719C17.0928 17.1858 16.9658 17.2255 16.8502 17.2887C16.7345 17.3519 16.6325 17.4373 16.55 17.54C16.3854 17.746 16.3088 18.0087 16.3368 18.2709C16.3649 18.5331 16.4955 18.7736 16.7 18.94L17.7 19.78C17.5691 20.0996 17.4849 20.4364 17.45 20.78L16.18 21.05C15.9148 21.0792 15.672 21.2125 15.5051 21.4207C15.3382 21.6289 15.2608 21.8948 15.29 22.16C15.3192 22.4252 15.4525 22.668 15.6607 22.8349C15.8688 23.0018 16.1348 23.0792 16.4 23.05H16.61L17.88 22.77C18.0546 23.0886 18.281 23.3759 18.55 23.62L18 24.76C17.942 24.8782 17.9078 25.0066 17.8996 25.138C17.8913 25.2693 17.909 25.401 17.9518 25.5255C17.9945 25.65 18.0614 25.7649 18.1486 25.8634C18.2358 25.962 18.3416 26.0424 18.46 26.1C18.5941 26.165 18.741 26.1991 18.89 26.2C19.0774 26.2004 19.2612 26.1481 19.4203 26.0491C19.5794 25.9501 19.7075 25.8083 19.79 25.64L20.35 24.5C20.5316 24.532 20.7156 24.5487 20.9 24.55C21.0844 24.5483 21.2683 24.5315 21.45 24.5L22 25.69C22.0825 25.8583 22.2106 26.0001 22.3697 26.0991C22.5288 26.1981 22.7126 26.2504 22.9 26.25C23.0524 26.2506 23.2029 26.2164 23.34 26.15C23.4584 26.0924 23.5642 26.012 23.6514 25.9134C23.7386 25.8149 23.8055 25.7 23.8482 25.5755C23.891 25.451 23.9087 25.3193 23.9004 25.188C23.8922 25.0566 23.858 24.9282 23.8 24.81L23.24 23.67C23.512 23.4262 23.7418 23.1389 23.92 22.82L25.18 23.1H25.4C25.6652 23.1279 25.9306 23.0492 26.1379 22.8814C26.3451 22.7135 26.4772 22.4702 26.505 22.205C26.5328 21.9398 26.4542 21.6744 26.2864 21.4672C26.1185 21.2599 25.8752 21.1279 25.61 21.1V21.09ZM19.44 21.09C19.44 20.8013 19.5256 20.519 19.6861 20.2789C19.8465 20.0388 20.0745 19.8517 20.3413 19.7412C20.6081 19.6307 20.9016 19.6017 21.1848 19.6581C21.468 19.7144 21.7282 19.8535 21.9324 20.0576C22.1366 20.2618 22.2756 20.522 22.3319 20.8052C22.3883 21.0884 22.3594 21.382 22.2489 21.6487C22.1384 21.9155 21.9512 22.1435 21.7111 22.304C21.471 22.4644 21.1888 22.55 20.9 22.55C20.5128 22.55 20.1414 22.3962 19.8676 22.1224C19.5938 21.8486 19.44 21.4772 19.44 21.09V21.09Z" fill="black"/>
</svg>
