<?xml version="1.0" encoding="UTF-8"?>
<svg width="24px" height="24px" viewBox="0 0 24 24" version="1.1" xmlns="http://www.w3.org/2000/svg" xmlns:xlink="http://www.w3.org/1999/xlink">
    <!-- Generator: Sketch 48.2 (47327) - http://www.bohemiancoding.com/sketch -->
    <title>network_alt</title>
    <desc>Created with Sketch.</desc>
    <defs></defs>
    <g id="Page-1" stroke="none" stroke-width="1" fill="none" fill-rule="evenodd" stroke-linecap="round" stroke-linejoin="round">
        <g id="network_alt" stroke="#000000" stroke-width="1.5">
            <path d="M21,12 C21,16.971 16.971,21 12,21 C7.029,21 3,16.971 3,12 C3,7.029 7.029,3 12,3 C16.971,3 21,7.029 21,12 Z" id="Stroke-1"></path>
            <path d="M7.6592,4.1147 C13.4572,6.2957 17.8152,11.6057 18.8082,17.8857" id="Stroke-3"></path>
            <path d="M5.3398,18.0513 C6.5998,11.7493 11.2428,6.6693 17.2958,4.7863" id="Stroke-5"></path>
            <path d="M6.3242,18.9819 C9.5322,15.3149 14.2462,12.9999 19.5002,12.9999 C19.9842,12.9999 20.4642,13.0199 20.9382,13.0579" id="Stroke-7"></path>
            <path d="M20.9766,12.6548 C19.8526,12.8818 18.6906,12.9998 17.4996,12.9998 C12.3016,12.9998 7.6326,10.7338 4.4276,7.1338" id="Stroke-9"></path>
            <path d="M9.9375,10.6621 C9.9375,11.3131 9.4105,11.8411 8.7585,11.8411 C8.1085,11.8411 7.5805,11.3131 7.5805,10.6621 C7.5805,10.0111 8.1085,9.4841 8.7585,9.4841 C9.4105,9.4841 9.9375,10.0111 9.9375,10.6621 Z" id="Stroke-11"></path>
            <path d="M13.8242,7.0361 C13.8242,7.6871 13.2972,8.2151 12.6452,8.2151 C11.9952,8.2151 11.4672,7.6871 11.4672,7.0361 C11.4672,6.3851 11.9952,5.8581 12.6452,5.8581 C13.2972,5.8581 13.8242,6.3851 13.8242,7.0361 Z" id="Stroke-13"></path>
            <path d="M18.5215,13.1318 C18.5215,13.7828 17.9945,14.3098 17.3425,14.3098 C16.6925,14.3098 16.1645,13.7828 16.1645,13.1318 C16.1645,12.4808 16.6925,11.9528 17.3425,11.9528 C17.9945,11.9528 18.5215,12.4808 18.5215,13.1318 Z" id="Stroke-15"></path>
        </g>
    </g>
</svg>