<svg width="32" height="32" viewBox="0 0 32 32" fill="none" xmlns="http://www.w3.org/2000/svg">
<path fill-rule="evenodd" clip-rule="evenodd" d="M6 6H19V15H6V6ZM8 8V13H17V8H8Z" fill="black"/>
<path d="M7 17C6.44772 17 6 17.4477 6 18C6 18.5523 6.44772 19 7 19H18C18.5523 19 19 18.5523 19 18C19 17.4477 18.5523 17 18 17H7Z" fill="black"/>
<path d="M6 22C6 21.4477 6.44772 21 7 21H11C11.5523 21 12 21.4477 12 22C12 22.5523 11.5523 23 11 23H7C6.44772 23 6 22.5523 6 22Z" fill="black"/>
<path d="M7 24C6.44772 24 6 24.4477 6 25C6 25.5523 6.44772 26 7 26H11C11.5523 26 12 25.5523 12 25C12 24.4477 11.5523 24 11 24H7Z" fill="black"/>
<path d="M13 22C13 21.4477 13.4477 21 14 21H18C18.5523 21 19 21.4477 19 22C19 22.5523 18.5523 23 18 23H14C13.4477 23 13 22.5523 13 22Z" fill="black"/>
<path d="M14 24C13.4477 24 13 24.4477 13 25C13 25.5523 13.4477 26 14 26H18C18.5523 26 19 25.5523 19 25C19 24.4477 18.5523 24 18 24H14Z" fill="black"/>
<path fill-rule="evenodd" clip-rule="evenodd" d="M23 2H2V26C2 28.2523 3.74772 30 6 30H26C28.2523 30 30 28.2523 30 26V10H23V2ZM21 4H4V26C4 27.1477 4.85228 28 6 28H21.5148C21.186 27.4158 21 26.7348 21 26V4ZM25 28C23.8523 28 23 27.1477 23 26V12H28V26C28 27.1477 27.1477 28 26 28H25Z" fill="black"/>
</svg>
