<svg width="32" height="32" viewBox="0 0 32 32" fill="none" xmlns="http://www.w3.org/2000/svg">
<path d="M28.81 8.78999C28.8112 8.64858 28.7724 8.5097 28.6981 8.38938C28.6238 8.26907 28.517 8.17221 28.39 8.10999L16.45 1.15999C16.3183 1.06744 16.1609 1.01848 16 1.01999C15.8421 1.01854 15.688 1.06759 15.56 1.15999C11.5867 3.45999 7.61665 5.75333 3.64999 8.03999C3.51238 8.09768 3.3951 8.1951 3.31316 8.31979C3.23122 8.44449 3.18833 8.59079 3.18999 8.73999V15.69C3.18999 17.9967 3.18999 20.3033 3.18999 22.61V22.69C3.18876 22.8314 3.22755 22.9703 3.30186 23.0906C3.37618 23.2109 3.48299 23.3078 3.60999 23.37L15.5 30.2C15.6493 30.3049 15.8275 30.3608 16.01 30.36C16.1953 30.3591 16.3762 30.3034 16.53 30.2L28.38 23.33C28.5062 23.2695 28.6126 23.1744 28.687 23.0558C28.7613 22.9372 28.8005 22.8 28.8 22.66V8.78999H28.81ZM15.81 19.52C15.8148 19.5498 15.8148 19.5802 15.81 19.61C15.81 19.9415 15.6783 20.2595 15.4439 20.4939C15.2095 20.7283 14.8915 20.86 14.56 20.86H14.38C14.0786 20.8652 13.78 20.8023 13.5064 20.6759C13.2328 20.5495 12.9913 20.3629 12.8 20.13L7.79999 14.13C7.73278 14.0629 7.67248 13.9892 7.61999 13.91V19.69C7.61999 20.0056 7.49461 20.3083 7.27145 20.5315C7.04828 20.7546 6.7456 20.88 6.42999 20.88C6.17032 20.8776 5.91832 20.7917 5.71123 20.635C5.50414 20.4783 5.35294 20.2592 5.27999 20.01V20.01C5.23907 19.8738 5.21884 19.7322 5.21999 19.59V19.59V11.69C5.22263 11.3416 5.36286 11.0085 5.61012 10.7631C5.85739 10.5177 6.19163 10.38 6.53999 10.38H6.73999C7.03889 10.405 7.32958 10.4906 7.59433 10.6316C7.85909 10.7726 8.09238 10.966 8.27999 11.2L13.28 17.2L13.47 17.42V11.63C13.4687 11.4742 13.4982 11.3197 13.5569 11.1754C13.6156 11.031 13.7023 10.8998 13.812 10.7891C13.9218 10.6785 14.0523 10.5907 14.1961 10.5308C14.3399 10.4708 14.4942 10.44 14.65 10.44C14.8042 10.4429 14.9566 10.4733 15.1 10.53V10.53C15.3061 10.6058 15.4848 10.7415 15.6132 10.9197C15.7415 11.0979 15.8135 11.3105 15.82 11.53V11.53C15.8249 11.5799 15.8249 11.6301 15.82 11.68C15.8257 11.7298 15.8257 11.7802 15.82 11.83V17.83C15.8 18.38 15.77 18.95 15.8 19.52H15.81ZM26.81 15.69C26.81 15.8213 26.7841 15.9514 26.7339 16.0727C26.6836 16.194 26.61 16.3042 26.5171 16.3971C26.4242 16.49 26.314 16.5636 26.1927 16.6139C26.0713 16.6641 25.9413 16.69 25.81 16.69H22.81V19.69C22.81 19.9552 22.7046 20.2096 22.5171 20.3971C22.3296 20.5846 22.0752 20.69 21.81 20.69C21.5448 20.69 21.2904 20.5846 21.1029 20.3971C20.9153 20.2096 20.81 19.9552 20.81 19.69V16.69H17.81C17.5448 16.69 17.2904 16.5846 17.1029 16.3971C16.9153 16.2096 16.81 15.9552 16.81 15.69C16.81 15.4248 16.9153 15.1704 17.1029 14.9829C17.2904 14.7953 17.5448 14.69 17.81 14.69H20.81V11.69C20.81 11.4248 20.9153 11.1704 21.1029 10.9829C21.2904 10.7953 21.5448 10.69 21.81 10.69C22.0752 10.69 22.3296 10.7953 22.5171 10.9829C22.7046 11.1704 22.81 11.4248 22.81 11.69V14.69H25.81C26.0752 14.69 26.3296 14.7953 26.5171 14.9829C26.7046 15.1704 26.81 15.4248 26.81 15.69V15.69Z" fill="black"/>
</svg>
