<svg width="32" height="32" viewBox="0 0 32 32" fill="none" xmlns="http://www.w3.org/2000/svg">
<path d="M3.18999 15.69V8.74999C3.18833 8.60079 3.23122 8.45449 3.31316 8.32979C3.3951 8.2051 3.51238 8.10768 3.64999 8.04999V8.04999C7.64999 5.76999 11.6233 3.47666 15.57 1.16999C15.694 1.07603 15.8445 1.02355 16 1.01999C16.1609 1.01848 16.3183 1.06744 16.45 1.15999V1.15999L28.39 8.06999C28.517 8.13221 28.6238 8.22907 28.6981 8.34938C28.7724 8.4697 28.8112 8.60858 28.81 8.74999V22.69C28.8105 22.83 28.7713 22.9672 28.697 23.0858C28.6226 23.2044 28.5162 23.2995 28.39 23.36V23.36L16.53 30.2C16.3811 30.2964 16.2074 30.3477 16.03 30.3477C15.8526 30.3477 15.6789 30.2964 15.53 30.2V30.2L3.64999 23.35C3.52603 23.2893 3.42122 23.1955 3.34712 23.0791C3.27301 22.9626 3.23248 22.828 3.22999 22.69V22.63C3.22999 20.33 3.22999 18.0233 3.22999 15.71L3.18999 15.69ZM20 18.18L19.74 17.87C17.38 15.05 15.03 12.26 12.68 9.43999C12.4178 9.10744 12.0897 8.83271 11.7163 8.63308C11.3428 8.43345 10.9321 8.31323 10.51 8.27999V8.27999H10.23C9.73669 8.27999 9.26359 8.47596 8.91477 8.82477C8.56595 9.17359 8.36999 9.64669 8.36999 10.14V10.21V21.26C8.37069 21.456 8.3976 21.6511 8.44999 21.84C8.56437 22.2245 8.81254 22.5553 9.14963 22.7727C9.48672 22.9902 9.89048 23.0798 10.2879 23.0254C10.6853 22.9711 11.0502 22.7763 11.3165 22.4764C11.5828 22.1764 11.7331 21.7911 11.74 21.39V13.13L12 13.44L19.11 21.95C19.3878 22.2674 19.7309 22.521 20.1157 22.6936C20.5006 22.8662 20.9182 22.9536 21.34 22.95H21.59C22.0594 22.95 22.5096 22.7635 22.8416 22.4316C23.1735 22.0996 23.36 21.6494 23.36 21.18C23.3649 21.1401 23.3649 21.0998 23.36 21.06C23.31 20.25 23.36 19.45 23.36 18.64V10.2C23.3655 10.1301 23.3655 10.0599 23.36 9.98999C23.365 9.92008 23.365 9.8499 23.36 9.77999V9.77999C23.3458 9.47637 23.2437 9.1834 23.0662 8.93666C22.8887 8.68992 22.6433 8.50001 22.36 8.38999V8.38999C22.1588 8.30018 21.9403 8.2558 21.72 8.25999C21.4957 8.25327 21.2723 8.29183 21.0632 8.37337C20.8541 8.45491 20.6636 8.57775 20.5031 8.73456C20.3425 8.89138 20.2152 9.07894 20.1288 9.28605C20.0423 9.49317 19.9985 9.71557 20 9.93999V18.15V18.18Z" fill="black"/>
</svg>
