<svg width="32" height="32" viewBox="0 0 32 32" fill="none" xmlns="http://www.w3.org/2000/svg">
<path fill-rule="evenodd" clip-rule="evenodd" d="M29.81 12.54C30.2879 14.6167 30.2906 16.7744 29.8179 18.8523C29.3452 20.9302 28.4093 22.8744 27.08 24.54V24.54C25.7516 26.2023 24.0656 27.5438 22.1473 28.4648C20.2291 29.3859 18.1279 29.8627 16 29.86V29.86C13.8705 29.8603 11.7683 29.3804 9.84993 28.4558C7.93157 27.5313 6.24644 26.1859 4.92 24.52V24.52C3.59074 22.8544 2.65482 20.9102 2.18211 18.8323C1.70939 16.7544 1.71209 14.5967 2.19 12.52V12.52C2.66619 10.4482 3.60176 8.50996 4.9276 6.84834C6.25344 5.18671 7.93567 3.8442 9.85 2.91998V2.91998C11.7689 1.99717 13.8708 1.51801 16 1.51801C18.1292 1.51801 20.2311 1.99717 22.15 2.91998V2.91998C24.0666 3.84624 25.7502 5.19184 27.0762 6.8571C28.4022 8.52237 29.3365 10.4646 29.81 12.54V12.54ZM16 6.07998C18.4076 6.07657 20.7282 6.97983 22.5 8.60998C22.2788 8.59318 22.0565 8.62287 21.8474 8.69713C21.6384 8.77138 21.4472 8.88857 21.2861 9.04115C21.1251 9.19373 20.9977 9.37833 20.9123 9.58307C20.8268 9.78782 20.7852 10.0082 20.79 10.23C20.72 12.54 23.55 13.03 22.02 17.67L20.76 21.51L17.33 11.39C17.33 11.24 17.33 11.15 17.53 11.15H18.53C18.5548 11.1475 18.5777 11.1359 18.5943 11.1174C18.611 11.0989 18.6201 11.0749 18.62 11.05V10.48C18.6214 10.4673 18.6201 10.4546 18.6162 10.4425C18.6124 10.4304 18.606 10.4192 18.5975 10.4098C18.589 10.4003 18.5785 10.3928 18.5669 10.3876C18.5553 10.3825 18.5427 10.3799 18.53 10.38C16.69 10.46 14.86 10.46 13.05 10.38C13.0235 10.38 12.998 10.3905 12.9793 10.4093C12.9605 10.428 12.95 10.4535 12.95 10.48V11.05C12.9523 11.0757 12.9635 11.0999 12.9818 11.1182C13.0001 11.1365 13.0242 11.1477 13.05 11.15H14.05C14.27 11.15 14.33 11.22 14.38 11.36L15.79 15.22L13.67 21.63L10.12 11.35C10.12 11.22 10.12 11.15 10.25 11.15H11.37C11.3948 11.1475 11.4177 11.1359 11.4343 11.1174C11.451 11.0989 11.4601 11.0749 11.46 11.05V10.48C11.4614 10.4673 11.4601 10.4546 11.4562 10.4425C11.4524 10.4304 11.446 10.4192 11.4375 10.4098C11.429 10.4003 11.4185 10.3928 11.4069 10.3876C11.3953 10.3825 11.3827 10.3799 11.37 10.38C10.2 10.44 9.03 10.45 7.93 10.47C8.80232 9.12328 9.99763 8.01617 11.4071 7.24943C12.8166 6.48268 14.3955 6.08067 16 6.07998V6.07998ZM24.45 11.08C25.6579 13.3145 25.9321 15.9363 25.2125 18.3724C24.4929 20.8084 22.8382 22.8605 20.61 24.08L23.61 15.59C24.1452 14.1421 24.4293 12.6135 24.45 11.07V11.08ZM19.22 24.75C17.2851 25.4298 15.1845 25.4788 13.22 24.89L16.22 16.4L19.22 24.75V24.75ZM11.89 24.38C9.60399 23.2991 7.83547 21.3616 6.96711 18.9867C6.09875 16.6118 6.20038 13.9905 7.25 11.69L11.89 24.36V24.38ZM16 4.68998C18.1756 4.68998 20.3023 5.33512 22.1113 6.54381C23.9202 7.75251 25.3301 9.47047 26.1627 11.4805C26.9952 13.4904 27.2131 15.7022 26.7886 17.836C26.3642 19.9698 25.3166 21.9298 23.7782 23.4682C22.2398 25.0065 20.2798 26.0542 18.146 26.4786C16.0122 26.9031 13.8005 26.6852 11.7905 25.8527C9.7805 25.0201 8.06253 23.6102 6.85383 21.8013C5.64514 19.9923 5 17.8656 5 15.69C5 12.7726 6.15893 9.97471 8.22183 7.91181C10.2847 5.84891 13.0826 4.68998 16 4.68998V4.68998Z" fill="black"/>
</svg>
