<svg width="32" height="32" viewBox="0 0 32 32" fill="none" xmlns="http://www.w3.org/2000/svg">
<path d="M7.5071 7.53211C12.2166 2.82263 19.7834 2.82263 24.4929 7.53211L25.5857 8.6249H22.4C21.8477 8.6249 21.4 9.07262 21.4 9.6249C21.4 10.1772 21.8477 10.6249 22.4 10.6249H27.986C27.9953 10.625 28.0047 10.625 28.014 10.6249H29V4.0249C29 3.47262 28.5523 3.0249 28 3.0249C27.4477 3.0249 27 3.47262 27 4.0249V7.21079L25.9071 6.11789C20.4166 0.627369 11.5834 0.627369 6.09289 6.11789C0.602367 11.6084 0.602367 20.4416 6.09289 25.9321C11.5834 31.4226 20.4166 31.4226 25.9071 25.9321C28.8121 23.0271 30.2139 19.1481 29.9985 15.2695C29.9678 14.7181 29.496 14.2959 28.9445 14.3265C28.3931 14.3572 27.9709 14.829 28.0015 15.3805C28.1861 18.7019 26.9879 22.0229 24.4929 24.5179C19.7834 29.2274 12.2166 29.2274 7.5071 24.5179C2.79763 19.8084 2.79763 12.2416 7.5071 7.53211Z" fill="black"/>
<path d="M19.2747 10.0634C19.8058 10.2151 20.1132 10.7686 19.9615 11.2996L18.3257 17.0249H20V16.0249C20 15.4726 20.4477 15.0249 21 15.0249C21.5523 15.0249 22 15.4726 22 16.0249V17.0249H23C23.5523 17.0249 24 17.4726 24 18.0249C24 18.5772 23.5523 19.0249 23 19.0249H22V21.0249C22 21.5772 21.5523 22.0249 21 22.0249C20.4477 22.0249 20 21.5772 20 21.0249V19.0249H15.6743L18.0385 10.7502C18.1902 10.2192 18.7437 9.91167 19.2747 10.0634Z" fill="black"/>
<path d="M10 14.0249C10 12.7802 10.8306 12.0249 11.5 12.0249C12.1694 12.0249 13 12.7802 13 14.0249C13 14.487 12.8088 14.9773 12.4083 15.5312C12.005 16.0891 11.4476 16.633 10.827 17.1978C10.6991 17.3141 10.5667 17.433 10.4324 17.5534C9.94939 17.9867 9.44284 18.4411 9.04438 18.8754C8.56256 19.4006 8 20.1381 8 21.0249V22.0249H14C14.5523 22.0249 15 21.5772 15 21.0249C15 20.4726 14.5523 20.0249 14 20.0249H10.7112C10.9996 19.7325 11.3378 19.4289 11.717 19.0884C11.8631 18.9572 12.0153 18.8206 12.173 18.677C12.8024 18.1043 13.495 17.4419 14.0292 16.7029C14.5662 15.96 15 15.0628 15 14.0249C15 12.0696 13.6306 10.0249 11.5 10.0249C9.36945 10.0249 8 12.0696 8 14.0249C8 14.5772 8.44772 15.0249 9 15.0249C9.55228 15.0249 10 14.5772 10 14.0249Z" fill="black"/>
</svg>
