<svg width="32" height="32" viewBox="0 0 32 32" fill="none" xmlns="http://www.w3.org/2000/svg">
<path fill-rule="evenodd" clip-rule="evenodd" d="M16 2C16.4138 2 16.7848 2.25483 16.9333 2.64102L26.9333 28.641C27.0815 29.0263 26.9778 29.4629 26.6722 29.7404C26.3666 30.0178 25.9219 30.079 25.5528 29.8944L16 25.118L6.44721 29.8944C6.07804 30.079 5.63339 30.0178 5.32781 29.7404C5.02222 29.4629 4.91848 29.0263 5.06665 28.641L15.0666 2.64102C15.2152 2.25483 15.5862 2 16 2ZM7.8589 26.9525L15.5528 23.1056C15.8343 22.9648 16.1657 22.9648 16.4472 23.1056L24.1411 26.9525L16 5.78568L7.8589 26.9525Z" fill="black"/>
</svg>
