<svg width="32" height="32" viewBox="0 0 32 32" fill="none" xmlns="http://www.w3.org/2000/svg">
<path d="M17 6C17 6.55228 16.5523 7 16 7C15.4477 7 15 6.55228 15 6C15 5.44772 15.4477 5 16 5C16.5523 5 17 5.44772 17 6Z" fill="black"/>
<path d="M8 20C7.44772 20 7 20.4477 7 21C7 21.5523 7.44772 22 8 22H24C24.5523 22 25 21.5523 25 21C25 20.4477 24.5523 20 24 20H8Z" fill="black"/>
<path d="M13 25C13 24.4477 13.4477 24 14 24H18C18.5523 24 19 24.4477 19 25C19 25.5523 18.5523 26 18 26H14C13.4477 26 13 25.5523 13 25Z" fill="black"/>
<path fill-rule="evenodd" clip-rule="evenodd" d="M4 6C4 3.74772 5.74772 2 8 2H24C26.2523 2 28 3.74772 28 6V16.8902L29.7688 24.8498C30.5245 27.4508 28.6858 30 26 30H6C3.36139 30 1.35942 27.4938 2.13295 24.8438L4 16.8843V6ZM8 4C6.85229 4 6 4.85228 6 6V16H26V6C26 4.85228 25.1477 4 24 4H8ZM5.79257 18H26.1978L27.8317 25.3525L27.8422 25.3873C28.258 26.7735 27.3014 28 26 28H6C4.64896 28 3.65628 26.7258 4.05783 25.3873L4.0666 25.3581L5.79257 18Z" fill="black"/>
</svg>
