<svg width="32" height="32" viewBox="0 0 32 32" fill="none" xmlns="http://www.w3.org/2000/svg">
<path d="M14.5 19C15.3284 19 16 18.3284 16 17.5C16 16.6716 15.3284 16 14.5 16C13.6716 16 13 16.6716 13 17.5C13 18.3284 13.6716 19 14.5 19Z" fill="black"/>
<path d="M16 12.5C16 13.3284 15.3284 14 14.5 14C13.6716 14 13 13.3284 13 12.5C13 11.6716 13.6716 11 14.5 11C15.3284 11 16 11.6716 16 12.5Z" fill="black"/>
<path d="M14.5 9C15.3284 9 16 8.32843 16 7.5C16 6.67157 15.3284 6 14.5 6C13.6716 6 13 6.67157 13 7.5C13 8.32843 13.6716 9 14.5 9Z" fill="black"/>
<path d="M10 17.5C10 18.3284 9.32843 19 8.5 19C7.67157 19 7 18.3284 7 17.5C7 16.6716 7.67157 16 8.5 16C9.32843 16 10 16.6716 10 17.5Z" fill="black"/>
<path d="M8.5 14C9.32843 14 10 13.3284 10 12.5C10 11.6716 9.32843 11 8.5 11C7.67157 11 7 11.6716 7 12.5C7 13.3284 7.67157 14 8.5 14Z" fill="black"/>
<path d="M10 7.5C10 8.32843 9.32843 9 8.5 9C7.67157 9 7 8.32843 7 7.5C7 6.67157 7.67157 6 8.5 6C9.32843 6 10 6.67157 10 7.5Z" fill="black"/>
<path d="M26 24.5C26 25.3284 25.3284 26 24.5 26C23.6716 26 23 25.3284 23 24.5C23 23.6716 23.6716 23 24.5 23C25.3284 23 26 23.6716 26 24.5Z" fill="black"/>
<path d="M24.5 21C25.3284 21 26 20.3284 26 19.5C26 18.6716 25.3284 18 24.5 18C23.6716 18 23 18.6716 23 19.5C23 20.3284 23.6716 21 24.5 21Z" fill="black"/>
<path d="M26 14.5C26 15.3284 25.3284 16 24.5 16C23.6716 16 23 15.3284 23 14.5C23 13.6716 23.6716 13 24.5 13C25.3284 13 26 13.6716 26 14.5Z" fill="black"/>
<path fill-rule="evenodd" clip-rule="evenodd" d="M21 2H2V26C2 28.2523 3.74772 30 6 30H26C28.2523 30 30 28.2523 30 26V9H21V2ZM14 28H9V23H14V28ZM16 21V28H19V4H4V26C4 27.1477 4.85228 28 6 28H7V21H16ZM21 11V28H26C27.1477 28 28 27.1477 28 26V11H21Z" fill="black"/>
</svg>
