<svg width="32" height="32" viewBox="0 0 32 32" fill="none" xmlns="http://www.w3.org/2000/svg">
<path d="M22.7071 12.7071C23.0976 12.3166 23.0976 11.6834 22.7071 11.2929C22.3166 10.9024 21.6834 10.9024 21.2929 11.2929L13 19.5858L9.70711 16.2929C9.31658 15.9024 8.68342 15.9024 8.29289 16.2929C7.90237 16.6834 7.90237 17.3166 8.29289 17.7071L13 22.4142L22.7071 12.7071Z" fill="black"/>
<path fill-rule="evenodd" clip-rule="evenodd" d="M16 2C8.26801 2 2 8.26801 2 16C2 23.732 8.26801 30 16 30C23.732 30 30 23.732 30 16C30 8.26801 23.732 2 16 2ZM4 16C4 9.37258 9.37258 4 16 4C22.6274 4 28 9.37258 28 16C28 22.6274 22.6274 28 16 28C9.37258 28 4 22.6274 4 16Z" fill="black"/>
</svg>
