<svg width="32" height="32" viewBox="0 0 32 32" fill="none" xmlns="http://www.w3.org/2000/svg">
<path d="M24.7103 11.7039C25.0991 11.3116 25.0962 10.6784 24.7039 10.2897C24.3116 9.90093 23.6784 9.90383 23.2897 10.2961L13.1037 20.5756L8.71394 16.0998C8.32722 15.7055 7.69409 15.6993 7.29979 16.0861C6.90549 16.4728 6.89935 17.1059 7.28606 17.5002L13.0963 23.4244L24.7103 11.7039Z" fill="black"/>
<path fill-rule="evenodd" clip-rule="evenodd" d="M6 2C3.74772 2 2 3.74772 2 6V26C2 28.2523 3.74772 30 6 30H26C28.2523 30 30 28.2523 30 26V6C30 3.74772 28.2523 2 26 2H6ZM4 6C4 4.85228 4.85228 4 6 4H26C27.1477 4 28 4.85228 28 6V26C28 27.1477 27.1477 28 26 28H6C4.85228 28 4 27.1477 4 26V6Z" fill="black"/>
</svg>
