<svg width="32" height="32" viewBox="0 0 32 32" fill="none" xmlns="http://www.w3.org/2000/svg">
<path d="M15.97 15.67C19.8305 15.67 22.96 12.5405 22.96 8.68C22.96 4.81953 19.8305 1.69 15.97 1.69C12.1095 1.69 8.98 4.81953 8.98 8.68C8.98 12.5405 12.1095 15.67 15.97 15.67Z" fill="black"/>
<path d="M27.33 16.89L22 14.27C21.8231 14.1916 21.6235 14.1809 21.4391 14.2399C21.2548 14.2988 21.0985 14.4234 21 14.59C19.6511 16.8643 17.9653 18.921 16 20.69C14.0352 18.9319 12.3493 16.8852 11 14.62C10.9031 14.4518 10.7468 14.3257 10.5619 14.2666C10.377 14.2074 10.1766 14.2193 10 14.3L4.71 16.9C4.53182 17.0029 4.40078 17.1711 4.34476 17.3691C4.28873 17.5671 4.31214 17.7791 4.41 17.96C7.08829 22.6329 10.8464 26.5967 15.37 29.52C15.5479 29.633 15.7543 29.693 15.965 29.693C16.1757 29.693 16.3821 29.633 16.56 29.52C21.1265 26.6094 24.9238 22.6405 27.63 17.95C27.7279 17.7691 27.7513 17.5571 27.6952 17.3591C27.6392 17.1611 27.5082 16.9929 27.33 16.89V16.89Z" fill="black"/>
</svg>
