<svg width="32" height="32" viewBox="0 0 32 32" fill="none" xmlns="http://www.w3.org/2000/svg">
<path d="M27.09 17.26C27.092 19.8079 26.3383 22.2991 24.9242 24.4185C23.5101 26.5379 21.4992 28.1903 19.1459 29.1667C16.7926 30.1431 14.2025 30.3996 11.7034 29.9037C9.20424 29.4079 6.90831 28.182 5.10601 26.3811C3.30371 24.5802 2.07601 22.2852 1.57822 19.7865C1.08043 17.2877 1.33492 14.6975 2.30948 12.3434C3.28404 9.98927 4.9349 7.97709 7.05322 6.56138C9.17154 5.14566 11.6622 4.39001 14.21 4.39001C17.626 4.39001 20.9021 5.74701 23.3175 8.16248C25.733 10.5779 27.09 13.854 27.09 17.27V17.26ZM14.21 10.11C12.7959 10.11 11.4135 10.5294 10.2377 11.315C9.06186 12.1007 8.14543 13.2173 7.60426 14.5238C7.06309 15.8303 6.9215 17.2679 7.19739 18.6549C7.47327 20.0419 8.15424 21.3159 9.15419 22.3158C10.1541 23.3158 11.4281 23.9967 12.8151 24.2726C14.2021 24.5485 15.6397 24.4069 16.9462 23.8657C18.2527 23.3246 19.3694 22.4081 20.155 21.2323C20.9407 20.0565 21.36 18.6741 21.36 17.26C21.36 15.3637 20.6067 13.5451 19.2658 12.2042C17.9249 10.8633 16.1063 10.11 14.21 10.11V10.11ZM27.27 1.23001C26.6 1.23199 25.9455 1.43249 25.3893 1.80618C24.8332 2.17988 24.4002 2.71002 24.1452 3.32963C23.8901 3.94924 23.8244 4.63054 23.9564 5.28748C24.0883 5.94441 24.4119 6.54752 24.8864 7.02062C25.3609 7.49372 25.965 7.81559 26.6223 7.94559C27.2796 8.07558 27.9607 8.00787 28.5796 7.75099C29.1985 7.49412 29.7273 7.05961 30.0994 6.50235C30.4714 5.94509 30.67 5.29006 30.67 4.62001V4.62001C30.67 3.72093 30.3128 2.85867 29.6771 2.22292C29.0413 1.58717 28.1791 1.23001 27.28 1.23001H27.27Z" fill="black"/>
</svg>
