<svg width="32" height="32" viewBox="0 0 32 32" fill="none" xmlns="http://www.w3.org/2000/svg">
<path fill-rule="evenodd" clip-rule="evenodd" d="M26 6C26 3.74772 24.2523 2 22 2H6C3.74772 2 2 3.74772 2 6V8C2 10.2523 3.74772 12 6 12H22C24.2523 12 26 10.2523 26 8H27C27.5477 8 28 8.45228 28 9V14C28 14.5477 27.5477 15 27 15H17C14.7477 15 13 16.7477 13 19V29C13 29.5523 13.4477 30 14 30C14.5523 30 15 29.5523 15 29V19C15 17.8523 15.8523 17 17 17H27C28.6523 17 30 15.6523 30 14V9C30 7.34772 28.6523 6 27 6H26ZM4 6C4 4.85228 4.85228 4 6 4H22C23.1477 4 24 4.85228 24 6V8C24 9.14772 23.1477 10 22 10H6C4.85228 10 4 9.14772 4 8V6Z" fill="black"/>
</svg>
