<svg width="32" height="32" viewBox="0 0 32 32" fill="none" xmlns="http://www.w3.org/2000/svg">
<path fill-rule="evenodd" clip-rule="evenodd" d="M8.99561 20.9956C8.99561 18.7865 10.7865 16.9956 12.9956 16.9956C15.2047 16.9956 16.9956 18.7865 16.9956 20.9956C16.9956 23.2047 15.2047 24.9956 12.9956 24.9956C10.7865 24.9956 8.99561 23.2047 8.99561 20.9956ZM12.9956 18.9956C11.891 18.9956 10.9956 19.891 10.9956 20.9956C10.9956 22.1002 11.891 22.9956 12.9956 22.9956C14.1002 22.9956 14.9956 22.1002 14.9956 20.9956C14.9956 19.891 14.1002 18.9956 12.9956 18.9956Z" fill="black"/>
<path d="M17.4956 7.99561C17.4956 8.82403 16.824 9.49561 15.9956 9.49561C15.1672 9.49561 14.4956 8.82403 14.4956 7.99561C14.4956 7.16718 15.1672 6.49561 15.9956 6.49561C16.824 6.49561 17.4956 7.16718 17.4956 7.99561Z" fill="black"/>
<path d="M9.99561 12.4956C10.824 12.4956 11.4956 11.824 11.4956 10.9956C11.4956 10.1672 10.824 9.49561 9.99561 9.49561C9.16718 9.49561 8.49561 10.1672 8.49561 10.9956C8.49561 11.824 9.16718 12.4956 9.99561 12.4956Z" fill="black"/>
<path d="M23.4956 10.9956C23.4956 11.824 22.824 12.4956 21.9956 12.4956C21.1672 12.4956 20.4956 11.824 20.4956 10.9956C20.4956 10.1672 21.1672 9.49561 21.9956 9.49561C22.824 9.49561 23.4956 10.1672 23.4956 10.9956Z" fill="black"/>
<path fill-rule="evenodd" clip-rule="evenodd" d="M17.6062 2.10171C23.8559 2.75192 29.0163 7.79728 29.7848 14.0462C29.9997 15.246 29.9968 16.3332 29.8906 17.3951L29.889 17.4115L29.8868 17.4278C29.6247 19.3935 27.9276 20.9956 25.8956 20.9956H22.9956C21.8479 20.9956 20.9956 21.8479 20.9956 22.9956V25.9956C20.9956 28.1478 19.3723 29.7276 17.4278 29.9868L17.4115 29.989L17.3951 29.9906C16.3405 30.0961 15.2957 30.0005 14.2776 29.9073L14.082 29.8894L14.059 29.8862C7.79696 29.0225 2.85579 23.8544 2.10281 17.6154L2.10262 17.6138C1.02641 8.57363 8.56684 1.03035 17.6062 2.10171ZM4.0885 17.3766C4.73495 22.7297 8.98258 27.1563 14.3098 27.9019L14.3876 27.909C15.4606 28.0067 16.3255 28.0854 17.1789 28.0023C18.2264 27.8556 18.9956 27.0383 18.9956 25.9956V22.9956C18.9956 20.7433 20.7433 18.9956 22.9956 18.9956H25.8956C26.859 18.9956 27.7578 18.2054 27.9023 17.1784C27.9935 16.2553 27.9903 15.3567 27.8117 14.3745L27.8064 14.3451L27.8028 14.3154C27.1589 8.98058 22.7297 4.6424 17.3927 4.0903L17.385 4.08951L17.3774 4.08859C9.62039 3.16514 3.16555 9.61969 4.0885 17.3766Z" fill="black"/>
</svg>
