<svg width="32" height="32" viewBox="0 0 32 32" fill="none" xmlns="http://www.w3.org/2000/svg">
<path fill-rule="evenodd" clip-rule="evenodd" d="M29.8944 3.13718C30.0869 2.75219 30.0115 2.28722 29.7071 1.98286C29.4027 1.6785 28.9378 1.60305 28.5528 1.79554L2.55279 14.7955C2.18609 14.9789 1.96845 15.3675 2.0037 15.776C2.03896 16.1844 2.31996 16.53 2.71265 16.6478L12.1969 19.4931L15.0422 28.9773C15.16 29.37 15.5055 29.651 15.914 29.6863C16.3225 29.7215 16.7111 29.5039 16.8944 29.1372L29.8944 3.13718ZM12.7153 17.5605L5.70258 15.4567L23.9356 6.3402L12.7153 17.5605ZM14.1295 18.9748L16.2333 25.9874L25.3497 7.75456L14.1295 18.9748Z" fill="black"/>
</svg>
