<svg width="32" height="32" viewBox="0 0 32 32" fill="none" xmlns="http://www.w3.org/2000/svg">
<path d="M1.33 11.59C5.04112 8.92264 9.27888 7.0782 13.76 6.18001H13.96C15.9471 5.76574 17.9702 5.54802 20 5.53001V5.53001L17.87 7.53001H18.67C20.6897 7.37531 22.6952 7.07114 24.67 6.62001H24.4C26.055 6.35491 27.6417 5.7671 29.07 4.89001H29.02C29.38 4.63001 29.69 4.32001 30.02 4.01001C29.9999 4.15384 29.963 4.29481 29.91 4.43001C29.34 6.28477 28.3077 7.96408 26.91 9.31001V9.31001C25.9088 10.2095 24.8004 10.982 23.61 11.61H23.53C21.3285 12.8008 19.0137 13.7689 16.62 14.5L16.34 14.57C14.72 15.08 13.06 15.48 11.42 15.91H11.4C11.3015 15.9071 11.2066 15.872 11.13 15.81V15.81C9.88436 14.6896 8.47046 13.7717 6.94 13.09H6.84C5.1248 12.3122 3.28745 11.8385 1.41 11.69H1.34L1.33 11.59ZM13.26 18.11C12.9523 17.6766 12.6184 17.2625 12.26 16.87C17.2567 15.3416 22.4548 14.5731 27.68 14.59C28.68 14.59 29.68 14.59 30.68 14.67H30.54C30.38 14.6545 30.2191 14.6895 30.08 14.77C28.82 15.18 27.52 15.54 26.28 16.02C22.6869 17.4709 19.2015 19.1751 15.85 21.12L16.26 20.9C16.05 21.01 15.83 21.1 15.63 21.22C15.43 21.34 15.31 21.33 15.15 21.1C14.55 20.1 13.92 19.1 13.27 18.15L13.26 18.11ZM17.18 27.34H17.09C16.9193 25.7236 16.5151 24.1404 15.89 22.64V22.75L25.5 18.69C25.501 18.7078 25.5072 18.7249 25.5179 18.7391C25.5285 18.7534 25.5432 18.7641 25.56 18.77C22.78 21.59 20 24.46 17.18 27.34V27.34Z" fill="black"/>
</svg>
