<svg width="32" height="32" viewBox="0 0 32 32" fill="none" xmlns="http://www.w3.org/2000/svg">
<path fill-rule="evenodd" clip-rule="evenodd" d="M16.0087 2L21.651 3.96706C21.9807 3.91702 22.31 4.03651 22.5317 4.27408L27.2129 5.90604C27.6297 6.03633 28.0093 6.22329 28.3451 6.45683C28.7411 6.47483 29.1051 6.72895 29.244 7.12607C29.276 7.21773 29.2939 7.31089 29.2989 7.4032C29.7491 8.04311 30 8.81962 30 9.656V22.656C30 24.3172 28.7946 25.8786 27.2162 26.4047L27.2136 26.4055L16.3296 30.0003C16.3191 30.0039 16.3086 30.0074 16.298 30.0107L15.9957 30.1106L15.6943 30.0083C15.6836 30.0048 15.6731 30.0013 15.6626 29.9975L4.79125 26.3072C3.08524 25.7758 2 24.2954 2 22.556V9.556C2 8.70061 2.26012 7.91859 2.71764 7.26833C2.7268 7.22073 2.73954 7.1732 2.75602 7.12607C2.86779 6.80636 3.12551 6.57934 3.42838 6.49359C3.80707 6.17318 4.24941 5.91173 4.74102 5.72265L4.76351 5.714L16.0087 2ZM17 27.6726L26.5838 24.5073L26.5851 24.5069C27.4061 24.2325 28 23.3944 28 22.656V9.656C28 9.30928 27.9165 8.98548 27.7583 8.70482L17 12.4658V27.6726ZM15 12.4658V27.6605L5.40782 24.4044L5.39409 24.4002C4.50854 24.1277 4 23.4116 4 22.556V9.556C4 9.25028 4.06611 8.95651 4.19555 8.68867L8.3 10.1236V15.0561C8.3 15.6084 8.74772 16.0561 9.3 16.0561C9.85229 16.0561 10.3 15.6084 10.3 15.0561V10.8227L15 12.4658ZM15.9913 4.112L18.6013 5.02189L9.21659 8.3253L6.31047 7.30934L15.9913 4.112ZM21.6276 6.07693L12.2387 9.38181L16 10.6967L25.4264 7.40131L21.6276 6.07693Z" fill="black"/>
</svg>
