<svg width="32" height="32" viewBox="0 0 32 32" fill="none" xmlns="http://www.w3.org/2000/svg">
<path d="M16 12.6418L16.6967 13.3385C16.7037 13.3453 16.7106 13.3522 16.7174 13.3593L20.7071 17.349C21.0976 17.7395 21.0976 18.3726 20.7071 18.7632C20.3166 19.1537 19.6834 19.1537 19.2929 18.7632L17 16.4703V22.0559C17 22.6082 16.5523 23.0559 16 23.0559C15.4477 23.0559 15 22.6082 15 22.0559V16.4703L12.7071 18.7632C12.3166 19.1537 11.6834 19.1537 11.2929 18.7632C10.9024 18.3726 10.9024 17.7395 11.2929 17.349L15.2826 13.3593C15.2894 13.3522 15.2963 13.3453 15.3033 13.3385L16 12.6418Z" fill="black"/>
<path fill-rule="evenodd" clip-rule="evenodd" d="M27.2129 5.90604L22.5317 4.27408C22.31 4.03651 21.9807 3.91702 21.651 3.96706L16.0087 2L4.76351 5.714L4.74102 5.72265C4.24941 5.91173 3.80707 6.17318 3.42838 6.49359C3.12595 6.57922 2.86848 6.80572 2.75645 7.12484C2.73976 7.17237 2.72688 7.22031 2.71764 7.26833C2.26012 7.91859 2 8.70061 2 9.556V22.556C2 24.2954 3.08524 25.7758 4.79125 26.3072L15.6602 29.9967C15.6722 30.001 15.6844 30.0052 15.6967 30.0091L15.9957 30.1106L16.2955 30.0115C16.3078 30.0077 16.32 30.0037 16.3321 29.9995L27.2136 26.4055L27.2162 26.4047C28.7946 25.8786 30 24.3172 30 22.656V9.656C30 8.81961 29.7491 8.0431 29.2988 7.40319C29.2939 7.31046 29.2759 7.21688 29.2435 7.12484C29.1043 6.72833 28.7406 6.47482 28.3451 6.45684C28.0093 6.22329 27.6297 6.03633 27.2129 5.90604ZM17 27.6726L26.5838 24.5073L26.5851 24.5069C27.4061 24.2325 28 23.3944 28 22.656V9.656C28 9.30972 27.9167 8.9863 27.7589 8.70589L19.2312 11.6996C18.7101 11.8826 18.1394 11.6084 17.9564 11.0873C17.7735 10.5662 18.0476 9.99548 18.5687 9.81254L25.4318 7.40317L21.6276 6.07693L12.2215 9.38785L13.4312 9.81254C13.9523 9.99548 14.2265 10.5662 14.0435 11.0873C13.8606 11.6084 13.2899 11.8826 12.7688 11.6996L10.3 10.8329V13.0561C10.3 13.6084 9.85229 14.0561 9.3 14.0561C8.74772 14.0561 8.3 13.6084 8.3 13.0561V10.1308L4.19505 8.68971C4.06594 8.95726 4 9.25068 4 9.556V22.556C4 23.4116 4.50854 24.1277 5.39409 24.4002L5.40782 24.4044L15 27.6605V26.0559C15 25.5036 15.4477 25.0559 16 25.0559C16.5523 25.0559 17 25.5036 17 26.0559V27.6726ZM15.9913 4.112L18.6013 5.02189L9.20574 8.32912L6.30555 7.31097L15.9913 4.112Z" fill="black"/>
</svg>
