<svg width="32" height="32" viewBox="0 0 32 32" fill="none" xmlns="http://www.w3.org/2000/svg">
<path fill-rule="evenodd" clip-rule="evenodd" d="M3.70711 2.29289C3.31658 1.90237 2.68342 1.90237 2.29289 2.29289C1.90237 2.68342 1.90237 3.31658 2.29289 3.70711L3.54892 4.96314C3.17177 5.587 3 6.31261 3 7.00017V25.0002C3 27.2525 4.74772 29.0002 7 29.0002H25C25.6876 29.0002 26.4132 28.8284 27.037 28.4513L28.2929 29.7071C28.6834 30.0976 29.3166 30.0976 29.7071 29.7071C30.0976 29.3166 30.0976 28.6834 29.7071 28.2929L18.424 17.0097C18.4132 16.9984 18.4022 16.9874 18.3909 16.9767L3.70711 2.29289ZM10 11.4142L5.06361 6.47782C5.02244 6.6402 5 6.81581 5 7.00017V25.0002C5 26.1479 5.85228 27.0002 7 27.0002H25C25.1844 27.0002 25.36 26.9777 25.5223 26.9366L17.4207 18.8349C16.9584 18.9475 16.4727 19 16 19H12V24C12 24.5523 11.5523 25 11 25C10.4477 25 10 24.5523 10 24V11.4142ZM12 13.4142V17H15.5858L12 13.4142Z" fill="black"/>
<path d="M9 3C8.44772 3 8 3.44772 8 4C8 4.55228 8.44772 5 9 5H25C26.1477 5 27 5.85228 27 7V23C27 23.5523 27.4477 24 28 24C28.5523 24 29 23.5523 29 23V7C29 4.74772 27.2523 3 25 3H9Z" fill="black"/>
<path d="M12 8C12 7.44772 12.4477 7 13 7H16C19.3523 7 22 9.64772 22 13C22 14.0533 21.7643 15.028 21.2682 15.8961C20.9942 16.3757 20.3834 16.5423 19.9039 16.2682C19.4243 15.9942 19.2577 15.3834 19.5318 14.9039C19.8357 14.372 20 13.7467 20 13C20 10.7523 18.2477 9 16 9H13C12.4477 9 12 8.55228 12 8Z" fill="black"/>
</svg>
