<svg width="32" height="32" viewBox="0 0 32 32" fill="none" xmlns="http://www.w3.org/2000/svg">
<path fill-rule="evenodd" clip-rule="evenodd" d="M16 7H10V24C10 24.5523 10.4477 25 11 25C11.5523 25 12 24.5523 12 24V19H16C19.3523 19 22 16.3523 22 13C22 9.64772 19.3523 7 16 7ZM16 17H12V9H16C18.2477 9 20 10.7523 20 13C20 15.2477 18.2477 17 16 17Z" fill="black"/>
<path fill-rule="evenodd" clip-rule="evenodd" d="M7 3C4.74772 3 3 4.74772 3 7V25C3 27.2523 4.74772 29 7 29H25C27.2523 29 29 27.2523 29 25V7C29 4.74772 27.2523 3 25 3H7ZM5 7C5 5.85228 5.85228 5 7 5H25C26.1477 5 27 5.85228 27 7V25C27 26.1477 26.1477 27 25 27H7C5.85228 27 5 26.1477 5 25V7Z" fill="black"/>
</svg>
