<svg width="32" height="32" viewBox="0 0 32 32" fill="none" xmlns="http://www.w3.org/2000/svg">
<path d="M16 13.11C15.4873 13.0981 14.9828 13.2392 14.5507 13.5153C14.1186 13.7915 13.7786 14.1901 13.574 14.6604C13.3695 15.1306 13.3098 15.6512 13.4025 16.1555C13.4952 16.6599 13.736 17.1252 14.0943 17.492C14.4526 17.8589 14.9122 18.1106 15.4142 18.2152C15.9162 18.3197 16.438 18.2722 16.913 18.0788C17.3879 17.8854 17.7944 17.5549 18.0807 17.1294C18.3669 16.7039 18.5199 16.2028 18.52 15.69C18.5176 15.0168 18.2533 14.3709 17.7828 13.8893C17.3124 13.4077 16.673 13.1282 16 13.11V13.11ZM22.56 4.43C22.4206 4.36148 22.3024 4.25651 22.2179 4.12622C22.1334 3.99593 22.0857 3.84519 22.08 3.69C22.0809 3.54931 22.1188 3.41134 22.19 3.29C22.2627 3.16007 22.3685 3.05178 22.4968 2.97622C22.6251 2.90067 22.7711 2.86056 22.92 2.86C23.038 2.86027 23.1543 2.88764 23.26 2.94V2.94C23.3874 3.01471 23.4931 3.12132 23.5668 3.24932C23.6404 3.37733 23.6794 3.52232 23.68 3.67C23.6803 3.81849 23.6387 3.96406 23.56 4.09V4.09C23.4869 4.21661 23.382 4.32195 23.2558 4.39561C23.1295 4.46927 22.9862 4.5087 22.84 4.51C22.722 4.50973 22.6057 4.48236 22.5 4.43H22.55H22.56ZM19.13 4.2C19.0602 4.09129 19.0157 3.96824 19 3.84C18.9993 3.68203 19.0442 3.52722 19.1293 3.39417C19.2145 3.26112 19.3363 3.1555 19.48 3.09V3.09C19.5865 3.04109 19.7028 3.01715 19.82 3.02C19.9803 3.02028 20.1374 3.06537 20.2735 3.15019C20.4095 3.235 20.5192 3.35617 20.59 3.5V3.5C20.6354 3.6006 20.6593 3.70961 20.66 3.82C20.6591 3.98929 20.607 4.15434 20.5107 4.29353C20.4143 4.43272 20.2781 4.53954 20.12 4.6V4.6C20.0143 4.65236 19.898 4.67973 19.78 4.68V4.68C19.6305 4.66739 19.4869 4.61542 19.364 4.52935C19.241 4.44328 19.143 4.3262 19.08 4.19L19.13 4.2ZM16.51 6.13C16.3847 5.97752 16.3142 5.78733 16.31 5.59C16.3079 5.4685 16.3328 5.34805 16.383 5.23736C16.4331 5.12668 16.5073 5.02852 16.6 4.95V4.95C16.7512 4.82253 16.9422 4.75181 17.14 4.75C17.2605 4.75127 17.3793 4.77877 17.4881 4.83058C17.5969 4.88239 17.6931 4.95726 17.77 5.05V5.05C17.9099 5.19598 17.9917 5.38799 18 5.59C18.0001 5.71073 17.9732 5.82996 17.9213 5.93896C17.8694 6.04796 17.7938 6.14398 17.7 6.22V6.22C17.5488 6.34746 17.3578 6.41819 17.16 6.42V6.42C17.0402 6.42063 16.9217 6.39499 16.8128 6.34488C16.704 6.29478 16.6074 6.22143 16.53 6.13H16.51ZM23.43 6.49V6.41C23.4288 6.20461 23.5038 6.00607 23.6405 5.85276C23.7771 5.69945 23.9658 5.60227 24.17 5.58H24.26C24.4665 5.57853 24.6663 5.65317 24.8212 5.78968C24.9762 5.92618 25.0754 6.11497 25.1 6.32V6.32C25.1049 6.3498 25.1049 6.38019 25.1 6.41C25.103 6.61816 25.0257 6.81946 24.8842 6.97215C24.7427 7.12483 24.5478 7.21717 24.34 7.23H24.26C24.055 7.23176 23.8565 7.15852 23.7018 7.02406C23.5471 6.8896 23.4468 6.70321 23.42 6.5L23.43 6.49ZM14.33 8.49C14.2257 8.41032 14.1415 8.3073 14.0842 8.18921C14.0269 8.07112 13.9981 7.94125 14 7.81C13.9991 7.6099 14.0741 7.41691 14.21 7.27V7.27C14.2879 7.17986 14.3848 7.10803 14.4937 7.05963C14.6026 7.01123 14.7209 6.98745 14.84 6.99C15.0447 6.98707 15.2435 7.05808 15.4 7.19V7.19C15.4884 7.27154 15.5589 7.37051 15.6071 7.48066C15.6553 7.59082 15.6801 7.70976 15.68 7.83C15.6782 8.02779 15.6075 8.21875 15.48 8.37C15.4 8.4576 15.3027 8.5277 15.1943 8.57589C15.0859 8.62408 14.9686 8.64931 14.85 8.65C14.7506 8.65255 14.6516 8.6353 14.5589 8.59925C14.4662 8.5632 14.3816 8.50906 14.31 8.44V8.44L14.33 8.49ZM23.93 10.43C23.7367 10.3929 23.5622 10.2899 23.4364 10.1386C23.3105 9.9872 23.2411 9.79684 23.24 9.6C23.24 9.6 23.24 9.5 23.24 9.45C23.26 9.24136 23.3572 9.04772 23.5126 8.9071C23.668 8.76648 23.8704 8.68905 24.08 8.69C24.153 8.67961 24.227 8.67961 24.3 8.69C24.4915 8.72519 24.6646 8.82661 24.7889 8.97652C24.9132 9.12642 24.9809 9.31526 24.98 9.51C24.9937 9.569 25.0004 9.62942 25 9.69C24.9651 9.88251 24.864 10.0568 24.7143 10.1828C24.5646 10.3087 24.3756 10.3785 24.18 10.38H23.96L23.93 10.43ZM12.45 11.04C12.342 10.9624 12.254 10.8604 12.1931 10.7421C12.1323 10.6239 12.1004 10.493 12.1 10.36C12.102 10.1857 12.1541 10.0156 12.25 9.87V9.87C12.3276 9.76201 12.4296 9.67397 12.5479 9.61312C12.6661 9.55228 12.797 9.52036 12.93 9.52C13.1063 9.51927 13.2781 9.57538 13.42 9.68C13.5263 9.75919 13.6131 9.86163 13.6737 9.97948C13.7344 10.0973 13.7673 10.2275 13.77 10.36C13.768 10.5343 13.7159 10.7044 13.62 10.85V10.85C13.5447 10.961 13.4434 11.0519 13.3248 11.1147C13.2063 11.1775 13.0741 11.2102 12.94 11.21V11.21C12.7657 11.208 12.5956 11.1559 12.45 11.06V11.04ZM23.06 13.42C22.8939 13.3652 22.7493 13.2593 22.6469 13.1174C22.5445 12.9755 22.4896 12.8049 22.49 12.63C22.4921 12.5412 22.509 12.4533 22.54 12.37V12.37C22.5961 12.2047 22.7024 12.0609 22.8439 11.9588C22.9855 11.8566 23.1554 11.8011 23.33 11.8C23.4189 11.8011 23.507 11.818 23.59 11.85V11.85C23.7551 11.9052 23.8984 12.0115 23.9991 12.1535C24.0997 12.2955 24.1526 12.4659 24.15 12.64C24.1597 12.7264 24.1597 12.8136 24.15 12.9V12.9C24.0952 13.0661 23.9893 13.2107 23.8474 13.3131C23.7055 13.4155 23.535 13.4704 23.36 13.47H23.24C23.1838 13.4797 23.1263 13.4797 23.07 13.47L23.06 13.42ZM10.84 13.69C10.7109 13.619 10.603 13.5148 10.5274 13.3883C10.4518 13.2618 10.4113 13.1174 10.41 12.97C10.4112 12.8306 10.4455 12.6935 10.51 12.57V12.57C10.5831 12.4434 10.688 12.3381 10.8142 12.2644C10.9405 12.1907 11.0838 12.1513 11.23 12.15C11.378 12.1532 11.5227 12.1945 11.65 12.27V12.27C11.7772 12.3399 11.8833 12.4426 11.9572 12.5675C12.031 12.6924 12.07 12.8349 12.07 12.98C12.0672 13.1312 12.0259 13.2792 11.95 13.41V13.41C11.8802 13.5394 11.776 13.6471 11.649 13.7212C11.522 13.7953 11.377 13.8329 11.23 13.83H11.18C11.0511 13.831 10.924 13.8001 10.81 13.74V13.74L10.84 13.69ZM20.24 19.1C20.112 19.0285 20.0056 18.924 19.9317 18.7973C19.8578 18.6707 19.8193 18.5266 19.82 18.38C19.818 18.2313 19.8598 18.0852 19.94 17.96V17.96C20.0127 17.8301 20.1185 17.7218 20.2468 17.6462C20.3751 17.5707 20.5211 17.5306 20.67 17.53C20.817 17.531 20.9614 17.5688 21.09 17.64V17.64C21.2188 17.7131 21.3256 17.8194 21.3995 17.9478C21.4733 18.0761 21.5115 18.2219 21.51 18.37C21.5104 18.514 21.4725 18.6555 21.4 18.78V18.78C21.3253 18.9074 21.2187 19.0131 21.0907 19.0868C20.9627 19.1604 20.8177 19.1994 20.67 19.2H20.59C20.4728 19.2028 20.3565 19.1789 20.25 19.13V19.13L20.24 19.1ZM8.33 19.53C8.16575 19.4704 8.02386 19.3616 7.92365 19.2184C7.82345 19.0753 7.7698 18.9047 7.77 18.73C7.75563 18.6473 7.75563 18.5627 7.77 18.48V18.48C7.82738 18.3155 7.93394 18.1726 8.07524 18.0706C8.21655 17.9686 8.38577 17.9126 8.56 17.91C8.64895 17.9111 8.73699 17.928 8.82 17.96C8.98428 18.0165 9.12668 18.1231 9.22715 18.2649C9.32762 18.4066 9.38108 18.5763 9.38 18.75C9.39514 18.836 9.39514 18.924 9.38 19.01V19.01C9.32574 19.1745 9.22135 19.318 9.08148 19.4202C8.9416 19.5224 8.77324 19.5783 8.6 19.58H8.52H8.32L8.33 19.53ZM7.65 22.66C7.46056 22.618 7.2918 22.511 7.17305 22.3576C7.0543 22.2041 6.99307 22.0139 7 21.82C6.99638 21.7767 6.99638 21.7333 7 21.69V21.69C7.03488 21.5002 7.13484 21.3284 7.28267 21.2043C7.43051 21.0802 7.61698 21.0115 7.81 21.01H7.96C8.15703 21.0388 8.33714 21.1374 8.46748 21.288C8.59782 21.4385 8.66969 21.6309 8.67 21.83C8.67497 21.8765 8.67497 21.9235 8.67 21.97C8.63691 22.1634 8.5364 22.3388 8.38629 22.4651C8.23618 22.5914 8.04618 22.6604 7.85 22.66H7.65V22.66ZM16.43 24.23C16.337 24.1511 16.2621 24.0531 16.2103 23.9427C16.1586 23.8322 16.1312 23.712 16.13 23.59C16.1273 23.3557 16.2172 23.1297 16.38 22.9612C16.5429 22.7927 16.7657 22.6952 17 22.69C17.2058 22.6907 17.4045 22.7653 17.56 22.9V22.9C17.6464 22.9789 17.7158 23.0745 17.7639 23.1811C17.8121 23.2877 17.8379 23.403 17.84 23.52C17.8411 23.7261 17.7663 23.9254 17.63 24.08V24.08C17.554 24.1699 17.459 24.2417 17.3517 24.2902C17.2444 24.3386 17.1277 24.3625 17.01 24.36V24.36C16.8145 24.3621 16.6254 24.2907 16.48 24.16V24.16L16.43 24.23ZM6.8 25.1V25.01C6.80097 24.8079 6.87566 24.613 7.01006 24.4621C7.14446 24.3111 7.32934 24.2143 7.53 24.19H7.63C7.8343 24.189 8.03161 24.2643 8.18328 24.4012C8.33496 24.5381 8.43007 24.7267 8.45 24.93V24.93C8.4562 24.9597 8.4562 24.9903 8.45 25.02C8.44904 25.2221 8.37435 25.417 8.23994 25.5679C8.10554 25.7189 7.92066 25.8156 7.72 25.84H7.6C7.40134 25.8343 7.21134 25.7574 7.06454 25.6235C6.91773 25.4895 6.82386 25.3073 6.8 25.11V25.1ZM14.11 26.35C13.9825 26.1988 13.9118 26.0078 13.91 25.81C13.9113 25.6895 13.9388 25.5707 13.9906 25.4619C14.0424 25.3531 14.1173 25.2569 14.21 25.18C14.3589 25.0474 14.5506 24.9729 14.75 24.97C14.8707 24.9699 14.99 24.9968 15.099 25.0487C15.208 25.1006 15.304 25.1762 15.38 25.27V25.27C15.5237 25.4388 15.5949 25.6575 15.5781 25.8785C15.5612 26.0996 15.4577 26.305 15.29 26.45V26.45C15.1354 26.5715 14.9465 26.6415 14.75 26.65V26.65C14.6278 26.6502 14.5071 26.6234 14.3965 26.5715C14.2858 26.5197 14.188 26.444 14.11 26.35V26.35ZM11.34 27.88C11.2946 27.7724 11.2708 27.6568 11.27 27.54C11.2697 27.3795 11.317 27.2226 11.406 27.089C11.4951 26.9555 11.6217 26.8514 11.77 26.79V26.79C11.8661 26.7748 11.9639 26.7748 12.06 26.79C12.2169 26.7884 12.3709 26.8318 12.5039 26.9151C12.6368 26.9984 12.743 27.1181 12.81 27.26V27.26C12.8542 27.368 12.878 27.4833 12.88 27.6C12.8779 27.7625 12.8298 27.921 12.7413 28.0573C12.6529 28.1936 12.5276 28.302 12.38 28.37C12.2755 28.4144 12.1635 28.4382 12.05 28.44C11.8996 28.4306 11.7546 28.3798 11.6311 28.2934C11.5076 28.2069 11.4104 28.0881 11.35 27.95V27.95L11.34 27.88ZM8.64 28.42C8.50793 28.3499 8.39785 28.2445 8.32195 28.1157C8.24605 27.9869 8.20731 27.8395 8.21 27.69C8.21449 27.5422 8.25573 27.3979 8.33 27.27V27.27C8.39982 27.1406 8.50396 27.0329 8.63098 26.9588C8.758 26.8847 8.90298 26.8471 9.05 26.85C9.19716 26.8497 9.34188 26.8876 9.47 26.96V26.96C9.59993 27.0327 9.70822 27.1385 9.78378 27.2668C9.85933 27.3951 9.89944 27.5411 9.9 27.69C9.90044 27.834 9.86247 27.9755 9.79 28.1V28.1C9.71816 28.2306 9.61245 28.3395 9.484 28.4152C9.35555 28.4908 9.20908 28.5305 9.06 28.53V28.53C8.91588 28.5224 8.77551 28.4813 8.65 28.41L8.64 28.42ZM8.3 4.12C8.22079 3.99105 8.18244 3.84115 8.19 3.69C8.19033 3.53864 8.23254 3.39033 8.31197 3.26149C8.39139 3.13264 8.50493 3.02829 8.64 2.96V2.96C8.76834 2.87841 8.91796 2.83666 9.07 2.84C9.21408 2.84019 9.35574 2.87699 9.48169 2.94696C9.60763 3.01693 9.71373 3.11777 9.79 3.24V3.24C9.89883 3.43256 9.92731 3.66027 9.86927 3.8737C9.81123 4.08714 9.67135 4.26907 9.48 4.38C9.35554 4.45246 9.21402 4.49043 9.07 4.49H9C8.85588 4.491 8.7141 4.45354 8.5893 4.38146C8.46449 4.30939 8.36117 4.20532 8.29 4.08L8.3 4.12ZM11.77 4.59C11.6209 4.52401 11.4943 4.41608 11.4055 4.27935C11.3167 4.14263 11.2696 3.98302 11.27 3.82C11.2682 3.70291 11.2921 3.58684 11.34 3.48V3.48C11.407 3.33169 11.5152 3.20573 11.6517 3.1171C11.7882 3.02846 11.9473 2.98088 12.11 2.98C12.2265 2.98333 12.3416 3.00702 12.45 3.05C12.5938 3.1155 12.7155 3.22112 12.8007 3.35417C12.8858 3.48722 12.9307 3.64203 12.93 3.8C12.9339 3.9368 12.8992 4.07194 12.83 4.19V4.19C12.7664 4.33673 12.6618 4.46198 12.5288 4.55068C12.3957 4.63938 12.2399 4.68776 12.08 4.69C11.9748 4.66965 11.8735 4.63251 11.78 4.58L11.77 4.59ZM14.2 6.3C14.0346 6.15186 13.9322 5.9461 13.9136 5.72487C13.895 5.50363 13.9617 5.28366 14.1 5.11V5.11C14.178 5.01597 14.2758 4.94033 14.3865 4.88847C14.4971 4.83661 14.6178 4.80981 14.74 4.81C14.9373 4.81422 15.1275 4.88466 15.28 5.01C15.3727 5.08694 15.4476 5.18315 15.4994 5.29194C15.5512 5.40074 15.5787 5.51951 15.58 5.64C15.5809 5.8401 15.5059 6.03309 15.37 6.18V6.18C15.2955 6.27548 15.1998 6.3523 15.0904 6.40438C14.9811 6.45645 14.8611 6.48234 14.74 6.48V6.48C14.6311 6.47089 14.5253 6.43957 14.4289 6.38797C14.3326 6.33637 14.2479 6.2656 14.18 6.18V6.18L14.2 6.3ZM7.57 7.3C7.36488 7.28243 7.17387 7.18833 7.03492 7.03642C6.89597 6.8845 6.81925 6.68587 6.82 6.48V6.38C6.85336 6.18492 6.95534 6.00818 7.10753 5.88166C7.25972 5.75514 7.45211 5.68717 7.65 5.69H7.74C7.94513 5.7121 8.13494 5.80892 8.27326 5.96199C8.41158 6.11507 8.48873 6.31369 8.49 6.52C8.49 6.52 8.49 6.58 8.49 6.61C8.4679 6.81512 8.37108 7.00494 8.21801 7.14326C8.06493 7.28158 7.86631 7.35873 7.66 7.36H7.57V7.3ZM16.38 8.3C16.2372 8.15273 16.1582 7.95513 16.16 7.75C16.16 7.63029 16.186 7.512 16.236 7.40326C16.2861 7.29451 16.3591 7.19788 16.45 7.12V7.12C16.5315 7.04727 16.6268 6.99156 16.7301 6.95615C16.8335 6.92074 16.9428 6.90634 17.0518 6.91379C17.1608 6.92124 17.2672 6.9504 17.3648 6.99955C17.4624 7.0487 17.5491 7.11685 17.62 7.2V7.2C17.7259 7.34121 17.7822 7.51349 17.78 7.69C17.7808 7.80354 17.757 7.9159 17.7104 8.01944C17.6638 8.12299 17.5955 8.21527 17.51 8.29V8.29C17.3631 8.42586 17.1701 8.50092 16.97 8.5H16.89C16.6873 8.49864 16.492 8.42406 16.34 8.29V8.29L16.38 8.3ZM7 9.78C6.99471 9.73014 6.99471 9.67986 7 9.63C7.0006 9.43718 7.06752 9.25044 7.18952 9.10113C7.31152 8.95182 7.48117 8.84902 7.67 8.81H7.84C8.02563 8.80963 8.20628 8.87003 8.35435 8.98199C8.50242 9.09394 8.60977 9.25129 8.66 9.43V9.43C8.66537 9.47651 8.66537 9.52349 8.66 9.57C8.65989 9.76143 8.5944 9.94708 8.47437 10.0962C8.35434 10.2453 8.18698 10.349 8 10.39H7.8C7.60639 10.3835 7.42098 10.3102 7.27519 10.1826C7.1294 10.0551 7.03218 9.88103 7 9.69V9.69V9.78ZM7.84 12.91C7.82408 12.8274 7.82408 12.7426 7.84 12.66C7.84107 12.4882 7.89421 12.3207 7.9924 12.1796C8.09058 12.0386 8.22921 11.9306 8.39 11.87V11.87C8.47257 11.8541 8.55743 11.8541 8.64 11.87C8.81408 11.8674 8.98446 11.9203 9.12649 12.0209C9.26852 12.1216 9.37482 12.2649 9.43 12.43C9.44514 12.516 9.44514 12.604 9.43 12.69C9.43049 12.8624 9.37664 13.0305 9.27611 13.1705C9.17558 13.3106 9.03348 13.4153 8.87 13.47H8.59C8.42443 13.47 8.26264 13.4205 8.12542 13.3278C7.98821 13.2352 7.88184 13.1036 7.82 12.95L7.84 12.91ZM19.93 13.35C19.8575 13.2255 19.8196 13.084 19.82 12.94C19.8203 12.7948 19.8582 12.6521 19.9301 12.5259C20.0019 12.3997 20.1053 12.2943 20.23 12.22V12.22C20.3571 12.1553 20.4974 12.1211 20.64 12.12C20.7856 12.1194 20.9289 12.1558 21.0566 12.2258C21.1843 12.2958 21.2921 12.397 21.37 12.52V12.52C21.4439 12.6439 21.4819 12.7858 21.48 12.93C21.4807 13.0766 21.4422 13.2207 21.3683 13.3473C21.2944 13.474 21.188 13.5785 21.06 13.65V13.65C20.9493 13.7294 20.8162 13.7715 20.68 13.77V13.77C20.5338 13.7687 20.3905 13.7293 20.2642 13.6556C20.138 13.5819 20.0331 13.4766 19.96 13.35H19.93ZM9 15.94C8.97349 15.8248 8.97349 15.7052 9 15.59C8.998 15.4318 9.04239 15.2764 9.1277 15.1431C9.213 15.0098 9.33548 14.9045 9.48 14.84V14.84C9.59153 14.7959 9.71008 14.7722 9.83 14.77C9.9894 14.7686 10.1458 14.8131 10.2806 14.8982C10.4154 14.9833 10.5228 15.1055 10.59 15.25V15.25C10.6389 15.3565 10.6629 15.4728 10.66 15.59C10.6623 15.7483 10.6193 15.904 10.536 16.0386C10.4527 16.1733 10.3327 16.2813 10.19 16.35C10.0785 16.3941 9.95992 16.4178 9.84 16.42V16.42C9.66678 16.4427 9.4909 16.408 9.33922 16.3214C9.18754 16.2347 9.0684 16.1007 9 15.94ZM21.3 16.1C21.2511 15.9864 21.2272 15.8636 21.23 15.74C21.2308 15.5836 21.2752 15.4306 21.3582 15.2981C21.4412 15.1656 21.5596 15.0589 21.7 14.99V14.99C21.8093 14.9378 21.9289 14.9105 22.05 14.91C22.2103 14.9103 22.3674 14.9554 22.5035 15.0402C22.6395 15.125 22.7492 15.2462 22.82 15.39V15.39C22.8701 15.4997 22.894 15.6195 22.89 15.74C22.8916 15.8969 22.8482 16.0509 22.7649 16.1839C22.6816 16.3168 22.5619 16.423 22.42 16.49V16.49C22.3129 16.5398 22.1978 16.5703 22.08 16.58C21.9212 16.5786 21.7662 16.5317 21.6332 16.4449C21.5003 16.358 21.395 16.2349 21.33 16.09L21.3 16.1ZM10.52 18.81C10.4108 18.6202 10.3811 18.3949 10.4373 18.1832C10.4935 17.9716 10.631 17.7907 10.82 17.68C10.9481 17.6076 11.0928 17.5697 11.24 17.57C11.3863 17.5714 11.53 17.6097 11.6576 17.6814C11.7852 17.7531 11.8926 17.8558 11.97 17.98V17.98C12.0792 18.1698 12.1089 18.3951 12.0527 18.6068C11.9965 18.8184 11.859 18.9993 11.67 19.11C11.5424 19.1837 11.3973 19.2217 11.25 19.22V19.22C11.1042 19.2159 10.9616 19.1765 10.8344 19.1051C10.7073 19.0336 10.5994 18.9324 10.52 18.81V18.81ZM22.52 19C22.5087 18.9137 22.5087 18.8263 22.52 18.74C22.5195 18.5676 22.5734 18.3995 22.6739 18.2595C22.7744 18.1194 22.9165 18.0147 23.08 17.96V17.96C23.1592 17.9441 23.2408 17.9441 23.32 17.96C23.4947 17.9598 23.6653 18.0134 23.8084 18.1137C23.9516 18.2139 24.0604 18.3557 24.12 18.52C24.1351 18.606 24.1351 18.694 24.12 18.78C24.1205 18.9524 24.0666 19.1205 23.9661 19.2605C23.8656 19.4006 23.7235 19.5053 23.56 19.56H23.3C23.1264 19.5598 22.9573 19.5045 22.8172 19.4021C22.677 19.2996 22.5729 19.1553 22.52 18.99V18.99V19ZM12.3 21.6C12.2044 21.458 12.1522 21.2912 12.15 21.12C12.1504 20.987 12.1823 20.8561 12.2431 20.7379C12.304 20.6196 12.392 20.5176 12.5 20.44V20.44C12.5889 20.3746 12.69 20.3276 12.7973 20.3017C12.9046 20.2758 13.016 20.2716 13.1249 20.2893C13.2339 20.307 13.3382 20.3462 13.4318 20.4047C13.5254 20.4632 13.6064 20.5398 13.67 20.63V20.63C13.7716 20.7653 13.8244 20.9309 13.82 21.1C13.8196 21.233 13.7877 21.3639 13.7269 21.4821C13.666 21.6004 13.578 21.7024 13.47 21.78C13.3357 21.8844 13.1702 21.9408 13 21.94C12.8648 21.9353 12.7329 21.8972 12.616 21.8292C12.4991 21.7611 12.4009 21.6652 12.33 21.55V21.55L12.3 21.6ZM23.3 21.94C23.3 21.94 23.3 21.85 23.3 21.8C23.2996 21.6012 23.3697 21.4087 23.4979 21.2567C23.626 21.1047 23.804 21.0031 24 20.97H24.14C24.3379 20.9672 24.5303 21.0351 24.6825 21.1617C24.8347 21.2882 24.9366 21.4649 24.97 21.66V21.66C24.97 21.71 24.97 21.76 24.97 21.81C24.9685 22.0056 24.8987 22.1946 24.7728 22.3443C24.6468 22.494 24.4725 22.5951 24.28 22.63H24.13C23.936 22.6298 23.7478 22.5633 23.5968 22.4414C23.4458 22.3195 23.3411 22.1496 23.3 21.96V21.96V21.94ZM14.3 24.11C14.176 23.9653 14.1085 23.7806 14.11 23.59C14.1093 23.4774 14.132 23.3659 14.1768 23.2626C14.2215 23.1593 14.2873 23.0664 14.37 22.99C14.522 22.8559 14.7173 22.7814 14.92 22.78C15.0398 22.7794 15.1583 22.805 15.2672 22.8551C15.376 22.9052 15.4726 22.9786 15.55 23.07V23.07C15.6841 23.222 15.7586 23.4173 15.76 23.62C15.7604 23.7374 15.7356 23.8534 15.6873 23.9604C15.639 24.0674 15.5683 24.1627 15.48 24.24C15.3254 24.3763 15.1261 24.4511 14.92 24.45C14.7987 24.4443 14.6801 24.4118 14.5729 24.3547C14.4657 24.2977 14.3725 24.2175 14.3 24.12V24.11ZM24.19 25.74C23.9814 25.7156 23.7889 25.6156 23.6489 25.4591C23.5089 25.3025 23.431 25.1001 23.43 24.89V24.82C23.4546 24.615 23.5538 24.4262 23.7088 24.2897C23.8637 24.1532 24.0635 24.0785 24.27 24.08H24.35C24.5587 24.0974 24.7534 24.1922 24.8958 24.3458C25.0383 24.4993 25.1182 24.7006 25.12 24.91C25.12 24.91 25.12 24.97 25.12 24.99C25.0979 25.1951 25.0011 25.3849 24.848 25.5233C24.6949 25.6616 24.4963 25.7387 24.29 25.74H24.19ZM16.64 26.43C16.5452 26.3504 16.4692 26.2509 16.4173 26.1386C16.3654 26.0262 16.339 25.9038 16.34 25.78C16.3414 25.5886 16.4046 25.4027 16.52 25.25V25.25C16.6003 25.1593 16.6987 25.0866 16.809 25.0367C16.9193 24.9867 17.0389 24.9606 17.16 24.96C17.3615 24.9577 17.557 25.0288 17.71 25.16V25.16C17.7946 25.2294 17.8644 25.3151 17.9154 25.412C17.9663 25.5088 17.9974 25.6149 18.0067 25.7239C18.016 25.833 18.0034 25.9427 17.9696 26.0468C17.9358 26.1509 17.8816 26.2472 17.81 26.33V26.33C17.7291 26.4233 17.6294 26.4982 17.5173 26.55C17.4052 26.6017 17.2834 26.629 17.16 26.63V26.63C16.967 26.6347 16.7801 26.5628 16.64 26.43V26.43ZM19.54 28.29C19.3822 28.2273 19.247 28.1183 19.1524 27.9773C19.0578 27.8362 19.0081 27.6698 19.01 27.5C19.0072 27.3828 19.0311 27.2665 19.08 27.16V27.16C19.1503 27.0215 19.2576 26.9052 19.39 26.8239C19.5224 26.7427 19.6747 26.6998 19.83 26.7C19.933 26.6997 20.035 26.7201 20.13 26.76V26.76C20.3335 26.8539 20.4922 27.0235 20.5725 27.2326C20.6529 27.4418 20.6484 27.6741 20.56 27.88C20.4918 28.0254 20.3847 28.149 20.2506 28.2372C20.1164 28.3255 19.9605 28.3749 19.8 28.38V28.38C19.6897 28.3782 19.581 28.3544 19.48 28.31H19.55L19.54 28.29ZM22.21 28.08C22.1345 27.9527 22.0932 27.808 22.09 27.66C22.0889 27.5147 22.1274 27.3718 22.2014 27.2467C22.2754 27.1216 22.3821 27.019 22.51 26.95C22.6444 26.8741 22.7956 26.8329 22.95 26.83C23.0898 26.8324 23.2267 26.8693 23.3488 26.9373C23.4709 27.0054 23.5744 27.1025 23.65 27.22V27.22C23.7359 27.3506 23.7812 27.5037 23.78 27.66C23.7803 27.8014 23.7435 27.9405 23.6733 28.0633C23.6031 28.1861 23.502 28.2884 23.38 28.36V28.36C23.2626 28.441 23.1226 28.4829 22.98 28.48H22.84C22.7001 28.4795 22.5627 28.4423 22.4416 28.3721C22.3205 28.3019 22.22 28.2012 22.15 28.08H22.21ZM15 10.25C15 10.0289 15.0871 9.81678 15.2425 9.65954C15.3979 9.50229 15.609 9.41263 15.83 9.41H16C16.2175 9.41 16.4261 9.49639 16.5798 9.65017C16.7336 9.80395 16.82 10.0125 16.82 10.23V10.23C16.8201 10.4494 16.7343 10.66 16.5811 10.817C16.4279 10.974 16.2193 11.0648 16 11.07C15.779 11.0674 15.5679 10.9777 15.4125 10.8205C15.2571 10.6632 15.17 10.4511 15.17 10.23V10.23L15 10.25ZM19 11.25C18.7931 11.2302 18.6008 11.1344 18.4605 10.9811C18.3201 10.8278 18.2415 10.6279 18.24 10.42V10.34C18.2644 10.1314 18.3644 9.93889 18.5209 9.79888C18.6775 9.65888 18.88 9.58102 19.09 9.58H19.15C19.3569 9.59979 19.5492 9.6956 19.6895 9.84891C19.8299 10.0022 19.9085 10.2021 19.91 10.41C19.9157 10.4364 19.9157 10.4636 19.91 10.49C19.8948 10.6969 19.8018 10.8904 19.6496 11.0314C19.4974 11.1724 19.2975 11.2506 19.09 11.25H19ZM22 11.69C21.8104 11.6489 21.6405 11.5442 21.5186 11.3932C21.3967 11.2422 21.3302 11.054 21.33 10.86C21.3251 10.8068 21.3251 10.7532 21.33 10.7V10.7C21.369 10.5112 21.4718 10.3415 21.6211 10.2195C21.7704 10.0975 21.9572 10.0306 22.15 10.03H22.32C22.508 10.0707 22.6766 10.174 22.7983 10.3229C22.92 10.4719 22.9876 10.6577 22.99 10.85C22.9949 10.9032 22.9949 10.9568 22.99 11.01V11.01C22.9492 11.2006 22.8449 11.3718 22.6941 11.4953C22.5432 11.6189 22.3549 11.6875 22.16 11.69H22ZM8.78 11.02C8.77447 10.9702 8.77447 10.9198 8.78 10.87C8.7792 10.6761 8.84395 10.4876 8.96376 10.3351C9.08357 10.1826 9.2514 10.0751 9.44 10.03V10.03H9.62C9.81282 10.0306 9.99956 10.0975 10.1489 10.2195C10.2982 10.3415 10.401 10.5112 10.44 10.7C10.445 10.7532 10.445 10.8068 10.44 10.86C10.4404 11.0501 10.3763 11.2346 10.2583 11.3836C10.1402 11.5325 9.97513 11.637 9.79 11.68H9.6C9.41218 11.6775 9.23035 11.6136 9.08227 11.498C8.9342 11.3825 8.82804 11.2216 8.78 11.04V11.02ZM25 12.45C24.8376 12.3918 24.6974 12.2845 24.5988 12.1429C24.5002 12.0013 24.4482 11.8325 24.45 11.66C24.4349 11.574 24.4349 11.486 24.45 11.4V11.4C24.5105 11.2419 24.6173 11.1057 24.7565 11.0093C24.8957 10.913 25.0607 10.8609 25.23 10.86C25.316 10.8449 25.404 10.8449 25.49 10.86V10.86C25.6508 10.9206 25.7894 11.0286 25.8876 11.1696C25.9858 11.3107 26.0389 11.4782 26.04 11.65C26.0504 11.7364 26.0504 11.8236 26.04 11.91V11.91C25.978 12.0727 25.8686 12.213 25.726 12.3128C25.5834 12.4127 25.4141 12.4674 25.24 12.47V12.47C25.1544 12.4608 25.0704 12.4407 24.99 12.41L25 12.45ZM5.76 11.98C5.74487 11.894 5.74487 11.806 5.76 11.72C5.76065 11.5533 5.8103 11.3905 5.90275 11.2518C5.99521 11.1131 6.1264 11.0047 6.28 10.94V10.94C6.36296 10.9287 6.44705 10.9287 6.53 10.94C6.70068 10.9403 6.86731 10.992 7.00821 11.0883C7.14911 11.1846 7.25776 11.3211 7.32 11.48V11.48C7.33601 11.5659 7.33601 11.6541 7.32 11.74C7.31986 11.9081 7.26927 12.0723 7.17479 12.2114C7.0803 12.3504 6.94626 12.458 6.79 12.52V12.52C6.71648 12.5505 6.63908 12.5707 6.56 12.58V12.58C6.38732 12.5768 6.2196 12.5216 6.07869 12.4218C5.93779 12.3219 5.83022 12.1819 5.77 12.02L5.76 11.98ZM27.61 13.69C27.5039 13.6114 27.4177 13.5088 27.3587 13.3907C27.2996 13.2725 27.2692 13.1421 27.27 13.01C27.2692 12.8306 27.3252 12.6556 27.43 12.51V12.51C27.4936 12.4198 27.5746 12.3432 27.6682 12.2847C27.7618 12.2262 27.8662 12.187 27.9751 12.1693C28.0841 12.1516 28.1954 12.1558 28.3027 12.1817C28.41 12.2076 28.5111 12.2546 28.6 12.32V12.32C28.7151 12.3966 28.8092 12.5008 28.8738 12.623C28.9385 12.7453 28.9715 12.8817 28.97 13.02C28.9712 13.2136 28.9039 13.4013 28.78 13.55C28.7003 13.6589 28.5966 13.748 28.477 13.8104C28.3573 13.8728 28.2249 13.9069 28.09 13.91C27.9154 13.8927 27.7491 13.8269 27.61 13.72V13.72V13.69ZM3.06 13.59C2.94692 13.4482 2.88681 13.2714 2.89 13.09C2.88918 12.9593 2.91961 12.8303 2.97875 12.7138C3.03789 12.5972 3.12404 12.4965 3.23 12.42V12.42C3.37561 12.3152 3.55063 12.2592 3.73 12.26C3.86069 12.2592 3.98969 12.2896 4.10623 12.3487C4.22278 12.4079 4.3235 12.494 4.4 12.6C4.50476 12.7456 4.56076 12.9206 4.56 13.1C4.56039 13.2296 4.53081 13.3575 4.47356 13.4737C4.41631 13.5899 4.33295 13.6913 4.23 13.77V13.77C4.09279 13.8774 3.92425 13.9371 3.75 13.94C3.61859 13.9389 3.48933 13.9065 3.37284 13.8457C3.25636 13.7849 3.156 13.6972 3.08 13.59V13.59H3.06ZM29 15.69C28.9998 15.4713 29.0838 15.261 29.2347 15.1027C29.3855 14.9444 29.5916 14.8503 29.81 14.84V14.84C30.0276 14.8425 30.2358 14.9294 30.3906 15.0824C30.5454 15.2353 30.6348 15.4424 30.64 15.66C30.6374 15.882 30.5481 16.0941 30.3911 16.2511C30.2341 16.4081 30.022 16.4974 29.8 16.5V16.5C29.5901 16.4878 29.3921 16.3983 29.2444 16.2487C29.0966 16.0991 29.0095 15.9001 29 15.69V15.69ZM1.33 15.69C1.33 15.4699 1.41745 15.2588 1.5731 15.1031C1.72876 14.9474 1.93987 14.86 2.16 14.86V14.86C2.38106 14.86 2.59322 14.9471 2.75046 15.1025C2.90771 15.2579 2.99737 15.469 3 15.69C3.00002 15.9111 2.91289 16.1232 2.75752 16.2805C2.60214 16.4377 2.39105 16.5274 2.17 16.53C2.05932 16.5313 1.94949 16.5105 1.84697 16.4688C1.74445 16.4271 1.65131 16.3652 1.57304 16.287C1.49477 16.2087 1.43295 16.1156 1.39121 16.013C1.34947 15.9105 1.32866 15.8007 1.33 15.69ZM27.43 18.75C27.3252 18.6044 27.2692 18.4294 27.27 18.25C27.2708 18.1196 27.3019 17.9912 27.3609 17.8749C27.4199 17.7586 27.5052 17.6576 27.61 17.58C27.7512 17.4741 27.9235 17.4178 28.1 17.42C28.2316 17.4203 28.3611 17.4523 28.4777 17.5132C28.5944 17.5741 28.6946 17.6622 28.77 17.77V17.77C28.8746 17.9119 28.9307 18.0837 28.93 18.26C28.9317 18.3908 28.9016 18.5201 28.8424 18.6368C28.7832 18.7535 28.6966 18.8541 28.59 18.93V18.93C28.5011 18.9954 28.4 19.0424 28.2927 19.0683C28.1854 19.0942 28.0741 19.0984 27.9651 19.0807C27.8562 19.063 27.7518 19.0238 27.6582 18.9653C27.5646 18.9068 27.4836 18.8302 27.42 18.74L27.43 18.75ZM3.26 18.93C3.15725 18.8534 3.07388 18.7538 3.01657 18.6392C2.95926 18.5246 2.92961 18.3981 2.93 18.27C2.92659 18.0916 2.98687 17.9179 3.1 17.78V17.78C3.17541 17.6722 3.27565 17.5841 3.39227 17.5232C3.50888 17.4623 3.63844 17.4303 3.77 17.43C3.94607 17.4307 4.11747 17.4866 4.26 17.59V17.59C4.38025 17.6652 4.47923 17.7699 4.5475 17.8942C4.61577 18.0185 4.65106 18.1582 4.65 18.3C4.65147 18.4906 4.58399 18.6753 4.46 18.82V18.82C4.38236 18.9255 4.28163 19.0119 4.16552 19.0726C4.0494 19.1332 3.92096 19.1665 3.79 19.17C3.59959 19.1582 3.41923 19.0804 3.28 18.95L3.26 18.93ZM24.52 19.93C24.504 19.8441 24.504 19.7559 24.52 19.67C24.5201 19.5019 24.5707 19.3377 24.6652 19.1986C24.7597 19.0595 24.8937 18.952 25.05 18.89V18.89C25.133 18.8795 25.217 18.8795 25.3 18.89C25.471 18.8889 25.6382 18.94 25.7794 19.0365C25.9206 19.133 26.0289 19.2703 26.09 19.43V19.43C26.1059 19.5126 26.1059 19.5974 26.09 19.68C26.0911 19.851 26.04 20.0182 25.9435 20.1594C25.847 20.3006 25.7097 20.4089 25.55 20.47V20.47C25.4574 20.4861 25.3626 20.4861 25.27 20.47C25.1074 20.4566 24.9521 20.3966 24.8227 20.2973C24.6932 20.198 24.5951 20.0636 24.54 19.91L24.52 19.93ZM6.3 20.47C6.14026 20.412 6.00249 20.3058 5.90575 20.166C5.80901 20.0263 5.75808 19.8599 5.76 19.69C5.74471 19.5973 5.74471 19.5027 5.76 19.41C5.81762 19.2492 5.92345 19.1101 6.06304 19.0117C6.20263 18.9132 6.3692 18.8603 6.54 18.86C6.62944 18.8458 6.72056 18.8458 6.81 18.86V18.86C7.01116 18.9387 7.17481 19.0911 7.26768 19.2861C7.36055 19.4811 7.37568 19.7042 7.31 19.91V19.91C7.24641 20.0708 7.13634 20.209 6.99385 20.307C6.85136 20.4049 6.68291 20.4582 6.51 20.46C6.43368 20.4703 6.35632 20.4703 6.28 20.46L6.3 20.47ZM21.43 20.69C21.4245 20.6335 21.4245 20.5765 21.43 20.52C21.431 20.3284 21.4983 20.1431 21.6204 19.9954C21.7426 19.8478 21.912 19.7469 22.1 19.71V19.71H22.26C22.451 19.7119 22.6357 19.7781 22.7845 19.8978C22.9332 20.0175 23.0373 20.1839 23.08 20.37V20.37C23.0853 20.4265 23.0853 20.4835 23.08 20.54C23.079 20.7316 23.0117 20.9169 22.8896 21.0646C22.7675 21.2122 22.598 21.3131 22.41 21.35H22.24C22.0541 21.3472 21.8747 21.2814 21.7312 21.1633C21.5877 21.0452 21.4885 20.8818 21.45 20.7L21.43 20.69ZM9.48 21.35C9.29015 21.3151 9.1184 21.2152 8.99429 21.0673C8.87018 20.9195 8.80148 20.733 8.8 20.54C8.79508 20.4801 8.79508 20.4199 8.8 20.36V20.36C8.83968 20.1678 8.94542 19.9955 9.09887 19.8731C9.25231 19.7507 9.44377 19.6859 9.64 19.69H9.8C9.98617 19.729 10.1533 19.8307 10.2735 19.9781C10.3936 20.1256 10.4595 20.3098 10.46 20.5C10.4653 20.5565 10.4653 20.6135 10.46 20.67V20.67C10.4217 20.8582 10.3207 21.0278 10.1736 21.1513C10.0265 21.2748 9.84198 21.3448 9.65 21.35H9.48ZM18.28 21.05C18.28 21.05 18.28 21.05 18.28 20.99C18.2813 20.781 18.3595 20.5799 18.4997 20.4249C18.6399 20.27 18.8322 20.1721 19.04 20.15H19.12C19.3275 20.1494 19.5274 20.2276 19.6796 20.3686C19.8318 20.5096 19.9248 20.7031 19.94 20.91V20.91C19.9457 20.9364 19.9457 20.9636 19.94 20.99C19.939 21.1948 19.8633 21.3921 19.727 21.545C19.5907 21.6978 19.4033 21.7956 19.2 21.82H19.11C18.9061 21.8142 18.711 21.7353 18.5605 21.5976C18.4099 21.4599 18.3139 21.2726 18.29 21.07V21.07L18.28 21.05ZM15.95 21.95C15.7289 21.95 15.5168 21.8629 15.3595 21.7075C15.2023 21.5521 15.1126 21.341 15.11 21.12V21.12C15.1126 20.898 15.2019 20.6859 15.3589 20.5289C15.5159 20.3719 15.728 20.2826 15.95 20.28V20.28C16.171 20.2826 16.3821 20.3723 16.5375 20.5295C16.6929 20.6868 16.78 20.8989 16.78 21.12C16.7779 21.33 16.6962 21.5314 16.5514 21.6835C16.4067 21.8357 16.2096 21.9274 16 21.94L15.95 21.95Z" fill="black"/>
</svg>
