<svg width="32" height="32" viewBox="0 0 32 32" fill="none" xmlns="http://www.w3.org/2000/svg">
<path fill-rule="evenodd" clip-rule="evenodd" d="M16.05 13.24C16.7414 13.2426 17.4037 13.5185 17.8926 14.0074C18.3815 14.4963 18.6574 15.1586 18.66 15.85V15.85C18.6619 16.3669 18.5109 16.8728 18.2259 17.304C17.941 17.7353 17.5348 18.0726 17.0586 18.2736C16.5824 18.4745 16.0573 18.5301 15.5496 18.4334C15.0418 18.3366 14.574 18.0918 14.2051 17.7298C13.8361 17.3678 13.5825 16.9047 13.4761 16.3989C13.3697 15.8931 13.4153 15.3671 13.6072 14.8871C13.7991 14.4071 14.1287 13.9947 14.5544 13.7016C14.9802 13.4085 15.4832 13.2479 16 13.24H16.05ZM16 9.28999C15.8022 9.28999 15.6089 9.34864 15.4444 9.45852C15.28 9.5684 15.1518 9.72458 15.0761 9.90731C15.0004 10.09 14.9806 10.2911 15.0192 10.4851C15.0578 10.6791 15.153 10.8572 15.2929 10.9971C15.4327 11.137 15.6109 11.2322 15.8049 11.2708C15.9989 11.3094 16.2 11.2896 16.3827 11.2139C16.5654 11.1382 16.7216 11.01 16.8315 10.8456C16.9414 10.6811 17 10.4878 17 10.29C17 10.0248 16.8946 9.77042 16.7071 9.58288C16.5196 9.39535 16.2652 9.28999 16 9.28999ZM13 9.40999C12.8022 9.40999 12.6089 9.46864 12.4444 9.57852C12.28 9.6884 12.1518 9.84458 12.0761 10.0273C12.0004 10.21 11.9806 10.4111 12.0192 10.6051C12.0578 10.7991 12.153 10.9772 12.2929 11.1171C12.4327 11.257 12.6109 11.3522 12.8049 11.3908C12.9989 11.4294 13.2 11.4096 13.3827 11.3339C13.5654 11.2582 13.7216 11.13 13.8315 10.9656C13.9414 10.8011 14 10.6078 14 10.41C14 10.1448 13.8946 9.89042 13.7071 9.70288C13.5196 9.51535 13.2652 9.40999 13 9.40999ZM9.6 10.02C9.41762 10.02 9.23936 10.0742 9.08785 10.1758C8.93635 10.2773 8.81845 10.4216 8.74912 10.5903C8.67979 10.759 8.66216 10.9445 8.69848 11.1232C8.7348 11.3019 8.82342 11.4658 8.95308 11.5941C9.08275 11.7223 9.24761 11.8092 9.42673 11.8435C9.60584 11.8779 9.79113 11.8582 9.95906 11.7871C10.127 11.7159 10.27 11.5964 10.3698 11.4438C10.4697 11.2912 10.522 11.1124 10.52 10.93C10.52 10.8088 10.4958 10.6888 10.4489 10.5771C10.4019 10.4653 10.3331 10.3641 10.2464 10.2793C10.1598 10.1946 10.0571 10.128 9.94439 10.0834C9.83167 10.0389 9.71118 10.0173 9.59 10.02H9.6ZM6.48 11.02C6.31189 11.02 6.14755 11.0698 6.00777 11.1632C5.86799 11.2566 5.75904 11.3894 5.69471 11.5447C5.63037 11.7 5.61354 11.8709 5.64634 12.0358C5.67913 12.2007 5.76009 12.3522 5.87896 12.471C5.99784 12.5899 6.14929 12.6709 6.31418 12.7037C6.47906 12.7365 6.64997 12.7196 6.80528 12.6553C6.9606 12.591 7.09335 12.482 7.18675 12.3422C7.28015 12.2024 7.33 12.0381 7.33 11.87C7.33403 11.7546 7.31477 11.6395 7.27336 11.5317C7.23194 11.4238 7.16924 11.3255 7.08897 11.2424C7.00871 11.1593 6.91254 11.0933 6.80619 11.0482C6.69985 11.0031 6.58551 10.9799 6.47 10.98L6.48 11.02ZM3.63 12.45C3.52805 12.4487 3.42684 12.4676 3.33227 12.5057C3.23769 12.5438 3.15162 12.6003 3.07906 12.672C3.00649 12.7436 2.94888 12.8289 2.90956 12.923C2.87024 13.0171 2.84999 13.118 2.85 13.22C2.85 13.4269 2.93218 13.6253 3.07846 13.7715C3.22474 13.9178 3.42313 14 3.63 14C3.83687 14 4.03527 13.9178 4.18155 13.7715C4.32783 13.6253 4.41 13.4269 4.41 13.22C4.41001 13.118 4.38977 13.0171 4.35045 12.923C4.31113 12.8289 4.25352 12.7436 4.18095 12.672C4.10839 12.6003 4.02232 12.5438 3.92774 12.5057C3.83316 12.4676 3.73196 12.4487 3.63 12.45V12.45ZM2 15.13C1.86002 15.132 1.72375 15.1753 1.60831 15.2545C1.49287 15.3337 1.40343 15.4452 1.35122 15.5751C1.29901 15.705 1.28637 15.8475 1.31489 15.9845C1.3434 16.1216 1.4118 16.2472 1.51148 16.3455C1.61116 16.4438 1.73768 16.5104 1.87513 16.537C2.01257 16.5636 2.15481 16.549 2.28397 16.4949C2.41312 16.4409 2.52342 16.3499 2.60101 16.2334C2.67859 16.1169 2.71999 15.98 2.72 15.84C2.72001 15.7459 2.70132 15.6528 2.66502 15.566C2.62871 15.4792 2.57552 15.4004 2.50853 15.3344C2.44153 15.2683 2.36208 15.2162 2.27478 15.1811C2.18748 15.1461 2.09408 15.1287 2 15.13V15.13ZM3.65 17.86C3.52387 17.862 3.40113 17.9012 3.2972 17.9727C3.19328 18.0442 3.11281 18.1448 3.0659 18.2619C3.01899 18.379 3.00773 18.5074 3.03354 18.6309C3.05936 18.7543 3.12109 18.8674 3.21098 18.956C3.30087 19.0445 3.41491 19.1044 3.53878 19.1283C3.66265 19.1522 3.79081 19.139 3.90717 19.0903C4.02354 19.0415 4.12291 18.9595 4.1928 18.8545C4.26269 18.7495 4.29999 18.6261 4.3 18.5C4.30018 18.3353 4.23689 18.1769 4.12328 18.0577C4.00967 17.9385 3.85449 17.8677 3.69 17.86H3.65ZM6.48 19.36C6.39813 19.3492 6.31489 19.356 6.23585 19.3799C6.15682 19.4038 6.0838 19.4444 6.0217 19.4988C5.95959 19.5533 5.90983 19.6203 5.87574 19.6956C5.84165 19.7708 5.82401 19.8524 5.82401 19.935C5.82401 20.0176 5.84165 20.0992 5.87574 20.1744C5.90983 20.2496 5.95959 20.3167 6.0217 20.3712C6.0838 20.4256 6.15682 20.4661 6.23585 20.4901C6.31489 20.514 6.39813 20.5208 6.48 20.51C6.61945 20.4916 6.74745 20.4231 6.84017 20.3173C6.93289 20.2115 6.98401 20.0757 6.98401 19.935C6.98401 19.7943 6.93289 19.6585 6.84017 19.5527C6.74745 19.4469 6.61945 19.3784 6.48 19.36V19.36ZM9.59 20.26C9.48913 20.26 9.39053 20.2899 9.30666 20.3459C9.22279 20.402 9.15743 20.4816 9.11882 20.5748C9.08022 20.668 9.07012 20.7706 9.0898 20.8695C9.10948 20.9684 9.15805 21.0593 9.22938 21.1306C9.3007 21.2019 9.39158 21.2505 9.49051 21.2702C9.58944 21.2899 9.69198 21.2798 9.78517 21.2412C9.87836 21.2026 9.95801 21.1372 10.0141 21.0533C10.0701 20.9695 10.1 20.8709 10.1 20.77C10.1004 20.6414 10.0522 20.5174 9.96504 20.4228C9.87788 20.3282 9.75821 20.2701 9.63 20.26H9.59ZM13.18 21.05C13.1218 21.0486 13.064 21.0591 13.01 21.0807C12.956 21.1023 12.907 21.1347 12.8658 21.1758C12.8247 21.2169 12.7923 21.266 12.7707 21.32C12.7491 21.374 12.7386 21.4318 12.74 21.49C12.74 21.6067 12.7864 21.7186 12.8689 21.8011C12.9514 21.8836 13.0633 21.93 13.18 21.93C13.2967 21.93 13.4086 21.8836 13.4911 21.8011C13.5736 21.7186 13.62 21.6067 13.62 21.49C13.6205 21.3799 13.5796 21.2737 13.5056 21.1922C13.4315 21.1107 13.3296 21.06 13.22 21.05H13.18ZM16 20.97C15.9181 20.968 15.8375 20.9906 15.7685 21.0349C15.6996 21.0792 15.6455 21.1431 15.6132 21.2184C15.581 21.2937 15.572 21.377 15.5875 21.4574C15.603 21.5379 15.6423 21.6119 15.7002 21.6698C15.7581 21.7277 15.8321 21.767 15.9126 21.7825C15.993 21.798 16.0763 21.789 16.1516 21.7567C16.2269 21.7245 16.2908 21.6704 16.3351 21.6015C16.3794 21.5325 16.402 21.4519 16.4 21.37C16.4 21.2639 16.3579 21.1622 16.2828 21.0871C16.2078 21.0121 16.1061 20.97 16 20.97V20.97ZM18 10.4C18 10.5978 18.0587 10.7911 18.1685 10.9556C18.2784 11.12 18.4346 11.2482 18.6173 11.3239C18.8 11.3996 19.0011 11.4194 19.1951 11.3808C19.3891 11.3422 19.5673 11.247 19.7071 11.1071C19.847 10.9672 19.9422 10.7891 19.9808 10.5951C20.0194 10.4011 19.9996 10.2 19.9239 10.0173C19.8482 9.83458 19.72 9.6784 19.5556 9.56852C19.3911 9.45864 19.1978 9.39999 19 9.39999C18.7348 9.39999 18.4804 9.50535 18.2929 9.69288C18.1054 9.88042 18 10.1348 18 10.4ZM21.46 10.93C21.458 11.1124 21.5103 11.2912 21.6102 11.4438C21.71 11.5964 21.853 11.7159 22.021 11.7871C22.1889 11.8582 22.3742 11.8779 22.5533 11.8435C22.7324 11.8092 22.8973 11.7223 23.0269 11.5941C23.1566 11.4658 23.2452 11.3019 23.2815 11.1232C23.3178 10.9445 23.3002 10.759 23.2309 10.5903C23.1616 10.4216 23.0437 10.2773 22.8922 10.1758C22.7407 10.0742 22.5624 10.02 22.38 10.02C22.143 10.0277 21.9181 10.1267 21.7522 10.2962C21.5864 10.4658 21.4925 10.6928 21.49 10.93H21.46ZM24.65 11.83C24.65 11.9981 24.6999 12.1624 24.7933 12.3022C24.8867 12.442 25.0194 12.551 25.1747 12.6153C25.33 12.6796 25.5009 12.6965 25.6658 12.6637C25.8307 12.6309 25.9822 12.5499 26.101 12.431C26.2199 12.3122 26.3009 12.1607 26.3337 11.9958C26.3665 11.8309 26.3496 11.66 26.2853 11.5047C26.221 11.3494 26.112 11.2166 25.9722 11.1232C25.8325 11.0298 25.6681 10.98 25.5 10.98C25.2798 10.9878 25.0712 11.0807 24.9183 11.2393C24.7653 11.3979 24.6799 11.6097 24.68 11.83H24.65ZM27.56 13.22C27.56 13.4269 27.6422 13.6253 27.7885 13.7715C27.9347 13.9178 28.1331 14 28.34 14C28.5469 14 28.7453 13.9178 28.8915 13.7715C29.0378 13.6253 29.12 13.4269 29.12 13.22C29.12 13.0131 29.0378 12.8147 28.8915 12.6684C28.7453 12.5222 28.5469 12.44 28.34 12.44C28.1331 12.44 27.9347 12.5222 27.7885 12.6684C27.6422 12.8147 27.56 13.0131 27.56 13.22V13.22ZM29.21 15.84C29.208 15.9828 29.2486 16.123 29.3265 16.2427C29.4044 16.3624 29.5161 16.4562 29.6475 16.5123C29.7788 16.5683 29.9239 16.584 30.0642 16.5574C30.2046 16.5307 30.3338 16.4629 30.4355 16.3627C30.5372 16.2624 30.6067 16.1341 30.6353 15.9942C30.664 15.8542 30.6503 15.709 30.5961 15.5768C30.5419 15.4447 30.4496 15.3316 30.331 15.2521C30.2124 15.1725 30.0728 15.13 29.93 15.13C29.7452 15.1352 29.5697 15.2123 29.4408 15.3449C29.312 15.4775 29.2399 15.6551 29.24 15.84H29.21ZM27.63 18.5C27.628 18.629 27.6644 18.7556 27.7347 18.8638C27.8049 18.972 27.9057 19.0569 28.0243 19.1076C28.1428 19.1583 28.2738 19.1726 28.4006 19.1487C28.5273 19.1248 28.6441 19.0637 28.736 18.9732C28.8279 18.8827 28.8908 18.7669 28.9167 18.6405C28.9426 18.5142 28.9303 18.383 28.8814 18.2636C28.8325 18.1443 28.7492 18.0421 28.6421 17.9703C28.535 17.8984 28.409 17.86 28.28 17.86C28.1138 17.8652 27.9561 17.9349 27.8403 18.0544C27.7246 18.1738 27.6599 18.3337 27.66 18.5H27.63ZM24.88 19.94C24.88 20.0148 24.8947 20.089 24.9234 20.1581C24.952 20.2273 24.994 20.2901 25.047 20.343C25.0999 20.396 25.1627 20.438 25.2319 20.4666C25.301 20.4952 25.3752 20.51 25.45 20.51C25.5319 20.5208 25.6151 20.514 25.6942 20.4901C25.7732 20.4661 25.8462 20.4256 25.9083 20.3712C25.9704 20.3167 26.0202 20.2496 26.0543 20.1744C26.0884 20.0992 26.106 20.0176 26.106 19.935C26.106 19.8524 26.0884 19.7708 26.0543 19.6956C26.0202 19.6203 25.9704 19.5533 25.9083 19.4988C25.8462 19.4444 25.7732 19.4038 25.6942 19.3799C25.6151 19.356 25.5319 19.3492 25.45 19.36C25.3023 19.3677 25.1635 19.4326 25.0627 19.5408C24.962 19.649 24.9072 19.7922 24.91 19.94H24.88ZM21.83 20.77C21.83 20.8709 21.8599 20.9695 21.916 21.0533C21.972 21.1372 22.0516 21.2026 22.1448 21.2412C22.238 21.2798 22.3406 21.2899 22.4395 21.2702C22.5384 21.2505 22.6293 21.2019 22.7006 21.1306C22.772 21.0593 22.8205 20.9684 22.8402 20.8695C22.8599 20.7706 22.8498 20.668 22.8112 20.5748C22.7726 20.4816 22.7072 20.402 22.6233 20.3459C22.5395 20.2899 22.4409 20.26 22.34 20.26C22.21 20.2677 22.0879 20.3247 21.9986 20.4196C21.9094 20.5144 21.8598 20.6398 21.86 20.77H21.83ZM18.52 21.37C18.52 21.4867 18.5664 21.5986 18.6489 21.6811C18.7314 21.7636 18.8433 21.81 18.96 21.81C19.0182 21.8114 19.076 21.8009 19.13 21.7793C19.184 21.7577 19.233 21.7253 19.2742 21.6842C19.3153 21.643 19.3477 21.594 19.3693 21.54C19.3909 21.486 19.4014 21.4281 19.4 21.37C19.4 21.3122 19.3886 21.255 19.3665 21.2016C19.3444 21.1482 19.312 21.0997 19.2711 21.0589C19.2303 21.018 19.1818 20.9856 19.1284 20.9635C19.075 20.9414 19.0178 20.93 18.96 20.93C18.8486 20.9376 18.7442 20.9873 18.6681 21.069C18.592 21.1507 18.5497 21.2583 18.55 21.37H18.52ZM21.45 12.51C21.3843 12.3898 21.2957 12.2838 21.189 12.1979C21.0824 12.112 20.9598 12.048 20.8285 12.0094C20.6971 11.9709 20.5594 11.9586 20.4232 11.9733C20.2871 11.988 20.1552 12.0293 20.035 12.095C19.9148 12.1607 19.8088 12.2493 19.7229 12.356C19.637 12.4626 19.573 12.5851 19.5344 12.7165C19.4959 12.8479 19.4836 12.9856 19.4983 13.1218C19.513 13.2579 19.5543 13.3898 19.62 13.51C19.7526 13.7527 19.9762 13.9327 20.2416 14.0105C20.5069 14.0884 20.7923 14.0576 21.035 13.925C21.2777 13.7924 21.4577 13.5688 21.5356 13.3034C21.6134 13.0381 21.5826 12.7527 21.45 12.51V12.51ZM17.73 7.26999C17.679 7.15201 17.6039 7.04602 17.5094 6.95886C17.4149 6.8717 17.3032 6.8053 17.1815 6.76394C17.0598 6.72258 16.9308 6.70719 16.8028 6.71874C16.6748 6.7303 16.5506 6.76855 16.4383 6.83103C16.326 6.89351 16.228 6.97883 16.1507 7.0815C16.0733 7.18417 16.0184 7.3019 15.9893 7.42711C15.9603 7.55232 15.9578 7.68223 15.982 7.80846C16.0062 7.93469 16.0567 8.05444 16.13 8.15999C16.1873 8.26548 16.2652 8.35842 16.359 8.43336C16.4528 8.50829 16.5607 8.5637 16.6762 8.59631C16.7918 8.62893 16.9127 8.63809 17.0318 8.62327C17.151 8.60844 17.266 8.56993 17.37 8.50999C17.5808 8.39197 17.7367 8.19576 17.8041 7.96375C17.8714 7.73174 17.8448 7.48255 17.73 7.26999ZM15.37 5.00999C15.2927 4.86113 15.173 4.73847 15.0261 4.65747C14.8792 4.57647 14.7116 4.54076 14.5445 4.55482C14.3773 4.56888 14.218 4.63209 14.0867 4.73648C13.9554 4.84088 13.8579 4.9818 13.8066 5.14149C13.7552 5.30118 13.7522 5.47251 13.798 5.63389C13.8438 5.79527 13.9363 5.93949 14.0639 6.04838C14.1915 6.15728 14.3485 6.22599 14.5151 6.24585C14.6816 6.26571 14.8504 6.23583 15 6.15999C15.1012 6.11025 15.1913 6.04065 15.265 5.95535C15.3387 5.87005 15.3944 5.77079 15.4289 5.66348C15.4635 5.55617 15.476 5.44301 15.4659 5.33074C15.4558 5.21847 15.4232 5.10939 15.37 5.00999V5.00999ZM12.71 3.22999C12.6632 3.13511 12.5976 3.05074 12.5171 2.98202C12.4367 2.9133 12.3431 2.86166 12.2421 2.83025C12.1411 2.79883 12.0347 2.7883 11.9295 2.79929C11.8242 2.81028 11.7223 2.84257 11.63 2.89418C11.5376 2.94579 11.4567 3.01565 11.3922 3.09951C11.3277 3.18337 11.281 3.27948 11.2548 3.38198C11.2286 3.48449 11.2235 3.59125 11.2399 3.69578C11.2563 3.8003 11.2937 3.9004 11.35 3.98999C11.4564 4.1593 11.6237 4.2813 11.8174 4.3308C12.0111 4.38029 12.2165 4.35351 12.391 4.25597C12.5655 4.15843 12.6959 3.99759 12.7553 3.80667C12.8147 3.61574 12.7985 3.4093 12.71 3.22999V3.22999ZM9.6 3.14999C9.55416 3.06453 9.49153 2.9892 9.41585 2.92854C9.34018 2.86788 9.25304 2.82313 9.15965 2.79698C9.06625 2.77083 8.96854 2.76382 8.87237 2.77637C8.7762 2.78891 8.68356 2.82076 8.6 2.86999C8.5135 2.91476 8.43713 2.97685 8.37564 3.05239C8.31416 3.12794 8.26888 3.21533 8.24262 3.30912C8.21635 3.40292 8.20967 3.50112 8.22298 3.5976C8.2363 3.69409 8.26932 3.78681 8.32 3.86999C8.41548 4.03973 8.57448 4.16459 8.76201 4.2171C8.94955 4.26961 9.15026 4.24547 9.32 4.14999C9.48974 4.05451 9.6146 3.89552 9.66711 3.70798C9.71962 3.52044 9.69548 3.31973 9.6 3.14999V3.14999ZM8 5.91999C7.91636 5.77555 7.77882 5.67021 7.61758 5.62709C7.45634 5.58396 7.28458 5.60659 7.14 5.68999C7.05267 5.72173 6.9733 5.77211 6.90741 5.83763C6.84151 5.90314 6.79067 5.98221 6.75842 6.06936C6.72617 6.1565 6.71328 6.24962 6.72065 6.34225C6.72802 6.43488 6.75547 6.52479 6.8011 6.60574C6.84672 6.68668 6.90943 6.75673 6.98485 6.811C7.06028 6.86526 7.14662 6.90246 7.23787 6.91999C7.32912 6.93753 7.42309 6.93498 7.51326 6.91253C7.60343 6.89008 7.68763 6.84826 7.76 6.78999C7.90683 6.7061 8.01449 6.56751 8.05946 6.4045C8.10442 6.24148 8.08305 6.0673 8 5.91999V5.91999ZM8.06 9.11999C8.03304 9.03942 7.98871 8.96576 7.93015 8.90422C7.87158 8.84267 7.80021 8.79474 7.72108 8.76382C7.64195 8.7329 7.55699 8.71974 7.47221 8.72527C7.38744 8.7308 7.30491 8.75489 7.23047 8.79583C7.15602 8.83678 7.09149 8.89357 7.04141 8.96221C6.99134 9.03084 6.95696 9.10964 6.9407 9.19303C6.92444 9.27642 6.9267 9.36236 6.94731 9.44478C6.96793 9.52719 7.0064 9.60408 7.06 9.66999C7.1457 9.77536 7.26566 9.84732 7.39897 9.87331C7.53228 9.89931 7.67048 9.8777 7.78949 9.81224C7.9085 9.74679 8.00076 9.64164 8.0502 9.51514C8.09963 9.38863 8.1031 9.24879 8.06 9.11999V9.11999ZM8.78 12.27C8.73162 12.1813 8.65798 12.109 8.56843 12.0622C8.47887 12.0154 8.37744 11.9963 8.27699 12.0072C8.17655 12.0182 8.08162 12.0587 8.00425 12.1237C7.92689 12.1887 7.87056 12.2752 7.84244 12.3722C7.81431 12.4693 7.81564 12.5725 7.84626 12.6688C7.87688 12.7651 7.93541 12.8501 8.01443 12.913C8.09345 12.976 8.18939 13.0141 8.29008 13.0225C8.39078 13.0308 8.49168 13.0091 8.58 12.96C8.64007 12.9295 8.69335 12.8872 8.73666 12.8356C8.77996 12.784 8.81239 12.7242 8.83201 12.6597C8.85162 12.5953 8.85801 12.5275 8.85079 12.4606C8.84357 12.3936 8.8229 12.3288 8.79 12.27H8.78ZM11.27 18.27C11.2449 18.2229 11.2106 18.1813 11.1692 18.1476C11.1277 18.114 11.08 18.0889 11.0287 18.074C10.9775 18.0591 10.9238 18.0546 10.8707 18.0608C10.8177 18.067 10.7665 18.0837 10.72 18.11C10.6287 18.1644 10.5614 18.2514 10.5317 18.3535C10.502 18.4556 10.5121 18.5651 10.56 18.66C10.5801 18.7157 10.6121 18.7664 10.6536 18.8086C10.6952 18.8507 10.7454 18.8834 10.8008 18.9043C10.8562 18.9253 10.9155 18.9339 10.9746 18.9297C11.0337 18.9256 11.0911 18.9086 11.143 18.8801C11.1949 18.8516 11.2401 18.8122 11.2753 18.7646C11.3105 18.717 11.335 18.6623 11.347 18.6043C11.3591 18.5463 11.3585 18.4864 11.3452 18.4287C11.3319 18.371 11.3062 18.3168 11.27 18.27V18.27ZM21.48 14.88C21.3047 14.9744 21.1617 15.1189 21.069 15.2951C20.9764 15.4713 20.9385 15.6712 20.9601 15.8691C20.9818 16.0669 21.062 16.2539 21.1905 16.4059C21.3189 16.5579 21.4899 16.6682 21.6814 16.7225C21.8729 16.7768 22.0763 16.7727 22.2654 16.7107C22.4546 16.6488 22.621 16.5318 22.7433 16.3747C22.8656 16.2177 22.9382 16.0277 22.9519 15.8291C22.9655 15.6305 22.9196 15.4323 22.82 15.26C22.6984 15.0288 22.4912 14.8544 22.2426 14.774C21.9941 14.6937 21.7239 14.7138 21.49 14.83L21.48 14.88ZM22.7 18.16C22.5428 18.2471 22.4149 18.3789 22.3325 18.5386C22.2501 18.6983 22.2168 18.8788 22.2369 19.0574C22.2569 19.236 22.3294 19.4047 22.4452 19.5421C22.561 19.6796 22.7149 19.7797 22.8875 19.8298C23.0601 19.8799 23.2436 19.8778 23.415 19.8237C23.5864 19.7696 23.738 19.666 23.8505 19.5259C23.9631 19.3858 24.0317 19.2155 24.0476 19.0365C24.0635 18.8575 24.0261 18.6778 23.94 18.52C23.8879 18.4107 23.8143 18.3131 23.7236 18.2329C23.6329 18.1528 23.527 18.0917 23.4122 18.0534C23.2974 18.0152 23.176 18.0004 23.0553 18.0102C22.9347 18.0199 22.8172 18.0538 22.71 18.11L22.7 18.16ZM23.46 21.39C23.3622 21.4432 23.276 21.5154 23.2064 21.6023C23.1368 21.6891 23.0851 21.7889 23.0544 21.896C23.0237 22.003 23.0146 22.115 23.0276 22.2256C23.0405 22.3361 23.0754 22.443 23.13 22.54C23.2109 22.6877 23.334 22.8081 23.4834 22.8858C23.6329 22.9634 23.8021 22.995 23.9695 22.9763C24.1369 22.9577 24.295 22.8897 24.4238 22.7811C24.5525 22.6724 24.646 22.5279 24.6925 22.366C24.7389 22.2041 24.7362 22.032 24.6847 21.8716C24.6332 21.7112 24.5352 21.5698 24.4031 21.4652C24.2711 21.3606 24.1109 21.2976 23.943 21.2842C23.7751 21.2709 23.607 21.3077 23.46 21.39ZM23.65 24.6C23.4683 24.7008 23.3341 24.8696 23.2769 25.0693C23.2197 25.269 23.2442 25.4833 23.345 25.665C23.4458 25.8467 23.6146 25.9809 23.8143 26.0381C24.0141 26.0953 24.2283 26.0708 24.41 25.97C24.5917 25.8692 24.7259 25.7004 24.7831 25.5007C24.8403 25.3009 24.8158 25.0867 24.715 24.905C24.6142 24.7233 24.4454 24.5891 24.2457 24.5319C24.0459 24.4747 23.8317 24.4992 23.65 24.6V24.6ZM22.17 27.32C22.0843 27.3656 22.0089 27.4284 21.9485 27.5043C21.888 27.5803 21.8437 27.6678 21.8184 27.7615C21.7931 27.8552 21.7873 27.9532 21.8013 28.0492C21.8154 28.1453 21.8489 28.2374 21.9 28.32C21.9952 28.4772 22.1477 28.5914 22.3253 28.6385C22.503 28.6857 22.692 28.6621 22.8526 28.5727C23.0132 28.4833 23.1329 28.3352 23.1865 28.1593C23.2401 27.9835 23.2234 27.7938 23.14 27.63C23.1022 27.542 23.047 27.4625 22.9778 27.3963C22.9085 27.3302 22.8265 27.2788 22.7368 27.2451C22.6471 27.2115 22.5516 27.1964 22.4559 27.2006C22.3602 27.2049 22.2663 27.2285 22.18 27.27L22.17 27.32ZM19.08 27.23C18.9308 27.3141 18.8208 27.4538 18.774 27.6186C18.7272 27.7834 18.7473 27.96 18.83 28.11C18.8925 28.2194 18.986 28.3078 19.0986 28.3644C19.2112 28.4209 19.338 28.4429 19.463 28.4276C19.5881 28.4124 19.7059 28.3605 19.8016 28.2786C19.8974 28.1967 19.9668 28.0884 20.0012 27.9672C20.0357 27.846 20.0336 27.7174 19.9952 27.5974C19.9568 27.4774 19.8839 27.3713 19.7855 27.2926C19.6871 27.2139 19.5677 27.166 19.4422 27.1548C19.3167 27.1437 19.1907 27.1698 19.08 27.23ZM16.66 25.56C16.5932 25.5956 16.5342 25.6442 16.4863 25.7028C16.4385 25.7615 16.4028 25.8291 16.3814 25.9018C16.36 25.9744 16.3533 26.0505 16.3616 26.1258C16.37 26.201 16.3932 26.2738 16.43 26.34C16.4592 26.4185 16.505 26.4897 16.5643 26.5488C16.6236 26.6079 16.695 26.6535 16.7736 26.6824C16.8521 26.7113 16.9361 26.7228 17.0195 26.7162C17.103 26.7096 17.184 26.685 17.2571 26.6441C17.3301 26.6032 17.3935 26.5469 17.4427 26.4792C17.492 26.4115 17.526 26.3339 17.5424 26.2518C17.5589 26.1697 17.5573 26.085 17.5379 26.0036C17.5185 25.9221 17.4817 25.8459 17.43 25.78C17.3631 25.6452 17.2464 25.5416 17.1046 25.4913C16.9628 25.4409 16.807 25.4476 16.67 25.51L16.66 25.56ZM14.28 23.26C14.1913 23.3084 14.119 23.382 14.0722 23.4716C14.0254 23.5611 14.0063 23.6626 14.0172 23.763C14.0282 23.8634 14.0687 23.9584 14.1337 24.0357C14.1987 24.1131 14.2852 24.1694 14.3822 24.1976C14.4793 24.2257 14.5825 24.2244 14.6788 24.1937C14.7751 24.1631 14.8601 24.1046 14.9231 24.0256C14.986 23.9465 15.0241 23.8506 15.0325 23.7499C15.0408 23.6492 15.0191 23.5483 14.97 23.46C14.942 23.3987 14.9022 23.3436 14.8527 23.2978C14.8033 23.252 14.7453 23.2165 14.6821 23.1933C14.6189 23.17 14.5517 23.1595 14.4844 23.1624C14.4171 23.1653 14.351 23.1814 14.29 23.21L14.28 23.26ZM12.07 20.48C12.0184 20.5071 11.9728 20.5445 11.936 20.5898C11.8992 20.6351 11.8721 20.6874 11.8562 20.7435C11.8403 20.7996 11.836 20.8584 11.8435 20.9162C11.851 20.9741 11.8703 21.0298 11.9 21.08C11.9272 21.1303 11.9641 21.1747 12.0086 21.2105C12.0531 21.2464 12.1044 21.273 12.1593 21.2889C12.2142 21.3047 12.2718 21.3094 12.3286 21.3027C12.3854 21.2961 12.4402 21.2781 12.49 21.25C12.5456 21.2253 12.5954 21.1894 12.6364 21.1445C12.6773 21.0996 12.7086 21.0467 12.7281 20.9891C12.7476 20.9315 12.755 20.8705 12.7497 20.81C12.7445 20.7494 12.7267 20.6906 12.6976 20.6372C12.6685 20.5838 12.6287 20.5371 12.5806 20.4999C12.5325 20.4627 12.4772 20.4358 12.4183 20.4211C12.3593 20.4063 12.2979 20.4039 12.238 20.4141C12.178 20.4242 12.1208 20.4466 12.07 20.48ZM10.36 12.85C10.2816 13.0274 10.2565 13.2237 10.2876 13.4151C10.3188 13.6065 10.405 13.7847 10.5356 13.928C10.6663 14.0713 10.8358 14.1736 11.0235 14.2223C11.2112 14.271 11.409 14.264 11.5929 14.2023C11.7767 14.1406 11.9387 14.0267 12.059 13.8746C12.1793 13.7225 12.2527 13.5387 12.2704 13.3456C12.2882 13.1525 12.2493 12.9584 12.1587 12.787C12.0681 12.6155 11.9296 12.4741 11.76 12.38C11.642 12.3126 11.5115 12.2699 11.3765 12.2546C11.2415 12.2393 11.1047 12.2517 10.9747 12.291C10.8446 12.3303 10.7239 12.3957 10.6199 12.4832C10.516 12.5707 10.4309 12.6785 10.37 12.8L10.36 12.85ZM9.15 15.56C9.06511 15.678 9.00697 15.8131 8.97963 15.9559C8.95229 16.0986 8.95641 16.2457 8.99169 16.3867C9.02698 16.5277 9.09258 16.6593 9.18394 16.7724C9.2753 16.8855 9.39021 16.9773 9.52067 17.0414C9.65113 17.1055 9.794 17.1404 9.93933 17.1437C10.0847 17.147 10.229 17.1185 10.3622 17.0603C10.4954 17.0021 10.6143 16.9156 10.7106 16.8067C10.807 16.6978 10.8784 16.5693 10.92 16.43C11.0286 16.1958 11.0424 15.9286 10.9585 15.6845C10.8747 15.4403 10.6996 15.238 10.47 15.12C10.2359 15.0076 9.96728 14.9907 9.72093 15.0728C9.47458 15.1549 9.26984 15.3296 9.15 15.56ZM8.15 18.87C8.09616 18.981 8.0647 19.1014 8.05743 19.2246C8.05015 19.3477 8.06719 19.471 8.10758 19.5876C8.14798 19.7041 8.21093 19.8116 8.29285 19.9038C8.37476 19.996 8.47404 20.0711 8.585 20.125C8.69597 20.1788 8.81646 20.2103 8.93958 20.2176C9.0627 20.2248 9.18606 20.2078 9.30259 20.1674C9.41913 20.127 9.52657 20.0641 9.61878 19.9821C9.71099 19.9002 9.78616 19.801 9.84 19.69C9.94742 19.4725 9.96404 19.2213 9.88621 18.9915C9.80838 18.7618 9.64248 18.5724 9.425 18.465C9.20753 18.3576 8.95629 18.341 8.72655 18.4188C8.49682 18.4966 8.30742 18.6625 8.2 18.88L8.15 18.87ZM7.64 22.1C7.54271 22.3032 7.52907 22.5365 7.602 22.7497C7.67493 22.9629 7.82862 23.1389 8.03 23.24C8.23177 23.3368 8.46359 23.3502 8.67514 23.2772C8.8867 23.2042 9.06093 23.0507 9.16 22.85C9.21624 22.7526 9.25234 22.6449 9.26617 22.5332C9.27999 22.4216 9.27125 22.3083 9.24048 22.2002C9.2097 22.092 9.15751 21.9911 9.087 21.9034C9.01649 21.8158 8.92909 21.7432 8.83 21.69C8.72838 21.6412 8.61806 21.613 8.50546 21.6072C8.39286 21.6014 8.28024 21.6181 8.17414 21.6563C8.06805 21.6944 7.97061 21.7533 7.88749 21.8295C7.80437 21.9057 7.73724 21.9976 7.69 22.1H7.64ZM7.7 25.3C7.63325 25.4386 7.60898 25.5939 7.63024 25.7462C7.65151 25.8986 7.71736 26.0413 7.81951 26.1563C7.92167 26.2714 8.05557 26.3536 8.20436 26.3928C8.35315 26.4319 8.51019 26.4262 8.65573 26.3763C8.80126 26.3264 8.92879 26.2345 9.02227 26.1124C9.11575 25.9902 9.171 25.843 9.18108 25.6895C9.19116 25.536 9.15561 25.3829 9.0789 25.2496C9.0022 25.1162 8.88777 25.0085 8.75 24.94C8.56868 24.8625 8.36473 24.8565 8.1792 24.9233C7.99366 24.9901 7.84031 25.1247 7.75 25.3H7.7ZM9.41 27.9C9.36864 27.984 9.34423 28.0754 9.33817 28.1689C9.33212 28.2624 9.34454 28.3561 9.37472 28.4448C9.40489 28.5335 9.45225 28.6153 9.51406 28.6857C9.57588 28.7561 9.65096 28.8136 9.735 28.855C9.81905 28.8964 9.91042 28.9208 10.0039 28.9268C10.0974 28.9329 10.1911 28.9205 10.2798 28.8903C10.3685 28.8601 10.4504 28.8127 10.5207 28.7509C10.5911 28.6891 10.6486 28.614 10.69 28.53C10.7735 28.3603 10.7862 28.1643 10.7253 27.9852C10.6643 27.8061 10.5347 27.6585 10.365 27.575C10.1953 27.4914 9.99929 27.4788 9.82019 27.5397C9.6411 27.6007 9.49355 27.7303 9.41 27.9V27.9ZM12.59 27.63C12.5523 27.7055 12.53 27.7876 12.5242 27.8718C12.5184 27.9559 12.5292 28.0404 12.5562 28.1203C12.5831 28.2002 12.6256 28.274 12.6812 28.3375C12.7368 28.4009 12.8043 28.4527 12.88 28.49C13.0341 28.5626 13.2105 28.5719 13.3713 28.5158C13.5322 28.4597 13.6646 28.3427 13.74 28.19C13.7777 28.1145 13.8 28.0324 13.8058 27.9482C13.8116 27.8641 13.8008 27.7796 13.7738 27.6997C13.7469 27.6198 13.7044 27.546 13.6488 27.4825C13.5932 27.4191 13.5257 27.3672 13.45 27.33C13.3017 27.2721 13.1373 27.2707 12.988 27.326C12.8387 27.3813 12.7148 27.4895 12.64 27.63H12.59ZM15 25.76C14.951 25.8611 14.9329 25.9744 14.9481 26.0857C14.9633 26.197 15.011 26.3013 15.0853 26.3856C15.1596 26.4699 15.2571 26.5303 15.3656 26.5593C15.4741 26.5884 15.5888 26.5847 15.6952 26.5487C15.8017 26.5128 15.8951 26.4462 15.9638 26.3574C16.0325 26.2685 16.0734 26.1613 16.0814 26.0492C16.0894 25.9372 16.0641 25.8253 16.0087 25.7276C15.9533 25.6298 15.8703 25.5507 15.77 25.5C15.7025 25.4659 15.6289 25.4455 15.5534 25.4401C15.478 25.4348 15.4022 25.4445 15.3305 25.4687C15.2589 25.4929 15.1927 25.5311 15.136 25.5811C15.0792 25.6311 15.033 25.6919 15 25.76V25.76ZM17.4 23.36C17.341 23.4808 17.332 23.62 17.3751 23.7473C17.4182 23.8747 17.5098 23.9798 17.63 24.04C17.7523 24.0995 17.8929 24.1087 18.0219 24.0657C18.1509 24.0227 18.2579 23.9309 18.32 23.81C18.3783 23.688 18.3858 23.5478 18.3408 23.4203C18.2958 23.2928 18.202 23.1884 18.08 23.13C18.0209 23.101 17.9567 23.0839 17.891 23.0798C17.8253 23.0756 17.7595 23.0845 17.6972 23.1059C17.635 23.1272 17.5776 23.1607 17.5283 23.2043C17.479 23.2479 17.4388 23.3008 17.41 23.36H17.4ZM19.49 20.62C19.4415 20.7264 19.4363 20.8474 19.4755 20.9575C19.5147 21.0676 19.5952 21.1582 19.7 21.21C19.7511 21.2355 19.8068 21.2505 19.8638 21.2542C19.9208 21.2579 19.978 21.2503 20.0319 21.2316C20.0859 21.213 20.1357 21.1838 20.1783 21.1458C20.2209 21.1077 20.2554 21.0616 20.28 21.01C20.3317 20.9052 20.3397 20.7842 20.3022 20.6736C20.2647 20.5629 20.1848 20.4717 20.08 20.42C19.9752 20.3683 19.8542 20.3603 19.7436 20.3978C19.6329 20.4353 19.5417 20.5152 19.49 20.62ZM20.86 17.92C20.8364 17.9678 20.8225 18.0199 20.8193 18.0731C20.8161 18.1264 20.8236 18.1797 20.8413 18.23C20.859 18.2803 20.8865 18.3266 20.9224 18.3661C20.9582 18.4056 21.0016 18.4375 21.05 18.46C21.1214 18.4932 21.2009 18.5045 21.2788 18.4927C21.3566 18.4809 21.4291 18.4463 21.4874 18.3934C21.5457 18.3405 21.5871 18.2716 21.6064 18.1953C21.6257 18.119 21.622 18.0387 21.5959 17.9645C21.5698 17.8902 21.5223 17.8254 21.4595 17.778C21.3967 17.7305 21.3213 17.7027 21.2427 17.698C21.1642 17.6932 21.086 17.7118 21.0179 17.7513C20.9498 17.7907 20.8949 17.8494 20.86 17.92ZM14.26 8.59999C14.3677 8.65318 14.4848 8.68463 14.6046 8.69256C14.7245 8.70049 14.8447 8.68473 14.9585 8.6462C15.0722 8.60766 15.1773 8.5471 15.2676 8.46796C15.3579 8.38883 15.4318 8.29267 15.485 8.18499C15.5382 8.07731 15.5696 7.9602 15.5776 7.84036C15.5855 7.72052 15.5697 7.60029 15.5312 7.48654C15.4927 7.37279 15.4321 7.26774 15.353 7.1774C15.2738 7.08705 15.1777 7.01318 15.07 6.95999C14.8525 6.85258 14.6013 6.83596 14.3716 6.91378C14.1418 6.99161 13.9524 7.15751 13.845 7.37499C13.7376 7.59247 13.721 7.84371 13.7988 8.07344C13.8766 8.30317 14.0425 8.49258 14.26 8.59999V8.59999ZM16.48 6.12999C16.6311 6.20459 16.801 6.2326 16.968 6.21044C17.1351 6.18829 17.2918 6.11699 17.4182 6.00558C17.5447 5.89418 17.6351 5.74771 17.6781 5.58478C17.7212 5.42184 17.7148 5.2498 17.6598 5.09051C17.6048 4.93121 17.5037 4.79186 17.3694 4.69014C17.235 4.58842 17.0735 4.52893 16.9052 4.51923C16.737 4.50953 16.5697 4.55005 16.4245 4.63565C16.2794 4.72126 16.1629 4.84807 16.09 4.99999C16.0407 5.09966 16.0117 5.20814 16.0046 5.31911C15.9976 5.43009 16.0126 5.54137 16.0489 5.64648C16.0852 5.7516 16.142 5.84847 16.216 5.93147C16.29 6.01447 16.3797 6.08195 16.48 6.12999ZM19.01 4.12999C19.1957 4.22149 19.4101 4.23549 19.606 4.16892C19.802 4.10234 19.9635 3.96064 20.055 3.77499C20.1465 3.58934 20.1605 3.37494 20.0939 3.17897C20.0274 2.98299 19.8857 2.82149 19.7 2.72999C19.513 2.63717 19.2968 2.62242 19.099 2.68899C18.9011 2.75557 18.7378 2.89801 18.645 3.08499C18.5522 3.27197 18.5374 3.48816 18.604 3.68601C18.6706 3.88386 18.813 4.04717 19 4.13999L19.01 4.12999ZM22.09 3.78999C22.2529 3.86184 22.4369 3.86985 22.6055 3.81244C22.774 3.75502 22.9148 3.63636 23 3.47999C23.046 3.39307 23.074 3.29775 23.0823 3.19974C23.0905 3.10174 23.0789 3.00308 23.0481 2.90968C23.0172 2.81629 22.9679 2.73008 22.9029 2.65624C22.8379 2.5824 22.7587 2.52245 22.67 2.47999C22.4999 2.40016 22.3053 2.38998 22.1278 2.45164C21.9503 2.5133 21.804 2.6419 21.72 2.80999C21.6738 2.89834 21.6467 2.99544 21.6405 3.09495C21.6344 3.19446 21.6492 3.29415 21.6841 3.38755C21.719 3.48094 21.7732 3.56593 21.8431 3.637C21.9131 3.70806 21.9972 3.7636 22.09 3.79999V3.78999ZM23.78 6.38999C23.9325 6.46558 24.1088 6.47749 24.2701 6.4231C24.4313 6.36872 24.5644 6.25249 24.64 6.09999C24.7156 5.94749 24.7275 5.77121 24.6731 5.60993C24.6187 5.44865 24.5025 5.31558 24.35 5.23999C24.1975 5.1644 24.0212 5.15249 23.8599 5.20688C23.6987 5.26126 23.5656 5.37749 23.49 5.52999C23.4144 5.68249 23.4025 5.85877 23.4569 6.02005C23.5113 6.18133 23.6275 6.3144 23.78 6.38999V6.38999ZM23.85 9.49999C23.9505 9.54461 24.0618 9.55921 24.1704 9.54201C24.279 9.52482 24.3803 9.47657 24.4622 9.40309C24.544 9.32961 24.6028 9.23403 24.6315 9.12787C24.6602 9.02172 24.6576 8.90952 24.624 8.80482C24.5904 8.70011 24.5272 8.60736 24.4421 8.53775C24.357 8.46814 24.2535 8.42464 24.1442 8.41251C24.0349 8.40037 23.9244 8.42011 23.8261 8.46934C23.7278 8.51858 23.6458 8.59521 23.59 8.68999C23.5508 8.75959 23.5265 8.83652 23.5184 8.91598C23.5103 8.99544 23.5188 9.0757 23.5432 9.15174C23.5676 9.22779 23.6075 9.29797 23.6602 9.35789C23.713 9.41782 23.7776 9.4662 23.85 9.49999V9.49999ZM23.26 12.6C23.3785 12.6449 23.5094 12.644 23.6273 12.5977C23.7452 12.5513 23.8416 12.4627 23.8978 12.3491C23.954 12.2356 23.9658 12.1052 23.9311 11.9833C23.8964 11.8615 23.8176 11.7569 23.71 11.69C23.6496 11.6524 23.582 11.6279 23.5115 11.618C23.4411 11.6081 23.3693 11.6131 23.3009 11.6326C23.2325 11.6521 23.1689 11.6857 23.1142 11.7312C23.0595 11.7767 23.015 11.8332 22.9835 11.897C22.9519 11.9608 22.9341 12.0304 22.9311 12.1015C22.9281 12.1726 22.94 12.2435 22.966 12.3097C22.9921 12.3759 23.0317 12.436 23.0823 12.486C23.1329 12.536 23.1935 12.5748 23.26 12.6V12.6Z" fill="black"/>
</svg>
