<svg width="32" height="32" viewBox="0 0 32 32" fill="none" xmlns="http://www.w3.org/2000/svg">
<path d="M14.7071 11.7071C15.0976 11.3166 15.0976 10.6834 14.7071 10.2929C14.3166 9.90237 13.6834 9.90237 13.2929 10.2929L10.2929 13.2929C9.90237 13.6834 9.90237 14.3166 10.2929 14.7071C10.6834 15.0976 11.3166 15.0976 11.7071 14.7071L14.7071 11.7071Z" fill="black"/>
<path d="M16 15C15.4477 15 15 14.5523 15 14C15 13.4477 15.4477 13 16 13C16.5523 13 17 13.4477 17 14C17 14.5523 16.5523 15 16 15Z" fill="black"/>
<path d="M18 17C18.5523 17 19 16.5523 19 16C19 15.4477 18.5523 15 18 15C17.4477 15 17 15.4477 17 16C17 16.5523 17.4477 17 18 17Z" fill="black"/>
<path d="M15 18C15 18.5523 15.4477 19 16 19C16.5523 19 17 18.5523 17 18C17 17.4477 16.5523 17 16 17C15.4477 17 15 17.4477 15 18Z" fill="black"/>
<path d="M14 17C14.5523 17 15 16.5523 15 16C15 15.4477 14.5523 15 14 15C13.4477 15 13 15.4477 13 16C13 16.5523 13.4477 17 14 17Z" fill="black"/>
<path d="M21.7071 18.7071L18.7071 21.7071C18.3166 22.0976 17.6834 22.0976 17.2929 21.7071C16.9024 21.3166 16.9024 20.6834 17.2929 20.2929L20.2929 17.2929C20.6834 16.9024 21.3166 16.9024 21.7071 17.2929C22.0976 17.6834 22.0976 18.3166 21.7071 18.7071Z" fill="black"/>
<path fill-rule="evenodd" clip-rule="evenodd" d="M16 7.58579L19.2451 4.34071C20.3317 2.93075 22.101 2 24 2C27.3523 2 30 4.64772 30 8C30 9.89899 29.0693 11.6683 27.6593 12.7549L24.4142 16L27.6593 19.2451C29.0693 20.3317 30 22.101 30 24C30 27.3523 27.3523 30 24 30C22.101 30 20.3317 29.0693 19.2451 27.6593L16 24.4142L12.7549 27.6593C11.6683 29.0693 9.89899 30 8 30C4.64772 30 2 27.3523 2 24C2 22.101 2.93075 20.3317 4.34071 19.2451L7.58579 16L4.34071 12.7549C2.93075 11.6683 2 9.89899 2 8C2 4.64772 4.64772 2 8 2C9.89899 2 11.6683 2.93075 12.7549 4.34071L16 7.58579ZM20.8 5.6C21.5177 4.6431 22.7255 4 24 4C26.2477 4 28 5.75228 28 8C28 9.27452 27.3569 10.4823 26.4 11.2C26.3621 11.2284 26.3264 11.2594 26.2929 11.2929L23 14.5858L17.4142 9L20.7071 5.70711C20.7406 5.67365 20.7716 5.63786 20.8 5.6ZM5.70711 11.2929C5.67365 11.2594 5.63786 11.2284 5.6 11.2C4.6431 10.4823 4 9.27452 4 8C4 5.75228 5.75228 4 8 4C9.27452 4 10.4823 4.6431 11.2 5.6C11.2284 5.63786 11.2594 5.67365 11.2929 5.70711L26.2929 20.7071C26.3264 20.7406 26.3621 20.7716 26.4 20.8C27.3569 21.5177 28 22.7255 28 24C28 26.2477 26.2477 28 24 28C22.7255 28 21.5177 27.3569 20.8 26.4C20.7716 26.3621 20.7406 26.3264 20.7071 26.2929L5.70711 11.2929ZM9 17.4142L5.70711 20.7071C5.67365 20.7406 5.63786 20.7716 5.6 20.8C4.6431 21.5177 4 22.7255 4 24C4 26.2477 5.75228 28 8 28C9.27452 28 10.4823 27.3569 11.2 26.4C11.2284 26.3621 11.2594 26.3264 11.2929 26.2929L14.5858 23L9 17.4142Z" fill="black"/>
</svg>
