<svg width="32" height="32" viewBox="0 0 32 32" fill="none" xmlns="http://www.w3.org/2000/svg">
<path d="M16.1 13C15.5523 13 15.1 13.4523 15.1 14C15.1 14.5477 15.5523 15 16.1 15C17.7523 15 19.1 16.3477 19.1 18C19.1 19.3019 18.2632 20.4148 17.1 20.8282V21C17.1 21.5523 16.6523 22 16.1 22C15.5477 22 15.1 21.5523 15.1 21H14.1C13.5477 21 13.1 20.5523 13.1 20C13.1 19.4477 13.5477 19 14.1 19H16.1C16.6477 19 17.1 18.5477 17.1 18C17.1 17.4523 16.6477 17 16.1 17C14.4477 17 13.1 15.6523 13.1 14C13.1 12.6981 13.9368 11.5852 15.1 11.1718V11C15.1 10.4477 15.5477 10 16.1 10C16.6523 10 17.1 10.4477 17.1 11H18.1C18.6523 11 19.1 11.4477 19.1 12C19.1 12.5523 18.6523 13 18.1 13H16.1Z" fill="black"/>
<path fill-rule="evenodd" clip-rule="evenodd" d="M20 5C20.5272 5 21.0443 5.18011 21.4321 5.56789C21.8199 5.95567 22 6.47275 22 7V24C22 24.5272 21.8199 25.0443 21.4321 25.4321C21.0443 25.8199 20.5272 26 20 26H12C11.4728 26 10.9557 25.8199 10.5679 25.4321C10.1801 25.0443 10 24.5272 10 24V7C10 6.47275 10.1801 5.95567 10.5679 5.56789C10.9557 5.18011 11.4728 5 12 5H20ZM12 24V7H13.1C13.1 7.55228 13.5477 8 14.1 8H18.1C18.6523 8 19.1 7.55228 19.1 7H20V24H12Z" fill="black"/>
<path d="M8.44721 11.2056C8.94119 11.4526 9.14142 12.0533 8.89443 12.5473C8.3669 13.6023 8.1 14.7484 8.1 16.0001C8.1 17.2518 8.3669 18.3978 8.89443 19.4529C9.14142 19.9468 8.94119 20.5475 8.44721 20.7945C7.95324 21.0415 7.35256 20.8413 7.10557 20.3473C6.4331 19.0023 6.1 17.5484 6.1 16.0001C6.1 14.4518 6.4331 12.9978 7.10557 11.6529C7.35256 11.1589 7.95324 10.9587 8.44721 11.2056Z" fill="black"/>
<path d="M25.0944 11.6529C24.8474 11.1589 24.2468 10.9587 23.7528 11.2056C23.2588 11.4526 23.0586 12.0533 23.3056 12.5473C23.8331 13.6023 24.1 14.7484 24.1 16.0001C24.1 17.2518 23.8331 18.3978 23.3056 19.4529C23.0586 19.9468 23.2588 20.5475 23.7528 20.7945C24.2468 21.0415 24.8474 20.8413 25.0944 20.3473C25.7669 19.0023 26.1 17.5484 26.1 16.0001C26.1 14.4518 25.7669 12.9978 25.0944 11.6529Z" fill="black"/>
<path d="M24.3786 5.90757C24.7611 5.50916 25.3941 5.49624 25.7925 5.87871C28.4829 8.46144 30.1 12.0195 30.1 16.0001C30.1 19.8885 28.4781 23.3291 26.022 25.892C25.6399 26.2907 25.0068 26.3042 24.6081 25.9221C24.2094 25.54 24.1959 24.9069 24.578 24.5082C26.7219 22.2711 28.1 19.3117 28.1 16.0001C28.1 12.5807 26.7171 9.53876 24.4075 7.32149C24.0091 6.93901 23.9961 6.30598 24.3786 5.90757Z" fill="black"/>
<path d="M7.62199 7.49196C8.00412 7.09321 7.99065 6.46019 7.59191 6.07806C7.19316 5.69593 6.56014 5.7094 6.17801 6.10814C3.72192 8.67102 2.1 12.1116 2.1 16C2.1 19.9807 3.71713 23.5387 6.40747 26.1214C6.80588 26.5039 7.43891 26.491 7.82139 26.0926C8.20386 25.6942 8.19094 25.0611 7.79253 24.6787C5.48287 22.4614 4.1 19.4194 4.1 16C4.1 12.6885 5.47808 9.72908 7.62199 7.49196Z" fill="black"/>
</svg>
