<svg width="32" height="32" viewBox="0 0 32 32" fill="none" xmlns="http://www.w3.org/2000/svg">
<path d="M14 14C14 12.8523 14.8523 12 16 12H19C19.5523 12 20 11.5523 20 11C20 10.4477 19.5523 10 19 10H17V9C17 8.44772 16.5523 8 16 8C15.4477 8 15 8.44772 15 9V10.1198C13.2509 10.5502 12 12.0945 12 14C12 16.2523 13.7477 18 16 18C17.1477 18 18 18.8523 18 20C18 21.1477 17.1477 22 16 22H13C12.4477 22 12 22.4477 12 23C12 23.5523 12.4477 24 13 24H15V25C15 25.5523 15.4477 26 16 26C16.5523 26 17 25.5523 17 25V23.8802C18.7491 23.4498 20 21.9055 20 20C20 17.7477 18.2523 16 16 16C14.8523 16 14 15.1477 14 14Z" fill="black"/>
<path fill-rule="evenodd" clip-rule="evenodd" d="M21 2H11C8.74772 2 7 3.74772 7 6V26C7 28.2523 8.74772 30 11 30H21C23.2523 30 25 28.2523 25 26V6C25 3.74772 23.2523 2 21 2ZM11 4C9.85228 4 9 4.85228 9 6V26C9 27.1477 9.85228 28 11 28H21C22.1477 28 23 27.1477 23 26V6C23 4.85228 22.1477 4 21 4H20C20 4.52725 19.8199 5.04433 19.4321 5.43211C19.0443 5.81989 18.5272 6 18 6H14C13.4728 6 12.9557 5.81989 12.5679 5.43211C12.1801 5.04433 12 4.52725 12 4H11Z" fill="black"/>
</svg>
