<svg width="32" height="32" viewBox="0 0 32 32" fill="none" xmlns="http://www.w3.org/2000/svg">
<path d="M26.21 14.24C25.9644 16.138 24.9753 17.8609 23.46 19.03C21.9351 20.001 20.1455 20.4729 18.34 20.38H17.65C17.1381 20.3803 16.6429 20.5625 16.2528 20.894C15.8626 21.2255 15.603 21.6848 15.52 22.19V22.48L14.66 27.95V28.17H10.56L12 17.95C12.0072 17.905 12.0304 17.864 12.0652 17.8346C12.1001 17.8053 12.1444 17.7894 12.19 17.79H14.77C17.3105 17.8913 19.8187 17.1916 21.94 15.79C23.8232 14.3967 25.1574 12.3865 25.71 10.11C26.0687 10.7287 26.298 11.4137 26.3839 12.1237C26.4699 12.8336 26.4107 13.5536 26.21 14.24V14.24ZM27.13 8.46999C26.6895 7.98025 26.1645 7.57377 25.58 7.26999L25.2 7.06999C25.2622 6.36321 25.178 5.6512 24.9526 4.97844C24.7272 4.30569 24.3654 3.68664 23.89 3.15999C22.58 1.65999 20.22 1.01999 17.19 1.01999H8.4C8.09915 1.01926 7.80813 1.12707 7.58035 1.32362C7.35257 1.52017 7.20333 1.79227 7.16 2.08999L3.5 25.29C3.48263 25.3972 3.48874 25.5069 3.51793 25.6115C3.54712 25.7162 3.59868 25.8132 3.66905 25.8959C3.73942 25.9787 3.82692 26.0451 3.9255 26.0907C4.02408 26.1363 4.13139 26.1599 4.24 26.16H8.6L8.25 28.37C8.21109 28.6162 8.22586 28.8679 8.29328 29.1079C8.36071 29.3479 8.4792 29.5705 8.64065 29.7604C8.80209 29.9504 9.00268 30.1032 9.22867 30.2084C9.45467 30.3136 9.70073 30.3687 9.95 30.37H14.52C15.0305 30.37 15.5245 30.1893 15.9144 29.8598C16.3043 29.5303 16.5649 29.0733 16.65 28.57V28.35L17.52 22.86L17.57 22.57H18.26C20.5065 22.6677 22.7271 22.0593 24.61 20.83C25.5974 20.0992 26.4308 19.1806 27.0623 18.127C27.6938 17.0733 28.111 15.9053 28.29 14.69C28.8 12.01 28.42 9.92999 27.13 8.46999V8.46999Z" fill="black"/>
</svg>
