<svg width="32" height="32" viewBox="0 0 32 32" fill="none" xmlns="http://www.w3.org/2000/svg">
<path d="M23.55 1.02999C24.82 1.02999 24.79 0.80999 24.78 2.25999C24.78 3.48999 25.02 3.47999 23.54 3.48999C22.06 3.49999 22.31 3.48999 22.31 2.26999C22.3 0.82999 22.18 1.02999 23.55 1.02999ZM24.75 7.12999C25.47 7.12999 25.81 7.44999 25.75 8.12999V12.25C25.75 13.01 25.47 13.25 24.75 13.25H22.57V10.09C22.57 10.09 22.57 10.04 22.57 10.01C22.5693 9.74895 22.4857 9.49488 22.3311 9.28454C22.1765 9.07421 21.9589 8.91851 21.71 8.83999H21.85C21.0813 8.66623 20.3034 8.53602 19.52 8.44999V12.57C19.5727 12.7835 19.6944 12.9737 19.8661 13.1111C20.0379 13.2485 20.2501 13.3254 20.47 13.33H22.58V22.69C22.58 22.69 22.58 22.8 22.58 22.86C22.5767 24.2921 22.1404 25.6898 21.3284 26.8694C20.5164 28.0491 19.3666 28.9556 18.03 29.47H18.13C16.4499 30.125 14.6632 30.4641 12.86 30.47C12.2616 30.4713 11.6637 30.4346 11.07 30.36V30.36C9.51861 30.2759 7.9993 29.8851 6.59999 29.21V29.21C5.45187 28.6784 4.47745 27.833 3.78916 26.7713C3.10087 25.7097 2.72675 24.4751 2.70999 23.21C2.57999 18.91 2.57999 14.79 2.57999 10.69C2.57999 9.22999 3.15999 8.68999 4.63999 8.68999H6.63999C8.23999 8.68999 8.80999 9.24999 8.80999 10.85V21.88V21.94C8.8055 22.2959 8.83902 22.6512 8.90999 23V23C8.98781 23.4381 9.19213 23.8439 9.49776 24.1673C9.80339 24.4907 10.197 24.7176 10.63 24.82H10.58C11.229 25.0146 11.9024 25.1157 12.58 25.12C13.2573 25.1229 13.9314 25.0252 14.58 24.83V24.83C15.1199 24.7174 15.6046 24.4223 15.9524 23.9943C16.3003 23.5663 16.4901 23.0315 16.49 22.48C16.49 22.41 16.49 22.34 16.49 22.28V11.18C16.49 9.10999 17.04 8.57999 19.1 8.69999C19.48 8.69999 19.62 8.57999 19.62 8.15999C19.6039 8.0248 19.6187 7.88771 19.6633 7.75907C19.7078 7.63042 19.781 7.51357 19.8773 7.41729C19.9736 7.32102 20.0904 7.24785 20.2191 7.20328C20.3477 7.15871 20.4848 7.14391 20.62 7.15999L24.75 7.12999ZM29.39 3.84999C29.3767 3.96294 29.3767 4.07704 29.39 4.18999V6.79999C29.22 6.90999 29.05 7.09999 28.89 7.09999H26.47C26.04 7.09999 25.87 6.89999 25.87 6.49999V4.10999C25.87 3.71999 26.04 3.51999 26.42 3.51999H28.93C29.08 3.51999 29.24 3.66999 29.39 3.75999V3.85999V3.84999Z" fill="black"/>
</svg>
