<svg width="32" height="32" viewBox="0 0 32 32" fill="none" xmlns="http://www.w3.org/2000/svg">
<path fill-rule="evenodd" clip-rule="evenodd" d="M17.4944 3.44743C17.7414 2.95345 17.5412 2.35278 17.0472 2.10579C16.5532 1.8588 15.9526 2.05903 15.7056 2.55301L14.1907 5.58276L6.4 8.17966V8.90042C6.4 12.1088 5.58102 15.7764 4.7394 18.685C4.32125 20.13 3.90295 21.3696 3.58954 22.2468C3.43293 22.6852 3.30276 23.0324 3.21222 23.2688C3.16696 23.387 3.13163 23.4774 3.10788 23.5376L3.08178 23.6035C3.05563 23.664 3.03575 23.7266 3.02214 23.7903C2.99024 23.938 2.99307 24.0875 3.02635 24.2288C3.09134 24.5048 3.27246 24.7494 3.53779 24.8873C3.5813 24.91 3.62615 24.9292 3.6719 24.9451C3.8339 25.0015 4.00159 25.0136 4.16111 24.9873C4.21734 24.98 4.27904 24.9639 4.34724 24.9382C4.36029 24.9334 4.37326 24.9283 4.38613 24.9229L4.39523 24.9193L4.46246 24.8926C4.52259 24.8689 4.61292 24.8337 4.73099 24.7886C4.96716 24.6983 5.3141 24.5686 5.75216 24.4129C6.62883 24.1012 7.86755 23.6863 9.31168 23.2745C12.219 22.4457 15.8822 21.6525 19.0851 21.7003L19.8202 21.7112L22.4198 13.8083L25.4472 12.2946C25.9412 12.0477 26.1414 11.447 25.8944 10.953C25.6474 10.459 25.0468 10.2588 24.5528 10.5058L21.7975 11.8835L16.1168 6.20277L17.4944 3.44743ZM8.76332 21.3512C8.42067 21.4489 8.08925 21.5467 7.77099 21.6434L12.4348 16.9796C12.93 17.248 13.4972 17.4004 14.1 17.4004C16.033 17.4004 17.6 15.8334 17.6 13.9004C17.6 11.9674 16.033 10.4004 14.1 10.4004C13.4724 10.4004 12.8834 10.5656 12.3741 10.8548C11.5116 11.3447 10.8775 12.1904 10.6717 13.1923C10.6247 13.421 10.6 13.6578 10.6 13.9004C10.6 14.5031 10.7523 15.0702 11.0206 15.5654L6.36964 20.2163C6.4658 19.9032 6.56319 19.5775 6.66059 19.2409C6.74329 18.9551 6.8262 18.6608 6.9085 18.3592C7.62185 15.7451 8.29029 12.5803 8.38781 9.62524L14.6301 7.54449L20.4578 13.3723L18.3755 19.7026C15.0783 19.7681 11.5234 20.5643 8.76332 21.3512ZM12.6 13.9004C12.6 13.072 13.2716 12.4004 14.1 12.4004C14.9284 12.4004 15.6 13.072 15.6 13.9004C15.6 14.7288 14.9284 15.4004 14.1 15.4004C13.2716 15.4004 12.6 14.7288 12.6 13.9004Z" fill="black"/>
<path d="M3 27.0002C2.44772 27.0002 2 27.448 2 28.0002C2 28.5525 2.44772 29.0002 3 29.0002H29C29.5523 29.0002 30 28.5525 30 28.0002C30 27.448 29.5523 27.0002 29 27.0002H3Z" fill="black"/>
</svg>
