<svg width="32" height="32" viewBox="0 0 32 32" fill="none" xmlns="http://www.w3.org/2000/svg">
<path fill-rule="evenodd" clip-rule="evenodd" d="M19.4472 2.10579C19.9412 2.35278 20.1414 2.95345 19.8944 3.44743L18.2168 6.80277L25.1974 13.7835L28.5528 12.1058C29.0468 11.8588 29.6474 12.059 29.8944 12.553C30.1414 13.047 29.9412 13.6477 29.4472 13.8946L25.8177 15.7094L22.7208 25.0003H22C18.1397 25.0003 13.7457 25.9701 10.2747 26.9618C8.54822 27.4551 7.06795 27.9485 6.02033 28.3183C5.49677 28.503 5.08194 28.6567 4.79921 28.7637C4.65786 28.8172 4.54958 28.859 4.47729 28.8871L4.39624 28.9189L4.37665 28.9267L4.37247 28.9283C4.14215 29.0208 3.87725 29.0282 3.62862 28.9287C3.11583 28.7236 2.86642 28.1417 3.07153 27.6289L3.07362 27.6236L3.08138 27.604L3.11315 27.523C3.14132 27.4507 3.18311 27.3424 3.2366 27.2011C3.34357 26.9183 3.49723 26.5035 3.68202 25.9799C4.05177 24.9323 4.54519 23.4521 5.03848 21.7255C6.03019 18.2546 7.00001 13.8605 7.00001 10.0003V9.27951L16.2908 6.18259L18.1056 2.55301C18.3526 2.05903 18.9532 1.8588 19.4472 2.10579ZM6.38225 24.2039L12.5539 18.0323C12.2019 17.4367 12 16.7421 12 16.0002C12 13.7911 13.7909 12.0002 16 12.0002C18.2091 12.0002 20 13.7911 20 16.0002C20 18.2094 18.2091 20.0002 16 20.0002C15.2582 20.0002 14.5636 19.7983 13.9681 19.4465L7.79658 25.618C8.39448 25.4298 9.04099 25.2343 9.72529 25.0387C13.0498 24.0889 17.33 23.1196 21.2759 23.0104L23.8559 15.2703L16.7299 8.14438L8.98983 10.7244C8.88067 14.6703 7.91138 18.9505 6.96153 22.275C6.766 22.9594 6.57049 23.6059 6.38225 24.2039ZM16 14.0002C14.8954 14.0002 14 14.8957 14 16.0002C14 17.1048 14.8954 18.0002 16 18.0002C17.1046 18.0002 18 17.1048 18 16.0002C18 14.8957 17.1046 14.0002 16 14.0002Z" fill="black"/>
</svg>
