<svg width="32" height="32" viewBox="0 0 32 32" fill="none" xmlns="http://www.w3.org/2000/svg">
<path d="M21 15.69C21 16.6789 20.7068 17.6456 20.1574 18.4678C19.6079 19.2901 18.8271 19.931 17.9134 20.3094C16.9998 20.6878 15.9945 20.7868 15.0246 20.5939C14.0546 20.401 13.1637 19.9248 12.4645 19.2255C11.7652 18.5263 11.289 17.6353 11.0961 16.6654C10.9032 15.6955 11.0022 14.6902 11.3806 13.7766C11.759 12.8629 12.3999 12.0821 13.2222 11.5326C14.0444 10.9832 15.0111 10.69 16 10.69C17.3261 10.69 18.5979 11.2168 19.5355 12.1545C20.4732 13.0921 21 14.3639 21 15.69ZM16 1.01999C19.8907 1.01999 23.6221 2.56558 26.3733 5.31674C29.1244 8.06789 30.67 11.7993 30.67 15.69C30.67 19.5807 29.1244 23.3121 26.3733 26.0632C23.6221 28.8144 19.8907 30.36 16 30.36C14.2937 30.3625 12.6006 30.0612 11 29.47V22.47C12.5416 23.6001 14.4194 24.177 16.3296 24.1073C18.2397 24.0375 20.0705 23.3252 21.5255 22.0856C22.9805 20.846 23.9747 19.1517 24.3471 17.2769C24.7194 15.4021 24.4483 13.4565 23.5774 11.7549C22.7066 10.0534 21.287 8.69547 19.5485 7.901C17.81 7.10654 15.8542 6.92198 13.9978 7.37722C12.1413 7.83245 10.4928 8.90082 9.31902 10.4094C8.14525 11.918 7.5149 13.7786 7.53 15.69V15.69V27.69C4.97781 25.8953 3.06429 23.3336 2.06742 20.3771C1.07055 17.4206 1.04226 14.2232 1.98666 11.2495C2.93106 8.27585 4.79896 5.68071 7.319 3.84111C9.83904 2.00152 12.88 1.01329 16 1.01999V1.01999Z" fill="black"/>
</svg>
