<svg width="32" height="32" viewBox="0 0 32 32" fill="none" xmlns="http://www.w3.org/2000/svg">
<path d="M9.20001 14C9.20001 12.8523 10.0523 12 11.2 12H14.2C14.7523 12 15.2 11.5523 15.2 11C15.2 10.4477 14.7523 10 14.2 10H12.2V9C12.2 8.44772 11.7523 8 11.2 8C10.6477 8 10.2 8.44772 10.2 9V10.1198C8.45094 10.5502 7.20001 12.0945 7.20001 14C7.20001 16.2523 8.94773 18 11.2 18C12.3477 18 13.2 18.8523 13.2 20C13.2 21.1477 12.3477 22 11.2 22H8.20001C7.64773 22 7.20001 22.4477 7.20001 23C7.20001 23.5523 7.64773 24 8.20001 24H10.2V25C10.2 25.5523 10.6477 26 11.2 26C11.7523 26 12.2 25.5523 12.2 25V23.8802C13.9491 23.4498 15.2 21.9055 15.2 20C15.2 17.7477 13.4523 16 11.2 16C10.0523 16 9.20001 15.1477 9.20001 14Z" fill="black"/>
<path fill-rule="evenodd" clip-rule="evenodd" d="M16.1 2H6.10001C3.84772 2 2.10001 3.74772 2.10001 6V26C2.10001 28.2523 3.84772 30 6.10001 30H16.1C18.2305 30 20.1 28.2738 20.1 26V6C20.1 3.74772 18.3523 2 16.1 2ZM6.10001 4C4.95229 4 4.10001 4.85228 4.10001 6V26C4.10001 27.1477 4.95229 28 6.10001 28H16.1C17.1695 28 18.1 27.1262 18.1 26V6C18.1 4.85228 17.2477 4 16.1 4H15.1C15.1 5.21615 14.0862 6 13.1 6H9.10001C8.57276 6 8.05568 5.81989 7.6679 5.43211C7.28012 5.04433 7.10001 4.52725 7.10001 4H6.10001Z" fill="black"/>
<path d="M26.4794 5.16639C26.0742 4.79116 25.4415 4.8155 25.0662 5.22074C24.691 5.62599 24.7153 6.25869 25.1206 6.63391C27.6106 8.93948 29.1 12.271 29.1 16.0002C29.1 19.6214 27.6151 22.8708 25.2929 25.193C24.9024 25.5836 24.9024 26.2167 25.2929 26.6073C25.6834 26.9978 26.3166 26.9978 26.7071 26.6073C29.3848 23.9295 31.1 20.1789 31.1 16.0002C31.1 11.7293 29.3894 7.86083 26.4794 5.16639Z" fill="black"/>
<path d="M22.1567 7.93114C22.5262 7.52063 23.1585 7.48735 23.569 7.85681C25.7845 9.85081 27.1 12.7232 27.1 16.0001C27.1 19.1871 25.7779 22.0454 23.5888 24.1251C23.1883 24.5055 22.5554 24.4893 22.175 24.0889C21.7946 23.6884 21.8108 23.0555 22.2113 22.6751C24.0221 20.9548 25.1 18.6131 25.1 16.0001C25.1 13.277 24.0155 10.9494 22.231 9.3434C21.8205 8.97394 21.7872 8.34165 22.1567 7.93114Z" fill="black"/>
</svg>
