<svg width="32" height="32" viewBox="0 0 32 32" fill="none" xmlns="http://www.w3.org/2000/svg">
<path d="M16.3303 3.05617C15.8091 2.87372 15.2386 3.1484 15.0561 3.66968C14.8737 4.19096 15.1484 4.76144 15.6696 4.94389C21.4762 6.97618 26.0238 11.5238 28.0561 17.3304C28.2386 17.8517 28.8091 18.1263 29.3303 17.9439C29.8516 17.7614 30.1263 17.191 29.9439 16.6697C27.7105 10.2887 22.7113 5.2895 16.3303 3.05617Z" fill="black"/>
<path fill-rule="evenodd" clip-rule="evenodd" d="M2.82136 6.99169C3.39238 6.4226 4.24196 6 5.23304 6H8.54426C10.0899 6 11.5938 7.12263 11.7476 8.80916C11.8362 9.77998 12.1027 10.6813 12.4825 11.6275L12.4866 11.6376L12.4904 11.6478C12.9312 12.8195 12.6364 14.1335 11.7587 15.0083L10.9091 15.855C12.2609 17.9877 14.0512 19.7714 16.1106 21.0475L16.9693 20.1917C17.8465 19.3174 19.1616 19.0255 20.3331 19.4633L20.3432 19.4671L20.3533 19.4711C21.2542 19.8302 22.169 20.0162 23.2718 20.216C24.8656 20.5048 26 21.9311 26 23.5V26.8C26 27.7133 25.5566 28.5571 25.0035 29.1083L24.9643 29.1474L24.921 29.1819C24.2391 29.7256 23.4163 30 22.5918 30H22.5334L22.4754 29.9932C18.9369 29.5783 15.4729 28.4355 12.5135 26.4379C9.6736 24.6526 7.372 22.2479 5.60125 19.5489C3.60429 16.5111 2.4546 13.0675 2.03502 9.53889C1.88852 8.61122 2.21196 7.74108 2.74743 7.07401L2.78211 7.03081L2.82136 6.99169ZM4.27188 8.37128C4.038 8.68215 3.96999 8.98463 4.01187 9.23506L4.01584 9.25883L4.01867 9.28277C4.40393 12.5464 5.46102 15.6948 7.27272 18.4507C8.91049 20.947 11.0194 23.1393 13.5911 24.753L13.6056 24.7621L13.6197 24.7716C16.259 26.5565 19.3882 27.6086 22.6442 27.9992C22.9887 27.9887 23.3324 27.8746 23.6291 27.653C23.8571 27.4068 24 27.0721 24 26.8V23.5C24 22.8689 23.529 22.2952 22.9152 22.184C21.8146 21.9845 20.7264 21.7713 19.6245 21.3336C19.1927 21.1759 18.7058 21.2847 18.3811 21.6083L16.4438 23.539L15.786 23.1749C12.9102 21.5826 10.4727 19.1488 8.78048 16.1974L8.39931 15.5326L10.3468 13.5917C10.671 13.2686 10.7783 12.787 10.6217 12.3607C10.201 11.3105 9.86757 10.2154 9.75587 8.99084C9.70903 8.47737 9.20607 8 8.54426 8H5.23304C4.84176 8 4.50343 8.15871 4.27188 8.37128Z" fill="black"/>
<path d="M15.0872 7.95895C15.3127 7.45481 15.9042 7.22896 16.4084 7.4545C20.4922 9.28147 23.7187 12.5079 25.5456 16.5918C25.7712 17.0959 25.5453 17.6874 25.0412 17.9129C24.537 18.1385 23.9455 17.9126 23.72 17.4085C22.0938 13.7736 19.2266 10.9063 15.5916 9.28013C15.0875 9.0546 14.8617 8.46308 15.0872 7.95895Z" fill="black"/>
</svg>
