<svg width="32" height="32" viewBox="0 0 32 32" fill="none" xmlns="http://www.w3.org/2000/svg">
<path fill-rule="evenodd" clip-rule="evenodd" d="M21 2H11C8.74772 2 7 3.74772 7 6V26C7 28.2523 8.74772 30 11 30H21C23.2523 30 25 28.2523 25 26V6C25 3.74772 23.2523 2 21 2ZM11 4C9.85228 4 9 4.85228 9 6V26C9 27.1477 9.85228 28 11 28H21C22.1477 28 23 27.1477 23 26V6C23 4.85228 22.1477 4 21 4H20C20 4.52725 19.8199 5.04433 19.4321 5.43211C19.0443 5.81989 18.5272 6 18 6H14C13.4728 6 12.9557 5.81989 12.5679 5.43211C12.1801 5.04433 12 4.52725 12 4H11Z" fill="black"/>
</svg>
