<svg width="32" height="32" viewBox="0 0 32 32" fill="none" xmlns="http://www.w3.org/2000/svg">
<path fill-rule="evenodd" clip-rule="evenodd" d="M5.7 4C5.16701 4 4.75996 4.1901 4.46822 4.54018L4.43918 4.57503L4.40711 4.60711C4.16793 4.84628 4.0224 5.21693 4.09228 5.77597L4.09381 5.78821L4.09504 5.8005C4.47863 9.63642 5.82264 13.3851 7.93957 16.6567L7.9403 16.6579C9.8697 19.6485 12.3681 22.2383 15.43 24.152L15.4367 24.1562L15.4433 24.1604C18.6998 26.2676 22.4291 27.609 26.2466 27.9996C26.7911 27.9906 27.2621 27.8237 27.4929 27.5929C27.8131 27.2727 28 26.824 28 26.4V22.5C28 21.5494 27.4177 20.9068 26.6479 20.7884C25.2941 20.5801 24.044 20.2679 22.7996 19.854C22.0877 19.645 21.3974 19.8168 21.0071 20.2071L18.7708 22.4434L18.1097 22.0716C14.7471 20.1801 11.9196 17.3487 9.93338 13.899L9.55098 13.2348L11.7677 11.0181C12.2718 10.43 12.3941 9.82773 12.1715 9.27139L12.1606 9.24411L12.1513 9.21623C11.7348 7.96656 11.4208 6.71166 11.2116 5.35206C11.0898 4.56004 10.4271 4 9.6 4H5.7ZM2.96058 3.22568C3.66683 2.39892 4.64738 2 5.7 2H9.6C11.3729 2 12.9102 3.23996 13.1884 5.04794C13.3778 6.27919 13.661 7.41655 14.0402 8.55834C14.5965 9.98405 14.1255 11.3609 13.2526 12.3585L13.2307 12.3836L12.0592 13.555C13.705 16.186 15.8939 18.3747 18.4404 19.9454L19.5929 18.7929C20.6002 17.7856 22.1039 17.5571 23.3873 17.9422L23.4019 17.9465L23.4162 17.9513C24.5666 18.3348 25.7117 18.6208 26.9521 18.8116C28.7823 19.0932 30 20.6506 30 22.5V26.4C30 27.376 29.5869 28.3273 28.9071 29.0071C28.1445 29.7697 27.0358 30 26.2 30H26.1501L26.1005 29.995C21.939 29.5789 17.8901 28.1244 14.3633 25.8438C11.0284 23.758 8.32922 20.9497 6.26007 17.7427C3.97933 14.2177 2.52405 10.1709 2.10613 6.01111C1.98153 4.98943 2.22796 3.97997 2.96058 3.22568Z" fill="black"/>
</svg>
