<svg width="32" height="32" viewBox="0 0 32 32" fill="none" xmlns="http://www.w3.org/2000/svg">
<path d="M18.57 17.56C18.76 16.71 18.94 15.85 19.12 15.01C19.205 14.6832 19.252 14.3476 19.26 14.01V14.01V13.95C19.2585 13.6842 19.1681 13.4266 19.0032 13.2182C18.8383 13.0097 18.6083 12.8625 18.35 12.8V12.8C18.0228 12.7196 17.687 12.6793 17.35 12.68H15.59C15.76 11.85 15.93 11.04 16.1 10.23H14.49L13 17.55H14.6C14.86 16.32 15.11 15.1 15.37 13.87H16.81C16.9832 13.8902 17.1539 13.927 17.32 13.98V13.98C17.3935 13.9971 17.4595 14.0375 17.5081 14.0952C17.5568 14.1528 17.5855 14.2247 17.59 14.3V14.3C17.5954 14.3799 17.5954 14.4601 17.59 14.54C17.595 14.6266 17.595 14.7134 17.59 14.8V14.8C17.43 15.56 17.26 16.33 17.09 17.11L17 17.56H18.58H18.57ZM21.24 16.36H22.94C23.1162 16.3549 23.289 16.311 23.4463 16.2315C23.6036 16.152 23.7414 16.0388 23.85 15.9C24.0589 15.6079 24.174 15.2591 24.18 14.9C24.1847 14.8334 24.1847 14.7666 24.18 14.7V14.7C24.1711 14.6044 24.1414 14.512 24.093 14.4291C24.0446 14.3462 23.9788 14.2748 23.9 14.22C23.7324 14.0942 23.5295 14.0243 23.32 14.02H21.71C21.55 14.75 21.4 15.55 21.24 16.37V16.36ZM20.31 12.69H23.73C24.2044 12.6899 24.6667 12.8405 25.05 13.12C25.2702 13.2709 25.4512 13.472 25.5782 13.7068C25.7051 13.9415 25.7743 14.2032 25.78 14.47C25.78 14.53 25.78 14.59 25.78 14.66C25.7831 15.4104 25.5048 16.1347 25 16.69V16.69C24.6459 17.085 24.1714 17.3522 23.65 17.45V17.45C23.183 17.5483 22.7072 17.5985 22.23 17.6H21.03C20.92 18.22 20.81 18.82 20.71 19.43H19C19.45 17.19 19.86 14.95 20.28 12.74L20.31 12.69ZM8.36001 16.32H10.11C10.287 16.3067 10.4588 16.2541 10.6128 16.1658C10.7668 16.0776 10.8991 15.956 11 15.81C11.2095 15.5182 11.3247 15.1692 11.33 14.81C11.335 14.7401 11.335 14.6699 11.33 14.6V14.6C11.3216 14.4943 11.287 14.3924 11.2294 14.3034C11.1718 14.2143 11.093 14.141 11 14.09V14.09C10.8267 13.9679 10.6218 13.8984 10.41 13.89H8.82001C8.67001 14.7 8.52001 15.5 8.36001 16.32V16.32ZM8.14002 17.55L7.81001 19.39H6.19001L7.43001 12.69H10.81C11.1562 12.6921 11.4977 12.7706 11.81 12.92V12.92C12.118 13.0472 12.3832 13.2598 12.5745 13.5326C12.7658 13.8054 12.8753 14.1271 12.89 14.46V14.46V14.69C12.8831 15.4241 12.6175 16.1323 12.14 16.69V16.69C11.7798 17.0876 11.2981 17.3549 10.77 17.45V17.45C10.3038 17.553 9.82747 17.6033 9.35002 17.6H9.15001C8.83001 17.6 8.49001 17.6 8.15001 17.6L8.14002 17.55ZM16.23 8.97H16C14.5728 8.96978 13.148 9.08684 11.74 9.32H11.89C10.4357 9.54734 9.01055 9.93296 7.64001 10.47H7.78001C6.70969 10.8725 5.70014 11.421 4.78001 12.1V12.1C4.06707 12.5728 3.46078 13.1893 3.00001 13.91V13.91C2.68167 14.4484 2.51896 15.0646 2.53001 15.69C2.52855 16.247 2.66239 16.7961 2.92001 17.29C3.28607 17.9871 3.78952 18.6028 4.40001 19.1V19.1C5.41155 19.9268 6.55389 20.579 7.78001 21.03H7.86001C8.71826 21.3638 9.60085 21.6313 10.5 21.83H10.63C11.8338 22.1026 13.0579 22.2765 14.29 22.35H14.36C14.88 22.35 15.48 22.4 16.08 22.4C16.68 22.4 17.29 22.4 17.88 22.34H17.8C18.8726 22.2865 19.9412 22.1696 21 21.99H20.83C22.1744 21.7351 23.4883 21.3396 24.75 20.81L24.62 20.86C25.5016 20.5082 26.3376 20.0516 27.11 19.5V19.5C27.8201 19.0205 28.4285 18.4054 28.9 17.69V17.69C29.2565 17.1479 29.4571 16.5184 29.48 15.87V15.87C29.4862 15.1596 29.2808 14.4634 28.89 13.87V13.87C28.4361 13.1603 27.8485 12.5455 27.16 12.06V12.06C26.1476 11.3265 25.0322 10.7469 23.85 10.34H23.76C22.2965 9.83507 20.7799 9.49954 19.24 9.34H19.15C18.2003 9.18755 17.2415 9.09736 16.28 9.07L16.23 8.97ZM16 7.75C17.0022 7.74728 18.0038 7.8007 19 7.91H18.88C20.4872 8.07756 22.0725 8.41271 23.61 8.91H23.45C24.9435 9.35943 26.3597 10.0338 27.65 10.91H27.6C28.4873 11.4959 29.2544 12.246 29.86 13.12V13.12C30.3187 13.7889 30.6007 14.5629 30.68 15.37V15.37C30.68 15.51 30.68 15.66 30.68 15.82C30.6805 16.642 30.4631 17.4494 30.05 18.16V18.16C29.6194 18.9226 29.0535 19.6003 28.38 20.16C27.3394 21.005 26.1716 21.68 24.92 22.16H24.84C23.9279 22.5345 22.9885 22.8387 22.03 23.07H21.9C21.09 23.25 20.29 23.4 19.48 23.5C18.3263 23.6523 17.1638 23.7291 16 23.73H15.39C14.3628 23.712 13.3376 23.6319 12.32 23.49H12.46C10.8167 23.286 9.20056 22.9038 7.64001 22.35H7.80001C6.72194 21.9844 5.6887 21.498 4.72001 20.9H4.79001C3.88171 20.3546 3.07339 19.6579 2.40001 18.84V18.84C1.83947 18.1398 1.47072 17.3058 1.33001 16.42V16.42C1.28924 16.1788 1.26917 15.9346 1.27001 15.69C1.27107 15.0926 1.39001 14.5013 1.62001 13.95V13.95C1.98961 13.0854 2.5463 12.3136 3.25001 11.69V11.69C4.14136 10.8732 5.15323 10.1986 6.25001 9.69H6.32001C7.68271 9.05545 9.11614 8.58548 10.59 8.29H10.72C11.6857 8.0821 12.6648 7.94176 13.65 7.87H13.73L16 7.69V7.75Z" fill="black"/>
</svg>
