<svg width="32" height="32" viewBox="0 0 32 32" fill="none" xmlns="http://www.w3.org/2000/svg">
<path d="M5 7C5 5.35228 6.35228 4 8 4C9.64772 4 11 5.35228 11 7V7.2C11 7.75228 11.4477 8.2 12 8.2C12.5523 8.2 13 7.75228 13 7.2V7C13 4.24772 10.7523 2 8 2C5.24772 2 3 4.24772 3 7C3 9.00687 4.13782 10.6254 5.7259 11.4805C6.21217 11.7423 6.81863 11.5604 7.08047 11.0741C7.34231 10.5878 7.16037 9.98137 6.6741 9.71953C5.66218 9.17465 5 8.19313 5 7Z" fill="black"/>
<path d="M24 16C24 16.5523 23.5523 17 23 17C22.4477 17 22 16.5523 22 16C22 15.4477 22.4477 15 23 15C23.5523 15 24 15.4477 24 16Z" fill="black"/>
<path fill-rule="evenodd" clip-rule="evenodd" d="M24 5C21.73 5 19.8699 6.55843 19.2244 8.55467C18.4839 8.45165 17.7423 8.4 17 8.4C11.0412 8.4 5.77344 11.8902 5.07776 16.7928C4.4245 16.4728 4 15.81 4 15C4 14.4568 4.20054 14.0137 4.50711 13.7071C4.89763 13.3166 4.89763 12.6834 4.50711 12.2929C4.11658 11.9024 3.48342 11.9024 3.09289 12.2929C2.39946 12.9863 2 13.9432 2 15C2 16.9277 3.28024 18.4857 5.06133 18.8948C5.31958 20.9642 6.38049 22.7644 8 24.1701V29C8 29.5523 8.44772 30 9 30H14C14.5523 30 15 29.5523 15 29V27.275C15.6659 27.3583 16.3327 27.4 17 27.4V29C17 29.5523 17.4477 30 18 30H23C23.5523 30 24 29.5523 24 29V25.5874C25.2019 24.8877 26.3038 24.0306 27.1113 22.998C28.7124 22.9391 30 21.615 30 20V17C30 16.4477 29.5523 16 29 16H28.7261C28.1999 13.9023 26.8117 12.1166 25 10.8602V6C25 5.44772 24.5523 5 24 5ZM20.995 9.7995C21.1135 8.6149 21.9231 7.58659 23 7.18257V11.4C23 11.7463 23.1792 12.068 23.4736 12.2503C25.3768 13.4284 26.6554 15.1896 26.9084 17.1293C26.9734 17.6274 27.3977 18 27.9 18H28V20C28 20.5477 27.5477 21 27 21H26.6C26.2656 21 25.9534 21.1671 25.768 21.4453C25.0949 22.4548 23.9529 23.3584 22.5294 24.1176C22.2035 24.2914 22 24.6307 22 25V28H19V26.4C19 25.8477 18.5523 25.4 18 25.4H17C16.0671 25.4 15.1328 25.3068 14.1961 25.1194C13.9023 25.0607 13.5977 25.1367 13.366 25.3267C13.1343 25.5166 13 25.8004 13 26.1V28H10V23.7C10 23.394 9.85985 23.1048 9.61964 22.9151C7.92056 21.5737 7 19.8472 7 17.9C7 13.9759 11.1983 10.4 17 10.4C17.9329 10.4 18.8672 10.4932 19.8039 10.6806C20.0806 10.7359 20.3678 10.6718 20.5947 10.504C20.8216 10.3362 20.967 10.0803 20.995 9.7995Z" fill="black"/>
</svg>
