<svg width="32" height="32" viewBox="0 0 32 32" fill="none" xmlns="http://www.w3.org/2000/svg">
<path fill-rule="evenodd" clip-rule="evenodd" d="M26.9321 4.31789C23.8416 1.22737 18.7084 1.22737 15.6179 4.31789L4.31789 15.6179C1.22737 18.7084 1.22737 23.8416 4.31789 26.9321C7.40842 30.0226 12.5416 30.0226 15.6321 26.9321L26.9321 15.6321C30.0226 12.5416 30.0226 7.40842 26.9321 4.31789ZM17.0321 5.73211C19.3416 3.42263 23.2084 3.42263 25.5179 5.73211C27.8274 8.04158 27.8274 11.9084 25.5179 14.2179L20.575 19.1608L12.0892 10.675L17.0321 5.73211ZM10.675 12.0893L5.73211 17.0321C3.42263 19.3416 3.42263 23.2084 5.73211 25.5179C8.04158 27.8274 11.9084 27.8274 14.2179 25.5179L19.1607 20.5751L10.675 12.0893Z" fill="black"/>
</svg>
