<svg width="32" height="32" viewBox="0 0 32 32" fill="none" xmlns="http://www.w3.org/2000/svg">
<path fill-rule="evenodd" clip-rule="evenodd" d="M27.52 1.01999H2.37999C2.10284 1.01999 1.83704 1.13009 1.64106 1.32606C1.44508 1.52204 1.33499 1.78784 1.33499 2.06499C1.33499 2.34214 1.44508 2.60794 1.64106 2.80392C1.83704 2.99989 2.10284 3.10999 2.37999 3.10999H27.52C27.6598 3.10281 27.7995 3.12505 27.9301 3.17527C28.0608 3.2255 28.1794 3.30259 28.2784 3.40156C28.3774 3.50054 28.4545 3.61918 28.5047 3.74983C28.5549 3.88047 28.5772 4.02021 28.57 4.15999V27.16C28.5772 27.2998 28.5549 27.4395 28.5047 27.5702C28.4545 27.7008 28.3774 27.8194 28.2784 27.9184C28.1794 28.0174 28.0608 28.0945 27.9301 28.1447C27.7995 28.1949 27.6598 28.2172 27.52 28.21H4.51999C4.3802 28.2172 4.24047 28.1949 4.10983 28.1447C3.97918 28.0945 3.86053 28.0174 3.76156 27.9184C3.66259 27.8194 3.5855 27.7008 3.53527 27.5702C3.48504 27.4395 3.4628 27.2998 3.46999 27.16V14.16C3.4628 14.0202 3.48504 13.8805 3.53527 13.7498C3.5855 13.6192 3.66259 13.5005 3.76156 13.4016C3.86053 13.3026 3.97918 13.2255 4.10983 13.1753C4.24047 13.125 4.3802 13.1028 4.51999 13.11H15.71L10.38 18.44C10.2795 18.5391 10.2011 18.6584 10.15 18.79C10.0935 18.9175 10.0643 19.0555 10.0643 19.195C10.0643 19.3345 10.0935 19.4724 10.15 19.6C10.199 19.7326 10.2777 19.8523 10.38 19.95L15.71 25.28C15.9089 25.4802 16.1792 25.5932 16.4615 25.5942C16.7437 25.5951 17.0147 25.4839 17.215 25.285C17.4152 25.0861 17.5282 24.8158 17.5292 24.5335C17.5301 24.2513 17.4189 23.9802 17.22 23.78L13.71 20.26H24.51C24.7746 20.2343 25.0203 20.111 25.199 19.9141C25.3777 19.7173 25.4767 19.4609 25.4767 19.195C25.4767 18.9291 25.3777 18.6727 25.199 18.4758C25.0203 18.279 24.7746 18.1557 24.51 18.13H13.67L19 12.87C19.0969 12.768 19.1748 12.6494 19.23 12.52C19.2865 12.3924 19.3157 12.2545 19.3157 12.115C19.3157 11.9755 19.2865 11.8375 19.23 11.71C19.1748 11.5805 19.0969 11.462 19 11.36L13.67 6.02999C13.5721 5.92868 13.4548 5.84811 13.3251 5.79308C13.1953 5.73806 13.0559 5.7097 12.915 5.7097C12.7741 5.7097 12.6346 5.73806 12.5049 5.79308C12.3752 5.84811 12.2579 5.92868 12.16 6.02999C12.0602 6.12775 11.9809 6.24444 11.9268 6.37323C11.8727 6.50201 11.8448 6.6403 11.8448 6.77999C11.8448 6.91968 11.8727 7.05797 11.9268 7.18675C11.9809 7.31553 12.0602 7.43223 12.16 7.52999L15.67 11.05H4.47999C3.64628 11.05 2.84658 11.3805 2.25613 11.9691C1.66568 12.5576 1.33263 13.3563 1.32999 14.19V27.19C1.32999 28.0254 1.66186 28.8266 2.2526 29.4174C2.84334 30.0081 3.64455 30.34 4.47999 30.34H27.48C28.3154 30.34 29.1166 30.0081 29.7074 29.4174C30.2981 28.8266 30.63 28.0254 30.63 27.19V4.18999C30.63 3.35456 30.2981 2.55334 29.7074 1.9626C29.1166 1.37186 28.3154 1.03999 27.48 1.03999" fill="black"/>
</svg>
