<svg width="32" height="32" viewBox="0 0 32 32" fill="none" xmlns="http://www.w3.org/2000/svg">
<path fill-rule="evenodd" clip-rule="evenodd" d="M23.3601 3.20417C24.7294 1.69791 27.188 1.55067 28.7071 3.06973C30.2262 4.58879 30.0789 7.04745 28.5727 8.41678L28.5713 8.41804L23.7097 12.821L26.9729 26.5455C27.0532 26.8833 26.9526 27.2385 26.7071 27.4839L24.7071 29.4839C24.4903 29.7007 24.1861 29.8061 23.8817 29.7698C23.5773 29.7335 23.3063 29.5596 23.1465 29.298L16.8744 19.0263L10 25.2218V28.7768C10 29.1813 9.75636 29.5459 9.38268 29.7007C9.00901 29.8555 8.57889 29.7699 8.29289 29.4839L2.29289 23.4839C2.00689 23.1979 1.92134 22.7678 2.07612 22.3942C2.2309 22.0205 2.59554 21.7768 3 21.7768H6.55504L12.7505 14.9024L2.47885 8.63031C2.21721 8.47054 2.0433 8.19958 2.00702 7.89517C1.97075 7.59075 2.07611 7.28651 2.29289 7.06973L4.29289 5.06973C4.53836 4.82426 4.89358 4.72366 5.23131 4.80396L18.9559 8.06714L23.3588 3.20556L23.3601 3.20417ZM24.8406 4.5488C24.8404 4.54904 24.8402 4.54928 24.8399 4.54951L20.0412 9.84812C19.7963 10.1185 19.4236 10.2341 19.0687 10.1497L5.31212 6.87893L4.60553 7.58552L14.8211 13.8234C15.075 13.9784 15.2467 14.2384 15.2896 14.5328C15.3324 14.8272 15.242 15.1253 15.0428 15.3463L7.74284 23.4463C7.55321 23.6567 7.28325 23.7768 7 23.7768H5.41421L8 26.3626V24.7768C8 24.4936 8.12012 24.2236 8.33053 24.034L16.4305 16.734C16.6515 16.5349 16.9497 16.4444 17.2441 16.4873C17.5384 16.5301 17.7984 16.7018 17.9535 16.9557L24.1913 27.1713L24.8979 26.4647L21.6271 12.7082C21.5427 12.3532 21.6583 11.9805 21.9287 11.7356L27.2273 6.9369C27.2276 6.93667 27.2278 6.93643 27.2281 6.9362C27.9211 6.30538 27.9736 5.16464 27.2929 4.48395C26.6122 3.80324 25.4714 3.85574 24.8406 4.5488Z" fill="black"/>
</svg>
