<svg width="32" height="32" viewBox="0 0 32 32" fill="none" xmlns="http://www.w3.org/2000/svg">
<path d="M22.11 12.69C22.1039 12.4622 22.0303 12.2414 21.8986 12.0556C21.7668 11.8697 21.5828 11.7272 21.3699 11.6461C21.157 11.5649 20.9248 11.5489 20.7028 11.5999C20.4807 11.6509 20.2789 11.7668 20.1228 11.9327C19.9667 12.0987 19.8634 12.3072 19.826 12.532C19.7886 12.7567 19.8188 12.9875 19.9128 13.195C20.0068 13.4026 20.1603 13.5775 20.3539 13.6977C20.5474 13.8179 20.7723 13.8778 21 13.87C21.3033 13.8595 21.5901 13.7296 21.798 13.5086C22.006 13.2876 22.1181 12.9933 22.11 12.69ZM9.4 18.69L17.4 10.69C17.5456 10.5435 17.7434 10.4608 17.95 10.46H22.55C22.7569 10.46 22.9553 10.5422 23.1015 10.6884C23.2478 10.8347 23.33 11.0331 23.33 11.24V15.84C23.3307 15.9424 23.3107 16.044 23.2712 16.1385C23.2317 16.233 23.1734 16.3185 23.1 16.39L15.1 24.39C14.9509 24.5336 14.752 24.6138 14.545 24.6138C14.338 24.6138 14.1391 24.5336 13.99 24.39L9.4 19.79C9.32657 19.7185 9.26835 19.633 9.22882 19.5385C9.1893 19.444 9.16929 19.3424 9.17 19.24C9.1719 19.0337 9.25445 18.8362 9.4 18.69V18.69ZM7.07 19.24C7.07236 19.613 7.14871 19.9818 7.29461 20.3252C7.44052 20.6685 7.65308 20.9794 7.92 21.24L12.51 25.84C13.0513 26.3768 13.7827 26.6779 14.545 26.6779C15.3073 26.6779 16.0387 26.3768 16.58 25.84L24.58 17.84C25.1127 17.3101 25.4146 16.5913 25.42 15.84V11.24C25.4174 10.4779 25.1128 9.74793 24.5729 9.20998C24.0331 8.67204 23.3021 8.36998 22.54 8.36999H18C17.2496 8.37968 16.5323 8.68092 16 9.20999L8 17.21C7.46456 17.7389 7.15915 18.4575 7.15 19.21L7.07 19.24ZM27.52 1.01999H2.38C2.10152 1.01999 1.83445 1.13061 1.63754 1.32753C1.44062 1.52444 1.33 1.79151 1.33 2.06999C1.33 2.34847 1.44062 2.61554 1.63754 2.81245C1.83445 3.00936 2.10152 3.11999 2.38 3.11999H27.52C27.6598 3.11281 27.7995 3.13505 27.9302 3.18527C28.0608 3.2355 28.1795 3.31259 28.2784 3.41156C28.3774 3.51054 28.4545 3.62918 28.5047 3.75983C28.5549 3.89047 28.5772 4.03021 28.57 4.16999V27.17C28.5772 27.3098 28.5549 27.4495 28.5047 27.5802C28.4545 27.7108 28.3774 27.8294 28.2784 27.9284C28.1795 28.0274 28.0608 28.1045 27.9302 28.1547C27.7995 28.2049 27.6598 28.2272 27.52 28.22H4.52C4.38022 28.2272 4.24048 28.2049 4.10984 28.1547C3.97919 28.1045 3.86055 28.0274 3.76158 27.9284C3.6626 27.8294 3.58551 27.7108 3.53528 27.5802C3.48506 27.4495 3.46282 27.3098 3.47 27.17V8.35999C3.46983 8.22435 3.49726 8.0901 3.55061 7.96539C3.60396 7.84069 3.68212 7.72814 3.78034 7.6346C3.87856 7.54106 3.99479 7.46847 4.12194 7.42126C4.2491 7.37405 4.38453 7.35321 4.52 7.35999H13.9C14.1785 7.35999 14.4455 7.24936 14.6425 7.05245C14.8394 6.85554 14.95 6.58847 14.95 6.30999C14.95 6.03151 14.8394 5.76444 14.6425 5.56753C14.4455 5.37061 14.1785 5.25999 13.9 5.25999H4.48C3.65316 5.25989 2.85943 5.58489 2.27011 6.16486C1.68078 6.74482 1.34312 7.53325 1.33 8.35999V27.21C1.33 28.0454 1.66187 28.8466 2.25261 29.4374C2.84335 30.0281 3.64457 30.36 4.48 30.36H27.48C28.3154 30.36 29.1166 30.0281 29.7074 29.4374C30.2981 28.8466 30.63 28.0454 30.63 27.21V4.20999C30.6353 3.79632 30.559 3.38565 30.4056 3.00145C30.2522 2.61725 30.0245 2.26704 29.7357 1.97081C29.4469 1.67459 29.1026 1.43815 28.7224 1.27501C28.3423 1.11186 27.9337 1.02521 27.52 1.01999V1.01999Z" fill="black"/>
</svg>
