<svg xmlns="http://www.w3.org/2000/svg" width="64" height="64" viewBox="0 0 64 64">
  <title>plug</title>
  <path d="M39.5,10H47a0,0,0,0,1,0,0V37a0,0,0,0,1,0,0H39.5A13.5,13.5,0,0,1,26,23.5v0A13.5,13.5,0,0,1,39.5,10Z" fill="none" stroke="#000" stroke-linecap="round" stroke-linejoin="round" stroke-width="4"/>
  <path d="M4,34V47a6,6,0,0,0,6,6h0a6,6,0,0,0,6-6V30a6,6,0,0,1,6-6h4" fill="none" stroke="#000" stroke-linecap="round" stroke-linejoin="round" stroke-width="4"/>
  <line x1="47" y1="16" x2="60" y2="16" fill="none" stroke="#000" stroke-linecap="round" stroke-linejoin="round" stroke-width="4"/>
  <line x1="47" y1="32" x2="60" y2="32" fill="none" stroke="#000" stroke-linecap="round" stroke-linejoin="round" stroke-width="4"/>
</svg>
