<svg width="32" height="32" viewBox="0 0 32 32" fill="none" xmlns="http://www.w3.org/2000/svg">
<path d="M14 9.5C14 10.3284 13.3284 11 12.5 11C11.6716 11 11 10.3284 11 9.5C11 8.67157 11.6716 8 12.5 8C13.3284 8 14 8.67157 14 9.5Z" fill="black"/>
<path fill-rule="evenodd" clip-rule="evenodd" d="M9 12C7.34315 12 6 13.3431 6 15C6 16.6569 7.34315 18 9 18C10.6569 18 12 16.6569 12 15C12 13.3431 10.6569 12 9 12ZM8 15C8 14.4477 8.44772 14 9 14C9.55228 14 10 14.4477 10 15C10 15.5523 9.55228 16 9 16C8.44772 16 8 15.5523 8 15Z" fill="black"/>
<path fill-rule="evenodd" clip-rule="evenodd" d="M16 12C14.3431 12 13 13.3431 13 15C13 16.6569 14.3431 18 16 18C17.6569 18 19 16.6569 19 15C19 13.3431 17.6569 12 16 12ZM15 15C15 14.4477 15.4477 14 16 14C16.5523 14 17 14.4477 17 15C17 15.5523 16.5523 16 16 16C15.4477 16 15 15.5523 15 15Z" fill="black"/>
<path fill-rule="evenodd" clip-rule="evenodd" d="M9 22C9 20.3431 10.3431 19 12 19C13.6569 19 15 20.3431 15 22C15 23.6569 13.6569 25 12 25C10.3431 25 9 23.6569 9 22ZM12 21C11.4477 21 11 21.4477 11 22C11 22.5523 11.4477 23 12 23C12.5523 23 13 22.5523 13 22C13 21.4477 12.5523 21 12 21Z" fill="black"/>
<path fill-rule="evenodd" clip-rule="evenodd" d="M20 19C18.3431 19 17 20.3431 17 22C17 23.6569 18.3431 25 20 25C21.6569 25 23 23.6569 23 22C23 20.3431 21.6569 19 20 19ZM19 22C19 21.4477 19.4477 21 20 21C20.5523 21 21 21.4477 21 22C21 22.5523 20.5523 23 20 23C19.4477 23 19 22.5523 19 22Z" fill="black"/>
<path fill-rule="evenodd" clip-rule="evenodd" d="M20 15C20 13.3431 21.3431 12 23 12C24.6569 12 26 13.3431 26 15C26 16.6569 24.6569 18 23 18C21.3431 18 20 16.6569 20 15ZM23 14C22.4477 14 22 14.4477 22 15C22 15.5523 22.4477 16 23 16C23.5523 16 24 15.5523 24 15C24 14.4477 23.5523 14 23 14Z" fill="black"/>
<path d="M19.5 11C20.3284 11 21 10.3284 21 9.5C21 8.67157 20.3284 8 19.5 8C18.6716 8 18 8.67157 18 9.5C18 10.3284 18.6716 11 19.5 11Z" fill="black"/>
<path fill-rule="evenodd" clip-rule="evenodd" d="M8.9 4C7.85264 4 6.79269 4.3931 5.9929 5.19289L5.98538 5.20041L5.97802 5.20809C3.51368 7.77957 1.89239 11.3316 2.00037 15.327L2.00044 15.3294C2.21579 22.6513 8.13097 28.6759 15.4559 28.999L15.4595 28.9992C23.4312 29.3224 30 22.9642 30 15C30 11.2384 28.4972 7.68297 26.0071 5.19289C25.2073 4.3931 24.1474 4 23.1 4H8.9ZM3.99961 15.2718C3.90806 11.8719 5.28315 8.82774 7.41404 6.60021C7.81354 6.20452 8.35055 6 8.9 6H23.1C23.6526 6 24.1927 6.2069 24.5929 6.60711C26.7028 8.71703 28 11.7616 28 15C28 21.8352 22.3698 27.2766 15.5424 27.0009C9.26853 26.7232 4.18486 21.5488 3.99961 15.2718Z" fill="black"/>
</svg>
