<svg width="32" height="32" viewBox="0 0 32 32" fill="none" xmlns="http://www.w3.org/2000/svg">
<path d="M9.71 15.69V17.79C9.71265 18.6237 10.0457 19.4223 10.6361 20.0109C11.2266 20.5995 12.0263 20.93 12.86 20.93H19.14C19.9728 20.93 20.7715 20.5992 21.3603 20.0103C21.9492 19.4214 22.28 18.6228 22.28 17.79V15.69C22.2809 14.8652 22.1189 14.0483 21.8031 13.2864C21.4873 12.5244 21.0241 11.8324 20.44 11.25C20.249 11.059 19.9901 10.9518 19.72 10.9518C19.4499 10.9518 19.191 11.059 19 11.25C18.809 11.441 18.7018 11.6999 18.7018 11.97C18.7018 12.24 18.809 12.499 19 12.69C19.3954 13.0822 19.708 13.5499 19.9193 14.0652C20.1306 14.5806 20.2362 15.1331 20.23 15.69V17.79C20.2302 17.9256 20.2027 18.0599 20.1494 18.1846C20.096 18.3093 20.0179 18.4218 19.9197 18.5154C19.8214 18.6089 19.7052 18.6815 19.5781 18.7287C19.4509 18.7759 19.3155 18.7968 19.18 18.79H12.86C12.5948 18.79 12.3404 18.6846 12.1529 18.4971C11.9654 18.3096 11.86 18.0552 11.86 17.79V15.69C11.8599 14.5873 12.2945 13.5291 13.0695 12.7448C13.8445 11.9604 14.8974 11.5132 16 11.5C16.1398 11.5072 16.2795 11.4849 16.4102 11.4347C16.5408 11.3845 16.6595 11.3074 16.7584 11.2084C16.8574 11.1094 16.9345 10.9908 16.9847 10.8602C17.0349 10.7295 17.0572 10.5898 17.05 10.45V8.36C17.05 7.52457 16.7181 6.72335 16.1274 6.13261C15.5366 5.54187 14.7354 5.21 13.9 5.21H4.48C3.64457 5.21 2.84335 5.54187 2.25262 6.13261C1.66188 6.72335 1.33 7.52457 1.33 8.36V27.21C1.33 28.0454 1.66188 28.8466 2.25262 29.4374C2.84335 30.0281 3.64457 30.36 4.48 30.36H27.48C28.3154 30.36 29.1166 30.0281 29.7074 29.4374C30.2981 28.8466 30.63 28.0454 30.63 27.21V4.21C30.63 3.37457 30.2981 2.57335 29.7074 1.98261C29.1166 1.39187 28.3154 1.06 27.48 1.06H2.38C2.10152 1.06 1.83445 1.17062 1.63754 1.36754C1.44063 1.56445 1.33 1.83152 1.33 2.11C1.33 2.38847 1.44063 2.65555 1.63754 2.85246C1.83445 3.04937 2.10152 3.16 2.38 3.16H27.52C27.6598 3.15281 27.7995 3.17506 27.9302 3.22528C28.0608 3.27551 28.1795 3.3526 28.2784 3.45157C28.3774 3.55055 28.4545 3.66919 28.5047 3.79984C28.5549 3.93048 28.5772 4.07021 28.57 4.21V27.21C28.5772 27.3498 28.5549 27.4895 28.5047 27.6202C28.4545 27.7508 28.3774 27.8695 28.2784 27.9684C28.1795 28.0674 28.0608 28.1445 27.9302 28.1947C27.7995 28.2449 27.6598 28.2672 27.52 28.26H4.52C4.38022 28.2672 4.24049 28.2449 4.10984 28.1947C3.9792 28.1445 3.86055 28.0674 3.76158 27.9684C3.66261 27.8695 3.58551 27.7508 3.53529 27.6202C3.48506 27.4895 3.46282 27.3498 3.47 27.21V8.36C3.46983 8.22436 3.49726 8.09011 3.55061 7.9654C3.60396 7.8407 3.68213 7.72815 3.78035 7.63461C3.87857 7.54107 3.99479 7.46848 4.12195 7.42127C4.2491 7.37406 4.38453 7.35322 4.52 7.36H13.9C14.1652 7.36 14.4196 7.46535 14.6071 7.65289C14.7946 7.84043 14.9 8.09478 14.9 8.36V9.49C13.4451 9.74883 12.1281 10.5124 11.1806 11.6464C10.2332 12.7805 9.71598 14.2123 9.72 15.69H9.71ZM19.14 25.18V22.97C19.14 22.7048 19.0346 22.4504 18.8471 22.2629C18.6596 22.0754 18.4052 21.97 18.14 21.97H18C17.7348 21.97 17.4804 22.0754 17.2929 22.2629C17.1054 22.4504 17 22.7048 17 22.97V25.18C17 25.4452 17.1054 25.6996 17.2929 25.8871C17.4804 26.0746 17.7348 26.18 18 26.18H18.11C18.2438 26.184 18.3771 26.1611 18.5019 26.1127C18.6267 26.0642 18.7405 25.9912 18.8366 25.8979C18.9326 25.8047 19.009 25.6931 19.0611 25.5697C19.1132 25.4464 19.1401 25.3139 19.14 25.18V25.18ZM13.96 26.18H13.85C13.5848 26.18 13.3304 26.0746 13.1429 25.8871C12.9554 25.6996 12.85 25.4452 12.85 25.18V22.97C12.85 22.7048 12.9554 22.4504 13.1429 22.2629C13.3304 22.0754 13.5848 21.97 13.85 21.97H14C14.2652 21.97 14.5196 22.0754 14.7071 22.2629C14.8946 22.4504 15 22.7048 15 22.97V25.18C14.9974 25.4435 14.8908 25.6953 14.7036 25.8806C14.5163 26.066 14.2635 26.17 14 26.17L13.96 26.18Z" fill="black"/>
</svg>
