<svg width="32" height="32" viewBox="0 0 32 32" fill="none" xmlns="http://www.w3.org/2000/svg">
<path fill-rule="evenodd" clip-rule="evenodd" d="M12 10C9.74771 10 8 11.7477 8 14V25C8 26.1477 7.14772 27 6 27C4.85228 27 4 26.1477 4 25V19C4 18.4477 3.55228 18 3 18C2.44772 18 2 18.4477 2 19V25C2 27.2523 3.74772 29 6 29C8.25229 29 10 27.2523 10 25V14C10 12.8523 10.8523 12 12 12V15C12 17.2523 13.7477 19 16 19H24C24.5523 19 25 18.5523 25 18V15H29C29.5523 15 30 14.5523 30 14C30 13.4477 29.5523 13 29 13H25V9H29C29.5523 9 30 8.55228 30 8C30 7.44772 29.5523 7 29 7H25V4C25 3.44772 24.5523 3 24 3H16C13.7477 3 12 4.74772 12 7V10ZM14 7C14 5.85228 14.8523 5 16 5H23V17H16C14.8523 17 14 16.1477 14 15V7Z" fill="black"/>
</svg>
