<?xml version="1.0" encoding="UTF-8"?>
<svg width="24px" height="24px" viewBox="0 0 24 24" version="1.1" xmlns="http://www.w3.org/2000/svg" xmlns:xlink="http://www.w3.org/1999/xlink">
    <!-- Generator: Sketch 48.2 (47327) - http://www.bohemiancoding.com/sketch -->
    <title>point</title>
    <desc>Created with Sketch.</desc>
    <defs></defs>
    <g id="Page-1" stroke="none" stroke-width="1" fill="none" fill-rule="evenodd" stroke-linecap="round" stroke-linejoin="round">
        <g id="point" stroke="#000000" stroke-width="2">
            <path d="M13,9 L13,6 C13,4.343 11.657,3 10,3 L6,11 L6,21.0001235 L14.28,21 C15.277,21.011 16.131,20.286 16.28,19.3 L17.281,13.768 C17.281,13.768 20.788,13.324 22.011,12.543 C22.544,12.203 22.909,11.571 22.909,10.952 C22.909,9.259 21.247,8.993 20.66,9 L13,9 Z M6,21 L3,21 C1.896,21 1,20.104 1,19 L1,13 C1,11.896 1.896,11 3,11 L6,11 L6,21 Z" id="Stroke-1"></path>
        </g>
    </g>
</svg>