<svg width="32" height="32" viewBox="0 0 32 32" fill="none" xmlns="http://www.w3.org/2000/svg">
<path fill-rule="evenodd" clip-rule="evenodd" d="M12.1 7.5C12.1 5.54772 13.6477 4 15.6 4C16.9906 4 18.1115 4.72161 18.7742 5.91436L18.7847 5.93335L22.818 14H27C28.6523 14 30 15.3477 30 17V25C30 26.6523 28.6523 28 27 28L12.4 28C10.5247 28 8.92812 26.6691 8.52561 24.9248L8.52414 24.9184L7.19913 19H6C3.74772 19 2 17.2523 2 15C2 12.7477 3.74772 11 6 11H12.1V7.5ZM8.02297 17C8.00832 16.9997 7.99362 16.9997 7.97888 17H6C4.85228 17 4 16.1477 4 15C4 13.8523 4.85228 13 6 13H14.1V7.5C14.1 6.65228 14.7523 6 15.6 6C16.2036 6 16.6793 6.27307 17.0161 6.86825L21.2 15.2361V26H12.4C11.4764 26 10.6737 25.3324 10.4751 24.478L9.24864 19H12C12.5523 19 13 18.5523 13 18C13 17.4477 12.5523 17 12 17H8.02297ZM23.2 16V26H27C27.5477 26 28 25.5477 28 25V17C28 16.4523 27.5477 16 27 16H23.2Z" fill="black"/>
</svg>
