<svg width="32" height="32" viewBox="0 0 32 32" fill="none" xmlns="http://www.w3.org/2000/svg">
<path fill-rule="evenodd" clip-rule="evenodd" d="M24.8009 19H26C28.2523 19 30 17.2523 30 15C30 12.7477 28.2523 11 26 11H19.9V7.5C19.9 5.54772 18.3523 4 16.4 4C15.0094 4 13.8885 4.72161 13.2258 5.91436L13.2153 5.93335L9.18196 14H5C3.34772 14 2 15.3477 2 17V25C2 26.6523 3.34772 28 5 28L19.6 28C21.4753 28 23.0719 26.6691 23.4744 24.9248L24.8009 19ZM14.9839 6.86826L10.8 15.2361V26H19.6C20.5236 26 21.3263 25.3324 21.5249 24.478L22.7513 19H20C19.4477 19 19 18.5523 19 18C19 17.4477 19.4477 17 20 17H23.977C23.9917 16.9997 24.0064 16.9997 24.0211 17H26C27.1477 17 28 16.1477 28 15C28 13.8523 27.1477 13 26 13H17.9V7.5C17.9 6.65228 17.2477 6 16.4 6C15.7964 6 15.3207 6.27307 14.9839 6.86826ZM5 16C4.45228 16 4 16.4523 4 17V25C4 25.5477 4.45228 26 5 26H8.8V16H5Z" fill="black"/>
</svg>
