<svg width="32" height="32" viewBox="0 0 32 32" fill="none" xmlns="http://www.w3.org/2000/svg">
<path fill-rule="evenodd" clip-rule="evenodd" d="M16 7C14.6193 7 13.5 8.11929 13.5 9.5C13.5 10.8807 14.6193 12 16 12C17.3807 12 18.5 10.8807 18.5 9.5C18.5 8.11929 17.3807 7 16 7ZM15.5 9.5C15.5 9.22386 15.7239 9 16 9C16.2761 9 16.5 9.22386 16.5 9.5C16.5 9.77614 16.2761 10 16 10C15.7239 10 15.5 9.77614 15.5 9.5Z" fill="black"/>
<path fill-rule="evenodd" clip-rule="evenodd" d="M11.4338 3H20.5662L20.8561 3.48316L20.8567 3.48425L20.8575 3.4855L20.8589 3.4878C20.8623 3.49317 20.8684 3.50304 20.8774 3.5171C20.8954 3.54524 20.9247 3.5901 20.9654 3.64932C21.0466 3.76785 21.1727 3.94322 21.3434 4.15655C21.6856 4.58431 22.2019 5.15824 22.8902 5.73178C24.2655 6.87787 26.2968 8 29 8H30V10C30 12.6486 28.3472 14.8573 26 15.668V19H28V20C28 22.5977 26.5519 24.8711 24.3769 26.4579C22.2006 28.0456 19.2389 29 16 29C12.7611 29 9.79943 28.0456 7.62312 26.4579C5.44811 24.8711 4 22.5977 4 20V19H6V15.668C3.65278 14.8573 2 12.6486 2 10V8H3C5.70325 8 7.73451 6.87787 9.10982 5.73178C9.79806 5.15824 10.3144 4.58431 10.6566 4.15655C10.8273 3.94322 10.9534 3.76785 11.0346 3.64932C11.0753 3.5901 11.1046 3.54524 11.1226 3.5171C11.1316 3.50304 11.1377 3.49317 11.1411 3.4878L11.1429 3.48482L11.4338 3ZM8 16V19H24V16H8ZM6.10357 21C6.4022 22.433 7.33817 23.7743 8.80188 24.8421C10.6006 26.1544 13.1389 27 16 27C18.8611 27 21.3994 26.1544 23.1981 24.8421C24.6618 23.7743 25.5978 22.433 25.8964 21H6.10357ZM12.5287 5C12.4423 5.11858 12.3389 5.25527 12.2184 5.40595C11.8106 5.91569 11.2019 6.59176 10.3902 7.26822C8.93417 8.48157 6.80026 9.71416 4 9.95702V10C4 12.2477 5.75228 14 8 14H24C26.2477 14 28 12.2477 28 10V9.95702C25.1997 9.71416 23.0658 8.48157 21.6098 7.26822C20.7981 6.59176 20.1894 5.91569 19.7816 5.40595C19.6611 5.25527 19.5577 5.11858 19.4713 5H12.5287Z" fill="black"/>
</svg>
