<svg width="32" height="32" viewBox="0 0 32 32" fill="none" xmlns="http://www.w3.org/2000/svg">
<path d="M17 2.68994C17 2.13766 16.5523 1.68994 16 1.68994C15.4477 1.68994 15 2.13766 15 2.68994V15.6899C15 16.2422 15.4477 16.6899 16 16.6899C16.5523 16.6899 17 16.2422 17 15.6899V2.68994Z" fill="black"/>
<path d="M11.3916 4.61011C11.8997 4.39386 12.1364 3.80659 11.9202 3.2984C11.7039 2.79021 11.1166 2.55355 10.6084 2.7698C5.55946 4.91831 2 9.86774 2 15.69C2 23.4422 8.24772 29.69 16 29.69C23.7523 29.69 30 23.4422 30 15.69C30 9.86774 26.4405 4.91831 21.3916 2.7698C20.8834 2.55355 20.2961 2.79021 20.0798 3.2984C19.8636 3.80659 20.1003 4.39386 20.6084 4.61011C24.9595 6.4616 28 10.7122 28 15.69C28 22.3377 22.6477 27.69 16 27.69C9.35228 27.69 4 22.3377 4 15.69C4 10.7122 7.04054 6.4616 11.3916 4.61011Z" fill="black"/>
</svg>
