<?xml version="1.0" encoding="UTF-8"?>
<svg width="24px" height="24px" viewBox="0 0 24 24" version="1.1" xmlns="http://www.w3.org/2000/svg" xmlns:xlink="http://www.w3.org/1999/xlink">
    <!-- Generator: Sketch 48.2 (47327) - http://www.bohemiancoding.com/sketch -->
    <title>power-plug</title>
    <desc>Created with Sketch.</desc>
    <defs></defs>
    <g id="Page-1" stroke="none" stroke-width="1" fill="none" fill-rule="evenodd" stroke-linecap="round" stroke-linejoin="round">
        <g id="power-plug" stroke="#000000" stroke-width="1.5">
            <path d="M9,12 C9,12.5518814 8.55188141,13 8,13 C7.44811859,13 7,12.5518814 7,12 C7,11.4481186 7.44811859,11 8,11 C8.55188141,11 9,11.4481186 9,12 Z" id="Stroke-1"></path>
            <path d="M17,12 C17,12.552 16.553,13 16,13 C15.448,13 15,12.552 15,12 C15,11.448 15.448,11 16,11 C16.553,11 17,11.448 17,12 Z" id="Stroke-3"></path>
            <path d="M14,2 L14,2.81534772 C14,3.37966223 13.553,3.83580795 13,3.83580795 L11,3.83580795 C10.447,3.83580795 10,3.37966223 10,2.81534772 L10,2 C5.436,2.94596663 2,7.06250319 2,11.9994898 C2,16.9364764 5.436,21.0540334 10,22 L10,21.1836318 C10,20.6203378 10.447,20.1631716 11,20.1631716 L13,20.1631716 C13.553,20.1631716 14,20.6203378 14,21.1836318 L14,22 C18.564,21.0540334 22,16.9364764 22,11.9994898 C22,7.06250319 18.564,2.94596663 14,2 Z" id="Stroke-5"></path>
        </g>
    </g>
</svg>