<svg width="32" height="32" viewBox="0 0 32 32" fill="none" xmlns="http://www.w3.org/2000/svg">
<path d="M11 17.8999C11.8284 17.8999 12.5 17.2283 12.5 16.3999C12.5 15.5715 11.8284 14.8999 11 14.8999C10.1716 14.8999 9.5 15.5715 9.5 16.3999C9.5 17.2283 10.1716 17.8999 11 17.8999Z" fill="black"/>
<path d="M22 17.8999C22.8284 17.8999 23.5 17.2283 23.5 16.3999C23.5 15.5715 22.8284 14.8999 22 14.8999C21.1716 14.8999 20.5 15.5715 20.5 16.3999C20.5 17.2283 21.1716 17.8999 22 17.8999Z" fill="black"/>
<path fill-rule="evenodd" clip-rule="evenodd" d="M13 4.00001C13 3.67958 12.8465 3.37856 12.5871 3.19046C12.3277 3.00235 11.9938 2.94994 11.6893 3.04951C6.09322 4.87899 2 10.1518 2 16.4C2 22.6482 6.09322 27.921 11.6893 29.7505C11.9938 29.8501 12.3277 29.7977 12.5871 29.6096C12.8465 29.4214 13 29.1204 13 28.8V28.4C13 27.2523 13.8523 26.4 15 26.4H17C18.1477 26.4 19 27.2523 19 28.4V28.8C19 29.1204 19.1535 29.4214 19.4129 29.6096C19.6723 29.7977 20.0062 29.8501 20.3107 29.7505C25.9068 27.921 30 22.6482 30 16.4C30 10.1518 25.9068 4.87899 20.3107 3.04951C20.0062 2.94994 19.6723 3.00235 19.4129 3.19046C19.1535 3.37856 19 3.67958 19 4.00001V4.40001C19 5.54772 18.1477 6.40001 17 6.40001H15C13.8523 6.40001 13 5.54772 13 4.40001V4.00001ZM4 16.4C4 11.5003 6.93933 7.29179 11.1224 5.41053C11.5564 7.1541 13.0983 8.40001 15 8.40001H17C18.9016 8.40001 20.4436 7.1541 20.8776 5.41053C25.0607 7.29179 28 11.5003 28 16.4C28 21.2997 25.0607 25.5082 20.8776 27.3895C20.4436 25.6459 18.9016 24.4 17 24.4H15C13.0983 24.4 11.5564 25.6459 11.1224 27.3895C6.93933 25.5082 4 21.2997 4 16.4Z" fill="black"/>
</svg>
