<svg width="32" height="32" viewBox="0 0 32 32" fill="none" xmlns="http://www.w3.org/2000/svg">
<path d="M24.52 28.38C25.4296 27.9343 26.1249 27.1456 26.4531 26.1873C26.7812 25.2291 26.7154 24.1797 26.27 23.27V23.27L22.4 14.91C21.6339 13.2521 21.2413 11.4463 21.25 9.61999V9.43999V3.43999C21.25 2.79194 20.9933 2.17028 20.5359 1.7111C20.0786 1.25193 19.458 0.992635 18.81 0.98999H11.94C11.6912 1.02292 11.4622 1.14303 11.2937 1.32896C11.1252 1.51488 11.0281 1.75455 11.0197 2.00534C11.0113 2.25613 11.0921 2.50176 11.2478 2.69854C11.4035 2.89532 11.624 3.03049 11.87 3.07999H18.75C18.8384 3.08259 18.9224 3.11956 18.984 3.18304C19.0456 3.24652 19.08 3.33152 19.08 3.41999V9.51999C19.0799 11.7143 19.5612 13.8819 20.49 15.87V15.77L24.38 24.16C24.4847 24.3892 24.5392 24.638 24.54 24.89C24.5372 25.2178 24.4419 25.5382 24.2649 25.8142C24.088 26.0902 23.8367 26.3106 23.54 26.45V26.45C21.2051 27.6408 18.6211 28.2611 16 28.26H15.86C13.2543 28.2659 10.6854 27.6451 8.37 26.45H8.46C8.16104 26.3135 7.90773 26.0938 7.73038 25.8172C7.55303 25.5405 7.45916 25.2186 7.46 24.89C7.46203 24.635 7.5165 24.3831 7.62 24.15V24.15L9.12 21.05C9.14602 20.9966 9.18556 20.951 9.23468 20.9177C9.28381 20.8844 9.3408 20.8645 9.4 20.86H17.12C17.2514 20.8536 17.3802 20.8213 17.4991 20.7651C17.618 20.7088 17.7246 20.6296 17.8128 20.5321C17.9011 20.4346 17.9692 20.3206 18.0134 20.1967C18.0575 20.0727 18.0767 19.9414 18.07 19.81C18.0714 19.5469 17.975 19.2927 17.7994 19.0968C17.6238 18.9009 17.3817 18.7773 17.12 18.75H9.36C8.91093 18.7505 8.47072 18.875 8.08785 19.1096C7.70497 19.3443 7.39429 19.6801 7.19 20.08V20.08L5.71 23.28C5.46108 23.7905 5.3344 24.352 5.34 24.92C5.33922 25.626 5.53412 26.3184 5.90306 26.9204C6.272 27.5223 6.80053 28.0103 7.43 28.33V28.33C10.0158 29.6579 12.8832 30.3439 15.79 30.33H16C18.9871 30.3318 21.9316 29.6223 24.59 28.26H24.48L24.52 28.38ZM17.05 14.69C17.054 14.5491 17.0299 14.4089 16.979 14.2774C16.9282 14.146 16.8516 14.026 16.7538 13.9246C16.6561 13.8231 16.539 13.7421 16.4096 13.6864C16.2802 13.6306 16.1409 13.6013 16 13.6H10.87C10.5889 13.6 10.3193 13.7117 10.1205 13.9105C9.92168 14.1092 9.81 14.3789 9.81 14.66C9.81 14.9411 9.92168 15.2107 10.1205 15.4095C10.3193 15.6083 10.5889 15.72 10.87 15.72H16C16.2655 15.705 16.5157 15.5908 16.7009 15.4C16.8861 15.2093 16.9929 14.9558 17 14.69V14.69H17.05ZM16 10.51H11.88C11.6179 10.4844 11.3747 10.3623 11.1978 10.1672C11.0208 9.97222 10.9228 9.71832 10.9228 9.45499C10.9228 9.19166 11.0208 8.93776 11.1978 8.74274C11.3747 8.54772 11.6179 8.42554 11.88 8.39999H16C16.2621 8.42554 16.5053 8.54772 16.6822 8.74274C16.8592 8.93776 16.9572 9.19166 16.9572 9.45499C16.9572 9.71832 16.8592 9.97222 16.6822 10.1672C16.5053 10.3623 16.2621 10.4844 16 10.51V10.51Z" fill="black"/>
</svg>
