<svg width="32" height="32" viewBox="0 0 32 32" fill="none" xmlns="http://www.w3.org/2000/svg">
<path fill-rule="evenodd" clip-rule="evenodd" d="M16 3.01005C15.274 2.1942 14.2098 1.68994 13 1.68994C10.7477 1.68994 9 3.43766 9 5.68994C9 6.42469 9.186 7.10574 9.51483 7.68994H6C3.74772 7.68994 2 9.43766 2 11.6899V15.6899C2 16.2172 2.18011 16.7343 2.56789 17.122C2.95567 17.5098 3.47275 17.6899 4 17.6899V25.6899C4 27.9422 5.74772 29.6899 8 29.6899H24C26.2523 29.6899 28 27.9422 28 25.6899V17.6899C28.5272 17.6899 29.0443 17.5098 29.4321 17.122C29.8199 16.7343 30 16.2172 30 15.6899V11.6899C30 9.43766 28.2523 7.68994 26 7.68994H22.4852C22.814 7.10574 23 6.42469 23 5.68994C23 3.43766 21.2523 1.68994 19 1.68994C17.7902 1.68994 16.726 2.1942 16 3.01005ZM13 3.68994C11.8523 3.68994 11 4.54223 11 5.68994C11 6.83766 11.8523 7.68994 13 7.68994H15V5.68994C15 4.54223 14.1477 3.68994 13 3.68994ZM17 5.68994V7.68994H19C20.1477 7.68994 21 6.83766 21 5.68994C21 4.54223 20.1477 3.68994 19 3.68994C17.8523 3.68994 17 4.54223 17 5.68994ZM17 9.68994V15.6899H28V11.6899C28 10.5422 27.1477 9.68994 26 9.68994H17ZM24 27.6899H17V17.6899H26V25.6899C26 26.8377 25.1477 27.6899 24 27.6899ZM15 27.6899V17.6899H6V25.6899C6 26.8377 6.85228 27.6899 8 27.6899H15ZM15 15.6899V9.68994H6C4.85228 9.68994 4 10.5422 4 11.6899V15.6899H15Z" fill="black"/>
</svg>
