<svg width="32" height="32" viewBox="0 0 32 32" fill="none" xmlns="http://www.w3.org/2000/svg">
<path d="M20.8 13.5901C20.2477 13.5901 19.8 14.0378 19.8 14.5901C19.8 15.1424 20.2477 15.5901 20.8 15.5901H24C24.5523 15.5901 25 15.1424 25 14.5901C25 14.0378 24.5523 13.5901 24 13.5901H20.8Z" fill="black"/>
<path fill-rule="evenodd" clip-rule="evenodd" d="M25 2.68994H7V9.68994H6C3.74772 9.68994 2 11.4377 2 13.6899V21.6899C2 23.9422 3.74772 25.6899 6 25.6899H7V28.6899H25V25.6899H26C28.2523 25.6899 30 23.9422 30 21.6899V13.6899C30 11.4377 28.2523 9.68994 26 9.68994H25V2.68994ZM23 9.68994H9V4.68994H23V9.68994ZM6 23.6899H7V17.6899H25V23.6899H26C27.1477 23.6899 28 22.8377 28 21.6899V13.6899C28 12.5422 27.1477 11.6899 26 11.6899H6C4.85228 11.6899 4 12.5422 4 13.6899V21.6899C4 22.8377 4.85228 23.6899 6 23.6899ZM23 19.6899V26.6899H9V19.6899H23Z" fill="black"/>
</svg>
