<?xml version="1.0" encoding="UTF-8"?>
<svg width="24px" height="24px" viewBox="0 0 24 24" version="1.1" xmlns="http://www.w3.org/2000/svg" xmlns:xlink="http://www.w3.org/1999/xlink">
    <!-- Generator: Sketch 48.2 (47327) - http://www.bohemiancoding.com/sketch -->
    <title>process</title>
    <desc>Created with Sketch.</desc>
    <defs></defs>
    <g id="Page-1" stroke="none" stroke-width="1" fill="none" fill-rule="evenodd" stroke-linecap="round" stroke-linejoin="round">
        <g id="process" stroke="#000000" stroke-width="1.5">
            <path d="M17,5 L20,5 C21.104,5 22,5.896 22,7 L22,17 C22,18.104 21.104,19 20,19 L17,19" id="Stroke-6"></path>
            <polyline id="Stroke-7" points="19 17 17 19 19 21"></polyline>
            <path d="M7,19 L4,19 C2.896,19 2,18.104 2,17 L2,7 C2,5.896 2.896,5 4,5 L7,5" id="Stroke-8"></path>
            <polyline id="Stroke-9" points="5 7 7 5 5 3"></polyline>
            <path d="M11,7 L13,7 C13.553,7 14,6.552 14,6 L14,4 C14,3.448 13.553,3 13,3 L11,3 C10.447,3 10,3.448 10,4 L10,6 C10,6.552 10.447,7 11,7 Z" id="Stroke-2"></path>
            <path d="M11,14 L13,14 C13.553,14 14,13.553 14,13 L14,11 C14,10.448 13.553,10 13,10 L11,10 C10.447,10 10,10.448 10,11 L10,13 C10,13.553 10.447,14 11,14 Z" id="Stroke-4"></path>
            <path d="M11,21 L13,21 C13.553,21 14,20.553 14,20 L14,18 C14,17.447 13.553,17 13,17 L11,17 C10.447,17 10,17.447 10,18 L10,20 C10,20.553 10.447,21 11,21 Z" id="Stroke-6"></path>
        </g>
    </g>
</svg>