<svg width="32" height="32" viewBox="0 0 32 32" fill="none" xmlns="http://www.w3.org/2000/svg">
<path fill-rule="evenodd" clip-rule="evenodd" d="M15 2C13.3477 2 12 3.34772 12 5V7C12 8.65228 13.3477 10 15 10H17C18.6523 10 20 8.65228 20 7V5C20 3.34772 18.6523 2 17 2H15ZM14 5C14 4.45228 14.4523 4 15 4H17C17.5477 4 18 4.45228 18 5V7C18 7.54772 17.5477 8 17 8H15C14.4523 8 14 7.54772 14 7V5Z" fill="black"/>
<path d="M5.29289 2.29289C5.68342 1.90237 6.31658 1.90237 6.70711 2.29289L10.4142 6L6.70711 9.70711C6.31658 10.0976 5.68342 10.0976 5.29289 9.70711C4.90237 9.31658 4.90237 8.68342 5.29289 8.29289L6.58579 7H6C4.85228 7 4 7.85228 4 9V24C4 25.1477 4.85228 26 6 26H9C9.55228 26 10 26.4477 10 27C10 27.5523 9.55228 28 9 28H6C3.74772 28 2 26.2523 2 24V9C2 6.74771 3.74772 5 6 5H6.58579L5.29289 3.70711C4.90237 3.31658 4.90237 2.68342 5.29289 2.29289Z" fill="black"/>
<path d="M26.7071 24.7071L25.4142 26H26C27.1477 26 28 25.1477 28 24V9C28 7.85228 27.1477 7 26 7H23C22.4477 7 22 6.55228 22 6C22 5.44772 22.4477 5 23 5H26C28.2523 5 30 6.74771 30 9V24C30 26.2523 28.2523 28 26 28H25.4142L26.7071 29.2929C27.0976 29.6834 27.0976 30.3166 26.7071 30.7071C26.3166 31.0976 25.6834 31.0976 25.2929 30.7071L21.5858 27L25.2929 23.2929C25.6834 22.9024 26.3166 22.9024 26.7071 23.2929C27.0976 23.6834 27.0976 24.3166 26.7071 24.7071Z" fill="black"/>
<path fill-rule="evenodd" clip-rule="evenodd" d="M12 15C12 13.3477 13.3477 12 15 12H17C18.6523 12 20 13.3477 20 15V17C20 18.6523 18.6523 20 17 20H15C13.3477 20 12 18.6523 12 17V15ZM15 14C14.4523 14 14 14.4523 14 15V17C14 17.5477 14.4523 18 15 18H17C17.5477 18 18 17.5477 18 17V15C18 14.4523 17.5477 14 17 14H15Z" fill="black"/>
<path fill-rule="evenodd" clip-rule="evenodd" d="M15 22C13.3477 22 12 23.3477 12 25V27C12 28.6523 13.3477 30 15 30H17C18.6523 30 20 28.6523 20 27V25C20 23.3477 18.6523 22 17 22H15ZM14 25C14 24.4523 14.4523 24 15 24H17C17.5477 24 18 24.4523 18 25V27C18 27.5477 17.5477 28 17 28H15C14.4523 28 14 27.5477 14 27V25Z" fill="black"/>
</svg>
