<svg width="32" height="32" viewBox="0 0 32 32" fill="none" xmlns="http://www.w3.org/2000/svg">
<path d="M7 16C6.44772 16 6 16.4477 6 17C6 17.5523 6.44772 18 7 18H10C10.5523 18 11 17.5523 11 17C11 16.4477 10.5523 16 10 16H7Z" fill="black"/>
<path fill-rule="evenodd" clip-rule="evenodd" d="M21 6C18.027 6 15.559 8.16229 15.083 11H6C3.74772 11 2 12.7477 2 15V19C2 21.2523 3.74772 23 6 23V25C6 25.5523 6.44772 26 7 26C7.55228 26 8 25.5523 8 25V23H24V25C24 25.5523 24.4477 26 25 26C25.5523 26 26 25.5523 26 25V23C28.2523 23 30 21.2523 30 19V15C30 13.0705 28.7173 11.5113 26.9336 11.104C26.501 8.2153 24.0092 6 21 6ZM21 8C18.7909 8 17 9.79086 17 12C17 14.2091 18.7909 16 21 16C23.2091 16 25 14.2091 25 12C25 9.79086 23.2091 8 21 8ZM26 21C27.1477 21 28 20.1477 28 19V15C28 14.1736 27.5582 13.5004 26.8824 13.1882C26.331 15.9328 23.9069 18 21 18C18.027 18 15.559 15.8377 15.083 13H6C4.85228 13 4 13.8523 4 15V19C4 20.1477 4.85228 21 6 21H26Z" fill="black"/>
</svg>
