<svg width="32" height="32" viewBox="0 0 32 32" fill="none" xmlns="http://www.w3.org/2000/svg">
<path d="M16 0.940002C13.0827 0.940002 10.231 1.80507 7.80535 3.42583C5.37972 5.04658 3.48918 7.35021 2.37278 10.0454C1.25639 12.7406 0.964292 15.7064 1.53342 18.5676C2.10256 21.4288 3.50736 24.057 5.57018 26.1198C7.63301 28.1827 10.2612 29.5875 13.1224 30.1566C15.9836 30.7257 18.9494 30.4336 21.6446 29.3172C24.3398 28.2008 26.6434 26.3103 28.2642 23.8847C29.8849 21.459 30.75 18.6073 30.75 15.69C30.75 11.7781 29.196 8.02634 26.4298 5.26018C23.6637 2.49402 19.9119 0.940002 16 0.940002V0.940002ZM16 28.55C13.68 28.55 11.8 27 11.8 25.09H20.2C20.2 27 18.32 28.55 16 28.55ZM22.93 23.94H9.07001V21.43H22.93V23.94ZM22.88 20.14H9.11001L9.00001 19.98C8.07524 18.9522 7.36774 17.7481 6.92001 16.44C6.92001 16.44 8.64001 16.79 9.92001 17.07C9.92001 17.07 10.55 17.21 11.47 17.38C10.555 16.3651 10.0335 15.0561 10 13.69C10 10.69 12.27 8.15 11.45 6.06C12.24 6.12 13.1 7.74 13.15 10.27C13.9446 8.87583 14.352 7.29457 14.33 5.69C14.33 4.33 15.23 2.76 16.12 2.69C15.33 4.01 16.33 5.13 17.22 7.93C17.55 8.98 17.51 10.74 17.77 11.86C17.86 9.54 18.26 6.14 19.77 4.97C19.12 6.45 19.87 8.29 20.38 9.18C21.2475 10.5218 21.6933 12.0926 21.66 13.69C21.6577 15.0452 21.1759 16.3559 20.3 17.39C21.3 17.21 21.94 17.04 21.94 17.04L25.11 16.43C24.6796 17.8297 23.9141 19.1032 22.88 20.14Z" fill="black"/>
</svg>
