<svg width="32" height="32" viewBox="0 0 32 32" fill="none" xmlns="http://www.w3.org/2000/svg">
<path d="M18.9701 3.75747C18.8571 3.30513 18.4464 2.99097 17.9802 3.0002C17.514 3.00943 17.1161 3.33959 17.021 3.79605L12.9114 23.5224L8.97014 7.75747C8.85885 7.3123 8.45887 7 8 7C7.54113 7 7.14115 7.3123 7.02986 7.75747L5.21922 15H3C2.44772 15 2 15.4477 2 16C2 16.5523 2.44772 17 3 17H6C6.45887 17 6.85885 16.6877 6.97014 16.2425L8 12.1231L12.0299 28.2425C12.1429 28.6949 12.5536 29.009 13.0198 28.9998C13.486 28.9906 13.8839 28.6604 13.979 28.204L18.0886 8.47763L20.0299 16.2425C20.1411 16.6877 20.5411 17 21 17H24C24.5523 17 25 16.5523 25 16C25 15.4477 24.5523 15 24 15H21.7808L18.9701 3.75747Z" fill="black"/>
<path d="M27 15C26.4477 15 26 15.4477 26 16C26 16.5523 26.4477 17 27 17H29C29.5523 17 30 16.5523 30 16C30 15.4477 29.5523 15 29 15H27Z" fill="black"/>
</svg>
