<?xml version="1.0" encoding="UTF-8"?>
<svg width="24px" height="24px" viewBox="0 0 24 24" version="1.1" xmlns="http://www.w3.org/2000/svg" xmlns:xlink="http://www.w3.org/1999/xlink">
    <!-- Generator: Sketch 48.2 (47327) - http://www.bohemiancoding.com/sketch -->
    <title>puzzle</title>
    <desc>Created with Sketch.</desc>
    <defs></defs>
    <g id="Page-1" stroke="none" stroke-width="1" fill="none" fill-rule="evenodd" stroke-linecap="round" stroke-linejoin="round">
        <g id="puzzle" stroke="#000000" stroke-width="2">
            <path d="M18,11 C17.229,11 16.531,11.3 16,11.778 L16,8 L12.222,8 C12.7,7.468 13,6.772 13,6 C13,4.343 11.657,3 10,3 C8.343,3 7,4.343 7,6 C7,6.772 7.3,7.468 7.778,8 L4,8 L4,20 L7.778,20 C7.3,19.468 7,18.772 7,18 C7,16.343 8.343,15 10,15 C11.657,15 13,16.343 13,18 C13,18.772 12.7,19.468 12.222,20 L16,20 L16,16.222 C16.531,16.7 17.229,17 18,17 C19.657,17 21,15.657 21,14 C21,12.343 19.657,11 18,11 Z" id="Stroke-1"></path>
        </g>
    </g>
</svg>