<svg xmlns="http://www.w3.org/2000/svg" width="64" height="64" viewBox="0 0 64 64">
  <title>puzzle-alt</title>
  <path d="M54.72,7A8,8,0,0,0,46,6.73a8.23,8.23,0,0,0-3.62,4.52,2.32,2.32,0,0,1-3.85.84L33.41,6.93a2,2,0,0,0-2.82,0L23.92,13.6a1.17,1.17,0,0,0,.74,2,8.21,8.21,0,0,1,6.13,4,8,8,0,0,1-.22,8.68,8.19,8.19,0,0,1-15-3.65,1.16,1.16,0,0,0-2-.67L6.93,30.59a2,2,0,0,0,0,2.82l5.16,5.16a2.32,2.32,0,0,1-.84,3.85A8.23,8.23,0,0,0,6.73,46,8,8,0,0,0,7,54.72a8.19,8.19,0,0,0,14.59-1.85,2.35,2.35,0,0,1,3.89-1l5.16,5.16a2,2,0,0,0,2.82,0l6.67-6.67a1.17,1.17,0,0,0-.74-2,8.21,8.21,0,0,1-6.13-4,8,8,0,0,1,.22-8.68,8.19,8.19,0,0,1,15,3.65,1.16,1.16,0,0,0,2,.67l6.67-6.67a2,2,0,0,0,0-2.82l-5.16-5.16a2.35,2.35,0,0,1,1-3.89A8.19,8.19,0,0,0,54.72,7Z" fill="none" stroke="#000" stroke-linecap="round" stroke-linejoin="round" stroke-width="2"/>
</svg>
