<svg width="32" height="32" viewBox="0 0 32 32" fill="none" xmlns="http://www.w3.org/2000/svg">
<path fill-rule="evenodd" clip-rule="evenodd" d="M27.7662 2.56564C30.4758 4.4155 30.738 8.02156 28.5452 10.2585C28.0105 10.908 27.3529 11.2893 26.6406 11.5304C26.5553 11.5661 26.5056 11.6332 26.489 11.6933C26.4809 11.7226 26.4831 11.7414 26.485 11.7493L26.485 11.7494C26.4861 11.7538 26.4886 11.7643 26.5071 11.7828L29.0071 14.2828C29.7976 15.0733 29.7976 16.3065 29.0071 17.097L25.7071 20.397C25.2628 20.8413 24.6313 21.013 24.0517 20.8319C23.4746 20.6515 23.0311 20.1348 23.0016 19.4617C22.9222 18.824 22.6373 18.2414 22.0929 17.697C22.0862 17.6903 22.0795 17.6834 22.073 17.6765C20.8223 16.3523 18.5756 16.4675 17.4262 18.1532L17.4222 18.1591L17.4222 18.1591C16.7573 19.1195 16.751 20.3897 17.3516 21.3658L17.3638 21.386C17.9144 22.33 18.7366 22.8228 19.583 22.8934C19.621 22.8965 19.6588 22.9018 19.6961 22.9093C20.3172 23.0335 20.7519 23.4721 20.9363 23.9638C21.1151 24.4405 21.0968 25.1073 20.6071 25.597L17.3071 28.897C16.5166 29.6875 15.2834 29.6875 14.4929 28.897L11.9929 26.397C11.9744 26.3785 11.9639 26.376 11.9595 26.3749L11.9594 26.3749C11.9515 26.373 11.9326 26.3708 11.9034 26.3789C11.8409 26.3961 11.7707 26.4492 11.7363 26.541L11.7285 26.5613C11.4774 27.189 11.0045 27.8963 10.5172 28.3868C8.36707 30.6506 4.62424 30.3636 2.77573 27.6561C1.64707 26.0233 1.64954 23.9054 2.63669 22.2848C3.26629 21.1635 4.26257 20.4211 5.35879 20.0496C5.39087 20.036 5.40798 20.0204 5.41817 20.0082C5.43083 19.9931 5.44083 19.9735 5.44573 19.9498C5.45495 19.9052 5.44642 19.8505 5.39288 19.797L2.89288 17.297C2.10236 16.5065 2.10236 15.2733 2.89288 14.4828L6.19288 11.1828C6.6372 10.7385 7.26864 10.5668 7.84826 10.7479C8.42537 10.9283 8.86885 11.445 8.89842 12.1181C8.97778 12.7558 9.26267 13.3384 9.8071 13.8828C9.81383 13.8895 9.82047 13.8964 9.827 13.9033C11.0777 15.2275 13.3244 15.1123 14.4738 13.4266L14.4778 13.4207L14.4778 13.4207C15.1427 12.4603 15.149 11.1901 14.5483 10.214L14.5362 10.1938C13.9856 9.2498 13.1634 8.75698 12.3169 8.68645C12.279 8.68328 12.2412 8.67795 12.2039 8.67048C11.5828 8.54626 11.148 8.10773 10.9637 7.61602C10.7849 7.13931 10.8032 6.47248 11.2929 5.98279L14.5929 2.68279C15.3834 1.89227 16.6166 1.89227 17.4071 2.68279L19.9071 5.18279C19.9606 5.23633 20.0153 5.24486 20.0599 5.23564C20.0836 5.23074 20.1032 5.22074 20.1183 5.20808C20.1305 5.19789 20.1461 5.18076 20.1597 5.14865C20.5492 4.00101 21.3161 3.14395 22.3453 2.45785C22.3644 2.44512 22.3839 2.43305 22.4039 2.42166C24.1005 1.45213 26.1168 1.42548 27.7662 2.56564ZM23.4256 4.14149C22.6804 4.64459 22.2592 5.17453 22.0487 5.80613C22.0448 5.81784 22.0407 5.82947 22.0363 5.84102C21.4729 7.34338 19.5909 7.69504 18.4929 6.59701L16 4.10411L13.2742 6.82986C14.4955 7.15336 15.5559 7.9781 16.2579 9.17597C17.2504 10.7977 17.255 12.9204 16.1242 14.5562C14.2757 17.2635 10.5331 17.5506 8.3829 15.287C7.7541 14.6553 7.30942 13.9343 7.07272 13.1314L4.3142 15.8899L6.8071 18.3828C7.90513 19.4808 7.55347 21.3628 6.05111 21.9262C6.03956 21.9306 6.02792 21.9347 6.01622 21.9386C5.3286 22.1678 4.74044 22.6162 4.37415 23.2755C4.36693 23.2885 4.35943 23.3013 4.35165 23.314C3.751 24.2901 3.75733 25.5603 4.42218 26.5207L4.42624 26.5266L4.42622 26.5266C5.57559 28.2123 7.82232 28.3275 9.07298 27.0033C9.07951 26.9964 9.08615 26.9895 9.09288 26.9828C9.39994 26.6757 9.71994 26.1931 9.86848 25.826C10.3814 24.4844 12.2012 23.7769 13.4071 24.9828L15.9 27.4757L18.6257 24.7499C17.4044 24.4264 16.3441 23.6017 15.6421 22.4038C14.6495 20.7821 14.645 18.6594 15.7758 17.0236C17.6243 14.3163 21.3669 14.0292 23.517 16.2928C24.1459 16.9245 24.5906 17.6455 24.8273 18.4484L27.5858 15.6899L25.0929 13.197C23.8831 11.9873 24.5989 10.1598 25.9489 9.65357C25.9604 9.64924 25.9721 9.64512 25.9838 9.64122C26.4461 9.48709 26.7662 9.28132 27.0191 8.9652C27.0422 8.93639 27.0668 8.90888 27.0929 8.88279C28.4583 7.51741 28.3088 5.35621 26.6367 4.21613L26.6308 4.21211L26.6308 4.21209C25.6892 3.5602 24.5195 3.52877 23.4256 4.14149Z" fill="black"/>
</svg>
