<?xml version="1.0" encoding="UTF-8"?>
<svg width="24px" height="24px" viewBox="0 0 24 24" version="1.1" xmlns="http://www.w3.org/2000/svg" xmlns:xlink="http://www.w3.org/1999/xlink">
    <!-- Generator: Sketch 48.2 (47327) - http://www.bohemiancoding.com/sketch -->
    <title>puzzle-alt</title>
    <desc>Created with Sketch.</desc>
    <defs></defs>
    <g id="Page-1" stroke="none" stroke-width="1" fill="none" fill-rule="evenodd" stroke-linecap="round" stroke-linejoin="round">
        <g id="puzzle-alt" stroke="#000000" stroke-width="1.5">
            <path d="M20,9 C19.229,9 18.531,9.3 18,9.778 L18,6 L14.222,6 C14.7,6.532 15,7.228 15,8 C15,9.657 13.657,11 12,11 C10.343,11 9,9.657 9,8 C9,7.228 9.3,6.532 9.778,6 L6,6 L6,9.778 C5.469,9.3 4.771,9 4,9 C2.343,9 1,10.343 1,12 C1,13.657 2.343,15 4,15 C4.771,15 5.469,14.7 6,14.222 L6,18 L9.778,18 C9.3,17.468 9,16.772 9,16 C9,14.343 10.343,13 12,13 C13.657,13 15,14.343 15,16 C15,16.772 14.7,17.468 14.222,18 L18,18 L18,14.222 C18.531,14.7 19.229,15 20,15 C21.657,15 23,13.657 23,12 C23,10.343 21.657,9 20,9 Z" id="Stroke-1"></path>
        </g>
    </g>
</svg>