<svg xmlns="http://www.w3.org/2000/svg" width="64" height="64" viewBox="0 0 64 64">
  <title>puzzle</title>
  <path d="M45.06,8.52A8,8,0,0,0,42,13a2,2,0,0,1-3.34.88L32.8,7.92a2,2,0,0,0-2.83,0l-5.9,5.91A2,2,0,0,1,20.73,13a8,8,0,1,0-13.39,7.7A7.89,7.89,0,0,0,11,22.73a2,2,0,0,1,.85,3.33L5.93,32a2,2,0,0,0,0,2.83l24,24a2,2,0,0,0,2.83,0L38,53.64a2,2,0,0,0-.88-3.34,8,8,0,1,1,9.79-9.75,2,2,0,0,0,3.33.85l6.61-6.61a2,2,0,0,0,0-2.83l-5.9-5.9a2,2,0,0,1,.85-3.33A8,8,0,1,0,45.06,8.52Z" fill="none" stroke="#000" stroke-linecap="round" stroke-linejoin="round" stroke-width="4"/>
</svg>
