<svg width="32" height="32" viewBox="0 0 32 32" fill="none" xmlns="http://www.w3.org/2000/svg">
<path fill-rule="evenodd" clip-rule="evenodd" d="M22.9086 3.0186C24.7606 1.66047 27.2394 1.66047 29.0914 3.0186C29.1009 3.0256 29.1103 3.03278 29.1196 3.04012C31.5116 4.9285 31.6102 8.52902 29.5071 10.6321C28.7811 11.3581 28.0375 11.7338 27.2223 11.9728C27.2226 11.9956 27.2292 12.0278 27.2518 12.0626L30.2071 15.0179C30.9976 15.8084 30.9976 17.1416 30.2071 17.9321L26.8339 21.3053C25.8152 22.4659 23.8445 22.0645 23.4348 20.4871C23.277 19.9432 22.9617 19.4009 22.5929 19.0321C21.3164 17.7556 19.2127 17.8138 17.9837 19.3462C17.1514 20.4087 17.084 22.0122 17.9064 23.1336C17.9152 23.1457 17.9238 23.1579 17.932 23.1703C18.3848 23.8494 18.9611 24.2031 19.6169 24.3488C19.6255 24.3507 19.634 24.3527 19.6425 24.3549C20.3669 24.5359 20.9232 25.0564 21.1308 25.7309C21.3424 26.4185 21.1626 27.1766 20.6071 27.7321L17.9071 30.4321C17.1166 31.2226 15.8834 31.2226 15.0929 30.4321L15.09 30.4292L2.79289 18.0321C2.79233 18.0316 2.79178 18.031 2.79122 18.0304C2.00237 17.2397 2.00292 15.9079 2.79289 15.1179L5.79289 12.1179C5.80356 12.1072 5.81447 12.0968 5.82561 12.0866C5.8255 12.0866 5.82539 12.0866 5.82528 12.0865C4.97341 11.8431 4.12127 11.3605 3.49289 10.7321C1.37553 8.61475 1.5109 5.13479 3.85586 3.16009C3.86227 3.15469 3.86875 3.14937 3.8753 3.14413C5.75685 1.63889 8.23325 1.68485 10.2432 2.98543C10.2626 2.99796 10.2815 3.01116 10.3 3.025C11.2857 3.76426 11.9176 4.76429 12.1721 5.88987C12.1765 5.90552 12.1814 5.91699 12.1855 5.92502C12.1878 5.92288 12.1903 5.92051 12.1929 5.91789L15.1929 2.91789C15.9834 2.12737 17.2166 2.12737 18.0071 2.91789L20.9868 5.89759C20.9875 5.8976 20.9883 5.8976 20.9891 5.89759C20.9962 5.89747 21.004 5.89646 21.0115 5.8945C21.0198 5.89235 21.0252 5.88983 21.0282 5.88814C21.0283 5.888 21.0283 5.88785 21.0284 5.88771C21.2832 4.763 21.915 3.76378 22.9 3.025L22.9086 3.01855L22.9086 3.0186ZM24.0957 4.62823C23.4893 5.08455 23.1241 5.67651 22.9762 6.34193C22.9743 6.35049 22.9723 6.35903 22.9701 6.36754C22.5708 7.96483 20.6107 8.34995 19.5929 7.33211L16.6 4.33921L13.6071 7.33211C13.0516 7.88761 12.2935 8.06735 11.6059 7.85578C10.9313 7.64822 10.4109 7.09188 10.2299 6.36754C10.2277 6.35903 10.2257 6.35049 10.2238 6.34193C10.0778 5.6849 9.71991 5.0995 9.12713 4.64556C7.7492 3.76844 6.2441 3.81716 5.13451 4.69804C3.68881 5.92457 3.6273 8.03809 4.9071 9.31789C5.27589 9.68668 5.81823 10.002 6.36216 10.1599C7.93948 10.5696 8.34086 12.5402 7.18031 13.5589L4.20889 16.5303C4.20839 16.5312 4.20757 16.5329 4.20657 16.5354C4.20332 16.5437 4.2 16.5576 4.2 16.575C4.2 16.5924 4.20332 16.6063 4.20657 16.6146C4.20757 16.6171 4.20839 16.6188 4.20889 16.6197L4.20997 16.6208L4.20996 16.6208L16.5 29.0108L19.1929 26.3179C19.1955 26.3153 19.1979 26.3128 19.2 26.3105C19.192 26.3064 19.1805 26.3015 19.1649 26.2971C18.0343 26.0415 17.0225 25.4018 16.2803 24.2982C14.9177 22.4223 15.0528 19.8391 16.4137 18.1072L16.4191 18.1003L16.4191 18.1003C18.3905 15.6361 21.8845 15.4953 24.0071 17.6179C24.6355 18.2463 25.1181 19.0984 25.3615 19.9503C25.3616 19.9504 25.3616 19.9505 25.3616 19.9506C25.3718 19.9395 25.3822 19.9286 25.3929 19.9179L28.7911 16.5197C28.7916 16.5188 28.7924 16.5171 28.7934 16.5146C28.7967 16.5063 28.8 16.4924 28.8 16.475C28.8 16.4576 28.7967 16.4437 28.7934 16.4354C28.7924 16.4329 28.7916 16.4312 28.7911 16.4303L25.7929 13.4321C25.7715 13.4107 25.7511 13.3884 25.7318 13.3652C24.8843 12.3482 25.065 10.5093 26.6253 10.0635C27.1913 9.90175 27.633 9.67778 28.0929 9.21789C29.3856 7.92522 29.289 5.73589 27.8941 4.62084C26.7493 3.7906 25.2384 3.79306 24.0957 4.62823Z" fill="black"/>
</svg>
