<svg width="32" height="32" viewBox="0 0 32 32" fill="none" xmlns="http://www.w3.org/2000/svg">
<path d="M15.55 12.57H16.47C16.7591 12.57 17.0363 12.4551 17.2407 12.2507C17.4452 12.0463 17.56 11.7691 17.56 11.48V7.61999C17.5285 7.22653 17.35 6.85936 17.06 6.59162C16.7699 6.32387 16.3897 6.17519 15.995 6.17519C15.6003 6.17519 15.22 6.32387 14.93 6.59162C14.64 6.85936 14.4615 7.22653 14.43 7.61999V11.47C14.43 11.614 14.4585 11.7565 14.5139 11.8894C14.5693 12.0223 14.6505 12.1429 14.7528 12.2443C14.8551 12.3456 14.9764 12.4257 15.1098 12.4799C15.2432 12.5341 15.386 12.5613 15.53 12.56L15.55 12.57ZM16.47 18.82H15.55C15.406 18.82 15.2634 18.8485 15.1305 18.9039C14.9976 18.9593 14.877 19.0405 14.7757 19.1428C14.6743 19.245 14.5943 19.3664 14.5401 19.4998C14.4859 19.6332 14.4587 19.776 14.46 19.92V23.75C14.4915 24.1434 14.67 24.5106 14.96 24.7784C15.25 25.0461 15.6303 25.1948 16.025 25.1948C16.4197 25.1948 16.7999 25.0461 17.09 24.7784C17.38 24.5106 17.5585 24.1434 17.59 23.75V19.92C17.59 19.6283 17.4741 19.3485 17.2678 19.1422C17.0615 18.9359 16.7817 18.82 16.49 18.82H16.47ZM24.08 14.13H7.93999C7.54653 14.1615 7.17937 14.34 6.91162 14.63C6.64387 14.92 6.49519 15.3003 6.49519 15.695C6.49519 16.0897 6.64387 16.4699 6.91162 16.76C7.17937 17.05 7.54653 17.2285 7.93999 17.26H24.08C24.4735 17.2285 24.8406 17.05 25.1084 16.76C25.3761 16.4699 25.5248 16.0897 25.5248 15.695C25.5248 15.3003 25.3761 14.92 25.1084 14.63C24.8406 14.34 24.4735 14.1615 24.08 14.13V14.13ZM25.86 23.13C25.6266 23.13 25.4028 23.0373 25.2377 22.8722C25.0727 22.7072 24.98 22.4834 24.98 22.25C24.98 22.0166 25.0727 21.7928 25.2377 21.6277C25.4028 21.4627 25.6266 21.37 25.86 21.37C27.06 21.37 27.61 20.76 28.32 18.64C28.6394 17.6377 28.8013 16.5919 28.8 15.54C28.7982 14.4638 28.6295 13.3945 28.3 12.37V12.44C27.72 10.08 26.74 9.75999 25.86 9.75999H21.2C21.0772 9.77313 20.9531 9.76029 20.8356 9.72231C20.7181 9.68433 20.6099 9.62205 20.5181 9.53953C20.4263 9.457 20.3528 9.35607 20.3026 9.24331C20.2523 9.13054 20.2263 9.00845 20.2263 8.88499C20.2263 8.76152 20.2523 8.63944 20.3026 8.52667C20.3528 8.41391 20.4263 8.31298 20.5181 8.23045C20.6099 8.14793 20.7181 8.08565 20.8356 8.04767C20.9531 8.00968 21.0772 7.99685 21.2 8.00999H25.86C27.95 8.00999 29.34 9.35999 30 12.01C30.7399 14.3734 30.7399 16.9065 30 19.27V19.19C29.35 21.16 28.45 23.17 25.86 23.17V23.13ZM16 30.36C14.7759 30.3494 13.5598 30.1608 12.39 29.8H12.48C9.99999 29.1 8.56999 27.57 8.56999 25.69C8.55685 25.5672 8.56969 25.4431 8.60767 25.3256C8.64565 25.2081 8.70793 25.0999 8.79046 25.0081C8.87298 24.9163 8.97391 24.8428 9.08668 24.7926C9.19944 24.7423 9.32153 24.7163 9.44499 24.7163C9.56846 24.7163 9.69054 24.7423 9.80331 24.7926C9.91608 24.8428 10.017 24.9163 10.0995 25.0081C10.1821 25.0999 10.2443 25.2081 10.2823 25.3256C10.3203 25.4431 10.3331 25.5672 10.32 25.69C10.32 27.19 11.99 27.88 12.98 28.2C13.9511 28.5037 14.9625 28.6588 15.98 28.66C17.0352 28.6607 18.0841 28.4988 19.09 28.18H19.02C20.8 27.66 21.68 26.82 21.68 25.67V20.97C21.7031 20.7541 21.8053 20.5543 21.9668 20.4091C22.1283 20.264 22.3378 20.1837 22.555 20.1837C22.7722 20.1837 22.9817 20.264 23.1432 20.4091C23.3047 20.5543 23.4069 20.7541 23.43 20.97V25.69C23.43 27.69 22.04 29.15 19.52 29.87C18.3691 30.2213 17.1733 30.4032 15.97 30.41L16 30.36ZM9.43999 11.16C9.3249 11.16 9.21094 11.1372 9.10473 11.0928C8.99852 11.0485 8.90217 10.9835 8.82125 10.9016C8.74033 10.8198 8.67645 10.7227 8.63333 10.616C8.5902 10.5093 8.56867 10.3951 8.56999 10.28V5.58999C8.56999 3.39999 9.23999 1.88999 12.57 1.29999C13.6495 1.1097 14.7438 1.016 15.84 1.01999H16.11C17.2666 1.01795 18.4211 1.11834 19.56 1.31999H19.44C20.5048 1.44617 21.4905 1.94514 22.2227 2.72851C22.9548 3.51189 23.386 4.52911 23.44 5.59999C23.4169 5.81593 23.3147 6.01569 23.1532 6.16085C22.9917 6.30601 22.7822 6.38631 22.565 6.38631C22.3478 6.38631 22.1383 6.30601 21.9768 6.16085C21.8153 6.01569 21.7131 5.81593 21.69 5.59999C21.6319 4.94225 21.3449 4.32575 20.8789 3.85793C20.4129 3.39011 19.7975 3.10065 19.14 3.03999V3.03999C18.1191 2.86723 17.0854 2.78026 16.05 2.77999H15.8C14.7944 2.78167 13.7908 2.86865 12.8 3.03999H12.9C10.45 3.47999 10.33 4.20999 10.33 5.59999V10.29C10.3301 10.5183 10.2415 10.7377 10.0829 10.9019C9.92434 11.0661 9.70814 11.1622 9.47999 11.17L9.43999 11.16ZM10.78 23.16H6.31999C4.12999 23.16 2.58999 21.7 1.94999 19.16C1.62165 18.0054 1.45671 16.8104 1.45999 15.61C1.46953 14.3741 1.65128 13.1457 1.99999 11.96V12.06C2.23087 10.9289 2.84599 9.91262 3.74096 9.18352C4.63594 8.45441 5.75563 8.05745 6.90999 8.05999H6.98999C7.20593 8.08311 7.40569 8.18526 7.55085 8.34679C7.69601 8.50832 7.77632 8.71782 7.77632 8.93499C7.77632 9.15216 7.69601 9.36166 7.55085 9.52319C7.40569 9.68472 7.20593 9.78687 6.98999 9.80999H6.87999C6.11923 9.80974 5.38204 10.0739 4.79463 10.5574C4.20722 11.0408 3.80612 11.7134 3.65999 12.46V12.46C3.37256 13.4818 3.22785 14.5385 3.22999 15.6C3.23093 16.6922 3.38235 17.7791 3.67999 18.83V18.74C4.07999 20.5 4.99999 21.39 6.29999 21.39H10.76C10.9759 21.4131 11.1757 21.5153 11.3209 21.6768C11.466 21.8383 11.5463 22.0478 11.5463 22.265C11.5463 22.4822 11.466 22.6917 11.3209 22.8532C11.1757 23.0147 10.9759 23.1169 10.76 23.14L10.78 23.16Z" fill="black"/>
</svg>
