<svg width="32" height="32" viewBox="0 0 32 32" fill="none" xmlns="http://www.w3.org/2000/svg">
<path d="M30 12.05C30.7182 14.3656 30.7182 16.8444 30 19.16C29.26 21.29 28.51 22.69 26.47 22.69H16V23.58H23V26.25C23 28.25 21.27 29.25 19.5 29.8C17.2213 30.5137 14.7788 30.5137 12.5 29.8C10.63 29.28 9.00001 28.16 9.00001 26.27V19.6C9.00504 18.6687 9.37385 17.7761 10.0277 17.1129C10.6816 16.4497 11.5688 16.0683 12.5 16.05H19.5C20.6623 16.0191 21.7674 15.5396 22.5839 14.7119C23.4004 13.8842 23.8649 12.7726 23.88 11.61V8.5H26.5C28.51 8.5 29.47 10.03 30 12.05ZM12 5.84C11.7337 5.84397 11.4723 5.76851 11.2491 5.62326C11.0259 5.47801 10.8511 5.26955 10.7469 5.02448C10.6427 4.77942 10.6139 4.50887 10.6641 4.24735C10.7143 3.98584 10.8414 3.74522 11.0289 3.55621C11.2165 3.3672 11.4562 3.23837 11.7173 3.18616C11.9784 3.13395 12.2492 3.16073 12.4951 3.26307C12.7409 3.36542 12.9507 3.5387 13.0976 3.76079C13.2445 3.98288 13.322 4.24371 13.32 4.51C13.32 4.86102 13.1813 5.1978 12.934 5.44694C12.6867 5.69608 12.351 5.83737 12 5.84V5.84ZM12.44 15.17H19.44C19.9086 15.174 20.3734 15.0847 20.8071 14.9072C21.2408 14.7297 21.6348 14.4676 21.9662 14.1362C22.2976 13.8048 22.5597 13.4108 22.7372 12.9771C22.9147 12.5434 23.004 12.0786 23 11.61V4.95C22.9411 4.02744 22.5572 3.1556 21.9164 2.48922C21.2757 1.82285 20.4196 1.40506 19.5 1.31C18.2966 1.11453 17.0792 1.01754 15.86 1.02C14.7372 1.02382 13.6167 1.12082 12.51 1.31C9.52001 1.83 9.00001 2.93 9.00001 4.95V7.61H16V8.5H6.36001C5.33222 8.48609 4.33229 8.83409 3.53521 9.48308C2.73813 10.1321 2.19469 11.0407 2.00001 12.05C1.34507 14.3748 1.34507 16.8353 2.00001 19.16C2.48001 21.24 3.67001 22.69 5.70001 22.69H8.11001V19.49C8.13573 18.3419 8.60532 17.2484 9.42017 16.4391C10.235 15.6299 11.3317 15.1678 12.48 15.15L12.44 15.17Z" fill="black"/>
</svg>
