<?xml version="1.0" encoding="UTF-8"?>
<svg width="24px" height="24px" viewBox="0 0 24 24" version="1.1" xmlns="http://www.w3.org/2000/svg" xmlns:xlink="http://www.w3.org/1999/xlink">
    <!-- Generator: Sketch 48.2 (47327) - http://www.bohemiancoding.com/sketch -->
    <title>quotes</title>
    <desc>Created with Sketch.</desc>
    <defs></defs>
    <g id="Page-1" stroke="none" stroke-width="1" fill="none" fill-rule="evenodd" stroke-linecap="round" stroke-linejoin="round">
        <g id="quotes" stroke="#000000" stroke-width="2">
            <path d="M10,14 C10,11.791 8.209,10 6,10 C3.791,10 2,11.791 2,14 C2,16.209 3.791,18 6,18 C8.209,18 10,16.209 10,14 Z" id="Stroke-1"></path>
            <path d="M10,6 C5.582,6 2,9.582 2,14" id="Stroke-3"></path>
            <path d="M22,14 C22,11.791 20.209,10 18,10 C15.791,10 14,11.791 14,14 C14,16.209 15.791,18 18,18 C20.209,18 22,16.209 22,14 Z" id="Stroke-5"></path>
            <path d="M22,6 C17.582,6 14,9.582 14,14" id="Stroke-7"></path>
        </g>
    </g>
</svg>