<svg width="32" height="32" viewBox="0 0 32 32" fill="none" xmlns="http://www.w3.org/2000/svg">
<path d="M16 18.32C15.4798 18.32 14.9713 18.1658 14.5388 17.8768C14.1063 17.5878 13.7693 17.177 13.5702 16.6965C13.3711 16.2159 13.3191 15.6871 13.4205 15.1769C13.522 14.6668 13.7725 14.1981 14.1403 13.8303C14.5081 13.4625 14.9767 13.212 15.4869 13.1106C15.9971 13.0091 16.5259 13.0612 17.0065 13.2602C17.487 13.4593 17.8978 13.7964 18.1868 14.2289C18.4757 14.6614 18.63 15.1699 18.63 15.69C18.63 16.3875 18.3529 17.0565 17.8597 17.5497C17.3665 18.0429 16.6975 18.32 16 18.32V18.32ZM24.36 19.32C23.9695 18.0231 23.4849 16.7564 22.91 15.53L23 15.69C23.5146 14.5814 23.9523 13.4387 24.31 12.27L24.37 12.06C27.37 13 29.2 14.39 29.2 15.69C29.2 16.99 27.35 18.38 24.37 19.32H24.36ZM22.6 27.12C21.6 27.69 19.95 27.12 18.01 25.59C17.69 25.34 17.36 25.05 17.01 24.75C17.8628 23.8275 18.6609 22.8559 19.4 21.84L19.46 21.75C20.8066 21.62 22.143 21.3995 23.46 21.09H23.26C23.3533 21.5167 23.4333 21.9367 23.5 22.35C23.86 24.81 23.5 26.53 22.5 27.1L22.6 27.12ZM14.44 21.89H17.56C17.05 22.54 16.56 23.15 16 23.71C15.4477 23.1249 14.9269 22.5106 14.44 21.87V21.89ZM14 25.59C12.05 27.13 10.38 27.69 9.4 27.12C8.42 26.55 8.07 24.83 8.4 22.39C8.47333 21.9833 8.55333 21.5633 8.64 21.13C9.86489 21.4167 11.1077 21.6205 12.36 21.74H12.48C13.2414 22.7922 14.0698 23.7943 14.96 24.74V24.74C14.64 25.05 14.31 25.34 14 25.59ZM7.64 19.32C4.64 18.38 2.81 16.99 2.81 15.69C2.81 14.39 4.66 13 7.64 12.06C8.03065 13.3634 8.51525 14.6367 9.09 15.87L9 15.69C8.4888 16.7989 8.05444 17.9416 7.7 19.11L7.64 19.32ZM9.4 4.26002C9.6557 4.1139 9.9455 4.038 10.24 4.04002V4.04002C11.648 4.20694 12.9657 4.82019 14 5.79002V5.79002C14.32 6.05002 14.65 6.34002 15 6.64002C14.1424 7.55832 13.3441 8.53029 12.61 9.55002L12.55 9.64002C11.2027 9.76525 9.86606 9.9858 8.55 10.3H8.75C8.66 9.86002 8.58 9.45002 8.51 9.04002C8.07 6.55002 8.42 4.83002 9.4 4.26002ZM17.56 9.50002H14.44C15 8.86002 15.47 8.25002 16 7.69002C16.5518 8.26519 17.0725 8.86938 17.56 9.50002V9.50002ZM22.18 13.94C21.95 13.48 21.7 13.03 21.44 12.58C21.18 12.13 20.91 11.68 20.63 11.24C21.46 11.36 22.26 11.5 22.99 11.68C22.73 12.42 22.47 13.17 22.18 13.94V13.94ZM21.4 18.78C21.66 18.33 21.91 17.87 22.14 17.42C22.45 18.18 22.72 18.94 22.95 19.68C22.22 19.85 21.42 20 20.59 20.12C20.86 19.69 21.15 19.25 21.4 18.78V18.78ZM10.62 15.69C10.99 14.9 11.41 14.1 11.88 13.31C12.35 12.52 12.82 11.75 13.31 11.03C14.17 10.96 15.06 10.93 16 10.93C16.8978 10.9119 17.796 10.9453 18.69 11.03C19.18 11.75 19.69 12.51 20.12 13.31C20.55 14.11 21 14.9 21.38 15.69C21.01 16.48 20.59 17.28 20.12 18.07C19.65 18.86 19.18 19.63 18.69 20.35C17.83 20.42 16.94 20.45 16 20.45C15.1022 20.4682 14.204 20.4348 13.31 20.35C12.7858 19.6209 12.3081 18.8594 11.88 18.07C11.48 17.28 11 16.48 10.62 15.69ZM9 11.69C9.73 11.51 10.53 11.37 11.36 11.25C11.08 11.69 10.82 12.13 10.55 12.59C10.28 13.05 10.04 13.49 9.81 13.95C9.52 13.18 9.27 12.43 9.04 11.69H9ZM9.81 17.45C10.05 17.9 10.29 18.36 10.55 18.81C10.81 19.26 11.08 19.71 11.36 20.15C10.53 20.03 9.73 19.88 9 19.71C9.27 18.96 9.53 18.2 9.82 17.44L9.81 17.45ZM18.06 5.78002C19.0748 4.83156 20.3622 4.22633 21.74 4.05002H21.81C22.1075 4.04903 22.4003 4.12481 22.66 4.27002V4.27002C23.66 4.84002 23.99 6.56002 23.66 9.00002C23.59 9.41002 23.51 9.82002 23.42 10.26C22.1821 9.97939 20.9255 9.78889 19.66 9.69002H19.55C18.7716 8.63701 17.9265 7.63496 17.02 6.69002C17.3354 6.38624 17.6694 6.10236 18.02 5.84002L18.06 5.78002ZM30.67 15.69C30.67 13.56 28.38 11.74 24.74 10.63C24.85 10.14 24.94 9.63002 25.02 9.21002C25.48 6.11002 24.88 3.89002 23.33 3.02002C21.78 2.15002 19.57 2.69002 17.14 4.69002C16.77 4.98002 16.41 5.31002 16.04 5.69002C15.67 5.35002 15.31 5.02002 14.94 4.69002C12.48 2.69002 10.26 2.14002 8.75 3.04002C7.24 3.94002 6.6 6.11002 7.06 9.21002C7.14 9.67002 7.23 10.14 7.34 10.63C3.63 11.74 1.34 13.56 1.34 15.69C1.34 17.82 3.63 19.69 7.26 20.75C7.15 21.23 7.06 21.75 6.98 22.17C6.52 25.26 7.12 27.49 8.67 28.36C9.13847 28.6294 9.66958 28.7708 10.21 28.77C11.9606 28.6155 13.6103 27.8839 14.9 26.69V26.69C15.27 26.4 15.63 26.07 16 25.69C16.37 26.03 16.73 26.36 17.1 26.69C18.374 27.8563 19.9912 28.579 21.71 28.75H21.79C22.3345 28.7477 22.8688 28.6029 23.34 28.33V28.33C24.89 27.43 25.49 25.23 25.03 22.14C24.95 21.68 24.86 21.21 24.75 20.72C28.37 19.69 30.67 17.82 30.67 15.69Z" fill="black"/>
</svg>
