<svg width="32" height="32" viewBox="0 0 32 32" fill="none" xmlns="http://www.w3.org/2000/svg">
<path d="M22.7039 9.97961C23.0962 10.3684 23.0991 11.0015 22.7103 11.3938L11.0963 23.1144L5.28606 17.1901C4.89935 16.7959 4.90549 16.1627 5.29979 15.776C5.69409 15.3893 6.32722 15.3954 6.71394 15.7897L11.1037 20.2655L21.2897 9.98607C21.6784 9.59377 22.3116 9.59088 22.7039 9.97961Z" fill="black"/>
<path d="M27.7039 9.97961C28.0962 10.3684 28.0991 11.0015 27.7103 11.3938L15.995 23.2166L15 21.8899C14.6686 21.4481 14.7582 20.8213 15.2 20.4899C15.4523 20.3007 15.7649 20.2487 16.0484 20.3213L26.2897 9.98607C26.6784 9.59377 27.3116 9.59088 27.7039 9.97961Z" fill="black"/>
<path d="M11.7071 15.7829C11.3166 15.3924 10.6834 15.3924 10.2929 15.7829C9.90237 16.1734 9.90237 16.8066 10.2929 17.1971L10.7929 17.6971C11.1834 18.0876 11.8166 18.0876 12.2071 17.6971C12.5976 17.3066 12.5976 16.6734 12.2071 16.2829L11.7071 15.7829Z" fill="black"/>
</svg>
