<svg width="32" height="32" viewBox="0 0 32 32" fill="none" xmlns="http://www.w3.org/2000/svg">
<path d="M21.7103 10.7039C22.0991 10.3116 22.0962 9.67841 21.7039 9.28967C21.3116 8.90093 20.6784 8.90383 20.2897 9.29613L13.1191 16.5325L11.7139 15.0998C11.3272 14.7055 10.6941 14.6993 10.2998 15.0861C9.90549 15.4728 9.89935 16.1059 10.2861 16.5002L11.7112 17.9533L10.1037 19.5756L5.71394 15.0998C5.32722 14.7055 4.69409 14.6993 4.29979 15.0861C3.90549 15.4728 3.89935 16.1059 4.28606 16.5002L10.0963 22.4244L13.1118 19.3813L16.0963 22.4244L27.7103 10.7039C28.0991 10.3116 28.0962 9.67841 27.7039 9.28967C27.3116 8.90093 26.6784 8.90383 26.2897 9.29613L16.1037 19.5756L14.5197 17.9605L21.7103 10.7039Z" fill="black"/>
</svg>
