<svg width="32" height="32" viewBox="0 0 32 32" fill="none" xmlns="http://www.w3.org/2000/svg">
<path d="M9 9.68994C9 9.13766 9.44772 8.68994 10 8.68994H17C17.5523 8.68994 18 9.13766 18 9.68994C18 10.2422 17.5523 10.6899 17 10.6899H10C9.44772 10.6899 9 10.2422 9 9.68994Z" fill="black"/>
<path d="M9 13.6899C9 13.1377 9.44772 12.6899 10 12.6899H22C22.5523 12.6899 23 13.1377 23 13.6899C23 14.2422 22.5523 14.6899 22 14.6899H10C9.44772 14.6899 9 14.2422 9 13.6899Z" fill="black"/>
<path d="M10 16.6899C9.44772 16.6899 9 17.1377 9 17.6899C9 18.2422 9.44772 18.6899 10 18.6899H22C22.5523 18.6899 23 18.2422 23 17.6899C23 17.1377 22.5523 16.6899 22 16.6899H10Z" fill="black"/>
<path d="M9 21.6899C9 21.1377 9.44772 20.6899 10 20.6899H14C14.5523 20.6899 15 21.1377 15 21.6899C15 22.2422 14.5523 22.6899 14 22.6899H10C9.44772 22.6899 9 22.2422 9 21.6899Z" fill="black"/>
<path fill-rule="evenodd" clip-rule="evenodd" d="M27 2.68997C27 2.28551 26.7564 1.92087 26.3827 1.76609C26.009 1.61131 25.5789 1.69687 25.2929 1.98286L23 4.27576L20.7071 1.98286C20.3166 1.59234 19.6834 1.59234 19.2929 1.98286L17 4.27576L14.7071 1.98286C14.3166 1.59234 13.6834 1.59234 13.2929 1.98286L11 4.27576L8.70711 1.98286C8.31658 1.59234 7.68342 1.59234 7.29289 1.98286L5.29289 3.98286C5.10536 4.1704 5 4.42475 5 4.68997V26.69C5 26.9552 5.10536 27.2095 5.29289 27.3971L7.29289 29.3971C7.68342 29.7876 8.31658 29.7876 8.70711 29.3971L11 27.1042L13.2929 29.3971C13.6834 29.7876 14.3166 29.7876 14.7071 29.3971L17 27.1042L19.2929 29.3971C19.6834 29.7876 20.3166 29.7876 20.7071 29.3971L23 27.1042L25.2929 29.3971C25.5789 29.6831 26.009 29.7686 26.3827 29.6138C26.7564 29.4591 27 29.0944 27 28.69V2.68997ZM7 26.2758V5.10418L8 4.10418L10.2929 6.39708C10.6834 6.7876 11.3166 6.7876 11.7071 6.39708L14 4.10418L16.2929 6.39708C16.6834 6.7876 17.3166 6.7876 17.7071 6.39708L20 4.10418L22.2929 6.39708C22.6834 6.7876 23.3166 6.7876 23.7071 6.39708L25 5.10418V26.2758L23.7071 24.9829C23.3166 24.5923 22.6834 24.5923 22.2929 24.9829L20 27.2758L17.7071 24.9829C17.3166 24.5923 16.6834 24.5923 16.2929 24.9829L14 27.2758L11.7071 24.9829C11.3166 24.5923 10.6834 24.5923 10.2929 24.9829L8 27.2758L7 26.2758Z" fill="black"/>
</svg>
