<svg width="32" height="32" viewBox="0 0 32 32" fill="none" xmlns="http://www.w3.org/2000/svg">
<path d="M9 10C9 9.44772 9.44772 9 10 9H17C17.5523 9 18 9.44772 18 10C18 10.5523 17.5523 11 17 11H10C9.44772 11 9 10.5523 9 10Z" fill="black"/>
<path d="M10 14C9.44772 14 9 14.4477 9 15C9 15.5523 9.44772 16 10 16H22C22.5523 16 23 15.5523 23 15C23 14.4477 22.5523 14 22 14H10Z" fill="black"/>
<path d="M9 19C9 18.4477 9.44772 18 10 18H22C22.5523 18 23 18.4477 23 19C23 19.5523 22.5523 20 22 20H10C9.44772 20 9 19.5523 9 19Z" fill="black"/>
<path d="M10 24C9.44772 24 9 24.4477 9 25C9 25.5523 9.44772 26 10 26H14C14.5523 26 15 25.5523 15 25C15 24.4477 14.5523 24 14 24H10Z" fill="black"/>
<path fill-rule="evenodd" clip-rule="evenodd" d="M26.3827 2.07615C26.7564 2.23093 27 2.59557 27 3.00003V26C27 28.2523 25.2523 30 23 30H9C6.74772 30 5 28.2523 5 26V5.00003C5 4.73481 5.10536 4.48046 5.29289 4.29292L7.29289 2.29292C7.68342 1.9024 8.31658 1.9024 8.70711 2.29292L11 4.58582L13.2929 2.29292C13.6834 1.9024 14.3166 1.9024 14.7071 2.29292L17 4.58582L19.2929 2.29292C19.6834 1.9024 20.3166 1.9024 20.7071 2.29292L23 4.58581L25.2929 2.29292C25.5789 2.00692 26.009 1.92137 26.3827 2.07615ZM7 5.41424V26C7 27.1477 7.85228 28 9 28H23C24.1477 28 25 27.1477 25 26V5.41424L23.7071 6.70714C23.3166 7.09766 22.6834 7.09766 22.2929 6.70714L20 4.41424L17.7071 6.70714C17.3166 7.09766 16.6834 7.09766 16.2929 6.70714L14 4.41424L11.7071 6.70714C11.3166 7.09766 10.6834 7.09766 10.2929 6.70714L8 4.41424L7 5.41424Z" fill="black"/>
</svg>
