<svg width="32" height="32" viewBox="0 0 32 32" fill="none" xmlns="http://www.w3.org/2000/svg">
<path d="M25.9071 6.11789C20.4166 0.627369 11.5834 0.627369 6.09289 6.11789L5 7.21079V4.0249C5 3.47262 4.55228 3.0249 4 3.0249C3.44772 3.0249 3 3.47262 3 4.0249V10.6249H3.98599C3.99533 10.625 4.00467 10.625 4.01401 10.6249H9.6C10.1523 10.6249 10.6 10.1772 10.6 9.6249C10.6 9.07262 10.1523 8.6249 9.6 8.6249H6.41431L7.50711 7.53211C12.2166 2.82263 19.7834 2.82263 24.4929 7.53211C26.7972 9.83639 28 12.9784 28 16.025C28 16.5773 28.4477 17.025 29 17.025C29.5523 17.025 30 16.5773 30 16.025C30 12.4716 28.6028 8.81361 25.9071 6.11789Z" fill="black"/>
<path d="M21.4 22.425C21.4 21.8728 21.8477 21.425 22.4 21.425H27.9828C27.9943 21.4249 28.0057 21.4249 28.0172 21.425H29V22.4214C29 22.4237 29 22.4261 29 22.4284V28.025C29 28.5773 28.5523 29.025 28 29.025C27.4477 29.025 27 28.5773 27 28.025V24.8391L25.9071 25.932C20.4166 31.4225 11.5834 31.4225 6.09289 25.932C3.39718 23.2363 2 19.5783 2 16.0249C2 15.4726 2.44772 15.0249 3 15.0249C3.55228 15.0249 4 15.4726 4 16.0249C4 19.0715 5.20282 22.2135 7.50711 24.5178C12.2166 29.2273 19.7834 29.2273 24.4929 24.5178L25.5856 23.425H22.4C21.8477 23.425 21.4 22.9773 21.4 22.425Z" fill="black"/>
</svg>
