<svg width="32" height="32" viewBox="0 0 32 32" fill="none" xmlns="http://www.w3.org/2000/svg">
<path d="M7.50711 7.53211C12.2166 2.82263 19.7834 2.82263 24.4929 7.53211L25.5857 8.6249H22.4C21.8477 8.6249 21.4 9.07262 21.4 9.6249C21.4 10.1772 21.8477 10.6249 22.4 10.6249H27.986C27.9953 10.625 28.0047 10.625 28.014 10.6249H29V4.0249C29 3.47262 28.5523 3.0249 28 3.0249C27.4477 3.0249 27 3.47262 27 4.0249V7.21078L25.9071 6.11789C20.4166 0.627369 11.5834 0.627369 6.09289 6.11789C3.39718 8.81361 2 12.4716 2 16.025C2 16.5773 2.44772 17.025 3 17.025C3.55228 17.025 4 16.5773 4 16.025C4 12.9784 5.20282 9.83639 7.50711 7.53211Z" fill="black"/>
<path d="M4.01721 21.425H9.6C10.1523 21.425 10.6 21.8728 10.6 22.425C10.6 22.9773 10.1523 23.425 9.6 23.425H6.41436L7.50711 24.5178C12.2166 29.2273 19.7834 29.2273 24.4929 24.5178C26.7972 22.2135 28 19.0715 28 16.0249C28 15.4726 28.4477 15.0249 29 15.0249C29.5523 15.0249 30 15.4726 30 16.0249C30 19.5783 28.6028 23.2363 25.9071 25.932C20.4166 31.4225 11.5834 31.4225 6.09289 25.932L5 24.8391V28.025C5 28.5773 4.55228 29.025 4 29.025C3.44772 29.025 3 28.5773 3 28.025V21.425H3.98279C3.99426 21.4249 4.00574 21.4249 4.01721 21.425Z" fill="black"/>
</svg>
