<svg width="32" height="32" viewBox="0 0 32 32" fill="none" xmlns="http://www.w3.org/2000/svg">
<path d="M30.84 13.54V17.69C30.8357 17.7455 30.8154 17.7986 30.7818 17.8429C30.7481 17.8873 30.7023 17.921 30.65 17.94L16.3 23.62H16.07L1.71999 17.9C1.67571 17.883 1.63668 17.8546 1.60683 17.8178C1.57699 17.7809 1.55738 17.7368 1.54999 17.69V13.59C1.54999 13.59 1.62999 13.59 1.69999 13.59L16.05 19.31H16.27L30.62 13.59C30.62 13.59 30.83 13.5 30.84 13.54ZM1.48999 11.11V7.00999C1.49212 6.95275 1.51007 6.89722 1.54184 6.84956C1.57361 6.8019 1.61797 6.76397 1.66999 6.73999L16 1.01999H16.22L30.59 6.73999C30.6457 6.76242 30.6945 6.79923 30.7314 6.84666C30.7683 6.89409 30.792 6.95044 30.8 7.00999V11.11C30.7939 11.1674 30.7732 11.2224 30.74 11.2696C30.7067 11.3168 30.662 11.3548 30.61 11.38L16.25 17.09H16L1.66999 11.38C1.61927 11.3543 1.57605 11.3159 1.54451 11.2686C1.51297 11.2213 1.49419 11.1667 1.48999 11.11V11.11ZM18.26 9.10999L11.49 9.81999L16.77 11.92L18.26 9.11999V9.10999ZM22.77 5.50999L19.15 7.00999L23.25 8.68999C23.25 8.68999 26.88 7.14999 26.87 7.13999L22.77 5.50999ZM14 3.97999L11.27 4.49999L14.44 4.85999L15.16 6.11999L16.46 4.94999L19.64 5.17999L17.41 4.17999L18.56 3.08999L15.77 3.68999L13.38 2.84999L14 3.97999ZM5.47999 7.20999C5.47999 7.96999 6.99999 8.58999 8.75999 8.58999C10.52 8.58999 12.05 7.96999 12.05 7.20999C12.05 6.44999 10.58 5.82999 8.75999 5.82999C6.93999 5.82999 5.47999 6.44999 5.47999 7.20999ZM30.62 20.3L16.27 26.01H16.05L1.69999 20.3C1.62999 20.3 1.53999 20.3 1.54999 20.3V24.4C1.55015 24.4539 1.56642 24.5065 1.59672 24.551C1.62701 24.5956 1.66995 24.63 1.71999 24.65L16.07 30.38H16.3L30.65 24.65C30.7023 24.631 30.7481 24.5973 30.7818 24.5529C30.8154 24.5086 30.8357 24.4555 30.84 24.4V20.3C30.83 20.23 30.62 20.3 30.62 20.3Z" fill="black"/>
</svg>
