<svg width="32" height="32" viewBox="0 0 32 32" fill="none" xmlns="http://www.w3.org/2000/svg">
<path d="M24.25 13.5C22.1351 12.2344 19.7147 11.5705 17.25 11.58C16.9 11.58 16.56 11.58 16.25 11.58H16.3C16.1209 11.1485 15.8012 10.7904 15.3927 10.5637C14.9842 10.337 14.5111 10.2551 14.0502 10.3313C13.5894 10.4076 13.1678 10.6375 12.8542 10.9837C12.5405 11.3299 12.3532 11.772 12.3226 12.2381C12.292 12.7043 12.42 13.1671 12.6858 13.5512C12.9516 13.9354 13.3395 14.2184 13.7865 14.3542C14.2334 14.49 14.7132 14.4706 15.1477 14.2992C15.5823 14.1277 15.9461 13.8144 16.18 13.41V13.41C16.2043 13.37 16.2213 13.326 16.23 13.28V13.28C16.6086 13.2385 16.9892 13.2184 17.37 13.22C19.5313 13.2158 21.6508 13.8149 23.49 14.95H23.44C27.97 17.57 30.2 22.16 28.44 25.25C26.93 27.85 23.05 28.52 19.16 27.1C18.6864 27.4987 18.1924 27.8725 17.68 28.22H17.62C22.56 30.42 27.84 29.57 29.87 26.05C32.07 22.24 29.56 16.59 24.23 13.52L24.25 13.5ZM20.69 17.63C20.3722 17.8088 20.1076 18.0686 19.9231 18.3831C19.7387 18.6976 19.641 19.0554 19.64 19.42C19.6409 19.7928 19.741 20.1587 19.93 20.48C19.9657 20.5214 19.9991 20.5648 20.03 20.61V20.61C18.9822 22.8949 17.2299 24.7839 15.03 26H14.97C10.45 28.57 5.33001 28.19 3.58001 25.11C2.12001 22.57 3.39001 18.99 6.41001 16.34C6.28066 15.7264 6.19048 15.1051 6.14001 14.48V14.42C1.90001 17.61 0.140006 22.48 2.14001 26C4.38001 29.87 10.52 30.52 15.84 27.45C18.2431 26.0958 20.1837 24.0507 21.41 21.58V21.5H21.7C22.2447 21.5107 22.7714 21.3053 23.165 20.9286C23.5586 20.5519 23.7869 20.0346 23.8 19.49C23.7991 19.1172 23.699 18.7513 23.51 18.43V18.43C23.3388 18.0993 23.0786 17.823 22.7588 17.6322C22.439 17.4414 22.0723 17.3437 21.7 17.35C21.3492 17.3538 21.0051 17.4467 20.7 17.62L20.69 17.63ZM13.81 22.15C13.8052 22.4771 13.723 22.7984 13.57 23.0875C13.4171 23.3767 13.1978 23.6255 12.9301 23.8135C12.6624 24.0016 12.354 24.1235 12.0301 24.1693C11.7062 24.2151 11.376 24.1835 11.0667 24.077C10.7574 23.9706 10.4777 23.7924 10.2506 23.557C10.0234 23.3216 9.85533 23.0357 9.76003 22.7228C9.66472 22.4098 9.64494 22.0788 9.7023 21.7567C9.75966 21.4347 9.89252 21.1308 10.09 20.87V20.87C8.55349 18.6301 7.73395 15.9762 7.74001 13.26C7.74001 13.19 7.74001 13.11 7.74001 13.04C7.74001 6.91 11.37 1.91 15.85 1.91C19.97 1.91 23.31 6.03 23.85 11.46C23.3158 11.2044 22.7684 10.9774 22.21 10.78H22.08C21.38 6.66 18.86 3.57 15.84 3.57C12.28 3.57 9.40001 7.83 9.40001 13.04C9.39481 13.1266 9.39481 13.2134 9.40001 13.3C9.39755 15.742 10.1599 18.1234 11.58 20.11V20.11H11.75C12.2973 20.11 12.8223 20.3267 13.2102 20.7128C13.5981 21.0988 13.8174 21.6227 13.82 22.17V22.17L13.81 22.15Z" fill="black"/>
</svg>
