<svg width="32" height="32" viewBox="0 0 32 32" fill="none" xmlns="http://www.w3.org/2000/svg">
<path d="M8 15C7.44772 15 7 15.4477 7 16C7 16.5523 7.44772 17 8 17H24C24.5523 17 25 16.5523 25 16C25 15.4477 24.5523 15 24 15H8Z" fill="black"/>
<path fill-rule="evenodd" clip-rule="evenodd" d="M6 2C3.74772 2 2 3.74772 2 6V26C2 28.2523 3.74772 30 6 30H26C28.2523 30 30 28.2523 30 26V6C30 3.74772 28.2523 2 26 2H6ZM4 6C4 4.85228 4.85228 4 6 4H26C27.1477 4 28 4.85228 28 6V26C28 27.1477 27.1477 28 26 28H6C4.85228 28 4 27.1477 4 26V6Z" fill="black"/>
</svg>
