<svg width="32" height="32" viewBox="0 0 32 32" fill="none" xmlns="http://www.w3.org/2000/svg">
<path fill-rule="evenodd" clip-rule="evenodd" d="M26 2C26.5523 2 27 2.44772 27 3V13.5C27 14.0523 26.5523 14.5 26 14.5C25.4477 14.5 25 14.0523 25 13.5V4H12V22H13C13.5523 22 14 22.4477 14 23C14 23.5523 13.5523 24 13 24H9C7.85228 24 7 24.8523 7 26C7 27.1477 7.85228 28 9 28H15C15.5523 28 16 28.4477 16 29C16 29.5523 15.5523 30 15 30H9C6.74772 30 5 28.2523 5 26V6C5 3.74772 6.74772 2 9 2H26ZM9 4H10V22H9C8.26525 22 7.5842 22.186 7 22.5148V6C7 4.85228 7.85228 4 9 4Z" fill="black"/>
<path d="M19.2929 22.2929C19.6834 21.9024 20.3166 21.9024 20.7071 22.2929L22 23.5858V20C22 19.4477 22.4477 19 23 19C23.5523 19 24 19.4477 24 20V23.5858L25.2929 22.2929C25.6834 21.9024 26.3166 21.9024 26.7071 22.2929C27.0976 22.6834 27.0976 23.3166 26.7071 23.7071L23 27.4142L19.2929 23.7071C18.9024 23.3166 18.9024 22.6834 19.2929 22.2929Z" fill="black"/>
<path fill-rule="evenodd" clip-rule="evenodd" d="M23 15C18.5817 15 15 18.5817 15 23C15 27.4183 18.5817 31 23 31C27.4183 31 31 27.4183 31 23C31 18.5817 27.4183 15 23 15ZM17 23C17 19.6863 19.6863 17 23 17C26.3137 17 29 19.6863 29 23C29 26.3137 26.3137 29 23 29C19.6863 29 17 26.3137 17 23Z" fill="black"/>
</svg>
