<svg width="32" height="32" viewBox="0 0 32 32" fill="none" xmlns="http://www.w3.org/2000/svg">
<path fill-rule="evenodd" clip-rule="evenodd" d="M16.1 1C15.0545 1 14.042 1.23192 13.0838 1.55132L13.038 1.56658L12.933 1.61324C12.0757 1.99407 11.0613 2.44469 10.2492 3.14074C9.53356 3.75415 8.83537 4.43536 8.34899 5.27393C7.87358 5.99655 7.6 6.77658 7.6 7.6V12.3C7.6 12.7667 7.67465 13.2518 7.74978 13.7401C7.77034 13.8737 7.79094 14.0076 7.81005 14.1414C7.92338 14.9347 8.14892 15.7194 8.48085 16.4939L8.48957 16.5143C8.78432 17.202 9.1033 17.9463 9.53176 18.6961L9.54884 18.726L9.56795 18.7547C9.98135 19.3748 10.5014 20.01 11.1339 20.561L9.77163 21.2001C9.63597 21.2039 9.49888 21.2355 9.36855 21.2978C9.24299 21.3579 9.13568 21.4407 9.04923 21.539L3.14428 24.3092L2.31805 24.7682C2.07873 24.8403 1.83679 24.9461 1.62654 25.0933C1.4248 25.2345 1 25.5953 1 26.2V27C1 29.1523 2.84772 31 5 31H27C29.2523 31 31 29.2523 31 27V26.2C31 25.632 30.613 25.2732 30.4835 25.1599C30.3074 25.0058 30.1134 24.8904 29.9689 24.8165L29.0557 24.3092L22.9627 21.4508C22.9076 21.4021 22.8462 21.3588 22.7789 21.322C22.6742 21.2649 22.5638 21.2285 22.4523 21.2113L21.0669 20.5614C21.6637 20.052 22.2168 19.4861 22.6682 18.6961L22.6973 18.6452C23.0671 17.9983 23.5054 17.2317 23.7436 16.436C23.9107 16.0341 24.0196 15.6448 24.1076 15.2925C24.1429 15.1513 24.1733 15.0236 24.2021 14.9026C24.2539 14.6843 24.3006 14.4879 24.3615 14.2747L24.3803 14.209L24.3899 14.1414C24.4049 14.0368 24.4206 13.9301 24.4364 13.8228C24.5168 13.2768 24.6 12.7121 24.6 12.3V7.6C24.6 6.77657 24.3264 5.99654 23.851 5.27392C23.3646 4.43536 22.6664 3.75415 21.9508 3.14074C21.1341 2.44071 20.221 1.99278 19.3061 1.58619L19.2481 1.56041L19.1873 1.54217C18.1548 1.23242 17.1451 1 16.1 1ZM20.8028 22.6466L20.064 22.3L20.0528 22.2944C18.8572 21.6966 18.5608 20.0214 19.6661 19.1266C20.2177 18.6663 20.6161 18.2562 20.9318 17.7039C21.3467 16.9777 21.6781 16.3867 21.8385 15.8253L21.8559 15.7643L21.8809 15.7061C21.9998 15.4285 22.0847 15.1383 22.1674 14.8075C22.1909 14.7134 22.2157 14.6092 22.2419 14.4992C22.2952 14.2756 22.3544 14.0275 22.4195 13.7928C22.4356 13.6807 22.451 13.5748 22.4656 13.4746C22.5454 12.9263 22.6 12.5517 22.6 12.3V7.6C22.6 7.23431 22.4809 6.82407 22.1679 6.3547L22.1488 6.32604L22.1318 6.29614C21.8188 5.74846 21.3251 5.23856 20.6492 4.65926C20.0788 4.1703 19.4092 3.82279 18.552 3.43973C17.612 3.16062 16.8391 3 16.1 3C15.359 3 14.5862 3.16213 13.7613 3.43376C12.8516 3.83837 12.1103 4.17972 11.5508 4.65926C10.8749 5.23856 10.3812 5.74845 10.0682 6.29614L10.0512 6.32604L10.0321 6.3547C9.71914 6.82407 9.6 7.23431 9.6 7.6V12.3C9.6 12.6007 9.64335 12.8848 9.71102 13.3284C9.73463 13.4832 9.76123 13.6575 9.78995 13.8586C9.87662 14.4653 10.0511 15.0806 10.3191 15.7061C10.6172 16.4016 10.8922 17.0408 11.2511 17.6738C11.6056 18.2008 12.0355 18.71 12.5341 19.1267C13.6392 20.0215 13.3427 21.6967 12.1472 22.2944L12.136 22.3L11.2727 22.705C12.337 24.1121 14.0686 24.9999 16 24.9999C17.9105 24.9999 19.6661 24.0559 20.8028 22.6466ZM9.43257 23.5683L4.05571 26.0908L3.07042 26.6382L3 26.6558V27C3 28.0477 3.95228 29 5 29H27C28.1477 29 29 28.1477 29 27V26.5662L28.1443 26.0908L22.6534 23.5148C21.1837 25.5706 18.7383 26.9999 16 26.9999C13.3082 26.9999 10.8541 25.6869 9.43257 23.5683Z" fill="black"/>
</svg>
