<?xml version="1.0" encoding="UTF-8"?>
<svg width="24px" height="24px" viewBox="0 0 24 24" version="1.1" xmlns="http://www.w3.org/2000/svg" xmlns:xlink="http://www.w3.org/1999/xlink">
    <!-- Generator: Sketch 48.2 (47327) - http://www.bohemiancoding.com/sketch -->
    <title>role-superuser</title>
    <desc>Created with Sketch.</desc>
    <defs></defs>
    <g id="Page-1" stroke="none" stroke-width="1" fill="none" fill-rule="evenodd" stroke-linecap="round" stroke-linejoin="round">
        <g id="role-superuser" stroke="#000000" stroke-width="1.5">
            <path d="M20,22 L20,19 C20,16.790861 18.209139,15 16,15 L8,15 C5.790861,15 4,16.790861 4,19 L4,22 C4,22.5522847 4.44771525,23 5,23 L19,23 C19.5522847,23 20,22.5522847 20,22 Z" id="Shape"></path>
            <path d="M12,12 C14.7614237,12 17,9.60719872 17,5.88888889 C17,3.18883011 14.7614237,1 12,1 C9.23857625,1 7,3.18883011 7,5.88888889 C7,9.58405919 9.23857625,12 12,12 Z" id="Oval"></path>
            <polyline id="Path-2" points="13 15 14.9991455 20 12 23 9 20 11 15"></polyline>
        </g>
    </g>
</svg>