<svg width="32" height="32" viewBox="0 0 32 32" fill="none" xmlns="http://www.w3.org/2000/svg">
<path d="M22 26C21.4477 26 21 26.4477 21 27C21 27.5523 21.4477 28 22 28H24C24.5523 28 25 27.5523 25 27C25 26.4477 24.5523 26 24 26H22Z" fill="black"/>
<path fill-rule="evenodd" clip-rule="evenodd" d="M13.0838 1.55132C14.042 1.23192 15.0545 1 16.1 1C17.1451 1 18.1548 1.23242 19.1873 1.54217L19.2481 1.56041L19.3061 1.58619C20.221 1.99278 21.1341 2.44071 21.9508 3.14074C22.6664 3.75415 23.3646 4.43536 23.851 5.27392C24.3264 5.99654 24.6 6.77657 24.6 7.6V12.3C24.6 12.7121 24.5169 13.2762 24.4365 13.8221C24.4207 13.9295 24.4049 14.0368 24.3899 14.1414L24.3803 14.209L24.3615 14.2747C24.3006 14.4879 24.254 14.6842 24.2021 14.9025C24.1733 15.0235 24.1429 15.1514 24.1076 15.2925C24.0196 15.6448 23.9107 16.0341 23.7436 16.436C23.5054 17.2317 23.0672 17.9983 22.6974 18.6452L22.6682 18.6961C22.2168 19.4861 21.6637 20.052 21.0669 20.5614L22.4523 21.2113C22.5638 21.2285 22.6742 21.2649 22.7789 21.322C22.8462 21.3588 22.9076 21.4021 22.9627 21.4508L29.0557 24.3092L29.9689 24.8165C30.1134 24.8904 30.3074 25.0058 30.4835 25.1599C30.613 25.2732 31 25.632 31 26.2V27C31 29.2523 29.2523 31 27 31H5C2.84772 31 1 29.1523 1 27V26.2C1 25.5953 1.4248 25.2345 1.62654 25.0933C1.83679 24.9461 2.07873 24.8403 2.31805 24.7682L3.14428 24.3092L9.04921 21.539C9.13567 21.4407 9.24298 21.3579 9.36854 21.2978C9.49887 21.2355 9.63596 21.2039 9.77163 21.2001L11.1339 20.561C10.5014 20.01 9.98135 19.3748 9.56795 18.7547L9.54884 18.726L9.53176 18.6961C9.1033 17.9463 8.78432 17.202 8.48957 16.5143L8.48085 16.4939C8.14892 15.7194 7.92338 14.9347 7.81005 14.1414C7.79094 14.0076 7.77034 13.8737 7.74978 13.7401C7.67465 13.2518 7.6 12.7667 7.6 12.3V7.6C7.6 6.77658 7.87358 5.99655 8.34899 5.27393C8.83537 4.43536 9.53356 3.75415 10.2492 3.14074C11.0613 2.44469 12.0757 1.99407 12.933 1.61324L13.038 1.56658L13.0838 1.55132ZM20.064 22.3L20.8027 22.6466C19.6661 24.0559 17.9105 24.9999 16 24.9999C14.0686 24.9999 12.337 24.1122 11.2727 22.705L12.136 22.3L12.1472 22.2944C13.3427 21.6967 13.6392 20.0215 12.5341 19.1267C12.0355 18.71 11.6056 18.2008 11.2511 17.6738C10.8922 17.0408 10.6172 16.4016 10.3191 15.7061C10.0511 15.0806 9.87662 14.4653 9.78995 13.8586C9.76123 13.6575 9.73466 13.4834 9.71105 13.3286C9.64338 12.885 9.6 12.6007 9.6 12.3V7.6C9.6 7.23431 9.71914 6.82407 10.0321 6.3547L10.0512 6.32604L10.0682 6.29614C10.3812 5.74845 10.8749 5.23856 11.5508 4.65926C12.1103 4.17972 12.8516 3.83837 13.7613 3.43376C14.5862 3.16213 15.359 3 16.1 3C16.8391 3 17.612 3.16062 18.552 3.43973C19.4092 3.82279 20.0788 4.1703 20.6492 4.65926C21.3251 5.23856 21.8188 5.74846 22.1318 6.29614L22.1488 6.32604L22.1679 6.3547C22.4809 6.82407 22.6 7.23431 22.6 7.6V12.3C22.6 12.5517 22.5454 12.9263 22.4656 13.4746C22.451 13.5748 22.4356 13.6807 22.4195 13.7928C22.3544 14.0275 22.2954 14.2748 22.2421 14.4983L22.2419 14.4995C22.2157 14.6094 22.1909 14.7135 22.1674 14.8075C22.0847 15.1383 21.9998 15.4285 21.8809 15.7061L21.8559 15.7643L21.8385 15.8253C21.6781 16.3867 21.3467 16.9777 20.9318 17.7039C20.6161 18.2562 20.2177 18.6663 19.6661 19.1266C18.5608 20.0214 18.8572 21.6966 20.0528 22.2944L20.064 22.3ZM4.05571 26.0908L9.43256 23.5683C10.8541 25.6869 13.3082 26.9999 16 26.9999C18.7383 26.9999 21.1837 25.5706 22.6534 23.5148L28.1443 26.0908L29 26.5662V27C29 28.1477 28.1477 29 27 29H5C3.95228 29 3 28.0477 3 27V26.6558L3.07042 26.6382L4.05571 26.0908Z" fill="black"/>
</svg>
