<svg width="32" height="32" viewBox="0 0 32 32" fill="none" xmlns="http://www.w3.org/2000/svg">
<path d="M20 2C19.4477 2 19 2.44772 19 3C19 3.55228 19.4477 4 20 4H26C27.1477 4 28 4.85228 28 6V6.00833L28.084 11.0465C23.5582 11.5088 20 15.3568 20 20V21H28V26C28 27.1477 27.1477 28 26 28H6C4.85228 28 4 27.1477 4 26V21C4 20.4477 3.55228 20 3 20C2.44772 20 2 20.4477 2 21V26C2 28.2523 3.74772 30 6 30H26C28.2523 30 30 28.2523 30 26V20C30 19.4477 29.5523 19 29 19H22.0719C22.5614 15.6208 25.4916 13 29 13C29.0167 13 29.0333 12.9996 29.0499 12.9988C29.0719 12.9999 29.0942 13.0002 29.1167 12.9999C29.6689 12.9907 30.1091 12.5355 30.0999 11.9833L30 5.99115C29.9954 3.74314 28.2493 2 26 2H20Z" fill="black"/>
<path d="M6 2C3.74772 2 2 3.74772 2 6V12C2 12.5523 2.44772 13 3 13C3.55228 13 4 12.5523 4 12V6C4 4.85228 4.85228 4 6 4H12C12.5523 4 13 3.55228 13 3C13 2.44772 12.5523 2 12 2H6Z" fill="black"/>
</svg>
