<svg width="32" height="32" viewBox="0 0 32 32" fill="none" xmlns="http://www.w3.org/2000/svg">
<path d="M19.7071 9.29304L16.7174 6.30334C16.7106 6.29632 16.7037 6.28941 16.6967 6.2826L16 5.58594L15.3033 6.2826C15.2963 6.28941 15.2894 6.29633 15.2826 6.30334L12.2929 9.29304C11.9024 9.68357 11.9024 10.3167 12.2929 10.7073C12.6834 11.0978 13.3166 11.0978 13.7071 10.7073L15 9.41436V13C15 13.5523 15.4477 14 16 14C16.5523 14 17 13.5523 17 13V9.41437L18.2929 10.7073C18.6834 11.0978 19.3166 11.0978 19.7071 10.7073C20.0976 10.3167 20.0976 9.68357 19.7071 9.29304Z" fill="black"/>
<path d="M17 19V22.5858L18.2929 21.2929C18.6834 20.9024 19.3166 20.9024 19.7071 21.2929C20.0976 21.6834 20.0976 22.3166 19.7071 22.7071L16 26.4142L12.2929 22.7071C11.9024 22.3166 11.9024 21.6834 12.2929 21.2929C12.6834 20.9024 13.3166 20.9024 13.7071 21.2929L15 22.5858V19C15 18.4477 15.4477 18 16 18C16.5523 18 17 18.4477 17 19Z" fill="black"/>
<path d="M21.4142 15L22.7071 13.7071C23.0976 13.3166 23.0976 12.6834 22.7071 12.2929C22.3166 11.9024 21.6834 11.9024 21.2929 12.2929L17.5858 16L21.2929 19.7071C21.6834 20.0976 22.3166 20.0976 22.7071 19.7071C23.0976 19.3166 23.0976 18.6834 22.7071 18.2929L21.4142 17H25C25.5523 17 26 16.5523 26 16C26 15.4477 25.5523 15 25 15H21.4142Z" fill="black"/>
<path d="M9.29289 12.2929C9.68342 11.9024 10.3166 11.9024 10.7071 12.2929L13.7066 15.2924C13.7069 15.2927 13.7073 15.2931 13.7076 15.2934L14.4142 16L13.7074 16.7068C13.7077 16.7066 13.7072 16.707 13.7074 16.7068L10.7071 19.7071C10.3166 20.0976 9.68342 20.0976 9.29289 19.7071C8.90237 19.3166 8.90237 18.6834 9.29289 18.2929L10.5858 17H7C6.44772 17 6 16.5523 6 16C6 15.4477 6.44772 15 7 15H10.5858L9.29289 13.7071C8.90237 13.3166 8.90237 12.6834 9.29289 12.2929Z" fill="black"/>
<path fill-rule="evenodd" clip-rule="evenodd" d="M2 16C2 8.26801 8.26801 2 16 2C23.732 2 30 8.26801 30 16C30 23.732 23.732 30 16 30C8.26801 30 2 23.732 2 16ZM16 4C9.37258 4 4 9.37258 4 16C4 22.6274 9.37258 28 16 28C22.6274 28 28 22.6274 28 16C28 9.37258 22.6274 4 16 4Z" fill="black"/>
</svg>
