<svg width="32" height="32" viewBox="0 0 32 32" fill="none" xmlns="http://www.w3.org/2000/svg">
<path d="M16 6C16.5523 6 17 6.44772 17 7V10.5858L18.2929 9.29289C18.6834 8.90237 19.3166 8.90237 19.7071 9.29289C20.0976 9.68342 20.0976 10.3166 19.7071 10.7071L16 14.4142L12.2929 10.7071C11.9024 10.3166 11.9024 9.68342 12.2929 9.29289C12.6834 8.90237 13.3166 8.90237 13.7071 9.29289L15 10.5858V7C15 6.44772 15.4477 6 16 6Z" fill="black"/>
<path d="M16 17.5859L16.6967 18.2826C16.7037 18.2894 16.7106 18.2963 16.7174 18.3033L19.7071 21.293C20.0976 21.6836 20.0976 22.3167 19.7071 22.7073C19.3166 23.0978 18.6834 23.0978 18.2929 22.7073L17 21.4144V25C17 25.5523 16.5523 26 16 26C15.4477 26 15 25.5523 15 25V21.4144L13.7071 22.7073C13.3166 23.0978 12.6834 23.0978 12.2929 22.7073C11.9024 22.3167 11.9024 21.6836 12.2929 21.293L15.2826 18.3033C15.2894 18.2963 15.2963 18.2894 15.3033 18.2826L16 17.5859Z" fill="black"/>
<path d="M22.7071 13.7071C23.0976 13.3166 23.0976 12.6834 22.7071 12.2929C22.3166 11.9024 21.6834 11.9024 21.2929 12.2929L17.5858 16L21.2929 19.7071C21.6834 20.0976 22.3166 20.0976 22.7071 19.7071C23.0976 19.3166 23.0976 18.6834 22.7071 18.2929L21.4142 17H25C25.5523 17 26 16.5523 26 16C26 15.4477 25.5523 15 25 15H21.4142L22.7071 13.7071Z" fill="black"/>
<path d="M9.29289 12.2929C9.68342 11.9024 10.3166 11.9024 10.7071 12.2929L13.7066 15.2924C13.7069 15.2927 13.7073 15.2931 13.7076 15.2934L14.4142 16L13.7074 16.7068C13.7077 16.7066 13.7072 16.707 13.7074 16.7068L10.7071 19.7071C10.3166 20.0976 9.68342 20.0976 9.29289 19.7071C8.90237 19.3166 8.90237 18.6834 9.29289 18.2929L10.5858 17H7C6.44772 17 6 16.5523 6 16C6 15.4477 6.44772 15 7 15H10.5858L9.29289 13.7071C8.90237 13.3166 8.90237 12.6834 9.29289 12.2929Z" fill="black"/>
<path fill-rule="evenodd" clip-rule="evenodd" d="M2 16C2 8.26801 8.26801 2 16 2C23.732 2 30 8.26801 30 16C30 23.732 23.732 30 16 30C8.26801 30 2 23.732 2 16ZM16 4C9.37258 4 4 9.37258 4 16C4 22.6274 9.37258 28 16 28C22.6274 28 28 22.6274 28 16C28 9.37258 22.6274 4 16 4Z" fill="black"/>
</svg>
