<svg width="32" height="32" viewBox="0 0 32 32" fill="none" xmlns="http://www.w3.org/2000/svg">
<path d="M27.09 13.69L25.66 13.5V9.49999L27.09 10.01V13.69ZM20.68 10.35L17.76 10.84V14.04L19.23 14.14L20.68 14.06V26.74L16 29.11V2.28999L20.68 4.62999V10.35ZM14.23 12.11L6.31999 11.11V7.14999L14.23 9.00999V12.11ZM27.53 8.78999L26.11 8.26999C25.9743 8.22568 25.8327 8.20208 25.69 8.19999H25.45L22 8.74999V4.61999C22.0016 4.3822 21.937 4.14865 21.8134 3.94553C21.6897 3.7424 21.512 3.57773 21.3 3.46999V3.46999L16.58 1.15999C16.3975 1.0762 16.2006 1.02865 16 1.01999V1.01999C15.7957 1.02485 15.5947 1.07255 15.41 1.15999V1.15999L10.73 3.50999C10.507 3.61467 10.3192 3.78197 10.1896 3.99148C10.06 4.201 9.9941 4.44369 9.99999 4.68999V4.68999V6.68999L6.60999 5.88999H6.31999C6.11828 5.88993 5.91946 5.93793 5.73999 6.02999V6.02999L4.31999 6.74999C4.11134 6.85492 3.9351 7.01452 3.81005 7.21177C3.68501 7.40902 3.61586 7.63652 3.60999 7.86999V7.86999V11.44C3.62194 11.751 3.74423 12.0476 3.95495 12.2766C4.16567 12.5057 4.45106 12.6522 4.75999 12.69V12.69L10.01 13.28V26.69C10.0083 26.9278 10.0729 27.1613 10.1966 27.3645C10.3202 27.5676 10.498 27.7322 10.71 27.84V27.84L15.4 30.19C15.5824 30.2738 15.7794 30.3213 15.98 30.33V30.33C16.1836 30.3202 16.3837 30.2727 16.57 30.19V30.19L21.25 27.84C21.4713 27.7393 21.6594 27.5777 21.7922 27.3741C21.925 27.1704 21.9971 26.9331 22 26.69V15.23L27.16 14.96C27.4848 14.9378 27.7897 14.7954 28.0152 14.5606C28.2408 14.3258 28.3708 14.0154 28.38 13.69V13.69V9.91999C28.3715 9.6625 28.2873 9.41322 28.1379 9.20333C27.9885 8.99345 27.7805 8.83228 27.54 8.73999L27.53 8.78999Z" fill="black"/>
</svg>
