<svg width="32" height="32" viewBox="0 0 32 32" fill="none" xmlns="http://www.w3.org/2000/svg">
<path d="M7 24C6.44772 24 6 24.4477 6 25C6 25.5523 6.44772 26 7 26H10C10.5523 26 11 25.5523 11 25C11 24.4477 10.5523 24 10 24H7Z" fill="black"/>
<path d="M19 25C19 24.4477 19.4477 24 20 24H21C21.5523 24 22 24.4477 22 25C22 25.5523 21.5523 26 21 26H20C19.4477 26 19 25.5523 19 25Z" fill="black"/>
<path d="M16 24C15.4477 24 15 24.4477 15 25C15 25.5523 15.4477 26 16 26H17C17.5523 26 18 25.5523 18 25C18 24.4477 17.5523 24 17 24H16Z" fill="black"/>
<path d="M23 25C23 24.4477 23.4477 24 24 24H25C25.5523 24 26 24.4477 26 25C26 25.5523 25.5523 26 25 26H24C23.4477 26 23 25.5523 23 25Z" fill="black"/>
<path fill-rule="evenodd" clip-rule="evenodd" d="M12 3C12 2.44772 11.5523 2 11 2C10.4477 2 10 2.44772 10 3V9H9.9C8.39266 9 6.94557 9.94392 6.28963 11.3862L2.09919 20.5653C2.06542 20.6351 2.03953 20.7095 2.02269 20.7872C2.00565 20.8651 1.99828 20.9437 2 21.0214V26C2 28.2523 3.74772 30 6 30H26C28.2523 30 30 28.2523 30 26V21.0211C30.0017 20.9421 29.9941 20.8622 29.9764 20.7832C29.9589 20.704 29.932 20.6283 29.897 20.5574L25.608 11.381C24.9596 9.95937 23.6247 9 22 9H12V3ZM9.9 11C9.2076 11 8.45459 11.4565 8.11037 12.2138L4.5558 20H27.4288L23.7896 12.2138C23.4371 11.4383 22.7734 11 22 11H9.9ZM4 22V26C4 27.1477 4.85228 28 6 28H26C27.1477 28 28 27.1477 28 26V22H4Z" fill="black"/>
</svg>
