<svg width="32" height="32" viewBox="0 0 32 32" fill="none" xmlns="http://www.w3.org/2000/svg">
<path fill-rule="evenodd" clip-rule="evenodd" d="M23.6987 3C23.9644 2.99967 24.2193 3.10505 24.4071 3.29289L27.9071 6.79289C29.4976 8.38342 29.4976 10.9166 27.9071 12.5071L12.4071 28.0071C10.8399 29.5743 8.29336 29.6256 6.77868 27.9929L3.29289 24.5071C2.90307 24.1173 2.90227 23.4855 3.29111 23.0947L5.73452 20.6389C5.77972 20.4711 5.86928 20.3128 6.00293 20.1829C6.12809 20.0612 6.27693 19.9789 6.43413 19.9357L8.54009 17.8191C8.58351 17.6703 8.66226 17.5295 8.77665 17.4096C8.90123 17.2791 9.05267 17.1897 9.21405 17.1417L11.5206 14.8234C11.5655 14.7407 11.6229 14.6629 11.6929 14.5929C11.7616 14.5242 11.8378 14.4676 11.9189 14.4231L14.3393 11.9904C14.3811 11.9199 14.4323 11.8535 14.4929 11.7929C14.5522 11.7336 14.6172 11.6832 14.686 11.6419L17.0614 9.25452C17.1124 9.11557 17.1952 8.98586 17.3095 8.87674C17.4106 8.78027 17.5266 8.70914 17.6497 8.66318L19.8701 6.43151C19.9162 6.3152 19.985 6.20564 20.0767 6.10958C20.1785 6.0029 20.2983 5.92366 20.4267 5.87207L22.9911 3.29469C23.1785 3.10636 23.4331 3.00034 23.6987 3ZM20.8766 8.25557L22.3095 9.62341C22.709 10.0047 23.342 9.99003 23.7234 9.59053C24.1047 9.19103 24.09 8.55804 23.6905 8.1767L22.2875 6.83748L23.7018 5.41601L26.4929 8.20711C27.3024 9.01658 27.3024 10.2834 26.4929 11.0929L10.9929 26.5929C10.1655 27.4202 8.92444 27.374 8.23715 26.6243C8.22737 26.6136 8.21735 26.6031 8.20711 26.5929L5.41243 23.7982L6.78342 22.4203L9.48302 25.197C9.868 25.593 10.5011 25.6019 10.8971 25.2169C11.2931 24.8319 11.302 24.1988 10.917 23.8028L8.19425 21.0023L9.60581 19.5835L11.0095 20.9235C11.409 21.3048 12.042 21.2901 12.4234 20.8906C12.8047 20.4911 12.79 19.8581 12.3905 19.4767L11.0167 18.1655L12.4304 16.7446L13.7929 18.1072C14.1834 18.4977 14.8166 18.4977 15.2071 18.1072C15.5976 17.7166 15.5976 17.0835 15.2071 16.6929L13.841 15.3268L15.2233 13.9375L17.9929 16.7071C18.3834 17.0976 19.0166 17.0976 19.4071 16.7071C19.7976 16.3166 19.7976 15.6834 19.4071 15.2929L16.634 12.5197L18.0479 11.0986L19.3766 12.4906C19.758 12.8901 20.391 12.9048 20.7905 12.5235C21.19 12.1421 21.2047 11.5091 20.8234 11.1096L19.459 9.68032L20.8766 8.25557Z" fill="black"/>
</svg>
