<svg width="32" height="32" viewBox="0 0 32 32" fill="none" xmlns="http://www.w3.org/2000/svg">
<path fill-rule="evenodd" clip-rule="evenodd" d="M16 12C17.8638 12 19.4299 13.2748 19.874 15H24C24.5523 15 25 15.4477 25 16C25 16.5523 24.5523 17 24 17H19.874C19.4299 18.7252 17.8638 20 16 20C13.7909 20 12 18.2091 12 16C12 13.7909 13.7909 12 16 12ZM14 16C14 14.8954 14.8954 14 16 14C17.1046 14 18 14.8954 18 16C18 17.1046 17.1046 18 16 18C14.8954 18 14 17.1046 14 16Z" fill="black"/>
<path d="M16 22C16.5523 22 17 22.4477 17 23V24C17 24.5523 16.5523 25 16 25C15.4477 25 15 24.5523 15 24V23C15 22.4477 15.4477 22 16 22Z" fill="black"/>
<path d="M17 8C17 7.44772 16.5523 7 16 7C15.4477 7 15 7.44772 15 8V9C15 9.55228 15.4477 10 16 10C16.5523 10 17 9.55228 17 9V8Z" fill="black"/>
<path d="M20.1929 20.193C20.5834 19.8025 21.2166 19.8025 21.6071 20.193L22.4071 20.993C22.7976 21.3836 22.7976 22.0167 22.4071 22.4073C22.0166 22.7978 21.3834 22.7978 20.9929 22.4073L20.1929 21.6073C19.8024 21.2167 19.8024 20.5836 20.1929 20.193Z" fill="black"/>
<path d="M11.0071 9.59294C10.6166 9.20242 9.98342 9.20242 9.5929 9.59294C9.20237 9.98347 9.20237 10.6166 9.5929 11.0072L10.3929 11.8072C10.7834 12.1977 11.4166 12.1977 11.8071 11.8072C12.1976 11.4166 12.1976 10.7835 11.8071 10.3929L11.0071 9.59294Z" fill="black"/>
<path d="M8 15C7.44772 15 7 15.4477 7 16C7 16.5523 7.44772 17 8 17H9C9.55228 17 10 16.5523 10 16C10 15.4477 9.55228 15 9 15H8Z" fill="black"/>
<path d="M22.4071 9.59294C22.7976 9.98347 22.7976 10.6166 22.4071 11.0072L21.6071 11.8072C21.2166 12.1977 20.5834 12.1977 20.1929 11.8072C19.8024 11.4166 19.8024 10.7835 20.1929 10.3929L20.9929 9.59294C21.3834 9.20242 22.0166 9.20242 22.4071 9.59294Z" fill="black"/>
<path d="M11.8071 21.6073C12.1976 21.2167 12.1976 20.5836 11.8071 20.193C11.4166 19.8025 10.7834 19.8025 10.3929 20.193L9.5929 20.993C9.20237 21.3836 9.20237 22.0167 9.5929 22.4073C9.98342 22.7978 10.6166 22.7978 11.0071 22.4073L11.8071 21.6073Z" fill="black"/>
<path fill-rule="evenodd" clip-rule="evenodd" d="M6 2C3.74772 2 2 3.74772 2 6V26C2 28.2523 3.74772 30 6 30H26C28.2523 30 30 28.2523 30 26V6C30 3.74772 28.2523 2 26 2H6ZM4 6C4 4.85228 4.85228 4 6 4H26C27.1477 4 28 4.85228 28 6V26C28 27.1477 27.1477 28 26 28H6C4.85228 28 4 27.1477 4 26V6Z" fill="black"/>
</svg>
