<svg width="32" height="32" viewBox="0 0 32 32" fill="none" xmlns="http://www.w3.org/2000/svg">
<path fill-rule="evenodd" clip-rule="evenodd" d="M16.1105 13C15.1292 11.4949 13.4308 10.5 11.5 10.5C8.46243 10.5 6 12.9624 6 16C6 19.0376 8.46243 21.5 11.5 21.5C13.4308 21.5 15.1292 20.5051 16.1105 19H23C24.6523 19 26 17.6523 26 16C26 14.3477 24.6523 13 23 13H16.1105ZM11.5 12.5C9.567 12.5 8 14.067 8 16C8 17.933 9.567 19.5 11.5 19.5C12.7952 19.5 13.926 18.7965 14.5313 17.7508C14.5671 17.6112 14.6323 17.4834 14.7199 17.3743C14.9002 16.9524 15 16.4879 15 16C15 15.5121 14.9002 15.0476 14.7199 14.6257C14.6323 14.5166 14.5671 14.3888 14.5313 14.2492C13.926 13.2035 12.7952 12.5 11.5 12.5ZM16.9093 15C16.9689 15.3243 17 15.6585 17 16C17 16.3415 16.9689 16.6757 16.9093 17H23C23.5477 17 24 16.5477 24 16C24 15.4523 23.5477 15 23 15H16.9093Z" fill="black"/>
<path fill-rule="evenodd" clip-rule="evenodd" d="M2 6C2 3.74772 3.74772 2 6 2H26C28.2523 2 30 3.74772 30 6V26C30 28.2523 28.2523 30 26 30H6C3.74772 30 2 28.2523 2 26V6ZM6 4C4.85228 4 4 4.85228 4 6V26C4 27.1477 4.85228 28 6 28H26C27.1477 28 28 27.1477 28 26V6C28 4.85228 27.1477 4 26 4H6Z" fill="black"/>
</svg>
