<svg width="32" height="32" viewBox="0 0 32 32" fill="none" xmlns="http://www.w3.org/2000/svg">
<path fill-rule="evenodd" clip-rule="evenodd" d="M13.974 16C13.5299 17.7252 11.9638 19 10.1 19C7.89086 19 6.1 17.2091 6.1 15C6.1 12.7909 7.89086 11 10.1 11C11.9638 11 13.5299 12.2748 13.974 14H17.1C17.6523 14 18.1 14.4477 18.1 15C18.1 15.5523 17.6523 16 17.1 16H13.974ZM8.1 15C8.1 13.8954 8.99543 13 10.1 13C11.204 13 12.0991 13.8946 12.1 14.9984L12.1 15C12.1 16.1046 11.2046 17 10.1 17C8.99543 17 8.1 16.1046 8.1 15Z" fill="black"/>
<path fill-rule="evenodd" clip-rule="evenodd" d="M9.1 28H23.1V29C23.1 29.5523 23.5477 30 24.1 30C24.6523 30 25.1 29.5523 25.1 29V28H26C28.2523 28 30 26.2523 30 24V6C30 3.74772 28.2523 2 26 2H6C3.74772 2 2 3.74772 2 6V24C2 26.2523 3.74772 28 6 28H7.1V29C7.1 29.5523 7.54772 30 8.1 30C8.65229 30 9.1 29.5523 9.1 29V28ZM4 6C4 4.85228 4.85228 4 6 4H21.1V8H20.1C19.5477 8 19.1 8.44772 19.1 9C19.1 9.55228 19.5477 10 20.1 10H21.1V20H20.1C19.5477 20 19.1 20.4477 19.1 21C19.1 21.5523 19.5477 22 20.1 22H21.1V26H6C4.85228 26 4 25.1477 4 24V6ZM26 26H23.1V22H24.1C24.6523 22 25.1 21.5523 25.1 21C25.1 20.4477 24.6523 20 24.1 20H23.1V10H24.1C24.6523 10 25.1 9.55228 25.1 9C25.1 8.44772 24.6523 8 24.1 8H23.1V4H26C27.1477 4 28 4.85228 28 6V24C28 25.1477 27.1477 26 26 26Z" fill="black"/>
</svg>
