<svg width="32" height="32" viewBox="0 0 32 32" fill="none" xmlns="http://www.w3.org/2000/svg">
<path fill-rule="evenodd" clip-rule="evenodd" d="M11 7C11 5.35228 12.3523 4 14 4H18C19.6477 4 21 5.35228 21 7C21 7.55228 21.4477 8 22 8C22.5523 8 23 7.55228 23 7C23 4.24772 20.7523 2 18 2H14C11.2477 2 9 4.24772 9 7V8C9 9.63179 9.79011 11.0862 11.007 12C9.79011 12.9138 9 14.3682 9 16C9 18.7523 11.2477 21 14 21H18C19.6477 21 21 22.3523 21 24V25C21 26.6477 19.6477 28 18 28H14C12.3523 28 11 26.6477 11 25C11 24.4477 10.5523 24 10 24C9.44772 24 9 24.4477 9 25C9 27.7523 11.2477 30 14 30H18C20.7523 30 23 27.7523 23 25V24C23 22.3682 22.2099 20.9138 20.993 20C22.2099 19.0862 23 17.6318 23 16C23 13.2477 20.7523 11 18 11H14C12.3523 11 11 9.64772 11 8V7ZM18 19C19.6477 19 21 17.6477 21 16C21 14.3523 19.6477 13 18 13H14C12.3523 13 11 14.3523 11 16C11 17.6477 12.3523 19 14 19H18Z" fill="black"/>
</svg>
