<svg width="32" height="32" viewBox="0 0 32 32" fill="none" xmlns="http://www.w3.org/2000/svg">
<path fill-rule="evenodd" clip-rule="evenodd" d="M15 5C13.3523 5 12 6.35228 12 8C12 9.64772 13.3523 11 15 11H20C22.7523 11 25 13.2477 25 16C25 18.4354 23.24 20.4758 20.9279 20.9133C21.5988 21.7645 22 22.8372 22 24C22 26.7523 19.7523 29 17 29H12C9.24772 29 7 26.7523 7 24C7 23.4477 7.44772 23 8 23C8.55228 23 9 23.4477 9 24C9 25.6477 10.3523 27 12 27H17C18.6477 27 20 25.6477 20 24C20 22.3523 18.6477 21 17 21H12C9.24772 21 7 18.7523 7 16C7 13.5646 8.75995 11.5242 11.0721 11.0867C10.4012 10.2355 10 9.16278 10 8C10 5.24772 12.2477 3 15 3H20C22.7523 3 25 5.24772 25 8C25 8.55228 24.5523 9 24 9C23.4477 9 23 8.55228 23 8C23 6.35228 21.6477 5 20 5H15ZM20 19C21.6477 19 23 17.6477 23 16C23 14.3523 21.6477 13 20 13H12C10.3523 13 9 14.3523 9 16C9 17.6477 10.3523 19 12 19H20Z" fill="black"/>
</svg>
