<svg width="32" height="32" viewBox="0 0 32 32" fill="none" xmlns="http://www.w3.org/2000/svg">
<path d="M16 2L28 7.45455V13.8985C28 14.4507 27.5523 14.8985 27 14.8985C26.4477 14.8985 26 14.4507 26 13.8985V8.74237L16 4.19692L6 8.74237V16.0985C6 20.3822 9.34208 24.9926 15.0161 27.5892C15.5183 27.819 15.7391 28.4124 15.5093 28.9146C15.2795 29.4168 14.6861 29.6376 14.1839 29.4078C8.05792 26.6044 4 21.4148 4 16.0985V7.45455L16 2Z" fill="black"/>
<path d="M20 22.0984C19.4477 22.0984 19 22.5461 19 23.0984C19 23.6507 19.4477 24.0984 20 24.0984H26C26.5523 24.0984 27 23.6507 27 23.0984C27 22.5461 26.5523 22.0984 26 22.0984H20Z" fill="black"/>
<path fill-rule="evenodd" clip-rule="evenodd" d="M15 23.0984C15 18.6801 18.5817 15.0984 23 15.0984C27.4183 15.0984 31 18.6801 31 23.0984C31 27.5167 27.4183 31.0984 23 31.0984C18.5817 31.0984 15 27.5167 15 23.0984ZM23 17.0984C19.6863 17.0984 17 19.7847 17 23.0984C17 26.4121 19.6863 29.0984 23 29.0984C26.3137 29.0984 29 26.4121 29 23.0984C29 19.7847 26.3137 17.0984 23 17.0984Z" fill="black"/>
</svg>
