<svg width="32" height="32" viewBox="0 0 32 32" fill="none" xmlns="http://www.w3.org/2000/svg">
<path d="M28 7.45455L16 2L4 7.45455V16.0985C4 21.4148 8.05792 26.6044 14.1839 29.4078C14.6861 29.6376 15.2795 29.4168 15.5093 28.9146C15.7391 28.4124 15.5183 27.819 15.0161 27.5892C9.34208 24.9926 6 20.3822 6 16.0985V8.74237L16 4.19692L26 8.74237V13.8985C26 14.4507 26.4477 14.8985 27 14.8985C27.5523 14.8985 28 14.4507 28 13.8985V7.45455Z" fill="black"/>
<path d="M20 22.0984C19.4477 22.0984 19 22.5461 19 23.0984C19 23.6507 19.4477 24.0984 20 24.0984H22V26.0984C22 26.6507 22.4477 27.0984 23 27.0984C23.5523 27.0984 24 26.6507 24 26.0984V24.0984H26C26.5523 24.0984 27 23.6507 27 23.0984C27 22.5461 26.5523 22.0984 26 22.0984H24V20.0984C24 19.5461 23.5523 19.0984 23 19.0984C22.4477 19.0984 22 19.5461 22 20.0984V22.0984H20Z" fill="black"/>
<path fill-rule="evenodd" clip-rule="evenodd" d="M23 15.0984C18.5817 15.0984 15 18.6801 15 23.0984C15 27.5167 18.5817 31.0984 23 31.0984C27.4183 31.0984 31 27.5167 31 23.0984C31 18.6801 27.4183 15.0984 23 15.0984ZM17 23.0984C17 19.7847 19.6863 17.0984 23 17.0984C26.3137 17.0984 29 19.7847 29 23.0984C29 26.4121 26.3137 29.0984 23 29.0984C19.6863 29.0984 17 26.4121 17 23.0984Z" fill="black"/>
</svg>
