<svg width="32" height="32" viewBox="0 0 32 32" fill="none" xmlns="http://www.w3.org/2000/svg">
<path d="M28 7.45455L16 2L4 7.45455V16.0985C4 21.4148 8.05792 26.6044 14.1839 29.4078C14.6861 29.6376 15.2795 29.4168 15.5093 28.9146C15.7391 28.4124 15.5183 27.819 15.0161 27.5892C9.34208 24.9926 6 20.3822 6 16.0985V8.74237L16 4.19692L26 8.74237V13.8985C26 14.4507 26.4477 14.8985 27 14.8985C27.5523 14.8985 28 14.4507 28 13.8985V7.45455Z" fill="black"/>
<path d="M25.7071 20.3913C26.0976 20.7818 26.0976 21.415 25.7071 21.8055L24.4142 23.0984L25.7071 24.3913C26.0976 24.7818 26.0976 25.415 25.7071 25.8055C25.3166 26.196 24.6834 26.196 24.2929 25.8055L23 24.5126L21.7071 25.8055C21.3166 26.196 20.6834 26.196 20.2929 25.8055C19.9024 25.415 19.9024 24.7818 20.2929 24.3913L21.5858 23.0984L20.2929 21.8055C19.9024 21.415 19.9024 20.7818 20.2929 20.3913C20.6834 20.0008 21.3166 20.0008 21.7071 20.3913L23 21.6842L24.2929 20.3913C24.6834 20.0008 25.3166 20.0008 25.7071 20.3913Z" fill="black"/>
<path fill-rule="evenodd" clip-rule="evenodd" d="M23 15.0984C18.5817 15.0984 15 18.6801 15 23.0984C15 27.5167 18.5817 31.0984 23 31.0984C27.4183 31.0984 31 27.5167 31 23.0984C31 18.6801 27.4183 15.0984 23 15.0984ZM17 23.0984C17 19.7847 19.6863 17.0984 23 17.0984C26.3137 17.0984 29 19.7847 29 23.0984C29 26.4121 26.3137 29.0984 23 29.0984C19.6863 29.0984 17 26.4121 17 23.0984Z" fill="black"/>
</svg>
