<svg width="32" height="32" viewBox="0 0 32 32" fill="none" xmlns="http://www.w3.org/2000/svg">
<path d="M16 2L28 7.45455V13.8985C28 14.4507 27.5523 14.8985 27 14.8985C26.4477 14.8985 26 14.4507 26 13.8985V8.74237L16 4.19692L6 8.74237V16.0985C6 20.3822 9.34208 24.9926 15.0161 27.5892C15.5183 27.819 15.7391 28.4124 15.5093 28.9146C15.2795 29.4168 14.6861 29.6376 14.1839 29.4078C8.05792 26.6044 4 21.4148 4 16.0985V7.45455L16 2Z" fill="black"/>
<path d="M26.7071 21.8055C27.0976 21.415 27.0976 20.7818 26.7071 20.3913C26.3166 20.0008 25.6834 20.0008 25.2929 20.3913L22 23.6842L20.7071 22.3913C20.3166 22.0008 19.6834 22.0008 19.2929 22.3913C18.9024 22.7818 18.9024 23.415 19.2929 23.8055L22 26.5126L26.7071 21.8055Z" fill="black"/>
<path fill-rule="evenodd" clip-rule="evenodd" d="M15 23.0984C15 18.6801 18.5817 15.0984 23 15.0984C27.4183 15.0984 31 18.6801 31 23.0984C31 27.5167 27.4183 31.0984 23 31.0984C18.5817 31.0984 15 27.5167 15 23.0984ZM23 17.0984C19.6863 17.0984 17 19.7847 17 23.0984C17 26.4121 19.6863 29.0984 23 29.0984C26.3137 29.0984 29 26.4121 29 23.0984C29 19.7847 26.3137 17.0984 23 17.0984Z" fill="black"/>
</svg>
