<svg width="32" height="32" viewBox="0 0 32 32" fill="none" xmlns="http://www.w3.org/2000/svg">
<path fill-rule="evenodd" clip-rule="evenodd" d="M16 6C14.3431 6 13 7.34315 13 9C13 10.6569 14.3431 12 16 12C17.6569 12 19 10.6569 19 9C19 7.34315 17.6569 6 16 6ZM15 9C15 8.44772 15.4477 8 16 8C16.5523 8 17 8.44772 17 9C17 9.55228 16.5523 10 16 10C15.4477 10 15 9.55228 15 9Z" fill="black"/>
<path fill-rule="evenodd" clip-rule="evenodd" d="M13 16C13 14.3431 14.3431 13 16 13C17.6569 13 19 14.3431 19 16C19 17.6569 17.6569 19 16 19C14.3431 19 13 17.6569 13 16ZM16 15C15.4477 15 15 15.4477 15 16C15 16.5523 15.4477 17 16 17C16.5523 17 17 16.5523 17 16C17 15.4477 16.5523 15 16 15Z" fill="black"/>
<path fill-rule="evenodd" clip-rule="evenodd" d="M16 20C14.3431 20 13 21.3431 13 23C13 24.6569 14.3431 26 16 26C17.6569 26 19 24.6569 19 23C19 21.3431 17.6569 20 16 20ZM15 23C15 22.4477 15.4477 22 16 22C16.5523 22 17 22.4477 17 23C17 23.5523 16.5523 24 16 24C15.4477 24 15 23.5523 15 23Z" fill="black"/>
<path fill-rule="evenodd" clip-rule="evenodd" d="M9 20V19C6.74772 19 5 17.2523 5 15V13H9V12C6.74772 12 5 10.2523 5 8V6H9C9 3.74772 10.7477 2 13 2H19C21.2523 2 23 3.74772 23 6H27V8C27 10.2523 25.2523 12 23 12V13H27V15C27 17.2523 25.2523 19 23 19V20H27V22C27 24.2523 25.2523 26 23 26C23 28.2523 21.2523 30 19 30H13C10.7477 30 9 28.2523 9 26C6.74772 26 5 24.2523 5 22V20H9ZM11 6C11 4.85228 11.8523 4 13 4H19C20.1477 4 21 4.85228 21 6V26C21 27.1477 20.1477 28 19 28H13C11.8523 28 11 27.1477 11 26V6ZM9 24C7.85228 24 7 23.1477 7 22H9V24ZM9 15V17C7.85228 17 7 16.1477 7 15H9ZM9 10C7.85228 10 7 9.14772 7 8H9V10ZM25 22C25 23.1477 24.1477 24 23 24V22H25ZM23 15H25C25 16.1477 24.1477 17 23 17V15ZM25 8C25 9.14772 24.1477 10 23 10V8H25Z" fill="black"/>
</svg>
