<svg width="32" height="32" viewBox="0 0 32 32" fill="none" xmlns="http://www.w3.org/2000/svg">
<path d="M19.68 25.86C19.02 18.92 15.39 13.94 9.68 10.18C11.09 7.84001 12.3 5.53001 13.8 3.42001C15.07 1.60001 17.48 1.91001 18.73 3.93001C19.98 5.95001 21.18 8.11001 22.38 10.21C24.01 13.11 25.63 16.04 27.27 18.93C28.18 20.56 29.19 22.15 30.03 23.82C30.4482 24.6168 30.6742 25.5003 30.69 26.4V26.4C30.685 27.097 30.4086 27.7647 29.9194 28.2613C29.4303 28.7579 28.7669 29.0444 28.07 29.06V29.06C27.31 29.14 26.53 29.12 25.76 29.13C25.4856 29.122 25.2118 29.0986 24.94 29.06V29.06V25.97C25.29 25.97 25.61 25.91 25.94 25.9C27.31 25.9 27.56 25.49 26.94 24.32L23.86 18.89C21.54 14.89 19.2633 10.9067 17.03 6.94001C16.27 5.62001 15.83 5.63001 15.09 6.94001L13.94 8.94001C13.9408 9.04307 13.9204 9.1452 13.88 9.24001C19.77 14.45 23.21 20.82 22.68 29.06H14.54C14.54 28.65 14.6 28.18 14.6 27.69C14.6072 24.9411 13.8338 22.2467 12.37 19.92V19.98C11.5453 18.7836 10.6573 17.6319 9.71 16.53C9.47 16.85 9.4 16.97 9.31 17.08C8.5 18.08 8.52 18.78 9.46 19.83C11.3186 21.9638 12.3385 24.7003 12.33 27.53C12.3322 28.0617 12.2988 28.5928 12.23 29.12V29.06C11.9498 29.1159 11.6655 29.1494 11.38 29.16H4.91C1.59 29.21 0.560001 26.28 1.91 24C2.41 23.17 2.91 22.3 3.45 21.34L5.82 23.15C5.51 23.69 5.25 24.15 5.02 24.58C4.6 25.4 4.84 25.88 5.75 25.91H9.18C8.93667 24.5608 8.39929 23.2817 7.60602 22.1635C6.81275 21.0453 5.78304 20.1155 4.59 19.44V19.44C5.92 17.03 7.26 14.69 8.66 12.28C11.1038 13.6652 13.1817 15.6136 14.7209 17.9634C16.2602 20.3131 17.2164 22.9964 17.51 25.79V25.87H18.61C18.9707 25.8765 19.3314 25.8598 19.69 25.82L19.68 25.86Z" fill="black"/>
</svg>
