<svg width="32" height="32" viewBox="0 0 32 32" fill="none" xmlns="http://www.w3.org/2000/svg">
<path d="M6 8C6 7.44772 6.44772 7 7 7H13C13.5523 7 14 7.44772 14 8C14 8.55228 13.5523 9 13 9H7C6.44772 9 6 8.55228 6 8Z" fill="black"/>
<path d="M16 8C16 7.44772 16.4477 7 17 7H18C18.5523 7 19 7.44772 19 8C19 8.55228 18.5523 9 18 9H17C16.4477 9 16 8.55228 16 8Z" fill="black"/>
<path d="M7 15C6.44772 15 6 15.4477 6 16C6 16.5523 6.44772 17 7 17H13C13.5523 17 14 16.5523 14 16C14 15.4477 13.5523 15 13 15H7Z" fill="black"/>
<path d="M17 15C16.4477 15 16 15.4477 16 16C16 16.5523 16.4477 17 17 17H18C18.5523 17 19 16.5523 19 16C19 15.4477 18.5523 15 18 15H17Z" fill="black"/>
<path fill-rule="evenodd" clip-rule="evenodd" d="M2 7V17C2 19.2523 3.74772 21 6 21H15V24.2676C14.6964 24.4432 14.4432 24.6964 14.2676 25H3C2.44772 25 2 25.4477 2 26C2 26.5523 2.44772 27 3 27H14.2676C14.6134 27.5978 15.2597 28 16 28C16.7403 28 17.3866 27.5978 17.7324 27H29C29.5523 27 30 26.5523 30 26C30 25.4477 29.5523 25 29 25H17.7324C17.5568 24.6964 17.3036 24.4432 17 24.2676V21H26C28.2523 21 30 19.2523 30 17V7C30 4.74772 28.2523 3 26 3H6C3.74772 3 2 4.74772 2 7ZM6 5C4.85228 5 4 5.85228 4 7V11H28V7C28 5.85228 27.1477 5 26 5H6ZM26 19H6C4.85228 19 4 18.1477 4 17V13H28V17C28 18.1477 27.1477 19 26 19Z" fill="black"/>
</svg>
