<svg width="32" height="32" viewBox="0 0 32 32" fill="none" xmlns="http://www.w3.org/2000/svg">
<path d="M6 8C6 7.44772 6.44772 7 7 7H13C13.5523 7 14 7.44772 14 8C14 8.55228 13.5523 9 13 9H7C6.44772 9 6 8.55228 6 8Z" fill="black"/>
<path d="M17 7C16.4477 7 16 7.44772 16 8C16 8.55228 16.4477 9 17 9H18C18.5523 9 19 8.55228 19 8C19 7.44772 18.5523 7 18 7H17Z" fill="black"/>
<path d="M7 15C6.44772 15 6 15.4477 6 16C6 16.5523 6.44772 17 7 17H13C13.5523 17 14 16.5523 14 16C14 15.4477 13.5523 15 13 15H7Z" fill="black"/>
<path d="M16 16C16 15.4477 16.4477 15 17 15H18C18.5523 15 19 15.4477 19 16C19 16.5523 18.5523 17 18 17H17C16.4477 17 16 16.5523 16 16Z" fill="black"/>
<path d="M6 24C6 23.4477 6.44772 23 7 23H13C13.5523 23 14 23.4477 14 24C14 24.5523 13.5523 25 13 25H7C6.44772 25 6 24.5523 6 24Z" fill="black"/>
<path d="M17 23C16.4477 23 16 23.4477 16 24C16 24.5523 16.4477 25 17 25H18C18.5523 25 19 24.5523 19 24C19 23.4477 18.5523 23 18 23H17Z" fill="black"/>
<path fill-rule="evenodd" clip-rule="evenodd" d="M2 7V25C2 27.2523 3.74772 29 6 29H26C28.2523 29 30 27.2523 30 25V7C30 4.74772 28.2523 3 26 3H6C3.74772 3 2 4.74772 2 7ZM6 5C4.85228 5 4 5.85228 4 7V11H28V7C28 5.85228 27.1477 5 26 5H6ZM4 13V19H28V13H4ZM4 25V21H28V25C28 26.1477 27.1477 27 26 27H6C4.85228 27 4 26.1477 4 25Z" fill="black"/>
</svg>
