<?xml version="1.0" encoding="UTF-8"?>
<svg width="24px" height="24px" viewBox="0 0 24 24" version="1.1" xmlns="http://www.w3.org/2000/svg" xmlns:xlink="http://www.w3.org/1999/xlink">
    <!-- Generator: Sketch 48.2 (47327) - http://www.bohemiancoding.com/sketch -->
    <title>settings-download</title>
    <desc>Created with Sketch.</desc>
    <defs></defs>
    <g id="Page-1" stroke="none" stroke-width="1" fill="none" fill-rule="evenodd" stroke-linecap="round" stroke-linejoin="round">
        <g id="settings-download" stroke="#000000" stroke-width="2">
            <polyline id="Shape" points="14 17 17 20 20 17"></polyline>
            <path d="M17,14 L17,19" id="Shape"></path>
            <path d="M8.5693,14.0579 C8.2083,13.4569 8.0003,12.7529 8.0003,11.9999 C8.0003,9.7909 9.7913,7.9999 12.0003,7.9999 C12.7833,7.9999 13.5143,8.2249 14.1313,8.6149" id="Stroke-3"></path>
            <path d="M17,22.9998 C20.313,22.9998 23,20.3128 23,16.9998 C23,13.6868 20.313,10.9998 17,10.9998 C13.687,10.9998 11,13.6868 11,16.9998 C11,20.3128 13.687,22.9998 17,22.9998 Z" id="Stroke-5"></path>
            <path d="M18.7344,8.3936 C18.7344,8.3936 19.9944,6.3736 19.9944,6.0726 C19.9944,5.9046 19.7724,5.6356 19.0724,4.9356 C18.3724,4.2356 18.1034,4.0136 17.9354,4.0136 C17.6344,4.0136 15.6144,5.2736 15.6144,5.2736 L14.2084,4.6906 C14.2084,4.6906 13.6714,2.3726 13.4584,2.1596 C13.3384,2.0396 12.9914,2.0066 12.0024,2.0066 C11.0114,2.0066 10.6654,2.0396 10.5464,2.1596 C10.3334,2.3726 9.7964,4.6906 9.7964,4.6906 L8.3884,5.2736 C8.3884,5.2736 6.3694,4.0136 6.0684,4.0136 C5.8994,4.0136 5.6304,4.2356 4.9304,4.9356 C4.2304,5.6356 4.0084,5.9046 4.0084,6.0726 C4.0084,6.3736 5.2684,8.3936 5.2684,8.3936 L4.6864,9.8006 C4.6864,9.8006 2.3674,10.3376 2.1544,10.5506 C2.0354,10.6696 2.0024,11.0166 2.0024,12.0066 C2.0024,12.9966 2.0354,13.3436 2.1544,13.4626 C2.3674,13.6756 4.6864,14.2126 4.6864,14.2126 L5.2684,15.6196 C5.2684,15.6196 4.0084,17.6396 4.0084,17.9396 C4.0084,18.1086 4.2314,18.3766 4.9304,19.0776 C5.6304,19.7776 5.8994,19.9986 6.0684,19.9986 C6.3694,19.9986 8.3884,18.7396 8.3884,18.7396" id="Stroke-1"></path>
        </g>
    </g>
</svg>