<svg width="32" height="32" viewBox="0 0 32 32" fill="none" xmlns="http://www.w3.org/2000/svg">
<path fill-rule="evenodd" clip-rule="evenodd" d="M16 10C12.6863 10 10 12.6863 10 16C10 19.3137 12.6863 22 16 22C19.3137 22 22 19.3137 22 16C22 12.6863 19.3137 10 16 10ZM12 16C12 13.7909 13.7909 12 16 12C18.2091 12 20 13.7909 20 16C20 18.2091 18.2091 20 16 20C13.7909 20 12 18.2091 12 16Z" fill="black"/>
<path fill-rule="evenodd" clip-rule="evenodd" d="M16.037 2L15.9412 2C15.3434 1.99997 14.8822 1.99995 14.5509 2.02876C14.2257 2.05704 13.7594 2.12636 13.3929 2.4929C13.2039 2.68191 13.0963 2.93101 13.0536 3.02983L13.0529 3.03128C12.9888 3.17972 12.9265 3.352 12.8685 3.52596C12.7516 3.87678 12.6301 4.30167 12.522 4.70198C12.4134 5.10472 12.3147 5.49624 12.2433 5.78643L11.3712 6.17404C11.1209 6.02404 10.79 5.82828 10.4461 5.63176C10.0906 5.4286 9.70939 5.21791 9.38472 5.05558C9.22379 4.97511 9.06147 4.89881 8.91514 4.84028C8.84226 4.81112 8.75958 4.78081 8.67433 4.75645C8.60431 4.73644 8.46474 4.7 8.3 4.7C8.01469 4.7 7.78249 4.80168 7.63993 4.87715C7.48529 4.95902 7.33519 5.06525 7.19286 5.17762C6.91184 5.39948 6.55961 5.72694 6.1136 6.17221C5.66146 6.57517 5.32541 6.90746 5.09428 7.18482C4.97699 7.32557 4.86643 7.47609 4.78104 7.63423C4.70179 7.78098 4.6 8.01415 4.6 8.3C4.6 8.46474 4.63644 8.60431 4.65645 8.67433C4.68081 8.75958 4.71112 8.84226 4.74028 8.91514C4.79881 9.06147 4.87511 9.22379 4.95558 9.38472C5.11791 9.70939 5.3286 10.0906 5.53176 10.4461C5.72828 10.79 5.92404 11.1209 6.07404 11.3712L5.68643 12.2433C5.39624 12.3147 5.00472 12.4134 4.60198 12.522C4.20167 12.6301 3.77678 12.7516 3.42596 12.8685C3.252 12.9265 3.07972 12.9888 2.93128 13.0529L2.92983 13.0536C2.83101 13.0963 2.58191 13.2039 2.3929 13.3929L2.27815 13.5076L2.20558 13.6528C2.04901 13.9659 2.02549 14.317 2.01345 14.5941C2 14.9034 2 15.3458 2 15.9662L2 16.0588C1.99997 16.6566 1.99995 17.1178 2.02876 17.4491C2.05704 17.7743 2.12636 18.2406 2.4929 18.6071C2.68191 18.7961 2.93101 18.9038 3.02983 18.9464L3.03128 18.9471C3.17972 19.0112 3.352 19.0735 3.52596 19.1315C3.87678 19.2484 4.30167 19.37 4.70198 19.478C5.10472 19.5866 5.49624 19.6853 5.78643 19.7567L6.17404 20.6288C6.02404 20.8792 5.82828 21.21 5.63176 21.5539C5.4286 21.9094 5.21791 22.2906 5.05558 22.6153C4.97511 22.7762 4.89881 22.9385 4.84028 23.0849C4.81112 23.1577 4.78081 23.2404 4.75645 23.3257C4.73644 23.3957 4.7 23.5353 4.7 23.7C4.7 23.9853 4.80168 24.2175 4.87715 24.3601C4.95902 24.5147 5.06525 24.6648 5.17762 24.8071C5.4029 25.0925 5.73707 25.4513 6.1929 25.9071C6.64873 26.3629 7.0075 26.6971 7.29286 26.9224C7.43519 27.0348 7.58529 27.141 7.73993 27.2229C7.88249 27.2983 8.11469 27.4 8.4 27.4C8.56474 27.4 8.70431 27.3636 8.77433 27.3436C8.85958 27.3192 8.94226 27.2889 9.01514 27.2597C9.16146 27.2012 9.32379 27.1249 9.48472 27.0444C9.80939 26.8821 10.1906 26.6714 10.5461 26.4682C10.89 26.2717 11.2209 26.076 11.4712 25.926L12.3433 26.3136C12.4147 26.6038 12.5134 26.9953 12.622 27.398C12.7301 27.7983 12.8516 28.2232 12.9685 28.574C13.0265 28.748 13.0888 28.9203 13.1529 29.0687L13.1536 29.0702C13.1963 29.169 13.3039 29.4181 13.4929 29.6071C13.7379 29.8521 14.0329 29.9166 14.1486 29.9392C14.2954 29.9679 14.4554 29.9797 14.6046 29.9865C14.9025 30 15.3453 30 15.963 30L16.0587 30C16.6565 30 17.1178 30.0001 17.4491 29.9712C17.7743 29.943 18.2406 29.8736 18.6071 29.5071C18.7961 29.3181 18.9038 29.069 18.9464 28.9702L18.9471 28.9687C19.0112 28.8203 19.0735 28.648 19.1315 28.474C19.2484 28.1232 19.37 27.6983 19.478 27.298C19.5831 26.9086 19.6788 26.5296 19.7495 26.2426L20.6032 25.9106C20.8563 26.0625 21.1981 26.265 21.5539 26.4682C21.9094 26.6714 22.2906 26.8821 22.6153 27.0444C22.7762 27.1249 22.9385 27.2012 23.0849 27.2597C23.1577 27.2889 23.2404 27.3192 23.3257 27.3436C23.3957 27.3636 23.5353 27.4 23.7 27.4C23.9853 27.4 24.2175 27.2983 24.3601 27.2229C24.5147 27.141 24.6648 27.0348 24.8071 26.9224C25.0925 26.6971 25.4513 26.3629 25.9071 25.9071C26.3629 25.4513 26.6971 25.0925 26.9224 24.8071C27.0348 24.6648 27.141 24.5147 27.2229 24.3601C27.2983 24.2175 27.4 23.9853 27.4 23.7C27.4 23.5353 27.3636 23.3957 27.3436 23.3257C27.3192 23.2404 27.2889 23.1577 27.2597 23.0849C27.2012 22.9385 27.1249 22.7762 27.0444 22.6153C26.8821 22.2906 26.6714 21.9094 26.4682 21.5539C26.2717 21.21 26.076 20.8792 25.926 20.6288L26.3136 19.7567C26.6038 19.6853 26.9953 19.5866 27.398 19.478C27.7983 19.37 28.2232 19.2484 28.574 19.1315C28.748 19.0735 28.9203 19.0112 29.0687 18.9471L29.0702 18.9464C29.169 18.9038 29.4181 18.7961 29.6071 18.6071L29.7219 18.4924L29.7944 18.3472C29.951 18.0341 29.9745 17.683 29.9866 17.4059C30 17.0966 30 16.6542 30 16.0339L30 15.9413C30 15.3435 30.0001 14.8822 29.9712 14.5509C29.943 14.2257 29.8736 13.7594 29.5071 13.3929C29.3181 13.2039 29.069 13.0963 28.9702 13.0536L28.9687 13.0529C28.8203 12.9888 28.648 12.9265 28.474 12.8685C28.1232 12.7516 27.6983 12.6301 27.298 12.522C26.8953 12.4134 26.5038 12.3147 26.2136 12.2433L25.826 11.3712C25.976 11.1209 26.1717 10.79 26.3682 10.4461C26.5714 10.0906 26.7821 9.70939 26.9444 9.38472C27.0249 9.22379 27.1012 9.06147 27.1597 8.91514C27.1889 8.84226 27.2192 8.75958 27.2436 8.67433C27.2636 8.60431 27.3 8.46474 27.3 8.3C27.3 8.01469 27.1983 7.78249 27.1229 7.63993C27.041 7.48529 26.9348 7.33519 26.8224 7.19286C26.5971 6.90751 26.2629 6.54873 25.8071 6.0929C25.3513 5.63707 24.9925 5.3029 24.7071 5.07762C24.5648 4.96526 24.4147 4.85902 24.2601 4.77715C24.1175 4.70168 23.8853 4.6 23.6 4.6C23.4353 4.6 23.2957 4.63644 23.2257 4.65645C23.1404 4.68081 23.0577 4.71112 22.9849 4.74028C22.8385 4.79881 22.6762 4.87511 22.5153 4.95558C22.1906 5.11791 21.8094 5.3286 21.4539 5.53176C21.11 5.72828 20.7792 5.92404 20.5288 6.07404L19.6567 5.68643C19.5853 5.39624 19.4866 5.00472 19.378 4.60198C19.27 4.20167 19.1484 3.77678 19.0315 3.42596C18.9735 3.252 18.9112 3.07972 18.8471 2.93128L18.8464 2.92983C18.8038 2.83101 18.6961 2.58191 18.5071 2.3929C18.2621 2.14787 17.9671 2.08345 17.8514 2.0608C17.7046 2.03208 17.5446 2.02032 17.3954 2.01354C17.0976 2 16.6545 2 16.037 2ZM13.9608 7.21175L14.0738 6.72727L14.0812 6.69582L14.1033 6.60275C14.1226 6.522 14.1506 6.40584 14.1851 6.26535C14.2544 5.9838 14.3493 5.60717 14.453 5.22303C14.5575 4.83584 14.6672 4.45447 14.7659 4.15842C14.7834 4.10577 14.8 4.05786 14.8154 4.01468C15.0513 4.00077 15.4083 4 16 4C16.5151 4 16.8687 4.00017 17.1163 4.0055L17.1341 4.05842C17.2328 4.35447 17.3426 4.73584 17.447 5.12303C17.5507 5.50717 17.6456 5.8838 17.7149 6.16535C17.7494 6.30584 17.7774 6.422 17.7967 6.50275L17.8188 6.59582L17.8262 6.62727L17.9392 7.11175L20.6754 8.32781L21.1243 8.05151L21.1515 8.03489L21.2325 7.98545C21.3028 7.94264 21.4041 7.88125 21.527 7.8075C21.7733 7.65969 22.1043 7.46356 22.4461 7.26825C22.7906 7.07141 23.1344 6.88209 23.4097 6.74443C23.4494 6.7246 23.4864 6.70646 23.5207 6.68999C23.7103 6.84564 23.9881 7.10232 24.3929 7.50711C24.7977 7.9119 25.0544 8.18966 25.21 8.37928C25.1936 8.4136 25.1754 8.45062 25.1556 8.49029C25.0179 8.76562 24.8286 9.1094 24.6318 9.45387C24.4364 9.79567 24.2403 10.1267 24.0925 10.373C24.0188 10.4959 23.9574 10.5972 23.9146 10.6676L23.8651 10.7486L23.8524 10.7694L23.5722 11.2247L24.7883 13.9608L25.273 14.0739L25.3042 14.0812L25.3973 14.1033C25.478 14.1226 25.5942 14.1506 25.7347 14.1851C26.0162 14.2544 26.3928 14.3493 26.777 14.453C27.1642 14.5575 27.5455 14.6672 27.8416 14.7659C27.8942 14.7834 27.9421 14.8 27.9853 14.8154C27.9992 15.0513 28 15.4083 28 16C28 16.5808 27.9998 16.9577 27.9921 17.2171L27.9416 17.2341C27.6455 17.3328 27.2642 17.4426 26.877 17.547C26.4928 17.6507 26.1162 17.7456 25.8347 17.8149C25.6942 17.8494 25.578 17.8774 25.4973 17.8967L25.4042 17.9188L25.3727 17.9262L24.8883 18.0392L23.6722 20.7754L23.9524 21.2306L23.9651 21.2515L24.0146 21.3325C24.0574 21.4028 24.1188 21.5041 24.1925 21.627C24.3403 21.8733 24.5364 22.2043 24.7318 22.5461C24.9286 22.8906 25.1179 23.2344 25.2556 23.5097C25.2754 23.5494 25.2936 23.5864 25.31 23.6207C25.1544 23.8103 24.8977 24.0881 24.4929 24.4929C24.0881 24.8977 23.8103 25.1544 23.6207 25.31C23.5864 25.2936 23.5494 25.2754 23.5097 25.2556C23.2344 25.1179 22.8906 24.9286 22.5461 24.7318C22.2043 24.5364 21.8733 24.3403 21.627 24.1925C21.5041 24.1188 21.4028 24.0574 21.3325 24.0146L21.2515 23.9651L21.2306 23.9524L20.8008 23.6878L18.046 24.7592L17.9261 25.273L17.9188 25.3042L17.8967 25.3973C17.8774 25.478 17.8494 25.5942 17.8149 25.7347C17.7456 26.0162 17.6507 26.3928 17.547 26.777C17.4426 27.1642 17.3328 27.5455 17.2341 27.8416C17.2166 27.8942 17.2001 27.9421 17.1846 27.9853C16.9487 27.9992 16.5917 28 16 28C15.4849 28 15.1313 27.9998 14.8837 27.9945L14.8659 27.9416C14.7672 27.6455 14.6575 27.2642 14.553 26.877C14.4493 26.4928 14.3544 26.1162 14.2851 25.8347C14.2506 25.6942 14.2226 25.578 14.2033 25.4973L14.1812 25.4042L14.1738 25.3727L14.0608 24.8883L11.3246 23.6722L10.8694 23.9524L10.8486 23.9651L10.7676 24.0146C10.6972 24.0574 10.5959 24.1188 10.473 24.1925C10.2267 24.3403 9.89567 24.5364 9.55386 24.7318C9.2094 24.9286 8.86562 25.1179 8.59029 25.2556C8.55062 25.2754 8.51361 25.2936 8.47928 25.31C8.28967 25.1544 8.0119 24.8977 7.60711 24.4929C7.20232 24.0881 6.94564 23.8103 6.78999 23.6207C6.80646 23.5864 6.8246 23.5494 6.84443 23.5097C6.98209 23.2344 7.17141 22.8906 7.36825 22.5461C7.56356 22.2043 7.75969 21.8733 7.9075 21.627C7.98125 21.5041 8.04264 21.4028 8.08545 21.3325L8.13489 21.2515L8.15168 21.2241L8.42781 20.7754L7.21175 18.0392L6.72697 17.9261L6.69582 17.9188L6.60275 17.8967C6.522 17.8774 6.40584 17.8494 6.26535 17.8149C5.9838 17.7456 5.60717 17.6507 5.22303 17.547C4.83584 17.4426 4.45447 17.3328 4.15842 17.2341C4.10577 17.2166 4.05786 17.2001 4.01468 17.1846C4.00077 16.9487 4 16.5917 4 16C4 15.4192 4.0002 15.0423 4.00788 14.7829L4.05842 14.7659C4.35447 14.6672 4.73584 14.5575 5.12303 14.453C5.50717 14.3493 5.8838 14.2544 6.16535 14.1851C6.30584 14.1506 6.422 14.1226 6.50275 14.1033L6.59582 14.0812L6.62727 14.0738L7.11175 13.9608L8.32781 11.2247L8.05151 10.7757L8.03489 10.7486L7.98545 10.6676C7.94264 10.5972 7.88125 10.4959 7.8075 10.373C7.65969 10.1267 7.46356 9.79567 7.26825 9.45387C7.07141 9.1094 6.88209 8.76562 6.74443 8.49029C6.72672 8.45487 6.71037 8.42157 6.69534 8.39041C6.84491 8.22271 7.08772 7.98221 7.46437 7.64741L7.48633 7.62789L7.50711 7.60711C7.9119 7.20232 8.18967 6.94564 8.37928 6.78999C8.41361 6.80646 8.45062 6.8246 8.49029 6.84443C8.76562 6.98209 9.1094 7.17141 9.45387 7.36825C9.79567 7.56356 10.1267 7.75969 10.373 7.9075C10.4959 7.98125 10.5972 8.04264 10.6676 8.08545L10.7486 8.13489L10.7759 8.15168L11.2247 8.42781L13.9608 7.21175ZM14.917 3.76548C14.917 3.76575 14.9149 3.76998 14.9106 3.77733C14.9148 3.76888 14.917 3.7652 14.917 3.76548ZM16.983 3.66548C16.983 3.6652 16.9852 3.66887 16.9894 3.67732C16.9851 3.66997 16.983 3.66575 16.983 3.66548ZM28.2345 14.917C28.2343 14.917 28.23 14.9149 28.2227 14.9106C28.2311 14.9148 28.2348 14.917 28.2345 14.917ZM28.3345 17.083C28.3349 17.083 28.3312 17.0852 28.3227 17.0894C28.33 17.0851 28.3342 17.083 28.3345 17.083ZM17.083 28.2345C17.083 28.2343 17.0851 28.23 17.0894 28.2227C17.0852 28.2311 17.083 28.2348 17.083 28.2345ZM15.017 28.3345C15.017 28.3348 15.0148 28.3312 15.0106 28.3227C15.0149 28.33 15.017 28.3342 15.017 28.3345ZM3.76548 17.083C3.76575 17.083 3.76998 17.0851 3.77733 17.0894C3.76888 17.0852 3.7652 17.083 3.76548 17.083ZM3.66548 14.917C3.6652 14.917 3.66888 14.9148 3.67733 14.9106C3.66997 14.9149 3.66575 14.917 3.66548 14.917Z" fill="black"/>
</svg>
