<svg width="32" height="32" viewBox="0 0 32 32" fill="none" xmlns="http://www.w3.org/2000/svg">
<path fill-rule="evenodd" clip-rule="evenodd" d="M15.9412 2L16.037 2C16.6545 2 17.0976 2 17.3954 2.01354C17.5446 2.02032 17.7046 2.03208 17.8514 2.0608C17.9671 2.08345 18.2621 2.14787 18.5071 2.3929C18.6961 2.58191 18.8038 2.83101 18.8464 2.92983L18.8471 2.93128C18.9112 3.07972 18.9735 3.252 19.0315 3.42596C19.1484 3.77678 19.27 4.20167 19.378 4.60198C19.4866 5.00472 19.5853 5.39624 19.6567 5.68643L20.5288 6.07404C20.7792 5.92404 21.11 5.72828 21.4539 5.53176C21.8094 5.3286 22.1906 5.11791 22.5153 4.95558C22.6762 4.87511 22.8385 4.79881 22.9849 4.74028C23.0577 4.71112 23.1404 4.68081 23.2257 4.65645C23.2957 4.63644 23.4353 4.6 23.6 4.6C23.8853 4.6 24.1175 4.70168 24.2601 4.77715C24.4147 4.85902 24.5648 4.96526 24.7071 5.07762C24.9925 5.3029 25.3513 5.63707 25.8071 6.0929C26.2629 6.54873 26.5971 6.90751 26.8224 7.19286C26.9348 7.33519 27.041 7.48529 27.1229 7.63993C27.1983 7.78249 27.3 8.01469 27.3 8.3C27.3 8.46474 27.2636 8.60431 27.2436 8.67433C27.2192 8.75958 27.1889 8.84226 27.1597 8.91514C27.1012 9.06147 27.0249 9.22379 26.9444 9.38472C26.7821 9.70939 26.5714 10.0906 26.3682 10.4461C26.1717 10.79 25.976 11.1209 25.826 11.3712L26.4138 12.6939C26.6381 13.1986 26.4108 13.7895 25.9061 14.0138C25.4015 14.2381 24.8105 14.0108 24.5862 13.5061L23.5722 11.2247L23.8524 10.7694L23.8651 10.7486L23.9146 10.6676C23.9574 10.5972 24.0188 10.4959 24.0925 10.373C24.2403 10.1267 24.4364 9.79567 24.6318 9.45387C24.8286 9.1094 25.0179 8.76562 25.1556 8.49029C25.1754 8.45062 25.1936 8.4136 25.21 8.37928C25.0544 8.18966 24.7977 7.9119 24.3929 7.50711C23.9881 7.10232 23.7103 6.84564 23.5207 6.68999C23.4864 6.70646 23.4494 6.7246 23.4097 6.74443C23.1344 6.88209 22.7906 7.07141 22.4461 7.26825C22.1043 7.46356 21.7733 7.65969 21.527 7.8075C21.4041 7.88125 21.3028 7.94264 21.2325 7.98545L21.1515 8.03489L21.1243 8.05151L20.6754 8.32781L17.9392 7.11175L17.8262 6.62727L17.8188 6.59582L17.7967 6.50275C17.7774 6.422 17.7494 6.30584 17.7149 6.16535C17.6456 5.8838 17.5507 5.50717 17.447 5.12303C17.3426 4.73584 17.2328 4.35447 17.1341 4.05842L17.1163 4.0055C16.8687 4.00017 16.5151 4 16 4C15.4083 4 15.0513 4.00077 14.8154 4.01468C14.8 4.05786 14.7834 4.10577 14.7659 4.15842C14.6672 4.45447 14.5575 4.83584 14.453 5.22303C14.3493 5.60717 14.2544 5.9838 14.1851 6.26535C14.1506 6.40584 14.1226 6.522 14.1033 6.60275L14.0812 6.69582L14.0739 6.72697L13.9608 7.21175L11.2247 8.42781L10.7759 8.15168L10.7486 8.13489L10.6676 8.08545C10.5972 8.04264 10.4959 7.98125 10.373 7.9075C10.1267 7.75969 9.79567 7.56356 9.45387 7.36825C9.1094 7.17141 8.76562 6.98209 8.49029 6.84443C8.45062 6.8246 8.41361 6.80646 8.37928 6.78999C8.18967 6.94564 7.9119 7.20232 7.50711 7.60711L7.48633 7.62789L7.46437 7.64741C7.08772 7.98221 6.84491 8.22271 6.69534 8.39041C6.71037 8.42157 6.72672 8.45487 6.74443 8.49029C6.88209 8.76562 7.07141 9.1094 7.26825 9.45387C7.46356 9.79567 7.65969 10.1267 7.8075 10.373C7.88125 10.4959 7.94264 10.5972 7.98545 10.6676L8.03489 10.7486L8.05151 10.7757L8.32781 11.2247L7.11175 13.9608L6.62727 14.0738L6.59582 14.0812L6.50275 14.1033C6.422 14.1226 6.30584 14.1506 6.16535 14.1851C5.8838 14.2544 5.50717 14.3493 5.12303 14.453C4.73584 14.5575 4.35447 14.6672 4.05842 14.7659L4.00788 14.7829C4.0002 15.0423 4 15.4192 4 16C4 16.5917 4.00077 16.9487 4.01468 17.1846C4.05786 17.2001 4.10577 17.2166 4.15842 17.2341C4.45447 17.3328 4.83584 17.4426 5.22303 17.547C5.60717 17.6507 5.9838 17.7456 6.26535 17.8149C6.40584 17.8494 6.522 17.8774 6.60275 17.8967L6.69582 17.9188L6.72697 17.9261L7.21175 18.0392L8.42781 20.7754L8.15168 21.2241L8.13489 21.2515L8.08545 21.3325C8.04264 21.4028 7.98125 21.5041 7.9075 21.627C7.75969 21.8733 7.56356 22.2043 7.36825 22.5461C7.17141 22.8906 6.98209 23.2344 6.84443 23.5097C6.8246 23.5494 6.80646 23.5864 6.78999 23.6207C6.94564 23.8103 7.20232 24.0881 7.60711 24.4929C8.0119 24.8977 8.28967 25.1544 8.47928 25.31C8.51361 25.2936 8.55062 25.2754 8.59029 25.2556C8.86562 25.1179 9.2094 24.9286 9.55386 24.7318C9.89567 24.5364 10.2267 24.3403 10.473 24.1925C10.5959 24.1188 10.6972 24.0574 10.7676 24.0146L10.8486 23.9651L10.8694 23.9524L11.3246 23.6722L13.6061 24.6862C14.1108 24.9105 14.3381 25.5015 14.1138 26.0061C13.8895 26.5108 13.2985 26.7381 12.7939 26.5138L11.4712 25.926C11.2209 26.076 10.89 26.2717 10.5461 26.4682C10.1906 26.6714 9.80939 26.8821 9.48472 27.0444C9.32379 27.1249 9.16146 27.2012 9.01514 27.2597C8.94226 27.2889 8.85958 27.3192 8.77433 27.3436C8.70431 27.3636 8.56474 27.4 8.4 27.4C8.11469 27.4 7.88249 27.2983 7.73993 27.2229C7.58529 27.141 7.43519 27.0348 7.29286 26.9224C7.0075 26.6971 6.64873 26.3629 6.1929 25.9071C5.73707 25.4513 5.4029 25.0925 5.17762 24.8071C5.06525 24.6648 4.95902 24.5147 4.87715 24.3601C4.80168 24.2175 4.7 23.9853 4.7 23.7C4.7 23.5353 4.73644 23.3957 4.75645 23.3257C4.78081 23.2404 4.81112 23.1577 4.84028 23.0849C4.89881 22.9385 4.97511 22.7762 5.05558 22.6153C5.21791 22.2906 5.4286 21.9094 5.63176 21.5539C5.82828 21.21 6.02404 20.8792 6.17404 20.6288L5.78643 19.7567C5.49624 19.6853 5.10472 19.5866 4.70198 19.478C4.30167 19.37 3.87678 19.2484 3.52596 19.1315C3.352 19.0735 3.17972 19.0112 3.03128 18.9471L3.02983 18.9464C2.93101 18.9038 2.68191 18.7961 2.4929 18.6071C2.12636 18.2406 2.05704 17.7743 2.02876 17.4491C1.99995 17.1178 1.99997 16.6566 2 16.0588L2 15.9664C2 15.346 2 14.9034 2.01345 14.5941C2.02549 14.317 2.04901 13.9659 2.20558 13.6528L2.27815 13.5076L2.3929 13.3929C2.58191 13.2039 2.83101 13.0963 2.92983 13.0536L2.93128 13.0529C3.07972 12.9888 3.252 12.9265 3.42596 12.8685C3.77678 12.7516 4.20167 12.6301 4.60198 12.522C5.00472 12.4134 5.39624 12.3147 5.68643 12.2433L6.07404 11.3712C5.92404 11.1209 5.72828 10.79 5.53176 10.4461C5.3286 10.0906 5.11791 9.70939 4.95558 9.38472C4.87511 9.22379 4.79881 9.06147 4.74028 8.91514C4.71112 8.84226 4.68081 8.75958 4.65645 8.67433C4.63644 8.60431 4.6 8.46474 4.6 8.3C4.6 8.01415 4.70179 7.78098 4.78104 7.63423C4.86643 7.47609 4.97699 7.32557 5.09428 7.18482C5.32541 6.90746 5.66146 6.57517 6.1136 6.17221C6.55961 5.72694 6.91184 5.39948 7.19286 5.17762C7.33519 5.06525 7.48529 4.95902 7.63993 4.87715C7.78249 4.80168 8.01469 4.7 8.3 4.7C8.46474 4.7 8.60431 4.73644 8.67433 4.75645C8.75958 4.78081 8.84226 4.81112 8.91514 4.84028C9.06147 4.89881 9.22379 4.97511 9.38472 5.05558C9.70939 5.21791 10.0906 5.4286 10.4461 5.63176C10.79 5.82828 11.1209 6.02404 11.3712 6.17404L12.2433 5.78643C12.3147 5.49624 12.4134 5.10472 12.522 4.70198C12.6301 4.30167 12.7516 3.87678 12.8685 3.52596C12.9265 3.352 12.9888 3.17972 13.0529 3.03128L13.0536 3.02983C13.0963 2.93101 13.2039 2.68191 13.3929 2.4929C13.7594 2.12636 14.2257 2.05704 14.5509 2.02876C14.8822 1.99995 15.3434 1.99997 15.9412 2ZM3.76548 17.083C3.76575 17.083 3.76998 17.0851 3.77733 17.0894C3.76888 17.0852 3.7652 17.083 3.76548 17.083ZM3.66548 14.917C3.6652 14.917 3.66888 14.9148 3.67733 14.9106C3.66997 14.9149 3.66575 14.917 3.66548 14.917ZM14.917 3.76548C14.917 3.76575 14.9149 3.76998 14.9106 3.77733C14.9148 3.76888 14.917 3.7652 14.917 3.76548ZM16.983 3.66548C16.983 3.6652 16.9852 3.66887 16.9894 3.67732C16.9851 3.66997 16.983 3.66575 16.983 3.66548Z" fill="black"/>
<path d="M16 12C13.7523 12 12 13.7523 12 16C12 17.4254 12.7969 18.7235 13.9408 19.4588C14.4053 19.7575 14.5398 20.3762 14.2412 20.8408C13.9425 21.3053 13.3238 21.4398 12.8592 21.1412C11.2031 20.0765 10 18.1746 10 16C10 12.6477 12.6477 10 16 10C18.1746 10 20.0765 11.2031 21.1412 12.8592C21.4398 13.3238 21.3053 13.9425 20.8408 14.2412C20.3762 14.5398 19.7575 14.4053 19.4588 13.9408C18.7235 12.7969 17.4254 12 16 12Z" fill="black"/>
<path d="M19 23C19 22.4477 19.4477 22 20 22H22V20C22 19.4477 22.4477 19 23 19C23.5523 19 24 19.4477 24 20V22H26C26.5523 22 27 22.4477 27 23C27 23.5523 26.5523 24 26 24H24V26C24 26.5523 23.5523 27 23 27C22.4477 27 22 26.5523 22 26V24H20C19.4477 24 19 23.5523 19 23Z" fill="black"/>
<path fill-rule="evenodd" clip-rule="evenodd" d="M23 15C18.5817 15 15 18.5817 15 23C15 27.4183 18.5817 31 23 31C27.4183 31 31 27.4183 31 23C31 18.5817 27.4183 15 23 15ZM17 23C17 19.6863 19.6863 17 23 17C26.3137 17 29 19.6863 29 23C29 26.3137 26.3137 29 23 29C19.6863 29 17 26.3137 17 23Z" fill="black"/>
</svg>
