<svg width="32" height="32" viewBox="0 0 32 32" fill="none" xmlns="http://www.w3.org/2000/svg">
<path fill-rule="evenodd" clip-rule="evenodd" d="M16.037 2L15.9412 2C15.3434 1.99997 14.8822 1.99995 14.5509 2.02876C14.2257 2.05704 13.7594 2.12636 13.3929 2.4929C13.2039 2.68191 13.0963 2.93101 13.0536 3.02983L13.0529 3.03128C12.9888 3.17972 12.9265 3.352 12.8685 3.52596C12.7516 3.87678 12.6301 4.30167 12.522 4.70198C12.4134 5.10472 12.3147 5.49624 12.2433 5.78643L11.3712 6.17404C11.1209 6.02404 10.79 5.82828 10.4461 5.63176C10.0906 5.4286 9.70939 5.21791 9.38472 5.05558C9.22379 4.97511 9.06147 4.89881 8.91514 4.84028C8.84226 4.81112 8.75958 4.78081 8.67433 4.75645C8.60431 4.73644 8.46474 4.7 8.3 4.7C8.01469 4.7 7.78249 4.80168 7.63993 4.87715C7.48529 4.95902 7.33519 5.06525 7.19286 5.17762C6.91184 5.39948 6.55961 5.72694 6.1136 6.17221C5.66146 6.57517 5.32541 6.90746 5.09428 7.18482C4.97699 7.32557 4.86643 7.47609 4.78104 7.63423C4.70179 7.78098 4.6 8.01415 4.6 8.3C4.6 8.46474 4.63644 8.60431 4.65645 8.67433C4.68081 8.75958 4.71112 8.84226 4.74028 8.91514C4.79881 9.06147 4.87511 9.22379 4.95558 9.38472C5.11791 9.70939 5.3286 10.0906 5.53176 10.4461C5.72828 10.79 5.92404 11.1209 6.07404 11.3712L5.68643 12.2433C5.39624 12.3147 5.00472 12.4134 4.60198 12.522C4.20167 12.6301 3.77678 12.7516 3.42596 12.8685C3.252 12.9265 3.07972 12.9888 2.93128 13.0529L2.92983 13.0536C2.83101 13.0963 2.58191 13.2039 2.3929 13.3929L2.27815 13.5076L2.20558 13.6528C2.04901 13.9659 2.02549 14.317 2.01345 14.5941C2 14.9034 2 15.3458 2 15.9662L2 16.0588C1.99997 16.6566 1.99995 17.1178 2.02876 17.4491C2.05704 17.7743 2.12636 18.2406 2.4929 18.6071C2.68191 18.7961 2.93101 18.9038 3.02983 18.9464L3.03128 18.9471C3.17972 19.0112 3.352 19.0735 3.52596 19.1315C3.87678 19.2484 4.30167 19.37 4.70198 19.478C5.10472 19.5866 5.49624 19.6853 5.78643 19.7567L6.17404 20.6288C6.02404 20.8792 5.82828 21.21 5.63176 21.5539C5.4286 21.9094 5.21791 22.2906 5.05558 22.6153C4.97511 22.7762 4.89881 22.9385 4.84028 23.0849C4.81112 23.1577 4.78081 23.2404 4.75645 23.3257C4.73644 23.3957 4.7 23.5353 4.7 23.7C4.7 23.9853 4.80168 24.2175 4.87715 24.3601C4.95902 24.5147 5.06525 24.6648 5.17762 24.8071C5.4029 25.0925 5.73707 25.4513 6.1929 25.9071C6.64873 26.3629 7.0075 26.6971 7.29286 26.9224C7.43519 27.0348 7.58529 27.141 7.73993 27.2229C7.88249 27.2983 8.11469 27.4 8.4 27.4C8.56474 27.4 8.70431 27.3636 8.77433 27.3436C8.85958 27.3192 8.94226 27.2889 9.01514 27.2597C9.16146 27.2012 9.32379 27.1249 9.48472 27.0444C9.80939 26.8821 10.1906 26.6714 10.5461 26.4682C10.89 26.2717 11.2209 26.076 11.4712 25.926L12.7939 26.5138C13.2985 26.7381 13.8895 26.5108 14.1138 26.0061C14.3381 25.5015 14.1108 24.9105 13.6061 24.6862L11.3246 23.6722L10.8694 23.9524L10.8486 23.9651L10.7676 24.0146C10.6972 24.0574 10.5959 24.1188 10.473 24.1925C10.2267 24.3403 9.89567 24.5364 9.55386 24.7318C9.2094 24.9286 8.86562 25.1179 8.59029 25.2556C8.55062 25.2754 8.51361 25.2936 8.47928 25.31C8.28967 25.1544 8.0119 24.8977 7.60711 24.4929C7.20232 24.0881 6.94564 23.8103 6.78999 23.6207C6.80646 23.5864 6.8246 23.5494 6.84443 23.5097C6.98209 23.2344 7.17141 22.8906 7.36825 22.5461C7.56356 22.2043 7.75969 21.8733 7.9075 21.627C7.98125 21.5041 8.04264 21.4028 8.08545 21.3325L8.13489 21.2515L8.15168 21.2241L8.42781 20.7754L7.21175 18.0392L6.72697 17.9261L6.69582 17.9188L6.60275 17.8967C6.522 17.8774 6.40584 17.8494 6.26535 17.8149C5.9838 17.7456 5.60717 17.6507 5.22303 17.547C4.83584 17.4426 4.45447 17.3328 4.15842 17.2341C4.10577 17.2166 4.05786 17.2001 4.01468 17.1846C4.00077 16.9487 4 16.5917 4 16C4 15.4192 4.0002 15.0423 4.00788 14.7829L4.05842 14.7659C4.35447 14.6672 4.73584 14.5575 5.12303 14.453C5.50717 14.3493 5.8838 14.2544 6.16535 14.1851C6.30584 14.1506 6.422 14.1226 6.50275 14.1033L6.59582 14.0812L6.62727 14.0738L7.11175 13.9608L8.32781 11.2247L8.05151 10.7757L8.03489 10.7486L7.98545 10.6676C7.94264 10.5972 7.88125 10.4959 7.8075 10.373C7.65969 10.1267 7.46356 9.79567 7.26825 9.45387C7.07141 9.1094 6.88209 8.76562 6.74443 8.49029C6.72672 8.45487 6.71037 8.42157 6.69534 8.39041C6.84491 8.22271 7.08772 7.98221 7.46437 7.64741L7.48633 7.62789L7.50711 7.60711C7.9119 7.20232 8.18967 6.94564 8.37928 6.78999C8.41361 6.80646 8.45062 6.8246 8.49029 6.84443C8.76562 6.98209 9.1094 7.17141 9.45387 7.36825C9.79567 7.56356 10.1267 7.75969 10.373 7.9075C10.4959 7.98125 10.5972 8.04264 10.6676 8.08545L10.7486 8.13489L10.7759 8.15168L11.2247 8.42781L13.9608 7.21175L14.0739 6.72697L14.0812 6.69582L14.1033 6.60275C14.1226 6.522 14.1506 6.40584 14.1851 6.26535C14.2544 5.9838 14.3493 5.60717 14.453 5.22303C14.5575 4.83584 14.6672 4.45447 14.7659 4.15842C14.7834 4.10577 14.8 4.05786 14.8154 4.01468C15.0513 4.00077 15.4083 4 16 4C16.5151 4 16.8687 4.00017 17.1163 4.0055L17.1341 4.05842C17.2328 4.35447 17.3426 4.73584 17.447 5.12303C17.5507 5.50717 17.6456 5.8838 17.7149 6.16535C17.7494 6.30584 17.7774 6.422 17.7967 6.50275L17.8188 6.59582L17.8262 6.62727L17.9392 7.11175L20.6754 8.32781L21.1243 8.05151L21.1515 8.03489L21.2325 7.98545C21.3028 7.94264 21.4041 7.88125 21.527 7.8075C21.7733 7.65969 22.1043 7.46356 22.4461 7.26825C22.7906 7.07141 23.1344 6.88209 23.4097 6.74443C23.4494 6.7246 23.4864 6.70646 23.5207 6.68999C23.7103 6.84564 23.9881 7.10232 24.3929 7.50711C24.7977 7.9119 25.0544 8.18966 25.21 8.37928C25.1936 8.4136 25.1754 8.45062 25.1556 8.49029C25.0179 8.76562 24.8286 9.1094 24.6318 9.45387C24.4364 9.79567 24.2403 10.1267 24.0925 10.373C24.0188 10.4959 23.9574 10.5972 23.9146 10.6676L23.8651 10.7486L23.8524 10.7694L23.5722 11.2247L24.5862 13.5061C24.8105 14.0108 25.4015 14.2381 25.9061 14.0138C26.4108 13.7895 26.6381 13.1986 26.4138 12.6939L25.826 11.3712C25.976 11.1209 26.1717 10.79 26.3682 10.4461C26.5714 10.0906 26.7821 9.70939 26.9444 9.38472C27.0249 9.22379 27.1012 9.06147 27.1597 8.91514C27.1889 8.84226 27.2192 8.75958 27.2436 8.67433C27.2636 8.60431 27.3 8.46474 27.3 8.3C27.3 8.01469 27.1983 7.78249 27.1229 7.63993C27.041 7.48529 26.9348 7.33519 26.8224 7.19286C26.5971 6.90751 26.2629 6.54873 25.8071 6.0929C25.3513 5.63707 24.9925 5.3029 24.7071 5.07762C24.5648 4.96526 24.4147 4.85902 24.2601 4.77715C24.1175 4.70168 23.8853 4.6 23.6 4.6C23.4353 4.6 23.2957 4.63644 23.2257 4.65645C23.1404 4.68081 23.0577 4.71112 22.9849 4.74028C22.8385 4.79881 22.6762 4.87511 22.5153 4.95558C22.1906 5.11791 21.8094 5.3286 21.4539 5.53176C21.11 5.72828 20.7792 5.92404 20.5288 6.07404L19.6567 5.68643C19.5853 5.39624 19.4866 5.00472 19.378 4.60198C19.27 4.20167 19.1484 3.77678 19.0315 3.42596C18.9735 3.252 18.9112 3.07972 18.8471 2.93128L18.8464 2.92983C18.8038 2.83101 18.6961 2.58191 18.5071 2.3929C18.2621 2.14787 17.9671 2.08345 17.8514 2.0608C17.7046 2.03208 17.5446 2.02032 17.3954 2.01354C17.0976 2 16.6545 2 16.037 2ZM3.76548 17.083C3.76575 17.083 3.76998 17.0851 3.77733 17.0894C3.76888 17.0852 3.7652 17.083 3.76548 17.083ZM3.66548 14.917C3.6652 14.917 3.66888 14.9148 3.67733 14.9106C3.66997 14.9149 3.66575 14.917 3.66548 14.917ZM14.917 3.76548C14.917 3.76575 14.9149 3.76998 14.9106 3.77733C14.9148 3.76888 14.917 3.7652 14.917 3.76548ZM16.983 3.66548C16.983 3.6652 16.9852 3.66887 16.9894 3.67732C16.9851 3.66997 16.983 3.66575 16.983 3.66548Z" fill="black"/>
<path d="M12 16C12 13.7523 13.7523 12 16 12C17.4254 12 18.7235 12.7969 19.4588 13.9408C19.7575 14.4053 20.3762 14.5398 20.8408 14.2412C21.3053 13.9425 21.4398 13.3238 21.1412 12.8592C20.0765 11.2031 18.1746 10 16 10C12.6477 10 10 12.6477 10 16C10 18.1746 11.2031 20.0765 12.8592 21.1412C13.3238 21.4398 13.9425 21.3053 14.2412 20.8408C14.5398 20.3762 14.4053 19.7575 13.9408 19.4588C12.7969 18.7235 12 17.4254 12 16Z" fill="black"/>
<path d="M24 23C24 23.5523 23.5523 24 23 24C22.4477 24 22 23.5523 22 23C22 22.4477 22.4477 22 23 22C23.5523 22 24 22.4477 24 23Z" fill="black"/>
<path d="M20 24C20.5523 24 21 23.5523 21 23C21 22.4477 20.5523 22 20 22C19.4477 22 19 22.4477 19 23C19 23.5523 19.4477 24 20 24Z" fill="black"/>
<path d="M27 23C27 23.5523 26.5523 24 26 24C25.4477 24 25 23.5523 25 23C25 22.4477 25.4477 22 26 22C26.5523 22 27 22.4477 27 23Z" fill="black"/>
<path fill-rule="evenodd" clip-rule="evenodd" d="M15 23C15 18.5817 18.5817 15 23 15C27.4183 15 31 18.5817 31 23C31 27.4183 27.4183 31 23 31C18.5817 31 15 27.4183 15 23ZM23 17C19.6863 17 17 19.6863 17 23C17 26.3137 19.6863 29 23 29C26.3137 29 29 26.3137 29 23C29 19.6863 26.3137 17 23 17Z" fill="black"/>
</svg>
