<svg xmlns="http://www.w3.org/2000/svg" width="64" height="64" viewBox="0 0 64 64">
  <title>settings-upload</title>
  <path d="M22.88,38.15A11,11,0,0,1,38.05,22.81" fill="none" stroke="#000" stroke-linecap="round" stroke-linejoin="round" stroke-width="4"/>
  <path d="M50.48,23l-.3-.73s3.4-5.45,3.4-6.26c0-.45-.6-1.18-2.49-3.07S48.47,10.42,48,10.42c-.81,0-6.27,3.4-6.27,3.4L38,12.25s-1.45-6.26-2-6.84C35.61,5.09,34.67,5,32,5s-3.61.09-3.93.41c-.58.58-2,6.84-2,6.84l-3.8,1.57s-5.45-3.4-6.26-3.4c-.46,0-1.18.6-3.07,2.49S10.42,15.53,10.42,16c0,.81,3.4,6.26,3.4,6.26L12.25,26s-6.26,1.45-6.84,2C5.09,28.39,5,29.33,5,32s.09,3.61.41,3.93c.58.58,6.84,2,6.84,2l1.57,3.79s-3.4,5.46-3.4,6.27c0,.45.6,1.18,2.49,3.07s2.61,2.49,3.07,2.49c.81,0,6.26-3.4,6.26-3.4l.73.3" fill="none" stroke="#000" stroke-linecap="round" stroke-linejoin="round" stroke-width="4"/>
  <circle cx="44" cy="44" r="16" fill="none" stroke="#000" stroke-linecap="round" stroke-linejoin="round" stroke-width="4"/>
  <line x1="44" y1="52" x2="44" y2="36" fill="none" stroke="#000" stroke-linecap="round" stroke-linejoin="round" stroke-width="4"/>
  <polyline points="36 44 44 36 52 44" fill="none" stroke="#000" stroke-linecap="round" stroke-linejoin="round" stroke-width="4"/>
</svg>
