<?xml version="1.0" encoding="UTF-8"?>
<svg width="24px" height="24px" viewBox="0 0 24 24" version="1.1" xmlns="http://www.w3.org/2000/svg" xmlns:xlink="http://www.w3.org/1999/xlink">
    <!-- Generator: Sketch 48.2 (47327) - http://www.bohemiancoding.com/sketch -->
    <title>settings</title>
    <desc>Created with Sketch.</desc>
    <defs></defs>
    <g id="Page-1" stroke="none" stroke-width="1" fill="none" fill-rule="evenodd" stroke-linecap="round" stroke-linejoin="round">
        <g id="settings" stroke="#000000" stroke-width="2">
            <path d="M16,11.9998 C16,14.2088 14.209,15.9998 12,15.9998 C9.791,15.9998 8,14.2088 8,11.9998 C8,9.7908 9.791,7.9998 12,7.9998 C14.209,7.9998 16,9.7908 16,11.9998 Z" id="Stroke-3"></path>
            <path d="M15.6143,18.7393 C15.6143,18.7393 17.6353,19.9993 17.9353,19.9993 C18.1033,19.9993 18.3723,19.7773 19.0723,19.0773 C19.7723,18.3773 19.9943,18.1083 19.9943,17.9403 C19.9943,17.6393 18.7343,15.6193 18.7343,15.6193 L19.3173,14.2123 C19.3173,14.2123 21.6363,13.6753 21.8493,13.4623 C21.9683,13.3433 22.0013,12.9963 22.0013,12.0063 C22.0013,11.0163 21.9683,10.6693 21.8493,10.5503 C21.6363,10.3383 19.3173,9.8003 19.3173,9.8003 L18.7343,8.3933 C18.7343,8.3933 19.9943,6.3743 19.9943,6.0723 C19.9943,5.9053 19.7723,5.6353 19.0723,4.9363 C18.3723,4.2363 18.1033,4.0133 17.9353,4.0133 C17.6353,4.0133 15.6143,5.2743 15.6143,5.2743 L14.2083,4.6913 C14.2083,4.6913 13.6713,2.3723 13.4583,2.1593 C13.3393,2.0403 12.9913,2.0073 12.0023,2.0073 C11.0113,2.0073 10.6653,2.0403 10.5463,2.1593 C10.3333,2.3723 9.7963,4.6913 9.7963,4.6913 L8.3883,5.2743 C8.3883,5.2743 6.3693,4.0133 6.0683,4.0133 C5.8993,4.0133 5.6313,4.2363 4.9303,4.9363 C4.2303,5.6353 4.0093,5.9053 4.0093,6.0723 C4.0093,6.3743 5.2683,8.3933 5.2683,8.3933 L4.6863,9.8003 C4.6863,9.8003 2.3673,10.3383 2.1543,10.5503 C2.0353,10.6693 2.0023,11.0163 2.0023,12.0063 C2.0023,12.9963 2.0353,13.3433 2.1543,13.4623 C2.3673,13.6753 4.6863,14.2123 4.6863,14.2123 L5.2683,15.6193 C5.2683,15.6193 4.0093,17.6393 4.0093,17.9403 C4.0093,18.1083 4.2313,18.3773 4.9303,19.0773 C5.6313,19.7773 5.8993,19.9993 6.0683,19.9993 C6.3693,19.9993 8.3883,18.7393 8.3883,18.7393 L9.7963,19.3223 C9.7963,19.3223 10.3333,21.6413 10.5463,21.8543 C10.6653,21.9733 11.0113,22.0063 12.0023,22.0063 C12.9913,22.0063 13.3393,21.9733 13.4583,21.8543 C13.6713,21.6413 14.2083,19.3223 14.2083,19.3223 L15.6143,18.7393 Z" id="Stroke-1"></path>
        </g>
    </g>
</svg>