<svg width="32" height="32" viewBox="0 0 32 32" fill="none" xmlns="http://www.w3.org/2000/svg">
<path fill-rule="evenodd" clip-rule="evenodd" d="M8 13C8 6.92487 12.9249 2 19 2C25.0751 2 30 6.92487 30 13C30 19.0751 25.0751 24 19 24C16.3225 24 13.8685 23.0434 11.961 21.4533L8.91426 24.5L11.7071 27.2929C12.0976 27.6834 12.0976 28.3166 11.7071 28.7071C11.3166 29.0976 10.6834 29.0976 10.2929 28.7071L7.50005 25.9143L3.70711 29.7072C3.31658 30.0977 2.68342 30.0977 2.29289 29.7072C1.90237 29.3167 1.90237 28.6835 2.29289 28.293L6.08583 24.5L3.29289 21.7071C2.90237 21.3166 2.90237 20.6834 3.29289 20.2929C3.68342 19.9024 4.31658 19.9024 4.70711 20.2929L7.50005 23.0858L10.5468 20.0391C8.95664 18.1316 8 15.6775 8 13ZM19 4C14.0294 4 10 8.02944 10 13C10 17.9706 14.0294 22 19 22C23.9706 22 28 17.9706 28 13C28 8.02944 23.9706 4 19 4Z" fill="black"/>
</svg>
