<svg width="32" height="32" viewBox="0 0 32 32" fill="none" xmlns="http://www.w3.org/2000/svg">
<path fill-rule="evenodd" clip-rule="evenodd" d="M29.0002 2H30V2.99661C30 2.99887 30 3.00113 30 3.00339V11C30 11.5523 29.5523 12 29 12C28.4477 12 28 11.5523 28 11V5.41422L21.4533 11.9609C23.0434 13.8684 24 16.3225 24 19C24 25.0751 19.0751 30 13 30C6.92487 30 2 25.0751 2 19C2 12.9249 6.92487 8 13 8C15.6775 8 18.1316 8.95662 20.0391 10.5467L26.5858 4H21C20.4477 4 20 3.55228 20 3C20 2.44772 20.4477 2 21 2H29.0002C29.0001 2 29.0003 2 29.0002 2ZM13 10C8.02944 10 4 14.0294 4 19C4 23.9706 8.02944 28 13 28C17.9706 28 22 23.9706 22 19C22 14.0294 17.9706 10 13 10Z" fill="black"/>
</svg>
