<svg width="32" height="32" viewBox="0 0 32 32" fill="none" xmlns="http://www.w3.org/2000/svg">
<path fill-rule="evenodd" clip-rule="evenodd" d="M18 8C18 4.68629 20.6863 2 24 2C27.3137 2 30 4.68629 30 8C30 11.3137 27.3137 14 24 14C21.998 14 20.2249 13.0194 19.135 11.5124L13.7503 14.2816C13.9128 14.826 14 15.4028 14 16C14 16.5973 13.9127 17.1742 13.7502 17.7186L19.1348 20.4879C20.2247 18.9807 21.9978 18 24 18C27.3137 18 30 20.6863 30 24C30 27.3137 27.3137 30 24 30C20.6863 30 18 27.3137 18 24C18 23.4028 18.0872 22.826 18.2497 22.2816L12.865 19.5124C11.7751 21.0194 10.002 22 8 22C4.68629 22 2 19.3137 2 16C2 12.6863 4.68629 10 8 10C10.0022 10 11.7753 10.9807 12.8652 12.4879L18.2498 9.71864C18.0873 9.17418 18 8.59728 18 8ZM24 4C21.7909 4 20 5.79086 20 8C20 10.2091 21.7909 12 24 12C26.2091 12 28 10.2091 28 8C28 5.79086 26.2091 4 24 4ZM24 20C21.7909 20 20 21.7909 20 24C20 26.2091 21.7909 28 24 28C26.2091 28 28 26.2091 28 24C28 21.7909 26.2091 20 24 20ZM4 16C4 13.7909 5.79086 12 8 12C10.2091 12 12 13.7909 12 16C12 18.2091 10.2091 20 8 20C5.79086 20 4 18.2091 4 16Z" fill="black"/>
</svg>
