<svg width="32" height="32" viewBox="0 0 32 32" fill="none" xmlns="http://www.w3.org/2000/svg">
<path d="M26.5858 4L15.2929 15.2929C14.9024 15.6834 14.9024 16.3166 15.2929 16.7071C15.6834 17.0976 16.3166 17.0976 16.7071 16.7071L28 5.41421V10C28 10.5523 28.4477 11 29 11C29.5523 11 30 10.5523 30 10V3.00098C30 3.00033 30 2.99967 30 2.99902V2H29.0002C29.0003 2 29.0001 2 29.0002 2H22C21.4477 2 21 2.44772 21 3C21 3.55228 21.4477 4 22 4H26.5858Z" fill="black"/>
<path d="M6 8C4.85228 8 4 8.85228 4 10V26C4 27.1477 4.85228 28 6 28H22C23.1477 28 24 27.1477 24 26V14C24 13.4477 24.4477 13 25 13C25.5523 13 26 13.4477 26 14V26C26 28.2523 24.2523 30 22 30H6C3.74772 30 2 28.2523 2 26V10C2 7.74771 3.74772 6 6 6H18C18.5523 6 19 6.44772 19 7C19 7.55228 18.5523 8 18 8H6Z" fill="black"/>
</svg>
