<svg width="32" height="32" viewBox="0 0 32 32" fill="none" xmlns="http://www.w3.org/2000/svg">
<path fill-rule="evenodd" clip-rule="evenodd" d="M8 18V24H14V18H8ZM10 22V20H12V22H10Z" fill="black"/>
<path fill-rule="evenodd" clip-rule="evenodd" d="M6.00001 3C5.62123 3 5.27497 3.214 5.10558 3.55279L2.11469 9.53457C2.04145 9.67359 2 9.83195 2 10V11.8C2 13.2657 2.77743 14.6359 4 15.3632V25C4 27.4375 6.25322 29 8.7 29H18V20H20.9V29H23.4C25.7278 29 28.1 27.4528 28.1 25V15.3234C29.2562 14.583 30 13.2284 30 11.8V10C30 9.83215 29.9586 9.67396 29.8856 9.53506L26.8944 3.55279C26.725 3.214 26.3788 3 26 3H6.00001ZM26.1 15.9119C25.1452 15.9307 24.2607 15.6117 23.5617 15.0718C22.8556 15.6497 21.9705 16 21 16C20.0714 16 19.1956 15.6761 18.5169 15.108C17.8183 15.6642 16.95 16 16 16C15.0714 16 14.1956 15.6761 13.5169 15.108C12.8183 15.6642 11.95 16 11 16C10.0658 16 9.18497 15.6721 8.50456 15.0976C7.8109 15.6219 6.93945 15.9304 6 15.912V25C6 25.9626 6.94678 27 8.7 27H16V18H22.9V27H23.4C25.0722 27 26.1 25.9473 26.1 25V15.9119ZM4 11.8V11H28V11.8C28 12.9444 27.1403 13.8418 26.2335 13.9022L26.2095 13.9041C25.4735 13.971 24.8034 13.6378 24.4 13.1C24.2111 12.8482 23.9148 12.7 23.6 12.7H23.5C23.1852 12.7 22.8889 12.8482 22.7 13.1C22.2676 13.6766 21.6514 14 21 14C20.3344 14 19.7598 13.6689 19.448 13.17C19.2653 12.8776 18.9448 12.7 18.6 12.7H18.5C18.1852 12.7 17.8889 12.8482 17.7 13.1C17.2676 13.6766 16.6514 14 16 14C15.3344 14 14.7598 13.6689 14.448 13.17C14.2653 12.8776 13.9448 12.7 13.6 12.7H13.5C13.1852 12.7 12.8889 12.8482 12.7 13.1C12.2676 13.6766 11.6514 14 11 14C10.3344 14 9.75984 13.6689 9.448 13.17C9.26526 12.8776 8.94479 12.7 8.6 12.7H8.5C8.18524 12.7 7.88885 12.8482 7.7 13.1C7.29664 13.6378 6.62651 13.971 5.89054 13.9041C5.88116 13.9033 5.87177 13.9025 5.86238 13.9019C4.83897 13.838 4 12.9231 4 11.8ZM4.61804 9L6.61804 5H25.382L27.382 9H4.61804Z" fill="black"/>
</svg>
