<svg xmlns="http://www.w3.org/2000/svg" width="64" height="64" viewBox="0 0 64 64">
  <title>shopping-cart</title>
  <path d="M27,55a2,2,0,0,1-4,0" fill="none" stroke="#000" stroke-linecap="round" stroke-linejoin="round" stroke-width="4"/>
  <path d="M23,55a2,2,0,0,1,4,0" fill="none" stroke="#000" stroke-linecap="round" stroke-linejoin="round" stroke-width="4"/>
  <path d="M52,55a2,2,0,0,1-4,0" fill="none" stroke="#000" stroke-linecap="round" stroke-linejoin="round" stroke-width="4"/>
  <path d="M48,55a2,2,0,0,1,4,0" fill="none" stroke="#000" stroke-linecap="round" stroke-linejoin="round" stroke-width="4"/>
  <path d="M5,9h9l9,34.27A5,5,0,0,0,27.85,47H47.4a5,5,0,0,0,4.74-3.42L59,23H18" fill="none" stroke="#000" stroke-linecap="round" stroke-linejoin="round" stroke-width="4"/>
</svg>
