<svg width="32" height="32" viewBox="0 0 32 32" fill="none" xmlns="http://www.w3.org/2000/svg">
<path d="M17.2929 11.1928C17.6834 10.8023 18.3166 10.8023 18.7071 11.1928L22.4142 14.8999L18.7071 18.607C18.3166 18.9975 17.6834 18.9975 17.2929 18.607C16.9024 18.2165 16.9024 17.5833 17.2929 17.1928L18.5858 15.8999H14C12.8523 15.8999 12 16.7522 12 17.8999V19.8999H10V17.8999C10 15.6476 11.7477 13.8999 14 13.8999H18.5858L17.2929 12.607C16.9024 12.2165 16.9024 11.5833 17.2929 11.1928Z" fill="black"/>
<path fill-rule="evenodd" clip-rule="evenodd" d="M18.8214 3.20713C17.3067 1.57438 14.7601 1.62571 13.1929 3.1929L3.30714 13.0787C1.67439 14.5933 1.72572 17.1399 3.29291 18.7071L13.1929 28.6071C14.7834 30.1976 17.2166 30.1976 18.8071 28.6071L28.6929 18.7213C30.3256 17.2066 30.2743 14.6601 28.7071 13.0929L18.8214 3.20713ZM17.3629 4.57573C16.6756 3.82597 15.4345 3.77977 14.6071 4.60711L4.69175 14.5225L4.67574 14.5372C3.92597 15.2244 3.87977 16.4656 4.70712 17.2929L14.6071 27.1929C15.4166 28.0024 16.5834 28.0024 17.3929 27.1929L27.3083 17.2775L27.3243 17.2629C28.0741 16.5756 28.1203 15.3345 27.2929 14.5071L17.3775 4.59175L17.3629 4.57573Z" fill="black"/>
</svg>
