<svg width="32" height="32" viewBox="0 0 32 32" fill="none" xmlns="http://www.w3.org/2000/svg">
<path d="M3.53399 10.5455C7.17026 8.2489 11.4843 7 16 7C20.5157 7 24.8297 8.2489 28.466 10.5455C28.933 10.8404 29.5506 10.7009 29.8455 10.234C30.1404 9.76704 30.0009 9.14943 29.534 8.85451C25.5703 6.3511 20.8843 5 16 5C11.1157 5 6.42974 6.3511 2.46601 8.85451C1.99906 9.14943 1.85959 9.76704 2.15451 10.234C2.44943 10.7009 3.06704 10.8404 3.53399 10.5455Z" fill="black"/>
<path d="M16 16.4001C13.0946 16.4001 10.2748 17.2437 7.8241 18.7518C7.35374 19.0413 6.73779 18.8946 6.44834 18.4242C6.15889 17.9539 6.30555 17.3379 6.7759 17.0485C9.52517 15.3566 12.7054 14.4001 16 14.4001C19.3977 14.4001 22.4776 15.3584 25.2241 17.0485C25.6945 17.3379 25.8411 17.9539 25.5517 18.4242C25.2622 18.8946 24.6463 19.0413 24.1759 18.7518C21.7224 17.2419 19.0023 16.4001 16 16.4001Z" fill="black"/>
<path d="M16 25.8C14.6757 25.8 13.3587 26.1535 12.2241 26.8517C11.7537 27.1412 11.1378 26.9945 10.8483 26.5241C10.5589 26.0538 10.7055 25.4378 11.1759 25.1484C12.6413 24.2466 14.3243 23.8 16 23.8C17.7614 23.8 19.4628 24.2401 20.8547 25.168C21.3142 25.4744 21.4384 26.0952 21.132 26.5548C20.8257 27.0143 20.2048 27.1385 19.7453 26.8321C18.7372 26.16 17.4386 25.8 16 25.8Z" fill="black"/>
</svg>
