<svg xmlns="http://www.w3.org/2000/svg" width="64" height="64" viewBox="0 0 64 64">
  <title>sign-alt</title>
  <path d="M12,16V9a5,5,0,0,1,5-5H38L54,20V55a5,5,0,0,1-5,5H17a5,5,0,0,1-5-5V42" fill="none" stroke="#000" stroke-linecap="round" stroke-linejoin="round" stroke-width="4"/>
  <g>
    <circle cx="27.84" cy="37.81" r="2.84" fill="none" stroke="#000" stroke-linecap="round" stroke-linejoin="round" stroke-width="4"/>
    <line x1="19.55" y1="18" x2="8" y2="29.48" fill="none" stroke="#000" stroke-linecap="round" stroke-linejoin="round" stroke-width="4"/>
    <path d="M19.78,46a87.2,87.2,0,0,0-1.56-11.87" fill="none" stroke="#000" stroke-linecap="round" stroke-linejoin="round" stroke-width="4"/>
    <path d="M36,29.74a74.85,74.85,0,0,1-11.84-1.56" fill="none" stroke="#000" stroke-linecap="round" stroke-linejoin="round" stroke-width="4"/>
    <polyline points="36 29.75 42 51.96 19.78 46" fill="none" stroke="#000" stroke-linecap="round" stroke-linejoin="round" stroke-width="4"/>
    <polyline points="19.55 18 26.02 26.32 16.36 35.98 8 29.48" fill="none" stroke="#000" stroke-linecap="round" stroke-linejoin="round" stroke-width="4"/>
    <line x1="29.86" y1="39.82" x2="42" y2="51.96" fill="none" stroke="#000" stroke-linecap="round" stroke-linejoin="round" stroke-width="4"/>
  </g>
  <polyline points="38 4 38 20 54 20" fill="none" stroke="#000" stroke-linecap="round" stroke-linejoin="round" stroke-width="4"/>
</svg>
