<svg width="32" height="32" viewBox="0 0 32 32" fill="none" xmlns="http://www.w3.org/2000/svg">
<path d="M9 4C7.85228 4 7 4.85228 7 6V26C7 27.1477 7.85228 28 9 28H23C24.1477 28 25 27.1477 25 26V21.2C25 20.6477 25.4477 20.2 26 20.2C26.5523 20.2 27 20.6477 27 21.2V26C27 28.2523 25.2523 30 23 30H9C6.74772 30 5 28.2523 5 26V6C5 3.74772 6.74772 2 9 2H19.4142L24.1071 6.69289C24.4976 7.08342 24.4976 7.71658 24.1071 8.10711C23.7166 8.49763 23.0834 8.49763 22.6929 8.10711L20 5.41421V9H20.8C21.3523 9 21.8 9.44772 21.8 10C21.8 10.5523 21.3523 11 20.8 11H18V4H9Z" fill="black"/>
<path fill-rule="evenodd" clip-rule="evenodd" d="M30.4142 14.0002L25 8.58594L13 20.5859V26.0002H18.4142L30.4142 14.0002ZM25 11.4144L27.5858 14.0002L17.5858 24.0002H15V21.4144L25 11.4144Z" fill="black"/>
<path d="M10 8C9.44772 8 9 8.44772 9 9C9 9.55228 9.44772 10 10 10H12C12.5523 10 13 9.55228 13 9C13 8.44772 12.5523 8 12 8H10Z" fill="black"/>
<path d="M9 17C9 16.4477 9.44772 16 10 16H12C12.5523 16 13 16.4477 13 17C13 17.5523 12.5523 18 12 18H10C9.44772 18 9 17.5523 9 17Z" fill="black"/>
<path d="M10 12C9.44772 12 9 12.4477 9 13C9 13.5523 9.44772 14 10 14H15C15.5523 14 16 13.5523 16 13C16 12.4477 15.5523 12 15 12H10Z" fill="black"/>
</svg>
