<svg width="32" height="32" viewBox="0 0 32 32" fill="none" xmlns="http://www.w3.org/2000/svg">
<path d="M6.91 23.08C6.63152 23.08 6.36445 22.9694 6.16754 22.7725C5.97062 22.5755 5.86 22.3085 5.86 22.03C5.86 21.7515 5.97062 21.4844 6.16754 21.2875C6.36445 21.0906 6.63152 20.98 6.91 20.98H17.06C17.3385 20.98 17.6055 21.0906 17.8025 21.2875C17.9994 21.4844 18.11 21.7515 18.11 22.03C18.11 22.3085 17.9994 22.5755 17.8025 22.7725C17.6055 22.9694 17.3385 23.08 17.06 23.08H6.91ZM24.03 23.08C23.7515 23.08 23.4844 22.9694 23.2875 22.7725C23.0906 22.5755 22.98 22.3085 22.98 22.03C22.98 21.7515 23.0906 21.4844 23.2875 21.2875C23.4844 21.0906 23.7515 20.98 24.03 20.98H25.03C25.3085 20.98 25.5755 21.0906 25.7725 21.2875C25.9694 21.4844 26.08 21.7515 26.08 22.03C26.08 22.3085 25.9694 22.5755 25.7725 22.7725C25.5755 22.9694 25.3085 23.08 25.03 23.08H24.03ZM6.91 17.85C6.64791 17.8244 6.40472 17.7023 6.22778 17.5072C6.05085 17.3122 5.95283 17.0583 5.95283 16.795C5.95283 16.5317 6.05085 16.2778 6.22778 16.0827C6.40472 15.8877 6.64791 15.7655 6.91 15.74H12.84C13.1021 15.7655 13.3453 15.8877 13.5222 16.0827C13.6992 16.2778 13.7972 16.5317 13.7972 16.795C13.7972 17.0583 13.6992 17.3122 13.5222 17.5072C13.3453 17.7023 13.1021 17.8244 12.84 17.85H6.91ZM24.03 17.85C23.7679 17.8244 23.5247 17.7023 23.3478 17.5072C23.1708 17.3122 23.0728 17.0583 23.0728 16.795C23.0728 16.5317 23.1708 16.2778 23.3478 16.0827C23.5247 15.8877 23.7679 15.7655 24.03 15.74H25.03C25.2921 15.7655 25.5353 15.8877 25.7122 16.0827C25.8892 16.2778 25.9872 16.5317 25.9872 16.795C25.9872 17.0583 25.8892 17.3122 25.7122 17.5072C25.5353 17.7023 25.2921 17.8244 25.03 17.85H24.03ZM24.03 12.61C23.7515 12.61 23.4844 12.4994 23.2875 12.3025C23.0906 12.1055 22.98 11.8385 22.98 11.56C22.98 11.2815 23.0906 11.0144 23.2875 10.8175C23.4844 10.6206 23.7515 10.51 24.03 10.51H25.03C25.3085 10.51 25.5755 10.6206 25.7725 10.8175C25.9694 11.0144 26.08 11.2815 26.08 11.56C26.08 11.8385 25.9694 12.1055 25.7725 12.3025C25.5755 12.4994 25.3085 12.61 25.03 12.61H24.03ZM6.91 12.61C6.63152 12.61 6.36445 12.4994 6.16754 12.3025C5.97062 12.1055 5.86 11.8385 5.86 11.56C5.86 11.2815 5.97062 11.0144 6.16754 10.8175C6.36445 10.6206 6.63152 10.51 6.91 10.51H19.13C19.4085 10.51 19.6755 10.6206 19.8725 10.8175C20.0694 11.0144 20.18 11.2815 20.18 11.56C20.18 11.8385 20.0694 12.1055 19.8725 12.3025C19.6755 12.4994 19.4085 12.61 19.13 12.61H6.91ZM28 1.01999C28.3493 1.0213 28.695 1.0914 29.0172 1.22629C29.3394 1.36118 29.6319 1.55822 29.878 1.80615C30.1241 2.05408 30.3189 2.34806 30.4513 2.67129C30.5838 2.99452 30.6513 3.34067 30.65 3.68999V28.57C30.6498 28.8369 30.5759 29.0986 30.4365 29.3262C30.2972 29.5538 30.0976 29.7385 29.86 29.86C29.622 29.9804 29.3557 30.0337 29.0897 30.0143C28.8238 29.995 28.568 29.9036 28.35 29.75L26.97 28.75L23.88 30.21C23.6783 30.3112 23.4557 30.3638 23.23 30.3638C23.0043 30.3638 22.7817 30.3112 22.58 30.21L19.79 28.69L16.62 30.19C16.4165 30.2913 16.1923 30.344 15.965 30.344C15.7377 30.344 15.5135 30.2913 15.31 30.19L12.53 28.69L9.35 30.22C9.15591 30.311 8.94436 30.3588 8.73 30.36C8.50079 30.3568 8.27523 30.3021 8.07 30.2L5.23 28.75L3.6 29.82C3.38128 29.9655 3.12713 30.049 2.86469 30.0613C2.60225 30.0736 2.3414 30.0144 2.11 29.89C1.88016 29.7644 1.68832 29.5793 1.55461 29.3541C1.4209 29.1289 1.35022 28.8719 1.35 28.61V7.92999C1.35261 7.22705 1.63233 6.55349 2.12845 6.0555C2.62457 5.5575 3.29707 5.27525 4 5.26999H20.54C20.8021 5.29554 21.0453 5.41772 21.2222 5.61274C21.3991 5.80776 21.4972 6.06166 21.4972 6.32499C21.4972 6.58832 21.3991 6.84221 21.2222 7.03724C21.0453 7.23226 20.8021 7.35444 20.54 7.37999H4C3.92693 7.37866 3.85434 7.39191 3.78645 7.41895C3.71856 7.44599 3.65675 7.4863 3.60461 7.5375C3.55247 7.58871 3.51106 7.64979 3.4828 7.71718C3.45454 7.78457 3.43999 7.85691 3.44 7.92999V27.4L4.38 26.79C4.59331 26.6425 4.8425 26.5553 5.10124 26.5377C5.35998 26.5201 5.61868 26.5727 5.85 26.69L8.74 28.16L11.92 26.69C12.1224 26.591 12.3447 26.5396 12.57 26.5396C12.7953 26.5396 13.0176 26.591 13.22 26.69L16 28.18L19.18 26.69C19.3824 26.591 19.6047 26.5396 19.83 26.5396C20.0553 26.5396 20.2776 26.591 20.48 26.69L23.27 28.16L26.41 26.69C26.644 26.577 26.9041 26.5295 27.1629 26.5524C27.4217 26.5753 27.6695 26.6677 27.88 26.82L28.55 27.3V3.68999C28.5513 3.61645 28.5381 3.54336 28.5112 3.47491C28.4843 3.40646 28.4442 3.34399 28.3931 3.29105C28.342 3.23812 28.281 3.19577 28.2136 3.16642C28.1461 3.13707 28.0735 3.12129 28 3.11999H2.4C2.12152 3.11999 1.85445 3.00936 1.65754 2.81245C1.46062 2.61554 1.35 2.34847 1.35 2.06999C1.35 1.79151 1.46062 1.52444 1.65754 1.32753C1.85445 1.13061 2.12152 1.01999 2.4 1.01999H28Z" fill="black"/>
</svg>
