<svg width="32" height="32" viewBox="0 0 32 32" fill="none" xmlns="http://www.w3.org/2000/svg">
<path d="M21.24 24.07H10.76V17.78H21.24V24.07ZM12.86 14.69C12.86 13.8572 13.1908 13.0585 13.7797 12.4697C14.3686 11.8808 15.1672 11.55 16 11.55C16.8328 11.55 17.6315 11.8808 18.2203 12.4697C18.8092 13.0585 19.14 13.8572 19.14 14.69V15.69H12.86V14.69ZM22.29 15.69H21.24V14.69C21.24 13.3003 20.6879 11.9674 19.7052 10.9848C18.7226 10.0021 17.3897 9.45 16 9.45C14.6103 9.45 13.2775 10.0021 12.2948 10.9848C11.3121 11.9674 10.76 13.3003 10.76 14.69V15.69H9.76C9.62022 15.6828 9.48049 15.7051 9.34984 15.7553C9.2192 15.8055 9.10055 15.8826 9.00158 15.9816C8.90261 16.0805 8.82551 16.1992 8.77529 16.3298C8.72506 16.4605 8.70282 16.6002 8.71 16.74V25.12C8.70282 25.2598 8.72506 25.3995 8.77529 25.5302C8.82551 25.6608 8.90261 25.7795 9.00158 25.8784C9.10055 25.9774 9.2192 26.0545 9.34984 26.1047C9.48049 26.1549 9.62022 26.1772 9.76 26.17H22.28C22.4156 26.1702 22.5499 26.1427 22.6746 26.0894C22.7993 26.036 22.9118 25.9579 23.0054 25.8597C23.0989 25.7614 23.1715 25.6452 23.2187 25.5181C23.2659 25.3909 23.2868 25.2555 23.28 25.12V16.74C23.2868 16.6045 23.2659 16.4691 23.2187 16.3419C23.1715 16.2148 23.0989 16.0986 23.0054 16.0003C22.9118 15.9021 22.7993 15.824 22.6746 15.7706C22.5499 15.7173 22.4156 15.6898 22.28 15.69H22.29ZM30.67 4.17V27.17C30.67 28.0054 30.3381 28.8066 29.7474 29.3974C29.1566 29.9881 28.3554 30.32 27.52 30.32H4.52C3.68457 30.32 2.88336 29.9881 2.29262 29.3974C1.70188 28.8066 1.37 28.0054 1.37 27.17V8.36C1.36993 7.53145 1.69631 6.73624 2.27843 6.14664C2.86054 5.55703 3.65152 5.22052 4.48 5.21H13.9C14.1785 5.21 14.4456 5.32062 14.6425 5.51754C14.8394 5.71445 14.95 5.98152 14.95 6.26C14.95 6.53848 14.8394 6.80555 14.6425 7.00246C14.4456 7.19937 14.1785 7.31 13.9 7.31H4.48C4.34453 7.30322 4.2091 7.32406 4.08195 7.37127C3.95479 7.41848 3.83857 7.49107 3.74035 7.58461C3.64213 7.67815 3.56396 7.7907 3.51061 7.9154C3.45726 8.04011 3.42983 8.17436 3.43 8.31V27.21C3.42282 27.3498 3.44506 27.4895 3.49529 27.6202C3.54551 27.7508 3.62261 27.8695 3.72158 27.9684C3.82055 28.0674 3.9392 28.1445 4.06984 28.1947C4.20049 28.2449 4.34022 28.2672 4.48 28.26H27.48C27.6198 28.2672 27.7595 28.2449 27.8902 28.1947C28.0208 28.1445 28.1395 28.0674 28.2384 27.9684C28.3374 27.8695 28.4145 27.7508 28.4647 27.6202C28.5149 27.4895 28.5372 27.3498 28.53 27.21V4.21C28.5372 4.07021 28.5149 3.93048 28.4647 3.79984C28.4145 3.66919 28.3374 3.55055 28.2384 3.45157C28.1395 3.3526 28.0208 3.27551 27.8902 3.22528C27.7595 3.17506 27.6198 3.15281 27.48 3.16H2.38C2.10152 3.16 1.83445 3.04937 1.63754 2.85246C1.44063 2.65555 1.33 2.38847 1.33 2.11C1.33 1.83152 1.44063 1.56445 1.63754 1.36754C1.83445 1.17062 2.10152 1.06 2.38 1.06H27.52C28.3554 1.06 29.1566 1.39187 29.7474 1.98261C30.3381 2.57335 30.67 3.37457 30.67 4.21V4.17Z" fill="black"/>
</svg>
