<svg width="32" height="32" viewBox="0 0 32 32" fill="none" xmlns="http://www.w3.org/2000/svg">
<path d="M7.3 19.69C7.3 20.313 7.11526 20.922 6.76913 21.4401C6.423 21.9581 5.93104 22.3618 5.35545 22.6002C4.77987 22.8386 4.14651 22.901 3.53547 22.7795C2.92443 22.6579 2.36315 22.3579 1.92262 21.9174C1.48208 21.4769 1.18207 20.9156 1.06053 20.3045C0.938984 19.6935 1.00136 19.0601 1.23978 18.4846C1.4782 17.909 1.88194 17.417 2.39996 17.0709C2.91797 16.7248 3.52699 16.54 4.15 16.54H7.3V19.69Z" fill="black"/>
<path d="M8.89 19.69C8.89 19.2763 8.97148 18.8667 9.12978 18.4846C9.28808 18.1024 9.52011 17.7551 9.81261 17.4626C10.1051 17.1701 10.4524 16.9381 10.8345 16.7798C11.2167 16.6215 11.6263 16.54 12.04 16.54C12.4537 16.54 12.8633 16.6215 13.2455 16.7798C13.6276 16.9381 13.9749 17.1701 14.2674 17.4626C14.5599 17.7551 14.7919 18.1024 14.9502 18.4846C15.1085 18.8667 15.19 19.2763 15.19 19.69V27.58C15.19 27.9937 15.1085 28.4033 14.9502 28.7855C14.7919 29.1676 14.5599 29.5149 14.2674 29.8074C13.9749 30.0999 13.6276 30.3319 13.2455 30.4902C12.8633 30.6485 12.4537 30.73 12.04 30.73C11.6263 30.73 11.2167 30.6485 10.8345 30.4902C10.4524 30.3319 10.1051 30.0999 9.81261 29.8074C9.52011 29.5149 9.28808 29.1676 9.12978 28.7855C8.97148 28.4033 8.89 27.9937 8.89 27.58V19.69Z" fill="black"/>
<path d="M12 6.99C11.377 6.99 10.768 6.80526 10.25 6.45913C9.73195 6.11301 9.3282 5.62104 9.08979 5.04546C8.85137 4.46987 8.78899 3.83651 8.91053 3.22547C9.03208 2.61443 9.33209 2.05315 9.77262 1.61262C10.2132 1.17208 10.7744 0.872074 11.3855 0.75053C11.9965 0.628987 12.6299 0.691367 13.2055 0.929783C13.781 1.1682 14.273 1.57194 14.6191 2.08996C14.9653 2.60797 15.15 3.21699 15.15 3.84V6.99H12Z" fill="black"/>
<path d="M12 8.58002C12.4137 8.58002 12.8233 8.66149 13.2055 8.8198C13.5876 8.9781 13.9349 9.21013 14.2274 9.50263C14.5199 9.79513 14.7519 10.1424 14.9102 10.5246C15.0685 10.9067 15.15 11.3164 15.15 11.73C15.15 12.1437 15.0685 12.5533 14.9102 12.9355C14.7519 13.3176 14.5199 13.6649 14.2274 13.9574C13.9349 14.2499 13.5876 14.4819 13.2055 14.6402C12.8233 14.7985 12.4137 14.88 12 14.88H4.15C3.73634 14.88 3.32672 14.7985 2.94455 14.6402C2.56237 14.4819 2.21512 14.2499 1.92261 13.9574C1.63011 13.6649 1.39808 13.3176 1.23978 12.9355C1.08148 12.5533 1 12.1437 1 11.73C1 11.3164 1.08148 10.9067 1.23978 10.5246C1.39808 10.1424 1.63011 9.79513 1.92261 9.50263C2.21512 9.21013 2.56237 8.9781 2.94455 8.8198C3.32672 8.66149 3.73634 8.58002 4.15 8.58002H12Z" fill="black"/>
<path d="M24.7 11.69C24.7 11.067 24.8847 10.458 25.2309 9.93996C25.577 9.42195 26.069 9.01821 26.6445 8.77979C27.2201 8.54137 27.8535 8.47899 28.4645 8.60054C29.0756 8.72208 29.6368 9.02209 30.0774 9.46262C30.5179 9.90316 30.8179 10.4644 30.9395 11.0755C31.061 11.6865 30.9986 12.3199 30.7602 12.8955C30.5218 13.4711 30.1181 13.963 29.6 14.3091C29.082 14.6553 28.473 14.84 27.85 14.84H24.7V11.69Z" fill="black"/>
<path d="M23.11 11.69C23.11 12.5254 22.7781 13.3266 22.1874 13.9174C21.5966 14.5081 20.7954 14.84 19.96 14.84C19.1246 14.84 18.3234 14.5081 17.7326 13.9174C17.1419 13.3266 16.81 12.5254 16.81 11.69V3.84C16.81 3.42634 16.8915 3.01673 17.0498 2.63455C17.2081 2.25237 17.4401 1.90512 17.7326 1.61262C18.0251 1.32011 18.3724 1.08808 18.7545 0.929782C19.1367 0.77148 19.5463 0.690002 19.96 0.690002C20.3737 0.690002 20.7833 0.77148 21.1655 0.929782C21.5476 1.08808 21.8949 1.32011 22.1874 1.61262C22.4799 1.90512 22.7119 2.25237 22.8702 2.63455C23.0285 3.01673 23.11 3.42634 23.11 3.84V11.69Z" fill="black"/>
<path d="M20 24.39C20.623 24.39 21.232 24.5748 21.7501 24.9209C22.2681 25.267 22.6718 25.759 22.9102 26.3346C23.1486 26.9101 23.211 27.5435 23.0895 28.1545C22.9679 28.7656 22.6679 29.3269 22.2274 29.7674C21.7869 30.2079 21.2256 30.5079 20.6145 30.6295C20.0035 30.751 19.3701 30.6887 18.7946 30.4502C18.219 30.2118 17.727 29.8081 17.3809 29.2901C17.0348 28.772 16.85 28.163 16.85 27.54V24.39H20Z" fill="black"/>
<path d="M20 22.8C19.1646 22.8 18.3634 22.4681 17.7726 21.8774C17.1819 21.2866 16.85 20.4854 16.85 19.65C16.85 18.8146 17.1819 18.0134 17.7726 17.4226C18.3634 16.8319 19.1646 16.5 20 16.5H27.89C28.7254 16.5 29.5267 16.8319 30.1174 17.4226C30.7081 18.0134 31.04 18.8146 31.04 19.65C31.04 20.4854 30.7081 21.2866 30.1174 21.8774C29.5267 22.4681 28.7254 22.8 27.89 22.8H20Z" fill="black"/>
</svg>
