<svg width="32" height="32" viewBox="0 0 32 32" fill="none" xmlns="http://www.w3.org/2000/svg">
<path d="M16 2C16.5523 2 17 2.44772 17 3V4.58579L18.2929 3.29289C18.6834 2.90237 19.3166 2.90237 19.7071 3.29289C20.0976 3.68342 20.0976 4.31658 19.7071 4.70711L17 7.41421V13.5858L21.4 9.18584V5.40015C21.4 4.84786 21.8477 4.40015 22.4 4.40015C22.9523 4.40015 23.4 4.84786 23.4 5.40015V7.18584L24.4929 6.09294C24.8834 5.70242 25.5166 5.70242 25.9071 6.09294C26.2976 6.48347 26.2976 7.11663 25.9071 7.50716L24.8141 8.60015H26.6C27.1523 8.60015 27.6 9.04786 27.6 9.60015C27.6 10.1524 27.1523 10.6001 26.6 10.6001H22.8141L18.4143 15H24.5858L27.2929 12.2929C27.6834 11.9024 28.3166 11.9024 28.7071 12.2929C29.0976 12.6834 29.0976 13.3166 28.7071 13.7071L27.4142 15H29C29.5523 15 30 15.4477 30 16C30 16.5523 29.5523 17 29 17H27.4142L28.7071 18.2929C29.0976 18.6834 29.0976 19.3166 28.7071 19.7071C28.3166 20.0976 27.6834 20.0976 27.2929 19.7071L24.5858 17H18.4142L22.8143 21.4001H26.6C27.1523 21.4001 27.6 21.8479 27.6 22.4001C27.6 22.9524 27.1523 23.4001 26.6 23.4001H24.8143L25.9071 24.4929C26.2976 24.8835 26.2976 25.5166 25.9071 25.9072C25.5166 26.2977 24.8834 26.2977 24.4929 25.9072L23.4 24.8143V26.6001C23.4 27.1524 22.9523 27.6001 22.4 27.6001C21.8477 27.6001 21.4 27.1524 21.4 26.6001V22.8143L17 18.4143V24.5859L19.7071 27.293C20.0976 27.6836 20.0976 28.3167 19.7071 28.7073C19.3166 29.0978 18.6834 29.0978 18.2929 28.7073L17 27.4144V29C17 29.5523 16.5523 30 16 30C15.4477 30 15 29.5523 15 29V27.4144L13.7071 28.7073C13.3166 29.0978 12.6834 29.0978 12.2929 28.7073C11.9024 28.3167 11.9024 27.6836 12.2929 27.293L15 24.5859V18.4143L10.6 22.8143V26.6001C10.6 27.1524 10.1523 27.6001 9.6 27.6001C9.04772 27.6001 8.6 27.1524 8.6 26.6001V24.8143L7.50711 25.9072C7.11659 26.2977 6.48342 26.2977 6.0929 25.9072C5.70237 25.5166 5.70237 24.8835 6.0929 24.4929L7.18569 23.4001H5.4C4.84772 23.4001 4.4 22.9524 4.4 22.4001C4.4 21.8479 4.84772 21.4001 5.4 21.4001H9.18569L13.5858 17H7.41421L4.70711 19.7071C4.31658 20.0976 3.68342 20.0976 3.29289 19.7071C2.90237 19.3166 2.90237 18.6834 3.29289 18.2929L4.58579 17H3C2.44772 17 2 16.5523 2 16C2 15.4477 2.44772 15 3 15H4.58579L3.29289 13.7071C2.90237 13.3166 2.90237 12.6834 3.29289 12.2929C3.68342 11.9024 4.31658 11.9024 4.70711 12.2929L7.41421 15H13.5857L9.18589 10.6001H5.4C4.84772 10.6001 4.4 10.1524 4.4 9.60015C4.4 9.04786 4.84772 8.60015 5.4 8.60015H7.18589L6.0929 7.50716C5.70237 7.11663 5.70237 6.48347 6.0929 6.09294C6.48342 5.70242 7.11659 5.70242 7.50711 6.09294L8.6 7.18583V5.40015C8.6 4.84786 9.04772 4.40015 9.6 4.40015C10.1523 4.40015 10.6 4.84786 10.6 5.40015V9.18583L15 13.5858V7.41421L12.2929 4.70711C11.9024 4.31658 11.9024 3.68342 12.2929 3.29289C12.6834 2.90237 13.3166 2.90237 13.7071 3.29289L15 4.58579V3C15 2.44772 15.4477 2 16 2Z" fill="black"/>
</svg>
