<svg width="32" height="32" viewBox="0 0 32 32" fill="none" xmlns="http://www.w3.org/2000/svg">
<path d="M5 5C4.44772 5 4 5.44772 4 6C4 6.55228 4.44772 7 5 7H26C26.5523 7 27 6.55228 27 6C27 5.44772 26.5523 5 26 5H5Z" fill="black"/>
<path d="M4 11C4 10.4477 4.44772 10 5 10H21C21.5523 10 22 10.4477 22 11C22 11.5523 21.5523 12 21 12H5C4.44772 12 4 11.5523 4 11Z" fill="black"/>
<path d="M5 15C4.44772 15 4 15.4477 4 16C4 16.5523 4.44772 17 5 17H16C16.5523 17 17 16.5523 17 16C17 15.4477 16.5523 15 16 15H5Z" fill="black"/>
<path d="M4 21C4 20.4477 4.44772 20 5 20H11C11.5523 20 12 20.4477 12 21C12 21.5523 11.5523 22 11 22H5C4.44772 22 4 21.5523 4 21Z" fill="black"/>
<path d="M4 26C4 25.4477 4.44772 25 5 25H6C6.55228 25 7 25.4477 7 26C7 26.5523 6.55228 27 6 27H5C4.44772 27 4 26.5523 4 26Z" fill="black"/>
<path d="M21 24.5858L17.7071 21.2929C17.3166 20.9024 16.6834 20.9024 16.2929 21.2929C15.9024 21.6834 15.9024 22.3166 16.2929 22.7071L22 28.4142L27.7071 22.7071C28.0976 22.3166 28.0976 21.6834 27.7071 21.2929C27.3166 20.9024 26.6834 20.9024 26.2929 21.2929L23 24.5858V17C23 16.4477 22.5523 16 22 16C21.4477 16 21 16.4477 21 17V24.5858Z" fill="black"/>
</svg>
