<svg width="32" height="32" viewBox="0 0 32 32" fill="none" xmlns="http://www.w3.org/2000/svg">
<path d="M20.2929 4.29289C20.6834 3.90237 21.3166 3.90237 21.7071 4.29289L27.4142 10L21.7071 15.7071C21.3166 16.0976 20.6834 16.0976 20.2929 15.7071C19.9024 15.3166 19.9024 14.6834 20.2929 14.2929L23.5858 11H6C5.44772 11 5 10.5523 5 10C5 9.44772 5.44772 9 6 9H23.5858L20.2929 5.70711C19.9024 5.31658 19.9024 4.68342 20.2929 4.29289Z" fill="black"/>
<path d="M27 21C27 20.4477 26.5523 20 26 20C25.4477 20 25 20.4477 25 21V27C25 27.5523 25.4477 28 26 28C26.5523 28 27 27.5523 27 27V21Z" fill="black"/>
<path d="M22 21V27C22 27.5523 21.5523 28 21 28C20.4477 28 20 27.5523 20 27V21C20 20.4477 20.4477 20 21 20C21.5523 20 22 20.4477 22 21Z" fill="black"/>
<path d="M17 21C17 20.4477 16.5523 20 16 20C15.4477 20 15 20.4477 15 21V27C15 27.5523 15.4477 28 16 28C16.5523 28 17 27.5523 17 27V21Z" fill="black"/>
<path d="M11 20C11.5523 20 12 20.4477 12 21V27C12 27.5523 11.5523 28 11 28C10.4477 28 10 27.5523 10 27V21C10 20.4477 10.4477 20 11 20Z" fill="black"/>
<path d="M7 21C7 20.4477 6.55228 20 6 20C5.44772 20 5 20.4477 5 21V27C5 27.5523 5.44772 28 6 28C6.55228 28 7 27.5523 7 27V21Z" fill="black"/>
</svg>
