<svg width="32" height="32" viewBox="0 0 32 32" fill="none" xmlns="http://www.w3.org/2000/svg">
<path d="M9.29289 4.29289C9.68342 3.90237 10.3166 3.90237 10.7071 4.29289L16.4142 10L10.7071 15.7071C10.3166 16.0976 9.68342 16.0976 9.29289 15.7071C8.90237 15.3166 8.90237 14.6834 9.29289 14.2929L12.5858 11H5C4.44772 11 4 10.5523 4 10C4 9.44772 4.44772 9 5 9H12.5858L9.29289 5.70711C8.90237 5.31658 8.90237 4.68342 9.29289 4.29289Z" fill="black"/>
<path d="M7 26C7 25.4477 6.55228 25 6 25C5.44772 25 5 25.4477 5 26V27C5 27.5523 5.44772 28 6 28C6.55228 28 7 27.5523 7 27V26Z" fill="black"/>
<path d="M11 20C11.5523 20 12 20.4477 12 21V27C12 27.5523 11.5523 28 11 28C10.4477 28 10 27.5523 10 27V21C10 20.4477 10.4477 20 11 20Z" fill="black"/>
<path d="M17 16C17 15.4477 16.5523 15 16 15C15.4477 15 15 15.4477 15 16V27C15 27.5523 15.4477 28 16 28C16.5523 28 17 27.5523 17 27V16Z" fill="black"/>
<path d="M21 10C21.5523 10 22 10.4477 22 11V27C22 27.5523 21.5523 28 21 28C20.4477 28 20 27.5523 20 27V11C20 10.4477 20.4477 10 21 10Z" fill="black"/>
<path d="M27 6C27 5.44772 26.5523 5 26 5C25.4477 5 25 5.44772 25 6V27C25 27.5523 25.4477 28 26 28C26.5523 28 27 27.5523 27 27V6Z" fill="black"/>
</svg>
