<svg width="32" height="32" viewBox="0 0 32 32" fill="none" xmlns="http://www.w3.org/2000/svg">
<path d="M23 5C23 4.44772 22.5523 4 22 4C21.4477 4 21 4.44772 21 5V12.5858L17.7071 9.29289C17.3166 8.90237 16.6834 8.90237 16.2929 9.29289C15.9024 9.68342 15.9024 10.3166 16.2929 10.7071L22 16.4142L27.7071 10.7071C28.0976 10.3166 28.0976 9.68342 27.7071 9.29289C27.3166 8.90237 26.6834 8.90237 26.2929 9.29289L23 12.5858V5Z" fill="black"/>
<path d="M4 6C4 5.44772 4.44772 5 5 5H6C6.55228 5 7 5.44772 7 6C7 6.55228 6.55228 7 6 7H5C4.44772 7 4 6.55228 4 6Z" fill="black"/>
<path d="M4 11C4 10.4477 4.44772 10 5 10H11C11.5523 10 12 10.4477 12 11C12 11.5523 11.5523 12 11 12H5C4.44772 12 4 11.5523 4 11Z" fill="black"/>
<path d="M5 15C4.44772 15 4 15.4477 4 16C4 16.5523 4.44772 17 5 17H16C16.5523 17 17 16.5523 17 16C17 15.4477 16.5523 15 16 15H5Z" fill="black"/>
<path d="M4 21C4 20.4477 4.44772 20 5 20H21C21.5523 20 22 20.4477 22 21C22 21.5523 21.5523 22 21 22H5C4.44772 22 4 21.5523 4 21Z" fill="black"/>
<path d="M5 25C4.44772 25 4 25.4477 4 26C4 26.5523 4.44772 27 5 27H26C26.5523 27 27 26.5523 27 26C27 25.4477 26.5523 25 26 25H5Z" fill="black"/>
</svg>
