<svg width="32" height="32" viewBox="0 0 32 32" fill="none" xmlns="http://www.w3.org/2000/svg">
<path d="M21.2929 4.29289C21.6834 3.90237 22.3166 3.90237 22.7071 4.29289L27.707 9.29276C27.7069 9.29267 27.7071 9.29285 27.707 9.29276L28.4142 10L27.7073 10.7069C27.7074 10.7068 27.7072 10.707 27.7073 10.7069L22.7071 15.7071C22.3166 16.0976 21.6834 16.0976 21.2929 15.7071C20.9024 15.3166 20.9024 14.6834 21.2929 14.2929L24.5858 11H17C16.4477 11 16 10.5523 16 10C16 9.44772 16.4477 9 17 9H24.5858L21.2929 5.70711C20.9024 5.31658 20.9024 4.68342 21.2929 4.29289Z" fill="black"/>
<path d="M7 6C7 5.44772 6.55228 5 6 5C5.44772 5 5 5.44772 5 6V27C5 27.5523 5.44772 28 6 28C6.55228 28 7 27.5523 7 27V6Z" fill="black"/>
<path d="M11 10C11.5523 10 12 10.4477 12 11V27C12 27.5523 11.5523 28 11 28C10.4477 28 10 27.5523 10 27V11C10 10.4477 10.4477 10 11 10Z" fill="black"/>
<path d="M17 16C17 15.4477 16.5523 15 16 15C15.4477 15 15 15.4477 15 16V27C15 27.5523 15.4477 28 16 28C16.5523 28 17 27.5523 17 27V16Z" fill="black"/>
<path d="M21 20C21.5523 20 22 20.4477 22 21V27C22 27.5523 21.5523 28 21 28C20.4477 28 20 27.5523 20 27V21C20 20.4477 20.4477 20 21 20Z" fill="black"/>
<path d="M26 25C26.5523 25 27 25.4477 27 26V27C27 27.5523 26.5523 28 26 28C25.4477 28 25 27.5523 25 27V26C25 25.4477 25.4477 25 26 25Z" fill="black"/>
</svg>
