<svg width="32" height="32" viewBox="0 0 32 32" fill="none" xmlns="http://www.w3.org/2000/svg">
<path d="M5 5C4.44772 5 4 5.44772 4 6C4 6.55228 4.44772 7 5 7H11C11.5523 7 12 6.55228 12 6C12 5.44772 11.5523 5 11 5H5Z" fill="black"/>
<path d="M4 11C4 10.4477 4.44772 10 5 10H11C11.5523 10 12 10.4477 12 11C12 11.5523 11.5523 12 11 12H5C4.44772 12 4 11.5523 4 11Z" fill="black"/>
<path d="M5 15C4.44772 15 4 15.4477 4 16C4 16.5523 4.44772 17 5 17H11C11.5523 17 12 16.5523 12 16C12 15.4477 11.5523 15 11 15H5Z" fill="black"/>
<path d="M4 21C4 20.4477 4.44772 20 5 20H11C11.5523 20 12 20.4477 12 21C12 21.5523 11.5523 22 11 22H5C4.44772 22 4 21.5523 4 21Z" fill="black"/>
<path d="M4 26C4 25.4477 4.44772 25 5 25H11C11.5523 25 12 25.4477 12 26C12 26.5523 11.5523 27 11 27H5C4.44772 27 4 26.5523 4 26Z" fill="black"/>
<path d="M16.2929 21.2929C16.6834 20.9024 17.3166 20.9024 17.7071 21.2929L21 24.5858V6C21 5.44772 21.4477 5 22 5C22.5523 5 23 5.44772 23 6V24.5858L26.2929 21.2929C26.6834 20.9024 27.3166 20.9024 27.7071 21.2929C28.0976 21.6834 28.0976 22.3166 27.7071 22.7071L22 28.4142L16.2929 22.7071C15.9024 22.3166 15.9024 21.6834 16.2929 21.2929Z" fill="black"/>
</svg>
