<svg width="32" height="32" viewBox="0 0 32 32" fill="none" xmlns="http://www.w3.org/2000/svg">
<path d="M22.7116 4.71162L27.7071 9.70711C28.0976 10.0976 28.0976 10.7308 27.7071 11.1213C27.3166 11.5118 26.6834 11.5118 26.2929 11.1213L23 7.82843V26.4142C23 26.9665 22.5523 27.4142 22 27.4142C21.4477 27.4142 21 26.9665 21 26.4142V7.82843L17.7071 11.1213C17.3166 11.5118 16.6834 11.5118 16.2929 11.1213C15.9024 10.7308 15.9024 10.0976 16.2929 9.70711L21.2884 4.71162C21.2914 4.70858 21.2944 4.70556 21.2974 4.70256L22 4L22.7026 4.70257C22.7056 4.70557 22.7086 4.70858 22.7116 4.71162Z" fill="black"/>
<path d="M5 4.41418C4.44772 4.41418 4 4.8619 4 5.41418C4 5.96647 4.44772 6.41418 5 6.41418H11C11.5523 6.41418 12 5.96647 12 5.41418C12 4.8619 11.5523 4.41418 11 4.41418H5Z" fill="black"/>
<path d="M4 10.4142C4 9.8619 4.44772 9.41418 5 9.41418H11C11.5523 9.41418 12 9.8619 12 10.4142C12 10.9665 11.5523 11.4142 11 11.4142H5C4.44772 11.4142 4 10.9665 4 10.4142Z" fill="black"/>
<path d="M5 14.4142C4.44772 14.4142 4 14.8619 4 15.4142C4 15.9665 4.44772 16.4142 5 16.4142H11C11.5523 16.4142 12 15.9665 12 15.4142C12 14.8619 11.5523 14.4142 11 14.4142H5Z" fill="black"/>
<path d="M4 20.4142C4 19.8619 4.44772 19.4142 5 19.4142H11C11.5523 19.4142 12 19.8619 12 20.4142C12 20.9665 11.5523 21.4142 11 21.4142H5C4.44772 21.4142 4 20.9665 4 20.4142Z" fill="black"/>
<path d="M4 25.4142C4 24.8619 4.44772 24.4142 5 24.4142H11C11.5523 24.4142 12 24.8619 12 25.4142C12 25.9665 11.5523 26.4142 11 26.4142H5C4.44772 26.4142 4 25.9665 4 25.4142Z" fill="black"/>
</svg>
