<svg width="32" height="32" viewBox="0 0 32 32" fill="none" xmlns="http://www.w3.org/2000/svg">
<path d="M11.7071 4.29289C12.0976 4.68342 12.0976 5.31658 11.7071 5.70711L8.41421 9H26C26.5523 9 27 9.44772 27 10C27 10.5523 26.5523 11 26 11H8.41421L11.7071 14.2929C12.0976 14.6834 12.0976 15.3166 11.7071 15.7071C11.3166 16.0976 10.6834 16.0976 10.2929 15.7071L4.58578 10L10.2929 4.29289C10.6834 3.90237 11.3166 3.90237 11.7071 4.29289Z" fill="black"/>
<path d="M7 21C7 20.4477 6.55228 20 6 20C5.44772 20 5 20.4477 5 21V27C5 27.5523 5.44772 28 6 28C6.55228 28 7 27.5523 7 27V21Z" fill="black"/>
<path d="M11 20C11.5523 20 12 20.4477 12 21V27C12 27.5523 11.5523 28 11 28C10.4477 28 10 27.5523 10 27V21C10 20.4477 10.4477 20 11 20Z" fill="black"/>
<path d="M17 21C17 20.4477 16.5523 20 16 20C15.4477 20 15 20.4477 15 21V27C15 27.5523 15.4477 28 16 28C16.5523 28 17 27.5523 17 27V21Z" fill="black"/>
<path d="M21 20C21.5523 20 22 20.4477 22 21V27C22 27.5523 21.5523 28 21 28C20.4477 28 20 27.5523 20 27V21C20 20.4477 20.4477 20 21 20Z" fill="black"/>
<path d="M26 20C26.5523 20 27 20.4477 27 21V27C27 27.5523 26.5523 28 26 28C25.4477 28 25 27.5523 25 27V21C25 20.4477 25.4477 20 26 20Z" fill="black"/>
</svg>
