<?xml version="1.0" encoding="UTF-8"?>
<svg width="24px" height="24px" viewBox="0 0 24 24" version="1.1" xmlns="http://www.w3.org/2000/svg" xmlns:xlink="http://www.w3.org/1999/xlink">
    <!-- Generator: Sketch 48.2 (47327) - http://www.bohemiancoding.com/sketch -->
    <title>speaker</title>
    <desc>Created with Sketch.</desc>
    <defs></defs>
    <g id="Page-1" stroke="none" stroke-width="1" fill="none" fill-rule="evenodd" stroke-linecap="round" stroke-linejoin="round">
        <g id="speaker" stroke="#000000" stroke-width="2">
            <path d="M16,21 L8,21 C6.896,21 6,20.104 6,19 L6,5 C6,3.896 6.896,3 8,3 L16,3 C17.104,3 18,3.896 18,5 L18,19 C18,20.104 17.104,21 16,21 Z" id="Stroke-1"></path>
            <path d="M15,15 C15,16.657 13.657,18 12,18 C10.343,18 9,16.657 9,15 C9,13.343 10.343,12 12,12 C13.657,12 15,13.343 15,15 Z" id="Stroke-3"></path>
            <path d="M13,7 C13,7.552 12.553,8 12,8 C11.447,8 11,7.552 11,7 C11,6.448 11.447,6 12,6 C12.553,6 13,6.448 13,7 Z" id="Stroke-5"></path>
        </g>
    </g>
</svg>