<svg width="32" height="32" viewBox="0 0 32 32" fill="none" xmlns="http://www.w3.org/2000/svg">
<path fill-rule="evenodd" clip-rule="evenodd" d="M16 7C14.3431 7 13 8.34315 13 10C13 11.6569 14.3431 13 16 13C17.6569 13 19 11.6569 19 10C19 8.34315 17.6569 7 16 7ZM15 10C15 9.44772 15.4477 9 16 9C16.5523 9 17 9.44772 17 10C17 10.5523 16.5523 11 16 11C15.4477 11 15 10.5523 15 10Z" fill="black"/>
<path d="M17 20C17 20.5523 16.5523 21 16 21C15.4477 21 15 20.5523 15 20C15 19.4477 15.4477 19 16 19C16.5523 19 17 19.4477 17 20Z" fill="black"/>
<path fill-rule="evenodd" clip-rule="evenodd" d="M16 15C13.2386 15 11 17.2386 11 20C11 22.7614 13.2386 25 16 25C18.7614 25 21 22.7614 21 20C21 17.2386 18.7614 15 16 15ZM13 20C13 18.3431 14.3431 17 16 17C17.6569 17 19 18.3431 19 20C19 21.6569 17.6569 23 16 23C14.3431 23 13 21.6569 13 20Z" fill="black"/>
<path fill-rule="evenodd" clip-rule="evenodd" d="M7 6C7 3.74772 8.74772 2 11 2H21C23.2523 2 25 3.74772 25 6V26C25 28.2523 23.2523 30 21 30H11C8.74772 30 7 28.2523 7 26V6ZM11 4C9.85228 4 9 4.85228 9 6V26C9 27.1477 9.85228 28 11 28H21C22.1477 28 23 27.1477 23 26V6C23 4.85228 22.1477 4 21 4H11Z" fill="black"/>
</svg>
