<svg width="32" height="32" viewBox="0 0 32 32" fill="none" xmlns="http://www.w3.org/2000/svg">
<path d="M11 7C11 7.55228 10.5523 8 10 8C9.44772 8 9 7.55228 9 7C9 6.44772 9.44772 6 10 6C10.5523 6 11 6.44772 11 7Z" fill="black"/>
<path d="M23 7C23 7.55228 22.5523 8 22 8C21.4477 8 21 7.55228 21 7C21 6.44772 21.4477 6 22 6C22.5523 6 23 6.44772 23 7Z" fill="black"/>
<path d="M10 25C10.5523 25 11 24.5523 11 24C11 23.4477 10.5523 23 10 23C9.44772 23 9 23.4477 9 24C9 24.5523 9.44772 25 10 25Z" fill="black"/>
<path d="M23 24C23 24.5523 22.5523 25 22 25C21.4477 25 21 24.5523 21 24C21 23.4477 21.4477 23 22 23C22.5523 23 23 23.4477 23 24Z" fill="black"/>
<path fill-rule="evenodd" clip-rule="evenodd" d="M5 6C5 3.74772 6.74772 2 9 2H23C25.2523 2 27 3.74772 27 6V26C27 28.2523 25.2523 30 23 30H21C20.4477 30 20 29.5523 20 29V28H18V29C18 29.5523 17.5523 30 17 30C16.4477 30 16 29.5523 16 29V28H12.1V29C12.1 29.5523 11.6523 30 11.1 30H9C6.74772 30 5 28.2523 5 26V6ZM21 26C21.5523 26 22 26.4477 22 27V28H23C24.1477 28 25 27.1477 25 26V6C25 4.85228 24.1477 4 23 4H9C7.85228 4 7 4.85228 7 6V26C7 27.1477 7.85228 28 9 28H10.1V27C10.1 26.4477 10.5477 26 11.1 26H21Z" fill="black"/>
</svg>
