<svg width="32" height="32" viewBox="0 0 32 32" fill="none" xmlns="http://www.w3.org/2000/svg">
<path fill-rule="evenodd" clip-rule="evenodd" d="M29.9846 10.1577L16 2L2.01537 10.1577L16 18.3154L29.9846 10.1577ZM16 16L5.98464 10.1577L16 4.31541L26.0154 10.1577L16 16Z" fill="black"/>
<path d="M4.50387 13.2941C4.02682 13.0158 3.4145 13.177 3.13622 13.654C2.85794 14.1311 3.01908 14.7434 3.49613 15.0217L16 22.3156L28.5039 15.0217C28.9809 14.7434 29.1421 14.1311 28.8638 13.654C28.5855 13.177 27.9732 13.0158 27.4961 13.2941L16 20.0002L4.50387 13.2941Z" fill="black"/>
<path d="M3.13622 17.654C3.4145 17.177 4.02682 17.0158 4.50387 17.2941L16 24.0002L27.4961 17.2941C27.9732 17.0158 28.5855 17.177 28.8638 17.654C29.1421 18.1311 28.9809 18.7434 28.5039 19.0217L16 26.3156L3.49613 19.0217C3.01908 18.7434 2.85794 18.1311 3.13622 17.654Z" fill="black"/>
<path d="M4.50387 21.2941C4.02682 21.0158 3.4145 21.177 3.13622 21.654C2.85794 22.1311 3.01908 22.7434 3.49613 23.0217L16 30.3156L28.5039 23.0217C28.9809 22.7434 29.1421 22.1311 28.8638 21.654C28.5855 21.177 27.9732 21.0158 27.4961 21.2941L16 28.0002L4.50387 21.2941Z" fill="black"/>
</svg>
