<svg width="32" height="32" viewBox="0 0 32 32" fill="none" xmlns="http://www.w3.org/2000/svg">
<path d="M16 1.53L2 9.69L16 17.85L30 9.69L16 1.53ZM6 9.69L16 3.85L26 9.69L16 15.53L6 9.69Z" fill="black"/>
<path d="M28.86 13.19C28.7264 12.963 28.5087 12.7978 28.254 12.7304C27.9994 12.663 27.7284 12.6988 27.5 12.83L16 19.53L4.5 12.83C4.39363 12.7525 4.27304 12.6967 4.14512 12.6659C4.01719 12.635 3.88444 12.6296 3.75444 12.65C3.62443 12.6705 3.49973 12.7163 3.38744 12.7849C3.27515 12.8536 3.17748 12.9436 3.1 13.05C3.02252 13.1564 2.96675 13.277 2.93587 13.4049C2.905 13.5328 2.89962 13.6656 2.92005 13.7956C2.94048 13.9256 2.98631 14.0503 3.05494 14.1626C3.12356 14.2748 3.21363 14.3725 3.32 14.45L3.5 14.55L16 21.85L28.5 14.55C28.727 14.4164 28.8922 14.1987 28.9596 13.944C29.027 13.6894 28.9912 13.4184 28.86 13.19Z" fill="black"/>
<path d="M28.86 17.19C28.7264 16.963 28.5087 16.7978 28.254 16.7304C27.9994 16.663 27.7284 16.6988 27.5 16.83L16 23.53L4.5 16.83C4.39363 16.7525 4.27304 16.6967 4.14512 16.6659C4.01719 16.635 3.88444 16.6296 3.75444 16.6501C3.62443 16.6705 3.49973 16.7163 3.38744 16.7849C3.27515 16.8536 3.17748 16.9436 3.1 17.05C3.02252 17.1564 2.96675 17.277 2.93587 17.4049C2.905 17.5328 2.89962 17.6656 2.92005 17.7956C2.94048 17.9256 2.98631 18.0503 3.05494 18.1626C3.12356 18.2748 3.21363 18.3725 3.32 18.45L3.5 18.55L16 25.85L28.5 18.55C28.727 18.4164 28.8922 18.1987 28.9596 17.944C29.027 17.6894 28.9912 17.4184 28.86 17.19Z" fill="black"/>
<path d="M27.5 20.83L16 27.53L4.5 20.83C4.39363 20.7525 4.27304 20.6967 4.14512 20.6659C4.01719 20.635 3.88444 20.6296 3.75444 20.65C3.62443 20.6705 3.49973 20.7163 3.38744 20.7849C3.27515 20.8536 3.17748 20.9436 3.1 21.05C3.02252 21.1564 2.96675 21.277 2.93587 21.4049C2.905 21.5328 2.89962 21.6656 2.92005 21.7956C2.94048 21.9256 2.98631 22.0503 3.05494 22.1626C3.12356 22.2748 3.21363 22.3725 3.32 22.45L3.5 22.55L16 29.85L28.5 22.55C28.7002 22.4044 28.8393 22.1897 28.8903 21.9475C28.9414 21.7052 28.9008 21.4527 28.7763 21.2386C28.6519 21.0246 28.4525 20.8644 28.2168 20.7889C27.981 20.7134 27.7256 20.728 27.5 20.83Z" fill="black"/>
</svg>
