<svg width="32" height="32" viewBox="0 0 32 32" fill="none" xmlns="http://www.w3.org/2000/svg">
<path d="M29.9784 9.15409L16 1L2.0163 9.15716L14.7957 16.6212C15.2725 16.8997 15.885 16.7389 16.1635 16.262C16.442 15.7852 16.2812 15.1727 15.8043 14.8942L5.9837 9.15825L16 3.31541L26.0215 9.16131L22.393 11.2958C21.9169 11.5758 21.758 12.1887 22.0381 12.6647C22.3181 13.1408 22.931 13.2997 23.407 13.0196L29.9784 9.15409Z" fill="black"/>
<path d="M4.50388 12.2941C4.02683 12.0158 3.41451 12.177 3.13623 12.654C2.85795 13.1311 3.01909 13.7434 3.49614 14.0217L13.0961 19.6217C13.5732 19.8999 14.1855 19.7388 14.4638 19.2617C14.7421 18.7847 14.5809 18.1724 14.1039 17.8941L4.50388 12.2941Z" fill="black"/>
<path d="M3.13832 16.6504C3.41857 16.1745 4.03155 16.0159 4.50744 16.2962L13.5074 21.5962C13.9833 21.8764 14.1419 22.4894 13.8617 22.9653C13.5814 23.4412 12.9685 23.5998 12.4926 23.3196L3.49257 18.0196C3.01667 17.7393 2.85807 17.1263 3.13832 16.6504Z" fill="black"/>
<path d="M4.49974 20.2917C4.02136 20.0157 3.40982 20.1798 3.13383 20.6582C2.85784 21.1365 3.02191 21.7481 3.50029 22.0241L13.9003 28.0241C14.3787 28.3001 14.9902 28.136 15.2662 27.6576C15.5422 27.1792 15.3781 26.5677 14.8997 26.2917L4.49974 20.2917Z" fill="black"/>
<path d="M26.7071 20.8648C27.0976 20.4743 27.0976 19.8411 26.7071 19.4506C26.3166 19.0601 25.6834 19.0601 25.2929 19.4506L22 22.7435L20.7071 21.4506C20.3166 21.0601 19.6834 21.0601 19.2929 21.4506C18.9024 21.8411 18.9024 22.4743 19.2929 22.8648L22 25.5719L26.7071 20.8648Z" fill="black"/>
<path fill-rule="evenodd" clip-rule="evenodd" d="M15 22.1577C15 17.7394 18.5817 14.1577 23 14.1577C27.4183 14.1577 31 17.7394 31 22.1577C31 26.576 27.4183 30.1577 23 30.1577C18.5817 30.1577 15 26.576 15 22.1577ZM23 16.1577C19.6863 16.1577 17 18.844 17 22.1577C17 25.4714 19.6863 28.1577 23 28.1577C26.3137 28.1577 29 25.4714 29 22.1577C29 18.844 26.3137 16.1577 23 16.1577Z" fill="black"/>
</svg>
