<svg width="32" height="32" viewBox="0 0 32 32" fill="none" xmlns="http://www.w3.org/2000/svg">
<path d="M16 1L29.9784 9.15409L23.407 13.0196C22.931 13.2997 22.3181 13.1408 22.0381 12.6647C21.758 12.1887 21.9169 11.5758 22.393 11.2958L26.0215 9.16131L16 3.31541L5.9837 9.15825L15.8043 14.8942C16.2812 15.1727 16.442 15.7852 16.1635 16.262C15.885 16.7389 15.2725 16.8997 14.7957 16.6212L2.0163 9.15716L16 1Z" fill="black"/>
<path d="M3.13622 12.654C3.4145 12.177 4.02681 12.0158 4.50387 12.2941L14.1039 17.8941C14.5809 18.1724 14.7421 18.7847 14.4638 19.2617C14.1855 19.7388 13.5732 19.8999 13.0961 19.6217L3.49612 14.0217C3.01907 13.7434 2.85794 13.1311 3.13622 12.654Z" fill="black"/>
<path d="M4.50744 16.2962C4.03155 16.0159 3.41857 16.1745 3.13832 16.6504C2.85807 17.1263 3.01667 17.7393 3.49257 18.0196L12.4926 23.3196C12.9685 23.5998 13.5814 23.4412 13.8617 22.9653C14.1419 22.4894 13.9833 21.8764 13.5074 21.5962L4.50744 16.2962Z" fill="black"/>
<path d="M3.13381 20.6582C3.4098 20.1798 4.02134 20.0157 4.49972 20.2917L14.8997 26.2917C15.3781 26.5677 15.5422 27.1792 15.2662 27.6576C14.9902 28.136 14.3787 28.3001 13.9003 28.0241L3.50028 22.0241C3.0219 21.7481 2.85782 21.1365 3.13381 20.6582Z" fill="black"/>
<path d="M25.7071 19.4506C26.0976 19.8411 26.0976 20.4743 25.7071 20.8648L24.4142 22.1577L25.7071 23.4506C26.0976 23.8411 26.0976 24.4743 25.7071 24.8648C25.3166 25.2553 24.6834 25.2553 24.2929 24.8648L23 23.5719L21.7071 24.8648C21.3166 25.2553 20.6834 25.2553 20.2929 24.8648C19.9024 24.4743 19.9024 23.8411 20.2929 23.4506L21.5858 22.1577L20.2929 20.8648C19.9024 20.4743 19.9024 19.8411 20.2929 19.4506C20.6834 19.0601 21.3166 19.0601 21.7071 19.4506L23 20.7435L24.2929 19.4506C24.6834 19.0601 25.3166 19.0601 25.7071 19.4506Z" fill="black"/>
<path fill-rule="evenodd" clip-rule="evenodd" d="M23 14.1577C18.5817 14.1577 15 17.7394 15 22.1577C15 26.576 18.5817 30.1577 23 30.1577C27.4183 30.1577 31 26.576 31 22.1577C31 17.7394 27.4183 14.1577 23 14.1577ZM17 22.1577C17 18.844 19.6863 16.1577 23 16.1577C26.3137 16.1577 29 18.844 29 22.1577C29 25.4714 26.3137 28.1577 23 28.1577C19.6863 28.1577 17 25.4714 17 22.1577Z" fill="black"/>
</svg>
