<svg width="32" height="32" viewBox="0 0 32 32" fill="none" xmlns="http://www.w3.org/2000/svg">
<path fill-rule="evenodd" clip-rule="evenodd" d="M16.203 2.02093C16.6672 2.11717 17 2.52607 17 3.0001V24.0001C17 24.3526 16.8144 24.6791 16.5115 24.8594L8.11148 29.8594C7.7691 30.0632 7.33842 30.0443 7.01521 29.8113C6.692 29.5783 6.53795 29.1756 6.6231 28.7864L8.59711 19.7623L1.64006 13.6514C1.33985 13.3877 1.22544 12.9706 1.34907 12.5907C1.4727 12.2107 1.81065 11.9408 2.20855 11.9043L11.4182 11.0585L15.0824 2.60249C15.2709 2.16754 15.7389 1.92468 16.203 2.02093ZM15 7.82284L13.0176 12.3977C12.8722 12.7331 12.5555 12.9625 12.1914 12.9959L4.70689 13.6833L10.3599 18.6488C10.6333 18.8889 10.7546 19.2584 10.6769 19.6138L9.06956 26.9616L15 23.4316V7.82284Z" fill="black"/>
</svg>
