<svg width="32" height="32" viewBox="0 0 32 32" fill="none" xmlns="http://www.w3.org/2000/svg">
<path fill-rule="evenodd" clip-rule="evenodd" d="M16 2C16.3986 2 16.7591 2.23668 16.9176 2.60239L20.5818 11.0584L29.7915 11.9042C30.1893 11.9407 30.5273 12.2106 30.6509 12.5906C30.7746 12.9705 30.6601 13.3876 30.3599 13.6513L23.4029 19.7622L25.3769 28.7863C25.462 29.1755 25.308 29.5782 24.9848 29.8112C24.6616 30.0442 24.2309 30.0631 23.8885 29.8593L16 25.1637L8.11148 29.8593C7.76911 30.0631 7.33842 30.0442 7.01521 29.8112C6.692 29.5782 6.53795 29.1755 6.6231 28.7863L8.59711 19.7622L1.64006 13.6513C1.33985 13.3876 1.22544 12.9705 1.34907 12.5906C1.4727 12.2106 1.81065 11.9407 2.20855 11.9042L11.4182 11.0584L15.0824 2.60239C15.2409 2.23668 15.6014 2 16 2ZM16 5.51504L13.0176 12.3976C12.8722 12.733 12.5555 12.9624 12.1915 12.9958L4.70689 13.6832L10.3599 18.6487C10.6333 18.8888 10.7546 19.2583 10.6769 19.6137L9.06956 26.9615L15.4885 23.1407C15.8037 22.9531 16.1963 22.9531 16.5115 23.1407L22.9304 26.9615L21.3231 19.6137C21.2454 19.2583 21.3667 18.8888 21.6401 18.6487L27.2931 13.6832L19.8085 12.9958C19.4445 12.9624 19.1278 12.733 18.9824 12.3976L16 5.51504Z" fill="black"/>
</svg>
