<svg width="32" height="32" viewBox="0 0 32 32" fill="none" xmlns="http://www.w3.org/2000/svg">
<path fill-rule="evenodd" clip-rule="evenodd" d="M2.29289 2.29289C2.68342 1.90237 3.31658 1.90237 3.70711 2.29289L23.8998 22.4856C23.9052 22.4909 23.9105 22.4962 23.9158 22.5015L29.7071 28.2929C30.0976 28.6834 30.0976 29.3166 29.7071 29.7071C29.3166 30.0976 28.6834 30.0976 28.2929 29.7071L24.8565 26.2707L25.3793 28.7975C25.4596 29.1856 25.303 29.5846 24.9802 29.8146C24.6573 30.0445 24.2291 30.0621 23.8885 29.8594L16 25.1638L8.11148 29.8594C7.76911 30.0632 7.33842 30.0443 7.01521 29.8113C6.692 29.5782 6.53795 29.1756 6.6231 28.7864L8.59711 19.7623L1.64006 13.6514C1.33998 13.3878 1.22552 12.971 1.34893 12.5911C1.47233 12.2112 1.80992 11.9412 2.20761 11.9043L9.7869 11.2011L2.29289 3.70711C1.90237 3.31658 1.90237 2.68342 2.29289 2.29289ZM11.6249 13.0392L4.70463 13.6813L10.3599 18.6487C10.6333 18.8888 10.7546 19.2584 10.6769 19.6138L9.06956 26.9616L15.4885 23.1408C15.8037 22.9532 16.1963 22.9532 16.5115 23.1408L22.9608 26.9797L22.2813 23.6955L11.6249 13.0392Z" fill="black"/>
<path d="M15.998 2C16.3973 1.9992 16.7588 2.23601 16.9176 2.60239L20.5818 11.0584L29.7915 11.9042C30.1899 11.9408 30.5282 12.2114 30.6514 12.592C30.7746 12.9727 30.6591 13.3902 30.3577 13.6533L24.0577 19.1533C23.6416 19.5165 23.0099 19.4737 22.6467 19.0577C22.2835 18.6416 22.3263 18.0099 22.7423 17.6467L27.2834 13.6823L19.8086 12.9958C19.4445 12.9624 19.1278 12.733 18.9824 12.3976L16.0051 5.52675L14.5191 8.99392C14.3016 9.50155 13.7137 9.7367 13.2061 9.51915C12.6985 9.30159 12.4633 8.71371 12.6809 8.20608L15.0809 2.60608C15.2382 2.23907 15.5987 2.0008 15.998 2Z" fill="black"/>
</svg>
