<svg width="32" height="32" viewBox="0 0 32 32" fill="none" xmlns="http://www.w3.org/2000/svg">
<path d="M23.47 7.56C23.47 7.47778 23.5026 7.39893 23.5608 7.3408C23.6189 7.28266 23.6978 7.25 23.78 7.25V7.25C23.8711 7.24996 23.9586 7.28546 24.024 7.34895C24.0894 7.41244 24.1274 7.49892 24.13 7.59V7.59C24.13 7.67752 24.0952 7.76146 24.0333 7.82334C23.9714 7.88523 23.8875 7.92 23.8 7.92C23.7178 7.92 23.6389 7.88734 23.5808 7.8292C23.5226 7.77107 23.49 7.69222 23.49 7.61L23.47 7.56ZM11.13 7.56C11.0319 7.56 10.9377 7.52102 10.8684 7.45163C10.799 7.38224 10.76 7.28813 10.76 7.19V7.19C10.76 6.9 10.96 6.81 11.19 6.82C11.42 6.83 11.56 6.93 11.56 7.18C11.5575 7.27733 11.5177 7.36998 11.4488 7.43883C11.38 7.50768 11.2873 7.54747 11.19 7.55L11.13 7.56ZM12.5 1.82C12.24 1.76 12.06 1.66 12.09 1.39C12.09 1.29452 12.1279 1.20295 12.1954 1.13544C12.2629 1.06793 12.3545 1.03 12.45 1.03H12.52C12.77 1.03 12.91 1.14 12.91 1.41C12.9129 1.4646 12.9042 1.51919 12.8846 1.57024C12.8651 1.62129 12.835 1.66765 12.7963 1.70631C12.7576 1.74497 12.7113 1.77507 12.6602 1.79466C12.6092 1.81425 12.5546 1.82288 12.5 1.82V1.82ZM5.86999 11.2C5.58999 11.2 5.36999 11 5.34999 10.6C5.34999 10.4276 5.41847 10.2623 5.54037 10.1404C5.66227 10.0185 5.8276 9.95 5.99999 9.95C6.16707 9.95 6.32732 10.0164 6.44547 10.1345C6.56361 10.2527 6.62999 10.4129 6.62999 10.58C6.56999 10.94 6.40999 11.2 5.86999 11.2ZM25.43 6.42C25.2059 6.40539 24.9952 6.30847 24.8383 6.14787C24.6814 5.98727 24.5894 5.77433 24.58 5.55V5.55C24.576 5.4385 24.5944 5.32734 24.6343 5.22315C24.6742 5.11896 24.7347 5.02389 24.8122 4.94361C24.8897 4.86333 24.9826 4.7995 25.0853 4.75592C25.188 4.71235 25.2984 4.68993 25.41 4.69H25.46C25.6775 4.69 25.886 4.77639 26.0398 4.93017C26.1936 5.08395 26.28 5.29252 26.28 5.51V5.51C26.28 5.73371 26.1918 5.94841 26.0346 6.10753C25.8773 6.26665 25.6637 6.35737 25.44 6.36L25.43 6.42ZM16 3.81C15.7715 3.80514 15.5535 3.71358 15.3901 3.55387C15.2266 3.39416 15.1301 3.17828 15.12 2.95C15.1068 2.82723 15.1197 2.70308 15.1577 2.5856C15.1956 2.46812 15.2579 2.35995 15.3405 2.26812C15.423 2.17629 15.5239 2.10285 15.6367 2.05258C15.7494 2.0023 15.8715 1.97632 15.995 1.97632C16.1185 1.97632 16.2405 2.0023 16.3533 2.05258C16.4661 2.10285 16.567 2.17629 16.6495 2.26812C16.732 2.35995 16.7943 2.46812 16.8323 2.5856C16.8703 2.70308 16.8831 2.82723 16.87 2.95V2.95C16.8556 3.17506 16.759 3.387 16.5986 3.54555C16.4382 3.70409 16.2252 3.7982 16 3.81V3.81ZM4.51999 9.4C4.30251 9.4 4.09394 9.31361 3.94016 9.15983C3.78638 9.00605 3.69999 8.79748 3.69999 8.58V8.53C3.71019 8.32053 3.79404 8.12139 3.93675 7.9677C4.07945 7.81402 4.27184 7.71567 4.47999 7.69C4.71255 7.69523 4.93382 7.7913 5.09642 7.95764C5.25903 8.12398 5.35005 8.34738 5.34999 8.58V8.59C5.34999 8.69637 5.32904 8.8017 5.28833 8.89997C5.24762 8.99825 5.18796 9.08754 5.11274 9.16276C5.03753 9.23797 4.94824 9.29763 4.84996 9.33834C4.75169 9.37905 4.64636 9.4 4.53999 9.4H4.51999ZM26.23 8.95C26.2867 8.75417 26.3944 8.57693 26.5421 8.43643C26.6898 8.29593 26.8722 8.19722 27.0706 8.15041C27.269 8.1036 27.4763 8.11038 27.6713 8.17006C27.8662 8.22973 28.0418 8.34015 28.18 8.49V8.49C28.3863 8.61376 28.5561 8.79004 28.6721 9.00086C28.788 9.21167 28.846 9.44948 28.84 9.69C28.8404 9.90495 28.7909 10.1171 28.6955 10.3097C28.6 10.5023 28.4612 10.6701 28.29 10.8L28.54 11.23C29 12.05 28.97 12.35 28.34 13.08C28.073 13.4323 27.7366 13.7261 27.3515 13.9431C26.9664 14.1602 26.5409 14.2959 26.1012 14.3418C25.6616 14.3877 25.2172 14.3429 24.7955 14.2102C24.3739 14.0774 23.984 13.8595 23.65 13.57C23.01 12.95 22.7 12.1 22.11 11.44C21.97 11.28 22.11 11.07 22.18 10.87C22.0293 10.75 21.9072 10.5981 21.8225 10.4251C21.7377 10.2522 21.6925 10.0626 21.69 9.87C21.6915 9.5352 21.8202 9.21349 22.05 8.97V8.97C22.1715 8.82392 22.3247 8.70746 22.498 8.62949C22.6713 8.55151 22.8601 8.51407 23.05 8.52C23.2396 8.51624 23.4277 8.55466 23.6006 8.63249C23.7736 8.71031 23.9271 8.82559 24.05 8.97H24.15C24.4184 8.8363 24.7047 8.742 25 8.69C25.4238 8.68882 25.843 8.77743 26.23 8.95V8.95ZM8.89999 7.27C8.61062 7.25497 8.33759 7.13126 8.1355 6.92361C7.93341 6.71595 7.81716 6.43967 7.80999 6.15V6.15C7.80885 5.87479 7.91092 5.60915 8.09605 5.4055C8.28117 5.20186 8.53591 5.07502 8.80999 5.05C9.11337 5.03916 9.40873 5.14872 9.63166 5.35479C9.85458 5.56085 9.98698 5.8467 9.99999 6.15V6.15C9.98591 6.4391 9.86607 6.71295 9.66325 6.91946C9.46043 7.12596 9.18879 7.25072 8.89999 7.27ZM22.29 5.89C21.63 5.89 21.29 5.37 21.29 4.61C21.29 3.85 21.65 3.42 22.23 3.42C22.595 3.45332 22.9356 3.6174 23.1892 3.88201C23.4428 4.14661 23.5922 4.49393 23.61 4.86C23.59 5.47 23 5.89 22.29 5.89ZM19.69 9.5C19.4612 9.49844 19.2353 9.44904 19.0268 9.35497C18.8182 9.2609 18.6317 9.12424 18.4791 8.95378C18.3266 8.78331 18.2113 8.58281 18.1409 8.36517C18.0704 8.14752 18.0463 7.91754 18.07 7.69C18.07 6.69 18.61 5.97 19.46 5.97C19.9952 6.00121 20.5002 6.22854 20.8783 6.60856C21.2565 6.98859 21.4814 7.49464 21.51 8.03C21.52 8.9 20.79 9.5 19.69 9.5V9.5ZM11.6 10.93C11.4958 10.5384 11.442 10.1352 11.44 9.73C11.4373 9.12801 11.5599 8.53205 11.8 7.98V7.98C11.9511 7.62316 12.2026 7.31789 12.5239 7.10131C12.8452 6.88472 13.2225 6.76615 13.61 6.76H13.79C13.834 6.64546 13.9006 6.54089 13.9857 6.45244C14.0707 6.364 14.1727 6.29348 14.2854 6.24502C14.3982 6.19657 14.5195 6.17116 14.6422 6.1703C14.7649 6.16943 14.8866 6.19313 15 6.24C15.48 6.38 15.67 6.76 15.67 7.51C16.1033 7.90438 16.4447 8.38914 16.67 8.93C14.7842 8.91188 12.9655 9.6293 11.6 10.93V10.93ZM28.71 20.12C29.0103 20.5876 29.1635 21.1345 29.15 21.69C29.153 22.2348 29.0003 22.769 28.71 23.23V23.29C28.0199 24.578 27.1017 25.7301 26 26.69V26.69C24.987 27.6742 23.8091 28.473 22.52 29.05V29.05C22.2852 29.2121 22.0198 29.3244 21.74 29.38H21.81C20.5503 29.9589 19.1939 30.298 17.81 30.38H17.87C17.45 30.38 17.03 30.45 16.61 30.45C15.9389 30.4489 15.2693 30.3853 14.61 30.26H14.56C13.2943 30.1177 12.0647 29.7485 10.93 29.17L10.73 29.06H10.67C9.57838 28.5743 8.58264 27.8969 7.72999 27.06V27.06C7.22157 26.681 6.78187 26.2176 6.42999 25.69V25.69C5.30471 24.5458 4.42356 23.185 3.83999 21.69V21.75C3.51934 21.0375 3.30053 20.2835 3.18999 19.51V19.59C2.93104 18.611 2.79995 17.6026 2.79999 16.59C2.82689 16.0558 2.89374 15.5243 2.99999 15C3.05999 14.55 3.49999 14.34 3.83999 14.08V14V13.89C3.83974 13.5294 3.9421 13.1762 4.13511 12.8716C4.32812 12.5671 4.60382 12.3237 4.92999 12.17V12.17C5.25035 11.9945 5.61264 11.9102 5.97755 11.926C6.34246 11.9419 6.69606 12.0574 6.99999 12.26L7.21999 12.39C7.15589 12.2491 7.12838 12.0943 7.13999 11.94V11.94C7.12072 11.7806 7.12072 11.6194 7.13999 11.46C7.13663 10.939 7.32617 10.4351 7.6721 10.0455C8.01802 9.65591 8.49587 9.40805 9.01362 9.3497C9.53137 9.29134 10.0524 9.42661 10.4764 9.72946C10.9004 10.0323 11.1973 10.4813 11.31 10.99V10.99C11.3148 11.0432 11.3148 11.0968 11.31 11.15C11.3113 11.2297 11.2949 11.3087 11.2621 11.3813C11.2292 11.4539 11.1807 11.5184 11.12 11.57C10.7012 12.0187 10.3629 12.5363 10.12 13.1V13.1C10.0601 13.2501 9.95672 13.3789 9.82306 13.4698C9.68941 13.5607 9.53162 13.6095 9.36999 13.61H9.12999C8.67429 13.5543 8.23689 13.3971 7.84999 13.15V13.15C7.85064 13.3059 7.87422 13.4609 7.91999 13.61H7.99999C8.47761 13.8293 8.90873 14.1383 9.26999 14.52V14.52C9.31389 14.5499 9.34968 14.5902 9.37412 14.6373C9.39856 14.6844 9.41088 14.7369 9.40999 14.79C9.41488 14.8164 9.41488 14.8436 9.40999 14.87C9.30579 15.3903 9.2522 15.9194 9.24999 16.45C9.24688 17.4811 9.45446 18.502 9.85999 19.45V19.51C10.2466 20.222 10.7057 20.8923 11.23 21.51V21.51C12.3038 22.6354 13.7022 23.3975 15.23 23.69H15.18C15.7298 23.7996 16.2893 23.8532 16.85 23.85C17.2852 23.8485 17.7197 23.815 18.15 23.75V23.75C18.2436 23.6842 18.3555 23.6492 18.47 23.65H18.56L19.06 23.52C20.7431 22.9248 22.1465 21.728 23 20.16C23.2093 19.7451 23.5065 19.3808 23.8709 19.0924C24.2353 18.804 24.6581 18.5985 25.11 18.49V18.49C25.8079 18.3451 26.5337 18.4259 27.1827 18.7207C27.8316 19.0155 28.37 19.5091 28.72 20.13L28.71 20.12Z" fill="black"/>
</svg>
