<svg width="32" height="32" viewBox="0 0 32 32" fill="none" xmlns="http://www.w3.org/2000/svg">
<path d="M21.57 15.69C21.5699 16.8036 21.239 17.8922 20.6193 18.8174C19.9995 19.7427 19.1188 20.463 18.089 20.8868C17.0591 21.3107 15.9266 21.419 14.8351 21.1981C13.7435 20.9771 12.7423 20.4369 11.9583 19.6459C11.1744 18.8549 10.6431 17.8489 10.4319 16.7554C10.2208 15.662 10.3392 14.5304 10.7723 13.5044C11.2053 12.4784 11.9334 11.6042 12.8642 10.9927C13.7949 10.3813 14.8864 10.0601 16 10.07V10.07C17.4818 10.0832 18.8985 10.6811 19.9416 11.7336C20.9848 12.7862 21.57 14.2081 21.57 15.69V15.69ZM25.1 15.69H30.67C30.6687 18.5857 29.8105 21.4163 28.2035 23.8251C26.5964 26.234 24.3124 28.1134 21.6392 29.2265C18.966 30.3396 16.0231 30.6367 13.1814 30.0803C10.3396 29.524 7.72607 28.139 5.66999 26.1L9.66999 22.1C10.9445 23.3406 12.5549 24.1801 14.3018 24.5145C16.0487 24.8488 17.8553 24.6634 19.4978 23.981C21.1404 23.2987 22.5466 22.1494 23.5424 20.6757C24.5382 19.202 25.0797 17.4685 25.1 15.69ZM6.89999 15.69V15.75H1.32999V15.69C1.33518 12.796 2.19623 9.96816 3.80479 7.56236C5.41336 5.15657 7.69756 3.28029 10.37 2.16964C13.0424 1.05899 15.9836 0.763578 18.8235 1.32059C21.6634 1.8776 24.2751 3.26214 26.33 5.29999L22.44 9.29999C21.1722 8.02329 19.554 7.15156 17.7904 6.79519C16.0268 6.43882 14.1971 6.61384 12.533 7.2981C10.869 7.98235 9.44542 9.14506 8.44264 10.639C7.43986 12.1329 6.90298 13.8907 6.89999 15.69V15.69Z" fill="black"/>
</svg>
