<svg width="32" height="32" viewBox="0 0 32 32" fill="none" xmlns="http://www.w3.org/2000/svg">
<path fill-rule="evenodd" clip-rule="evenodd" d="M16 14C17.8638 14 19.4299 15.2748 19.874 17H24C24.5523 17 25 17.4477 25 18C25 18.5523 24.5523 19 24 19H19.874C19.4299 20.7252 17.8638 22 16 22C13.7909 22 12 20.2091 12 18C12 15.7909 13.7909 14 16 14ZM14 18C14 16.8954 14.8954 16 16 16C17.1046 16 18 16.8954 18 18C18 19.1046 17.1046 20 16 20C14.8954 20 14 19.1046 14 18Z" fill="black"/>
<path d="M16 24C16.5523 24 17 24.4477 17 25V26C17 26.5523 16.5523 27 16 27C15.4477 27 15 26.5523 15 26V25C15 24.4477 15.4477 24 16 24Z" fill="black"/>
<path d="M17 10C17 9.44772 16.5523 9 16 9C15.4477 9 15 9.44772 15 10V11C15 11.5523 15.4477 12 16 12C16.5523 12 17 11.5523 17 11V10Z" fill="black"/>
<path d="M20.1929 22.193C20.5834 21.8025 21.2166 21.8025 21.6071 22.193L22.4071 22.993C22.7976 23.3836 22.7976 24.0167 22.4071 24.4073C22.0166 24.7978 21.3834 24.7978 20.9929 24.4073L20.1929 23.6073C19.8024 23.2167 19.8024 22.5836 20.1929 22.193Z" fill="black"/>
<path d="M11.0071 11.5929C10.6166 11.2024 9.98342 11.2024 9.5929 11.5929C9.20237 11.9835 9.20237 12.6166 9.5929 13.0072L10.3929 13.8072C10.7834 14.1977 11.4166 14.1977 11.8071 13.8072C12.1976 13.4166 12.1976 12.7835 11.8071 12.3929L11.0071 11.5929Z" fill="black"/>
<path d="M8 17C7.44772 17 7 17.4477 7 18C7 18.5523 7.44772 19 8 19H9C9.55228 19 10 18.5523 10 18C10 17.4477 9.55228 17 9 17H8Z" fill="black"/>
<path d="M22.4071 11.5929C22.7976 11.9835 22.7976 12.6166 22.4071 13.0072L21.6071 13.8072C21.2166 14.1977 20.5834 14.1977 20.1929 13.8072C19.8024 13.4166 19.8024 12.7835 20.1929 12.3929L20.9929 11.5929C21.3834 11.2024 22.0166 11.2024 22.4071 11.5929Z" fill="black"/>
<path d="M11.8071 23.6073C12.1976 23.2167 12.1976 22.5836 11.8071 22.193C11.4166 21.8025 10.7834 21.8025 10.3929 22.193L9.5929 22.993C9.20237 23.3836 9.20237 24.0167 9.5929 24.4073C9.98342 24.7978 10.6166 24.7978 11.0071 24.4073L11.8071 23.6073Z" fill="black"/>
<path fill-rule="evenodd" clip-rule="evenodd" d="M15 6.04107V4H13C12.4477 4 12 3.55228 12 3C12 2.44772 12.4477 2 13 2H19C19.5523 2 20 2.44772 20 3C20 3.55228 19.5523 4 19 4H17V6.04107C19.5624 6.25247 21.8966 7.26896 23.7489 8.83701L25.1858 7.4001L23.7929 6.00716C23.4024 5.61663 23.4024 4.98347 23.7929 4.59294C24.1834 4.20242 24.8166 4.20242 25.2071 4.59294L29.4071 8.79294C29.7976 9.18347 29.7976 9.81663 29.4071 10.2072C29.0166 10.5977 28.3834 10.5977 27.9929 10.2072L26.6 8.81431L25.1631 10.2512C26.9329 12.3419 28 15.0463 28 18C28 24.6274 22.6274 30 16 30C9.37258 30 4 24.6274 4 18C4 11.7093 8.84047 6.54922 15 6.04107ZM16 8C10.4772 8 6 12.4772 6 18C6 23.5228 10.4772 28 16 28C21.5228 28 26 23.5228 26 18C26 12.4772 21.5228 8 16 8Z" fill="black"/>
</svg>
