<svg width="32" height="32" viewBox="0 0 32 32" fill="none" xmlns="http://www.w3.org/2000/svg">
<path d="M23 7C22.4477 7 22 7.44772 22 8C22 8.55228 22.4477 9 23 9H24C24.5523 9 25 8.55228 25 8C25 7.44772 24.5523 7 24 7H23Z" fill="black"/>
<path d="M8 8C8 7.44772 7.55228 7 7 7C6.44772 7 6 7.44772 6 8V12C6 12.5523 6.44772 13 7 13C7.55228 13 8 12.5523 8 12V8Z" fill="black"/>
<path d="M11 7C11.5523 7 12 7.44772 12 8V12C12 12.5523 11.5523 13 11 13C10.4477 13 10 12.5523 10 12V8C10 7.44772 10.4477 7 11 7Z" fill="black"/>
<path d="M16 8C16 7.44772 15.5523 7 15 7C14.4477 7 14 7.44772 14 8V12C14 12.5523 14.4477 13 15 13C15.5523 13 16 12.5523 16 12V8Z" fill="black"/>
<path d="M19 7C19.5523 7 20 7.44772 20 8V12C20 12.5523 19.5523 13 19 13C18.4477 13 18 12.5523 18 12V8C18 7.44772 18.4477 7 19 7Z" fill="black"/>
<path d="M23 19C22.4477 19 22 19.4477 22 20C22 20.5523 22.4477 21 23 21H24C24.5523 21 25 20.5523 25 20C25 19.4477 24.5523 19 24 19H23Z" fill="black"/>
<path d="M7 19C7.55228 19 8 19.4477 8 20V24C8 24.5523 7.55228 25 7 25C6.44772 25 6 24.5523 6 24V20C6 19.4477 6.44772 19 7 19Z" fill="black"/>
<path d="M12 20C12 19.4477 11.5523 19 11 19C10.4477 19 10 19.4477 10 20V24C10 24.5523 10.4477 25 11 25C11.5523 25 12 24.5523 12 24V20Z" fill="black"/>
<path d="M15 19C15.5523 19 16 19.4477 16 20V24C16 24.5523 15.5523 25 15 25C14.4477 25 14 24.5523 14 24V20C14 19.4477 14.4477 19 15 19Z" fill="black"/>
<path d="M20 20C20 19.4477 19.5523 19 19 19C18.4477 19 18 19.4477 18 20V24C18 24.5523 18.4477 25 19 25C19.5523 25 20 24.5523 20 24V20Z" fill="black"/>
<path fill-rule="evenodd" clip-rule="evenodd" d="M2 25V7C2 4.74772 3.74772 3 6 3H26C28.2523 3 30 4.74772 30 7V25C30 27.2523 28.2523 29 26 29H6C3.74772 29 2 27.2523 2 25ZM4 7C4 5.85228 4.85228 5 6 5H26C27.1477 5 28 5.85228 28 7V15H4V7ZM4 25V17H28V25C28 26.1477 27.1477 27 26 27H6C4.85228 27 4 26.1477 4 25Z" fill="black"/>
</svg>
