<svg width="32" height="32" viewBox="0 0 32 32" fill="none" xmlns="http://www.w3.org/2000/svg">
<path fill-rule="evenodd" clip-rule="evenodd" d="M11.1009 8C11.5668 5.72346 13.59 4 16 4C18.41 4 20.4332 5.72346 20.8991 8H26C28.2523 8 30 9.74771 30 12V14.9769C30.0004 14.9922 30.0004 15.0075 30 15.0227V24C30 26.2523 28.2523 28 26 28H6C3.74772 28 2 26.2523 2 24V15.0232C1.99963 15.0076 1.99963 14.9921 2 14.9765V12C2 9.74771 3.74772 8 6 8H11.1009ZM13.173 8C13.5879 6.83875 14.7023 6 16 6C17.2977 6 18.4121 6.83875 18.827 8H13.173ZM28 12V14.3132L17 18.544V17C17 16.4477 16.5523 16 16 16C15.4477 16 15 16.4477 15 17V18.544L4 14.3132V12C4 10.8523 4.85228 10 6 10H26C27.1477 10 28 10.8523 28 12ZM15 20.6868L4 16.4561V24C4 25.1477 4.85228 26 6 26H26C27.1477 26 28 25.1477 28 24V16.4561L17 20.6868V22C17 22.5523 16.5523 23 16 23C15.4477 23 15 22.5523 15 22V20.6868Z" fill="black"/>
</svg>
