<svg width="32" height="32" viewBox="0 0 32 32" fill="none" xmlns="http://www.w3.org/2000/svg">
<path d="M17 3C17 2.44772 16.5523 2 16 2C15.4477 2 15 2.44772 15 3V6C15 6.55228 15.4477 7 16 7C16.5523 7 17 6.55228 17 6V3Z" fill="black"/>
<path d="M2 16C2 15.4477 2.44772 15 3 15H6C6.55228 15 7 15.4477 7 16C7 16.5523 6.55228 17 6 17H3C2.44772 17 2 16.5523 2 16Z" fill="black"/>
<path d="M25 16C25 15.4477 25.4477 15 26 15H29C29.5523 15 30 15.4477 30 16C30 16.5523 29.5523 17 29 17H26C25.4477 17 25 16.5523 25 16Z" fill="black"/>
<path d="M16 25C16.5523 25 17 25.4477 17 26V29C17 29.5523 16.5523 30 16 30C15.4477 30 15 29.5523 15 29V26C15 25.4477 15.4477 25 16 25Z" fill="black"/>
<path d="M23.8071 22.393C23.4166 22.0025 22.7834 22.0025 22.3929 22.393C22.0024 22.7835 22.0024 23.4167 22.3929 23.8072L24.4929 25.9072C24.8834 26.2977 25.5166 26.2977 25.9071 25.9072C26.2976 25.5167 26.2976 24.8835 25.9071 24.493L23.8071 22.393Z" fill="black"/>
<path d="M6.09288 6.09294C6.48341 5.70242 7.11657 5.70242 7.50709 6.09294L9.60709 8.19294C9.99762 8.58347 9.99762 9.21663 9.60709 9.60715C9.21657 9.99768 8.5834 9.99768 8.19288 9.60715L6.09288 7.50716C5.70236 7.11663 5.70236 6.48347 6.09288 6.09294Z" fill="black"/>
<path d="M9.60709 23.8072C9.99762 23.4167 9.99762 22.7835 9.60709 22.393C9.21657 22.0025 8.5834 22.0025 8.19288 22.393L6.09288 24.493C5.70236 24.8835 5.70236 25.5167 6.09288 25.9072C6.48341 26.2977 7.11657 26.2977 7.50709 25.9072L9.60709 23.8072Z" fill="black"/>
<path d="M25.9071 6.09294C26.2976 6.48347 26.2976 7.11663 25.9071 7.50716L23.8071 9.60715C23.4166 9.99768 22.7834 9.99768 22.3929 9.60715C22.0024 9.21663 22.0024 8.58347 22.3929 8.19294L24.4929 6.09294C24.8834 5.70242 25.5166 5.70242 25.9071 6.09294Z" fill="black"/>
<path fill-rule="evenodd" clip-rule="evenodd" d="M16 9C12.134 9 9 12.134 9 16C9 19.866 12.134 23 16 23C19.866 23 23 19.866 23 16C23 12.134 19.866 9 16 9ZM11 16C11 13.2386 13.2386 11 16 11C18.7614 11 21 13.2386 21 16C21 18.7614 18.7614 21 16 21C13.2386 21 11 18.7614 11 16Z" fill="black"/>
</svg>
