<svg width="32" height="32" viewBox="0 0 32 32" fill="none" xmlns="http://www.w3.org/2000/svg">
<path d="M24.2929 5.29289C24.6834 4.90237 25.3166 4.90237 25.7071 5.29289L29.4142 9L25.7071 12.7071C25.3166 13.0976 24.6834 13.0976 24.2929 12.7071C23.9024 12.3166 23.9024 11.6834 24.2929 11.2929L25.5858 10H22.4142L8.41421 24H3C2.44772 24 2 23.5523 2 23C2 22.4477 2.44772 22 3 22H7.58579L21.5858 8H25.5858L24.2929 6.70711C23.9024 6.31658 23.9024 5.68342 24.2929 5.29289Z" fill="black"/>
<path d="M2 9C2 8.44772 2.44772 8 3 8H8.41421L12.7071 12.2929C13.0976 12.6834 13.0976 13.3166 12.7071 13.7071C12.3166 14.0976 11.6834 14.0976 11.2929 13.7071L7.58579 10H3C2.44772 10 2 9.55228 2 9Z" fill="black"/>
<path d="M18.7071 18.2929C18.3166 17.9024 17.6834 17.9024 17.2929 18.2929C16.9024 18.6834 16.9024 19.3166 17.2929 19.7071L21.5858 24H25.5858L24.2929 25.2929C23.9024 25.6834 23.9024 26.3166 24.2929 26.7071C24.6834 27.0976 25.3166 27.0976 25.7071 26.7071L29.4142 23L25.7071 19.2929C25.3166 18.9024 24.6834 18.9024 24.2929 19.2929C23.9024 19.6834 23.9024 20.3166 24.2929 20.7071L25.5858 22H22.4142L18.7071 18.2929Z" fill="black"/>
</svg>
