<svg width="32" height="32" viewBox="0 0 32 32" fill="none" xmlns="http://www.w3.org/2000/svg">
<path d="M6 2C3.74772 2 2 3.74772 2 6V16C2 16.5523 2.44772 17 3 17C3.55228 17 4 16.5523 4 16V6C4 4.85228 4.85228 4 6 4H26C27.1477 4 28 4.85228 28 6V8C28 8.55228 28.4477 9 29 9C29.5523 9 30 8.55228 30 8V6C30 3.74772 28.2523 2 26 2H6Z" fill="black"/>
<path d="M30 16C30 15.4477 29.5523 15 29 15C28.4477 15 28 15.4477 28 16V26C28 27.1477 27.1477 28 26 28H6C4.85228 28 4 27.1477 4 26V24C4 23.4477 3.55228 23 3 23C2.44772 23 2 23.4477 2 24V26C2 28.2523 3.74772 30 6 30H26C28.2523 30 30 28.2523 30 26V16Z" fill="black"/>
<path d="M10.2929 14.2929C10.6834 13.9024 11.3166 13.9024 11.7071 14.2929L17.4142 20L11.7071 25.7071C11.3166 26.0976 10.6834 26.0976 10.2929 25.7071C9.90237 25.3166 9.90237 24.6834 10.2929 24.2929L13.5858 21H6C5.44772 21 5 20.5523 5 20C5 19.4477 5.44772 19 6 19H13.5858L10.2929 15.7071C9.90237 15.3166 9.90237 14.6834 10.2929 14.2929Z" fill="black"/>
<path d="M21.7071 6.29289C22.0976 6.68342 22.0976 7.31658 21.7071 7.70711L18.4142 11H26C26.5523 11 27 11.4477 27 12C27 12.5523 26.5523 13 26 13H18.4142L21.7071 16.2929C22.0976 16.6834 22.0976 17.3166 21.7071 17.7071C21.3166 18.0976 20.6834 18.0976 20.2929 17.7071L14.5858 12L20.2929 6.29289C20.6834 5.90237 21.3166 5.90237 21.7071 6.29289Z" fill="black"/>
</svg>
