<?xml version="1.0" encoding="UTF-8"?>
<svg width="24px" height="24px" viewBox="0 0 24 24" version="1.1" xmlns="http://www.w3.org/2000/svg" xmlns:xlink="http://www.w3.org/1999/xlink">
    <!-- Generator: Sketch 48.2 (47327) - http://www.bohemiancoding.com/sketch -->
    <title>sync-lr</title>
    <desc>Created with Sketch.</desc>
    <defs></defs>
    <g id="Page-1" stroke="none" stroke-width="1" fill="none" fill-rule="evenodd" stroke-linecap="round" stroke-linejoin="round">
        <g id="sync-lr" stroke="#000000" stroke-width="1.5">
            <polyline id="Stroke-1" points="17 9 20 12 17 15"></polyline>
            <path d="M19,12 L5,12" id="Stroke-2"></path>
            <path d="M10,15 L10,19 C10,20.104 9.104,21 8,21 L3,21 C1.896,21 1,20.104 1,19 L1,5 C1,3.896 1.896,3 3,3 L8,3 C9.104,3 10,3.896 10,5 L10,9" id="Stroke-3"></path>
            <path d="M14,9 L14,5 C14,3.896 14.896,3 16,3 L21,3 C22.104,3 23,3.896 23,5 L23,19 C23,20.104 22.104,21 21,21 L16,21 C14.896,21 14,20.104 14,19 L14,15" id="Stroke-5"></path>
        </g>
    </g>
</svg>