<svg xmlns="http://www.w3.org/2000/svg" width="64" height="64" viewBox="0 0 64 64">
  <title>sync-ltr</title>
  <line x1="14" y1="32" x2="53" y2="32" fill="none" stroke="#000" stroke-linecap="round" stroke-linejoin="round" stroke-width="4"/>
  <polyline points="43 22 53 32 43 42" fill="none" stroke="#000" stroke-linecap="round" stroke-linejoin="round" stroke-width="4"/>
  <path d="M28,40v9a5,5,0,0,1-5,5H9a5,5,0,0,1-5-5V15a5,5,0,0,1,5-5H23a5,5,0,0,1,5,5v9" fill="none" stroke="#000" stroke-linecap="round" stroke-linejoin="round" stroke-width="4"/>
  <path d="M36,40v9a5,5,0,0,0,5,5H55a5,5,0,0,0,5-5V15a5,5,0,0,0-5-5H41a5,5,0,0,0-5,5v9" fill="none" stroke="#000" stroke-linecap="round" stroke-linejoin="round" stroke-width="4"/>
</svg>
