<svg width="32" height="32" viewBox="0 0 32 32" fill="none" xmlns="http://www.w3.org/2000/svg">
<path d="M21.7071 6.29289C22.0976 6.68342 22.0976 7.31658 21.7071 7.70711L18.4142 11H26C26.5523 11 27 11.4477 27 12C27 12.5523 26.5523 13 26 13H18.4142L21.7071 16.2929C22.0976 16.6834 22.0976 17.3166 21.7071 17.7071C21.3166 18.0976 20.6834 18.0976 20.2929 17.7071L14.5858 12L20.2929 6.29289C20.6834 5.90237 21.3166 5.90237 21.7071 6.29289Z" fill="black"/>
<path d="M11.7071 14.2929C11.3166 13.9024 10.6834 13.9024 10.2929 14.2929C9.90237 14.6834 9.90237 15.3166 10.2929 15.7071L13.5858 19H6C5.44772 19 5 19.4477 5 20C5 20.5523 5.44772 21 6 21H13.5858L10.2929 24.2929C9.90237 24.6834 9.90237 25.3166 10.2929 25.7071C10.6834 26.0976 11.3166 26.0976 11.7071 25.7071L17.4142 20L11.7071 14.2929Z" fill="black"/>
</svg>
