<?xml version="1.0" encoding="UTF-8"?>
<svg width="24px" height="24px" viewBox="0 0 24 24" version="1.1" xmlns="http://www.w3.org/2000/svg" xmlns:xlink="http://www.w3.org/1999/xlink">
    <!-- Generator: Sketch 48.2 (47327) - http://www.bohemiancoding.com/sketch -->
    <title>tablet</title>
    <desc>Created with Sketch.</desc>
    <defs></defs>
    <g id="Page-1" stroke="none" stroke-width="1" fill="none" fill-rule="evenodd" stroke-linecap="round" stroke-linejoin="round">
        <g id="tablet" stroke="#000000" stroke-width="2">
            <path d="M20,20 L4,20 C2.896,20 2,19.104 2,18 L2,6 C2,4.896 2.896,4 4,4 L20,4 C21.104,4 22,4.896 22,6 L22,18 C22,19.104 21.104,20 20,20 Z" id="Stroke-1"></path>
            <path d="M7,12 C7,12.552 6.553,13 6,13 C5.447,13 5,12.552 5,12 C5,11.448 5.447,11 6,11 C6.553,11 7,11.448 7,12 Z" id="Stroke-3"></path>
        </g>
    </g>
</svg>