<svg width="32" height="32" viewBox="0 0 32 32" fill="none" xmlns="http://www.w3.org/2000/svg">
<path fill-rule="evenodd" clip-rule="evenodd" d="M23 6C21.3431 6 20 7.34315 20 9C20 10.6569 21.3431 12 23 12C24.6569 12 26 10.6569 26 9C26 7.34315 24.6569 6 23 6ZM22 9C22 8.44772 22.4477 8 23 8C23.5523 8 24 8.44772 24 9C24 9.55228 23.5523 10 23 10C22.4477 10 22 9.55228 22 9Z" fill="black"/>
<path fill-rule="evenodd" clip-rule="evenodd" d="M30 2H16.5858L3.3929 15.1929C1.82571 16.7601 1.77438 19.3066 3.40712 20.8213L11.1929 28.6071C12.7601 30.1743 15.3066 30.2256 16.8213 28.5929L30 15.4142V2ZM4.80711 16.6071L17.4142 4H28V14.5858L15.3775 27.2083L15.3629 27.2243C14.6756 27.974 13.4345 28.0202 12.6071 27.1929L4.79175 19.3775L4.77573 19.3628C4.02597 18.6756 3.97976 17.4345 4.80711 16.6071Z" fill="black"/>
</svg>
