<svg width="32" height="32" viewBox="0 0 32 32" fill="none" xmlns="http://www.w3.org/2000/svg">
<path fill-rule="evenodd" clip-rule="evenodd" d="M16 12C13.7909 12 12 13.7909 12 16C12 18.2091 13.7909 20 16 20C18.2091 20 20 18.2091 20 16C20 13.7909 18.2091 12 16 12ZM14 16C14 14.8954 14.8954 14 16 14C17.1046 14 18 14.8954 18 16C18 17.1046 17.1046 18 16 18C14.8954 18 14 17.1046 14 16Z" fill="black"/>
<path fill-rule="evenodd" clip-rule="evenodd" d="M17 3C17 2.44772 16.5523 2 16 2C15.4477 2 15 2.44772 15 3V6.04938C10.2756 6.51844 6.51844 10.2756 6.04938 15H3C2.44772 15 2 15.4477 2 16C2 16.5523 2.44772 17 3 17H6.04938C6.51844 21.7244 10.2756 25.4816 15 25.9506V29C15 29.5523 15.4477 30 16 30C16.5523 30 17 29.5523 17 29V25.9506C21.7244 25.4816 25.4816 21.7244 25.9506 17H29C29.5523 17 30 16.5523 30 16C30 15.4477 29.5523 15 29 15H25.9506C25.4816 10.2756 21.7244 6.51844 17 6.04938V3ZM16 8C11.5817 8 8 11.5817 8 16C8 20.4183 11.5817 24 16 24C20.4183 24 24 20.4183 24 16C24 11.5817 20.4183 8 16 8Z" fill="black"/>
</svg>
