<svg width="32" height="32" viewBox="0 0 32 32" fill="none" xmlns="http://www.w3.org/2000/svg">
<path fill-rule="evenodd" clip-rule="evenodd" d="M16 2C16.5523 2 17 2.44772 17 3V4.04107C22.8298 4.52202 27.478 9.1702 27.9589 15H29C29.5523 15 30 15.4477 30 16C30 16.5523 29.5523 17 29 17H27.9589C27.478 22.8298 22.8298 27.478 17 27.9589V29C17 29.5523 16.5523 30 16 30C15.4477 30 15 29.5523 15 29V27.9589C9.1702 27.478 4.52202 22.8298 4.04107 17H3C2.44772 17 2 16.5523 2 16C2 15.4477 2.44772 15 3 15H4.04107C4.52202 9.1702 9.1702 4.52202 15 4.04107V3C15 2.44772 15.4477 2 16 2ZM17 25.9506C21.7244 25.4816 25.4816 21.7244 25.9506 17H20.9C20.5023 18.9591 18.9591 20.5023 17 20.9V25.9506ZM15 20.9V25.9506C10.2756 25.4816 6.51844 21.7244 6.04938 17H11.1C11.4977 18.9591 13.0409 20.5023 15 20.9ZM16 19C17.6569 19 19 17.6569 19 16C19 14.3431 17.6569 13 16 13C14.3431 13 13 14.3431 13 16C13 17.6569 14.3431 19 16 19ZM6.04938 15C6.51844 10.2756 10.2756 6.51844 15 6.04938V11.1C13.0409 11.4977 11.4977 13.0409 11.1 15H6.04938ZM17 6.04938V11.1C18.9591 11.4977 20.5023 13.0409 20.9 15H25.9506C25.4816 10.2756 21.7244 6.51844 17 6.04938Z" fill="black"/>
</svg>
