<svg width="32" height="32" viewBox="0 0 32 32" fill="none" xmlns="http://www.w3.org/2000/svg">
<path fill-rule="evenodd" clip-rule="evenodd" d="M11 7C11 4.24772 13.2477 2 16 2C18.7523 2 21 4.24772 21 7V18.0794C22.2085 19.3354 23 21.0651 23 23C23 26.8523 19.8523 30 16 30C12.1477 30 9 26.8523 9 23C9 21.0651 9.79149 19.3354 11 18.0794V7ZM16 4C14.3523 4 13 5.35228 13 7V18.9399L12.6757 19.2372C11.665 20.1637 11 21.503 11 23C11 25.7477 13.2523 28 16 28C18.7477 28 21 25.7477 21 23C21 21.503 20.335 20.1637 19.3243 19.2372L19 18.9399V7C19 5.35228 17.6477 4 16 4Z" fill="black"/>
</svg>
