<svg width="32" height="32" viewBox="0 0 32 32" fill="none" xmlns="http://www.w3.org/2000/svg">
<path d="M16 17C16.5523 17 17 17.4477 17 18V21.2676C17.5978 21.6134 18 22.2597 18 23C18 24.1046 17.1046 25 16 25C14.8954 25 14 24.1046 14 23C14 22.2597 14.4022 21.6134 15 21.2676V18C15 17.4477 15.4477 17 16 17Z" fill="black"/>
<path fill-rule="evenodd" clip-rule="evenodd" d="M16 2C13.2477 2 11 4.24772 11 7V18.0794C9.79149 19.3354 9 21.0651 9 23C9 26.8523 12.1477 30 16 30C19.8523 30 23 26.8523 23 23C23 21.0651 22.2085 19.3354 21 18.0794V7C21 4.24772 18.7523 2 16 2ZM13 7C13 5.35228 14.3523 4 16 4C17.6477 4 19 5.35228 19 7V18.9399L19.3243 19.2372C20.335 20.1637 21 21.503 21 23C21 25.7477 18.7477 28 16 28C13.2523 28 11 25.7477 11 23C11 21.503 11.665 20.1637 12.6757 19.2372L13 18.9399V7Z" fill="black"/>
</svg>
