<svg width="32" height="32" viewBox="0 0 32 32" fill="none" xmlns="http://www.w3.org/2000/svg">
<path d="M3.70711 5.29289C3.31658 4.90237 2.68342 4.90237 2.29289 5.29289C1.90237 5.68342 1.90237 6.31658 2.29289 6.70711L11.5858 16L2.29289 25.2929C1.90237 25.6834 1.90237 26.3166 2.29289 26.7071C2.68342 27.0976 3.31658 27.0976 3.70711 26.7071L14.4142 16L3.70711 5.29289Z" fill="black"/>
<path d="M13 27C12.4477 27 12 27.4477 12 28C12 28.5523 12.4477 29 13 29H29C29.5523 29 30 28.5523 30 28C30 27.4477 29.5523 27 29 27H13Z" fill="black"/>
</svg>
