<svg width="32" height="32" viewBox="0 0 32 32" fill="none" xmlns="http://www.w3.org/2000/svg">
<path d="M21.24 24.07H10.76V21.79C10.76 20.9943 11.0761 20.2313 11.6387 19.6687C12.2013 19.1061 12.9643 18.79 13.76 18.79H17.6C18.5654 18.79 19.4912 19.1735 20.1739 19.8561C20.8565 20.5388 21.24 21.4646 21.24 22.43V24.03V24.07ZM16 11.5C16.5182 11.5 17.0247 11.6537 17.4556 11.9415C17.8864 12.2294 18.2222 12.6386 18.4206 13.1174C18.6189 13.5961 18.6707 14.1229 18.5696 14.6311C18.4686 15.1394 18.219 15.6062 17.8526 15.9726C17.4862 16.339 17.0194 16.5886 16.5111 16.6897C16.0029 16.7907 15.4761 16.7389 14.9974 16.5406C14.5186 16.3423 14.1094 16.0064 13.8215 15.5756C13.5336 15.1447 13.38 14.6382 13.38 14.12C13.38 13.4251 13.656 12.7587 14.1474 12.2674C14.6387 11.776 15.3051 11.5 16 11.5V11.5ZM19.64 17.11C20.2008 16.4266 20.558 15.5991 20.6706 14.7222C20.7833 13.8454 20.6469 12.9545 20.277 12.1515C19.9071 11.3485 19.3187 10.6659 18.579 10.1816C17.8394 9.69731 16.9784 9.43098 16.0945 9.41306C15.2106 9.39515 14.3395 9.62636 13.5808 10.0803C12.8222 10.5342 12.2066 11.1924 11.8044 11.9798C11.4023 12.7671 11.2299 13.6517 11.3069 14.5324C11.384 15.4132 11.7073 16.2544 12.24 16.96C11.2063 17.2769 10.3015 17.9171 9.6589 18.7866C9.01625 19.656 8.66961 20.7088 8.66999 21.79V24.44C8.66998 24.8971 8.85087 25.3356 9.17315 25.6598C9.49543 25.9839 9.9329 26.1674 10.39 26.17H21.6C22.0588 26.17 22.4988 25.9877 22.8233 25.6633C23.1477 25.3389 23.33 24.8988 23.33 24.44V22.44C23.3283 21.2784 22.9748 20.1446 22.3162 19.1878C21.6575 18.231 20.7245 17.4961 19.64 17.08V17.11ZM30.64 4.17V27.17C30.64 28.0054 30.3081 28.8066 29.7174 29.3974C29.1266 29.9881 28.3254 30.32 27.49 30.32H4.48999C3.65455 30.32 2.85334 29.9881 2.2626 29.3974C1.67186 28.8066 1.33999 28.0054 1.33999 27.17V8.36C1.33998 7.5263 1.67048 6.72659 2.25906 6.13614C2.84764 5.54569 3.64629 5.21264 4.47999 5.21H13.9C14.1785 5.21 14.4455 5.32062 14.6424 5.51754C14.8394 5.71445 14.95 5.98152 14.95 6.26C14.95 6.53848 14.8394 6.80555 14.6424 7.00246C14.4455 7.19937 14.1785 7.31 13.9 7.31H4.47999C4.34452 7.30322 4.20909 7.32406 4.08193 7.37127C3.95477 7.41848 3.83855 7.49107 3.74033 7.58461C3.64211 7.67815 3.56395 7.7907 3.51059 7.9154C3.45724 8.04011 3.42982 8.17436 3.42999 8.31V27.21C3.4228 27.3498 3.44504 27.4895 3.49527 27.6202C3.5455 27.7508 3.62259 27.8695 3.72156 27.9684C3.82053 28.0674 3.93918 28.1445 4.06983 28.1947C4.20047 28.2449 4.3402 28.2672 4.47999 28.26H27.48C27.6198 28.2672 27.7595 28.2449 27.8901 28.1947C28.0208 28.1445 28.1394 28.0674 28.2384 27.9684C28.3374 27.8695 28.4145 27.7508 28.4647 27.6202C28.5149 27.4895 28.5372 27.3498 28.53 27.21V4.21C28.5372 4.07021 28.5149 3.93048 28.4647 3.79984C28.4145 3.66919 28.3374 3.55055 28.2384 3.45157C28.1394 3.3526 28.0208 3.27551 27.8901 3.22528C27.7595 3.17506 27.6198 3.15281 27.48 3.16H2.37999C2.10151 3.16 1.83444 3.04937 1.63752 2.85246C1.44061 2.65555 1.32999 2.38847 1.32999 2.11C1.32999 1.83152 1.44061 1.56445 1.63752 1.36754C1.83444 1.17062 2.10151 1.06 2.37999 1.06H27.52C28.3554 1.06 29.1566 1.39187 29.7474 1.98261C30.3381 2.57335 30.67 3.37457 30.67 4.21L30.64 4.17Z" fill="black"/>
</svg>
