<?xml version="1.0" encoding="UTF-8"?>
<svg width="24px" height="24px" viewBox="0 0 24 24" version="1.1" xmlns="http://www.w3.org/2000/svg" xmlns:xlink="http://www.w3.org/1999/xlink">
    <!-- Generator: Sketch 48.2 (47327) - http://www.bohemiancoding.com/sketch -->
    <title>thermometer</title>
    <desc>Created with Sketch.</desc>
    <defs></defs>
    <g id="Page-1" stroke="none" stroke-width="1" fill="none" fill-rule="evenodd" stroke-linecap="round" stroke-linejoin="round">
        <g id="thermometer" stroke="#000000" stroke-width="1.5">
            <path d="M13,18 C13,17.447 12.553,17 12,17 C11.447,17 11,17.447 11,18 C11,18.553 11.447,19 12,19 C12.553,19 13,18.553 13,18 Z" id="Stroke-2"></path>
            <path d="M11,18 L13,18" id="Stroke-4"></path>
            <path d="M12,13 L12,19" id="Stroke-6"></path>
            <path d="M15,14.0225 L15,4.0005 C15,2.3435 13.657,1.0005 12,1.0005 C10.343,1.0005 9,2.3435 9,4.0005 L9,14.0225 C7.792,14.9355 7,16.3695 7,18.0005 C7,20.7615 9.238,23.0005 12,23.0005 C14.762,23.0005 17,20.7615 17,18.0005 C17,16.3695 16.208,14.9355 15,14.0225 Z" id="Stroke-8"></path>
        </g>
    </g>
</svg>