<svg width="32" height="32" viewBox="0 0 32 32" fill="none" xmlns="http://www.w3.org/2000/svg">
<path fill-rule="evenodd" clip-rule="evenodd" d="M16.3 4C15.055 4 13.7783 4.68707 13.1963 5.97133L9.18197 14H5C3.34772 14 2 15.3477 2 17V25C2 26.6523 3.34772 28 5 28H23.5C25.3768 28 26.8381 26.7764 27.3558 25.0941L27.3614 25.076L29.7662 16.0577L29.7671 16.0545C30.4281 13.5425 28.5784 11 25.9 11H19.8V7.5C19.8 5.54772 18.2523 4 16.3 4ZM10.8 26H23.5C24.4176 26 25.1529 25.4305 25.439 24.5225L27.8329 15.5455L27.8332 15.5445C28.1714 14.2568 27.2213 13 25.9 13H17.8V7.5C17.8 6.65228 17.1477 6 16.3 6C15.7523 6 15.2366 6.30489 15.0138 6.80614L15.0046 6.8269L10.8 15.2361V26ZM4 17C4 16.4523 4.45228 16 5 16H8.8V26H5C4.45228 26 4 25.5477 4 25V17Z" fill="black"/>
</svg>
