<svg width="32" height="32" viewBox="0 0 32 32" fill="none" xmlns="http://www.w3.org/2000/svg">
<path fill-rule="evenodd" clip-rule="evenodd" d="M5 4C3.34772 4 2 5.34772 2 7V15C2 16.6523 3.34772 18 5 18H9.18197L13.1963 26.0287C13.7783 27.3129 15.055 28 16.3 28C18.2523 28 19.8 26.4523 19.8 24.5V21H25.9C28.5784 21 30.4281 18.4575 29.7671 15.9455L27.3614 6.92403L27.3558 6.90591C26.8381 5.22359 25.3768 4 23.5 4H5ZM10.8 6V16.7639L15.0046 25.1731L15.0138 25.1939C15.2366 25.6951 15.7523 26 16.3 26C17.1477 26 17.8 25.3477 17.8 24.5V19H25.9C27.2213 19 28.1714 17.7432 27.8332 16.4555L27.8329 16.4545L25.439 7.47747C25.1529 6.56946 24.4176 6 23.5 6H10.8ZM4 7C4 6.45228 4.45228 6 5 6H8.8V16H5C4.45228 16 4 15.5477 4 15V7Z" fill="black"/>
</svg>
