<svg width="32" height="32" viewBox="0 0 32 32" fill="none" xmlns="http://www.w3.org/2000/svg">
<path fill-rule="evenodd" clip-rule="evenodd" d="M11.0513 2.68377C11.1874 2.27543 11.5696 2 12 2H25C25.3688 2 25.7077 2.20298 25.8817 2.52814C26.0557 2.8533 26.0366 3.24784 25.8321 3.5547L18.8685 14H22C22.4175 14 22.791 14.2593 22.9369 14.6505C23.0828 15.0416 22.9704 15.4823 22.6549 15.7557L7.65493 28.7557C7.30811 29.0563 6.80121 29.0822 6.42555 28.8185C6.04988 28.5549 5.9019 28.0694 6.06666 27.641L10.544 16H8C7.67856 16 7.37671 15.8455 7.18876 15.5847C7.00081 15.3239 6.94967 14.9887 7.05132 14.6838L11.0513 2.68377ZM12.7208 4L9.38743 14H12C12.3295 14 12.6378 14.1623 12.8243 14.4339C13.0108 14.7054 13.0516 15.0515 12.9333 15.359L9.37056 24.6222L19.3193 16H17C16.6312 16 16.2923 15.797 16.1183 15.4719C15.9443 15.1467 15.9634 14.7522 16.168 14.4453L23.1315 4H12.7208Z" fill="black"/>
</svg>
