<svg width="32" height="32" viewBox="0 0 32 32" fill="none" xmlns="http://www.w3.org/2000/svg">
<path d="M22 11C22.5523 11 23 11.4477 23 12V15H26C26.5523 15 27 15.4477 27 16C27 16.5523 26.5523 17 26 17H21V12C21 11.4477 21.4477 11 22 11Z" fill="black"/>
<path fill-rule="evenodd" clip-rule="evenodd" d="M2 5C1.44772 5 1 5.44772 1 6C1 6.55228 1.44772 7 2 7H11C12.1046 7 13 7.89543 13 9V19.5351C12.4117 19.1948 11.7286 19 11 19C9.80531 19 8.73295 19.5238 8 20.3542C7.26706 19.5238 6.19469 19 5 19C2.79086 19 1 20.7909 1 23C1 25.2091 2.79086 27 5 27C6.19469 27 7.26706 26.4762 8 25.6458C8.73295 26.4762 9.80531 27 11 27C12.8638 27 14.4299 25.7252 14.874 24H19.126C19.5701 25.7252 21.1362 27 23 27C24.9002 27 26.4908 25.6751 26.8986 23.8987C28.6751 23.4909 30 21.9002 30 20V13.2426C30 12.1818 29.5786 11.1644 28.8284 10.4142L27.5858 9.17157C26.8356 8.42143 25.8182 8 24.7574 8H21C18.7909 8 17 9.79086 17 12V22H15V9C15 6.79086 13.2091 5 11 5H2ZM13 23C13 21.8954 12.1046 21 11 21C9.89543 21 9 21.8954 9 23C9 24.1046 9.89543 25 11 25C12.1046 25 13 24.1046 13 23ZM19 12C19 10.8954 19.8954 10 21 10H24.7574C25.2878 10 25.7965 10.2107 26.1716 10.5858L27.4142 11.8284C27.7893 12.2035 28 12.7122 28 13.2426V20C28 20.8108 27.5175 21.5089 26.824 21.8229C26.3214 20.1882 24.7995 19 23 19C21.1362 19 19.5701 20.2748 19.126 22H19V12ZM3 23C3 21.8954 3.89543 21 5 21C6.10457 21 7 21.8954 7 23C7 24.1046 6.10457 25 5 25C3.89543 25 3 24.1046 3 23ZM23 21C21.8954 21 21 21.8954 21 23C21 24.1046 21.8954 25 23 25C24.1046 25 25 24.1046 25 23C25 21.8954 24.1046 21 23 21Z" fill="black"/>
</svg>
