<svg width="32" height="32" viewBox="0 0 32 32" fill="none" xmlns="http://www.w3.org/2000/svg">
<path fill-rule="evenodd" clip-rule="evenodd" d="M5 2C4.44772 2 4 2.44772 4 3V28H3C2.44772 28 2 28.4477 2 29C2 29.5523 2.44772 30 3 30H29C29.5523 30 30 29.5523 30 29C30 28.4477 29.5523 28 29 28H22V19.4142L29.7071 11.7071C30.0976 11.3166 30.0976 10.6834 29.7071 10.2929C29.3166 9.90237 28.6834 9.90237 28.2929 10.2929L20.2929 18.2929C20.1054 18.4804 20 18.7348 20 19V28H18V3C18 2.44772 17.5523 2 17 2H5ZM16 15V4H6V15H16ZM6 17H16V28H6V17Z" fill="black"/>
</svg>
