<svg width="32" height="32" viewBox="0 0 32 32" fill="none" xmlns="http://www.w3.org/2000/svg">
<path fill-rule="evenodd" clip-rule="evenodd" d="M4 3C4 2.44772 4.44772 2 5 2H20C20.5523 2 21 2.44772 21 3V9C21 9.55228 20.5523 10 20 10C19.4477 10 19 9.55228 19 9V4H6V20H7V19C7 16.7477 8.74771 15 11 15H15C15.1272 15 15.2533 15.0243 15.3714 15.0715L20.1926 17H23C23.5523 17 24 17.4477 24 18C24 18.5523 23.5523 19 23 19H20C19.8728 19 19.7467 18.9757 19.6286 18.9285L14.8074 17H11C9.85228 17 9 17.8523 9 19V20H20C20.5523 20 21 20.4477 21 21V28H29C29.5523 28 30 28.4477 30 29C30 29.5523 29.5523 30 29 30H3C2.44772 30 2 29.5523 2 29C2 28.4477 2.44772 28 3 28H4V3ZM6 22V28H19V22H6Z" fill="black"/>
<path d="M26 18C26 17.4477 26.4477 17 27 17H29C29.5523 17 30 17.4477 30 18C30 18.5523 29.5523 19 29 19H27C26.4477 19 26 18.5523 26 18Z" fill="black"/>
<path fill-rule="evenodd" clip-rule="evenodd" d="M12.5 6C10.567 6 9 7.567 9 9.5C9 11.433 10.567 13 12.5 13C14.433 13 16 11.433 16 9.5C16 7.567 14.433 6 12.5 6ZM11 9.5C11 8.67157 11.6716 8 12.5 8C13.3284 8 14 8.67157 14 9.5C14 10.3284 13.3284 11 12.5 11C11.6716 11 11 10.3284 11 9.5Z" fill="black"/>
</svg>
