<svg width="32" height="32" viewBox="0 0 32 32" fill="none" xmlns="http://www.w3.org/2000/svg">
<path fill-rule="evenodd" clip-rule="evenodd" d="M21.406 2.20066C19.4521 1.7893 17.5906 2.03915 16 2.6882C14.4095 2.03915 12.548 1.7893 10.594 2.20066L10.5863 2.20231C6.99806 2.98724 4.18167 5.90073 3.61322 9.51702C3.05897 12.7467 4.17413 15.6662 6.28935 17.6834C6.28922 17.6839 6.29082 17.6868 6.29396 17.6925C6.31242 17.7262 6.38448 17.8578 6.47553 18.1785C6.58118 18.5506 6.67696 19.0409 6.77591 19.6392C6.8339 19.9899 6.89263 20.3771 6.95483 20.7873C7.09755 21.7283 7.25858 22.7902 7.4711 23.8085C7.77676 25.2731 8.21765 26.8113 8.96581 28.0019C9.73791 29.2306 10.9054 30.1792 12.6 30.1792C13.213 30.1792 13.7694 30.0125 14.2329 29.6598C14.6838 29.3167 14.9726 28.8541 15.1638 28.3843C15.5309 27.4821 15.6246 26.3237 15.674 25.2501C15.6897 24.9078 15.701 24.5695 15.7122 24.2351C15.7385 23.4502 15.764 22.6872 15.8442 21.9462C15.883 21.5875 15.9331 21.2569 15.9964 20.9553C16.0634 21.2707 16.1156 21.6154 16.1558 21.988C16.2359 22.7315 16.2615 23.493 16.2877 24.2741C16.2989 24.6084 16.3103 24.9463 16.3261 25.2879C16.3754 26.3549 16.4691 27.5058 16.8377 28.4018C17.03 28.8693 17.3202 29.328 17.7719 29.6675C18.2354 30.0158 18.7902 30.1792 19.4 30.1792C21.0946 30.1792 22.2621 29.2306 23.0342 28.0019C23.7824 26.8113 24.2233 25.2731 24.5289 23.8085C24.7414 22.7902 24.9025 21.7284 25.0452 20.7873C25.1074 20.3771 25.1661 19.9899 25.2241 19.6392C25.3231 19.0409 25.4188 18.5506 25.5245 18.1785C25.6155 17.8578 25.6876 17.7262 25.7061 17.6925C25.7117 17.6823 25.7123 17.6811 25.7071 17.6863C27.6997 15.6937 28.9467 12.7807 28.3868 9.51704C27.8184 5.90074 25.002 2.98724 21.4137 2.20231L21.406 2.20066ZM5.58802 9.83359C6.02222 7.05475 8.20256 4.77269 11.0099 4.15695C12.6786 3.80656 14.2571 4.06939 15.5771 4.68539C15.5803 4.68687 15.5835 4.68834 15.5867 4.68978C18.0449 5.83464 19.7 8.28819 19.7 11.0792C19.7 11.6315 20.1477 12.0792 20.7 12.0792C21.2523 12.0792 21.7 11.6315 21.7 11.0792C21.7 8.27969 20.4095 5.75855 18.3642 4.08922C19.1943 3.95713 20.0788 3.96558 20.9901 4.15695C23.7975 4.77269 25.9778 7.05475 26.412 9.83359L26.4146 9.84912C26.8513 12.3824 25.8987 14.6663 24.2929 16.2721C23.9205 16.6445 23.7256 17.1916 23.6005 17.6323C23.4624 18.1187 23.352 18.7019 23.2509 19.3129C23.1845 19.7145 23.1214 20.131 23.0568 20.5577C22.9181 21.4733 22.7722 22.4363 22.5711 23.3999C22.2768 24.8103 21.8926 26.0596 21.3408 26.9378C20.8129 27.7778 20.2054 28.1792 19.4 28.1792C19.1598 28.1792 19.0427 28.1207 18.9734 28.0686C18.8924 28.0077 18.7888 27.8876 18.6873 27.641C18.4684 27.1089 18.3746 26.291 18.3239 25.1955C18.3107 24.9086 18.3004 24.6032 18.2898 24.2871C18.2624 23.4762 18.2328 22.5947 18.1442 21.7736C18.0209 20.629 17.7699 19.4129 17.1403 18.4371C17.1019 18.3775 17.0572 18.3222 17.0071 18.2721C16.7356 18.0006 16.3621 17.8292 15.9625 17.8292C15.5712 17.8292 15.1047 18.0085 14.843 18.4624C14.2235 19.4131 13.9774 20.6082 13.8558 21.731C13.7671 22.5501 13.7375 23.4336 13.7102 24.2485C13.6996 24.5647 13.6893 24.8705 13.6761 25.1583C13.6254 26.2597 13.5316 27.0889 13.3113 27.6304C13.2087 27.8824 13.1037 28.0058 13.0218 28.0682C12.9525 28.1209 12.837 28.1792 12.6 28.1792C11.7946 28.1792 11.1871 27.7778 10.6592 26.9378C10.1074 26.0596 9.72326 24.8103 9.42892 23.3999C9.22781 22.4363 9.08199 21.4736 8.94329 20.558C8.87864 20.1312 8.81554 19.7146 8.74911 19.3129C8.64806 18.7019 8.5376 18.1187 8.3995 17.6323C8.2744 17.1916 8.07955 16.6445 7.70712 16.2721C7.70075 16.2657 7.69429 16.2594 7.68776 16.2533C6.01952 14.6728 5.14484 12.4048 5.58547 9.84912L5.58802 9.83359Z" fill="black"/>
</svg>
