<svg width="32" height="32" viewBox="0 0 32 32" fill="none" xmlns="http://www.w3.org/2000/svg">
<path d="M23.68 18.28V23.37H21.68V18.28H23.68ZM21.68 16.28C21.1496 16.28 20.6409 16.4907 20.2658 16.8658C19.8907 17.2408 19.68 17.7496 19.68 18.28V23.35C19.68 23.8804 19.8907 24.3891 20.2658 24.7642C20.6409 25.1393 21.1496 25.35 21.68 25.35H23.68C24.2104 25.35 24.7191 25.1393 25.0942 24.7642C25.4693 24.3891 25.68 23.8804 25.68 23.35V18.29C25.68 17.7596 25.4693 17.2508 25.0942 16.8758C24.7191 16.5007 24.2104 16.29 23.68 16.29L21.68 16.28ZM16.6 11.2V23.4H14.6V11.17L16.6 11.2ZM14.6 9.19999C14.0696 9.19999 13.5609 9.4107 13.1858 9.78578C12.8107 10.1608 12.6 10.6696 12.6 11.2V23.36C12.6 23.8904 12.8107 24.3991 13.1858 24.7742C13.5609 25.1493 14.0696 25.36 14.6 25.36H16.6C17.1304 25.36 17.6391 25.1493 18.0142 24.7742C18.3893 24.3991 18.6 23.8904 18.6 23.36V11.18C18.6 10.6496 18.3893 10.1408 18.0142 9.76578C17.6391 9.3907 17.1304 9.17999 16.6 9.17999L14.6 9.19999ZM9.47 15.25V23.37H7.47V15.25H9.47ZM7.47 13.25C6.93957 13.25 6.43086 13.4607 6.05579 13.8358C5.68071 14.2108 5.47 14.7196 5.47 15.25V23.35C5.47 23.8804 5.68071 24.3891 6.05579 24.7642C6.43086 25.1393 6.93957 25.35 7.47 25.35H9.47C10.0004 25.35 10.5091 25.1393 10.8842 24.7642C11.2593 24.3891 11.47 23.8804 11.47 23.35V15.25C11.47 14.7196 11.2593 14.2108 10.8842 13.8358C10.5091 13.4607 10.0004 13.25 9.47 13.25H7.47ZM27.52 1.01999H2.38C2.10285 1.01999 1.83705 1.13009 1.64107 1.32606C1.4451 1.52204 1.335 1.78784 1.335 2.06499C1.335 2.34214 1.4451 2.60794 1.64107 2.80392C1.83705 2.99989 2.10285 3.10999 2.38 3.10999H27.52C27.6598 3.10281 27.7995 3.12505 27.9302 3.17527C28.0608 3.2255 28.1795 3.30259 28.2784 3.40156C28.3774 3.50054 28.4545 3.61918 28.5047 3.74983C28.5549 3.88047 28.5772 4.02021 28.57 4.15999V27.16C28.5772 27.2998 28.5549 27.4395 28.5047 27.5702C28.4545 27.7008 28.3774 27.8194 28.2784 27.9184C28.1795 28.0174 28.0608 28.0945 27.9302 28.1447C27.7995 28.1949 27.6598 28.2172 27.52 28.21H4.52C4.38022 28.2172 4.24048 28.1949 4.10984 28.1447C3.97919 28.0945 3.86055 28.0174 3.76158 27.9184C3.6626 27.8194 3.58551 27.7008 3.53528 27.5702C3.48506 27.4395 3.46282 27.2998 3.47 27.16V8.35999C3.46983 8.22435 3.49726 8.0901 3.55061 7.96539C3.60396 7.84069 3.68212 7.72814 3.78034 7.6346C3.87856 7.54106 3.99479 7.46847 4.12194 7.42126C4.2491 7.37405 4.38453 7.35321 4.52 7.35999H13.9C14.1785 7.35999 14.4455 7.24936 14.6425 7.05245C14.8394 6.85554 14.95 6.58847 14.95 6.30999C14.95 6.03151 14.8394 5.76444 14.6425 5.56753C14.4455 5.37061 14.1785 5.25999 13.9 5.25999H4.48C3.65316 5.25989 2.85943 5.58489 2.27011 6.16486C1.68078 6.74482 1.34312 7.53325 1.33 8.35999V27.21C1.33 28.0454 1.66187 28.8466 2.25261 29.4374C2.84335 30.0281 3.64457 30.36 4.48 30.36H27.48C28.3154 30.36 29.1166 30.0281 29.7074 29.4374C30.2981 28.8466 30.63 28.0454 30.63 27.21V4.20999C30.63 3.37456 30.2981 2.57334 29.7074 1.9826C29.1166 1.39186 28.3154 1.05999 27.48 1.05999L27.52 1.01999Z" fill="black"/>
</svg>
