<svg width="32" height="32" viewBox="0 0 32 32" fill="none" xmlns="http://www.w3.org/2000/svg">
<path d="M21.26 1.69C19.3227 2.97353 17.724 4.70598 16.6 6.74L17.35 3.74C16.2562 5.60031 15.5329 7.65477 15.22 9.79L13.73 8.79L13.46 9C14.8 11.42 14.1 12.7 13.46 13.16C11.9497 14.0774 10.5152 15.1141 9.17 16.26C8.32606 17.045 7.6803 18.019 7.2857 19.102C6.8911 20.185 6.75892 21.3461 6.9 22.49C7.03922 24.0236 7.63331 25.4807 8.6061 26.6744C9.5789 27.8681 10.8861 28.7441 12.36 29.19C13.6263 29.5738 14.9479 29.7428 16.27 29.69C18.4625 29.7612 20.6127 29.0762 22.36 27.75C23.222 27.0307 23.9165 26.1318 24.3949 25.1162C24.8734 24.1005 25.1242 22.9927 25.13 21.87C25.1399 20.7409 24.9106 19.6226 24.4573 18.5885C24.004 17.5543 23.337 16.6279 22.5 15.87C21.5294 15.05 20.4693 14.3422 19.34 13.76C18.82 13.47 17.22 12.23 17.76 10.45L16.61 10.29C18.3606 7.57568 20.4734 5.11296 22.89 2.97C20.8402 3.59262 19.0473 4.86272 17.78 6.59C18.7289 4.81658 19.8982 3.1702 21.26 1.69V1.69ZM14 9.47L15.17 9.95L15.68 10.17V21.59C15.4704 22.1451 15.1269 22.6397 14.68 23.03C14.1455 23.8344 13.9052 24.7988 14 25.76C14.0311 26.1677 14.1326 26.5669 14.3 26.94C14.4323 27.3391 14.6101 27.7216 14.83 28.08C15.0534 28.4184 15.3598 28.6939 15.72 28.88V28.88C14.9099 28.748 14.1405 28.4334 13.47 27.96C12.2955 26.9525 11.5189 25.5589 11.28 24.03C11.17 22.9 12.28 21.22 13.7 20.37C14.215 20.0765 14.6491 19.6597 14.9633 19.157C15.2774 18.6544 15.4619 18.0815 15.5 17.49C15.3945 18.0614 15.1676 18.6034 14.8347 19.0796C14.5017 19.5557 14.0705 19.9548 13.57 20.25C12.8021 20.579 12.1485 21.1276 11.6913 21.8267C11.2341 22.5259 10.9936 23.3446 11 24.18C11.0157 25.0101 11.2378 25.8232 11.6463 26.546C12.0548 27.2688 12.6369 27.8785 13.34 28.32C13.8747 28.6679 14.453 28.9436 15.06 29.14C12.8 28.61 12.58 28.37 11.93 27.6C11.93 27.6 11.76 27.45 11.76 27.41C10.7341 26.2518 9.96706 24.8881 9.51 23.41C9.33941 22.8944 9.30157 22.3441 9.4 21.81C10.09 19.37 11.58 18.42 13.07 17.41L14.14 16.66C14.97 16.02 15.14 14.3 15.36 13.35C15.01 14.53 14.66 15.98 14.02 16.45C13.6656 16.7052 13.2985 16.9422 12.92 17.16C11.37 18.16 9.84 19.16 9.13 21.73C9.011 22.3094 9.04898 22.9102 9.24 23.47C9.70143 25.0209 10.4929 26.4537 11.56 27.67C11.6115 27.7225 11.6583 27.7794 11.7 27.84C12.1185 28.2818 12.6312 28.6236 13.2 28.84C12.6839 28.6998 12.1817 28.5123 11.7 28.28C10.5837 27.7366 9.62159 26.9219 8.90179 25.9103C8.18199 24.8987 7.72751 23.7227 7.58 22.49C7.35 18.29 9.38 17.07 11.25 15.49C12.3 14.69 13.75 14.25 14.6 12.69C14.8065 12.097 14.8274 11.4552 14.66 10.85C14.4756 10.3738 14.2549 9.91248 14 9.47V9.47ZM15.76 10.21L16.33 10.46V10.96C16.2291 11.7347 16.2732 12.5214 16.46 13.28C16.69 14.17 17.85 15.45 18.32 16.92C19.1099 19.9968 19.1099 23.2232 18.32 26.3C18.1441 26.8819 17.8477 27.4202 17.45 27.88C17.609 27.5947 17.7364 27.2929 17.83 26.98C18.5323 25.0627 18.7454 23.0004 18.45 20.98C18.3563 20.293 18.1749 19.6208 17.91 18.98C17.33 17.59 16.5 16.27 16.4 15.98C16.1073 14.8015 15.9463 13.5941 15.92 12.38C15.9041 13.6811 16.0383 14.9797 16.32 16.25C16.4 16.52 17.16 17.7 17.7 19.13C17.9477 19.8335 18.1219 20.5607 18.22 21.3C18.3642 22.9985 18.2016 24.7091 17.74 26.35C17.5421 27.2684 17.0919 28.1134 16.44 28.79V28.79C16.9159 28.2656 17.2589 27.6346 17.44 26.95C17.7295 25.8436 17.8708 24.7036 17.86 23.56C17.7709 22.6481 17.545 21.7547 17.19 20.91C16.9629 20.3867 16.6954 19.8818 16.39 19.4C16.1566 18.6991 16.0252 17.9683 16 17.23C15.9299 18.0284 15.9941 18.8329 16.19 19.61C16.35 20.07 16.91 20.69 17.08 21.29C17.3237 22.0113 17.4749 22.7606 17.53 23.52C17.5342 24.5277 17.4336 25.5331 17.23 26.52C17.162 26.9905 17.0004 27.4426 16.7548 27.8497C16.5092 28.2567 16.1845 28.6105 15.8 28.89V28.89C16.1603 28.5193 16.4098 28.0551 16.52 27.55C16.62 27.01 16.65 26.47 16.71 25.83C16.7644 25.1606 16.7206 24.4868 16.58 23.83C16.38 22.9 16.03 21.95 15.88 21.29C15.88 22.01 16.19 22.94 16.32 23.89C16.3769 24.5555 16.3769 25.2246 16.32 25.89C16.281 26.7947 16.0812 27.6853 15.73 28.52V28.52V10.21H15.76ZM15.71 21.69V28.55C15.4938 28.4222 15.3119 28.2437 15.18 28.03C14.9398 27.6864 14.7449 27.3134 14.6 26.92C14.4453 26.5743 14.3312 26.2119 14.26 25.84C14.1335 24.9251 14.3665 23.9967 14.91 23.25C15.3054 22.8068 15.5808 22.2698 15.71 21.69V21.69Z" fill="black"/>
</svg>
