<svg width="32" height="32" viewBox="0 0 32 32" fill="none" xmlns="http://www.w3.org/2000/svg">
<path d="M15.1191 6.90796C16.3199 6.35371 17.5765 6 19 6C23.9477 6 28 10.0523 28 15C28 19.9477 23.9477 24 19 24C18.4753 24 17.9804 23.9963 17.5961 23.9194C17.0546 23.8111 16.5277 24.1623 16.4194 24.7039C16.3111 25.2454 16.6623 25.7723 17.2039 25.8806C17.8023 26.0003 18.4851 26.0001 18.9593 26L19 26C25.0523 26 30 21.0523 30 15C30 8.94772 25.0523 4 19 4C17.2236 4 15.6801 4.44629 14.281 5.09204C13.7795 5.32348 13.5606 5.91761 13.792 6.41906C14.0235 6.92051 14.6176 7.1394 15.1191 6.90796Z" fill="black"/>
<path fill-rule="evenodd" clip-rule="evenodd" d="M6.31614 6.63236C7.79192 3.83267 12 4.83243 12 8.00011V11.0001H19C21.2523 11.0001 23 12.7478 23 15.0001C23 17.2524 21.2523 19.0001 19 19.0001H15.7841L14.5744 23.9252C14.164 25.8057 12.5368 27.0001 10.7 27.0001H2V14.7508L6.31508 6.63436L6.31614 6.63236ZM14.9777 17.0001H12C11.4477 17.0001 11 17.4478 11 18.0001C11 18.5524 11.4477 19.0001 12 19.0001H13.7247L12.6253 23.476L12.6222 23.4906C12.4271 24.4011 11.6581 25.0001 10.7 25.0001H4V15.2494L8.08297 7.56954L8.08492 7.56586C8.61009 6.56802 10 6.96855 10 8.00011V13.0001H19C20.1477 13.0001 21 13.8524 21 15.0001C21 16.1478 20.1477 17.0001 19 17.0001H15.0207C15.0063 16.9998 14.992 16.9998 14.9777 17.0001Z" fill="black"/>
<path d="M19 9C17.7215 9 16.5257 9.42691 15.5882 10.1087C15.1415 10.4336 14.5161 10.3348 14.1913 9.88817C13.8664 9.44152 13.9652 8.8161 14.4118 8.49126C15.6743 7.57309 17.2785 7 19 7C23.4523 7 27 10.5477 27 15C27 19.4523 23.4523 23 19 23L18.9624 23C18.6821 23.0004 18.2404 23.0009 17.7838 22.8487C17.2598 22.674 16.9767 22.1077 17.1513 21.5838C17.326 21.0598 17.8923 20.7767 18.4162 20.9513C18.5386 20.9921 18.6775 21 19 21C22.3477 21 25 18.3477 25 15C25 11.6523 22.3477 9 19 9Z" fill="black"/>
</svg>
