<?xml version="1.0" encoding="UTF-8"?>
<svg width="24px" height="24px" viewBox="0 0 24 24" version="1.1" xmlns="http://www.w3.org/2000/svg" xmlns:xlink="http://www.w3.org/1999/xlink">
    <!-- Generator: Sketch 48.2 (47327) - http://www.bohemiancoding.com/sketch -->
    <title>traffic</title>
    <desc>Created with Sketch.</desc>
    <defs></defs>
    <g id="Page-1" stroke="none" stroke-width="1" fill="none" fill-rule="evenodd" stroke-linecap="round" stroke-linejoin="round">
        <g id="traffic" stroke="#000000" stroke-width="2">
            <polyline id="Stroke-1" points="9 12 12 15 9 18"></polyline>
            <path d="M12,15 L3,15" id="Stroke-2"></path>
            <polyline id="Stroke-4" points="15 6 12 9 15 12"></polyline>
            <path d="M12,9 L21,9" id="Stroke-5"></path>
            <path d="M21,12 L21,19 C21,20.104 20.104,21 19,21 L5,21 C3.896,21 3,20.104 3,19 L3,18" id="Stroke-7"></path>
            <path d="M3,12 L3,5 C3,3.896 3.896,3 5,3 L19,3 C20.104,3 21,3.896 21,5 L21,6" id="Stroke-9"></path>
        </g>
    </g>
</svg>