<svg width="32" height="32" viewBox="0 0 32 32" fill="none" xmlns="http://www.w3.org/2000/svg">
<path fill-rule="evenodd" clip-rule="evenodd" d="M5.12602 24H2V9C2 6.79086 3.79086 5 6 5H18C20.2091 5 22 6.79086 22 9V22H29C29.5523 22 30 22.4477 30 23C30 23.5523 29.5523 24 29 24H25V26C25 26.5523 24.5523 27 24 27C23.4477 27 23 26.5523 23 26V24H12.874C12.4299 25.7252 10.8638 27 9 27C7.13616 27 5.57006 25.7252 5.12602 24ZM4 9C4 7.89543 4.89543 7 6 7H18C19.1046 7 20 7.89543 20 9V22H12.874C12.4299 20.2748 10.8638 19 9 19C7.13616 19 5.57006 20.2748 5.12602 22H4V9ZM11 23C11 24.1046 10.1046 25 9 25C7.89543 25 7 24.1046 7 23C7 21.8954 7.89543 21 9 21C10.1046 21 11 21.8954 11 23Z" fill="black"/>
</svg>
