<svg width="32" height="32" viewBox="0 0 32 32" fill="none" xmlns="http://www.w3.org/2000/svg">
<path fill-rule="evenodd" clip-rule="evenodd" d="M5 6C5 5.44772 5.44772 5 6 5H18C20.2523 5 22 6.74772 22 9V11H22.9477C23.8559 11 24.7372 11.3091 25.4464 11.8765L28.4988 14.3184C29.4476 15.0775 30 16.2267 30 17.4419V20C30 22.2523 28.2523 24 26 24H24.874C24.4299 25.7252 22.8638 27 21 27C19.1362 27 17.5701 25.7252 17.126 24H12.874C12.4299 25.7252 10.8638 27 9 27C7.13616 27 5.57006 25.7252 5.12602 24H3C2.44772 24 2 23.5523 2 23C2 22.4477 2.44772 22 3 22H5.12602C5.57006 20.2748 7.13616 19 9 19C10.8638 19 12.4299 20.2748 12.874 22H17.126C17.4878 20.5944 18.5944 19.4878 20 19.126V19H15C14.4477 19 14 18.5523 14 18C14 17.4477 14.4477 17 15 17H20V15H8C7.44772 15 7 14.5523 7 14C7 13.4477 7.44772 13 8 13H20V11H12C11.4477 11 11 10.5523 11 10C11 9.44772 11.4477 9 12 9H20C20 7.85228 19.1477 7 18 7H6C5.44772 7 5 6.55228 5 6ZM22 19.126C23.4056 19.4878 24.5122 20.5944 24.874 22H26C27.1477 22 28 21.1477 28 20V17.4419C28 16.8343 27.7238 16.2597 27.2494 15.8801L24.197 13.4383C23.8424 13.1546 23.4018 13 22.9477 13H22V19.126ZM23 23C23 21.8954 22.1046 21 21 21C19.8954 21 19 21.8954 19 23C19 24.1046 19.8954 25 21 25C22.1046 25 23 24.1046 23 23ZM9 21C7.89543 21 7 21.8954 7 23C7 24.1046 7.89543 25 9 25C10.1046 25 11 24.1046 11 23C11 21.8954 10.1046 21 9 21Z" fill="black"/>
</svg>
