<svg width="32" height="32" viewBox="0 0 32 32" fill="none" xmlns="http://www.w3.org/2000/svg">
<path fill-rule="evenodd" clip-rule="evenodd" d="M17 21.9506C22.0533 21.4489 26 17.1853 26 12C26 6.47715 21.5228 2 16 2C10.4772 2 6 6.47715 6 12C6 17.1853 9.94668 21.4489 15 21.9506V28H13C12.4477 28 12 28.4477 12 29C12 29.5523 12.4477 30 13 30H19C19.5523 30 20 29.5523 20 29C20 28.4477 19.5523 28 19 28H17V21.9506ZM16 4C11.5817 4 8 7.58172 8 12C8 16.0796 11.0537 19.446 15 19.9381V16.4142L11.2929 12.7071C10.9024 12.3166 10.9024 11.6834 11.2929 11.2929C11.6834 10.9024 12.3166 10.9024 12.7071 11.2929L15 13.5858V8C15 7.44772 15.4477 7 16 7C16.5523 7 17 7.44772 17 8V9.58579L17.2929 9.29289C17.6834 8.90237 18.3166 8.90237 18.7071 9.29289C19.0976 9.68342 19.0976 10.3166 18.7071 10.7071L17 12.4142V19.9381C20.9463 19.446 24 16.0796 24 12C24 7.58172 20.4183 4 16 4Z" fill="black"/>
</svg>
