<?xml version="1.0" encoding="UTF-8"?>
<svg width="24px" height="24px" viewBox="0 0 24 24" version="1.1" xmlns="http://www.w3.org/2000/svg" xmlns:xlink="http://www.w3.org/1999/xlink">
    <!-- Generator: Sketch 48.2 (47327) - http://www.bohemiancoding.com/sketch -->
    <title>truck</title>
    <desc>Created with Sketch.</desc>
    <defs></defs>
    <g id="Page-1" stroke="none" stroke-width="1" fill="none" fill-rule="evenodd" stroke-linecap="round" stroke-linejoin="round">
        <g id="truck" stroke="#000000" stroke-width="1.5">
            <polyline id="Stroke-1" points="16 9 20 9 23 12 23 17 20 17"></polyline>
            <path d="M5.5,20 C6.881,20 8,18.881 8,17.5 C8,16.119 6.881,15 5.5,15 C4.119,15 3,16.119 3,17.5 C3,18.881 4.119,20 5.5,20 Z" id="Stroke-3"></path>
            <path d="M17.5,20 C18.881,20 20,18.881 20,17.5 C20,16.119 18.881,15 17.5,15 C16.119,15 15,16.119 15,17.5 C15,18.881 16.119,20 17.5,20 Z" id="Stroke-5"></path>
            <path d="M15,17 L7.95,17" id="Stroke-7"></path>
            <polyline id="Stroke-9" points="3.0518 17 0.9998 17 0.9998 4 15.9998 4 15.9998 15.509"></polyline>
        </g>
    </g>
</svg>