<svg width="32" height="32" viewBox="0 0 32 32" fill="none" xmlns="http://www.w3.org/2000/svg">
<path d="M23 11C23 10.4477 22.5523 10 22 10C21.4477 10 21 10.4477 21 11V16H26C26.5523 16 27 15.5523 27 15C27 14.4477 26.5523 14 26 14H23V11Z" fill="black"/>
<path fill-rule="evenodd" clip-rule="evenodd" d="M14.874 23H19.126C19.5701 24.7252 21.1362 26 23 26C24.9002 26 26.4908 24.6751 26.8986 22.8987C28.6751 22.4909 30 20.9002 30 19V12.2426C30 11.1818 29.5786 10.1644 28.8284 9.41421L27.5858 8.17157C26.8356 7.42143 25.8182 7 24.7574 7H21C18.7909 7 17 8.79086 17 11V21H14.874C14.4299 19.2748 12.8638 18 11 18C9.80531 18 8.73295 18.5238 8 19.3542C7.26706 18.5238 6.19469 18 5 18C2.79086 18 1 19.7909 1 22C1 24.2091 2.79086 26 5 26C6.19469 26 7.26706 25.4762 8 24.6458C8.73295 25.4762 9.80531 26 11 26C12.8638 26 14.4299 24.7252 14.874 23ZM21 9C19.8954 9 19 9.89543 19 11V21H19.126C19.5701 19.2748 21.1362 18 23 18C24.7995 18 26.3214 19.1882 26.824 20.8229C27.5175 20.5089 28 19.8108 28 19V12.2426C28 11.7122 27.7893 11.2035 27.4142 10.8284L26.1716 9.58579C25.7965 9.21071 25.2878 9 24.7574 9H21ZM5 20C3.89543 20 3 20.8954 3 22C3 23.1046 3.89543 24 5 24C6.10457 24 7 23.1046 7 22C7 20.8954 6.10457 20 5 20ZM11 24C9.89543 24 9 23.1046 9 22C9 20.8954 9.89543 20 11 20C12.1046 20 13 20.8954 13 22C13 23.1046 12.1046 24 11 24ZM21 22C21 20.8954 21.8954 20 23 20C24.1046 20 25 20.8954 25 22C25 23.1046 24.1046 24 23 24C21.8954 24 21 23.1046 21 22Z" fill="black"/>
</svg>
