<svg width="32" height="32" viewBox="0 0 32 32" fill="none" xmlns="http://www.w3.org/2000/svg">
<path fill-rule="evenodd" clip-rule="evenodd" d="M24.874 24H26C28.2091 24 30 22.2091 30 20V17.4419C30 16.2267 29.4476 15.0775 28.4988 14.3184L25.4464 11.8765C24.7372 11.3091 23.8559 11 22.9477 11H22V9C22 6.79086 20.2091 5 18 5H6C3.79086 5 2 6.79086 2 9V24H5.12602C5.57006 25.7252 7.13616 27 9 27C10.8638 27 12.4299 25.7252 12.874 24H17.126C17.5701 25.7252 19.1362 27 21 27C22.8638 27 24.4299 25.7252 24.874 24ZM6 7C4.89543 7 4 7.89543 4 9V22H5.12602C5.57006 20.2748 7.13616 19 9 19C10.8638 19 12.4299 20.2748 12.874 22H17.126C17.4878 20.5944 18.5944 19.4878 20 19.126V9C20 7.89543 19.1046 7 18 7H6ZM22 19.126C23.4056 19.4878 24.5122 20.5944 24.874 22H26C27.1046 22 28 21.1046 28 20V17.4419C28 16.8343 27.7238 16.2597 27.2494 15.8801L24.197 13.4383C23.8424 13.1546 23.4018 13 22.9477 13H22V19.126ZM9 21C7.89543 21 7 21.8954 7 23C7 24.1046 7.89543 25 9 25C10.1046 25 11 24.1046 11 23C11 21.8954 10.1046 21 9 21ZM19 23C19 21.8954 19.8954 21 21 21C22.1046 21 23 21.8954 23 23C23 24.1046 22.1046 25 21 25C19.8954 25 19 24.1046 19 23Z" fill="black"/>
</svg>
