<svg width="32" height="32" viewBox="0 0 32 32" fill="none" xmlns="http://www.w3.org/2000/svg">
<path fill-rule="evenodd" clip-rule="evenodd" d="M7.80742 3H13V4C13 5.64772 14.3523 7 16 7C17.6477 7 19 5.64772 19 4V3H24.1926L30 5.32297V13H25.3V25C25.3 27.2523 23.5523 29 21.3 29H10.6C8.34772 29 6.6 27.2523 6.6 25V13H2V5.32297L7.80742 3ZM8.19258 5L4 6.67703V11H8.6V25C8.6 26.1477 9.45228 27 10.6 27H21.3C22.4477 27 23.3 26.1477 23.3 25V11H28V6.67703L23.8074 5H20.8991C20.4332 7.27654 18.41 9 16 9C13.59 9 11.5668 7.27654 11.1009 5H8.19258Z" fill="black"/>
</svg>
