<svg width="32" height="32" viewBox="0 0 32 32" fill="none" xmlns="http://www.w3.org/2000/svg">
<path fill-rule="evenodd" clip-rule="evenodd" d="M7 5C7.55228 5 8 5.44772 8 6V12.126C9.72523 12.5701 11 14.1362 11 16C11 17.8638 9.72523 19.4299 8 19.874V26C8 26.5523 7.55228 27 7 27C6.44772 27 6 26.5523 6 26V19.874C4.27477 19.4299 3 17.8638 3 16C3 14.1362 4.27477 12.5701 6 12.126V6C6 5.44772 6.44772 5 7 5ZM7 18C8.10457 18 9 17.1046 9 16C9 14.8954 8.10457 14 7 14C5.89543 14 5 14.8954 5 16C5 17.1046 5.89543 18 7 18Z" fill="black"/>
<path fill-rule="evenodd" clip-rule="evenodd" d="M16 5C16.5523 5 17 5.44772 17 6V16.126C18.7252 16.5701 20 18.1362 20 20C20 21.8638 18.7252 23.4299 17 23.874V26C17 26.5523 16.5523 27 16 27C15.4477 27 15 26.5523 15 26V23.874C13.2748 23.4299 12 21.8638 12 20C12 18.1362 13.2748 16.5701 15 16.126V6C15 5.44772 15.4477 5 16 5ZM18 20C18 21.1046 17.1046 22 16 22C14.8954 22 14 21.1046 14 20C14 18.8954 14.8954 18 16 18C17.1046 18 18 18.8954 18 20Z" fill="black"/>
<path fill-rule="evenodd" clip-rule="evenodd" d="M26 6C26 5.44772 25.5523 5 25 5C24.4477 5 24 5.44772 24 6V10.126C22.2748 10.5701 21 12.1362 21 14C21 15.8638 22.2748 17.4299 24 17.874V26C24 26.5523 24.4477 27 25 27C25.5523 27 26 26.5523 26 26V17.874C27.7252 17.4299 29 15.8638 29 14C29 12.1362 27.7252 10.5701 26 10.126V6ZM25 16C26.1046 16 27 15.1046 27 14C27 12.8954 26.1046 12 25 12C23.8954 12 23 12.8954 23 14C23 15.1046 23.8954 16 25 16Z" fill="black"/>
</svg>
