<svg width="32" height="32" viewBox="0 0 32 32" fill="none" xmlns="http://www.w3.org/2000/svg">
<path d="M30.67 6.59C29.5717 7.08074 28.4049 7.4011 27.21 7.54C28.4668 6.78924 29.4057 5.6049 29.85 4.21C28.6593 4.91687 27.3576 5.41726 26 5.69C25.1775 4.81147 24.1098 4.20059 22.9356 3.9367C21.7615 3.67281 20.5351 3.76812 19.4158 4.21023C18.2965 4.65235 17.336 5.42084 16.6591 6.41589C15.9822 7.41093 15.6201 8.58654 15.62 9.79C15.6172 10.2515 15.6709 10.7116 15.78 11.16C13.3866 11.0447 11.0445 10.4247 8.90754 9.34069C6.77054 8.25667 4.88684 6.73314 3.38 4.87C2.61472 6.19 2.38107 7.75198 2.7266 9.23814C3.07214 10.7243 3.97089 12.023 5.24 12.87C4.28307 12.8337 3.34801 12.5734 2.51 12.11V12.19C2.50648 13.5808 2.98626 14.9297 3.86729 16.0059C4.74832 17.0821 5.97587 17.8188 7.34 18.09C6.82427 18.2262 6.29341 18.2967 5.76 18.3C5.3774 18.299 4.99573 18.2622 4.62 18.19C5.00275 19.3856 5.7509 20.4311 6.75909 21.1792C7.76729 21.9273 8.98474 22.3403 10.24 22.36C8.11274 24.0388 5.47989 24.9481 2.77 24.94C2.28892 24.9388 1.80825 24.9121 1.33 24.86C4.08267 26.6296 7.28759 27.5671 10.56 27.56C21.63 27.56 27.68 18.39 27.68 10.44V9.66C28.86 8.8134 29.8764 7.75966 30.68 6.55L30.67 6.59Z" fill="black"/>
</svg>
