<svg xmlns="http://www.w3.org/2000/svg" width="64" height="64" viewBox="0 0 64 64">
  <title>umbrella</title>
  <line x1="32" y1="10" x2="32" y2="6" fill="none" stroke="#000" stroke-linecap="round" stroke-linejoin="round" stroke-width="4"/>
  <path d="M59,37A27,27,0,0,0,5,37" fill="none" stroke="#000" stroke-linecap="round" stroke-linejoin="round" stroke-width="4"/>
  <path d="M32,34V52a5,5,0,0,0,10,0V50" fill="none" stroke="#000" stroke-linecap="round" stroke-linejoin="round" stroke-width="4"/>
  <path d="M5,37a18.14,18.14,0,0,1,9.45-3,17.55,17.55,0,0,1,8.74,2.69A17.71,17.71,0,0,1,32,34a17.71,17.71,0,0,1,8.81,2.69A17.55,17.55,0,0,1,49.55,34,18.14,18.14,0,0,1,59,37" fill="none" stroke="#000" stroke-linecap="round" stroke-linejoin="round" stroke-width="4"/>
</svg>
