<svg width="32" height="32" viewBox="0 0 32 32" fill="none" xmlns="http://www.w3.org/2000/svg">
<path fill-rule="evenodd" clip-rule="evenodd" d="M16 2C16.5523 2 17 2.44772 17 3V4.03833C23.6894 4.55293 29 10.1841 29 17V18H17V26C17 27.1477 17.8523 28 19 28C20.1477 28 21 27.1477 21 26V25C21 24.4477 21.4477 24 22 24C22.5523 24 23 24.4477 23 25V26C23 28.2523 21.2523 30 19 30C16.7477 30 15 28.2523 15 26V18H3V17C3 10.1841 8.31061 4.55293 15 4.03833V3C15 2.44772 15.4477 2 16 2ZM26.9545 16C26.4448 10.4158 21.7108 6 16 6C10.2892 6 5.55525 10.4158 5.04545 16H26.9545Z" fill="black"/>
</svg>
