<svg width="32" height="32" viewBox="0 0 32 32" fill="none" xmlns="http://www.w3.org/2000/svg">
<path d="M16 18.0735C14.8954 18.0735 14 18.9689 14 20.0735C14 20.8138 14.4022 21.4601 15 21.8059V25.0735C15 25.6258 15.4477 26.0735 16 26.0735C16.5523 26.0735 17 25.6258 17 25.0735V21.8059C17.5978 21.4601 18 20.8138 18 20.0735C18 18.9689 17.1046 18.0735 16 18.0735Z" fill="black"/>
<path fill-rule="evenodd" clip-rule="evenodd" d="M13.5592 4.06078C16.1312 3.64595 18.6034 5.39503 19.0127 7.93277C19.1007 8.47801 19.614 8.84872 20.1592 8.76078C20.7045 8.67284 21.0752 8.15954 20.9872 7.61431C20.3965 3.95204 16.8688 1.50113 13.2408 2.0863C9.57849 2.67698 7.12756 6.20472 7.71273 9.83277L8.46797 14.3642C7.00274 14.951 6 16.3675 6 18.0735V26.0735C6 28.3258 7.74772 30.0735 10 30.0735H22C24.2523 30.0735 26 28.3258 26 26.0735V18.0735C26 15.8212 24.2523 14.0735 22 14.0735H10.4471L9.68723 9.51431L9.68683 9.51185C9.27351 6.94079 11.0223 4.46996 13.5592 4.06078ZM8 18.0735C8 16.9258 8.85228 16.0735 10 16.0735H22C23.1477 16.0735 24 16.9258 24 18.0735V26.0735C24 27.2212 23.1477 28.0735 22 28.0735H10C8.85228 28.0735 8 27.2212 8 26.0735V18.0735Z" fill="black"/>
</svg>
