<svg width="32" height="32" viewBox="0 0 32 32" fill="none" xmlns="http://www.w3.org/2000/svg">
<path d="M16.7174 8.30334L23.7071 15.293C24.0976 15.6836 24.0976 16.3167 23.7071 16.7073C23.3166 17.0978 22.6834 17.0978 22.2929 16.7073L17 11.4144V23C17 23.5523 16.5523 24 16 24C15.4477 24 15 23.5523 15 23V11.4144L9.70711 16.7073C9.31658 17.0978 8.68342 17.0978 8.29289 16.7073C7.90237 16.3167 7.90237 15.6836 8.29289 15.293L15.2826 8.30334C15.2894 8.29633 15.2963 8.28941 15.3033 8.28259L16 7.58594L16.6967 8.2826C16.7037 8.28941 16.7106 8.29633 16.7174 8.30334Z" fill="black"/>
<path fill-rule="evenodd" clip-rule="evenodd" d="M2 6C2 3.74772 3.74772 2 6 2H26C28.2523 2 30 3.74772 30 6V26C30 28.2523 28.2523 30 26 30H6C3.74772 30 2 28.2523 2 26V6ZM6 4C4.85228 4 4 4.85228 4 6V26C4 27.1477 4.85228 28 6 28H26C27.1477 28 28 27.1477 28 26V6C28 4.85228 27.1477 4 26 4H6Z" fill="black"/>
</svg>
