<?xml version="1.0" encoding="UTF-8"?>
<svg width="24px" height="24px" viewBox="0 0 24 24" version="1.1" xmlns="http://www.w3.org/2000/svg" xmlns:xlink="http://www.w3.org/1999/xlink">
    <!-- Generator: Sketch 48.2 (47327) - http://www.bohemiancoding.com/sketch -->
    <title>upload</title>
    <desc>Created with Sketch.</desc>
    <defs></defs>
    <g id="Page-1" stroke="none" stroke-width="1" fill="none" fill-rule="evenodd" stroke-linecap="round" stroke-linejoin="round">
        <g id="upload" stroke="#000000" stroke-width="2">
            <path d="M8,10 L7.24,10 C6.48105603,10.0004027 5.78773001,10.4303423 5.45,11.11 L2,16 L2,20 C2,21.1045695 2.8954305,22 4,22 L20,22 C21.1045695,22 22,21.1045695 22,20 L22,16 L18.55,11.11 C18.21227,10.4303423 17.518944,10.0004027 16.76,10 L16,10" id="Shape"></path>
            <path d="M22,16 L2,16" id="Shape"></path>
            <path d="M10.0990195,19 L5,19" id="Shape-Copy"></path>
            <path d="M14,19 L13,19" id="Shape-Copy-2"></path>
            <polyline id="Shape" points="9 5 12 2 15 5"></polyline>
            <path d="M12,2 L12,10" id="Shape"></path>
        </g>
    </g>
</svg>