<svg width="32" height="32" viewBox="0 0 32 32" fill="none" xmlns="http://www.w3.org/2000/svg">
<path d="M27.52 1.01999H2.38C2.10285 1.01999 1.83705 1.13009 1.64108 1.32606C1.4451 1.52204 1.335 1.78784 1.335 2.06499C1.335 2.34214 1.4451 2.60794 1.64108 2.80392C1.83705 2.99989 2.10285 3.10999 2.38 3.10999H27.52C27.6598 3.10281 27.7995 3.12505 27.9302 3.17527C28.0608 3.2255 28.1795 3.30259 28.2784 3.40156C28.3774 3.50054 28.4545 3.61918 28.5047 3.74983C28.5549 3.88047 28.5772 4.02021 28.57 4.15999V27.16C28.5772 27.2998 28.5549 27.4395 28.5047 27.5702C28.4545 27.7008 28.3774 27.8194 28.2784 27.9184C28.1795 28.0174 28.0608 28.0945 27.9302 28.1447C27.7995 28.1949 27.6598 28.2172 27.52 28.21H4.52C4.38436 28.2102 4.25011 28.1827 4.12541 28.1294C4.0007 28.076 3.88816 27.9979 3.79461 27.8996C3.70107 27.8014 3.62849 27.6852 3.58128 27.558C3.53407 27.4309 3.51322 27.2955 3.52 27.16V8.35999C3.52 8.09477 3.62536 7.84042 3.8129 7.65288C4.00043 7.46535 4.25479 7.35999 4.52 7.35999H13.9C14.1785 7.35999 14.4456 7.24936 14.6425 7.05245C14.8394 6.85554 14.95 6.58847 14.95 6.30999C14.95 6.03151 14.8394 5.76444 14.6425 5.56753C14.4456 5.37061 14.1785 5.25999 13.9 5.25999H4.47C3.64489 5.2625 2.85371 5.58867 2.26654 6.16836C1.67937 6.74805 1.3431 7.53498 1.33 8.35999V27.21C1.33 28.0437 1.6605 28.8434 2.24908 29.4338C2.83766 30.0243 3.6363 30.3573 4.47 30.36H27.52C27.9332 30.36 28.3423 30.2784 28.7239 30.12C29.1056 29.9616 29.4522 29.7294 29.7439 29.4368C30.0356 29.1441 30.2667 28.7968 30.4239 28.4147C30.5811 28.0326 30.6613 27.6232 30.66 27.21V4.20999C30.6613 3.7968 30.5811 3.38741 30.4239 3.00529C30.2667 2.62317 30.0356 2.27584 29.7439 1.98321C29.4522 1.69057 29.1056 1.45838 28.7239 1.29996C28.3423 1.14154 27.9332 1.05999 27.52 1.05999V1.01999ZM12.85 24.02C12.572 24.0187 12.3059 23.9072 12.11 23.71L7.92 19.57C7.72374 19.3737 7.61348 19.1075 7.61348 18.83C7.61348 18.5524 7.72374 18.2862 7.92 18.09C8.11626 17.8937 8.38245 17.7835 8.66 17.7835C8.93756 17.7835 9.20374 17.8937 9.4 18.09L12.85 21.54L22.59 11.81C22.7863 11.6137 23.0524 11.5035 23.33 11.5035C23.6076 11.5035 23.8737 11.6137 24.07 11.81C24.2663 12.0062 24.3765 12.2724 24.3765 12.55C24.3765 12.8275 24.2663 13.0937 24.07 13.29L13.59 23.76C13.4947 23.86 13.3798 23.9391 13.2525 23.9925C13.1251 24.0458 12.9881 24.0722 12.85 24.07V24.02Z" fill="black"/>
</svg>
