<svg width="32" height="32" viewBox="0 0 32 32" fill="none" xmlns="http://www.w3.org/2000/svg">
<path d="M16 10C16 9.44772 15.5523 9 15 9C14.4477 9 14 9.44772 14 10V16H19C19.5523 16 20 15.5523 20 15C20 14.4477 19.5523 14 19 14H16V10Z" fill="black"/>
<path fill-rule="evenodd" clip-rule="evenodd" d="M27 23H26.874C26.4299 24.7252 24.8638 26 23 26C21.1362 26 19.5701 24.7252 19.126 23H11.874C11.4299 24.7252 9.86384 26 8 26C6.13616 26 4.57006 24.7252 4.12602 23H1V10C1 7.79086 2.79086 6 5 6H15.5949C16.782 6 17.9078 6.52729 18.6678 7.43926L22.5592 12.109L27.9701 13.4618C29.7508 13.9069 31 15.5069 31 17.3423V19C31 21.2091 29.2091 23 27 23ZM3 10C3 8.89543 3.89543 8 5 8H15.5949C16.1884 8 16.7513 8.26365 17.1313 8.71963L21.4408 13.891L27.4851 15.402C28.3754 15.6246 29 16.4246 29 17.3423V19C29 20.1046 28.1046 21 27 21H26.874C26.4299 19.2748 24.8638 18 23 18C21.1362 18 19.5701 19.2748 19.126 21H11.874C11.4299 19.2748 9.86384 18 8 18C6.13616 18 4.57006 19.2748 4.12602 21H3V10ZM6 22C6 20.8954 6.89543 20 8 20C9.10457 20 10 20.8954 10 22C10 23.1046 9.10457 24 8 24C6.89543 24 6 23.1046 6 22ZM23 20C21.8954 20 21 20.8954 21 22C21 23.1046 21.8954 24 23 24C24.1046 24 25 23.1046 25 22C25 20.8954 24.1046 20 23 20Z" fill="black"/>
</svg>
