<svg width="32" height="32" viewBox="0 0 32 32" fill="none" xmlns="http://www.w3.org/2000/svg">
<path fill-rule="evenodd" clip-rule="evenodd" d="M12.3774 12.6983C13.0161 14.0583 14.3981 15 16 15C17.5993 15 18.9794 14.0614 19.6195 12.705C21.6951 13.6242 23.38 15.268 24.3017 17.3774C22.9417 18.0161 22 19.3981 22 21C22 23.2091 23.7909 25 26 25C28.2091 25 30 23.2091 30 21C30 18.8965 28.3762 17.1722 26.3138 17.0121C25.5169 14.9511 24.1393 13.2324 22.4048 12H26.8819C27.1566 12.3069 27.5557 12.5 28 12.5C28.8284 12.5 29.5 11.8284 29.5 11C29.5 10.1716 28.8284 9.5 28 9.5C27.5557 9.5 27.1566 9.69313 26.8819 10H19.874C19.4299 8.27477 17.8638 7 16 7C14.1362 7 12.5701 8.27477 12.126 10H5.11805C4.84339 9.69313 4.44425 9.5 4 9.5C3.17157 9.5 2.5 10.1716 2.5 11C2.5 11.8284 3.17157 12.5 4 12.5C4.44425 12.5 4.84339 12.3069 5.11805 12H9.5806C7.82837 13.256 6.4835 15.0022 5.69207 17.0117C3.62681 17.1689 2 18.8945 2 21C2 23.2091 3.79086 25 6 25C8.20914 25 10 23.2091 10 21C10 19.4007 9.06144 18.0207 7.70508 17.3806C8.62426 15.3049 10.2681 13.62 12.3774 12.6983ZM14 11C14 9.89543 14.8954 9 16 9C17.1046 9 18 9.89543 18 11C18 12.1046 17.1046 13 16 13C14.8954 13 14 12.1046 14 11ZM6 19C4.89543 19 4 19.8954 4 21C4 22.1046 4.89543 23 6 23C7.10457 23 8 22.1046 8 21C8 19.8954 7.10457 19 6 19ZM24 21C24 19.8954 24.8954 19 26 19C27.1046 19 28 19.8954 28 21C28 22.1046 27.1046 23 26 23C24.8954 23 24 22.1046 24 21Z" fill="black"/>
</svg>
