<svg width="32" height="32" viewBox="0 0 32 32" fill="none" xmlns="http://www.w3.org/2000/svg">
<path fill-rule="evenodd" clip-rule="evenodd" d="M12 16C11.4477 16 11 16.4477 11 17V20C11 20.5523 11.4477 21 12 21H20C20.5523 21 21 20.5523 21 20V17C21 16.4477 20.5523 16 20 16H12ZM19 19H13V18H19V19Z" fill="black"/>
<path d="M24.5 20C25.3284 20 26 19.3284 26 18.5C26 17.6716 25.3284 17 24.5 17C23.6716 17 23 17.6716 23 18.5C23 19.3284 23.6716 20 24.5 20Z" fill="black"/>
<path d="M9 18.5C9 19.3284 8.32843 20 7.5 20C6.67157 20 6 19.3284 6 18.5C6 17.6716 6.67157 17 7.5 17C8.32843 17 9 17.6716 9 18.5Z" fill="black"/>
<path fill-rule="evenodd" clip-rule="evenodd" d="M10.5 2C8.62938 2 6.91409 3.33054 6.51942 5.30388L6.51434 5.32927L5.53222 12.0256C3.51028 12.2486 2 13.9063 2 16V21C2 22.9055 3.25092 24.4498 5 24.8802V28C5 28.5272 5.18011 29.0443 5.56789 29.4321C5.95567 29.8199 6.47275 30 7 30H10C10.5272 30 11.0443 29.8199 11.4321 29.4321C11.8199 29.0443 12 28.5272 12 28V25H20V28C20 28.5272 20.1801 29.0443 20.5679 29.4321C20.9557 29.8199 21.4728 30 22 30H25C25.5272 30 26.0443 29.8199 26.4321 29.4321C26.8199 29.0443 27 28.5272 27 28V24.8802C28.7491 24.4498 30 22.9055 30 21V16C30 13.9024 28.4842 12.2425 26.4566 12.0243L25.3894 5.35401C25.1114 3.32279 23.3532 2 21.5 2H10.5ZM7.26403 14L8.48531 5.6731C8.69917 4.65947 9.57758 4 10.5 4H21.5C22.4426 4 23.2806 4.6712 23.4088 5.63216L23.4105 5.6451L24.7473 14H26C27.1477 14 28 14.8523 28 16V21C28 22.1477 27.1477 23 26 23H25V28H22V23H10V28H7V23H6C4.85228 23 4 22.1477 4 21V16C4 14.8523 4.85228 14 6 14H7.26403Z" fill="black"/>
</svg>
