<svg width="32" height="32" viewBox="0 0 32 32" fill="none" xmlns="http://www.w3.org/2000/svg">
<path fill-rule="evenodd" clip-rule="evenodd" d="M4 4C3.47275 4 2.95567 4.18011 2.56789 4.56789C2.18011 4.95567 2 5.47275 2 6V26C2 26.5272 2.18011 27.0443 2.56789 27.4321C2.95567 27.8199 3.47275 28 4 28H13C13.5272 28 14.0443 27.8199 14.4321 27.4321C14.8199 27.0443 15 26.5272 15 26V6C15 5.47275 14.8199 4.95567 14.4321 4.56789C14.0443 4.18011 13.5272 4 13 4H4ZM4 26V6H13V26H4Z" fill="black"/>
<path fill-rule="evenodd" clip-rule="evenodd" d="M19 4C18.4728 4 17.9557 4.18011 17.5679 4.56789C17.1801 4.95567 17 5.47275 17 6V26C17 26.5272 17.1801 27.0443 17.5679 27.4321C17.9557 27.8199 18.4728 28 19 28H28C28.5272 28 29.0443 27.8199 29.4321 27.4321C29.8199 27.0443 30 26.5272 30 26V6C30 5.47275 29.8199 4.95567 29.4321 4.56789C29.0443 4.18011 28.5272 4 28 4H19ZM19 26V6H28V26H19Z" fill="black"/>
</svg>
