<svg width="32" height="32" viewBox="0 0 32 32" fill="none" xmlns="http://www.w3.org/2000/svg">
<path fill-rule="evenodd" clip-rule="evenodd" d="M4 4H28C28.5272 4 29.0443 4.18011 29.4321 4.56789C29.8199 4.95567 30 5.47275 30 6V26C30 26.5272 29.8199 27.0443 29.4321 27.4321C29.0443 27.8199 28.5272 28 28 28H4C3.47275 28 2.95567 27.8199 2.56789 27.4321C2.18011 27.0443 2 26.5272 2 26V6C2 5.47275 2.18011 4.95567 2.56789 4.56789C2.95567 4.18011 3.47275 4 4 4ZM4 11V6H12V11H4ZM22 26H28V23H22V26ZM20 23V26H14V23H20ZM22 21H28V18H22V21ZM20 18V21H14V18H20ZM22 16H28V13H22V16ZM20 13V16H14V13H20ZM22 11H28V6H22V11ZM20 6V11H14V6H20ZM4 13H12V16H4V13ZM4 18H12V21H4V18ZM4 23H12V26H4V23Z" fill="black"/>
</svg>
