<svg width="32" height="32" viewBox="0 0 32 32" fill="none" xmlns="http://www.w3.org/2000/svg">
<path fill-rule="evenodd" clip-rule="evenodd" d="M6 2C5.47275 2 4.95567 2.18011 4.56789 2.56789C4.18011 2.95567 4 3.47275 4 4V13C4 13.5272 4.18011 14.0443 4.56789 14.4321C4.95567 14.8199 5.47275 15 6 15H26C26.5272 15 27.0443 14.8199 27.4321 14.4321C27.8199 14.0443 28 13.5272 28 13V4C28 3.47275 27.8199 2.95567 27.4321 2.56789C27.0443 2.18011 26.5272 2 26 2H6ZM6 13V4H26V13H6Z" fill="black"/>
<path fill-rule="evenodd" clip-rule="evenodd" d="M6 17C5.47275 17 4.95567 17.1801 4.56789 17.5679C4.18011 17.9557 4 18.4728 4 19V28C4 28.5272 4.18011 29.0443 4.56789 29.4321C4.95567 29.8199 5.47275 30 6 30H26C26.5272 30 27.0443 29.8199 27.4321 29.4321C27.8199 29.0443 28 28.5272 28 28V19C28 18.4728 27.8199 17.9557 27.4321 17.5679C27.0443 17.1801 26.5272 17 26 17H6ZM6 28V19H26V28H6Z" fill="black"/>
</svg>
