<svg width="32" height="32" viewBox="0 0 32 32" fill="none" xmlns="http://www.w3.org/2000/svg">
<path fill-rule="evenodd" clip-rule="evenodd" d="M4 6V26H28V6H4ZM2.56789 4.56789C2.95567 4.18011 3.47275 4 4 4H28C28.5272 4 29.0443 4.18011 29.4321 4.56789C29.8199 4.95567 30 5.47275 30 6V26C30 26.5272 29.8199 27.0443 29.4321 27.4321C29.0443 27.8199 28.5272 28 28 28H4C3.47275 28 2.95567 27.8199 2.56789 27.4321C2.18011 27.0443 2 26.5272 2 26V6C2 5.47275 2.18011 4.95567 2.56789 4.56789Z" fill="black"/>
</svg>
