<svg width="32" height="32" viewBox="0 0 32 32" fill="none" xmlns="http://www.w3.org/2000/svg">
<path fill-rule="evenodd" clip-rule="evenodd" d="M4 2C3.47275 2 2.95567 2.18011 2.56789 2.56789C2.18011 2.95567 2 3.47275 2 4V13C2 13.5272 2.18011 14.0443 2.56789 14.4321C2.95567 14.8199 3.47275 15 4 15H13C13.5272 15 14.0443 14.8199 14.4321 14.4321C14.8199 14.0443 15 13.5272 15 13V4C15 3.47275 14.8199 2.95567 14.4321 2.56789C14.0443 2.18011 13.5272 2 13 2H4ZM4 13V4H13V13H4Z" fill="black"/>
<path d="M18 5C17.4477 5 17 5.44772 17 6C17 6.55228 17.4477 7 18 7H28C28.5523 7 29 6.55228 29 6C29 5.44772 28.5523 5 28 5H18Z" fill="black"/>
<path d="M17 11C17 10.4477 17.4477 10 18 10H24C24.5523 10 25 10.4477 25 11C25 11.5523 24.5523 12 24 12H18C17.4477 12 17 11.5523 17 11Z" fill="black"/>
<path fill-rule="evenodd" clip-rule="evenodd" d="M4 17C3.47275 17 2.95567 17.1801 2.56789 17.5679C2.18011 17.9557 2 18.4728 2 19V28C2 28.5272 2.18011 29.0443 2.56789 29.4321C2.95567 29.8199 3.47275 30 4 30H13C13.5272 30 14.0443 29.8199 14.4321 29.4321C14.8199 29.0443 15 28.5272 15 28V19C15 18.4728 14.8199 17.9557 14.4321 17.5679C14.0443 17.1801 13.5272 17 13 17H4ZM4 28V19H13V28H4Z" fill="black"/>
<path d="M17 21C17 20.4477 17.4477 20 18 20H28C28.5523 20 29 20.4477 29 21C29 21.5523 28.5523 22 28 22H18C17.4477 22 17 21.5523 17 21Z" fill="black"/>
<path d="M18 25C17.4477 25 17 25.4477 17 26C17 26.5523 17.4477 27 18 27H24C24.5523 27 25 26.5523 25 26C25 25.4477 24.5523 25 24 25H18Z" fill="black"/>
</svg>
