<svg width="32" height="32" viewBox="0 0 32 32" fill="none" xmlns="http://www.w3.org/2000/svg">
<path fill-rule="evenodd" clip-rule="evenodd" d="M4.56789 4.56789C4.95567 4.18011 5.47275 4 6 4H26C26.5272 4 27.0443 4.18011 27.4321 4.56789C27.8199 4.95567 28 5.47275 28 6V15C28 15.5272 27.8199 16.0443 27.4321 16.4321C27.0443 16.8199 26.5272 17 26 17H6C5.47275 17 4.95567 16.8199 4.56789 16.4321C4.18011 16.0443 4 15.5272 4 15V6C4 5.47275 4.18011 4.95567 4.56789 4.56789ZM6 6V15H26V6H6Z" fill="black"/>
<path d="M5 21C5 20.4477 5.44772 20 6 20H25C25.5523 20 26 20.4477 26 21C26 21.5523 25.5523 22 25 22H6C5.44772 22 5 21.5523 5 21Z" fill="black"/>
<path d="M6 25C5.44772 25 5 25.4477 5 26C5 26.5523 5.44772 27 6 27H21C21.5523 27 22 26.5523 22 26C22 25.4477 21.5523 25 21 25H6Z" fill="black"/>
</svg>
