<svg width="32" height="32" viewBox="0 0 32 32" fill="none" xmlns="http://www.w3.org/2000/svg">
<path fill-rule="evenodd" clip-rule="evenodd" d="M4 2C3.47275 2 2.95567 2.18011 2.56789 2.56789C2.18011 2.95567 2 3.47275 2 4V13C2 13.5272 2.18011 14.0443 2.56789 14.4321C2.95567 14.8199 3.47275 15 4 15H13C13.5272 15 14.0443 14.8199 14.4321 14.4321C14.8199 14.0443 15 13.5272 15 13V4C15 3.47275 14.8199 2.95567 14.4321 2.56789C14.0443 2.18011 13.5272 2 13 2H4ZM4 13V4H13V13H4Z" fill="black"/>
<path fill-rule="evenodd" clip-rule="evenodd" d="M19 2C18.4728 2 17.9557 2.18011 17.5679 2.56789C17.1801 2.95567 17 3.47275 17 4V13C17 13.5272 17.1801 14.0443 17.5679 14.4321C17.9557 14.8199 18.4728 15 19 15H28C28.5272 15 29.0443 14.8199 29.4321 14.4321C29.8199 14.0443 30 13.5272 30 13V4C30 3.47275 29.8199 2.95567 29.4321 2.56789C29.0443 2.18011 28.5272 2 28 2H19ZM19 13V4H28V13H19Z" fill="black"/>
<path fill-rule="evenodd" clip-rule="evenodd" d="M2.56789 17.5679C2.95567 17.1801 3.47275 17 4 17H13C13.5272 17 14.0443 17.1801 14.4321 17.5679C14.8199 17.9557 15 18.4728 15 19V28C15 28.5272 14.8199 29.0443 14.4321 29.4321C14.0443 29.8199 13.5272 30 13 30H4C3.47275 30 2.95567 29.8199 2.56789 29.4321C2.18011 29.0443 2 28.5272 2 28V19C2 18.4728 2.18011 17.9557 2.56789 17.5679ZM4 19V28H13V19H4Z" fill="black"/>
<path fill-rule="evenodd" clip-rule="evenodd" d="M19 17C18.4728 17 17.9557 17.1801 17.5679 17.5679C17.1801 17.9557 17 18.4728 17 19V28C17 28.5272 17.1801 29.0443 17.5679 29.4321C17.9557 29.8199 18.4728 30 19 30H28C28.5272 30 29.0443 29.8199 29.4321 29.4321C29.8199 29.0443 30 28.5272 30 28V19C30 18.4728 29.8199 17.9557 29.4321 17.5679C29.0443 17.1801 28.5272 17 28 17H19ZM19 28V19H28V28H19Z" fill="black"/>
</svg>
