<svg width="32" height="32" viewBox="0 0 32 32" fill="none" xmlns="http://www.w3.org/2000/svg">
<path fill-rule="evenodd" clip-rule="evenodd" d="M18 29.4075V3L8.62426 11.2038H6C3.74772 11.2038 2 12.9515 2 15.2038V17.2038C2 19.4561 3.74772 21.2038 6 21.2038H8.62426L18 29.4075ZM9.37574 13.2038L16 7.40754V25L9.37574 19.2038H6C4.85228 19.2038 4 18.3515 4 17.2038V15.2038C4 14.0561 4.85228 13.2038 6 13.2038H9.37574Z" fill="black"/>
<path d="M21.7071 9.29656C21.3166 8.90603 20.6834 8.90603 20.2929 9.29656C19.9024 9.68708 19.9024 10.3202 20.2929 10.7108C23.2968 13.7147 23.3113 18.6892 20.2827 21.8069C19.8979 22.203 19.9071 22.8361 20.3032 23.2209C20.6994 23.6058 21.3325 23.5966 21.7173 23.2004C25.4887 19.3181 25.5032 13.0926 21.7071 9.29656Z" fill="black"/>
</svg>
