<svg width="32" height="32" viewBox="0 0 32 32" fill="none" xmlns="http://www.w3.org/2000/svg">
<path fill-rule="evenodd" clip-rule="evenodd" d="M18 3V29.4075L8.62426 21.2038H6C3.74772 21.2038 2 19.4561 2 17.2038V15.2038C2 12.9515 3.74772 11.2038 6 11.2038H8.62426L18 3ZM16 7.40754L9.37574 13.2038H6C4.85228 13.2038 4 14.0561 4 15.2038V17.2038C4 18.3515 4.85228 19.2038 6 19.2038H9.37574L16 25V7.40754Z" fill="black"/>
<path d="M20.2929 9.29656C20.6834 8.90603 21.3166 8.90603 21.7071 9.29656C25.5032 13.0926 25.4887 19.3181 21.7173 23.2004C21.3325 23.5966 20.6994 23.6058 20.3032 23.2209C19.9071 22.8361 19.8979 22.203 20.2827 21.8069C23.3113 18.6892 23.2968 13.7147 20.2929 10.7108C19.9024 10.3202 19.9024 9.68708 20.2929 9.29656Z" fill="black"/>
<path d="M24.8071 6.0966C24.4166 5.70608 23.7834 5.70608 23.3929 6.0966C23.0024 6.48713 23.0024 7.12029 23.3929 7.51082C28.2062 12.3241 28.1962 20.0856 23.3998 24.7898C23.0055 25.1765 22.9993 25.8096 23.3861 26.2039C23.7728 26.5982 24.4059 26.6044 24.8002 26.2176C30.4038 20.7219 30.3938 11.6833 24.8071 6.0966Z" fill="black"/>
</svg>
