<svg width="32" height="32" viewBox="0 0 32 32" fill="none" xmlns="http://www.w3.org/2000/svg">
<path fill-rule="evenodd" clip-rule="evenodd" d="M18 3V29.4075L8.62426 21.2038H6C3.74772 21.2038 2 19.4561 2 17.2038V15.2038C2 12.9515 3.74772 11.2038 6 11.2038H8.62426L18 3ZM16 7.40754L9.37574 13.2038H6C4.85228 13.2038 4 14.0561 4 15.2038V17.2038C4 18.3515 4.85228 19.2038 6 19.2038H9.37574L16 25V7.40754Z" fill="black"/>
<path d="M29.7071 11.4965C30.0976 11.887 30.0976 12.5202 29.7071 12.9107L26.4142 16.2036L29.7071 19.4965C30.0976 19.887 30.0976 20.5202 29.7071 20.9107C29.3166 21.3012 28.6834 21.3012 28.2929 20.9107L25 17.6178L21.7071 20.9107C21.3166 21.3012 20.6834 21.3012 20.2929 20.9107C19.9024 20.5202 19.9024 19.887 20.2929 19.4965L23.5858 16.2036L20.2929 12.9107C19.9024 12.5202 19.9024 11.887 20.2929 11.4965C20.6834 11.106 21.3166 11.106 21.7071 11.4965L25 14.7894L28.2929 11.4965C28.6834 11.106 29.3166 11.106 29.7071 11.4965Z" fill="black"/>
</svg>
