<svg xmlns="http://www.w3.org/2000/svg" width="64" height="64" viewBox="0 0 64 64">
  <title>wallet</title>
  <path d="M8,10H40a5,5,0,0,1,5,5v3a0,0,0,0,1,0,0H8a4,4,0,0,1-4-4v0a4,4,0,0,1,4-4Z" fill="none" stroke="#000" stroke-linecap="round" stroke-linejoin="round" stroke-width="2"/>
  <rect x="38" y="27" width="22" height="17" fill="none" stroke="#000" stroke-linecap="round" stroke-linejoin="round" stroke-width="2"/>
  <path d="M48,35.5a1.5,1.5,0,0,1-3,0" fill="none" stroke="#000" stroke-linecap="round" stroke-linejoin="round" stroke-width="2"/>
  <path d="M45,35.5a1.5,1.5,0,0,1,3,0" fill="none" stroke="#000" stroke-linecap="round" stroke-linejoin="round" stroke-width="2"/>
  <polyline points="52 27 52 18 45 18" fill="none" stroke="#000" stroke-linecap="round" stroke-linejoin="round" stroke-width="2"/>
  <path d="M4,14V49a5,5,0,0,0,5,5H47a5,5,0,0,0,5-5V44" fill="none" stroke="#000" stroke-linecap="round" stroke-linejoin="round" stroke-width="2"/>
</svg>
