<?xml version="1.0" encoding="UTF-8"?>
<svg width="24px" height="24px" viewBox="0 0 24 24" version="1.1" xmlns="http://www.w3.org/2000/svg" xmlns:xlink="http://www.w3.org/1999/xlink">
    <!-- Generator: Sketch 48.2 (47327) - http://www.bohemiancoding.com/sketch -->
    <title>wallet</title>
    <desc>Created with Sketch.</desc>
    <defs></defs>
    <g id="Page-1" stroke="none" stroke-width="1" fill="none" fill-rule="evenodd" stroke-linecap="round" stroke-linejoin="round">
        <g id="wallet" stroke="#000000" stroke-width="1.5">
            <path d="M20,15 L20,18 C20,19.1 19.1,20 18,20 L4,20 C2.9,20 2,19.1 2,18 L2,9 C2,7.9 2.9,7 4,7 L18,7 C19.1,7 20,7.9 20,9 L20,11" id="Stroke-1"></path>
            <path d="M2,8 L2,6 C2,4.9 2.9,4 4,4 L15,4 C16.1,4 17,4.9 17,6 L17,7" id="Stroke-3"></path>
            <polygon id="Stroke-5" points="17 15 22 15 22 11 17 11"></polygon>
        </g>
    </g>
</svg>