<svg width="32" height="32" viewBox="0 0 32 32" fill="none" xmlns="http://www.w3.org/2000/svg">
<path d="M24 21C24.5523 21 25 20.5523 25 20C25 19.4477 24.5523 19 24 19C23.4477 19 23 19.4477 23 20C23 20.5523 23.4477 21 24 21Z" fill="black"/>
<path fill-rule="evenodd" clip-rule="evenodd" d="M7.5 3C5.04772 3 3 5.04772 3 7.5V8.5C3 8.61364 3.0044 8.72642 3.01303 8.83816C3.00446 8.89084 3 8.9449 3 9V25C3 27.2523 4.74772 29 7 29H22C24.2523 29 26 27.2523 26 25H27C29.2523 25 31 23.2523 31 21V19C31 16.7477 29.2523 15 27 15H26V11H7.5C6.15228 11 5 9.84772 5 8.5V7.5C5 6.15228 6.15228 5 7.5 5H20C20.5523 5 21 4.55228 21 4C21 3.44772 20.5523 3 20 3H7.5ZM7.5 13C6.58103 13 5.71887 12.7124 5 12.2238V25C5 26.1477 5.85228 27 7 27H22C23.1477 27 24 26.1477 24 25H23C20.7477 25 19 23.2523 19 21V19C19 16.7477 20.7477 15 23 15H24V13H7.5ZM21 19C21 17.8523 21.8523 17 23 17H27C28.1477 17 29 17.8523 29 19V21C29 22.1477 28.1477 23 27 23H23C21.8523 23 21 22.1477 21 21V19Z" fill="black"/>
<path d="M8 7C7.44772 7 7 7.44772 7 8C7 8.55228 7.44772 9 8 9H22C22.5523 9 23 8.55228 23 8C23 7.44772 22.5523 7 22 7H8Z" fill="black"/>
</svg>
