<svg width="32" height="32" viewBox="0 0 32 32" fill="none" xmlns="http://www.w3.org/2000/svg">
<path d="M11.7143 4.69981C12.0976 4.30873 12.0952 3.68099 11.7071 3.29289C11.3166 2.90237 10.6834 2.90237 10.2929 3.29289C9.76351 3.82229 9.67515 4.47184 9.72287 4.99679C9.76484 5.45846 9.9221 5.92929 10.0363 6.27129L10.0513 6.31623C10.1863 6.72127 10.2667 6.97904 10.2854 7.18429C10.2912 7.24792 10.2881 7.28397 10.2857 7.30019C9.9024 7.69127 9.9048 8.31901 10.2929 8.70711C10.6834 9.09763 11.3166 9.09763 11.7071 8.70711C12.2365 8.17771 12.3249 7.52816 12.2772 7.00321C12.2352 6.54153 12.0779 6.0707 11.9637 5.7287L11.9487 5.68377C11.8137 5.27873 11.7333 5.02096 11.7147 4.81571C11.7089 4.75208 11.7119 4.71603 11.7143 4.69981Z" fill="black"/>
<path fill-rule="evenodd" clip-rule="evenodd" d="M12 14.6834C8.23649 16.014 5.33414 19.1666 4.37564 23.0655C3.02124 23.3542 2 24.5617 2 26C2 27.6523 3.34772 29 5 29H27C28.6523 29 30 27.6523 30 26C30 24.5617 28.9788 23.3542 27.6244 23.0655C26.6658 19.1666 23.7635 16.014 20 14.6834V14C20 12.3477 18.6523 11 17 11H15C13.3477 11 12 12.3477 12 14V14.6834ZM6.46821 23C7.71403 18.9608 11.5139 16 16 16C20.4861 16 24.286 18.9608 25.5318 23H6.46821ZM5.18291 25C5.19512 25.0002 5.20728 25.0002 5.21942 25H26.7806C26.7927 25.0002 26.8049 25.0002 26.8171 25H27C27.5477 25 28 25.4523 28 26C28 26.5477 27.5477 27 27 27H5C4.45228 27 4 26.5477 4 26C4 25.4523 4.45228 25 5 25H5.18291ZM14 14.1662C14.6505 14.0569 15.3187 14 16 14C16.6813 14 17.3495 14.0569 18 14.1662V14C18 13.4523 17.5477 13 17 13H15C14.4523 13 14 13.4523 14 14V14.1662Z" fill="black"/>
<path d="M16.7071 3.29289C17.0952 3.68099 17.0976 4.30873 16.7143 4.69981C16.7119 4.71603 16.7089 4.75208 16.7147 4.81571C16.7333 5.02096 16.8137 5.27873 16.9487 5.68377L16.9637 5.7287C17.0779 6.0707 17.2352 6.54153 17.2772 7.00321C17.3249 7.52816 17.2365 8.17771 16.7071 8.70711C16.3166 9.09763 15.6834 9.09763 15.2929 8.70711C14.9048 8.31901 14.9024 7.69127 15.2857 7.30019C15.2881 7.28397 15.2912 7.24792 15.2854 7.18429C15.2667 6.97904 15.1863 6.72127 15.0513 6.31623L15.0363 6.2713C14.9221 5.9293 14.7648 5.45847 14.7229 4.99679C14.6751 4.47184 14.7635 3.82229 15.2929 3.29289C15.6834 2.90237 16.3166 2.90237 16.7071 3.29289Z" fill="black"/>
<path d="M21.7143 4.69981C22.0976 4.30873 22.0952 3.68099 21.7071 3.29289C21.3166 2.90237 20.6834 2.90237 20.2929 3.29289C19.7635 3.82229 19.6751 4.47184 19.7229 4.99679C19.7648 5.45847 19.9221 5.9293 20.0363 6.2713L20.0513 6.31623C20.1863 6.72127 20.2667 6.97904 20.2854 7.18429C20.2912 7.24792 20.2881 7.28397 20.2857 7.30019C19.9024 7.69127 19.9048 8.31901 20.2929 8.70711C20.6834 9.09763 21.3166 9.09763 21.7071 8.70711C22.2365 8.17771 22.3249 7.52816 22.2772 7.00321C22.2352 6.54153 22.0779 6.0707 21.9637 5.7287L21.9487 5.68377C21.8137 5.27873 21.7333 5.02096 21.7147 4.81571C21.7089 4.75208 21.7119 4.71603 21.7143 4.69981Z" fill="black"/>
</svg>
