<svg width="32" height="32" viewBox="0 0 32 32" fill="none" xmlns="http://www.w3.org/2000/svg">
<path d="M16 23.5C16.8284 23.5 17.5 22.8284 17.5 22C17.5 21.1716 16.8284 20.5 16 20.5C15.1716 20.5 14.5 21.1716 14.5 22C14.5 22.8284 15.1716 23.5 16 23.5Z" fill="black"/>
<path d="M17 9C17 8.44772 16.5523 8 16 8C15.4477 8 15 8.44772 15 9V17C15 17.5523 15.4477 18 16 18C16.5523 18 17 17.5523 17 17V9Z" fill="black"/>
<path fill-rule="evenodd" clip-rule="evenodd" d="M19.5712 5.009C18.0714 2.29841 14.1117 2.37019 12.5425 4.98553L2.53873 22.1918C0.92545 24.8911 2.96491 28.2 6 28.2H26C29.0344 28.2 31.0736 24.8927 29.4625 22.1938L19.5712 5.009ZM14.2607 6.00912C15.0918 4.63296 17.1206 4.70346 17.8238 5.98194L17.8285 5.99045L27.7378 23.2067L27.7425 23.2145C28.5223 24.5141 27.5625 26.2 26 26.2H6C4.43746 26.2 3.47774 24.5141 4.2575 23.2145L14.2607 6.00912Z" fill="black"/>
</svg>
