<?xml version="1.0" encoding="UTF-8"?>
<svg width="24px" height="24px" viewBox="0 0 24 24" version="1.1" xmlns="http://www.w3.org/2000/svg" xmlns:xlink="http://www.w3.org/1999/xlink">
    <!-- Generator: Sketch 48.2 (47327) - http://www.bohemiancoding.com/sketch -->
    <title>watch</title>
    <desc>Created with Sketch.</desc>
    <defs></defs>
    <g id="Page-1" stroke="none" stroke-width="1" fill="none" fill-rule="evenodd" stroke-linecap="round" stroke-linejoin="round">
        <g id="watch" stroke="#000000" stroke-width="1.5">
            <path d="M16,19 L6,19 C4.896,19 4,18.104 4,17 L4,7 C4,5.896 4.896,5 6,5 L16,5 C17.104,5 18,5.896 18,7 L18,17 C18,18.104 17.104,19 16,19 Z" id="Stroke-1"></path>
            <polyline id="Stroke-3" points="11 8 11 12 14 14"></polyline>
            <polyline id="Stroke-5" points="18 11 20 11 20 13 18 13"></polyline>
            <path d="M6,5 L6,3 C6,2.448 6.447,2 7,2 L15,2 C15.553,2 16,2.448 16,3 L16,5" id="Stroke-7"></path>
            <path d="M6,19 L6,21 C6,21.552 6.447,22 7,22 L15,22 C15.553,22 16,21.552 16,21 L16,19" id="Stroke-9"></path>
        </g>
    </g>
</svg>