<svg width="32" height="32" viewBox="0 0 32 32" fill="none" xmlns="http://www.w3.org/2000/svg">
<path d="M17 10C17 9.44772 16.5523 9 16 9C15.4477 9 15 9.44772 15 10V16.5L19.4 19.8C19.8418 20.1314 20.4686 20.0418 20.8 19.6C21.1314 19.1582 21.0418 18.5314 20.6 18.2L17 15.5V10Z" fill="black"/>
<path fill-rule="evenodd" clip-rule="evenodd" d="M29 16C29 17.6523 27.6523 19 26 19V23C26 25.2523 24.2523 27 22 27H21.8802C21.4498 28.7491 19.9055 30 18 30H14C12.0945 30 10.5502 28.7491 10.1198 27H10C7.74772 27 6 25.2523 6 23V9C6 6.74771 7.74772 5 10 5H10.1198C10.5502 3.25092 12.0945 2 14 2H18C19.9055 2 21.4498 3.25092 21.8802 5H22C24.2523 5 26 6.74771 26 9V13C27.6523 13 29 14.3477 29 16ZM10 7H22C23.1477 7 24 7.85228 24 9V23C24 24.1477 23.1477 25 22 25H10C8.85228 25 8 24.1477 8 23V9C8 7.85228 8.85228 7 10 7ZM27 16C27 16.5477 26.5477 17 26 17V15C26.5477 15 27 15.4523 27 16ZM19.7525 27C19.4192 27.609 18.7774 28 18 28H14C13.2226 28 12.5808 27.609 12.2475 27H19.7525ZM14 4C13.2226 4 12.5808 4.39101 12.2475 5H19.7525C19.4192 4.39101 18.7774 4 18 4H14Z" fill="black"/>
</svg>
