<svg width="32" height="32" viewBox="0 0 32 32" fill="none" xmlns="http://www.w3.org/2000/svg">
<path d="M7.70711 7.70711C8.09763 7.31658 8.09763 6.68342 7.70711 6.29289C7.31658 5.90237 6.68342 5.90237 6.29289 6.29289C0.902369 11.6834 0.902369 20.3166 6.29289 25.7071C6.68342 26.0976 7.31658 26.0976 7.70711 25.7071C8.09763 25.3166 8.09763 24.6834 7.70711 24.2929C3.09763 19.6834 3.09763 12.3166 7.70711 7.70711Z" fill="black"/>
<path d="M11.7071 10.2929C12.0976 10.6834 12.0976 11.3166 11.7071 11.7071C9.29762 14.1166 9.29762 17.8834 11.7071 20.2929C12.0976 20.6834 12.0976 21.3166 11.7071 21.7071C11.3166 22.0976 10.6834 22.0976 10.2929 21.7071C7.10236 18.5166 7.10236 13.4834 10.2929 10.2929C10.6834 9.90237 11.3166 9.90237 11.7071 10.2929Z" fill="black"/>
<path fill-rule="evenodd" clip-rule="evenodd" d="M13 16C13 14.3431 14.3431 13 16 13C17.6569 13 19 14.3431 19 16C19 17.6569 17.6569 19 16 19C14.3431 19 13 17.6569 13 16ZM16 15C15.4477 15 15 15.4477 15 16C15 16.5523 15.4477 17 16 17C16.5523 17 17 16.5523 17 16C17 15.4477 16.5523 15 16 15Z" fill="black"/>
<path d="M20.2929 10.2929C20.6834 9.90237 21.3166 9.90237 21.7071 10.2929C24.8976 13.4834 24.8976 18.5166 21.7071 21.7071C21.3166 22.0976 20.6834 22.0976 20.2929 21.7071C19.9024 21.3166 19.9024 20.6834 20.2929 20.2929C22.7024 17.8834 22.7024 14.1166 20.2929 11.7071C19.9024 11.3166 19.9024 10.6834 20.2929 10.2929Z" fill="black"/>
<path d="M25.7071 6.29289C25.3166 5.90237 24.6834 5.90237 24.2929 6.29289C23.9024 6.68342 23.9024 7.31658 24.2929 7.70711C28.9024 12.3166 28.9024 19.6834 24.2929 24.2929C23.9024 24.6834 23.9024 25.3166 24.2929 25.7071C24.6834 26.0976 25.3166 26.0976 25.7071 25.7071C31.0976 20.3166 31.0976 11.6834 25.7071 6.29289Z" fill="black"/>
</svg>
