<svg width="32" height="32" viewBox="0 0 32 32" fill="none" xmlns="http://www.w3.org/2000/svg">
<path fill-rule="evenodd" clip-rule="evenodd" d="M6.67043 11.6375L6.67326 11.6341L6.7073 11.5926C6.73019 11.5645 6.76309 11.524 6.80457 11.4723C6.8875 11.369 7.00496 11.2207 7.14549 11.0382C7.42578 10.6741 7.80147 10.169 8.17907 9.60914C8.55429 9.05278 8.94435 8.42329 9.24432 7.81299C9.52704 7.23782 9.8 6.54358 9.8 5.9C9.8 3.74772 8.05228 2 5.9 2C3.74772 2 2 3.74772 2 5.9C2 6.54358 2.27296 7.23782 2.55568 7.81299C2.85565 8.42329 3.24571 9.05278 3.62093 9.60914C3.99853 10.169 4.37422 10.6741 4.65451 11.0382C4.79504 11.2207 4.9125 11.369 4.99542 11.4723C5.03691 11.524 5.06981 11.5645 5.0927 11.5926L5.11936 11.6251L5.12674 11.6341L5.12981 11.6378C5.31978 11.8671 5.60223 12 5.9 12C6.19777 12 6.48046 11.8668 6.67043 11.6375ZM4 5.9C4 4.85228 4.85228 4 5.9 4C6.94772 4 7.8 4.85228 7.8 5.9C7.8 6.05642 7.71046 6.39968 7.44943 6.93076C7.20565 7.42671 6.87071 7.97222 6.52093 8.49086C6.30793 8.80668 6.09421 9.10552 5.9 9.36835C5.70579 9.10552 5.49207 8.80668 5.27907 8.49086C4.92929 7.97222 4.59435 7.42671 4.35057 6.93076C4.08954 6.39968 4 6.05642 4 5.9Z" fill="black"/>
<path d="M13 5C12.4477 5 12 5.44772 12 6C12 6.55228 12.4477 7 13 7H19C21.2477 7 23 8.75229 23 11C23 13.2477 21.2477 15 19 15H12C8.64772 15 6 17.6477 6 21C6 24.3523 8.64772 27 12 27H19C19.5523 27 20 26.5523 20 26C20 25.4477 19.5523 25 19 25H12C9.75229 25 8 23.2477 8 21C8 18.7523 9.75229 17 12 17H19C22.3523 17 25 14.3523 25 11C25 7.64772 22.3523 5 19 5H13Z" fill="black"/>
<path d="M27.4142 26L29.7071 28.2929C30.0976 28.6834 30.0976 29.3166 29.7071 29.7071C29.3166 30.0976 28.6834 30.0976 28.2929 29.7071L26 27.4142L23.7071 29.7071C23.3166 30.0976 22.6834 30.0976 22.2929 29.7071C21.9024 29.3166 21.9024 28.6834 22.2929 28.2929L24.5858 26L22.2929 23.7071C21.9024 23.3166 21.9024 22.6834 22.2929 22.2929C22.6834 21.9024 23.3166 21.9024 23.7071 22.2929L26 24.5858L28.2929 22.2929C28.6834 21.9024 29.3166 21.9024 29.7071 22.2929C30.0976 22.6834 30.0976 23.3166 29.7071 23.7071L27.4142 26Z" fill="black"/>
</svg>
