<svg width="32" height="32" viewBox="0 0 32 32" fill="none" xmlns="http://www.w3.org/2000/svg">
<path d="M16 4C11.1828 4 6.67599 5.57054 3.10761 8.19435C2.66266 8.52152 2.56718 9.14744 2.89435 9.59239C3.22152 10.0373 3.84744 10.1328 4.29239 9.80565C7.52401 7.42946 11.6172 6 16 6C20.3828 6 24.476 7.42946 27.7076 9.80565C28.1526 10.1328 28.7785 10.0373 29.1057 9.59239C29.4328 9.14744 29.3373 8.52152 28.8924 8.19435C25.324 5.57054 20.8172 4 16 4Z" fill="black"/>
<path d="M5.99029 12.3074C8.77443 10.1657 12.2915 9 16 9C19.7085 9 23.2256 10.1657 26.0097 12.3074C26.4475 12.6441 26.5294 13.272 26.1926 13.7097C25.8559 14.1475 25.228 14.2294 24.7903 13.8926C22.3744 12.0343 19.2915 11 16 11C12.7085 11 9.62558 12.0343 7.20971 13.8926C6.77196 14.2294 6.14411 14.1475 5.80738 13.7097C5.47064 13.272 5.55254 12.6441 5.99029 12.3074Z" fill="black"/>
<path d="M10.0855 17.9107C11.7255 16.7263 13.7227 16 16 16C18.2647 16 20.1714 16.7184 21.9353 17.9253C22.3911 18.2372 23.0134 18.1205 23.3253 17.6647C23.6372 17.2089 23.5205 16.5866 23.0647 16.2747C21.0286 14.8816 18.7353 14 16 14C13.2773 14 10.8746 14.8737 8.91451 16.2893C8.46679 16.6127 8.36597 17.2378 8.68933 17.6855C9.01268 18.1332 9.63777 18.234 10.0855 17.9107Z" fill="black"/>
<path d="M16 21C14.9596 21 13.9563 21.4013 13.0735 22.0192C12.621 22.3359 11.9975 22.2259 11.6808 21.7735C11.3641 21.321 11.4741 20.6975 11.9265 20.3808C13.0437 19.5987 14.4404 19 16 19C17.5138 19 18.9373 19.4692 20.1247 20.4191C20.556 20.7641 20.6259 21.3934 20.2809 21.8247C19.9359 22.256 19.3066 22.3259 18.8753 21.9809C18.0627 21.3308 17.0862 21 16 21Z" fill="black"/>
<path d="M16 27.5C16.8284 27.5 17.5 26.8284 17.5 26C17.5 25.1716 16.8284 24.5 16 24.5C15.1716 24.5 14.5 25.1716 14.5 26C14.5 26.8284 15.1716 27.5 16 27.5Z" fill="black"/>
</svg>
