<svg width="32" height="32" viewBox="0 0 32 32" fill="none" xmlns="http://www.w3.org/2000/svg">
<path d="M16.23 16.87L20.13 27.54C17.6661 28.3993 14.9955 28.4692 12.49 27.74L16.23 16.87V16.87ZM16 3.13999C18.9169 3.12105 21.748 4.12609 24 5.97999C23.6058 6.18581 23.2759 6.49629 23.0465 6.87734C22.8172 7.25839 22.6973 7.69526 22.7 8.13999C22.8355 9.29258 23.2852 10.3857 24 11.3C24.7115 12.4077 25.0963 13.6935 25.11 15.01C25.0386 16.508 24.7 17.9812 24.11 19.36L22.77 23.85L17.85 9.37999C18.66 9.37999 19.39 9.24999 19.39 9.24999C19.5253 9.22471 19.6465 9.15051 19.7305 9.04156C19.8146 8.9326 19.8556 8.79652 19.8457 8.65927C19.8358 8.52202 19.7757 8.39322 19.6769 8.29744C19.5781 8.20166 19.4475 8.14562 19.31 8.13999C19.31 8.13999 17.12 8.30999 15.72 8.30999C14.32 8.30999 12.17 8.13999 12.17 8.13999C12.0325 8.14562 11.9019 8.20166 11.8031 8.29744C11.7043 8.39322 11.6442 8.52202 11.6343 8.65927C11.6245 8.79652 11.6654 8.9326 11.7495 9.04156C11.8335 9.15051 11.9548 9.22471 12.09 9.24999C12.09 9.24999 12.77 9.32999 13.5 9.37999L15.6 15.12L12.65 23.96L7.75001 9.37999C8.56001 9.37999 9.29001 9.24999 9.29001 9.24999C9.4258 9.22423 9.54726 9.14917 9.63103 9.03924C9.7148 8.92932 9.75496 8.7923 9.74379 8.65455C9.73263 8.5168 9.67091 8.38804 9.57053 8.29305C9.47014 8.19806 9.33817 8.14354 9.20001 8.13999C9.20001 8.13999 7.25001 8.28999 5.85001 8.30999C6.23206 7.77956 6.6568 7.28124 7.12001 6.81999C8.28442 5.65139 9.66846 4.72464 11.1925 4.09307C12.7165 3.4615 14.3503 3.13759 16 3.13999V3.13999ZM7.13001 24.56C5.44518 22.8881 4.26901 20.7727 3.738 18.4593C3.20699 16.1459 3.34292 13.7293 4.13001 11.49L9.62001 26.49C8.69405 25.9351 7.84367 25.2629 7.09001 24.49L7.13001 24.56ZM28.55 15.69C28.5533 17.3383 28.2297 18.9709 27.5981 20.4934C26.9664 22.0159 26.0392 23.3981 24.87 24.56C24.3706 25.0627 23.8286 25.521 23.25 25.93L26.88 15.44C27.3994 14.2088 27.7363 12.9085 27.88 11.58C28.3303 12.9032 28.5567 14.2923 28.55 15.69V15.69ZM16 1.01999C13.0981 1.01801 10.2609 1.87671 7.84708 3.48747C5.43329 5.09823 3.55144 7.38868 2.43957 10.0691C1.3277 12.7495 1.03576 15.6995 1.60068 18.5458C2.16559 21.3922 3.56198 24.0071 5.61322 26.0597C7.66446 28.1123 10.2784 29.5105 13.1244 30.0774C15.9703 30.6442 18.9205 30.3543 21.6017 29.2443C24.2828 28.1342 26.5746 26.2539 28.187 23.8412C29.7994 21.4286 30.66 18.5919 30.66 15.69C30.66 11.801 29.1158 8.07114 26.3668 5.32027C23.6178 2.5694 19.889 1.02264 16 1.01999V1.01999Z" fill="black"/>
</svg>
