<svg width="32" height="32" viewBox="0 0 32 32" fill="none" xmlns="http://www.w3.org/2000/svg">
<path fill-rule="evenodd" clip-rule="evenodd" d="M28.38 7.63L31 18.86C31.074 19.4419 30.9278 20.0304 30.59 20.51L23.35 29.51C23.1749 29.7601 22.936 29.9588 22.6582 30.0855C22.3803 30.2121 22.0737 30.262 21.77 30.23H10.23C9.63466 30.1847 9.07474 29.9296 8.64999 29.51L1.40999 20.51C1.23511 20.2762 1.10875 20.0098 1.03834 19.7264C0.967931 19.4431 0.954893 19.1485 0.999995 18.86L3.60999 7.56C3.66759 7.28558 3.7878 7.02819 3.96126 6.80789C4.13473 6.58759 4.35675 6.41035 4.60999 6.29L15.07 1.29C15.3733 1.20882 15.686 1.16846 16 1.17C16.2923 1.16384 16.5825 1.22187 16.85 1.34L27.32 6.34C27.825 6.61893 28.2043 7.08046 28.38 7.63ZM16 6.58C18.4076 6.57659 20.7282 7.47985 22.5 9.11C22.2822 9.09351 22.0633 9.12209 21.857 9.19394C21.6507 9.2658 21.4614 9.3794 21.301 9.52765C21.1405 9.6759 21.0123 9.85562 20.9244 10.0556C20.8365 10.2556 20.7907 10.4715 20.79 10.69C20.72 13 23.55 13.49 22.02 18.13L20.76 21.97L17.33 11.89C17.33 11.73 17.33 11.64 17.53 11.64H18.53C18.5539 11.64 18.5768 11.6305 18.5936 11.6136C18.6105 11.5968 18.62 11.5739 18.62 11.55V10.97C18.62 10.97 18.62 10.87 18.53 10.88C16.69 10.96 14.86 10.96 13.05 10.88C13.0374 10.8786 13.0246 10.8799 13.0125 10.8838C13.0004 10.8876 12.9892 10.894 12.9798 10.9025C12.9703 10.911 12.9628 10.9215 12.9577 10.9331C12.9525 10.9447 12.9499 10.9573 12.95 10.97V11.55C12.9433 11.5623 12.9393 11.5759 12.9383 11.5899C12.9372 11.6039 12.9391 11.6179 12.9438 11.6311C12.9485 11.6443 12.956 11.6564 12.9656 11.6665C12.9753 11.6767 12.987 11.6847 13 11.69H14C14.22 11.69 14.28 11.77 14.33 11.91L15.73 15.69L13.61 22.1L10.12 11.85C10.12 11.72 10.12 11.64 10.25 11.64H11.37C11.3939 11.64 11.4168 11.6305 11.4336 11.6136C11.4505 11.5968 11.46 11.5739 11.46 11.55V10.97C11.46 10.97 11.46 10.87 11.37 10.88C10.2 10.94 9.02999 10.95 7.92999 10.96C8.80281 9.61452 9.99849 8.50888 11.408 7.74384C12.8176 6.9788 14.3962 6.5787 16 6.58V6.58ZM24.45 11.58C25.6579 13.8145 25.9321 16.4363 25.2125 18.8724C24.4929 21.3084 22.8382 23.3605 20.61 24.58L23.61 16.09C24.1452 14.6421 24.4293 13.1135 24.45 11.57V11.58ZM19.22 25.24C17.2875 25.9331 15.1827 25.9822 13.22 25.38L16.22 16.9L19.22 25.24ZM11.89 24.87C9.60904 23.7891 7.84428 21.855 6.97628 19.4849C6.10828 17.1147 6.20658 14.4983 7.24999 12.2L11.89 24.87V24.87ZM16 5.18C18.1756 5.18 20.3023 5.82514 22.1113 7.03383C23.9202 8.24253 25.3301 9.96049 26.1627 11.9705C26.9952 13.9805 27.2131 16.1922 26.7886 18.326C26.3642 20.4598 25.3165 22.4198 23.7782 23.9582C22.2398 25.4966 20.2798 26.5442 18.146 26.9686C16.0122 27.3931 13.8005 27.1752 11.7905 26.3427C9.78049 25.5101 8.06252 24.1002 6.85383 22.2913C5.64513 20.4823 4.99999 18.3556 4.99999 16.18C4.99999 13.2626 6.15892 10.4647 8.22182 8.40182C10.2847 6.33892 13.0826 5.18 16 5.18V5.18Z" fill="black"/>
</svg>
