<svg width="32" height="32" viewBox="0 0 32 32" fill="none" xmlns="http://www.w3.org/2000/svg">
<path fill-rule="evenodd" clip-rule="evenodd" d="M13.9929 5.49289C15.9834 3.50237 19.1166 3.50237 21.1071 5.49289L21.8142 6.2L18.7441 9.27009L19.7906 12.4094L22.9299 13.4559L26 10.3858L26.7071 11.0929C28.6976 13.0834 28.6976 16.2166 26.7071 18.2071L25.3071 19.6071C23.1581 21.7561 19.924 21.9732 17.5558 20.2584L10.4213 27.3929C8.91156 29.0203 6.37661 28.9746 4.8082 27.4223C3.17435 25.9078 3.22536 23.3604 4.79289 21.7929L11.9416 14.6442C10.2268 12.276 10.4439 9.04191 12.5929 6.89289L13.9929 5.49289ZM18.8725 6.31327C17.7416 5.74904 16.3672 5.94699 15.4071 6.90711L14.0071 8.30711C12.3976 9.91658 12.3976 12.3834 14.0071 13.9929L14.7142 14.7L6.2071 23.2071C5.37976 24.0345 5.42596 25.2756 6.17572 25.9628L6.19174 25.9775L6.2071 25.9929C7.03445 26.8202 8.27556 26.774 8.96284 26.0243L8.97753 26.0083L17.5 17.4858L18.2071 18.1929C19.8166 19.8024 22.2834 19.8024 23.8929 18.1929L25.2929 16.7929C26.253 15.8328 26.451 14.4584 25.8867 13.3275L23.4701 15.7441L18.2094 13.9906L16.4559 8.72991L18.8725 6.31327Z" fill="black"/>
</svg>
