<svg xmlns="http://www.w3.org/2000/svg" width="64" height="64" viewBox="0 0 64 64">
  <title>wrench</title>
  <g>
    <path d="M53.46,33.16a15.89,15.89,0,0,0,4.68-11.09,2,2,0,0,0-3.42-1.47l-7.18,7.18-8.93-2.39-2.39-8.93L43.4,9.28a2,2,0,0,0-1.47-3.42A16,16,0,0,0,26.72,26.1a3,3,0,0,1-.9,3.12L8.21,44.48A8,8,0,0,0,19.52,55.79L34.78,38.18a3,3,0,0,1,3.12-.9A16,16,0,0,0,53.46,33.16Z" fill="none" stroke="#000" stroke-linecap="round" stroke-linejoin="round" stroke-width="4"/>
    <path d="M13.16,50.84a1,1,0,0,1,1.41-1.41" fill="none" stroke="#000" stroke-linecap="round" stroke-linejoin="round" stroke-width="4"/>
    <path d="M14.57,49.43a1,1,0,1,1-1.41,1.41" fill="none" stroke="#000" stroke-linecap="round" stroke-linejoin="round" stroke-width="4"/>
  </g>
</svg>
