<svg width="32" height="32" viewBox="0 0 32 32" fill="none" xmlns="http://www.w3.org/2000/svg">
<path fill-rule="evenodd" clip-rule="evenodd" d="M29 21.95C28.9489 21.8184 28.8705 21.6991 28.77 21.6L23.44 16.27C23.3414 16.1699 23.2238 16.0904 23.0942 16.0362C22.9646 15.982 22.8255 15.954 22.685 15.954C22.5445 15.954 22.4054 15.982 22.2758 16.0362C22.1461 16.0904 22.0286 16.1699 21.93 16.27C21.7327 16.4718 21.6222 16.7428 21.6222 17.025C21.6222 17.3072 21.7327 17.5782 21.93 17.78L25.44 21.29H11.91L23.42 9.78C23.567 9.63043 23.6668 9.44095 23.7071 9.23511C23.7473 9.02927 23.7261 8.81615 23.6462 8.62224C23.5663 8.42833 23.4312 8.26218 23.2576 8.14444C23.084 8.0267 22.8797 7.96256 22.67 7.96H6.56999L10.09 4.45C10.2873 4.2482 10.3977 3.97721 10.3977 3.695C10.3977 3.41279 10.2873 3.14179 10.09 2.94C9.99136 2.83992 9.87383 2.76045 9.74421 2.7062C9.6146 2.65196 9.47549 2.62402 9.33499 2.62402C9.19448 2.62402 9.05537 2.65196 8.92576 2.7062C8.79615 2.76045 8.67861 2.83992 8.57999 2.94L3.24999 8.27V8.33C3.16882 8.41582 3.10136 8.51363 3.04999 8.62C2.94989 8.88072 2.94989 9.16927 3.04999 9.43C3.10136 9.53636 3.16882 9.63418 3.24999 9.72C3.24711 9.73989 3.24711 9.7601 3.24999 9.78L8.57999 15.11C8.78052 15.3097 9.05199 15.4218 9.33499 15.4218C9.61798 15.4218 9.88945 15.3097 10.09 15.11C10.2873 14.9082 10.3977 14.6372 10.3977 14.355C10.3977 14.0728 10.2873 13.8018 10.09 13.6L6.56999 10.09H20.09L8.57999 21.6C8.43296 21.7496 8.33314 21.939 8.29292 22.1449C8.2527 22.3507 8.27386 22.5638 8.35377 22.7578C8.43367 22.9517 8.56881 23.1178 8.74237 23.2356C8.91593 23.3533 9.12027 23.4174 9.32999 23.42H25.42L21.91 26.94C21.8115 27.0391 21.7335 27.1567 21.6804 27.286C21.6274 27.4153 21.6003 27.5538 21.6008 27.6935C21.6013 27.8333 21.6292 27.9716 21.6831 28.1005C21.7371 28.2294 21.8158 28.3465 21.915 28.445C22.1152 28.6439 22.3863 28.7551 22.6685 28.7542C22.8083 28.7537 22.9466 28.7257 23.0755 28.6718C23.2044 28.6179 23.3215 28.5391 23.42 28.44L28.75 23.11C28.8505 23.0109 28.9289 22.8916 28.98 22.76C29.0365 22.6325 29.0657 22.4945 29.0657 22.355C29.0657 22.2155 29.0365 22.0775 28.98 21.95" fill="black"/>
</svg>
