<svg width="32" height="32" viewBox="0 0 32 32" fill="none" xmlns="http://www.w3.org/2000/svg">
<path d="M12.86 18.83V21.97H16V18.83H12.86ZM19.14 15.69H16V18.83H19.14V15.69ZM12.86 12.54V15.69H16V12.54H12.86ZM19.14 12.54V9.39999H16V12.54H19.14ZM12.86 9.39999H16V6.25999H12.86V9.39999ZM27.52 1.01999H2.37999C2.10151 1.01999 1.83444 1.13061 1.63752 1.32753C1.44061 1.52444 1.32999 1.79151 1.32999 2.06999C1.32999 2.34847 1.44061 2.61554 1.63752 2.81245C1.83444 3.00936 2.10151 3.11999 2.37999 3.11999H16V6.25999H19.14V3.11999H27.52C27.6598 3.11281 27.7995 3.13505 27.9301 3.18527C28.0608 3.2355 28.1794 3.31259 28.2784 3.41156C28.3774 3.51054 28.4545 3.62918 28.5047 3.75983C28.5549 3.89047 28.5772 4.03021 28.57 4.16999V27.17C28.5772 27.3098 28.5549 27.4495 28.5047 27.5802C28.4545 27.7108 28.3774 27.8294 28.2784 27.9284C28.1794 28.0274 28.0608 28.1045 27.9301 28.1547C27.7995 28.2049 27.6598 28.2272 27.52 28.22H16V25.12H12.85V28.26H4.46999C4.33435 28.2602 4.20009 28.2327 4.07539 28.1794C3.95069 28.126 3.83814 28.0479 3.7446 27.9496C3.65105 27.8514 3.57847 27.7352 3.53126 27.608C3.48405 27.4809 3.4632 27.3455 3.46999 27.21V8.35999C3.46999 8.09477 3.57534 7.84042 3.76288 7.65288C3.95042 7.46535 4.20477 7.35999 4.46999 7.35999H9.71999C9.99846 7.35999 10.2655 7.24936 10.4624 7.05245C10.6594 6.85554 10.77 6.58847 10.77 6.30999C10.77 6.03151 10.6594 5.76444 10.4624 5.56753C10.2655 5.37061 9.99846 5.25999 9.71999 5.25999H4.46999C3.64488 5.2625 2.8537 5.58867 2.26653 6.16836C1.67936 6.74805 1.34308 7.53498 1.32999 8.35999V27.21C1.32998 28.0437 1.66048 28.8434 2.24906 29.4338C2.83764 30.0243 3.63629 30.3573 4.46999 30.36H27.52C27.9332 30.36 28.3423 30.2784 28.7239 30.12C29.1055 29.9616 29.4521 29.7294 29.7438 29.4368C30.0356 29.1441 30.2666 28.7968 30.4238 28.4147C30.5811 28.0326 30.6613 27.6232 30.66 27.21V4.20999C30.6613 3.7968 30.5811 3.38741 30.4238 3.00529C30.2666 2.62317 30.0356 2.27584 29.7438 1.98321C29.4521 1.69057 29.1055 1.45838 28.7239 1.29996C28.3423 1.14154 27.9332 1.05999 27.52 1.05999V1.01999ZM19.14 25.12H16V21.97H19.14V25.12Z" fill="black"/>
</svg>
