<svg width="32" height="32" viewBox="0 0 32 32" fill="none" xmlns="http://www.w3.org/2000/svg">
<path d="M7 13C7 12.4477 7.44772 12 8 12H12V8C12 7.44772 12.4477 7 13 7C13.5523 7 14 7.44772 14 8V12H18C18.5523 12 19 12.4477 19 13C19 13.5523 18.5523 14 18 14H14V18C14 18.5523 13.5523 19 13 19C12.4477 19 12 18.5523 12 18V14H8C7.44772 14 7 13.5523 7 13Z" fill="black"/>
<path fill-rule="evenodd" clip-rule="evenodd" d="M13 2C6.92487 2 2 6.92487 2 13C2 19.0751 6.92487 24 13 24C15.6775 24 18.1315 23.0434 20.039 21.4533L27.2929 28.7072C27.6834 29.0977 28.3166 29.0977 28.7071 28.7072C29.0976 28.3167 29.0976 27.6835 28.7071 27.293L21.4532 20.0391C23.0434 18.1316 24 15.6775 24 13C24 6.92487 19.0751 2 13 2ZM4 13C4 8.02944 8.02944 4 13 4C17.9706 4 22 8.02944 22 13C22 17.9706 17.9706 22 13 22C8.02944 22 4 17.9706 4 13Z" fill="black"/>
</svg>
