<svg width="32" height="32" viewBox="0 0 32 32" fill="none" xmlns="http://www.w3.org/2000/svg">
<path d="M8 12C7.44772 12 7 12.4477 7 13C7 13.5523 7.44772 14 8 14H18C18.5523 14 19 13.5523 19 13C19 12.4477 18.5523 12 18 12H8Z" fill="black"/>
<path fill-rule="evenodd" clip-rule="evenodd" d="M2 13C2 6.92487 6.92487 2 13 2C19.0751 2 24 6.92487 24 13C24 15.6775 23.0434 18.1316 21.4532 20.0391L28.7071 27.293C29.0976 27.6835 29.0976 28.3167 28.7071 28.7072C28.3166 29.0977 27.6834 29.0977 27.2929 28.7072L20.039 21.4533C18.1315 23.0434 15.6775 24 13 24C6.92487 24 2 19.0751 2 13ZM13 4C8.02944 4 4 8.02944 4 13C4 17.9706 8.02944 22 13 22C17.9706 22 22 17.9706 22 13C22 8.02944 17.9706 4 13 4Z" fill="black"/>
</svg>
