<svg width="32" height="32" viewBox="0 0 32 32" fill="none" xmlns="http://www.w3.org/2000/svg">
<path d="M10.84 18.75C11.224 19.1364 11.7138 19.4005 12.2477 19.5091C12.7815 19.6176 13.3356 19.5657 13.84 19.36L10.23 15.69C10.0139 16.2025 9.95647 16.7681 10.0652 17.3136C10.174 17.8592 10.4439 18.3595 10.84 18.75V18.75ZM17.07 19.36C17.5821 19.5736 18.1463 19.6296 18.6905 19.5208C19.2346 19.4121 19.734 19.1436 20.1247 18.7496C20.5155 18.3557 20.7799 17.8541 20.8841 17.3091C20.9884 16.7641 20.9278 16.2004 20.71 15.69L17.07 19.36ZM9.82 13.62C10.16 13.5514 10.5116 13.5686 10.8433 13.6698C11.175 13.7711 11.4763 13.9533 11.72 14.2L15.4 17.87L15.47 17.95L15.55 17.87L19.23 14.2C19.4717 13.9534 19.7712 13.7711 20.1013 13.6698C20.4314 13.5685 20.7816 13.5514 21.12 13.62C21.4588 13.6844 21.7765 13.8312 22.0451 14.0474C22.3136 14.2637 22.5248 14.5428 22.66 14.86C22.9769 15.6059 23.1043 16.4187 23.0307 17.2258C22.9571 18.0329 22.6849 18.8092 22.2383 19.4856C21.7917 20.1619 21.1847 20.7171 20.4713 21.1018C19.7579 21.4864 18.9605 21.6885 18.15 21.69C17.4872 21.6892 16.8311 21.5566 16.22 21.3C15.9353 21.1738 15.6799 20.99 15.47 20.76C15.2656 20.9918 15.0131 21.1761 14.73 21.3C14.1189 21.5566 13.4628 21.6892 12.8 21.69C11.9883 21.6884 11.1897 21.4859 10.4752 21.1008C9.76073 20.7156 9.15265 20.1597 8.70516 19.4825C8.25767 18.8053 7.98467 18.0279 7.91049 17.2197C7.83631 16.4114 7.96325 15.5973 8.28 14.85C8.41589 14.5333 8.62731 14.2546 8.89577 14.0385C9.16423 13.8223 9.48155 13.6752 9.82 13.61V13.62ZM30.66 4.17V27.17C30.6613 27.5832 30.5811 27.9926 30.4239 28.3747C30.2666 28.7568 30.0356 29.1041 29.7439 29.3968C29.4522 29.6894 29.1056 29.9216 28.7239 30.08C28.3423 30.2384 27.9332 30.32 27.52 30.32H4.52C3.6863 30.3173 2.88765 29.9843 2.29908 29.3939C1.7105 28.8034 1.38 28.0037 1.38 27.17V8.36C1.3799 7.53581 1.70384 6.74462 2.28194 6.15717C2.86003 5.56973 3.64592 5.23312 4.47 5.22H15.47C17.6456 5.22 19.7723 5.86514 21.5813 7.07383C23.3902 8.28253 24.8001 10.0005 25.6327 12.0105C26.4652 14.0205 26.6831 16.2322 26.2586 18.366C25.8342 20.4998 24.7866 22.4598 23.2482 23.9982C21.7098 25.5365 19.7498 26.5842 17.616 27.0086C15.4822 27.4331 13.2705 27.2152 11.2605 26.3827C9.25049 25.5501 7.53253 24.1402 6.32383 22.3313C5.11514 20.5223 4.47 18.3956 4.47 16.22C4.49355 14.5743 4.92291 12.9599 5.72 11.52L5.28 11.08C5.18604 10.9857 5.11851 10.8683 5.08417 10.7397C5.04982 10.6111 5.04986 10.4757 5.08429 10.3471C5.11872 10.2185 5.18633 10.1012 5.28034 10.0069C5.37436 9.91267 5.49149 9.84476 5.62 9.81L8.77 8.97C8.89873 8.93571 9.03421 8.93586 9.16286 8.97044C9.2915 9.00501 9.40881 9.0728 9.503 9.16699C9.5972 9.26119 9.66498 9.37849 9.69956 9.50714C9.73413 9.63579 9.73429 9.77127 9.7 9.9L8.85 13.04C8.81524 13.1685 8.74733 13.2856 8.65307 13.3797C8.55881 13.4737 8.44151 13.5413 8.31291 13.5757C8.1843 13.6101 8.04891 13.6102 7.92029 13.5758C7.79167 13.5415 7.67432 13.474 7.58 13.38L7.31 13.11C6.8577 14.0854 6.61579 15.145 6.6 16.22C6.59802 17.9791 7.11798 19.6993 8.09407 21.1628C9.07015 22.6263 10.4585 23.7673 12.0833 24.4414C13.7082 25.1155 15.4965 25.2924 17.2219 24.9497C18.9473 24.607 20.5323 23.7601 21.7762 22.5162C23.0201 21.2723 23.867 19.6873 24.2097 17.9619C24.5524 16.2365 24.3755 14.4482 23.7014 12.8233C23.0273 11.1985 21.8863 9.81015 20.4228 8.83407C18.9593 7.85798 17.2391 7.33802 15.48 7.34H4.48C4.21478 7.34 3.96043 7.44535 3.77289 7.63289C3.58536 7.82043 3.48 8.07478 3.48 8.34V27.21C3.47322 27.3455 3.49407 27.4809 3.54128 27.6081C3.58848 27.7352 3.66107 27.8514 3.75461 27.9497C3.84815 28.0479 3.9607 28.126 4.0854 28.1794C4.21011 28.2327 4.34436 28.2602 4.48 28.26H27.52C27.6598 28.2672 27.7995 28.2449 27.9302 28.1947C28.0608 28.1445 28.1795 28.0674 28.2784 27.9684C28.3774 27.8695 28.4545 27.7508 28.5047 27.6202C28.5549 27.4895 28.5772 27.3498 28.57 27.21V4.21C28.5772 4.07021 28.5549 3.93048 28.5047 3.79984C28.4545 3.66919 28.3774 3.55055 28.2784 3.45157C28.1795 3.3526 28.0608 3.27551 27.9302 3.22528C27.7995 3.17506 27.6598 3.15281 27.52 3.16H2.38C2.10152 3.16 1.83445 3.04937 1.63754 2.85246C1.44062 2.65555 1.33 2.38847 1.33 2.11C1.33 1.83152 1.44062 1.56445 1.63754 1.36754C1.83445 1.17062 2.10152 1.06 2.38 1.06H27.52C27.9332 1.06 28.3423 1.14154 28.7239 1.29997C29.1056 1.45839 29.4522 1.69058 29.7439 1.98321C30.0356 2.27585 30.2666 2.62318 30.4239 3.0053C30.5811 3.38742 30.6613 3.79681 30.66 4.21V4.17Z" fill="black"/>
</svg>
