<svg width="32" height="32" viewBox="0 0 32 32" fill="none" xmlns="http://www.w3.org/2000/svg">
<path fill-rule="evenodd" clip-rule="evenodd" d="M28.33 6.68999L17.66 1.32999C17.1442 1.07365 16.576 0.940247 16 0.940247C15.424 0.940247 14.8558 1.07365 14.34 1.32999L9.11 3.93999C8.93333 4.02926 8.78489 4.16579 8.68118 4.33439C8.57748 4.50299 8.52257 4.69705 8.52257 4.89499C8.52257 5.09293 8.57748 5.28699 8.68118 5.45559C8.78489 5.62419 8.93333 5.76072 9.11 5.84999L21.85 12.22V16.36C21.8757 16.6246 21.999 16.8703 22.1959 17.049C22.3927 17.2277 22.6491 17.3267 22.915 17.3267C23.1809 17.3267 23.4373 17.2277 23.6341 17.049C23.831 16.8703 23.9543 16.6246 23.98 16.36V11.56C23.9883 11.3542 23.9371 11.1504 23.8324 10.973C23.7278 10.7956 23.5742 10.6522 23.39 10.56L12 4.88999L15.32 3.23999C15.5403 3.12919 15.7834 3.07148 16.03 3.07148C16.2766 3.07148 16.5197 3.12919 16.74 3.23999L27.38 8.56999C27.6481 8.70014 27.874 8.90347 28.0314 9.15651C28.1889 9.40954 28.2716 9.70196 28.27 9.99999V21.38C28.2704 21.6778 28.1873 21.9697 28.0299 22.2225C27.8726 22.4753 27.6474 22.6789 27.38 22.81L17.07 27.96V15.02C17.0783 14.8142 17.0271 14.6104 16.9224 14.433C16.8178 14.2556 16.6642 14.1122 16.48 14.02L3.14 7.38999C2.9739 7.30862 2.78953 7.2717 2.60491 7.28283C2.42028 7.29396 2.24169 7.35276 2.08656 7.45349C1.93143 7.55422 1.80506 7.69345 1.71979 7.85758C1.63451 8.02172 1.59324 8.20515 1.6 8.38999V21.39C1.60538 22.0766 1.80067 22.7483 2.16426 23.3307C2.52784 23.9132 3.04553 24.3836 3.66 24.69L14.32 30.02C14.8427 30.277 15.4175 30.4105 16 30.41C16.5761 30.4106 17.1445 30.2771 17.66 30.02L28.33 24.69C28.9531 24.3829 29.4775 23.907 29.8435 23.3165C30.2095 22.7261 30.4023 22.0447 30.4 21.35V9.99999C30.3978 9.31015 30.2029 8.63465 29.8371 8.04976C29.4713 7.46488 28.9493 6.99389 28.33 6.68999V6.68999ZM14.93 27.97L4.61 22.81C4.34365 22.6732 4.12041 22.4653 3.96507 22.2094C3.80973 21.9534 3.72836 21.6594 3.73 21.36V10.07L14.93 15.69V27.97Z" fill="black"/>
</svg>
