<svg xmlns="http://www.w3.org/2000/svg" width="512" height="512" viewBox="0 0 512 512">
  <title>alpine</title>
  <path d="M145.81,469.33c-7.95.09-12.6-2.42-16.63-9.58L18.86,264.45c-2.4-4.28-2.39-12.36,0-16.66L130.61,50.3c2.26-3.94,8.74-7.6,13.29-7.62H369.25c4.1,0,9.94,3.48,12,7.1L493.06,247.25c2.54,4.59,2.48,13.24-.09,17.84L382.65,460.36c-3.77,6.71-8,9-15.42,8.95Zm68.51-314.49s-89.61,94.4-134.53,141.74c19.86,18.29,40.8,18.72,61-2.34,23.74-24.76,70.35-75.83,70.35-75.83s51.84,52,75.81,76.51c19.59,20,43.26,19.81,63.11-.89-18.63-19.57-37.28-39.15-55.12-57.87,3,1.49,9,6.13,10.52,4.93,6.89-5.5,9.22.37,12.62,3.8,18.31,18.44,35.85,37.75,55.19,55,6.67,5.94,18.06,9.83,26.79,9,11-1,21.54-7.74,30-11.13L306.69,169.3,271,209.36ZM190,256.84l-38.65,39.91L190,312.23Z" fill-rule="evenodd"/>
</svg>
