<svg xmlns="http://www.w3.org/2000/svg" width="512" height="512" viewBox="0 0 512 512">
  <title>ansible</title>
  <path d="M229,242.31l91.68,72.23L260,164.64ZM339.28,367l-121-97.79L177.67,371.44H142.54L245.12,124.07a16.5,16.5,0,0,1,14.82-9.89A15.27,15.27,0,0,1,274.42,124l93.37,224.87a24.86,24.86,0,0,1,1.65,6.83c0,9.71-7.39,17.1-16.49,17.1h-.71A19.89,19.89,0,0,1,339.28,367ZM280,22.55a235,235,0,0,0-24-1.22C126.4,21.33,21.33,126.4,21.33,256S126.4,490.67,256,490.67,490.67,385.6,490.67,256c0-121.5-92.34-221.43-210.67-233.45"/>
</svg>
