<svg xmlns="http://www.w3.org/2000/svg" width="512" height="512" viewBox="0 0 512 512">
  <title>autover</title>
  <path d="M228.3,331.9l41.91-67.06a16.76,16.76,0,1,0-28.42-17.77l-27.7,44.3-27.7-44.3A16.76,16.76,0,1,0,158,264.84l41.91,67.06a16.76,16.76,0,0,0,28.42,0Zm127.05,91.69h34.74a16.76,16.76,0,0,0,16.76-16.76V172.16a16.76,16.76,0,0,0-16.76-16.76H355.22a16.76,16.76,0,1,0,0,33.52h18.1V390.06h-18a16.76,16.76,0,1,0,0,33.51Zm-65.82-33.53H138.68V188.92H289.53Zm16.76-234.64H121.91a16.76,16.76,0,0,0-16.76,16.76V406.85a16.76,16.76,0,0,0,16.76,16.76H306.29a16.76,16.76,0,0,0,16.76-16.76V172.18A16.76,16.76,0,0,0,306.29,155.42ZM490.67,71.6V440.35a50.29,50.29,0,0,1-50.29,50.29H71.62a50.29,50.29,0,0,1-50.29-50.29V138.66A50.29,50.29,0,0,1,71.62,88.37H222.47a16.76,16.76,0,1,1,0,33.52H71.62a16.76,16.76,0,0,0-16.76,16.77V440.35a16.76,16.76,0,0,0,16.76,16.77H440.38a16.76,16.76,0,0,0,16.76-16.77V71.6a16.76,16.76,0,0,0-16.76-16.76H38.1a16.74,16.74,0,1,1,0-33.48l402.28,0a50.3,50.3,0,0,1,50.29,50.29Z"/>
</svg>
