<svg xmlns="http://www.w3.org/2000/svg" width="512" height="512" viewBox="0 0 512 512">
  <title>bitpoke</title>
  <path d="M449.44,256.73,255.63,62.92l-85.14,84.42,97,96.81a17.13,17.13,0,0,1,0,23.7l-97,98.27,85.14,84.42Zm-285,68.55,67.64-68.55-67.64-68.55Zm320.34-56.34-217.33,217a17.13,17.13,0,0,1-23.7,0L134.39,376.51a17,17,0,0,1-4-10.35V147.32a17,17,0,0,1,4.74-11.83L244.51,26.09a17.13,17.13,0,0,1,23.7,0l216.6,218.79a17.13,17.13,0,0,1,0,23.7ZM104.49,214.25,61.82,256.73l42.67,42.48a16.76,16.76,0,0,1-23.7,23.7l-54.7-54.69a17.14,17.14,0,0,1,0-23.71l54.7-54.69a16.77,16.77,0,1,1,23.7,23.7l0,0Z"/>
</svg>
