<svg xmlns="http://www.w3.org/2000/svg" width="512" height="512" viewBox="0 0 512 512">
  <title>call</title>
  <path d="M469.33,361v64a42.67,42.67,0,0,1-46.5,42.67,422.25,422.25,0,0,1-184.11-65.5,415.92,415.92,0,0,1-128-128,422.18,422.18,0,0,1-65.49-185,42.66,42.66,0,0,1,42.45-46.5h64a42.66,42.66,0,0,1,42.67,36.69,274.09,274.09,0,0,0,14.93,60,42.67,42.67,0,0,1-9.6,45l-27.09,27.09a341.33,341.33,0,0,0,128,128l27.09-27.09a42.67,42.67,0,0,1,45-9.6,274.09,274.09,0,0,0,59.95,14.93A42.67,42.67,0,0,1,469.33,361Z" fill="none" stroke="#000" stroke-linecap="butt" stroke-linejoin="miter" stroke-width="32"/>
</svg>
