<svg xmlns="http://www.w3.org/2000/svg" width="512" height="512" viewBox="0 0 512 512">
  <title>celery</title>
  <path d="M490.3,256.2V441.8a43.65,43.65,0,0,1-48.85,48.52l.21,0H71.26c-1.4.14-3.06.24-4.71.24A45.11,45.11,0,0,1,21.39,445.5a44.29,44.29,0,0,1,.26-4.9l0,.2V71.24c-.14-1.41-.24-3-.24-4.66A45.29,45.29,0,0,1,66.71,21.33a48.28,48.28,0,0,1,5.93.38H440.32Q490,21.7,490,71.24v185.6Zm-107.37-142c-8.1-4-14.55-7.77-21.5-10.74C324.8,88,282.24,79.06,237.57,79.06c-3,0-6,0-8.92.12l.43,0c-53.1,0-87.68,32-89,84.88-1.49,60.11-1.16,120.21,0,180.16.83,48.05,27.46,79.26,75.44,82.56,5.16.27,11.2.41,17.27.41a366,366,0,0,0,77.6-8.27l-2.4.43a646.49,646.49,0,0,0,80.27-25l-4.5,1.52c-7.44-15.52-13.89-27.41-18.86-39.79s-8.77-11.73-20.18-8.43c-25,7.91-56.38,15.49-88.42,21.12l-4.72.68c-30.11,5-45.49-10.73-45.49-41.45V175.6a31.42,31.42,0,0,1-.35-4.81,33,33,0,0,1,33.09-33,33.73,33.73,0,0,1,3.64.19h-.15c.78,0,1.7,0,2.63,0a172.71,172.71,0,0,1,38.72,4.38l-1.15-.23c25.31,5.78,49.63,13.37,76.92,20.47l23.49-48.38Z"/>
</svg>
