<svg xmlns="http://www.w3.org/2000/svg" width="512" height="512" viewBox="0 0 512 512">
  <title>certificate</title>
  <path d="M188,392H80a40,40,0,0,1-40-40V96A40,40,0,0,1,80,56H432a40,40,0,0,1,40,40V352a40,40,0,0,1-40,40" fill="none" stroke="#000" stroke-linecap="butt" stroke-linejoin="miter" stroke-width="32"/>
  <circle cx="314.07" cy="297.93" r="81.93" fill="none" stroke="#000" stroke-linecap="butt" stroke-linejoin="miter" stroke-width="32"/>
  <path d="M328,297.93a13.93,13.93,0,0,1-27.86,0" fill="none" stroke="#000" stroke-linecap="butt" stroke-linejoin="miter" stroke-width="32"/>
  <polyline points="273.12 368.88 247.64 464 314.07 433 380.5 464 355.02 368.88" fill="none" stroke="#000" stroke-linecap="butt" stroke-linejoin="miter" stroke-width="32"/>
  <line x1="314.07" y1="433" x2="314.07" y2="379.86" fill="none" stroke="#000" stroke-linecap="butt" stroke-linejoin="miter" stroke-width="32"/>
  <line x1="104" y1="128" x2="408" y2="128" fill="none" stroke="#000" stroke-linecap="butt" stroke-linejoin="miter" stroke-width="32"/>
  <line x1="104" y1="192" x2="192" y2="192" fill="none" stroke="#000" stroke-linecap="butt" stroke-linejoin="miter" stroke-width="32"/>
  <line x1="104" y1="256" x2="160" y2="256" fill="none" stroke="#000" stroke-linecap="butt" stroke-linejoin="miter" stroke-width="32"/>
  <line x1="104" y1="320" x2="160" y2="320" fill="none" stroke="#000" stroke-linecap="butt" stroke-linejoin="miter" stroke-width="32"/>
  <path d="M300.14,297.93a13.93,13.93,0,0,1,27.86,0" fill="none" stroke="#000" stroke-linecap="butt" stroke-linejoin="miter" stroke-width="32"/>
</svg>
