<svg xmlns="http://www.w3.org/2000/svg" width="512" height="512" viewBox="0 0 512 512">
  <title>disk-download</title>
  <line x1="112" y1="400" x2="216" y2="400" fill="none" stroke="#000" stroke-linecap="butt" stroke-linejoin="miter" stroke-width="32"/>
  <line x1="280" y1="400" x2="288" y2="400" fill="none" stroke="#000" stroke-linecap="butt" stroke-linejoin="miter" stroke-width="32"/>
  <line x1="48" y1="336" x2="464" y2="336" fill="none" stroke="#000" stroke-linecap="butt" stroke-linejoin="miter" stroke-width="32"/>
  <line x1="256" y1="48" x2="256" y2="271" fill="none" stroke="#000" stroke-linecap="butt" stroke-linejoin="miter" stroke-width="32"/>
  <polyline points="200 216 256 272 312 216" fill="none" stroke="#000" stroke-linecap="butt" stroke-linejoin="miter" stroke-width="32"/>
  <path d="M48,336l68.25-149.2A40,40,0,0,1,150.17,168H192" fill="none" stroke="#000" stroke-linecap="butt" stroke-linejoin="miter" stroke-width="32"/>
  <path d="M320,168h41.83a40,40,0,0,1,33.92,18.8L464,336" fill="none" stroke="#000" stroke-linecap="butt" stroke-linejoin="miter" stroke-width="32"/>
  <path d="M464,336v88a40,40,0,0,1-40,40H88a40,40,0,0,1-40-40V336" fill="none" stroke="#000" stroke-linecap="butt" stroke-linejoin="miter" stroke-width="32"/>
</svg>
