<svg xmlns="http://www.w3.org/2000/svg" width="512" height="512" viewBox="0 0 512 512">
  <title>docker</title>
  <path d="M21.33,264.54a33.3,33.3,0,0,0,1.16-6.47V258c0-4.12,1.48-6.09,6.42-6.09H343.77A76,76,0,0,0,373,246.05l-.51.19a48.54,48.54,0,0,0,5.52-2.59l-.25.11a72,72,0,0,1-8.35-44.52l0,.36a82.17,82.17,0,0,1,18.41-42.48l-.12.13a77.45,77.45,0,0,1,38.25,46.09l.15.54c1.82,6.93,1.65,6.27,8.74,5.77a68.31,68.31,0,0,1,12.73-1.17,69.83,69.83,0,0,1,43.11,14.8l-.14-.12a77.64,77.64,0,0,1-26.82,35.29l-.21.15a73.25,73.25,0,0,1-38.13,10.58c-.84,0-1.68,0-2.52-.05H423a5.31,5.31,0,0,0-.82-.05,6.73,6.73,0,0,0-6.41,4.61l0,.05c-31,73.27-96.14,126.73-174.91,140.85l-1.42.21a291.69,291.69,0,0,1-59,5.85q-3.65,0-7.28-.08h.36c-.69,0-1.51,0-2.34,0a167.1,167.1,0,0,1-84.64-22.86l.8.43A132.37,132.37,0,0,1,29.79,320l-.2-.92a275.94,275.94,0,0,1-5.93-31.39l-.17-1.57a48.66,48.66,0,0,0-1.24-4.94l.09.33ZM230,91.35v39.38c0,3.63,1.15,4.62,4.78,4.62h37.57c4,0,5.11-1.16,5.11-5.11V91.35Zm-71.85,97.88c3.3,0,4.78,0,4.61-4.45V149.19c0-3.13,0-4.29-3.95-4.29H119.06c-3.14,0-4.13,1.16-4,4.29v35.59c0,3.63,1.32,4.45,4.45,4.45Zm115.36,0c3.13,0,4.28-1.15,4.12-4.28V149.19c0-3,0-4.29-4-4.29H234.08c-3.13,0-4.28,1-4.28,4.29v35.59c0,3.46,1.31,4.45,4.61,4.45Zm-96.9-44.33c-3,0-4,1.16-4,4v36.25c0,2.81,1,4.12,4,4.12h39.55c3,0,3.95-1.31,3.95-4.12V148.86c0-3.3-1.48-4-4.45-4H196.34c-6.42,0-12.85.33-19.44,0Zm-74.49,97.23c2.64,0,3.63-1,3.63-3.79V202.75c0-2.8-1-3.79-3.63-3.79H61.87c-2.64,0-3.62,1-3.62,3.62v35.76c0,3.13,1.48,3.79,4.12,3.79h39.71Zm56.53,0c3,0,4.11-.82,4.11-4.12V203.24c0-3.46-1.15-4.28-4.45-4.28H119.55c-3,0-4.29.82-4.12,4.12v34.77c0,3.46,1.15,4.28,4.45,4.28h38.73Zm115.35,0c3,0,4.12-.82,4-3.95v-35.1c0-2.81,0-4.12-3.63-4.12H234.08c-2.8,0-4,.82-4,3.95V238c0,3.46,1.31,4.12,4.45,4.12Zm57,0c2.64,0,4.12,0,4.12-3.79V202.75c0-2.8-1-3.79-3.63-3.79H290.93c-2.63,0-3.62,1-3.62,3.79v35.59c0,3.13,1.48,3.79,4.12,3.79ZM177.39,199c-3,0-4.45.82-4.45,4.12v35.1c0,2.8,1.16,3.95,4.12,3.95h39.39c3,0,4-1.32,4-3.95V202.91c0-3-1.15-3.95-4.12-3.95Z"/>
</svg>
