<svg xmlns="http://www.w3.org/2000/svg" width="512" height="512" viewBox="0 0 512 512">
  <title>domain</title>
  <line x1="480" y1="176" x2="32" y2="176" fill="none" stroke="#000" stroke-linecap="butt" stroke-linejoin="miter" stroke-width="32"/>
  <line x1="32" y1="336" x2="480" y2="336" fill="none" stroke="#000" stroke-linecap="butt" stroke-linejoin="miter" stroke-width="32"/>
  <path d="M63.94,176a208.08,208.08,0,0,1,383.71-1" fill="none" stroke="#000" stroke-linecap="butt" stroke-linejoin="miter" stroke-width="32"/>
  <path d="M448.06,336a208.08,208.08,0,0,1-383.71,1" fill="none" stroke="#000" stroke-linecap="butt" stroke-linejoin="miter" stroke-width="32"/>
  <path d="M174.74,176C188,100.83,219.39,48,256,48c36.45,0,67.73,52.38,81.08,127" fill="none" stroke="#000" stroke-linecap="butt" stroke-linejoin="miter" stroke-width="32"/>
  <path d="M337.26,336C324,411.17,292.61,464,256,464c-36.45,0-67.73-52.38-81.08-127" fill="none" stroke="#000" stroke-linecap="butt" stroke-linejoin="miter" stroke-width="32"/>
  <polyline points="72 224 96 288 120 224 144 288 168 224" fill="none" stroke="#000" stroke-linecap="butt" stroke-linejoin="miter" stroke-width="32"/>
  <polyline points="208 224 232 288 256 224 280 288 304 224" fill="none" stroke="#000" stroke-linecap="butt" stroke-linejoin="miter" stroke-width="32"/>
  <polyline points="344 224 368 288 392 224 416 288 440 224" fill="none" stroke="#000" stroke-linecap="butt" stroke-linejoin="miter" stroke-width="32"/>
</svg>
