<svg xmlns="http://www.w3.org/2000/svg" width="512" height="512" viewBox="0 0 512 512">
  <title>drone</title>
  <path d="M490.61,266H357.54a11.27,11.27,0,0,1-1.35.08,10.39,10.39,0,0,1-10-7.6l0-.06A96.87,96.87,0,0,0,282,196.24l-.68-.18a88.45,88.45,0,0,0-24.57-3.42,90.23,90.23,0,0,0-83,54.93l-.23.59a28.42,28.42,0,0,1-27,19.67,29.51,29.51,0,0,1-4.83-.41l.17,0c-36.12-1.49-72.39,0-108.5,0h-12a222.34,222.34,0,0,1,85.73-158.58l.51-.38c80.3-62,169.34-65.95,260-25.72,68.59,30.67,125.15,118.56,123,183.85ZM428.44,303.4H359.52a11,11,0,0,0-2.14-.21,10.89,10.89,0,0,0-10.71,8.88v.07C334.6,350.59,299.3,378,257.58,378a92.55,92.55,0,0,1-35.22-6.9l.63.23a90.64,90.64,0,0,1-55.58-59.7l-.15-.65c-1.65-4.94-3.3-6.92-8.74-6.92H83a36.79,36.79,0,0,0-5.52,1.05l.26-.06c0,2.14,0,3.63.82,4.95a53,53,0,0,0,2.94,8.07l-.13-.32a259.72,259.72,0,0,0,90.31,109.42l.87.56a151,151,0,0,0,141.36,17.79l-1,.34c47.26-17.14,85.4-49.92,109-92l.53-1a106.44,106.44,0,0,0,16.45-49.09l0-.38ZM196.77,286.91a60.19,60.19,0,0,0,120.21.15v-.15a60.19,60.19,0,0,0-120.21-.15Z"/>
</svg>
