<svg xmlns="http://www.w3.org/2000/svg" width="512" height="512" viewBox="0 0 512 512">
  <title>eu-flag-light</title>
  <path d="M244.59,440l-25.5,3.71,18.45,18-4.36,25.4,22.82-12,22.82,12-4.36-25.4,18.46-18L267.41,440,256,416.83Zm-98.88-26.49-25.5,3.7,18.46,18-4.36,25.4,22.82-12,22.81,12-4.35-25.4,18.45-18-25.51-3.7-11.4-23.11Zm197.75,0L318,417.16l18.47,18-4.36,25.4,22.82-12,22.82,12-4.37-25.4,18.46-18-25.51-3.7-11.4-23.11ZM73.34,341.08l-25.51,3.71,18.45,18-4.36,25.41,22.82-12,22.82,12-4.36-25.41,18.46-18-25.51-3.71L84.74,318Zm342.51,0-25.51,3.71,18.46,18-4.36,25.41,22.81-12,22.82,12-4.36-25.41,18.47-18-25.52-3.71L427.25,318Zm-369-98.88-25.51,3.7,18.46,18-4.36,25.4,22.82-12,22.82,12-4.36-25.4,18.46-18-25.5-3.7L58.25,219.08Zm395.5,0-25.51,3.7,18.47,18-4.37,25.4,22.81-12,22.83,12-4.36-25.4,18.46-18h0l-25.51-3.7-11.42-23.12Zm-369-98.88L47.83,147l18.45,18-4.36,25.4,22.82-12,22.82,12L103.2,165l18.46-18-25.51-3.71L84.74,120.21Zm342.51,0L390.34,147l18.46,18-4.36,25.4,22.81-12,22.82,12L445.71,165l18.47-18-25.52-3.71-11.41-23.11ZM145.71,70.94l-25.5,3.71,18.46,18-4.36,25.41,22.82-12,22.81,12-4.35-25.41,18.45-18-25.51-3.71-11.4-23.11Zm197.75,0L318,74.65l18.47,18-4.36,25.41,22.82-12,22.82,12-4.37-25.41,18.46-18-25.51-3.71-11.4-23.11ZM256,21.33,244.59,44.45l-25.5,3.71,18.45,18-4.36,25.42,22.82-12,22.82,12-4.36-25.42,18.46-18-25.51-3.71Z" fill-rule="evenodd"/>
</svg>
