<svg xmlns="http://www.w3.org/2000/svg" width="512" height="512" viewBox="0 0 512 512">
  <title>eu-flag-dark</title>
  <path d="M321.68,103.07l-24.51,3.55,17.74,17.3-4.19,24.41,21.93-11.52,21.92,11.52-4.19-24.41,17.75-17.3-24.52-3.55-11-22.22Zm-158.35,0-24.52,3.55,17.74,17.3-4.18,24.41,21.92-11.52,21.92,11.52L192,123.92l17.74-17.3-24.52-3.55-11-22.22Zm90.14-43.44-11,22.22L218,85.41l17.74,17.29-4.18,24.42,21.92-11.54,21.92,11.54-4.18-24.42L289,85.41l-24.52-3.56ZM379.65,161l-24.52,3.56,17.74,17.29-4.19,24.41,21.93-11.52,21.93,11.52-4.19-24.41,17.74-17.29L401.57,161l-11-22.22Zm21.21,79.18-24.51,3.56,17.74,17.29-4.19,24.41L411.83,274l21.92,11.52-4.19-24.41,17.74-17.29-24.51-3.56-11-22.22Zm-21.21,79.18L355.13,323l17.74,17.29-4.19,24.41,21.93-11.52,21.93,11.52-4.19-24.41L426.09,323l-24.52-3.56-11-22.22Zm-58,58-24.51,3.56,17.74,17.29-4.19,24.41,21.93-11.52,21.92,11.52-4.19-24.41,17.75-17.29-24.52-3.56-11-22.22Zm-79.17,21.22L218,402.13l17.74,17.28-4.19,24.42,21.93-11.53,21.92,11.53-4.18-24.42,17.73-17.28-24.51-3.56-11-22.22Zm-79.18-21.22-24.52,3.56,17.74,17.29-4.18,24.41,21.92-11.52,21.92,11.52L192,398.2l17.74-17.29-24.52-3.56-11-22.22Zm-58-58L80.85,323l17.74,17.29L94.4,364.65l21.92-11.52,21.93,11.52-4.19-24.41L151.81,323l-24.52-3.56-11-22.22ZM84.15,240.21l-24.52,3.56,17.75,17.29-4.2,24.41L95.11,274,117,285.47l-4.19-24.41,17.73-17.29-24.51-3.56L95.11,218Zm32.18-101.4-11,22.22-24.52,3.56,17.74,17.29L94.4,206.29l21.93-11.52,21.92,11.52-4.18-24.41,17.73-17.29L127.29,161ZM37.82,16H474.18A21.82,21.82,0,0,1,496,37.82V474.18A21.82,21.82,0,0,1,474.18,496H37.82A21.82,21.82,0,0,1,16,474.18V37.82A21.82,21.82,0,0,1,37.82,16Z" fill-rule="evenodd"/>
</svg>
