<svg xmlns="http://www.w3.org/2000/svg" width="512" height="512" viewBox="0 0 512 512">
  <title>eye-off</title>
  <line x1="64" y1="64" x2="448" y2="448" fill="none" stroke="#000" stroke-linecap="butt" stroke-linejoin="miter" stroke-width="32"/>
  <path d="M162.84,161.42C114.29,180.22,71.93,213.29,40,256" fill="none" stroke="#000" stroke-linecap="butt" stroke-linejoin="miter" stroke-width="32"/>
  <path d="M472,256c-51.09-68.34-128.86-112-216-112a258.06,258.06,0,0,0-37.29,2.7" fill="none" stroke="#000" stroke-linecap="butt" stroke-linejoin="miter" stroke-width="32"/>
  <path d="M306.91,306.91A72,72,0,1,1,205.09,205.09" fill="none" stroke="#000" stroke-linecap="butt" stroke-linejoin="miter" stroke-width="32"/>
  <path d="M320.41,223.79A71.64,71.64,0,0,1,328,256" fill="none" stroke="#000" stroke-linecap="butt" stroke-linejoin="miter" stroke-width="32"/>
  <path d="M267.31,267.31a16,16,0,0,1-22.62-22.62" fill="none" stroke="#000" stroke-linecap="butt" stroke-linejoin="miter" stroke-width="32"/>
  <line x1="244.69" y1="244.69" x2="267.31" y2="267.31" fill="none" stroke="#000" stroke-linecap="butt" stroke-linejoin="miter" stroke-width="32"/>
  <line x1="244.69" y1="267.31" x2="256" y2="256" fill="none" stroke="#000" stroke-linecap="butt" stroke-linejoin="miter" stroke-width="32"/>
  <path d="M397.75,325.75A288.74,288.74,0,0,0,472,256" fill="none" stroke="#000" stroke-linecap="butt" stroke-linejoin="miter" stroke-width="32"/>
  <path d="M40,256c51.09,68.34,128.86,112,216,112a257.16,257.16,0,0,0,93.16-17.42" fill="none" stroke="#000" stroke-linecap="butt" stroke-linejoin="miter" stroke-width="32"/>
</svg>
