<svg xmlns="http://www.w3.org/2000/svg" width="512" height="512" viewBox="0 0 512 512">
  <title>file-archive</title>
  <path d="M424,160V440a40,40,0,0,1-40,40H128a40,40,0,0,1-40-40V72a40,40,0,0,1,40-40H296Z" fill="none" stroke="#000" stroke-linecap="butt" stroke-linejoin="miter" stroke-width="32"/>
  <polyline points="296 32 296 160 424 160" fill="none" stroke="#000" stroke-linecap="butt" stroke-linejoin="miter" stroke-width="32"/>
  <line x1="240" y1="80" x2="216" y2="80" fill="none" stroke="#000" stroke-linecap="butt" stroke-linejoin="miter" stroke-width="32"/>
  <line x1="272" y1="120" x2="248" y2="120" fill="none" stroke="#000" stroke-linecap="butt" stroke-linejoin="miter" stroke-width="32"/>
  <line x1="240" y1="160" x2="216" y2="160" fill="none" stroke="#000" stroke-linecap="butt" stroke-linejoin="miter" stroke-width="32"/>
  <line x1="272" y1="200" x2="248" y2="200" fill="none" stroke="#000" stroke-linecap="butt" stroke-linejoin="miter" stroke-width="32"/>
  <line x1="240" y1="240" x2="216" y2="240" fill="none" stroke="#000" stroke-linecap="butt" stroke-linejoin="miter" stroke-width="32"/>
  <path d="M272,280H224l-16,80s0,40,40,40,40-40,40-40Z" fill="none" stroke="#000" stroke-linecap="butt" stroke-linejoin="miter" stroke-width="32"/>
</svg>
