<svg xmlns="http://www.w3.org/2000/svg" width="512" height="512" viewBox="0 0 512 512">
  <title>file-database</title>
  <path d="M424,160V440a40,40,0,0,1-40,40H128a40,40,0,0,1-40-40V72a40,40,0,0,1,40-40H296Z" fill="none" stroke="#000" stroke-linecap="butt" stroke-linejoin="miter" stroke-width="32"/>
  <polyline points="296 32 296 160 424 160" fill="none" stroke="#000" stroke-linecap="butt" stroke-linejoin="miter" stroke-width="32"/>
  <ellipse cx="256" cy="264" rx="104" ry="40" fill="none" stroke="#000" stroke-linecap="butt" stroke-linejoin="miter" stroke-width="32"/>
  <path d="M360,320c0,22.08-46.57,40-104,40s-104-17.92-104-40" fill="none" stroke="#000" stroke-linecap="butt" stroke-linejoin="miter" stroke-width="32"/>
  <path d="M152,264V376c0,22.08,46.57,40,104,40s104-17.92,104-40V264" fill="none" stroke="#000" stroke-linecap="butt" stroke-linejoin="miter" stroke-width="32"/>
</svg>
