<svg xmlns="http://www.w3.org/2000/svg" width="512" height="512" viewBox="0 0 512 512">
  <title>folder-symlink</title>
  <path d="M424,176H272L186,88H88a40,40,0,0,0-40,40V384a40,40,0,0,0,40,40H424a40,40,0,0,0,40-40V216A40,40,0,0,0,424,176Z" fill="none" stroke="#000" stroke-linecap="butt" stroke-linejoin="miter" stroke-width="32"/>
  <path d="M464,216V152a40,40,0,0,0-40-40H209.33" fill="none" stroke="#000" stroke-linecap="butt" stroke-linejoin="miter" stroke-width="32"/>
  <path d="M185.93,360V336a40,40,0,0,1,40-40h104" fill="none" stroke="#000" stroke-linecap="butt" stroke-linejoin="miter" stroke-width="32"/>
  <polyline points="265.93 232 329.93 296 273.93 360" fill="none" stroke="#000" stroke-linecap="butt" stroke-linejoin="miter" stroke-width="32"/>
</svg>
