<svg xmlns="http://www.w3.org/2000/svg" width="512" height="512" viewBox="0 0 512 512">
  <title>frontapp</title>
  <path d="M23,196.84A230.35,230.35,0,0,1,79.64,72.06l-.2.23a19.56,19.56,0,0,1,15.49-7.58c.34,0,.67,0,1,0h0c29.12,0,58.41,1.32,87.53,0A76.11,76.11,0,0,1,194.27,64a79.19,79.19,0,0,1,54,21.19l0,0a9.37,9.37,0,0,0,13.16,0C267.84,80.21,274.74,75.93,281,71a31,31,0,0,1,18.38-6,31.82,31.82,0,0,1,3.81.23l-.14,0H415.26c.34,0,.75,0,1.17,0a19.39,19.39,0,0,1,15.25,7.41l0,0a228.36,228.36,0,0,1,59,153.53q0,10.59-.94,20.95l.07-.89C478.45,366.35,378.11,459.59,256,459.59c-113.87,0-208.83-81.07-230.27-188.65l-.24-1.5a231,231,0,0,1-4.15-44.28,242.13,242.13,0,0,1,1.79-29.43L23,196.88ZM405.88,85.13c-5.1-1.81-7.08,0-9.38,2.46q-64.67,45.91-128.83,92.8c-11.19,7.9-12.67,7.9-23.69,0L117.45,89.08c-2.8-2.14-5.43-5.93-11.19-3.3,9.22,9.22,17.94,17.77,27.15,26.66s8.72,8.88,1,18.92a149.69,149.69,0,0,0-33.58,94.79,152.91,152.91,0,0,0,2.79,29.07l-.14-.95C117.14,327,180.19,381.35,255.92,381.35a155,155,0,0,0,132.14-73.92l.38-.68a153,153,0,0,0-12.56-176l.22.26c-5.6-6.91-5.1-11.35,1.15-16.45,9.87-9,19.09-18.76,28.63-28.14Z"/>
</svg>
