<svg xmlns="http://www.w3.org/2000/svg" width="512" height="512" viewBox="0 0 512 512">
  <title>git</title>
  <path d="M481.81,235.1,276.9,30.19a30.22,30.22,0,0,0-42.75,0L191.62,72.74l54,54A35.9,35.9,0,0,1,291,172.47l52,52a35.93,35.93,0,1,1-21.54,20.28L273,196.27V323.94a35.87,35.87,0,1,1-29.56-1.06V194a35.34,35.34,0,0,1-11.79-7.85,36,36,0,0,1-7.74-39.32L170.7,93.65,30.19,234.14a30.23,30.23,0,0,0,0,42.76L235.11,481.81a30.22,30.22,0,0,0,42.75,0l204-203.95A30.23,30.23,0,0,0,481.81,235.1Z"/>
</svg>
