<svg xmlns="http://www.w3.org/2000/svg" width="512" height="512" viewBox="0 0 512 512">
  <title>gitea</title>
  <path d="M373.81,396.81h-141a44.79,44.79,0,0,1-20.7-9.39l.08.07a189.38,189.38,0,0,1-55.49-70.81l-.48-1.19a8.7,8.7,0,0,0-8.23-5.93c-.28,0-.54,0-.8,0h0a173.29,173.29,0,0,1-54.39-10.38l1.21.38C54.14,287,25.29,251.49,22.66,208.91l0-.3c0-3.6-.82-7.2-1.31-10.8v-8.18c0-4.91,1.15-9.82,2-14.73a79.89,79.89,0,0,1,65-66.37l.47-.06,12.6-1.8h9.17L133.75,108l46.64,2.45c21.6,1.15,43,2.46,64.47,3.27,17.51,0,35.19,0,52.7,1.15H300v78.87c0,1.15,0,2.95.82,3.28a115.83,115.83,0,0,0,11.36,5.92l.75.29V114.85h3.76c10.31,0,20.78,0,31.09-.82,21.93,0,43.86-1.64,65.46-2.62l28.8-1.47,31.09-1.47c.25,0,.52,0,.8,0a10.13,10.13,0,0,1,8,3.93l0,0a24.64,24.64,0,0,1,4.53,7.53l.05.16a66.09,66.09,0,0,1,4.11,23.15c0,.61,0,1.21,0,1.8v-.08a265.2,265.2,0,0,1-6,54.94l.31-1.76a492.39,492.39,0,0,1-32.81,111.05l1.23-3.21A255.16,255.16,0,0,1,419,367.47l.46-.63a82.47,82.47,0,0,1-32.21,26l-.52.21a86.82,86.82,0,0,1-12.31,3.65l-.62.11Zm-232.53-128c0-2-.82-3-1.15-3.93-4.41-13.09-9-26.34-12.92-39.6a387.15,387.15,0,0,1-14.45-76l-.12-1.57c0-2,0-2.79-2.78-2.62a73.77,73.77,0,0,0-16.36,2,39.55,39.55,0,0,0-32.68,30.5l0,.27a60.53,60.53,0,0,0-1.65,14.23,62.53,62.53,0,0,0,1.73,14.66l-.08-.42a65.67,65.67,0,0,0,38.36,50.89l.42.16a154.35,154.35,0,0,0,22.76,7.78l1.13.24a144.68,144.68,0,0,0,17,3.34Zm144-72.66a20.55,20.55,0,0,0-10.11-2.63A20.79,20.79,0,0,0,256,206.19l-.05.13q-19.14,39.28-38.13,78.55a20.19,20.19,0,0,0-2.65,10.06,20.49,20.49,0,0,0,12.5,18.86l.14,0,17.67,8.51L306.39,352a20.77,20.77,0,0,0,29.07-9.85l0-.13c1.48-3.27,3.11-6.55,4.75-9.82q16.69-34.11,32.73-68.4a21.18,21.18,0,0,0,2.73-10.49,23.21,23.21,0,0,0-.13-2.37v.1a21.18,21.18,0,0,0-12.46-16.32l-.13-.05-39.61-19.31Z"/>
</svg>
