<svg xmlns="http://www.w3.org/2000/svg" width="512" height="512" viewBox="0 0 512 512">
  <title>gitfs</title>
  <path d="M462,363.16,387.73,90.86a59.9,59.9,0,0,0-57.6-43.92H149.33a17.07,17.07,0,0,0,0,34.13h180.8a25.67,25.67,0,0,1,24.69,18.82l57.06,208.3A80.09,80.09,0,0,0,384,302.94H128a80,80,0,0,0-27.75,5.2l39.82-144.3a25.68,25.68,0,0,1,24.69-18.77H298.67a17.07,17.07,0,0,0,0-34.13H164.76a59.9,59.9,0,0,0-57.6,43.84c3.45.3-57.45,209.32-57.45,209.32a80,80,0,0,0,78.29,101H384A81.16,81.16,0,0,0,465.07,384,79.83,79.83,0,0,0,462,363.16m-78,67.78H128a46.94,46.94,0,0,1,0-93.87H384a46.94,46.94,0,0,1,0,93.87" fill-rule="evenodd"/>
  <path d="M149.33,366.94H128a17.07,17.07,0,1,0,0,34.13h21.33a17.07,17.07,0,1,0,0-34.13" fill-rule="evenodd"/>
  <path d="M234.67,366.94H213.33a17.07,17.07,0,0,0,0,34.13h21.34a17.07,17.07,0,0,0,0-34.13" fill-rule="evenodd"/>
</svg>
