<svg xmlns="http://www.w3.org/2000/svg" width="512" height="512" viewBox="0 0 512 512">
  <title>github</title>
  <path d="M261.81,21.33q49.76,0,93.59,19a249.93,249.93,0,0,1,76.69,51.23A239.6,239.6,0,0,1,503.47,260a243.51,243.51,0,0,1-11.85,76.4,230.58,230.58,0,0,1-33.77,65.74A254.21,254.21,0,0,1,406,454.29a226.27,226.27,0,0,1-66,34.36q-8.88,1.2-12.74-3c-2.58-2.78-3.86-5.52-3.86-8.28V410.45q0-16.57-4.75-27.53t-11.25-16.29A176.74,176.74,0,0,0,381.73,340q34.65-21.92,34.66-91.81a94.28,94.28,0,0,0-6.81-36.12,91.1,91.1,0,0,0-18.06-28.43q1.17-4.73,4.15-21.92t-7.1-41.46q-32,1.77-66.33,24.88a228.92,228.92,0,0,0-29.61-5.32,271.71,271.71,0,0,0-30.8-1.78c-10.28,0-20.53.5-30.81,1.48a161.69,161.69,0,0,0-29.61,5.62Q167.06,122,135.08,120.25q-10.07,24.27-7.7,41.46c1.6,11.44,3.16,18.77,4.75,21.92a92.14,92.14,0,0,0-18.95,29c-4.4,10.64-6.55,22.49-6.55,35.53q0,69.9,34.66,92.7a165.07,165.07,0,0,0,74.94,26.94,59.74,59.74,0,0,0-9.18,12.44q-4.45,7.71-5.62,20.14Q191.37,404.56,170,406t-37.9-26.35q-19.6-23.7-37.35-24.88Q77,358.35,93.6,369.6a76.07,76.07,0,0,1,26.64,35.53q31.38,43.26,81.15,32v41.44c0,2.77-1.28,5.62-3.86,8.59s-6.8,4.06-12.73,3.26a252,252,0,0,1-65.17-34.65A240.5,240.5,0,0,1,33.44,337.6a237.18,237.18,0,0,1-12.11-75.79q0-49.77,19-93.59A241.52,241.52,0,0,1,168.22,40.29Q212.05,21.32,261.81,21.33Z"/>
</svg>
