<svg xmlns="http://www.w3.org/2000/svg" width="512" height="512" viewBox="0 0 512 512">
  <title>gitium</title>
  <path d="M137.62,220.36a16.77,16.77,0,1,1,16.76-16.76A16.76,16.76,0,0,1,137.62,220.36ZM372.27,354.45a16.76,16.76,0,1,1-16.77,16.76A16.76,16.76,0,0,1,372.27,354.45ZM137.62,388a16.76,16.76,0,1,1,16.76-16.76A16.76,16.76,0,0,1,137.62,388Zm0-67A50.29,50.29,0,1,0,185,388H324.86a50.28,50.28,0,1,0,1.05-36.28c-11.13-5.79-16.5-21.25-24.46-50.42-6.73-24.6-14.34-52.49-32.76-74.91-19.44-23.67-46.86-36.48-83.48-39a50.29,50.29,0,1,0-.38,33.6c61.31,5.19,72.49,46.06,84.28,89.18,4.38,16.06,8.58,31.35,15.44,44.33H185A50.29,50.29,0,0,0,137.62,320.94ZM440.38,21.35l-402.28,0a16.74,16.74,0,1,0,0,33.48H440.38a16.76,16.76,0,0,1,16.76,16.76V440.38a16.76,16.76,0,0,1-16.76,16.76H71.62a16.76,16.76,0,0,1-16.76-16.76V138.68a16.76,16.76,0,0,1,16.76-16.77H222.47a16.76,16.76,0,1,0,0-33.52H71.62a50.29,50.29,0,0,0-50.29,50.29v301.7a50.3,50.3,0,0,0,50.29,50.29H440.38a50.3,50.3,0,0,0,50.29-50.29V71.62a50.3,50.3,0,0,0-50.29-50.29Z"/>
</svg>
