<svg xmlns="http://www.w3.org/2000/svg" width="512" height="512" viewBox="0 0 512 512">
  <title>gitolite</title>
  <path d="M182,209.41a49.14,49.14,0,0,0-28-35.08l-.32-.12a67.78,67.78,0,0,0-27.95-6.16h0l-1.07,0a60.23,60.23,0,0,0-47.24,22.78l-.09.12a102.84,102.84,0,0,0-19.13,60c0,2.8.1,5.56.33,8.29l0-.37a81,81,0,0,0-.46,8.85,84.43,84.43,0,0,0,21,55.83l-.09-.11a66.26,66.26,0,0,0,46.55,19h.09c.92.06,2,.07,3.06.07a59.34,59.34,0,0,0,39.61-15.08l-.06.05a64.66,64.66,0,0,0,20.21-38.91l0-.34h-57V246.88H233.05V379.24H199.26l-5.11-31a118.85,118.85,0,0,1-25.7,25.28l-.35.24a90.71,90.71,0,0,1-46.6,12.73c-1.08,0-2.13,0-3.19-.05h.16c-.92,0-2,.05-3.06.05a101.64,101.64,0,0,1-76.23-34.27l-.09-.11A129.59,129.59,0,0,1,6,265.38c0-2.43.07-4.82.19-7.22v.34c-.09-1.92-.14-4.16-.14-6.41a140.3,140.3,0,0,1,32.87-90.45l-.17.21a110.64,110.64,0,0,1,82.09-36.34c1.51,0,3,0,4.54.09h-.21c1.4-.07,3.06-.11,4.71-.11A110.11,110.11,0,0,1,200,150.55l-.2-.16a89.08,89.08,0,0,1,32.35,59.27l0,.4Zm202.41-83.78h58.43v96.45H506v57H442.81v96.45H384.38V279.11H321.19v-57h63.19ZM256.07,375.56V125.63h54.39V375.56Z"/>
</svg>
