<svg xmlns="http://www.w3.org/2000/svg" width="512" height="512" viewBox="0 0 512 512">
  <title>golang</title>
  <path d="M262.87,118h.1a17.75,17.75,0,0,1,7.61,4h0a7.21,7.21,0,0,1-1.35,11.91l.56-.22a85.68,85.68,0,0,1-14.66,4.92h-.25a66,66,0,0,1-10.83-1.83h0A8.06,8.06,0,0,1,240.72,122l0,0a22.46,22.46,0,0,1,14.59-5.37A22,22,0,0,1,262.87,118ZM180,100l3.19-3.36-3.69-2.85c-.67,1-2,2.18-2,3.19S178.94,99,180,100Zm111.12-3.52c-.84-1-2.35-2-2.35-3.19s1-2.18,2.35-4.37c1.18,2.19,2.35,3.36,2.35,4.37S291.07,95.34,291.07,96.52ZM173.57,79.23h0A14.26,14.26,0,0,1,187,93.48v.35a13.26,13.26,0,1,1-26.52,0v-.38A14.28,14.28,0,0,1,173.57,79.23ZM284.19,75.7a14.12,14.12,0,0,0-12.62,14c0,.32,0,.64,0,1V91a13.6,13.6,0,0,0,12.89,13.58h0a13.78,13.78,0,0,0,13-13.75c0-.3,0-.6,0-.91v0c0-.15,0-.34,0-.52a13.76,13.76,0,0,0-13.25-13.75h0Zm65.13,22.83a39.89,39.89,0,0,1-35.47,28.37h-.11a56.55,56.55,0,0,1-7.64.5,58.67,58.67,0,0,1-14.25-1.76l.4.08A37,37,0,0,1,262.91,95l0-.2a37.07,37.07,0,0,1-.65-7,37.88,37.88,0,0,1,15.32-30.47l.11-.07a47.61,47.61,0,0,1,30.43-10.92h2.5a40.47,40.47,0,0,1,38.67,52.34l.09-.29ZM288.56,155.6a10.25,10.25,0,0,1-8.9,5.16,10.69,10.69,0,0,1-3.11-.47h.07c-3.36-1-6.55-2.35-9.9-3.69a25.89,25.89,0,0,0-9.49-1.76,26.43,26.43,0,0,0-9.67,1.83l.19-.07A88.88,88.88,0,0,1,237,160l-.68.16c-7.73,1.51-12.76-2.86-12.76-11.59A15.81,15.81,0,0,1,231.89,136l.08,0c1.34,0,3-2.68,2.69-3.86-1.18-5.7,2.68-8.89,6.21-11.75a27.38,27.38,0,0,1,28.68-1.59l-.15-.07a11.25,11.25,0,0,1,6.6,10.24,11.84,11.84,0,0,1-.22,2.25l0-.07c0,2.52,0,3.7,2.18,5a59.05,59.05,0,0,1,9.72,8.19l0,0a9.06,9.06,0,0,1,2.4,6.15,9,9,0,0,1-1.6,5.12l0,0Zm-19.48,29.21a7.52,7.52,0,0,1-4,1.11,7.75,7.75,0,0,1-7.59-6.26v0c-.23-3-.37-6.42-.37-9.91s.14-6.93.4-10.35l0,.45s2-2,2.69-1.85A58.15,58.15,0,0,1,271,161.63l-.36-.15c.83,0,1.34,1.85,1.51,2.85s0,6.72.83,9.74.17,8.56-4.53,10.74ZM252.3,164.16v13.26c0,4.54-3.19,6.38-6.72,7.73a5.53,5.53,0,0,1-7.36-3.83v0A94.37,94.37,0,0,1,235.71,166v-.36c0-1,1.68-2.85,3-3.52s5.37-1.68,8.06-2.69c5.87-1.84,6.38-1.51,5.53,4.7ZM152.93,83.42a35.14,35.14,0,0,1,14-22.25l.1-.07A49,49,0,0,1,216,55l-.32-.12a36.36,36.36,0,0,1,23.83,30.4v.15a36.41,36.41,0,0,1,.42,5.62A37.88,37.88,0,0,1,224.05,122l-.12.08a48.39,48.39,0,0,1-27.63,9.57h-.07c-.95.08-2.08.13-3.22.13a40.82,40.82,0,0,1-40-48.56ZM428.55,263.71A30,30,0,0,0,407.7,252l-.13,0c-6.55-1-6.88-.84-7.05-7.55V194c0-1.41,0-3.07,0-4.75a397.86,397.86,0,0,0-7.32-76.14l.4,2.5c0-3.69-2.85-7.89-1.67-10.74s5.54-4,8.56-6a27.92,27.92,0,0,0,11.36-33.76l.07.18a33.58,33.58,0,0,0-47.52-19.53l.18-.09a8.78,8.78,0,0,1-4.82,1.41,9,9,0,0,1-6.11-2.41A116.15,116.15,0,0,0,297.62,23.4l-.5,0a165.57,165.57,0,0,0-22.83-2H246.76c-11.08,1.68-22.16,3-33.57,5a133.08,133.08,0,0,0-61.25,25.75l.31-.24c-2.51,2-4.36,0-6.37,0A33.59,33.59,0,0,0,99.13,66l-.09.2a27.69,27.69,0,0,0,12.57,39l.17.07c6,3.18,6,3.18,4.7,9.9a246.27,246.27,0,0,0-4.24,46.18q0,12.22,1.14,24.17l-.09-1c1.51,21.15,3,42.3,4.7,63.62,0,3.36-1,4.7-4.36,4.7h-.3a35.44,35.44,0,0,0-20,6.13l.12-.09a33.52,33.52,0,0,0-7,7.61l-.08.11c-3.53,5.88,2.35,9.74,4.19,14.44s5.88,3.19,9.07,2a98.08,98.08,0,0,0,10.27-4.8l-.54.27,8.06-3.69v13.26c-1.17,20.81-3,41.63-3.69,62.44-.12,2.36-.19,5.12-.19,7.89a174,174,0,0,0,7.89,51.92l-.33-1.22a92.9,92.9,0,0,0,23.65,38.42l0,0,2.51,2.85a148.66,148.66,0,0,0-12.6,9.72l.18-.15a39.23,39.23,0,0,0-7.8,8.59l-.09.14a11.74,11.74,0,0,0,3.64,16.75l.06,0c2,1.51,3.86,3.53,5.87,5.21h6.21c5.88-4.37,11.75-9.07,17.79-13.1A115.85,115.85,0,0,1,175,469.65l.74-.3a5.68,5.68,0,0,1,4.06,0h0a207.35,207.35,0,0,0,74.9,13.73,212.18,212.18,0,0,0,24.44-1.4l-1,.09a178.26,178.26,0,0,0,65.36-17.26l-1.07.47a7,7,0,0,1,3-.68,7.09,7.09,0,0,1,3.07.7l-.05,0a31.41,31.41,0,0,1,6.51,5.83l0,.05c3,3,5.54,6.38,8.56,9.4,8.73,8.73,13.94,7.39,22.16,0a9.94,9.94,0,0,0,1.5-12.79v0a137.07,137.07,0,0,0-12.37-16.08l.12.14a39.25,39.25,0,0,0-5.42-4.62l-.12-.08A20,20,0,0,1,371,444.1l-.05.07a120.73,120.73,0,0,0,29.79-63.47l.09-.65a340.56,340.56,0,0,0,4.53-56.25q0-16.21-1.44-32.08l.1,1.36a112.44,112.44,0,0,0-.84-16.79V275l4,1.85a51.58,51.58,0,0,0,8.53,3.91l.36.12a10.16,10.16,0,0,0,3.19.5,10.26,10.26,0,0,0,3.26-.52l-.07,0a15.45,15.45,0,0,0,6.69-12.73,15.19,15.19,0,0,0-.68-4.51l0,.12Z"/>
</svg>
