<svg xmlns="http://www.w3.org/2000/svg" width="512" height="512" viewBox="0 0 512 512">
  <title>google-plus</title>
  <path d="M511.9,276.53H457.82v54.63H415.74V277.63H362.21V235h51.9V181.49h42.6v52.45h53.54Zm-342-52.43H329.43a118.07,118.07,0,0,1,3,17.76q.82,9,.83,18.31,0,36.61-11.76,66.92a155.49,155.49,0,0,1-33.06,52.45A148.17,148.17,0,0,1,237.11,414q-30.08,12.29-67.2,12.29a165.4,165.4,0,0,1-66.11-13.39,172.06,172.06,0,0,1-54.36-36.6,170.69,170.69,0,0,1,0-240.93,172.23,172.23,0,0,1,54.36-36.6,165.6,165.6,0,0,1,66.11-13.39A164.94,164.94,0,0,1,283.55,130.7l-47.53,47a93,93,0,0,0-30.32-19.39,96.24,96.24,0,0,0-35.79-6.83q-42.61,0-72.93,30.32T66.66,255.24q0,42.63,30.32,72.93t72.93,30.32q38.25,0,62.55-19.12t29.77-49.16H169.91Z"/>
</svg>
