<svg xmlns="http://www.w3.org/2000/svg" width="512" height="512" viewBox="0 0 512 512">
  <title>google-cloud-platform</title>
  <path d="M434,142.94l51.1,87.64a41.12,41.12,0,0,1,0,41.44l-97,166.35a41.92,41.92,0,0,1-36.24,20.72H283.38L404.53,251.3,341.35,142.94ZM306.84,379.26l-46,79.83H159.29a41.58,41.58,0,0,1-36-20.83L26.9,271.05a41.7,41.7,0,0,1,0-41.65l34-59L181.29,379.26ZM119.55,231.7,73.39,151.75l50.93-88.22a41.73,41.73,0,0,1,36.13-20.86H353.81a41.71,41.71,0,0,1,36.13,20.86l34.12,59.09H182.53Zm11.37,17.81,63-108.22H320l63,108.22L320,357.73h-126Zm124.9-49.93c28.43,0,51.48,22.85,51.48,51s-23.05,51-51.48,51-51.48-22.85-51.48-51S227.39,199.58,255.82,199.58Z" fill-rule="evenodd"/>
</svg>
