<svg xmlns="http://www.w3.org/2000/svg" width="512" height="512" viewBox="0 0 512 512">
  <title>grafana</title>
  <path d="M334.82,184.35a103.67,103.67,0,0,1,64.46,30,119.54,119.54,0,0,1,40.08,89.38c0,.51,0,1,0,1.55v-.09c-.08.91-.13,2-.13,3a32.85,32.85,0,0,0,9.55,23.2,57.46,57.46,0,0,1,15,33.73l0,.23v.35a8.68,8.68,0,0,1-2.8,6.41,68.25,68.25,0,0,1-38.4,14.49l-.18,0a11.69,11.69,0,0,0-7.57,4.1v0a177.16,177.16,0,0,1-35.24,37.31l-.38.28a10.43,10.43,0,0,0-3.79,6.71v.05a87.24,87.24,0,0,1-15,41.34l.19-.29A51.28,51.28,0,0,1,357,481l.06-.08c-3,3.46-5.93,9.56-9.06,9.73a42.39,42.39,0,0,1-18.35-5.39l.21.11A92,92,0,0,1,297,460.32l-.11-.15c-1.16-1.49-4.62-1.82-7.09-1.82-.76,0-1.67,0-2.56,0a185.38,185.38,0,0,1-55-8.28l1.32.35a11,11,0,0,0-3.84-.66,11.27,11.27,0,0,0-6.91,2.34l0,0a115.33,115.33,0,0,1-63.61,19.29h0a6.9,6.9,0,0,1-1.07.09,7.58,7.58,0,0,1-7.5-6.47V465a99.94,99.94,0,0,1-5.24-32.31,102.77,102.77,0,0,1,3.76-27.58l-.17.72a9.91,9.91,0,0,0,.55-3.29,10.17,10.17,0,0,0-3.19-7.42c-7.41-9.23-14-19.29-21.43-28.69a16.53,16.53,0,0,0-8.29-5.74l-.12,0a143.11,143.11,0,0,1-72.92-43.7l-.11-.15a7.78,7.78,0,0,1-.87-3.63,8,8,0,0,1,.9-3.67l0,0a116.14,116.14,0,0,1,48.94-58.88l.52-.3a13.21,13.21,0,0,0,7.26-10.16v-.06c2.64-14,6.26-27.86,9.39-41.71,0-.27,0-.56,0-.88a11.31,11.31,0,0,0-1.88-6.26l0,.05a136.66,136.66,0,0,1-21.76-74.39c0-2.37.07-4.73.18-7.06v.34a5.24,5.24,0,0,1,0-.58,8.09,8.09,0,0,1,6.07-7.83l0,0A117.79,117.79,0,0,1,137.4,93a119.73,119.73,0,0,1,38.24,6.23L174.8,99a11.59,11.59,0,0,0,4.24.78,11.82,11.82,0,0,0,7-2.3l0,0a175.94,175.94,0,0,1,41.45-21l1.25-.38a8.19,8.19,0,0,0,4.6-5.21l0-.07a99.51,99.51,0,0,1,36.12-47.43l.31-.21a7.58,7.58,0,0,1,9.75,0h0a86.13,86.13,0,0,1,34.26,40.47l.2.58a9.58,9.58,0,0,0,8.21,6.59h0c11.87,2.8,23.74,6.6,35.78,9.73a13.81,13.81,0,0,0,4.69.81,14.12,14.12,0,0,0,4.8-.84l-.1,0a83.12,83.12,0,0,1,37.11-10.22h.15a7.76,7.76,0,0,1,1.12-.08,7.41,7.41,0,0,1,7.11,5.31l0,0a73.87,73.87,0,0,1,6.8,31.23,76.13,76.13,0,0,1-.57,9.36l0-.36a9.06,9.06,0,0,0-.2,2,9.56,9.56,0,0,0,3,7A169.26,169.26,0,0,1,470.57,239v3.37c0,.82-2.31,4.28-3.3,6.26-1.65-1.65-4-3-4.78-4.95-3.3-9.06-5.61-18.46-9.4-27.2-24.28-56.78-79.21-96.06-143.46-97.1h-.13c-1.72-.07-3.73-.12-5.76-.12a152.72,152.72,0,0,0-76.26,20.28l.74-.4a132.45,132.45,0,0,0-58.66,80l-.2.91a154.66,154.66,0,0,0-7.19,47.12q0,7.25.65,14.33l0-.61a129.22,129.22,0,0,0,19.6,56.25l-.31-.53c22.22,37.38,62.4,62,108.33,62,1.09,0,2.18,0,3.26-.05h-.16c.54,0,1.17,0,1.81,0a90.61,90.61,0,0,0,76.12-41.38l.21-.35A94.66,94.66,0,0,0,388,282l.1.61a75.28,75.28,0,0,0-89.68-56.8l.49-.09a59.21,59.21,0,0,0-39.58,79.86l-.15-.4a49.52,49.52,0,0,0,63.31,23.79l-.33.11c2-1,5.27,0,7.75.83-1,2.47-1.32,6.26-3.3,7.75a60.34,60.34,0,0,1-68.73-3.25l.15.1a75.09,75.09,0,0,1-23-91.8l-.2.46c14.67-37.26,47.32-59,100.4-58.85Z"/>
</svg>
