<svg xmlns="http://www.w3.org/2000/svg" width="512" height="512" viewBox="0 0 512 512">
  <title>graphite</title>
  <path d="M235.18,275.63,257.86,262c-3.68-10.45,8.87-15.66,8.87-15.66l-3.55-16.26c-14.39-2-13-9.83-13-9.83l-22.49-4.82s-4.11,4.38-15.47,4c-7.84-.25-13.53-5.06-11.54-11.23s9.66-8.44,9.66-8.44l-1-12.45c-10.93-.36-10.06-8-10.06-8L180,175.66a35.55,35.55,0,0,1-12.42,2.81c-6.1,0-12.82-2.63-11.15-7.83s9.77-7.63,9.77-7.63l.59-9.83s-5.67-.2-7.1-2.81-.65-5.6,3.84-8c7.33-3.93,17.66-2.63,17.66-2.63l16.56-6.22s-.28-4.71,7.69-7l-.59-7.43s-5.52.27-7.5-3.21c-1.26-2.23-.19-5.46,6.51-7.11a30.09,30.09,0,0,1,11.64-.72l14.39-5s-.46-3.53,3.75-4.81,5.28-1.69,12.23-1.21,6.9,4.42,6.9,4.42l15,2.15s4.16-2.9,14.41-1.55l12.23-4.82s-1.43-2.9,3-4.77a21.68,21.68,0,0,1,11.25-1.05c6.41.92,7.69,4,7.69,4l15.57,2s3.5-2.78,13.22-1.6l10.25-4.22s-2.36-3.52,1.72-5,7-1.5,12.09-.71c5.76.89,6.7,3.3,6.7,3.3l15.78,2a23,23,0,0,1,8.09-1.61c4,.1,8.53,1.08,11,2.82,4.75,3.33-1,6-1,6l6.11,6.22s8.57-.12,11.83,4.21l17.75,2.41s3.56-2.33,10.7-1.72c2,.17,7.93.73,11.36,4,4.06,3.8-.76,6.6-.76,6.6l8.68,7.83s9,.1,13.64,5c3.12,3.25,1.94,6.93-4.46,7.86a60,60,0,0,1-13.13.2l-9.86,6.23s5.68,3.52.4,8c-3.51,3-11.24,2.38-14.3,1.59-8.45-2.19-11.14-6-11.14-6l-20.31-3s-3.61,3.07-15.19,1.82l-12.62,6.62s4.58,4.7-2.36,8.63l7.49,11A18.58,18.58,0,0,1,406,180.08c5.75,4.79,3.91,10.3-2.17,12.64a20.86,20.86,0,0,1-15,0l-14.6,9s5.12,8-3.74,11.44l8.28,15.25s9.06.77,14.67,7A10.45,10.45,0,0,1,390,252.34c-10.4,4.44-17.75.4-17.75.4l-18.14,13.05c5.31,11.16-5.33,16.86-5.33,16.86l8.88,22.09s12.26,1.35,18.46,11.41-.08,22.31-11.17,24.52a30.57,30.57,0,0,1-16.17-1.41L325.1,359.13s5.29,11.26-2.56,21.48c-7.28,9.47-21.79,11.63-32.94,6s-11-18.07-11-18.07l-32.73-9.63c-11,12.16-29.38,5.82-29.38,5.82l-31,22.28a28.55,28.55,0,0,1-9.85,24.69c-12.15,10.38-25.7,10.64-33.72,5.82-11.79-7.07-8.09-20.88-8.09-20.88L102.66,386a38.87,38.87,0,0,1-23.07,8.64c-13.67.26-19.7-11.46-15.18-22.29,5.66-13.56,19.52-19.87,19.52-19.87l5.72-27.1c-15.07-3-10.45-16.26-10.45-16.26l-24.85-7.43S44.42,308,34.63,308c-10.93,0-16.44-7.5-11.44-15.86,6-10,18-14.26,18-14.26L48,258.36s-6.71-.6-8.28-5.62,2.36-11.13,12.77-16.29c13.48-6.19,22.13-2,22.13-2l25.63-11.23s.08-10.57,18.74-13.88c18.26-3.24,17.35,9.06,17.35,9.06l21.3,5a29.88,29.88,0,0,1,14.79-4c5.63.12,13,5,13,10.24s-4.79,11.17-11.82,13.05l-.2,17.46s12.42,1.91,11.63,13.05l25.44,6.42S219.85,271.37,235.18,275.63ZM65.59,289.88l25,7.23s13.46-9.56,26.82-4.22l28.4-15.25s-.94-10.54,13.61-16.46l1.18-18.67c-13.95-1.26-10.26-10.84-10.26-10.84l-22.08-5.22c-17.08,7.3-22.88,2.81-22.88,2.81l-26,11.64S79,250,63.22,256L56.91,276S70.8,277.32,65.59,289.88Zm49.69,79.89,30.37,9.84s16.37-14.54,31.75-6L208,352.51s-4.25-14.29,13.41-23.69l-2-25.29s-16.88-2.95-14.4-15l-26.43-6.83a26.78,26.78,0,0,1-25.63,4l-28.79,15.86C123.84,313.93,107.4,322,107.4,322l-4.74,27.5S119,350,115.28,369.77ZM235,300.92,237.74,326s17.55,3.26,16.76,17.87l31.75,9s10.48-12.24,28.4-5.22l23.86-19.27s-6.92-13.22,6.7-21.08l-8.28-23.08s-16-2.61-17.55-13.85l-27-6.22S281,273,268.7,268l-23.07,14.25S250.89,292.19,235,300.92Zm61.72-46.17,26.63,6s8.57-8,22.67-3.41l18.54-12.85s-6.89-8.9,4.54-14.25L361,214.2s-13.41-1.4-15-9.23l-23.26-4.42s-4,6-19.53,2.41l-18.34,10s5,6.95-7.29,13.05l4.33,17.06S294.22,243.61,296.7,254.75Zm10.65-81.3,4.94,12.25s11-.2,13.6,8l22.68,4.21s5.47-6.12,19.13-2.41l15-9s-5.13-6,2.76-10.24L378,164.62s-10.56.51-13.61-6.83l-20.11-3.21s-6.36,4.64-16.37,2l-15,7.43S317.46,169.29,307.35,173.45Zm-22.87-6-19.92-3.61a23.47,23.47,0,0,1-17.55,2l-17.75,8s3.57,5.51-8.28,9.84l1.58,13.25s11.53.16,11.63,8.83l22.48,4.62s7.25-6.26,20.12-2.41l18.14-9.84s-5-6.32,6.11-11.24l-4.53-12.44S285.86,174.72,284.48,167.43ZM247.6,152.58l-2.17-9.84s-9.3-.63-9.27-5.82l-17.35-2.81s-8,3.61-16.17,1.8l-16.56,6.23s2.47,5.09-8.87,8.43l-.4,10.43s9.55-.82,9.27,6.83l18.33,2.81a23,23,0,0,1,18.34-2L240.31,161S237.86,155.54,247.6,152.58Zm-24.25-23.09,17.15,2.81s4.44-3.13,15.78-2l14.59-5.83s-3.34-3.81,5.33-6.82L273.44,110s-8.68-.19-8.88-4.42L249,103.39A25.61,25.61,0,0,1,234.79,105l-14.2,5s2,4-6.91,6l1,8S224,124.27,223.35,129.49ZM268.9,158.2l19.33,3.41s6.62-5,17.35-2l14.39-7s-3.37-5.59,4.54-8.44l-4.34-8.63s-9.07.3-10.65-5.82L292,127.08s-4.66,3.45-15.55,1.89l-15,6.14s2.2,4.85-6.12,7.43l2.37,9S268.55,151.3,268.9,158.2Zm16.56-40.75s8-.43,10.06,5l17.35,2.6s3.33-3.41,14.79-2l12.63-5.42s-4.07-4.23,3.55-6.83l-4.74-7.23s-8.3.33-10.05-4.21l-15.58-2S309.84,100,299.86,99l-12.62,4.82s3.05,3.07-4.93,6ZM352.31,111s7.62-.31,10.85,4.82l17.55,2.41s2.53-2.67,14.2-1.61l11-5.22s-4.73-3.59,1.78-6l-6.51-7c-9.26-.27-10.85-4.22-10.85-4.22l-16-2c-4.34,2.64-13,1.41-13,1.41l-11,4.42s3.86,3.06-2.95,5.82Zm-17.15,32.12s8.68-.15,11.63,6.22l19.72,3.22s5.59-4.31,16.57-1.81l12.62-6.83s-5.52-4.09,2.95-8.13l-7.29-9.13s-8.82.4-12.42-5L361,119.05s-3.18,3.17-14.39,2l-12.43,5.62s4.56,3.93-3.94,7.23Zm65.07-16.26,7.1,8.63s8.22-.35,13,5.62l19.92,3s3.3-4,15.57-1.8l10.45-6.43s-7.53-4.71-.19-7.62l-8.88-8.23a17.26,17.26,0,0,1-12.62-5l-17.94-2.41s-2.05,2.39-13.61,1.61l-10.85,5.41C406.76,124.64,400.23,126.88,400.23,126.88Z" fill-rule="evenodd"/>
</svg>
