<svg xmlns="http://www.w3.org/2000/svg" width="512" height="512" viewBox="0 0 512 512">
  <title>gunicorn</title>
  <path d="M227.43,289.65c-.1,1.18-.15,2.55-.15,3.92a48.86,48.86,0,0,0,2.92,16.7l-.11-.34L248,366.78c1,3.33,1.83,6.82,2.66,10.31a4.46,4.46,0,0,1,.3,1.66,5,5,0,0,1-.31,1.7v0c-2.66,8-5.15,16.62-8.14,23.77s-4.83,10-12.14,8.81H219.28c-3.65,0-4.32-2.66-3.16-6a159.28,159.28,0,0,0,4.78-17.57l.21-1.21A37,37,0,0,0,222,380a37.44,37.44,0,0,0-8.29-23.54l.05.07a94.59,94.59,0,0,1-16.41-27.61l-.22-.65a107.44,107.44,0,0,1-5.12-23.81l0-.46c-1-7.65-6.15-9.31-12.3-7A285.05,285.05,0,0,0,148,312l1.52-.77a23.63,23.63,0,0,0-9.1,28.1l-.05-.17a48.18,48.18,0,0,0,4.61,11.2l-.12-.23a24.86,24.86,0,0,0,5.88,5.44l.1,0L160.6,364a4,4,0,0,1,.39,1.74,4.38,4.38,0,0,1-.4,1.78v0a37.49,37.49,0,0,1-12.55,18.38l-.08.07a6.18,6.18,0,0,1-2.58.57,6.28,6.28,0,0,1-2.61-.58h0A106.3,106.3,0,0,1,129.57,376l.11.1c-4.15-3.65-7.81-7.64-11.8-11.3a25.22,25.22,0,0,1-7.48-16.56v-.06a108.31,108.31,0,0,1-1.68-19.2,112.13,112.13,0,0,1,1.78-19.88l-.1.68A62.84,62.84,0,0,1,128,280.71l0,0c7.31-7.49,15.13-14.3,22.77-21.45,3.66-3.32,7.15-6.48,10.64-10a5.65,5.65,0,0,0,1.5-3.13V211.36a226.44,226.44,0,0,0-2.84-24.42l.18,1.31a23.32,23.32,0,0,0-11-16.56l-.1-.06a6.81,6.81,0,0,0-10.45,2.12l0,0c-2.66,4.32-4.49,9-7,13.63a71.49,71.49,0,0,1-5,9.79l.19-.32a13.64,13.64,0,0,1-10.92,5.49,13.49,13.49,0,0,1-4.29-.7l.1,0A15.45,15.45,0,0,1,100.46,189l0-.09c0-10.64-1.16-21.11-1.33-31.75a183.39,183.39,0,0,1,1.43-19.5l-.1.88a9.17,9.17,0,0,0,.12-1.54,10.34,10.34,0,0,0-5.7-9.23l-.07,0c-11-6.15-21.94-12.47-33.25-18.45-6.64-3.66-13.29-7-19.94-10.81A180.71,180.71,0,0,1,21.33,85.33l.48.35A154.62,154.62,0,0,1,39.5,91.55l-1.06-.38c19.78,8.31,40.39,14.46,60.84,21.11,6.81,2.16,7.65,0,8-6s0-12,0-18.13h1a100,100,0,0,0,39,7.75c1.56,0,3.11,0,4.64-.1h-.22a303.73,303.73,0,0,1,36.13,6.05l-2.05-.4a39.26,39.26,0,0,1,20.85,16.46l.1.17c5.48,7.31,10.47,14.79,15.29,22.44s9.47,16.62,14.46,23.94a38.78,38.78,0,0,0,33.5,19.3,39.18,39.18,0,0,0,8.31-.9l-.25.05c18.79-2.66,37.4-6.48,56.19-9.31a133.58,133.58,0,0,1,22.69-1.86,139.91,139.91,0,0,1,23.5,2l-.81-.12A76.41,76.41,0,0,1,401,182.3l-.35-.2a147.47,147.47,0,0,1,35.88,27.06l0,0a121.65,121.65,0,0,1,15.14,22.45l.32.66a156.79,156.79,0,0,1,9.41,19.5l.4,1.11c6.48,16.63,12.46,33.25,18.61,50.71l7.48,18.28c4.33,9.81,4.33,10.64-6,10.31a58.38,58.38,0,0,1-11-1.23l.38.06a31.85,31.85,0,0,1-21-18.73l-.08-.22c-4.66-10.64-7.81-21.77-12.3-33.24-3.16-7.48-7.15-14.8-11-22.11a5,5,0,0,0-3.48-1.66h0s-1.66,1.49-1.82,2.49c-1.83,5.65-3.33,11.47-4.82,16.62a22,22,0,0,0-.65,5.4,22.59,22.59,0,0,0,3,11.34l-.05-.11c4.16,8,8.31,15.79,12.63,23.43a145.16,145.16,0,0,1,16.49,46.15l.14.9a148.5,148.5,0,0,1,1.68,22.52,152.72,152.72,0,0,1-1.8,23.38l.1-.85c0,.83-1.49,2.16-2.33,2.16H429.42c-4,0-5.65-2.33-5.82-7.32,0-9.3,0-18.45-.83-27.59,0-.5,0-1.08,0-1.66a34.23,34.23,0,0,0-10.34-24.59,123,123,0,0,1-8.84-9.31l-.13-.16-22.28-27.27q-4.32-5.48-9-11c-2.16-2.49-4.48-2.16-5.31,1.33-1.17,6.32-2,13-2.66,19.29s0,7.81,0,11.8v0a16.66,16.66,0,0,1-3.84,10.64v0a87.69,87.69,0,0,0-16.52,35.65l-.1.59c-1.5,6.81-2.83,13.63-4,20.28s-1.66,6.65-6.82,7.31-12.3,0-18.62,0c-2.65,0-2.65-1.83-2.49-3.82.83-8.15,1.67-16.63,2.66-24.6a308.67,308.67,0,0,0,6.48-59.8v-.22c0-7-1.32-14-2.32-20.94s-2.66-6.32-8.31-6.48l-53.7.16c-8.14,0-16.62,0-24.43-1.16-.7,0-1.52-.07-2.33-.07s-1.63,0-2.45.07h.12Z"/>
</svg>
