<svg xmlns="http://www.w3.org/2000/svg" width="512" height="512" viewBox="0 0 512 512">
  <title>headset</title>
  <path d="M400,272v96a80,80,0,0,1-80,80H296a24,24,0,0,1-24-24H240" fill="none" stroke="#000" stroke-linecap="butt" stroke-linejoin="miter" stroke-width="32"/>
  <path d="M112,208A144,144,0,0,1,256,64h0A144,144,0,0,1,400,208" fill="none" stroke="#000" stroke-linecap="butt" stroke-linejoin="miter" stroke-width="32"/>
  <path d="M112,208H88a40,40,0,0,0-40,40v56a40,40,0,0,0,40,40h24V272" fill="none" stroke="#000" stroke-linecap="butt" stroke-linejoin="miter" stroke-width="32"/>
  <path d="M402.67,344h24a40,40,0,0,0,40-40V248a40,40,0,0,0-40-40H400" fill="none" stroke="#000" stroke-linecap="butt" stroke-linejoin="miter" stroke-width="32"/>
</svg>
