<svg xmlns="http://www.w3.org/2000/svg" width="512" height="512" viewBox="0 0 512 512">
  <title>helm</title>
  <path d="M366.94,378.9c7.73,3.62,17,11.65,25.1,22.48,13.65,18.27,18.8,37.5,11.5,43s-24.3-4.91-38-23.17c-8.09-10.82-13.16-21.94-14.46-30.38a161.9,161.9,0,0,1-76.56,26.39c3.77,7.56,6.19,19.17,6.19,32.2,0,22.8-7.4,41.29-16.52,41.29s-16.52-18.49-16.52-41.29c0-12.83,2.34-24.29,6-31.86a161.88,161.88,0,0,1-78.19-24.37c-1.81,8.09-6.67,18.18-14,28-13.65,18.26-30.65,28.63-38,23.17s-2.15-24.69,11.51-43c7.23-9.67,15.38-17.09,22.55-21.16a164.54,164.54,0,0,1-30.15-32.8L146,335.52A140.88,140.88,0,0,0,377.36,335l18.23,12.34A164.56,164.56,0,0,1,366.94,378.9ZM155.7,130.63c-6.68-4.25-14-11.2-20.63-20-13.66-18.26-18.81-37.49-11.5-42.95s24.29,4.91,38,23.17c6.64,8.89,11.25,18,13.42,25.63A162,162,0,0,1,251.2,91.85c-3-7.47-4.85-17.81-4.85-29.23,0-22.8,7.39-41.29,16.51-41.29s16.52,18.49,16.52,41.29c0,11.53-1.89,21.95-4.94,29.44a162,162,0,0,1,77.15,26.7c1.82-8.08,6.67-18.13,14-27.93,13.65-18.26,30.64-28.63,38-23.17s2.16,24.69-11.5,43c-7.41,9.92-15.79,17.47-23.09,21.47a164,164,0,0,1,32.72,39.32l-18.54,11.9a140.93,140.93,0,0,0-239.28-6.42l-18.24-12.34A164.28,164.28,0,0,1,155.7,130.63Zm291.63,66h37.11V316.56H459.76v-85h-.34l-29.38,85H409.72l-29.39-84.13H380v84.13H355.31V196.67h37.11l28.05,82.44h.33Zm-158.51,0v97.72h58.44v22.17h-84.8V196.67Zm-38.78,0v22.16H186.73v25.69h58.1V265h-58.1v29.38h64.65v22.17h-91V196.67Zm-132.49,0h26.37V316.56H117.55V264.84H69v51.72H42.66V196.67H69v46h48.52Z" fill-rule="evenodd"/>
</svg>
