<svg xmlns="http://www.w3.org/2000/svg" width="512" height="512" viewBox="0 0 512 512">
  <title>hyperdb</title>
  <path d="M213.78,342.58h0a31.51,31.51,0,0,0,26.52-14.51l70.74-110.66-.08.13a33,33,0,0,0-9.15-44.49l.13.08a31.32,31.32,0,0,0-43.16,9.65L188.05,293.1l.09-.13a33,33,0,0,0,9.15,44.5l-.11-.07A31.09,31.09,0,0,0,213.78,342.58ZM256,490.67C126.4,490.67,21.33,385.6,21.33,256S126.4,21.33,256,21.33c129.42,0,234.38,104.79,234.66,234.14v0C490.48,385,385.52,490,256,490.17h0ZM256,74.1a181.41,181.41,0,0,0,0,362.81c100.18,0,181.4-81.22,181.4-181.41A181.41,181.41,0,0,0,256,74.1Z"/>
</svg>
