<svg xmlns="http://www.w3.org/2000/svg" width="512" height="512" viewBox="0 0 512 512">
  <title>image-mapping</title>
  <path d="M172.19,390.08a16.76,16.76,0,0,0-16.77-16.76H138.66a16.77,16.77,0,1,0,0,33.53h16.76A16.77,16.77,0,0,0,172.19,390.08Zm0-67a16.77,16.77,0,0,0-16.77-16.77H138.66a16.77,16.77,0,1,0,0,33.53h16.76A16.76,16.76,0,0,0,172.19,323.05Zm0-67.06a16.76,16.76,0,0,0-16.77-16.76H138.66a16.76,16.76,0,1,0,0,33.52h16.76A16.76,16.76,0,0,0,172.19,256ZM155.44,205.7H138.68a16.77,16.77,0,0,1,0-33.53h16.76a16.77,16.77,0,1,1,0,33.53ZM323.06,390.08a16.76,16.76,0,0,0-16.76-16.76H205.74a16.77,16.77,0,1,0,0,33.53H306.3A16.76,16.76,0,0,0,323.06,390.08Zm67-201.15a16.76,16.76,0,0,0-16.76-16.76H205.71a16.77,16.77,0,0,0,0,33.53H373.34A16.76,16.76,0,0,0,390.1,188.93ZM356.57,256a16.76,16.76,0,0,0-16.76-16.76H205.71a16.76,16.76,0,0,0,0,33.52h134.1A16.76,16.76,0,0,0,356.57,256Zm33.53,67.06a16.76,16.76,0,0,0-16.76-16.77H205.71a16.77,16.77,0,0,0,0,33.53H373.34A16.76,16.76,0,0,0,390.1,323.05ZM490.69,71.6V440.37a50.3,50.3,0,0,1-50.3,50.3H71.62a50.3,50.3,0,0,1-50.29-50.3V138.66A50.3,50.3,0,0,1,71.62,88.37H222.48a16.77,16.77,0,0,1,0,33.53H71.62a16.76,16.76,0,0,0-16.76,16.76V440.37a16.76,16.76,0,0,0,16.76,16.77H440.39a16.77,16.77,0,0,0,16.77-16.77V71.6a16.76,16.76,0,0,0-16.77-16.76H38.09a16.75,16.75,0,0,1,0-33.49l402.3,0a50.3,50.3,0,0,1,50.3,50.3Z"/>
</svg>
