<svg xmlns="http://www.w3.org/2000/svg" width="512" height="512" viewBox="0 0 512 512">
  <title>images</title>
  <path d="M441.3,184a40,40,0,0,1,40,40V440a40,40,0,0,1-40,40h-288a40,40,0,0,1-40-40V224a40,40,0,0,1,40-40" fill="none" stroke="#000" stroke-linecap="butt" stroke-linejoin="miter" stroke-width="32"/>
  <path d="M49.3,245.82,26.08,141.91A40,40,0,0,1,56.4,94.15l281.07-62.8a40,40,0,0,1,47.76,30.31l13,58.34" fill="none" stroke="#000" stroke-linecap="butt" stroke-linejoin="miter" stroke-width="32"/>
  <polyline points="167.3 480 377.3 296 481.3 408" fill="none" stroke="#000" stroke-linecap="butt" stroke-linejoin="miter" stroke-width="32"/>
  <circle cx="217.3" cy="288" r="48" fill="none" stroke="#000" stroke-linecap="butt" stroke-linejoin="miter" stroke-width="32"/>
  <line x1="153.3" y1="184" x2="441.3" y2="184" fill="none" stroke="#000" stroke-linecap="butt" stroke-linejoin="miter" stroke-width="32"/>
</svg>
