<svg xmlns="http://www.w3.org/2000/svg" width="512" height="512" viewBox="0 0 512 512">
  <title>instagram</title>
  <path d="M444.39,126.46c0,7.07-4.71,11.78-11.77,11.78h-47.1c-7,0-11.77-4.71-11.77-11.78V79.36c0-7.08,4.72-11.79,11.77-11.79h47.1c7.06,0,11.77,4.71,11.77,11.79Zm-365,317.93c-7.07,0-11.78-4.71-11.78-11.77V232.44H117c-2.36,7.08-2.36,16.49-2.36,23.55,0,77.72,63.59,141.3,141.3,141.3S397.27,333.7,397.27,256c0-7.07,0-16.49-2.34-23.55h49.44V432.62c0,7.06-4.71,11.77-11.76,11.77H79.37ZM256,161.79c51.81,0,94.2,42.39,94.2,94.2s-42.39,94.2-94.2,94.2-94.2-42.39-94.2-94.2S204.18,161.79,256,161.79ZM440.37,21.33H71.62A50.28,50.28,0,0,0,21.33,71.62V440.38a50.3,50.3,0,0,0,50.29,50.29H440.37a50.29,50.29,0,0,0,50.29-50.29V71.62A50.3,50.3,0,0,0,440.37,21.33Z"/>
</svg>
