<svg xmlns="http://www.w3.org/2000/svg" width="512" height="512" viewBox="0 0 512 512">
  <title>issue-reopen</title>
  <line x1="256" y1="144" x2="256" y2="288" fill="none" stroke="#000" stroke-linecap="butt" stroke-linejoin="miter" stroke-width="32"/>
  <path d="M248,360a8,8,0,0,1,16,0" fill="none" stroke="#000" stroke-linecap="butt" stroke-linejoin="miter" stroke-width="32"/>
  <path d="M264,360a8,8,0,0,1-16,0" fill="none" stroke="#000" stroke-linecap="butt" stroke-linejoin="miter" stroke-width="32"/>
  <polyline points="48 104 48 208 152 208" fill="none" stroke="#000" stroke-linecap="butt" stroke-linejoin="miter" stroke-width="32"/>
  <path d="M88,312A192.45,192.45,0,0,0,272,448c106,0,192-86,192-192S378,64,272,64a191.36,191.36,0,0,0-135.76,56.24L136,120,48,208" fill="none" stroke="#000" stroke-linecap="butt" stroke-linejoin="miter" stroke-width="32"/>
</svg>
