<svg xmlns="http://www.w3.org/2000/svg" width="512" height="512" viewBox="0 0 512 512">
  <title>javascript</title>
  <path d="M380.76,454.35c-1.58.1-3.44.16-5.3.16a84.64,84.64,0,0,1-74.66-44.85l-.21-.46,35.78-21.39A47.59,47.59,0,0,0,379,414.5h.55c18.38,0,29.92-9,29.92-21.59s-11.93-20.61-32.07-29.44l-10.95-4.71c-32.27-13.35-51.82-29.84-51.82-66.15v-.28a58.76,58.76,0,0,1,64.59-58.59l-.26,0c1.39-.1,3-.16,4.66-.16a65.07,65.07,0,0,1,57.75,35.14l.17.35-35.2,22.58A29.78,29.78,0,0,0,378.46,272H378c-.41,0-.88,0-1.37,0a19.6,19.6,0,0,0-19.56,19.63v.06c0,13.34,8.22,18.64,27,26.89l11,4.71c37.35,16.09,58.67,32.39,58.67,69.29S422.42,454,380.76,454ZM276.92,387.81a55.36,55.36,0,0,1,.4,6.81,60,60,0,0,1-59.84,60.07,58.28,58.28,0,0,1-6.52-.36l.28,0c-1.08.06-2.33.1-3.6.1a68.29,68.29,0,0,1-62.13-40.1l-.18-.43,35.79-21.79c6.85,12.36,13.1,22.77,28.16,22.77s23.66-5.7,23.66-27.68V236.86h44ZM420.27,21.33H90.76A69.55,69.55,0,0,0,21.33,91h0V421a69.56,69.56,0,0,0,69.43,69.69H421.24A69.56,69.56,0,0,0,490.67,421h0V91a69.55,69.55,0,0,0-69.43-69.69h-1Z"/>
</svg>
