<svg xmlns="http://www.w3.org/2000/svg" width="512" height="512" viewBox="0 0 512 512">
  <title>kubernetes</title>
  <path d="M295,289.62a8.75,8.75,0,0,0-5.22,8,8.53,8.53,0,0,0,.29,2.28v-.07L311,350.11a102.85,102.85,0,0,0,32.72-32.55l.25-.43a76.65,76.65,0,0,0,9.23-19.05l.17-.57-53.59-9.06a12,12,0,0,0-4.84,1.18l.06,0Zm48.81-82.11L303.57,244a7.74,7.74,0,0,0-2.13,3.74l0,.05a8.57,8.57,0,0,0-.28,2.21,8.76,8.76,0,0,0,6.66,8.49l.07,0L358.82,273c.31-3.09.49-6.67.49-10.28a105.7,105.7,0,0,0-2.79-24.23l.15.71a104.24,104.24,0,0,0-13.12-32.1l.26.44ZM257.9,312a8.4,8.4,0,0,0-10.7,2.13h0L221,362a119.67,119.67,0,0,0,32.81,5.44h.17a108.69,108.69,0,0,0,23.82-2.95l-.74.15a82.54,82.54,0,0,1,9.53-2.08l.53-.07-25.72-46.66a28.35,28.35,0,0,0-3.45-3.77Zm-28.36-91.67c.29,0,.64,0,1,0a8.92,8.92,0,0,0,8.9-8.62v0L242.07,158l-10.72,2.14a107.74,107.74,0,0,0-49.48,27.39l0,0L226.4,219.2a9.42,9.42,0,0,0,3.07,1.14h.07Zm42.86-3.79a8.92,8.92,0,0,0,7,3.46,8.81,8.81,0,0,0,4.7-1.34l0,0,44-31.16a100.32,100.32,0,0,0-60.23-28.82l-.44,0,3.3,54.08V213a4.6,4.6,0,0,0,1.64,3.53ZM240.25,274,254.76,281,269.11,274l3.79-15.49L262.68,245.6h-16l-10.22,12.86Zm-31.16,15L156,297.53a106.72,106.72,0,0,0,40.84,52.35l.38.25,20.45-49.46a5.52,5.52,0,0,0,0-5.31l0,0a8.76,8.76,0,0,0-8.43-6.43Zm-2.64-33.8A8.58,8.58,0,0,0,205.32,243h0l-39.73-35.45a111.88,111.88,0,0,0-15.8,57.66c0,2.91.12,5.8.33,8.67l0-.38,51.94-15a6.61,6.61,0,0,0,4.43-3.27l0,0ZM423.1,309.4a5.18,5.18,0,0,1-2.67,0h-3.1a23.48,23.48,0,0,1-6-2.69l.09.05a8.3,8.3,0,0,1-3.34-1l.05,0a93,93,0,0,0-15.85-4.83l-.64-.12h-.05a6.27,6.27,0,0,0-4.24,1.65H383a132.73,132.73,0,0,1-57.28,72.71l-.58.33,1.65,4.29a6.4,6.4,0,0,0-.54,2.63,6.51,6.51,0,0,0,.56,2.69l0-.05a63.18,63.18,0,0,0,8.71,16.67l-.14-.18v1a7.83,7.83,0,0,1,2.13,2.75l0,0a18.28,18.28,0,0,1,3.74,5.16l0,.12s1.15,1.15,1.15,1.65a14.66,14.66,0,0,1,.56,4,14.89,14.89,0,0,1-.57,4.14l0-.1a9.27,9.27,0,0,1-4.73,5.92h0a14.09,14.09,0,0,1-4.24,1h-.05a12,12,0,0,1-10.19-6.36l0-.07a1.89,1.89,0,0,0-1.16-1.65,20.73,20.73,0,0,1-2.12-5.8l0-.13-1-3.14a82.68,82.68,0,0,0-7.3-16.88l.21.4a7.6,7.6,0,0,0-4.23-3.28l-.05,0-2.15-3.79a127,127,0,0,1-15.56,4.6l-.92.18a101,101,0,0,1-27.75,3.79H258.9a125.67,125.67,0,0,1-46.51-8.87l.86.3-2.15,4.28a8.6,8.6,0,0,0-4.27,3.27v0A80.44,80.44,0,0,0,199.89,410l-.16.58-1,3.13c0,2.14-1.65,3.79-2.14,5.94s-1.16,1.15-1.16,1.65a12.09,12.09,0,0,1-10.2,6.43h0a9.73,9.73,0,0,1-3.68-1l.05,0a10.93,10.93,0,0,1-5.52-9.47,10.78,10.78,0,0,1,1.27-5.09l0,.07a1.94,1.94,0,0,1,1-1.65c1-.5,2.81-4.29,3.8-5.45a6.12,6.12,0,0,0,2.12-2.6l0,0a84.45,84.45,0,0,0,8.38-15.91l.19-.58a6.46,6.46,0,0,0,.55-2.64,6.71,6.71,0,0,0-.56-2.69v.05l2.64-3.79a77.81,77.81,0,0,1-14.61-9.81l.1.08a129.76,129.76,0,0,1-43.76-61.74l-.26-.91h-4.78A6.09,6.09,0,0,0,128,303h-.12a88.62,88.62,0,0,0-18.25,5l.61-.22a6.48,6.48,0,0,0-3.31,1.18v0L101,311.05H98.82a4.56,4.56,0,0,1-1.31.18,5.07,5.07,0,0,1-1.36-.18h0c-.33,0-.73.07-1.12.07a9.9,9.9,0,0,1-9.58-7.42l0-.07A10.37,10.37,0,0,1,94,291.27h9.63a7.09,7.09,0,0,1,1.64-.19,7.32,7.32,0,0,1,1.7.2h0A109.66,109.66,0,0,0,126,287.79l-.76.18a8.1,8.1,0,0,0-4.08-6.91l0,0,4.29-1a123.14,123.14,0,0,1-1.48-19.3,126.07,126.07,0,0,1,20.57-69.22l-.3.48c0-1.15,1-1.65,1.49-2.64l-3.13-3.29a6.88,6.88,0,0,0,.06-.83,5.43,5.43,0,0,0-1.71-4,82.86,82.86,0,0,0-14.59-10.5l-.42-.21-3.29-1.65a46.35,46.35,0,0,1-5.23-3.38l.12.08-1.65-1.15a11.36,11.36,0,0,1-4.52-9.07,11.51,11.51,0,0,1,1.89-6.3l0,0a8.07,8.07,0,0,1,6.86-3.81,5.43,5.43,0,0,1,.58,0h0a13.87,13.87,0,0,1,7.62,2.67l0,0a2.13,2.13,0,0,1,1.65,1,60.65,60.65,0,0,0,4.28,4.78,8.27,8.27,0,0,1,2.15,2.14,96.77,96.77,0,0,0,13.12,12.2l.23.17a6.56,6.56,0,0,0,3.28,1.15H155l3.14,2.14a127.78,127.78,0,0,1,65.09-37.42l.86-.17c6.43-1.15,12.36-2.14,18.13-2.64v-5.93a7.9,7.9,0,0,0,2.62-4.24l0-.05c0-1,0-2.08,0-3.2a95.86,95.86,0,0,0-1.29-15.64l.09.56a7,7,0,0,0,.18-1.57,7.88,7.88,0,0,0-.18-1.62v0a29.3,29.3,0,0,1-1-6.54V90a10.45,10.45,0,0,1,4.42-6.75h0a10.52,10.52,0,0,1,8.6-4.46h.13a10.73,10.73,0,0,1,9.25,10.62c0,.22,0,.42,0,.63v3.26c0,2.15,0,4.29-1.16,6.43s0,2.15,0,3.14a96,96,0,0,0-1.18,15.31c0,1,0,2,0,3V121a7.6,7.6,0,0,0,2.79,4.27h0v4.29a137.1,137.1,0,0,1,70.05,28.1l-.31-.24,13.35,12.87,4.29-2.64a3.29,3.29,0,0,0,1.07.18,3,3,0,0,0,1.09-.2h0a7.73,7.73,0,0,0,3.17-1l0,0a78.67,78.67,0,0,0,13.45-11.8l.07-.07a8.67,8.67,0,0,0,2.12-2.11l0,0a29.17,29.17,0,0,1,4.25-4.77l0,0a1.72,1.72,0,0,0,1.48-1.16,12.35,12.35,0,0,1,7.4-2.63h0a10.39,10.39,0,0,1,5.47,18.78h0v1c0,1-1.15,0-1.65,1.16l-9.07,4.78a106.34,106.34,0,0,0-15.31,10.83l.15-.12a8.18,8.18,0,0,0-1.49,4.72v.06l-3.3,3.14a146.21,146.21,0,0,1,18.59,43l.21,1a134.29,134.29,0,0,1,4.49,34.85,136.8,136.8,0,0,1-.75,14.38l.05-.59,4.29,1.15a6.68,6.68,0,0,0,3.74,3.78h.05a113.34,113.34,0,0,0,17.82,3.1l.48,0a7,7,0,0,0,1.57.18,7.71,7.71,0,0,0,1.61-.18h0a21.29,21.29,0,0,1,3.21-.24,20.32,20.32,0,0,1,3.33.26l-.11,0h3.29a12.73,12.73,0,0,1,9.57,11.33v.05a11.4,11.4,0,0,1-10.19,8.9h-.07Zm67.1-11.87L449.48,122.11a34.61,34.61,0,0,0-16.31-19.71l-.18-.08L268.61,24a29.31,29.31,0,0,0-12.23-2.64h-.46c-.66,0-1.44,0-2.21,0a61.66,61.66,0,0,0-11.53,1.09l.38-.06-164.38,79a28.64,28.64,0,0,0-16.45,19.59l0,.2L21.79,297.53a35.15,35.15,0,0,0,6,26l-.07-.12,112.77,140a38.55,38.55,0,0,0,24.44,11.21h181a25.31,25.31,0,0,0,3.71.26,26.15,26.15,0,0,0,21.61-11.39l.05-.08,113.27-140a35.8,35.8,0,0,0,6.09-20,34.63,34.63,0,0,0-.52-6.05l0,.21Z"/>
</svg>
