<svg xmlns="http://www.w3.org/2000/svg" width="512" height="512" viewBox="0 0 512 512">
  <title>leaseweb</title>
  <path d="M249.76,170.11,44.05,216.33C32.37,219,21.33,209.8,21.33,197.5v-6.65a19.34,19.34,0,0,1,10.5-17.32L237.54,70c12.44-6.26,27,3.06,27,17.32v64A19.17,19.17,0,0,1,249.76,170.11Zm14.73,119V222.83c0-11.71-10.05-20.71-21.31-19.09L37.47,233.32a19.11,19.11,0,0,0-16.14,19.09v9a19.1,19.1,0,0,0,16.3,19.11L243.34,308.2C254.55,309.72,264.49,300.73,264.49,289.09Zm0,71.5a19.15,19.15,0,0,0-14.88-18.86L43.9,297.35c-11.63-2.52-22.57,6.62-22.57,18.86V323A19.33,19.33,0,0,0,32,340.35l205.71,101.7c12.43,6.15,26.83-3.18,26.83-17.37ZM306,169.23l163.23,24.89c11.32,1.73,21.48-7.3,21.48-19.07V140.18a19.25,19.25,0,0,0-12.73-18.26L314.71,65C302.57,60.8,290,70.09,290,83.29v66.87A19.11,19.11,0,0,0,306,169.23ZM473.71,293a19.07,19.07,0,0,0,17-19.18v-34a19.07,19.07,0,0,0-16.76-19.16L310.68,202.93c-11.06-1.21-20.7,7.72-20.7,19.16v67.77c0,11.37,9.51,20.26,20.5,19.19Zm4.06,98.87a19.24,19.24,0,0,0,12.9-18.31v-35c0-11.69-10-20.69-21.28-19.1L306.15,342.64A19.11,19.11,0,0,0,290,361.74v67c0,13.12,12.45,22.4,24.56,18.31Z" fill-rule="evenodd"/>
</svg>
