<svg xmlns="http://www.w3.org/2000/svg" width="512" height="512" viewBox="0 0 512 512">
  <title>letsencrypt</title>
  <path d="M450,212.6h-.12a16.94,16.94,0,0,1,2.58-.19,16.5,16.5,0,0,1,16.5,16.5h0v0c0,.37,0,.75,0,1.12a16.51,16.51,0,0,1-16.5,16.51c-.59,0-1.17,0-1.68-.09H393a13.42,13.42,0,0,1-1.91.12,16.5,16.5,0,0,1-16.5-16.5c0-.33,0-.65,0-.93v0a17.34,17.34,0,0,1,17.31-16.52c.46,0,.94,0,1.34,0ZM91.62,120.86l-9.4-7.92,0,0A16.52,16.52,0,0,1,79.74,89l0,0A16.48,16.48,0,0,1,103,86.69c16.17,12.87,31.35,25.9,47.85,39.6l-.05-.07a38.87,38.87,0,0,1,6.65,11.62h-1.32v-.05a11.84,11.84,0,0,1,0,1.19,16.49,16.49,0,0,1-27.91,11.91C115.88,140.33,103.83,130.93,91.62,120.86Zm23.43,108.9v0a16.5,16.5,0,0,1-16.5,16.5c-.34,0-.69,0-1,0H38.87c-.34,0-.69,0-1,0a16.5,16.5,0,0,1-16.5-16.5v-.1a16.5,16.5,0,0,1,16.5-16.5,13.93,13.93,0,0,1,1.49.06H97c.51,0,1-.06,1.55-.06a16.5,16.5,0,0,1,16.5,16.5ZM244.75,114.1h0a16.5,16.5,0,0,1-16.17-16.5c0-.28,0-.58,0-.83V39.42c-.05-.51-.07-1-.07-1.55A16.51,16.51,0,0,1,245,21.36h0c.34,0,.69,0,1,0a16.51,16.51,0,0,1,16.5,16.5V97.65a16.52,16.52,0,0,1-16.5,16.5C245.6,114.15,245.14,114.13,244.75,114.1Zm97.51,38.77v0l-.1,0A16.55,16.55,0,0,1,333,138.07v-.38a17.34,17.34,0,0,1,6.27-13c15.35-12.7,30.86-25.57,46.53-38.11h0a16.51,16.51,0,0,1,23.94,2.13h0a16.49,16.49,0,0,1-2.46,24.1c-15.51,13-31.35,25.74-47,38.45l0,0a16.5,16.5,0,0,1-18,1.66Zm-139.59,121v-30A41.79,41.79,0,0,1,242,203.2h.12c.92-.08,2-.12,3.1-.12a41.26,41.26,0,0,1,40.92,36.06v33.19Zm57.92,115.5a9.21,9.21,0,0,0-3.65,7.34,3.1,3.1,0,0,0,0,.43h0c.19,3.13.31,6.8.31,10.47s-.12,7.35-.33,11l0-.5a11.88,11.88,0,0,1-11.83,10.74h-.55a12.37,12.37,0,0,1-11.71-11.87h0V398.23a9.57,9.57,0,0,0,.19-2,9.72,9.72,0,0,0-4.78-8.38l-.05,0a23.75,23.75,0,0,1-8.76-18.43,23.45,23.45,0,0,1,1.55-8.46l-.05.16a25.46,25.46,0,0,1,23.41-16.5h0a24.93,24.93,0,0,1,23.38,16.34l.05.16a23.48,23.48,0,0,1,1.88,9.29,23.84,23.84,0,0,1-8.45,18.23l0,0ZM366,273.82H344.08v-26.3a100.18,100.18,0,0,0-149-87.45l.51-.27a90.71,90.71,0,0,0-47.29,65.48l-.06.52a354.06,354.06,0,0,0-2.51,42.77c0,1.74,0,3.45,0,5.18v-.26h-21a19.12,19.12,0,0,0-2.08-.12,18.8,18.8,0,0,0-18.81,18.82,19.19,19.19,0,0,0,.1,2V467.86c-.08.79-.12,1.72-.12,2.64s.05,1.85.14,2.76l0-.12a18,18,0,0,0,18,17.53c.35,0,.7,0,1,0h243.5c.25,0,.54,0,.82,0a18.47,18.47,0,0,0,18.48-18.48v-.36h0V293.29c0-.26,0-.56,0-.86a18.64,18.64,0,0,0-18.64-18.64c-.42,0-.83,0-1.24,0H366Z"/>
</svg>
