<svg xmlns="http://www.w3.org/2000/svg" width="512" height="512" viewBox="0 0 512 512">
  <title>link-alt</title>
  <path d="M257.06,105.06,287,75.16a106,106,0,0,1,149.88,0h0a106,106,0,0,1,0,149.88L377,284.84a106,106,0,0,1-149.88,0h0" fill="none" stroke="#000" stroke-linecap="butt" stroke-linejoin="miter" stroke-width="32"/>
  <path d="M254.94,406.94,225,436.84a106,106,0,0,1-149.88,0h0a106,106,0,0,1,0-149.88l59.8-59.8a106,106,0,0,1,149.88,0h0" fill="none" stroke="#000" stroke-linecap="butt" stroke-linejoin="miter" stroke-width="32"/>
  <path d="M254.94,406.94,225,436.84a106,106,0,0,1-149.88,0h0a106,106,0,0,1,0-149.88l59.8-59.8a106,106,0,0,1,149.88,0h0" fill="none" stroke="#000" stroke-linecap="butt" stroke-linejoin="miter" stroke-width="32"/>
</svg>
