<svg xmlns="http://www.w3.org/2000/svg" width="512" height="512" viewBox="0 0 512 512">
  <title>linkedin</title>
  <path d="M490.67,296.31q0-69.81-33.09-102.89t-82.44-33.09q-40.32,0-60.47,17.15t-30.39,32.8v1.19h-.59a1.79,1.79,0,0,1,.59-1.21V167.53H183.79q0,10.23.31,59t0,102.9q-.3,54.15-.31,140.8H284.28V301.11c0-4.4.2-8.83.6-13.23a44.59,44.59,0,0,1,2.4-11.43q5.42-13.24,18.36-25T339,239.75q27.68,0,39.41,19t11.73,49.64V470.21h100.5ZM27.34,470.2V167.55H127.83V470.21H27.34ZM118.81,36.37q15,15.06,15.65,37.31a50.45,50.45,0,0,1-15.34,37Q103.76,126,77.29,126H76.7q-25.28,0-40.31-15.34a51,51,0,0,1-15.06-37q0-22.26,15.35-37.31t41.21-15Q103.77,21.33,118.81,36.37Z"/>
</svg>
