<svg xmlns="http://www.w3.org/2000/svg" width="512" height="512" viewBox="0 0 512 512">
  <title>linux</title>
  <path d="M384.92,253.37h0a164.83,164.83,0,0,1,23.53,138.11h-.66c-19.23-11.39-30.23-24.92-40.61-47.8-6.66-14.65-12-45.47-15.86-61.18a32.5,32.5,0,0,0-3.92-9.31,632.44,632.44,0,0,1-46-89.1c-.78-1.83-1.46-3.72-2.06-5.63l-11.1-35.74c-.08-.29-.19-.57-.29-.84-3.08-7.63-14-7.73-17.66-.35-3.46,7-11.41,20.64-20.65,20.64-9,0-16.63-12.87-20-20.27-3.27-7.12-13.66-7.34-16.66-.12a8.7,8.7,0,0,0-.35.94l-11.1,35.74c-.6,1.91-1.28,3.78-2.06,5.63a634.56,634.56,0,0,1-46,89.1,32.5,32.5,0,0,0-3.92,9.31c-4.12,16.66-10.14,43.08-17.71,58.52-10.73,21.88-19.16,38-40.48,50.44v0a164.79,164.79,0,0,1,27.3-143.34A228.18,228.18,0,0,0,159,118.25c0-7-.25-20.66-.25-20.66-.13-2-.23-4.09-.23-6.17a91.42,91.42,0,0,1,182.84,0c0,2.08-.33,19.86-.33,26.83a228.47,228.47,0,0,0,44,135.12ZM272.76,389.06v0c.32-1.18.63-2.25,1-3.27,0-.21.07-.39.13-.6a22.32,22.32,0,0,1,38.84-8.33,3.37,3.37,0,0,0,5.8-.94,1.6,1.6,0,0,1,.08-.23,22.32,22.32,0,0,1,42.34,13.9.72.72,0,0,1,0,.19,2,2,0,0,0,2.87,2.32,22.3,22.3,0,0,1,31.65,25.66c-.21.72-.43,1.4-.68,2.08s-.29,1.17-.45,1.79c-9.93,37.11-60.58,97.34-89.08,89.71S262.83,426.15,272.76,389.06Zm-45.32-3.27v0c.35,1,.68,2.1,1,3.27,9.94,37.09-4,114.63-32.44,122.26s-79.15-52.62-89.08-89.71c-.16-.6-.31-1.22-.45-1.79a18.06,18.06,0,0,1-.68-2.08,22.3,22.3,0,0,1,31.65-25.66,2,2,0,0,0,2.88-2.32.59.59,0,0,0-.05-.19,22.32,22.32,0,0,1,42.34-13.9c0,.06.06.15.08.23a3.37,3.37,0,0,0,5.8.94,22.32,22.32,0,0,1,38.84,8.33C227.35,385.4,227.39,385.58,227.44,385.79Z"/>
</svg>
