<svg xmlns="http://www.w3.org/2000/svg" width="512" height="512" viewBox="0 0 512 512">
  <title>mailgun</title>
  <path d="M21.33,235.8c2.14-10.69,4.11-21.38,6.58-32.06C52,98.59,144.69,21.33,255.46,21.33c128.76,0,233.14,104.39,233.14,233.15,0,4.35-.11,8.69-.36,13l0-.59a103.36,103.36,0,0,1-15.07,52.42l.27-.46a65.88,65.88,0,0,1-74.29,29.81l.46.11A144.08,144.08,0,0,1,370.32,332l.4.28-5.59,7.24A138.1,138.1,0,1,1,391.5,235.86l.1.76c.31,5.08.49,11,.49,17s-.18,11.93-.52,17.82l0-.8c-.05.57-.08,1.23-.08,1.89A22.52,22.52,0,0,0,435.61,279l.05-.16a120.69,120.69,0,0,0,4.11-31.67A123.9,123.9,0,0,0,433.1,207l.26.87C411.23,128.68,339.74,71.59,254.92,71.59c-102.15,0-185,82.82-185,185A185,185,0,0,0,249.77,441.47H250c2,.08,4.36.13,6.71.13a180.3,180.3,0,0,0,125.86-51l0,.05c3-2.63,5.75-5.43,9.21-8.72l36.66,30.75c-2.63,2.8-4.77,5.76-7.23,8.06-68.4,64.94-148,86.15-238.41,57.21S41.05,384.76,24.6,292.36c-.82-5.1-1.8-10-2.79-14.8ZM254.8,346h.5A89.28,89.28,0,1,0,166,256.68v.82A88.47,88.47,0,0,0,254.48,346h.32Zm40.29-88.79a40.12,40.12,0,1,0-40.3,40.28h.67a39.63,39.63,0,0,0,39.63-39.62v-.66Z"/>
</svg>
