<svg xmlns="http://www.w3.org/2000/svg" width="512" height="512" viewBox="0 0 512 512">
  <title>memcache</title>
  <path d="M187.76,441.9v0Zm0-197.54h65.85v16.46a73.88,73.88,0,0,1,9.37-8.43l.18-.13a75,75,0,0,1,42.29-12.91c1.1,0,2.21,0,3.31.07h-.15a115,115,0,0,1,16.1,1.23l-.62-.08V85.33H187.78ZM367,267.73a69.66,69.66,0,0,1,23-19.08l.39-.18a90.81,90.81,0,0,1,39.48-8.89c.41,0,.84,0,1.25,0h.23a80.38,80.38,0,0,1,30,5.79l-.54-.19a67.34,67.34,0,0,1,27.24,19.49l.09.1,2.46,3.12V213.59A128.56,128.56,0,0,0,362.1,85.35h-7.74V253.92a64.94,64.94,0,0,1,11.7,13.58l.15.25ZM21.33,442.4H156.82V85.33H143.48A122.15,122.15,0,0,0,21.33,207.48Zm357.23,0h54.65v-120c0-.53.05-1.16.05-1.8a31.65,31.65,0,0,0-3.26-14l.08.18a22,22,0,0,0-21.84-10.52h.11a23.8,23.8,0,0,0-2.78-.15,26,26,0,0,0-23.16,14.16l-.07.14a48.61,48.61,0,0,0-3.8,19c0,.38,0,.77,0,1.15V442.4ZM307.11,307.57a21.28,21.28,0,0,0-18.65-11.09,22.28,22.28,0,0,0-3.19.23l.11,0c-13.83,0-22.22,3.79-26.34,11a45.66,45.66,0,0,0-3.73,18.21c0,1.12,0,2.23.11,3.34V442.38h55V330.44c.05-.94.08-2,.08-3.11a59.53,59.53,0,0,0-3.5-20.19l.13.41Z"/>
</svg>
