<svg xmlns="http://www.w3.org/2000/svg" width="512" height="512" viewBox="0 0 512 512">
  <title>mobile-theme</title>
  <path d="M305.06,323h85a16.76,16.76,0,0,0,16.77-16.76V172.18a16.76,16.76,0,0,0-16.77-16.76H305A16.77,16.77,0,1,0,305,189h68.37V289.5H305.06a16.76,16.76,0,1,0,0,33.51Zm-65.83,67H138.65V188.92H239.23ZM256,155.42H121.91a16.76,16.76,0,0,0-16.76,16.76V406.85a16.76,16.76,0,0,0,16.76,16.76H256a16.76,16.76,0,0,0,16.76-16.76V172.18A16.76,16.76,0,0,0,256,155.42ZM490.66,71.6V440.35a50.28,50.28,0,0,1-50.29,50.29H71.62a50.29,50.29,0,0,1-50.29-50.29V138.66a50.3,50.3,0,0,1,50.29-50.3H222.47a16.77,16.77,0,0,1,0,33.53H71.62a16.76,16.76,0,0,0-16.76,16.77V440.35a16.76,16.76,0,0,0,16.76,16.77H440.37a16.76,16.76,0,0,0,16.77-16.77V71.6a16.76,16.76,0,0,0-16.77-16.76H38.1a16.75,16.75,0,1,1,0-33.49l402.27,0a50.29,50.29,0,0,1,50.29,50.29Z"/>
</svg>
