<svg id="Layer_1" data-name="Layer 1" xmlns="http://www.w3.org/2000/svg" viewBox="0 0 512 512"><title>mysql-operator</title><path d="M186.78,414.21c-35.05-2.5-66-7.45-89.64-14.31-27-7.87-33.65-15.2-34.79-16.75v-58q4.45,2.07,9.51,4c21.13,8.08,50.41,14.43,84.67,18.36a16.36,16.36,0,0,0,1.84.11,16,16,0,0,0,1.81-31.9c-28.37-3.26-53-8.25-71.28-14.44-20.26-6.86-25.55-12.79-26.55-14.16v-58a170,170,0,0,0,19.3,7.44c27.07,8.72,63.45,14.83,105.2,17.67.37,0,.74,0,1.1,0a16,16,0,0,0,1.07-32C153.42,220,121.89,215,97.85,208.1c-27.67-7.95-34.36-15.4-35.5-16.95v-58c9.84,4.58,22,8.69,36.36,12.28,37.51,9.38,87.1,14.54,139.64,14.54S340.49,154.84,378,145.46c14.35-3.59,26.53-7.7,36.36-12.28v55.29a16,16,0,1,0,32,0V96c0-12.54-7.72-23.45-23-32.45-11-6.5-26.28-12.22-45.41-17C340.49,37.16,290.9,32,238.35,32S136.22,37.16,98.71,46.54c-19.13,4.79-34.4,10.51-45.41,17C38.08,72.55,30.35,83.46,30.35,96V384c0,18.5,17,33.43,50.53,44.37,26.61,8.68,62.44,14.82,103.63,17.76.38,0,.77,0,1.15,0a16,16,0,0,0,1.12-32ZM113.94,75.82C148.05,68.2,192.23,64,238.35,64s90.31,4.2,124.41,11.82C399.54,84,410.7,92.9,413.63,96c-2.93,3.1-14.09,12-50.87,20.18C328.66,123.8,284.48,128,238.35,128s-90.3-4.2-124.41-11.82C77.17,108,66,99.1,63.08,96,66,92.9,77.17,84,113.94,75.82Z"/><path d="M481.24,369.07l-26-113.93a16,16,0,0,0-8.66-10.85L341.3,193.58a16,16,0,0,0-13.89,0L222.12,244.29a16,16,0,0,0-8.65,10.85l-26,113.93a16,16,0,0,0,3.09,13.54L263.41,474a16,16,0,0,0,12.51,6H392.78a16,16,0,0,0,12.51-6l72.87-91.37A16,16,0,0,0,481.24,369.07ZM385.08,448H283.63l-63.25-79.32L243,269.78l91.4-44,91.41,44,22.57,98.9Z"/><path d="M409.76,342.46,389.47,338a54.9,54.9,0,0,0-3.92-16.53l16.62-13.46A16,16,0,0,0,382,283.18L365.4,296.65a55.23,55.23,0,0,0-15-7.19V267.81a16,16,0,0,0-32,0v21.65a55.17,55.17,0,0,0-15,7.19l-16.62-13.47a16,16,0,0,0-20.15,24.87l16.62,13.46A54.6,54.6,0,0,0,279.24,338l-20.3,4.42a16,16,0,1,0,6.82,31.27l20.3-4.43A55.7,55.7,0,0,0,296.81,383l-8.88,18.25a16,16,0,0,0,28.77,14L325.57,397a54.7,54.7,0,0,0,17.57,0L352,415.21a16,16,0,0,0,28.77-14L371.9,383a55.43,55.43,0,0,0,10.74-13.65l20.3,4.43a16,16,0,1,0,6.82-31.27Zm-98.71-.07a23.31,23.31,0,1,1,23.3,23.31A23.32,23.32,0,0,1,311.05,342.39Z"/></svg>