<svg xmlns="http://www.w3.org/2000/svg" width="512" height="512" viewBox="0 0 512 512">
  <title>network-alt</title>
  <circle cx="256" cy="256" r="224" fill="none" stroke="#000" stroke-linecap="butt" stroke-linejoin="miter" stroke-width="32"/>
  <path d="M111.59,427.24C179.94,333.17,290.82,272,416,272a378,378,0,0,1,63,5.26" fill="none" stroke="#000" stroke-linecap="butt" stroke-linejoin="miter" stroke-width="32"/>
  <path d="M106.25,422.59C124.36,257.31,249.59,124.24,411,94.31" fill="none" stroke="#000" stroke-linecap="butt" stroke-linejoin="miter" stroke-width="32"/>
  <path d="M168,272a16,16,0,0,1,0-32" fill="none" stroke="#000" stroke-linecap="butt" stroke-linejoin="miter" stroke-width="32"/>
  <path d="M168,240a16,16,0,0,1,0,32" fill="none" stroke="#000" stroke-linecap="butt" stroke-linejoin="miter" stroke-width="32"/>
  <path d="M422.59,405.75C257.31,387.64,124.24,262.41,94.31,101" fill="none" stroke="#000" stroke-linecap="butt" stroke-linejoin="miter" stroke-width="32"/>
  <path d="M145.91,60.87c154.22,41.48,269.26,178.6,277.6,343.84" fill="none" stroke="#000" stroke-linecap="butt" stroke-linejoin="miter" stroke-width="32"/>
  <path d="M296,152a16,16,0,0,1,0-32" fill="none" stroke="#000" stroke-linecap="butt" stroke-linejoin="miter" stroke-width="32"/>
  <path d="M296,120a16,16,0,0,1,0,32" fill="none" stroke="#000" stroke-linecap="butt" stroke-linejoin="miter" stroke-width="32"/>
  <path d="M232,336a16,16,0,0,1,0-32" fill="none" stroke="#000" stroke-linecap="butt" stroke-linejoin="miter" stroke-width="32"/>
  <path d="M232,304a16,16,0,0,1,0,32" fill="none" stroke="#000" stroke-linecap="butt" stroke-linejoin="miter" stroke-width="32"/>
  <path d="M392,288a16,16,0,0,1,0-32" fill="none" stroke="#000" stroke-linecap="butt" stroke-linejoin="miter" stroke-width="32"/>
  <path d="M392,256a16,16,0,0,1,0,32" fill="none" stroke="#000" stroke-linecap="butt" stroke-linejoin="miter" stroke-width="32"/>
</svg>
