<svg xmlns="http://www.w3.org/2000/svg" width="512" height="512" viewBox="0 0 512 512">
  <title>nginx</title>
  <path d="M42.68,256.06V145.55c0-.2,0-.41,0-.65A12.2,12.2,0,0,1,50,133.71l.08,0Q145.44,78.76,240.77,23.49a12.72,12.72,0,0,1,14.24,0l0,0L446,134a12.26,12.26,0,0,1,6.78,10.94c0,.21,0,.43,0,.64V366.9a5.15,5.15,0,0,1,0,.57,11.86,11.86,0,0,1-6.87,10.77l-.06,0L256.13,488.13a14.65,14.65,0,0,1-16.55,0l.06,0Q144.8,433.2,50.12,378.61a12.24,12.24,0,0,1-6.8-10.94c0-.33,0-.66,0-1v.05q-.75-55.17-.66-110.68ZM312,295.81l-4.13-4.95c-37.77-45-75.38-89.73-113-134.92a49.46,49.46,0,0,0-34.8-18.46H160a28.35,28.35,0,0,0-4.47-.35,29.69,29.69,0,0,0-29.69,29.69c0,.41,0,.82,0,1.22v177a36.71,36.71,0,0,0,1.22,9.38l0-.24A26.88,26.88,0,0,0,179.78,347V215a41.28,41.28,0,0,0,4.12,4.95L297.54,356.17a46.81,46.81,0,0,0,35.73,16.55c.78,0,1.55,0,2.33-.05h-.12c.56,0,1.22.07,1.88.07a28.22,28.22,0,0,0,28.21-28.21c0-.66,0-1.32-.07-2v.08c-.83-12.86,0-25.73,0-38.6V168.14c.08-1,.12-2.14.12-3.29s-.05-2.31-.14-3.45l0,.15a25,25,0,0,0-16.31-22.22l-.19-.05a26.17,26.17,0,0,0-10.22-2A26.72,26.72,0,0,0,312.06,164v132.5Z"/>
</svg>
