<svg xmlns="http://www.w3.org/2000/svg" width="512" height="512" viewBox="0 0 512 512">
  <title>nginx-ingress_1</title>
  <path d="M461,145.58c0-.21,0-.43,0-.64A12.26,12.26,0,0,0,454.26,134l-191-110.51.05,0a12.72,12.72,0,0,0-14.24,0Q153.75,78.75,58.4,133.67l-.08,0A12.2,12.2,0,0,0,51,144.9c0,.24,0,.45,0,.65V256.06h0q0,55.41.66,110.64c0,.31,0,.64,0,1a12.24,12.24,0,0,0,6.8,10.94q94.66,54.58,189.5,109.51a14.66,14.66,0,0,0,16.51,0L454.11,378.28l.06,0A11.86,11.86,0,0,0,461,367.47a5.15,5.15,0,0,0,0-.57ZM252.87,317.24v-.06c0,.46,0,.93,0,1.39a20,20,0,0,1-20,20c-.46,0-.92,0-1.31,0l-1.59,0a33.13,33.13,0,0,1-25.31-11.72L124.21,230.3a29.91,29.91,0,0,1-2.92-3.5v93.5a19,19,0,0,1-37.39,5.12l0,.17a25.94,25.94,0,0,1-.86-6.64V193.53c0-.28,0-.58,0-.87a21,21,0,0,1,24.2-20.79h.11A35.06,35.06,0,0,1,132,185c26.64,32,53.29,63.69,80,95.59l2.93,3.5,0,.47V190.65a18.92,18.92,0,0,1,18.93-18.93,18.68,18.68,0,0,1,7.25,1.44l.12,0a17.71,17.71,0,0,1,11.56,15.74v-.1c.06.8.09,1.62.09,2.44s0,1.64-.08,2.34V289.9C252.87,299,252.29,308.13,252.87,317.24ZM429,256a16,16,0,0,1-16,16H365v48a16,16,0,0,1-32,0V272H285a16,16,0,0,1-16-16h0a16,16,0,0,1,16-16h48V192a16,16,0,0,1,32,0v48h48a16,16,0,0,1,16,16Z"/>
</svg>
