<svg xmlns="http://www.w3.org/2000/svg" width="512" height="512" viewBox="0 0 512 512">
  <title>opsgenie</title>
  <path d="M402.27,364.51a51,51,0,0,0,2.89-17.08c0-1,0-2-.08-3v.14a180.36,180.36,0,0,0-3-29.14l.16,1.1a24.49,24.49,0,0,0-17.64-18.6l-.17,0c-12.2-3.8-24.57-7.26-36.61-11.22a281.84,281.84,0,0,1-31.1-11.11l1.91.72a49.81,49.81,0,0,1-22.79-20l-.13-.23a39,39,0,0,1-1.71-3.53l-.1-.26v-1.82A140.75,140.75,0,0,0,373.81,282l.43,0a96.66,96.66,0,0,1,27.19,7l-.64-.23a30.27,30.27,0,0,1,19.92,34.33l0-.2a88.66,88.66,0,0,1-18,41.76l.15-.2Zm-87.56,59.86A104.23,104.23,0,0,1,263,381.61l-.26-.44a216.13,216.13,0,0,0,79.49,37l1.48.3c-9.73,4.61-17.48,10.05-28.36,5.93Zm-121.87,2.81-20.12-8.58a227.43,227.43,0,0,0,84.12-37.4l-.68.46A105.37,105.37,0,0,1,193.56,427l-.72.15ZM173.05,320.32a89.18,89.18,0,0,1,10.47-.6A92.25,92.25,0,0,1,214.26,325l-.64-.19a78.86,78.86,0,0,0-14.14-1.26,80.64,80.64,0,0,0-58.56,25.12l0,0a33,33,0,0,1,32.65-28.36Zm-66,7.25V365a96.65,96.65,0,0,1-16.45-44.93l0-.42c-.08-.79-.11-1.73-.11-2.67a30,30,0,0,1,16.44-26.78l.16-.08a79.47,79.47,0,0,1,30.07-8.39l.28,0a148.19,148.19,0,0,0,54-14.56l-.87.38c9.4-4.62,18-10.89,27.37-16.49a47.43,47.43,0,0,1-14.56,18.38l-.11.09a102.57,102.57,0,0,1-33.41,16.31l-.73.18c-12,3.46-24.08,6.92-36.12,10.06a33,33,0,0,0-25.89,31.46v.05Zm79-196.41a63,63,0,0,1,45.39-49.37l.45-.1A71.53,71.53,0,0,0,199,131.94l-.05.38a113.63,113.63,0,0,0-.84,14A116.67,116.67,0,0,0,203,179.65l-.22-.83c1.49,4.79,2.81,9.57,4.12,14.35a93.44,93.44,0,0,1-20.82-59c0-1,0-2.11.05-3.15Zm65.13,109.17c-39.9-23.91-46.5-55.74-15.17-91C219.06,186.9,221.86,207.35,251.21,240.33Zm-5.93-134.89c4.45-5.44,10.06-4.45,14.51,1a35.74,35.74,0,0,1-.1,29.25l.1-.23a8.42,8.42,0,0,1-14.82.05l0-.05a28.91,28.91,0,0,1,.41-30.15l-.07.12Zm3.79-35.13a40.81,40.81,0,0,0,7.59-21.67v-.1a21.16,21.16,0,0,1-.05,25l0-.07A18.85,18.85,0,0,0,256.69,92l-.05-.1s-15.5-9.56-7.58-21.6Zm88.56,284.14a143.39,143.39,0,0,0-43.37-14.08l-.83-.1a149.52,149.52,0,0,0-27.87-2.54,154.65,154.65,0,0,0-28.82,2.69l.95-.15a618.68,618.68,0,0,0-65.81,15.83l4.47-1.15a187.13,187.13,0,0,1,87-27.51l.54,0a155.4,155.4,0,0,1,74,27.86l-.48-.32Zm-33-160.62a136.71,136.71,0,0,0,24.72-52.34l.18-.93c.11,1.52.16,3.28.16,5.08a75.47,75.47,0,0,1-30.64,60.76l-.2.14c.09-1.28.14-2.77.14-4.27a65.94,65.94,0,0,0-35.24-58.38l-.37-.18c31.5,7.42,37.77,22.26,41.23,50.13Zm24.24-71.57a104.93,104.93,0,0,0-56.48-40.55l-.74-.19a47.81,47.81,0,0,1,8.4-.72A49.5,49.5,0,0,1,328.86,122ZM256,21.33C126.4,21.33,21.33,126.4,21.33,256S126.4,490.67,256,490.67,490.66,385.6,490.66,256,385.6,21.33,256,21.33Z"/>
</svg>
