<svg xmlns="http://www.w3.org/2000/svg" width="512" height="512" viewBox="0 0 512 512">
  <title>papertrail</title>
  <path d="M21.33,184.8A512,512,0,0,1,220.08,98.37l3.3-.56A494.24,494.24,0,0,1,320.44,88h.11a3.63,3.63,0,0,0,0,.58,3.92,3.92,0,0,0,.05.59v0l-34,31.68H299.4a642,642,0,0,0,96.21-14.46l-4.3.84a204.68,204.68,0,0,0,73.83-29.53l-.79.48C470.1,74,475,69.09,480.77,64A32.6,32.6,0,0,1,479,70.79l.09-.22a182.72,182.72,0,0,1-47.39,78.09l-.05,0A260.41,260.41,0,0,1,379,185.43l-1.43.69A597.39,597.39,0,0,1,267,232.41l-4.38,1.14c-25.94,8-52.53,14.45-78.79,21.34a7.55,7.55,0,0,1-1.39.13,7.22,7.22,0,0,1-4.37-1.46l0,0a257.13,257.13,0,0,0-67-43.66l-1.62-.66a261.89,261.89,0,0,0-86.9-23.55l-1.08-.08ZM212.22,289.2a237.18,237.18,0,0,0-16.54-19.85l.13.15c73.93-23.28,159-36.67,247.09-36.67q24.06,0,47.76,1.31l-2.2-.09c-2.46,0-4.92,0-7.38,1.47-20.19,6.57-40.87,12.31-60.73,20-63.47,26-116.19,52.21-166.85,81.59l6.49-3.46c-3.29,1.8-6.9,3.12-10,5.08s-5.25,1.81-7.71-2q-14.44-24-30-47.11Zm62.7,147.72h-1.48a270.17,270.17,0,0,0-19.2-75.32l.66,1.78L408,297.73a1.3,1.3,0,0,0,1,1.15C364.54,344.84,320.55,390.8,274.92,436.92Z"/>
</svg>
