<svg xmlns="http://www.w3.org/2000/svg" width="512" height="512" viewBox="0 0 512 512">
  <title>particles</title>
  <path d="M255.15,206.51H255a41.26,41.26,0,1,0,41.25,41.25v-.16a41.27,41.27,0,0,0-41.07-41.09Zm105.06-139A13.2,13.2,0,0,1,353.34,56a13.36,13.36,0,0,1,1.72-6.53l0,.06a13.37,13.37,0,0,1,17.12-5.64l-.08,0a13.36,13.36,0,0,1,4.81,18.27l0-.07a13.18,13.18,0,0,1-11.48,6.68h-.05l-.58,0a12.91,12.91,0,0,1-5.49-1.22l.08,0Zm-54.95-3.67a12.88,12.88,0,0,1-1.34-5.75,13,13,0,0,1,7.77-11.92l.08,0a13.45,13.45,0,0,1,5.5-1.15,13.7,13.7,0,0,1,12.34,7.75l0,.08A13.36,13.36,0,0,1,322,70.52l-.1,0a14.66,14.66,0,0,1-5.49,1.17h0A13.41,13.41,0,0,1,305.27,64l0-.08Zm-41.09,30.9a13.38,13.38,0,0,1,1.49-18.86l0,0a13.19,13.19,0,0,1,18.68,1.66h0a13,13,0,0,1-1.47,18.69l0,0a13.9,13.9,0,0,1-8.66,3.17h0a13,13,0,0,1-10-4.66h0Zm110.73,5.84c0-.38-.06-.82-.06-1.27A13.56,13.56,0,0,1,386.7,85.92h.06a12.74,12.74,0,0,1,1.44-.08,13.53,13.53,0,0,1,13.43,11.87v.07a14.9,14.9,0,0,1,.08,1.56,13.19,13.19,0,0,1-12.07,13.14h-1.33a13.52,13.52,0,0,1-13.41-11.79ZM229.27,131.85A13.38,13.38,0,0,1,228,113l0,0A13.67,13.67,0,0,1,247,111.83l0,0a13.55,13.55,0,0,1,1.32,18.89l0,0a13.65,13.65,0,0,1-10,4.51h-.13a13,13,0,0,1-8.72-3.35h-.16Zm153.65,31.07a13.39,13.39,0,0,1-11.07-13.16,14.24,14.24,0,0,1,.22-2.46l0,.09a13.39,13.39,0,0,1,13.21-11.33,13.24,13.24,0,0,1,3.59.49l-.1,0a13.39,13.39,0,0,1,10.91,13.13,13.73,13.73,0,0,1-.24,2.49l0-.09a13.23,13.23,0,0,1-13,11h-2.51ZM199.2,172.77A13.53,13.53,0,0,1,196.05,154l0,0a13.41,13.41,0,0,1,10.93-5.68,13.27,13.27,0,0,1,7.81,2.52l0,0a13.35,13.35,0,0,1,3.14,18.59l0,0a13.17,13.17,0,0,1-10.84,5.68h0a15.44,15.44,0,0,1-7.92-2.37l.07,0Zm169.69,38.08a13.39,13.39,0,0,1-9-12.62,13.17,13.17,0,0,1,.67-4.18l0,.1a13.2,13.2,0,0,1,16.8-8.33l-.1,0a13.36,13.36,0,0,1,8.32,16.8l0-.1a13.37,13.37,0,0,1-12.69,9.19h0a12.58,12.58,0,0,1-4.58-.18h.09Zm-195.41,4.51a13.39,13.39,0,0,1-5.31-17.94l0,.07a13.36,13.36,0,0,1,18.27-4.81l-.07,0a13,13,0,0,1,4.81,18.27l0,0a13.2,13.2,0,0,1-11.48,6.68h-.05c-.23,0-.5,0-.77,0a12.11,12.11,0,0,1-6-1.56l.07,0ZM323.8,301.88A13.21,13.21,0,0,1,319,283.62l0,.07a13.18,13.18,0,0,1,18.26-5l-.07,0a13.38,13.38,0,0,1,5,18.27l0-.07a13.7,13.7,0,0,1-11.76,6.68h-.1a10.82,10.82,0,0,1-1.18.05,14,14,0,0,1-5.43-1.08l.1,0Zm-190.57,6.84A13.54,13.54,0,0,1,124.28,296a13.76,13.76,0,0,1,.62-4.08l0,.1a13.41,13.41,0,0,1,16.81-8.32l-.1,0a13.24,13.24,0,0,1,8.33,16.8l0-.1a13.38,13.38,0,0,1-12.51,9.19h.82c-.55.05-1.2.08-1.85.08a21.87,21.87,0,0,1-3.27-.26h.11Zm-10.85,50.11a13.23,13.23,0,0,1-10.94-13,12.59,12.59,0,0,1,.26-2.62v.09a13.22,13.22,0,0,1,13-10.91,13.4,13.4,0,0,1,2.46.23h-.09a13.16,13.16,0,0,1,11.17,15.26l0-.08a13.37,13.37,0,0,1-13.16,11h-2.7Zm140.46,25.05a13.62,13.62,0,1,1,17.88-20.54v0a13.38,13.38,0,0,1,1,18.89l0,0a13,13,0,0,1-9.85,4.51h-.44a13.1,13.1,0,0,1-8.6-3.19l0,0Zm-154,14a12.48,12.48,0,0,1-.09-1.44,13.38,13.38,0,0,1,11.71-13.26h.07a12.69,12.69,0,0,1,1.57-.1A13.19,13.19,0,0,1,135.24,395v.05a12.74,12.74,0,0,1,.08,1.44,13.37,13.37,0,0,1-11.71,13.26h-2.07A13.38,13.38,0,0,1,108.85,398v0Zm116.91,19.88a13.21,13.21,0,0,1,1.65-18.69l0,0a13,13,0,0,1,18.69,1.47v0a13.36,13.36,0,0,1-1.48,18.85l0,0a14.11,14.11,0,0,1-8.67,3.17h-.15a13.15,13.15,0,0,1-10.2-4.82l0,0ZM181.5,442.34a13,13,0,0,1-1.15-5.41,13.17,13.17,0,0,1,7.91-12.1l.09,0A13.19,13.19,0,0,1,193,424a13.37,13.37,0,0,1,12,7.45l0,.08a13.36,13.36,0,0,1,1.12,5.38,13.51,13.51,0,0,1-7.89,12.29l-.08,0a11.84,11.84,0,0,1-5.18,1.17h-.33a13.19,13.19,0,0,1-11.32-7.93l0-.08ZM138.24,451a13.19,13.19,0,0,1-5-18.25l0,.06a13.38,13.38,0,0,1,18.27-5l-.06,0a13.19,13.19,0,0,1,5,18.26l0-.07a13.24,13.24,0,0,1-11.58,6.85h-.13a13.8,13.8,0,0,1-6.58-1.87l.06,0ZM132.73,62.71a13.18,13.18,0,0,1,5.45-18.17l.06,0a13.41,13.41,0,0,1,6.8-1.83,13.58,13.58,0,0,1,11.54,6.44l0,.07a13.31,13.31,0,0,1,1.76,6.66,13.51,13.51,0,0,1-6.7,11.68l-.07,0a12.62,12.62,0,0,1-6.51,1.84c-.27,0-.57,0-.87,0a13.18,13.18,0,0,1-11.46-6.65Zm55.62,7.51a13.53,13.53,0,0,1-7-17.78l0,.08a13.37,13.37,0,0,1,12.23-8A13.21,13.21,0,0,1,199,45.71l-.08,0a13.24,13.24,0,0,1,7.73,12A12.93,12.93,0,0,1,205,63.94l0-.06a13.09,13.09,0,0,1-12,8,14.17,14.17,0,0,1-4.74-1.7l.06,0Zm38.91,27.23a13.53,13.53,0,0,1-1.65-18.89h0a13.36,13.36,0,0,1,18.89-1.48l0,0A13,13,0,0,1,246,95.78l0,0a13,13,0,0,1-10.14,4.84h-.22a12.77,12.77,0,0,1-8.84-4.81v0ZM121,114.15a13.21,13.21,0,0,1-12-13.14,14.23,14.23,0,0,1,.1-1.62v.06a13.36,13.36,0,0,1,13.28-11.92,14.32,14.32,0,0,1,1.47.08h-.07a13.38,13.38,0,0,1,11.93,13.28,14.32,14.32,0,0,1-.09,1.47v-.07a13.54,13.54,0,0,1-13.36,12H120.5Zm141,16.7A13.21,13.21,0,0,1,263.15,112h0a13.19,13.19,0,0,1,18.69,1.15l0,0a13.2,13.2,0,0,1-1.67,17.52h0a13.81,13.81,0,0,1-8.67,3.34h0a10.61,10.61,0,0,1-1.3.06,12.91,12.91,0,0,1-8.73-3.4h0ZM111.69,153.23a12.81,12.81,0,0,1-.22-2.4,13.37,13.37,0,0,1,10.82-13.13l.09,0a13.73,13.73,0,0,1,2.8-.3,13.54,13.54,0,0,1,13,9.89v.1a12.64,12.64,0,0,1,.22,2.37,13.35,13.35,0,0,1-11,13.14l-.08,0h-2.64a13.35,13.35,0,0,1-13-10.44l0-.08Zm13.36,50.11a13.35,13.35,0,0,1,8.27-16.67l.1,0a13.16,13.16,0,0,1,4.07-.63,13.35,13.35,0,0,1,12.59,8.9l0,.1a13,13,0,0,1,.68,4.18,13.21,13.21,0,0,1-8.93,12.49l-.1,0a13.39,13.39,0,0,1-2.26.17,16.42,16.42,0,0,1-2.34-.18h1.09c-.23,0-.52,0-.8,0a13.35,13.35,0,0,1-12.36-8.28l0-.09Zm193.57,7a13.34,13.34,0,0,1,4.78-18.17l.06,0a13.57,13.57,0,0,1,6.67-1.74,13.71,13.71,0,0,1,11.67,6.51l0,.07a13.22,13.22,0,0,1-5.12,18.17l-.06,0a10.91,10.91,0,0,1-6.12,1.84,3.1,3.1,0,0,1-.43,0h0a13.15,13.15,0,0,1-11.44-6.61l0-.07Zm-174,41.42A13.17,13.17,0,0,1,151,234.1l.08,0a13.2,13.2,0,0,1,5.58-1.22,13.35,13.35,0,0,1,12.09,7.65l0,.08a13.54,13.54,0,0,1-6.43,17.65l-.09,0a13.92,13.92,0,0,1-5.61,1.17h-.32a12.89,12.89,0,0,1-11.74-7.6l0-.09Zm196.91,2.51a13.38,13.38,0,0,1,6.26-17.67l.09,0a13.26,13.26,0,0,1,5.64-1.23A13.49,13.49,0,0,1,365.68,243l0,.09a13.12,13.12,0,0,1,1.22,5.57,13.4,13.4,0,0,1-7.65,12.1l-.08,0a13.79,13.79,0,0,1-5.5,1.34h0a13.38,13.38,0,0,1-12.14-7.77ZM168.3,297.7a13.5,13.5,0,0,1,4.8-18.15l.07,0a13.55,13.55,0,0,1,18.33,4.8l0,.06a13.37,13.37,0,0,1-4.78,18.17l-.07,0a13.56,13.56,0,0,1-6.66,1.83h0a14.18,14.18,0,0,1-11.65-6.61l0-.05Zm191.57,3A13.39,13.39,0,0,1,368.14,284l.1,0a13.17,13.17,0,0,1,3.93-.59,13.57,13.57,0,0,1,12.76,9l0,.1a13,13,0,0,1,.68,4.18,13.21,13.21,0,0,1-8.93,12.49l-.1,0a11.52,11.52,0,0,1-2.09.19,12.64,12.64,0,0,1-2.15-.19l.06,0a13.36,13.36,0,0,1-12.49-9.08l0-.1ZM196.36,342.29a13.2,13.2,0,0,1,3.13-18.52l0,0a13.36,13.36,0,0,1,18.69,3.12l0,0A13.17,13.17,0,0,1,215,345.4l-.05,0a12.41,12.41,0,0,1-7.52,2.51h-.15a13.21,13.21,0,0,1-10.82-6.3l0-.05Zm175.71,5.52a12.34,12.34,0,0,1-.21-2.34A13.37,13.37,0,0,1,383,332.29l.09,0a14,14,0,0,1,2.23-.18,13.52,13.52,0,0,1,13.28,11l0,.08a13.54,13.54,0,0,1,.22,2.37,13.36,13.36,0,0,1-11,13.14l-.08,0h-2.34a13.69,13.69,0,0,1-13.34-10.77l0-.08Zm-143.3,34.73a13.17,13.17,0,0,1,1.15-18,13.35,13.35,0,0,1,18.85,1.32h0a13.19,13.19,0,0,1-1.15,18.69l0,0a13.63,13.63,0,0,1-8.85,3.34,12.84,12.84,0,0,1-10-5.31l0,0ZM387.1,408.6A13.71,13.71,0,0,1,374.85,395c0-.39,0-.75,0-1.14v0A13.55,13.55,0,0,1,388.33,382a11.45,11.45,0,0,1,1.32.06h0a13.37,13.37,0,0,1,12.24,13.32,10.43,10.43,0,0,1-.06,1.26v-.05a13.56,13.56,0,0,1-13.36,12H387.1Zm-120.92,11a13.68,13.68,0,0,1-1.82-18.89l0,0a13.53,13.53,0,0,1,19.06-1.49l0,0A13.21,13.21,0,0,1,285,418l0,0a13.48,13.48,0,0,1-10.36,4.84h-.18a12.45,12.45,0,0,1-8.35-3.19l0,0Zm46.43,29.73a13.55,13.55,0,0,1-8.5-12.56,13.71,13.71,0,0,1,1.18-5.56l0,.08a13.4,13.4,0,0,1,16.8-6.48l-.08,0a13.38,13.38,0,0,1,6.81,17.79l0-.09a13.9,13.9,0,0,1-12.17,8h0a15.55,15.55,0,0,1-5.11-1.2l.1,0ZM355.36,446a12.86,12.86,0,0,1-1.9-6.78,13,13,0,0,1,6.68-11.37l.07,0a13.2,13.2,0,0,1,18.17,4.3l0,.05a13,13,0,0,1,2.06,7.06,13.19,13.19,0,0,1-6.33,11.27l-.05,0a12.15,12.15,0,0,1-6.45,1.83h-.23a12,12,0,0,1-2,.15,12.65,12.65,0,0,1-11-6.43l0-.06ZM240.46,160.75v-.07a13.36,13.36,0,0,1,13.36-13.36,12.5,12.5,0,0,1,1.38.07h0a13.2,13.2,0,0,1,13.2,13.19v.17a13.38,13.38,0,0,1-13.2,13.36h-.68a13.35,13.35,0,0,1-13.36-13.36h-.65Zm63.46,15.53A13.35,13.35,0,0,1,291.85,163a10.87,10.87,0,0,1,.06-1.28v.05a13.54,13.54,0,0,1,13.47-12.23c.36,0,.75,0,1.12,0h-.06a13.36,13.36,0,0,1,12.08,13.3,10.75,10.75,0,0,1-.07,1.28v-.05a13.21,13.21,0,0,1-13.16,12.2h-1.37Zm48.77,6.85A13.55,13.55,0,0,1,342,169.88a14.11,14.11,0,0,1,.24-2.54l0,.09a13.54,13.54,0,0,1,13.24-10.77,14.91,14.91,0,0,1,2.71.26H358A13.38,13.38,0,0,1,368.78,170a13.67,13.67,0,0,1-.24,2.5l0-.08a13.58,13.58,0,0,1-13.2,10.86Zm-212.28-10a13.44,13.44,0,0,1-.23-2.53,13.71,13.71,0,0,1,10.51-13.32l.1,0a12.89,12.89,0,0,1,2.88-.32,13.23,13.23,0,0,1,13,10.76l0,.08a13.36,13.36,0,0,1-10.26,15.68l-.08,0h-2.67a13.7,13.7,0,0,1-13.18-10.25l0-.1ZM399.79,196a13.72,13.72,0,0,1-8.15-16.8l0,.1a13.55,13.55,0,0,1,12.61-8.66,13.73,13.73,0,0,1,4.17.66l-.1,0a13.56,13.56,0,0,1,8.8,12.68,13.35,13.35,0,0,1-.63,4.12l0-.1a13.74,13.74,0,0,1-12.81,8.86h-.05a13.78,13.78,0,0,1-3.94-.87l.1,0ZM92.15,188.47a13,13,0,0,1-.69-4.24,13.38,13.38,0,0,1,8.45-12.43l.09,0a13.25,13.25,0,0,1,4-.6,13.67,13.67,0,0,1,12.67,8.52l0,.08a13.24,13.24,0,0,1,.63,4.09,13.56,13.56,0,0,1-8.55,12.6l-.08,0a11.69,11.69,0,0,1-3.79,1h-.06a13.53,13.53,0,0,1-12.65-8.92l0-.1Zm349.56,27.89a13.53,13.53,0,0,1-2.81-18.9l0,0a13.37,13.37,0,0,1,18.76-3l0,0a13.35,13.35,0,0,1,2.83,19.73v0a13.67,13.67,0,0,1-11,5.68,14,14,0,0,1-7.71-3h0ZM48.89,214.19a13.17,13.17,0,0,1,2.79-18.67l0,0a13.18,13.18,0,0,1,7.93-2.61,13.37,13.37,0,0,1,10.74,5.41l0,0A13.38,13.38,0,0,1,67.61,217l0,0a12.59,12.59,0,0,1-7.79,2.67h-.06a13.53,13.53,0,0,1-10.83-5.47l0,0Zm415.2,33.41v-.19a13.52,13.52,0,0,1,13-13.51h.37a13.19,13.19,0,0,1,13.19,13v.68A13.36,13.36,0,0,1,477.3,261c-.2,0-.43,0-.67,0a13.36,13.36,0,0,1-13.36-13.36v0Zm-442.76,0v-.34a13.2,13.2,0,0,1,13.19-13.19h0a13.53,13.53,0,0,1,13.53,13.17v0a13.53,13.53,0,0,1-13.34,13.53h-.19A13.2,13.2,0,0,1,21.33,247.6Zm417.54,48.93a13.5,13.5,0,0,1,2.81-18.67l0,0a13.35,13.35,0,0,1,18.67,3l0,0a13.38,13.38,0,0,1-2.81,18.67l0,0a13,13,0,0,1-7.85,2.68,13.69,13.69,0,0,1-10.83-5.65l0,0ZM52.23,299.37A12.85,12.85,0,0,1,49.57,281v0a13.17,13.17,0,0,1,18.57-3l0,0a13.19,13.19,0,0,1,3.3,19.73l0,0a13.71,13.71,0,0,1-10.86,5.51,12,12,0,0,1-8-3.51Zm340,16.7a13.24,13.24,0,0,1-.63-4.09,13.54,13.54,0,0,1,8.55-12.59l.1,0A13.55,13.55,0,0,1,417,307.44l0,.1a13.18,13.18,0,0,1,.62,4,13.53,13.53,0,0,1-8.7,12.65l-.1,0a12.35,12.35,0,0,1-4.51.83,13.57,13.57,0,0,1-11.66-8.91l0-.1Zm-291.44,8.19a13.23,13.23,0,0,1-8.73-12.41,13,13,0,0,1,.75-4.38l0,.1a13.23,13.23,0,0,1,12.41-8.73,13.46,13.46,0,0,1,4.38.73l-.1,0a13.55,13.55,0,0,1,8.65,12.61,13.73,13.73,0,0,1-.65,4.17l0-.1a13.88,13.88,0,0,1-12.68,8.85h0a14.29,14.29,0,0,1-3.78-.86l.1,0Zm242,3.34a12.29,12.29,0,0,1-.29-2.73,13.19,13.19,0,0,1,10.72-13h.09a12.7,12.7,0,0,1,2.62-.27A13.37,13.37,0,0,1,369,322.15l0,.09a12.34,12.34,0,0,1,.25,2.58,13.37,13.37,0,0,1-10.69,13.1h-2.76a13,13,0,0,1-12.67-10.27l0-.08ZM151.6,338.12a13.21,13.21,0,0,1-10.8-13,12.85,12.85,0,0,1,.3-2.8l0,.08a13.39,13.39,0,0,1,13.11-10.77,14.76,14.76,0,0,1,2.68.26h-.09a13.21,13.21,0,0,1,10.64,12.94,13.35,13.35,0,0,1-.3,2.84l0-.08a13.22,13.22,0,0,1-12.86,10.85Zm140.8-4.68a8.84,8.84,0,0,1,0-1.07,13.54,13.54,0,0,1,12.17-13.46h.05c.37,0,.79-.05,1.22-.05a13.21,13.21,0,0,1,13.15,12v.05c0,.36.05.8.05,1.25a13.37,13.37,0,0,1-11.86,13.28h-1.4a13.36,13.36,0,0,1-13-12v-.05Zm-37.25,14.37H255a13.36,13.36,0,0,1-13.37-13.37h0A13.36,13.36,0,0,1,255,321.08h.16a13.37,13.37,0,1,1,0,26.73Z"/>
</svg>
