<svg xmlns="http://www.w3.org/2000/svg" width="512" height="512" viewBox="0 0 512 512">
  <title>particles-alt</title>
  <path d="M256.78,215.27A41.93,41.93,0,0,1,298.51,257v.17a41.93,41.93,0,1,1-41.91-41.93ZM256,152a16.71,16.71,0,1,0,16.71,16.72A16.73,16.73,0,0,0,256,152Zm-48.22,2a15.72,15.72,0,1,0,15.72,15.72A15.73,15.73,0,0,0,207.78,154.07Zm-54.27,9.67a14.62,14.62,0,1,0,14.64,14.63A14.63,14.63,0,0,0,153.51,163.74Zm-50,15.43a13.55,13.55,0,1,0,13.55,13.55A13.57,13.57,0,0,0,103.54,179.17Zm-45.4,23.4A12.47,12.47,0,1,0,70.61,215,12.47,12.47,0,0,0,58.14,202.57Zm-25.43,42.9a11.39,11.39,0,1,0,11.38,11.38A11.38,11.38,0,0,0,32.71,245.47ZM59.1,289.14a10.3,10.3,0,1,0,10.29,10.32A10.31,10.31,0,0,0,59.1,289.14Zm45.2,24.08a9.22,9.22,0,1,0,9.19,9.22A9.21,9.21,0,0,0,104.3,313.22Zm49.76,14.42a8.13,8.13,0,1,0,8.13,8.13A8.13,8.13,0,0,0,154.06,327.64Zm57.38,12.53a7,7,0,1,0,7.05,7.05A7,7,0,0,0,211.44,340.17Zm45.14-1.26a6.51,6.51,0,1,0,6.53,6.53A6.53,6.53,0,0,0,256.58,338.91Zm31.94-169.12a15.71,15.71,0,1,0,15.69-15.72A15.71,15.71,0,0,0,288.52,169.79Zm55.33,8.58a14.63,14.63,0,1,0,14.63-14.63A14.61,14.61,0,0,0,343.85,178.37Zm51,14.35a13.55,13.55,0,1,0,13.55-13.55A13.54,13.54,0,0,0,394.9,192.72ZM441.38,215a12.48,12.48,0,1,0,12.49-12.46A12.49,12.49,0,0,0,441.38,215Zm26.52,41.82a11.38,11.38,0,1,0,11.38-11.38A11.38,11.38,0,0,0,467.9,256.85Zm-25.3,42.61a10.3,10.3,0,1,0,10.32-10.32A10.29,10.29,0,0,0,442.6,299.46Zm-44.1,23a9.21,9.21,0,1,0,9.22-9.22A9.21,9.21,0,0,0,398.5,322.44Zm-48.69,13.33a8.13,8.13,0,1,0,8.13-8.13A8.12,8.12,0,0,0,349.81,335.77Zm-53,9.67a7.06,7.06,0,1,0,7.07-7.07A7,7,0,0,0,296.82,345.44Zm46.83-141.81a16.72,16.72,0,1,0-6.48,22.72A16.72,16.72,0,0,0,343.65,203.63Zm-60-83.9A14.63,14.63,0,1,0,278,139.61,14.61,14.61,0,0,0,283.64,119.73ZM245.89,83.56A13.55,13.55,0,1,0,240.63,102,13.56,13.56,0,0,0,245.89,83.56ZM203.38,55.21a12.46,12.46,0,1,0-4.84,16.95A12.44,12.44,0,0,0,203.38,55.21Zm-49.84-1.39a11.39,11.39,0,1,0-4.43,15.48A11.39,11.39,0,0,0,153.54,53.82ZM128.17,98.09a10.3,10.3,0,1,0-4,14A10.31,10.31,0,0,0,128.17,98.09Zm.89,51.21a9.21,9.21,0,1,0-3.58,12.51A9.17,9.17,0,0,0,129.06,149.3Zm11.58,50.51a8.12,8.12,0,1,0-3.15,11.06A8.15,8.15,0,0,0,140.64,199.81Zm39.91,95.11a6.5,6.5,0,1,0-2.52,8.83A6.49,6.49,0,0,0,180.55,294.92Zm163.36-54.26a15.72,15.72,0,1,0,21.38,6.11A15.73,15.73,0,0,0,343.91,240.66Zm19.38,52.55a14.63,14.63,0,1,0,19.9,5.68A14.63,14.63,0,0,0,363.29,293.21Zm12.23,51.6A13.55,13.55,0,1,0,394,350.08,13.54,13.54,0,0,0,375.52,344.81Zm3.1,51.47a12.47,12.47,0,1,0,16.93,4.86A12.5,12.5,0,0,0,378.62,396.28Zm-23.7,43.49a11.38,11.38,0,1,0,15.48,4.42A11.38,11.38,0,0,0,354.92,439.77Zm-49.51-1.43a10.31,10.31,0,1,0,14,4A10.31,10.31,0,0,0,305.41,438.34Zm-38.75-26.73a9.22,9.22,0,1,0,12.53,3.58A9.17,9.17,0,0,0,266.66,411.61Zm-38.07-36.75A8.12,8.12,0,1,0,239.65,378,8.11,8.11,0,0,0,228.59,374.86Zm-35.36-44.53a7,7,0,1,0,9.58,2.75A7.08,7.08,0,0,0,193.23,330.33Zm-27.36-122a16.72,16.72,0,1,0,22.38-7.63A16.73,16.73,0,0,0,165.87,208.29Zm-19.4,44.19a15.72,15.72,0,1,0,21-7.18A15.69,15.69,0,0,0,146.47,252.48Zm-15.24,53a14.63,14.63,0,1,0,19.57-6.68A14.64,14.64,0,0,0,131.23,305.44Zm-8.15,51.66a13.55,13.55,0,1,0,18.14-6.18A13.56,13.56,0,0,0,123.08,357.1Zm1,51.08a12.46,12.46,0,1,0,16.68-5.7A12.42,12.42,0,0,0,124.07,408.18Zm27.3,41.72a11.38,11.38,0,1,0,15.24-5.19A11.38,11.38,0,0,0,151.37,449.9Zm50.82-4.43a10.31,10.31,0,1,0,13.79-4.7A10.31,10.31,0,0,0,202.19,445.47Zm37.94-29.87a9.21,9.21,0,1,0,12.31-4.21A9.23,9.23,0,0,0,240.13,415.6Zm38.48-38.44a8.13,8.13,0,1,0,10.86-3.71A8.12,8.12,0,0,0,278.61,377.16Zm33.45-43.77a7,7,0,1,0,9.43-3.21A7.05,7.05,0,0,0,312.06,333.39Zm21.85-43.28a6.5,6.5,0,1,0,8.72-3A6.54,6.54,0,0,0,333.91,290.11ZM228.23,141a14.64,14.64,0,1,0-6.68-19.58A14.65,14.65,0,0,0,228.23,141Zm35.4-39.48a13.55,13.55,0,1,0-6.2-18.15A13.56,13.56,0,0,0,263.63,101.56Zm40.5-31.94A12.46,12.46,0,1,0,298.45,53,12.48,12.48,0,0,0,304.13,69.62Zm49.23-5.35A11.39,11.39,0,1,0,348.16,49,11.37,11.37,0,0,0,353.36,64.27Zm27.08,41.47A10.3,10.3,0,1,0,375.74,92,10.33,10.33,0,0,0,380.44,105.74Zm1.19,49.74a9.21,9.21,0,1,0-4.2-12.34A9.25,9.25,0,0,0,381.63,155.48Zm-9.49,49.58a8.13,8.13,0,1,0-3.71-10.88A8.12,8.12,0,0,0,372.14,205.06Z" fill-rule="evenodd"/>
</svg>
