<svg xmlns="http://www.w3.org/2000/svg" width="512" height="512" viewBox="0 0 512 512">
  <title>patch</title>
  <path d="M256,312a8,8,0,0,1,0-16" fill="none" stroke="#000" stroke-linecap="butt" stroke-linejoin="miter" stroke-width="32"/>
  <path d="M256,296a8,8,0,0,1,0,16" fill="none" stroke="#000" stroke-linecap="butt" stroke-linejoin="miter" stroke-width="32"/>
  <path d="M256,216a8,8,0,0,1,0-16" fill="none" stroke="#000" stroke-linecap="butt" stroke-linejoin="miter" stroke-width="32"/>
  <path d="M256,200a8,8,0,0,1,0,16" fill="none" stroke="#000" stroke-linecap="butt" stroke-linejoin="miter" stroke-width="32"/>
  <path d="M208,264a8,8,0,0,1,0-16" fill="none" stroke="#000" stroke-linecap="butt" stroke-linejoin="miter" stroke-width="32"/>
  <path d="M208,248a8,8,0,0,1,0,16" fill="none" stroke="#000" stroke-linecap="butt" stroke-linejoin="miter" stroke-width="32"/>
  <path d="M304,264a8,8,0,0,1,0-16" fill="none" stroke="#000" stroke-linecap="butt" stroke-linejoin="miter" stroke-width="32"/>
  <path d="M304,248a8,8,0,0,1,0,16" fill="none" stroke="#000" stroke-linecap="butt" stroke-linejoin="miter" stroke-width="32"/>
  <path d="M437,312.57A88,88,0,0,1,437,437h0a88,88,0,0,1-124.45,0L75,199.43A88,88,0,0,1,75,75h0a88,88,0,0,1,124.45,0" fill="none" stroke="#000" stroke-linecap="butt" stroke-linejoin="miter" stroke-width="32"/>
  <line x1="352" y1="288" x2="288" y2="352" fill="none" stroke="#000" stroke-linecap="butt" stroke-linejoin="miter" stroke-width="32"/>
  <line x1="224" y1="160" x2="160" y2="224" fill="none" stroke="#000" stroke-linecap="butt" stroke-linejoin="miter" stroke-width="32"/>
  <path d="M257.77,129.77,312.57,75A88,88,0,0,1,437,75h0a88,88,0,0,1,0,124.45L380.45,256" fill="none" stroke="#000" stroke-linecap="butt" stroke-linejoin="miter" stroke-width="32"/>
  <line x1="199.43" y1="74.98" x2="437.02" y2="312.57" fill="none" stroke="#000" stroke-linecap="butt" stroke-linejoin="miter" stroke-width="32"/>
  <path d="M256,380.45,199.43,437A88,88,0,0,1,75,437h0a88,88,0,0,1,0-124.45L131.55,256" fill="none" stroke="#000" stroke-linecap="butt" stroke-linejoin="miter" stroke-width="32"/>
</svg>
