<svg xmlns="http://www.w3.org/2000/svg" width="512" height="512" viewBox="0 0 512 512">
  <title>paypal</title>
  <path d="M427.52,232.74c-6.9,35.46-21.28,60.54-44,76.67-20.22,14.38-47.8,21.66-82,21.66H290.65A34.4,34.4,0,0,0,256.54,360l-.85,4.62-13.8,87.56-.65,3.42-.1.56a.63.63,0,0,1-.62.54H174.87L200.8,292.23a3,3,0,0,1,3-2.65h41.25c46.76,0,85.38-10.58,114.76-31.48,28.89-20.54,49.11-51,60.3-90.9C430.73,182.35,433.14,203.87,427.52,232.74Zm14.74-92.25a87.21,87.21,0,0,0-24.82-19.23l-6-3.19c1.14-25.64-5.41-44.88-21-62.63-21-23.9-58.82-34.11-107.26-34.11H142.58a20.08,20.08,0,0,0-19.86,17L64.15,409.55a12.07,12.07,0,0,0,11.92,14H145.7l-5.58,35.35a27.55,27.55,0,0,0,27.21,31.81h73.16a34.43,34.43,0,0,0,34.09-28.82l.67-3.49,13.84-87.79.84-4.58.08-.45a.61.61,0,0,1,.62-.52h10.94c41.36,0,75.57-9.41,101.64-27.94,29.7-21.12,49.1-54.05,57.64-97.86C469.05,197.11,462.82,163.9,442.26,140.49Z"/>
</svg>
