<svg xmlns="http://www.w3.org/2000/svg" width="512" height="512" viewBox="0 0 512 512">
  <title>payu</title>
  <path d="M378.25,21.49c20.29.17,19.8-3.62,19.63,19.64-.16,19.63,3.8,19.47-19.8,19.63s-19.8-.16-19.8-19.47C358.12,18.2,356.31,21.49,378.25,21.49ZM397.39,119l0,0c11.55,0,17,5.11,15.67,16.33v66c0,12-4.45,16.49-16.5,16.49h-34v-51.4c0-.43.05-.88.05-1.31a19.65,19.65,0,0,0-13.73-18.72l2.25.42a338.9,338.9,0,0,0-37.23-6.2v66l0,.1a15.48,15.48,0,0,0,15.13,12.1,14,14,0,0,0,2.32-.18h31.52V367c0,.89,0,1.8,0,2.69,0,48-29.86,89.06-72.79,105.84l1.6-.55a232.91,232.91,0,0,1-84.28,15.68,227.4,227.4,0,0,1-28.67-1.77l-.5,0a187.21,187.21,0,0,1-71.43-18.29l-.66-.28A107.57,107.57,0,0,1,44,373.58c-1.32-66-1.32-132-1.32-198,0-23.43,9.24-32.17,33-32.17H107c25.57,0,34.65,8.91,34.65,34.48V356.07a83.63,83.63,0,0,0,1.65,16.84l0,.22a36.71,36.71,0,0,0,27.52,29.15l-.79-.19a113.15,113.15,0,0,0,32.39,4.71,110.11,110.11,0,0,0,31.59-4.52l.25,0a38.46,38.46,0,0,0,30.57-37.63c0-1.14-.05-2.26-.13-3.23V183.84c0-33.16,8.74-41.58,41.74-39.76,6.1.33,8.41-1.82,8.41-8.58,0-11.38,5.28-16.5,16.5-16.5Zm74.24-52.46a21.93,21.93,0,0,0,.5,5.44v41.74c-2.81,1.82-5.45,4.79-8.09,4.79h-39.1c-6.93.16-9.57-3.14-9.57-9.57V70.66c0-6.1,2.64-9.4,8.74-9.4H464.2c2.48,0,5,2.47,7.43,3.79v0c0,.25,0,.51,0,.77S471.65,66.32,471.63,66.54Z"/>
</svg>
