<svg xmlns="http://www.w3.org/2000/svg" width="512" height="512" viewBox="0 0 512 512">
  <title>php</title>
  <path d="M300.59,278.47c3.32-14.83,6.46-29.65,9.6-44.3a75.62,75.62,0,0,0,2.44-17.34v-.1c0-.31,0-.66,0-1a20.42,20.42,0,0,0-15.76-19.88l-.14,0a70.11,70.11,0,0,0-16.95-2c-1.47,0-2.92,0-4.35.13l.19,0H248.8c3-14.48,5.93-28.43,8.89-42.55h-27.9L204,278.26h27.9c4.54-21.28,8.89-42.56,13.43-63.83h24.94a37.23,37.23,0,0,1,8.8,1.81l-.26-.07a5.94,5.94,0,0,1,4.71,5.56v0a31.7,31.7,0,0,1,.26,4.27,32.82,32.82,0,0,1-.28,4.45l0-.17c-2.79,13.25-5.75,26.68-8.72,40.11l-1.57,7.85h28.25Zm46.57-20.76h29.47a20.59,20.59,0,0,0,15.84-8.14l0,0a31.46,31.46,0,0,0,5.76-18.25,32.17,32.17,0,0,0-.2-3.54l0,.14a11.36,11.36,0,0,0-5-8.35l0,0A19.79,19.79,0,0,0,383,216.17H355.18c-2.79,12.56-5.41,26.51-8,40.81Zm-16.22-63.83h59.42a39.27,39.27,0,0,1,23,7.41l-.13-.09A29.11,29.11,0,0,1,426,224.52v0c.07,1,.1,2.18.1,3.36a53.07,53.07,0,0,1-12.89,34.73l.05-.07a41.78,41.78,0,0,1-23.45,13l-.26,0a114.25,114.25,0,0,1-24.82,2.67c-1.15,0-2.28,0-3.44-.06H344c-1.92,10.82-3.84,21.28-5.58,31.92H308.62c7.84-39.07,15-78,22.32-116.32ZM123.23,257h30.35A20.72,20.72,0,0,0,169,248l.06-.07a30.82,30.82,0,0,0,5.77-18,30.27,30.27,0,0,0-.21-3.57l0,.14a11.37,11.37,0,0,0-5-8.36l0,0a20,20,0,0,0-10.25-3.32H131.25c-2.62,14-5.23,27.91-8,42.21Zm-3.84,21.28-5.75,31.92H85.56L107,193.88h58.77a42.09,42.09,0,0,1,17.71,3.94l-.27-.1a30.23,30.23,0,0,1,18.66,26.63v.05c.07,1,.11,2.25.11,3.47a54,54,0,0,1-13.08,35.32l.05-.07a42.05,42.05,0,0,1-23.8,13.22l-.27,0A112.71,112.71,0,0,1,140.22,279c-1.21,0-2.39,0-3.58-.05h.17c-5.58-.52-11.51-.7-17.44-.7ZM260,129.18c-1.26,0-2.74,0-4.22,0a447.54,447.54,0,0,0-74.07,6.14l2.6-.36a344.25,344.25,0,0,0-73.84,20l2.33-.82a213.15,213.15,0,0,0-52,28.31l.58-.41a107.52,107.52,0,0,0-30.59,33l-.28.49a59.9,59.9,0,0,0-1.76,58.58l-.16-.33a100.81,100.81,0,0,0,25.64,31.42l.17.14a208.36,208.36,0,0,0,58.72,33.54l1.45.47a307.55,307.55,0,0,0,45.94,13.88l2.19.42a407.2,407.2,0,0,0,63.61,9l1.27.07c8.95.63,19.39,1,29.91,1s21-.35,31.3-1.07l-1.39.07a458.62,458.62,0,0,0,55.2-7.27l-2.88.47a343.47,343.47,0,0,0,68-20.54l-2.26.83a212.89,212.89,0,0,0,43.39-23.64l-.67.45a113.29,113.29,0,0,0,32-32.68l.26-.46a61.47,61.47,0,0,0,10.11-31.61v-.63A63,63,0,0,0,480.24,213l.16.24a113,113,0,0,0-30.15-31.32l-.37-.24a223.4,223.4,0,0,0-57.54-29.86l-1.58-.49A358.19,358.19,0,0,0,312.17,134l-1.64-.14a400.64,400.64,0,0,0-49.87-4.69l-.7,0ZM256.3,107.9a482.26,482.26,0,0,1,52,2.81l-2.11-.19a399.51,399.51,0,0,1,82.35,16.83l-2.82-.78a268.88,268.88,0,0,1,73,34.44l-.95-.61A143.58,143.58,0,0,1,497,198.82l.32.47a84.14,84.14,0,0,1,14.26,39.05l0,.36c.24,2.36.38,5.08.38,7.83a81,81,0,0,1-10.88,40.69l.21-.4a125,125,0,0,1-29.09,34.7l-.21.18a221.29,221.29,0,0,1-60,35.4l-1.52.52a325.56,325.56,0,0,1-48.7,15.74l-2.39.48c-14,3.14-27.91,5.76-42,7.5a447.74,447.74,0,0,1-60.46,4q-5.66,0-11.25-.14l.56,0a454.74,454.74,0,0,1-53.26-4.1l2.34.26a392.16,392.16,0,0,1-83.66-19.86l2.74.86a264.58,264.58,0,0,1-53.46-25.26l1.14.66a159.72,159.72,0,0,1-42.31-37l-.25-.32a89.43,89.43,0,0,1-18.59-42l-.07-.51A76.06,76.06,0,0,1,0,246.59a79,79,0,0,1,6.05-30.4l-.19.52a111,111,0,0,1,28.5-40.2l.1-.08A202.18,202.18,0,0,1,86.9,142.07l1.28-.52a324.87,324.87,0,0,1,74.22-24.4l2.16-.37a376.68,376.68,0,0,1,51-7.24l1.36-.08,39.42-2.79Z"/>
</svg>
