<svg xmlns="http://www.w3.org/2000/svg" width="512" height="512" viewBox="0 0 512 512">
  <title>ping-download</title>
  <path d="M440.37,21.33l-402.28,0a16.74,16.74,0,1,0,0,33.48H440.37a16.76,16.76,0,0,1,16.77,16.76V440.36a16.76,16.76,0,0,1-16.77,16.77H71.63a16.77,16.77,0,0,1-16.77-16.77V232a16.77,16.77,0,0,1,16.77-16.77l179.07.6-85.33,85.33a17.22,17.22,0,0,0-3.69,5.55,17,17,0,0,0,0,13,17.22,17.22,0,0,0,3.69,5.55l85.33,85.33a17.06,17.06,0,1,0,24.13-24.12l-56.19-56.22h172.8a17.06,17.06,0,0,0,0-34.11H218.64L304,210.84a17,17,0,0,0,0-24.13l-85.31-85.33a17.06,17.06,0,0,0-24.13,24.12l56.19,56.22H71.63A50.29,50.29,0,0,0,21.32,232V440.36a50.3,50.3,0,0,0,50.31,50.28H440.37a50.27,50.27,0,0,0,50.29-50.28V71.62a50.28,50.28,0,0,0-50.29-50.29" fill-rule="evenodd"/>
</svg>
