<svg xmlns="http://www.w3.org/2000/svg" width="512" height="512" viewBox="0 0 512 512">
  <title>plug</title>
  <path d="M376,80H268a60,60,0,0,0-60,60v96a60,60,0,0,0,60,60H376" fill="none" stroke="#000" stroke-linecap="butt" stroke-linejoin="miter" stroke-width="32"/>
  <path d="M32,272V376a48,48,0,0,0,48,48h0a48,48,0,0,0,48-48V240a48,48,0,0,1,48-48h32" fill="none" stroke="#000" stroke-linecap="butt" stroke-linejoin="miter" stroke-width="32"/>
  <line x1="376" y1="128" x2="480" y2="128" fill="none" stroke="#000" stroke-linecap="butt" stroke-linejoin="miter" stroke-width="32"/>
  <line x1="376" y1="256" x2="480" y2="256" fill="none" stroke="#000" stroke-linecap="butt" stroke-linejoin="miter" stroke-width="32"/>
  <line x1="376" y1="296" x2="376" y2="80" fill="none" stroke="#000" stroke-linecap="butt" stroke-linejoin="miter" stroke-width="32"/>
</svg>
