<svg xmlns="http://www.w3.org/2000/svg" width="512" height="512" viewBox="0 0 512 512">
  <title>plugin</title>
  <path d="M155.42,256v33.53a50.29,50.29,0,0,0,50.29,50.29H306.27a50.29,50.29,0,0,0,50.29-50.29V256a100.37,100.37,0,0,0-29.46-71.12,16.76,16.76,0,0,0-23.72,23.69A66.85,66.85,0,0,1,323,256v33.53a16.76,16.76,0,0,1-16.76,16.76H205.71a16.76,16.76,0,0,1-16.77-16.76V256A67.05,67.05,0,0,1,256,189a16.76,16.76,0,0,0,16.76-16.77V138.68a50.28,50.28,0,0,0-50.29-50.29H71.62a50.29,50.29,0,0,0-50.29,50.29v301.7a50.3,50.3,0,0,0,50.29,50.29H440.37a50.3,50.3,0,0,0,50.3-50.29V71.62a50.3,50.3,0,0,0-50.3-50.29l-402.27,0a16.75,16.75,0,1,0,0,33.49H440.37A16.76,16.76,0,0,1,457.14,71.6V440.35a16.76,16.76,0,0,1-16.77,16.77H71.62a16.76,16.76,0,0,1-16.76-16.77V138.66a16.76,16.76,0,0,1,16.76-16.77H222.47a16.77,16.77,0,0,1,16.77,16.77l0,18.14A100.61,100.61,0,0,0,155.44,256ZM306.27,407.77V372.51a15.88,15.88,0,0,0-15.89-15.89h-1.73a15.88,15.88,0,0,0-15.89,15.89v35.26a15.88,15.88,0,0,0,15.89,15.89h1.73A15.88,15.88,0,0,0,306.27,407.77Zm-82.94,15.89h-1.74a15.88,15.88,0,0,1-15.88-15.89V372.51a15.88,15.88,0,0,1,15.88-15.89h1.74a15.88,15.88,0,0,1,15.88,15.89v35.26A15.88,15.88,0,0,1,223.33,423.66Z"/>
</svg>
