<svg xmlns="http://www.w3.org/2000/svg" width="512" height="512" viewBox="0 0 512 512">
  <title>plugin-tag</title>
  <path d="M353.71,208.53a18.29,18.29,0,1,0-18.29,18.29A18.3,18.3,0,0,0,353.71,208.53ZM150.35,303.94,278.43,175.86a12.43,12.43,0,0,1,8.84-3.68h73.54a12.51,12.51,0,0,1,12.49,12.49v73.55a12.38,12.38,0,0,1-3.67,8.83L241.55,395.14a12.53,12.53,0,0,1-17.67,0l-73.55-73.55a12.53,12.53,0,0,1,0-17.68Zm-37.18,8.83a45.69,45.69,0,0,0,13.49,32.55l73.55,73.55a46.05,46.05,0,0,0,65.09,0L393.38,290.79a45.76,45.76,0,0,0,13.49-32.55V184.69a46.06,46.06,0,0,0-46-46H287.31a45.81,45.81,0,0,0-32.55,13.46L126.68,280.22a45.8,45.8,0,0,0-13.49,32.55ZM440.38,21.33l-402.29,0a16.76,16.76,0,1,0,0,33.51H440.38a16.77,16.77,0,0,1,16.76,16.76V440.38a16.77,16.77,0,0,1-16.76,16.76H71.62a16.76,16.76,0,0,1-16.76-16.76V138.66A16.76,16.76,0,0,1,71.62,121.9H222.47a16.76,16.76,0,0,0,0-33.51H71.62a50.3,50.3,0,0,0-50.29,50.29v301.7a50.3,50.3,0,0,0,50.29,50.29H440.38a50.3,50.3,0,0,0,50.29-50.29V71.62A50.3,50.3,0,0,0,440.38,21.33Z"/>
</svg>
