<svg xmlns="http://www.w3.org/2000/svg" width="512" height="512" viewBox="0 0 512 512">
  <title>power-plug</title>
  <path d="M303,53.4V64a32,32,0,0,1-32,32H241a32,32,0,0,1-32-32V53.4C116.77,74.71,48,157.3,48,256s68.77,181.29,161,202.6V448a32,32,0,0,1,32-32h30a32,32,0,0,1,32,32v10.6C395.23,437.29,464,354.7,464,256S395.23,74.71,303,53.4Z" fill="none" stroke="#000" stroke-linecap="butt" stroke-linejoin="miter" stroke-width="32"/>
  <path d="M192,272a16,16,0,0,1,0-32" fill="none" stroke="#000" stroke-linecap="butt" stroke-linejoin="miter" stroke-width="32"/>
  <path d="M192,240a16,16,0,0,1,0,32" fill="none" stroke="#000" stroke-linecap="butt" stroke-linejoin="miter" stroke-width="32"/>
  <line x1="192" y1="240" x2="192" y2="272" fill="none" stroke="#000" stroke-linecap="butt" stroke-linejoin="miter" stroke-width="32"/>
  <line x1="176" y1="256" x2="208" y2="256" fill="none" stroke="#000" stroke-linecap="butt" stroke-linejoin="miter" stroke-width="32"/>
  <path d="M320,272a16,16,0,0,1,0-32" fill="none" stroke="#000" stroke-linecap="butt" stroke-linejoin="miter" stroke-width="32"/>
  <path d="M320,240a16,16,0,0,1,0,32" fill="none" stroke="#000" stroke-linecap="butt" stroke-linejoin="miter" stroke-width="32"/>
  <line x1="320" y1="240" x2="320" y2="272" fill="none" stroke="#000" stroke-linecap="butt" stroke-linejoin="miter" stroke-width="32"/>
  <line x1="304" y1="256" x2="336" y2="256" fill="none" stroke="#000" stroke-linecap="butt" stroke-linejoin="miter" stroke-width="32"/>
</svg>
