<svg xmlns="http://www.w3.org/2000/svg" width="512" height="512" viewBox="0 0 512 512">
  <title>presslabs</title>
  <path d="M392.37,459a61.14,61.14,0,0,0,28-81.76l.17.36L358.35,243.57A201.6,201.6,0,0,1,340,159c0-1,0-2,0-3V60.48a39.15,39.15,0,0,0-39.15-39.15H191a17,17,0,0,0-1,33.44l.11,0H300a5.31,5.31,0,0,1,5.3,5.3h0v97.64a238.18,238.18,0,0,0,22.57,101.55l-.62-1.46,62.19,134.26A27.18,27.18,0,0,1,392,403.73a27.61,27.61,0,0,1-15.58,24.86l-.17.07c-35.06,18-76.47,28.5-120.34,28.53H253.7a260,260,0,0,1-119.79-29l1.47.67a27.61,27.61,0,0,1-13.1-36.74l-.07.16,24-49.57a5.51,5.51,0,0,1,4.55-2.92H274.21a17,17,0,0,0,.07-33.84H149.83A39.29,39.29,0,0,0,115,327.27l-.11.22L91.3,377.43a60.39,60.39,0,0,0-5.89,26.21,61.28,61.28,0,0,0,33.52,54.65l.35.17c38.93,20.3,85,32.21,133.86,32.21,1,0,2,0,2.92,0h.41a300.86,300.86,0,0,0,137.42-33l-1.7.79ZM272.74,239.55h0a17,17,0,0,0-16.81-17H174a17,17,0,1,0,0,34h81.95a17,17,0,0,0,16.64-17h.18Zm-16.82-66.4H190.07a17,17,0,0,1-.07-33.84h65.92a17,17,0,0,1,.07,33.84Z"/>
</svg>
