<svg xmlns="http://www.w3.org/2000/svg" width="512" height="512" viewBox="0 0 512 512">
  <title>process</title>
  <rect x="208" y="48" width="96" height="96" rx="2" ry="2" fill="none" stroke="#000" stroke-linecap="butt" stroke-linejoin="miter" stroke-width="32"/>
  <rect x="208" y="208" width="96" height="96" rx="2" ry="2" fill="none" stroke="#000" stroke-linecap="butt" stroke-linejoin="miter" stroke-width="32"/>
  <rect x="208" y="368" width="96" height="96" rx="2" ry="2" fill="none" stroke="#000" stroke-linecap="butt" stroke-linejoin="miter" stroke-width="32"/>
  <path d="M144,416H88a40,40,0,0,1-40-40V136A40,40,0,0,1,88,96h56" fill="none" stroke="#000" stroke-linecap="butt" stroke-linejoin="miter" stroke-width="32"/>
  <polyline points="104 56 144 96 104 136" fill="none" stroke="#000" stroke-linecap="butt" stroke-linejoin="miter" stroke-width="32"/>
  <path d="M352,96h56a40,40,0,0,1,40,40V376a40,40,0,0,1-40,40H352" fill="none" stroke="#000" stroke-linecap="butt" stroke-linejoin="miter" stroke-width="32"/>
  <polyline points="392 456 352 416 392 376" fill="none" stroke="#000" stroke-linecap="butt" stroke-linejoin="miter" stroke-width="32"/>
</svg>
