<svg xmlns="http://www.w3.org/2000/svg" width="512" height="512" viewBox="0 0 512 512">
  <title>prometheus</title>
  <path d="M256,20C125.66,20,20,125.66,20,256S125.66,492,256,492,492,386.34,492,256,386.34,20,256,20Zm0,441.7c-37.08,0-67.15-24.78-67.15-55.32h134.3C323.15,436.92,293.09,461.7,256,461.7Zm110.91-73.64H145.08V347.83H366.91v40.23Zm-.79-60.93H145.71c-.73-.85-1.48-1.68-2.19-2.54-22.7-27.57-28.05-42-33.24-56.63-.09-.48,27.53,5.64,47.12,10.05,0,0,10.08,2.33,24.81,5-14.15-16.59-22.55-37.67-22.55-59.22,0-47.31,36.29-88.65,23.2-122.06,12.74,1,26.36,26.89,27.28,67.31,13.55-18.72,19.22-52.9,19.22-73.86,0-21.69,14.29-46.9,28.6-47.76-12.75,21,3.3,39,17.57,83.71,5.35,16.78,4.67,45,8.8,62.94,1.37-37.21,7.76-91.49,31.37-110.23-10.42,23.6,1.54,53.13,9.71,67.33,13.19,22.91,21.19,40.26,21.19,73.08a91.34,91.34,0,0,1-21.83,58.93c15.58-2.93,26.34-5.56,26.34-5.56l50.61-9.88S394.37,298,366.12,327.13Z"/>
</svg>
