<svg xmlns="http://www.w3.org/2000/svg" width="512" height="512" viewBox="0 0 512 512">
  <title>puzzle</title>
  <path d="M360.46,68.2a64,64,0,0,0-24.17,35.37c-3.12,11.84-18,15.69-26.68,7L262.39,63.38a16,16,0,0,0-22.63,0L192.54,110.6c-8.66,8.66-23.55,4.81-26.67-7A64.06,64.06,0,0,0,141.69,68.2c-22.87-16.89-55.31-16.15-77.5,1.62A64,64,0,0,0,87.85,181.88c11.75,3.05,15.37,18.05,6.78,26.63l-47.2,47.21a16,16,0,0,0,0,22.62L239.76,470.68a16,16,0,0,0,22.63,0L304,429.11c8.66-8.66,4.8-23.56-7-26.67a64.06,64.06,0,0,1-35.37-24.18c-16.89-22.87-16.14-55.31,1.62-77.5a64,64,0,0,1,112.06,23.66c3,11.75,18,15.37,26.63,6.78l52.86-52.86a16,16,0,0,0,0-22.62l-47.2-47.21c-8.58-8.58-5-23.58,6.79-26.63A64,64,0,0,0,438,69.82C415.78,52.05,383.34,51.31,360.46,68.2Z" fill="none" stroke="#000" stroke-linecap="butt" stroke-linejoin="miter" stroke-width="32"/>
</svg>
