<svg xmlns="http://www.w3.org/2000/svg" width="512" height="512" viewBox="0 0 512 512">
  <title>puzzle-alt</title>
  <path d="M437.79,55.6a63.76,63.76,0,0,0-69.45-1.8,66.07,66.07,0,0,0-29,36.18c-4.21,13-21.13,16.4-30.78,6.74L267.31,55.45a16,16,0,0,0-22.62,0L191.34,108.8c-5.66,5.66-2,15,5.91,15.93,19.13,2.14,37.48,12.69,49.08,31.73a63.76,63.76,0,0,1-1.79,69.46,65.52,65.52,0,0,1-119.87-29.19c-.8-7.72-10.39-10.88-15.87-5.39L55.45,244.69a16,16,0,0,0,0,22.62l41.27,41.28c9.66,9.65,6.25,26.57-6.74,30.78a66,66,0,0,0-36.18,29,63.76,63.76,0,0,0,1.8,69.45A65.56,65.56,0,0,0,172.32,423c4.54-13.33,21.13-17.64,31.08-7.68l41.29,41.28a16,16,0,0,0,22.62,0l53.35-53.35c5.66-5.66,2-15-5.91-15.93-19.13-2.14-37.48-12.69-49.08-31.73a63.76,63.76,0,0,1,1.79-69.46,65.52,65.52,0,0,1,119.87,29.19c.8,7.72,10.39,10.88,15.87,5.39l53.35-53.35a16,16,0,0,0,0-22.62L415.27,203.4c-10-10-5.65-26.54,7.67-31.08A65.56,65.56,0,0,0,437.79,55.6Z" fill="none" stroke="#000" stroke-linecap="butt" stroke-linejoin="miter" stroke-width="32"/>
</svg>
