<svg xmlns="http://www.w3.org/2000/svg" width="512" height="512" viewBox="0 0 512 512">
  <title>pyolite</title>
  <path d="M246.74,206.1h14.71A17.53,17.53,0,0,0,279,188.59V127a25,25,0,1,0-50.09,0v61.64a17.52,17.52,0,0,0,17.51,17.51h.35Zm14.71,100H246.74a17.52,17.52,0,0,0-17.51,17.51v61.29a25,25,0,1,0,50.09,0V323.6a17.53,17.53,0,0,0-17.52-17.51h-.35ZM383.16,231H125a25,25,0,1,0,0,50.08H383.16a25,25,0,0,0,0-50.08ZM411.7,375.61a14,14,0,0,1,0-28c19.27,0,28-9.8,39.41-43.77a162.35,162.35,0,0,0,7.58-49.56,165.16,165.16,0,0,0-7.92-50.73l.34,1.17c-9.29-37.83-25.05-42.91-39.06-42.91H337.1a14,14,0,1,1,0-28h74.6c33.45,0,55.69,21.54,66.2,64.09a191.07,191.07,0,0,1,8.65,57.44,195.36,195.36,0,0,1-9,58.82l.37-1.38C467.57,343.57,453.21,375.61,411.7,375.61ZM254.1,490.67a196.47,196.47,0,0,1-57.77-8.95l1.38.37C158,470.53,135,446,135,415.19a14,14,0,0,1,28,0c0,24,26.79,35,42.55,40.1a158.53,158.53,0,0,0,48.68,7.5A161.45,161.45,0,0,0,304.09,455l-1.13.31c28.37-8.23,42.55-21.71,42.55-40.1V340.06a14,14,0,0,1,28,0v75.13c0,31.52-22.24,55.34-62.69,66.9a194.45,194.45,0,0,1-56.69,8.58ZM149,183.51a14,14,0,0,1-14-14V94.37c0-35,10.68-59.19,64.27-68.64a303.8,303.8,0,0,1,52.18-4.38h.37c1.19,0,2.61,0,4,0A325.54,325.54,0,0,1,311,26l-1.93-.28A72.79,72.79,0,0,1,373.37,94.2v.17a14,14,0,0,1-28,0,45.2,45.2,0,0,0-40.8-41h-.18a295,295,0,0,0-49.47-4c-1.08,0-2.15,0-3.22,0h-.87a278.14,278.14,0,0,0-48.62,4.27l1.67-.24c-39.23,7-41.16,18.73-41.16,41V169.5a14,14,0,0,1-13.64,14h0Zm21.36,192.1H99.12c-35,0-59.72-23.29-70.05-64.09a207.45,207.45,0,0,1-7.74-56.83,212.87,212.87,0,0,1,8.11-58.31l-.37,1.49a80.35,80.35,0,0,1,78.65-64.46c.42,0,.85,0,1.27,0h-.06a14,14,0,1,1,0,28H108a52.54,52.54,0,0,0-51.56,42.4l0,.33a181.08,181.08,0,0,0-7,50.26A185.14,185.14,0,0,0,56.72,306l-.33-1.31c6.83,28.19,21.19,42.55,42.38,42.55H170a14,14,0,1,1,0,28Z"/>
</svg>
