<svg xmlns="http://www.w3.org/2000/svg" width="512" height="512" viewBox="0 0 512 512">
  <title>python</title>
  <path d="M477,197.76h0c11.19,45,11.69,78.73,0,113.81-11.32,34.07-23.44,56.76-56,56.76H253.19v14.23H365v42.67c0,32.3-27.79,48.74-56,56.9-42.39,12.3-76.39,10.42-111.84,0-29.6-8.7-56-26.55-56-56.9V318.61c0-30.69,25.34-56.9,56-56.9H309c37.25,0,69.95-32.43,69.95-71V141h42C453.59,141,469,165.36,477,197.76ZM190.13,98.32a21.35,21.35,0,1,1,21-21.28A21.15,21.15,0,0,1,190.13,98.32Zm7.05,149.3H309c31.13,0,56-25.64,56-56.9V84.1c0-30.35-25.6-53.14-56-58.2a348.18,348.18,0,0,0-58.33-4.56,319.57,319.57,0,0,0-53.51,4.56c-47.38,8.38-56,25.89-56,58.2v42.67h112V141h-154c-32.54,0-61,19.57-69.95,56.77-10.27,42.65-10.74,69.28,0,113.81,8,33.16,27,56.76,59.51,56.76h38.5V317.17c0-36.95,32-69.55,69.95-69.55Z"/>
</svg>
