<svg xmlns="http://www.w3.org/2000/svg" width="512" height="512" viewBox="0 0 512 512">
  <title>react</title>
  <path d="M256,293.94a42.05,42.05,0,1,1,42.05-42.05A42.05,42.05,0,0,1,256,293.94Zm133.74,15.67A461.73,461.73,0,0,0,366.6,249l1.21,2.88a433.77,433.77,0,0,0,21-54.71l.89-3.34c47.66,15,77.34,37.27,77.34,58s-29.68,43-77.34,58.05Zm-28.2,124.84c-15.67,9.07-42.38,0-73.38-24.41-5.12-4.12-10.39-8.74-15.51-13.52A494.79,494.79,0,0,0,310.91,350l1-1.43A465.3,465.3,0,0,0,376.4,338l-3.15.62c1.48,6.93,2.8,13.53,3.79,20.12,5.77,39.42.17,67-15.5,76ZM231.1,350.84h49.8c-8.08,10.39-16.49,20.12-24.9,29A348,348,0,0,1,231.1,350.84Zm-7.26,59.53c-31,24.57-57.72,33-73.38,24.41s-21.28-36.61-15.51-75.7c1-6.59,2.31-13.19,3.8-20.12a431.33,431.33,0,0,0,59.46,9.75l1.88.15a495.69,495.69,0,0,0,39.68,48.27l-.26-.28C234.23,401.63,229,406.25,223.84,410.37ZM122.26,309.94c-47.66-15-77.35-37.27-77.35-58.05s29.69-43,77.35-58a459.9,459.9,0,0,0,23.13,60.95l-1.2-2.9a431.83,431.83,0,0,0-21,54.72ZM150.46,69a27.24,27.24,0,0,1,13.39-3.47h.62a107.07,107.07,0,0,1,59.44,27.92l-.07,0c5.11,4.13,10.39,8.74,15.5,13.53a493.38,493.38,0,0,0-38.26,46.55l-1,1.43a465.37,465.37,0,0,0-64.49,10.53l3.15-.63c-1.49-6.93-2.81-13.52-3.8-20.12C129.18,105.62,134.79,78.08,150.46,69ZM280.9,153H231.1c8.08-10.39,16.49-20.12,24.9-29A349.87,349.87,0,0,1,280.9,153Zm74,70.91q-5.6-10.89-11.87-21.77c-4.29-7.26-8.57-14.35-13-21.44,13.36,2,26.06,4.29,37.77,7.09Q361.71,205.56,354.94,223.86Zm-12.53,77.5q6.27-10.87,11.87-21.76,7.43,18.3,12.87,36.11c-11.71,2.81-24.41,5.11-37.77,7.09A244.56,244.56,0,0,0,342.41,301.36ZM169.92,251.89c5.93-12.69,12.69-25.39,20.11-38.09s15-24.9,22.93-36.45c13.68-1.15,28-1.65,43-1.65s29.35,0,43,1.65C307,188.9,314.71,201.1,322,213.8s14.19,25.4,20.12,38.09c-5.93,12.7-12.7,25.4-20.12,38.1s-15,24.9-22.92,36.44c-13.69,1.16-28,1.65-43,1.65s-29.36,0-43-1.65C205,314.89,196.47,302.68,190,290S175.85,264.59,169.92,251.89Zm-25.73-64.15c11.71-2.8,24.41-5.11,37.76-7.09-4.45,7.09-8.74,14.18-13,21.44s-8.08,14.51-11.88,21.77q-6.77-18.31-12.2-36.12Zm12.86,92.19q5.77,10.88,11.88,21.77c4.28,7.25,8.57,14.34,13,21.43-13.35-2-26-4.29-37.76-7.09Q150.29,298.24,157.05,279.93ZM289,93.41a106.54,106.54,0,0,1,58.82-27.8l.55-.07H349a27.36,27.36,0,0,1,13.52,3.55l-.14-.07c16.5,9.07,21.28,36.61,15.51,75.7-1,6.59-2.31,13.19-3.8,20.12a431.33,431.33,0,0,0-59.46-9.75l-1.88-.15a495,495,0,0,0-40.42-48.18l.18.19A163.35,163.35,0,0,1,289,93.43ZM490.66,251.89c0-34.13-36.61-63.16-94.82-81q2.64-11.7,4.45-22.76c7.42-49.47-2.14-85.09-27-98.94S313.06,44.27,274.3,75.6c-5.93,4.62-11.71,9.9-17.64,15.34C250.72,85.5,245,80.22,239,75.6c-39.41-31.33-74.87-40.73-98.94-26.38s-34.47,49.47-27,98.94q1.82,11.06,4.45,22.76c-59.36,17.81-96.14,46.84-96.14,81s36.78,63.16,94.82,81q-2.62,11.55-4.45,22.76c-7.42,49.47,2.15,85.09,27.05,98.95a48.92,48.92,0,0,0,24.69,6.59h.7a126.69,126.69,0,0,0,74.29-33.06l-.08.08c5.94-4.62,11.71-9.89,17.65-15.34,5.94,5.45,11.71,10.72,17.64,15.34a126.43,126.43,0,0,0,73.7,32.95l.51,0h.71a49.17,49.17,0,0,0,24.92-6.73l-.23.14c24.9-14.35,34.46-49.48,27-98.95q-1.82-11-4.45-22.76C453.89,315.05,490.66,286,490.66,251.89Z"/>
</svg>
