<svg xmlns="http://www.w3.org/2000/svg" width="512" height="512" viewBox="0 0 512 512">
  <title>redis</title>
  <path d="M491,221.68v65.63A5,5,0,0,1,488,291.4L258.38,382.93h-3.61L25.07,291.38a4.42,4.42,0,0,1-2.76-4.09V221.71c0-.33,1.42-.22,2.47.29l229.66,91.38s3.18.08,3.44,0L487.55,222S490.78,220.92,491,221.68ZM21.33,182.75V117.12a5,5,0,0,1,3-4.25L254,21.33h3.44l229.66,91.54,0,0c3.41,1.64,3.41,4.24,3.41,4.24l-.33,65.64a5.42,5.42,0,0,1-2.95,4.25L257.56,278.39H254L24.25,187A5.43,5.43,0,0,1,21.33,182.75ZM289.69,151c.05-.12-108.25,11.3-108.25,11.3l84.48,33.63C266,196,289.69,151,289.69,151Zm72.2-57.6s-58,23.8-57.91,24l65.62,27.07s58-24.64,57.91-24.77ZM221,68.58l-43.81,8.36L228,82.7l11.48,20.18,20.84-18.7,50.85,3.61L275.44,72.37S294,54.75,293.81,54.82l-44,8.52L211.62,49.88ZM85.31,120.33c0,12.2,23.5,22.08,52.49,22.08s52.5-9.88,52.5-22.08-23.5-22.08-52.5-22.08S85.31,108.14,85.31,120.33ZM487.55,329.74,257.88,421.11c-.26.08-3.44,0-3.44,0L24.78,329.74c-1.05-.51-2.51-.62-2.47-.3V395a4.41,4.41,0,0,0,2.76,4.08l229.7,91.56h3.61L488,399.13A4.93,4.93,0,0,0,491,395V329.41C490.78,328.65,487.55,329.74,487.55,329.74Z"/>
</svg>
