<svg xmlns="http://www.w3.org/2000/svg" width="512" height="512" viewBox="0 0 512 512">
  <title>redux</title>
  <path d="M387.92,228a214.87,214.87,0,0,0-111.45-30.75q-8.36,0-16.57.62l.73-.05a33,33,0,1,0-1.9,29.35l.09-.15a19.25,19.25,0,0,0,.93-2.14l.05-.16c5.48-.56,11.84-.89,18.27-.89a186.94,186.94,0,0,1,98,27.57l-.82-.47c72.38,41.88,108.16,115.42,79.8,164.89-24.07,41.55-86.24,52.27-148.4,29.51a296.72,296.72,0,0,1-23.69,18l-1,.68c79,35.12,163.57,21.6,196.05-34.79,35.12-61-4.95-151.37-90.19-200.51ZM331,294a33,33,0,0,0-12.12,45.66l-.09-.15c.55.64,1.09,1.34,1.6,2.06l.05.09a189.48,189.48,0,0,1-79.34,86.23l-1,.49C167.8,469.56,85.85,463.45,58,414.15c-23.41-40.56-3.13-97.94,45.18-140.31a247.65,247.65,0,0,1-4.22-29.68l-.06-1c-67.77,51-96.46,128.94-64.48,185.16,35.79,62,134.06,72.39,219.14,23.25a219,219,0,0,0,89.14-93.87l.56-1.26a34.36,34.36,0,0,0,4.6.32,33,33,0,0,0,28.29-49.94l.08.15a33,33,0,0,0-29-17.27,32.63,32.63,0,0,0-16.34,4.34L331,294ZM220.89,366.34a33,33,0,1,1-59.46-20.53l-.06.08a214.83,214.83,0,0,1-37.46-121.77c0-1.18,0-2.37,0-3.56v.18c0-98.1,58.2-178.07,129.76-178.07,66,0,119.38,66,128.29,152.84a258.8,258.8,0,0,0-26.39-10.93l-2-.61C342.41,118,302,68.55,253.7,68.55c-56.88,0-103,68.1-103,151.53,0,1.24-.05,2.68-.05,4.13a187,187,0,0,0,34.89,109l-.38-.58h2.8a33,33,0,0,1,33,33v.68Z"/>
</svg>
