<svg xmlns="http://www.w3.org/2000/svg" width="512" height="512" viewBox="0 0 512 512">
  <title>route-fiftythree</title>
  <path d="M439.46,223.16l-22.78-3V156l22.78,8.25ZM337,169.68l-46.71,7.93v51.16l23.44,1.65L337,229.1V432.75l-74.93,38V41.62L337,79.08ZM233.66,197.91,107.24,181.4V119.35l126.42,29.71Zm212.89-53.15-22.77-8.25a20,20,0,0,0-6.7-1.15h-3.86l-55.62,9.57V78.88A20.61,20.61,0,0,0,346.33,60.5l-.12,0-74.93-37a22.6,22.6,0,0,0-9.22-2.15h0a22.25,22.25,0,0,0-9.37,2.2l.13-.07L177.71,61.09a20.67,20.67,0,0,0-11.39,18.45V112.6L111.86,99.23a20.59,20.59,0,0,0-2.31-.13,24,24,0,0,0-2.41.13l.1,0a22.41,22.41,0,0,0-9.38,2.2l.14,0L75.39,112.75a20.7,20.7,0,0,0-11.39,18v57.12a20.77,20.77,0,0,0,18.22,20.61l.1,0,84,9.41V432.46a20.62,20.62,0,0,0,11.27,18.38l.12.05,75.09,37.63a22.21,22.21,0,0,0,9.23,2.15h0a22.74,22.74,0,0,0,9.38-2.22l-.14.07,74.93-37.63a20.66,20.66,0,0,0,11.39-18.45V248.71l82.52-4.46a20.81,20.81,0,0,0,20-20.78v-.36h0V163.71a20.79,20.79,0,0,0-13.39-18.93l-.15-.05Z"/>
</svg>
