<svg xmlns="http://www.w3.org/2000/svg" width="512" height="512" viewBox="0 0 512 512">
  <title>seal-remove</title>
  <polygon points="387.77 124.23 449.66 144.19 436 207.77 479.62 256 436 304.23 449.66 367.81 387.77 387.77 367.81 449.66 304.23 436 256 479.62 207.77 436 144.19 449.66 124.23 387.77 62.34 367.81 76 304.23 32.38 256 76 207.77 62.34 144.19 124.23 124.23 144.19 62.34 207.77 76 256 32.38 304.23 76 367.81 62.34 387.77 124.23" fill="none" stroke="#000" stroke-linecap="butt" stroke-linejoin="miter" stroke-width="32"/>
  <line x1="168" y1="168" x2="344" y2="344" fill="none" stroke="#000" stroke-linecap="butt" stroke-linejoin="miter" stroke-width="32"/>
  <line x1="344" y1="168" x2="168" y2="344" fill="none" stroke="#000" stroke-linecap="butt" stroke-linejoin="miter" stroke-width="32"/>
</svg>
