<svg xmlns="http://www.w3.org/2000/svg" width="512" height="512" viewBox="0 0 512 512">
  <title>sentry</title>
  <path d="M314.84,421C304.3,309.9,246.3,230.32,154.53,170c22.57-37.4,42-74.31,65.9-108.09,20.43-29.16,59-24.22,78.93,8.08s39.21,66.89,58.32,100.5c26.2,46.46,52.06,93.25,78.26,139.55,14.66,26,30.81,51.57,44.16,78.26a89.42,89.42,0,0,1,10.54,41.29v.05a42.67,42.67,0,0,1-41.8,42.51h0c-12.19,1.32-24.71,1-36.9,1.15a119.08,119.08,0,0,1-13.19-1.23l.66.08V422.74c5.61,0,10.71-1,16.48-1.15,21.91,0,25.87-6.59,15.32-25.21-16.47-29-33-57.83-49.43-87Q326.05,214,272.5,118.26c-12.19-21.08-19.28-20.92-31.14,0l-18.29,32a11.27,11.27,0,0,1-1,4.78c94.24,83.37,149.28,185.35,140.71,317.16H232.63c.66-6.56,1-14.17,1-21.88a233.45,233.45,0,0,0-35.71-124.43l.58,1C186.33,307.39,171,290.92,156,271.64c-3.79,5.11-4.94,7.09-6.42,8.9-13,15.48-12.69,27.18,2.47,44A187.24,187.24,0,0,1,198,447.7a190.44,190.44,0,0,1-1.7,25.43l.11-1a101.53,101.53,0,0,1-13.56,1.64H78.59c-53.22.83-69.69-46.13-47.95-82.54,8.08-13.35,16.48-27.19,24.72-42.68l37.89,29c-4.94,8.73-9.06,15.65-12.85,22.9-6.59,13.18-2.8,20.76,11.7,21.26h54.7A148.87,148.87,0,0,0,73.4,318.32l-.74-.38c22.08-38.23,43.5-75.79,65.9-114.18,78.13,44.72,132.17,123.82,141.6,216.12l.1,1.2h17.63a131.92,131.92,0,0,0,17.3-.82Z"/>
</svg>
