<svg xmlns="http://www.w3.org/2000/svg" width="512" height="512" viewBox="0 0 512 512">
  <title>settings-upload</title>
  <path d="M183,305.2a88,88,0,0,1,121.4-122.69" fill="none" stroke="#000" stroke-linecap="butt" stroke-linejoin="miter" stroke-width="32"/>
  <path d="M403.84,183.77l-2.41-5.83s27.22-43.61,27.22-50.13c0-3.61-4.8-9.44-19.92-24.54S387.8,83.33,384.17,83.33c-6.48,0-50.14,27.24-50.14,27.24L303.66,98s-11.6-50.1-16.2-54.7C284.89,40.71,277.37,40,256,40s-28.88.71-31.45,3.28c-4.6,4.6-16.2,54.7-16.2,54.7l-30.42,12.59s-43.61-27.24-50.11-27.24c-3.65,0-9.44,4.82-24.58,19.94s-19.9,20.93-19.9,24.54c0,6.52,27.2,50.13,27.2,50.13L98,208.34s-50.1,11.62-54.7,16.2C40.71,227.11,40,234.6,40,256s.71,28.88,3.28,31.45c4.6,4.6,54.7,16.2,54.7,16.2L110.55,334s-27.2,43.64-27.2,50.14c0,3.63,4.8,9.44,19.9,24.56s20.93,19.92,24.58,19.92c6.5,0,50.11-27.22,50.11-27.22l5.83,2.41" fill="none" stroke="#000" stroke-linecap="butt" stroke-linejoin="miter" stroke-width="32"/>
  <circle cx="352" cy="352" r="128" fill="none" stroke="#000" stroke-linecap="butt" stroke-linejoin="miter" stroke-width="32"/>
  <line x1="352" y1="416" x2="352" y2="288" fill="none" stroke="#000" stroke-linecap="butt" stroke-linejoin="miter" stroke-width="32"/>
  <polyline points="288 352 352 288 416 352" fill="none" stroke="#000" stroke-linecap="butt" stroke-linejoin="miter" stroke-width="32"/>
</svg>
