<svg xmlns="http://www.w3.org/2000/svg" width="512" height="512" viewBox="0 0 512 512">
  <title>settings</title>
  <circle cx="256" cy="256" r="88" transform="translate(-106.04 256) rotate(-45)" fill="none" stroke="#000" stroke-linecap="butt" stroke-linejoin="miter" stroke-width="32"/>
  <path d="M334,401.43s43.66,27.22,50.14,27.22c3.63,0,9.44-4.8,24.56-19.92s19.92-20.93,19.92-24.56c0-6.5-27.22-50.14-27.22-50.14L414,303.64s50.1-11.6,54.7-16.2c2.57-2.57,3.28-10.07,3.28-31.45s-.71-28.88-3.28-31.45c-4.6-4.58-54.7-16.2-54.7-16.2l-12.59-30.4s27.22-43.61,27.22-50.13c0-3.61-4.8-9.44-19.92-24.54S387.8,83.33,384.17,83.33c-6.48,0-50.14,27.24-50.14,27.24L303.66,98s-11.6-50.1-16.2-54.7C284.89,40.71,277.37,40,256,40s-28.88.71-31.45,3.28c-4.6,4.6-16.2,54.7-16.2,54.7l-30.42,12.59s-43.61-27.24-50.11-27.24c-3.65,0-9.44,4.82-24.58,19.94s-19.9,20.93-19.9,24.54c0,6.52,27.2,50.13,27.2,50.13L98,208.34s-50.1,11.62-54.7,16.2C40.71,227.11,40,234.6,40,256s.71,28.88,3.28,31.45c4.6,4.6,54.7,16.2,54.7,16.2L110.55,334s-27.2,43.64-27.2,50.14c0,3.63,4.8,9.44,19.9,24.56s20.93,19.92,24.58,19.92c6.5,0,50.11-27.22,50.11-27.22L208.36,414s11.6,50.1,16.2,54.7c2.57,2.57,10,3.28,31.45,3.28s28.88-.71,31.45-3.28c4.6-4.6,16.2-54.7,16.2-54.7Z" fill="none" stroke="#000" stroke-linecap="butt" stroke-linejoin="miter" stroke-width="32"/>
</svg>
