<svg xmlns="http://www.w3.org/2000/svg" width="512" height="512" viewBox="0 0 512 512">
  <title>silver</title>
  <path d="M110.25,374.19a16.81,16.81,0,1,1,0-33.61H272.66a16.81,16.81,0,1,1,0,33.61Zm274,0a16.81,16.81,0,1,1,0-33.61h16.27a16.81,16.81,0,1,1,0,33.61Zm-274-83.71a16.81,16.81,0,1,1,0-33.61h94.93a16.81,16.81,0,1,1,0,33.61Zm274,0a16.81,16.81,0,1,1,0-33.61h16.27a16.81,16.81,0,1,1,0,33.61Zm0-83.74a16.81,16.81,0,1,1,0-33.61h16.27a16.81,16.81,0,1,1,0,33.61Zm-274,0a16.81,16.81,0,1,1,0-33.61H305.83a16.81,16.81,0,1,1,0,33.61ZM447.65,21.33h0a42.51,42.51,0,0,1,42.46,42.46V462a23.22,23.22,0,0,1-36.78,18.84L431.19,465l-49.42,23.42a23.34,23.34,0,0,1-20.81-.44l-44.6-23.6L265.58,488.4a23.37,23.37,0,0,1-20.81-.45l-44.6-23.6-50.83,24.09a23.26,23.26,0,0,1-20.49-.3L83.42,465,57.34,482.12a23.24,23.24,0,0,1-36-19.42V131.81A42.51,42.51,0,0,1,63.81,89.35H328.44a16.81,16.81,0,0,1,0,33.62H63.81A8.84,8.84,0,0,0,55,131.81v311.6l15-9.87a23.25,23.25,0,0,1,23.29-1.28l46.27,23.59,50.91-24.13a23.37,23.37,0,0,1,20.81.45l44.6,23.6,50.78-24.07a23.37,23.37,0,0,1,20.81.45l44.6,23.6,50.27-23.81a23.2,23.2,0,0,1,23.51,2.14l10.64,7.66V63.79A8.84,8.84,0,0,0,447.65,55H38.14a16.81,16.81,0,0,1,0-33.62Z"/>
</svg>
