<svg xmlns="http://www.w3.org/2000/svg" width="512" height="512" viewBox="0 0 512 512">
  <title>site-protection</title>
  <path d="M339.83,390.08H172.21V289.52H339.83ZM205.72,239.22a50.29,50.29,0,0,1,100.58,0V256H205.74V239.22ZM356.57,256H339.81V239.22a83.82,83.82,0,1,0-167.64,0V256H155.4a16.76,16.76,0,0,0-16.76,16.76v134.1a16.76,16.76,0,0,0,16.76,16.76H356.55a16.76,16.76,0,0,0,16.77-16.76V272.75A16.76,16.76,0,0,0,356.55,256ZM490.69,71.6V440.37a50.3,50.3,0,0,1-50.29,50.3H71.63a50.3,50.3,0,0,1-50.3-50.3V138.66a50.3,50.3,0,0,1,50.3-50.29H222.48a16.77,16.77,0,1,1,0,33.53H71.63a16.76,16.76,0,0,0-16.77,16.76V440.37a16.76,16.76,0,0,0,16.77,16.77H440.4a16.76,16.76,0,0,0,16.76-16.77V71.6A16.76,16.76,0,0,0,440.4,54.84H38.1a16.75,16.75,0,1,1,0-33.49l402.3,0a50.3,50.3,0,0,1,50.29,50.3Z"/>
</svg>
