<svg xmlns="http://www.w3.org/2000/svg" width="512" height="512" viewBox="0 0 512 512">
  <title>slack</title>
  <path d="M249.75,307l-23.28,7.59c-1.32-3-2-6.11-3.14-9.08l-25.27-78.1a2.29,2.29,0,0,0,1.66-.83l84.38-27.41h1.81c1.16,4.13,2.64,8.26,4,12.39,7.93,24.43,16.52,49.53,23.95,73.31v2.48ZM476,254a40.43,40.43,0,0,0-26.22-9.59,41.09,41.09,0,0,0-12.37,1.91l.28-.08L394.89,260.1v-2c-7.43-22.62-14.69-45.24-22.12-67.87-2-5.94-3.8-12.05-5.62-18.16a13.57,13.57,0,0,1,3-1.14l.1,0c12.88-4.12,25.76-8.25,38.8-12.71A41.86,41.86,0,0,0,438,118.48a42.35,42.35,0,0,0-1.22-10.08l.07.28a39.86,39.86,0,0,0-15.56-22l-.13-.08a40.82,40.82,0,0,0-23.46-9.73l-.15,0c-.9-.06-2-.11-3-.11A41.48,41.48,0,0,0,380.73,79L381,79,346.35,90.19a49.84,49.84,0,0,1-6.57,1.92l-.37.06c-4.62-13.54-9.08-27.25-13.37-40.95a43,43,0,0,0-36.81-29.87l-.18,0H282a43.55,43.55,0,0,0-15.44,4.58l.25-.12a41.87,41.87,0,0,0-21.24,49.84l-.08-.3,6.6,20c2.48,7.43,4.79,14.86,7.27,22.29l-7.43,2.48L206.47,135.6l-33,10.73a4,4,0,0,1-1,.13,3.92,3.92,0,0,1-1-.14h0c-4.45-14.37-9.08-28.9-13.87-43.1a41.77,41.77,0,0,0-79.17,26.53l-.09-.29c3.14,10.4,6.61,21,10.08,31.37,1.32,4,2.47,7.93,3.79,11.72-14.2,4.79-28.73,9.09-42.76,14.2a40,40,0,0,0-26.88,30.64l0,.24a13.29,13.29,0,0,1-1.19,4.71l0-.08v7.26c.82,0,0,2.15.82,3.3a41.59,41.59,0,0,0,19,29.46l.17.1a38.7,38.7,0,0,0,20.85,6,39.78,39.78,0,0,0,10.64-1.45l-.29.06c5.45-1.48,10.57-3.3,16.52-5.11l26.09-8.43a7.52,7.52,0,0,1,3.3-.82l24.77,75.79c1.32,4.13,2.47,8.09,3.8,11.89h-1.16l-40.79,13.21A41.85,41.85,0,0,0,76,393.34,43.82,43.82,0,0,0,76.2,398v-.18a39.66,39.66,0,0,0,11.08,24.13l0,0a40,40,0,0,0,43.05,11.48l-.28.08,28.4-9.25,14.36-4.79c4.63,14.21,9.09,28.41,13.88,42.61a42,42,0,0,0,39.53,27.9c1.32,0,2.62-.06,3.89-.18l-.16,0A39.87,39.87,0,0,0,257,476.27l0,0a39,39,0,0,0,9-38.59l.08.28c-2.31-7.76-4.95-15.52-7.43-23.12L252.21,395a3.62,3.62,0,0,0,.83.07,4.8,4.8,0,0,0,.85-.08h0l86.2-28.07c4.78,14.36,9.24,28.56,14,42.77a41.53,41.53,0,0,0,39.2,28,43.58,43.58,0,0,0,4.74-.26l-.2,0a39.17,39.17,0,0,0,26.39-13.33l0-.05a38.66,38.66,0,0,0,11.46-27.54,39.08,39.08,0,0,0-2.29-13.2l.08.27-11.89-36.66a37.17,37.17,0,0,1-1.77-6l0-.24,41.62-13.71a34.07,34.07,0,0,0,11.16-5.35l-.1.07a40.49,40.49,0,0,0,18.2-33.79,42.44,42.44,0,0,0-.38-5.56v.21A39.56,39.56,0,0,0,476,254l-.06,0Z"/>
</svg>
