<svg xmlns="http://www.w3.org/2000/svg" width="512" height="512" viewBox="0 0 512 512">
  <title>statuscake</title>
  <path d="M372.59,125.89v0c0-.18,0-.37,0-.55a4.94,4.94,0,0,1,4.94-4.94,4.24,4.24,0,0,1,.53,0,5.62,5.62,0,0,1,5.6,5.43v.16a5.27,5.27,0,0,1-5.27,5.28l-.33,0h0a5.07,5.07,0,0,1-.55,0,4.93,4.93,0,0,1-4.94-4.94C372.56,126.24,372.58,126,372.59,125.89Zm-197.36.17h0l-.55,0a5.92,5.92,0,0,1-5.93-5.93,4.1,4.1,0,0,1,0-.51c0-4.61,3.13-6.1,6.75-5.93s5.93,1.81,5.93,5.76v0c0,.23,0,.46,0,.69a5.93,5.93,0,0,1-5.93,5.93Zm21.92-91.93c-4.29-1-7.09-2.63-6.59-6.92V27.1a5.74,5.74,0,0,1,6.91-5.65c4,.49,6.1,1.81,6.1,6.09A6.18,6.18,0,0,1,197.15,34.13ZM91.05,184.21c-4.45-.16-8.07-3.29-8.4-9.72a10.55,10.55,0,0,1,9.88-10.38,10.22,10.22,0,0,1,10.22,10C102.25,179.93,99.62,184.21,91.05,184.21Zm312.84-76.6h0a14.51,14.51,0,0,1-13.64-13.84v0a13.35,13.35,0,0,1,13.35-13.34l.49,0h.33a13.17,13.17,0,0,1,13.18,13.18v.32h0v.18a13.51,13.51,0,0,1-13.51,13.51ZM253.49,65.93h0a14.5,14.5,0,0,1-14.15-13.84,14,14,0,0,1,28,0v0A14.86,14.86,0,0,1,253.49,65.93Zm-184,89.45h0c-.29,0-.59,0-.89,0a13.18,13.18,0,0,1-13.18-13.18c0-.3,0-.61,0-.86a14.34,14.34,0,0,1,13.34-14.17h0a14.17,14.17,0,0,1,13.82,14.17v.13c0,.28,0,.56,0,.86a13,13,0,0,1-13,13Zm347.28-7.25v-.19l0-.13a18.29,18.29,0,0,1,31.11-7.29l.1,0a22.1,22.1,0,0,1,1.71,36.53q2,3.12,4,6.92c7.42,13.17,6.92,17.95-3.13,29.65l-.09.13a51.74,51.74,0,0,1-75.19,7.79C365,211.71,360.09,198,350.7,187.49c-2.31-2.47.16-5.93,1.15-9.06v0c0-.26,0-.51,0-.77s0-.51,0-.74l0,0a20.75,20.75,0,0,1-2.11-30.6l0,0a20.25,20.25,0,0,1,31.1,0h1.81l-.34.1a49.46,49.46,0,0,1,14.94-2.3A48.74,48.74,0,0,1,416.75,148.13ZM139.49,121.28h-.05a18.46,18.46,0,0,1-17.42-18h0v-.23A17.81,17.81,0,0,1,138.5,85.37h0a18.61,18.61,0,0,1,18.6,18v0A18.94,18.94,0,0,1,139.49,121.28ZM353.65,99.21c-10.54,0-16.47-8.41-16.47-20.43s5.76-19.11,15.15-19.11h.1a24.58,24.58,0,0,1,22.14,23.06C374.57,92.45,365.51,99.21,353.65,99.21ZM312.13,157c-15.48,0-25.86-12.19-25.86-28.83s8.57-27.51,22.24-27.51h.1a34.94,34.94,0,0,1,32.85,32.95C341.46,147.31,329.76,157,312.13,157ZM182.65,179.76h0l.12.5a70.2,70.2,0,0,1-2.64-19.13,69.15,69.15,0,0,1,5.82-28l.08-.21a31.32,31.32,0,0,1,29-19.44c.61,0,1.21,0,1.74.05h1.16c5.1-8.73,11-11,18.61-8.73s10.71,8.23,10.71,20.26l.07.07a63.16,63.16,0,0,1,16.4,22.67h-.75A116.41,116.41,0,0,0,182.65,179.76Zm273.8,147.12v0l-.11-.2a46.32,46.32,0,0,1,.1,49.29l-.5,1a192.45,192.45,0,0,1-43.49,54.33l.05-.05A195,195,0,0,1,356.78,469l.12-.08a34.27,34.27,0,0,1-12.48,5.35l1.11-.44A176.36,176.36,0,0,1,281,489.61l.81-.08a176,176,0,0,1-20.1,1.14,172,172,0,0,1-32.61-3l-.82-.08A172.18,172.18,0,0,1,170.13,470L167,468.36l-1-.41a159,159,0,0,1-46.93-32.54l-.23-.16A91.51,91.51,0,0,1,100,416.14h0a188.12,188.12,0,0,1-41.36-64.1l.34.86a134.6,134.6,0,0,1-10.39-35.78l.29,1.35a193.79,193.79,0,0,1-6.17-48.68A187.15,187.15,0,0,1,44.26,245c1-7.25,8.08-10.54,13.51-14.66h0a1.87,1.87,0,0,1-.11-.59,1.65,1.65,0,0,1,.11-.57v.09c-.05-.69-.06-1.38-.06-2.09a30.35,30.35,0,0,1,17.53-27.48l-.17.08a31.83,31.83,0,0,1,15.29-3.9,31.44,31.44,0,0,1,17.82,5.47l3.46,2c-1.32-2.47-1.32-4.78-1.32-7.09l.06.23a33.79,33.79,0,1,1,65.84-15.22v-.06a9.07,9.07,0,0,1,.34,2.52,9.25,9.25,0,0,1-3,6.77v0a82.86,82.86,0,0,0-16.49,24.4l0,.08A12.86,12.86,0,0,1,145.14,223a12.71,12.71,0,0,1-1.7-.12l-.23,0a48.91,48.91,0,0,1-20.53-7.39v.08a23.42,23.42,0,0,0,1.16,7.33l.41.17a66.27,66.27,0,0,1,20.34,14.49l0,0a5.28,5.28,0,0,1,2.27,4.33,4.87,4.87,0,0,1-.15,1.25l.13-.8a127.33,127.33,0,0,0-2.55,25.33A123.42,123.42,0,0,0,154,316l.51,1a194.79,194.79,0,0,0,21.9,31.93l.05.05a120,120,0,0,0,64,34.87l-.89-.13a144.15,144.15,0,0,0,26.71,2.49,137.3,137.3,0,0,0,20.8-1.52l0,0a9.1,9.1,0,0,1,5.14-1.6,7.86,7.86,0,0,1,1.32.1l8.07-2.14.81-.25a116,116,0,0,0,62.78-53.29l.13-.3A50.68,50.68,0,0,1,399,300.52l-.34.05a55.84,55.84,0,0,1,10.41-1A54.93,54.93,0,0,1,456.45,326.88Z"/>
</svg>
