<svg xmlns="http://www.w3.org/2000/svg" width="512" height="512" viewBox="0 0 512 512">
  <title>theme-per-user</title>
  <path d="M339.83,390.08H172.21V353.62a47.39,47.39,0,0,1,47.35-47.34h62a58.31,58.31,0,0,1,58.23,58.24v25.56ZM256,188.93a41.91,41.91,0,1,1-41.91,41.91A42,42,0,0,1,256,188.93Zm58.21,89.83a75.44,75.44,0,1,0-118.38-2.47,81,81,0,0,0-57.18,77.33V396a27.69,27.69,0,0,0,27.65,27.65H345.68A27.69,27.69,0,0,0,373.34,396V364.52a91.9,91.9,0,0,0-59.12-85.74ZM490.69,71.6V440.37a50.3,50.3,0,0,1-50.29,50.3H71.63a50.3,50.3,0,0,1-50.3-50.3V138.66a50.3,50.3,0,0,1,50.3-50.29H222.48a16.77,16.77,0,1,1,0,33.53H71.63a16.76,16.76,0,0,0-16.77,16.76V440.37a16.76,16.76,0,0,0,16.77,16.77H440.4a16.76,16.76,0,0,0,16.76-16.77V71.6A16.76,16.76,0,0,0,440.4,54.84H38.1a16.75,16.75,0,1,1,0-33.49l402.3,0a50.3,50.3,0,0,1,50.29,50.3Z"/>
</svg>
