<svg xmlns="http://www.w3.org/2000/svg" width="512" height="512" viewBox="0 0 512 512">
  <title>toplytics</title>
  <path d="M378.92,297.49v81.45H346.24V297.49ZM346.41,265a32.68,32.68,0,0,0-32.68,32.68v81.09a32.68,32.68,0,0,0,32.68,32.68h32.32a32.68,32.68,0,0,0,32.68-32.68V297.66A32.68,32.68,0,0,0,378.73,265Zm-81.26-81.26V378.94H232.47V183.72Zm-32.51-32.51A32.68,32.68,0,0,0,200,183.89V378.75a32.68,32.68,0,0,0,32.68,32.68H265a32.68,32.68,0,0,0,32.68-32.68V183.89A32.68,32.68,0,0,0,265,151.21Zm-81.09,97.71v130H118.87v-130ZM119,216.4a32.69,32.69,0,0,0-32.68,32.69V378.75A32.68,32.68,0,0,0,119,411.43h32.32A32.68,32.68,0,0,0,184,378.75V249.09a32.69,32.69,0,0,0-32.68-32.69Zm321.33-195-402.27,0a16.74,16.74,0,1,0,0,33.48H440.37a16.76,16.76,0,0,1,16.77,16.76V440.38a16.76,16.76,0,0,1-16.77,16.76H71.62a16.76,16.76,0,0,1-16.76-16.76V138.68a16.76,16.76,0,0,1,16.76-16.77H222.47a16.76,16.76,0,1,0,0-33.52H71.62a50.29,50.29,0,0,0-50.29,50.29v301.7a50.3,50.3,0,0,0,50.29,50.29H440.37a50.3,50.3,0,0,0,50.3-50.29V71.62a50.3,50.3,0,0,0-50.3-50.29Z"/>
</svg>
