<svg xmlns="http://www.w3.org/2000/svg" width="512" height="512" viewBox="0 0 512 512">
  <title>twitter</title>
  <path d="M490.65,109.07a190.61,190.61,0,0,1-55.28,15.16A96.39,96.39,0,0,0,477.67,71a194.36,194.36,0,0,1-61.2,23.41,96.35,96.35,0,0,0-164.05,87.8A273.23,273.23,0,0,1,54,81.58,96.38,96.38,0,0,0,83.82,210.12,96.05,96.05,0,0,1,40.22,198v1.2a96.36,96.36,0,0,0,77.22,94.43A97.64,97.64,0,0,1,92.09,297,91,91,0,0,1,74,295.21a96.27,96.27,0,0,0,89.92,66.84A193.3,193.3,0,0,1,44.3,403.22a215,215,0,0,1-23-1.3,272.34,272.34,0,0,0,147.6,43.33c177.13,0,274-146.72,274-273.95l-.33-12.5a192.35,192.35,0,0,0,48.11-49.73Z"/>
</svg>
