<svg xmlns="http://www.w3.org/2000/svg" width="512" height="512" viewBox="0 0 512 512">
  <title>umbrella</title>
  <line x1="256" y1="80" x2="256" y2="48" fill="none" stroke="#000" stroke-linecap="butt" stroke-linejoin="miter" stroke-width="32"/>
  <path d="M472,296c0-119.3-96.72-216-216-216S40,176.7,40,296" fill="none" stroke="#000" stroke-linecap="butt" stroke-linejoin="miter" stroke-width="32"/>
  <path d="M256,272V416a40,40,0,0,0,80,0V400" fill="none" stroke="#000" stroke-linecap="butt" stroke-linejoin="miter" stroke-width="32"/>
  <path d="M40,296c21.62-13.61,48.15-24,75.6-24,25.57,0,49.29,9.55,69.94,21.49C206.26,281.42,230.3,272,256,272s49.74,9.42,70.46,21.49C347.11,281.55,370.83,272,396.4,272c27.45,0,54,10.39,75.6,24" fill="none" stroke="#000" stroke-linecap="butt" stroke-linejoin="miter" stroke-width="32"/>
</svg>
