<svg xmlns="http://www.w3.org/2000/svg" width="512" height="512" viewBox="0 0 512 512">
  <title>users</title>
  <path d="M368,480V400a80,80,0,0,0-80-80H112a80,80,0,0,0-80,80v80Z" fill="none" stroke="#000" stroke-linecap="butt" stroke-linejoin="miter" stroke-width="32"/>
  <path d="M200,264c58.91,0,104-48.68,104-128,0-57.6-45.09-104-104-104S96,78.4,96,136C96,214.83,141.09,264,200,264Z" fill="none" stroke="#000" stroke-linecap="butt" stroke-linejoin="miter" stroke-width="32"/>
  <path d="M416,480h64V400a80,80,0,0,0-80-80H387.81" fill="none" stroke="#000" stroke-linecap="butt" stroke-linejoin="miter" stroke-width="32"/>
  <path d="M307.49,263.9c1.49.07,3,.1,4.51.1,58.91,0,104-48.68,104-128,0-57.6-45.09-104-104-104" fill="none" stroke="#000" stroke-linecap="butt" stroke-linejoin="miter" stroke-width="32"/>
</svg>
