<svg xmlns="http://www.w3.org/2000/svg" width="512" height="512" viewBox="0 0 512 512">
  <title>users-pending</title>
  <path d="M178.92,320H112a80,80,0,0,0-80,80v80H231.26" fill="none" stroke="#000" stroke-linecap="butt" stroke-linejoin="miter" stroke-width="32"/>
  <path d="M297.52,184.64A175.08,175.08,0,0,0,304,136c0-57.6-45.09-104-104-104S96,78.4,96,136c0,78.83,45.09,128,104,128" fill="none" stroke="#000" stroke-linecap="butt" stroke-linejoin="miter" stroke-width="32"/>
  <path d="M409.26,185.53A174.38,174.38,0,0,0,416,136c0-57.6-45.09-104-104-104" fill="none" stroke="#000" stroke-linecap="butt" stroke-linejoin="miter" stroke-width="32"/>
  <circle cx="352" cy="352" r="128" fill="none" stroke="#000" stroke-linecap="butt" stroke-linejoin="miter" stroke-width="32"/>
  <path d="M296,352a8,8,0,0,1-16,0" fill="none" stroke="#000" stroke-linecap="butt" stroke-linejoin="miter" stroke-width="32"/>
  <path d="M360,352a8,8,0,0,1-16,0" fill="none" stroke="#000" stroke-linecap="butt" stroke-linejoin="miter" stroke-width="32"/>
  <path d="M424,352a8,8,0,0,1-16,0" fill="none" stroke="#000" stroke-linecap="butt" stroke-linejoin="miter" stroke-width="32"/>
  <path d="M280,352a8,8,0,0,1,16,0" fill="none" stroke="#000" stroke-linecap="butt" stroke-linejoin="miter" stroke-width="32"/>
  <path d="M344,352a8,8,0,0,1,16,0" fill="none" stroke="#000" stroke-linecap="butt" stroke-linejoin="miter" stroke-width="32"/>
  <path d="M408,352a8,8,0,0,1,16,0" fill="none" stroke="#000" stroke-linecap="butt" stroke-linejoin="miter" stroke-width="32"/>
</svg>
