<svg xmlns="http://www.w3.org/2000/svg" width="512" height="512" viewBox="0 0 512 512">
  <title>utf</title>
  <path d="M440.37,21.35l-402.27,0a16.74,16.74,0,1,0,0,33.48H440.37a16.76,16.76,0,0,1,16.77,16.76V440.37a16.76,16.76,0,0,1-16.77,16.77H71.62a16.76,16.76,0,0,1-16.76-16.77V138.68a16.76,16.76,0,0,1,16.76-16.77H222.47a16.76,16.76,0,0,0,0-33.52H71.62a50.29,50.29,0,0,0-50.29,50.29V440.37a50.3,50.3,0,0,0,50.29,50.3H440.37a50.29,50.29,0,0,0,50.29-50.3V71.62a50.29,50.29,0,0,0-50.29-50.29ZM205.71,390.11a16.76,16.76,0,0,1-11.86-4.91l-67-67.05a16.75,16.75,0,1,1,23.69-23.7l55.2,55.2L361.44,193.9a16.75,16.75,0,0,1,23.69,23.69L217.52,385.2a16.76,16.76,0,0,1-11.86,4.91Z"/>
</svg>
