<svg xmlns="http://www.w3.org/2000/svg" width="512" height="512" viewBox="0 0 512 512">
  <title>wallet</title>
  <path d="M64,80H355a5,5,0,0,1,5,5v59a0,0,0,0,1,0,0H64a32,32,0,0,1-32-32v0A32,32,0,0,1,64,80Z" fill="none" stroke="#000" stroke-linecap="butt" stroke-linejoin="miter" stroke-width="32"/>
  <path d="M480,312a40,40,0,0,1-40,40H344a40,40,0,0,1-40-40V256a40,40,0,0,1,40-40h96a40,40,0,0,1,40,40" fill="none" stroke="#000" stroke-linecap="butt" stroke-linejoin="miter" stroke-width="32"/>
  <path d="M384,284a12,12,0,0,1-24,0" fill="none" stroke="#000" stroke-linecap="butt" stroke-linejoin="miter" stroke-width="32"/>
  <path d="M360,284a12,12,0,0,1,24,0" fill="none" stroke="#000" stroke-linecap="butt" stroke-linejoin="miter" stroke-width="32"/>
  <polyline points="416 216 416 144 360 144" fill="none" stroke="#000" stroke-linecap="butt" stroke-linejoin="miter" stroke-width="32"/>
  <path d="M32,112V392a40,40,0,0,0,40,40H376a40,40,0,0,0,40-40V352" fill="none" stroke="#000" stroke-linecap="butt" stroke-linejoin="miter" stroke-width="32"/>
  <line x1="480" y1="256" x2="480" y2="312" fill="none" stroke="#000" stroke-linecap="butt" stroke-linejoin="miter" stroke-width="32"/>
</svg>
