<svg xmlns="http://www.w3.org/2000/svg" width="512" height="512" viewBox="0 0 512 512">
  <title>wordpress</title>
  <path d="M259.78,274.88l62.34,170.78a202.45,202.45,0,0,1-122.25,3.18l59.89-174ZM256,55.23a199.24,199.24,0,0,1,127.17,45.4c-12.64,6.32-20.7,20.08-20.7,34.57,0,17.77,10.24,32.79,21.14,50.52,8.19,14.34,17.77,32.77,17.77,59.4q0,27.67-16.4,69.64l-21.49,71.75L285.64,155c13-.7,24.64-2.05,24.64-2.05,11.61-1.37,10.24-18.41-1.36-17.77,0,0-34.89,2.75-57.42,2.75-21.17,0-56.71-2.75-56.71-2.75-11.61-.64-13,17.09-1.37,17.77,0,0,11,1.35,22.62,2.05L249.56,247,202.45,388.3,124,155c13-.7,24.68-2.05,24.68-2.05,11.61-1.37,10.2-18.41-1.38-17.77,0,0-31.28,2.47-53.73,2.73A202.54,202.54,0,0,1,114,114,199.4,199.4,0,0,1,256,55.23ZM114.05,398a201.22,201.22,0,0,1-47.3-209.2l87.8,240.56A201.93,201.93,0,0,1,114.07,398ZM456.77,256A199.5,199.5,0,0,1,398,398a203,203,0,0,1-26,22l58.1-168c9.48-23.75,14.08-43.8,15.69-61.77A200.92,200.92,0,0,1,456.77,256ZM256,21.33C126.39,21.33,21.33,126.39,21.33,256S126.39,490.67,256,490.67,490.66,385.6,490.66,256,385.6,21.33,256,21.33Z"/>
</svg>
