<svg xmlns="http://www.w3.org/2000/svg" width="512" height="512" viewBox="0 0 512 512">
  <title>wordpress-operator</title>
  <path d="M454.54,118.61l44.95,196.94a16.94,16.94,0,0,1-3.27,14.35l-126,157.94A17,17,0,0,1,357,494.23H155a17,17,0,0,1-13.27-6.39L15.78,329.9a16.94,16.94,0,0,1-3.27-14.35l45-196.94a17,17,0,0,1,9.18-11.51l182-87.65a17,17,0,0,1,14.72,0l182,87.65A17,17,0,0,1,454.54,118.61ZM256,113.78a153.21,153.21,0,0,1,104,40.53c-13.42-.36-26.81,7.62-27.36,25.88C331.52,217.12,376.8,225,352.4,299.25l-20.18,61.43-55-161.91c-.85-2.51.14-3.93,3.22-3.93H296a1.51,1.51,0,0,0,1.47-1.54v-9.2a1.49,1.49,0,0,0-1.47-1.54q-44.15,1.94-87.76,0a1.5,1.5,0,0,0-1.47,1.54v9.21a1.51,1.51,0,0,0,1.47,1.53h15.63c3.47,0,4.44,1.16,5.26,3.4L251.73,260l-34,102.58L161.91,198.1c-.69-2.06.15-3.26,2.13-3.26h17.81a1.51,1.51,0,0,0,1.46-1.54v-9.2a1.47,1.47,0,0,0-1.46-1.53c-18.68,1-37.43,1.19-54.9,1.37A153.64,153.64,0,0,1,256,113.78Zm135.23,80.54A153.85,153.85,0,0,1,329.8,402.44l47.95-135.82c7.43-21,14.32-49.43,13.48-72.3ZM307.48,412.43a154.32,154.32,0,0,1-96.19,2.24l47.36-135.74,48.83,133.51h0Zm-117.27-5.91a153.84,153.84,0,0,1-74.14-202.75l74.15,202.75h0ZM256,91.45A176.1,176.1,0,0,1,432.08,267.53c0,97.22-78.85,176.07-176.08,176.07S79.92,364.75,79.92,267.53A176.1,176.1,0,0,1,256,91.45Z" fill-rule="evenodd"/>
</svg>
