<svg xmlns="http://www.w3.org/2000/svg" width="512" height="512" viewBox="0 0 512 512">
  <title>zinc</title>
  <path d="M459.45,351.87a17.22,17.22,0,0,0-3.69-5.55L370.43,261a17.06,17.06,0,0,0-24.13,24.13l56.19,56.21H186.24L370.43,157.14A17.06,17.06,0,0,0,358.38,128H100.9l56.22-56.19A17.08,17.08,0,1,0,133,47.66L47.63,133c-.27.28-.38.66-.64,1a16.17,16.17,0,0,0,0,22.23c.26.3.37.66.64,1L133,242.47a17.08,17.08,0,0,0,24.15-24.15L100.9,162.11H317.16L133,346.32A17.05,17.05,0,0,0,145,375.44H402.49L346.3,431.66a17.06,17.06,0,1,0,24.13,24.12l85.33-85.33a17.22,17.22,0,0,0,3.69-5.55,17,17,0,0,0,0-13" fill-rule="evenodd"/>
</svg>
