<svg xmlns="http://www.w3.org/2000/svg" width="512" height="512" viewBox="0 0 512 512">
  <title>zipa</title>
  <path d="M205.76,306.26v50.28H256V306.26ZM306.3,256H256v50.27H306.3Zm-100.54-50.3V256H256V205.69Zm100.54,0V155.42H256v50.27ZM205.76,155.42H256V105.14H205.76ZM440.41,21.33l-402.28,0a16.76,16.76,0,0,0,0,33.52H256v50.27H306.3V54.87H440.39a16.76,16.76,0,0,1,16.76,16.76V440.39a16.76,16.76,0,0,1-16.76,16.76H256v-50.3h-50.3v50.3H71.63a16.76,16.76,0,0,1-16.76-16.76V138.68a16.76,16.76,0,0,1,16.76-16.76h83.85a16.76,16.76,0,1,0,0-33.51H71.63a50.29,50.29,0,0,0-50.3,50.27V440.39a50.28,50.28,0,0,0,50.3,50.28H440.39a50.27,50.27,0,0,0,50.27-50.28V71.63a50.29,50.29,0,0,0-50.29-50.3ZM306.3,406.83H256V356.56H306.3Z"/>
</svg>
