<svg xmlns="http://www.w3.org/2000/svg" width="512" height="512" viewBox="0 0 512 512">
  <title>zsync</title>
  <path d="M173.43,305.05A44.36,44.36,0,0,0,222,314.71l-58.24-58.24A44.35,44.35,0,0,0,173.43,305.05Zm99.81,9.66a44.57,44.57,0,0,0,58.24-58.24Zm-116-91.86a33.8,33.8,0,0,1,30.36,9.27l58.78,58.78q.65.64,1.26,1.35.62-.67,1.26-1.35l58.78-58.78a33.8,33.8,0,0,1,55,10.63A78.56,78.56,0,0,1,259.49,345.88a34.07,34.07,0,0,1-11.88-8.51,33.84,33.84,0,0,1-11.89,8.51A78.62,78.62,0,0,1,132.57,242.75a33.66,33.66,0,0,1,24.62-19.9ZM490.66,71.65V440.39a50.28,50.28,0,0,1-50.27,50.28H71.63a50.3,50.3,0,0,1-50.3-50.28V138.7a50.27,50.27,0,0,1,50.3-50.27l176-.28c97.19,0,176.26,79.06,176.26,176.25S344.82,440.65,247.63,440.65,71.37,361.59,71.37,264.4c0-24.9,6.73-50.12,20-75.28l-7-7a12.15,12.15,0,0,1,5.45-20.33l50.25-13.46A12.14,12.14,0,0,1,155,163.21l-13.47,50.25a12.15,12.15,0,0,1-20.32,5.46l-4.36-4.37c-7.59,16.93-11.44,33.6-11.44,49.83,0,78.4,63.8,142.2,142.21,142.2s142.21-63.8,142.21-142.2S326,122.18,247.63,122.18l-176-.26a16.76,16.76,0,0,0-16.76,16.76V440.37a16.76,16.76,0,0,0,16.76,16.76H440.39a16.76,16.76,0,0,0,16.76-16.76V71.63a16.76,16.76,0,0,0-16.76-16.76H38.11a16.76,16.76,0,0,1,0-33.52l402.28,0a50.28,50.28,0,0,1,50.27,50.3Z"/>
</svg>
