<svg xmlns="http://www.w3.org/2000/svg" width="512" height="512" viewBox="0 0 512 512">
  <title>zthree</title>
  <path d="M453.29,111.53,282.6,26.18a60,60,0,0,0-53.18,0L145.75,68a17.05,17.05,0,0,0,0,30.53l203.8,101.91v66.22a17.06,17.06,0,0,0,34.11,0V189.89a17,17,0,0,0-9.43-15.26L191.53,83.26l53.12-26.54a25.7,25.7,0,0,1,22.72,0l170.69,85.36A25.4,25.4,0,0,1,452.27,165V347A25.45,25.45,0,0,1,438,369.88l-165,82.49V245.2a17,17,0,0,0-9.45-15.27L50.28,123.26A17.06,17.06,0,0,0,25.6,138.54V346.67A59.4,59.4,0,0,0,58.52,400.4l170.64,85.34a60,60,0,0,0,53.47,0l170.64-85.31A59.4,59.4,0,0,0,486.4,347V165A59.31,59.31,0,0,0,453.29,111.53ZM238.93,452.46,73.81,369.9a25.61,25.61,0,0,1-14.08-23.17V166.14l179.2,89.6Z" fill-rule="evenodd"/>
</svg>
