<svg xmlns="http://www.w3.org/2000/svg" width="64" height="64" viewBox="0 0 64 64">
  <title>alpine</title>
  <path d="M18.23,58.67a2.06,2.06,0,0,1-2.08-1.2L2.36,33.06a2.54,2.54,0,0,1,0-2.09l14-24.68a2.29,2.29,0,0,1,1.66-1H46.16a2.1,2.1,0,0,1,1.5.89l14,24.69a2.71,2.71,0,0,1,0,2.23L47.83,57.54a1.9,1.9,0,0,1-1.93,1.12Zm8.56-39.32S15.59,31.16,10,37.07c2.49,2.29,5.1,2.34,7.63-.29,3-3.1,8.79-9.48,8.79-9.48s6.48,6.5,9.48,9.56c2.45,2.51,5.4,2.48,7.89-.11l-6.9-7.23c.38.19,1.13.77,1.32.62.86-.69,1.15,0,1.58.47,2.29,2.31,4.48,4.72,6.9,6.87A4.84,4.84,0,0,0,50,38.61a13.76,13.76,0,0,0,3.75-1.39L38.34,21.16l-4.47,5Zm-3,12.75-4.83,5L23.75,39Z" fill-rule="evenodd"/>
</svg>
