<?xml version="1.0" encoding="UTF-8"?>
<svg width="24px" height="24px" viewBox="0 0 24 24" version="1.1" xmlns="http://www.w3.org/2000/svg" xmlns:xlink="http://www.w3.org/1999/xlink">
    <!-- Generator: Sketch 48.2 (47327) - http://www.bohemiancoding.com/sketch -->
    <title>alpine</title>
    <desc>Created with Sketch.</desc>
    <defs></defs>
    <g id="Page-1" stroke="none" stroke-width="1" fill="none" fill-rule="evenodd">
        <g id="alpine" fill="#000000">
            <path d="M9.1066687,12.0392724 L7.29524623,13.9103422 L9.1066687,14.6357959 L9.1066687,12.0392724 Z M10.2461818,7.25799327 C10.2461818,7.25799327 6.04598935,11.6831727 3.94003722,13.9023896 C4.8709071,14.759503 5.85252804,14.7798263 6.79857986,13.7923787 C7.91119927,12.631741 10.0960975,10.2380088 10.0960975,10.2380088 C10.0960975,10.2380088 12.5260756,12.6741549 13.6499731,13.8241891 C14.5682636,14.7639212 15.6778466,14.7528759 16.6082827,13.7826588 C15.7346705,12.8654591 14.8606244,11.9473757 14.0243163,11.069939 C14.1657253,11.1397451 14.4468081,11.357558 14.5175126,11.3010062 C14.840671,11.0434303 14.9495472,11.3182368 15.1091745,11.479056 C15.9671711,12.3436802 16.7895985,13.2489511 17.6961773,14.0561399 C18.0089253,14.3344808 18.5424621,14.5169488 18.9519407,14.4798366 C19.4685605,14.4330047 19.9617567,14.116668 20.3590898,13.9580578 C18.4383573,11.9579792 14.5760715,7.93573142 14.5760715,7.93573142 L12.9012865,9.81387018 L10.2461818,7.25799327 Z M7.03498438,21.9999025 C6.66237616,22.0038788 6.44418998,21.886357 6.25550014,21.5505806 L1.08409719,12.3962557 C0.971750824,12.1956735 0.972184593,11.8165997 1.08409719,11.6151338 L6.32230068,2.35786695 C6.4281405,2.17318993 6.73221309,2.00176724 6.94519404,2.00044181 L17.508355,2 C17.7009487,2.00088362 17.9746575,2.16347009 18.0722556,2.33312553 L23.3121942,11.5899506 C23.4314809,11.8051126 23.4284445,12.2106951 23.3078565,12.4262989 L18.1364536,21.5792984 C17.9599093,21.8938678 17.7603752,22.0021115 17.4137932,21.9990189 L7.03498438,21.9999025 Z" id="Fill-1"></path>
        </g>
    </g>
</svg>