<?xml version="1.0" encoding="UTF-8"?>
<svg width="24px" height="24px" viewBox="0 0 24 24" version="1.1" xmlns="http://www.w3.org/2000/svg" xmlns:xlink="http://www.w3.org/1999/xlink">
    <!-- Generator: Sketch 48.2 (47327) - http://www.bohemiancoding.com/sketch -->
    <title>ansible</title>
    <desc>Created with Sketch.</desc>
    <defs></defs>
    <g id="Page-1" stroke="none" stroke-width="1" fill="none" fill-rule="evenodd">
        <g id="ansible" fill="#000000" fill-rule="nonzero">
            <path d="M1,12 C1,18.075123 5.92487702,23 12,23 C18.075123,23 23,18.075123 23,12 C23,5.92487702 18.075123,1 12,1 C5.92487702,1 1,5.92487702 1,12 Z M15.9037245,17.2023893 L10.2297962,12.6184118 L8.3281799,17.4111033 L6.68165847,17.4111033 L11.4898103,5.81588194 C11.6104006,5.54455376 11.8755446,5.35748419 12.1847505,5.35207309 C12.5024596,5.35207309 12.7621926,5.54300773 12.8634575,5.81124385 L17.240267,16.3520731 C17.2789178,16.4471539 17.3059733,16.556922 17.3175685,16.6721012 C17.3175685,17.1274069 16.9712579,17.4737175 16.5445538,17.4737175 C16.5337316,17.4737175 16.5229093,17.4737175 16.5113141,17.4729445 C16.2747716,17.4598032 16.0614195,17.3593113 15.9037245,17.2023893 Z M10.7322558,11.3583978 L15.0302178,14.7442024 L12.1855235,7.71749824 L10.7322558,11.3583978 Z" id="Combined-Shape"></path>
        </g>
    </g>
</svg>