<?xml version="1.0" encoding="UTF-8"?>
<svg width="24px" height="24px" viewBox="0 0 24 24" version="1.1" xmlns="http://www.w3.org/2000/svg" xmlns:xlink="http://www.w3.org/1999/xlink">
    <!-- Generator: Sketch 48.2 (47327) - http://www.bohemiancoding.com/sketch -->
    <title>autover</title>
    <desc>Created with Sketch.</desc>
    <defs></defs>
    <g id="Page-1" stroke="none" stroke-width="1" fill="none" fill-rule="evenodd">
        <g id="autover" fill="#000000" fill-rule="nonzero">
            <path d="M23,3.35633261 L23,20.6416049 C23,21.9430018 21.9450642,22.9989688 20.6426362,22.9989688 L3.35736383,22.9989688 C2.055967,22.9989688 1,21.944033 1,20.6416049 L1,6.49948439 C1,5.19808756 2.05493578,4.14212056 3.35736383,4.14212056 L10.4263617,4.14212056 C10.4273929,4.14212056 10.4273929,4.14212056 10.4284241,4.14212056 C10.8625668,4.14212056 11.2142121,4.49376582 11.2142121,4.9279085 C11.2142121,5.36205119 10.8625668,5.71369645 10.4284241,5.71369645 L3.35736383,5.71369645 C2.92322115,5.71369645 2.57157589,6.06534171 2.57157589,6.49948439 L2.57157589,20.6416049 C2.57157589,21.0757476 2.92322115,21.4273929 3.35736383,21.4273929 L20.6426362,21.4273929 C21.0767789,21.4273929 21.4284241,21.0757476 21.4284241,20.6416049 L21.4284241,3.35633261 C21.4284241,2.92218993 21.0767789,2.57054467 20.6426362,2.57054467 L1.78578794,2.57054467 C1.35267648,2.57054467 1.00103122,2.21889941 1.00103122,1.78578794 C1.00103122,1.35267648 1.35267648,1.00103122 1.78578794,1.00103122 L20.6426362,1 C21.944033,1 23,2.05493578 23,3.35736383 L23,3.35633261 Z M14.3573638,7.28527234 L5.71472766,7.28527234 C5.28058498,7.28527234 4.92893972,7.6369176 4.92893972,8.07106028 L4.92893972,19.0710603 C4.92893972,19.505203 5.28058498,19.8568482 5.71472766,19.8568482 L14.3573638,19.8568482 C14.7915065,19.8568482 15.1431518,19.505203 15.1431518,19.0710603 L15.1431518,8.07106028 C15.1431518,7.6369176 14.7915065,7.28527234 14.3573638,7.28527234 Z M13.5715759,18.2842411 L6.50051561,18.2842411 L6.50051561,8.85581701 L13.5715759,8.85581701 L13.5715759,18.2842411 Z M16.6569795,19.855817 L18.2852723,19.855817 C18.719415,19.855817 19.0710603,19.5041717 19.0710603,19.0700291 L19.0710603,8.07002906 C19.0710603,7.63588638 18.719415,7.28424112 18.2852723,7.28424112 L16.6507922,7.28424112 C16.2166495,7.28424112 15.8650042,7.63588638 15.8650042,8.07002906 C15.8650042,8.50417174 16.2166495,8.85581701 16.6507922,8.85581701 L17.4994844,8.85581701 L17.4994844,18.2842411 L16.6569795,18.2842411 C16.2207744,18.2842411 15.8680979,18.63898 15.8711915,19.0751852 C15.8742852,19.5072654 16.2248992,19.8547858 16.6569795,19.8547858 L16.6569795,19.855817 Z M10.7016968,15.5577013 L12.6661667,12.4145495 C12.8961282,12.0464048 12.7847567,11.5617324 12.416612,11.3317709 C12.0484672,11.1018093 11.5637949,11.2131808 11.3338333,11.5813256 L10.0355301,13.6581982 L8.73722696,11.5813256 C8.5072654,11.2131808 8.02259304,11.1018093 7.6544483,11.3317709 C7.28630355,11.5617324 7.17493203,12.0464048 7.4048936,12.4145495 L9.36936346,15.5577013 C9.51270273,15.7876629 9.76431987,15.9268773 10.0355301,15.9268773 C10.3067404,15.9268773 10.5583576,15.7876629 10.7016968,15.5577013 Z" id="Shape"></path>
        </g>
    </g>
</svg>