<?xml version="1.0" encoding="UTF-8"?>
<svg width="24px" height="24px" viewBox="0 0 24 24" version="1.1" xmlns="http://www.w3.org/2000/svg" xmlns:xlink="http://www.w3.org/1999/xlink">
    <!-- Generator: Sketch 48.2 (47327) - http://www.bohemiancoding.com/sketch -->
    <title>bitbucket</title>
    <desc>Created with Sketch.</desc>
    <defs></defs>
    <g id="Page-1" stroke="none" stroke-width="1" fill="none" fill-rule="evenodd">
        <g id="bitbucket" fill="#000000" fill-rule="nonzero">
            <path d="M13.0737944,11.4556215 C13.0297496,10.6666784 12.3791226,10.0430965 11.5824523,10.0430965 C10.7579642,10.0430965 10.0887921,10.7114959 10.0887921,11.5367567 C10.0887921,11.5653472 10.0895648,11.5939377 10.0911103,11.6217555 L10.0911103,11.6178919 C10.1351551,12.406835 10.785782,13.0304169 11.5824523,13.0304169 C12.4069404,13.0304169 13.0761125,12.3620175 13.0761125,11.5367567 C13.0761125,11.5081662 13.0753398,11.4795757 13.0737944,11.4517579 L13.0737944,11.4556215 Z M12.3860771,22.9459099 C12.865161,22.9459099 13.3365179,22.8686383 13.8078747,22.7913667 C14.4098205,22.6940044 14.9314039,22.5703699 15.4375329,22.4135085 L15.3533069,22.4359172 C15.875663,22.2775104 16.3261564,22.0858769 16.7503776,21.8532893 L16.7132872,21.8718345 C17.0177373,21.6964279 17.2789154,21.4916582 17.5084121,21.2544343 L17.5091848,21.2536616 C17.7031365,21.0666643 17.8538162,20.8363949 17.9457694,20.5783078 L17.949633,20.5659443 C17.949633,20.4732184 17.9882688,20.3727653 18.0037231,20.2723122 C18.1196305,19.638685 18.2355379,18.9973306 18.3591725,18.3559763 C18.4828071,17.7146219 18.575533,17.2355379 18.6759861,16.6714552 C18.6798497,16.6575463 18.6813951,16.6413192 18.6813951,16.6243195 C18.6813951,16.5192301 18.6010326,16.4334586 18.4990341,16.424186 L18.4982614,16.424186 C18.4812616,16.4218679 18.461171,16.4203224 18.4410804,16.4203224 C18.346809,16.4203224 18.2587194,16.4504584 18.1876295,16.5022303 L18.1891749,16.5014576 L17.710091,16.8491799 C17.0447824,17.2471287 16.2759299,17.5886692 15.4653507,17.8343929 L15.3919427,17.8537108 C14.6856802,18.0754803 13.8565558,18.2447051 13.0027045,18.3289312 L12.9501598,18.3327948 C12.6086193,18.3706579 12.2106705,18.3930666 11.8080854,18.3946121 L11.80654,18.3946121 C11.5515437,18.3946121 11.2888202,18.3946121 11.0338239,18.3946121 C10.7788276,18.3946121 10.462014,18.3946121 10.1838362,18.3327948 C9.74725159,18.2895227 9.36243897,18.2300235 8.9845808,18.1504338 L9.05567068,18.1627972 C8.11604791,17.9788908 7.28615082,17.711531 6.50107127,17.3607179 L6.57525201,17.3900811 C6.00189667,17.1381757 5.5089038,16.8538162 5.05222858,16.5238664 L5.07618278,16.5400934 C4.99968389,16.4875487 4.90773067,16.4520038 4.80882301,16.4396403 L4.80573215,16.4396403 C4.7840961,16.4342313 4.75859647,16.4311405 4.73309684,16.4311405 C4.57391732,16.4311405 4.44255558,16.5478206 4.42014682,16.7008184 L4.42014682,16.7023638 C4.41241966,16.7394542 4.40855607,16.7819536 4.40855607,16.8259984 C4.40855607,16.8700432 4.41241966,16.9125426 4.42091953,16.9534965 L4.42014682,16.949633 C4.53605423,17.5678058 4.65968881,18.1937059 4.77559622,18.8118788 C4.85286783,19.2523269 4.9378666,19.6850479 5.01513821,20.117769 C5.01513821,20.2414035 5.01513821,20.3727653 5.0769555,20.504127 C5.15577254,20.8093499 5.31263391,21.0713006 5.52435812,21.2760704 L5.52513083,21.2768431 C5.76699097,21.5179305 6.04439605,21.723473 6.34884619,21.8857434 L6.36739138,21.895016 C6.8101577,22.1407397 7.32324119,22.3516912 7.86259703,22.5015981 L7.91282357,22.5131889 C8.57967757,22.7063679 9.36784799,22.8562748 10.1768817,22.9343191 L10.2309719,22.9381827 C10.6636929,22.9768185 11.0964139,22.9922728 11.5291349,23 L12.3636683,23 L12.3860771,22.9459099 Z M8.53022374,11.6333462 C8.53640547,11.8558884 8.55804152,12.0691581 8.5959046,12.2770187 L8.59204102,12.2515191 C8.72881177,12.9655088 9.10744266,13.5728636 9.6375259,14.0009483 L9.64293492,14.0055846 C10.0354747,14.3216255 10.519195,14.5395315 11.0492782,14.6144849 L11.0647325,14.6160303 C11.2100032,14.6407573 11.3769098,14.6554389 11.5469074,14.6554389 C12.7098451,14.6554389 13.7174669,13.9893576 14.209687,13.0180535 L14.2174142,13.0010537 C14.4144568,12.6386499 14.536546,12.2097924 14.5496821,11.7531172 L14.5496821,11.7492536 C14.5504548,11.7229813 14.5512276,11.6928454 14.5512276,11.6619367 C14.5512276,11.4409399 14.5257279,11.2261248 14.4762741,11.0198096 L14.4801377,11.0383548 C14.3085947,10.1319588 13.7329212,9.38860595 12.9509325,8.99065716 L12.9347055,8.98293 C12.5367567,8.77352394 12.0646272,8.65143479 11.5639071,8.65143479 C11.4340908,8.65143479 11.3065927,8.65993467 11.1814127,8.67538899 L11.1960943,8.67384356 C10.7247375,8.71788838 10.2966527,8.8677953 9.92420358,9.0980647 L9.93656703,9.09111025 C9.08194303,9.62582979 8.52249658,10.561589 8.52249658,11.6279372 C8.52249658,11.6294826 8.52249658,11.6318008 8.52249658,11.6333462 L8.53022374,11.6333462 Z M11.5283622,2.4689333 C10.9565523,2.4689333 10.3847424,2.4689333 9.81293246,2.53075059 C9.24112255,2.59256788 8.8934003,2.59256788 8.42977064,2.65438516 C7.96614099,2.71620245 7.65705455,2.76256542 7.21660637,2.84756419 C6.79315795,2.93333567 6.4261178,3.04228864 6.07298655,3.18060483 L6.11934951,3.16437779 C5.95707913,3.22851322 5.81721752,3.30655755 5.68894665,3.4000562 L5.69435566,3.39619262 C5.61167504,3.45028274 5.54290331,3.51750904 5.48726775,3.59478065 L5.48572231,3.5970988 C5.45095009,3.64809806 5.43008675,3.71068807 5.43008675,3.77868709 C5.43008675,3.8466861 5.45095009,3.90927611 5.48649503,3.96104808 L5.48572231,3.96027537 C5.51122195,4.00895648 5.54522145,4.04991044 5.58540269,4.08313723 L5.58617541,4.08390994 C5.66035615,4.14649995 5.74458221,4.20290822 5.83344456,4.2500439 L5.84117172,4.25390748 C6.06371395,4.38217836 6.32102841,4.48804046 6.59225176,4.55835763 L6.61388782,4.56299392 C7.16715254,4.7252643 7.82550666,4.85585332 8.50086052,4.92926135 L8.55340522,4.93389765 C8.92430895,4.93389765 9.32612132,5.01116926 9.67384356,5.03435074 C10.0215658,5.05753223 10.4465597,5.08071371 10.848372,5.08844087 C11.7524499,5.08844087 12.6565277,5.08844087 13.5451512,5.02662358 L14.4337747,4.94935197 L15.5001229,4.79480875 C15.9521618,4.71753714 16.3447016,4.61785677 16.7256507,4.49190404 L16.6669242,4.5089038 C16.9311931,4.43781392 17.163008,4.32886095 17.3700959,4.1874539 L17.3623687,4.1920902 C17.4419585,4.13645464 17.5107302,4.07309192 17.5694566,4.0004566 L17.5710021,3.99891117 C17.6204559,3.94095747 17.6513645,3.86523129 17.6513645,3.78255067 C17.6513645,3.69987004 17.6212286,3.62414387 17.5710021,3.56541744 L17.5710021,3.56619016 C17.5099575,3.49896386 17.4442766,3.43791929 17.3739595,3.38305644 L17.3700959,3.3807383 C17.2232798,3.27642162 17.0548277,3.18755927 16.8747849,3.12265112 L16.8601033,3.11801482 C16.4173369,2.95188086 15.8965263,2.81665554 15.3571705,2.73706579 L15.3146711,2.73165677 C14.9360402,2.66983949 14.541955,2.62347652 14.1633241,2.58484072 C13.7846932,2.54620491 13.2051561,2.50756911 12.7260721,2.48438762 C12.2469882,2.46120614 11.953356,2.48438762 11.5747252,2.48438762 L11.5283622,2.4689333 Z M11.1265498,1.00077272 L12.1542622,1.00077272 L13.1742475,1.03940852 C13.6069685,1.03940852 14.0474167,1.10122581 14.4801377,1.14758877 C14.9128587,1.19395174 15.2528538,1.23258755 15.6314847,1.29440483 C16.1337501,1.37167644 16.6360156,1.47212954 17.1305539,1.58803695 C17.90327,1.7680798 18.5708967,1.99062204 19.2099329,2.2672544 L19.1318886,2.23711847 C19.5769731,2.42411577 19.9617857,2.646658 20.3125988,2.91169962 L20.2986899,2.90165431 C20.5567771,3.08401531 20.7708194,3.31042113 20.9346352,3.57159917 L20.9400443,3.58164448 C21.0574971,3.75859647 21.1270416,3.97495697 21.1270416,4.20831724 C21.1270416,4.26008921 21.1239507,4.31031576 21.1169962,4.35976959 L21.117769,4.35358786 L21.0018615,5.12630396 C20.9168628,5.70584103 20.8241368,6.29310527 20.7314109,6.86491518 C20.6155035,7.56035966 20.4995961,8.24807699 20.3914158,8.94352148 C20.2832356,9.63896597 20.1286924,10.4889537 19.9896035,11.2616698 C19.8505146,12.0343859 19.7114257,12.8766464 19.5723368,13.6802712 C19.5275192,13.9785396 19.4038847,14.2420358 19.2230691,14.4553054 L19.2246145,14.4529873 C19.1434793,14.5511222 19.060026,14.6392118 18.9711636,14.7218925 L18.9696182,14.7234379 C18.6234414,15.0217063 18.2293562,15.2797935 17.8035896,15.4822451 L17.7719083,15.496154 C17.2085982,15.7828317 16.5510168,16.0331917 15.8648449,16.2140072 L15.793755,16.2302343 C15.1029469,16.424186 14.2846405,16.5740929 13.4454708,16.6513645 L13.390608,16.6552281 C12.9733413,16.6938639 12.5483474,16.7247726 12.1310807,16.7402269 C11.9255383,16.7487268 11.6836781,16.7541358 11.4410453,16.7541358 C10.6683292,16.7541358 9.90720382,16.704682 9.16076007,16.6073197 L9.24884971,16.6165923 C8.7543114,16.554775 8.2597731,16.4697763 7.77296196,16.361596 C7.0164729,16.1993256 6.35580064,15.9837378 5.72603702,15.7086509 L5.79480875,15.735696 C5.06459204,15.4528819 4.44178287,15.0410242 3.9248358,14.5225317 C3.76101999,14.3571705 3.64202171,14.1477644 3.58638615,13.9128587 L3.58484072,13.9043588 C3.49984194,13.4561835 3.42257033,13.000281 3.33757156,12.5521057 C3.25257279,12.1039303 3.15984686,11.5012118 3.07484809,10.9680377 C2.98984932,10.4348635 2.89712339,9.96350673 2.81212462,9.42260546 C2.72712585,8.88170419 2.66530856,8.54170911 2.59576411,8.10126093 C2.52621966,7.66081276 2.44122089,7.21263742 2.37167644,6.76446208 L2.17077026,5.55129781 C2.10895297,5.14175828 2.05486284,4.77858171 2.00077272,4.33813354 C2.00231815,4.32113379 2.00309086,4.30027045 2.00309086,4.28017983 C2.00309086,4.26008921 2.00231815,4.23922588 2.00077272,4.21990798 L2.00077272,4.22222612 L2.00077272,4.04450142 C2.00231815,4.03445611 2.00231815,4.02209266 2.00231815,4.0097292 C2.00231815,3.99736574 2.00154543,3.98500228 2,3.97341154 L2,3.97495697 C2.03013593,3.78873239 2.09504408,3.62182572 2.18854273,3.47500966 L2.18545186,3.48041867 C2.34694953,3.23933125 2.54476485,3.03687963 2.77348881,2.87460925 L2.78044326,2.86997295 C3.1521197,2.59179516 3.57788627,2.35302589 4.03378877,2.17221032 L4.07087914,2.15907415 C4.59014436,1.94194092 5.21913526,1.73794387 5.86744407,1.58185522 L5.95630642,1.56408275 C6.4740262,1.44044818 6.99174599,1.33999508 7.50173861,1.26272347 L8.24354606,1.16227038 L8.96217203,1.08499877 L9.44898318,1.04636297 L10.1753363,1 C10.4457869,1 10.7162376,1 10.9866882,1 L11.0948685,1 L11.1265498,1.00077272 Z" id="Shape"></path>
        </g>
    </g>
</svg>