<?xml version="1.0" encoding="UTF-8"?>
<svg width="24px" height="24px" viewBox="0 0 24 24" version="1.1" xmlns="http://www.w3.org/2000/svg" xmlns:xlink="http://www.w3.org/1999/xlink">
    <!-- Generator: Sketch 48.2 (47327) - http://www.bohemiancoding.com/sketch -->
    <title>bitpoke</title>
    <desc>Created with Sketch.</desc>
    <defs></defs>
    <g id="Page-1" stroke="none" stroke-width="1" fill="none" fill-rule="evenodd">
        <g id="bitpoke" fill="#000000" fill-rule="nonzero">
            <path d="M4.89798772,10.0428871 L2.89814311,12.0341854 L4.89798772,14.0254836 C5.03643851,14.1699169 5.12104732,14.3656282 5.12104732,14.580996 C5.12104732,14.7963639 5.03643851,14.9920752 4.89798772,15.1365084 C4.7535545,15.2749592 4.55784321,15.359568 4.34247533,15.359568 C4.12710745,15.359568 3.93139616,15.2749592 3.78696294,15.1365084 L1.22305959,12.5726051 C1.08460881,12.4281719 1,12.2324606 1,12.0170927 C1,11.8017248 1.08460881,11.6060135 1.22305959,11.4615803 L3.78696294,8.89767695 C3.93139616,8.74127884 4.13650843,8.64470515 4.36469583,8.64470515 C4.79885013,8.64470515 5.15095952,8.99681454 5.15095952,9.43096884 C5.15095952,9.65915624 5.05353119,9.86512315 4.89798772,10.0087017 L4.89713309,10.0095564 L4.89798772,10.0428871 Z M22.7256623,12.6067905 L12.5384197,22.7769404 C12.3939865,22.9153912 12.1982752,23 11.9829073,23 C11.7675394,23 11.5718281,22.9153912 11.4273949,22.7769404 L6.29958822,17.6491337 C6.18848574,17.51752 6.11840572,17.3483024 6.11156864,17.1637013 L6.11156864,17.1619921 L6.11156864,6.90637868 C6.11156864,6.90637868 6.11156864,6.90552405 6.11156864,6.90552405 C6.11156864,6.69015617 6.19617745,6.49444488 6.3337736,6.35086629 L11.4615803,1.22305959 C11.6060135,1.08460881 11.8017248,1 12.0170927,1 C12.2324606,1 12.4281719,1.08460881 12.5726051,1.22305959 L22.7256623,11.478673 C22.8641131,11.6231062 22.9487219,11.8188175 22.9487219,12.0341854 C22.9487219,12.2495533 22.8641131,12.4452645 22.7256623,12.5896978 L22.7256623,12.6067905 Z M7.70973506,15.2476109 L10.8804289,12.0341854 L7.70973506,8.82075985 L7.70973506,15.2476109 Z M21.0676715,12.0341854 L11.9829073,2.94942118 L7.99176443,6.90637868 L12.5384197,11.4444876 C12.6768705,11.5889208 12.7614793,11.7846321 12.7614793,12 C12.7614793,12.2153679 12.6768705,12.4110792 12.5384197,12.5555124 L7.99176443,17.1619921 L11.9829073,21.1189496 L21.0676715,12.0341854 Z" id="Shape"></path>
        </g>
    </g>
</svg>