<svg xmlns="http://www.w3.org/2000/svg" width="64" height="64" viewBox="0 0 64 64">
  <title>bitpoke</title>
  <path d="M56.18,32.09,32,7.87,21.31,18.42l12.13,12.1a2.15,2.15,0,0,1,0,3L21.31,45.77,32,56.32ZM20.56,40.66,29,32.09l-8.45-8.57Zm40-7L33.44,60.74a2.16,2.16,0,0,1-3,0L16.8,47.06a2.11,2.11,0,0,1-.5-1.29h0V18.42h0a2.1,2.1,0,0,1,.59-1.47L30.56,3.26a2.16,2.16,0,0,1,3,0L60.6,30.61a2.13,2.13,0,0,1,0,3ZM13.06,26.78,7.73,32.09l5.33,5.31a2.15,2.15,0,0,1,.6,1.48,2.09,2.09,0,0,1-3.56,1.48L3.26,33.53a2.16,2.16,0,0,1,0-3l6.84-6.83a2.07,2.07,0,0,1,1.54-.68,2.1,2.1,0,0,1,2.1,2.1,2.07,2.07,0,0,1-.68,1.54h0Z"/>
</svg>
