<svg xmlns="http://www.w3.org/2000/svg" width="64" height="64" viewBox="0 0 64 64">
  <title>celery</title>
  <path d="M61.29,32V55.23a6.3,6.3,0,0,1,0,.65,5.46,5.46,0,0,1-5.46,5.45,5.12,5.12,0,0,1-.69,0H8.91a5.41,5.41,0,0,1-.59,0,5.64,5.64,0,0,1-5.65-5.63,4.3,4.3,0,0,1,0-.62V8.9c0-.17,0-.37,0-.58A5.66,5.66,0,0,1,8.34,2.67a6,6,0,0,1,.74,0H55q6.21,0,6.2,6.19V32.11ZM47.87,14.27c-1-.49-1.82-1-2.69-1.34a40.12,40.12,0,0,0-15.48-3l-1.12,0h.06c-6.64,0-11,4-11.13,10.6-.19,7.52-.14,15,0,22.52.1,6,3.43,9.91,9.43,10.33.65,0,1.4,0,2.16,0a45.61,45.61,0,0,0,9.7-1l-.3.06a82.38,82.38,0,0,0,10-3.12l-.56.19c-.93-2-1.74-3.43-2.36-5s-1.09-1.46-2.52-1A90.52,90.52,0,0,1,32,46.1l-.59.08c-3.77.62-5.69-1.34-5.69-5.18V22a3.78,3.78,0,0,1,0-.6,4.13,4.13,0,0,1,4.13-4.13,3.44,3.44,0,0,1,.46,0h.31a21.5,21.5,0,0,1,4.84.55l-.15,0c3.17.72,6.21,1.67,9.62,2.56l2.94-6.05Z"/>
</svg>
