<?xml version="1.0" encoding="UTF-8"?>
<svg width="24px" height="24px" viewBox="0 0 24 24" version="1.1" xmlns="http://www.w3.org/2000/svg" xmlns:xlink="http://www.w3.org/1999/xlink">
    <!-- Generator: Sketch 48.2 (47327) - http://www.bohemiancoding.com/sketch -->
    <title>celery</title>
    <desc>Created with Sketch.</desc>
    <defs></defs>
    <g id="Page-1" stroke="none" stroke-width="1" fill="none" fill-rule="evenodd">
        <g id="celery" fill="#000000" fill-rule="nonzero">
            <path d="M17.9475836,5.35247344 C17.5676103,5.16670185 17.2651826,4.98867075 16.9394912,4.84934206 C15.2226324,4.12638097 13.2273849,3.70607276 11.1336546,3.70607276 C10.9940726,3.70607276 10.8544906,3.70762086 10.715684,3.7114911 L10.7358459,3.71071705 C8.24663319,3.71071705 6.62593085,5.2123707 6.5638944,7.68932517 C6.49410339,10.5068609 6.5096125,13.3243966 6.5638944,16.1341918 C6.60266718,18.3866723 7.8511508,19.8496235 10.0999722,20.0044332 C10.3419144,20.016818 10.6249557,20.0237844 10.9095479,20.0237844 C12.1580316,20.0237844 13.3747215,19.889874 14.5472105,19.6359862 L14.4347694,19.6561115 C15.8616078,19.3054676 17.0465041,18.9292801 18.1972803,18.4857505 L17.9863563,18.5569629 C17.6374013,17.8293575 17.3349736,17.2720428 17.1023369,16.6915066 C16.8697002,16.1109704 16.6913454,16.1419323 16.156281,16.296742 C14.983792,16.6675111 13.5135281,17.0227992 12.0114704,17.2867497 L11.7904656,17.3184857 C10.3791363,17.5507002 9.6579625,16.8153543 9.6579625,15.3756245 L9.6579625,8.23115896 C9.64710612,8.16304271 9.64167793,8.08563789 9.64167793,8.00591091 C9.64167793,7.15058757 10.3357108,6.45781437 11.1925893,6.45781437 C11.249973,6.45781437 11.3073567,6.46091056 11.3631895,6.46710295 L11.3562104,6.4663289 C11.3926568,6.46555485 11.4360823,6.46555485 11.4795079,6.46555485 C12.1037497,6.46555485 12.7117069,6.53676729 13.2948496,6.67067764 L13.2405677,6.65984097 C14.4270148,6.93075786 15.5669347,7.28682007 16.8464365,7.61966083 L17.9475836,5.35169939 L17.9475836,5.35247344 Z M22.9802908,12.0092886 C22.9802908,14.9042291 22.9802908,17.8069101 22.9802908,20.7095912 C22.9895963,20.7838998 22.9950245,20.8698192 22.9950245,20.9565126 C22.9950245,22.0850749 22.0784359,23 20.9478215,23 C20.860195,23 20.7741195,22.9945817 20.6903703,22.983745 L20.7004512,22.984519 C14.9155519,22.984519 9.1280678,22.984519 3.33799883,22.984519 C3.2720851,22.9914855 3.19453953,22.9961298 3.11699397,22.9961298 C1.94760682,22.9961298 1,22.0502428 1,20.882978 C1,20.8055731 1.00387728,20.7289424 1.01240729,20.6530856 L1.01163183,20.6623742 L1.01163183,3.33917388 C1.00465273,3.27337978 1,3.19752305 1,3.12089227 C1,1.94975723 1.9514841,1 3.12474852,1 C3.21857866,1 3.31163334,1.00619239 3.40236165,1.01780311 L3.39150527,1.01702906 C9.1350469,1.01702906 14.8837582,1.01702906 20.6376393,1.01702906 C22.1885506,1.01702906 22.9640063,1.79107733 22.9640063,3.33917388 C22.9640063,6.2418549 22.9640063,9.13679544 22.9640063,12.0394765 L22.9802908,12.0092886 Z" id="Shape"></path>
        </g>
    </g>
</svg>