<?xml version="1.0" encoding="UTF-8"?>
<svg width="24px" height="24px" viewBox="0 0 24 24" version="1.1" xmlns="http://www.w3.org/2000/svg" xmlns:xlink="http://www.w3.org/1999/xlink">
    <!-- Generator: Sketch 48.2 (47327) - http://www.bohemiancoding.com/sketch -->
    <title>digitalocean</title>
    <desc>Created with Sketch.</desc>
    <defs></defs>
    <g id="Page-1" stroke="none" stroke-width="1" fill="none" fill-rule="evenodd">
        <g id="digitalocean" fill="#000000">
            <path d="M1.77335223,18.7590361 L4.50503189,18.7590361 L4.50503189,16.0273565 L1.77335223,16.0273565 L1.77335223,18.7590361 Z M4.50503189,22.0145996 L7.76059532,22.0145996 L7.76059532,18.7590361 L4.50503189,18.7590361 L4.50503189,22.0145996 Z M7.76059532,18.7590361 L12.0140326,18.7590361 L12.0140326,14.5055989 L7.76059532,14.5055989 L7.76059532,18.7590361 Z M12.0015621,23 L12.0015621,18.7340882 C16.5169425,18.7340882 20.0219753,14.2561281 18.2881691,9.50375258 C17.6520243,7.75747288 16.2425271,6.34797569 14.483774,5.71183094 C9.73139851,3.99049809 5.25343842,7.4830575 5.25343842,11.9984379 L1,11.9984379 C1,4.80127081 7.96017196,-0.811771092 15.506595,1.54570651 C18.7995795,2.5810009 21.4314725,5.20042046 22.4542935,8.49340504 C24.8117711,16.039828 19.1987292,23 12.0015621,23 Z" id="Page-1"></path>
        </g>
    </g>
</svg>