<?xml version="1.0" encoding="UTF-8"?>
<svg width="24px" height="24px" viewBox="0 0 24 24" version="1.1" xmlns="http://www.w3.org/2000/svg" xmlns:xlink="http://www.w3.org/1999/xlink">
    <!-- Generator: Sketch 48.2 (47327) - http://www.bohemiancoding.com/sketch -->
    <title>docker</title>
    <desc>Created with Sketch.</desc>
    <defs></defs>
    <g id="Page-1" stroke="none" stroke-width="1" fill="none" fill-rule="evenodd">
        <g id="docker" fill="#000000" fill-rule="nonzero">
            <path d="M8.31530899,9.04424157 C8.17626404,9.04424157 8.10674157,9.08286517 8.10674157,9.23735955 C8.10674157,9.78838951 8.10674157,10.3368446 8.10674157,10.8827247 C8.10674157,11.0140449 8.16081461,11.068118 8.29985955,11.068118 L10.1460674,11.068118 C10.2851124,11.068118 10.3314607,11.0063202 10.3314607,10.8827247 C10.3314607,10.3265449 10.3314607,9.77808989 10.3314607,9.22963483 C10.3314607,9.09058989 10.2773876,9.04424157 10.1383427,9.04424157 L8.31530899,9.04424157 Z M15.5147472,11.068118 C15.6383427,11.068118 15.7078652,11.068118 15.7078652,10.8904494 C15.7078652,10.3342697 15.7078652,9.77808989 15.7078652,9.22191011 C15.7078652,9.09058989 15.6615169,9.04424157 15.5379213,9.04424157 L13.6376404,9.04424157 C13.5140449,9.04424157 13.4676966,9.09058989 13.4676966,9.22191011 C13.4676966,9.77808989 13.4676966,10.3342697 13.4676966,10.8904494 C13.4676966,11.0372191 13.5372191,11.068118 13.6608146,11.068118 L15.5147472,11.068118 Z M12.8419944,11.068118 C12.9810393,11.068118 13.0351124,11.0294944 13.0273876,10.8827247 L13.0273876,9.23735955 C13.0273876,9.10603933 13.0273876,9.04424157 12.8574438,9.04424157 L10.9726124,9.04424157 C10.8412921,9.04424157 10.7872191,9.08286517 10.7872191,9.22963483 C10.7872191,9.77808989 10.7872191,10.3265449 10.7872191,10.875 C10.7872191,11.0372191 10.8490169,11.068118 10.9957865,11.068118 L12.8419944,11.068118 Z M7.43469101,11.068118 C7.57373596,11.068118 7.62780899,11.0294944 7.62780899,10.875 C7.62780899,10.3342697 7.62780899,9.79353933 7.62780899,9.24508427 C7.62780899,9.08286517 7.57373596,9.04424157 7.41924157,9.04424157 L5.60393258,9.04424157 C5.46488764,9.04424157 5.40308989,9.08286517 5.41081461,9.23735955 C5.41081461,9.78581461 5.41081461,10.3265449 5.41081461,10.8672753 C5.41081461,11.0294944 5.46488764,11.068118 5.61938202,11.068118 L7.45014045,11.068118 L7.43469101,11.068118 Z M4.78511236,11.068118 C4.90870787,11.068118 4.95505618,11.0217697 4.95505618,10.8904494 L4.95505618,9.22191011 C4.95505618,9.09058989 4.90870787,9.04424157 4.78511236,9.04424157 L2.9002809,9.04424157 C2.77668539,9.04424157 2.73033708,9.09058989 2.73033708,9.21418539 C2.73033708,9.77808989 2.73033708,10.3342697 2.73033708,10.8904494 C2.73033708,11.0372191 2.79985955,11.068118 2.92345506,11.068118 L4.8005618,11.068118 L4.78511236,11.068118 Z M8.27668539,6.51053371 C8.13764045,6.51053371 8.09129213,6.56460674 8.09129213,6.69592697 C8.09129213,7.25983146 8.09129213,7.83146067 8.09129213,8.39536517 C8.09129213,8.52668539 8.13764045,8.58848315 8.27668539,8.58848315 L10.130618,8.58848315 C10.2696629,8.58848315 10.3160112,8.52668539 10.3160112,8.39536517 C10.3160112,7.83146067 10.3160112,7.25983146 10.3160112,6.69592697 C10.3160112,6.54143258 10.2464888,6.51053371 10.1074438,6.51053371 C9.80617978,6.51053371 9.50491573,6.51053371 9.20365169,6.51053371 C8.90238764,6.51053371 8.6011236,6.52598315 8.29213483,6.51053371 L8.27668539,6.51053371 Z M12.8188202,8.58848315 C12.9655899,8.58848315 13.0196629,8.53441011 13.0119382,8.38764045 L13.0119382,6.7113764 C13.0119382,6.57233146 13.0119382,6.51053371 12.8265449,6.51053371 C12.2085674,6.51053371 11.5905899,6.51053371 10.9726124,6.51053371 C10.8258427,6.51053371 10.7717697,6.55688202 10.7717697,6.7113764 C10.7717697,7.25983146 10.7717697,7.82373596 10.7717697,8.37991573 C10.7717697,8.54213483 10.8335674,8.58848315 10.9880618,8.58848315 L12.8188202,8.58848315 Z M7.41151685,8.58848315 C7.56601124,8.58848315 7.63553371,8.58848315 7.62780899,8.37991573 C7.62780899,7.83146067 7.62780899,7.26755618 7.62780899,6.7113764 C7.62780899,6.56460674 7.62780899,6.51053371 7.44241573,6.51053371 C6.8244382,6.51053371 6.19873596,6.51053371 5.58075843,6.51053371 C5.43398876,6.51053371 5.38764045,6.56460674 5.39536517,6.7113764 C5.39536517,7.26755618 5.39536517,7.83146067 5.39536517,8.37991573 C5.39536517,8.54985955 5.45716292,8.58848315 5.60393258,8.58848315 L7.41151685,8.58848315 Z M10.7794944,4 C10.7794944,4.61797753 10.7794944,5.22823034 10.7794944,5.84620787 C10.7794944,6.01615169 10.8335674,6.0625 11.0035112,6.0625 L12.7647472,6.0625 C12.9501404,6.0625 13.0042135,6.00842697 13.0042135,5.82303371 C13.0042135,5.2127809 13.0042135,4.60252809 13.0042135,4 L10.7794944,4 Z M1,12.1186798 C1.02626404,12.0283006 1.04557584,11.9232444 1.05407303,11.8150983 L1.05407303,11.809691 C1.05407303,11.616573 1.12359551,11.5238764 1.35533708,11.5238764 C2.01966292,11.5238764 2.68398876,11.5238764 3.34058989,11.5238764 L16.070927,11.5238764 C16.084059,11.5238764 16.098736,11.5238764 16.1141854,11.5238764 C16.6000702,11.5238764 17.0627809,11.4273174 17.485323,11.2519663 L17.4613764,11.2604635 C17.5602528,11.2210674 17.6413624,11.1824438 17.7201545,11.1391854 L17.7085674,11.1445927 C17.4428371,10.6726124 17.2867978,10.1087079 17.2867978,9.50849719 C17.2867978,9.35554775 17.2968399,9.20491573 17.3169242,9.0573736 L17.3153792,9.07436798 C17.4127107,8.31039326 17.720927,7.63216292 18.1782303,7.08293539 L18.172823,7.08911517 C19.0379916,7.54564607 19.6845506,8.31811798 19.9657303,9.2497191 L19.9726826,9.27521067 C20.0576545,9.59964888 20.0499298,9.56875 20.3820927,9.54557584 C20.5613062,9.51081461 20.7683287,9.49073034 20.9792135,9.49073034 C21.7408708,9.49073034 22.4422753,9.74950843 23,10.1844101 L22.9930478,10.1790028 C22.7327247,10.860323 22.2955056,11.425 21.736236,11.8328652 L21.7261938,11.8398174 C21.2163624,12.1511236 20.5991573,12.3357444 19.9386938,12.3357444 C19.8992978,12.3357444 19.8599017,12.3349719 19.8205056,12.333427 L19.8259129,12.333427 C19.8143258,12.331882 19.8011938,12.3311096 19.7872893,12.3311096 C19.6474719,12.3311096 19.5285112,12.4214888 19.4867978,12.5474017 L19.4860253,12.5497191 C18.0322331,15.9841292 14.9794242,18.4900281 11.2870084,19.1520365 L11.2205758,19.1620787 C10.3893961,19.3366573 9.43384831,19.4363062 8.4551264,19.4363062 C8.34080056,19.4363062 8.22724719,19.4347612 8.11369382,19.4324438 L8.1306882,19.4324438 C8.09824438,19.4332163 8.05962079,19.4332163 8.02099719,19.4332163 C6.5741573,19.4332163 5.2184691,19.043118 4.05358146,18.3617978 L4.09066011,18.381882 C2.76664326,17.5414326 1.79641854,16.2444522 1.39627809,14.7172753 L1.38700843,14.6740169 C1.2804073,14.2599719 1.17998596,13.736236 1.10891854,13.2024579 L1.10119382,13.129073 C1.08342697,13.0410112 1.06488764,12.9683989 1.04325843,12.8973315 L1.04712079,12.9127809 L1,12.1186798 Z" id="Shape"></path>
        </g>
    </g>
</svg>