<svg xmlns="http://www.w3.org/2000/svg" width="64" height="64" viewBox="0 0 64 64">
  <title>docker</title>
  <path d="M2.67,33.07a3.9,3.9,0,0,0,.14-.81v0c0-.51.19-.76.8-.76H43a9.67,9.67,0,0,0,3.66-.72l-.07,0c.27-.11.48-.21.69-.32h0a8.89,8.89,0,0,1-1.12-4.36,8.11,8.11,0,0,1,.08-1.21V25a10.26,10.26,0,0,1,2.31-5.31l0,0a9.63,9.63,0,0,1,4.78,5.76l0,.07c.23.86.21.78,1.09.72a8,8,0,0,1,1.59-.15,8.7,8.7,0,0,1,5.39,1.85h0A9.73,9.73,0,0,1,58,32.31h0a9.18,9.18,0,0,1-4.77,1.33h-.4a.87.87,0,0,0-.81.58h0A29.38,29.38,0,0,1,30.1,51.82l-.18,0a36.1,36.1,0,0,1-7.37.73H21.39a21,21,0,0,1-10.58-2.85l.1.05A16.57,16.57,0,0,1,3.72,40l0-.12A33.58,33.58,0,0,1,3,36l0-.2c0-.23-.1-.43-.16-.62v0ZM28.75,11.42v4.92c0,.45.14.58.59.58H34c.49,0,.64-.15.64-.64V11.42Zm-9,12.23c.42,0,.6,0,.58-.55V18.65c0-.39,0-.54-.49-.54h-5c-.39,0-.51.15-.49.54V23.1c0,.45.16.55.55.55Zm14.42,0c.39,0,.54-.14.52-.53V18.65c0-.37,0-.54-.5-.54H29.26c-.39,0-.54.13-.54.54V23.1c0,.43.17.55.58.55ZM22.07,18.11c-.37,0-.49.15-.49.5v4.53c0,.35.12.51.49.51H27c.38,0,.5-.16.5-.51V18.61c0-.41-.19-.5-.56-.5H24.54c-.8,0-1.6,0-2.43,0ZM12.76,30.27c.33,0,.45-.13.45-.48V25.34c0-.35-.12-.47-.45-.47h-5c-.33,0-.45.12-.45.45v4.47c0,.39.19.48.52.48h5Zm7.07,0c.37,0,.51-.11.51-.52V25.41c0-.44-.14-.54-.56-.54H14.94c-.37,0-.53.1-.51.51v4.35c0,.43.14.54.56.54h4.84Zm14.42,0c.37,0,.51-.11.49-.5V25.38c0-.35,0-.51-.45-.51h-5c-.35,0-.49.1-.49.49v4.39c0,.43.16.52.55.52Zm7.12,0c.33,0,.52,0,.52-.48V25.34c0-.35-.13-.47-.46-.47H36.37c-.33,0-.46.12-.46.47v4.45c0,.39.19.48.52.48Zm-19.2-5.4c-.37,0-.55.1-.55.51v4.39c0,.35.14.5.51.5h4.93c.37,0,.49-.17.49-.5V25.36c0-.37-.14-.49-.51-.49Z"/>
</svg>
