<svg xmlns="http://www.w3.org/2000/svg" width="64" height="64" viewBox="0 0 64 64">
  <title>drone</title>
  <path d="M61.33,33.25H44.52a1.32,1.32,0,0,1-1.25-.95h0a12.11,12.11,0,0,0-8-7.77l-.08,0a11.05,11.05,0,0,0-3.07-.43A11.28,11.28,0,0,0,21.72,31l0,.07a3.54,3.54,0,0,1-3.37,2.46,4.07,4.07,0,0,1-.61,0h0c-4.51-.19-9,0-13.56,0H2.67A27.77,27.77,0,0,1,13.38,13.61l.07,0c10-7.75,21.16-8.24,32.5-3.21,8.57,3.83,15.64,14.81,15.38,23Zm-7.77,4.67H44.94l-.27,0A1.37,1.37,0,0,0,43.33,39h0A11.65,11.65,0,0,1,27.8,46.39l.07,0A11.3,11.3,0,0,1,20.93,39l0-.08c-.21-.62-.41-.86-1.09-.86H10.38a4.83,4.83,0,0,0-.7.13h0a1.16,1.16,0,0,0,.1.62,7.38,7.38,0,0,0,.37,1l0,0A32.54,32.54,0,0,0,21.46,53.4l.11.07a18.89,18.89,0,0,0,17.67,2.22l-.13,0A25.5,25.5,0,0,0,52.73,44.24l.07-.13A13.34,13.34,0,0,0,54.85,38v0Zm-29-2.06a7.52,7.52,0,0,0,15,0v0a7.52,7.52,0,0,0-15,0Z"/>
</svg>
