<?xml version="1.0" encoding="UTF-8"?>
<svg width="24px" height="24px" viewBox="0 0 24 24" version="1.1" xmlns="http://www.w3.org/2000/svg" xmlns:xlink="http://www.w3.org/1999/xlink">
    <!-- Generator: Sketch 48.2 (47327) - http://www.bohemiancoding.com/sketch -->
    <title>drone</title>
    <desc>Created with Sketch.</desc>
    <defs></defs>
    <g id="Page-1" stroke="none" stroke-width="1" fill="none" fill-rule="evenodd">
        <g id="drone" fill="#000000" fill-rule="nonzero">
            <path d="M9.22384317,13.8017691 C9.3042266,15.2950459 10.5347114,16.475291 12.0411278,16.475291 C13.5475442,16.475291 14.778029,15.2950459 14.8584124,13.8087253 L14.8584124,13.8017691 C14.778029,12.3084923 13.5475442,11.1282471 12.0411278,11.1282471 C10.5347114,11.1282471 9.3042266,12.3084923 9.22384317,13.7948128 L9.22384317,13.8017691 Z M20.0833353,14.5746867 C19.0089799,14.5746867 17.9268952,14.5746867 16.8525398,14.5746867 C16.822396,14.5685033 16.7876147,14.5646387 16.7520605,14.5646387 C16.5024081,14.5646387 16.2944933,14.7439556 16.250437,14.9812413 L16.2496641,14.984333 C15.6846613,16.7867768 14.0298448,18.0713659 12.0743632,18.0713659 C11.4900375,18.0713659 10.932764,17.9569741 10.4234113,17.7482863 L10.4527821,17.7591071 C9.1813327,17.282217 8.21750447,16.2472803 7.84727694,14.9603726 L7.84032068,14.9302288 C7.76302892,14.6983535 7.68573716,14.6056034 7.43067436,14.6056034 C6.25583962,14.6056034 5.11192159,14.6056034 3.89071179,14.6056034 C3.79718876,14.6164242 3.71294075,14.6326555 3.6317844,14.6550701 L3.64415108,14.6519784 C3.64415108,14.7524577 3.64415108,14.8220203 3.68279696,14.8838537 C3.72221576,15.0260705 3.76704498,15.1466457 3.82037629,15.2625833 L3.81419295,15.247125 C4.75637949,17.3718754 6.22028541,19.1186692 8.0474626,20.3762061 L8.08842723,20.4024853 C9.22461609,21.2171405 10.6436928,21.7056244 12.1771613,21.7056244 C13.0714269,21.7056244 13.9270467,21.5394471 14.7146497,21.2364634 L14.6659559,21.2526947 C16.8811377,20.4488604 18.6688961,18.9123002 19.7733954,16.9413603 L19.7981287,16.8934394 C20.2232334,16.2341407 20.5014837,15.4426731 20.5695005,14.5924638 L20.5710463,14.5746867 L20.0833353,14.5746867 Z M22.9972346,12.8201637 L22.5798591,12.8201637 C20.639836,12.8201637 18.7152712,12.8201637 16.7597897,12.8201637 C16.7404667,12.8224825 16.7188251,12.8240283 16.6964104,12.8240283 C16.4730373,12.8240283 16.2844454,12.6733094 16.2272495,12.4677133 L16.2264765,12.4646216 C15.7480406,11.0501825 14.6273101,9.96809783 13.2206,9.55149525 L13.1889104,9.54299315 C12.8434163,9.44174095 12.4469095,9.38299921 12.0372632,9.38299921 C10.2889236,9.38299921 8.78869057,10.4442151 8.14485021,11.9575877 L8.13402937,11.9854127 C7.95625832,12.5249092 7.45695356,12.9075034 6.86876327,12.9075034 C6.79147151,12.9075034 6.71572559,12.9005472 6.64229842,12.8881805 L6.65002759,12.8889534 C4.95733807,12.8193908 3.25691937,12.8889534 1.56422984,12.8889534 L1,12.8889534 C1.24501488,9.84520393 2.76457086,7.1987341 5.01839856,5.45580493 L5.042359,5.43802783 C8.80646767,2.53185768 12.9802227,2.34635746 17.2312694,4.23227638 C20.4466066,5.6699031 23.0977139,9.78955387 22.9972346,12.8503075 L22.9972346,12.8201637 Z" id="Shape"></path>
        </g>
    </g>
</svg>