<svg xmlns="http://www.w3.org/2000/svg" width="64" height="64" viewBox="0 0 64 64">
  <title>eu-flag-light</title>
  <path d="M30.57,55l-3.18.47,2.3,2.25-.54,3.17L32,59.38l2.85,1.5-.54-3.17,2.31-2.25L33.43,55,32,52.1ZM18.21,51.68,15,52.15l2.3,2.24-.54,3.18,2.85-1.5,2.85,1.5L22,54.39l2.31-2.24-3.19-.47-1.43-2.89Zm24.72,0-3.19.47,2.31,2.24-.54,3.18,2.85-1.5,2.85,1.5-.54-3.18L49,52.15l-3.18-.47-1.43-2.89Zm-33.76-9L6,43.1l2.31,2.25-.55,3.17L10.59,47l2.85,1.5-.54-3.17,2.31-2.25L12,42.63l-1.43-2.89Zm42.81,0-3.19.47,2.31,2.25-.54,3.17L53.41,47l2.85,1.5-.55-3.17L58,43.1l-3.19-.47-1.42-2.89ZM5.86,30.28l-3.19.46L5,33l-.54,3.17,2.85-1.5,2.85,1.5L9.59,33l2.31-2.25-3.19-.46L7.28,27.39Zm49.43,0-3.19.46L54.41,33l-.54,3.17,2.85-1.5,2.85,1.5L59,33l2.3-2.25h0l-3.18-.46-1.43-2.89ZM9.17,17.91,6,18.38l2.31,2.25L7.74,23.8l2.85-1.5,2.85,1.5-.54-3.17,2.31-2.25L12,17.91,10.59,15Zm42.81,0-3.19.47,2.31,2.25-.54,3.17,2.85-1.5,2.85,1.5-.55-3.17L58,18.38l-3.19-.47L53.41,15Zm-33.77-9L15,9.33l2.3,2.25-.54,3.18,2.85-1.5,2.85,1.5L22,11.58l2.31-2.25-3.19-.46L19.64,6Zm24.72,0-3.19.46,2.31,2.25-.54,3.18,2.85-1.5,2.85,1.5-.54-3.18L49,9.33l-3.18-.46L44.36,6ZM32,2.67,30.57,5.56,27.39,6l2.3,2.25-.54,3.18L32,9.94l2.85,1.51-.54-3.18L36.62,6l-3.19-.46Z" fill-rule="evenodd"/>
</svg>
