<?xml version="1.0" encoding="UTF-8"?>
<svg width="24px" height="24px" viewBox="0 0 24 24" version="1.1" xmlns="http://www.w3.org/2000/svg" xmlns:xlink="http://www.w3.org/1999/xlink">
    <!-- Generator: Sketch 48.2 (47327) - http://www.bohemiancoding.com/sketch -->
    <title>eu-flag-alt</title>
    <desc>Created with Sketch.</desc>
    <defs></defs>
    <g id="Page-1" stroke="none" stroke-width="1" fill="none" fill-rule="evenodd">
        <g id="eu-flag-alt" fill="#000000">
            <path d="M12.0002595,1 L11.465226,2.08341507 L10.2698358,2.25731024 L11.1348623,3.10083156 L10.9305633,4.2921432 L12.0002595,3.72930128 L13.069585,4.2921432 L12.865286,3.10083156 L13.7306833,2.25731024 L12.5349223,2.08341507 L12.0002595,1 Z M16.0999585,3.32552339 L14.9041976,3.49904777 L15.7695948,4.34256909 L15.5652958,5.53350996 L16.6349921,4.9714096 L17.7046883,5.53350996 L17.5000185,4.34256909 L18.3654158,3.49904777 L17.1696548,3.32552339 L16.6349921,2.24210831 L16.0999585,3.32552339 Z M6.83049351,3.32552339 L5.6351033,3.49904777 L6.50012977,4.34256909 L6.29583076,5.53350996 L7.36552703,4.9714096 L8.43485251,5.53350996 L8.23092428,4.34256909 L9.09595076,3.49904777 L7.90018977,3.32552339 L7.36552703,2.24210831 L6.83049351,3.32552339 Z M19.4933243,6.71814759 L18.2971925,6.89204275 L19.1625898,7.73593485 L18.9582908,8.92650494 L20.0276163,8.3640338 L21.0973125,8.92650494 L20.8930135,7.73593485 L21.7584108,6.89204275 L20.562279,6.71814759 L20.0276163,5.63473252 L19.4933243,6.71814759 Z M3.4378693,6.71814759 L2.24210831,6.89204275 L3.10713479,7.73593485 L2.90283578,8.92650494 L3.97253205,8.3640338 L5.04185753,8.92650494 L4.83755852,7.73593485 L5.70295578,6.89204275 L4.50719479,6.71814759 L3.97253205,5.63473252 L3.4378693,6.71814759 Z M20.7346911,11.3532509 L19.5389301,11.5267753 L20.4046981,12.3706674 L20.2000283,13.5612375 L21.2693538,12.9987663 L22.3394208,13.5612375 L22.1347511,12.3706674 L23.0001483,11.527146 L23.0001483,11.5267753 L21.8043873,11.3532509 L21.2693538,10.269465 L20.7346911,11.3532509 Z M2.19576099,11.3532509 L1,11.5267753 L1.86539726,12.3706674 L1.66109825,13.5612375 L2.73079451,12.9987663 L3.80012,13.5612375 L3.59582099,12.3706674 L4.46121824,11.5267753 L3.26582803,11.3532509 L2.73079451,10.269465 L2.19576099,11.3532509 Z M19.4933243,15.9879834 L18.2971925,16.1618786 L19.1625898,17.0050291 L18.9582908,18.19597 L20.0276163,17.6334988 L21.0973125,18.19597 L20.8930135,17.0050291 L21.7584108,16.1618786 L20.562279,15.9879834 L20.0276163,14.9041976 L19.4933243,15.9879834 Z M3.4378693,15.9879834 L2.24210831,16.1618786 L3.10713479,17.0050291 L2.90283578,18.19597 L3.97253205,17.6334988 L5.04185753,18.19597 L4.83755852,17.0050291 L5.70295578,16.1618786 L4.50719479,15.9879834 L3.97253205,14.9041976 L3.4378693,15.9879834 Z M16.0999585,19.3809784 L14.9041976,19.5545028 L15.7695948,20.3980241 L15.5652958,21.5885942 L16.6349921,21.0264938 L17.7046883,21.5885942 L17.5000185,20.3980241 L18.3654158,19.5545028 L17.1696548,19.3809784 L16.6349921,18.2975633 L16.0999585,19.3809784 Z M6.83049351,19.3809784 L5.6351033,19.5545028 L6.50012977,20.3980241 L6.29583076,21.5885942 L7.36552703,21.0264938 L8.43485251,21.5885942 L8.23092428,20.3980241 L9.09595076,19.5545028 L7.90018977,19.3809784 L7.36552703,18.2975633 L6.83049351,19.3809784 Z M11.465226,20.6227159 L10.2698358,20.7966111 L11.1348623,21.6397616 L10.9305633,22.8307025 L12.0002595,22.2686021 L13.069585,22.8307025 L12.865286,21.6397616 L13.7306833,20.7966111 L12.5349223,20.6227159 L12.0002595,19.5389301 L11.465226,20.6227159 Z" id="Page-1"></path>
        </g>
    </g>
</svg>