<?xml version="1.0" encoding="UTF-8"?>
<svg width="24px" height="24px" viewBox="0 0 24 24" version="1.1" xmlns="http://www.w3.org/2000/svg" xmlns:xlink="http://www.w3.org/1999/xlink">
    <!-- Generator: Sketch 48.2 (47327) - http://www.bohemiancoding.com/sketch -->
    <title>eu-flag</title>
    <desc>Created with Sketch.</desc>
    <defs></defs>
    <g id="Page-1" stroke="none" stroke-width="1" fill="none" fill-rule="evenodd">
        <g id="eu-flag" fill="#000000">
            <path d="M2,1 L22,1 C22.5522847,1 23,1.44771525 23,2 L23,22 C23,22.5522847 22.5522847,23 22,23 L2,23 C1.44771525,23 1,22.5522847 1,22 L1,2 C1,1.44771525 1.44771525,1 2,1 Z M5.59835806,6.62903226 L5.0961,7.64719355 L3.97226129,7.81035484 L4.78545484,8.60293548 L4.59355161,9.72183871 L5.59835806,9.19345161 L6.60345484,9.72183871 L6.41155161,8.60293548 L7.22445484,7.81035484 L6.10090645,7.64719355 L5.59835806,6.62903226 Z M4.12354839,11.2762548 L3,11.4394161 L3.81319355,12.2319968 L3.621,13.3509 L4.62609677,12.8225129 L5.63090323,13.3509 L5.43929032,12.2319968 L6.25190323,11.4394161 L5.12835484,11.2762548 L4.62609677,10.2580935 L4.12354839,11.2762548 Z M5.09595484,14.905229 L3.97240645,15.0683903 L4.78530968,15.860971 L4.59340645,16.9798742 L5.5982129,16.4517774 L6.60330968,16.9798742 L6.41140645,15.860971 L7.2246,15.0683903 L6.10076129,14.905229 L5.5982129,13.8870677 L5.09595484,14.905229 Z M7.75252258,17.5617968 L6.62897419,17.7249581 L7.44216774,18.5175387 L7.25026452,19.6364419 L8.25507097,19.1083452 L9.25987742,19.6364419 L9.06797419,18.5175387 L9.88116774,17.7249581 L8.75761935,17.5617968 L8.25507097,16.5436355 L7.75252258,17.5617968 Z M11.381671,18.5343774 L10.2581226,18.6975387 L11.0710258,19.489829 L10.8791226,20.6090226 L11.8842194,20.0806355 L12.8890258,20.6090226 L12.6971226,19.489829 L13.5100258,18.6975387 L12.3864774,18.5343774 L11.8842194,17.5162161 L11.381671,18.5343774 Z M15.0105871,17.5617968 L13.8870387,17.7249581 L14.7002323,18.5175387 L14.508329,19.6364419 L15.5131355,19.1083452 L16.5179419,19.6364419 L16.3260387,18.5175387 L17.1392323,17.7249581 L16.0156839,17.5617968 L15.5131355,16.5436355 L15.0105871,17.5617968 Z M17.6673,14.905229 L16.5437516,15.0683903 L17.3566548,15.860971 L17.1647516,16.9798742 L18.1698484,16.4517774 L19.1746548,16.9798742 L18.9827516,15.860971 L19.7959452,15.0683903 L18.6721065,14.905229 L18.1698484,13.8870677 L17.6673,14.905229 Z M18.6395323,11.2762548 L17.5162742,11.4394161 L18.3291774,12.2319968 L18.1372742,13.3509 L19.142371,12.8225129 L20.1471774,13.3509 L19.9549839,12.2319968 L20.7678871,11.4394161 L19.644629,11.2762548 L19.142371,10.2580935 L18.6395323,11.2762548 Z M17.6673,7.64716452 L16.5437516,7.81032581 L17.3566548,8.60290645 L17.1647516,9.72180968 L18.1698484,9.1937129 L19.1746548,9.72180968 L18.9827516,8.60290645 L19.7959452,7.81032581 L18.6721065,7.64716452 L18.1698484,6.62900323 L17.6673,7.64716452 Z M11.8841323,2.99988387 L11.3815839,4.01804516 L10.2580355,4.18149677 L11.0709387,4.9737871 L10.8793258,6.09298065 L11.8841323,5.56430323 L12.8889387,6.09298065 L12.6970355,4.9737871 L13.510229,4.18149677 L12.3866806,4.01804516 L11.8841323,2.99988387 Z M7.75252258,4.99045161 L6.62897419,5.1536129 L7.44216774,5.94619355 L7.25026452,7.06509677 L8.25507097,6.537 L9.25987742,7.06509677 L9.06797419,5.94619355 L9.88116774,5.1536129 L8.75761935,4.99045161 L8.25507097,3.97229032 L7.75252258,4.99045161 Z M15.0105871,4.99045161 L13.8870387,5.1536129 L14.7002323,5.94619355 L14.508329,7.06509677 L15.5131355,6.537 L16.5179419,7.06509677 L16.3260387,5.94619355 L17.1392323,5.1536129 L16.0156839,4.99045161 L15.5131355,3.97229032 L15.0105871,4.99045161 Z" id="Combined-Shape"></path>
        </g>
    </g>
</svg>