<svg xmlns="http://www.w3.org/2000/svg" width="64" height="64" viewBox="0 0 64 64">
  <title>eu-flag-dark</title>
  <path d="M40.21,12.88l-3.06.45,2.21,2.16-.52,3,2.74-1.44,2.74,1.44-.52-3L46,13.33,43,12.88l-1.37-2.77Zm-19.79,0-3.07.45,2.22,2.16-.52,3,2.74-1.44,2.74,1.44-.53-3,2.22-2.16-3.06-.45-1.37-2.77ZM31.68,7.45l-1.37,2.78-3.06.45,2.22,2.16-.53,3.05,2.74-1.44,2.74,1.44-.52-3.05,2.22-2.16-3.07-.45ZM47.46,20.13l-3.07.44,2.22,2.17-.52,3.05,2.74-1.44,2.74,1.44L51,22.74l2.22-2.17-3.06-.44-1.37-2.78ZM50.11,30,47,30.47l2.22,2.16-.52,3,2.74-1.44,2.74,1.44-.52-3,2.21-2.16L52.85,30l-1.37-2.78Zm-2.65,9.89-3.07.45,2.22,2.16-.52,3,2.74-1.44,2.74,1.44-.53-3,2.22-2.16-3.06-.45-1.37-2.77Zm-7.25,7.25-3.06.44,2.21,2.16-.52,3.06,2.74-1.44,2.74,1.44-.52-3.06L46,47.61,43,47.17l-1.37-2.78Zm-9.9,2.65-3.06.45,2.22,2.16-.53,3L31.68,54l2.74,1.44-.52-3,2.22-2.16-3.07-.45L31.68,47Zm-9.89-2.65-3.07.44,2.22,2.16-.52,3.06,2.74-1.44,2.74,1.44L24,49.77l2.22-2.16-3.06-.44-1.37-2.78Zm-7.25-7.25-3.06.45,2.21,2.16-.52,3,2.74-1.44,2.74,1.44-.52-3L19,40.37l-3.07-.45-1.37-2.77ZM10.52,30l-3.07.44,2.22,2.16-.52,3,2.74-1.44,2.74,1.44-.52-3,2.21-2.16L13.26,30l-1.37-2.78Zm4-12.68-1.37,2.78-3.06.44,2.21,2.17-.52,3.05,2.74-1.44,2.74,1.44-.52-3.05L19,20.57l-3.07-.44ZM4.73,2H59.27A2.73,2.73,0,0,1,62,4.73V59.27A2.73,2.73,0,0,1,59.27,62H4.73A2.73,2.73,0,0,1,2,59.27V4.73A2.73,2.73,0,0,1,4.73,2Z" fill-rule="evenodd"/>
</svg>
