<?xml version="1.0" encoding="UTF-8"?>
<svg width="24px" height="24px" viewBox="0 0 24 24" version="1.1" xmlns="http://www.w3.org/2000/svg" xmlns:xlink="http://www.w3.org/1999/xlink">
    <!-- Generator: Sketch 48.2 (47327) - http://www.bohemiancoding.com/sketch -->
    <title>facebook</title>
    <desc>Created with Sketch.</desc>
    <defs></defs>
    <g id="Page-1" stroke="none" stroke-width="1" fill="none" fill-rule="evenodd">
        <g id="facebook" fill="#000000" fill-rule="nonzero">
            <path d="M9.36684615,23 L9.36684615,12.9510769 L6,12.9510769 L6,9.04438462 L9.36684615,9.04438462 L9.36684615,6.16576923 C9.36684615,4.487 9.83307692,3.20592308 10.7672308,2.32338462 C11.7013846,1.44169231 12.9139231,1 14.404,1 C15.1232308,1 15.7620769,1.01692308 16.3188462,1.05161538 C16.8756154,1.08630769 17.2394615,1.12015385 17.4112308,1.154 L17.4112308,4.64946154 L15.3550769,4.64946154 C14.5326154,4.64946154 14.0012308,4.82546154 13.7617692,5.17661538 C13.5214615,5.52776923 13.4021538,5.98638462 13.4021538,6.55161538 L13.4021538,9.04438462 L17.2826154,9.04438462 L16.769,12.9764615 L13.4021538,12.9764615 L13.4021538,23 L9.36684615,23 Z" id="Shape"></path>
        </g>
    </g>
</svg>