<?xml version="1.0" encoding="UTF-8"?>
<svg width="24px" height="24px" viewBox="0 0 24 24" version="1.1" xmlns="http://www.w3.org/2000/svg" xmlns:xlink="http://www.w3.org/1999/xlink">
    <!-- Generator: Sketch 48.2 (47327) - http://www.bohemiancoding.com/sketch -->
    <title>git</title>
    <desc>Created with Sketch.</desc>
    <defs></defs>
    <g id="Page-1" stroke="none" stroke-width="1" fill="none" fill-rule="evenodd">
        <g id="git" fill="#000000" fill-rule="nonzero">
            <path d="M22.5849265,11.0202411 L12.9797589,1.41507352 C12.4263275,0.861642159 11.5295392,0.861642159 10.9761078,1.41507352 L8.98216614,3.40989789 L11.5118859,5.93961765 C12.0997412,5.74101787 12.7740978,5.87430039 13.2427932,6.34299585 C13.7141367,6.8143393 13.8465365,7.49487452 13.6426408,8.08449518 L16.081446,10.5233004 C16.6719493,10.3202873 17.3516018,10.4518044 17.8229453,10.9231479 C18.4814139,11.5816165 18.4814139,12.6487593 17.8229453,13.3072278 C17.1644767,13.9656964 16.0973339,13.9656964 15.4379827,13.3072278 C14.9428073,12.8111697 14.8201168,12.0838532 15.0716765,11.4739313 L12.7970471,9.20018456 L12.7970471,15.1846577 C12.9576922,15.2640976 13.1086281,15.3700175 13.2427932,15.5033 C13.9012618,16.1617685 13.9012618,17.2280286 13.2427932,17.8873799 C12.5843247,18.5458485 11.5171819,18.5458485 10.8587133,17.8873799 C10.2002447,17.2280286 10.2002447,16.1608859 10.8587133,15.5033 C11.0211238,15.3408895 11.2100142,15.2173163 11.411262,15.1352284 L11.411262,9.09514734 C11.2100142,9.01305944 11.0220065,8.89125158 10.8587133,8.72707577 C10.3600072,8.22836968 10.2399647,7.49663985 10.4959377,6.88406989 L8.0015246,4.38965676 L1.41507352,10.9752252 C0.861642159,11.5286565 0.861642159,12.4263275 1.41507352,12.9797589 L11.0211238,22.5849265 C11.5745552,23.1383578 12.4713435,23.1383578 13.0247748,22.5849265 L22.5849265,13.0247748 C23.1383578,12.4713435 23.1383578,11.5736725 22.5849265,11.0202411 Z" id="Shape"></path>
        </g>
    </g>
</svg>