<svg xmlns="http://www.w3.org/2000/svg" width="64" height="64" viewBox="0 0 64 64">
  <title>gitea</title>
  <path d="M46.73,49.6H29.09a5.51,5.51,0,0,1-2.58-1.17h0a23.69,23.69,0,0,1-6.94-8.85l-.06-.15a1.08,1.08,0,0,0-1-.74H18.4a21.39,21.39,0,0,1-6.8-1.3l.15.05A12.74,12.74,0,0,1,2.83,26.11v0a10.35,10.35,0,0,0-.16-1.35v-1a11.74,11.74,0,0,1,.24-1.84A10,10,0,0,1,11,13.57h.06l1.58-.23h1.14l2.91.17,5.83.3c2.7.15,5.38.31,8.06.41,2.19,0,4.4,0,6.58.15h.31v9.86c0,.14,0,.36.1.4a13.36,13.36,0,0,0,1.42.74l.1,0v-11h.47c1.29,0,2.6,0,3.88-.11,2.75,0,5.49-.2,8.19-.32l3.6-.19,3.88-.18h.1a1.29,1.29,0,0,1,1,.5h0a3,3,0,0,1,.56.94v0a8.12,8.12,0,0,1,.51,2.89v.23h0A32.92,32.92,0,0,1,60.58,25l0-.21a62.07,62.07,0,0,1-4.11,13.88l.16-.4a32.18,32.18,0,0,1-4.29,7.68l0-.08a10.24,10.24,0,0,1-4,3.25l-.07,0a10.5,10.5,0,0,1-1.54.45l-.07,0Zm-29.07-16a1.15,1.15,0,0,0-.14-.49c-.56-1.64-1.13-3.3-1.62-4.95a48.84,48.84,0,0,1-1.81-9.5v-.2c0-.25,0-.35-.35-.33a8.77,8.77,0,0,0-2,.25A5,5,0,0,0,7.6,22.2v0A7.69,7.69,0,0,0,7.39,24a8,8,0,0,0,.22,1.84v-.06a8.19,8.19,0,0,0,4.79,6.36l0,0a19,19,0,0,0,2.85,1l.14,0a17.19,17.19,0,0,0,2.13.41Zm18-9.09A2.59,2.59,0,0,0,32,25.77v0q-2.4,4.91-4.77,9.82a2.49,2.49,0,0,0-.33,1.26,2.56,2.56,0,0,0,1.56,2.35h0l2.21,1.06L38.3,44a2.6,2.6,0,0,0,3.63-1.24h0c.18-.41.39-.82.59-1.23q2.09-4.26,4.09-8.55A2.61,2.61,0,0,0,47,31.66c0-.1,0-.2,0-.3h0a2.63,2.63,0,0,0-1.56-2h0l-4.95-2.41Z"/>
</svg>
