<?xml version="1.0" encoding="UTF-8"?>
<svg width="24px" height="24px" viewBox="0 0 24 24" version="1.1" xmlns="http://www.w3.org/2000/svg" xmlns:xlink="http://www.w3.org/1999/xlink">
    <!-- Generator: Sketch 48.2 (47327) - http://www.bohemiancoding.com/sketch -->
    <title>gitea</title>
    <desc>Created with Sketch.</desc>
    <defs></defs>
    <g id="Page-1" stroke="none" stroke-width="1" fill="none" fill-rule="evenodd">
        <g id="gitea" fill="#000000" fill-rule="nonzero">
            <path d="M17.5224365,18.6007113 L10.9103936,18.6007113 C10.5391374,18.5355113 10.2116035,18.3813326 9.94006485,18.1604198 L9.94390014,18.163488 C8.82015969,17.2760015 7.92883791,16.1438234 7.34280534,14.8444266 L7.32056065,14.7884314 C7.26533245,14.625815 7.1134549,14.5107562 6.93473031,14.5107562 C6.92169032,14.5107562 6.90941738,14.5115233 6.89714445,14.5122904 L6.89867857,14.5122904 C5.99738503,14.4854433 5.14441616,14.3159234 4.34897667,14.0259754 L4.40573899,14.0436177 C2.53795195,13.4514487 1.18562812,11.7884662 1.06213172,9.79258045 L1.06136467,9.7787734 C1.06136467,9.61002057 1.02301175,9.44126774 1,9.27251491 L1,8.88898574 C1,8.65886824 1.05369408,8.42875074 1.092047,8.19863324 C1.34440919,6.60545309 2.5740037,5.36051742 4.13803563,5.08744465 L4.16028032,5.08437642 L4.75091524,5 L5.18046791,5 L6.26969074,5.06136467 L8.45580698,5.17642342 C9.46832398,5.2301175 10.4731704,5.29148217 11.4780168,5.32983508 C12.2987692,5.32983508 13.1271922,5.32983508 13.9479446,5.38352917 L14.0630034,5.38352917 L14.0630034,9.08075032 C14.0630034,9.13444441 14.0630034,9.21882082 14.1013563,9.23416199 C14.255535,9.32697605 14.4419302,9.42439245 14.6336948,9.5118371 L14.6689795,9.52564415 L14.6689795,5.38352917 L14.8454029,5.38352917 C15.3286496,5.38352917 15.819567,5.38352917 16.3028137,5.34517625 C17.3306719,5.34517625 18.35853,5.26847042 19.371047,5.22244692 L20.7210697,5.15341167 L22.1784805,5.08437642 C22.1899864,5.08360936 22.2030264,5.0828423 22.2160664,5.0828423 C22.368711,5.0828423 22.5052474,5.15494578 22.591925,5.2669363 L22.592692,5.26770336 C22.6824379,5.36972212 22.7553084,5.48938322 22.8051672,5.62055019 L22.8074684,5.62822077 C22.9294306,5.95115233 23,6.32394268 23,6.71360831 C23,6.74198947 23,6.77037063 22.9992329,6.79798473 L22.9992329,6.79414944 C22.9938635,7.68010181 22.8964471,8.5399742 22.7161884,9.36916426 L22.7307625,9.28708901 C22.3963251,11.193229 21.882396,12.8891949 21.1928106,14.4923468 L21.2503399,14.3420034 C20.8207873,15.4319933 20.2869147,16.3731739 19.6410516,17.2253757 L19.6625292,17.1954604 C19.2674942,17.7254977 18.7504968,18.1435445 18.1529584,18.412782 L18.1284125,18.4227537 C17.9627279,18.4871866 17.7602245,18.5477842 17.5515847,18.5938077 L17.5224365,18.5991772 L17.5224365,18.6007113 Z M13.3726509,9.19657613 C13.2361145,9.11910324 13.0727311,9.07307974 12.8986088,9.07307974 C12.4959032,9.07307974 12.150727,9.31700429 12.0019176,9.66524877 L11.9996165,9.67138524 C11.401311,10.8986786 10.8055623,12.1259719 10.2123706,13.3532652 C10.1341306,13.4890346 10.0881071,13.6516509 10.0881071,13.8250061 C10.0881071,14.2223423 10.3297305,14.5629162 10.6741397,14.7086573 L10.6802761,14.7109585 L11.5086991,15.1098288 L14.3621561,16.4982044 C14.4979255,16.5741432 14.6597748,16.6193996 14.8323629,16.6193996 C15.2312332,16.6193996 15.5741083,16.3800774 15.7244517,16.0364353 L15.7267529,16.0302988 C15.7957882,15.8768871 15.872494,15.7234755 15.9491998,15.5700638 C16.4707995,14.5038527 16.9847286,13.4376416 17.4833165,12.36376 C17.5638576,12.2226212 17.6114152,12.0531014 17.6114152,11.8720756 C17.6114152,11.8344897 17.609114,11.7976709 17.6052788,11.7608521 L17.6060458,11.7654545 C17.5538858,11.4187441 17.3283707,11.1341655 17.0215474,11.0006973 L17.0154109,10.9983962 L15.1591297,10.0932673 L13.3726509,9.19657613 Z M6.62253757,12.6023151 C6.62253757,12.5102681 6.58418465,12.4642446 6.56884349,12.4182211 C6.36173774,11.8045745 6.1469614,11.1832572 5.9628674,10.56194 C5.64300408,9.50876887 5.4013807,8.27227084 5.2855549,6.99972107 L5.28018549,6.92608347 C5.28018549,6.83403647 5.28018549,6.79568355 5.14978557,6.80335414 C4.88131516,6.80335414 4.61284474,6.84170705 4.38272724,6.89540114 C3.61720303,7.01276106 3.01352812,7.58652069 2.85091175,8.32519787 L2.84861058,8.3374708 C2.79951885,8.53767302 2.77113769,8.76779052 2.77113769,9.00481155 C2.77113769,9.24183257 2.79951885,9.47195007 2.85244587,9.69209581 L2.84861058,9.6721523 C3.00202224,10.7506363 3.69851121,11.6373557 4.64659531,12.0577037 L4.66653882,12.0653743 C4.97566333,12.2011436 5.34845368,12.3300094 5.73351696,12.429727 L5.78644399,12.4412329 C6.01195914,12.5018305 6.29500366,12.5578257 6.58418465,12.5977128 L6.62253757,12.6023151 Z" id="Shape"></path>
        </g>
    </g>
</svg>