<?xml version="1.0" encoding="UTF-8"?>
<svg width="24px" height="24px" viewBox="0 0 24 24" version="1.1" xmlns="http://www.w3.org/2000/svg" xmlns:xlink="http://www.w3.org/1999/xlink">
    <!-- Generator: Sketch 48.2 (47327) - http://www.bohemiancoding.com/sketch -->
    <title>gitfs</title>
    <desc>Created with Sketch.</desc>
    <defs></defs>
    <g id="Page-1" stroke="none" stroke-width="1" fill="none" fill-rule="evenodd">
        <g id="gitfs" fill="#000000">
            <path d="M18,20.2002 L6,20.2002 C4.787,20.2002 3.8,19.2132 3.8,18.0002 C3.8,16.7872 4.787,15.8002 6,15.8002 L18,15.8002 C19.213,15.8002 20.2,16.7872 20.2,18.0002 C20.2,19.2132 19.213,20.2002 18,20.2002 M21.656,17.0232 L18.175,4.2592 C17.842,3.0472 16.731,2.2002 15.475,2.2002 L7,2.2002 C6.559,2.2002 6.2,2.5582 6.2,3.0002 C6.2,3.4422 6.559,3.8002 7,3.8002 L15.475,3.8002 C16.014,3.8002 16.489,4.1632 16.632,4.6822 L19.307,14.4462 C18.897,14.2952 18.461,14.2002 18,14.2002 L6,14.2002 C5.541,14.2002 5.107,14.2942 4.699,14.4442 L6.566,7.6802 C6.709,7.1622 7.185,6.8002 7.723,6.8002 L14,6.8002 C14.441,6.8002 14.8,6.4422 14.8,6.0002 C14.8,5.5582 14.441,5.2002 14,5.2002 L7.723,5.2002 C6.468,5.2002 5.357,6.0452 5.023,7.2552 C5.185,7.2692 2.33,17.0672 2.33,17.0672 C2.254,17.3672 2.2,17.6762 2.2,18.0002 C2.2,20.0952 3.904,21.8002 6,21.8002 L18,21.8002 C20.096,21.8002 21.8,20.0952 21.8,18.0002 C21.8,17.6602 21.74,17.3372 21.656,17.0232" id="Fill-1"></path>
            <path d="M7,17.2002 L6,17.2002 C5.559,17.2002 5.2,17.5582 5.2,18.0002 C5.2,18.4422 5.559,18.8002 6,18.8002 L7,18.8002 C7.441,18.8002 7.8,18.4422 7.8,18.0002 C7.8,17.5582 7.441,17.2002 7,17.2002" id="Fill-3"></path>
            <path d="M11,17.2002 L10,17.2002 C9.559,17.2002 9.2,17.5582 9.2,18.0002 C9.2,18.4422 9.559,18.8002 10,18.8002 L11,18.8002 C11.441,18.8002 11.8,18.4422 11.8,18.0002 C11.8,17.5582 11.441,17.2002 11,17.2002" id="Fill-5"></path>
        </g>
    </g>
</svg>