<?xml version="1.0" encoding="UTF-8"?>
<svg width="24px" height="24px" viewBox="0 0 24 24" version="1.1" xmlns="http://www.w3.org/2000/svg" xmlns:xlink="http://www.w3.org/1999/xlink">
    <!-- Generator: Sketch 48.2 (47327) - http://www.bohemiancoding.com/sketch -->
    <title>github</title>
    <desc>Created with Sketch.</desc>
    <defs></defs>
    <g id="Page-1" stroke="none" stroke-width="1" fill="none" fill-rule="evenodd">
        <g id="github" fill="#000000" fill-rule="nonzero">
            <path d="M12.2722423,1 C13.8273041,1 15.2893578,1.29640921 16.6592725,1.88835839 C18.0291872,2.48117681 19.2278625,3.28174245 20.2544293,4.2900553 C21.2818653,5.29923739 22.0911233,6.48313576 22.6839418,7.84348887 C23.2767602,9.20384199 23.5818617,10.6528571 23.6001157,12.1887957 C23.6001157,13.4474483 23.4149686,14.6417775 23.0446744,15.7700448 C22.6743802,16.8983121 22.1467544,17.9266174 21.461797,18.8514837 C20.7768397,19.7772192 19.9667125,20.5916926 19.0322846,21.2949039 C18.0969875,21.9989844 17.0652053,22.5353025 15.936938,22.9055967 C15.659652,22.9429739 15.4605971,22.8969044 15.3397734,22.7665191 C15.2189497,22.6361338 15.1589725,22.507487 15.1589725,22.377971 C15.1589725,22.1554467 15.1589725,21.772114 15.1589725,21.2253651 C15.1589725,20.6794853 15.1589725,20.0179973 15.1589725,19.2400318 C15.1589725,18.7219676 15.0850875,18.2916962 14.9364483,17.9492175 C14.787809,17.6067388 14.6122235,17.3520529 14.4088225,17.186029 C15.6483519,17.038259 16.8105194,16.6218953 17.8935865,15.936938 C18.9766536,15.2519806 19.5181871,13.8177425 19.5181871,11.6333544 C19.5181871,11.0222821 19.4112712,10.4581484 19.1991778,9.94008422 C18.9862151,9.42202003 18.7037137,8.97784083 18.3525427,8.60754663 C18.3890505,8.45977664 18.4542432,8.11729797 18.5472514,7.5801106 C18.6402595,7.04292324 18.5289974,6.39621224 18.2143343,5.63650065 C17.2147138,5.69213171 16.1777161,6.08067985 15.1050799,6.80301432 C14.6609007,6.69175221 14.1975983,6.60830563 13.7169112,6.55354381 C13.2362242,6.49878199 12.7546679,6.47009723 12.2731115,6.47009723 C11.7915552,6.47009723 11.3108682,6.49356658 10.8293118,6.53963605 C10.3477555,6.58570551 9.8853224,6.67436751 9.44114321,6.80301432 C8.36763771,6.08154909 7.3306401,5.69213171 6.33188883,5.63650065 C6.01722568,6.395343 5.89640198,7.04379247 5.97115621,7.5801106 C6.04591044,8.11642873 6.1189262,8.45977664 6.19368043,8.60754663 C5.80513229,9.01521795 5.50872308,9.4680895 5.30532204,9.96789975 C5.09931329,10.4668408 4.998482,11.0222821 4.998482,11.6333544 C4.998482,13.8177425 5.54001555,15.2658884 6.62308263,15.9786613 C7.70614971,16.6914342 8.87614031,17.1130132 10.1356621,17.2416601 C9.98702292,17.3902993 9.84446835,17.5841387 9.70539071,17.8249169 C9.56631308,18.065695 9.47852032,18.3803582 9.44201244,18.7689063 C9.12734929,18.8984224 8.63710063,18.9870844 7.97039722,19.0322846 C7.3036938,19.0783541 6.71174462,18.6672058 6.19368043,17.7971014 C5.5808696,17.056513 4.998482,16.6679648 4.4430407,16.6305877 C3.8875994,16.7418498 3.86934546,16.9730664 4.38740965,17.3251066 C4.97935883,17.7692858 5.3957225,18.3247271 5.63650065,18.9905613 C6.61699798,20.3422221 7.88521216,20.8420323 9.44027397,20.4899921 C9.44027397,20.9715484 9.44027397,21.3835659 9.44027397,21.7251753 C9.44027397,22.0667848 9.44027397,22.304086 9.44027397,22.4327328 C9.44027397,22.5622488 9.38029674,22.696111 9.25947304,22.8351887 C9.13864935,22.9742663 8.94046372,23.0255512 8.66230845,22.9881741 C7.56967978,22.5996259 6.55180534,22.0580924 5.60781589,21.3635735 C4.66382645,20.6690545 3.84935305,19.8554504 3.16439569,18.9201533 C2.47943834,17.9857254 1.94746639,16.9539432 1.5676106,15.8248066 C1.18949328,14.6965393 1,13.5117717 1,12.2722423 C1,10.7171805 1.29553997,9.25512687 1.88835839,7.88521216 C2.48030758,6.51529746 3.28608862,5.32183751 4.30396306,4.30396306 C5.32183751,3.28608862 6.51529746,2.48117681 7.88521216,1.88835839 C9.25512687,1.29553997 10.7171805,1 12.2722423,1 Z" id="Shape"></path>
        </g>
    </g>
</svg>