<svg xmlns="http://www.w3.org/2000/svg" width="64" height="64" viewBox="0 0 64 64">
  <title>gitium</title>
  <path d="M17.2,27.55a2.1,2.1,0,1,1,2.1-2.1A2.09,2.09,0,0,1,17.2,27.55ZM46.53,44.31a2.1,2.1,0,1,1-2.09,2.09A2.09,2.09,0,0,1,46.53,44.31ZM17.2,48.5a2.1,2.1,0,1,1,2.1-2.1A2.09,2.09,0,0,1,17.2,48.5Zm0-8.38a6.29,6.29,0,1,0,5.93,8.38H40.61A6.28,6.28,0,1,0,40.74,44c-1.39-.72-2.06-2.65-3.06-6.3-.84-3.07-1.79-6.56-4.09-9.36-2.43-3-5.86-4.56-10.44-4.88a6.29,6.29,0,1,0,0,4.2c7.67.65,9.06,5.76,10.54,11.15a27.51,27.51,0,0,0,1.93,5.54H23.13A6.29,6.29,0,0,0,17.2,40.12ZM55.05,2.67H4.76a2.1,2.1,0,0,0,0,4.19H55.05A2.1,2.1,0,0,1,57.14,9v46.1a2.1,2.1,0,0,1-2.09,2.09H9a2.1,2.1,0,0,1-2.09-2.09V17.33A2.1,2.1,0,0,1,9,15.24H27.81a2.1,2.1,0,0,0,0-4.19H9a6.28,6.28,0,0,0-6.28,6.28V55.05A6.28,6.28,0,0,0,9,61.33h46.1a6.28,6.28,0,0,0,6.28-6.28V9a6.28,6.28,0,0,0-6.28-6.28Z"/>
</svg>
