<?xml version="1.0" encoding="UTF-8"?>
<svg width="24px" height="24px" viewBox="0 0 24 24" version="1.1" xmlns="http://www.w3.org/2000/svg" xmlns:xlink="http://www.w3.org/1999/xlink">
    <!-- Generator: Sketch 48.2 (47327) - http://www.bohemiancoding.com/sketch -->
    <title>gitium</title>
    <desc>Created with Sketch.</desc>
    <defs></defs>
    <g id="Page-1" stroke="none" stroke-width="1" fill="none" fill-rule="evenodd">
        <g id="gitium" fill="#000000" fill-rule="nonzero">
            <path d="M20.6426362,1.00103122 L1.78578794,1.00206244 C1.35267648,1.00206244 1.00103122,1.3537077 1.00103122,1.78681916 C1.00103122,2.21993063 1.35267648,2.57157589 1.78578794,2.57157589 L20.6426362,2.57157589 C21.0767789,2.57157589 21.4284241,2.92322115 21.4284241,3.35736383 L21.4284241,20.6426362 C21.4284241,21.0767789 21.0767789,21.4284241 20.6426362,21.4284241 L3.35736383,21.4284241 C2.92322115,21.4284241 2.57157589,21.0767789 2.57157589,20.6426362 L2.57157589,6.50051561 C2.57157589,6.06637293 2.92322115,5.71472766 3.35736383,5.71472766 L10.4284241,5.71472766 C10.8625668,5.71472766 11.2142121,5.3630824 11.2142121,4.92893972 C11.2142121,4.49479704 10.8625668,4.14315178 10.4284241,4.14315178 C10.4273929,4.14315178 10.4273929,4.14315178 10.4263617,4.14315178 L3.35736383,4.14315178 C2.055967,4.14315178 1,5.19808756 1,6.50051561 L1,20.6426362 C1,21.944033 2.05493578,23 3.35736383,23 L20.6426362,23 C21.944033,23 23,21.9450642 23,20.6426362 L23,3.35736383 C23,2.055967 21.9450642,1 20.6426362,1 L20.6426362,1.00103122 Z M6.45101716,15.0441549 C5.14962032,15.0441549 4.09365332,16.0990907 4.09365332,17.4015187 C4.09365332,18.7039468 5.14858911,19.7588825 6.45101716,19.7588825 C7.47707884,19.7588825 8.34948908,19.103028 8.67329146,18.1873066 L15.2277116,18.1873066 C15.551514,19.103028 16.4239243,19.7588825 17.4499859,19.7588825 C18.7513828,19.7588825 19.8073498,18.7039468 19.8073498,17.4015187 C19.8073498,16.0990907 18.752414,15.0441549 17.4499859,15.0441549 C16.4723915,15.0441549 15.6340114,15.6391675 15.2772101,16.4868285 C14.7554139,16.2156183 14.5037968,15.4906722 14.1304959,14.1232774 C13.8149433,12.9703759 13.4581419,11.6627918 12.5950127,10.6119809 C11.6834161,9.50239055 10.3985188,8.90222181 8.6815412,8.78260054 C8.36495735,7.85553576 7.4863598,7.18730665 6.45101716,7.18730665 C5.14962032,7.18730665 4.09365332,8.24224243 4.09365332,9.54467048 C4.09365332,10.8470985 5.14858911,11.9020343 6.45101716,11.9020343 C7.46779788,11.9020343 8.33402081,11.2585544 8.6640105,10.3572701 C11.5380144,10.6006375 12.0618731,12.5166401 12.6146058,14.5378269 C12.8198181,15.2906159 13.0167807,16.0073123 13.3385207,16.6157308 L8.67329146,16.6157308 C8.34948908,15.7000094 7.47707884,15.0441549 6.45101716,15.0441549 Z M6.45101716,18.1862754 C6.01687447,18.1862754 5.66522921,17.8346302 5.66522921,17.4004875 C5.66522921,16.9663448 6.01687447,16.6146995 6.45101716,16.6146995 C6.88515984,16.6146995 7.2368051,16.9663448 7.2368051,17.4004875 C7.2368051,17.8346302 6.88515984,18.1862754 6.45101716,18.1862754 Z M17.4499859,16.6146995 C17.8841286,16.6146995 18.2357739,16.9663448 18.2357739,17.4004875 C18.2357739,17.8346302 17.8841286,18.1862754 17.4499859,18.1862754 C17.0158433,18.1862754 16.664198,17.8346302 16.664198,17.4004875 C16.664198,16.9663448 17.0158433,16.6146995 17.4499859,16.6146995 Z M6.45101716,10.3294272 C6.01687447,10.3294272 5.66522921,9.97778194 5.66522921,9.54363926 C5.66522921,9.10949658 6.01687447,8.75785132 6.45101716,8.75785132 C6.88515984,8.75785132 7.2368051,9.10949658 7.2368051,9.54363926 C7.2368051,9.97778194 6.88515984,10.3294272 6.45101716,10.3294272 Z" id="Shape"></path>
        </g>
    </g>
</svg>