<?xml version="1.0" encoding="UTF-8"?>
<svg width="24px" height="24px" viewBox="0 0 24 24" version="1.1" xmlns="http://www.w3.org/2000/svg" xmlns:xlink="http://www.w3.org/1999/xlink">
    <!-- Generator: Sketch 48.2 (47327) - http://www.bohemiancoding.com/sketch -->
    <title>gitolite</title>
    <desc>Created with Sketch.</desc>
    <defs></defs>
    <g id="Page-1" stroke="none" stroke-width="1" fill="none" fill-rule="evenodd">
        <g id="gitolite" fill="#000000" fill-rule="nonzero">
            <path d="M12.0033793,18.0033793 L12.0033793,6.00675866 L14.6139116,6.00675866 L14.6139116,18.0033793 L12.0033793,18.0033793 Z M18.1622078,6.00675866 L20.9670515,6.00675866 L20.9670515,10.6364404 L24,10.6364404 L24,13.3736975 L20.9670515,13.3736975 L20.9670515,18.0033793 L18.1622078,18.0033793 L18.1622078,13.3736975 L15.1292594,13.3736975 L15.1292594,10.6364404 L18.1622078,10.6364404 L18.1622078,6.00675866 Z M8.44663475,10.0281611 C8.29034075,9.26612222 7.78090679,8.6485497 7.1016615,8.34441003 L7.08645452,8.3384962 C6.69191777,8.15516756 6.23063926,8.04618417 5.7448606,8.04280484 L5.74317094,8.04280484 C5.72796395,8.04280484 5.70937764,8.04196001 5.69163616,8.04196001 C4.77330329,8.04196001 3.95550549,8.46860039 3.42410589,9.13517319 L3.41988172,9.14108702 C2.84539566,9.94198817 2.50154886,10.941425 2.50154886,12.0219656 C2.50154886,12.156294 2.50661785,12.2889327 2.51760068,12.4198817 L2.51675584,12.4021402 C2.50239369,12.5297099 2.4947902,12.6775556 2.4947902,12.827091 C2.4947902,13.8535624 2.87411997,14.7913264 3.50098564,15.5068995 L3.49676148,15.5018305 C4.07209237,16.0661785 4.86116587,16.4142495 5.73134328,16.4142495 C5.73303295,16.4142495 5.73387778,16.4142495 5.73556745,16.4142495 C5.77949873,16.416784 5.83103351,16.4176288 5.88256829,16.4176288 C6.61250352,16.4176288 7.27823148,16.1439031 7.78344128,15.6936074 L7.78090679,15.6961419 C8.29963391,15.2145874 8.6536187,14.561532 8.75077443,13.8282174 L8.75246409,13.8121656 L6.01520698,13.8121656 L6.01520698,11.8268093 L10.8983385,11.8268093 L10.8983385,18.1799493 L9.27626021,18.1799493 L9.0312588,16.6930442 C8.67642917,17.1661504 8.26330611,17.5708251 7.79780344,17.9062236 L7.78090679,17.9180513 C7.14136863,18.3016052 6.36919178,18.5288651 5.54379048,18.5288651 C5.4922557,18.5288651 5.44156576,18.5280203 5.39087581,18.5263306 L5.3984793,18.5263306 C5.35454801,18.5280203 5.30301324,18.5288651 5.25147846,18.5288651 C3.79583216,18.5288651 2.48887637,17.8935511 1.59250915,16.8839763 L1.58828499,16.8789074 C0.602365531,15.7789355 0,14.3173754 0,12.7147282 C0,12.5981414 0.00337932977,12.4832442 0.00929315686,12.3683469 L0.00844832442,12.3843988 C0.00422416221,12.292312 0.00168966488,12.1850183 0.00168966488,12.0768798 C0.00168966488,10.4243875 0.594762039,8.90960293 1.57983667,7.73528583 L1.57138834,7.74542382 C2.54885948,6.67164179 3.95212616,6.00084483 5.51168685,6.00084483 C5.58434244,6.00084483 5.65784286,6.0025345 5.72965362,6.00506899 L5.71951563,6.00506899 C5.78710222,6.00168966 5.86651647,6 5.94593072,6 C7.22331738,6 8.39509997,6.45114052 9.31089834,7.2030414 L9.30160518,7.1954379 C10.1531963,7.89157984 10.7285272,8.89862011 10.8544072,10.0399887 L10.8560969,10.0594199 L8.44663475,10.0281611 Z" id="Combined-Shape"></path>
        </g>
    </g>
</svg>