<svg xmlns="http://www.w3.org/2000/svg" width="64" height="64" viewBox="0 0 64 64">
  <title>gitolite</title>
  <path d="M22.52,26.74a6.27,6.27,0,0,0-3.58-4.49h0a8.66,8.66,0,0,0-3.58-.79h-.14a7.71,7.71,0,0,0-6,2.91v0a13.16,13.16,0,0,0-2.45,7.68c0,.36,0,.71,0,1.06v0a10.07,10.07,0,0,0-.06,1.14,10.77,10.77,0,0,0,2.69,7.14h0a8.52,8.52,0,0,0,6,2.43h.41a7.62,7.62,0,0,0,5.07-1.93h0a8.33,8.33,0,0,0,2.59-5v-.05H16V31.54h13V48.48H24.74l-.66-4a14.65,14.65,0,0,1-3.29,3.24l0,0a11.67,11.67,0,0,1-6,1.63H14A13,13,0,0,1,4.25,45h0A16.58,16.58,0,0,1,0,33.91c0-.32,0-.62,0-.93V33c0-.25,0-.54,0-.82A18,18,0,0,1,4.21,20.63l0,0A14.18,14.18,0,0,1,14.7,16h1.16a14.06,14.06,0,0,1,9,3.21l0,0A11.38,11.38,0,0,1,29,26.77v.06ZM48.43,16h7.48V28.36H64v7.3H55.91V48H48.43V35.66H40.34v-7.3h8.09ZM32,48V16h7V48Z"/>
</svg>
