<svg xmlns="http://www.w3.org/2000/svg" width="64" height="64" viewBox="0 0 64 64">
  <title>golang</title>
  <path d="M32.86,14.75h0a2.18,2.18,0,0,1,1,.5h0a.9.9,0,0,1,.32.69.89.89,0,0,1-.48.8l.07,0a11,11,0,0,1-1.84.62h0a8.61,8.61,0,0,1-1.35-.23h0a1,1,0,0,1-.42-1.85h0a2.78,2.78,0,0,1,1.82-.68A2.87,2.87,0,0,1,32.86,14.75ZM22.49,12.51l.4-.42-.46-.36c-.08.12-.25.27-.25.4S22.37,12.38,22.49,12.51Zm13.89-.45c-.1-.12-.29-.25-.29-.39s.13-.28.29-.55c.15.27.3.42.3.55S36.38,11.92,36.38,12.06ZM21.7,9.9h0a1.78,1.78,0,0,1,1.68,1.77v.05a1.66,1.66,0,1,1-3.32,0h0v-.05A1.79,1.79,0,0,1,21.7,9.9Zm13.82-.44A1.76,1.76,0,0,0,34,11.21v.12h0v0a1.7,1.7,0,0,0,1.61,1.7h0a1.72,1.72,0,0,0,1.62-1.72s0-.07,0-.11h0v-.06a1.71,1.71,0,0,0-1.65-1.72h0Zm8.15,2.86a5,5,0,0,1-4.44,3.54h0a7.09,7.09,0,0,1-1,.07,7.48,7.48,0,0,1-1.78-.22h.05a4.64,4.64,0,0,1-3.67-3.84v0a4.79,4.79,0,0,1-.08-.88,4.72,4.72,0,0,1,1.91-3.8h0a5.93,5.93,0,0,1,3.8-1.37h.31a5.05,5.05,0,0,1,5.06,5.06,5.14,5.14,0,0,1-.22,1.48v0Zm-7.6,7.13a1.27,1.27,0,0,1-1.11.64,1.6,1.6,0,0,1-.39-.05h0c-.42-.13-.82-.3-1.24-.46a3.23,3.23,0,0,0-1.19-.22,3.41,3.41,0,0,0-1.2.22h0a11.22,11.22,0,0,1-1.34.42l-.09,0c-1,.19-1.59-.36-1.59-1.45A2,2,0,0,1,29,17h0c.16,0,.37-.34.33-.49-.14-.71.34-1.11.78-1.47a3.43,3.43,0,0,1,3.58-.2h0a1.39,1.39,0,0,1,.82,1.28,1.33,1.33,0,0,1,0,.28h0c0,.31,0,.46.28.63A7.59,7.59,0,0,1,36,18h0a1.1,1.1,0,0,1,.3.76,1.15,1.15,0,0,1-.19.64ZM33.64,23.1a1,1,0,0,1-1.45-.64h0c0-.37,0-.8,0-1.24s0-.86,0-1.29v0s.25-.25.33-.23a7.13,7.13,0,0,1,1.35.46l0,0c.11,0,.17.24.19.36a7.27,7.27,0,0,0,.11,1.22,1.16,1.16,0,0,1-.57,1.34Zm-2.1-2.58v1.66c0,.56-.4.8-.84,1a.7.7,0,0,1-.25.05.68.68,0,0,1-.67-.52h0a11.51,11.51,0,0,1-.32-1.91v0c0-.13.21-.36.38-.44s.67-.21,1-.34c.73-.23.79-.19.69.59ZM19.12,10.43a4.34,4.34,0,0,1,1.75-2.78h0A6.08,6.08,0,0,1,27,6.88l0,0a4.55,4.55,0,0,1,3,3.8v0a3.88,3.88,0,0,1,.06.7,4.72,4.72,0,0,1-2,3.86h0a6,6,0,0,1-3.45,1.2h0l-.4,0a5.11,5.11,0,0,1-5-6.07ZM53.57,33A3.73,3.73,0,0,0,51,31.5h0c-.82-.12-.86-.1-.89-.94V24.26c0-.18,0-.39,0-.6a49.81,49.81,0,0,0-.92-9.52l.05.32c0-.47-.35-1-.21-1.35s.7-.5,1.07-.75a3.49,3.49,0,0,0,1.43-4.22v0a4.19,4.19,0,0,0-4-2.92,4.26,4.26,0,0,0-2,.48h0a1.12,1.12,0,0,1-.61.18,1.11,1.11,0,0,1-.76-.31,14.63,14.63,0,0,0-7-2.66h-.06a20.25,20.25,0,0,0-2.85-.25H30.85c-1.39.21-2.77.37-4.2.63A16.66,16.66,0,0,0,19,6.51l0,0c-.31.25-.54,0-.8,0a4.05,4.05,0,0,0-2.09-.56,4.2,4.2,0,0,0-3.75,2.31v0A3.4,3.4,0,0,0,11.92,10a3.46,3.46,0,0,0,2,3.16h0c.76.39.76.39.59,1.23A30.64,30.64,0,0,0,14,20.17c0,1,.05,2,.14,3v-.13c.19,2.65.38,5.29.59,8,0,.42-.13.59-.55.59h0a4.38,4.38,0,0,0-2.5.77h0a3.73,3.73,0,0,0-.87,1h0c-.44.74.3,1.22.53,1.81s.73.4,1.13.25a12.15,12.15,0,0,0,1.29-.6l-.07,0,1-.46V36c-.15,2.6-.38,5.2-.47,7.8,0,.3,0,.64,0,1a21.75,21.75,0,0,0,1,6.49l0-.15a11.54,11.54,0,0,0,3,4.8h0l.32.36a17.22,17.22,0,0,0-1.58,1.21l0,0a5,5,0,0,0-1,1.08h0a1.52,1.52,0,0,0-.26.84,1.48,1.48,0,0,0,.72,1.26h0c.25.19.48.44.74.65h.77c.74-.54,1.47-1.13,2.23-1.63a13.2,13.2,0,0,1,1.79-1l.1,0a.66.66,0,0,1,.25-.05.7.7,0,0,1,.25.05h0a26.74,26.74,0,0,0,12.42,1.54h-.13a22.24,22.24,0,0,0,8.17-2.16l-.13.06a.92.92,0,0,1,.38-.08.85.85,0,0,1,.38.09h0a4.06,4.06,0,0,1,.81.73h0c.38.38.7.79,1.07,1.17,1.1,1.09,1.75.93,2.77,0a1.21,1.21,0,0,0,.4-.91,1.27,1.27,0,0,0-.21-.69h0a17.13,17.13,0,0,0-1.54-2h0a4.67,4.67,0,0,0-.68-.57h0a2.89,2.89,0,0,1,.19-.35h0a15.13,15.13,0,0,0,3.72-7.93v-.08a42.8,42.8,0,0,0,.57-7c0-1.35-.06-2.68-.18-4v.16a14.63,14.63,0,0,0-.1-2.09v-.17l.5.23a6.63,6.63,0,0,0,1.07.49h0a1.29,1.29,0,0,0,.4.07,1.41,1.41,0,0,0,.41-.07h0a1.91,1.91,0,0,0,.83-1.59,2.1,2.1,0,0,0-.08-.56h0Z"/>
</svg>
