<?xml version="1.0" encoding="UTF-8"?>
<svg width="24px" height="24px" viewBox="0 0 24 24" version="1.1" xmlns="http://www.w3.org/2000/svg" xmlns:xlink="http://www.w3.org/1999/xlink">
    <!-- Generator: Sketch 48.2 (47327) - http://www.bohemiancoding.com/sketch -->
    <title>golang</title>
    <desc>Created with Sketch.</desc>
    <defs></defs>
    <g id="Page-1" stroke="none" stroke-width="1" fill="none" fill-rule="evenodd">
        <g id="golang" fill="#000000" fill-rule="nonzero">
            <path d="M20.0883395,12.3611588 C19.8562222,12.0566524 19.5076528,11.8512876 19.1110863,11.8111588 L19.1047916,11.810372 C18.7979246,11.7631617 18.7821879,11.77103 18.7743195,11.4562947 C18.7743195,10.6694564 18.7743195,9.88261803 18.7743195,9.09577969 C18.7751063,9.02968526 18.7758932,8.95178827 18.7758932,8.87310443 C18.7758932,7.65193133 18.6578674,6.45908441 18.4328316,5.30400572 L18.4517158,5.42124464 C18.4517158,5.2481402 18.3179532,5.05143062 18.3730319,4.9176681 C18.4281106,4.78390558 18.6326886,4.7288269 18.7743195,4.63440629 C19.1488545,4.40071531 19.3943481,3.99077253 19.3943481,3.52339056 C19.3943481,3.35736767 19.3636614,3.19842632 19.307009,3.05207439 L19.3101564,3.06072961 C19.1008574,2.4202432 18.509155,1.96623748 17.8112293,1.96623748 C17.5484253,1.96623748 17.3005713,2.03075823 17.082617,2.14484979 L17.0912723,2.14091559 C17.0275384,2.18261803 16.9496414,2.20701001 16.8654497,2.20701001 C16.7545055,2.20701001 16.6537901,2.16373391 16.5790405,2.09370529 C15.8362651,1.55708155 14.9321879,1.19828326 13.9510004,1.09678112 L13.9273953,1.0944206 C13.5418445,1.03934192 13.1798989,1 12.8572952,1 L11.5668803,1 C11.047567,1.07868383 10.5282537,1.1416309 9.9932036,1.2360515 C8.9034325,1.40050072 7.93404766,1.82460658 7.12203049,2.44306152 L7.13698042,2.43204578 C7.01895467,2.52646638 6.93240245,2.43204578 6.83798185,2.43204578 C6.61294609,2.30064378 6.3422737,2.22274678 6.05429086,2.22274678 C5.43819644,2.22274678 4.90550689,2.5760372 4.64663707,3.09141631 L4.64270288,3.10085837 C4.53411919,3.28655222 4.46959845,3.51001431 4.46959845,3.74763948 C4.46959845,4.27403433 4.78276011,4.72646638 5.2320448,4.93025751 L5.23991318,4.93340486 C5.52317498,5.08290415 5.52317498,5.08290415 5.46022792,5.39763948 C5.33354694,6.04835479 5.26115782,6.79663805 5.26115782,7.56223176 C5.26115782,7.94463519 5.2792551,8.3223176 5.31466282,8.69527897 L5.31072863,8.64806867 C5.38154408,9.63948498 5.45235953,10.6309013 5.53104337,11.630186 C5.53104337,11.7875536 5.48383307,11.8505007 5.3264654,11.8505007 C5.32253121,11.8505007 5.31702334,11.8505007 5.31230231,11.8505007 C4.9653066,11.8505007 4.64348972,11.9567239 4.37675152,12.1376967 L4.38225939,12.1337625 C4.25400474,12.2368383 4.14463421,12.3564378 4.05572148,12.4902003 L4.05178729,12.4957082 C3.88655124,12.7711016 4.16194466,12.9520744 4.24849687,13.1723891 C4.33504909,13.3927039 4.52389029,13.3218884 4.67338958,13.2668097 C4.85987026,13.1912732 5.00936955,13.1204578 5.15493464,13.041774 L5.12975581,13.0543634 L5.50743822,12.8812589 C5.50743822,13.1251788 5.50743822,13.31402 5.50743822,13.5028612 C5.45235953,14.4785408 5.36580732,15.4542203 5.33433378,16.4298999 C5.32882591,16.5400572 5.32567856,16.6698856 5.32567856,16.7997139 C5.32567856,17.6471388 5.45550689,18.4646638 5.69549258,19.2334049 L5.67975581,19.1759657 C5.90793893,19.884907 6.28955553,20.4907725 6.78841104,20.9770386 L6.78919787,20.9778255 L6.90722363,21.111588 C6.68769573,21.2634478 6.49806769,21.4105866 6.31630803,21.5671674 L6.32496325,21.5600858 C6.18175868,21.6773247 6.05979873,21.8118741 5.95908342,21.9629471 L5.95514923,21.9692418 C5.89456268,22.0565808 5.85758128,22.1651645 5.85758128,22.2816166 C5.85758128,22.4822604 5.96537813,22.6585122 6.12589315,22.7545064 L6.12825367,22.7560801 C6.22267427,22.8268956 6.30922649,22.9213162 6.40364709,23 L6.69477727,23 C6.97017069,22.795422 7.24556411,22.5751073 7.52882591,22.3862661 C7.72868285,22.2556509 7.96080016,22.1266094 8.20235953,22.0148784 L8.23698042,22.0007153 C8.2653066,21.9896996 8.29756697,21.9834049 8.33140102,21.9834049 C8.36523507,21.9834049 8.39749544,21.9896996 8.4273953,22.0015021 L8.42582162,22.0007153 C9.46838242,22.4082976 10.6746056,22.6443491 11.9366943,22.6443491 C12.3246056,22.6443491 12.7062222,22.6223176 13.0823309,22.5790415 L13.0366943,22.5829757 C14.1453495,22.5050787 15.1705999,22.2226037 16.1006428,21.7741059 L16.0502851,21.7961373 C16.0919876,21.7756795 16.1407716,21.763877 16.191916,21.763877 C16.2430605,21.763877 16.2918445,21.7756795 16.3359075,21.7969242 L16.3335469,21.7961373 C16.4507859,21.8748212 16.5515012,21.9660944 16.6388402,22.0691702 L16.6404139,22.0715308 C16.7820448,22.2131617 16.9000705,22.3705293 17.0417015,22.5121602 C17.4508574,22.9213162 17.6947773,22.8583691 18.0803281,22.5121602 C18.1716013,22.4271817 18.2290405,22.3060086 18.2290405,22.1714592 C18.2290405,22.0754649 18.1999275,21.9865522 18.1503567,21.9125894 L18.1511435,21.9141631 C17.9654497,21.6332618 17.7758216,21.3893419 17.5712437,21.160372 L17.5767515,21.1666667 C17.4988545,21.087196 17.413876,21.0148069 17.3226027,20.9502861 L17.3170949,20.9463519 C17.3399132,20.897568 17.3635183,20.8566524 17.3902708,20.8173104 L17.3879103,20.8204578 C18.1173095,20.0108011 18.6193123,18.9824034 18.7845484,17.845422 L18.7884826,17.8147353 C18.9238188,17.0223891 19.0009289,16.1096567 19.0009289,15.1780401 C19.0009289,14.6713162 18.9781106,14.1701001 18.9332608,13.674392 L18.9379819,13.7381259 C18.9379819,13.4784692 18.9379819,13.2109442 18.8986399,12.9512876 C18.8986399,12.9512876 18.8986399,12.9512876 18.8986399,12.8883405 L19.0874811,12.9748927 C19.2055069,13.0433476 19.3432036,13.1070815 19.487195,13.158226 L19.5045055,13.1637339 C19.5493552,13.1786838 19.6004997,13.1873391 19.6540047,13.1873391 C19.7075097,13.1873391 19.7586542,13.1786838 19.8066514,13.1629471 L19.803504,13.1637339 C19.9939189,13.0315451 20.1166657,12.8135908 20.1166657,12.5673104 C20.1166657,12.4933476 20.1056499,12.4225322 20.0851922,12.3556509 L20.0867658,12.3611588 L20.0883395,12.3611588 Z M7.16845395,3.91051502 C7.24792463,3.4769671 7.48869716,3.11030043 7.82467713,2.86716738 L7.82939816,2.86402003 C8.21101476,2.57052933 8.69570717,2.3934907 9.22210202,2.3934907 C9.54313207,2.3934907 9.84842534,2.45958512 10.1261793,2.57839771 L10.1112293,2.57288984 C10.7210291,2.79635193 11.1608717,3.3416309 11.227753,3.99785408 L11.2285398,4.00493562 C11.2411292,4.08440629 11.2482107,4.17567954 11.2482107,4.26852647 C11.2482107,4.86573677 10.9539332,5.39449213 10.502288,5.71630901 L10.4967801,5.7202432 C10.1379819,5.98855508 9.68869716,6.15457797 9.20164423,6.16874106 L9.19849687,6.16874106 C9.15364709,6.17267525 9.10092892,6.17503577 9.04742391,6.17503577 C7.99148686,6.17503577 7.13540674,5.31895565 7.13540674,4.2630186 C7.13540674,4.13869814 7.14720932,4.0167382 7.17002763,3.89871245 L7.16845395,3.91051502 Z M11.8265369,7.69520744 L11.8265369,8.31680973 C11.8265369,8.52925608 11.6770376,8.6158083 11.5118016,8.67875536 C11.4842623,8.6897711 11.4520019,8.69606581 11.4181678,8.69606581 C11.2962079,8.69606581 11.1947057,8.61266094 11.1663796,8.49935622 L11.1663796,8.49778255 C11.1120877,8.28769671 11.0703853,8.03748212 11.0491406,7.78254649 L11.0483538,7.76602289 C11.0483538,7.71881259 11.1270376,7.63226037 11.1899847,7.60078684 C11.2529318,7.5693133 11.441773,7.522103 11.5676671,7.4748927 C11.8430605,7.38834049 11.8666657,7.40407725 11.8273238,7.69520744 L11.8265369,7.69520744 Z M12.6133753,8.6630186 C12.5598703,8.69606581 12.4953495,8.71494993 12.4261077,8.71494993 C12.249856,8.71494993 12.1027172,8.58826896 12.0704568,8.42145923 L12.0704568,8.41909871 C12.0594411,8.27982833 12.0531464,8.11852647 12.0531464,7.95486409 C12.0531464,7.79120172 12.0594411,7.62989986 12.0720305,7.46938484 L12.0704568,7.49062947 C12.0704568,7.49062947 12.1648774,7.39620887 12.196351,7.40407725 C12.3836185,7.44892704 12.546494,7.5055794 12.7015012,7.57639485 L12.6841907,7.5693133 C12.7235326,7.5693133 12.7471378,7.65586552 12.7550062,7.70307582 C12.7628746,7.75028612 12.7550062,8.01781116 12.7943481,8.15944206 C12.83369,8.30107296 12.8022165,8.56072961 12.5819017,8.6630186 L12.6133753,8.6630186 Z M13.5261077,7.29391989 C13.441916,7.43948498 13.2869089,7.53547926 13.1090834,7.53547926 C13.0587258,7.53547926 13.0099418,7.52761087 12.9635183,7.51344778 L12.9666657,7.51423462 C12.809298,7.46702432 12.6597987,7.40407725 12.5024311,7.34113019 C12.3702422,7.28841202 12.2175956,7.25851216 12.0578674,7.25851216 C11.8981392,7.25851216 11.7454926,7.28919886 11.6046485,7.34427754 L11.6133037,7.34113019 C11.4716728,7.39699571 11.2930605,7.45364807 11.110514,7.49928469 L11.0782537,7.50636624 C10.716308,7.57718169 10.4802565,7.37260372 10.4802565,6.96344778 C10.5038617,6.70615165 10.6549346,6.4897711 10.8697415,6.3748927 L10.8736757,6.37331903 C10.9366228,6.37331903 11.0153066,6.24742489 10.9995698,6.19234621 C10.9444912,5.92482117 11.125464,5.77532189 11.2907,5.64155937 C11.495278,5.49756795 11.7494268,5.41180258 12.0240334,5.41180258 C12.2451349,5.41180258 12.4536471,5.4676681 12.6354067,5.56680973 L12.6283252,5.56366237 C12.8124454,5.64864092 12.9375527,5.83118741 12.9375527,6.04363376 C12.9375527,6.07982833 12.9336185,6.11523605 12.9273238,6.1490701 L12.9281106,6.14592275 C12.9281106,6.2639485 12.9281106,6.31902718 13.0303996,6.38197425 C13.2019303,6.49763948 13.3514296,6.6251073 13.485979,6.76595136 L13.4867658,6.76752504 C13.5567944,6.84306152 13.5992837,6.94456366 13.5992837,7.05550787 C13.5992837,7.1444206 13.5717444,7.22782546 13.5245341,7.29549356 L13.5253209,7.29391989 L13.5261077,7.29391989 Z M16.3744625,4.61866953 C16.1494268,5.35829757 15.4971378,5.89649499 14.7118731,5.94842632 L14.7063653,5.94842632 C14.5985684,5.96337625 14.4750348,5.97203147 14.3483538,5.97203147 C14.1178102,5.97203147 13.8943481,5.94291845 13.6803281,5.88941345 L13.6992122,5.89334764 C12.9816156,5.74778255 12.4316156,5.17339056 12.3238188,4.45500715 L12.3222451,4.44556509 C12.3025741,4.34642346 12.2915584,4.23154506 12.2915584,4.11509299 C12.2915584,3.52968526 12.5740334,3.0111588 13.0099418,2.6869814 L13.0146628,2.68383405 C13.3994268,2.36516452 13.8974954,2.17160229 14.4412007,2.17160229 C14.4600849,2.17160229 14.4781821,2.17160229 14.4970663,2.17238913 L14.4947057,2.17238913 C14.5135899,2.17160229 14.5364082,2.17160229 14.5584396,2.17160229 C15.6057215,2.17160229 16.45472,3.02060086 16.45472,4.06788269 C16.45472,4.26223176 16.425607,4.44871245 16.3713152,4.62496423 L16.3752494,4.61158798 L16.3744625,4.61866953 Z M13.3215298,3.54856938 C12.9879103,3.58476395 12.7298273,3.8648784 12.7298273,4.2055794 C12.7298273,4.22052933 12.7306142,4.23547926 12.731401,4.25042918 L12.731401,4.24806867 C12.731401,4.2527897 12.731401,4.25908441 12.731401,4.26459227 C12.731401,4.60529328 12.9989261,4.88383405 13.3356929,4.90114449 L13.3372665,4.90114449 C13.6771807,4.8806867 13.9447057,4.59978541 13.9447057,4.25672389 C13.9447057,4.2425608 13.9439189,4.22839771 13.9431321,4.21423462 L13.9431321,4.2158083 C13.9431321,4.20872675 13.9439189,4.20007153 13.9439189,4.19141631 C13.9439189,3.84284692 13.6677386,3.55958512 13.3231035,3.54699571 L13.3223166,3.54699571 L13.3215298,3.54856938 Z M8.13626511,3.71380544 L8.13626511,3.71459227 L8.13783879,3.71459227 C8.48798185,3.73505007 8.76573579,4.02618026 8.76573579,4.38183119 C8.76573579,4.38733906 8.76573579,4.39363376 8.76573579,4.39835479 C8.76573579,4.74141631 8.48719501,5.01995708 8.1441335,5.01995708 C7.80107198,5.01995708 7.52253121,4.74141631 7.52253121,4.39835479 L7.52253121,4.39914163 C7.52253121,4.39284692 7.52253121,4.38655222 7.52253121,4.38025751 C7.52253121,4.03011445 7.79162992,3.74291845 8.13626511,3.71380544 Z M13.6441335,4.52424893 C13.6047916,4.47703863 13.5339761,4.42982833 13.5339761,4.37474964 C13.5339761,4.31967096 13.5811864,4.27246066 13.6441335,4.17017167 C13.6992122,4.27246066 13.7542909,4.32753934 13.7542909,4.37474964 C13.7542909,4.42195994 13.6441335,4.46917024 13.6441335,4.52424893 Z M8.43526368,4.68948498 L8.58476297,4.53211731 L8.41165853,4.39835479 C8.380185,4.44556509 8.31723793,4.50064378 8.31723793,4.54785408 C8.31723793,4.59506438 8.38805338,4.64227468 8.43526368,4.68948498 Z M12.3222451,5.531402 L12.3214582,5.53061516 L12.3269661,5.531402 C12.4623023,5.56444921 12.5842623,5.63054363 12.6834039,5.71945637 L12.6841907,5.71945637 C12.7573667,5.7816166 12.8037901,5.87446352 12.8037901,5.97753934 C12.8037901,6.10736767 12.7306142,6.22067239 12.6212437,6.27811159 L12.6472093,6.26788269 C12.4363366,6.36072961 12.2160219,6.43626609 11.9602994,6.49842632 L11.9484969,6.49763948 C11.7667372,6.48190272 11.5896986,6.45121602 11.4409861,6.41187411 L11.4394125,6.41187411 C11.2537186,6.38826896 11.110514,6.22932761 11.110514,6.03733906 C11.110514,5.90436338 11.178969,5.7879113 11.2836185,5.71945637 L11.2820448,5.72103004 C11.466165,5.56444921 11.704577,5.46924177 11.9658073,5.46924177 C12.094062,5.46924177 12.2160219,5.49206009 12.3222451,5.531402 Z" id="Combined-Shape"></path>
        </g>
    </g>
</svg>