<svg xmlns="http://www.w3.org/2000/svg" width="64" height="64" viewBox="0 0 64 64">
  <title>google-cloud-platform</title>
  <path d="M54.25,17.87l6.38,11a5.11,5.11,0,0,1,0,5.18L48.51,54.8A5.25,5.25,0,0,1,44,57.39H35.42l15.15-26-7.9-13.54ZM38.36,47.41l-5.76,10H19.91a5.2,5.2,0,0,1-4.5-2.61l-12-20.9a5.21,5.21,0,0,1,0-5.21L7.61,21.3,22.66,47.41ZM14.94,29,9.17,19l6.37-11a5.22,5.22,0,0,1,4.52-2.61H44.23a5.22,5.22,0,0,1,4.51,2.61L53,15.33H22.82Zm1.43,2.23,7.87-13.53H40l7.88,13.53L40,44.72H24.24ZM32,25a6.38,6.38,0,1,1-6.44,6.38A6.4,6.4,0,0,1,32,25Z" fill-rule="evenodd"/>
</svg>
