<?xml version="1.0" encoding="UTF-8"?>
<svg width="24px" height="24px" viewBox="0 0 24 24" version="1.1" xmlns="http://www.w3.org/2000/svg" xmlns:xlink="http://www.w3.org/1999/xlink">
    <!-- Generator: Sketch 48.2 (47327) - http://www.bohemiancoding.com/sketch -->
    <title>google-cloud-platform</title>
    <desc>Created with Sketch.</desc>
    <defs></defs>
    <g id="Page-1" stroke="none" stroke-width="1" fill="none" fill-rule="evenodd">
        <g id="google-cloud-platform" fill="#000000">
            <path d="M11.9917726,9.35509656 C13.3244546,9.35509656 14.4049112,10.4264018 14.4049112,11.7477961 C14.4049112,13.0691905 13.3244546,14.1404957 11.9917726,14.1404957 C10.6590906,14.1404957 9.57863404,13.0691905 9.57863404,11.7477961 C9.57863404,10.4264018 10.6590906,9.35509656 11.9917726,9.35509656 Z M6.13686893,11.6957809 L9.09055053,6.62315381 L14.9979137,6.62315381 L17.9515953,11.6957809 L14.9979137,16.768408 L9.09055053,16.768408 L6.13686893,11.6957809 Z M5.60385198,10.8610448 L3.4400292,7.11329475 L5.82763786,2.977756 C6.17705424,2.3726882 6.82261462,2 7.52123764,2 L16.58509,2 C17.2837131,2 17.9292734,2.3726882 18.278585,2.977756 L19.8779094,5.74775006 L8.55606381,5.74775006 L5.60385198,10.8610448 Z M14.383433,17.7776328 L12.2265884,21.5199514 L7.46656173,21.5199514 C6.77019172,21.5199514 6.12671322,21.1478033 5.77842369,20.5436124 L1.26121715,12.7056755 C0.912927617,12.1015893 0.912927617,11.3571884 1.26121715,10.7529976 L2.85538392,7.98701797 L8.49805066,17.7776328 L14.383433,17.7776328 Z M20.3419895,6.70016938 L22.7371944,10.8084648 C23.0876019,11.4094425 23.0876019,12.1500128 22.7371944,12.7510946 L18.1910494,20.5486991 C17.840642,21.1496768 17.192951,21.520014 16.492136,21.520014 L13.2835566,21.520014 L18.9622404,11.7797797 L16.0006609,6.70016938 L20.3419895,6.70016938 Z" id="Fill-1-Copy"></path>
        </g>
    </g>
</svg>