<svg xmlns="http://www.w3.org/2000/svg" width="64" height="64" viewBox="0 0 64 64">
  <title>google-plus</title>
  <path d="M64,34.57H57.23V41.4H52V34.7H45.28V29.38h6.48V22.69h5.33v6.55h6.69ZM21.24,28H41.18a15.15,15.15,0,0,1,.38,2.22c.06.75.1,1.52.1,2.29a23,23,0,0,1-1.47,8.37,19.58,19.58,0,0,1-4.13,6.55,18.46,18.46,0,0,1-6.42,4.3,21.94,21.94,0,0,1-8.4,1.54A20.86,20.86,0,0,1,13,51.61,21.51,21.51,0,0,1,6.18,47,21.32,21.32,0,0,1,13,12.34a20.82,20.82,0,0,1,8.27-1.67,20.59,20.59,0,0,1,14.2,5.67L29.5,22.21a11.5,11.5,0,0,0-3.79-2.43,12.16,12.16,0,0,0-4.47-.85,12.43,12.43,0,0,0-9.12,3.79,12.55,12.55,0,0,0-3.79,9.19A12.43,12.43,0,0,0,12.12,41a12.43,12.43,0,0,0,9.12,3.79,12.24,12.24,0,0,0,7.82-2.39,9.85,9.85,0,0,0,3.72-6.14H21.24Z"/>
</svg>
