<?xml version="1.0" encoding="UTF-8"?>
<svg width="24px" height="24px" viewBox="0 0 24 24" version="1.1" xmlns="http://www.w3.org/2000/svg" xmlns:xlink="http://www.w3.org/1999/xlink">
    <!-- Generator: Sketch 48.2 (47327) - http://www.bohemiancoding.com/sketch -->
    <title>google-plus</title>
    <desc>Created with Sketch.</desc>
    <defs></defs>
    <g id="Page-1" stroke="none" stroke-width="1" fill="none" fill-rule="evenodd">
        <g id="google-plus" fill="#000000" fill-rule="nonzero">
            <path d="M7.96462004,10.5045935 C9.51785939,10.5045935 10.7646962,10.5045935 11.7032847,10.5045935 C12.6418732,10.5045935 13.88871,10.5045935 15.4419493,10.5045935 C15.5102439,10.7777717 15.5573117,11.0555643 15.5831529,11.3370486 C15.6089941,11.6185328 15.6219147,11.9046316 15.6219147,12.1953448 C15.6219147,13.3397398 15.4382577,14.3844617 15.0709438,15.3322792 C14.70363,16.2800967 14.1877293,17.0996312 13.5213961,17.7908827 C12.8559858,18.4821342 12.0530635,19.0201844 11.114475,19.4041104 C10.1749636,19.7880365 9.12562723,19.9799995 7.96462004,19.9799995 C6.8719074,19.9799995 5.8391832,19.7714243 4.86552455,19.3524281 C3.8927888,18.9343548 3.04279864,18.3621573 2.31739988,17.6367585 C1.59200111,16.9113597 1.02441811,16.0659841 0.614650863,15.1015544 C0.204883621,14.1371247 0,13.0997861 0,11.9895383 C0,10.8792906 0.204883621,9.8428748 0.614650863,8.87844514 C1.02441811,7.91401548 1.59200111,7.06863982 2.31739988,6.34324105 C3.04279864,5.61784229 3.8927888,5.04564479 4.86552455,4.62757145 C5.8382603,4.20949812 6.8709845,4 7.96462004,4 C8.95489088,4 9.91101444,4.18365694 10.8329907,4.55097082 C11.754967,4.9182847 12.5745015,5.44341434 13.2915942,6.12635974 L11.0637155,8.32839722 C10.6539483,7.93616506 10.180501,7.63253123 9.64245078,7.41934151 C9.10440055,7.2061518 8.54512364,7.09909549 7.96462004,7.09909549 C6.63287651,7.09909549 5.493096,7.57254278 4.54620143,8.52036025 C3.59930686,9.46817772 3.12493667,10.6162643 3.12493667,11.96462 C3.12493667,13.2963636 3.59838396,14.4361441 4.54620143,15.3830387 C5.4940189,16.3308561 6.63287651,16.8043034 7.96462004,16.8043034 C9.1597745,16.8043034 10.1371247,16.506207 10.8966708,15.9081683 C11.6562168,15.3110525 12.121358,14.5422775 12.2920944,13.603689 L7.96462004,13.603689 L7.96462004,10.5045935 Z M23.995379,12.9622741 L21.460175,12.9622741 L21.460175,15.5233193 L19.4879394,15.5233193 L19.4879394,13.0139564 L16.9785765,13.0139564 L16.9785765,11.0168026 L19.4113387,11.0168026 L19.4113387,8.50743966 L21.4084926,8.50743966 L21.4084926,10.9660431 L23.9178555,10.9660431 L23.995379,12.9622741 Z" id="Shape"></path>
        </g>
    </g>
</svg>