<?xml version="1.0" encoding="UTF-8"?>
<svg width="24px" height="24px" viewBox="0 0 24 24" version="1.1" xmlns="http://www.w3.org/2000/svg" xmlns:xlink="http://www.w3.org/1999/xlink">
    <!-- Generator: Sketch 48.2 (47327) - http://www.bohemiancoding.com/sketch -->
    <title>grafana</title>
    <desc>Created with Sketch.</desc>
    <defs></defs>
    <g id="Page-1" stroke="none" stroke-width="1" fill="none" fill-rule="evenodd">
        <g id="grafana" fill="#000000" fill-rule="nonzero">
            <path d="M15.694745,8.64142195 C16.8825348,8.74652241 17.9327666,9.26429675 18.7163833,10.0479134 C19.8709428,11.0803709 20.5950541,12.5741886 20.5950541,14.2372488 C20.5950541,14.2612056 20.5950541,14.2859351 20.5942813,14.3098918 L20.5942813,14.3060278 C20.5904173,14.3485317 20.5880989,14.3979907 20.5880989,14.4474498 C20.5880989,14.8717156 20.7588872,15.255796 21.0355487,15.5347759 C21.4250386,15.9574961 21.6823802,16.507728 21.7380216,17.1159196 L21.7387944,17.1267388 C21.7387944,17.1313756 21.7387944,17.1367852 21.7387944,17.1429675 C21.7387944,17.2619784 21.6885626,17.3686244 21.6074189,17.4435858 C21.1112828,17.8346213 20.4876352,18.0842349 19.8075734,18.1228748 L19.7990726,18.1236476 C19.6553323,18.1414219 19.5309119,18.2125193 19.4443586,18.3160742 L19.4435858,18.316847 C18.9675425,18.9930448 18.4157651,19.5734158 17.7921175,20.0656878 L17.7743431,20.0788253 C17.679289,20.1561051 17.6136012,20.2666151 17.5965997,20.3933539 L17.5965997,20.3956723 C17.5255023,21.1213292 17.2758887,21.7774343 16.8918083,22.3338485 L16.9010819,22.3199382 C16.8462133,22.4049459 16.7928903,22.4783617 16.7357032,22.5479134 L16.7387944,22.5440495 C16.5996909,22.7063369 16.4605873,22.992272 16.3137558,23 C15.9992272,22.9806801 15.7086553,22.8918083 15.4536321,22.7472952 L15.4636785,22.7527048 C14.8485317,22.4714065 14.3323029,22.0710974 13.923493,21.5772798 L13.9180835,21.5703246 C13.8639876,21.5007728 13.7017002,21.4853168 13.5857805,21.4853168 C13.5502318,21.4860896 13.507728,21.4860896 13.4659969,21.4860896 C12.568779,21.4860896 11.7032457,21.3500773 10.88949,21.0981453 L10.9513138,21.114374 C10.8979907,21.0942813 10.8361669,21.0834621 10.7712519,21.0834621 C10.6491499,21.0834621 10.5370943,21.1244204 10.4474498,21.1931994 L10.4489954,21.1924266 C9.60896445,21.7542504 8.57727975,22.0911901 7.4675425,22.0965997 L7.46599691,22.0965997 C7.45131376,22.0989181 7.43353941,22.1004637 7.41576507,22.1004637 C7.23724884,22.1004637 7.08964451,21.9690881 7.06414219,21.797527 L7.06414219,21.7952087 C6.90803709,21.3431221 6.81839258,20.8222566 6.81839258,20.2805255 C6.81839258,19.8323029 6.88021638,19.3987635 6.99459042,18.9876352 L6.98686244,19.0216383 C7.00309119,18.9752705 7.01236476,18.9219474 7.01236476,18.8670788 C7.01236476,18.7302937 6.95517774,18.6066461 6.86321484,18.5193199 C6.51545595,18.0865533 6.20633694,17.6151468 5.85857805,17.1746522 C5.76043277,17.0471406 5.6251932,16.9528594 5.4698609,16.9057187 L5.46445131,16.9041731 C4.0942813,16.5656878 2.92658423,15.8415765 2.04636785,14.8554869 L2.04095827,14.8485317 C2.01468315,14.7990726 2,14.74034 2,14.6785162 C2,14.6166924 2.01545595,14.5579598 2.04250386,14.5061824 L2.04173107,14.5085008 C2.48840804,13.3276662 3.29907264,12.3693972 4.33539413,11.748068 L4.36012365,11.7341577 C4.54404946,11.6421947 4.67387944,11.4659969 4.70015456,11.2581144 L4.70015456,11.2550232 C4.82380216,10.5981453 4.99381762,9.94899536 5.14064915,9.29984544 C5.14142195,9.28748068 5.14219474,9.27357032 5.14219474,9.25888717 C5.14219474,9.15069552 5.10973725,9.04945904 5.05409583,8.96522411 L5.05564142,8.9675425 C4.41576507,7.98145286 4.03554869,6.77588872 4.03554869,5.48068006 C4.03554869,5.36939722 4.03863988,5.25888717 4.04404946,5.14992272 L4.04327666,5.16537867 C4.04250386,5.1576507 4.04250386,5.14837713 4.04250386,5.13833076 C4.04250386,4.96213292 4.16306028,4.8137558 4.32689335,4.77125193 L4.32921175,4.77047913 C4.95363215,4.51004637 5.67928903,4.35780526 6.44049459,4.35780526 C7.06723338,4.35780526 7.67001546,4.46058733 8.23338485,4.64992272 L8.19397218,4.63833076 C8.25270479,4.66151468 8.32148377,4.67465224 8.39258114,4.67465224 C8.51545595,4.67465224 8.62905719,4.63446677 8.72102009,4.56723338 L8.7194745,4.56800618 C9.29598145,4.16924266 9.95749614,3.82921175 10.6622875,3.58114374 L10.7210201,3.5633694 C10.8261206,3.51700155 10.9049459,3.42812983 10.9366306,3.31916538 L10.9374034,3.31607419 C11.2751159,2.39335394 11.8678516,1.63060278 12.6306028,1.0927357 L12.6452859,1.08268934 C12.7063369,1.0309119 12.7859351,1 12.8732612,1 C12.9605873,1 13.0401855,1.0309119 13.1020093,1.08346213 L13.1012365,1.08268934 C13.8268934,1.53709428 14.3871716,2.19629057 14.7071097,2.97990726 L14.7163833,3.00695518 C14.7720247,3.17619784 14.9211747,3.29907264 15.1012365,3.31607419 L15.1027821,3.31607419 C15.6591963,3.44744977 16.2156105,3.6251932 16.7797527,3.77202473 C16.8454405,3.79598145 16.9211747,3.80989181 17,3.80989181 C17.0788253,3.80989181 17.1545595,3.79598145 17.2248841,3.77047913 L17.2202473,3.77202473 C17.7248841,3.49149923 18.3230294,3.31684699 18.9598145,3.29289026 L18.9667697,3.29289026 C18.9822257,3.29057187 19.0007728,3.28902628 19.0193199,3.28902628 C19.1769706,3.28902628 19.3098918,3.39412674 19.3523957,3.53786708 L19.3531685,3.54018547 C19.5548686,3.9698609 19.6723338,4.47295209 19.6723338,5.00386399 C19.6723338,5.15224111 19.6630603,5.29907264 19.6452859,5.44281298 L19.6468315,5.42581144 C19.6406491,5.45285935 19.637558,5.48454405 19.637558,5.51700155 C19.637558,5.64528594 19.6916538,5.76120556 19.7782071,5.8431221 C21.1421947,7.23029366 22.0015456,9.11669243 22.0579598,11.2032457 L22.0579598,11.2140649 C22.0579598,11.2681607 22.0579598,11.3222566 22.0579598,11.3608964 C22.0579598,11.3995363 21.9497682,11.5618238 21.9034003,11.6545595 C21.8261206,11.5772798 21.7179289,11.515456 21.679289,11.4227202 C21.5247295,10.9976816 21.4165379,10.557187 21.2387944,10.1476043 C20.1004637,7.48608964 17.5255023,5.64451314 14.5139104,5.59582689 L14.507728,5.59582689 C14.427357,5.5927357 14.3330757,5.59041731 14.2380216,5.59041731 C12.9366306,5.59041731 11.7156105,5.9366306 10.6630603,6.54095827 L10.6978362,6.52241113 C9.33616692,7.37326121 8.34157651,8.70479134 7.94822257,10.2743431 L7.938949,10.316847 C7.72488408,10.9768161 7.60200927,11.7372488 7.60200927,12.5255023 C7.60200927,12.751932 7.61205564,12.9760433 7.63214838,13.1970634 L7.62982998,13.1684699 C7.73415765,14.1483771 8.05718702,15.0355487 8.54868624,15.805255 L8.53400309,15.7805255 C9.57573416,17.5324575 11.4590417,18.6877898 13.6120556,18.6877898 C13.6630603,18.6877898 13.7140649,18.687017 13.7650696,18.6854714 L13.7573416,18.6854714 C13.7828439,18.6862442 13.8122102,18.6862442 13.8423493,18.6862442 C15.3377125,18.6862442 16.6522411,17.9142195 17.4103555,16.7465224 L17.4204019,16.7302937 C17.9567233,16.0061824 18.2782071,15.0958269 18.2782071,14.11051 C18.2782071,13.8044822 18.2472952,13.5054096 18.1877898,13.2163833 L18.1924266,13.2449768 C17.824575,11.6615147 16.4258114,10.4992272 14.755796,10.4992272 C14.492272,10.4992272 14.2357032,10.5278207 13.988408,10.5826893 L14.011592,10.5780526 C12.812983,10.9026275 11.9459042,11.9799073 11.9459042,13.2604328 C11.9459042,13.6360124 12.0208655,13.9945904 12.1561051,14.3214838 L12.1491499,14.3029366 C12.5363215,15.0741886 13.3214838,15.5942813 14.2279753,15.5942813 C14.5425039,15.5942813 14.8431221,15.5316847 15.1166924,15.4180835 L15.1012365,15.423493 C15.1939722,15.3771252 15.3485317,15.423493 15.4644513,15.4621329 C15.4180835,15.5780526 15.4026275,15.755796 15.3098918,15.8253478 C14.8840804,16.0958269 14.3647604,16.2565688 13.8083462,16.2565688 C13.1615147,16.2565688 12.564915,16.0394127 12.0880989,15.6731066 L12.0950541,15.6777434 C11.2349304,15.0293663 10.6854714,14.0100464 10.6854714,12.862442 C10.6854714,12.3307573 10.8037094,11.8268934 11.0146832,11.3748068 L11.0054096,11.3964451 C11.6931994,9.64992272 13.2233385,8.62982998 15.7117465,8.63755796 L15.694745,8.64142195 Z" id="Shape"></path>
        </g>
    </g>
</svg>