<svg xmlns="http://www.w3.org/2000/svg" width="64" height="64" viewBox="0 0 64 64">
  <title>grafana</title>
  <path d="M41.85,23a13,13,0,0,1,8.06,3.75,15,15,0,0,1,5,11.18v.19h0c0,.11,0,.24,0,.38a4.15,4.15,0,0,0,1.19,2.9A7.16,7.16,0,0,1,58,45.64v.07a1.09,1.09,0,0,1-.35.81,8.6,8.6,0,0,1-4.8,1.81h0a1.49,1.49,0,0,0-.95.51h0a22,22,0,0,1-4.4,4.67l-.05,0a1.31,1.31,0,0,0-.48.84h0A10.91,10.91,0,0,1,45,59.56l0,0c-.15.23-.29.42-.44.61h0c-.37.43-.75,1.19-1.14,1.21a5.31,5.31,0,0,1-2.29-.67h0a11.45,11.45,0,0,1-4.11-3.13l0,0c-.14-.18-.57-.23-.88-.23h-.32a23.27,23.27,0,0,1-6.87-1l.16.05a1.21,1.21,0,0,0-.48-.09,1.38,1.38,0,0,0-.86.3h0a14.37,14.37,0,0,1-7.95,2.41h-.13a1,1,0,0,1-.94-.8h0a12.4,12.4,0,0,1-.66-4,13.12,13.12,0,0,1,.47-3.45l0,.09a1.3,1.3,0,0,0,.07-.41,1.28,1.28,0,0,0-.4-.93c-.93-1.15-1.75-2.41-2.68-3.58a2.09,2.09,0,0,0-1-.72h0a17.84,17.84,0,0,1-9.11-5.47h0a1,1,0,0,1-.11-.46.93.93,0,0,1,.12-.46h0a14.59,14.59,0,0,1,6.12-7.36l.07,0a1.63,1.63,0,0,0,.9-1.27h0c.33-1.75.79-3.48,1.18-5.21v-.11a1.38,1.38,0,0,0-.23-.78h0a17.12,17.12,0,0,1-2.72-9.29c0-.3,0-.6,0-.89v0a1,1,0,0,1,.76-1h0A15,15,0,0,1,22,12.4l-.11,0a1.51,1.51,0,0,0,.53.1,1.5,1.5,0,0,0,.88-.29h0a22.12,22.12,0,0,1,5.18-2.63l.16-.05a1,1,0,0,0,.57-.65h0a12.48,12.48,0,0,1,4.51-5.93l0,0a.93.93,0,0,1,.61-.22,1,1,0,0,1,.61.22h0A10.77,10.77,0,0,1,39.22,8l0,.07a1.2,1.2,0,0,0,1,.82h0c1.49.35,3,.83,4.48,1.22a1.76,1.76,0,0,0,.58.1,1.68,1.68,0,0,0,.6-.11h0a10.32,10.32,0,0,1,4.64-1.28h.16a.94.94,0,0,1,.89.66h0a9.21,9.21,0,0,1,.85,3.9,11.14,11.14,0,0,1-.07,1.17v0a.93.93,0,0,0,0,.24,1.2,1.2,0,0,0,.37.87,21.14,21.14,0,0,1,6.08,14.3v.42a6.93,6.93,0,0,1-.41.78c-.21-.21-.5-.37-.6-.62-.41-1.13-.7-2.31-1.17-3.4A19.86,19.86,0,0,0,38.7,14.92H38a19.14,19.14,0,0,0-9.54,2.53l.1-.05a16.52,16.52,0,0,0-7.33,10l0,.11a19.34,19.34,0,0,0-.9,5.89c0,.61,0,1.2.08,1.79v-.07a16.1,16.1,0,0,0,2.45,7l0-.07A15.72,15.72,0,0,0,36.3,49.83h.61a11.34,11.34,0,0,0,9.52-5.17l0,0a11.84,11.84,0,0,0,2-9.37v.08A9.41,9.41,0,0,0,39.35,28a9.26,9.26,0,0,0-2.05.22h.06a7.4,7.4,0,0,0-4.94,10l0,0a6.17,6.17,0,0,0,5.54,3.44,6,6,0,0,0,2.37-.47l0,0a1.52,1.52,0,0,1,1,.1c-.13.31-.17.79-.41,1a7.55,7.55,0,0,1-8.6-.41l0,0a9.38,9.38,0,0,1-2.88-11.48l0,.06C31.18,25.73,35.26,23,41.9,23Z"/>
</svg>
