<svg xmlns="http://www.w3.org/2000/svg" width="64" height="64" viewBox="0 0 64 64">
  <title>graphite</title>
  <path d="M29.4,34.45l2.83-1.7c-.46-1.31,1.11-2,1.11-2l-.44-2c-1.8-.26-1.63-1.23-1.63-1.23l-2.81-.6a2.6,2.6,0,0,1-1.93.5c-1,0-1.69-.64-1.45-1.41A1.93,1.93,0,0,1,26.29,25l-.12-1.56c-1.37,0-1.26-1-1.26-1L22.5,22a4.47,4.47,0,0,1-1.56.35c-.76,0-1.6-.33-1.39-1s1.22-.95,1.22-.95l.07-1.23s-.7,0-.88-.35-.09-.7.48-1a4.18,4.18,0,0,1,2.2-.33l2.07-.78s0-.59,1-.88l-.08-.93s-.69,0-.94-.4,0-.68.82-.89a3.89,3.89,0,0,1,1.45-.09l1.8-.63a.57.57,0,0,1,.47-.6,3.1,3.1,0,0,1,1.53-.15c.87.06.86.55.86.55l1.87.27a2.72,2.72,0,0,1,1.8-.19l1.53-.6s-.18-.37.37-.6a2.76,2.76,0,0,1,1.41-.13c.8.11,1,.5,1,.5l1.95.25a2.31,2.31,0,0,1,1.65-.2l1.28-.53a.39.39,0,0,1,.21-.62,2.7,2.7,0,0,1,1.51-.09c.73.11.84.41.84.41l2,.25a3,3,0,0,1,1-.2,2.91,2.91,0,0,1,1.37.35c.6.42-.12.76-.12.76l.77.77s1.07,0,1.48.53l2.21.3A2.24,2.24,0,0,1,57,13.69a2.51,2.51,0,0,1,1.42.49.49.49,0,0,1-.09.83l1.08,1a2.75,2.75,0,0,1,1.71.62c.39.41.24.86-.56,1a7.39,7.39,0,0,1-1.64,0l-1.23.77a.58.58,0,0,1,0,1,2.45,2.45,0,0,1-1.78.2,2.55,2.55,0,0,1-1.4-.75L52,18.47s-.45.38-1.9.23l-1.58.82s.57.59-.3,1.08L49.19,22a2.32,2.32,0,0,1,1.55.53c.72.6.49,1.29-.27,1.58a2.6,2.6,0,0,1-1.87,0l-1.82,1.13a.93.93,0,0,1-.47,1.43l1,1.91a3.09,3.09,0,0,1,1.84.87,1.3,1.3,0,0,1-.43,2.11,2.64,2.64,0,0,1-2.22.05l-2.27,1.63a1.57,1.57,0,0,1-.66,2.11l1.11,2.76A3.35,3.35,0,0,1,47,39.52a2,2,0,0,1-1.39,3.06,3.8,3.8,0,0,1-2-.17l-3,2.48a2.74,2.74,0,0,1-.32,2.69,3.38,3.38,0,0,1-4.12.75,2.65,2.65,0,0,1-1.38-2.26l-4.09-1.2c-1.38,1.52-3.67.72-3.67.72l-3.87,2.79A3.59,3.59,0,0,1,22,51.47a3.68,3.68,0,0,1-4.21.72,2.41,2.41,0,0,1-1-2.61l-3.9-1.33A4.8,4.8,0,0,1,10,49.33a1.92,1.92,0,0,1-1.9-2.78,5.3,5.3,0,0,1,2.44-2.49l.72-3.38a1.52,1.52,0,0,1-1.31-2l-3.11-.92a5.47,5.47,0,0,1-2.46.77c-1.37,0-2.06-.93-1.43-2a4.7,4.7,0,0,1,2.24-1.78L6,32.3s-.83-.08-1-.71.3-1.39,1.6-2a3.36,3.36,0,0,1,2.76-.25l3.21-1.41s0-1.32,2.34-1.73,2.17,1.13,2.17,1.13l2.66.63a3.78,3.78,0,0,1,1.85-.5c.7,0,1.63.62,1.63,1.28a1.9,1.9,0,0,1-1.48,1.63l0,2.18s1.56.24,1.46,1.63l3.18.81A3.38,3.38,0,0,1,29.4,34.45ZM8.2,36.23l3.13.91a3.89,3.89,0,0,1,3.35-.53l3.55-1.91s-.12-1.31,1.7-2.05l.15-2.34C18.34,30.16,18.8,29,18.8,29L16,28.31c-2.14.91-2.86.35-2.86.35L9.92,30.11s-.05,1.14-2,1.88L7.11,34.5S8.85,34.67,8.2,36.23Zm6.21,10,3.8,1.23s2-1.82,4-.75L26,44.06s-.54-1.78,1.67-3l-.24-3.16s-2.11-.37-1.8-1.88l-3.31-.85a3.35,3.35,0,0,1-3.2.5l-3.6,2c0,1.55-2.1,2.56-2.1,2.56l-.59,3.44S14.88,43.75,14.41,46.22Zm15-8.6.35,3.13s2.19.41,2.09,2.24l4,1.12a3.14,3.14,0,0,1,3.55-.65l3-2.41a2,2,0,0,1,.84-2.63l-1-2.89s-2-.32-2.2-1.73L36.55,33a3.22,3.22,0,0,1-3,.48L30.7,35.28S31.36,36.52,29.37,37.62Zm7.72-5.78,3.33.76a2.87,2.87,0,0,1,2.83-.43l2.32-1.61a1.11,1.11,0,0,1,.56-1.78l-1-2s-1.67-.18-1.87-1.16l-2.91-.55s-.5.75-2.44.3l-2.29,1.25s.63.87-.91,1.64l.54,2.13A2,2,0,0,1,37.09,31.84Zm1.33-10.16L39,23.21s1.38,0,1.7,1l2.83.52s.69-.76,2.39-.3l1.88-1.13A.79.79,0,0,1,48.18,22l-.94-1.45s-1.32.06-1.7-.86L43,19.32a2.53,2.53,0,0,1-2.05.25l-1.87.93S39.68,21.16,38.42,21.68Zm-2.86-.75-2.49-.45a2.93,2.93,0,0,1-2.19.25l-2.22,1s.44.69-1,1.23l.2,1.66s1.44,0,1.45,1.1l2.81.58A2.74,2.74,0,0,1,34.6,26l2.27-1.23s-.63-.79.76-1.41l-.57-1.55S35.73,21.84,35.56,20.93ZM31,19.07l-.27-1.23s-1.16-.08-1.16-.73l-2.17-.35a3.54,3.54,0,0,1-2,.23l-2.07.78s.31.63-1.11,1.05l0,1.31s1.19-.11,1.16.85l2.29.35a2.87,2.87,0,0,1,2.29-.25l2.2-.95S29.73,19.44,31,19.07Zm-3-2.88,2.14.35a3.15,3.15,0,0,1,2-.25l1.82-.73s-.42-.48.67-.85l-.35-1s-1.09,0-1.11-.55l-1.95-.28a3.18,3.18,0,0,1-1.77.21l-1.78.62s.26.5-.86.76l.12,1S28,15.53,27.92,16.19Zm5.69,3.58L36,20.2A2.6,2.6,0,0,1,38.2,20l1.8-.88s-.43-.7.56-1.05L40,16.94s-1.13,0-1.33-.73l-2.19-.32a2.78,2.78,0,0,1-2,.23l-1.87.77s.27.6-.77.93l.3,1.13S33.57,18.91,33.61,19.77Zm2.07-5.09s1,0,1.26.63l2.17.32s.42-.42,1.85-.25l1.58-.67s-.51-.53.44-.86l-.59-.9s-1,0-1.26-.53l-2-.25a2.62,2.62,0,0,1-1.7.2l-1.57.6s.38.39-.62.76Zm8.36-.8a1.67,1.67,0,0,1,1.36.6l2.19.3s.32-.33,1.77-.2l1.38-.65s-.59-.45.23-.75l-.82-.88c-1.16,0-1.35-.53-1.35-.53l-2-.25a3.12,3.12,0,0,1-1.63.17l-1.38.56s.48.38-.37.72Zm-2.15,4a1.67,1.67,0,0,1,1.46.78l2.46.4a2.54,2.54,0,0,1,2.07-.22L49.46,18s-.69-.51.37-1l-.91-1.14a1.94,1.94,0,0,1-1.55-.63l-2.25-.33s-.39.4-1.79.25l-1.56.71s.57.49-.49.9Zm8.14-2,.89,1.08a2.16,2.16,0,0,1,1.62.7L55,18s.42-.5,1.95-.23l1.31-.8s-.94-.59,0-.95l-1.11-1a2.16,2.16,0,0,1-1.57-.63l-2.25-.3s-.25.3-1.7.2L50.28,15C50.85,15.58,50,15.86,50,15.86Z" fill-rule="evenodd"/>
</svg>
