<?xml version="1.0" encoding="UTF-8"?>
<svg width="24px" height="24px" viewBox="0 0 24 24" version="1.1" xmlns="http://www.w3.org/2000/svg" xmlns:xlink="http://www.w3.org/1999/xlink">
    <!-- Generator: Sketch 48.2 (47327) - http://www.bohemiancoding.com/sketch -->
    <title>graphite</title>
    <desc>Created with Sketch.</desc>
    <defs></defs>
    <g id="Page-1" stroke="none" stroke-width="1" fill="none" fill-rule="evenodd">
        <g id="graphite" fill="#000000">
            <path d="M18.7610407,5.9475618 L19.0938149,6.35211823 C19.0938149,6.35211823 19.4788721,6.33575617 19.7039009,6.61570922 L20.6375763,6.75667466 C20.6375763,6.75667466 20.7924823,6.56860087 21.3677719,6.67216731 L21.8575718,6.37099753 C21.8575718,6.37099753 21.5046615,6.15019962 21.8483869,6.01336965 L21.4324191,5.62769252 C21.4324191,5.62769252 21.1072401,5.65592157 20.8408794,5.39251038 L19.9997591,5.27941439 C19.9997591,5.27941439 19.903848,5.39179117 19.3617652,5.35475178 L18.8534191,5.60881322 C19.0669668,5.84273674 18.7610407,5.9475618 18.7610407,5.9475618 Z M15.7106104,6.70974611 C15.7106104,6.70974611 16.1173933,6.7027338 16.2560493,7.00138635 L17.1803632,7.15206114 C17.1803632,7.15206114 17.4421314,6.94996273 17.9568363,7.06737399 L18.548376,6.74732491 C18.548376,6.74732491 18.2899638,6.55547526 18.6868553,6.36632266 L18.3450729,5.93821205 C18.3450729,5.93821205 17.931578,5.95691155 17.762718,5.70285011 L16.921421,5.58058417 C16.921421,5.58058417 16.7723439,5.72892153 16.2468644,5.67462107 L15.6643329,5.93821205 C15.6643329,5.93821205 15.878234,6.12215038 15.4795761,6.27696064 L15.7106104,6.70974611 Z M16.5148148,5.20425679 C16.5148148,5.20425679 16.8717875,5.18951296 17.0231609,5.43008918 L17.8459116,5.54300537 C17.8459116,5.54300537 17.9646081,5.41804239 18.51146,5.46766798 L19.0291676,5.22295629 C19.0291676,5.22295629 18.8073182,5.05466082 19.1123612,4.9406658 L18.8073182,4.61144677 C18.3729807,4.59904038 18.2987954,4.41384343 18.2987954,4.41384343 L17.5502301,4.31962674 C17.3467503,4.4431513 16.9399674,4.38561439 16.9399674,4.38561439 L16.4224364,4.59256747 C16.4224364,4.59256747 16.6031306,4.73622996 16.2837804,4.86550821 L16.5148148,5.20425679 Z M13.381191,5.50542658 C13.381191,5.50542658 13.7549438,5.48546846 13.8526211,5.74060871 L14.6660103,5.86287466 C14.6660103,5.86287466 14.8219761,5.70267031 15.3592899,5.76883776 L15.9510062,5.51477633 C15.9510062,5.51477633 15.7604206,5.31681338 16.1173933,5.19472724 L15.8955439,4.85597866 C15.8955439,4.85597866 15.5064241,4.8710821 15.4241138,4.65855512 L14.6939181,4.56433842 C14.6939181,4.56433842 14.5239984,4.68750338 14.0559243,4.63967582 L13.4643846,4.86550821 C13.4643846,4.86550821 13.6076329,5.0097101 13.2333502,5.14779869 L13.381191,5.50542658 Z M12.6047179,7.41547232 L13.5106621,7.57549687 C13.5106621,7.57549687 13.8211807,7.34337138 14.3240513,7.48128017 L14.9987845,7.15206114 C14.9987845,7.15206114 14.8405225,6.89008838 15.2114491,6.75667466 L15.008146,6.35211823 C15.008146,6.35211823 14.5828168,6.36632266 14.5089847,6.0793573 L13.686234,5.95691155 C13.686234,5.95691155 13.4679172,6.11837452 12.9574515,6.04573416 L12.253574,6.33341873 C12.253574,6.33341873 12.3565503,6.56050974 11.9669006,6.68151706 L12.0778254,7.10495279 C12.0778254,7.10495279 12.5884677,7.09236659 12.6047179,7.41547232 Z M10.4694167,6.06982774 L11.273621,6.20162324 C11.273621,6.20162324 11.4816932,6.0547243 12.0131782,6.10758634 L12.6970963,5.83464561 C12.6970963,5.83464561 12.5406005,5.65592157 12.9468535,5.51477633 L12.8173825,5.15714844 C12.8173825,5.15714844 12.4105996,5.1483381 12.4014147,4.95019536 L11.6710425,4.84662891 C11.6710425,4.84662891 11.3924942,4.98345888 11.0056707,4.92196631 L10.3401223,5.15714844 C10.3401223,5.15714844 10.4356801,5.3430646 10.0165329,5.43943893 L10.0628104,5.81594611 C10.0628104,5.81594611 10.501917,5.82529586 10.4694167,6.06982774 Z M11.6063952,7.15206114 L11.5046554,6.69086681 C11.5046554,6.69086681 11.0685516,6.66155895 11.0703179,6.41810588 L10.2569287,6.28631038 C10.2569287,6.28631038 9.88370585,6.45568467 9.49882528,6.37099753 L8.72252877,6.66281757 C8.72252877,6.66281757 8.83857582,6.90141596 8.30656101,7.05784444 L8.28801468,7.54708802 C8.28801468,7.54708802 8.73559952,7.5082506 8.72252877,7.8671371 L9.58201883,7.99893259 C9.58201883,7.99893259 9.94729328,7.75547953 10.4416855,7.9047159 L11.2644362,7.54708802 C11.2644362,7.54708802 11.1496256,7.29086894 11.6063952,7.15206114 Z M13.3349135,7.8482578 L12.4014147,7.67888351 C12.4014147,7.67888351 12.0621051,7.89770359 11.5786641,7.77310021 L10.7467286,8.14942759 C10.7467286,8.14942759 10.9139988,8.40726488 10.358492,8.61044211 L10.4325007,9.23148118 C10.4325007,9.23148118 10.9729938,9.23885309 10.9779395,9.64556716 L12.0315479,9.8620498 C12.0315479,9.8620498 12.3712107,9.56843173 12.9745847,9.7491336 L13.8248899,9.28793927 C13.8248899,9.28793927 13.5892632,8.99162417 14.1113866,8.7609371 L13.8988986,8.17765663 C13.8988986,8.17765663 13.3997373,8.18988323 13.3349135,7.8482578 Z M14.4072448,8.13054829 L14.6384558,8.704479 C14.6384558,8.704479 15.1559868,8.69512926 15.276273,9.08098619 L16.3392428,9.27858953 C16.3392428,9.27858953 16.5957121,8.99162417 17.2358255,9.16567333 L17.93829,8.7422376 C17.93829,8.7422376 17.6978942,8.45958751 18.0677611,8.26234378 L17.7164405,7.71646231 C17.7164405,7.71646231 17.2213417,7.74037609 17.0786233,7.39659302 L16.135763,7.24609803 C16.135763,7.24609803 15.8376087,7.46329988 15.3686514,7.34013493 L14.6660103,7.68841306 C14.6660103,7.68841306 14.8809711,7.93528238 14.4072448,8.13054829 Z M13.9080835,11.9414698 L15.1559868,12.2237603 C15.1559868,12.2237603 15.5580006,11.8474329 16.2189566,12.0639156 L17.0879848,11.461576 C17.0879848,11.461576 16.7649253,11.0442536 17.3004728,10.7936084 L16.921421,10.0407738 C16.921421,10.0407738 16.2929653,9.97478619 16.2189566,9.60780856 L15.1282556,9.40085547 C15.1282556,9.40085547 14.9397895,9.68314595 14.2131265,9.51377166 L13.3534598,9.98431574 C13.3534598,9.98431574 13.5892632,10.3101185 13.0115008,10.5960051 L13.2148039,11.3957682 C13.2148039,11.3957682 13.7916832,11.4189627 13.9080835,11.9414698 Z M11.0148555,14.1057568 L11.14415,15.2818473 C11.14415,15.2818473 11.9669006,15.4344999 11.9299846,16.119369 L13.418107,16.5428047 C13.418107,16.5428047 13.9094966,15.9686942 14.7493805,16.2980931 L15.8678127,15.3947635 C15.8678127,15.3947635 15.5433402,14.7751629 16.1820406,14.4067468 L15.793804,13.3246932 C15.793804,13.3246932 15.045062,13.2024273 14.9710533,12.6754251 L13.7047804,12.3837849 C13.7047804,12.3837849 13.1734721,12.7978708 12.595533,12.5625089 L11.5140168,13.2306563 C11.5140168,13.2306563 11.7604181,13.6963457 11.0148555,14.1057568 Z M5.40397157,17.3332181 L6.82744679,17.7942326 C6.82744679,17.7942326 7.59473509,17.1126 8.31574586,17.5119421 L9.74840594,16.5239254 C9.74840594,16.5239254 9.54881207,15.85398 10.3770383,15.4136428 L10.2846599,14.2280228 C10.2846599,14.2280228 9.49370296,14.0897544 9.60975002,13.5222966 L8.37120823,13.2024273 C7.7895599,13.654092 7.16958248,13.3906809 7.16958248,13.3906809 L5.81993933,14.1339859 C5.80492563,14.7154683 5.03428133,15.0937735 5.03428133,15.0937735 L4.81243186,16.3827802 C4.81243186,16.3827802 5.57954352,16.4047161 5.40397157,17.3332181 Z M3.07455213,13.5881044 L4.2484467,13.926853 C4.2484467,13.926853 4.87919866,13.4791439 5.50571145,13.7292496 L6.83680827,13.0141737 C6.83680827,13.0141737 6.79265034,12.5202552 7.4746255,12.2426396 L7.53008787,11.3675391 C6.87637378,11.3085638 7.04929626,10.8594162 7.04929626,10.8594162 L6.01405761,10.6147046 C5.21338592,10.9568694 4.9417263,10.7465 4.9417263,10.7465 L3.72155421,11.2922017 C3.72155421,11.2922017 3.70159482,11.7185143 2.9636274,11.9979279 L2.66776923,12.9388363 C2.66776923,12.9388363 3.31883384,12.9996096 3.07455213,13.5881044 Z M11.0240404,12.9201368 L12.0871869,12.2802184 C11.9147943,11.7904354 12.5031546,11.5462632 12.5031546,11.5462632 L12.3365909,10.7840788 C11.6620342,10.6887833 11.7266815,10.3230643 11.7266815,10.3230643 L10.6727199,10.0972319 C10.6727199,10.0972319 10.479838,10.3025668 9.94729328,10.2853057 C9.58007588,10.2736185 9.31336195,10.0479659 9.40644688,9.75866315 C9.49953181,9.46954016 9.8595073,9.36327667 9.8595073,9.36327667 L9.81322979,8.7798164 C9.30099773,8.76291493 9.34179966,8.40348902 9.34179966,8.40348902 L8.43585545,8.23411473 C8.43585545,8.23411473 8.13946738,8.36591022 7.85350059,8.36591022 C7.5675338,8.36573042 7.2525994,8.24238566 7.33067063,7.99893259 C7.40874186,7.75529972 7.78885337,7.64130471 7.78885337,7.64130471 L7.81658456,7.18011038 C7.81658456,7.18011038 7.55075378,7.17112024 7.48381035,7.04849469 C7.41686692,6.92586915 7.45307643,6.78616233 7.66362147,6.67324613 C8.00752347,6.48912801 8.49131782,6.54972157 8.49131782,6.54972157 L9.26779096,6.25808134 C9.26779096,6.25808134 9.25472021,6.03728343 9.62829635,5.9288623 L9.60056517,5.58058417 C9.60056517,5.58058417 9.34197629,5.59299057 9.24924463,5.43008918 C9.18989636,5.32544392 9.24023641,5.17422971 9.55411102,5.09691449 C9.86833889,5.01959926 10.0997265,5.06311155 10.0997265,5.06311155 L10.7744597,4.82774961 C10.7744597,4.82774961 10.7529107,4.66233098 10.9502083,4.60209702 C11.147506,4.54168326 11.1976694,4.52280396 11.5232017,4.54563893 C11.8489106,4.56829409 11.846791,4.75259202 11.846791,4.75259202 L12.548549,4.85328162 C12.548549,4.85328162 12.743727,4.71735066 13.2241654,4.78082106 L13.7971588,4.55498868 C13.7971588,4.55498868 13.730392,4.41887791 13.9356381,4.33131392 C14.0893077,4.26568588 14.281483,4.25615633 14.4627072,4.28204794 C14.763511,4.32502082 14.8232126,4.47030153 14.8232126,4.47030153 L15.5534082,4.56433842 C15.5534082,4.56433842 15.7173224,4.43398135 16.1728557,4.48918083 L16.6534707,4.29157749 C16.6534707,4.29157749 16.5428992,4.12651847 16.7341914,4.05729437 C16.9253069,3.98825007 17.060077,3.98735106 17.3004728,4.02421064 C17.570896,4.06592491 17.6148773,4.1786613 17.6148773,4.1786613 L18.3542577,4.27269819 C18.3542577,4.27269819 18.5460798,4.19304553 18.7336627,4.19736079 C18.9212456,4.20185587 19.133557,4.24770559 19.2496041,4.32915629 C19.4725133,4.48558477 19.2047396,4.61144677 19.2047396,4.61144677 L19.4912363,4.90308701 C19.4912363,4.90308701 19.8928969,4.89733332 20.04586,5.10069035 L20.8777955,5.21360654 C20.8777955,5.21360654 21.0445358,5.1042864 21.3794296,5.13269525 C21.4721613,5.14060658 21.7512394,5.1670376 21.9119743,5.3182518 C22.1022067,5.49679604 21.8761181,5.62769252 21.8761181,5.62769252 L22.282901,5.99467015 C22.282901,5.99467015 22.7032845,5.99952483 22.9224845,6.22823406 C23.068559,6.38070688 23.0132733,6.55295802 22.7131759,6.59665011 C22.4132552,6.64034221 22.0979676,6.60617967 22.0979676,6.60617967 L21.6357223,6.8979997 C21.6357223,6.8979997 21.902083,7.06305872 21.6542686,7.27432708 C21.4898245,7.41457331 21.1275528,7.38544525 20.9841278,7.34840586 C20.588296,7.24609803 20.4618277,7.06737399 20.4618277,7.06737399 L19.5097826,6.92604895 C19.5097826,6.92604895 19.3409227,7.06989123 18.7979567,7.0109159 L18.206417,7.32143543 C18.206417,7.32143543 18.4208479,7.54187373 18.0954922,7.72599186 L18.4468128,8.24346448 C18.4468128,8.24346448 18.759451,8.21613445 19.0291676,8.44106782 C19.2987077,8.66600119 19.2121581,8.9241981 18.9274278,9.03387784 C18.548376,9.18023736 18.2249633,9.03387784 18.2249633,9.03387784 L17.5408686,9.45731357 C17.5408686,9.45731357 17.7805578,9.83436016 17.3652966,9.99366549 L17.7535332,10.7087414 C17.7535332,10.7087414 18.1779793,10.744702 18.4409839,11.034724 C18.7041652,11.3251056 18.5644495,11.7073665 18.2804257,11.8285536 C17.7930987,12.0365855 17.4484902,11.8474329 17.4484902,11.8474329 L16.5980083,12.4589425 C16.8468824,12.9821688 16.3484277,13.2493558 16.3484277,13.2493558 L16.7643954,14.2844809 C16.7643954,14.2844809 17.3389785,14.3481311 17.6297143,14.8193944 C17.9202736,15.2906576 17.6260051,15.8653076 17.1063545,15.9686942 C16.6985118,16.0501449 16.3484277,15.9028864 16.3484277,15.9028864 L15.2391803,16.834445 C15.2391803,16.834445 15.4873479,17.3621664 15.1190707,17.841341 C14.7778182,18.2850944 14.0976094,18.3863234 13.5753093,18.1236315 C13.0531859,17.8609395 13.0576017,17.27676 13.0576017,17.27676 L11.5232017,16.8250952 C11.0063772,17.3952501 10.146004,17.098036 10.146004,17.098036 L8.69462095,18.142331 C8.69462095,18.142331 8.80183642,18.8133552 8.23255231,19.2997219 C7.66309157,19.7862685 7.02810045,19.7984951 6.65187484,19.5726627 C6.09937074,19.241286 6.27282312,18.5939957 6.27282312,18.5939957 L4.81243186,18.0954024 C4.81243186,18.0954024 4.3713824,18.4873726 3.73091569,18.4999588 C3.09027236,18.512545 2.80748494,17.9628877 3.01908977,17.455484 C3.28439065,16.8195213 3.93421883,16.5239254 3.93421883,16.5239254 L4.20234582,15.2536183 C3.49599547,15.1140912 3.71236936,14.4914339 3.71236936,14.4914339 L2.54765964,14.1433356 C2.54765964,14.1433356 2.08241163,14.4349759 1.62334573,14.4349759 C1.11093704,14.4349759 0.852878063,14.0838209 1.08709175,13.6916708 C1.36864275,13.2205874 1.92838875,13.0235234 1.92838875,13.0235234 L2.25180147,12.1108441 C2.25180147,12.1108441 1.9375736,12.0826151 1.8635649,11.8474329 C1.78973283,11.612071 1.97448963,11.3252854 2.46216988,11.0838102 C3.09451152,10.7936084 3.49970474,10.9910319 3.49970474,10.9910319 L4.70133049,10.4642096 C4.70133049,10.4642096 4.70486313,9.9690325 5.57954352,9.81386263 C6.43567758,9.66210902 6.39310933,10.2383772 6.39310933,10.2383772 L7.39125532,10.4735593 C7.39125532,10.4735593 7.70530656,10.2773944 8.08453491,10.2853057 C8.34842274,10.2910594 8.69462095,10.5188696 8.69462095,10.7651995 C8.69462095,11.0084728 8.46976874,11.2887855 8.14017391,11.3768889 L8.13081243,12.1955313 C8.13081243,12.1955313 8.71316729,12.2848933 8.67625125,12.8072206 L9.86869215,13.1082106 C9.86869215,13.1082106 10.3056791,12.7203758 11.0240404,12.9201368 Z" id="Fill-1"></path>
        </g>
    </g>
</svg>