<svg xmlns="http://www.w3.org/2000/svg" width="64" height="64" viewBox="0 0 64 64">
  <title>gunicorn</title>
  <path d="M28.43,36.21c0,.14,0,.31,0,.49a6,6,0,0,0,.37,2.08l0,0L31,45.85c.12.41.22.85.33,1.29a.65.65,0,0,1,0,.2.78.78,0,0,1,0,.22h0c-.33,1-.65,2.08-1,3s-.6,1.25-1.52,1.1H27.41c-.46,0-.54-.33-.39-.74a22.06,22.06,0,0,0,.59-2.2l0-.15a4.79,4.79,0,0,0,.12-1,4.68,4.68,0,0,0-1-2.94h0a11.67,11.67,0,0,1-2.06-3.45l0-.08a12.66,12.66,0,0,1-.64-3V38c-.12-1-.77-1.16-1.53-.87a37.32,37.32,0,0,0-4,1.88l.19-.09a3,3,0,0,0-1.32,2.46,2.84,2.84,0,0,0,.19,1.05v0a5.49,5.49,0,0,0,.58,1.4l0,0a3,3,0,0,0,.74.68h0l1.23,1a.54.54,0,0,1,0,.22.59.59,0,0,1-.05.23h0a4.76,4.76,0,0,1-1.57,2.3h0a.79.79,0,0,1-.65,0h0A13.66,13.66,0,0,1,16.2,47h0c-.52-.46-1-.95-1.47-1.41a3.14,3.14,0,0,1-.94-2.07h0a13.75,13.75,0,0,1-.21-2.4,14.39,14.39,0,0,1,.22-2.48v.08A7.85,7.85,0,0,1,16,35.09h0c.92-.93,1.89-1.78,2.85-2.68.46-.41.89-.81,1.33-1.24a.72.72,0,0,0,.19-.39h0V26.42A27.73,27.73,0,0,0,20,23.37l0,.16a2.9,2.9,0,0,0-1.38-2.07h0a.88.88,0,0,0-.55-.2.86.86,0,0,0-.76.47h0c-.33.54-.56,1.13-.87,1.71a9.25,9.25,0,0,1-.63,1.22l0,0a1.71,1.71,0,0,1-1.37.69,1.55,1.55,0,0,1-.53-.09h0a1.92,1.92,0,0,1-1.41-1.59h0c0-1.33-.15-2.63-.17-4a23.92,23.92,0,0,1,.18-2.44v.11a1.27,1.27,0,0,0,0-.2A1.29,1.29,0,0,0,11.86,16h0c-1.37-.77-2.74-1.56-4.16-2.31C6.86,13.2,6,12.79,5.2,12.31a24.61,24.61,0,0,1-2.53-1.64l.06,0a20.46,20.46,0,0,1,2.21.73l-.14,0c2.48,1,5.05,1.8,7.61,2.63.85.28,1,0,1-.74s0-1.5,0-2.27h.12a12.55,12.55,0,0,0,4.87,1H19a40,40,0,0,1,4.51.75l-.25-.05a4.91,4.91,0,0,1,2.6,2.06v0c.69.92,1.31,1.85,1.92,2.81s1.18,2.08,1.8,3A4.86,4.86,0,0,0,33.74,23a5.1,5.1,0,0,0,1-.11h0c2.35-.34,4.67-.81,7-1.17a17.53,17.53,0,0,1,5.78,0l-.11,0a9.61,9.61,0,0,1,2.69,1.09l-.05,0a18.47,18.47,0,0,1,4.49,3.39h0A15.11,15.11,0,0,1,56.46,29l0,.09a18.32,18.32,0,0,1,1.18,2.43l0,.14c.81,2.08,1.56,4.16,2.33,6.34L61,40.24c.54,1.22.54,1.33-.75,1.29a6.85,6.85,0,0,1-1.37-.16h0A4,4,0,0,1,56.29,39v0c-.59-1.33-1-2.72-1.54-4.15-.4-.94-.9-1.85-1.37-2.77a.66.66,0,0,0-.44-.21h0s-.21.19-.23.32c-.23.7-.41,1.43-.6,2.07A3,3,0,0,0,52,35a2.87,2.87,0,0,0,.38,1.42v0c.52,1,1,2,1.58,2.93A18,18,0,0,1,56,45.05l0,.11a18.84,18.84,0,0,1,0,5.74l0-.11c0,.11-.19.27-.29.27H53.68c-.5,0-.71-.29-.73-.91,0-1.16,0-2.31-.1-3.45v-.21a4.27,4.27,0,0,0-1.29-3.07c-.39-.37-.76-.76-1.11-1.16v0l-2.79-3.4c-.36-.46-.73-.92-1.12-1.37s-.56-.27-.67.16c-.14.79-.24,1.62-.33,2.41a9,9,0,0,0,0,1.48h0a2.06,2.06,0,0,1-.48,1.33h0A11,11,0,0,0,43,47.29v.08c-.19.85-.36,1.7-.5,2.53s-.21.83-.85.92a22.59,22.59,0,0,1-2.33,0c-.33,0-.33-.23-.31-.48.1-1,.2-2.08.33-3.08a39.11,39.11,0,0,0,.81-7.47v0a19.62,19.62,0,0,0-.29-2.62c-.13-.87-.33-.79-1-.81l-6.71,0A22.1,22.1,0,0,1,29,36.21h-.6Z"/>
</svg>
