<?xml version="1.0" encoding="UTF-8"?>
<svg width="24px" height="24px" viewBox="0 0 24 24" version="1.1" xmlns="http://www.w3.org/2000/svg" xmlns:xlink="http://www.w3.org/1999/xlink">
    <!-- Generator: Sketch 48.2 (47327) - http://www.bohemiancoding.com/sketch -->
    <title>gunicorn</title>
    <desc>Created with Sketch.</desc>
    <defs></defs>
    <g id="Page-1" stroke="none" stroke-width="1" fill="none" fill-rule="evenodd">
        <g id="gunicorn" fill="#000000" fill-rule="nonzero">
            <path d="M10.6608186,13.5774416 C10.6561432,13.6327665 10.6538056,13.6966629 10.6538056,13.7613385 C10.6538056,14.0364045 10.7021174,14.2997822 10.790949,14.5436793 L10.7854944,14.5280948 L11.6270563,17.1930407 C11.6738097,17.3488855 11.7127709,17.5125226 11.7517321,17.6761596 C11.7610828,17.6995363 11.7657581,17.7260299 11.7657581,17.754082 C11.7657581,17.7821341 11.7603036,17.8086277 11.7509529,17.8335628 L11.7517321,17.8320044 C11.6270563,18.2060319 11.5101727,18.6112283 11.3699124,18.9462946 C11.2296521,19.2813609 11.1439374,19.413829 10.8010789,19.3592833 C10.6296496,19.3592833 10.4504281,19.3592833 10.2789988,19.3592833 C10.1075696,19.3592833 10.0764006,19.2346075 10.1309463,19.0787627 C10.2088687,18.8512293 10.289908,18.5559034 10.3545836,18.255123 L10.3647135,18.1982396 C10.3919863,18.0813561 10.40835,17.9481088 10.40835,17.8101861 C10.40835,17.3925221 10.2626351,17.0083647 10.0195173,16.706805 L10.0218549,16.7099219 C9.69925621,16.3335567 9.43587852,15.8940744 9.25276089,15.4156309 L9.24263098,15.3852412 C9.12808505,15.0548502 9.04314964,14.6683551 9.00263,14.2693925 L9.00107155,14.2475742 C8.95431811,13.8891312 8.71275869,13.8112088 8.42444582,13.9203001 C7.85249544,14.1525089 7.3857403,14.3769254 6.93534885,14.626277 L7.00625823,14.5904327 C6.70469856,14.7914725 6.50833412,15.1296557 6.50833412,15.5145924 C6.50833412,15.652515 6.53404851,15.7849831 6.58002273,15.9073212 L6.57768506,15.899529 C6.63145151,16.0951142 6.70314011,16.2657642 6.79353009,16.4247259 L6.78807552,16.4138168 C6.86677714,16.5143367 6.95950479,16.6000513 7.0639208,16.668623 L7.06859615,16.6709607 L7.52833828,17.0605727 C7.54002664,17.0847286 7.54626043,17.1127807 7.54626043,17.1423912 C7.54626043,17.1720017 7.53924741,17.2000538 7.52755905,17.2257682 L7.52833828,17.2242097 C7.4184677,17.5756397 7.21197335,17.8709656 6.94002419,18.0860314 L6.93612807,18.0891483 C6.901063,18.105512 6.8589849,18.1156419 6.81534836,18.1156419 C6.77171182,18.1156419 6.72963373,18.105512 6.6930102,18.0883691 L6.69456865,18.0891483 C6.46235991,17.9410957 6.26209935,17.7899263 6.07352716,17.6247308 L6.07898173,17.6294062 C5.88417574,17.4579769 5.71274647,17.2709631 5.52573272,17.0995339 C5.32313449,16.8992733 5.19222487,16.6265449 5.17508194,16.3234268 L5.17508194,16.3203099 C5.12521161,16.0499192 5.09638032,15.7382296 5.09638032,15.4203063 C5.09638032,15.1023829 5.12521161,14.7906933 5.17975728,14.4883544 L5.17508194,14.5203026 C5.32780984,13.9795212 5.61534347,13.5174414 5.99950088,13.1582191 L6.00105933,13.1566607 C6.34391787,12.8060099 6.71015313,12.4865281 7.06859615,12.1514618 C7.24002542,11.995617 7.40366245,11.8475644 7.56729948,11.6839274 C7.60470223,11.6449662 7.62963739,11.5935374 7.63742963,11.5374333 L7.63742963,11.5358748 C7.63742963,10.9982103 7.63742963,10.4449613 7.63742963,9.90729679 C7.61171524,9.49976266 7.56729948,9.12807283 7.50418234,8.7626168 L7.5127538,8.82417549 C7.46210424,8.49144687 7.26807748,8.21170547 6.99534909,8.04806844 L6.99067375,8.04495154 C6.93534885,7.9981981 6.86366025,7.97014604 6.78495863,7.97014604 C6.66106202,7.97014604 6.55352911,8.04105542 6.50054188,8.14469221 L6.49976266,8.14625065 C6.37508683,8.34884888 6.28937219,8.56703159 6.1724886,8.7852143 C6.09924155,8.95898124 6.02365683,9.10469612 5.93794219,9.2441772 L5.94651365,9.22937195 C5.82885084,9.38599596 5.64339554,9.48651585 5.43456352,9.48651585 C5.36443336,9.48651585 5.29664088,9.47482749 5.23352374,9.45378845 L5.23819908,9.4553469 C4.95923691,9.37898295 4.74962566,9.14599499 4.70910602,8.85924057 L4.70832679,8.85534445 C4.70832679,8.35664112 4.65378112,7.86573003 4.64598888,7.3670267 C4.65222267,7.05222022 4.67482016,6.74988133 4.71300214,6.452997 L4.70832679,6.49429587 C4.71222291,6.4724776 4.71378136,6.44754244 4.71378136,6.42182805 C4.71378136,6.23247663 4.60469001,6.0688396 4.44650754,5.98935875 L4.44339065,5.9878003 C3.92910284,5.69948744 3.41481503,5.40338234 2.88494274,5.12286172 C2.57325316,4.95143245 2.26156358,4.79558766 1.949874,4.61636615 C1.5922102,4.41532637 1.28909209,4.21662426 1,4 L1.02259749,4.0163637 C1.33974164,4.10207834 1.59922322,4.19013064 1.85169178,4.29142976 L1.80182145,4.27350761 C2.72909795,4.66311958 3.69533565,4.95143245 4.65378112,5.26312203 C4.97326294,5.36442114 5.01222413,5.26312203 5.02780861,4.9826014 C5.04339309,4.70208078 5.02780861,4.42156016 5.02780861,4.1332473 L5.07456205,4.1332473 C5.61456425,4.36311836 6.24183953,4.49636566 6.901063,4.49636566 C6.97431005,4.49636566 7.04677788,4.49480721 7.11846648,4.49169031 L7.10833657,4.49169031 C7.72548194,4.55870357 8.26938026,4.65221045 8.80159022,4.77532783 L8.70574567,4.75662646 C9.12185126,4.89766599 9.46159291,5.17195283 9.68289251,5.52805817 L9.68756785,5.53585041 C9.94471176,5.87870895 10.1784789,6.22935973 10.4044539,6.58780275 C10.6304288,6.94624577 10.8486115,7.3670267 11.0823787,7.70988524 C11.4026398,8.25456278 11.9854993,8.61456425 12.652515,8.61456425 C12.7865415,8.61456425 12.9166719,8.59975899 13.042127,8.57248616 L13.0304386,8.57482383 C13.9109617,8.450148 14.7836925,8.27092649 15.6642156,8.13845841 C15.9836974,8.08235429 16.3522703,8.05118533 16.7278563,8.05118533 C17.1034422,8.05118533 17.4720151,8.08313351 17.8296789,8.14391298 L17.791497,8.13845841 C18.1663037,8.22884839 18.4959154,8.36599181 18.7974751,8.54521332 L18.7811114,8.53586263 C19.4278673,8.88651341 19.9818955,9.30963202 20.4626767,9.80443923 L20.4642351,9.80599767 C20.7338466,10.1223626 20.9746268,10.4769095 21.1741081,10.85795 L21.1889134,10.889119 C21.3431997,11.1556136 21.4974861,11.4735369 21.6299542,11.8031487 L21.6486555,11.8553567 C21.9525529,12.6345806 22.2330735,13.4138046 22.5213864,14.2319897 L22.8720371,15.0891361 C23.0746354,15.5488782 23.0746354,15.5878394 22.5915165,15.5722549 C22.4130742,15.569138 22.241645,15.5496574 22.074891,15.5145924 L22.0928132,15.5177092 C21.6377464,15.3899165 21.2777449,15.0626425 21.1070949,14.6395239 L21.1031988,14.6293939 C20.8850161,14.1306906 20.7369635,13.6086106 20.526573,13.070946 C20.3785205,12.7202953 20.1915067,12.3774367 20.0122852,12.0345782 C19.9717656,11.9893832 19.914103,11.9597727 19.8494274,11.9566558 L19.8486482,11.9566558 C19.8486482,11.9566558 19.7707258,12.0267859 19.7629336,12.0735394 C19.6772189,12.3384755 19.6070888,12.6112039 19.5369586,12.8527633 C19.517478,12.9291273 19.5065689,13.0164004 19.5065689,13.1060111 C19.5065689,13.2992587 19.5587769,13.4808178 19.6491669,13.6374419 L19.6468292,13.6319873 C19.8416352,14.0060148 20.0364412,14.37225 20.2390394,14.7306931 C20.6013785,15.367319 20.8725485,16.1075818 21.0120296,16.8938188 L21.0182634,16.9358968 C21.0681337,17.253041 21.096965,17.6192763 21.096965,17.9917453 C21.096965,18.3642143 21.0681337,18.7304496 21.0128088,19.0873342 L21.0174841,19.0475938 C21.0174841,19.086555 20.947354,19.1488929 20.9083928,19.1488929 L20.1291688,19.1488929 C19.9421551,19.1488929 19.8642327,19.0398015 19.8564404,18.8060343 C19.8564404,18.3696689 19.8564404,17.9410957 19.8174792,17.5125226 C19.8190377,17.4891459 19.8190377,17.461873 19.8190377,17.4346002 C19.8190377,16.9826503 19.6335824,16.5743369 19.3343604,16.2821279 C19.1870871,16.1426469 19.0499436,15.9977112 18.9198132,15.8457625 L18.9135795,15.8379703 L17.8694194,14.560043 C17.7343539,14.3886137 17.5940936,14.2171845 17.4486384,14.0457552 C17.3473393,13.9288716 17.238248,13.9444561 17.1992868,14.1080931 C17.1447411,14.4041982 17.1057799,14.7158878 17.0746109,15.0119929 C17.043442,15.308098 17.0746109,15.3782282 17.0746109,15.5652419 C17.0746109,15.5660211 17.0746109,15.5660211 17.0746109,15.5668004 C17.0746109,15.7561518 17.0068184,15.9299187 16.8946102,16.0655037 L16.8953894,16.0639452 C16.5244788,16.5400511 16.2525297,17.1120015 16.1208408,17.7353806 L16.1161655,17.7626535 C16.0460353,18.0821353 15.9836974,18.4016171 15.9291517,18.7133067 C15.874606,19.0249963 15.8512293,19.0249963 15.6096699,19.0561652 C15.3681105,19.0873342 15.0330442,19.0561652 14.7369391,19.0561652 C14.6122632,19.0561652 14.6122632,18.9704506 14.6200555,18.8769437 C14.6590167,18.495124 14.6979779,18.0977198 14.7447313,17.7236923 C14.9255113,16.8836888 15.0353818,15.9143342 15.0486286,14.9208237 L15.0486286,14.9106938 C15.0486286,14.5834197 14.9862907,14.2561457 14.9395373,13.9288716 C14.8927839,13.6015975 14.8148615,13.6327665 14.5499253,13.6249743 L12.033032,13.6327665 C11.6512122,13.6327665 11.253808,13.6327665 10.8875727,13.5782208 C10.8548453,13.5766624 10.8166634,13.5751039 10.7784814,13.5751039 C10.7402994,13.5751039 10.7021174,13.5758832 10.6639355,13.5782208 L10.66939,13.5782208 L10.6608186,13.5774416 Z" id="Shape"></path>
        </g>
    </g>
</svg>