<svg xmlns="http://www.w3.org/2000/svg" width="64" height="64" viewBox="0 0 64 64">
  <title>helm</title>
  <path d="M45.87,47.36A9.49,9.49,0,0,1,49,50.17c1.7,2.29,2.35,4.69,1.43,5.37s-3-.61-4.74-2.89a9.31,9.31,0,0,1-1.81-3.8,20.26,20.26,0,0,1-9.57,3.3,9.45,9.45,0,0,1,.77,4c0,2.85-.92,5.16-2.06,5.16S31,59,31,56.17a9.56,9.56,0,0,1,.75-4,20.23,20.23,0,0,1-9.78-3,9.71,9.71,0,0,1-1.75,3.51c-1.71,2.28-3.83,3.58-4.74,2.89s-.27-3.08,1.43-5.37a10,10,0,0,1,2.82-2.64,21,21,0,0,1-3.77-4.1l2.32-1.49a17.62,17.62,0,0,0,28.92-.07l2.28,1.54A20.38,20.38,0,0,1,45.87,47.36Zm-26.41-31a10.52,10.52,0,0,1-2.58-2.5c-1.7-2.29-2.35-4.69-1.43-5.37s3,.61,4.74,2.89a10.27,10.27,0,0,1,1.68,3.21,20.21,20.21,0,0,1,9.53-3.08,10.21,10.21,0,0,1-.61-3.65c0-2.85.93-5.16,2.07-5.16S34.92,5,34.92,7.83a10.17,10.17,0,0,1-.61,3.68A20.25,20.25,0,0,1,44,14.85a9.85,9.85,0,0,1,1.75-3.5c1.71-2.28,3.83-3.58,4.74-2.89s.27,3.08-1.43,5.37a9.79,9.79,0,0,1-2.89,2.68,20.53,20.53,0,0,1,4.09,4.91l-2.32,1.49A17.61,17.61,0,0,0,18,22.11L15.7,20.57A20.53,20.53,0,0,1,19.46,16.33Zm36.46,8.25h4.64v15H57.47V29h0L53.75,39.57H51.22L47.54,29.05h0V39.57H44.41v-15h4.64l3.51,10.31h0Zm-19.82,0V36.8h7.31v2.77H32.81v-15Zm-4.85,0v2.77H23.34v3.22H30.6v2.56H23.34V36.8h8.08v2.77H20.05v-15Zm-16.56,0H18v15h-3.3V33.11H8.63v6.46H5.33v-15h3.3v5.75h6.06Z" fill-rule="evenodd"/>
</svg>
