<?xml version="1.0" encoding="UTF-8"?>
<svg width="24px" height="24px" viewBox="0 0 24 24" version="1.1" xmlns="http://www.w3.org/2000/svg" xmlns:xlink="http://www.w3.org/1999/xlink">
    <!-- Generator: Sketch 48.2 (47327) - http://www.bohemiancoding.com/sketch -->
    <title>helm</title>
    <desc>Created with Sketch.</desc>
    <defs></defs>
    <g id="Page-1" stroke="none" stroke-width="1" fill="none" fill-rule="evenodd">
        <g id="helm" fill="#000000">
            <path d="M5.51043514,9.21886466 L6.74617128,9.21886466 L6.74617128,14.8387093 L5.51043514,14.8387093 L5.51043514,12.4144626 L3.23573614,12.4144626 L3.23573614,14.8387093 L2,14.8387093 L2,9.21886466 L3.23573614,9.21886466 L3.23573614,11.3754997 L5.51043514,11.3754997 L5.51043514,9.21886466 Z M11.7205866,9.21882595 L11.7205866,10.2577888 L8.75324573,10.2577888 L8.75324573,11.4620412 L11.4765878,11.4620412 L11.4765878,12.4222948 L8.75324573,12.4222948 L8.75324573,13.7997077 L11.7835541,13.7997077 L11.7835541,14.8386706 L7.5175096,14.8386706 L7.5175096,9.21882595 L11.7205866,9.21882595 Z M13.5387459,9.21882595 L13.5387459,13.7997077 L16.2778298,13.7997077 L16.2778298,14.8386706 L12.3030097,14.8386706 L12.3030097,9.21882595 L13.5387459,9.21882595 Z M20.9687626,9.21886466 L22.7082383,9.21886466 L22.7082383,14.8387093 L21.5512115,14.8387093 L21.5512115,10.8558892 L21.5354696,10.8558892 L20.1580567,14.8387093 L19.2056741,14.8387093 L17.8281322,10.8953729 L17.8125194,10.8953729 L17.8125194,14.8387093 L16.6554925,14.8387093 L16.6554925,9.21886466 L18.3948392,9.21886466 L19.7094137,13.0834917 L19.7250265,13.0834917 L20.9687626,9.21886466 Z M7.29854288,6.12307274 C6.98538306,5.92410593 6.64035242,5.59830101 6.33132161,5.18514165 C5.69119558,4.32914567 5.44990639,3.42760151 5.79222737,3.17147368 C6.13467737,2.91547488 6.93118977,3.40179518 7.57144483,4.25779117 C7.88266917,4.67417631 8.09879719,5.10075495 8.20021607,5.45907585 C9.24872728,4.79946604 10.4678183,4.38733895 11.775038,4.30566191 C11.6346516,3.95521194 11.5476842,3.47082712 11.5476842,2.93547479 C11.5476842,1.86657658 11.8942633,1 12.3218741,1 C12.749485,1 13.0960641,1.86657658 13.0960641,2.93547479 C13.0960641,3.47585935 13.0072903,3.96411512 12.8644522,4.31521025 C14.1939944,4.42024202 15.4288273,4.86643347 16.4810804,5.56694631 C16.5663704,5.18823841 16.7934661,4.71701482 17.1369483,4.25779117 C17.7769453,3.40179518 18.5735868,2.91547488 18.9160368,3.17147368 C19.2584868,3.42760151 19.0170685,4.32914567 18.3769425,5.18514165 C18.0295893,5.6496556 17.6366879,6.00371846 17.294754,6.19107242 C17.8970738,6.72010219 18.4160391,7.3417767 18.8285533,8.03416054 L17.9593961,8.59209341 C16.8090789,6.63778 14.6844437,5.32256036 12.2573583,5.32256036 C9.95685299,5.32256036 7.92795928,6.50410321 6.74293258,8.29144966 L5.88822692,7.71300076 C6.28293474,7.11958419 6.75854541,6.58474799 7.29854288,6.12307274 Z M17.2003932,17.7610568 C17.5628431,17.9307335 17.9970346,18.3068607 18.3769038,18.8148583 C19.0170298,19.6708543 19.2584481,20.5723985 18.915998,20.8283973 C18.5736771,21.0845251 17.7770357,20.5980758 17.1369096,19.7422088 C16.7578146,19.2353725 16.5202674,18.7136975 16.4591064,18.3183445 C15.4133048,19.0095671 14.1885364,19.4500812 12.870478,19.555242 C13.0471224,19.90995 13.1605412,20.4538184 13.1605412,21.0645252 C13.1605412,22.1334234 12.8139622,23 12.3863513,23 C11.9587404,23 11.6121614,22.1334234 11.6121614,21.0645252 C11.6121614,20.4632377 11.7218383,19.9260789 11.8938374,19.5711129 C10.5531986,19.5080164 9.30223671,19.0980828 8.22830626,18.4287956 C8.1436615,18.8081487 7.91604966,19.2813078 7.57140612,19.7422088 C6.93128009,20.5980758 6.13463866,21.0845251 5.79218866,20.8283973 C5.44986768,20.5723985 5.69128591,19.6708543 6.33141193,18.8148583 C6.67037809,18.3615702 7.05256984,18.0137008 7.38856826,17.822992 C6.8510224,17.3773167 6.37463754,16.8601578 5.97541361,16.2853218 L6.84457082,15.727389 C8.04185552,17.43151 10.021072,18.548408 12.2573196,18.548408 C14.50518,18.548408 16.4934288,17.4200262 17.688907,15.7010665 L18.5433546,16.2795154 C18.161808,16.8300935 17.7094231,17.3281556 17.2003932,17.7610568 Z" id="Fill-1-Copy"></path>
        </g>
    </g>
</svg>