<?xml version="1.0" encoding="UTF-8"?>
<svg width="24px" height="24px" viewBox="0 0 24 24" version="1.1" xmlns="http://www.w3.org/2000/svg" xmlns:xlink="http://www.w3.org/1999/xlink">
    <!-- Generator: Sketch 48.2 (47327) - http://www.bohemiancoding.com/sketch -->
    <title>hetzner</title>
    <desc>Created with Sketch.</desc>
    <defs></defs>
    <g id="Page-1" stroke="none" stroke-width="1" fill="none" fill-rule="evenodd">
        <g id="hetzner" fill="#000000">
            <path d="M21.8421499,2.0220489 L19.5371915,2.0220489 C18.9011654,2.0220489 18.3810374,2.54302491 18.3810374,3.17763758 L18.3782106,9.78637234 L5.65401467,9.78637234 L5.6497745,3.15615403 C5.6497745,2.52097601 5.12795045,2.00028268 4.49248975,2.00028268 L2.15643671,2.00028268 C1.52041065,2.00028268 1,2.52097601 1,3.15615403 L1,21.0248114 C1,21.6605548 1.52041065,22.1815308 2.15643671,22.1815308 L4.49248975,22.1815308 C5.12795045,22.1815308 5.65005718,21.6605548 5.65005718,21.0248114 L5.65203593,14.3160086 L18.3784933,14.3160086 L18.3813201,21.0248114 C18.3813201,21.6605548 18.9014481,22.1792694 19.5374741,22.1781387 L21.8424326,22.1747466 C22.4801547,22.1733332 23,21.6523572 23,21.014635 L23,3.17763758 C22.9997173,2.54302491 22.479872,2.0220489 21.8421499,2.0220489" id="Page-1"></path>
        </g>
    </g>
</svg>