<?xml version="1.0" encoding="UTF-8"?>
<svg width="24px" height="24px" viewBox="0 0 24 24" version="1.1" xmlns="http://www.w3.org/2000/svg" xmlns:xlink="http://www.w3.org/1999/xlink">
    <!-- Generator: Sketch 48.2 (47327) - http://www.bohemiancoding.com/sketch -->
    <title>hyper-db</title>
    <desc>Created with Sketch.</desc>
    <defs></defs>
    <g id="Page-1" stroke="none" stroke-width="1" fill="none" fill-rule="evenodd">
        <g id="hyper-db" fill="#000000" fill-rule="nonzero">
            <path d="M12,3.47364722 C7.30393535,3.47364722 3.49683767,7.28074491 3.49683767,11.9768096 C3.49683767,16.6728742 7.30393535,20.4799719 12,20.4799719 C16.6960647,20.4799719 20.5031623,16.6728742 20.5031623,11.9768096 C20.5031623,7.28074491 16.6960647,3.47364722 12,3.47364722 Z M12,23 C5.92487702,23 1,18.075123 1,12 C1,5.92487702 5.92487702,1 12,1 C18.0666198,1 22.9868587,5.91173577 23,11.9752635 L23,11.9768096 C22.9914968,18.0480675 18.0712579,22.9683064 12.000773,22.9768096 L12,22.9768096 L12,23 Z M10.0210822,16.0583275 L10.0203092,16.0583275 C10.0210822,16.0583275 10.0210822,16.0583275 10.0218552,16.0583275 C10.5413212,16.0583275 10.9981729,15.7900914 11.264863,15.3780745 L14.5810963,10.1911455 L14.5772312,10.1973296 C14.724877,9.96078707 14.8106817,9.68018271 14.8106817,9.38025299 C14.8106817,8.856922 14.5509487,8.39465917 14.148208,8.11173577 L14.1543921,8.11560084 C13.9278988,7.9718201 13.6581167,7.8883345 13.3697822,7.8883345 C12.8518623,7.8883345 12.3965566,8.15657063 12.1314125,8.56781448 L8.8151792,13.7392832 L8.81904427,13.7330991 C8.67139845,13.9704146 8.58559382,14.250246 8.58559382,14.5501757 C8.58559382,15.0735067 8.84532677,15.5357695 9.24806746,15.8186929 L9.24265636,15.8156008 C9.46605762,15.9640197 9.73274772,16.0521434 10.0210822,16.0583275 Z" id="Shape"></path>
        </g>
    </g>
</svg>