<svg xmlns="http://www.w3.org/2000/svg" width="64" height="64" viewBox="0 0 64 64">
  <title>hyperdb</title>
  <path d="M26.72,42.82h0A3.93,3.93,0,0,0,30,41l8.84-13.83h0A4.06,4.06,0,0,0,39.5,25a4.14,4.14,0,0,0-1.77-3.38h0a4,4,0,0,0-2.1-.6,3.91,3.91,0,0,0-3.3,1.81L23.51,36.64v0a4.06,4.06,0,0,0-.63,2.18,4.12,4.12,0,0,0,1.77,3.38h0A3.76,3.76,0,0,0,26.72,42.82ZM32,61.33a29.33,29.33,0,1,1,29.33-29.4h0A29.37,29.37,0,0,1,32,61.27h0ZM32,9.26A22.68,22.68,0,1,0,54.68,31.94,22.69,22.69,0,0,0,32,9.26Z"/>
</svg>
