<?xml version="1.0" encoding="UTF-8"?>
<svg width="24px" height="24px" viewBox="0 0 24 24" version="1.1" xmlns="http://www.w3.org/2000/svg" xmlns:xlink="http://www.w3.org/1999/xlink">
    <!-- Generator: Sketch 48.2 (47327) - http://www.bohemiancoding.com/sketch -->
    <title>image-mapping</title>
    <desc>Created with Sketch.</desc>
    <defs></defs>
    <g id="Page-1" stroke="none" stroke-width="1" fill="none" fill-rule="evenodd">
        <g id="image-mapping" fill="#000000" fill-rule="nonzero">
            <path d="M23.0010313,3.35644307 L23.0010313,20.6425257 C23.0010313,21.9439835 21.946046,23 20.6435569,23 L3.35747434,23 C2.0560165,23 1,21.9450148 1,20.6425257 L1,6.49974218 C1,5.19828435 2.05498523,4.14226785 3.35747434,4.14226785 L10.4268035,4.14226785 C10.4278348,4.14226785 10.4278348,4.14226785 10.4288661,4.14226785 C10.8630291,4.14226785 11.2146909,4.49392959 11.2146909,4.92809263 C11.2146909,5.36225566 10.8630291,5.7139174 10.4288661,5.7139174 L3.35747434,5.7139174 C2.9233113,5.7139174 2.57164956,6.06557915 2.57164956,6.49974218 L2.57164956,20.6425257 C2.57164956,21.0766887 2.9233113,21.4283504 3.35747434,21.4283504 L20.6435569,21.4283504 C21.07772,21.4283504 21.4293817,21.0766887 21.4293817,20.6425257 L21.4293817,3.35644307 C21.4293817,2.92228004 21.07772,2.57061829 20.6435569,2.57061829 L1.78582478,2.57061829 C1.35269301,2.57061829 1.00103127,2.21895655 1.00103127,1.78582478 C1.00103127,1.35269301 1.35269301,1.00103127 1.78582478,1.00103127 L20.6435569,1 C21.9450148,1 23.0010313,2.05498523 23.0010313,3.35747434 L23.0010313,3.35644307 Z M18.2860826,15.1427835 C18.2860826,14.7086204 17.9344209,14.3569587 17.5002578,14.3569587 L9.6430413,14.3569587 C9.20887826,14.3569587 8.85721652,14.7086204 8.85721652,15.1427835 C8.85721652,15.5769465 9.20887826,15.9286083 9.6430413,15.9286083 L17.5002578,15.9286083 C17.9344209,15.9286083 18.2860826,15.5769465 18.2860826,15.1427835 Z M16.714433,11.9994844 C16.714433,11.5653213 16.3627713,11.2136596 15.9286083,11.2136596 L9.6430413,11.2136596 C9.20887826,11.2136596 8.85721652,11.5653213 8.85721652,11.9994844 C8.85721652,12.4336474 9.20887826,12.7853091 9.6430413,12.7853091 L15.9286083,12.7853091 C16.3627713,12.7853091 16.714433,12.4336474 16.714433,11.9994844 Z M18.2860826,8.85618525 C18.2860826,8.42202222 17.9344209,8.07036047 17.5002578,8.07036047 L9.6430413,8.07036047 C9.20887826,8.07036047 8.85721652,8.42202222 8.85721652,8.85618525 C8.85721652,9.29034829 9.20887826,9.64201003 9.6430413,9.64201003 L17.5002578,9.64201003 C17.9344209,9.64201003 18.2860826,9.29034829 18.2860826,8.85618525 Z M15.1438147,18.2850513 C15.1438147,17.8508883 14.792153,17.4992266 14.35799,17.4992266 L9.64407256,17.4992266 C9.20990953,17.4992266 8.85824779,17.8508883 8.85824779,18.2850513 C8.85824779,18.7192144 9.20990953,19.0708761 9.64407256,19.0708761 L14.35799,19.0708761 C14.792153,19.0708761 15.1438147,18.7192144 15.1438147,18.2850513 Z M7.28659823,9.64201003 L6.50077345,9.64201003 C6.06661042,9.64201003 5.71494867,9.29034829 5.71494867,8.85618525 C5.71494867,8.42202222 6.06661042,8.07036047 6.50077345,8.07036047 L7.28659823,8.07036047 C7.72076126,8.07036047 8.07242301,8.42202222 8.07242301,8.85618525 C8.07242301,9.29034829 7.72076126,9.64201003 7.28659823,9.64201003 Z M8.07139174,11.9994844 C8.07139174,11.5653213 7.71973,11.2136596 7.28556696,11.2136596 L6.49974218,11.2136596 C6.06557915,11.2136596 5.7139174,11.5653213 5.7139174,11.9994844 C5.7139174,12.4336474 6.06557915,12.7853091 6.49974218,12.7853091 L7.28556696,12.7853091 C7.71973,12.7853091 8.07139174,12.4336474 8.07139174,11.9994844 Z M8.07139174,15.1427835 C8.07139174,14.7086204 7.71973,14.3569587 7.28556696,14.3569587 L6.49974218,14.3569587 C6.06557915,14.3569587 5.7139174,14.7086204 5.7139174,15.1427835 C5.7139174,15.5769465 6.06557915,15.9286083 6.49974218,15.9286083 L7.28556696,15.9286083 C7.71973,15.9286083 8.07139174,15.5769465 8.07139174,15.1427835 Z M8.07139174,18.2850513 C8.07139174,17.8508883 7.71973,17.4992266 7.28556696,17.4992266 L6.49974218,17.4992266 C6.06557915,17.4992266 5.7139174,17.8508883 5.7139174,18.2850513 C5.7139174,18.7192144 6.06557915,19.0708761 6.49974218,19.0708761 L7.28556696,19.0708761 C7.71973,19.0708761 8.07139174,18.7192144 8.07139174,18.2850513 Z" id="Shape"></path>
        </g>
    </g>
</svg>