<?xml version="1.0" encoding="UTF-8"?>
<svg width="24px" height="24px" viewBox="0 0 24 24" version="1.1" xmlns="http://www.w3.org/2000/svg" xmlns:xlink="http://www.w3.org/1999/xlink">
    <!-- Generator: Sketch 48.2 (47327) - http://www.bohemiancoding.com/sketch -->
    <title>instagram</title>
    <desc>Created with Sketch.</desc>
    <defs></defs>
    <g id="Page-1" stroke="none" stroke-width="1" fill="none" fill-rule="evenodd">
        <g id="instagram" fill="#000000" fill-rule="nonzero">
            <path d="M20.6426635,1 L3.35733653,1 C2.05510757,1 1,2.05510757 1,3.35733653 L1,20.6426635 C1,21.9441178 2.05510757,23 3.35733653,23 L20.6426635,23 C21.9441178,23 23,21.9448924 23,20.6426635 L23,3.35733653 C23,2.05588225 21.9448924,1 20.6426635,1 Z M11.9996127,7.58396422 C14.4282193,7.58396422 16.4152611,9.57100602 16.4152611,11.9996127 C16.4152611,14.4282193 14.4282193,16.4152611 11.9996127,16.4152611 C9.57100602,16.4152611 7.58396422,14.4282193 7.58396422,11.9996127 C7.58396422,9.57100602 9.57100602,7.58396422 11.9996127,7.58396422 Z M3.72065918,20.8309095 C3.38909821,20.8309095 3.16831579,20.6101271 3.16831579,20.2793408 L3.16831579,10.8957006 L5.48614388,10.8957006 C5.37536533,11.2272615 5.37536533,11.6688264 5.37536533,11.9996127 C5.37536533,15.64291 8.35631536,18.6230853 11.998838,18.6230853 C15.6413606,18.6230853 18.6223106,15.6421353 18.6223106,11.9996127 C18.6223106,11.6680517 18.6223106,11.2264868 18.5123068,10.8957006 L20.8301349,10.8957006 L20.8301349,20.2793408 C20.8301349,20.6101271 20.6093524,20.8309095 20.2785661,20.8309095 L3.7198845,20.8309095 L3.72065918,20.8309095 Z M20.8309095,5.92770872 C20.8309095,6.25926969 20.6101271,6.48005211 20.2793408,6.48005211 L18.0715166,6.48005211 C17.7407303,6.48005211 17.5199479,6.25926969 17.5199479,5.92770872 L17.5199479,3.7198845 C17.5199479,3.38832353 17.7407303,3.16754111 18.0715166,3.16754111 L20.2793408,3.16754111 C20.6101271,3.16754111 20.8309095,3.38832353 20.8309095,3.7198845 L20.8309095,5.92770872 Z" id="Shape"></path>
        </g>
    </g>
</svg>