<svg xmlns="http://www.w3.org/2000/svg" width="64" height="64" viewBox="0 0 64 64">
  <title>instagram</title>
  <path d="M55.55,15.81a1.39,1.39,0,0,1-1.47,1.47H48.19a1.39,1.39,0,0,1-1.47-1.47V9.92a1.39,1.39,0,0,1,1.47-1.47h5.89a1.39,1.39,0,0,1,1.47,1.47ZM9.92,55.55a1.39,1.39,0,0,1-1.47-1.47v-25h6.18a9.81,9.81,0,0,0-.3,2.94,17.67,17.67,0,0,0,35.33,0,10.1,10.1,0,0,0-.29-2.94h6.18v25a1.39,1.39,0,0,1-1.47,1.47ZM32,20.22A11.78,11.78,0,1,1,20.22,32,11.8,11.8,0,0,1,32,20.22Zm23-17.55H9A6.28,6.28,0,0,0,2.67,9v46.1A6.28,6.28,0,0,0,9,61.33h46.1a6.28,6.28,0,0,0,6.28-6.28V9A6.28,6.28,0,0,0,55.05,2.67Z"/>
</svg>
