<?xml version="1.0" encoding="UTF-8"?>
<svg width="24px" height="24px" viewBox="0 0 24 24" version="1.1" xmlns="http://www.w3.org/2000/svg" xmlns:xlink="http://www.w3.org/1999/xlink">
    <!-- Generator: Sketch 48.2 (47327) - http://www.bohemiancoding.com/sketch -->
    <title>javascript</title>
    <desc>Created with Sketch.</desc>
    <defs></defs>
    <g id="Page-1" stroke="none" stroke-width="1" fill="none" fill-rule="evenodd">
        <g id="javascript" fill="#000000" fill-rule="nonzero">
            <path d="M19.7,1 L4.3,1 C4.28625,1 4.27066667,1 4.25416667,1 C2.45658333,1 1,2.46206608 1,4.26641573 C1,4.26641573 1,4.26641573 1,4.26641573 L1,19.7335843 C1,19.7335843 1,19.7335843 1,19.7335843 C1,21.5379339 2.45658333,23 4.25416667,23 C4.27066667,23 4.28625,23 4.30275,23 L4.3,23 L19.7,23 C19.71375,23 19.7293333,23 19.7458333,23 C21.5434167,23 23,21.5379339 23,19.7335843 C23,19.7335843 23,19.7335843 23,19.7335843 L23,4.26641573 C23,4.26641573 23,4.26641573 23,4.26641573 C23,2.46206608 21.5434167,1 19.7458333,1 C19.7293333,1 19.71375,1 19.69725,1 L19.7,1 Z M12.9808333,18.1785864 C12.99275,18.2742785 12.9991667,18.3856127 12.9991667,18.497867 C12.9991667,20.0528649 11.7433333,21.3134253 10.1941667,21.3134253 C10.0905833,21.3134253 9.98883333,21.3079046 9.88891667,21.2968632 L9.90175,21.2977834 C9.85133333,21.3005437 9.79266667,21.3023839 9.73308333,21.3023839 C8.43966667,21.3023839 7.325,20.5313258 6.82083333,19.4225847 L6.81258333,19.4023421 L8.49008333,18.3810121 C8.81091667,18.9606859 9.10425,19.448348 9.81008333,19.448348 C10.5159167,19.448348 10.91925,19.181514 10.91925,18.1509829 L10.91925,11.1028858 L12.98175,11.1028858 L12.9808333,18.1785864 Z M17.8483333,21.2977834 C17.7740833,21.3023839 17.687,21.3051443 17.5999167,21.3051443 C16.0855833,21.3051443 14.76925,20.454036 14.1000833,19.2026767 L14.09,19.181514 L15.7675,18.1785864 C16.13875,18.9257215 16.8940833,19.4299456 17.7676667,19.4299456 C17.7768333,19.4299456 17.786,19.4299456 17.7951667,19.4299456 L17.7933333,19.4299456 C18.655,19.4299456 19.1958333,19.0066918 19.1958333,18.4178168 C19.1958333,17.8289419 18.6366667,17.4516939 17.6925,17.0376412 L17.1791667,16.816813 C15.6666667,16.1911334 14.75,15.418235 14.75,13.7160184 C14.75,13.7123379 14.75,13.7077373 14.75,13.7031368 C14.75,12.1785027 15.9810833,10.9427854 17.5,10.9427854 C17.5935,10.9427854 17.6860833,10.947386 17.77775,10.9565872 L17.7658333,10.9556671 C17.8309167,10.9510665 17.907,10.9483061 17.984,10.9483061 C19.161,10.9483061 20.18125,11.6163112 20.6909167,12.5953158 L20.6991667,12.6118779 L19.0491667,13.6700125 C18.8484167,13.1289837 18.33875,12.7498954 17.7401667,12.7498954 C17.7328333,12.7498954 17.7264167,12.7498954 17.7190833,12.7498954 L17.72,12.7498954 C17.70075,12.7480552 17.67875,12.7480552 17.6558333,12.7480552 C17.1498333,12.7480552 16.7391667,13.1602677 16.7391667,13.6681723 C16.7391667,13.6690924 16.7391667,13.6700125 16.7391667,13.6709327 C16.7391667,14.2966123 17.1241667,14.5450439 18.0041667,14.9314931 L18.5175,15.1523212 C20.2683333,15.9068172 21.2675,16.6705144 21.2675,18.4003346 C21.2675,20.1301547 19.8008333,21.2803011 17.8483333,21.2803011 L17.8483333,21.2977834 Z" id="Shape"></path>
        </g>
    </g>
</svg>