<svg xmlns="http://www.w3.org/2000/svg" width="64" height="64" viewBox="0 0 64 64">
  <title>kibana</title>
  <path d="M19.63,58.79,38,36.68A41,41,0,0,1,51,58.52l.06.27Zm-9-2.87.64-.79L31,31.53A46.13,46.13,0,0,1,36.12,35l-.1-.08L16.2,58.79H10.62Zm0-50.86h39L30.36,28.21l-1.18-.56-.68-.33c-.6-.29-1.22-.54-1.84-.79l-.74-.29c-.67-.26-1.33-.49-2.07-.72l-.58-.21c-.87-.26-1.76-.51-2.62-.74L20,24.43,18,24a5.87,5.87,0,0,1-1-.18l-1.72-.27h-1l-1.69-.17h-2ZM38.71,33.75a45.7,45.7,0,0,0-5.82-4l-.22-.12L53.34,4.82a1.34,1.34,0,0,0,.18-1.4h0a1.28,1.28,0,0,0-1.17-.76h-43A1.32,1.32,0,0,0,8,4V60a1.32,1.32,0,0,0,1.32,1.32h43.4a1.33,1.33,0,0,0,1-.47h0A1.34,1.34,0,0,0,54,60a1.64,1.64,0,0,0,0-.23h0a43.71,43.71,0,0,0-15.24-26Z"/>
</svg>
