<?xml version="1.0" encoding="UTF-8"?>
<svg width="24px" height="24px" viewBox="0 0 24 24" version="1.1" xmlns="http://www.w3.org/2000/svg" xmlns:xlink="http://www.w3.org/1999/xlink">
    <!-- Generator: Sketch 48.2 (47327) - http://www.bohemiancoding.com/sketch -->
    <title>kibana</title>
    <desc>Created with Sketch.</desc>
    <defs></defs>
    <g id="Page-1" stroke="none" stroke-width="1" fill="none" fill-rule="evenodd">
        <g id="kibana" fill="#000000" fill-rule="nonzero">
            <path d="M14.5153223,12.654808 C13.8527651,12.1154632 13.1134907,11.6032406 12.3354702,11.1499119 L12.2525537,11.1049665 L20.0017612,1.80591758 C20.0730539,1.72145122 20.1164495,1.61141247 20.1164495,1.49129975 C20.1164495,1.41690736 20.1001761,1.34638957 20.0699542,1.28362099 L20.0715041,1.28672068 C19.9947869,1.11623811 19.827404,1 19.632124,1 C19.6313491,1 19.6305741,1 19.6297992,1 L3.49594928,1 C3.22240225,1 3,1.22240225 3,1.49594928 L3,22.5040507 C3,22.7775977 3.22240225,23 3.49594928,23 L19.769285,23 C19.9211694,22.9984502 20.0567806,22.9302571 20.1482212,22.8225431 L20.1489961,22.8217682 C20.2210638,22.7365269 20.2644593,22.6249384 20.2644593,22.5032758 C20.2644593,22.4730539 20.2621346,22.4443818 20.2567101,22.4157098 L20.257485,22.4188094 C19.5275097,18.4581895 17.4569215,15.0733357 14.5439944,12.6772807 L14.5153223,12.654808 Z M3.98414935,1.89890807 L18.5991546,1.89890807 L11.3846425,10.5780204 L10.9429377,10.3687918 L10.6872138,10.2448045 C10.4624868,10.1363156 10.2300106,10.0433251 9.99753434,9.95033462 L9.71856287,9.84184572 C9.47058824,9.74110602 9.2226136,9.65586474 8.94364213,9.57062346 L8.72666432,9.49313138 C8.4011976,9.39239169 8.06798168,9.2994012 7.74251497,9.21415992 L7.51003875,9.15991546 L6.735118,8.99718211 C6.61887989,8.99718211 6.49489257,8.95068686 6.37090525,8.92743924 L5.72772103,8.82669954 L5.33251145,8.82669954 L4.69707644,8.76470588 L3.95315252,8.76470588 L3.98414935,1.89890807 Z M3.98414935,20.9697076 L4.22437478,20.6752378 L11.6248679,11.8256428 C12.3463191,12.2479746 12.9608313,12.6679817 13.5451215,13.12441 L13.5079253,13.0965129 L6.07643536,22.0468475 L3.98414935,22.0468475 L3.98414935,20.9697076 Z M7.3628038,22.0468475 L14.2595985,13.7551955 C16.6750264,15.8777034 18.4123987,18.7193378 19.1377246,21.943783 L19.1570976,22.0468475 L7.3628038,22.0468475 Z" id="Shape"></path>
        </g>
    </g>
</svg>