<?xml version="1.0" encoding="UTF-8"?>
<svg width="24px" height="24px" viewBox="0 0 24 24" version="1.1" xmlns="http://www.w3.org/2000/svg" xmlns:xlink="http://www.w3.org/1999/xlink">
    <!-- Generator: Sketch 48.2 (47327) - http://www.bohemiancoding.com/sketch -->
    <title>kubernetes</title>
    <desc>Created with Sketch.</desc>
    <defs></defs>
    <g id="Page-1" stroke="none" stroke-width="1" fill="none" fill-rule="evenodd">
        <g id="kubernetes" fill="#000000" fill-rule="nonzero">
            <path d="M22.9783601,13.9468137 L21.0694161,5.72367034 C20.9372585,5.32024169 20.6621232,4.99487107 20.3050657,4.80011241 L20.2965643,4.79624816 L12.5912316,1.125202 C12.4227499,1.04714396 12.2256727,1.0015457 12.0177756,1.0015457 C12.0100471,1.0015457 12.0030914,1.0015457 11.9953629,1.0015457 L11.9961357,1.0015457 C11.9652217,1 11.9288976,1 11.8925736,1 C11.707862,1 11.5270147,1.01777559 11.3523502,1.05100822 L11.3701258,1.04791681 L3.66479309,4.74987705 C3.27759432,4.91990445 2.9908663,5.25764069 2.89348697,5.66802501 L2.89194126,5.67729923 L1.02163985,13.9468137 C1.00772852,14.0271903 1,14.1191597 1,14.2126748 C1,14.5674138 1.11206351,14.8958758 1.30295791,15.1648282 L1.29986651,15.1594183 L6.58617298,21.7209302 C6.88372093,22.019251 7.28560388,22.2132368 7.73153938,22.2464695 L7.73772219,22.2464695 L16.2159067,22.2464695 C16.2684606,22.254198 16.3287431,22.2588351 16.3897984,22.2588351 C16.8102297,22.2588351 17.1819715,22.0470737 17.4030071,21.7247945 L17.4053257,21.7209302 L22.7148177,15.1594183 C22.8933464,14.8951029 23,14.5697323 23,14.2196304 C23,14.123024 22.9922715,14.028736 22.9760416,13.9359938 L22.9775873,13.9460409 L22.9783601,13.9468137 Z M19.8328532,14.5032671 C19.8143048,14.5079042 19.7926649,14.5109956 19.7710251,14.5109956 C19.7493852,14.5109956 19.7277454,14.5079042 19.7076512,14.5024942 L19.7091969,14.5024942 C19.7091969,14.5024942 19.7091969,14.5024942 19.6628258,14.5024942 C19.6164547,14.5024942 19.5855406,14.5024942 19.5623551,14.5024942 C19.4564744,14.4715801 19.364505,14.4298461 19.2794913,14.3765194 L19.2841284,14.3788379 C19.2269374,14.3742008 19.1743835,14.3571981 19.1272395,14.331694 L19.1295581,14.3324668 C18.9123867,14.242816 18.6534813,14.1624394 18.3868475,14.1060212 L18.3567062,14.1006113 C18.3559334,14.1006113 18.3551605,14.1006113 18.3543877,14.1006113 C18.2778754,14.1006113 18.2075458,14.1299796 18.1557648,14.1778964 L17.9548233,14.1778964 C17.4795194,15.6362678 16.5196375,16.8272325 15.2699361,17.586173 L15.2428863,17.60163 L15.3201714,17.8025715 C15.3039415,17.8388955 15.2946673,17.8814024 15.2946673,17.9262278 C15.2946673,17.9710532 15.3039415,18.01356 15.3209443,18.0522026 L15.3201714,18.0498841 C15.4237336,18.3451135 15.5597555,18.6009274 15.7282372,18.8312373 L15.7220544,18.8227359 L15.7220544,18.869107 C15.7645612,18.9046582 15.7985667,18.9479379 15.8217523,18.9981733 L15.8225251,19.0004918 C15.8944003,19.0700485 15.9546828,19.1519708 15.9979625,19.2423944 L16.000281,19.2478044 C16.000281,19.2478044 16.0543807,19.301904 16.0543807,19.3250896 C16.0706106,19.3815078 16.0806576,19.4472002 16.0806576,19.5144383 C16.0806576,19.5816764 16.0713834,19.6473688 16.0536078,19.7084241 L16.0551535,19.703787 C16.0226937,19.8266704 15.9415443,19.9255954 15.833345,19.9812408 L15.8310265,19.9820136 C15.7722897,20.005972 15.7035059,20.0229748 15.6324036,20.0283847 L15.630085,20.0283847 C15.4221879,20.0206562 15.244432,19.901637 15.1524626,19.7300639 L15.1509169,19.7269725 C15.1509169,19.7269725 15.1509169,19.6728729 15.0968173,19.6496873 C15.0519918,19.5693108 15.0179864,19.4765685 14.9971194,19.3776435 L14.9963465,19.3714607 L14.9499754,19.2246188 C14.858006,18.9286166 14.7451697,18.6728026 14.6076021,18.4332186 L14.6176491,18.451767 C14.5720509,18.3783461 14.5017214,18.3234736 14.4190262,18.2979695 L14.4167077,18.2971967 L14.3162369,18.1194407 C14.1098855,18.1974988 13.851753,18.2740111 13.5866648,18.3350664 L13.5433851,18.3435678 C13.1538678,18.4564041 12.7056137,18.5213237 12.2426755,18.5213237 C12.2218085,18.5213237 12.2009415,18.5213237 12.1800745,18.5213237 L12.1831659,18.5213237 C12.1692545,18.5213237 12.1530247,18.5213237 12.1360219,18.5213237 C11.3662615,18.5213237 10.6305066,18.373709 9.95580693,18.1055294 L9.99599522,18.1194407 L9.89552449,18.3203822 C9.81128364,18.3497506 9.74249982,18.4038502 9.69535586,18.4734069 L9.69458301,18.4749526 C9.56706246,18.6959882 9.45422609,18.9518021 9.36998525,19.2207546 L9.36225673,19.2478044 L9.31588562,19.3946462 C9.31588562,19.495117 9.23860044,19.5724022 9.21541488,19.6728729 C9.19222933,19.7733436 9.16131525,19.7269725 9.16131525,19.7501581 C9.06780018,19.9248226 8.89004426,20.0438418 8.68291997,20.0515703 L8.68214712,20.0515703 C8.61954613,20.0469332 8.56158224,20.0299304 8.50980117,20.0036535 L8.51211972,20.0051992 C8.35677651,19.9155484 8.25321436,19.7509309 8.25321436,19.5615822 C8.25321436,19.4750228 8.27485421,19.3938734 8.31272395,19.322771 L8.31117825,19.3258624 C8.31117825,19.3258624 8.31117825,19.2717628 8.35754936,19.2485773 C8.40392047,19.2253917 8.48893417,19.0476358 8.53530528,18.9935361 C8.57935783,18.9626221 8.61336331,18.9208881 8.63500316,18.8714256 L8.63577601,18.8698799 C8.78648212,18.6472985 8.92173119,18.3930303 9.02838474,18.1240778 L9.03765896,18.097028 C9.05388885,18.060704 9.06316307,18.0181971 9.06316307,17.9733717 C9.06316307,17.9285463 9.05388885,17.8860395 9.03688611,17.8473969 L9.03765896,17.8497155 L9.16131525,17.6719595 C8.90240989,17.5367105 8.67982857,17.3852315 8.47656854,17.2121127 L8.48120565,17.215977 C7.5290522,16.4755849 6.81107286,15.4755146 6.43005691,14.3216469 L6.41769128,14.27914 L6.19356425,14.27914 C6.14255603,14.2312232 6.07377222,14.2018548 5.99803274,14.2018548 C5.99648704,14.2018548 5.99416848,14.2018548 5.99262278,14.2018548 C5.67961779,14.2536359 5.40216399,14.331694 5.13707581,14.4360289 L5.16567133,14.4259819 C5.10770744,14.4298461 5.05438066,14.4499403 5.01032811,14.4808544 L5.01110096,14.4800815 L4.73287431,14.5805522 C4.73287431,14.5805522 4.63240357,14.5805522 4.63240357,14.5805522 C4.61385513,14.5859622 4.59221527,14.5890536 4.57057542,14.5890536 C4.54893557,14.5890536 4.52729572,14.5859622 4.50720157,14.5805522 L4.50874728,14.5805522 C4.49329024,14.5820979 4.4747418,14.5836436 4.45619335,14.5836436 C4.24056769,14.5836436 4.05894752,14.4360289 4.00716644,14.2358603 L4.00639359,14.2327689 C4.00021078,14.2034005 3.99634652,14.1693951 3.99634652,14.1338439 C3.99634652,13.8911684 4.17332959,13.6902269 4.40518513,13.65313 L4.40827654,13.65313 C4.40827654,13.65313 4.40827654,13.65313 4.45464765,13.65313 C4.50101876,13.65313 4.53193283,13.65313 4.55511839,13.65313 L4.8565306,13.65313 C4.87971615,13.6477201 4.90676597,13.6446287 4.93381578,13.6446287 C4.96086559,13.6446287 4.98791541,13.6477201 5.01341952,13.6539029 L5.01110096,13.65313 C5.33106162,13.6229888 5.62319961,13.5681163 5.90451767,13.4900583 L5.86896649,13.4985597 C5.86664793,13.3594464 5.7901356,13.2388815 5.67729923,13.1747348 L5.67575353,13.1739619 L5.876695,13.1275908 C5.83264245,12.855547 5.80713834,12.5417691 5.80713834,12.2225813 C5.80713834,11.0254339 6.16187733,9.91098152 6.77165742,8.97814937 L6.75774608,9.00056207 C6.75774608,8.94646245 6.80411719,8.92327689 6.82730275,8.87690578 L6.6804609,8.72233542 C6.6820066,8.71074264 6.68355231,8.69760416 6.68355231,8.68369283 C6.68355231,8.6102719 6.65263824,8.5445795 6.60317572,8.49820839 C6.39682428,8.3119511 6.16651444,8.14578796 5.91920185,8.00590178 L5.89988056,7.9958547 L5.74531019,7.91856952 C5.65334083,7.86678845 5.57450994,7.81578023 5.50031617,7.7601349 L5.50572613,7.76399916 C5.50572613,7.76399916 5.42844095,7.70989953 5.42844095,7.70989953 C5.29937469,7.61174735 5.21667955,7.45794983 5.21667955,7.28483103 C5.21667955,7.17585892 5.24991218,7.07384248 5.30555751,6.98960163 L5.3040118,6.99192019 C5.37202276,6.88372093 5.49026909,6.81339141 5.62551816,6.81339141 C5.63479238,6.81339141 5.64406661,6.81339141 5.65256798,6.81416427 L5.65102227,6.81416427 C5.78549849,6.82034708 5.90760908,6.86594534 6.00807981,6.93936626 L6.00653411,6.93782056 C6.00653411,6.93782056 6.05290522,6.93782056 6.08381929,6.98419167 C6.1495117,7.06611396 6.2152041,7.13876203 6.28476077,7.2083187 C6.28476077,7.2083187 6.36204595,7.26241832 6.3852315,7.30878943 C6.5745802,7.52055083 6.77938593,7.71067238 7.00042156,7.88069978 L7.01124148,7.8884283 C7.05452118,7.91856952 7.10784796,7.93866367 7.16503899,7.94252793 L7.16581185,7.94252793 C7.21218296,7.94252793 7.23536851,7.94252793 7.26628258,7.94252793 L7.41312443,8.04299867 C8.22075458,7.18049603 9.27569732,6.55757746 10.4643434,6.28862503 L10.5045317,6.28089651 C10.8059439,6.22679688 11.0841706,6.18042577 11.3546687,6.15724022 L11.3546687,5.87901356 C11.4149512,5.82800534 11.4590037,5.75922153 11.4775522,5.68039064 L11.478325,5.67807209 C11.4798707,5.63324668 11.4806436,5.58069276 11.4806436,5.52813883 C11.4806436,5.27850769 11.4597766,5.03274081 11.4203611,4.79470245 L11.4242254,4.82097941 C11.4296354,4.79856671 11.4327268,4.77383545 11.4327268,4.74755849 C11.4327268,4.72128153 11.4296354,4.69655027 11.4242254,4.67181901 L11.4249982,4.67413757 C11.3994941,4.5821682 11.3824914,4.4762875 11.3786271,4.36731539 L11.3786271,4.36499684 L11.3786271,4.21815499 C11.4033584,4.08522448 11.4798707,3.97393382 11.5857514,3.9020586 L11.5872971,3.90128574 C11.6777208,3.77453805 11.8245626,3.69261575 11.9907258,3.69261575 C11.9930443,3.69261575 11.99459,3.69261575 11.9969086,3.69261575 C12.2434483,3.72739408 12.4304785,3.93683693 12.4304785,4.19033233 C12.4304785,4.2003794 12.4304785,4.20965362 12.4297056,4.2197007 L12.4297056,4.21815499 L12.4297056,4.37272536 C12.4297056,4.47319609 12.4297056,4.57366683 12.375606,4.67413757 C12.3215064,4.7746083 12.375606,4.7746083 12.375606,4.82097941 C12.3400548,5.03660507 12.3199607,5.28546336 12.3199607,5.53895876 C12.3199607,5.58532987 12.3207335,5.63170098 12.3222792,5.67729923 L12.3222792,5.67034357 C12.3423734,5.75303871 12.3895173,5.82259538 12.4528912,5.87051219 L12.453664,5.87128504 L12.453664,6.07222652 C13.7010469,6.20515703 14.8185906,6.67505094 15.7375114,7.38916602 L15.7228272,7.3783461 L16.3488372,7.98117052 L16.5497787,7.85751423 C16.5644629,7.86292419 16.5822385,7.8660156 16.6000141,7.8660156 C16.6177896,7.8660156 16.6355652,7.86292419 16.6510223,7.85674138 L16.6502494,7.85674138 C16.7051219,7.85133141 16.7545844,7.83510152 16.798637,7.80959741 L16.7970913,7.81037027 C17.0351296,7.64420712 17.2430268,7.46104124 17.4277384,7.25700836 L17.4308298,7.25391695 C17.4702452,7.22609429 17.5034778,7.19286166 17.5305276,7.15499192 L17.5313005,7.15344622 C17.5915829,7.06920537 17.6572753,6.99578444 17.7306963,6.93009204 L17.732242,6.92854634 C17.732242,6.92854634 17.7786131,6.92854634 17.8017986,6.87444671 C17.8968594,6.79948008 18.0174243,6.75310897 18.1488091,6.75079042 L18.149582,6.75079042 C18.4053959,6.7670203 18.6071102,6.97800885 18.6071102,7.23691421 C18.6071102,7.3992131 18.5282794,7.54219068 18.4061688,7.63106864 L18.4046231,7.6318415 C18.4046231,7.6318415 18.4046231,7.6318415 18.4046231,7.6782126 C18.4046231,7.72458371 18.3505234,7.6782126 18.3273379,7.73231223 L17.9022694,7.95643926 C17.6333169,8.11410103 17.4006885,8.28026417 17.18429,8.46420291 L17.1912457,8.45879295 C17.147966,8.52062109 17.121689,8.59713342 17.121689,8.67982857 C17.121689,8.68060142 17.121689,8.68214712 17.121689,8.68291997 L16.9671187,8.82976182 C17.3489075,9.42253917 17.6518654,10.1103773 17.8381227,10.8453594 L17.8481697,10.8932762 C17.9818731,11.3832642 18.0583854,11.9459004 18.0583854,12.5270849 C18.0583854,12.7543034 18.0467927,12.9792033 18.0236071,13.2010117 L18.0259257,13.1731891 L18.2268671,13.2272887 C18.2593269,13.309211 18.3227008,13.3725848 18.4023045,13.4042718 L18.4046231,13.4050446 C18.6496171,13.4699642 18.9417551,13.5217452 19.2400759,13.5503408 L19.2624886,13.5518865 C19.2849013,13.5572964 19.3096325,13.5603878 19.3359095,13.5603878 C19.3621865,13.5603878 19.3869177,13.5572964 19.411649,13.5518865 L19.4093304,13.5526593 C19.4549287,13.5457036 19.5067098,13.5410665 19.5600365,13.5410665 C19.6133633,13.5410665 19.6651444,13.5449308 19.7161526,13.5534322 L19.7107426,13.5526593 C19.7648423,13.5526593 19.8112134,13.5526593 19.8112134,13.5526593 C19.8112134,13.5526593 19.8112134,13.5526593 19.865313,13.5526593 C20.1118527,13.6160332 20.2942458,13.8270217 20.3135671,14.0836085 L20.3135671,14.0859271 C20.2625588,14.3139184 20.0708916,14.4839458 19.8359446,14.5032671 L19.8343989,14.5032671 L19.8328532,14.5032671 Z M9.67758027,11.9605846 C9.73631701,11.8910279 9.77264105,11.8006042 9.77264105,11.7009063 C9.77264105,11.5749315 9.71467716,11.462868 9.6242535,11.3894471 L9.62348064,11.3886742 L7.76090775,9.72704279 C7.29565095,10.4998946 7.0205157,11.4327268 7.0205157,12.4297056 C7.0205157,12.5665004 7.02592567,12.7017495 7.03597274,12.8362257 L7.03519989,12.8184501 L9.46968313,12.1151549 C9.56010679,12.0958336 9.63507342,12.0394154 9.67758027,11.9621303 L9.67835312,11.9605846 L9.67758027,11.9605846 Z M9.80123656,13.5449308 L7.31265369,13.9468137 C7.68825968,14.9754795 8.36141362,15.8202066 9.22700766,16.4006183 L9.24478325,16.4122111 L10.2031195,14.0936556 C10.2232137,14.0581044 10.2348064,14.0155976 10.2348064,13.9699993 C10.2348064,13.924401 10.2232137,13.8818942 10.2023467,13.8447973 L10.2031195,13.846343 C10.153657,13.6709056 9.99599522,13.5449308 9.80819223,13.5449308 C9.80587367,13.5449308 9.80355512,13.5449308 9.80123656,13.5449308 Z M11.2619265,12.8416356 L11.9420361,13.1739619 L12.6144172,12.8416356 L12.7921731,12.1151549 L12.313005,11.5123305 L11.5633387,11.5123305 L11.0841706,12.1151549 L11.2619265,12.8416356 Z M12.7689876,10.1521113 C12.8462727,10.2510363 12.9652919,10.3144102 13.0989953,10.3144102 C13.1801447,10.3144102 13.2551114,10.2912246 13.3192581,10.2518092 L13.3177124,10.252582 L15.3812267,8.79189208 C14.6408347,8.05304574 13.6554486,7.55842057 12.557999,7.44094709 L12.537132,7.43940139 L12.6917024,9.97435537 C12.6917024,9.97821963 12.6917024,9.98208389 12.6917024,9.98594815 C12.6917024,10.0524134 12.7218436,10.111923 12.7689876,10.1513384 L12.7689876,10.1521113 Z M10.7595728,10.3298672 C10.7734842,10.3314129 10.789714,10.3321858 10.8059439,10.3321858 C11.0316167,10.3321858 11.2155554,10.1528841 11.2232839,9.92798426 L11.2232839,9.92721141 L11.3469402,7.40771447 L10.8445865,7.5081852 C9.93493993,7.73463079 9.15126818,8.18288485 8.5252582,8.79189208 L8.52603105,8.79111923 L10.612731,10.2749947 C10.6552378,10.299726 10.7039275,10.3190473 10.7564814,10.3283215 L10.7595728,10.3290944 L10.7595728,10.3298672 Z M12.088878,14.6269233 C12.0332326,14.5952364 11.9667674,14.576688 11.8964379,14.576688 C11.7712359,14.576688 11.6591723,14.6354247 11.5872971,14.7266212 L11.5865243,14.7273941 L10.3576899,16.9686644 C10.8167639,17.1162791 11.3469402,17.2082484 11.895665,17.2237055 L11.9033935,17.2237055 C12.2898194,17.2182955 12.662334,17.1711515 13.0201644,17.085365 L12.9853861,17.0923207 C13.1105881,17.0559966 13.2697955,17.0212183 13.4320944,16.9949413 L13.4568257,16.9918499 L12.2511768,14.8046793 C12.2009415,14.7389869 12.1476147,14.681023 12.0896508,14.6276962 L12.088878,14.6269233 Z M16.115436,9.72704279 L14.2296775,11.4350453 C14.1817607,11.4821893 14.1462095,11.5424717 14.1299796,11.6104827 L14.1292068,11.6128012 C14.1207054,11.6437153 14.1160683,11.6800393 14.1160683,11.7163634 C14.1160683,11.9088035 14.2489988,12.0703295 14.4283004,12.1143821 L14.4313918,12.1151549 L16.819504,12.7952645 C16.8341882,12.6507412 16.8426895,12.4830324 16.8426895,12.3137778 C16.8426895,11.9227148 16.7978641,11.5424717 16.7120776,11.1776857 L16.7190332,11.2109183 C16.589967,10.649055 16.3820698,10.153657 16.1038432,9.70617579 L16.1162088,9.72704279 L16.115436,9.72704279 Z M13.8277946,13.5758449 C13.6824984,13.6407644 13.5828005,13.7845149 13.5828005,13.950678 C13.5828005,13.9877749 13.5874376,14.0233261 13.5967119,14.0573316 L13.595939,14.0542401 L14.5774608,16.4114382 C15.2088808,16.0157381 15.7274643,15.4971545 16.1115717,14.8858287 L16.1231645,14.8657346 C16.3009204,14.6014192 16.4508536,14.2969156 16.5559615,13.9723179 L16.56369,13.9460409 L14.0519216,13.5209724 C13.9699993,13.5232909 13.893487,13.5433851 13.8247032,13.5766177 L13.8277946,13.575072 L13.8277946,13.5758449 Z" id="Combined-Shape"></path>
        </g>
    </g>
</svg>