<svg xmlns="http://www.w3.org/2000/svg" width="64" height="64" viewBox="0 0 64 64">
  <title>leaseweb</title>
  <path d="M31.22,21.26,5.51,27a2.35,2.35,0,0,1-2.84-2.35v-.83A2.44,2.44,0,0,1,4,21.69L29.69,8.75a2.34,2.34,0,0,1,3.37,2.16v8a2.38,2.38,0,0,1-1.84,2.35m1.84,14.88V27.85a2.36,2.36,0,0,0-2.66-2.38L4.68,29.17a2.38,2.38,0,0,0-2,2.38v1.12a2.39,2.39,0,0,0,2,2.39l25.72,3.47a2.37,2.37,0,0,0,2.64-2.39m0,16.94v-8a2.38,2.38,0,0,0-1.86-2.35L5.49,37.17a2.35,2.35,0,0,0-2.82,2.36v.84A2.4,2.4,0,0,0,4,42.54L29.71,55.26a2.35,2.35,0,0,0,3.35-2.18m5.19-31.93,20.4,3.12a2.37,2.37,0,0,0,2.68-2.39V17.52a2.4,2.4,0,0,0-1.59-2.28L39.34,8.13a2.35,2.35,0,0,0-3.09,2.28v8.36a2.38,2.38,0,0,0,2,2.38m.56,17.48,20.4-2a2.38,2.38,0,0,0,2.12-2.4V30a2.38,2.38,0,0,0-2.09-2.39L38.83,25.37a2.36,2.36,0,0,0-2.58,2.39v8.47a2.37,2.37,0,0,0,2.56,2.4m.51,17.25L59.72,49a2.41,2.41,0,0,0,1.61-2.29V42.33a2.37,2.37,0,0,0-2.66-2.39l-20.4,2.89a2.38,2.38,0,0,0-2,2.39v8.37a2.35,2.35,0,0,0,3.07,2.29" fill-rule="evenodd"/>
</svg>
