<?xml version="1.0" encoding="UTF-8"?>
<svg width="24px" height="24px" viewBox="0 0 24 24" version="1.1" xmlns="http://www.w3.org/2000/svg" xmlns:xlink="http://www.w3.org/1999/xlink">
    <!-- Generator: Sketch 48.2 (47327) - http://www.bohemiancoding.com/sketch -->
    <title>leaseweb</title>
    <desc>Created with Sketch.</desc>
    <defs></defs>
    <g id="Page-1" stroke="none" stroke-width="1" fill="none" fill-rule="evenodd">
        <g id="leaseweb" fill="#000000">
            <path d="M14.7441267,20.9543345 L22.3957466,18.3708376 C22.7562081,18.2491167 23,17.9029086 23,17.5123359 L23,15.8732012 C23,15.3253543 22.5299367,14.9034293 22.0025339,14.9781217 L14.350914,16.0615203 C13.9164887,16.123098 13.5927602,16.5051666 13.5927602,16.9564973 L13.5927602,20.0958328 C13.5927602,20.7106877 14.1765068,21.1459323 14.7441267,20.9543345 M14.5537919,14.4866272 L22.2054118,13.7365268 C22.6559638,13.6923671 23,13.3029214 23,12.8371441 L23,11.2441157 C23,10.7819244 22.6610407,10.394323 22.2145701,10.3456551 L14.5629502,9.5122558 C14.0445068,9.45580104 13.5927602,9.87414003 13.5927602,10.4107164 L13.5927602,13.5872444 C13.5927602,14.1200298 14.0384344,14.5370369 14.5537919,14.4866272 M14.3418552,7.93275201 L21.9934751,9.09944957 C22.5236652,9.18028951 23,8.75744233 23,8.20570207 L23,6.57097302 C23,6.18367902 22.7600905,5.83941769 22.4037104,5.71523771 L14.7520905,3.04844187 C14.1828778,2.85008177 13.5927602,3.28563383 13.5927602,3.90417719 L13.5927602,7.0390045 C13.5927602,7.48685161 13.9115113,7.86707596 14.3418552,7.93275201 M12.39819,19.906694 L12.39819,16.902604 C12.39819,16.4750437 12.1070136,16.1060899 11.7004615,16.0183852 L2.0578914,13.9380631 C1.51247059,13.8204405 1,14.2488204 1,14.822282 L1,15.1394942 C1,15.4869317 1.19342081,15.8035292 1.49773756,15.9538362 L11.1403077,20.7212409 C11.7229593,21.0092524 12.39819,20.5721635 12.39819,19.906694 M12.39819,13.551179 L12.39819,10.4451425 C12.39819,9.89637358 11.9268326,9.47444853 11.3989321,9.55037045 L1.75626244,10.9371494 C1.32263348,10.9995467 1,11.381308 1,11.8319215 L1,12.2510801 C1,12.7046649 1.32681448,13.087963 1.76372851,13.1468768 L11.4063982,14.4469756 C11.9319095,14.5179795 12.39819,14.0967717 12.39819,13.551179 M11.707629,7.9737355 L2.06505882,10.1406352 C1.51764706,10.2636881 1,9.83459096 1,9.25795323 L1,8.94586394 C1,8.60078293 1.19093213,8.28582479 1.49206335,8.13428833 L11.1346335,3.28030598 C11.7178824,2.98676171 12.39819,3.4237482 12.39819,4.09198404 L12.39819,7.09105354 C12.39819,7.51574498 12.1107964,7.88305952 11.707629,7.9737355" id="Fill-1"></path>
        </g>
    </g>
</svg>