<?xml version="1.0" encoding="UTF-8"?>
<svg width="24px" height="24px" viewBox="0 0 24 24" version="1.1" xmlns="http://www.w3.org/2000/svg" xmlns:xlink="http://www.w3.org/1999/xlink">
    <!-- Generator: Sketch 48.2 (47327) - http://www.bohemiancoding.com/sketch -->
    <title>lets-encrypt</title>
    <desc>Created with Sketch.</desc>
    <defs></defs>
    <g id="Page-1" stroke="none" stroke-width="1" fill="none" fill-rule="evenodd">
        <g id="lets-encrypt" fill="#000000" fill-rule="nonzero">
            <path d="M17.1573618,12.8353256 L16.1286739,12.8353256 C16.1286739,12.4331318 16.1286739,12.015469 16.1286739,11.6055407 C16.1286739,11.6047673 16.1286739,11.6032204 16.1286739,11.6024469 C16.1286739,9.0098439 14.0264379,6.90760793 11.4338349,6.90760793 C10.6023766,6.90760793 9.82119252,7.12417382 9.14365068,7.50316411 L9.16762762,7.49078892 C7.9989453,8.11186894 7.16671354,9.23259738 6.95092111,10.5598369 L6.94782731,10.5845873 C6.8728027,11.186331 6.83026297,11.8832091 6.83026297,12.5893686 C6.83026297,12.6705808 6.83103642,12.7510195 6.83180987,12.8322318 L6.83180987,12.8198566 L5.8495289,12.8198566 C5.82013781,12.8167628 5.78610603,12.8144424 5.75207425,12.8144424 C5.26480101,12.8144424 4.87034172,13.2089017 4.87034172,13.6961749 C4.87034172,13.7278864 4.87188862,13.7595978 4.87498242,13.7905358 L4.87498242,13.7866685 L4.87498242,21.9310927 C4.87111517,21.9682183 4.86956827,22.0115314 4.86956827,22.0548446 C4.86956827,22.0981578 4.87188862,22.141471 4.87575587,22.1840107 L4.87498242,22.1785965 C4.88735761,22.6349318 5.26016032,23 5.71804247,23 C5.73428491,23 5.75052735,22.9992266 5.76676979,22.9984531 L5.76444944,22.9984531 L17.1805653,22.9984531 C17.1921671,22.9992266 17.2060892,22.9992266 17.2192378,22.9992266 C17.6980031,22.9992266 18.0855013,22.6117283 18.0855013,22.132963 C18.0855013,22.1275489 18.0855013,22.1213613 18.0855013,22.1159471 L18.0855013,22.1167206 C18.0855013,19.3271457 18.0855013,16.5375709 18.0855013,13.7479961 C18.0862748,13.7356209 18.0862748,13.7216988 18.0862748,13.7077767 C18.0862748,13.2251441 17.6949093,12.8337787 17.2122768,12.8337787 C17.1929405,12.8337787 17.1736043,12.8345521 17.154268,12.8353256 L17.1565884,12.8353256 L17.1573618,12.8353256 Z M12.215019,18.2494726 C12.1106033,18.329138 12.0440866,18.4536633 12.0440866,18.5936577 C12.0440866,18.6006188 12.0440866,18.6068064 12.0448601,18.6137674 L12.0448601,18.612994 C12.0541415,18.7599494 12.0595556,18.9316552 12.0595556,19.1041344 C12.0595556,19.2766137 12.0541415,19.4483195 12.0440866,19.6184784 L12.0448601,19.5952749 C12.0170159,19.8791309 11.7795669,20.0987906 11.4902967,20.0987906 C11.4810153,20.0987906 11.4725074,20.0987906 11.463226,20.0980172 L11.4647729,20.0980172 C11.1654479,20.0817747 10.9272254,19.8412319 10.9156237,19.5419069 L10.9156237,19.5411335 C10.9156237,19.2549571 10.9156237,18.9610463 10.9156237,18.6671354 C10.9218113,18.6392912 10.9249051,18.6068064 10.9249051,18.573548 C10.9249051,18.4064829 10.8351849,18.2603009 10.7006047,18.1806356 L10.6982843,18.1790887 C10.4469132,17.9733511 10.2875826,17.6631979 10.2875826,17.3151455 C10.2875826,17.1751512 10.3131065,17.0413444 10.3602869,16.9183659 L10.3579665,16.9261004 C10.5296723,16.4759527 10.9550696,16.1603853 11.4554915,16.1526508 L11.4562649,16.1526508 C11.9597806,16.1534243 12.3882717,16.4713121 12.552243,16.9183659 L12.5545634,16.9261004 C12.6102517,17.054493 12.6427366,17.2045423 12.6427366,17.3615525 C12.6427366,17.7041907 12.4888201,18.0104767 12.2467304,18.2162143 L12.2451835,18.2177612 L12.215019,18.2494726 Z M9.50021094,12.8353256 C9.50021094,12.3712558 9.50021094,11.8994516 9.50021094,11.4276473 C9.52805513,10.4066939 10.3332161,9.58297005 11.3433413,9.52496133 L11.3487554,9.52496133 C11.3920686,9.52109408 11.4431163,9.51954718 11.494164,9.51954718 C12.4795387,9.51954718 13.2924343,10.2566446 13.4123189,11.2095345 L13.4130924,11.2188159 C13.4130924,11.7447616 13.4130924,12.2707074 13.4130924,12.7657151 L9.50021094,12.8353256 Z M16.0435944,7.16594009 L16.0435944,7.16748699 L16.0389537,7.16516664 C15.7852623,7.03832091 15.6104627,6.77534805 15.6104627,6.47215581 C15.6104627,6.46596822 15.6104627,6.46055407 15.6104627,6.45513992 L15.6104627,6.45436647 C15.6151034,6.20918296 15.728027,5.99107017 15.9043735,5.84411475 C16.6236816,5.24855857 17.3507242,4.64526789 18.0855013,4.05744621 L18.0847279,4.05821966 C18.2216285,3.93678807 18.4018422,3.86253691 18.5990719,3.86253691 C18.8450288,3.86253691 19.0639151,3.97700745 19.2070032,4.15799466 L19.2062298,4.15722121 C19.3268879,4.29412178 19.3995922,4.47278864 19.3995922,4.66924483 C19.3995922,4.92061595 19.2797075,5.14491633 19.0909858,5.28723105 C18.3639432,5.89825622 17.6214316,6.4938124 16.8866545,7.08936858 L16.8882014,7.08782168 C16.7567149,7.19301083 16.5888764,7.25643369 16.4063423,7.25643369 C16.273309,7.25643369 16.1487836,7.22240191 16.0435944,7.16594009 Z M11.4725074,5.34833357 L11.4717339,5.34833357 C11.0517508,5.33982562 10.7137533,4.99718746 10.7137533,4.57488398 C10.7137533,4.56173534 10.7137533,4.54781325 10.7145268,4.5362115 C10.7145268,4.07987625 10.7145268,3.6158065 10.7145268,3.17494023 C10.7145268,2.73407397 10.7145268,2.28547321 10.7145268,1.84460695 L10.7145268,1.84770075 C10.7122064,1.82372381 10.711433,1.79974687 10.711433,1.77499648 C10.711433,1.34805231 11.0579384,1.0015469 11.4848826,1.0015469 C11.485656,1.0015469 11.4872029,1.0015469 11.4879764,1.0015469 L11.485656,1.0015469 C11.5018985,1.00077345 11.5181409,1 11.5343833,1 C11.9613275,1 12.3078329,1.34650541 12.3078329,1.77344959 C12.3078329,1.77422303 12.3078329,1.77422303 12.3078329,1.77499648 C12.3078329,2.71087048 12.3078329,3.63900998 12.3078329,4.57488398 C12.3078329,4.57565743 12.3078329,4.57643088 12.3078329,4.57720433 C12.3078329,5.0041485 11.9613275,5.35065392 11.5343833,5.35065392 C11.5127268,5.35065392 11.4910702,5.34988047 11.4725074,5.34833357 Z M5.39319364,10.7702152 C5.39319364,10.7709886 5.39319364,10.7709886 5.39319364,10.7717621 C5.39319364,11.1987062 5.04668823,11.5452116 4.61974406,11.5452116 C4.60350162,11.5452116 4.58725918,11.5444382 4.57333708,11.5436647 L1.81985656,11.5436647 L1.82217691,11.5436647 C1.80593447,11.5444382 1.78969203,11.5452116 1.77344959,11.5452116 C1.34650541,11.5452116 1,11.1987062 1,10.7717621 C1,10.7709886 1,10.7709886 1,10.7702152 C1,10.7694417 1,10.7678948 1,10.7671214 C1,10.3401772 1.34650541,9.99367178 1.77344959,9.99367178 C1.79819997,9.99367178 1.82217691,9.99444523 1.84306005,9.99676557 C2.29166081,9.99676557 2.76346505,9.99676557 3.21206581,9.99676557 C3.66066657,9.99676557 4.10926733,9.99676557 4.5501336,9.99676557 L4.5470398,9.99676557 C4.57101673,9.99444523 4.59499367,9.99367178 4.61974406,9.99367178 C5.04668823,9.99367178 5.39319364,10.3401772 5.39319364,10.7671214 C5.39319364,10.7678948 5.39319364,10.7694417 5.39319364,10.7702152 Z M4.29489523,5.6654479 L3.85402897,5.2941921 L3.85248207,5.2926452 C3.66840107,5.15110392 3.54928983,4.92835044 3.54928983,4.67852623 C3.54928983,4.48439038 3.62044719,4.30649698 3.73801153,4.17191675 L3.73878498,4.17036985 C3.88032626,3.99789059 4.09534524,3.8872873 4.33666151,3.8872873 C4.52383631,3.8872873 4.69554212,3.95380397 4.827802,4.06363381 C5.58578259,4.66692448 6.29735621,5.27794966 7.07080579,5.91991281 L7.06848545,5.91681901 C7.19919842,6.07382928 7.30361412,6.25326958 7.38018563,6.46132752 L7.31830966,6.46132752 L7.31830966,6.45900717 C7.31985656,6.47756996 7.32063001,6.49613275 7.32063001,6.51469554 C7.32063001,6.94163971 6.9741246,7.28814513 6.54718042,7.28814513 C6.33912249,7.28814513 6.15040079,7.20615947 6.01195331,7.07312614 C5.43186612,6.57811841 4.86724793,6.13725214 4.29489523,5.6654479 Z M21.0942202,9.96582759 L21.0934468,9.96505414 L21.0888061,9.96582759 C21.128252,9.95963999 21.1684714,9.9565462 21.2094642,9.9565462 C21.6364084,9.9565462 21.9829138,10.3030516 21.9829138,10.7299958 C21.9829138,10.7299958 21.9829138,10.7307692 21.9829138,10.7307692 L21.9829138,10.7284489 C21.9836872,10.7454648 21.9844607,10.7632541 21.9844607,10.7810435 C21.9844607,11.2079876 21.6379553,11.554493 21.2110111,11.554493 C21.1831669,11.554493 21.1560962,11.5529461 21.1321193,11.5506258 L18.4173112,11.5506258 L18.4211785,11.5506258 C18.3917874,11.554493 18.3616228,11.5560399 18.3314583,11.5560399 C17.9045141,11.5560399 17.5580087,11.2095345 17.5580087,10.7825904 C17.5580087,10.7671214 17.5587822,10.7524258 17.5595556,10.7392772 L17.5595556,10.7377303 C17.5796653,10.3069189 17.9354521,9.96350724 18.3709042,9.96350724 C18.3925608,9.96350724 18.4149909,9.96428069 18.4335536,9.96582759 L21.0942202,9.96582759 Z" id="Combined-Shape"></path>
        </g>
    </g>
</svg>