<svg xmlns="http://www.w3.org/2000/svg" width="64" height="64" viewBox="0 0 64 64">
  <title>letsencrypt</title>
  <path d="M56.25,26.58h0a1.66,1.66,0,0,1,.32,0,2.06,2.06,0,0,1,2.06,2.06h0s0,.09,0,.14a2.07,2.07,0,0,1-2.07,2.06H49.12l-.24,0a2.07,2.07,0,0,1-2.06-2.07.37.37,0,0,1,0-.11h0A2.16,2.16,0,0,1,49,26.57h7.26ZM11.45,15.11l-1.17-1h0a2.05,2.05,0,0,1-.81-1.63A2,2,0,0,1,10,11.13h0a2.05,2.05,0,0,1,1.59-.75,2,2,0,0,1,1.31.47c2,1.61,3.92,3.23,6,4.95h0a4.81,4.81,0,0,1,.83,1.45h-.16v.15a2.06,2.06,0,0,1-2.06,2.06A2,2,0,0,1,16,18.86C14.49,17.54,13,16.37,11.45,15.11Zm2.93,13.61h0a2.07,2.07,0,0,1-2.06,2.07H4.73a2.07,2.07,0,0,1-2.06-2.07h0a2.06,2.06,0,0,1,2.06-2.06h7.59a2.06,2.06,0,0,1,2.06,2.06ZM30.59,14.26h0a2.06,2.06,0,0,1-2-2.06V4.92h0c0-.07,0-.13,0-.2a2.07,2.07,0,0,1,2.07-2.06h.13a2.06,2.06,0,0,1,2.06,2.06h0V12.2h0a2.06,2.06,0,0,1-2.06,2.06Zm12.19,4.85h0a2.06,2.06,0,0,1-1.14-1.85v-.05h0a2.18,2.18,0,0,1,.78-1.63c1.92-1.58,3.86-3.19,5.82-4.76h0a2.06,2.06,0,0,1,3,.27h0a2,2,0,0,1,.51,1.36,2.07,2.07,0,0,1-.82,1.65C49,15.73,47,17.32,45,18.91h0a2.08,2.08,0,0,1-2.26.21ZM25.33,34.23V30.47a5.23,5.23,0,0,1,4.92-5.07h.4a5.16,5.16,0,0,1,5.12,4.5V34Zm7.24,14.44a1.13,1.13,0,0,0-.45.91v.06h0c0,.4,0,.85,0,1.31s0,.92,0,1.38v-.07a1.49,1.49,0,0,1-1.48,1.35h-.07a1.53,1.53,0,0,1-1.46-1.48h0V49.78a2,2,0,0,0,0-.25,1.21,1.21,0,0,0-.6-1.05h0a3,3,0,0,1-1.1-2.31,2.8,2.8,0,0,1,.2-1.05v0a3.19,3.19,0,0,1,2.93-2.07h0a3.11,3.11,0,0,1,2.92,2v0a2.89,2.89,0,0,1,.23,1.16,3,3,0,0,1-1.05,2.28h0ZM45.75,34.23H43V31h0A12.52,12.52,0,0,0,24.38,20l.07,0a11.29,11.29,0,0,0-5.91,8.18v.07a44.06,44.06,0,0,0-.32,5.34c0,.22,0,.43,0,.65v0H15.6l-.26,0A2.35,2.35,0,0,0,13,36.52a2,2,0,0,0,0,.25h0V58.48c0,.1,0,.22,0,.33s0,.23,0,.35v0a2.25,2.25,0,0,0,2.25,2.19H45.92A2.31,2.31,0,0,0,48.23,59v0h0V36.55a2.33,2.33,0,0,0-2.33-2.33h-.15Z"/>
</svg>
