<?xml version="1.0" encoding="UTF-8"?>
<svg width="24px" height="24px" viewBox="0 0 24 24" version="1.1" xmlns="http://www.w3.org/2000/svg" xmlns:xlink="http://www.w3.org/1999/xlink">
    <!-- Generator: Sketch 48.2 (47327) - http://www.bohemiancoding.com/sketch -->
    <title>linkedin</title>
    <desc>Created with Sketch.</desc>
    <defs></defs>
    <g id="Page-1" stroke="none" stroke-width="1" fill="none" fill-rule="evenodd">
        <g id="linkedin" fill="#000000" fill-rule="nonzero">
            <path d="M5.56923077,1.70484615 C6.03884615,2.17530769 6.28338462,2.75830769 6.30284615,3.45384615 C6.30284615,4.13076923 6.06338462,4.70869231 5.58361538,5.18846154 C5.10384615,5.66823077 4.45061538,5.90769231 3.62307692,5.90769231 L3.59515385,5.90769231 C2.80569231,5.90769231 2.17530769,5.66823077 1.70569231,5.18846154 C1.23607692,4.70869231 1,4.13076923 1,3.45384615 C1,2.75830769 1.23946154,2.17530769 1.71923077,1.70484615 C2.199,1.23438462 2.84292308,1 3.651,1 C4.45992308,1 5.09876923,1.23523077 5.56923077,1.70484615 Z M1.28176923,22.0404615 L1.28176923,7.85384615 L5.99230769,7.85384615 L5.99230769,22.0413077 L1.28176923,22.0413077 L1.28176923,22.0404615 Z M23,13.8894615 C23,11.7080769 22.483,10.1003846 21.449,9.06638462 C20.415,8.03238462 19.1263077,7.51538462 17.5846154,7.51538462 C16.3246923,7.51538462 15.3795385,7.78361538 14.75,8.31923077 C14.1196154,8.85484615 13.6449231,9.36761538 13.3259231,9.85669231 L13.3259231,9.91253846 L13.298,9.91253846 C13.298,9.89392308 13.3073077,9.87530769 13.3259231,9.85584615 L13.3259231,7.853 L8.61538462,7.853 C8.61538462,8.17284615 8.61961538,9.09430769 8.62976923,10.6173846 C8.63992308,12.1404615 8.63907692,13.7481538 8.62976923,15.4404615 C8.62046154,17.1327692 8.61538462,19.3327692 8.61538462,22.0404615 L13.3259231,22.0404615 L13.3259231,14.1145385 C13.3259231,13.9080769 13.3352308,13.7007692 13.3538462,13.4943077 C13.3724615,13.2878462 13.4105385,13.1093077 13.4663846,12.9586923 C13.6356154,12.5449231 13.9224615,12.1548462 14.3269231,11.7884615 C14.7313846,11.4220769 15.2526154,11.2384615 15.8923077,11.2384615 C16.7570769,11.2384615 17.3730769,11.5346154 17.7394615,12.1269231 C18.1058462,12.7192308 18.2894615,13.4951538 18.2894615,14.4538462 L18.2894615,22.0413077 L23,22.0413077 L23,13.8894615 Z" id="Shape"></path>
        </g>
    </g>
</svg>