<?xml version="1.0" encoding="UTF-8"?>
<svg width="24px" height="24px" viewBox="0 0 24 24" version="1.1" xmlns="http://www.w3.org/2000/svg" xmlns:xlink="http://www.w3.org/1999/xlink">
    <!-- Generator: Sketch 48.2 (47327) - http://www.bohemiancoding.com/sketch -->
    <title>linux</title>
    <desc>Created with Sketch.</desc>
    <defs></defs>
    <g id="Page-1" stroke="none" stroke-width="1" fill="none" fill-rule="evenodd">
        <g id="linux" fill="#000000" fill-rule="nonzero">
            <path d="M10.6611764,18.0837783 L10.6611764,18.0847421 C10.6775619,18.1319708 10.6929835,18.1830549 10.7074413,18.2379945 C11.1729814,19.9767822 10.521418,23.6114655 9.18648389,23.9690543 C7.85154983,24.3266432 5.47662021,21.5025588 5.01108002,19.7637711 C5.00336921,19.7358194 4.99662225,19.7069039 4.98987529,19.679916 C4.97734523,19.6481089 4.96674286,19.6163018 4.9580682,19.582567 C4.80867125,19.0244971 5.13927225,18.4510056 5.69734215,18.3016087 C5.95661816,18.2312475 6.21974956,18.26691 6.44143537,18.3796806 C6.51661577,18.4182347 6.59854313,18.3517289 6.57637455,18.2707654 C6.57637455,18.2678739 6.5754107,18.2649823 6.57444685,18.2620907 C6.42312219,17.69631 6.7652894,17.1151077 7.33781708,16.9753493 C7.84094747,16.8529401 8.37010183,17.1286016 8.55901669,17.6105273 C8.55998054,17.6134188 8.56190824,17.6172742 8.5628721,17.6211296 C8.60720926,17.7367918 8.75660621,17.7618519 8.83467816,17.6654668 C8.9686535,17.5016121 9.15371295,17.3753475 9.3744349,17.3165526 C9.93250481,17.1671557 10.5059963,17.4977567 10.6553933,18.0558266 C10.657321,18.0654651 10.6592487,18.0741397 10.6611764,18.0837783 Z M12.7855047,18.2370306 L12.7855047,18.2360668 C12.8009263,18.1811272 12.8153841,18.131007 12.8317695,18.0828144 C12.8336972,18.0731759 12.8346611,18.0645012 12.8375527,18.0548627 C12.9869496,17.4967928 13.5604411,17.1661918 14.118511,17.3155888 C14.339233,17.3743837 14.5242924,17.4996844 14.6582678,17.6645029 C14.7363397,17.7608881 14.8857367,17.7358279 14.9300738,17.6201658 C14.9310377,17.6172742 14.9320015,17.6134188 14.9339292,17.6095634 C15.1228441,17.1276378 15.6519985,16.8519763 16.1551289,16.9743854 C16.7276565,17.11318 17.0698237,17.6953462 16.9184991,18.2611269 C16.9184991,18.2640185 16.9175352,18.26691 16.9165714,18.2698016 C16.8944028,18.3507651 16.9763302,18.4172708 17.0515106,18.3787168 C17.2731964,18.2659462 17.5363278,18.2312475 17.7956038,18.3006448 C18.3536737,18.4500418 18.6842747,19.0235333 18.5348777,19.5816032 C18.5252392,19.615338 18.5146369,19.6471451 18.5030706,19.6789522 C18.4963237,19.70594 18.4895767,19.7338917 18.4818659,19.7628072 C18.0163257,21.5025588 15.64236,24.3256793 14.306462,23.9680905 C12.9705641,23.6105017 12.3199645,19.9758184 12.7855047,18.2370306 Z M18.0433136,11.8765758 L18.0442774,11.8765758 C18.915599,13.126691 19.427404,14.6457206 19.427404,16.2852317 C19.427404,17.0004094 19.3290912,17.6934185 19.1469233,18.3507651 L19.1160801,18.3507651 C18.2148791,17.8167914 17.6992187,17.1825773 17.2124737,16.1098108 C16.9001859,15.4235486 16.6515123,13.9787355 16.4693444,13.2423531 C16.4307903,13.0881369 16.3691038,12.9406677 16.2852488,12.8057285 C15.4573005,11.4727221 14.7353759,10.0761016 14.1281496,8.62936077 C14.0915232,8.543578 14.0597161,8.45490368 14.0317644,8.36526551 L13.5112847,6.69009193 C13.5074293,6.67659802 13.5026101,6.6631041 13.4977908,6.65057403 C13.3532131,6.2929852 12.8414081,6.28816594 12.6698425,6.63418856 C12.5079155,6.96286185 12.134905,7.60189527 11.7021358,7.60189527 C11.2809328,7.60189527 10.9223801,6.99852435 10.7633446,6.65153788 C10.6100923,6.31804533 10.1233474,6.30744296 9.98262507,6.64575477 C9.97587811,6.66021254 9.97105886,6.67467031 9.9662396,6.69009193 L9.44575989,8.36526551 C9.41780821,8.45490368 9.38600111,8.54261415 9.34937476,8.62936077 C8.74118459,10.0761016 8.02022381,11.4727221 7.19227553,12.8057285 C7.10842047,12.9406677 7.04673399,13.0881369 7.00817993,13.2423531 C6.81540967,14.0230727 6.53300124,15.2616216 6.17830396,15.985474 C5.67517357,17.0110117 5.27999454,17.7657073 4.28048073,18.3498012 L4.28048073,18.3517289 C4.09831283,17.6943823 4,17.0004094 4,16.2842679 C4,14.5377693 4.58120234,12.9262099 5.56047527,11.6327214 C6.75275934,9.9016445 7.45058769,7.80430405 7.45058769,5.54310888 C7.45058769,5.21636328 7.43902147,4.57443831 7.43902147,4.57443831 C7.43323836,4.47901703 7.42841911,4.3826319 7.42841911,4.28528292 C7.42841911,1.91902796 9.34744706,0 11.713702,0 C14.079957,0 15.9989849,1.9180641 15.9989849,4.28528292 C15.9989849,4.3826319 15.9835633,5.21636328 15.9835633,5.54310888 C15.9835633,7.91129154 16.7488613,10.1001979 18.0452413,11.8765758 L18.0433136,11.8765758 Z" id="Combined-Shape"></path>
        </g>
    </g>
</svg>