<?xml version="1.0" encoding="UTF-8"?>
<svg width="24px" height="24px" viewBox="0 0 24 24" version="1.1" xmlns="http://www.w3.org/2000/svg" xmlns:xlink="http://www.w3.org/1999/xlink">
    <!-- Generator: Sketch 48.2 (47327) - http://www.bohemiancoding.com/sketch -->
    <title>mailgun</title>
    <desc>Created with Sketch.</desc>
    <defs></defs>
    <g id="Page-1" stroke="none" stroke-width="1" fill="none" fill-rule="evenodd">
        <g id="mailgun" fill="#000000" fill-rule="nonzero">
            <path d="M13.8322165,12.0549738 C13.8275923,11.0199187 12.9875252,10.1821638 11.9516995,10.1821638 C10.9127909,10.1821638 10.0711825,11.0237722 10.0711825,12.0626808 C10.0711825,13.0985066 10.9089374,13.9385736 11.9432217,13.9431978 L11.9439924,13.9431978 C11.9532409,13.9431978 11.9640307,13.9431978 11.9748206,13.9431978 C13.0006272,13.9431978 13.8322165,13.1116085 13.8322165,12.0858019 C13.8322165,12.0750121 13.8322165,12.0642222 13.8322165,12.0534324 L13.8322165,12.0549738 Z M11.9439924,16.2167737 C11.9509288,16.2167737 11.9586358,16.2167737 11.9671135,16.2167737 C14.2784539,16.2167737 16.1520346,14.343193 16.1520346,12.0318527 C16.1520346,9.72051228 14.2784539,7.8469316 11.9671135,7.8469316 C9.65577317,7.8469316 7.78219249,9.72051228 7.78219249,12.0318527 C7.78219249,12.0403304 7.78219249,12.0480374 7.78219249,12.0565152 L7.78219249,12.0549738 C7.78219249,12.059598 7.78219249,12.0649929 7.78219249,12.0703878 C7.78219249,14.3601485 9.63881769,16.2167737 11.9285784,16.2167737 C11.9339733,16.2167737 11.9393682,16.2167737 11.9447631,16.2167737 L11.9439924,16.2167737 Z M1,11.053059 C1.10019148,10.5521016 1.19267592,10.0511442 1.30828148,9.55018676 C2.43582098,4.62153665 6.7825898,1 11.9748206,1 C18.0102012,1 22.9033989,5.89319774 22.9033989,11.9285784 C22.9033989,12.1328148 22.898004,12.3362806 22.8864435,12.5374343 L22.8879849,12.5096889 C22.8748829,13.4106416 22.6182386,14.2499379 22.1820203,14.9666923 L22.1943515,14.9451126 C21.6471519,15.8560844 20.6652754,16.4556918 19.5423601,16.4556918 C19.2548877,16.4556918 18.9758929,16.416386 18.7123123,16.3423984 L18.733892,16.3477933 C18.2159791,16.1258307 17.7697416,15.8676449 17.3589566,15.5639877 L17.3774535,15.5770896 L17.1154142,15.9161993 C15.9215942,17.4861227 14.051867,18.4895789 11.9486167,18.4895789 C8.37332223,18.4895789 5.47470564,15.5909623 5.47470564,12.0156679 C5.47470564,8.44037345 8.37332223,5.54175686 11.9486167,5.54175686 C15.1979034,5.54175686 17.88843,7.93556253 18.3516229,11.0561418 L18.3562472,11.0915941 C18.3708905,11.3297416 18.3793683,11.6087363 18.3793683,11.8892725 C18.3793683,12.1698086 18.3708905,12.4488034 18.3547057,12.7247153 L18.3562472,12.6869508 C18.353935,12.7139254 18.3523936,12.7447536 18.3523936,12.7755817 C18.3523936,13.3590044 18.824835,13.8314458 19.4082577,13.8314458 C19.8853233,13.8314458 20.289172,13.5146866 20.4194209,13.079239 L20.421733,13.0715319 C20.5442749,12.6260652 20.614409,12.1150887 20.614409,11.5871566 C20.614409,10.9266636 20.5041983,10.2923744 20.3015033,9.70124469 L20.3138345,9.74209198 C19.2764674,6.03192441 15.9254477,3.35604119 11.9493874,3.35604119 C7.16100532,3.35604119 3.27897082,7.23807569 3.27897082,12.0264577 C3.27897082,16.7346866 7.0315271,20.5658546 11.7081571,20.6937915 L11.7197177,20.6937915 C11.8137435,20.697645 11.9239541,20.6999571 12.0341648,20.6999571 C14.3270082,20.6999571 16.4079082,19.789756 17.9339015,18.3107756 L17.9315894,18.3130877 C18.0703161,18.1897752 18.2013357,18.0587555 18.3631835,17.9046148 L20.0818527,19.3458307 C19.9585401,19.4768503 19.8583486,19.615577 19.7427431,19.7234755 C16.5366157,22.7677551 12.8064099,23.7619629 8.56753956,22.4055244 C4.32866925,21.0490859 1.92407373,18.0356344 1.15337003,13.7042797 C1.11483485,13.4653615 1.06859263,13.2341504 1.02235041,13.0106463 L1,11.053059 Z" id="Shape"></path>
        </g>
    </g>
</svg>