<?xml version="1.0" encoding="UTF-8"?>
<svg width="24px" height="24px" viewBox="0 0 24 24" version="1.1" xmlns="http://www.w3.org/2000/svg" xmlns:xlink="http://www.w3.org/1999/xlink">
    <!-- Generator: Sketch 48.2 (47327) - http://www.bohemiancoding.com/sketch -->
    <title>memcached</title>
    <desc>Created with Sketch.</desc>
    <defs></defs>
    <g id="Page-1" stroke="none" stroke-width="1" fill="none" fill-rule="evenodd">
        <g id="memcached" fill="#000000" fill-rule="nonzero">
            <path d="M14.3960014,14.4173974 C14.2239214,14.1056471 13.896738,13.8972992 13.5217117,13.8972992 C13.4707822,13.8972992 13.4206243,13.9011575 13.3720098,13.9081024 L13.3774114,13.9073308 C12.7292178,13.9073308 12.3356717,14.0848123 12.1427569,14.4243423 C12.0324097,14.6759032 11.9675903,14.9691336 11.9675903,15.2777973 C11.9675903,15.3302701 11.9691336,15.3827429 11.9729919,15.4344441 L11.9722203,15.4274991 L11.9722203,20.7365135 L14.5495616,20.7365135 L14.5495616,15.4892318 C14.5518765,15.4452473 14.5534199,15.3943178 14.5534199,15.3433883 C14.5534199,15.0115749 14.4955454,14.6928797 14.3890565,14.3973343 L14.3952297,14.4166257 L14.3960014,14.4173974 Z M17.7450018,20.7372852 L20.3069099,20.7372852 L20.3069099,15.1118906 C20.3084532,15.0871975 20.3092248,15.0578744 20.3092248,15.0277797 C20.3092248,14.7916521 20.254437,14.5678709 20.1564363,14.3695545 L20.1602946,14.3780428 C19.9766398,14.0747808 19.647913,13.8756927 19.2736584,13.8756927 C19.2273588,13.8756927 19.1818309,13.8787794 19.1363031,13.8849526 L19.1417047,13.884181 C19.1023501,13.879551 19.0575938,13.8772361 19.0112943,13.8772361 C18.5382673,13.8772361 18.1277447,14.1465451 17.92557,14.5408629 L17.9224833,14.5478078 C17.8098211,14.8109435 17.7442301,15.1165205 17.7442301,15.4383024 C17.7442301,15.4560505 17.7442301,15.4745703 17.7450018,15.4923185 L17.7450018,15.4900035 L17.7450018,20.7372852 Z M1,20.7372852 L7.35075412,20.7372852 L7.35075412,4 L6.72571028,4 C3.56345142,4 1,6.56345142 1,9.72571028 L1,20.7372852 Z M17.2048404,12.5499825 C17.4980709,12.1749562 17.8638373,11.8709225 18.2820765,11.6556296 L18.3005963,11.6471414 C18.8423009,11.3840056 19.4789197,11.2304455 20.1510347,11.2304455 C20.1703262,11.2304455 20.1903893,11.2304455 20.2096808,11.2312171 L20.2065942,11.2312171 C20.2104525,11.2312171 20.2158541,11.2312171 20.220484,11.2312171 C20.7182041,11.2312171 21.1935461,11.3276745 21.6287618,11.5028411 L21.6032971,11.4935812 C22.1156787,11.6949842 22.5462645,12.0090495 22.8803928,12.4072255 L22.8842511,12.4118555 L23,12.5584707 L23,10.0119958 C22.9915118,6.69000351 20.2961066,4.00077166 16.9733427,4.00077166 C16.9571378,4.00077166 16.940933,4.00077166 16.9247282,4.00077166 L16.9270431,4.00077166 L16.6106629,4.00077166 L16.6106629,11.9025605 C16.8236408,12.0900737 17.0072957,12.3030516 17.1593125,12.5391792 L17.1662575,12.5507541 L17.2048404,12.5499825 Z M8.80147317,11.4542266 L11.8881094,11.4542266 L11.8881094,12.2258857 C12.0239214,12.0808137 12.1705367,11.9496317 12.3271834,11.8307962 L12.3356717,11.8246229 C12.8920379,11.4457383 13.5780428,11.2196422 14.3180638,11.2196422 C14.369765,11.2196422 14.4214662,11.2204139 14.4731673,11.2227289 L14.4662224,11.2227289 C14.7239565,11.2242722 14.9747457,11.2443353 15.2209049,11.2806033 L15.1915819,11.276745 L15.1915819,4 L8.80224483,4 L8.80147317,11.4542266 Z M8.80147317,20.7141354 L8.80147317,20.7372852 L8.80147317,20.7141354 Z" id="Shape"></path>
        </g>
    </g>
</svg>