<?xml version="1.0" encoding="UTF-8"?>
<svg width="24px" height="24px" viewBox="0 0 24 24" version="1.1" xmlns="http://www.w3.org/2000/svg" xmlns:xlink="http://www.w3.org/1999/xlink">
    <!-- Generator: Sketch 48.2 (47327) - http://www.bohemiancoding.com/sketch -->
    <title>mobile-theme</title>
    <desc>Created with Sketch.</desc>
    <defs></defs>
    <g id="Page-1" stroke="none" stroke-width="1" fill="none" fill-rule="evenodd">
        <g id="mobile-theme" fill="#000000" fill-rule="nonzero">
            <path d="M23,3.35633261 L23,20.6416049 C23,21.9430018 21.9450642,22.9989688 20.6426362,22.9989688 L3.35736383,22.9989688 C2.055967,22.9989688 1,21.944033 1,20.6416049 L1,6.49948439 C1,5.19808756 2.05493578,4.14212056 3.35736383,4.14212056 L10.4263617,4.14212056 C10.4273929,4.14212056 10.4273929,4.14212056 10.4284241,4.14212056 C10.8625668,4.14212056 11.2142121,4.49376582 11.2142121,4.9279085 C11.2142121,5.36205119 10.8625668,5.71369645 10.4284241,5.71369645 L3.35736383,5.71369645 C2.92322115,5.71369645 2.57157589,6.06534171 2.57157589,6.49948439 L2.57157589,20.6416049 C2.57157589,21.0757476 2.92322115,21.4273929 3.35736383,21.4273929 L20.6426362,21.4273929 C21.0767789,21.4273929 21.4284241,21.0757476 21.4284241,20.6416049 L21.4284241,3.35633261 C21.4284241,2.92218993 21.0767789,2.57054467 20.6426362,2.57054467 L1.78578794,2.57054467 C1.35267648,2.57054467 1.00103122,2.21889941 1.00103122,1.78578794 C1.00103122,1.35267648 1.35267648,1.00103122 1.78578794,1.00103122 L20.6426362,1 C21.944033,1 23,2.05493578 23,3.35736383 L23,3.35633261 Z M12,7.28527234 L5.71472766,7.28527234 C5.28058498,7.28527234 4.92893972,7.6369176 4.92893972,8.07106028 L4.92893972,19.0710603 C4.92893972,19.505203 5.28058498,19.8568482 5.71472766,19.8568482 L12,19.8568482 C12.4341427,19.8568482 12.7857879,19.505203 12.7857879,19.0710603 L12.7857879,8.07106028 C12.7857879,7.6369176 12.4341427,7.28527234 12,7.28527234 Z M11.2142121,18.2842411 L6.49948439,18.2842411 L6.49948439,8.85581701 L11.2142121,8.85581701 L11.2142121,18.2842411 Z M14.2996156,15.1421206 L18.2852723,15.1421206 C18.719415,15.1421206 19.0710603,14.7904753 19.0710603,14.3563326 L19.0710603,8.07106028 C19.0710603,7.6369176 18.719415,7.28527234 18.2852723,7.28527234 L14.2944595,7.28527234 C13.8603169,7.28527234 13.5086716,7.6369176 13.5086716,8.07106028 C13.5086716,8.50520296 13.8603169,8.85684822 14.2944595,8.85684822 L17.4994844,8.85684822 L17.4994844,13.5705447 L14.2996156,13.5705447 C13.8634105,13.5705447 13.510734,13.9252836 13.5138277,14.3614887 C13.5169213,14.793569 13.8675354,15.1410893 14.2996156,15.1410893 L14.2996156,15.1421206 Z" id="Shape"></path>
        </g>
    </g>
</svg>