<svg xmlns="http://www.w3.org/2000/svg" width="64" height="64" viewBox="0 0 64 64">
  <title>mobile-theme</title>
  <path d="M38.13,40.38H48.76a2.1,2.1,0,0,0,2.1-2.1V21.52a2.1,2.1,0,0,0-2.1-2.09H38.12a2.1,2.1,0,1,0,0,4.19h8.55V36.19H38.13a2.1,2.1,0,0,0,0,4.19ZM29.9,48.76H17.33V23.62H29.9ZM32,19.43H15.24a2.1,2.1,0,0,0-2.1,2.09V50.86A2.1,2.1,0,0,0,15.24,53H32a2.1,2.1,0,0,0,2.1-2.09V21.52A2.1,2.1,0,0,0,32,19.43ZM61.33,9V55a6.29,6.29,0,0,1-6.28,6.29H9A6.28,6.28,0,0,1,2.67,55V17.33A6.28,6.28,0,0,1,9,11.05H27.81a2.1,2.1,0,0,1,0,4.19H9a2.09,2.09,0,0,0-2.09,2.09V55A2.1,2.1,0,0,0,9,57.14h46.1A2.1,2.1,0,0,0,57.14,55V9a2.1,2.1,0,0,0-2.09-2.1H4.76a2.09,2.09,0,0,1,0-4.18H55.05A6.28,6.28,0,0,1,61.33,9Z"/>
</svg>
