<?xml version="1.0" encoding="UTF-8"?>
<svg width="24px" height="24px" viewBox="0 0 24 24" version="1.1" xmlns="http://www.w3.org/2000/svg" xmlns:xlink="http://www.w3.org/1999/xlink">
    <!-- Generator: Sketch 48.2 (47327) - http://www.bohemiancoding.com/sketch -->
    <title>nginx</title>
    <desc>Created with Sketch.</desc>
    <defs></defs>
    <g id="Page-1" stroke="none" stroke-width="1" fill="none" fill-rule="evenodd">
        <g id="nginx" fill="#000000" fill-rule="nonzero">
            <path d="M14.6263223,13.8659989 L14.4330346,13.6340538 C12.6625198,11.5233527 10.8997364,9.42811457 9.13695308,7.30968195 C8.74419258,6.82027763 8.16355649,6.49555438 7.50560534,6.44452645 L7.49787384,6.44375329 C7.43447549,6.43370234 7.36179933,6.42751713 7.28835003,6.42751713 C6.51983834,6.42751713 5.89667897,7.05067651 5.89667897,7.81918819 C5.89667897,7.83851696 5.89745212,7.85784572 5.89822527,7.87640134 L5.89822527,7.87330873 C5.89822527,10.6411878 5.89822527,13.4013354 5.89822527,16.161483 C5.89822527,16.1653488 5.89822527,16.1699877 5.89822527,16.1746266 C5.89822527,16.3269373 5.91832718,16.4738359 5.95543841,16.6145493 L5.95311896,16.602952 C6.10620278,17.1387454 6.59174135,17.5245475 7.16696538,17.5245475 C7.86280091,17.5245475 8.42720084,16.9601476 8.42720084,16.2643121 C8.42720084,16.2635389 8.42720084,16.2635389 8.42720084,16.2627658 L8.42720084,10.0775611 C8.48827974,10.1633808 8.55167809,10.2391495 8.62048849,10.3095062 L13.947496,16.6957301 C14.352627,17.1712177 14.9525918,17.4712001 15.6221402,17.4712001 C15.6584783,17.4712001 15.6948164,17.470427 15.7311545,17.4688807 L15.7257424,17.4688807 C15.7520295,17.470427 15.7829555,17.4719733 15.8138816,17.4719733 C16.5437357,17.4719733 17.1359691,16.8797399 17.1359691,16.1498858 C17.1359691,16.1189598 17.1351959,16.0880337 17.1328765,16.0578809 L17.1328765,16.0617466 C17.0942189,15.4586892 17.1328765,14.8556317 17.1328765,14.2525742 L17.1328765,7.88181339 C17.1367422,7.83542435 17.1382885,7.78130381 17.1382885,7.72718327 C17.1382885,7.67306273 17.1359691,7.61894219 17.1321033,7.5655948 L17.1328765,7.57255315 C17.1089088,7.09165349 16.7973291,6.68884203 16.3682305,6.53111931 L16.3597259,6.52879986 C16.2182393,6.46849411 16.0527851,6.43370234 15.8803725,6.43370234 C15.1884027,6.43370234 14.6278686,6.99423651 14.6278686,7.68620629 C14.6278686,7.6954841 14.6278686,7.7047619 14.6278686,7.71326656 L14.6278686,7.71172026 L14.6278686,13.896925 L14.6263223,13.8659989 Z M2.00077315,12.002706 C2.00077315,10.2708487 2.00077315,8.5544544 2.00077315,6.82259708 C2,6.81331928 2,6.80326832 2,6.79244421 C2,6.55740643 2.14225971,6.35484098 2.34482516,6.26747496 L2.34869092,6.26592866 C5.32789785,4.54953435 8.30710479,2.82798571 11.2863117,1.10128273 C11.3798629,1.03788438 11.4950624,1 11.6187665,1 C11.7424706,1 11.85767,1.03788438 11.9535407,1.10282903 L11.9512212,1.10128273 L20.904305,6.28139167 C21.0937269,6.37726234 21.2220699,6.57054999 21.2220699,6.79399051 C21.2220699,6.80404147 21.2220699,6.81409243 21.2212968,6.82414338 L21.2212968,6.82259708 C21.2212968,10.276003 21.2212968,13.7345633 21.2212968,17.198278 C21.2220699,17.2060095 21.2220699,17.2160604 21.2220699,17.2253383 C21.2220699,17.4487788 21.0906343,17.6420664 20.9004393,17.7302056 L20.8973467,17.7317519 L12.0061149,22.8809348 C11.8978738,22.9551573 11.7641188,23 11.6195396,23 C11.4749605,23 11.3412054,22.9559304 11.2306449,22.8793885 L11.2329643,22.8809348 C8.26922041,21.1645405 5.30805365,19.4533005 2.34946407,17.7472149 C2.15926902,17.6513442 2.03092602,17.4580566 2.03092602,17.2346161 C2.03092602,17.219153 2.03169917,17.20369 2.03247232,17.1890002 L2.03247232,17.1913196 C2.00927781,15.4671938 2.0015463,13.7353365 2.0015463,12.0034792 L2.00077315,12.002706 Z" id="Shape"></path>
        </g>
    </g>
</svg>