<svg xmlns="http://www.w3.org/2000/svg" width="64" height="64" viewBox="0 0 64 64">
  <title>nginx</title>
  <path d="M5.34,32V18.19a.19.19,0,0,1,0-.08,1.54,1.54,0,0,1,.92-1.4h0Q18.19,9.84,30.1,2.94A1.55,1.55,0,0,1,31,2.67a1.64,1.64,0,0,1,.9.27h0L55.74,16.75a1.53,1.53,0,0,1,.85,1.37v.08h0V45.93a1.48,1.48,0,0,1-.86,1.35h0L32,61a1.89,1.89,0,0,1-1,.31A1.76,1.76,0,0,1,30,61h0Q18.1,54.15,6.27,47.33A1.54,1.54,0,0,1,5.42,46v-.12h0c-.06-4.59-.08-9.21-.08-13.83ZM39,37l-.51-.62c-4.72-5.63-9.42-11.22-14.12-16.87A6.18,6.18,0,0,0,20,17.19h0a4.58,4.58,0,0,0-.55,0,3.72,3.72,0,0,0-3.72,3.71s0,.1,0,.15h0V43.13a4.6,4.6,0,0,0,.15,1.18v0a3.36,3.36,0,0,0,6.6-.9h0V26.87a5.33,5.33,0,0,0,.52.62l14.2,17a5.85,5.85,0,0,0,4.47,2.07h.51a3.53,3.53,0,0,0,3.53-3.52c0-.09,0-.17,0-.25h0c-.11-1.61,0-3.22,0-4.82V21c0-.13,0-.27,0-.41s0-.29,0-.44v0a3.13,3.13,0,0,0-2-2.77h0A3.35,3.35,0,0,0,39,20.5v.07h0V37Z"/>
</svg>
