<?xml version="1.0" encoding="UTF-8"?>
<svg width="24px" height="24px" viewBox="0 0 24 24" version="1.1" xmlns="http://www.w3.org/2000/svg" xmlns:xlink="http://www.w3.org/1999/xlink">
    <!-- Generator: Sketch 48.2 (47327) - http://www.bohemiancoding.com/sketch -->
    <title>openapp</title>
    <desc>Created with Sketch.</desc>
    <defs></defs>
    <g id="Page-1" stroke="none" stroke-width="1" fill="none" fill-rule="evenodd">
        <g id="openapp" fill="#000000" fill-rule="nonzero">
            <path d="M19.0257318,3.99028922 C18.7866433,3.90545136 18.6940929,3.99028922 18.5861174,4.10597721 C16.5654338,5.54050833 14.5524628,6.9904645 12.5472042,8.45584575 C12.022752,8.82604733 11.9533392,8.82604733 11.4365995,8.45584575 L5.5056617,4.17539001 C5.37454864,4.07512708 5.25114812,3.89773883 4.98120947,4.02113935 C5.41311131,4.45304119 5.82187555,4.8540929 6.25377739,5.27056968 C6.68567923,5.68704645 6.66254163,5.68704645 6.30005259,6.15751096 C5.31978966,7.35989483 4.72592463,8.91088519 4.72592463,10.6007011 C4.72592463,11.0673094 4.77142857,11.5223488 4.85703769,11.9635057 L4.85009641,11.918773 C5.49100789,15.3300263 8.44645048,17.8759334 11.9965294,17.8759334 C14.6157055,17.8759334 16.9117266,16.48922 18.1904645,14.4106924 L18.2082033,14.379071 C18.8568273,13.3216827 19.2409115,12.0414023 19.2409115,10.6716564 C19.2409115,8.94790535 18.6331639,7.36683611 17.6197371,6.12974584 L17.6297634,6.14208589 C17.3675372,5.81815951 17.3906748,5.60992112 17.6837511,5.3708326 C18.1465031,4.9466433 18.5784049,4.49160386 19.0257318,4.05198948 L19.0257318,3.99028922 Z M1.07866784,9.22709904 C1.36865907,6.96269939 2.32115688,4.96129711 3.73332165,3.37791411 L3.72406661,3.38871166 C3.89374233,3.17121823 4.1551972,3.03316389 4.44981595,3.03316389 C4.46601227,3.03316389 4.48143734,3.03393514 4.49763365,3.0347064 L4.49531989,3.0347064 C5.86043821,3.0347064 7.23326906,3.09640666 8.59838738,3.0347064 C8.75109553,3.01234005 8.92771253,3 9.1066433,3 C10.0845925,3 10.9746188,3.37714286 11.6394391,3.99337423 L11.6371253,3.99106047 C11.7165644,4.06895706 11.8253111,4.11754601 11.9456266,4.11754601 C12.0659422,4.11754601 12.1746889,4.06895706 12.254128,3.99106047 C12.5549167,3.75968449 12.8788431,3.55915863 13.1719194,3.32778265 C13.4102366,3.15270815 13.7094829,3.0478177 14.0334093,3.0478177 C14.0943383,3.0478177 14.1537248,3.05167397 14.2123401,3.05861525 L14.2053988,3.057844 C15.9561437,3.057844 17.7146012,3.057844 19.4653462,3.057844 C19.4815425,3.05707274 19.5008238,3.05630149 19.5201052,3.05630149 C19.8100964,3.05630149 20.0684663,3.19204207 20.235057,3.40336547 L20.2365995,3.40567923 C21.9510955,5.30296231 23,7.83035933 23,10.6022436 C23,10.9331113 22.9853462,11.260894 22.9560386,11.5840491 L22.9591236,11.5424014 C22.4277301,17.1725504 17.7238563,21.5432428 11.9996144,21.5432428 C6.66177038,21.5432428 2.21086766,17.7432778 1.20592463,12.7000526 L1.19435583,12.6298685 C1.07018405,12.0059246 1,11.2878878 1,10.5544259 C1,10.0870465 1.02853637,9.62660824 1.08406661,9.17465381 L1.07866784,9.22864154 L1.07866784,9.22709904 Z" id="Shape"></path>
        </g>
    </g>
</svg>