<?xml version="1.0" encoding="UTF-8"?>
<svg width="24px" height="24px" viewBox="0 0 24 24" version="1.1" xmlns="http://www.w3.org/2000/svg" xmlns:xlink="http://www.w3.org/1999/xlink">
    <!-- Generator: Sketch 48.2 (47327) - http://www.bohemiancoding.com/sketch -->
    <title>opsgenie</title>
    <desc>Created with Sketch.</desc>
    <defs></defs>
    <g id="Page-1" stroke="none" stroke-width="1" fill="none" fill-rule="evenodd">
        <g id="opsgenie" fill="#000000" fill-rule="nonzero">
            <path d="M12,1 C5.92487702,1 1,5.92487702 1,12 C1,18.075123 5.92487702,23 12,23 C18.075123,23 23,18.075123 23,12 C23,5.92487702 18.075123,1 12,1 Z M15.4167252,5.73085032 C14.77435,4.8186929 13.8482783,4.14385102 12.7691497,3.83000703 L12.734364,3.82150387 C12.8526353,3.79985945 12.9894589,3.78749122 13.1286015,3.78749122 C14.2765285,3.78749122 15.2296557,4.62157414 15.4151792,5.71693605 L15.4167252,5.73085032 Z M14.2803935,9.08573436 C14.8222769,8.38229093 15.2273366,7.54434294 15.4391427,6.63218552 L15.4476458,6.5888967 C15.4530569,6.66001405 15.455376,6.74272663 15.455376,6.82698524 C15.455376,7.99423753 14.8903022,9.02930429 14.0191145,9.67477161 L14.0098384,9.68172874 C14.0137034,9.62143359 14.0160225,9.55186226 14.0160225,9.48151792 C14.0160225,8.29416725 13.3465917,7.26296557 12.36409,6.74504568 L12.3470836,6.73654252 C13.8235418,7.08439916 14.1172874,7.78011244 14.2796205,9.08650738 L14.2803935,9.08573436 Z M15.826423,16.6148981 C15.2265636,16.3033732 14.5293043,16.0706957 13.7933942,15.9547435 L13.7547435,15.9501054 C13.362052,15.87435 12.9098384,15.8310611 12.4483486,15.8310611 C11.9868587,15.8310611 11.5346451,15.87435 11.0971188,15.9570625 L11.1419536,15.9501054 C9.97160928,16.1696416 9.0037948,16.4077301 8.05685172,16.6921996 L8.26633872,16.6380885 C9.43822909,15.9099086 10.8412509,15.4422347 12.3455376,15.3486999 L12.3710471,15.3471539 C13.675123,15.4862966 14.8501054,15.9493324 15.8411103,16.6535488 L15.8186929,16.6380885 L15.826423,16.6148981 Z M11.6753338,3.29585383 C11.8801827,3.0113844 12.0108222,2.6604357 12.0309206,2.28011244 L12.0309206,2.27547435 C12.1499649,2.43703443 12.2210822,2.6395643 12.2210822,2.85910049 C12.2210822,3.07863668 12.1499649,3.28116655 12.0286015,3.44581869 L12.0301476,3.44272663 C11.9590302,3.56718201 11.9165144,3.71637386 11.9165144,3.8756149 C11.9165144,4.03485594 11.9590302,4.18404779 12.0324666,4.31314125 L12.0301476,4.30850316 C12.0301476,4.30850316 11.3035137,3.8601546 11.6745608,3.29585383 L11.6753338,3.29585383 Z M11.4975404,4.94237526 C11.7062544,4.68728039 11.9690794,4.73366128 12.1777934,4.98875615 C12.2690091,5.18896697 12.3223472,5.42241743 12.3223472,5.66900914 C12.3223472,5.91560084 12.2690091,6.1490513 12.1731553,6.36008433 L12.1777934,6.34926212 C12.1097681,6.47449051 11.9799016,6.55797611 11.8299368,6.55797611 C11.6799719,6.55797611 11.5501054,6.47449051 11.4828531,6.35158117 L11.4820801,6.34926212 C11.3630358,6.15214336 11.2926915,5.9132818 11.2926915,5.65818693 C11.2926915,5.39304287 11.36922,5.14567814 11.5014055,4.93619115 L11.4983134,4.94160225 L11.4975404,4.94237526 Z M11.7758257,11.265636 C9.90513001,10.1447646 9.5959241,8.6528461 11.0646521,6.99859452 C10.2684469,8.76106817 10.3998595,9.71960647 11.7758257,11.265636 Z M8.72241743,6.14827829 C8.93422347,5.0173577 9.76985242,4.12529866 10.8505271,3.8338721 L10.8713985,3.82923401 C10.0473647,4.34792691 9.47146873,5.1959241 9.32768798,6.18460998 L9.32536894,6.20238932 C9.30063247,6.39873507 9.28594519,6.62600141 9.28594519,6.85713282 C9.28594519,7.40056219 9.36556571,7.92543921 9.51321152,8.42094167 L9.50316233,8.38229093 C9.57273366,8.60646521 9.63457484,8.83063949 9.69641602,9.05481377 C9.08805341,8.30576247 8.72009838,7.34026704 8.72009838,6.28896697 C8.72009838,6.23949403 8.7208714,6.19002108 8.72241743,6.14132115 L8.72241743,6.14827829 Z M5.01967674,15.354884 C5.01967674,15.926915 5.01967674,16.4989459 5.01967674,17.1096275 C4.60611384,16.5097681 4.32860155,15.7854533 4.24820801,15.0031623 L4.24666198,14.983837 C4.24279691,14.9467323 4.24125088,14.9026704 4.24125088,14.8586086 C4.24125088,14.3105411 4.55432186,13.83591 5.01194659,13.6032326 L5.01967674,13.5993675 C5.43323963,13.3867885 5.91714687,13.2453268 6.42888264,13.205903 L6.44202389,13.20513 C7.3588194,13.1347857 8.20527056,12.8966971 8.97210119,12.522558 L8.93113141,12.5403373 C9.37174982,12.3238932 9.7737175,12.0301476 10.2143359,11.7673226 C10.0558679,12.1174982 9.82241743,12.4081518 9.53176388,12.629234 L9.52635278,12.6330991 C9.07104708,12.9716796 8.53689389,13.2368236 7.96022488,13.3976107 L7.92621223,13.4061138 C7.36191145,13.5684469 6.79761068,13.73078 6.23330991,13.8776528 C5.54455376,14.0330288 5.03591005,14.6321152 5.01967674,15.352565 L5.01967674,15.354111 L5.01967674,15.354884 Z M8.11173577,15.0147576 C8.25938159,14.9969782 8.42944483,14.986929 8.60260014,14.986929 C9.10815179,14.986929 9.59283204,15.0735067 10.0434996,15.2327477 L10.0133521,15.2234715 C9.81391427,15.1863668 9.5851019,15.1647224 9.35087843,15.1647224 C8.27097681,15.1647224 7.2962052,15.6169361 6.60590302,16.3420239 L6.60435699,16.3435699 C6.71412509,15.5883345 7.35727337,15.0139845 8.13492621,15.0139845 L8.11173577,15.0147576 Z M9.03935348,20.0238932 L8.09627547,19.6219255 C9.58587491,19.2903022 10.8969079,18.6896697 12.0394238,17.868728 L12.0077301,17.8903725 C11.3313422,18.9401265 10.2931834,19.7061841 9.07336613,20.016163 L9.03935348,20.0231202 L9.03935348,20.0238932 Z M14.7519325,19.8924807 C13.7207309,19.4951511 12.8820098,18.7886156 12.3293043,17.8880534 L12.3169361,17.867182 C13.3906535,18.6695713 14.6630358,19.2748419 16.0428672,19.6002811 L16.1124385,19.6141954 C15.6563598,19.8306395 15.2930429,20.0857344 14.7828531,19.8924807 L14.7519325,19.8924807 Z M18.8566409,17.0864371 C18.9424455,16.8475755 18.9919185,16.5723823 18.9919185,16.2855938 C18.9919185,16.2384399 18.9903725,16.191286 18.9880534,16.1449051 L18.9880534,16.1510892 C18.9780042,15.6795502 18.9308503,15.2265636 18.8489108,14.7851722 L18.8566409,14.8369642 C18.7646521,14.408714 18.443078,14.0747716 18.0295151,13.9650035 L18.021785,13.9634575 C17.449754,13.7856641 16.869993,13.623331 16.3056922,13.4378074 C15.7444835,13.2708363 15.2899508,13.1054111 14.8477864,12.9167955 L14.9374561,12.9508082 C14.4821504,12.7498243 14.1141954,12.421293 13.8691497,12.0108222 L13.8629656,12 C13.8366831,11.9528461 13.8080815,11.894097 13.782572,11.8345748 L13.7779339,11.8222066 C13.7779339,11.8222066 13.7779339,11.7758257 13.7779339,11.737175 C14.8021785,12.5797611 16.1008433,13.1231904 17.5224174,13.2205903 L17.5425158,13.2213633 C18.0032326,13.2723823 18.4237526,13.3836964 18.8172171,13.5491216 L18.7870696,13.5382994 C19.3498243,13.7338721 19.7463809,14.2595221 19.7463809,14.8779339 C19.7463809,14.9699227 19.7378777,15.0603654 19.7208714,15.1477161 L19.7224174,15.1384399 C19.6087843,15.8843992 19.3127196,16.5453268 18.8806044,17.0957133 L18.8875615,17.0864371 L18.8566409,17.0864371 Z" id="Shape"></path>
        </g>
    </g>
</svg>