<?xml version="1.0" encoding="UTF-8"?>
<svg width="24px" height="24px" viewBox="0 0 24 24" version="1.1" xmlns="http://www.w3.org/2000/svg" xmlns:xlink="http://www.w3.org/1999/xlink">
    <!-- Generator: Sketch 48.2 (47327) - http://www.bohemiancoding.com/sketch -->
    <title>orchestrator</title>
    <desc>Created with Sketch.</desc>
    <defs></defs>
    <g id="Page-1" stroke="none" stroke-width="1" fill="none" fill-rule="evenodd">
        <g id="orchestrator" fill="#000000" fill-rule="nonzero">
            <path d="M20.4499473,1 C19.0489638,1.00463646 17.9153495,2.14056902 17.9153495,3.54232525 C17.9153495,4.94639972 19.0536003,6.08465051 20.4576747,6.08465051 C21.8617492,6.08465051 23,4.94639972 23,3.54232525 C23,3.54232525 23,3.54232525 23,3.54232525 C23,2.13825079 21.8617492,1 20.4576747,1 C20.4553565,1 20.4522655,1 20.4491746,1 L20.4499473,1 Z M10.6592905,7.66104672 C7.69736565,7.66104672 5.29645241,10.06196 5.29645241,13.0238848 C5.29645241,15.9858096 7.69736565,18.3867229 10.6592905,18.3867229 C13.6212153,18.3867229 16.0221286,15.9858096 16.0221286,13.0238848 C16.0221286,10.06196 13.6212153,7.66104672 10.6592905,7.66104672 Z M20.318581,13.0238848 C20.318581,13.026203 20.318581,13.0285213 20.318581,13.0316122 C20.318581,18.3666315 15.9943098,22.6909027 10.6592905,22.6909027 C5.32427116,22.6909027 1,18.3666315 1,13.0316122 C1,7.6965929 5.32427116,3.37232174 10.6592905,3.37232174 C15.9912188,3.37232174 20.3139445,7.69272919 20.318581,13.023112 L20.318581,13.0238848 Z" id="Shape"></path>
        </g>
    </g>
</svg>