<svg xmlns="http://www.w3.org/2000/svg" width="64" height="64" viewBox="0 0 64 64">
  <title>papertrail</title>
  <path d="M2.67,23.1A63.82,63.82,0,0,1,27.51,12.3l.41-.07A61.22,61.22,0,0,1,40.06,11h0v.14h0l-4.25,4h1.6a80.44,80.44,0,0,0,12-1.81l-.54.11a25.57,25.57,0,0,0,9.23-3.69l-.1,0A24.76,24.76,0,0,0,60.1,8a4.41,4.41,0,0,1-.22.85v0A22.87,22.87,0,0,1,54,18.58h0a32.89,32.89,0,0,1-6.59,4.59l-.18.08a74.28,74.28,0,0,1-13.81,5.79l-.55.14c-3.24,1-6.57,1.81-9.85,2.67l-.17,0a.93.93,0,0,1-.55-.18h0a31.8,31.8,0,0,0-8.37-5.46l-.2-.08A32.79,32.79,0,0,0,2.82,23.21H2.69Zm23.86,13a31.21,31.21,0,0,0-2.07-2.48l0,0A104,104,0,0,1,55.36,29.1q3,0,6,.17h-.27a1.67,1.67,0,0,0-.92.18c-2.53.82-5.11,1.54-7.6,2.5a167.54,167.54,0,0,0-20.85,10.2l.81-.43c-.41.23-.86.39-1.25.64s-.66.22-1-.25q-1.8-3-3.75-5.89Zm7.84,18.46h-.19a33.78,33.78,0,0,0-2.4-9.41l.08.22L51,37.22a.16.16,0,0,0,.12.14C45.57,43.1,40.07,48.85,34.37,54.61Z"/>
</svg>
