<?xml version="1.0" encoding="UTF-8"?>
<svg width="24px" height="24px" viewBox="0 0 24 24" version="1.1" xmlns="http://www.w3.org/2000/svg" xmlns:xlink="http://www.w3.org/1999/xlink">
    <!-- Generator: Sketch 48.2 (47327) - http://www.bohemiancoding.com/sketch -->
    <title>papertrail</title>
    <desc>Created with Sketch.</desc>
    <defs></defs>
    <g id="Page-1" stroke="none" stroke-width="1" fill="none" fill-rule="evenodd">
        <g id="papertrail" fill="#000000" fill-rule="nonzero">
            <path d="M12.8871092,20.4805903 L12.8178639,20.4805903 C12.6786039,19.2057075 12.3716164,18.0393089 11.917675,16.9498496 L11.9484507,17.0337134 L19.1268798,13.9561446 C19.1268798,13.9561446 19.1268798,13.9946143 19.1730433,14.0100021 C17.0879905,16.1643002 15.0260194,18.3185983 12.8871092,20.4805903 Z M9.94803106,13.5560607 C9.69182346,13.2136812 9.43946282,12.9128488 9.17248374,12.6258656 L9.17863888,12.6327901 C12.6439813,11.541792 16.6294327,10.913968 20.7610688,10.913968 C21.5127649,10.913968 22.2590753,10.9347416 23,10.9755193 L22.8969014,10.970903 C22.7814926,10.970903 22.6660838,10.970903 22.550675,11.0401483 C21.6043226,11.3479052 20.6348884,11.6171924 19.7039239,11.9788067 C16.7286843,13.1982933 14.2573967,14.4262433 11.8830524,15.8034553 L12.1869623,15.6411135 C12.0330839,15.7257467 11.8638176,15.787298 11.7176331,15.8796251 C11.5714486,15.9719522 11.4714276,15.9642582 11.3560187,15.787298 C10.904642,15.038423 10.4353128,14.3023711 9.94803106,13.5791425 L9.94803106,13.5560607 Z M1,8.66272645 C3.68056236,6.72539694 6.86661537,5.3020214 10.3165699,4.61110723 L10.4712177,4.58494789 C11.8376582,4.298734 13.4095265,4.1310065 15.0206337,4.12331258 L15.0260194,4.12331258 C15.0244807,4.1317759 15.0244807,4.1410086 15.0244807,4.15024131 C15.0244807,4.15947402 15.0252501,4.16870672 15.0267888,4.17793943 L15.0267888,4.17717004 L13.434147,5.66209694 C13.6803525,5.66209694 13.8573127,5.66209694 14.0342729,5.66209694 C15.6399944,5.53976359 17.1118416,5.31356229 18.5444499,4.98426243 L18.3428691,5.02350143 C19.6369868,4.77575715 20.7872281,4.30104218 21.8035952,3.6393649 L21.7666643,3.66167727 C22.0359516,3.46932923 22.2667693,3.23851158 22.5360565,3 C22.5191299,3.11540883 22.4922012,3.21927677 22.4552703,3.31852836 L22.4591173,3.30775687 C22.0174862,4.7511366 21.2488634,5.98447227 20.2378821,6.96852487 L20.2355739,6.97006365 C19.4969574,7.63481849 18.6629363,8.21801777 17.7635168,8.69196335 L17.6965797,8.72427782 C16.1647199,9.56599287 14.3804994,10.321536 12.5162622,10.8939638 L12.3108344,10.9478212 C11.0951948,11.3248234 9.84877946,11.6248863 8.61775198,11.9480311 C8.59774778,11.951878 8.57543541,11.9541862 8.55235364,11.9541862 C8.47541442,11.9541862 8.40463034,11.9287963 8.34769532,11.8857103 L8.34846471,11.8864797 C7.42904106,11.0563055 6.36727985,10.3592362 5.20857523,9.83989648 L5.1324054,9.80912079 C3.92907603,9.2382318 2.53109044,8.844303 1.0592432,8.70504302 L1.00846331,8.70119606 L1,8.66272645 Z" id="Shape"></path>
        </g>
    </g>
</svg>