<?xml version="1.0" encoding="UTF-8"?>
<svg width="24px" height="24px" viewBox="0 0 24 24" version="1.1" xmlns="http://www.w3.org/2000/svg" xmlns:xlink="http://www.w3.org/1999/xlink">
    <!-- Generator: Sketch 48.2 (47327) - http://www.bohemiancoding.com/sketch -->
    <title>particles</title>
    <desc>Created with Sketch.</desc>
    <defs></defs>
    <g id="Page-1" stroke="none" stroke-width="1" fill="none" fill-rule="evenodd">
        <g id="particles" fill="#000000">
            <path d="M17.4441057,9.61223605 C17.6341463,9.70471572 17.8617886,9.62747995 17.9542683,9.43845556 C18.0477642,9.24943117 17.9695122,9.02077263 17.7804878,8.92829296 C17.5914634,8.83479702 17.3628049,8.91406532 17.2703252,9.10207345 C17.1768293,9.29109784 17.2550813,9.51975637 17.4441057,9.61223605 Z M17.8892276,7.28804906 C18.1026423,7.39272385 18.3617886,7.30430922 18.4674797,7.09089458 C18.5721545,6.87646369 18.4837398,6.61731735 18.2693089,6.51264255 C18.0569106,6.40695149 17.7977642,6.49536613 17.6920732,6.70979702 C17.5873984,6.92321166 17.675813,7.182358 17.8892276,7.28804906 Z M17.8333333,4.95674824 C18.0721545,5.07361816 18.3617886,4.97504093 18.4796748,4.73621979 C18.5965447,4.49638239 18.4979675,4.2077645 18.2591463,4.08987832 C18.0193089,3.97199214 17.7296748,4.07056938 17.6128049,4.31040678 C17.4949187,4.55024418 17.5934959,4.83886206 17.8333333,4.95674824 Z M16.5640244,3.01264255 C16.8292683,3.14272385 17.148374,3.03296775 17.277439,2.76874011 C17.4075203,2.50451247 17.2977642,2.18439052 17.0345528,2.05430922 C16.7693089,1.92524418 16.449187,2.03398401 16.320122,2.29821166 C16.1900407,2.5624393 16.2987805,2.88256125 16.5640244,3.01264255 Z M14.2560976,3.26365881 C14.5457317,3.40593523 14.8963415,3.28601653 15.0386179,2.99739865 C15.179878,2.7077645 15.0609756,2.35715475 14.7713415,2.21487832 C14.4817073,2.0726019 14.1310976,2.1925206 13.9898374,2.48215475 C13.847561,2.77178889 13.9664634,3.12138239 14.2560976,3.26365881 Z M12.3577236,4.76061003 C12.6727642,4.91406532 13.0528455,4.78500027 13.2073171,4.46995962 C13.3617886,4.15491897 13.2317073,3.77382141 12.9176829,3.62036613 C12.601626,3.46487832 12.2215447,3.59495962 12.0670732,3.91000027 C11.9126016,4.22504093 12.0426829,4.60512223 12.3577236,4.76061003 Z M10.6981707,6.61121979 C11.0386179,6.77788645 11.4502033,6.63764255 11.6168699,6.2971954 C11.7835366,5.9577645 11.6432927,5.5471954 11.3028455,5.37951247 C10.9634146,5.2128458 10.5518293,5.35308971 10.3851626,5.69353686 C10.2184959,6.03296775 10.3577236,6.44455312 10.6981707,6.61121979 Z M15.652439,13.5990247 C15.578252,13.7504474 15.6412602,13.9333743 15.7916667,14.0075613 C15.9420732,14.0817482 16.125,14.0187401 16.199187,13.8673173 C16.2743902,13.7169108 16.2113821,13.533984 16.0609756,13.459797 C15.9095528,13.38561 15.726626,13.4476019 15.652439,13.5990247 Z M14.6280488,15.6274799 C14.5477642,15.7921141 14.6158537,15.9892686 14.7794715,16.0695531 C14.9430894,16.1508539 15.1402439,16.0827645 15.2205285,15.9191466 C15.3018293,15.7555287 15.2337398,15.557358 15.070122,15.4770734 C14.9065041,15.3967889 14.7093496,15.4638621 14.6280488,15.6274799 Z M13.0599593,17.6793092 C12.9674797,17.8693499 13.0447154,18.0969921 13.2337398,18.1894718 C13.4227642,18.2829678 13.6514228,18.2047157 13.7439024,18.0156913 C13.8363821,17.8266669 13.7581301,17.5980084 13.5691057,17.5055287 C13.3810976,17.4130491 13.152439,17.4902848 13.0599593,17.6793092 Z M11.2560976,19.4811385 C11.1514228,19.6945531 11.2398374,19.9536995 11.453252,20.0593905 C11.6676829,20.1640653 11.925813,20.0756507 12.0315041,19.8612198 C12.1361789,19.6478052 12.0477642,19.3886588 11.8333333,19.283984 C11.620935,19.178293 11.3617886,19.2667076 11.2560976,19.4811385 Z M9.47764228,20.881545 C9.36077236,21.1213824 9.45934959,21.4100003 9.69918699,21.5278865 C9.93800813,21.6447564 10.226626,21.5461791 10.3455285,21.307358 C10.4623984,21.0675206 10.3628049,20.7778865 10.1239837,20.6610165 C9.8851626,20.5431304 9.59552846,20.6427239 9.47764228,20.881545 Z M7.09552846,21.0888621 C6.96544715,21.354106 7.07520325,21.6732117 7.33943089,21.803293 C7.60365854,21.9333743 7.92378049,21.8246344 8.05386179,21.5593905 C8.18394309,21.2951629 8.07418699,20.9750409 7.80995935,20.8459759 C7.54573171,20.7158946 7.22560976,20.8246344 7.09552846,21.0888621 Z M5.81605691,19.1335775 C5.67276423,19.4232117 5.79268293,19.7738214 6.08231707,19.9150816 C6.37195122,20.057358 6.72154472,19.9384556 6.8648374,19.6478052 C7.00609756,19.358171 6.88617886,19.0085775 6.59756098,18.8663011 C6.30792683,18.7240247 5.95731707,18.8429271 5.81605691,19.1335775 Z M5.76930894,16.7392686 C5.6148374,17.0543092 5.7449187,17.4343905 6.05995935,17.5898783 C6.37398374,17.7433336 6.7550813,17.6142686 6.90955285,17.2992279 C7.06402439,16.9841873 6.93394309,16.6030897 6.6199187,16.4496344 C6.30487805,16.2941466 5.92378049,16.4242279 5.76930894,16.7392686 Z M6.15142276,14.3175206 C5.9847561,14.6579678 6.12398374,15.0695531 6.46443089,15.2362198 C6.80487805,15.4028865 7.21646341,15.2626426 7.38313008,14.9221954 C7.54979675,14.5827645 7.40955285,14.1711791 7.06910569,14.0045125 C6.72865854,13.8378458 6.31808943,13.9780897 6.15142276,14.3175206 Z M6.86585366,11.834797 C6.68597561,12.1996344 6.83638211,12.6417076 7.20223577,12.8205694 C7.56707317,13.0004474 8.00914634,12.8500409 8.18902439,12.4841873 C8.36686992,12.1193499 8.21646341,11.6772767 7.85162602,11.4984149 C7.48577236,11.3185369 7.04471545,11.4699596 6.86585366,11.834797 Z M7.7754065,9.76365881 C7.58536585,10.1518702 7.7449187,10.6213824 8.13414634,10.8124393 C8.52235772,11.0024799 8.99186992,10.8419108 9.18191057,10.4547157 C9.37296748,10.0654881 9.21239837,9.59597588 8.82418699,9.40593523 C8.43597561,9.21487832 7.96646341,9.37544743 7.7754065,9.76365881 Z M9.05792683,15.4841873 C8.89837398,15.5736182 8.84146341,15.7738214 8.92987805,15.9343905 C9.01829268,16.0929271 9.2195122,16.1508539 9.37804878,16.0624393 C9.53861789,15.9740247 9.59552846,15.7728052 9.50711382,15.6132523 C9.41869919,15.4536995 9.21747967,15.3957726 9.05792683,15.4841873 Z M10.7154472,17.5715856 C10.5304878,17.6732117 10.4644309,17.904919 10.5660569,18.0888621 C10.6686992,18.2728052 10.9014228,18.3398783 11.0853659,18.237236 C11.2693089,18.13561 11.3353659,17.9028865 11.2337398,17.7189434 C11.1310976,17.5350003 10.8993902,17.4689434 10.7154472,17.5715856 Z M12.5,19.2941466 C12.2916667,19.4100003 12.2154472,19.6721954 12.3323171,19.8805287 C12.4481707,20.0898783 12.7113821,20.1650816 12.9197154,20.0492279 C13.1280488,19.9333743 13.203252,19.6701629 13.0873984,19.4618295 C12.9715447,19.2534962 12.7083333,19.178293 12.5,19.2941466 Z M14.3160569,20.5471954 C14.0823171,20.6772767 13.9989837,20.9709759 14.1280488,21.2036995 C14.2581301,21.436423 14.5518293,21.5207726 14.7855691,21.3917076 C15.0172764,21.2616263 15.101626,20.9679271 14.972561,20.7352035 C14.8424797,20.5014637 14.5487805,20.4181304 14.3160569,20.5471954 Z M16.6371951,20.6142686 C16.379065,20.7575613 16.2865854,21.0827645 16.429878,21.3398783 C16.5731707,21.5969921 16.8973577,21.6904881 17.1554878,21.5471954 C17.4126016,21.4039027 17.5060976,21.0797157 17.3628049,20.8215856 C17.2184959,20.5634556 16.8943089,20.4709759 16.6371951,20.6142686 Z M17.7479675,18.5756507 C17.4654472,18.733171 17.3638211,19.0888621 17.5203252,19.3713824 C17.6768293,19.6528865 18.0325203,19.7545125 18.3140244,19.5980084 C18.597561,19.4404881 18.6981707,19.084797 18.5416667,18.803293 C18.3851626,18.5207726 18.0294715,18.4191466 17.7479675,18.5756507 Z M17.6026423,16.1630491 C17.2957317,16.3337808 17.1849593,16.7199596 17.3556911,17.0268702 C17.5264228,17.3337808 17.9126016,17.4445531 18.2195122,17.2738214 C18.5254065,17.1030897 18.6371951,16.7169108 18.4664634,16.4100003 C18.2957317,16.1030897 17.9095528,15.9923173 17.6026423,16.1630491 Z M17.0294715,13.7443499 C16.6981707,13.928293 16.578252,14.3459759 16.7632114,14.6772767 C16.9471545,15.0085775 17.3648374,15.1274799 17.695122,14.9435369 C18.0264228,14.7595938 18.1453252,14.3419108 17.9623984,14.01061 C17.7784553,13.6793092 17.3607724,13.5604068 17.0294715,13.7443499 Z M16.120935,11.2809352 C15.7652439,11.4780897 15.6371951,11.9272767 15.8343496,12.2829678 C16.0315041,12.6386588 16.4806911,12.7667076 16.8363821,12.5695531 C17.1920732,12.3713824 17.320122,11.9232117 17.1229675,11.5675206 C16.9247967,11.2118295 16.476626,11.0837808 16.120935,11.2809352 Z M8.46341463,13.8246344 C8.38211382,13.6772767 8.19613821,13.6234149 8.04878049,13.705732 C7.90142276,13.7870328 7.8495935,13.9730084 7.93089431,14.1203661 C8.01321138,14.2677239 8.19817073,14.3205694 8.34552846,14.2382523 C8.49186992,14.1569515 8.54573171,13.9709759 8.46341463,13.8246344 Z M6.59247967,9.36630109 C6.49085366,9.182358 6.25813008,9.11630109 6.07418699,9.2179271 C5.8902439,9.32056938 5.82418699,9.5522767 5.92682927,9.73621979 C6.02947154,9.92016288 6.2601626,9.98621979 6.44512195,9.88459377 C6.62804878,9.78195149 6.69512195,9.55024418 6.59247967,9.36630109 Z M6.04979675,6.99841491 C5.93495935,6.79008158 5.67174797,6.71386206 5.46341463,6.83073198 C5.25406504,6.94556938 5.17987805,7.20878076 5.29471545,7.4171141 C5.41056911,7.62544743 5.67378049,7.70166694 5.88211382,7.58479702 C6.09044715,7.46995962 6.16565041,7.20674824 6.04979675,6.99841491 Z M6.00813008,4.5980084 C5.87804878,4.36426857 5.58434959,4.28093523 5.35162602,4.41000027 C5.11788618,4.54008158 5.03455285,4.83378076 5.16361789,5.06650434 C5.29369919,5.30024418 5.58739837,5.38357751 5.82012195,5.25451247 C6.05284553,5.12443117 6.13719512,4.83073198 6.00813008,4.5980084 Z M7.19715447,2.52280515 C7.05284553,2.26569133 6.72865854,2.1721954 6.47154472,2.31548808 C6.21341463,2.45878076 6.1199187,2.78398401 6.26422764,3.04109784 C6.40752033,3.29922792 6.73170732,3.39170759 6.9898374,3.24841491 C7.24695122,3.10512223 7.34044715,2.78093523 7.19715447,2.52280515 Z M9.53353659,2.5878458 C9.37703252,2.30634174 9.02134146,2.20369946 8.7398374,2.36121979 C8.45630081,2.51772385 8.35569106,2.87341491 8.51219512,3.15491897 C8.66869919,3.4374393 9.02439024,3.53906532 9.30691057,3.38256125 C9.58943089,3.22605719 9.69004065,2.87036613 9.53353659,2.5878458 Z M11.5264228,3.9171141 C11.3556911,3.61020353 10.9684959,3.49943117 10.6615854,3.67016288 C10.3546748,3.83987832 10.2449187,4.22707345 10.4156504,4.53296775 C10.5853659,4.83987832 10.972561,4.95065068 11.2794715,4.77991897 C11.5853659,4.61020353 11.6961382,4.2230084 11.5264228,3.9171141 Z M13.2957317,5.61223605 C13.1117886,5.28093523 12.6941057,5.16203279 12.3638211,5.34597588 C12.0325203,5.52890271 11.9136179,5.9476019 12.0965447,6.27788645 C12.2804878,6.60918727 12.6981707,6.72910597 13.0294715,6.54414662 C13.3607724,6.36121979 13.4806911,5.94353686 13.2957317,5.61223605 Z M16.1087398,9.54516288 C15.898374,9.1671141 15.421748,9.03093523 15.0436992,9.24028483 C14.6656504,9.45065068 14.5294715,9.92829296 14.7388211,10.3063417 C14.949187,10.6843905 15.4268293,10.8205694 15.804878,10.6102035 C16.1829268,10.3998377 16.3191057,9.92321166 16.1087398,9.54516288 Z M13.9136179,16.1925206 C13.9136179,16.3744312 14.0619919,16.5217889 14.2449187,16.5217889 C14.4268293,16.5217889 14.5752033,16.3744312 14.5752033,16.1925206 C14.5752033,16.0095938 14.4268293,15.8612198 14.2449187,15.8612198 C14.0619919,15.8612198 13.9136179,16.0095938 13.9136179,16.1925206 Z M16.3973577,15.7392686 C16.3973577,15.9496344 16.5670732,16.1203661 16.7784553,16.1203661 C16.9888211,16.1203661 17.1595528,15.9496344 17.1595528,15.7392686 C17.1595528,15.5289027 16.9888211,15.358171 16.7784553,15.358171 C16.5670732,15.358171 16.3973577,15.5289027 16.3973577,15.7392686 Z M18.679878,15.1142686 C18.679878,15.3520734 18.8719512,15.5461791 19.1117886,15.5461791 C19.3495935,15.5461791 19.5426829,15.3520734 19.5426829,15.1142686 C19.5426829,14.8754474 19.3495935,14.682358 19.1117886,14.682358 C18.8719512,14.682358 18.679878,14.8754474 18.679878,15.1142686 Z M20.7469512,14.0370328 C20.7469512,14.303293 20.9634146,14.5187401 21.2306911,14.5187401 C21.495935,14.5187401 21.7123984,14.303293 21.7123984,14.0370328 C21.7123984,13.7697564 21.495935,13.553293 21.2306911,13.553293 C20.9634146,13.553293 20.7469512,13.7697564 20.7469512,14.0370328 Z M21.9329268,12.0400816 C21.9329268,12.334797 22.171748,12.5736182 22.4664634,12.5736182 C22.7601626,12.5736182 23,12.334797 23,12.0400816 C23,11.7453661 22.7601626,11.506545 22.4664634,11.506545 C22.171748,11.506545 21.9329268,11.7453661 21.9329268,12.0400816 Z M20.6900407,10.0797157 C20.6900407,10.4018702 20.9522358,10.6640653 21.2754065,10.6640653 C21.597561,10.6640653 21.8597561,10.4018702 21.8597561,10.0797157 C21.8597561,9.75654499 21.597561,9.49536613 21.2754065,9.49536613 C20.9522358,9.49536613 20.6900407,9.75654499 20.6900407,10.0797157 Z M18.5111789,9.03398401 C18.5111789,9.38459377 18.7947154,9.66914662 19.1463415,9.66914662 C19.4969512,9.66914662 19.7815041,9.38459377 19.7815041,9.03398401 C19.7815041,8.68337426 19.4969512,8.39882141 19.1463415,8.39882141 C18.7947154,8.39882141 18.5111789,8.68337426 18.5111789,9.03398401 Z M16.1178862,8.36121979 C16.1178862,8.73926857 16.4247967,9.04617914 16.8038618,9.04617914 C17.1829268,9.04617914 17.4898374,8.73926857 17.4898374,8.36121979 C17.4898374,7.98215475 17.1829268,7.67524418 16.8038618,7.67524418 C16.4247967,7.67524418 16.1178862,7.98215475 16.1178862,8.36121979 Z M13.5243902,7.95878076 C13.5243902,8.36528483 13.8536585,8.69556938 14.2601626,8.69556938 C14.6676829,8.69556938 14.9969512,8.36528483 14.9969512,7.95878076 C14.9969512,7.55126044 14.6676829,7.22199214 14.2601626,7.22199214 C13.8536585,7.22199214 13.5243902,7.55126044 13.5243902,7.95878076 Z M12.027439,15.8866263 C11.8597561,15.8866263 11.722561,16.0238214 11.722561,16.1925206 C11.722561,16.3602035 11.8597561,16.4963824 12.027439,16.4963824 C12.1961382,16.4963824 12.3333333,16.3602035 12.3333333,16.1925206 C12.3333333,16.0238214 12.1961382,15.8866263 12.027439,15.8866263 Z M9.91158537,15.9455694 C9.72865854,15.9455694 9.58130081,16.0929271 9.58130081,16.2758539 C9.58130081,16.4577645 9.72865854,16.6061385 9.91158537,16.6061385 C10.0945122,16.6061385 10.2418699,16.4577645 10.2418699,16.2758539 C10.2418699,16.0929271 10.0945122,15.9455694 9.91158537,15.9455694 Z M7.22154472,15.358171 C7.01117886,15.358171 6.84044715,15.5289027 6.84044715,15.7392686 C6.84044715,15.9496344 7.01117886,16.1203661 7.22154472,16.1203661 C7.43191057,16.1203661 7.60264228,15.9496344 7.60264228,15.7392686 C7.60264228,15.5289027 7.43191057,15.358171 7.22154472,15.358171 Z M4.88922764,14.682358 C4.6504065,14.682358 4.45731707,14.8754474 4.45731707,15.1142686 C4.45731707,15.3520734 4.6504065,15.5461791 4.88922764,15.5461791 C5.12703252,15.5461791 5.32012195,15.3520734 5.32012195,15.1142686 C5.32012195,14.8754474 5.12703252,14.682358 4.88922764,14.682358 Z M2.7703252,13.553293 C2.50406504,13.553293 2.28760163,13.7697564 2.28760163,14.0370328 C2.28760163,14.303293 2.50406504,14.5187401 2.7703252,14.5187401 C3.03658537,14.5187401 3.25304878,14.303293 3.25304878,14.0370328 C3.25304878,13.7697564 3.03658537,13.553293 2.7703252,13.553293 Z M1.53353659,11.506545 C1.23882114,11.506545 1,11.7453661 1,12.0400816 C1,12.334797 1.23882114,12.5736182 1.53353659,12.5736182 C1.82825203,12.5736182 2.06707317,12.334797 2.06707317,12.0400816 C2.06707317,11.7453661 1.82825203,11.506545 1.53353659,11.506545 Z M2.72560976,9.49536613 C2.40243902,9.49536613 2.1402439,9.75654499 2.1402439,10.0797157 C2.1402439,10.4018702 2.40243902,10.6640653 2.72560976,10.6640653 C3.04776423,10.6640653 3.30995935,10.4018702 3.30995935,10.0797157 C3.30995935,9.75654499 3.04776423,9.49536613 2.72560976,9.49536613 Z M4.85365854,8.39882141 C4.50406504,8.39882141 4.21849593,8.68337426 4.21849593,9.03398401 C4.21849593,9.38459377 4.50406504,9.66914662 4.85365854,9.66914662 C5.20528455,9.66914662 5.48882114,9.38459377 5.48882114,9.03398401 C5.48882114,8.68337426 5.20528455,8.39882141 4.85365854,8.39882141 Z M7.19613821,7.67524418 C6.81707317,7.67524418 6.5101626,7.98215475 6.5101626,8.36121979 C6.5101626,8.73926857 6.81707317,9.04617914 7.19613821,9.04617914 C7.57520325,9.04617914 7.88211382,8.73926857 7.88211382,8.36121979 C7.88211382,7.98215475 7.57520325,7.67524418 7.19613821,7.67524418 Z M9.7398374,7.22199214 C9.33333333,7.22199214 9.00203252,7.55126044 9.00203252,7.95878076 C9.00203252,8.36528483 9.33333333,8.69556938 9.7398374,8.69556938 C10.1463415,8.69556938 10.476626,8.36528483 10.476626,7.95878076 C10.476626,7.55126044 10.1463415,7.22199214 9.7398374,7.22199214 Z M12,7.12646369 C11.5680894,7.12646369 11.2164634,7.47707345 11.2164634,7.91000027 C11.2164634,8.34191084 11.5680894,8.6925206 12,8.6925206 C12.4319106,8.6925206 12.7835366,8.34191084 12.7835366,7.91000027 C12.7835366,7.47707345 12.4319106,7.12646369 12,7.12646369 Z M12.0365854,10.0908946 C13.1148374,10.0959759 13.9888211,10.9689434 13.9928862,12.0482117 L13.9928862,12.0471954 L13.9928862,12.0563417 C13.9928862,13.1417076 13.1128049,14.0207726 12.0284553,14.0207726 C10.9430894,14.0207726 10.0619919,13.1417076 10.0619919,12.0563417 C10.0619919,10.9709759 10.9430894,10.0908946 12.0284553,10.0908946 L12.0365854,10.0908946 Z" id="Fill-1"></path>
        </g>
    </g>
</svg>