<svg xmlns="http://www.w3.org/2000/svg" width="64" height="64" viewBox="0 0 64 64">
  <title>particles-alt</title>
  <path d="M32.1,26.91a5.23,5.23,0,0,1,5.21,5.22h0v0a5.24,5.24,0,1,1-5.23-5.24ZM32,19a2.09,2.09,0,1,0,2.09,2.09A2.1,2.1,0,0,0,32,19Zm-6,.26a2,2,0,1,0,2,2A2,2,0,0,0,26,19.26Zm-6.78,1.21A1.83,1.83,0,1,0,21,22.3,1.83,1.83,0,0,0,19.19,20.47ZM12.94,22.4a1.69,1.69,0,1,0,1.7,1.69A1.69,1.69,0,0,0,12.94,22.4ZM7.27,25.32a1.56,1.56,0,1,0,1.56,1.56A1.56,1.56,0,0,0,7.27,25.32ZM4.09,30.68a1.43,1.43,0,1,0,1.42,1.43A1.42,1.42,0,0,0,4.09,30.68Zm3.3,5.46a1.29,1.29,0,1,0,1.28,1.29A1.29,1.29,0,0,0,7.39,36.14Zm5.65,3a1.16,1.16,0,1,0,1.15,1.15A1.15,1.15,0,0,0,13,39.15ZM19.26,41a1,1,0,1,0,1,1A1,1,0,0,0,19.26,41Zm7.17,1.56a.88.88,0,1,0,.88.88A.87.87,0,0,0,26.43,42.52Zm5.64-.16a.82.82,0,0,0-.81.82.82.82,0,0,0,1.63,0A.82.82,0,0,0,32.07,42.36Zm4-21.14a2,2,0,1,0,2-2A2,2,0,0,0,36.07,21.22ZM43,22.3a1.83,1.83,0,1,0,1.83-1.83A1.83,1.83,0,0,0,43,22.3Zm6.38,1.79a1.7,1.7,0,1,0,1.7-1.69A1.69,1.69,0,0,0,49.36,24.09Zm5.81,2.79a1.56,1.56,0,1,0,1.56-1.56A1.56,1.56,0,0,0,55.17,26.88Zm3.32,5.23a1.42,1.42,0,1,0,1.42-1.43A1.42,1.42,0,0,0,58.49,32.11Zm-3.16,5.32a1.29,1.29,0,1,0,1.29-1.29A1.29,1.29,0,0,0,55.33,37.43ZM49.81,40.3A1.15,1.15,0,1,0,51,39.15,1.16,1.16,0,0,0,49.81,40.3ZM43.73,42a1,1,0,1,0,1-1A1,1,0,0,0,43.73,42ZM37.1,43.18A.89.89,0,1,0,38,42.3.88.88,0,0,0,37.1,43.18ZM43,25.45a2.09,2.09,0,1,0-.81,2.84A2.1,2.1,0,0,0,43,25.45ZM35.46,15a1.83,1.83,0,1,0-.71,2.48A1.83,1.83,0,0,0,35.46,15Zm-4.72-4.52a1.7,1.7,0,0,0-2.31-.66,1.69,1.69,0,0,0,1.65,3A1.7,1.7,0,0,0,30.74,10.45ZM25.42,6.9A1.56,1.56,0,1,0,24.82,9,1.54,1.54,0,0,0,25.42,6.9Zm-6.23-.17a1.42,1.42,0,1,0-.55,1.93A1.42,1.42,0,0,0,19.19,6.73ZM16,12.26a1.29,1.29,0,1,0-.5,1.75A1.29,1.29,0,0,0,16,12.26Zm.11,6.4a1.15,1.15,0,0,0-2,1.12,1.15,1.15,0,1,0,2-1.12ZM17.58,25a1,1,0,0,0-1.78,1,1,1,0,1,0,1.78-1Zm5,11.89a.81.81,0,1,0-1.42.78.81.81,0,0,0,1.42-.78ZM43,30.08a2,2,0,1,0,2.67.77A2,2,0,0,0,43,30.08Zm2.42,6.57a1.83,1.83,0,1,0,2.49.71A1.84,1.84,0,0,0,45.41,36.65Zm1.53,6.45a1.69,1.69,0,1,0,2.3.66A1.7,1.7,0,0,0,46.94,43.1Zm.39,6.44a1.56,1.56,0,1,0,2.11.6A1.55,1.55,0,0,0,47.33,49.54Zm-3,5.43a1.42,1.42,0,1,0,1.93.55A1.43,1.43,0,0,0,44.37,55Zm-6.19-.18a1.29,1.29,0,1,0,1.75.5A1.29,1.29,0,0,0,38.18,54.79Zm-4.85-3.34a1.15,1.15,0,1,0,1.57.45A1.15,1.15,0,0,0,33.33,51.45Zm-4.76-4.59a1,1,0,1,0,1.39.39A1,1,0,0,0,28.57,46.86Zm-4.42-5.57A.88.88,0,0,0,25,42.83a.86.86,0,0,0,.34-1.19A.88.88,0,0,0,24.15,41.29ZM20.73,26a2.09,2.09,0,1,0,2.8-1A2.09,2.09,0,0,0,20.73,26Zm-2.42,5.52a2,2,0,1,0,2.63-.9A2,2,0,0,0,18.31,31.56ZM16.4,38.18a1.83,1.83,0,1,0,2.45-.83A1.83,1.83,0,0,0,16.4,38.18Zm-1,6.46a1.7,1.7,0,0,0,3,1.49,1.7,1.7,0,0,0-3-1.49ZM15.51,51a1.56,1.56,0,1,0,2.08-.71A1.56,1.56,0,0,0,15.51,51Zm3.41,5.22a1.42,1.42,0,1,0,1.91-.65A1.42,1.42,0,0,0,18.92,56.24Zm6.35-.56A1.29,1.29,0,1,0,27,55.1,1.3,1.3,0,0,0,25.27,55.68ZM30,52a1.15,1.15,0,1,0,1.54-.53A1.15,1.15,0,0,0,30,52Zm4.81-4.81a1,1,0,1,0,1.82.9,1,1,0,0,0-1.82-.9ZM39,41.67a.88.88,0,1,0,1.58.78A.88.88,0,1,0,39,41.67Zm2.73-5.41a.81.81,0,1,0,1.09-.37A.81.81,0,0,0,41.74,36.26ZM28.53,17.63a1.83,1.83,0,1,0-.84-2.45A1.84,1.84,0,0,0,28.53,17.63ZM33,12.69a1.69,1.69,0,1,0-.77-2.26A1.7,1.7,0,0,0,33,12.69ZM38,8.7a1.55,1.55,0,1,0-.71-2.08A1.55,1.55,0,0,0,38,8.7ZM44.17,8a1.42,1.42,0,1,0-.65-1.9A1.41,1.41,0,0,0,44.17,8Zm3.39,5.19a1.29,1.29,0,1,0,1.13-2.31,1.27,1.27,0,0,0-1.72.58A1.29,1.29,0,0,0,47.56,13.22Zm.14,6.21a1.15,1.15,0,1,0,1-2.06,1.15,1.15,0,0,0-1,2.06Zm-1.18,6.2a1,1,0,1,0-.47-1.36A1,1,0,0,0,46.52,25.63Z" fill-rule="evenodd"/>
</svg>
