<svg xmlns="http://www.w3.org/2000/svg" width="64" height="64" viewBox="0 0 64 64">
  <title>particles</title>
  <path d="M31.89,25.81h0A5.16,5.16,0,1,0,37,31v0h0a5.16,5.16,0,0,0-5.13-5.14ZM45,8.44A1.63,1.63,0,0,1,44.17,7a1.72,1.72,0,0,1,.21-.82h0a1.67,1.67,0,0,1,1.45-.85,1.74,1.74,0,0,1,.69.14h0a1.66,1.66,0,0,1,.6,2.28h0a1.64,1.64,0,0,1-1.43.83H45.6a1.58,1.58,0,0,1-.69-.15H45ZM38.16,8A1.49,1.49,0,0,1,38,7.27a1.62,1.62,0,0,1,1-1.49h0a1.72,1.72,0,0,1,2.23.83h0a1.66,1.66,0,0,1,.13.64,1.68,1.68,0,0,1-1.08,1.57h0a1.88,1.88,0,0,1-.68.15h0a1.7,1.7,0,0,1-1.39-1V8ZM33,11.85a1.67,1.67,0,0,1,.19-2.36h0a1.66,1.66,0,0,1,2.34.2h0A1.62,1.62,0,0,1,36,10.78a1.6,1.6,0,0,1-.6,1.25h0a1.65,1.65,0,0,1-1.08.4h0A1.58,1.58,0,0,1,33,11.85Zm13.84.73v-.16a1.69,1.69,0,0,1,1.48-1.68h.19a1.69,1.69,0,0,1,1.67,1.48h0a1.27,1.27,0,0,1,0,.2,1.65,1.65,0,0,1-1.51,1.64h-.16a1.69,1.69,0,0,1-1.68-1.47Zm-18.2,3.9a1.65,1.65,0,0,1-.58-1.26,1.69,1.69,0,0,1,.41-1.1h0a1.73,1.73,0,0,1,1.27-.56,1.7,1.7,0,0,1,1.11.42h0a1.68,1.68,0,0,1,.57,1.26,1.71,1.71,0,0,1-.4,1.1h0a1.7,1.7,0,0,1-1.25.56h0a1.63,1.63,0,0,1-1.09-.42h0Zm19.21,3.88a1.66,1.66,0,0,1-1.39-1.64,1.63,1.63,0,0,1,0-.31h0A1.66,1.66,0,0,1,48.16,17a1.74,1.74,0,0,1,.45.06h0A1.68,1.68,0,0,1,50,18.71a1.63,1.63,0,0,1,0,.31h0a1.66,1.66,0,0,1-1.63,1.38H48Zm-23,1.24a1.69,1.69,0,0,1-.7-1.38,1.65,1.65,0,0,1,.31-1h0a1.68,1.68,0,0,1,2.34-.4h0a1.66,1.66,0,0,1,.7,1.36,1.6,1.6,0,0,1-.31,1h0a1.67,1.67,0,0,1-1.36.71h0a2,2,0,0,1-1-.3Zm21.21,4.76A1.69,1.69,0,0,1,45,24.78a1.77,1.77,0,0,1,.08-.52h0a1.65,1.65,0,0,1,1.56-1.13,1.61,1.61,0,0,1,.54.09h0a1.68,1.68,0,0,1,1.12,1.58,1.77,1.77,0,0,1-.08.52h0a1.68,1.68,0,0,1-1.59,1.15h0l-.22,0a2,2,0,0,1-.35,0h0Zm-24.42.56a1.66,1.66,0,0,1-.86-1.46,1.7,1.7,0,0,1,.19-.78h0a1.66,1.66,0,0,1,1.44-.83,1.58,1.58,0,0,1,.84.23h0a1.63,1.63,0,0,1,.85,1.43,1.54,1.54,0,0,1-.25.85h0a1.65,1.65,0,0,1-1.44.83h-.1a1.54,1.54,0,0,1-.74-.2h0ZM40.47,37.73a1.64,1.64,0,0,1-.83-1.43,1.74,1.74,0,0,1,.23-.85h0a1.65,1.65,0,0,1,1.44-.85,1.58,1.58,0,0,1,.84.23h0a1.68,1.68,0,0,1,.63,2.29h0A1.74,1.74,0,0,1,41.3,38h-.16a1.91,1.91,0,0,1-.68-.13h0Zm-23.82.86a1.73,1.73,0,0,1-1-2.1h0a1.67,1.67,0,0,1,1.58-1.12,1.82,1.82,0,0,1,.52.08h0A1.65,1.65,0,0,1,18.83,37a1.91,1.91,0,0,1-.09.54h0a1.66,1.66,0,0,1-1.56,1.14h.1l-.23,0a2.71,2.71,0,0,1-.41,0h0ZM15.3,44.85a1.65,1.65,0,0,1-1.37-1.62,1.84,1.84,0,0,1,0-.33h0a1.65,1.65,0,0,1,1.63-1.36l.3,0h0a1.64,1.64,0,0,1,1.42,1.63,2.45,2.45,0,0,1,0,.27h0a1.66,1.66,0,0,1-1.64,1.38H15.3ZM32.85,48a1.71,1.71,0,0,1-.58-1.27,1.66,1.66,0,0,1,.46-1.16A1.68,1.68,0,0,1,34,45a1.66,1.66,0,0,1,1.11.42h0a1.64,1.64,0,0,1,.55,1.24,1.66,1.66,0,0,1-.43,1.12h0a1.62,1.62,0,0,1-1.23.57h0a1.65,1.65,0,0,1-1.08-.4h0ZM13.61,49.74a1.09,1.09,0,0,1,0-.18,1.67,1.67,0,0,1,1.46-1.66h.2a1.64,1.64,0,0,1,1.64,1.49h0a1.1,1.1,0,0,1,0,.18,1.67,1.67,0,0,1-1.47,1.66h-.26a1.67,1.67,0,0,1-1.58-1.47Zm14.61,2.48a1.64,1.64,0,0,1,.21-2.33h0a1.57,1.57,0,0,1,1.08-.41,1.63,1.63,0,0,1,1.26.59h0a1.67,1.67,0,0,1-.19,2.36h0a1.77,1.77,0,0,1-1.08.4h0a1.64,1.64,0,0,1-1.28-.61h0Zm-5.53,3.07a1.64,1.64,0,0,1-.15-.67,1.67,1.67,0,0,1,1-1.52h0a1.63,1.63,0,0,1,.59-.11,1.68,1.68,0,0,1,1.5.93v0a1.57,1.57,0,0,1,.14.67,1.67,1.67,0,0,1-1,1.53h0a1.55,1.55,0,0,1-.65.14h0a1.65,1.65,0,0,1-1.42-1h0Zm-5.41,1.09a1.66,1.66,0,0,1-.85-1.44,1.58,1.58,0,0,1,.23-.84h0a1.71,1.71,0,0,1,1.46-.84,1.69,1.69,0,0,1,.83.22h0a1.64,1.64,0,0,1,.85,1.44,1.6,1.6,0,0,1-.23.84h0a1.65,1.65,0,0,1-1.45.86h0a1.64,1.64,0,0,1-.82-.24ZM16.59,7.84a1.65,1.65,0,0,1,.68-2.27h0a1.69,1.69,0,0,1,2.29.58h0A1.74,1.74,0,0,1,19.8,7,1.69,1.69,0,0,1,19,8.44h0a1.48,1.48,0,0,1-.81.23H18a1.64,1.64,0,0,1-1.43-.83Zm7,.94a1.7,1.7,0,0,1-1-1.55,1.72,1.72,0,0,1,.14-.68v0a1.67,1.67,0,0,1,2.2-.86h0a1.65,1.65,0,0,1,1,1.5,1.59,1.59,0,0,1-.2.78h0a1.63,1.63,0,0,1-1.5,1,1.61,1.61,0,0,1-.59-.22h0Zm4.87,3.4a1.66,1.66,0,0,1-.59-1.29,1.68,1.68,0,0,1,.38-1.07h0a1.66,1.66,0,0,1,2.36-.18h0a1.66,1.66,0,0,1,.6,1.26A1.62,1.62,0,0,1,30.75,12h0a1.64,1.64,0,0,1-1.27.61h0a1.59,1.59,0,0,1-1.1-.61h0ZM15.13,14.27a1.65,1.65,0,0,1-1.49-1.64,1.48,1.48,0,0,1,0-.21h0a1.67,1.67,0,0,1,1.66-1.49h.17A1.68,1.68,0,0,1,17,12.61a1.09,1.09,0,0,1,0,.18h0a1.69,1.69,0,0,1-1.67,1.5h-.23Zm17.62,2.09a1.69,1.69,0,0,1-.43-1.11A1.64,1.64,0,0,1,32.89,14h0A1.63,1.63,0,0,1,34,13.58a1.65,1.65,0,0,1,1.24.56h0a1.61,1.61,0,0,1,.33,1A1.66,1.66,0,0,1,35,16.33h0a1.7,1.7,0,0,1-1.08.42h-.16a1.59,1.59,0,0,1-1.1-.43h0ZM14,19.15a1.39,1.39,0,0,1,0-.3,1.68,1.68,0,0,1,1.36-1.64h0a1.78,1.78,0,0,1,.35,0,1.71,1.71,0,0,1,1.63,1.24h0a1.39,1.39,0,0,1,0,.3,1.67,1.67,0,0,1-1.38,1.64h-.34A1.66,1.66,0,0,1,14,19.06h0Zm1.67,6.27a1.7,1.7,0,0,1-.08-.51,1.68,1.68,0,0,1,1.11-1.58h0a1.67,1.67,0,0,1,2.08,1v0a1.66,1.66,0,0,1-1,2.08h0a1.23,1.23,0,0,1-.28,0,1.37,1.37,0,0,1-.29,0h0a1.67,1.67,0,0,1-1.54-1Zm24.2.87a1.64,1.64,0,0,1-.23-.83A1.66,1.66,0,0,1,40.43,24h0a1.67,1.67,0,0,1,.84-.22,1.74,1.74,0,0,1,1.46.82h0a1.63,1.63,0,0,1,.22.83,1.67,1.67,0,0,1-.86,1.45h0a1.39,1.39,0,0,1-.76.23h-.06a1.66,1.66,0,0,1-1.43-.83ZM18.07,31.47a1.65,1.65,0,0,1,.81-2.21h0a1.57,1.57,0,0,1,.7-.15,1.68,1.68,0,0,1,1.51.95h0a1.74,1.74,0,0,1,.15.69,1.69,1.69,0,0,1-.95,1.52h0a1.63,1.63,0,0,1-.7.15h0a1.6,1.6,0,0,1-1.47-.95Zm24.62.31a1.57,1.57,0,0,1-.16-.7,1.68,1.68,0,0,1,.94-1.5h0a1.64,1.64,0,0,1,.71-.15,1.68,1.68,0,0,1,1.52,1h0a1.7,1.7,0,0,1,.15.69,1.65,1.65,0,0,1-1,1.51h0a1.71,1.71,0,0,1-.69.17h0a1.69,1.69,0,0,1-1.52-1ZM21,37.21a1.62,1.62,0,0,1-.22-.82,1.71,1.71,0,0,1,.82-1.45h0a1.67,1.67,0,0,1,.84-.22,1.71,1.71,0,0,1,1.45.82h0a1.64,1.64,0,0,1,.23.83,1.68,1.68,0,0,1-.82,1.44h0a1.67,1.67,0,0,1-.84.23h0A1.78,1.78,0,0,1,21,37.23h0ZM45,37.59a1.71,1.71,0,0,1,1-2.09h0a1.57,1.57,0,0,1,.49-.07,1.71,1.71,0,0,1,1.6,1.12v0a1.63,1.63,0,0,1-1,2.08h0a1.09,1.09,0,0,1-.26,0,1.12,1.12,0,0,1-.27,0h0A1.69,1.69,0,0,1,45,37.52h0Zm-20.43,5.2a1.61,1.61,0,0,1-.32-1,1.64,1.64,0,0,1,.71-1.35h0a1.66,1.66,0,0,1,2.34.39h0a1.64,1.64,0,0,1-.41,2.32h0a1.54,1.54,0,0,1-.94.31h0a1.68,1.68,0,0,1-1.36-.78h0Zm22,.69a1.39,1.39,0,0,1,0-.3,1.67,1.67,0,0,1,1.4-1.64h0l.28,0a1.69,1.69,0,0,1,1.66,1.37h0a1.39,1.39,0,0,1,0,.3,1.67,1.67,0,0,1-1.38,1.64h-.3a1.72,1.72,0,0,1-1.67-1.34ZM28.6,47.82a1.61,1.61,0,0,1-.38-1,1.65,1.65,0,0,1,.52-1.21,1.67,1.67,0,0,1,2.36.17h0a1.63,1.63,0,0,1,.42,1.1A1.68,1.68,0,0,1,31,48.07h0a1.7,1.7,0,0,1-1.1.42,1.61,1.61,0,0,1-1.25-.67h0Zm19.79,3.26a1.72,1.72,0,0,1-1.53-1.71v-.14h0a1.7,1.7,0,0,1,1.68-1.49h.16a1.67,1.67,0,0,1,1.53,1.66.86.86,0,0,1,0,.16h0a1.7,1.7,0,0,1-1.67,1.51ZM33.27,52.45a1.72,1.72,0,0,1-.59-1.3A1.7,1.7,0,0,1,33,50.09h0a1.68,1.68,0,0,1,1.29-.59,1.66,1.66,0,0,1,1.09.4h0a1.63,1.63,0,0,1,.6,1.27,1.67,1.67,0,0,1-.39,1.07h0a1.69,1.69,0,0,1-1.29.6h0a1.55,1.55,0,0,1-1-.4Zm5.81,3.72A1.7,1.7,0,0,1,38,54.6a1.83,1.83,0,0,1,.15-.7h0A1.67,1.67,0,0,1,39.65,53a1.74,1.74,0,0,1,.61.11h0a1.69,1.69,0,0,1,1,1.53,1.58,1.58,0,0,1-.15.69h0a1.73,1.73,0,0,1-1.52,1h0a1.94,1.94,0,0,1-.64-.16h.14Zm5.34-.42a1.6,1.6,0,0,1-.24-.85A1.63,1.63,0,0,1,45,53.48h0a1.55,1.55,0,0,1,.86-.25A1.65,1.65,0,0,1,47.3,54h0a1.64,1.64,0,0,1-.53,2.29h0a1.56,1.56,0,0,1-.8.23h0l-.25,0a1.59,1.59,0,0,1-1.38-.81h.12ZM30.06,20.09h0a1.67,1.67,0,0,1,1.67-1.68h.16a1.65,1.65,0,0,1,1.65,1.65v0a1.66,1.66,0,0,1-1.65,1.67h-.08a1.67,1.67,0,0,1-1.67-1.67h-.08ZM38,22a1.66,1.66,0,0,1-1.51-1.66.86.86,0,0,1,0-.16h0a1.7,1.7,0,0,1,1.68-1.53h.14a1.66,1.66,0,0,1,1.51,1.66c0,.05,0,.11,0,.16h0A1.66,1.66,0,0,1,38.16,22H38Zm6.1.86a1.69,1.69,0,0,1-1.35-1.65,1.66,1.66,0,0,1,0-.32h0a1.69,1.69,0,0,1,1.66-1.35,1.32,1.32,0,0,1,.34,0h0a1.67,1.67,0,0,1,1.35,1.64,1.55,1.55,0,0,1,0,.31h0a1.69,1.69,0,0,1-1.65,1.36ZM17.55,21.64a1.66,1.66,0,0,1,0-.32,1.71,1.71,0,0,1,1.32-1.66h0a1.37,1.37,0,0,1,.36,0A1.64,1.64,0,0,1,20.83,21h0a1.63,1.63,0,0,1-1.28,2h-.34a1.71,1.71,0,0,1-1.65-1.28h0ZM50,24.5a1.72,1.72,0,0,1-1.09-1.6,1.69,1.69,0,0,1,.08-.5h0a1.69,1.69,0,0,1,1.58-1.08,1.82,1.82,0,0,1,.52.08h0A1.7,1.7,0,0,1,52.14,23a1.82,1.82,0,0,1-.08.52v0a1.7,1.7,0,0,1-1.6,1.11h0a1.66,1.66,0,0,1-.49-.11Zm-38.45-.94a1.51,1.51,0,0,1-.09-.53,1.66,1.66,0,0,1,1.06-1.55h0a1.59,1.59,0,0,1,.5-.07,1.71,1.71,0,0,1,1.58,1.06h0a1.65,1.65,0,0,1,.08.51,1.71,1.71,0,0,1-1.07,1.58h0a1.48,1.48,0,0,1-.48.13h0a1.72,1.72,0,0,1-1.59-1.12Zm43.69,3.49a1.73,1.73,0,0,1-.68-1.36,1.67,1.67,0,0,1,.33-1h0a1.66,1.66,0,0,1,1.36-.7,1.64,1.64,0,0,1,1,.32h0A1.67,1.67,0,0,1,58,25.7a1.65,1.65,0,0,1-.4,1.08h0a1.69,1.69,0,0,1-1.37.71,1.8,1.8,0,0,1-1-.37h0Zm-49.1-.28a1.62,1.62,0,0,1-.33-1,1.63,1.63,0,0,1,.68-1.34h0a1.64,1.64,0,0,1,1-.33,1.68,1.68,0,0,1,1.34.68h0a1.62,1.62,0,0,1,.33,1,1.66,1.66,0,0,1-.68,1.34h0a1.59,1.59,0,0,1-1,.33h0a1.7,1.7,0,0,1-1.36-.68ZM58,31v0a1.68,1.68,0,0,1,1.63-1.69h0a1.64,1.64,0,0,1,1.65,1.63V31a1.67,1.67,0,0,1-1.67,1.67h-.08A1.67,1.67,0,0,1,57.91,31H58ZM2.67,31v0a1.65,1.65,0,0,1,1.65-1.65h0A1.7,1.7,0,0,1,6,30.91H6A1.7,1.7,0,0,1,4.34,32.6h0A1.65,1.65,0,0,1,2.67,31Zm52.19,6.12a1.69,1.69,0,0,1,.35-2.34h0a1.7,1.7,0,0,1,1-.32,1.66,1.66,0,0,1,1.35.69h0a1.59,1.59,0,0,1,.33,1,1.66,1.66,0,0,1-.68,1.34h0a1.59,1.59,0,0,1-1,.34,1.73,1.73,0,0,1-1.36-.71Zm-48.33.35a1.61,1.61,0,0,1-.68-1.31,1.57,1.57,0,0,1,.35-1h0a1.66,1.66,0,0,1,2.33-.37h0a1.64,1.64,0,0,1,.42,2.46h0a1.71,1.71,0,0,1-1.36.69,1.51,1.51,0,0,1-1-.44ZM49,39.51A1.66,1.66,0,0,1,49,39,1.7,1.7,0,0,1,50,37.42h0a1.59,1.59,0,0,1,.5-.08,1.69,1.69,0,0,1,1.58,1.09h0a1.65,1.65,0,0,1,.08.51,1.7,1.7,0,0,1-1.09,1.58h0a1.47,1.47,0,0,1-.56.1,1.68,1.68,0,0,1-1.46-1.11h0Zm-36.43,1A1.65,1.65,0,0,1,11.51,39a1.72,1.72,0,0,1,.1-.55v0a1.67,1.67,0,0,1,1.55-1.1,1.63,1.63,0,0,1,.55.1h0A1.69,1.69,0,0,1,14.77,39a1.77,1.77,0,0,1-.08.52h0a1.72,1.72,0,0,1-1.58,1.1h0a1.86,1.86,0,0,1-.48-.1h0ZM42.85,41a1.79,1.79,0,0,1,0-.34A1.64,1.64,0,0,1,44.16,39h0a1.63,1.63,0,0,1,2,1.28h0a1.68,1.68,0,0,1-1.3,2h-.35A1.62,1.62,0,0,1,42.9,41h0ZM19,42.26a1.64,1.64,0,0,1-1.35-1.62,1.34,1.34,0,0,1,0-.35h0A1.66,1.66,0,0,1,19.27,39a1.87,1.87,0,0,1,.34,0h0a1.65,1.65,0,0,1,1.33,1.62,1.34,1.34,0,0,1,0,.35h0a1.65,1.65,0,0,1-1.61,1.36Zm17.6-.58s0-.09,0-.13a1.7,1.7,0,0,1,1.53-1.69h.15a1.65,1.65,0,0,1,1.65,1.5h0v.15a1.66,1.66,0,0,1-1.48,1.66h-.17a1.66,1.66,0,0,1-1.63-1.49h0Zm-4.66,1.8h0a1.67,1.67,0,0,1-1.67-1.67h0a1.67,1.67,0,0,1,1.67-1.67h0a1.67,1.67,0,1,1,0,3.34Z"/>
</svg>
