<?xml version="1.0" encoding="UTF-8"?>
<svg width="24px" height="24px" viewBox="0 0 24 24" version="1.1" xmlns="http://www.w3.org/2000/svg" xmlns:xlink="http://www.w3.org/1999/xlink">
    <!-- Generator: Sketch 48.2 (47327) - http://www.bohemiancoding.com/sketch -->
    <title>particles_alt</title>
    <desc>Created with Sketch.</desc>
    <defs></defs>
    <g id="Page-1" stroke="none" stroke-width="1" fill="none" fill-rule="evenodd">
        <g id="particles_alt" fill="#000000" fill-rule="nonzero">
            <path d="M11.960464,16.3034056 C11.9581154,16.3034056 11.9557667,16.3034056 11.9526351,16.3034056 C11.6065976,16.3034056 11.3263229,16.0231308 11.3263229,15.6770933 C11.3263229,15.6770933 11.3263229,15.6770933 11.3263229,15.6770933 C11.3263229,15.6770933 11.3263229,15.6770933 11.3263229,15.6770933 C11.3263229,15.3310558 11.6065976,15.0507811 11.9526351,15.0507811 C11.9557667,15.0507811 11.9581154,15.0507811 11.9612469,15.0507811 L11.960464,15.0507811 C12.3065015,15.0507811 12.5867763,15.3310558 12.5867763,15.6770933 C12.5867763,16.0231308 12.3065015,16.3034056 11.960464,16.3034056 Z M13.7063094,15.6301199 C13.7047436,15.615245 13.7039607,15.5980214 13.7039607,15.5800149 C13.7039607,15.251201 13.9544856,14.9811039 14.2746877,14.9490054 L14.2770364,14.9490054 C14.29426,14.9474396 14.3138322,14.9466567 14.3341874,14.9466567 C14.6575211,14.9466567 14.9229209,15.1948329 14.9503221,15.5103377 L14.9503221,15.5126864 C14.9518878,15.52991 14.9526707,15.5502651 14.9526707,15.5714032 C14.9526707,15.8931711 14.7099747,16.1585709 14.3968186,16.1938009 L14.3936871,16.1938009 L14.3310558,16.1938009 C14.0124195,16.1875378 13.7524999,15.9440589 13.7204014,15.6324686 L13.7204014,15.6301199 L13.7063094,15.6301199 Z M7.10654425,15.8493292 C6.81609195,15.7945269 6.60001423,15.5432191 6.60001423,15.2410235 C6.60001423,15.1956158 6.60471158,15.151774 6.61410626,15.1094979 L6.61332337,15.1134123 C6.67204014,14.8237429 6.9249137,14.6084481 7.22789225,14.6084481 C7.27095121,14.6084481 7.3124444,14.6131454 7.35315469,14.6209743 L7.34924024,14.6201915 C7.63577809,14.6781253 7.84794135,14.9278673 7.84794135,15.2269314 C7.84794135,15.2723391 7.84324401,15.3169638 7.83384933,15.3600228 L7.83463222,15.3561083 C7.78139568,15.6449948 7.53243657,15.8618554 7.2318067,15.864987 L7.10654425,15.8493292 Z M16.0706381,15.3561083 C16.0620263,15.3177467 16.0573289,15.2739048 16.0573289,15.2284972 C16.0573289,14.9263016 16.2734066,14.6749938 16.5599445,14.6209743 L16.5638589,14.6201915 C16.6006548,14.6123625 16.6437137,14.6076652 16.6867727,14.6076652 C16.9874026,14.6076652 17.2379275,14.8190456 17.2989929,15.1008861 L17.2997758,15.1048005 C17.3076047,15.1415964 17.3115192,15.1830896 17.3115192,15.2261485 C17.3115192,15.5291271 17.0962243,15.7820006 16.8104694,15.8399345 L16.8065549,15.8407174 L16.6812925,15.8407174 C16.3892744,15.8391516 16.1457955,15.6332515 16.0870788,15.3592399 L16.0862959,15.3553254 L16.0706381,15.3561083 Z M4.72655777,15.1995303 C4.48621046,15.1110637 4.31710615,14.8840255 4.31710615,14.6178428 C4.31710615,14.5458169 4.3296324,14.4769225 4.35233622,14.4127255 L4.35077044,14.4174229 C4.43923704,14.1770755 4.66627522,14.0079712 4.93245792,14.0079712 C5.00448383,14.0079712 5.07337817,14.0204975 5.13757518,14.0424184 L5.13287783,14.0408526 C5.37244226,14.1355824 5.538415,14.3641863 5.538415,14.6319348 C5.538415,14.7000463 5.52745454,14.765809 5.50788228,14.8276574 L5.50944806,14.82296 C5.41393545,15.0648731 5.18454859,15.2331945 4.91523433,15.2378919 L4.91445144,15.2378919 C4.85103733,15.2316288 4.79232056,15.2183196 4.73751824,15.1971816 L4.74221558,15.1987474 L4.72655777,15.1995303 Z M18.3879933,14.815914 C18.3692039,14.758763 18.3582435,14.6930002 18.3582435,14.6241059 C18.3582435,14.3563574 18.5242162,14.1269706 18.7590833,14.0338066 L18.7637806,14.0322408 C18.8201487,14.0142344 18.8851286,14.0032739 18.9524572,14.0032739 C19.2233372,14.0032739 19.4542899,14.1723782 19.5451052,14.4111597 L19.5466709,14.4158571 C19.5646774,14.4722252 19.5756379,14.5372051 19.5756379,14.6045336 C19.5756379,14.8754137 19.4065336,15.1063663 19.167752,15.1971816 L19.1630547,15.1987474 C19.1004235,15.2237999 19.0276147,15.2378919 18.9516743,15.2378919 C18.697235,15.2167539 18.4874204,15.0484324 18.4052169,14.8198285 L18.4036511,14.8151311 L18.3879933,14.815914 Z M2.44834703,14.0330237 C2.29490054,13.9226362 2.19547347,13.7441372 2.19547347,13.5421515 C2.19547347,13.4020142 2.24322978,13.2728373 2.32386748,13.1702786 L2.32308459,13.1718444 C2.43660368,13.0137006 2.61980001,12.9119248 2.82726593,12.9119248 C2.96427173,12.9119248 3.09109996,12.9565496 3.19365859,13.0324899 L3.19209281,13.0309242 C3.37215757,13.1413117 3.49037401,13.3370343 3.49037401,13.560158 C3.49037401,13.7104729 3.43635458,13.8482616 3.34710509,13.9555176 L3.34788798,13.9547347 C3.23045443,14.1105299 3.04647521,14.2115227 2.83900929,14.2130885 C2.69182591,14.2068254 2.56030035,14.144977 2.46322195,14.0486815 L2.44834703,14.0330237 Z M20.5722572,13.8999324 C20.4978826,13.7973738 20.452475,13.6689798 20.452475,13.5296253 C20.452475,13.3237251 20.5511192,13.1405288 20.7037828,13.024661 L20.7053486,13.0238782 C20.8071243,12.9487207 20.9355183,12.9040959 21.073307,12.9040959 C21.2815558,12.9040959 21.4671008,13.0058717 21.5806199,13.1632326 L21.5821857,13.1647984 C21.6589089,13.267357 21.7043166,13.3965339 21.7043166,13.5366713 C21.7043166,13.7433543 21.6041066,13.9257678 21.4506601,14.0400697 L21.4490943,14.0416355 C21.3481015,14.1191417 21.2204904,14.1661151 21.0811359,14.166898 C20.8721042,14.1629835 20.688125,14.059642 20.573823,13.9022811 L20.5722572,13.9007153 L20.5722572,13.8999324 Z M1,11.6060638 C1,11.6013665 1,11.5958863 1,11.590406 C1,11.2490659 1.27714316,10.9719227 1.61848333,10.9719227 C1.61848333,10.9719227 1.61848333,10.9719227 1.61848333,10.9719227 C1.61848333,10.9719227 1.61848333,10.9719227 1.61848333,10.9719227 C1.96295505,10.9719227 2.24401267,11.2467172 2.25262446,11.5896231 L2.25262446,11.590406 C2.25262446,11.590406 2.25262446,11.590406 2.25262446,11.590406 C2.25262446,11.9380093 1.97313263,12.2198498 1.62709512,12.2245472 L1.62631223,12.2245472 C1.62396356,12.2245472 1.62161489,12.2245472 1.61848333,12.2245472 C1.27714316,12.2245472 1,11.947404 1,11.6060638 C1,11.6060638 1,11.6060638 1,11.6060638 Z M21.7544216,11.6060638 C21.7544216,11.6037152 21.7544216,11.6005836 21.7544216,11.597452 C21.7544216,11.255329 22.0253016,10.97662 22.3642931,10.9640938 L22.3658589,10.9640938 C22.3705562,10.9640938 22.3760364,10.9640938 22.3815167,10.9640938 C22.7205082,10.9640938 22.9953027,11.2365396 23,11.5747482 L23,11.6068467 C23,11.9528842 22.7197253,12.233159 22.3736878,12.233159 C22.3642931,12.2339419 22.3533326,12.2339419 22.3423722,12.2339419 C21.9963347,12.2339419 21.7160599,11.9536671 21.7160599,11.6076296 C21.7160599,11.6076296 21.7160599,11.6068467 21.7160599,11.6068467 L21.7544216,11.6060638 Z M2.29176898,10.0402833 C2.21347995,9.93772464 2.16572364,9.80776485 2.16572364,9.6668446 C2.16572364,9.46016156 2.26671649,9.27696523 2.42251165,9.16501192 L2.42407743,9.16344614 C2.52663606,9.08672289 2.65581296,9.04131526 2.79595032,9.04131526 C3.00263336,9.04131526 3.1850468,9.14152521 3.29934878,9.29497171 L3.30091456,9.29653749 C3.37763781,9.39909612 3.42304544,9.52827302 3.42304544,9.66841038 C3.42304544,9.87509341 3.32283549,10.0582897 3.16938899,10.1718088 L3.16782321,10.1733746 C3.06839614,10.2516636 2.94078503,10.2986371 2.80299633,10.2986371 C2.80221344,10.2986371 2.80143055,10.2986371 2.79986477,10.2986371 C2.59161596,10.2978542 2.40763674,10.1968613 2.29255187,10.041849 L2.29098609,10.0402833 L2.29176898,10.0402833 Z M20.7053486,10.142059 C20.5487705,10.0254083 20.4493434,9.84064624 20.4493434,9.63318031 C20.4493434,9.49226006 20.495534,9.36151738 20.573823,9.25582719 L20.5722572,9.25739298 C20.6873421,9.09846625 20.8721042,8.99669051 21.0811359,8.99669051 C21.2197075,8.99669051 21.3473186,9.04131526 21.451443,9.1180385 L21.4498772,9.11647272 C21.6189815,9.22999182 21.7293691,9.42101705 21.7293691,9.63787766 C21.7293691,9.79132415 21.6737839,9.9322444 21.5821857,10.0410662 L21.5829686,10.0402833 C21.465535,10.2015587 21.2784243,10.3049002 21.066261,10.306466 C20.9284723,10.2955055 20.8047756,10.2446176 20.7045657,10.1647628 L20.7061315,10.1655457 L20.7053486,10.142059 Z M4.31945482,8.83463222 C4.29909968,8.77513256 4.28735632,8.7070211 4.28735632,8.63577809 C4.28735632,8.37116117 4.45176328,8.14490588 4.68349881,8.05330771 L4.68741326,8.05174193 C4.74299847,8.03373545 4.80797836,8.02355788 4.87452404,8.02355788 C5.14305541,8.02355788 5.37322515,8.18874773 5.46873777,8.42283193 L5.47030355,8.42674638 C5.48909291,8.48389737 5.50005338,8.54966015 5.50005338,8.6185545 C5.50005338,8.88630298 5.33408064,9.11568983 5.09921355,9.20885378 L5.0952991,9.21041956 C5.04284545,9.23468916 4.98178001,9.25112985 4.917583,9.25739298 L4.91523433,9.25739298 C4.64200562,9.25582719 4.40948721,9.08202555 4.32180349,8.83932956 L4.32023771,8.83463222 L4.31945482,8.83463222 Z M18.7402939,9.18693285 C18.4983808,9.09142023 18.3300594,8.85968471 18.3300594,8.58802178 C18.3300594,8.52225899 18.340237,8.45884488 18.3582435,8.39934522 L18.3566777,8.40404256 C18.4514074,8.16447813 18.6800114,7.99850539 18.9477599,7.99850539 C19.0158713,7.99850539 19.0816341,8.00946586 19.1434824,8.02903811 L19.1387851,8.02747233 C19.3814811,8.11985339 19.5513683,8.35080602 19.5513683,8.62168606 C19.5513683,8.68901463 19.5411907,8.75399452 19.5216184,8.81505996 L19.5231842,8.81036262 C19.4284545,9.05462439 19.1959361,9.22529447 18.9227074,9.22529447 C18.9219245,9.22529447 18.9211416,9.22529447 18.9203587,9.22529447 C18.8545959,9.22059713 18.7935305,9.20650511 18.7355966,9.18458418 L18.7402939,9.18614996 L18.7402939,9.18693285 Z M6.58200776,8.11437315 C6.57496175,8.0783602 6.57104729,8.03764991 6.57104729,7.99615672 C6.57104729,7.69317818 6.78086189,7.43952173 7.06348529,7.37141027 L7.06818263,7.37062738 C7.10889292,7.3612327 7.15508345,7.35575246 7.20362265,7.35575246 C7.5058183,7.35575246 7.75790897,7.57339596 7.8119284,7.85993381 L7.81271129,7.86384826 C7.82054019,7.90064411 7.82523754,7.94292018 7.82523754,7.98676204 C7.82523754,8.28739191 7.61385716,8.5379168 7.33201665,8.59898224 L7.3281022,8.59976513 L7.20283976,8.59976513 C6.90534145,8.59819935 6.65638234,8.39386499 6.58513932,8.1190705 L6.58435643,8.11437315 L6.58200776,8.11437315 Z M16.5325433,8.58410733 C16.2428739,8.5214761 16.0291449,8.26781965 16.0291449,7.96327533 C16.0291449,7.92256503 16.0330593,7.88263763 16.0401053,7.844276 L16.0393224,7.84819046 C16.1011708,7.55773816 16.3556101,7.34322622 16.6601544,7.34322622 C16.7039963,7.34322622 16.7462724,7.34792356 16.7869827,7.35575246 L16.7830682,7.35496957 C17.0719547,7.41446924 17.2864667,7.66655991 17.2864667,7.96875556 C17.2864667,8.00868297 17.2825522,8.04861037 17.2755062,8.0861891 L17.2762891,8.08227465 C17.2160065,8.37350984 16.9623501,8.58958756 16.6578058,8.59115334 L16.5325433,8.58410733 Z M14.2465037,8.26312231 C13.9270844,8.2318067 13.680474,7.96484111 13.680474,7.63994164 C13.680474,7.61958649 13.6812569,7.59923134 13.6836056,7.57965909 L13.6836056,7.58200776 C13.7157041,7.25867407 13.9858012,7.00893207 14.3146151,7.00893207 C14.3318387,7.00893207 14.3498452,7.00971496 14.3670688,7.01128074 L14.3647201,7.01128074 C14.6841394,7.04259635 14.9307498,7.30956194 14.9307498,7.63446141 C14.9307498,7.65481655 14.9299669,7.6751717 14.9276182,7.69474396 L14.9276182,7.69239529 C14.9025657,8.01338031 14.6356002,8.2639052 14.3107007,8.2639052 C14.3099178,8.2639052 14.3091349,8.2639052 14.3091349,8.2639052 L14.2465037,8.2639052 L14.2465037,8.26312231 Z M11.2715206,7.53503434 C11.2715206,7.53425145 11.2715206,7.53268567 11.2715206,7.53190278 C11.2715206,7.18586527 11.5517953,6.90559055 11.8978328,6.90559055 C11.9197537,6.90559055 11.9416747,6.90637344 11.9628127,6.90872211 L11.960464,6.90872211 C12.3018042,6.90872211 12.5789474,7.18586527 12.5789474,7.52720544 C12.5789474,7.52955411 12.5789474,7.53268567 12.5789474,7.53503434 C12.5789474,7.87794029 12.3025871,8.15664923 11.960464,8.16134657 L11.9596812,8.16134657 C11.9502865,8.16212946 11.939326,8.16212946 11.9283655,8.16212946 C11.582328,8.16212946 11.3020533,7.88185474 11.3020533,7.53581723 C11.3020533,7.53581723 11.3020533,7.53503434 11.3020533,7.53503434 L11.2715206,7.53503434 Z M16.6578058,20.9068005 C16.6014377,20.8159852 16.5685563,20.7063806 16.5685563,20.588947 C16.5685563,20.3595602 16.6953845,20.1599231 16.8817124,20.0557987 L16.884844,20.0542329 C16.977225,19.9962991 17.0899612,19.9618519 17.2105263,19.9618519 C17.4328672,19.9618519 17.6278068,20.0792854 17.7366286,20.2554357 L17.7381944,20.2577844 C17.7984769,20.3517313 17.8344899,20.4660332 17.8344899,20.588947 C17.8344899,20.8128536 17.7154906,21.0085762 17.5377745,21.117398 L17.5354258,21.1189637 C17.4493079,21.1729832 17.3451834,21.2050817 17.2332301,21.2050817 C17.2293157,21.2050817 17.2254012,21.2050817 17.2214868,21.2050817 L17.2222697,21.2050817 C17.1948685,21.209779 17.16277,21.2121277 17.1306715,21.2121277 C16.9091136,21.2121277 16.7149568,21.0907797 16.613181,20.9107149 L16.6116152,20.9075834 L16.6578058,20.9068005 Z M14.6536066,21.0633785 C14.4179567,20.967083 14.2551155,20.7400448 14.2551155,20.474645 C14.2551155,20.3814811 14.2754706,20.2937974 14.3107007,20.2139426 L14.3091349,20.217857 C14.4140422,20.011174 14.6254226,19.8718195 14.8696844,19.8718195 C14.9495392,19.8718195 15.0262624,19.8866944 15.0967225,19.9140956 L15.0928081,19.9125298 C15.3159318,20.0119569 15.4685954,20.2311662 15.4685954,20.4863884 C15.4685954,20.5787694 15.4482403,20.667236 15.4122273,20.746308 L15.4137931,20.7423935 C15.3104516,20.9608199 15.0943739,21.1111348 14.8430661,21.1181808 L14.8422832,21.1181808 C14.7561653,21.1127006 14.6763105,21.0931284 14.6027188,21.0618127 L14.6074161,21.0633785 L14.6536066,21.0633785 Z M12.4771716,19.6698338 C12.3393829,19.5516174 12.253265,19.3770328 12.253265,19.1828761 C12.253265,19.0325611 12.3049358,18.8939895 12.3918366,18.7843849 L12.3910537,18.7859507 C12.5077044,18.6497278 12.6807231,18.5643927 12.8725312,18.5643927 C13.0298922,18.5643927 13.1731611,18.6215437 13.2843315,18.7162734 L13.2835486,18.7154906 C13.4213373,18.8297925 13.5082381,19.0012455 13.5082381,19.1922707 C13.5082381,19.3449343 13.4526529,19.4850717 13.3610548,19.5931106 L13.3618377,19.5923277 C13.245187,19.7316821 13.0706025,19.8193659 12.8764457,19.8193659 C12.874097,19.8193659 12.8709654,19.8193659 12.8678339,19.8193659 C12.7175189,19.8193659 12.5805131,19.7629978 12.4763887,19.6698338 L12.4771716,19.6706167 L12.4771716,19.6698338 Z M18.1452973,19.1531262 C17.8211807,19.1171133 17.5714387,18.8454503 17.5714387,18.5150706 C17.5714387,18.4970642 17.5722216,18.4798406 17.5737874,18.4618341 L17.5737874,18.4641828 C17.6129319,18.1478951 17.8798975,17.9051991 18.2032312,17.9051991 C18.2243692,17.9051991 18.2447244,17.905982 18.2650795,17.9083307 L18.2627309,17.9083307 C18.5852817,17.9357318 18.8365894,18.2050461 18.8365894,18.5322942 C18.8365894,18.5526494 18.8358066,18.5722216 18.8334579,18.5917939 L18.8334579,18.5894452 C18.796662,18.9065158 18.5312622,19.1507776 18.2071457,19.1531262 L18.1445144,19.1531262 L18.1452973,19.1531262 Z M10.7234974,17.9318174 C10.6358137,17.8261272 10.5817942,17.6883385 10.5817942,17.5380236 C10.5817942,17.3595246 10.6569517,17.1990321 10.7775168,17.0862959 C10.8871215,16.9907832 11.0311733,16.9328494 11.1885342,16.9328494 C11.3772108,16.9328494 11.5463151,17.0166186 11.6614,17.1481442 L11.6621828,17.1489271 C11.7592612,17.2577488 11.8187609,17.4018006 11.8187609,17.5599445 C11.8187609,17.7454895 11.7373403,17.9114622 11.6081634,18.0249813 L11.6073805,18.0257642 C11.496993,18.1220597 11.3513754,18.1807765 11.1924487,18.1823423 C10.9990748,18.1760791 10.8299705,18.0790007 10.7242803,17.9333832 L10.7227145,17.9318174 L10.7234974,17.9318174 Z M17.4406961,16.3034056 C17.4344329,16.2705242 17.4313014,16.2321626 17.4313014,16.1938009 C17.4313014,15.8829935 17.6575567,15.6254226 17.9542721,15.5761005 L17.9581865,15.5753176 C17.9895022,15.5698374 18.026298,15.5667058 18.0630938,15.5667058 C18.3723355,15.5667058 18.6291235,15.7874809 18.6854916,16.0802818 L18.6862745,16.0841963 C18.6925376,16.1178606 18.6964521,16.1562222 18.6964521,16.1953667 C18.6964521,16.5030426 18.4741112,16.7590477 18.1813103,16.8115014 L18.1773958,16.8122843 L18.0677912,16.8122843 C17.7608982,16.8115014 17.5048931,16.5954237 17.4422618,16.30732 L17.441479,16.3034056 L17.4406961,16.3034056 Z M9.20469022,16.0450518 C9.13188143,15.9448418 9.08803957,15.8195794 9.08803957,15.6833565 C9.08803957,15.4743248 9.19216398,15.2887798 9.35109071,15.1768264 L9.35343938,15.1752607 C9.45443223,15.1024519 9.58126045,15.0578271 9.71826625,15.0578271 C9.92886374,15.0578271 10.1159745,15.1619515 10.2294936,15.3216612 L10.2310594,15.3232269 C10.3023024,15.422654 10.3453614,15.5471336 10.3453614,15.6810078 C10.3453614,15.8923882 10.2388883,16.079499 10.07683,16.1906694 L10.0744813,16.1922352 C9.97740294,16.2658268 9.85527205,16.3096687 9.72218071,16.3096687 C9.71904914,16.3096687 9.71670047,16.3096687 9.7143518,16.3096687 L9.71513469,16.3096687 C9.49983986,16.3026227 9.31351197,16.185972 9.20782179,16.0145191 L9.20625601,16.0121704 L9.20469022,16.0450518 Z M16.8691861,14.095655 C16.8503968,14.038504 16.8394363,13.9727412 16.8394363,13.9046297 C16.8394363,13.6321839 17.013238,13.4004484 17.2567168,13.3143305 L17.2614142,13.3127647 C17.3162165,13.2955411 17.3796306,13.2853635 17.4453934,13.2853635 C17.7209708,13.2853635 17.9558379,13.4615138 18.0435216,13.7073414 L18.0450874,13.7120387 C18.0654425,13.7707555 18.0771859,13.8380841 18.0771859,13.9077613 C18.0771859,14.1794242 17.9018184,14.4103769 17.6583396,14.4933632 L17.6536422,14.494929 C17.6238924,14.5004092 17.5902281,14.5035408 17.5557809,14.5035408 C17.5213338,14.5035408 17.4876695,14.5004092 17.4547881,14.494929 L17.4579196,14.4957119 C17.1854738,14.4925803 16.9545212,14.3148642 16.8723177,14.0698196 L16.8707519,14.0651222 L16.8691861,14.095655 Z M7.88943454,13.9547347 C7.83854667,13.8654852 7.80879684,13.7590121 7.80879684,13.645493 C7.80879684,13.4161062 7.93092772,13.2149034 8.11412405,13.103733 L8.11725561,13.1021672 C8.20807089,13.0497135 8.31689264,13.0183979 8.4327604,13.0183979 C8.66371304,13.0183979 8.86569873,13.1420946 8.97686915,13.3268567 L8.97843493,13.3299883 C9.03088858,13.4200206 9.06220419,13.5272766 9.06220419,13.6423615 C9.06220419,13.8717483 8.93850753,14.0729511 8.75452831,14.1817729 L8.75139675,14.1833387 C8.66136436,14.2357923 8.55410839,14.2678908 8.43902352,14.2694566 L8.43824063,14.2694566 C8.207288,14.2631935 8.00686808,14.1410626 7.89178321,13.959432 L7.89021743,13.9570834 L7.88943454,13.9547347 Z M16.0080068,11.91922 C15.971211,11.8417138 15.9492901,11.7508985 15.9492901,11.654603 C15.9492901,11.4072097 16.0933419,11.1926978 16.3015907,11.090922 L16.3055051,11.0893563 C16.3830113,11.0525604 16.4738266,11.0314224 16.5701221,11.0314224 C16.8222127,11.0314224 17.0390733,11.1778229 17.141632,11.390769 L17.1431978,11.3946835 C17.1792107,11.4714067 17.2003487,11.5614391 17.2003487,11.6561688 C17.2003487,11.9066937 17.0539483,12.1219885 16.841785,12.2229814 L16.8378705,12.2245472 C16.7627131,12.261343 16.6742465,12.2840468 16.5802996,12.2871784 L16.5795167,12.2871784 C16.5795167,12.2871784 16.5787339,12.2871784 16.5787339,12.2871784 C16.3266432,12.2871784 16.1089997,12.1376463 16.0095726,11.9231344 L16.0080068,11.91922 Z M6.77773033,11.8017864 C6.7401516,11.7242803 6.71744778,11.6326821 6.71744778,11.5363866 C6.71744778,11.2866446 6.86541404,11.0713498 7.07914309,10.9734885 L7.08305754,10.9719227 C7.15978079,10.9359098 7.24981317,10.9147717 7.3445429,10.9147717 C7.59506779,10.9147717 7.81036262,11.0611722 7.91135547,11.2733355 L7.91292125,11.2772499 C7.94736842,11.3531903 7.96772357,11.4416569 7.96772357,11.5348208 C7.96772357,11.7853457 7.82210597,12.0022063 7.61150849,12.104765 L7.60759404,12.1063307 C7.5300879,12.1407779 7.44005551,12.1611331 7.3445429,12.1611331 C7.34062845,12.1611331 7.336714,12.1611331 7.33279954,12.1611331 L7.33358243,12.1611331 C7.33201665,12.1611331 7.33123376,12.1611331 7.32966798,12.1611331 C7.08462332,12.1611331 6.87324295,12.0147326 6.77929611,11.804918 L6.77773033,11.8010035 L6.77773033,11.8017864 Z M14.9354471,9.8602185 C14.8829935,9.77018611 14.8516779,9.66293014 14.8516779,9.54784527 C14.8516779,9.31845842 14.9753745,9.11725561 15.1593538,9.00843386 L15.1624853,9.00686808 C15.2525177,8.95598021 15.3605566,8.92544749 15.4748585,8.92544749 C15.7058112,8.92544749 15.9085798,9.04757838 16.0220989,9.23077471 L16.0236646,9.23390627 C16.0753354,9.32237287 16.1058681,9.42884595 16.1058681,9.54236504 C16.1058681,9.77644924 15.9759083,9.98000071 15.7841002,10.0856909 L15.7809686,10.0872567 C15.7003309,10.1412761 15.6016868,10.1733746 15.4944308,10.1733746 C15.4873848,10.1733746 15.4811217,10.1733746 15.4740757,10.1725917 L15.4748585,10.1725917 C15.4740757,10.1725917 15.4732928,10.1725917 15.4725099,10.1725917 C15.243123,10.1725917 15.0427031,10.0481122 14.93623,9.86256717 L14.9346642,9.85943561 L14.9354471,9.8602185 Z M5.86174869,9.53140458 C5.84295933,9.47425359 5.83199886,9.4084908 5.83199886,9.34037935 C5.83199886,9.06793353 6.00580051,8.836198 6.24927939,8.75008007 L6.25397673,8.74851429 C6.31112772,8.72972492 6.3768905,8.71876446 6.44500196,8.71876446 C6.71744778,8.71876446 6.9491833,8.8925661 7.03530123,9.13604498 L7.03686702,9.14074232 C7.05722216,9.19945909 7.06896552,9.26678766 7.06896552,9.33646489 C7.06896552,9.60812782 6.89359809,9.83908046 6.65011921,9.92206683 L6.64542187,9.92363261 C6.61332337,9.92911284 6.57731042,9.93146151 6.53973168,9.93146151 C6.50215295,9.93146151 6.46614,9.92832995 6.43012704,9.92284972 L6.43404149,9.92363261 L6.48101491,9.92363261 C6.47005445,9.9244155 6.45674531,9.9244155 6.44343618,9.9244155 C6.18195082,9.9244155 5.95726131,9.76392299 5.86409736,9.53610192 L5.86253158,9.53218747 L5.86174869,9.53140458 Z M5.23543646,7.18273371 C5.22917334,7.14906943 5.22525889,7.10992491 5.22525889,7.06999751 C5.22525889,6.7646703 5.44368528,6.51023095 5.73257179,6.45464574 L5.73648625,6.45386285 C5.77641365,6.44525106 5.82182129,6.43977083 5.86801181,6.43977083 C6.159247,6.43977083 6.40429166,6.63627629 6.47866624,6.90324188 L6.47944913,6.90793922 C6.48571225,6.9416035 6.4896267,6.97996513 6.4896267,7.01910964 C6.4896267,7.32678552 6.26728586,7.58279065 5.97448489,7.6352443 L5.97057044,7.63602719 L5.8531369,7.63602719 C5.85157112,7.63602719 5.84922245,7.63602719 5.84687378,7.63602719 C5.54780969,7.63602719 5.29806768,7.42699548 5.23543646,7.14672076 L5.23465357,7.14280631 L5.23543646,7.18273371 Z M12.2814491,6.13366072 C12.182022,6.02405608 12.1209565,5.87843849 12.1209565,5.71794598 C12.1209565,5.5308352 12.2039429,5.36329668 12.3354685,5.24977759 L12.3362514,5.2489947 C12.4450731,5.1519163 12.5891249,5.09241664 12.7472688,5.09241664 C12.9328138,5.09241664 13.0987865,5.17383723 13.2123056,5.30301413 L13.2130885,5.30379702 C13.288246,5.40478987 13.3336536,5.53318387 13.3336536,5.67097256 C13.3336536,5.85025444 13.2569304,6.01231273 13.1347995,6.12504893 L13.1340166,6.12504893 C13.0251948,6.21899577 12.8834917,6.27771254 12.7276965,6.28162699 L12.7269136,6.28162699 C12.7089072,6.28397566 12.6869862,6.28475855 12.6658482,6.28475855 C12.5077044,6.28475855 12.3644354,6.22369311 12.2563966,6.12504893 L12.2571795,6.12504893 L12.2814491,6.13366072 Z M5.67385502,5.35077044 C5.35835024,5.32023771 5.11330558,5.05640369 5.11330558,4.73463578 C5.11330558,4.7088004 5.11487136,4.68374791 5.11800292,4.65869542 L5.11800292,4.66182698 C5.15323298,4.3455393 5.41863279,4.10284332 5.7404007,4.10284332 C5.76388741,4.10284332 5.78659122,4.1044091 5.80929504,4.10675777 L5.80616348,4.10675777 C6.12166827,4.14198783 6.36514715,4.40738764 6.36514715,4.72915555 C6.36514715,4.75264225 6.36358137,4.77534607 6.3612327,4.79804989 L6.3612327,4.79491833 C6.32443685,5.1119889 6.05903704,5.35625067 5.73492047,5.35859934 L5.64880253,5.35859934 L5.67385502,5.35077044 Z M10.6530373,4.56788015 C10.5168143,4.45122949 10.4306964,4.27821074 10.4306964,4.08561973 C10.4306964,3.93217323 10.4847158,3.79203587 10.5755311,3.68243123 L10.5747482,3.68321412 C10.690616,3.5477741 10.8612861,3.46243906 11.0523113,3.46243906 C11.2081065,3.46243906 11.3505925,3.51959005 11.4601971,3.61353688 L11.4594143,3.61275399 C11.5964201,3.7254902 11.6833209,3.89537739 11.6833209,4.08483684 C11.6833209,4.24063201 11.625387,4.38233515 11.5298744,4.48959112 L11.5306573,4.48880823 C11.4179211,4.6281627 11.247251,4.71584641 11.0554429,4.71584641 C11.0515284,4.71584641 11.0483969,4.71584641 11.0444824,4.71584641 L11.0452653,4.71584641 C10.876161,4.69940572 10.7289776,4.61485356 10.6311163,4.49037401 L10.6303334,4.48880823 L10.6530373,4.56788015 Z M8.82890289,3.29176898 C8.60343048,3.19155902 8.4492011,2.96921818 8.4492011,2.71086438 C8.4492011,2.620832 8.46799046,2.53549696 8.50165475,2.45799082 L8.50008896,2.46190527 C8.59951603,2.24034732 8.81872531,2.08924949 9.07316466,2.08924949 C9.16319704,2.08924949 9.24931497,2.10803886 9.32682111,2.14248603 L9.32290666,2.14092025 C9.53820149,2.24113021 9.68538486,2.45485926 9.68538486,2.70381837 C9.68538486,2.81029145 9.65876659,2.91050141 9.61101028,2.99740223 L9.61257606,2.99427067 C9.51784634,3.21661151 9.30098573,3.37005801 9.04889506,3.37005801 C8.96669158,3.35596598 8.89309989,3.32856482 8.82655422,3.2902032 L8.82968578,3.29176898 L8.82890289,3.29176898 Z M6.22187822,2.93946835 C6.17255614,2.85256752 6.14280631,2.74844312 6.14280631,2.63727269 C6.14280631,2.39849116 6.27824633,2.19102523 6.47710046,2.08768371 L6.48023202,2.08611793 C6.57183018,2.0320985 6.68143482,2 6.79886837,2 C7.02747233,2 7.22789225,2.12134799 7.33984556,2.30219565 L7.34141134,2.30532721 C7.3930821,2.3953596 7.42361482,2.50261557 7.42361482,2.61770044 C7.42361482,2.85100174 7.29756948,3.05533611 7.10967581,3.16494075 L7.10654425,3.16650653 C7.01964343,3.21974307 6.91395324,3.25184157 6.80121704,3.25262446 C6.78869079,3.25340735 6.77459877,3.25419024 6.76050674,3.25419024 C6.530337,3.25419024 6.32991708,3.1289278 6.22344401,2.94259991 L6.22187822,2.93946835 Z M6.48023202,21.1416676 C6.2884239,21.0344116 6.16081278,20.8324259 6.16081278,20.6006904 C6.16081278,20.4856055 6.19212839,20.3783495 6.24693071,20.2859685 L6.24536493,20.2891 C6.35496957,20.0988577 6.55773816,19.9728124 6.78947368,19.9728124 C6.90299278,19.9728124 7.00946586,20.0033451 7.10184691,20.0557987 L7.09871535,20.0542329 C7.29052347,20.1614889 7.41813459,20.3634746 7.41813459,20.5952101 C7.41813459,20.710295 7.38681897,20.817551 7.33201665,20.909932 L7.33358243,20.9068005 C7.22632647,21.0993915 7.02355788,21.2277855 6.79103946,21.2277855 C6.78869079,21.2277855 6.78712501,21.2277855 6.78477634,21.2277855 C6.67204014,21.2246539 6.56713284,21.1933383 6.47631757,21.1401018 L6.47944913,21.1416676 L6.48023202,21.1416676 Z M8.50791787,20.7345646 C8.47347069,20.66019 8.45389844,20.5732892 8.45389844,20.4809082 C8.45389844,20.2272517 8.60656204,20.0088253 8.82498843,19.9140956 L8.82890289,19.9125298 C8.89388278,19.8874773 8.96982314,19.8726024 9.04811217,19.8726024 C9.29472261,19.8726024 9.50766877,20.0150884 9.61022739,20.2217715 L9.61179317,20.2256859 C9.64467457,20.3000605 9.66424682,20.3861784 9.66424682,20.4777766 C9.66424682,20.7337817 9.513149,20.9537739 9.29472261,21.0539838 L9.29080816,21.0555496 C9.21956514,21.0899968 9.13657877,21.1103519 9.04811217,21.1103519 C9.04263193,21.1103519 9.0371517,21.1103519 9.03167147,21.1103519 L9.03245436,21.1103519 C8.79288993,21.095477 8.59168713,20.9467279 8.50165475,20.7384791 L8.50008896,20.7345646 L8.50791787,20.7345646 Z M10.5825771,19.5837159 C10.4917619,19.4764599 10.4361766,19.3371054 10.4361766,19.1836589 C10.4361766,18.9918508 10.5230775,18.8211807 10.6600833,18.7076616 L10.6608662,18.7068788 C10.7681221,18.612149 10.9098253,18.5534323 11.0656204,18.5534323 C11.2558628,18.5534323 11.4249671,18.6403331 11.5369204,18.7757731 L11.5377033,18.776556 C11.6308672,18.8853777 11.6880182,19.0278638 11.6880182,19.1836589 C11.6880182,19.3746842 11.6026832,19.5453543 11.468026,19.6604391 L11.4672432,19.661222 C11.3568556,19.7512544 11.2151525,19.8068396 11.0609231,19.8099712 L11.0601402,19.8099712 C11.0585744,19.8099712 11.0562258,19.8099712 11.0538771,19.8099712 C10.8612861,19.8099712 10.6890502,19.7222875 10.5755311,19.5837159 L10.5747482,19.582933 L10.5825771,19.5837159 Z M5.10234511,18.6520764 C5.09999644,18.6317213 5.09843066,18.6090175 5.09843066,18.5847479 C5.09843066,18.2653286 5.33799509,18.0014946 5.64723675,17.963133 L5.65036831,17.963133 C5.67228924,17.9600014 5.69812462,17.9584356 5.72396,17.9584356 C6.04494502,17.9584356 6.30877905,18.2026974 6.33931177,18.5158535 L6.33931177,18.5182022 C6.34166044,18.5385573 6.34322622,18.5612612 6.34322622,18.5855308 C6.34322622,18.90495 6.10366179,19.168784 5.79442013,19.2071457 L5.79128857,19.2071457 L5.69734173,19.2071457 C5.38810007,19.1930536 5.13757518,18.9566208 5.10234511,18.6544251 L5.10234511,18.6512935 L5.10234511,18.6520764 Z M12.3205936,17.9944486 C12.1859364,17.8785808 12.1006014,17.7086936 12.1006014,17.5184513 C12.1006014,17.3509128 12.1663642,17.1990321 12.2736202,17.0862959 C12.388705,16.9563361 12.5562436,16.8741326 12.7433543,16.8741326 C12.9030639,16.8741326 13.0486815,16.9336323 13.1590691,17.0314935 L13.1582862,17.0307107 C13.2858973,17.1457955 13.3657521,17.3117683 13.3657521,17.4965304 C13.3657521,17.6578058 13.3046867,17.8049891 13.2044767,17.9161596 L13.2052596,17.9153767 C13.0925234,18.0453365 12.9273335,18.1267571 12.7433543,18.1267571 C12.7370912,18.1267571 12.7300452,18.1267571 12.7229992,18.1267571 C12.5687698,18.1267571 12.4278495,18.070389 12.3198107,17.977225 L12.3205936,17.9780079 L12.3205936,17.9944486 Z M5.73648625,16.8201132 C5.44368528,16.7676595 5.22369311,16.514786 5.22369311,16.2110245 C5.22369311,16.1687484 5.22760756,16.1280381 5.23621935,16.0881107 L5.23543646,16.0920252 C5.288673,15.8000071 5.54076367,15.5807978 5.84452511,15.5807978 C5.88366962,15.5807978 5.92203124,15.5847123 5.95960998,15.5917583 L5.95569553,15.5909754 C6.25867407,15.6348173 6.48806092,15.8923882 6.48806092,16.2031956 C6.48806092,16.2384257 6.48492936,16.2728729 6.47944913,16.3065371 L6.48023202,16.3026227 C6.42621259,16.5985552 6.17099036,16.8193303 5.86331447,16.8193303 C5.86253158,16.8193303 5.86174869,16.8193303 5.86174869,16.8193303 L5.73648625,16.8193303 L5.73648625,16.8201132 Z M6.24536493,14.4714423 C5.99875449,14.380627 5.82573574,14.1481086 5.82573574,13.8748799 C5.82573574,13.8083342 5.83591331,13.7441372 5.85470268,13.6838547 L5.8531369,13.688552 C5.94082061,13.4411587 6.17255614,13.267357 6.44500196,13.267357 C6.51311341,13.267357 6.5788762,13.2783175 6.64072453,13.2986726 L6.63602719,13.2971069 C6.88420341,13.381659 7.05957083,13.6118288 7.05957083,13.8842746 C7.05957083,13.9547347 7.04782748,14.0220633 7.02668944,14.0846945 L7.02825522,14.0799972 C6.94448596,14.3297392 6.71353333,14.5074553 6.4418704,14.5105868 L6.48023202,14.5105868 C6.45439664,14.5129355 6.42386392,14.5145013 6.3933312,14.5145013 C6.34087755,14.5145013 6.28998968,14.5098039 6.2398847,14.501975 L6.24536493,14.5027579 L6.24536493,14.4714423 Z M15.1781431,14.1504573 C14.9894666,14.0424184 14.864987,13.8419985 14.864987,13.6126117 C14.864987,13.495961 14.8970855,13.3871392 14.9526707,13.2947582 L14.9511049,13.2978898 C15.0583609,13.1060816 15.2603466,12.9784705 15.4920821,12.9784705 C15.607167,12.9784705 15.714423,13.0097861 15.806804,13.0645884 L15.8036725,13.0630227 C15.9939148,13.1726273 16.1199601,13.3753959 16.1199601,13.6071314 C16.1199601,13.7206505 16.0894274,13.8271236 16.0369738,13.9195046 L16.0385396,13.9163731 C15.9242376,14.1050496 15.7206861,14.2295292 15.4873848,14.2295292 C15.485819,14.2295292 15.4842532,14.2295292 15.4826874,14.2295292 C15.4662468,14.231095 15.4466745,14.2318779 15.4271022,14.2318779 C15.3370699,14.2318779 15.2509519,14.2138714 15.1726629,14.18099 L15.1773602,14.1825558 L15.1781431,14.1504573 Z M8.13213053,10.0950856 C7.93875663,9.98626383 7.81036262,9.78192947 7.81036262,9.54784527 C7.81036262,9.44137219 7.83698089,9.34194513 7.88317142,9.25426141 L7.88160564,9.25739298 C7.99199317,9.0702822 8.19319597,8.94658553 8.42258283,8.94658553 C8.5376677,8.94658553 8.64570656,8.97790114 8.73808761,9.03192057 L8.73495605,9.03035479 C8.92519839,9.13604498 9.05124373,9.33646489 9.05124373,9.56585175 C9.05124373,9.68328529 9.01757945,9.79367282 8.96042845,9.88683677 L8.96199424,9.8844881 C8.85395538,10.0731647 8.65353546,10.1976442 8.42414861,10.1976442 C8.42336572,10.1976442 8.42258283,10.1976442 8.42179994,10.1976442 C8.41083947,10.1984271 8.39831323,10.1984271 8.38578698,10.1984271 C8.28401125,10.1984271 8.18849863,10.1718088 8.10629515,10.1256183 L8.10942671,10.1271841 L8.13213053,10.0950856 Z M17.2919469,9.88370521 C17.0445536,9.79602149 16.8707519,9.56428597 16.8707519,9.29184015 C16.8707519,9.22372869 16.8817124,9.15796591 16.9020675,9.09611758 L16.9005018,9.10081492 C16.9850539,8.8526387 17.2152237,8.67727127 17.4876695,8.67727127 C17.5581296,8.67727127 17.6254582,8.68901463 17.6880894,8.71015266 L17.6833921,8.70858688 C17.9307854,8.7962706 18.104587,9.02800612 18.104587,9.30045194 C18.104587,9.3685634 18.0936266,9.43432618 18.0732714,9.49617451 L18.0748372,9.49147717 C17.990285,9.74356784 17.7562008,9.92206683 17.4798406,9.92206683 C17.4798406,9.92206683 17.4798406,9.92206683 17.4798406,9.92206683 C17.4540052,9.92598128 17.4250383,9.92832995 17.3952884,9.92832995 C17.3506637,9.92832995 17.3068218,9.92284972 17.2653286,9.91345504 L17.2692431,9.91423793 L17.2919469,9.88370521 Z M9.33778157,8.09871535 C9.17807195,7.9820647 9.07473044,7.79573681 9.07473044,7.58435643 C9.07473044,7.44891641 9.1177894,7.32287107 9.18981531,7.21952955 L9.18824953,7.22187822 C9.3033344,7.06060283 9.48966229,6.95569553 9.70025978,6.95569553 C9.83726558,6.95569553 9.96331091,6.99953738 10.0666524,7.07391196 L10.0650867,7.07234618 C10.2247963,7.18743105 10.3273549,7.37297605 10.3273549,7.58200776 C10.3273549,7.71666489 10.2850788,7.84114444 10.21227,7.94370307 L10.2138358,7.94213729 C10.1003167,8.10419558 9.91555461,8.20831999 9.70574001,8.20831999 C9.70574001,8.20831999 9.70495712,8.20831999 9.70495712,8.20831999 C9.56795132,8.20518843 9.44190598,8.16526102 9.33386712,8.09714957 L9.33699868,8.09871535 L9.33778157,8.09871535 Z M17.9495747,7.63681008 C17.6528593,7.58357354 17.4305185,7.32756841 17.4305185,7.01989253 C17.4305185,6.98074802 17.4344329,6.94238639 17.4406961,6.90480766 L17.4399132,6.90872211 C17.4876695,6.60652646 17.7468062,6.37792249 18.0591794,6.37792249 C18.1171133,6.37792249 18.1742643,6.3857514 18.2275008,6.40062631 L18.2228035,6.39984342 C18.5156044,6.45621152 18.7340308,6.71065087 18.7340308,7.01519519 C18.7340308,7.05512259 18.7301164,7.09348422 18.7230704,7.13184584 L18.7238532,7.12793139 C18.6729654,7.42308103 18.4193089,7.64463898 18.1139817,7.64463898 C18.1108501,7.64463898 18.1077186,7.64463898 18.1053699,7.64463898 L17.9965482,7.64463898 L17.9495747,7.63681008 Z M10.7469841,6.18063414 C10.6138927,6.06476638 10.5309064,5.89566208 10.5309064,5.70698552 C10.5309064,5.54962457 10.5888403,5.40557276 10.6851358,5.29518522 L10.6843529,5.29596812 C10.8017864,5.16679122 10.9708907,5.08615352 11.1587844,5.08615352 C11.318494,5.08615352 11.4648945,5.14487029 11.5776307,5.24194869 L11.5768478,5.24116579 C11.7075905,5.35781645 11.789794,5.52692075 11.789794,5.71559731 C11.789794,5.87217537 11.732643,6.01622718 11.6386961,6.12661471 L11.639479,6.12583182 C11.5228284,6.25422583 11.3560727,6.33564642 11.1697448,6.3372122 C11.1681791,6.3372122 11.1658304,6.3372122 11.1634817,6.3372122 C11.0061208,6.3372122 10.8628519,6.27771254 10.754813,6.17985125 L10.7555959,6.18063414 L10.7469841,6.18063414 Z M17.5737874,4.7166293 C17.5722216,4.69862282 17.5706558,4.67826768 17.5706558,4.65712964 C17.5706558,4.33379595 17.8133518,4.06683036 18.126508,4.02768585 L18.1296395,4.02768585 C18.1499947,4.02533718 18.1726985,4.0237714 18.1969681,4.0237714 C18.5210847,4.0237714 18.7880502,4.26646739 18.8264119,4.58040639 L18.8264119,4.58353795 C18.8287605,4.60545888 18.8303263,4.63051137 18.8303263,4.65634675 C18.8303263,4.98046333 18.5813672,5.24586314 18.2642966,5.27248141 L18.261948,5.27248141 L18.2228035,5.27248141 C18.2165403,5.27248141 18.2094943,5.27248141 18.2024483,5.27248141 C17.8798975,5.27248141 17.6129319,5.0313512 17.5737874,4.71976086 L17.5737874,4.7166293 Z M12.3832248,4.4426177 C12.2900609,4.33379595 12.2329099,4.19130992 12.2329099,4.03551475 C12.2329099,3.84448952 12.3182449,3.67381944 12.452902,3.55873456 L12.4536849,3.55795167 C12.5609409,3.4671364 12.7002954,3.41155119 12.8537419,3.41155119 C13.04555,3.41155119 13.2162201,3.49845201 13.3297392,3.63545781 L13.330522,3.6362407 C13.4252518,3.74349667 13.4839685,3.88519981 13.4839685,4.04099498 C13.4839685,4.23123732 13.3970677,4.40034162 13.2616277,4.51229494 L13.2608448,4.51307783 C13.1504573,4.6038931 13.0087541,4.65947831 12.8545248,4.66182698 L12.8537419,4.66182698 C12.8537419,4.66182698 12.852959,4.66182698 12.852959,4.66182698 C12.6650653,4.66182698 12.4967439,4.57727483 12.3847906,4.44340059 L12.3840077,4.4426177 L12.3832248,4.4426177 Z M14.3091349,2.99427067 C14.2699904,2.91598164 14.2465037,2.82281769 14.2465037,2.72495641 C14.2465037,2.47521441 14.3960357,2.26070247 14.6105477,2.16597274 L14.6144621,2.16440696 C14.6904025,2.12995979 14.7788691,2.11038753 14.872033,2.11038753 C15.1264724,2.11038753 15.3464645,2.2583538 15.4505889,2.47364862 L15.4521547,2.47756308 C15.4826874,2.54880609 15.5006939,2.63257535 15.5006939,2.72025907 C15.5006939,2.98800754 15.3323725,3.21661151 15.0959396,3.305861 L15.0912423,3.30742678 C15.0153019,3.34030817 14.9268353,3.36066332 14.8336714,3.3622291 L14.8328885,3.3622291 C14.5988043,3.34422263 14.4022989,3.20017081 14.3099178,2.99818512 L14.308352,2.99427067 L14.3091349,2.99427067 Z M16.884844,3.16650653 C16.6914701,3.05925056 16.563076,2.85648198 16.563076,2.62396356 C16.563076,2.51279314 16.5928259,2.40866873 16.6437137,2.31785346 L16.642148,2.32098502 C16.7517526,2.1291769 16.9553041,2.00156578 17.1878225,2.00156578 C17.2794207,2.00156578 17.3663215,2.02113804 17.4446105,2.0563681 L17.4406961,2.05480232 C17.4406961,2.05480232 17.4406961,2.05480232 17.4406961,2.05480232 C17.6278068,2.16518985 17.7515035,2.36639266 17.7515035,2.59577951 C17.7515035,2.71086438 17.7201879,2.81890324 17.6661685,2.9112843 L17.6677342,2.90815273 C17.5596954,3.09682929 17.3592755,3.22130885 17.1298886,3.22130885 C17.1291057,3.22130885 17.1283228,3.22130885 17.1275399,3.22130885 C17.1189282,3.22130885 17.1095335,3.22209174 17.1001388,3.22209174 C17.0077577,3.22209174 16.9208569,3.20173659 16.8425679,3.16494075 L16.8464823,3.16650653 L16.884844,3.16650653 Z M11.960464,9.68015373 C11.9581154,9.68015373 11.9557667,9.68015373 11.9526351,9.68015373 C10.8847728,9.68015373 10.0188961,10.5460304 10.0188961,11.6138927 C10.0188961,12.6817551 10.8847728,13.5476318 11.9526351,13.5476318 C13.0204975,13.5476318 13.8863742,12.6817551 13.8863742,11.6138927 C13.8863742,11.6115441 13.8863742,11.6084125 13.8863742,11.605281 L13.8863742,11.6060638 C13.8816768,10.5444646 13.0220633,9.68485107 11.9612469,9.68015373 L11.960464,9.68015373 Z" id="Shape"></path>
        </g>
    </g>
</svg>