<?xml version="1.0" encoding="UTF-8"?>
<svg width="24px" height="24px" viewBox="0 0 24 24" version="1.1" xmlns="http://www.w3.org/2000/svg" xmlns:xlink="http://www.w3.org/1999/xlink">
    <!-- Generator: Sketch 48.2 (47327) - http://www.bohemiancoding.com/sketch -->
    <title>pay-u</title>
    <desc>Created with Sketch.</desc>
    <defs></defs>
    <g id="Page-1" stroke="none" stroke-width="1" fill="none" fill-rule="evenodd">
        <g id="pay-u" fill="#000000" fill-rule="nonzero">
            <path d="M22.1076557,3.11894209 C22.1076557,3.19627922 22.1076557,3.27361636 22.1308569,3.37415464 C22.1308569,4.02378659 22.1308569,4.68115226 22.1308569,5.33078422 C21.9993837,5.41585507 21.8756443,5.55506192 21.7519049,5.55506192 C21.1409415,5.55506192 20.5222444,5.55506192 19.9190147,5.55506192 C19.5941988,5.56279563 19.4704593,5.40812135 19.4704593,5.10650652 C19.4704593,4.51101056 19.4704593,3.90778089 19.4704593,3.31228493 C19.4704593,3.02613752 19.5941988,2.87146325 19.8803462,2.87146325 C20.5145107,2.87146325 21.1332078,2.87146325 21.7596386,2.87146325 C21.8756443,2.87146325 21.99165,2.98746895 22.1076557,3.04933866 L22.1076557,3.04779192 C22.1084291,3.05939249 22.1084291,3.07176643 22.1084291,3.08414038 C22.1084291,3.09651432 22.1084291,3.10888826 22.1076557,3.11894209 Z M18.6274845,5.57826306 L18.6267112,5.57903643 C19.1680711,5.57903643 19.4232837,5.81878155 19.361414,6.34467409 C19.361414,7.35779059 19.361414,8.40184194 19.361414,9.43815958 C19.361414,10.0027207 19.1526037,10.211531 18.5880426,10.211531 L16.9948976,10.211531 C16.9948976,9.40722473 16.9948976,8.57198365 16.9948976,7.79861227 L16.9948976,7.80170576 C16.9964443,7.7815981 16.9972177,7.76071707 16.9972177,7.74060942 C16.9972177,7.33072259 16.7304046,6.98425221 16.3537727,6.86283291 L16.4589512,6.88294056 C15.9121776,6.75920114 15.3538035,6.66407647 14.7142254,6.59215293 L14.7142254,9.68563842 L14.7149988,9.69027865 C14.7869223,10.0150946 15.0769366,10.2579332 15.4241803,10.2579332 C15.4628489,10.2579332 15.4999707,10.2548398 15.5332257,10.2494262 C16.0204496,10.2494262 16.5154073,10.2494262 17.010365,10.2494262 C17.010365,10.2726273 17.010365,10.3267633 17.010365,10.3267633 L17.010365,17.2097685 L17.010365,17.2035816 C17.0111384,17.2453436 17.0119117,17.287879 17.0119117,17.3296411 C17.0119117,19.5801518 15.6121096,21.5042998 13.5997972,22.2908184 L13.6748143,22.2652972 C12.449794,22.7393738 11.1172751,23 9.72443328,23 C9.25113,23 8.78401369,22.9698385 8.38031384,22.9172493 L8.35711269,22.9164759 C7.14291964,22.8491926 5.9929164,22.539844 5.00841465,22.058807 L4.97747979,22.0456597 C3.26678231,21.2490872 2.07811051,19.5213756 2.06186971,17.5113834 C2,14.4178979 2,11.3244124 2,8.23092687 C2,7.13273952 2.43308797,6.72285269 3.54674275,6.72285269 L5.01614836,6.72285269 C6.21487399,6.72285269 6.64022824,7.14047323 6.64022824,8.33919886 L6.64022824,16.6452074 L6.64022824,16.6428873 C6.64022824,16.6591281 6.64022824,16.6745955 6.64022824,16.6908363 C6.64022824,16.9700234 6.66806961,17.2430235 6.71756538,17.4804485 L6.71911212,17.4905023 C6.83821132,18.1594686 7.34399619,18.6938682 8.00909558,18.8570495 L7.97197375,18.8477691 C8.45301075,18.9916162 8.96266248,19.0689533 9.49010176,19.0689533 C10.017541,19.0689533 10.5279661,18.9916162 10.9711079,18.8570495 L10.9827085,18.8547294 C11.8009354,18.6845877 12.4157657,17.9591654 12.4157657,17.0906693 C12.4157657,17.0373067 12.4134456,16.9847175 12.4095787,16.9390885 L12.4095787,8.61761256 C12.4095787,7.06313609 12.8194655,6.66871669 14.3662083,6.75378755 C14.6523557,6.76925497 14.7606277,6.66871669 14.7606277,6.35163443 C14.7606277,5.81800818 15.0081065,5.57826306 15.533999,5.57826306 C16.5471155,5.57826306 17.5834332,5.57826306 18.6274845,5.57826306 Z M17.7303737,1.00763824 C18.6816205,1.01537195 18.6584194,0.837496533 18.6506857,1.92795017 C18.642952,2.84826211 18.8285611,2.84052839 17.72264,2.84826211 C16.616719,2.85599582 16.7945944,2.84052839 16.7945944,1.93568388 C16.7868607,0.852963961 16.7017898,1.00763824 17.7303737,1.00763824 Z" id="Combined-Shape"></path>
        </g>
    </g>
</svg>