<?xml version="1.0" encoding="UTF-8"?>
<svg width="24px" height="24px" viewBox="0 0 24 24" version="1.1" xmlns="http://www.w3.org/2000/svg" xmlns:xlink="http://www.w3.org/1999/xlink">
    <!-- Generator: Sketch 48.2 (47327) - http://www.bohemiancoding.com/sketch -->
    <title>paypal</title>
    <desc>Created with Sketch.</desc>
    <defs></defs>
    <g id="Page-1" stroke="none" stroke-width="1" fill="none" fill-rule="evenodd">
        <g id="paypal" fill="#000000" fill-rule="nonzero">
            <path d="M20.7310122,6.58536 C20.4186122,6.23072 20.0270122,5.928 19.5676522,5.68424 L19.2851722,5.53464 C19.3388522,4.33256 19.0317322,3.43056 18.3022122,2.59896 C17.3192522,1.47872 15.5451722,1 13.2747722,1 L6.68357224,1 C6.21981224,1 5.82381224,1.33704 5.75253224,1.7964 L3.00693224,19.19752 C2.95325224,19.5416 3.21813224,19.85224 3.56573224,19.85224 L6.82965224,19.85224 L6.56829224,21.50928 C6.51021224,21.8824 6.61757224,22.26168 6.86309224,22.54856 C7.10861224,22.83544 7.46589224,23 7.84341224,23 L11.2727722,23 C12.0691722,23 12.7388522,22.4324 12.8708522,21.6492 L12.9025322,21.48552 L13.5510922,17.37064 L13.5906922,17.15592 L13.5942122,17.1348 C13.5968522,17.11984 13.6082922,17.11016 13.6232522,17.11016 L14.1362922,17.11016 C16.0749322,17.11016 17.6782922,16.66928 18.9006122,15.80072 C20.2927722,14.81072 21.2018122,13.2672 21.6022122,11.21328 C21.9867722,9.23944 21.6946122,7.68272 20.7310122,6.58536 Z M20.0402122,10.90968 C19.7163722,12.572 19.0422922,13.74768 17.9792522,14.5036 C17.0314922,15.17768 15.7387722,15.51912 14.1371722,15.51912 L13.6241322,15.51912 C12.8250922,15.51912 12.1545322,16.08936 12.0251722,16.87608 L11.9855722,17.09256 L11.3387722,21.19688 L11.3079722,21.35704 L11.3035722,21.38344 C11.3009322,21.3984 11.2886122,21.40896 11.2745322,21.40896 L8.19717224,21.40896 L9.41245224,13.6984 C9.42389224,13.62536 9.48197224,13.57432 9.55413224,13.57432 L11.4874922,13.57432 C13.6795722,13.57432 15.4897322,13.078 16.8669322,12.09856 C18.2212522,11.13584 19.1690122,9.70584 19.6934922,7.8376 C20.1906922,8.54776 20.3033322,9.55624 20.0402122,10.90968 Z" id="Shape"></path>
        </g>
    </g>
</svg>