<svg xmlns="http://www.w3.org/2000/svg" width="64" height="64" viewBox="0 0 64 64">
  <title>paypal</title>
  <path d="M53.44,29.09c-.86,4.44-2.66,7.57-5.5,9.59-2.52,1.79-6,2.7-10.24,2.7H36.33A4.3,4.3,0,0,0,32.07,45l-.11.58-1.72,11-.09.42V57a.08.08,0,0,1-.07.07H21.86L25.1,36.53a.38.38,0,0,1,.38-.33h5.15c5.85,0,10.68-1.33,14.35-3.94A20.05,20.05,0,0,0,52.52,20.9C53.84,22.79,54.14,25.48,53.44,29.09Zm1.84-11.53a10.89,10.89,0,0,0-3.1-2.4l-.75-.4a10.36,10.36,0,0,0-2.62-7.83c-2.63-3-7.36-4.26-13.41-4.26H17.82a2.51,2.51,0,0,0-2.48,2.12L8,51.19a1.51,1.51,0,0,0,1.49,1.75h8.7l-.69,4.42a3.43,3.43,0,0,0,3.4,4h9.14a4.3,4.3,0,0,0,4.26-3.6l.09-.44,1.73-11,.1-.57v-.06a.08.08,0,0,1,.08-.06H37.7c5.17,0,9.44-1.18,12.7-3.49,3.71-2.64,6.14-6.76,7.21-12.24C58.63,24.64,57.85,20.49,55.28,17.56Z"/>
</svg>
