<svg xmlns="http://www.w3.org/2000/svg" width="64" height="64" viewBox="0 0 64 64">
  <title>payu</title>
  <path d="M47.28,2.69c2.54,0,2.48-.46,2.46,2.45,0,2.46.47,2.43-2.48,2.46s-2.47,0-2.47-2.44C44.77,2.27,44.54,2.69,47.28,2.69Zm2.39,12.19h0c1.44,0,2.13.64,2,2v8.25c0,1.5-.56,2.06-2.06,2.06H45.32V20.8h0c0-.05,0-.1,0-.16a2.46,2.46,0,0,0-1.72-2.34l.28.05a41.74,41.74,0,0,0-4.65-.77v8.25h0a1.93,1.93,0,0,0,1.89,1.51,1.37,1.37,0,0,0,.29,0h3.94V45.89h0c0,.11,0,.22,0,.33a14.21,14.21,0,0,1-9.1,13.23l.2-.07a29,29,0,0,1-10.54,2,28.31,28.31,0,0,1-3.58-.22h-.06a23.26,23.26,0,0,1-8.93-2.29l-.09,0A13.45,13.45,0,0,1,5.5,46.7C5.33,38.45,5.33,30.2,5.33,22c0-2.93,1.16-4,4.13-4h3.92c3.19,0,4.33,1.11,4.33,4.31V44.39h0v.13a10.62,10.62,0,0,0,.2,2.1v0a4.59,4.59,0,0,0,3.44,3.65l-.1,0a14.2,14.2,0,0,0,8,0h0a4.81,4.81,0,0,0,3.82-4.7c0-.15,0-.29,0-.41V23c0-4.15,1.1-5.2,5.22-5,.76,0,1-.23,1-1.07a1.79,1.79,0,0,1,2.06-2.06ZM59,8.32A2.49,2.49,0,0,0,59,9v5.22c-.35.22-.69.59-1,.59H53.12c-.87,0-1.2-.39-1.2-1.19V8.83c0-.76.33-1.17,1.09-1.17h5c.3,0,.61.31.92.47h0a.28.28,0,0,1,0,.09A.31.31,0,0,1,59,8.32Z"/>
</svg>
