<?xml version="1.0" encoding="UTF-8"?>
<svg width="24px" height="24px" viewBox="0 0 24 24" version="1.1" xmlns="http://www.w3.org/2000/svg" xmlns:xlink="http://www.w3.org/1999/xlink">
    <!-- Generator: Sketch 48.2 (47327) - http://www.bohemiancoding.com/sketch -->
    <title>percona</title>
    <desc>Created with Sketch.</desc>
    <defs></defs>
    <g id="Page-1" stroke="none" stroke-width="1" fill="none" fill-rule="evenodd">
        <g id="percona" fill="#000000" fill-rule="nonzero">
            <path d="M12.003909,1 L12.0046908,1 L12.0054726,1 C18.0746269,1.00625444 22.9937456,5.92850036 22.9937456,12 C22.9937456,18.0754087 18.0691542,23 11.9937456,23 C10.6427861,23 9.34811656,22.7560768 8.22857143,22.3354655 L8.22857143,17.1208244 L8.21137171,17.1090974 C9.27071784,17.8963753 10.5833689,18.3623312 12.0046908,18.3623312 C15.5196873,18.3623312 18.3685856,15.5134328 18.3685856,11.9984364 C18.3685856,8.48343994 15.5196873,5.63454158 12.0046908,5.63454158 C8.48969439,5.63454158 5.64079602,8.48343994 5.64079602,11.9984364 C5.64079602,11.9992182 5.64079602,11.9992182 5.64079602,12 L5.64079602,20.9751244 L5.60717839,20.952452 C2.81769723,18.957285 1,15.6909026 1,12 C1,5.92459133 5.92459133,1 12,1 C12.0015636,1 12.0023454,1 12.003909,1 Z M15.7800284,12 C15.7800284,14.0858564 14.0897655,15.7761194 12.003909,15.7761194 C9.91805259,15.7761194 8.22778962,14.0858564 8.22778962,12 C8.22778962,9.91414357 9.91805259,8.2238806 12.003909,8.2238806 C14.0897655,8.2238806 15.7800284,9.91414357 15.7800284,12 Z" id="Combined-Shape"></path>
        </g>
    </g>
</svg>