<?xml version="1.0" encoding="UTF-8"?>
<svg width="24px" height="24px" viewBox="0 0 24 24" version="1.1" xmlns="http://www.w3.org/2000/svg" xmlns:xlink="http://www.w3.org/1999/xlink">
    <!-- Generator: Sketch 48.2 (47327) - http://www.bohemiancoding.com/sketch -->
    <title>php</title>
    <desc>Created with Sketch.</desc>
    <defs></defs>
    <g id="Page-1" stroke="none" stroke-width="1" fill="none" fill-rule="evenodd">
        <g id="php" fill="#000000" fill-rule="nonzero">
            <path d="M12.0138974,5.0580421 C12.8379317,5.0580421 13.6505212,5.10300429 14.4508482,5.1896587 L14.3519313,5.18066626 C15.7351318,5.31882281 17.0006131,5.58369099 18.2121398,5.96954833 L18.0797057,5.93276109 C19.3648069,6.3235234 20.4855917,6.86388719 21.5009197,7.54731249 L21.4559575,7.51870018 C22.1941549,8.00756182 22.8113632,8.61414265 23.2969548,9.3196403 L23.3116697,9.34171265 C23.6705498,9.86327406 23.9108931,10.4927447 23.9803801,11.1720826 L23.9820151,11.1892499 C23.99346,11.2996117 24,11.4271408 24,11.5563049 C24,12.2511751 23.8144288,12.9027182 23.4898835,13.4635193 L23.4996934,13.4447169 C23.1342735,14.0839975 22.6764766,14.6259963 22.1361128,15.0715308 L22.1263029,15.0797057 C21.3006336,15.7639485 20.3466176,16.3321071 19.3116697,16.7392193 L19.2405477,16.7637441 C18.5791948,17.0416922 17.7805028,17.3024729 16.9572859,17.5011241 L16.8452892,17.5240139 C16.1912937,17.6711629 15.5372982,17.793787 14.8751277,17.8755365 C14.0241161,17.9940732 13.0406703,18.0611077 12.0408747,18.0611077 C11.8642959,18.0611077 11.6885346,18.0586552 11.5135908,18.0545677 L11.5397507,18.0553852 C10.6805641,18.0390354 9.85407725,17.9744533 9.04312283,17.8632741 L9.15266708,17.8755365 C7.73431433,17.6948702 6.45330063,17.3817699 5.23114654,16.9444104 L5.35949315,16.9844676 C4.42019211,16.6582873 3.61005518,16.26916 2.85387288,15.8007357 L2.90701001,15.8318005 C2.12712038,15.3592888 1.46740241,14.7764153 0.923768649,14.0970775 L0.912323728,14.0823626 C0.46842428,13.5305539 0.157776415,12.852851 0.040874719,12.1113836 L0.0376047415,12.0876763 C0.0130799101,11.9290824 0,11.7451461 0,11.5587574 C0,11.0535459 0.101369303,10.5720417 0.28367055,10.1338647 L0.274678112,10.1583895 C0.587778459,9.41201717 1.04230533,8.781729 1.61046393,8.27406499 L1.61536889,8.26997752 C2.33558144,7.617617 3.16615573,7.06907828 4.07357449,6.65951359 L4.13325158,6.63498876 C5.16247701,6.14530963 6.36092377,5.74473738 7.61250766,5.49131412 L7.71387697,5.47414674 C8.40874719,5.32127529 9.24749642,5.19946863 10.1025955,5.13488657 L10.1663601,5.1307991 L12.0138974,5 L12.0138974,5.0580421 Z M12.1855712,6.05538524 C12.1267116,6.05456775 12.0572246,6.05456775 11.9877376,6.05456775 C10.8048232,6.05456775 9.64479869,6.15266708 8.51583895,6.34232577 L8.63764562,6.32515839 C7.37543429,6.52544451 6.24729205,6.83854486 5.17637441,7.26282444 L5.28591866,7.22440221 C4.36541999,7.5742898 3.56918046,8.01573677 2.84733292,8.55119559 L2.87431024,8.53239321 C2.28489679,8.94931535 1.80012262,9.47251175 1.4404251,10.0790926 L1.42734519,10.1019824 C1.17555692,10.5148171 1.02595545,11.0134887 1.02595545,11.54813 C1.02595545,12.0173718 1.14122215,12.4596362 1.34477825,12.847946 L1.33742081,12.8324137 C1.64643368,13.4169221 2.05191089,13.9090538 2.53913754,14.3055385 L2.54731249,14.3120785 C3.35254445,14.967709 4.28694053,15.5072553 5.29981606,15.8841202 L5.3676681,15.9061925 C5.98978132,16.1538933 6.74432863,16.3844267 7.52094829,16.556918 L7.62395259,16.5765379 C8.50112405,16.778459 9.5417944,16.9296955 10.6053546,16.998365 L10.6650317,17.001635 C11.0844063,17.0310648 11.5740854,17.0474147 12.0670345,17.0474147 C12.5599837,17.0474147 13.0496628,17.0310648 13.534437,16.9975475 L13.4690374,17.0008175 C14.3936235,16.933783 15.2331903,16.8201512 16.0564071,16.6599223 L15.9215205,16.6819947 C17.094625,16.4514613 18.1271204,16.1326385 19.1097486,15.7189863 L19.0034744,15.758226 C19.7694666,15.4459432 20.4283671,15.0813407 21.0374004,14.6497037 L21.0063356,14.6709585 C21.6153689,14.2581239 22.1205804,13.7406499 22.5064378,13.138974 L22.5187002,13.1177192 C22.7974658,12.6975271 22.9715921,12.1857756 22.9928469,11.6356019 L22.9928469,11.6298794 C22.9928469,11.6233395 22.9928469,11.6151645 22.9928469,11.6061721 C22.9928469,11.0077662 22.8162681,10.450235 22.5113427,9.98344574 L22.5187002,9.99489066 C22.1369303,9.40629471 21.6603311,8.91416309 21.1052524,8.52667075 L21.088085,8.51522583 C20.2918455,7.9388923 19.3746168,7.45657061 18.3911711,7.11567545 L18.3167791,7.09278561 C17.2254241,6.71101574 15.9509503,6.42325772 14.6331494,6.28183119 L14.5563049,6.27529123 C13.8671572,6.16247701 13.0496628,6.08318005 12.218271,6.05538524 L12.1855712,6.05456775 L12.1855712,6.05538524 Z M5.59656652,13.0449622 L5.32679338,14.5409769 L4.01062743,14.5409769 L5.01614551,9.08828939 L5.06519518,9.08828939 C5.96443899,9.08828939 6.87185776,9.08828939 7.77110157,9.08828939 C8.06785203,9.08910689 8.3490701,9.15532393 8.60085837,9.27304312 L8.58859595,9.26813816 C9.08972001,9.47823421 9.4396076,9.95483344 9.46331494,10.5164521 L9.46331494,10.5189046 C9.46658492,10.5671367 9.46821991,10.6243613 9.46821991,10.6815859 C9.46821991,11.3143266 9.23768649,11.8922951 8.85509912,12.3370121 L8.8575516,12.3337421 C8.56897609,12.6525649 8.17984876,12.8757409 7.74167178,12.9534028 L7.72940936,12.9550378 C7.38197425,13.0343348 6.98303699,13.0801144 6.57265481,13.0801144 C6.5162477,13.0801144 6.46065808,13.079297 6.40506847,13.077662 L6.41324341,13.077662 C6.15164521,13.0531371 5.87369712,13.0449622 5.59574903,13.0449622 L5.59656652,13.0449622 Z M5.77641529,12.047619 L6.29143675,12.047619 C6.59390967,12.047619 6.89638259,12.047619 7.19885551,12.047619 C7.50214592,12.0222767 7.76374412,11.8612303 7.92397302,11.6257919 L7.92642551,11.622522 C8.09564684,11.3879011 8.19701615,11.0944206 8.19701615,10.7772328 C8.19701615,10.7208257 8.19374617,10.6652361 8.18720621,10.6096464 L8.18802371,10.6161864 C8.17167382,10.45187 8.08174944,10.3104435 7.95258533,10.2246066 L7.95095034,10.2229716 C7.81524627,10.1322297 7.64929491,10.0750051 7.47026364,10.0676477 L7.46862865,10.0676477 C7.10075618,10.0676477 6.72470877,10.0676477 6.34866135,10.0676477 L6.1524627,10.0676477 C6.02983854,10.7216432 5.90721439,11.3756387 5.77641529,12.0459841 L5.77641529,12.047619 Z M15.5127733,9.08828939 L15.561823,9.08828939 C16.4610668,9.08828939 17.3521357,9.08828939 18.2513795,9.08828939 C18.2652769,9.08828939 18.2816268,9.0874719 18.2979767,9.0874719 C18.7010014,9.0874719 19.0737789,9.21663601 19.3770693,9.43490701 L19.3713468,9.43081954 C19.7253219,9.67361537 19.9566728,10.0717351 19.9681177,10.524627 L19.9681177,10.526262 C19.9713877,10.5736767 19.9730227,10.6284488 19.9730227,10.6840384 C19.9730227,11.3061516 19.7449418,11.8751277 19.3688943,12.3116697 L19.3713468,12.3083998 C19.0860413,12.6215001 18.7034539,12.8414061 18.2718169,12.9198856 L18.2595545,12.9215205 C17.9096669,13.0008175 17.5082771,13.0465972 17.09626,13.0465972 C17.0423053,13.0465972 16.9891682,13.0457797 16.9352136,13.0441447 L16.9433885,13.0441447 C16.6654404,13.0441447 16.3874923,13.0441447 16.1258941,13.0441447 C16.0359698,13.5509912 15.9460454,14.0414878 15.8642959,14.5401594 L14.4663805,14.5401594 C14.834253,12.708972 15.1694257,10.8859595 15.5127733,9.0874719 L15.5127733,9.08828939 Z M16.2730431,12.0803188 L16.7390149,12.0803188 C17.0414878,12.0803188 17.3521357,12.0803188 17.6546086,12.0803188 C17.9587165,12.0713264 18.2260372,11.9233599 18.3968935,11.6985489 L18.3985285,11.6960965 C18.5677498,11.4582056 18.6683017,11.1614551 18.6683017,10.8409973 C18.6683017,10.7854077 18.6650317,10.7298181 18.6593092,10.675046 L18.6601267,10.6815859 C18.6437768,10.5172696 18.5538524,10.375843 18.4246883,10.2900061 L18.4230533,10.2883711 C18.2898018,10.1984468 18.1263029,10.1412222 17.9513591,10.1330472 L17.9489066,10.1330472 C17.5728592,10.1330472 17.1886368,10.1330472 16.8125894,10.1330472 L16.6490905,10.1330472 C16.5182914,10.7216432 16.3956673,11.3756387 16.2730431,12.0459841 L16.2730431,12.0803188 Z M14.0903331,13.0531371 C14.2456571,12.3582669 14.392806,11.6633967 14.539955,10.9767014 C14.6053546,10.7339056 14.6470468,10.4526875 14.6544043,10.164112 L14.6544043,10.159207 C14.6552217,10.1444921 14.6560392,10.1281422 14.6560392,10.1109749 C14.6560392,9.65726548 14.3404864,9.27794809 13.9170243,9.17903127 L13.9104844,9.17739628 C13.671776,9.1169017 13.3979154,9.08174944 13.1158798,9.08174944 C13.0472103,9.08174944 12.9793583,9.08338443 12.9123237,9.0874719 L12.9213162,9.0866544 C12.5370938,9.0866544 12.1446965,9.0866544 11.7522992,9.0866544 L11.6623748,9.0866544 C11.8013489,8.40813407 11.9403229,7.75413857 12.079297,7.09196812 L10.7713059,7.09196812 L9.56141427,13.0433272 L10.8694053,13.0433272 C11.0819538,12.0459841 11.2863274,11.0486409 11.4988759,10.0512978 L12.6678929,10.0512978 C12.8150419,10.0635602 12.9515635,10.09299 13.0807276,10.1363172 L13.0684652,10.1330472 C13.1919068,10.1600245 13.2842837,10.2654813 13.2891886,10.3938279 L13.2891886,10.3946454 C13.2973636,10.45514 13.3014511,10.524627 13.3014511,10.5949315 C13.3014511,10.6652361 13.2973636,10.7347231 13.2883711,10.8033926 L13.2891886,10.7952177 C13.1583895,11.4165134 13.0194155,12.0459841 12.8804414,12.6754547 L12.806867,13.0433272 L14.1312078,13.0433272 L14.0903331,13.0531371 Z" id="Shape"></path>
        </g>
    </g>
</svg>