<svg xmlns="http://www.w3.org/2000/svg" width="64" height="64" viewBox="0 0 64 64">
  <title>php</title>
  <path d="M37.57,34.81c.42-1.85.81-3.71,1.2-5.54a9.16,9.16,0,0,0,.31-2.17h0V27a2.54,2.54,0,0,0-2-2.48h0A8.72,8.72,0,0,0,35,24.22H31.1c.37-1.81.74-3.55,1.11-5.32H28.72L25.5,34.78H29c.56-2.66,1.11-5.32,1.67-8h3.12a4.77,4.77,0,0,1,1.1.23h0a.75.75,0,0,1,.59.7h0a4.45,4.45,0,0,1,0,.53,5.12,5.12,0,0,1,0,.56v0c-.35,1.65-.72,3.33-1.09,5l-.2,1h3.53Zm5.82-2.6h3.69a2.56,2.56,0,0,0,2-1h0a3.94,3.94,0,0,0,.72-2.28c0-.15,0-.3,0-.44h0a1.41,1.41,0,0,0-.63-1h0A2.46,2.46,0,0,0,47.87,27H44.4c-.35,1.57-.68,3.31-1,5.1Zm-2-8h7.42a4.93,4.93,0,0,1,2.88.93h0a3.65,3.65,0,0,1,1.59,2.92h0c0,.13,0,.27,0,.42a6.63,6.63,0,0,1-1.61,4.34h0a5.2,5.2,0,0,1-2.94,1.63h0a14.31,14.31,0,0,1-3.1.33H43c-.24,1.36-.48,2.66-.7,4H38.58c1-4.88,1.87-9.74,2.79-14.54Zm-26,7.89h3.8A2.6,2.6,0,0,0,21.13,31h0a3.82,3.82,0,0,0,.72-2.25,3.4,3.4,0,0,0,0-.45v0a1.39,1.39,0,0,0-.62-1h0a2.49,2.49,0,0,0-1.28-.41H16.41c-.33,1.74-.66,3.48-1,5.27Zm-.48,2.66-.72,4H10.69l2.69-14.54h7.34a5.19,5.19,0,0,1,2.22.49l0,0A3.82,3.82,0,0,1,25.24,28h0c0,.13,0,.28,0,.43a6.76,6.76,0,0,1-1.64,4.42h0a5.22,5.22,0,0,1-3,1.65h0a14.12,14.12,0,0,1-3.08.33H17.1c-.7-.06-1.44-.08-2.18-.08ZM32.49,16.15H32a56.45,56.45,0,0,0-9.26.76l.32,0a43,43,0,0,0-9.23,2.5l.3-.1A26.86,26.86,0,0,0,7.59,22.8l.07-.05a13.43,13.43,0,0,0-3.82,4.13l0,.06a7.48,7.48,0,0,0-.22,7.32l0,0a12.57,12.57,0,0,0,3.2,3.93l0,0a26.43,26.43,0,0,0,7.34,4.19l.18.06a38.44,38.44,0,0,0,5.75,1.73l.27.05a50.35,50.35,0,0,0,8,1.13h.16c1.12.08,2.42.12,3.74.12s2.62,0,3.91-.13h-.17a59.39,59.39,0,0,0,6.9-.91l-.36.06A43.38,43.38,0,0,0,51,41.92l-.28.1a26.41,26.41,0,0,0,5.42-3l-.08,0A14.25,14.25,0,0,0,60,35l0-.06A7.64,7.64,0,0,0,61.31,31V31A7.92,7.92,0,0,0,60,26.62l0,0a14.06,14.06,0,0,0-3.77-3.91l-.05,0A27.38,27.38,0,0,0,49,19l-.2-.07A45.24,45.24,0,0,0,39,16.75l-.2,0a49.51,49.51,0,0,0-6.24-.58ZM32,13.49a60.83,60.83,0,0,1,6.5.35l-.27,0a49.46,49.46,0,0,1,10.3,2.1l-.36-.1a33.43,33.43,0,0,1,9.13,4.31l-.12-.08a18.1,18.1,0,0,1,4.91,4.8l0,.06A10.54,10.54,0,0,1,64,29.79v.05a9.71,9.71,0,0,1,0,1,10,10,0,0,1-1.36,5.08l0,0A15.7,15.7,0,0,1,59,40.19l0,0a27.6,27.6,0,0,1-7.5,4.43l-.19.06a41.5,41.5,0,0,1-6.09,2l-.3.06c-1.74.39-3.49.72-5.25.94a57.05,57.05,0,0,1-7.56.49H30.77a59.89,59.89,0,0,1-6.66-.51l.3,0A49.25,49.25,0,0,1,14,45.19l.34.1a33.78,33.78,0,0,1-6.68-3.15l.14.08a20,20,0,0,1-5.29-4.63l0,0A11.19,11.19,0,0,1,.11,32.3v-.07A8.82,8.82,0,0,1,0,30.82,9.84,9.84,0,0,1,.76,27l0,.07a14.06,14.06,0,0,1,3.56-5h0a25.14,25.14,0,0,1,6.55-4.29l.16-.07a41.25,41.25,0,0,1,9.28-3.05l.27,0a47.79,47.79,0,0,1,6.37-.91h.17L32,13.33Z"/>
</svg>
