<?xml version="1.0" encoding="UTF-8"?>
<svg width="24px" height="24px" viewBox="0 0 24 24" version="1.1" xmlns="http://www.w3.org/2000/svg" xmlns:xlink="http://www.w3.org/1999/xlink">
    <!-- Generator: Sketch 48.2 (47327) - http://www.bohemiancoding.com/sketch -->
    <title>ping-download</title>
    <desc>Created with Sketch.</desc>
    <defs></defs>
    <g id="Page-1" stroke="none" stroke-width="1" fill="none" fill-rule="evenodd">
        <g id="ping-download" fill="#000000">
            <path d="M20.6426,1 L1.7856,1.001 C1.3526,1.001 1.0006,1.353 1.0006,1.786 C1.0006,2.219 1.3526,2.57 1.7856,2.57 L20.6426,2.57 C21.0776,2.57 21.4286,2.922 21.4286,3.356 L21.4286,20.642 C21.4286,21.076 21.0776,21.428 20.6426,21.428 L3.3576,21.428 C2.9236,21.428 2.5716,21.076 2.5716,20.642 L2.5716,10.875 C2.5716,10.441 2.9236,10.089 3.3576,10.089 L11.7516,10.117 L7.7516,14.117 C7.6786,14.19 7.6196,14.279 7.5786,14.377 C7.4976,14.572 7.4976,14.793 7.5786,14.988 C7.6196,15.086 7.6786,15.175 7.7516,15.248 L11.7516,19.248 C11.9076,19.404 12.1116,19.482 12.3166,19.482 C12.5216,19.482 12.7256,19.404 12.8826,19.248 C13.1946,18.936 13.1946,18.43 12.8826,18.117 L10.2486,15.482 L18.3486,15.482 C18.7896,15.482 19.1476,15.124 19.1476,14.683 C19.1476,14.241 18.7896,13.883 18.3486,13.883 L18.3456,13.883 L10.2486,13.883 L14.2476,9.883 C14.3216,9.81 14.3806,9.721 14.4216,9.623 C14.5026,9.428 14.5026,9.207 14.4216,9.012 C14.3806,8.914 14.3216,8.825 14.2476,8.752 L10.2486,4.752 C10.0926,4.596 9.8886,4.518 9.6836,4.518 C9.4786,4.518 9.2746,4.596 9.1176,4.752 C8.8056,5.064 8.8056,5.57 9.1176,5.883 L11.7516,8.518 L3.3576,8.518 C2.0546,8.518 0.9996,9.574 0.9996,10.875 L0.9996,20.642 C0.9996,21.944 2.0566,22.999 3.3576,22.999 L20.6426,22.999 C21.9456,22.999 22.9996,21.943 22.9996,20.642 L22.9996,3.357 C22.9996,2.055 21.9446,1 20.6426,1" id="Fill-1"></path>
        </g>
    </g>
</svg>