<?xml version="1.0" encoding="UTF-8"?>
<svg width="24px" height="24px" viewBox="0 0 24 24" version="1.1" xmlns="http://www.w3.org/2000/svg" xmlns:xlink="http://www.w3.org/1999/xlink">
    <!-- Generator: Sketch 48.2 (47327) - http://www.bohemiancoding.com/sketch -->
    <title>plugin</title>
    <desc>Created with Sketch.</desc>
    <defs></defs>
    <g id="Page-1" stroke="none" stroke-width="1" fill="none" fill-rule="evenodd">
        <g id="plugin" fill="#000000" fill-rule="nonzero">
            <path d="M10.4686416,19.8589107 L10.3871754,19.8589107 C9.97571951,19.8589107 9.64263617,19.5258273 9.64263617,19.1143714 L9.64263617,17.4613293 C9.64263617,17.0498734 9.97571951,16.7167901 10.3871754,16.7167901 L10.4686416,16.7167901 C10.8800975,16.7167901 11.2131808,17.0498734 11.2131808,17.4613293 L11.2131808,19.1143714 C11.2131808,19.5258273 10.8800975,19.8589107 10.4686416,19.8589107 Z M14.3563326,19.1143714 L14.3563326,17.4613293 C14.3563326,17.0498734 14.0232493,16.7167901 13.6117934,16.7167901 L13.5303272,16.7167901 C13.1188713,16.7167901 12.7857879,17.0498734 12.7857879,17.4613293 L12.7857879,19.1143714 C12.7857879,19.5258273 13.1188713,19.8589107 13.5303272,19.8589107 L13.6117934,19.8589107 C14.0232493,19.8589107 14.3563326,19.5258273 14.3563326,19.1143714 Z M7.28527234,12.0020624 L7.28527234,13.5736383 C7.28527234,14.8750352 8.34020812,15.9310022 9.64263617,15.9310022 L14.3563326,15.9310022 C15.6577294,15.9310022 16.7136964,14.8760664 16.7136964,13.5736383 L16.7136964,12.0020624 C16.7136964,10.7006656 16.1857129,9.52198369 15.3328958,8.66813537 C15.0266242,8.36083247 14.5295772,8.36186369 14.2222743,8.66813537 C13.9149714,8.97440705 13.9149714,9.47248523 14.2212431,9.77875691 C14.7894441,10.3469579 15.1421206,11.1327459 15.1421206,12.0010312 L15.1421206,13.5726071 C15.1421206,14.0067498 14.7904753,14.3583951 14.3563326,14.3583951 C14.3563326,14.3583951 9.64263617,14.3583951 9.64263617,14.3583951 C9.20849348,14.3583951 8.85684822,14.0067498 8.85684822,13.5726071 L8.85684822,12.0010312 C8.85684822,10.2654917 10.2634293,8.85787944 12,8.85787944 C12.4341427,8.85787944 12.7857879,8.50623418 12.7857879,8.0720915 L12.7857879,6.50051561 C12.7857879,5.19911878 11.7308522,4.14315178 10.4284241,4.14315178 L3.35736383,4.14315178 C2.055967,4.14315178 1,5.19808756 1,6.50051561 L1,20.6426362 C1,21.944033 2.05493578,23 3.35736383,23 L20.6426362,23 C21.944033,23 23,21.9450642 23,20.6426362 L23,3.35736383 C23,2.055967 21.9450642,1 20.6426362,1 L1.78578794,1.00103122 C1.35267648,1.00103122 1.00103122,1.35267648 1.00103122,1.78578794 C1.00103122,2.21889941 1.35267648,2.57054467 1.78578794,2.57054467 L20.6426362,2.57054467 C21.0767789,2.57054467 21.4284241,2.92218993 21.4284241,3.35633261 L21.4284241,20.6416049 C21.4284241,21.0757476 21.0767789,21.4273929 20.6426362,21.4273929 L3.35736383,21.4273929 C2.92322115,21.4273929 2.57157589,21.0757476 2.57157589,20.6416049 L2.57157589,6.49948439 C2.57157589,6.06534171 2.92322115,5.71369645 3.35736383,5.71369645 L10.4284241,5.71369645 C10.8625668,5.71369645 11.2142121,6.06534171 11.2142121,6.49948439 L11.2152433,7.35023906 C8.98575045,7.72353989 7.28630355,9.66326052 7.28630355,11.9989688 L7.28527234,12.0020624 Z" id="Shape"></path>
        </g>
    </g>
</svg>