<svg xmlns="http://www.w3.org/2000/svg" width="64" height="64" viewBox="0 0 64 64">
  <title>plugin</title>
  <path d="M19.43,32V36.2a6.28,6.28,0,0,0,6.28,6.28H38.28a6.29,6.29,0,0,0,6.29-6.28V32a12.59,12.59,0,0,0-3.68-8.9,2.1,2.1,0,0,0-3,3A8.33,8.33,0,0,1,40.38,32v4.19a2.1,2.1,0,0,1-2.1,2.1H25.71a2.1,2.1,0,0,1-2.09-2.1V32A8.38,8.38,0,0,1,32,23.62a2.1,2.1,0,0,0,2.1-2.09v-4.2a6.29,6.29,0,0,0-6.29-6.28H9a6.28,6.28,0,0,0-6.28,6.28V55.05A6.28,6.28,0,0,0,9,61.33h46.1a6.28,6.28,0,0,0,6.28-6.28V9a6.28,6.28,0,0,0-6.28-6.28H4.76a2.09,2.09,0,0,0,0,4.18H55.05A2.1,2.1,0,0,1,57.14,9V55a2.1,2.1,0,0,1-2.09,2.1H9A2.1,2.1,0,0,1,6.86,55V17.33A2.09,2.09,0,0,1,9,15.24H27.81a2.08,2.08,0,0,1,2.09,2.09V19.6A12.58,12.58,0,0,0,19.43,32ZM38.28,51V46.56a2,2,0,0,0-2-2h-.22a2,2,0,0,0-2,2V51a2,2,0,0,0,2,2h.22A2,2,0,0,0,38.28,51ZM27.92,53H27.7a2,2,0,0,1-2-2V46.56a2,2,0,0,1,2-2h.22a2,2,0,0,1,2,2V51A2,2,0,0,1,27.92,53Z"/>
</svg>
