<?xml version="1.0" encoding="UTF-8"?>
<svg width="24px" height="24px" viewBox="0 0 24 24" version="1.1" xmlns="http://www.w3.org/2000/svg" xmlns:xlink="http://www.w3.org/1999/xlink">
    <!-- Generator: Sketch 48.2 (47327) - http://www.bohemiancoding.com/sketch -->
    <title>presslabs</title>
    <desc>Created with Sketch.</desc>
    <defs></defs>
    <g id="Page-1" stroke="none" stroke-width="1" fill="none" fill-rule="evenodd">
        <g id="presslabs" fill="#000000" fill-rule="nonzero">
            <path d="M11.9926731,8.1164114 L8.90603687,8.1164114 C8.50305936,8.07354145 8.19096613,7.73486886 8.19096613,7.32331735 C8.19096613,6.91176585 8.50220196,6.57309326 8.90260727,6.53022331 L8.90603687,6.53022331 L11.9926731,6.53022331 C12.396508,6.57309326 12.7077439,6.91176585 12.7077439,7.32331735 C12.7077439,7.73486886 12.396508,8.07354145 11.9961027,8.1164114 L11.9926731,8.1164114 Z M12.7814802,11.2287696 C12.7814802,11.2287696 12.7814802,11.2287696 12.7814802,11.2287696 C12.7814802,10.7914962 12.4290892,10.436533 11.9935305,10.4313886 L8.15152578,10.4313886 C7.71082271,10.4313886 7.35414474,10.7880666 7.35414474,11.2287696 C7.35414474,11.6694727 7.71082271,12.0261507 8.15152578,12.0261507 L11.9926731,12.0261507 C12.4256596,12.0167193 12.7729062,11.6634709 12.7729062,11.2287696 C12.7729062,11.2287696 12.7729062,11.2287696 12.7729062,11.2287696 L12.7814802,11.2287696 Z M18.3888694,21.5175572 C19.346584,21.0408434 19.9930629,20.0685529 19.9930629,18.9453603 C19.9930629,18.493511 19.8884602,18.065669 19.7015472,17.6849838 L19.7092638,17.7021318 L16.7941073,11.4173974 C16.2522312,10.2521922 15.935851,8.88892786 15.935851,7.4510698 C15.935851,7.40477026 15.935851,7.35847071 15.9367084,7.31217117 L15.9367084,7.31903036 L15.9367084,2.83483378 C15.9367084,2.83483378 15.9367084,2.83483378 15.9367084,2.83483378 C15.9367084,1.82138821 15.1153202,1 14.1018746,1 C14.098445,1 14.0958728,1 14.0924432,1 L8.94890682,1 C8.56307728,1.06001793 8.27070424,1.39011653 8.27070424,1.78794965 C8.27070424,2.17120698 8.54078491,2.4910168 8.90089247,2.5673253 L8.90603687,2.5681827 L14.0504306,2.5681827 C14.0530028,2.5681827 14.055575,2.5681827 14.0590046,2.5681827 C14.1961885,2.5681827 14.3076503,2.67964457 14.3076503,2.8168284 C14.3076503,2.8168284 14.3076503,2.8168284 14.3076503,2.8168284 L14.3076503,7.30102498 C14.3076503,7.32846175 14.3076503,7.36104291 14.3076503,7.39362407 C14.3076503,9.09556101 14.6866207,10.7091859 15.3656807,12.1539031 L15.3365291,12.0853112 L18.2516856,18.3786196 C18.3279941,18.5389532 18.3725788,18.7267236 18.3725788,18.9247827 C18.3725788,19.4375073 18.074204,19.8807826 17.6420749,20.0899879 L17.6343583,20.0934175 C15.9907245,20.9353833 14.0495732,21.4292451 11.9935305,21.4309599 L11.9926731,21.4309599 C11.9618068,21.4309599 11.925796,21.4309599 11.8889279,21.4309599 C9.86460891,21.4309599 7.95603882,20.9396703 6.27382205,20.0694103 L6.34241397,20.1011341 C5.9025683,19.8884992 5.60419346,19.4452239 5.60419346,18.9324993 C5.60419346,18.7344402 5.64877821,18.5466698 5.72851631,18.3786196 L5.72508671,18.3863362 L6.84827936,16.062785 C6.89029191,15.9839043 6.97003001,15.9307455 7.0617717,15.9256012 L7.0626291,15.9256012 L12.8500721,15.9256012 C13.253907,15.8827312 13.5651428,15.5440586 13.5651428,15.1325071 C13.5651428,14.7209556 13.253907,14.382283 12.8535017,14.3394131 L12.8500721,14.3394131 L7.01975915,14.3394131 C6.30811801,14.3419853 5.69164815,14.7483924 5.38727152,15.3408551 L5.38212713,15.3511438 L4.27608247,17.691843 C4.10203048,18.0519506 4,18.4746483 4,18.9204957 C4,20.038544 4.63876223,21.0074048 5.5716123,21.4824038 L5.58790288,21.4901204 C7.41244787,22.4418333 9.57223586,23 11.8623485,23 C11.9077906,23 11.9540902,23 11.9995323,22.9991426 L11.9926731,22.9991426 C12.0003897,22.9991426 12.0098211,22.9991426 12.0183951,22.9991426 C14.3385167,22.9991426 16.5274563,22.4418333 18.4600335,21.4532523 L18.3802954,21.4901204 L18.3888694,21.5175572 Z" id="Shape"></path>
        </g>
    </g>
</svg>