<svg xmlns="http://www.w3.org/2000/svg" width="24" height="24" viewBox="0 0 24 24">
  <path d="M7.98720197,17.6069177 L4.64628186,17.6069177 C3.00455207,17.6069177 1.84713257,16.5151673 1.36282228,14.6025521 C1.13215925,13.8038506 1,12.8869445 1,11.9388456 C1,10.9907466 1.13298011,10.0738405 1.38006045,9.20536547 L1.36282228,9.27513899 C1.71907765,7.5398306 3.23439424,6.25353532 5.04932652,6.25353532 C5.06902728,6.25353532 5.0895489,6.25353532 5.10924965,6.25435618 L5.1059662,6.25435618 C5.46878848,6.25435618 5.76265811,6.54822581 5.76265811,6.9110481 C5.76265811,7.27387038 5.46878848,7.56774001 5.1059662,7.56774001 C5.09283236,7.56774001 5.07805679,7.56774001 5.06246036,7.56774001 C3.86481848,7.56774001 2.86664677,8.42226036 2.64583411,9.55505392 L2.64337152,9.57065035 C2.43651356,10.2765942 2.31748815,11.0876087 2.31748815,11.9265326 C2.31748815,12.7654565 2.43651356,13.576471 2.65896795,14.3439797 L2.64337152,14.2824148 C2.96350882,15.6040073 3.63661804,16.2771165 4.62986456,16.2771165 L7.97078467,16.2771165 C8.33360695,16.2771165 8.62747659,16.5709862 8.62747659,16.9338084 C8.62747659,17.2966307 8.33360695,17.5905004 7.97078467,17.5905004 L7.98720197,17.6069177 Z M6.9857468,8.60202978 C6.62292452,8.60202978 6.32905489,8.30816014 6.32905489,7.94533786 L6.32905489,4.42382747 C6.32905489,2.78209768 6.82978247,1.64930413 9.34162904,1.20603709 C10.077124,1.07551957 10.9234357,1.00082086 11.7878064,1.00082086 C11.7935525,1.00082086 11.7992985,1.00082086 11.8058655,1.00082086 L11.8050446,1.00082086 C11.8608634,1 11.9273535,1 11.9938435,1 C12.8754524,1 13.7390023,1.07469871 14.5795679,1.21917093 L14.4892728,1.20603709 C16.1383904,1.40140293 17.4172979,2.75090482 17.5018469,4.41561882 L17.5018469,4.42382747 C17.5018469,4.78664975 17.2079773,5.08051938 16.845155,5.08051938 C16.4823327,5.08051938 16.1884631,4.78664975 16.1884631,4.42382747 C16.0948845,3.40267154 15.2887952,2.59658222 14.2758479,2.50382448 L14.2676393,2.50300362 C13.570725,2.38233648 12.7679191,2.31338383 11.9486959,2.31338383 C11.8978023,2.31338383 11.8477296,2.31338383 11.7976568,2.31420469 L11.8050446,2.31420469 C11.790269,2.31420469 11.7738517,2.31420469 11.7566136,2.31420469 C10.9792545,2.31420469 10.2174919,2.38315734 9.47789262,2.51449573 L9.55587478,2.50300362 C7.71713742,2.83134958 7.62684228,3.38132905 7.62684228,4.42382747 L7.62684228,7.94533786 C7.62684228,7.94533786 7.62684228,7.94533786 7.62684228,7.94533786 C7.62684228,8.30241409 7.34200216,8.59300026 6.98738853,8.60202978 L6.98656767,8.60202978 L6.9857468,8.60202978 Z M11.9109362,23 C10.9661207,22.9950748 10.0574232,22.84814 9.20290288,22.580538 L9.2677512,22.5977762 C7.4043879,22.0560054 6.32905489,20.9067945 6.32905489,19.4620723 C6.32905489,19.09925 6.62292452,18.8053804 6.9857468,18.8053804 C7.34856908,18.8053804 7.64243871,19.09925 7.64243871,19.4620723 C7.64243871,20.5866572 8.898362,21.1038021 9.63714041,21.3418529 C10.3192791,21.5643073 11.104026,21.6931831 11.9191448,21.6931831 C12.7342636,21.6931831 13.5190105,21.5651282 14.2545054,21.3270773 L14.2011492,21.3418529 C15.5309503,20.9560464 16.1958509,20.3239804 16.1958509,19.4620723 L16.1958509,15.9405619 C16.1958509,15.5777396 16.4897205,15.28387 16.8525428,15.28387 C17.2153651,15.28387 17.5092347,15.5777396 17.5092347,15.9405619 L17.5092347,19.4620723 C17.5092347,20.9396291 16.4667363,22.0560054 14.5705384,22.5977762 C13.7759412,22.84814 12.8614977,22.9950748 11.9133988,23 L11.9109362,23 Z M19.2987202,17.6069177 C18.9358979,17.6069177 18.6420283,17.313048 18.6420283,16.9502257 C18.6420283,16.5874035 18.9358979,16.2935338 19.2987202,16.2935338 C20.2016716,16.2935338 20.612104,15.8338495 21.1456662,14.2413716 C21.3714041,13.5469199 21.5011007,12.7473975 21.5011007,11.9183239 C21.5011007,11.0892504 21.3714041,10.289728 21.1300698,9.54027835 L21.1456662,9.5952763 C20.7106078,7.82220813 19.9718294,7.58415731 19.3151375,7.58415731 L15.8018358,7.58415731 C15.4390135,7.58415731 15.1451438,7.29028768 15.1451438,6.92746539 C15.1451438,6.56464311 15.4390135,6.27077348 15.8018358,6.27077348 L19.2987202,6.27077348 C20.8665721,6.27077348 21.9090706,7.2804373 22.4015895,9.27513899 C22.6585202,10.0804074 22.8070968,11.006343 22.8070968,11.9675758 C22.8070968,12.9288086 22.6585202,13.8547442 22.3843513,14.724861 L22.4015895,14.6600127 C21.9172792,16.1047349 21.24417,17.6069177 19.2987202,17.6069177 Z M17.9607104,10.8265736 L5.8611619,10.8265736 C5.21267863,10.8265736 4.6873251,11.3519272 4.6873251,12.0004104 C4.6873251,12.6488937 5.21267863,13.1742472 5.8611619,13.1742472 L17.9607104,13.1742472 C18.6091937,13.1742472 19.1345472,12.6488937 19.1345472,12.0004104 C19.1345472,11.3519272 18.6091937,10.8265736 17.9607104,10.8265736 Z M12.2556994,14.348084 L11.5661729,14.348084 C11.1130555,14.348084 10.745308,14.7158315 10.745308,15.1689489 L10.745308,18.041976 C10.745308,18.6904593 11.2706615,19.2158128 11.9191448,19.2158128 C12.5676281,19.2158128 13.0929816,18.6904593 13.0929816,18.041976 L13.0929816,15.1689489 C13.0929816,15.1689489 13.0929816,15.1689489 13.0929816,15.1689489 C13.0929816,14.7158315 12.7252341,14.348084 12.2721167,14.348084 C12.2663707,14.348084 12.2606246,14.348084 12.2548785,14.348084 L12.2556994,14.348084 Z M11.5661729,9.66094549 L12.2556994,9.66094549 C12.7088168,9.66094549 13.0765643,9.29319801 13.0765643,8.84008059 L13.0765643,5.95063617 C13.0765643,5.3021529 12.5512108,4.77679937 11.9027275,4.77679937 C11.2542442,4.77679937 10.7288907,5.3021529 10.7288907,5.95063617 L10.7288907,8.83187195 C10.7288907,8.83433454 10.7288907,8.837618 10.7288907,8.84008059 C10.7288907,9.29319801 11.0966382,9.66094549 11.5497556,9.66094549 C11.5555017,9.66094549 11.5612477,9.66094549 11.5669938,9.66094549 L11.5661729,9.66094549 Z" fill="#000" fill-rule="nonzero"/>
</svg>
