<svg xmlns="http://www.w3.org/2000/svg" width="64" height="64" viewBox="0 0 64 64">
  <title>pyolite</title>
  <path d="M30.84,25.76h1.84a2.19,2.19,0,0,0,2.19-2.19v-7.7a3.13,3.13,0,0,0-6.26,0v7.7a2.19,2.19,0,0,0,2.19,2.19h0Zm1.84,12.5H30.84a2.19,2.19,0,0,0-2.19,2.19v7.66a3.13,3.13,0,0,0,6.26,0V40.45a2.19,2.19,0,0,0-2.18-2.19ZM47.9,28.87H15.63a3.13,3.13,0,0,0,0,6.26H47.9a3.13,3.13,0,1,0,0-6.26ZM51.46,47a1.75,1.75,0,1,1,0-3.5c2.41,0,3.51-1.23,4.93-5.47a20.35,20.35,0,0,0,1-6.2,20.77,20.77,0,0,0-1-6.34l0,.15c-1.16-4.73-3.13-5.37-4.88-5.37H42.14a1.75,1.75,0,0,1,0-3.5h9.32c4.18,0,7,2.69,8.28,8a24.07,24.07,0,0,1,1.08,7.18,24.47,24.47,0,0,1-1.13,7.36l.05-.18C58.45,43,56.65,47,51.46,47ZM31.76,61.33a24.23,24.23,0,0,1-7.22-1.12l.17,0c-5-1.44-7.83-4.51-7.83-8.36a1.75,1.75,0,0,1,3.5,0c0,3,3.35,4.38,5.32,5a20.21,20.21,0,0,0,12.31,0l-.14,0c3.55-1,5.32-2.71,5.32-5V42.51a1.75,1.75,0,1,1,3.5,0V51.9c0,3.94-2.78,6.92-7.84,8.36a24,24,0,0,1-7.08,1.07ZM18.63,22.94a1.75,1.75,0,0,1-1.75-1.75V11.8c0-4.38,1.33-7.4,8-8.58a37.84,37.84,0,0,1,6.52-.55H32a41.27,41.27,0,0,1,6.9.58l-.24,0a9.09,9.09,0,0,1,8,8.55v0a1.75,1.75,0,0,1-3.5,0,5.64,5.64,0,0,0-5.1-5.12h0a37.22,37.22,0,0,0-6.19-.5h-.51a34.89,34.89,0,0,0-6.08.54l.21,0c-4.9.88-5.14,2.35-5.14,5.13v9.39a1.76,1.76,0,0,1-1.71,1.75ZM21.3,47H12.39C8,47,4.93,44,3.63,38.94a26.1,26.1,0,0,1-1-7.1,26.52,26.52,0,0,1,1-7.29l-.05.18a10.05,10.05,0,0,1,9.83-8h.16a1.75,1.75,0,0,1,0,3.5H13.5a6.56,6.56,0,0,0-6.44,5.3v0a22.69,22.69,0,0,0-.87,6.28,23.27,23.27,0,0,0,.91,6.45l0-.16c.85,3.52,2.65,5.32,5.3,5.32h8.91a1.75,1.75,0,1,1,0,3.5Z"/>
</svg>
