<?xml version="1.0" encoding="UTF-8"?>
<svg width="24px" height="24px" viewBox="0 0 24 24" version="1.1" xmlns="http://www.w3.org/2000/svg" xmlns:xlink="http://www.w3.org/1999/xlink">
    <!-- Generator: Sketch 48.2 (47327) - http://www.bohemiancoding.com/sketch -->
    <title>python</title>
    <desc>Created with Sketch.</desc>
    <defs></defs>
    <g id="Page-1" stroke="none" stroke-width="1" fill="none" fill-rule="evenodd">
        <g id="python" fill="#000000" fill-rule="nonzero">
            <path d="M9.2431025,11.6070936 L14.4854613,11.6070936 C15.9446296,11.6070936 17.1096952,10.4053743 17.1096952,8.94009705 L17.1096952,3.94209659 C17.1096952,2.51958205 15.9097212,1.45138708 14.4854613,1.21401042 C13.5839536,1.06390459 12.6484103,0.995833345 11.7512662,1.00019689 C10.854122,1.00456043 9.99712247,1.08048605 9.2431025,1.21401042 C7.02205986,1.60672916 6.61886862,2.42794768 6.61886862,3.94209659 L6.61886862,5.94234402 L11.8673364,5.94234402 L11.8673364,6.60909317 L4.64829327,6.60909317 C3.12279915,6.60909317 1.78668273,7.5263096 1.36952816,9.26998079 C0.887793176,11.2693555 0.865975468,12.5173284 1.36952816,14.6048467 C1.74304732,16.1591402 2.6340825,17.2657343 4.15870391,17.2657343 L5.96346468,17.2657343 L5.96346468,14.8675319 C5.96346468,13.1352059 7.46277755,11.6070936 9.24222979,11.6070936 L9.2431025,11.6070936 Z M8.91234605,4.60884573 C8.36864877,4.60884573 7.92705837,4.16289179 7.92705837,3.61134014 C7.92705837,3.05804307 8.36777607,2.60772559 8.91234605,2.60772559 C9.45429791,2.60772559 9.89763373,3.05804307 9.89763373,3.61134014 C9.89763373,4.16289179 9.45517062,4.60884573 8.91234605,4.60884573 Z M22.3590356,9.26998079 L22.3599083,9.26998079 C22.884406,11.3793168 22.9079692,12.9606642 22.3599083,14.6048467 C21.8293017,16.2019029 21.2611686,17.2657343 19.7356745,17.2657343 L11.8682091,17.2657343 L11.8682091,17.9324834 L17.1105679,17.9324834 L17.1105679,19.9327309 C17.1105679,21.4468798 15.8076144,22.2174812 14.486334,22.5997275 C12.4991772,23.1765876 10.9056118,23.0884441 9.24397521,22.5997275 C7.856369,22.1921727 6.61974133,21.3552454 6.61974133,19.9327309 L6.61974133,14.9347304 C6.61974133,13.4965071 7.80749733,12.2677338 9.24397521,12.2677338 L14.486334,12.2677338 C16.2326233,12.2677338 17.7650991,10.747476 17.7650991,8.94009705 L17.7650991,6.60909317 L19.7348018,6.60909317 C21.2620413,6.60909317 21.9820256,7.75146834 22.3590356,9.26998079 Z" id="Combined-Shape"></path>
        </g>
    </g>
</svg>