<svg xmlns="http://www.w3.org/2000/svg" width="64" height="64" viewBox="0 0 64 64">
  <title>python</title>
  <path d="M59.62,24.72h0c1.4,5.62,1.46,9.84,0,14.23S56.7,46,52.63,46h-21v1.78h14v5.33c0,4-3.48,6.1-7,7.12a23.5,23.5,0,0,1-14,0c-3.7-1.09-7-3.32-7-7.12V39.83a7.14,7.14,0,0,1,7-7.12h14a9,9,0,0,0,8.74-8.87V17.62h5.26C56.7,17.62,58.62,20.67,59.62,24.72ZM23.77,12.29a2.67,2.67,0,1,1,2.62-2.66A2.65,2.65,0,0,1,23.77,12.29ZM24.65,31h14a7.05,7.05,0,0,0,7-7.11V10.51c0-3.79-3.2-6.64-7-7.27a43.85,43.85,0,0,0-7.29-.57,39.36,39.36,0,0,0-6.69.57c-5.92,1-7,3.23-7,7.27v5.34h14v1.77H12.4a8.75,8.75,0,0,0-8.75,7.1A26.25,26.25,0,0,0,3.65,39C4.65,43.09,7,46,11.09,46H15.9V39.65A8.9,8.9,0,0,1,24.65,31Z"/>
</svg>
