<?xml version="1.0" encoding="UTF-8"?>
<svg width="24px" height="24px" viewBox="0 0 24 24" version="1.1" xmlns="http://www.w3.org/2000/svg" xmlns:xlink="http://www.w3.org/1999/xlink">
    <!-- Generator: Sketch 48.2 (47327) - http://www.bohemiancoding.com/sketch -->
    <title>react</title>
    <desc>Created with Sketch.</desc>
    <defs></defs>
    <g id="Page-1" stroke="none" stroke-width="1" fill="none" fill-rule="evenodd">
        <g id="react" fill="#000000" fill-rule="nonzero">
            <path d="M23,11.8074738 C23,10.2073333 21.2839072,8.84682731 18.5551651,8.01197137 C18.6376201,7.64607772 18.7071914,7.29049093 18.7638791,6.945211 C19.1117358,4.62616673 18.6633872,2.95645485 17.4961349,2.30712246 C16.3288826,1.65779006 14.6746311,2.07521803 12.8580464,3.54394607 C12.5797611,3.7603902 12.3092059,4.00775492 12.0309206,4.26284979 C11.7526353,4.00775492 11.4820801,3.7603902 11.2037948,3.54394607 C9.35628953,2.07521803 7.6943078,1.63459962 6.56570625,2.30712246 C5.43710471,2.9796453 4.95010541,4.62616673 5.29796205,6.945211 C5.3546498,7.29049093 5.42422113,7.64607772 5.50667604,8.01197137 C2.72382291,8.84682731 1,10.2073333 1,11.8074738 C1,13.4076144 2.72382291,14.7681203 5.44483486,15.6029763 C5.36237995,15.9637165 5.29280862,16.3193033 5.23612087,16.6697367 C4.88826423,18.9887809 5.33661279,20.6584928 6.50386507,21.3078252 C6.83626142,21.5026249 7.23513703,21.6170311 7.66106817,21.6170311 C7.67266339,21.6170311 7.68425861,21.6170311 7.69585383,21.6170311 L7.6943078,21.6170311 C9.04708363,21.4879376 10.2483486,20.9236369 11.1767393,20.0671365 L11.1728742,20.0710016 C11.4511595,19.8545575 11.7217147,19.6071927 12,19.3520979 C12.2782853,19.6071927 12.5488405,19.8545575 12.8271258,20.0710016 C13.7516514,20.9236369 14.9529164,21.4879376 16.2817287,21.6154851 L16.3056922,21.6170311 C16.3157414,21.6170311 16.3273366,21.6170311 16.3389318,21.6170311 C16.764863,21.6170311 17.1645116,21.5018519 17.5069571,21.3016411 L17.4961349,21.3078252 C18.6633872,20.6353024 19.1117358,18.9887809 18.7638791,16.6697367 C18.7071914,16.3244567 18.6376201,15.9688699 18.5551651,15.6029763 C21.2761771,14.7681203 23,13.4076144 23,11.8074738 Z M13.5460295,4.37880201 C14.2873507,3.68618079 15.2427969,3.2154148 16.3033732,3.07549913 L16.3288826,3.07240707 C16.3373858,3.07240707 16.348208,3.07240707 16.3582572,3.07240707 C16.5886156,3.07240707 16.8050597,3.13270222 16.9921293,3.23860524 L16.9859452,3.23551318 C17.7589599,3.6606713 17.9831342,4.95160594 17.7125791,6.78365092 C17.6661982,7.09285682 17.604357,7.40206273 17.5347857,7.72672892 C16.7269852,7.52961016 15.7468025,7.36573103 14.7472944,7.2698772 L14.6591708,7.26292007 C14.043851,6.43038317 13.4254392,5.69679217 12.7645116,5.00417095 L12.7730148,5.01344712 C13.0203795,4.78927284 13.2677442,4.57282871 13.5460295,4.37957502 L13.5460295,4.37880201 Z M7.36191145,13.1215989 C7.54228156,13.4617254 7.72780511,13.8018519 7.91848208,14.1419784 C8.11946592,14.4821049 8.32044975,14.8145012 8.52916374,15.1468976 C7.90302178,15.0541358 7.30780042,14.9459137 6.75895994,14.8145012 C6.94963692,14.2579306 7.15062075,13.6936298 7.36191145,13.1215989 Z M6.75895994,8.80044642 C7.30780042,8.66903391 7.90302178,8.56081185 8.52916374,8.46805008 C8.32044975,8.80044642 8.11946592,9.13284277 7.91848208,9.47296926 C7.71749824,9.81309575 7.53970485,10.1532222 7.36191145,10.4933487 C7.15062075,9.92131782 6.95994378,9.35701705 6.78988053,8.80044642 L6.75895994,8.80044642 Z M7.96486297,11.8074738 C8.24314828,11.2122525 8.56008433,10.6170311 8.90794097,10.0218097 C9.25579761,9.42658838 9.6113844,8.85455745 9.98243148,8.31344712 C10.6240337,8.25933609 11.2965566,8.23614565 12,8.23614565 C12.7034434,8.23614565 13.3759663,8.23614565 14.0175685,8.31344712 C14.3886156,8.85455745 14.7519325,9.42658838 15.092059,10.0218097 C15.4321855,10.6170311 15.7568517,11.2122525 16.035137,11.8074738 C15.7568517,12.4026952 15.4399157,12.9979166 15.092059,13.5931379 C14.7442024,14.1883593 14.3886156,14.7603902 14.0175685,15.3015005 C13.3759663,15.3556116 12.7034434,15.378802 12,15.378802 C11.2965566,15.378802 10.6240337,15.378802 9.98243148,15.3015005 C9.6113844,14.7603902 9.20941673,14.1883593 8.90794097,13.5931379 C8.60646521,12.9979166 8.24314828,12.4026952 7.96486297,11.8074738 Z M16.0505973,14.1265181 C16.2464277,13.7863916 16.4319513,13.4462651 16.607168,13.1061386 C16.8390724,13.6781695 17.0400562,14.2424703 17.2101195,14.7990409 C16.661279,14.9304534 16.0660576,15.0386755 15.4399157,15.1314373 C15.6486297,14.8145012 15.8650738,14.4821049 16.0505973,14.1265181 Z M16.6380885,10.4933487 C16.4628719,10.1532222 16.2773483,9.81309575 16.0815179,9.47296926 C15.8805341,9.13284277 15.6795502,8.80044642 15.4708363,8.46805008 C16.0969782,8.56081185 16.6921996,8.66903391 17.2410401,8.80044642 C17.0503631,9.35701705 16.8493792,9.92131782 16.6380885,10.4933487 Z M13.1672523,7.16938528 C12.7884751,7.16938528 12.3942375,7.16938528 12,7.16938528 C11.6057625,7.16938528 11.2269852,7.16938528 10.8327477,7.16938528 C11.2115249,6.68238599 11.6057625,6.22630728 12,5.80887931 C12.3942375,6.21084698 12.7730148,6.66692569 13.1672523,7.16938528 Z M7.05270555,3.23474017 C7.233591,3.13270222 7.45003514,3.07240707 7.68039353,3.07240707 C7.69121574,3.07240707 7.70126493,3.07240707 7.71131413,3.07240707 L7.7097681,3.07240707 C8.79585383,3.2154148 9.75130007,3.68618079 10.4957133,4.38112105 L10.4926212,4.37880201 C10.7322558,4.5720557 10.9796205,4.78849983 11.2192551,5.01267411 C10.586929,5.69215408 9.9832045,6.42574509 9.42586086,7.19489477 L9.37947997,7.26214705 C8.29184821,7.36495802 7.3116655,7.52883715 6.35621926,7.75533047 L6.50386507,7.72595591 C6.43429375,7.40128971 6.37245257,7.09208381 6.32607168,6.7828779 C6.05551651,4.95083293 6.31834153,3.65989828 7.05270555,3.23474017 Z M5.73085032,14.5284858 C3.49683767,13.8250423 2.1054111,12.7814724 2.1054111,11.8074738 C2.1054111,10.8334752 3.49683767,9.78990531 5.73085032,9.08646188 C6.06170063,10.1702286 6.4111033,11.0723368 6.81539002,11.9435244 L6.75895994,11.8074738 C6.4111033,12.5426109 6.06170063,13.4447191 5.77259311,14.3723368 L5.73085032,14.5284858 Z M10.4926212,19.2361456 C9.03935348,20.3879376 7.78706957,20.7821752 7.05270555,20.3802075 C6.31834153,19.9782398 6.05551651,18.6641147 6.32607168,16.8320698 C6.37245257,16.5228638 6.43429375,16.2136579 6.50386507,15.8889917 C7.3116655,16.0861105 8.29184821,16.2499896 9.29135629,16.3458435 L9.37947997,16.3528006 C9.98475053,17.1884296 10.5907941,17.9220206 11.2393535,18.6154148 L11.2269852,18.6022735 C10.9796205,18.8264478 10.7322558,19.042892 10.4926212,19.2361456 Z M10.8327477,16.4455624 C11.2115249,16.4455624 11.6057625,16.4455624 12,16.4455624 C12.3942375,16.4455624 12.7730148,16.4455624 13.1672523,16.4455624 C12.7884751,16.9325617 12.3942375,17.3886404 12,17.8060683 C11.6057625,17.4041007 11.2269852,16.948022 10.8327477,16.4455624 Z M16.9472944,20.3647472 C16.2129304,20.7899053 14.9606465,20.3647472 13.5073788,19.2206854 C13.2677442,19.0274317 13.0203795,18.8109875 12.7807449,18.5868133 C13.413071,17.9073333 14.0167955,17.1737423 14.5741391,16.4045926 L14.62052,16.3373403 C15.7081518,16.2345293 16.6883345,16.0706502 17.6437807,15.8441569 L17.4961349,15.8735315 C17.5657063,16.1981977 17.6275474,16.5074036 17.6739283,16.8166095 C17.9444835,18.6641147 17.6816585,19.9550494 16.9472944,20.3802075 L16.9472944,20.3647472 Z M18.2691497,14.5130255 C17.9367533,13.4346699 17.5881237,12.5379728 17.18461,11.6721962 L17.2410401,11.8074738 C17.5888967,11.0723368 17.9382994,10.1702286 18.2274069,9.24261086 L18.2691497,9.08646188 C20.5031623,9.78990531 21.8945889,10.8334752 21.8945889,11.8074738 C21.8945889,12.7814724 20.5031623,13.8250423 18.2691497,14.5284858 L18.2691497,14.5130255 Z M12,13.7786615 C10.9115952,13.7786615 10.0288124,12.8958786 10.0288124,11.8074738 C10.0288124,10.719069 10.9115952,9.8362862 12,9.8362862 C13.0884048,9.8362862 13.9711876,10.719069 13.9711876,11.8074738 C13.9711876,12.8958786 13.0884048,13.7786615 12,13.7786615 Z" id="Combined-Shape"></path>
        </g>
    </g>
</svg>