<svg xmlns="http://www.w3.org/2000/svg" width="64" height="64" viewBox="0 0 64 64">
  <title>react</title>
  <path d="M32,36.74a5.26,5.26,0,1,1,5.26-5.25A5.26,5.26,0,0,1,32,36.74Zm16.72,2a58.88,58.88,0,0,0-2.89-7.57l.15.36a55.37,55.37,0,0,0,2.63-6.84l.11-.42c6,1.88,9.67,4.66,9.67,7.26s-3.71,5.38-9.67,7.25ZM45.19,54.31c-2,1.13-5.3,0-9.17-3.05-.64-.52-1.3-1.1-1.94-1.7a60,60,0,0,0,4.78-5.81l.13-.18a58.2,58.2,0,0,0,8.06-1.32l-.39.08c.18.87.35,1.69.47,2.51.72,4.93,0,8.37-1.94,9.51ZM28.89,43.85h6.22c-1,1.3-2.06,2.52-3.11,3.63A43.34,43.34,0,0,1,28.89,43.85ZM28,51.3c-3.87,3.07-7.21,4.12-9.17,3.05s-2.66-4.58-1.94-9.46c.12-.83.29-1.65.47-2.52a54.25,54.25,0,0,0,7.44,1.22l.23,0a62.3,62.3,0,0,0,5,6l0,0C29.28,50.2,28.62,50.78,28,51.3ZM15.28,38.74c-6-1.87-9.67-4.66-9.67-7.25s3.71-5.38,9.67-7.26a58.26,58.26,0,0,0,2.89,7.62L18,31.49a54.76,54.76,0,0,0-2.63,6.84ZM18.81,8.63a3.33,3.33,0,0,1,1.67-.44h.08A13.4,13.4,0,0,1,28,11.68h0c.64.51,1.3,1.09,1.94,1.69a60.15,60.15,0,0,0-4.78,5.82l-.13.18A58.23,58.23,0,0,0,17,20.68l.39-.08c-.18-.86-.35-1.69-.47-2.51C16.15,13.2,16.85,9.76,18.81,8.63Zm16.3,10.49H28.89c1-1.3,2.06-2.52,3.11-3.63A43.34,43.34,0,0,1,35.11,19.12ZM44.37,28c-.47-.9-1-1.81-1.49-2.72s-1.07-1.79-1.62-2.68c1.67.25,3.25.54,4.72.89C45.47,25,44.93,26.46,44.37,28ZM42.8,37.67c.52-.91,1-1.81,1.49-2.72.61,1.53,1.15,3,1.6,4.51-1.46.35-3,.64-4.72.89A28.06,28.06,0,0,0,42.8,37.67ZM21.24,31.49c.74-1.59,1.59-3.18,2.51-4.77s1.88-3.11,2.87-4.55C28.33,22,30.12,22,32,22a44.66,44.66,0,0,1,5.38.21c1,1.44,2,3,2.87,4.55S42,29.9,42.76,31.49c-.74,1.58-1.59,3.17-2.51,4.76s-1.88,3.11-2.87,4.55C35.67,41,33.88,41,32,41a44.66,44.66,0,0,1-5.38-.21,41.57,41.57,0,0,1-2.87-4.55C23,34.66,22,33.07,21.24,31.49Zm-3.22-8c1.47-.35,3.05-.64,4.72-.89-.55.89-1.09,1.77-1.62,2.68s-1,1.82-1.49,2.72c-.56-1.52-1.07-3-1.52-4.51ZM19.63,35c.48.91,1,1.82,1.49,2.72s1.07,1.8,1.62,2.68c-1.67-.25-3.25-.53-4.72-.88C18.53,38,19.07,36.52,19.63,35ZM36.12,11.68A13.3,13.3,0,0,1,43.48,8.2h.14a3.33,3.33,0,0,1,1.69.45h0c2.06,1.13,2.65,4.57,1.93,9.46-.12.82-.28,1.65-.47,2.51a54.16,54.16,0,0,0-7.43-1.21l-.24,0a62.61,62.61,0,0,0-5.05-6l0,0a19.69,19.69,0,0,1,2.06-1.69ZM61.33,31.49c0-4.27-4.57-7.9-11.85-10.12.22-1,.41-1.93.56-2.85.92-6.18-.27-10.64-3.38-12.37s-7.53-.62-12.37,3.3c-.74.58-1.47,1.24-2.21,1.92-.74-.68-1.46-1.34-2.2-1.92C25,5.53,20.52,4.36,17.51,6.15s-4.31,6.19-3.38,12.37c.15.92.33,1.87.55,2.85-7.42,2.22-12,5.85-12,10.12s4.59,7.89,11.85,10.12c-.22,1-.41,1.91-.56,2.84-.92,6.19.27,10.64,3.38,12.37a6.12,6.12,0,0,0,3.09.83h.09a15.81,15.81,0,0,0,9.28-4.14h0c.75-.57,1.47-1.23,2.21-1.91.74.68,1.46,1.34,2.21,1.91a15.72,15.72,0,0,0,9.21,4.12h.15a6.13,6.13,0,0,0,3.12-.85l0,0C49.77,55,51,50.64,50,44.45c-.15-.92-.34-1.87-.56-2.84C56.74,39.38,61.33,35.75,61.33,31.49Z"/>
</svg>
