<svg xmlns="http://www.w3.org/2000/svg" width="64" height="64" viewBox="0 0 64 64">
  <title>redis</title>
  <path d="M53.5,15.07l-7.3,3L38,14.66a.1.1,0,0,1,0-.12l7.24-2.87L53.44,15a.14.14,0,0,1,0,.06.11.11,0,0,1,0,.06h.06Zm-17.2,3.8-3,5.61-.05,0,0,0-10.56-4.2v-.12c0-.13,0-.1.1-.1L36.09,18.7h0a.13.13,0,0,1,.12.13.08.08,0,0,1,0,0ZM17.64,17.8h-.28a13.3,13.3,0,0,1-4.74-.87l.09,0c-1.35-.55-2.05-1.27-2.05-2.05s.68-1.42,1.93-1.91a12.25,12.25,0,0,1,4.15-.72h.37a13.44,13.44,0,0,1,4.72.85l-.09,0c1.37.54,2.05,1.28,2.05,2.05s-.66,1.4-1.85,1.89A12.36,12.36,0,0,1,17.64,17.8Zm4.51-8.18,5.47-1L26.45,6.23V6.11l.08,0,.07,0,4.63,1.81,5.5-1.07h.14a.19.19,0,0,1,0,.07.24.24,0,0,1,0,.08L34.43,9.05,39,10.83a.11.11,0,0,1,0,.07A.09.09,0,0,1,39,11L39,11l-.06,0-6.36-.45-2.6,2.34L28.5,10.34l-6.33-.45A.22.22,0,0,1,22,9.77h0s.05-.12.11-.14Zm39.1,5h0a.55.55,0,0,0-.36-.52h0L32.17,2.67h-.43L3,14.11a.6.6,0,0,0-.37.53h0v8.2a.67.67,0,0,0,.36.54H3L31.74,34.8h.45L60.9,23.38a.68.68,0,0,0,.37-.53h0c0-.3,0-8,0-8.2Zm0,12.92a.6.6,0,0,1-.3.29h0L32.24,39.27h-.43L3,27.87a.71.71,0,0,1-.31-.28h0a.49.49,0,0,0,0,.12.53.53,0,0,0,0,.13h0V36a.59.59,0,0,0,.36.53h0L31.78,48h.44l28.7-11.44a.54.54,0,0,0,.37-.51V27.87a.34.34,0,0,0,0-.1.46.46,0,0,0,0-.21Zm0,13.37a.6.6,0,0,1-.3.29h0L32.24,52.64l-.12,0-.11,0h-.2L3.1,41.22a.72.72,0,0,1-.31-.29h0a.49.49,0,0,0,0,.12.53.53,0,0,0,0,.13h0v8.2a.55.55,0,0,0,.34.51h0L31.85,61.33h.45L61,49.89a.61.61,0,0,0,.36-.51h0v-8.2a.53.53,0,0,0-.12-.25Z"/>
</svg>
