<?xml version="1.0" encoding="UTF-8"?>
<svg width="24px" height="24px" viewBox="0 0 24 24" version="1.1" xmlns="http://www.w3.org/2000/svg" xmlns:xlink="http://www.w3.org/1999/xlink">
    <!-- Generator: Sketch 48.2 (47327) - http://www.bohemiancoding.com/sketch -->
    <title>redis</title>
    <desc>Created with Sketch.</desc>
    <defs></defs>
    <g id="Page-1" stroke="none" stroke-width="1" fill="none" fill-rule="evenodd">
        <g id="redis" fill="#000000" fill-rule="nonzero">
            <path d="M22.9692415,15.3488291 C22.9446347,15.3972737 22.9046487,15.4349528 22.8554352,15.4557148 L22.8538972,15.4564837 L12.0884306,19.7396015 C12.0761272,19.7434463 12.061517,19.7457532 12.0461377,19.7457532 C12.0307585,19.7457532 12.0161482,19.7434463 12.0030758,19.7396015 L12.0038448,19.7396015 L11.9269486,19.7396015 L1.161482,15.4564837 C1.11226844,15.4326459 1.07305138,15.3957358 1.04690668,15.350367 L1.04613771,15.3488291 C1.04383083,15.3626704 1.0422929,15.3788186 1.0422929,15.3949668 C1.0422929,15.411115 1.04383083,15.4272632 1.04613771,15.4426424 L1.04613771,15.4411045 L1.04613771,18.5169521 C1.04613771,18.6038448 1.09996505,18.6776652 1.17532331,18.7084236 L1.17686124,18.7091926 L11.9423279,23 L12.1114995,23 L22.8769661,18.7091926 C22.9538623,18.6753583 23.0076896,18.6030758 23.0153792,18.5177211 L23.0153792,18.5169521 C23.0153792,18.4246767 23.0153792,15.5487592 23.0153792,15.4411045 C23.0053827,15.4057323 22.9900035,15.3749738 22.9684726,15.3480601 L22.9692415,15.3488291 Z M22.9692415,10.3351975 C22.9446347,10.3836421 22.9046487,10.4213212 22.8554352,10.4420832 L22.8538972,10.4428521 L12.0884306,14.7259699 L11.9269486,14.7259699 L1.13072352,10.4505418 C1.08150996,10.4267039 1.0422929,10.3897938 1.0161482,10.344425 L1.01537924,10.3428871 C1.01307235,10.3567284 1.01153443,10.3728766 1.01153443,10.3890248 C1.01153443,10.405173 1.01307235,10.4213212 1.01537924,10.4367005 L1.01537924,10.4351625 L1.01537924,13.5110101 C1.01845509,13.6009787 1.07382034,13.6778749 1.15225446,13.7101713 L1.15379238,13.7109402 L11.919259,17.994058 L12.080741,17.994058 L22.8462076,13.7032506 C22.9261797,13.6740301 22.9830828,13.5994408 22.9846208,13.5110101 L22.9846208,10.4505418 C22.9876966,10.4390073 22.9892345,10.425935 22.9892345,10.4128626 C22.9892345,10.384411 22.9815449,10.3574974 22.9692415,10.3344285 L22.9700105,10.3351975 L22.9692415,10.3351975 Z M22.9692415,5.4907375 C22.9692415,5.48919958 22.9692415,5.48766166 22.9692415,5.48689269 C22.9692415,5.39692415 22.9123383,5.32079692 22.8323663,5.29157637 L22.8308284,5.29080741 L12.0653618,1 L11.9038798,1 L1.13841314,5.29080741 C1.05997903,5.3254107 1.00461377,5.40153792 1,5.48996854 L1,5.4907375 C1,5.57532331 1,8.45124082 1,8.56658511 C1.00922754,8.65424677 1.06305488,8.72806711 1.13687522,8.76574624 L1.13841314,8.7665152 L11.9038798,13.049633 L12.0730514,13.049633 L22.838518,8.7665152 C22.9138763,8.72806711 22.9677036,8.65424677 22.9769311,8.56735407 L22.9769311,8.56658511 C22.9923104,8.45124082 22.9923104,5.57532331 22.9923104,5.4907375 L22.9692415,5.4907375 Z M8.30513806,3.60678085 L10.3582663,3.21461028 L9.91995806,2.33799371 C9.91995806,2.33799371 9.91995806,2.29954561 9.91995806,2.29185599 C9.92764768,2.28724222 9.93687522,2.28493534 9.94687172,2.28493534 C9.95686823,2.28493534 9.96609577,2.28724222 9.97378539,2.29262496 L11.7116393,2.96931143 L13.7724572,2.56945124 C13.7801468,2.56637539 13.7893743,2.56406851 13.7993708,2.56406851 C13.8093674,2.56406851 13.8185949,2.56637539 13.8270535,2.56945124 L13.8262845,2.56945124 C13.8316672,2.57714086 13.8347431,2.5863684 13.8347431,2.59636491 C13.8347431,2.60636141 13.8316672,2.61558895 13.8262845,2.62327857 L12.9112199,3.39224048 L14.6336945,4.06123733 C14.6390772,4.06892695 14.6421531,4.07815449 14.6421531,4.088151 C14.6421531,4.0981475 14.6390772,4.10737504 14.6336945,4.11506466 C14.6267739,4.11814051 14.6190842,4.1204474 14.6106257,4.1204474 C14.6021671,4.1204474 14.5944775,4.11814051 14.5875568,4.11506466 L12.2037749,3.94589304 L11.2271933,4.82250961 L10.68892,3.87668647 L8.31282768,3.70751485 C8.29052779,3.7005942 8.27361063,3.68367704 8.26668997,3.6621461 L8.26668997,3.66137714 C8.26668997,3.66137714 8.28206921,3.61523943 8.30513806,3.60754981 L8.30513806,3.60678085 Z M6.61342188,6.67493883 C6.5826634,6.67570779 6.54575323,6.67570779 6.50961202,6.67570779 C5.88367704,6.67570779 5.28542468,6.55959455 4.73407899,6.34813002 L4.76791332,6.35966445 C4.26039846,6.15204474 3.99895142,5.88290807 3.99895142,5.59070255 C3.99895142,5.29849703 4.25270884,5.06011884 4.7217756,4.87556798 C5.18469067,4.70485844 5.71835023,4.60566236 6.27584761,4.60566236 C6.29968542,4.60566236 6.32352324,4.60566236 6.34813002,4.60643132 L6.34428521,4.60643132 C6.36581615,4.60643132 6.39119189,4.60566236 6.41656763,4.60566236 C7.03942677,4.60566236 7.63537225,4.71869976 8.18594897,4.92555051 L8.15134568,4.91401608 C8.66655016,5.11394617 8.92030758,5.39077246 8.92030758,5.68297798 C8.92030758,5.9751835 8.67423978,6.20587207 8.22824187,6.39042293 C7.74764069,6.56959105 7.19321915,6.67416987 6.61342188,6.67493883 Z M13.6109752,7.07479902 L12.50367,9.18175463 C12.4982873,9.18483048 12.4913667,9.18713736 12.484446,9.18713736 C12.4775253,9.18713736 12.4706047,9.18559944 12.465222,9.18175463 L8.50506816,7.60538273 C8.50506816,7.60538273 8.50506816,7.60538273 8.50506816,7.55924502 C8.50506816,7.51310731 8.50506816,7.52079692 8.54351625,7.52079692 L13.534079,7.01328207 C13.534079,7.01328207 13.534079,7.01328207 13.534079,7.01328207 C13.534848,7.01328207 13.5356169,7.01328207 13.5363859,7.01328207 C13.5617616,7.01328207 13.5825236,7.03404404 13.5825236,7.05941978 C13.5825236,7.06480252 13.5817546,7.07018525 13.5794477,7.07556798 L13.6109752,7.07479902 Z M20.0625655,5.6522195 L17.3250612,6.76721426 L14.2492136,5.49842712 C14.2453688,5.49150647 14.2430619,5.48381685 14.2430619,5.47535827 C14.2430619,5.46689969 14.2453688,5.45921007 14.2492136,5.45228941 L16.9636491,4.37574275 L20.0394967,5.60608179 C20.0441105,5.61223348 20.0471863,5.62069207 20.0471863,5.62915065 C20.0471863,5.63760923 20.0441105,5.64606781 20.0394967,5.6522195 C20.0394967,5.6522195 20.0471863,5.6522195 20.0318071,5.6522195 L20.0625655,5.6522195 Z" id="Shape"></path>
        </g>
    </g>
</svg>