<?xml version="1.0" encoding="UTF-8"?>
<svg width="24px" height="24px" viewBox="0 0 24 24" version="1.1" xmlns="http://www.w3.org/2000/svg" xmlns:xlink="http://www.w3.org/1999/xlink">
    <!-- Generator: Sketch 48.2 (47327) - http://www.bohemiancoding.com/sketch -->
    <title>redux</title>
    <desc>Created with Sketch.</desc>
    <defs></defs>
    <g id="Page-1" stroke="none" stroke-width="1" fill="none" fill-rule="evenodd">
        <g id="redux" fill="#000000" fill-rule="nonzero">
            <path d="M10.354378,17.1721085 C10.3311909,18.0076179 9.6479436,18.67618 8.80934259,18.67618 C7.9552835,18.67618 7.26353428,17.9844308 7.26353428,17.1303717 C7.26353428,16.7856565 7.37637829,16.46722 7.56728562,16.2098429 L7.564194,16.2137074 C6.46512429,14.6145687 5.80815576,12.636707 5.80815576,10.5058102 C5.80815576,10.4501611 5.80892866,10.394512 5.80970157,10.3388629 L5.80970157,10.3473649 C5.80970157,5.74858515 8.53805323,2 11.8924573,2 C14.9840739,2 17.4882833,5.09161662 17.9056516,9.16482151 C17.5586176,8.9947826 17.1196081,8.81160431 16.6690049,8.65238606 L16.5762564,8.6237886 C16.0506816,5.53217199 14.1570664,3.21345952 11.8924573,3.21345952 C9.22593793,3.21345952 7.0618063,6.40555368 7.0618063,10.3164487 C7.06026049,10.3744165 7.05948759,10.4416592 7.05948759,10.5096747 C7.05948759,12.4156564 7.66544444,14.1809695 8.69495278,15.6216628 L8.67717598,15.5946112 L8.80084065,15.5946112 C8.80315936,15.5946112 8.80625097,15.5946112 8.80856969,15.5946112 C9.66262878,15.5946112 10.354378,16.2863604 10.354378,17.1404195 C10.354378,17.1512401 10.354378,17.1620608 10.354378,17.1728815 L10.354378,17.1713356 L10.354378,17.1721085 Z M15.5173777,13.7790593 C15.0443604,14.0495758 14.7305613,14.5511906 14.7305613,15.1254583 C14.7305613,15.4152974 14.8101704,15.6873597 14.9492932,15.9192309 L14.9454287,15.9122748 C14.9709345,15.942418 14.9964403,15.97488 15.0204004,16.0088878 L15.0227191,16.0127523 C14.217353,17.7533325 12.9165553,19.1507432 11.3035043,20.055041 L11.2586759,20.0782282 C7.86562662,22.0104886 4.02429297,21.724514 2.71808495,19.4135306 C1.62056105,17.5121864 2.57123316,14.8224799 4.83584233,12.8361162 C4.75082288,12.4357519 4.67971569,11.9441848 4.63797887,11.4448888 L4.63488725,11.3985145 C1.45825118,13.7867884 0.113397951,17.442625 1.61283201,20.0782282 C3.29003403,22.9843478 7.89654278,23.4712774 11.8847282,21.168023 C13.7126465,20.1338773 15.1572044,18.6073916 16.0630481,16.7678797 L16.0893268,16.7083661 C16.1542508,16.7176409 16.2292225,16.7238241 16.3049671,16.7238241 C17.1590262,16.7238241 17.8507754,16.0320749 17.8507754,15.1780158 C17.8507754,14.8874039 17.7703934,14.6153416 17.6312706,14.3826975 L17.6351351,14.3896536 C17.3684832,13.9042698 16.8599123,13.5804229 16.2755967,13.5804229 C15.9965783,13.5804229 15.7353367,13.6538488 15.5096487,13.7836967 L15.5173777,13.7798322 L15.5173777,13.7790593 Z M18.1838971,10.6874427 C16.6921921,9.78159903 14.8882338,9.24597645 12.9598379,9.24597645 C12.6985963,9.24597645 12.4396734,9.2560242 12.1830692,9.2753468 L12.217077,9.27302809 C11.9767038,8.71189968 11.4294877,8.3254476 10.7918417,8.3254476 C9.93778266,8.3254476 9.24603344,9.01719682 9.24603344,9.87125591 C9.24603344,10.725315 9.93778266,11.4170642 10.7918417,11.4170642 C11.362245,11.4170642 11.8607682,11.1079026 12.128193,10.6487975 L12.1320576,10.6418413 C12.1467427,10.6140168 12.1622008,10.5776903 12.1761131,10.5413638 L12.1784318,10.5336348 C12.435036,10.507356 12.733377,10.4918979 13.0348096,10.4918979 C14.7174219,10.4918979 16.2902819,10.9649153 17.6274061,11.7841937 L17.5887609,11.7625524 C20.9818101,13.7257289 22.6590121,17.1728815 21.329617,19.4915939 C20.2011769,21.4393124 17.2873283,21.9417001 14.3734796,20.8750924 C14.0326289,21.1618398 13.6546787,21.4493601 13.2628163,21.716785 L13.2141234,21.748474 C16.9163343,23.3947599 20.8813326,22.7609785 22.4039538,20.1176463 C24.0502396,17.2579009 22.1720825,13.0223861 18.176168,10.7191318 L18.1838971,10.6874427 Z" id="Shape"></path>
        </g>
    </g>
</svg>