<svg xmlns="http://www.w3.org/2000/svg" width="64" height="64" viewBox="0 0 64 64">
  <title>redux</title>
  <path d="M48.49,28.5a26.83,26.83,0,0,0-13.93-3.84c-.7,0-1.39,0-2.07.07h.09a4.13,4.13,0,1,0-.24,3.67v0q.06-.12.12-.27v0C33.16,28,34,28,34.76,28A23.42,23.42,0,0,1,47,31.42l-.11-.05C56,36.6,60.42,45.79,56.88,52c-3,5.19-10.78,6.53-18.55,3.69-.91.76-1.92,1.53-3,2.24l-.13.09c9.87,4.39,20.44,2.7,24.5-4.35,4.39-7.63-.61-18.92-11.27-25.07Zm-7.11,8.24a4.13,4.13,0,0,0-1.52,5.71v0a2.56,2.56,0,0,1,.2.26h0a23.71,23.71,0,0,1-9.92,10.78l-.12.06c-9,5.15-19.29,4.39-22.77-1.77C4.32,46.7,6.86,39.53,12.9,34.23a30.05,30.05,0,0,1-.53-3.71V30.4C3.89,36.76.3,46.51,4.3,53.54c4.47,7.75,16.76,9.05,27.39,2.91A27.3,27.3,0,0,0,42.83,44.71l.07-.15a5.28,5.28,0,0,0,.58,0A4.14,4.14,0,0,0,47,38.35v0a4.14,4.14,0,0,0-3.63-2.16,4,4,0,0,0-2,.55h0Zm-13.77,9a4.12,4.12,0,0,1-8.24-.11,4.07,4.07,0,0,1,.81-2.45h0A26.88,26.88,0,0,1,15.49,28v-.43c0-12.26,7.28-22.26,16.22-22.26,8.25,0,14.93,8.25,16,19.11a34.82,34.82,0,0,0-3.3-1.37L44.2,23C42.8,14.75,37.75,8.57,31.71,8.57c-7.11,0-12.88,8.51-12.88,18.94V28a23.33,23.33,0,0,0,4.36,13.63l-.05-.07h.35a4.11,4.11,0,0,1,4.12,4.12v.08Z"/>
</svg>
