<?xml version="1.0" encoding="UTF-8"?>
<svg width="24px" height="24px" viewBox="0 0 24 24" version="1.1" xmlns="http://www.w3.org/2000/svg" xmlns:xlink="http://www.w3.org/1999/xlink">
    <!-- Generator: Sketch 48.2 (47327) - http://www.bohemiancoding.com/sketch -->
    <title>route-53</title>
    <desc>Created with Sketch.</desc>
    <defs></defs>
    <g id="Page-1" stroke="none" stroke-width="1" fill="none" fill-rule="evenodd">
        <g id="route-53" fill="#000000" fill-rule="nonzero">
            <path d="M20.932344,6.78584992 L19.8647584,6.39904353 C19.7711513,6.36500457 19.6628455,6.34489064 19.5506716,6.34489064 C19.5444827,6.34489064 19.5375202,6.34489064 19.5313313,6.34489064 L19.5321049,6.34489064 L19.3696462,6.34489064 L16.7625712,6.79358605 L16.7625712,3.69913496 C16.7625712,3.69836135 16.7625712,3.69758773 16.7625712,3.69758773 C16.7625712,3.32161193 16.5475069,2.99514734 16.2341937,2.83578311 L16.2287784,2.83346227 L12.7165764,1.10056966 C12.5897039,1.04022786 12.4411703,1.00309445 12.2841269,1 L12.2833533,1 C12.1255363,1.00232084 11.9770026,1.03868064 11.8439412,1.1028905 L11.8501301,1.09979605 L8.330192,2.86363317 C8.01146353,3.02609185 7.79639918,3.35178283 7.79639918,3.72853225 C7.79639918,3.72930586 7.79639918,3.73007947 7.79639918,3.73085308 L7.79639918,5.27807863 L5.24347704,4.65145228 C5.2109853,4.64758422 5.17307828,4.64526338 5.13517125,4.64526338 C5.09726422,4.64526338 5.0593572,4.64758422 5.02222379,4.65145228 L5.02686546,4.65067867 C4.86904846,4.65299951 4.7205148,4.69013292 4.58745341,4.75356917 L4.59364231,4.75124833 L3.53379281,5.28504114 C3.22125325,5.44440537 3.00850974,5.760813 3,6.12750545 L3,6.12827906 L3,8.80497925 C3.00077361,9.30241227 3.37288136,9.71242703 3.8540685,9.7712216 L3.85871018,9.77199522 L7.79639918,10.2129545 L7.79639918,20.2699205 C7.79639918,20.2706941 7.79639918,20.2714678 7.79639918,20.2714678 C7.79639918,20.6474436 8.01146353,20.9739082 8.32477671,21.1332724 L8.330192,21.1355932 L11.8501301,22.8994303 C11.9770026,22.9605457 12.1255363,22.9976792 12.2825796,23 L12.2833533,23 C12.4411703,22.9969055 12.5897039,22.9597721 12.7227653,22.8963359 L12.7165764,22.8994303 L16.2287784,21.1355932 C16.5475069,20.9731345 16.7625712,20.6474436 16.7625712,20.2706941 C16.7625712,20.2699205 16.7625712,20.2691469 16.7625712,20.2683733 L16.7625712,11.6580632 L20.6306351,11.4491877 C21.1520501,11.4283002 21.5667065,10.9997187 21.5667065,10.4752092 C21.5667065,10.4697939 21.5667065,10.463605 21.5667065,10.4581897 L21.5667065,10.4589634 L21.5667065,7.67395738 C21.5566496,7.26703706 21.2990365,6.92355299 20.9393066,6.78662353 L20.932344,6.78430269 L20.932344,6.78584992 Z M10.9527393,9.27688304 L5.02686546,8.50327027 L5.02686546,5.59448625 L10.9527393,6.98698924 L10.9527393,9.27688304 Z M15.7955552,7.9540052 L13.6062311,8.32533933 L13.6062311,10.7235389 L14.7047612,10.8009002 L15.7955552,10.7390112 L15.7955552,20.2853928 L12.2833533,22.0647022 L12.2833533,1.9507701 L15.7955552,3.70687109 L15.7955552,7.9540052 Z M20.5996906,10.4605106 L19.5321049,10.3212603 L19.5321049,7.3119066 L20.5996906,7.69871299 L20.5996906,10.4605106 Z" id="Shape"></path>
        </g>
    </g>
</svg>