<svg xmlns="http://www.w3.org/2000/svg" width="64" height="64" viewBox="0 0 64 64">
  <title>route-fiftythree</title>
  <path d="M54.93,27.89l-2.84-.37v-8l2.84,1ZM42.12,21.21l-5.84,1v6.4l2.93.2,2.91-.16V54.09l-9.36,4.75V5.2l9.36,4.69ZM29.21,24.74,13.4,22.68V14.92l15.81,3.71ZM55.82,18.1l-2.85-1a2.49,2.49,0,0,0-.83-.14h-.49l-6.95,1.2V9.86h0a2.58,2.58,0,0,0-1.41-2.3h0L33.91,2.93a2.7,2.7,0,0,0-1.15-.26h0a2.73,2.73,0,0,0-1.18.27h0L22.21,7.64a2.57,2.57,0,0,0-1.42,2.3h0v4.12L14,12.4H13.4a2.88,2.88,0,0,0-1.17.28h0L9.42,14.09A2.59,2.59,0,0,0,8,16.34H8v7.14a2.6,2.6,0,0,0,2.28,2.58h0l10.5,1.17V54.05h0a2.58,2.58,0,0,0,1.41,2.3h0l9.39,4.71a2.7,2.7,0,0,0,1.15.26h0a2.72,2.72,0,0,0,1.17-.27h0l9.37-4.71a2.57,2.57,0,0,0,1.42-2.3h0v-23L55,30.53a2.59,2.59,0,0,0,2.49-2.6v0h0V20.46a2.59,2.59,0,0,0-1.67-2.36h0Z"/>
</svg>
