<?xml version="1.0" encoding="UTF-8"?>
<svg width="24px" height="24px" viewBox="0 0 24 24" version="1.1" xmlns="http://www.w3.org/2000/svg" xmlns:xlink="http://www.w3.org/1999/xlink">
    <!-- Generator: Sketch 48.2 (47327) - http://www.bohemiancoding.com/sketch -->
    <title>sendgrid</title>
    <desc>Created with Sketch.</desc>
    <defs></defs>
    <g id="Page-1" stroke="none" stroke-width="1" fill="none" fill-rule="evenodd">
        <g id="sendgrid" fill="#000000">
            <path d="M8.62666667,1.00040183 L8.62666667,7.75269406 L1,7.75269406 L1,23.0221005 L16.2694064,23.0221005 L16.2694064,15.3713242 L23.0008037,15.3713242 L23.0008037,1.00040183 L8.62666667,1.00040183 Z M9.53479452,7.72938813 L15.3612785,7.72938813 L15.3612785,1.90852968 L16.2694064,1.90852968 L16.2694064,7.72938813 L22.0918721,7.72938813 L22.0918721,8.63671233 L16.2694064,8.63671233 L16.2694064,14.4672146 L15.3612785,14.4672146 L15.3612785,8.63671233 L9.53479452,8.63671233 L9.53479452,7.72938813 Z M1.88401826,8.63671233 L8.62666667,8.63671233 L8.62666667,15.3713242 L15.3612785,15.3713242 L15.3612785,22.1139726 L8.62666667,22.1139726 L8.62666667,15.3713242 L1.88401826,15.3713242 L1.88401826,8.63671233 Z" id="Page-1"></path>
        </g>
    </g>
</svg>