<?xml version="1.0" encoding="UTF-8"?>
<svg width="24px" height="24px" viewBox="0 0 24 24" version="1.1" xmlns="http://www.w3.org/2000/svg" xmlns:xlink="http://www.w3.org/1999/xlink">
    <!-- Generator: Sketch 48.2 (47327) - http://www.bohemiancoding.com/sketch -->
    <title>sentry</title>
    <desc>Created with Sketch.</desc>
    <defs></defs>
    <g id="Page-1" stroke="none" stroke-width="1" fill="none" fill-rule="evenodd">
        <g id="sentry" fill="#000000" fill-rule="nonzero">
            <path d="M14.7583295,19.7319064 C14.2640469,14.5264927 11.5454926,10.7962037 7.24368929,7.96952503 C8.301763,6.21636642 9.21309655,4.4863773 10.3329556,2.90312832 C11.2906281,1.53612799 13.0978489,1.76782296 14.032352,3.28156344 C14.966855,4.79530392 15.8704654,6.41716872 16.7663526,7.99269453 C17.994336,10.1706273 19.206873,12.3640063 20.4348563,14.5342159 C21.1222181,15.7544761 21.8790883,16.9515668 22.5046647,18.2027196 C22.8081852,18.7641938 22.9904519,19.430703 22.9989473,20.1381449 L22.9989473,20.1404619 C22.9950858,21.2286559 22.122368,22.1114138 21.0395802,22.1330386 L21.0372633,22.1330386 C20.465749,22.194824 19.8787884,22.1793776 19.3072741,22.1871008 C19.0910255,22.1786053 18.8886786,22.1592974 18.6894209,22.1291771 L18.7203135,22.1330386 L18.7203135,19.8160889 C18.9829012,19.8160889 19.2223193,19.7697499 19.4926301,19.7620268 C20.5198112,19.7620268 20.7051671,19.4531001 20.2108845,18.5803824 C19.438568,17.2211052 18.6662514,15.8695512 17.8939348,14.5025509 C16.1536481,11.5214089 14.4468285,8.5351182 12.7734759,5.54367868 C12.2019617,4.55511347 11.8698656,4.56283664 11.3137976,5.54367868 L10.4565262,7.04197283 C10.4565262,7.08831183 10.4565262,7.15009715 10.4101872,7.26594464 C14.827838,11.1738665 17.4073754,15.9545061 17.0057708,22.1330386 L10.9044698,22.1330386 C10.9353625,21.8256566 10.9523535,21.4688464 10.9523535,21.1074022 C10.9523535,18.9649961 10.3391341,16.9654685 9.27874346,15.2748675 L9.30577454,15.3204342 C8.73426028,14.4091006 8.01600586,13.636784 7.31319778,12.7331736 C7.13556497,12.9725918 7.08150281,13.0652698 7.01199432,13.1502246 C6.40186423,13.8762022 6.41731056,14.4245469 7.12784181,15.2123098 C8.46472179,16.7499921 9.28028809,18.7726892 9.28028809,20.9861485 C9.28028809,21.3900701 9.25325701,21.7885854 9.20073948,22.177833 L9.2061457,22.1322663 C9.02001741,22.1685652 8.79759023,22.1963686 8.57052916,22.2087257 L8.55739978,22.209498 C6.92781181,22.209498 5.30594701,22.209498 3.68408222,22.209498 C1.18949969,22.2481138 0.417183118,20.0470116 1.43664099,18.340192 C1.81507611,17.7146155 2.20895756,17.0658696 2.59511585,16.339892 L4.37144396,17.6991692 C4.13974899,18.108497 3.94666985,18.4328699 3.76903704,18.7726892 C3.46011041,19.3905425 3.63774322,19.7458081 4.3173818,19.7689776 C5.13603737,19.7689776 5.95469293,19.7689776 6.88147282,19.7689776 C6.49763148,17.662098 5.20863513,15.9158902 3.4408025,14.9211465 L3.40604825,14.9033832 C4.44095245,13.1116088 5.444964,11.350727 6.49531453,9.55122937 C10.1576397,11.6472965 12.6908381,15.3551884 13.1326031,19.6817058 L13.137237,19.7380849 C13.4229942,19.7380849 13.693305,19.7380849 13.9636158,19.7380849 C14.2339266,19.7380849 14.4424521,19.7380849 14.7745482,19.6994691 L14.7583295,19.7319064 Z" id="Shape"></path>
        </g>
    </g>
</svg>