<svg xmlns="http://www.w3.org/2000/svg" width="64" height="64" viewBox="0 0 64 64">
  <title>sentry</title>
  <path d="M39.36,52.62c-1.32-13.88-8.57-23.83-20-31.37,2.82-4.67,5.25-9.29,8.23-13.51,2.56-3.64,7.38-3,9.87,1s4.9,8.36,7.29,12.56C48,27.12,51.22,33,54.49,38.76,56.33,42,58.34,45.2,60,48.54a11.16,11.16,0,0,1,1.32,5.16h0A5.33,5.33,0,0,1,56.11,59h0c-1.52.17-3.09.13-4.61.15-.58,0-1.12-.08-1.65-.16h.08V52.84c.7,0,1.34-.12,2.06-.14,2.74,0,3.23-.83,1.92-3.15-2.06-3.63-4.12-7.23-6.18-10.88q-7-11.93-13.66-23.89c-1.52-2.63-2.41-2.61-3.89,0l-2.29,4a1.47,1.47,0,0,1-.12.6C39.54,29.8,46.42,42.55,45.35,59H29.08c.08-.82.13-1.77.13-2.73a29.17,29.17,0,0,0-4.47-15.56l.08.12A85.55,85.55,0,0,0,19.5,34c-.47.63-.62.88-.8,1.11-1.63,1.93-1.59,3.4.31,5.5A23.42,23.42,0,0,1,24.75,56a23.81,23.81,0,0,1-.21,3.18V59a11.85,11.85,0,0,1-1.7.2h-13c-6.65.1-8.71-5.77-6-10.32,1-1.67,2.06-3.4,3.09-5.34l4.74,3.63c-.62,1.09-1.14,1.95-1.61,2.86-.82,1.65-.35,2.6,1.46,2.66h6.84A18.6,18.6,0,0,0,9.18,39.79l-.1,0c2.76-4.78,5.44-9.47,8.24-14.27a35.25,35.25,0,0,1,17.7,27v.15h2.21a16.89,16.89,0,0,0,2.16-.1Z"/>
</svg>
