<svg xmlns="http://www.w3.org/2000/svg" width="64" height="64" viewBox="0 0 64 64">
  <title>silver</title>
  <path d="M13.78,46.77a2.1,2.1,0,1,1,0-4.2h20.3a2.1,2.1,0,0,1,0,4.2Zm34.25,0a2.1,2.1,0,0,1,0-4.2h2a2.1,2.1,0,1,1,0,4.2ZM13.78,36.31a2.1,2.1,0,1,1,0-4.2H25.65a2.1,2.1,0,0,1,0,4.2Zm34.25,0a2.1,2.1,0,0,1,0-4.2h2a2.1,2.1,0,0,1,0,4.2Zm0-10.47a2.1,2.1,0,0,1,0-4.2h2a2.1,2.1,0,1,1,0,4.2Zm-34.25,0a2.1,2.1,0,0,1,0-4.2H38.23a2.1,2.1,0,1,1,0,4.2ZM56,2.67h0A5.32,5.32,0,0,1,61.27,8V57.76a2.9,2.9,0,0,1-4.6,2.35l-2.77-2-6.18,2.93a2.9,2.9,0,0,1-2.6-.06l-5.57-3-6.35,3A2.9,2.9,0,0,1,30.6,61L25,58l-6.35,3a3,3,0,0,1-1.24.27A2.88,2.88,0,0,1,16.11,61l-5.68-2.9L7.17,60.27a2.92,2.92,0,0,1-3,.12,2.88,2.88,0,0,1-1.52-2.55V16.48A5.31,5.31,0,0,1,8,11.17H41.06a2.1,2.1,0,0,1,0,4.2H8a1.11,1.11,0,0,0-1.11,1.11v39l1.88-1.24A2.91,2.91,0,0,1,11.66,54L17.45,57l6.36-3a2.9,2.9,0,0,1,2.6.05L32,57l6.34-3a2.9,2.9,0,0,1,2.6.06L46.51,57l6.28-3a2.9,2.9,0,0,1,2.94.27l1.33,1V8A1.1,1.1,0,0,0,56,6.87H4.77a2.1,2.1,0,0,1,0-4.2Z"/>
</svg>
