<?xml version="1.0" encoding="UTF-8"?>
<svg width="24px" height="24px" viewBox="0 0 24 24" version="1.1" xmlns="http://www.w3.org/2000/svg" xmlns:xlink="http://www.w3.org/1999/xlink">
    <!-- Generator: Sketch 48.2 (47327) - http://www.bohemiancoding.com/sketch -->
    <title>silver</title>
    <desc>Created with Sketch.</desc>
    <defs></defs>
    <g id="Page-1" stroke="none" stroke-width="1" fill="none" fill-rule="evenodd">
        <g id="silver" fill="#000000" fill-rule="nonzero">
            <path d="M20.9837599,1 L20.9847635,1 C22.0817025,1 22.9749099,1.89220382 22.9749099,2.99014643 L22.9749099,21.6581817 C22.9749099,22.0686556 22.7480954,22.4399891 22.3827836,22.6266594 C22.0174718,22.8133297 21.583915,22.7812144 21.2507185,22.541353 L20.2119885,21.7946718 L17.8956708,22.8926144 C17.5875644,23.0391406 17.2222526,23.0311117 16.9201679,22.8715387 L14.8296611,21.7655673 L12.4491127,22.893618 C12.1410063,23.0401442 11.7756945,23.0321153 11.4736098,22.8725423 L9.38310296,21.7665709 L7.00054742,22.8956252 C6.85402126,22.9648739 6.69444825,23 6.53487523,23 C6.36426258,23 6.19465353,22.9598558 6.04009854,22.8815747 L3.91045117,21.7956754 L2.68806168,22.5995621 C2.35285799,22.8193513 1.92632635,22.8384198 1.5730578,22.647735 C1.21978924,22.4570503 1.0010036,22.0897313 1.0010036,21.6892934 L1.0010036,6.17859587 C1.0010036,5.08165686 1.89320743,4.18844943 2.99115004,4.18844943 L15.3956936,4.18844943 C15.8302541,4.18844943 16.1835226,4.54171799 16.1835226,4.97627845 C16.1835226,5.41083892 15.8312577,5.76410748 15.3956936,5.76410748 L2.99115004,5.76410748 C2.76232836,5.76410748 2.57666165,5.94977419 2.57666165,6.17859587 L2.57666165,20.7850463 L3.28119155,20.3223849 C3.6073628,20.1086173 4.02586561,20.0845308 4.37311254,20.2621687 L6.54190046,21.3681401 L8.92847042,20.2370786 C9.2365768,20.0905524 9.6018886,20.0985813 9.90397336,20.2581543 L11.9944802,21.3641257 L14.3750285,20.236075 C14.6841385,20.0895488 15.0484467,20.0975777 15.3505315,20.2571507 L17.4410383,21.3631221 L19.7975001,20.2471146 C20.1557867,20.0775056 20.5783039,20.1156425 20.8994571,20.347475 L21.3982483,20.7067652 L21.3982483,2.99014643 C21.3982483,2.76132476 21.2125815,2.57565804 20.9837599,2.57565804 L1.78782902,2.57565804 C1.35326856,2.57565804 1,2.22238949 1,1.78782902 C1,1.35326856 1.35226495,1 1.78782902,1 L20.9837599,1 Z M5.16796679,9.69120934 C4.73340632,9.69120934 4.38013777,9.33794079 4.38013777,8.90338032 C4.38013777,8.46881985 4.73240272,8.1155513 5.16796679,8.1155513 L14.335888,8.1155513 C14.7704484,8.1155513 15.123717,8.46881985 15.123717,8.90338032 C15.123717,9.33794079 14.771452,9.69120934 14.335888,9.69120934 L5.16796679,9.69120934 Z M18.0130925,9.69120934 C17.578532,9.69120934 17.2252634,9.33794079 17.2252634,8.90338032 C17.2252634,8.46881985 17.5775284,8.1155513 18.0130925,8.1155513 L18.7758314,8.1155513 C19.2103919,8.1155513 19.5636604,8.46881985 19.5636604,8.90338032 C19.5636604,9.33794079 19.2113955,9.69120934 18.7758314,9.69120934 L18.0130925,9.69120934 Z M18.0130925,13.616304 C17.578532,13.616304 17.2252634,13.2630354 17.2252634,12.828475 C17.2252634,12.3939145 17.5775284,12.040646 18.0130925,12.040646 L18.7758314,12.040646 C19.2103919,12.040646 19.5636604,12.3939145 19.5636604,12.828475 C19.5636604,13.2630354 19.2113955,13.616304 18.7758314,13.616304 L18.0130925,13.616304 Z M5.16796679,13.616304 C4.73340632,13.616304 4.38013777,13.2630354 4.38013777,12.828475 C4.38013777,12.3939145 4.73240272,12.040646 5.16796679,12.040646 L9.61794626,12.040646 C10.0525067,12.040646 10.4057753,12.3939145 10.4057753,12.828475 C10.4057753,13.2630354 10.0535103,13.616304 9.61794626,13.616304 L5.16796679,13.616304 Z M18.0130925,17.5403951 C17.578532,17.5403951 17.2252634,17.1871265 17.2252634,16.752566 C17.2252634,16.3180056 17.5775284,15.964737 18.0130925,15.964737 L18.7758314,15.964737 C19.2103919,15.964737 19.5636604,16.3180056 19.5636604,16.752566 C19.5636604,17.1871265 19.2113955,17.5403951 18.7758314,17.5403951 L18.0130925,17.5403951 Z M5.16796679,17.5403951 C4.73340632,17.5403951 4.38013777,17.1871265 4.38013777,16.752566 C4.38013777,16.3180056 4.73240272,15.964737 5.16796679,15.964737 L12.7813056,15.964737 C13.2158661,15.964737 13.5691346,16.3180056 13.5691346,16.752566 C13.5691346,17.1871265 13.2168697,17.5403951 12.7813056,17.5403951 L5.16796679,17.5403951 Z" id="Shape"></path>
        </g>
    </g>
</svg>