<?xml version="1.0" encoding="UTF-8"?>
<svg width="24px" height="24px" viewBox="0 0 24 24" version="1.1" xmlns="http://www.w3.org/2000/svg" xmlns:xlink="http://www.w3.org/1999/xlink">
    <!-- Generator: Sketch 48.2 (47327) - http://www.bohemiancoding.com/sketch -->
    <title>site-protection</title>
    <desc>Created with Sketch.</desc>
    <defs></defs>
    <g id="Page-1" stroke="none" stroke-width="1" fill="none" fill-rule="evenodd">
        <g id="site-protection" fill="#000000" fill-rule="nonzero">
            <path d="M23.0010313,3.35644307 L23.0010313,20.6425257 C23.0010313,21.9439835 21.946046,23 20.6435569,23 L3.35747434,23 C2.0560165,23 1,21.9450148 1,20.6425257 L1,6.49974218 C1,5.19828435 2.05498523,4.14226785 3.35747434,4.14226785 L10.4268035,4.14226785 C10.4278348,4.14226785 10.4278348,4.14226785 10.4288661,4.14226785 C10.8630291,4.14226785 11.2146909,4.49392959 11.2146909,4.92809263 C11.2146909,5.36225566 10.8630291,5.7139174 10.4288661,5.7139174 L3.35747434,5.7139174 C2.9233113,5.7139174 2.57164956,6.06557915 2.57164956,6.49974218 L2.57164956,20.6425257 C2.57164956,21.0766887 2.9233113,21.4283504 3.35747434,21.4283504 L20.6435569,21.4283504 C21.07772,21.4283504 21.4293817,21.0766887 21.4293817,20.6425257 L21.4293817,3.35644307 C21.4293817,2.92228004 21.07772,2.57061829 20.6435569,2.57061829 L1.78582478,2.57061829 C1.35269301,2.57061829 1.00103127,2.21895655 1.00103127,1.78582478 C1.00103127,1.35269301 1.35269301,1.00103127 1.78582478,1.00103127 L20.6435569,1 C21.9450148,1 23.0010313,2.05498523 23.0010313,3.35747434 L23.0010313,3.35644307 Z M16.714433,11.9994844 L15.9286083,11.9994844 L15.9286083,11.2136596 C15.9286083,9.04696948 14.1661745,7.2845357 11.9994844,7.2845357 C9.83279426,7.2845357 8.07036047,9.04696948 8.07036047,11.2136596 L8.07036047,11.9994844 L7.2845357,11.9994844 C6.85037266,11.9994844 6.49871092,12.3511461 6.49871092,12.7853091 L6.49871092,19.0708761 C6.49871092,19.5050391 6.85037266,19.8567009 7.2845357,19.8567009 L16.7134018,19.8567009 C17.1475648,19.8567009 17.4992266,19.5050391 17.4992266,19.0708761 L17.4992266,12.7853091 C17.4992266,12.3511461 17.1475648,11.9994844 16.7134018,11.9994844 L16.714433,11.9994844 Z M9.6430413,11.2136596 C9.6430413,9.91426429 10.7000891,8.85618525 12.0005156,8.85618525 C13.3009422,8.85618525 14.35799,9.91323302 14.35799,11.2136596 L14.35799,11.9994844 L9.64407256,11.9994844 L9.64407256,11.2136596 L9.6430413,11.2136596 Z M15.9296395,18.2850513 L8.07242301,18.2850513 L8.07242301,13.5711339 L15.9296395,13.5711339 L15.9296395,18.2850513 Z" id="Shape"></path>
        </g>
    </g>
</svg>