<svg xmlns="http://www.w3.org/2000/svg" width="64" height="64" viewBox="0 0 64 64">
  <title>slack</title>
  <path d="M31.22,38.37l-2.91,1c-.17-.37-.25-.76-.39-1.13l-3.16-9.76a.27.27,0,0,0,.2-.11L35.51,24.9h.23c.14.51.33,1,.49,1.54,1,3.06,2.07,6.2,3,9.17v.31ZM59.5,31.75a5,5,0,0,0-3.28-1.2,5,5,0,0,0-1.55.24h0l-5.35,1.73v-.24c-.93-2.83-1.84-5.66-2.76-8.49-.25-.74-.48-1.5-.71-2.27a1.74,1.74,0,0,1,.38-.14h0c1.61-.52,3.22-1,4.85-1.59a5.25,5.25,0,0,0,3.46-6.23v0a4.94,4.94,0,0,0-1.94-2.76h0A5.12,5.12,0,0,0,49.71,9.6h-.39a5.19,5.19,0,0,0-1.73.29h0l-4.34,1.4a5,5,0,0,1-.82.24h0Q41.56,9,40.75,6.4a5.37,5.37,0,0,0-4.6-3.73h-.91a5.41,5.41,0,0,0-1.93.57l0,0a5.25,5.25,0,0,0-2.89,4.67,5.3,5.3,0,0,0,.24,1.56v0l.83,2.49c.31.93.59,1.86.9,2.79l-.92.31L25.81,17l-4.13,1.34-.12,0-.13,0h0c-.55-1.8-1.13-3.61-1.73-5.39a5.22,5.22,0,0,0-9.9,3.32v0c.39,1.3.83,2.62,1.26,3.92.17.5.31,1,.48,1.47-1.78.6-3.6,1.13-5.35,1.77a5,5,0,0,0-3.36,3.83v0a1.83,1.83,0,0,1-.15.59h0v.91c.1,0,0,.27.1.41a5.22,5.22,0,0,0,2.38,3.69h0a4.86,4.86,0,0,0,2.61.75,4.78,4.78,0,0,0,1.32-.18h0c.68-.19,1.32-.42,2.06-.64l3.26-1.06a1,1,0,0,1,.42-.1l3.09,9.47c.17.52.31,1,.48,1.49h-.15l-5.09,1.65a5.24,5.24,0,0,0-3.65,5,3.77,3.77,0,0,0,0,.58v0a5,5,0,0,0,1.39,3h0a5,5,0,0,0,3.76,1.7,4.87,4.87,0,0,0,1.62-.27h0L19.8,53l1.8-.6c.58,1.77,1.13,3.55,1.73,5.32a5.26,5.26,0,0,0,4.94,3.49l.49,0h0a4.92,4.92,0,0,0,3.38-1.69h0a4.85,4.85,0,0,0,1.35-3.37,5.06,5.06,0,0,0-.22-1.46v0c-.29-1-.62-1.94-.93-2.89l-.8-2.48h.2l10.78-3.51c.6,1.8,1.15,3.57,1.75,5.35a5.2,5.2,0,0,0,4.9,3.5,5.65,5.65,0,0,0,.59,0h0A4.89,4.89,0,0,0,53,53h0a4.8,4.8,0,0,0,1.43-3.44,5,5,0,0,0-.28-1.65v0L52.7,43.36a4.75,4.75,0,0,1-.22-.75v0l5.21-1.72a4.35,4.35,0,0,0,1.39-.66h0A5,5,0,0,0,61.33,36a5.22,5.22,0,0,0,0-.69v0a5,5,0,0,0-1.79-3.56h0Z"/>
</svg>
