<?xml version="1.0" encoding="UTF-8"?>
<svg width="24px" height="24px" viewBox="0 0 24 24" version="1.1" xmlns="http://www.w3.org/2000/svg" xmlns:xlink="http://www.w3.org/1999/xlink">
    <!-- Generator: Sketch 48.2 (47327) - http://www.bohemiancoding.com/sketch -->
    <title>slack</title>
    <desc>Created with Sketch.</desc>
    <defs></defs>
    <g id="Page-1" stroke="none" stroke-width="1" fill="none" fill-rule="evenodd">
        <g id="slack" fill="#000000" fill-rule="nonzero">
            <path d="M22.3111213,11.9059564 C21.9821623,11.6265348 21.5518066,11.4562502 21.0819759,11.4562502 C20.8799564,11.4562502 20.6849031,11.4879851 20.5022341,11.5460367 L20.5153925,11.5421666 L18.510678,12.1923442 C18.510678,12.1923442 18.510678,12.1304225 18.510678,12.0994617 C18.1623685,11.0390529 17.8217992,9.97864406 17.4734898,8.91823523 C17.3806073,8.63958766 17.2954649,8.35319987 17.2103226,8.06681209 C17.2528938,8.04436548 17.3016571,8.02578897 17.3527425,8.01340464 L17.3573866,8.01263062 C17.961123,7.81912536 18.5648594,7.6256201 19.1763361,7.41663442 C19.9689336,7.15424128 20.5308729,6.41969532 20.5308729,5.55356577 C20.5308729,5.39102136 20.5107483,5.23234704 20.4735953,5.08141294 L20.4766914,5.0945713 C20.3559441,4.66266756 20.095099,4.30429582 19.7475636,4.06125321 L19.7413714,4.05738311 C19.4425993,3.80118214 19.0610069,3.6339936 18.6414875,3.60148471 L18.6345213,3.60071069 C18.5927242,3.59761461 18.5431869,3.59529254 18.4936495,3.59529254 C18.2668613,3.59529254 18.0493614,3.6339936 17.8465679,3.70520353 L17.8605003,3.70133343 L16.2350561,4.22766773 C16.1475917,4.26095064 16.0384548,4.2926855 15.9269957,4.31745417 L15.9099673,4.32055026 C15.6932414,3.68585301 15.4842557,3.04341554 15.2830102,2.40097808 C15.0376456,1.63624529 14.3673433,1.07817612 13.5577173,1.00077402 L13.5492031,1 L13.2163741,1 C12.9524329,1.02786476 12.7109383,1.10217078 12.4926644,1.21440383 L12.5042747,1.20898568 C11.8571931,1.5371706 11.4206453,2.19818457 11.4206453,2.96059529 C11.4206453,3.16416283 11.4516061,3.35999015 11.5088837,3.54498118 L11.5050135,3.5310488 L11.814622,4.46761426 C11.9307251,4.81592372 12.0390881,5.16423319 12.1551912,5.51254266 L11.8068818,5.62864582 L9.67832389,6.35622559 L8.13028181,6.85933927 C8.11634944,6.86320937 8.10009499,6.86553144 8.08384055,6.86553144 C8.06758611,6.86553144 8.05133167,6.86320937 8.03585125,6.85856525 L8.03739929,6.85856525 C7.82841361,6.18516694 7.61168772,5.50402843 7.38722162,4.83837033 C7.10160785,4.08834395 6.38796045,3.5643317 5.55279175,3.5643317 C4.47148436,3.5643317 3.59451852,4.44129754 3.59451852,5.52260493 C3.59451852,5.71688421 3.6231573,5.90497133 3.67579073,6.08222214 L3.67192063,6.06828977 C3.81898463,6.55592302 3.98152904,7.05129649 4.14407346,7.53892974 C4.20599514,7.72469479 4.26017662,7.91045984 4.3220983,8.08848468 C3.65644021,8.31295078 2.97530169,8.51419625 2.31738381,8.75414277 C1.66643211,8.96932062 1.18112092,9.5165535 1.05727756,10.1899518 L1.05572951,10.2015621 C1.05031137,10.2812863 1.03096084,10.3548183 1,10.4221581 L1.00154804,10.418288 L1.00154804,10.7588573 C1.04024909,10.7588573 1.00154804,10.85948 1.04024909,10.9136615 C1.12306935,11.5011434 1.45822046,11.9965169 1.93037329,12.294515 L1.9381135,12.2991591 C2.21521303,12.4764099 2.55346023,12.5809028 2.91570207,12.5809028 C3.08830876,12.5809028 3.25549731,12.5569081 3.41417162,12.5127889 L3.40101326,12.515885 C3.65644021,12.4462231 3.89638673,12.3610808 4.1750343,12.2759385 L5.39798755,11.8811878 C5.44288077,11.8579671 5.49628822,11.8432607 5.55279175,11.8424867 L6.71382331,15.3952433 C6.775745,15.5887485 6.82992647,15.7745136 6.89184815,15.9525384 L6.83766668,15.9525384 L4.92583471,16.5717553 C4.127045,16.8310523 3.5604616,17.5686944 3.5604616,18.43792 C3.5604616,18.511452 3.5643317,18.5834359 3.57207191,18.6546459 L3.57129789,18.6461317 C3.61232101,19.0888717 3.80273018,19.4805263 4.09066601,19.7769764 L4.08989199,19.7762024 C4.43510537,20.168631 4.93821905,20.4155437 5.4993843,20.4155437 C5.71224009,20.4155437 5.91735566,20.3799388 6.10776484,20.314147 L6.09460648,20.3180171 L7.42592267,19.8845653 L8.09932097,19.6600992 C8.31604686,20.3257573 8.52503254,20.9914154 8.74949865,21.6570735 C9.02814622,22.4256764 9.75185589,22.9651691 10.602505,22.9651691 C10.6644267,22.9651691 10.7255744,22.962073 10.785174,22.9566548 L10.7774338,22.9574288 C11.2859656,22.9187278 11.7325757,22.6818774 12.0452802,22.3250537 L12.0468283,22.3227316 C12.3595328,21.9953207 12.552264,21.5510326 12.552264,21.0610773 C12.552264,20.8706681 12.5228512,20.6864511 12.4686697,20.5138444 L12.4725398,20.5270028 C12.3641769,20.1632129 12.2403335,19.799423 12.1242304,19.4433733 L11.8223622,18.5145481 C11.8339725,18.5168701 11.8471308,18.5176442 11.8610632,18.5176442 C11.8749956,18.5176442 11.888154,18.5160961 11.9013123,18.5137741 L11.8997643,18.5137741 L15.9401541,17.1979383 C16.1646202,17.8713366 16.3736059,18.5369947 16.598072,19.2026528 C16.8682053,19.9728037 17.5888189,20.5146184 18.4355979,20.5146184 C18.510678,20.5146184 18.584984,20.5099743 18.657742,20.5022341 L18.6484537,20.5030081 C19.1453752,20.461985 19.580375,20.2282307 19.8853393,19.8783731 L19.8868874,19.8760511 C20.2189424,19.5463181 20.424058,19.0896457 20.424058,18.584984 C20.424058,18.3682581 20.386131,18.1600464 20.3164691,17.9665412 L20.3203392,17.9789255 L19.763044,16.2605988 C19.7305351,16.1785526 19.7011223,16.0802519 19.6802238,15.9780811 L19.6779017,15.9664708 L21.6284347,15.3240334 C21.8265841,15.2690779 21.9991908,15.1847096 22.1516729,15.0732505 L22.1470288,15.0763466 C22.6640749,14.7319073 23,14.1513915 23,13.4926996 C23,13.4044612 22.9938078,13.3169968 22.9821975,13.2318545 L22.9829715,13.2419168 C22.9551068,12.7016501 22.6996798,12.2264012 22.3126693,11.9051824 L22.3095732,11.9028604 L22.3111213,11.9059564 Z M11.707033,14.390564 L10.6156634,14.7466137 C10.5537417,14.6072899 10.5227808,14.4602259 10.4685994,14.3209021 L9.28434718,10.6597826 C9.28434718,10.6597826 9.28434718,10.6597826 9.28434718,10.6597826 C9.28434718,10.6597826 9.33078845,10.6597826 9.36174929,10.6210815 L13.3169968,9.33620659 L13.4021391,9.33620659 C13.4563206,9.52971185 13.5259825,9.72321711 13.5879042,9.91672237 C13.9594343,11.0622735 14.3619252,12.2387855 14.7102347,13.3533758 L14.7102347,13.4694789 L11.707033,14.390564 Z" id="Shape"></path>
        </g>
    </g>
</svg>