<?xml version="1.0" encoding="UTF-8"?>
<svg width="24px" height="24px" viewBox="0 0 24 24" version="1.1" xmlns="http://www.w3.org/2000/svg" xmlns:xlink="http://www.w3.org/1999/xlink">
    <!-- Generator: Sketch 48.2 (47327) - http://www.bohemiancoding.com/sketch -->
    <title>statuspage</title>
    <desc>Created with Sketch.</desc>
    <defs></defs>
    <g id="Page-1" stroke="none" stroke-width="1" fill="none" fill-rule="evenodd">
        <g id="statuspage" fill="#000000" fill-rule="nonzero">
            <path d="M5.17427969,11.9659874 L5.17427969,12.0123682 L1,12.0123682 L1,11.9644413 C1.01932537,5.90555165 5.93647224,1 12,1 C15.0139845,1 17.7442727,2.21208714 19.7301476,4.17399859 L16.8158819,7.13464512 C15.5821504,5.89936753 13.8761068,5.13485594 11.9922699,5.13485594 C8.22691497,5.13485594 5.17427969,8.18749122 5.17427969,11.9528461 C5.17427969,11.9574842 5.17427969,11.9621223 5.17427969,11.9659874 Z M18.8257203,11.9659874 L18.8257203,11.9652143 L23,11.9652143 L23,11.9659874 C22.9891778,18.0326072 18.0689389,22.946662 12,22.946662 C8.98601546,22.946662 6.25572734,21.7345748 4.26985242,19.7726634 L7.23049895,16.7888264 L7.22972593,16.7880534 C8.45959241,17.9970485 10.1463106,18.7430077 12.0077301,18.7430077 C15.7591708,18.7430077 18.8025299,15.7135629 18.8257203,11.9659874 Z M16.1742797,11.9659874 C16.1742797,11.9683064 16.1742797,11.9706254 16.1742797,11.9737175 C16.1742797,14.3004919 14.2881237,16.1866479 11.9613493,16.1866479 C9.63457484,16.1866479 7.74841883,14.3004919 7.74841883,11.9737175 C7.74841883,9.64694308 9.63457484,7.76078707 11.9613493,7.76078707 C11.9752635,7.76078707 11.9884048,7.76078707 12.002319,7.76078707 L12,7.76078707 C14.3089951,7.77856641 16.1742797,9.65467323 16.1742797,11.9659874 Z" id="Combined-Shape"></path>
        </g>
    </g>
</svg>