<svg xmlns="http://www.w3.org/2000/svg" width="64" height="64" viewBox="0 0 64 64">
  <title>statuscake</title>
  <path d="M46.57,15.74h0v-.07a.61.61,0,0,1,.62-.61h.06a.7.7,0,0,1,.7.68h0v0a.66.66,0,0,1-.65.66h-.11a.62.62,0,0,1-.62-.62Zm-24.67,0h-.06A.74.74,0,0,1,21.1,15V15c0-.58.39-.77.85-.74s.74.22.74.72h0V15a.74.74,0,0,1-.74.74ZM24.64,4.27c-.53-.13-.88-.33-.82-.87h0a.72.72,0,0,1,.72-.72h.14c.5.06.77.23.77.76A.78.78,0,0,1,24.64,4.27ZM11.38,23c-.55,0-1-.42-1.05-1.22a1.33,1.33,0,0,1,1.24-1.3,1.28,1.28,0,0,1,1.27,1.26C12.78,22.49,12.45,23,11.38,23Zm39.11-9.58h0a1.81,1.81,0,0,1-1.7-1.73h0a1.67,1.67,0,0,1,1.67-1.67h.1A1.65,1.65,0,0,1,52.2,11.7v0h0v0a1.69,1.69,0,0,1-1.69,1.69ZM31.69,8.24h0a1.82,1.82,0,0,1-1.77-1.73,1.76,1.76,0,0,1,3.51,0h0A1.87,1.87,0,0,1,31.69,8.24Zm-23,11.18h-.1a1.65,1.65,0,0,1-1.65-1.65v-.11A1.8,1.8,0,0,1,8.6,15.9h0a1.77,1.77,0,0,1,1.73,1.77v0h0s0,.07,0,.11a1.63,1.63,0,0,1-1.63,1.62Zm43.41-.9v0h0A2.28,2.28,0,0,1,56,17.57h0a2.76,2.76,0,0,1,.21,4.57c.17.26.33.55.5.86.92,1.65.86,2.25-.39,3.71l0,0a6.47,6.47,0,0,1-5.15,2.56,6.38,6.38,0,0,1-4.24-1.59c-1.28-1.24-1.9-2.95-3.07-4.26-.29-.31,0-.74.14-1.14h0s0-.07,0-.1,0-.06,0-.09h0a2.57,2.57,0,0,1-1-2,2.6,2.6,0,0,1,.72-1.79h0a2.53,2.53,0,0,1,3.88,0h.19A6.36,6.36,0,0,1,49.66,18,6,6,0,0,1,52.09,18.52ZM17.44,15.16h0a2.31,2.31,0,0,1-2.18-2.24h0v0a2.23,2.23,0,0,1,2.06-2.22h0a2.34,2.34,0,0,1,2.33,2.25h0A2.36,2.36,0,0,1,17.44,15.16ZM44.21,12.4c-1.32,0-2.06-1.05-2.06-2.55S42.87,7.46,44,7.46h0a3.07,3.07,0,0,1,2.77,2.88C46.82,11.56,45.69,12.4,44.21,12.4ZM39,19.63A3.29,3.29,0,0,1,35.78,16c0-2.08,1.07-3.44,2.78-3.44h0a4.35,4.35,0,0,1,4.1,4.11C42.68,18.41,41.22,19.63,39,19.63ZM22.83,22.47h0v.06a9,9,0,0,1-.33-2.39,8.66,8.66,0,0,1,.73-3.5v0a3.92,3.92,0,0,1,3.62-2.43h.37a1.84,1.84,0,0,1,2.32-1.09c1,.29,1.34,1,1.34,2.53h0A7.89,7.89,0,0,1,33,18.48h-.09A14.57,14.57,0,0,0,22.83,22.47ZM57.06,40.86h0l0,0a5.77,5.77,0,0,1,0,6.16l-.07.13a24.1,24.1,0,0,1-5.43,6.79h0a24.49,24.49,0,0,1-7,4.72h0a4.39,4.39,0,0,1-1.56.67l.14-.06a21.92,21.92,0,0,1-8.07,2h.11a21.05,21.05,0,0,1-2.52.14A20.7,20.7,0,0,1,28.64,61h-.1a21.49,21.49,0,0,1-7.27-2.19l-.4-.2-.12-.06a20,20,0,0,1-5.87-4.06l0,0A11.63,11.63,0,0,1,12.49,52h0a23.61,23.61,0,0,1-5.18-8l0,.1a16.58,16.58,0,0,1-1.3-4.47l0,.17a23.92,23.92,0,0,1-.78-6.09,24.72,24.72,0,0,1,.2-3.1c.13-.9,1-1.32,1.69-1.83h0a.17.17,0,0,1,0-.07.22.22,0,0,1,0-.08v0c0-.09,0-.18,0-.26A3.8,3.8,0,0,1,9.4,25h0a4,4,0,0,1,1.91-.49,3.9,3.9,0,0,1,2.23.69l.44.24a1.67,1.67,0,0,1-.17-.88v0a3.9,3.9,0,0,1-.11-1A4.22,4.22,0,0,1,22,22.65h0a1.55,1.55,0,0,1,0,.31,1.16,1.16,0,0,1-.37.85h0a10.38,10.38,0,0,0-2.06,3v0a1.6,1.6,0,0,1-1.49,1l-.21,0h0a6.18,6.18,0,0,1-2.56-.92h0a2.94,2.94,0,0,0,.14.91l0,0a8.21,8.21,0,0,1,2.54,1.82h0a.66.66,0,0,1,.28.54.78.78,0,0,1,0,.16l0-.1A15.68,15.68,0,0,0,18,33.46a15.32,15.32,0,0,0,1.21,6l.06.13a24.92,24.92,0,0,0,2.74,4h0a14.94,14.94,0,0,0,8,4.36H30a18.36,18.36,0,0,0,3.34.31,17.65,17.65,0,0,0,2.6-.19h0a1.14,1.14,0,0,1,.65-.2h.16l1-.27.1,0a14.48,14.48,0,0,0,7.85-6.66v0a6.34,6.34,0,0,1,4.21-3.34h0a6.89,6.89,0,0,1,7.23,3.29Z"/>
</svg>
