<?xml version="1.0" encoding="UTF-8"?>
<svg width="24px" height="24px" viewBox="0 0 24 24" version="1.1" xmlns="http://www.w3.org/2000/svg" xmlns:xlink="http://www.w3.org/1999/xlink">
    <!-- Generator: Sketch 48.2 (47327) - http://www.bohemiancoding.com/sketch -->
    <title>statuscake</title>
    <desc>Created with Sketch.</desc>
    <defs></defs>
    <g id="Page-1" stroke="none" stroke-width="1" fill="none" fill-rule="evenodd">
        <g id="statuscake" fill="#000000" fill-rule="nonzero">
            <path d="M21.3960476,15.3225104 L21.3968198,15.320966 L21.3914142,15.3116993 C21.6037769,15.6476184 21.7265611,16.0453157 21.7265611,16.4715855 C21.7265611,16.8978553 21.6030047,17.2955527 21.3960476,17.6222051 L21.3728808,17.6700832 C20.8547159,18.635368 20.1651164,19.4948577 19.3341992,20.2168907 L19.3365158,20.214574 C18.5951771,20.9335182 17.7318263,21.5273614 16.7240689,21.9852926 L16.7294745,21.9814314 C16.5588122,22.0995823 16.364983,22.1852996 16.144898,22.2324055 L16.1966373,22.2115553 C15.273825,22.6347362 14.2598898,22.8934326 13.1718207,22.9505774 L13.2096599,22.9467163 C12.8999965,22.9822388 12.5856997,23 12.2675419,23 C11.7269823,23 11.1987785,22.9482607 10.7393029,22.8579101 L10.7006915,22.8540489 C9.71223981,22.7374425 8.77784408,22.4447682 7.97472709,22.0316262 L7.82800379,21.9544035 L7.78089789,21.9350978 C6.95615852,21.5621117 6.21250307,21.0424023 5.58082067,20.4099477 L5.57000948,20.4022254 C5.23640703,20.1520236 4.94064376,19.8539436 4.68503633,19.5064411 L4.68580856,19.5072133 C3.86261364,18.6716627 3.20467549,17.6723999 2.74674436,16.5024746 L2.76296114,16.5426305 C2.53129278,16.0275545 2.36680824,15.476956 2.27568535,14.8653515 L2.28958545,14.9286742 C2.10038962,14.1996911 2,13.4351855 2,12.6467408 C2,12.2359156 2.02702798,11.8320404 2.0749061,11.4829934 C2.12123978,11.1432132 2.45329776,10.9887676 2.70813296,10.7957106 L2.70813296,10.7964829 C2.70504405,10.7879883 2.70272737,10.7787216 2.70272737,10.7686826 C2.70272737,10.7586437 2.70504405,10.749377 2.70813296,10.7416547 L2.70813296,10.746288 C2.70581628,10.7138545 2.70504405,10.6814209 2.70504405,10.6482151 C2.70504405,10.0813998 3.03710204,9.59180736 3.52669451,9.360139 L3.51897223,9.36400014 C3.73210713,9.24739373 3.97613114,9.18098213 4.23559971,9.18098213 C4.54757977,9.18098213 4.83716522,9.27673839 5.07115027,9.43736179 L5.23331812,9.53002913 C5.17153989,9.41419495 5.17153989,9.30608305 5.17153989,9.19797115 L5.17385658,9.20878234 C5.1468286,9.09217593 5.13215627,8.97093615 5.13215627,8.84660746 C5.13215627,7.97167328 5.84106146,7.26276809 6.71599565,7.26276809 C7.46582892,7.26276809 8.09442241,7.7840219 8.2604514,8.49524378 L8.25967917,8.49215487 C8.27049036,8.52999403 8.27589596,8.56937765 8.27589596,8.61030573 C8.27589596,8.73540665 8.22261224,8.84815192 8.13689494,8.92769139 L8.13766717,8.92691916 C7.82182597,9.24971041 7.5623574,9.62810207 7.36466706,10.0705886 L7.36312261,10.0744498 C7.2743164,10.2968514 7.05732037,10.4543859 6.8032574,10.4543859 C6.77545719,10.4543859 6.74765699,10.4520692 6.72371793,10.4489803 L6.71290674,10.4482081 C6.35768191,10.4041911 6.02794061,10.2806346 5.7507108,10.1014778 C5.7507108,10.1030222 5.7507108,10.1037944 5.7507108,10.1053389 C5.7507108,10.2281231 5.77078873,10.346274 5.80476675,10.4489803 L5.82407245,10.4567026 C6.18393064,10.6211871 6.50672189,10.8528555 6.77777388,11.1362631 L6.77854611,11.1370353 C6.84264102,11.1810523 6.88511355,11.2559584 6.88511355,11.3401313 C6.88511355,11.3609814 6.88279687,11.3810594 6.8781635,11.3988206 L6.88434132,11.3609814 C6.80634631,11.7447787 6.764646,12.1417038 6.764646,12.5486679 C6.764646,13.365685 6.93144723,14.1433185 7.21794377,14.8120678 L7.24188283,14.8599459 C7.53764611,15.3981888 7.88514865,15.903998 8.26817368,16.3565236 L8.27049036,16.3588403 C9.0527572,17.1774018 10.0813647,17.7596616 11.2721401,17.9936467 L11.2304398,17.9874688 C11.6358595,18.0639194 12.054407,18.1040753 12.4822212,18.1040753 C12.8266348,18.1040753 13.1640984,18.0785917 13.457545,18.0330303 L13.4560006,18.0338025 C13.5247288,17.9866966 13.6073572,17.9588964 13.6969357,17.9588964 C13.718558,17.9588964 13.7401804,17.9604409 13.7587139,17.9635298 L14.1371055,17.8631402 L14.1749447,17.8515567 C15.4259539,17.4113869 16.4661448,16.5233248 17.1179052,15.3533996 L17.124083,15.3394995 C17.4306574,14.7217172 17.9990172,14.2560637 18.7009723,14.0869458 L18.6847555,14.0892625 C18.8430622,14.0591456 19.0060023,14.0429288 19.1728035,14.0429288 C20.1172382,14.0429288 20.9419776,14.551827 21.3960476,15.3225104 Z M8.56162027,8.4265155 L8.56084805,8.4265155 L8.56625364,8.44968233 C8.48594194,8.16473025 8.44269718,7.86356137 8.44269718,7.55312577 C8.44269718,7.07897785 8.54308681,6.62799677 8.71529362,6.2411106 L8.71915476,6.23107164 C8.93846748,5.69668995 9.46358244,5.31984275 10.0775036,5.31984275 C10.106076,5.31984275 10.1346485,5.32061497 10.1593598,5.32215943 L10.2134157,5.32215943 C10.4528063,4.91287865 10.7308084,4.80476675 11.0860332,4.91287865 C11.441258,5.02099056 11.5879813,5.29899259 11.5879813,5.86271894 L11.5910702,5.86580786 C11.9161782,6.15075994 12.1779634,6.50675699 12.3602092,6.92839342 L12.3625259,6.92839342 C12.3501702,6.92839342 12.3378146,6.92839342 12.3246867,6.92839342 C10.8659483,6.92839342 9.54080522,7.49906982 8.56162027,8.4265155 Z M14.6313314,7.36084103 C13.9054372,7.36084103 13.4189336,6.7893924 13.4189336,6.00944224 C13.4189336,5.22949208 13.8204921,4.71982169 14.4614413,4.71982169 L14.4660746,4.71982169 C15.2946751,4.76692759 15.9587911,5.43104356 16.005897,6.26427744 C16.005897,6.90522658 15.4576152,7.36084103 14.6313314,7.36084103 Z M16.5773456,4.65032118 C16.0831198,4.65032118 15.8051178,4.25648496 15.8051178,3.69275861 C15.8051178,3.12903226 16.0753975,2.79697427 16.5155674,2.79697427 L16.5202008,2.79697427 C17.0816104,2.85103022 17.5248692,3.30818913 17.558075,3.8780933 C17.558075,4.33370775 17.1333497,4.65032118 16.5773456,4.65032118 Z M6.53838324,5.68510653 L6.53606655,5.68510653 C6.08817438,5.66039524 5.7314051,5.29513145 5.71982169,4.84337815 L5.71982169,4.84415037 C5.71982169,4.84028923 5.71982169,4.83720032 5.71982169,4.83333918 C5.71982169,4.39471375 6.05882972,4.03485556 6.49204956,4.00164976 C6.49204956,4.00164976 6.49282179,4.00164976 6.49282179,4.00164976 C6.9638808,4.00164976 7.34767805,4.37463582 7.36466706,4.84337815 L7.36466706,4.84569483 C7.34150023,5.293587 6.98704763,5.65344519 6.53838324,5.68510653 Z M19.5349784,6.94383797 L19.5357506,6.93457124 L19.5372951,6.92839342 C19.6392292,6.56930745 19.9697427,6.30674997 20.3612622,6.30674997 C20.6122363,6.30674997 20.8377268,6.41486188 20.9952613,6.58706869 L20.9998947,6.58938538 C21.2964302,6.77163116 21.4948928,7.09905578 21.4948928,7.47281407 C21.4948928,7.81027765 21.3334971,8.1106743 21.0802064,8.30141458 C21.1419846,8.39923011 21.2037629,8.50734202 21.2655411,8.62575029 C21.6130436,9.24353259 21.5898768,9.46747868 21.1188178,10.0157605 L21.1141844,10.0219383 C20.6716978,10.6057426 19.9705149,10.9825898 19.181298,10.9825898 C18.571238,10.9825898 18.0129173,10.7570992 17.5897364,10.3872021 C17.1109551,9.92386535 16.8792867,9.28291621 16.4391169,8.78869037 C16.3310049,8.67285619 16.4468391,8.51068834 16.4931728,8.36396504 L16.4931728,8.36550949 C16.493945,8.35315385 16.4947173,8.34157043 16.4947173,8.32921478 C16.4947173,8.31685914 16.493945,8.30527572 16.4931728,8.29446453 L16.4908561,8.29292007 C16.2661378,8.11453543 16.1225034,7.83962231 16.1225034,7.53073116 C16.1225034,7.26971814 16.2252097,7.03264418 16.392011,6.85812068 L16.3935554,6.85657622 C16.5673067,6.6480747 16.8290919,6.51602373 17.1217663,6.51602373 C17.4144407,6.51602373 17.6762259,6.64884692 17.8515216,6.85812068 L17.9364667,6.85812068 L17.9202499,6.86275405 C18.1411071,6.79325354 18.3766366,6.75541437 18.6206606,6.75541437 C18.9511741,6.75541437 19.2654709,6.82491488 19.5349784,6.94383797 Z M3.25641476,7.28361824 L3.25795921,7.28361824 C3.24405911,7.28439047 3.23015901,7.28516269 3.21625891,7.28516269 C2.87493419,7.28516269 2.59847661,7.00870511 2.59847661,6.66738039 C2.59847661,6.65348029 2.59924883,6.63880796 2.60002106,6.62722454 C2.60310997,6.27508863 2.87725087,5.98781986 3.22552564,5.96310857 L3.22629787,5.96310857 C3.58538383,5.97160307 3.87419706,6.2658219 3.87419706,6.62722454 C3.87419706,6.62954123 3.87419706,6.63263014 3.87419706,6.63494682 L3.87419706,6.63340237 C3.87496929,6.64653024 3.87574151,6.65965811 3.87574151,6.67355822 C3.87574151,7.01024957 3.60237285,7.28361824 3.26568149,7.28361824 C3.26259258,7.28361824 3.25873144,7.28361824 3.25641476,7.28361824 Z M11.8822001,3.09042086 L11.8814279,3.09042086 C11.5238864,3.08269859 11.2350732,2.79851873 11.2180842,2.44174945 C11.2180842,2.07957457 11.512303,1.78535575 11.8744779,1.78535575 C12.2366527,1.78535575 12.5308716,2.07957457 12.5308716,2.44174945 L12.5308716,2.44406613 C12.5077047,2.79002422 12.2304749,3.06725403 11.8822001,3.09042086 Z M18.9326407,5.04415739 L18.9310962,5.04415739 C18.5843659,5.02407947 18.3071361,4.74453298 18.2916915,4.39548598 C18.2916915,4.39471375 18.2916915,4.39471375 18.2916915,4.39471375 C18.2916915,4.04952789 18.5720102,3.76920917 18.9171961,3.76920917 C18.9256906,3.76920917 18.9334129,3.7699814 18.9403629,3.7699814 L18.9395907,3.7699814 C18.9449963,3.7699814 18.9504019,3.7699814 18.9558075,3.7699814 C19.2971322,3.7699814 19.5735898,4.04643898 19.5735898,4.3877637 C19.5735898,4.39316929 19.5735898,4.39857489 19.5735898,4.40320826 L19.5735898,4.40243603 C19.5735898,4.40552494 19.5735898,4.40784162 19.5735898,4.41093053 C19.5735898,4.76074976 19.2901822,5.04415739 18.9403629,5.04415739 C18.9380463,5.04415739 18.9349574,5.04415739 18.9326407,5.04415739 Z M4.26803328,8.63501702 C4.05953175,8.62729475 3.88964162,8.48057145 3.87419706,8.17940258 C3.8780582,7.91993401 4.0803819,7.7091158 4.33753378,7.69289901 C4.59931904,7.69289901 4.8116817,7.902945 4.81631507,8.16395802 C4.79314823,8.43423778 4.66959177,8.63501702 4.26803328,8.63501702 Z M9.24118081,1.60002106 C9.04040156,1.55368739 8.90912282,1.4764646 8.93228966,1.27568535 C8.93228966,1.2741409 8.93228966,1.27182421 8.93228966,1.27027976 C8.93228966,1.12123978 9.05352943,1 9.20256941,1 C9.22187511,1 9.24040858,1.00231668 9.25662536,1.0054056 C9.44196005,1.02857243 9.54234968,1.09035066 9.54234968,1.29112991 C9.54234968,1.49190916 9.40334866,1.60002106 9.24118081,1.60002106 Z M8.21411773,5.90905262 L8.21488996,5.90982484 L8.21566219,5.90982484 C8.20716768,5.90982484 8.19867317,5.91059707 8.19017867,5.91059707 C8.03650532,5.91059707 7.91217663,5.78626838 7.91217663,5.63259504 C7.91217663,5.62410053 7.91217663,5.61560602 7.91294886,5.60865597 C7.91294886,5.39243217 8.05967215,5.32293166 8.22956229,5.33065394 C8.39945242,5.33837622 8.50756432,5.415599 8.50756432,5.60093369 L8.50756432,5.59938924 C8.50833655,5.61020043 8.50910878,5.62101162 8.50910878,5.63182281 C8.50910878,5.78549616 8.38478009,5.90982484 8.23110674,5.90982484 C8.22492892,5.90982484 8.21952332,5.90905262 8.21411773,5.90905262 Z M17.4654077,5.90133034 L17.4654077,5.90210257 L17.4654077,5.90287479 C17.4646355,5.89438029 17.4638632,5.88588578 17.4638632,5.87739127 C17.4638632,5.74920145 17.5673418,5.64572291 17.6955316,5.64572291 C17.7040261,5.64572291 17.7132928,5.64649514 17.7202429,5.64726737 C17.8623328,5.64726737 17.978167,5.76078486 17.9828004,5.90210257 L17.9828004,5.90133034 C17.9828004,5.90441925 17.9828004,5.90673593 17.9828004,5.90982484 C17.9828004,6.04650918 17.8723718,6.15693777 17.7356875,6.15693777 C17.7302819,6.15693777 17.7248763,6.15616554 17.7202429,6.15616554 L17.7210151,6.15616554 C17.7125206,6.15693777 17.7040261,6.15770999 17.6955316,6.15770999 C17.5673418,6.15770999 17.4638632,6.05423146 17.4638632,5.92604163 C17.4638632,5.91754712 17.4646355,5.90828039 17.4654077,5.90133034 Z" id="Combined-Shape"></path>
        </g>
    </g>
</svg>