<svg xmlns="http://www.w3.org/2000/svg" width="64" height="64" viewBox="0 0 64 64">
  <title>tag</title>
  <path d="M44.21,26.07a2.29,2.29,0,1,0-2.28,2.28A2.28,2.28,0,0,0,44.21,26.07ZM18.79,38l16-16a1.59,1.59,0,0,1,1.11-.46H45.1a1.56,1.56,0,0,1,1.56,1.56v9.2a1.53,1.53,0,0,1-.46,1.1l-16,16a1.56,1.56,0,0,1-2.21,0L18.79,40.2a1.58,1.58,0,0,1,0-2.21ZM14.15,39.1a5.72,5.72,0,0,0,1.68,4.07L25,52.36a5.76,5.76,0,0,0,8.13,0l16-16a5.71,5.71,0,0,0,1.69-4.07V23.09a5.76,5.76,0,0,0-5.75-5.76h-9.2A5.69,5.69,0,0,0,31.85,19l-16,16a5.69,5.69,0,0,0-1.69,4.07ZM55.05,2.67H4.76a2.1,2.1,0,0,0,0,4.19H55.05A2.09,2.09,0,0,1,57.14,9v46.1a2.09,2.09,0,0,1-2.09,2.09H9a2.09,2.09,0,0,1-2.09-2.09V17.33A2.09,2.09,0,0,1,9,15.24H27.81a2.1,2.1,0,0,0,0-4.19H9a6.28,6.28,0,0,0-6.28,6.28V55.05A6.28,6.28,0,0,0,9,61.33h46.1a6.28,6.28,0,0,0,6.28-6.28V9A6.28,6.28,0,0,0,55.05,2.67Z"/>
</svg>
