<?xml version="1.0" encoding="UTF-8"?>
<svg width="24px" height="24px" viewBox="0 0 24 24" version="1.1" xmlns="http://www.w3.org/2000/svg" xmlns:xlink="http://www.w3.org/1999/xlink">
    <!-- Generator: Sketch 48.2 (47327) - http://www.bohemiancoding.com/sketch -->
    <title>tag</title>
    <desc>Created with Sketch.</desc>
    <defs></defs>
    <g id="Page-1" stroke="none" stroke-width="1" fill="none" fill-rule="evenodd">
        <g id="tag" fill="#000000" fill-rule="nonzero">
            <path d="M20.6429286,1 L1.78535698,1.00100045 C1.35216007,1.00100045 1,1.35216007 1,1.78635744 C1,2.2205548 1.35115962,2.57171442 1.78535698,2.57171442 L20.6429286,2.57171442 C21.077126,2.57171442 21.4282856,2.92387449 21.4282856,3.3570714 L21.4282856,20.6429286 C21.4282856,21.077126 21.0761255,21.4282856 20.6429286,21.4282856 L3.3570714,21.4282856 C2.92287403,21.4282856 2.57171442,21.0761255 2.57171442,20.6429286 L2.57171442,6.49949977 C2.57171442,6.06530241 2.92387449,5.71414279 3.3570714,5.71414279 L10.4282856,5.71414279 C10.8624829,5.71414279 11.2136426,5.36198272 11.2136426,4.92878581 C11.2136426,4.4955889 10.8614825,4.14342883 10.4282856,4.14342883 C10.4272851,4.14342883 10.4272851,4.14342883 10.4262847,4.14342883 L3.3570714,4.14342883 C2.05547976,4.14342883 1,5.19890859 1,6.50050023 L1,20.6429286 C1,21.9445202 2.05547976,23 3.3570714,23 L20.6429286,23 C21.9445202,23 23,21.9445202 23,20.6429286 L23,3.3570714 C23,2.05547976 21.9445202,1 20.6429286,1 Z M5.3049568,14.6612098 C5.3049568,15.2374717 5.52905866,15.7787178 5.9372442,16.1869033 L9.38481128,19.6344704 C9.80500227,20.0546614 10.3582538,20.2657574 10.9105048,20.2657574 C11.4627558,20.2657574 12.0150068,20.0556619 12.4361983,19.6344704 L18.4399272,13.6307414 C18.8471123,13.2235563 19.0722146,12.6813098 19.0722146,12.1050479 L19.0722146,8.65748075 C19.0722146,7.46794004 18.1047749,6.50050028 16.9152342,6.50050028 L13.4676671,6.50050028 C12.8914052,6.50050028 12.3501592,6.72460215 11.9419736,7.13178724 L5.93824466,13.1355163 C5.53105957,13.5427014 5.30595725,14.0849478 5.30595725,14.6612098 L5.3049568,14.6612098 Z M7.04774898,14.2470215 L13.0514779,8.24329248 C13.1625284,8.132242 13.3095953,8.07121426 13.4656662,8.07121426 L16.9132333,8.07121426 C17.2363802,8.07121426 17.4984993,8.33433386 17.4984993,8.6564803 L17.4984993,12.1040474 C17.4984993,12.2601184 17.4374716,12.4071852 17.3264211,12.5182357 L11.3226921,18.5219647 C11.0945884,18.7500684 10.7224193,18.7500684 10.4943156,18.5219647 L7.04674852,15.0743976 C6.93569804,14.9633471 6.87567076,14.8162803 6.87567076,14.6602093 C6.87567076,14.5041384 6.9366985,14.3570715 7.04674852,14.2460211 L7.04774898,14.2470215 Z M16.5800819,9.77498872 C16.5800819,9.30177362 16.1959072,8.91759899 15.7226921,8.91759899 C15.249477,8.91759899 14.8653024,9.30177362 14.8653024,9.77498872 C14.8653024,10.2482038 15.249477,10.6323785 15.7226921,10.6323785 C16.1959072,10.6323785 16.5800819,10.2482038 16.5800819,9.77498872 Z" id="Shape"></path>
        </g>
    </g>
</svg>