<?xml version="1.0" encoding="UTF-8"?>
<svg width="24px" height="24px" viewBox="0 0 24 24" version="1.1" xmlns="http://www.w3.org/2000/svg" xmlns:xlink="http://www.w3.org/1999/xlink">
    <!-- Generator: Sketch 48.2 (47327) - http://www.bohemiancoding.com/sketch -->
    <title>theme-per-user</title>
    <desc>Created with Sketch.</desc>
    <defs></defs>
    <g id="Page-1" stroke="none" stroke-width="1" fill="none" fill-rule="evenodd">
        <g id="theme-per-user" fill="#000000" fill-rule="nonzero">
            <path d="M23.0010313,3.35644307 L23.0010313,20.6425257 C23.0010313,21.9439835 21.946046,23 20.6435569,23 L3.35747434,23 C2.0560165,23 1,21.9450148 1,20.6425257 L1,6.49974218 C1,5.19828435 2.05498523,4.14226785 3.35747434,4.14226785 L10.4268035,4.14226785 C10.4278348,4.14226785 10.4278348,4.14226785 10.4288661,4.14226785 C10.8630291,4.14226785 11.2146909,4.49392959 11.2146909,4.92809263 C11.2146909,5.36225566 10.8630291,5.7139174 10.4288661,5.7139174 L3.35747434,5.7139174 C2.9233113,5.7139174 2.57164956,6.06557915 2.57164956,6.49974218 L2.57164956,20.6425257 C2.57164956,21.0766887 2.9233113,21.4283504 3.35747434,21.4283504 L20.6435569,21.4283504 C21.07772,21.4283504 21.4293817,21.0766887 21.4293817,20.6425257 L21.4293817,3.35644307 C21.4293817,2.92228004 21.07772,2.57061829 20.6435569,2.57061829 L1.78582478,2.57061829 C1.35269301,2.57061829 1.00103127,2.21895655 1.00103127,1.78582478 C1.00103127,1.35269301 1.35269301,1.00103127 1.78582478,1.00103127 L20.6435569,1 C21.9450148,1 23.0010313,2.05498523 23.0010313,3.35747434 L23.0010313,3.35644307 Z M14.7292458,13.0668448 C15.2335349,12.455304 15.5367271,11.672573 15.5367271,10.8207472 C15.5367271,8.87165424 13.9506399,7.2845357 12.0005156,7.2845357 C10.0503914,7.2845357 8.46430413,8.87062298 8.46430413,10.8207472 C8.46430413,11.6199784 8.73140205,12.358365 9.18000281,12.951343 C7.63000984,13.4267567 6.49974218,14.8715605 6.49974218,16.5762434 L6.49974218,18.5614306 C6.49974218,19.2760981 7.08137627,19.8577322 7.79604369,19.8577322 L16.2039563,19.8577322 C16.9186237,19.8577322 17.5002578,19.2760981 17.5002578,18.5614306 L17.5002578,17.0867201 C17.5002578,15.2541602 16.3473023,13.6856045 14.7292458,13.0678761 L14.7292458,13.0668448 Z M12.0005156,8.85618525 C13.0833451,8.85618525 13.9650776,9.73688651 13.9650776,10.8207472 C13.9650776,11.9046079 13.0843763,12.7853091 12.0005156,12.7853091 C10.9166549,12.7853091 10.0359537,11.9046079 10.0359537,10.8207472 C10.0359537,9.73791778 10.9166549,8.85618525 12.0005156,8.85618525 Z M15.9296395,18.2850513 L8.07242301,18.2850513 L8.07242301,16.5762434 C8.07242301,15.3521305 9.06759481,14.3569587 10.2917077,14.3569587 L13.1998781,14.3569587 C14.7044954,14.3569587 15.9296395,15.5810716 15.9296395,17.0867201 L15.9296395,18.2860826 L15.9296395,18.2850513 Z" id="Shape"></path>
        </g>
    </g>
</svg>