<?xml version="1.0" encoding="UTF-8"?>
<svg width="24px" height="24px" viewBox="0 0 24 24" version="1.1" xmlns="http://www.w3.org/2000/svg" xmlns:xlink="http://www.w3.org/1999/xlink">
    <!-- Generator: Sketch 48.2 (47327) - http://www.bohemiancoding.com/sketch -->
    <title>toplytics</title>
    <desc>Created with Sketch.</desc>
    <defs></defs>
    <g id="Page-1" stroke="none" stroke-width="1" fill="none" fill-rule="evenodd">
        <g id="toplytics" fill="#000000" fill-rule="nonzero">
            <path d="M20.6426362,1.00103122 L1.78578794,1.00206244 C1.35267648,1.00206244 1.00103122,1.3537077 1.00103122,1.78681916 C1.00103122,2.21993063 1.35267648,2.57157589 1.78578794,2.57157589 L20.6426362,2.57157589 C21.0767789,2.57157589 21.4284241,2.92322115 21.4284241,3.35736383 L21.4284241,20.6426362 C21.4284241,21.0767789 21.0767789,21.4284241 20.6426362,21.4284241 L3.35736383,21.4284241 C2.92322115,21.4284241 2.57157589,21.0767789 2.57157589,20.6426362 L2.57157589,6.50051561 C2.57157589,6.06637293 2.92322115,5.71472766 3.35736383,5.71472766 L10.4284241,5.71472766 C10.8625668,5.71472766 11.2142121,5.3630824 11.2142121,4.92893972 C11.2142121,4.49479704 10.8625668,4.14315178 10.4284241,4.14315178 C10.4273929,4.14315178 10.4273929,4.14315178 10.4263617,4.14315178 L3.35736383,4.14315178 C2.055967,4.14315178 1,5.19808756 1,6.50051561 L1,20.6426362 C1,21.944033 2.05493578,23 3.35736383,23 L20.6426362,23 C21.944033,23 23,21.9450642 23,20.6426362 L23,3.35736383 C23,2.055967 21.9450642,1 20.6426362,1 L20.6426362,1.00103122 Z M5.58,10.144 C4.734,10.144 4.048,10.83 4.048,11.676 L4.048,17.754 C4.048,18.6 4.734,19.286 5.58,19.286 L7.095,19.286 C7.941,19.286 8.627,18.6 8.627,17.754 L8.627,11.676 C8.627,10.83 7.941,10.144 7.095,10.144 L5.58,10.144 Z M7.104,11.668 L7.104,17.763 L5.572,17.763 L5.572,11.668 L7.104,11.668 Z M10.905,7.088 C10.059,7.088 9.373,7.774 9.373,8.62 L9.373,17.754 C9.373,18.6 10.059,19.286 10.905,19.286 L12.42,19.286 C13.266,19.286 13.952,18.6 13.952,17.754 L13.952,8.62 C13.952,7.774 13.266,7.088 12.42,7.088 L10.905,7.088 Z M12.429,8.612 L12.429,17.763 L10.897,17.763 L10.897,8.612 L12.429,8.612 Z M16.238,12.421 C15.392,12.421 14.706,13.107 14.706,13.953 L14.706,17.754 C14.706,18.6 15.392,19.286 16.238,19.286 L17.753,19.286 C18.599,19.286 19.285,18.6 19.285,17.754 L19.285,13.953 C19.285,13.107 18.599,12.421 17.753,12.421 L16.238,12.421 Z M17.762,13.945 L17.762,17.763 L16.23,17.763 L16.23,13.945 L17.762,13.945 Z" id="Shape"></path>
        </g>
    </g>
</svg>