<svg xmlns="http://www.w3.org/2000/svg" width="64" height="64" viewBox="0 0 64 64">
  <title>toplytics</title>
  <path d="M47.37,37.19V47.37H43.28V37.19ZM43.3,33.12a4.09,4.09,0,0,0-4.08,4.09V47.34a4.09,4.09,0,0,0,4.08,4.09h4a4.09,4.09,0,0,0,4.09-4.09V37.21a4.09,4.09,0,0,0-4.09-4.09ZM33.14,23v24.4H29.06V23ZM29.08,18.9A4.09,4.09,0,0,0,25,23V47.34a4.09,4.09,0,0,0,4.09,4.09h4a4.09,4.09,0,0,0,4.09-4.09V23a4.09,4.09,0,0,0-4.09-4.09ZM18.94,31.11V47.37H14.86V31.11Zm-4.06-4.06a4.09,4.09,0,0,0-4.09,4.09v16.2a4.09,4.09,0,0,0,4.09,4.09h4A4.09,4.09,0,0,0,23,47.34V31.14a4.09,4.09,0,0,0-4.09-4.09ZM55.05,2.67H4.76a2.1,2.1,0,0,0,0,4.19H55.05A2.1,2.1,0,0,1,57.14,9v46.1a2.1,2.1,0,0,1-2.09,2.09H9a2.1,2.1,0,0,1-2.09-2.09V17.33A2.1,2.1,0,0,1,9,15.24H27.81a2.1,2.1,0,0,0,0-4.19H9a6.28,6.28,0,0,0-6.28,6.28V55.05A6.28,6.28,0,0,0,9,61.33h46.1a6.28,6.28,0,0,0,6.28-6.28V9a6.28,6.28,0,0,0-6.28-6.28Z"/>
</svg>
