<?xml version="1.0" encoding="UTF-8"?>
<svg width="24px" height="24px" viewBox="0 0 24 24" version="1.1" xmlns="http://www.w3.org/2000/svg" xmlns:xlink="http://www.w3.org/1999/xlink">
    <!-- Generator: Sketch 48.2 (47327) - http://www.bohemiancoding.com/sketch -->
    <title>twitter</title>
    <desc>Created with Sketch.</desc>
    <defs></defs>
    <g id="Page-1" stroke="none" stroke-width="1" fill="none" fill-rule="evenodd">
        <g id="twitter" fill="#000000" fill-rule="nonzero">
            <path d="M22.9991855,5.11284709 C22.1895594,5.47204739 21.3221029,5.71640133 20.4082192,5.82310255 C21.3400222,5.26597556 22.0551648,4.37978526 22.3907442,3.3282488 C21.5175861,3.84465013 20.550759,4.22176971 19.5220289,4.425398 C18.6977416,3.54735283 17.5264717,3 16.2281377,3 C13.736542,3 11.7149204,5.02080711 11.7149204,7.51321733 C11.7149204,7.86671603 11.7556461,8.21044058 11.8322103,8.54113291 C8.08300629,8.35298038 4.7557201,6.55534987 2.53128471,3.8242873 C2.14194743,4.48893003 1.92039985,5.26516105 1.92039985,6.09189189 C1.92039985,7.65738615 2.71699371,9.03961496 3.92898926,9.84924102 C3.18859682,9.82399111 2.49300259,9.62036283 1.88537579,9.28152536 L1.88537579,9.33772677 C1.88537579,11.52388 3.44028138,13.349204 5.5050722,13.7637912 C5.12550907,13.8656053 4.72884117,13.9218067 4.31669752,13.9218067 C4.02673084,13.9218067 3.74409478,13.8941133 3.4663458,13.8379119 C4.04139208,15.6322843 5.70625694,16.9355054 7.68145131,16.9713439 C6.13631988,18.1800815 4.19207701,18.9009256 2.07678638,18.9009256 C1.712699,18.9009256 1.3534987,18.8781192 1,18.8398371 C2.99800074,20.1226953 5.37067753,20.8712329 7.91847464,20.8712329 C16.2216216,20.8712329 20.7600889,13.9934839 20.7600889,8.02961866 L20.7446131,7.44398371 C21.6275454,6.81273602 22.3964458,6.01858571 23,5.11284709 L22.9991855,5.11284709 Z" id="Shape"></path>
        </g>
    </g>
</svg>