<?xml version="1.0" encoding="UTF-8"?>
<svg width="24px" height="24px" viewBox="0 0 24 24" version="1.1" xmlns="http://www.w3.org/2000/svg" xmlns:xlink="http://www.w3.org/1999/xlink">
    <!-- Generator: Sketch 48.2 (47327) - http://www.bohemiancoding.com/sketch -->
    <title>utf</title>
    <desc>Created with Sketch.</desc>
    <defs></defs>
    <g id="Page-1" stroke="none" stroke-width="1" fill="none" fill-rule="evenodd">
        <g id="utf" fill="#000000" fill-rule="nonzero">
            <path d="M9.64263617,18.2863036 C9.43433018,18.2863036 9.23427393,18.2038061 9.08680979,18.056342 L5.94365801,14.9131902 C5.63635511,14.6058873 5.63635511,14.1088403 5.94365801,13.8025687 C6.25096091,13.496297 6.74800787,13.496297 7.05427955,13.8025687 L9.64160495,16.3898941 L16.9426268,9.08887222 C17.2499297,8.78156933 17.7469767,8.78156933 18.0532483,9.08887222 C18.35952,9.39617512 18.3605512,9.89322209 18.0532483,10.1994938 L10.1964001,18.056342 C10.048936,18.2038061 9.84887972,18.2863036 9.64057373,18.2863036 L9.64263617,18.2863036 Z M20.6426362,1.00103122 L1.78578794,1.00206244 C1.35267648,1.00206244 1.00103122,1.3537077 1.00103122,1.78681916 C1.00103122,2.21993063 1.35267648,2.57157589 1.78578794,2.57157589 L20.6426362,2.57157589 C21.0767789,2.57157589 21.4284241,2.92322115 21.4284241,3.35736383 L21.4284241,20.6426362 C21.4284241,21.0767789 21.0767789,21.4284241 20.6426362,21.4284241 L3.35736383,21.4284241 C2.92322115,21.4284241 2.57157589,21.0767789 2.57157589,20.6426362 L2.57157589,6.50051561 C2.57157589,6.06637293 2.92322115,5.71472766 3.35736383,5.71472766 L10.4284241,5.71472766 C10.8625668,5.71472766 11.2142121,5.3630824 11.2142121,4.92893972 C11.2142121,4.49479704 10.8625668,4.14315178 10.4284241,4.14315178 C10.4273929,4.14315178 10.4273929,4.14315178 10.4263617,4.14315178 L3.35736383,4.14315178 C2.055967,4.14315178 1,5.19808756 1,6.50051561 L1,20.6426362 C1,21.944033 2.05493578,23 3.35736383,23 L20.6426362,23 C21.944033,23 23,21.9450642 23,20.6426362 L23,3.35736383 C23,2.055967 21.9450642,1 20.6426362,1 L20.6426362,1.00103122 Z" id="Shape"></path>
        </g>
    </g>
</svg>