<?xml version="1.0" encoding="UTF-8"?>
<svg width="24px" height="24px" viewBox="0 0 24 24" version="1.1" xmlns="http://www.w3.org/2000/svg" xmlns:xlink="http://www.w3.org/1999/xlink">
    <!-- Generator: Sketch 48.2 (47327) - http://www.bohemiancoding.com/sketch -->
    <title>wordpress</title>
    <desc>Created with Sketch.</desc>
    <defs></defs>
    <g id="Page-1" stroke="none" stroke-width="1" fill="none" fill-rule="evenodd">
        <g id="wordpress" fill="#000000" fill-rule="nonzero">
            <path d="M12,1 C5.9247674,1 1,5.9247674 1,12 C1,18.0752326 5.9247674,23 12,23 C18.0752326,23 23,18.0752326 23,12 C23,5.9247674 18.0752326,1 12,1 Z M21.4110523,12 C21.4110523,14.5135547 20.4317453,16.8771254 18.6548765,18.6539942 C18.274623,19.0342477 17.8670196,19.3783285 17.4364774,19.68359 L20.1600096,11.8103144 C20.6046679,10.6969041 20.819939,9.75729868 20.8958133,8.91474174 C21.2346006,9.89404876 21.4110523,10.9333494 21.4110523,12 Z M5.34600577,18.6539942 C3.56825473,16.8762432 2.58982996,14.5135547 2.58982996,12 C2.58982996,10.9086461 2.77422201,9.8464068 3.12888996,8.84769009 L7.24462624,20.123837 C6.55999358,19.7215271 5.92300289,19.2301091 5.34688803,18.6539942 L5.34600577,18.6539942 Z M12,2.58894771 C14.1994706,2.58894771 16.2842477,3.3388675 17.9614212,4.71695541 C17.3685435,5.01339429 16.9909368,5.65832531 16.9909368,6.33766442 C16.9909368,7.17051652 17.4708855,7.87455887 17.9817132,8.70564645 C18.3654957,9.37792749 18.8145653,10.2416586 18.8145653,11.4900545 C18.8145653,12.3546679 18.5569458,13.4416105 18.0461181,14.7544113 L17.0385788,18.117581 L13.3895573,7.26668271 C13.9983157,7.23403914 14.5444338,7.17051652 14.5444338,7.17051652 C15.0887873,7.10611165 15.0243824,6.30766763 14.4809111,6.33766442 C14.4809111,6.33766442 12.8452037,6.46647417 11.7891402,6.46647417 C10.7965993,6.46647417 9.13089509,6.33766442 9.13089509,6.33766442 C8.58654155,6.30766763 8.52301893,7.13875521 9.06649021,7.17051652 C9.06649021,7.17051652 9.58261149,7.23403914 10.126965,7.26668271 L11.6982676,11.5765159 L9.48997433,18.2013956 L5.81272056,7.26668271 C6.42147899,7.23403914 6.96936157,7.17051652 6.96936157,7.17051652 C7.51371511,7.10611165 7.44754572,6.30766763 6.90495669,6.33766442 C6.90495669,6.33766442 5.43864293,6.4532403 4.38610844,6.46559192 C4.67372474,6.07122233 4.9939846,5.69626243 5.34512352,5.34512352 C7.12287456,3.56737247 9.48556304,2.58894771 12,2.58894771 Z M12.177334,12.8849054 L15.0993744,20.8905197 C14.1156561,21.2328361 13.0710619,21.4110523 11.9991177,21.4110523 C11.0965672,21.4110523 10.2134264,21.2840071 9.36910491,21.0396214 L12.1764517,12.8849054 L12.177334,12.8849054 Z" id="Shape"></path>
        </g>
    </g>
</svg>