<svg xmlns="http://www.w3.org/2000/svg" width="64" height="64" viewBox="0 0 64 64">
  <title>wordpress</title>
  <path d="M32.47,34.36l7.8,21.35a25.34,25.34,0,0,1-15.29.4l7.49-21.75ZM32,6.9a24.9,24.9,0,0,1,15.9,5.68,4.85,4.85,0,0,0-2.59,4.32c0,2.22,1.28,4.1,2.64,6.31a14.25,14.25,0,0,1,2.22,7.43,25,25,0,0,1-2.05,8.71l-2.68,9L35.71,19.38c1.62-.09,3.08-.26,3.08-.26a1.11,1.11,0,0,0-.17-2.22s-4.37.34-7.18.34c-2.65,0-7.09-.34-7.09-.34a1.11,1.11,0,0,0-.17,2.22s1.37.17,2.83.26L31.2,30.87,25.31,48.54,15.5,19.38c1.62-.09,3.09-.26,3.09-.26a1.11,1.11,0,0,0-.18-2.22s-3.91.31-6.71.34a25.68,25.68,0,0,1,2.55-3A24.93,24.93,0,0,1,32,6.9ZM14.26,49.74A24.92,24.92,0,0,1,6.91,32a25.27,25.27,0,0,1,1.43-8.41l11,30.07a24.7,24.7,0,0,1-5.06-3.92ZM57.1,32A25.18,25.18,0,0,1,46.5,52.49l7.26-21a26.89,26.89,0,0,0,2-7.72A25,25,0,0,1,57.1,32ZM32,2.67A29.33,29.33,0,1,0,61.33,32,29.33,29.33,0,0,0,32,2.67Z"/>
</svg>
