<svg xmlns="http://www.w3.org/2000/svg" width="64" height="64" viewBox="0 0 64 64">
  <title>zinc</title>
  <path d="M57.43,44a2.14,2.14,0,0,0-.46-.69L46.3,32.62a2.13,2.13,0,0,0-3,3l7,7h-27l23-23A2.13,2.13,0,0,0,44.8,16H12.61l7-7a2.14,2.14,0,1,0-3-3L6,16.62s0,.09-.08.12a2.24,2.24,0,0,0-.38.58,2.19,2.19,0,0,0,0,1.63,2,2,0,0,0,.38.57s0,.09.08.12L16.62,30.31a2.14,2.14,0,0,0,3-3l-7-7h27l-23,23a2.13,2.13,0,0,0,1.51,3.64H50.31l-7,7A2.14,2.14,0,0,0,44.8,57.6,2.1,2.1,0,0,0,46.3,57L57,46.31a2.18,2.18,0,0,0,.46-.7,2.1,2.1,0,0,0,0-1.63" fill-rule="evenodd"/>
</svg>
