<?xml version="1.0" encoding="UTF-8"?>
<svg width="24px" height="24px" viewBox="0 0 24 24" version="1.1" xmlns="http://www.w3.org/2000/svg" xmlns:xlink="http://www.w3.org/1999/xlink">
    <!-- Generator: Sketch 48.2 (47327) - http://www.bohemiancoding.com/sketch -->
    <title>zinc</title>
    <desc>Created with Sketch.</desc>
    <defs></defs>
    <g id="Page-1" stroke="none" stroke-width="1" fill="none" fill-rule="evenodd">
        <g id="zinc" fill="#000000">
            <path d="M21.537,16.4939 C21.496,16.3959 21.437,16.3069 21.364,16.2339 L17.364,12.2339 C17.052,11.9219 16.546,11.9219 16.233,12.2339 C15.921,12.5459 15.921,13.0529 16.233,13.3649 L18.867,15.9999 L8.73,15.9999 L17.364,7.3659 C17.594,7.1369 17.662,6.7919 17.538,6.4939 C17.414,6.1949 17.122,5.9999 16.799,5.9999 L4.73,5.9999 L7.365,3.3659 C7.677,3.0529 7.677,2.5459 7.365,2.2339 C7.052,1.9219 6.545,1.9219 6.233,2.2339 L2.233,6.2339 C2.22,6.2469 2.215,6.2649 2.203,6.2789 C2.146,6.3439 2.094,6.4129 2.06,6.4939 C1.98,6.6889 1.98,6.9099 2.06,7.1059 C2.094,7.1869 2.146,7.2559 2.203,7.3209 C2.215,7.3349 2.22,7.3519 2.233,7.3659 L6.233,11.3659 C6.389,11.5209 6.594,11.5989 6.799,11.5989 C7.003,11.5989 7.208,11.5209 7.365,11.3659 C7.677,11.0529 7.677,10.5459 7.365,10.2339 L4.73,7.5989 L14.867,7.5989 L6.233,16.2339 C6.004,16.4629 5.936,16.8059 6.059,17.1049 C6.183,17.4049 6.475,17.5989 6.799,17.5989 L18.867,17.5989 L16.233,20.2339 C15.921,20.5469 15.921,21.0529 16.233,21.3649 C16.39,21.5209 16.594,21.5989 16.799,21.5989 C17.004,21.5989 17.208,21.5209 17.364,21.3649 L21.364,17.3649 C21.437,17.2919 21.496,17.2029 21.537,17.1049 C21.618,16.9099 21.618,16.6889 21.537,16.4939" id="Fill-1"></path>
        </g>
    </g>
</svg>