<?xml version="1.0" encoding="UTF-8"?>
<svg width="24px" height="24px" viewBox="0 0 24 24" version="1.1" xmlns="http://www.w3.org/2000/svg" xmlns:xlink="http://www.w3.org/1999/xlink">
    <!-- Generator: Sketch 48.2 (47327) - http://www.bohemiancoding.com/sketch -->
    <title>zipa</title>
    <desc>Created with Sketch.</desc>
    <defs></defs>
    <g id="Page-1" stroke="none" stroke-width="1" fill="none" fill-rule="evenodd">
        <g id="zipa" fill="#000000" fill-rule="nonzero">
            <path d="M14.358109,19.0703193 L12.0015029,19.0703193 L12.0015029,16.7137132 L14.358109,16.7137132 L14.358109,19.0703193 Z M20.6443959,1 L1.78753928,1.00100196 C1.35369131,1.00100196 1.00200392,1.35268935 1.00200392,1.78653732 C1.00200392,2.2203853 1.35369131,2.57207269 1.78753928,2.57207269 L12.0015029,2.57207269 L12.0015029,4.92867878 L14.358109,4.92867878 L14.358109,2.57207269 L20.6433939,2.57207269 C21.0772419,2.57207269 21.4289293,2.92376008 21.4289293,3.35760805 L21.4289293,20.6433939 C21.4289293,21.0772419 21.0772419,21.4289293 20.6433939,21.4289293 L12.000501,21.4289293 L12.000501,19.0713212 L9.64289293,19.0713212 L9.64289293,21.4289293 L3.35760805,21.4289293 C2.92376008,21.4289293 2.57207269,21.0772419 2.57207269,20.6433939 L2.57207269,6.50075147 C2.57207269,6.06690349 2.92376008,5.7152161 3.35760805,5.7152161 L7.28829075,5.7152161 C7.72213873,5.7152161 8.07382611,5.36352872 8.07382611,4.92968074 C8.07382611,4.49583276 7.72213873,4.14414538 7.28829075,4.14414538 C7.28728879,4.14414538 7.28728879,4.14414538 7.28628683,4.14414538 L3.35760805,4.14414538 C2.05606413,4.14414538 1,5.19920754 1,6.50075147 L1,20.6433939 C1,21.9449378 2.05506217,23 3.35760805,23 L20.6433939,23 C21.9449378,23 23,21.9449378 23,20.6433939 L23,3.35760805 C23,2.05606413 21.9449378,1 20.6423919,1 L20.6443959,1 Z M9.64489684,7.28528487 L12.0015029,7.28528487 L12.0015029,4.92867878 L9.64489684,4.92867878 L9.64489684,7.28528487 Z M14.358109,9.64189097 L14.358109,7.28528487 L12.0015029,7.28528487 L12.0015029,9.64189097 L14.358109,9.64189097 Z M9.64489684,9.64189097 L9.64489684,11.9984971 L12.0015029,11.9984971 L12.0015029,9.64189097 L9.64489684,9.64189097 Z M14.358109,11.999499 L12.0015029,11.999499 L12.0015029,14.3561051 L14.358109,14.3561051 L14.358109,11.999499 Z M9.64489684,14.3561051 L9.64489684,16.7127112 L12.0015029,16.7127112 L12.0015029,14.3561051 L9.64489684,14.3561051 Z" id="Shape"></path>
        </g>
    </g>
</svg>