<svg xmlns="http://www.w3.org/2000/svg" width="64" height="64" viewBox="0 0 64 64">
  <title>zipa</title>
  <path d="M25.72,38.28v6.29H32V38.28ZM38.29,32H32v6.28h6.29ZM25.72,25.71V32H32V25.71Zm12.57,0V19.43H32v6.28ZM25.72,19.43H32V13.14H25.72ZM55.05,2.67H4.77a2.1,2.1,0,1,0,0,4.19H32v6.28h6.29V6.86H55.05A2.09,2.09,0,0,1,57.14,9v46.1a2.08,2.08,0,0,1-2.09,2.09H32V50.86H25.71v6.28H9a2.09,2.09,0,0,1-2.09-2.09V17.34A2.1,2.1,0,0,1,9,15.24H19.44a2.1,2.1,0,0,0,0-4.19H9a6.28,6.28,0,0,0-6.28,6.29V55.05A6.28,6.28,0,0,0,9,61.33h46.1a6.28,6.28,0,0,0,6.28-6.28V9a6.28,6.28,0,0,0-6.28-6.28ZM38.29,50.85H32V44.57h6.29Z"/>
</svg>
