<?xml version="1.0" encoding="UTF-8"?>
<svg width="24px" height="24px" viewBox="0 0 24 24" version="1.1" xmlns="http://www.w3.org/2000/svg" xmlns:xlink="http://www.w3.org/1999/xlink">
    <!-- Generator: Sketch 48.2 (47327) - http://www.bohemiancoding.com/sketch -->
    <title>zsync</title>
    <desc>Created with Sketch.</desc>
    <defs></defs>
    <g id="Page-1" stroke="none" stroke-width="1" fill="none" fill-rule="evenodd">
        <g id="zsync" fill="#000000" fill-rule="nonzero">
            <path d="M23,3.3585026 L23,20.6435012 C23,21.9449859 21.9449378,23 20.6433939,23 L3.35760805,23 C2.05606413,23 1,21.9449859 1,20.6435012 L1,6.50150287 C1,5.20001822 2.05506217,4.1450041 3.35760805,4.1450041 L11.6077333,4.13197923 C16.163638,4.13197923 19.869882,7.83805447 19.869882,12.3937517 C19.869882,16.9494489 16.163638,20.6555242 11.6077333,20.6555242 C7.05182857,20.6555242 3.34558455,16.9494489 3.34558455,12.3937517 C3.34558455,11.2265234 3.66120144,10.0442663 4.28542151,8.86501503 L3.95778112,8.53738956 C3.64817598,8.22779852 3.78945211,7.69778668 4.2132805,7.58457054 L6.56888464,6.95336552 C6.99271303,6.84014938 7.38047092,7.22788961 7.26624767,7.65069678 L6.63501389,10.0061936 C6.52179259,10.4300027 5.99175662,10.5712724 5.68215148,10.2616814 L5.47775197,10.0572912 C5.12205675,10.8508061 4.94170424,11.632298 4.94170424,12.3927498 C4.94170424,16.0677657 7.93254998,19.0584753 11.6077333,19.0584753 C15.2829166,19.0584753 18.2737624,16.0677657 18.2737624,12.3927498 C18.2737624,8.71773386 15.2829166,5.72702432 11.6077333,5.72702432 L3.35760805,5.71500137 C2.92376008,5.71500137 2.57207269,6.06667274 2.57207269,6.50050096 L2.57207269,20.6424993 C2.57207269,21.0763275 2.92376008,21.4279989 3.35760805,21.4279989 L20.6433939,21.4279989 C21.0772419,21.4279989 21.4289293,21.0763275 21.4289293,20.6424993 L21.4289293,3.35750068 C21.4289293,2.92367247 21.0772419,2.57200109 20.6433939,2.57200109 L1.78653732,2.57200109 C1.35268935,2.57200109 1.00100196,2.22032972 1.00100196,1.7865015 C1.00100196,1.35267329 1.35268935,1.00100191 1.78653732,1.00100191 L20.6433939,1 C21.9449378,1 23,2.05501412 23,3.35750068 L23,3.3585026 Z M7.37045134,10.4460333 C7.88846382,10.3458421 8.42050371,10.5081519 8.79323223,10.8808635 L11.5486178,13.6361235 C11.5686569,13.6561618 11.5886961,13.6772019 11.6077333,13.699244 C11.6267705,13.6782038 11.6468097,13.6571637 11.6668488,13.6361235 L14.4222344,10.8808635 C14.7949629,10.5081519 15.3270028,10.3458421 15.8450153,10.4460333 C16.3630277,10.5462246 16.7938698,10.8948902 16.9992713,11.3788141 C17.5914287,12.769469 17.2838275,14.3595045 16.2137359,15.4285454 C15.5053514,16.1368977 14.5695222,16.5106112 13.613654,16.5106112 C13.1267022,16.5106112 12.6337387,16.4134256 12.1638202,16.2130431 C11.9483991,16.1208671 11.759029,15.9836051 11.6067313,15.8142818 C11.4544337,15.9836051 11.2660655,16.1208671 11.0496425,16.2130431 C10.579724,16.4134256 10.0877624,16.5106112 9.59980872,16.5106112 C8.64394043,16.5106112 7.70811131,16.1358958 6.99972674,15.4285454 C5.93063715,14.3595045 5.62203398,12.769469 6.21419137,11.3788141 C6.4205948,10.8948902 6.8514369,10.5462246 7.36844742,10.4460333 L7.37045134,10.4460333 Z M12.8080794,14.7522543 C13.5926128,15.0778759 14.4843558,14.9005374 15.0855308,14.2993897 C15.6867058,13.6982421 15.8640525,12.8065398 15.538416,12.0220421 L12.8080794,14.7522543 Z M8.12993578,14.2993897 C8.73111081,14.9005374 9.62285376,15.0778759 10.4073872,14.7522543 L7.6770506,12.0220421 C7.35141413,12.8065398 7.52876076,13.6982421 8.12993578,14.2993897 Z" id="Shape"></path>
        </g>
    </g>
</svg>