<?xml version="1.0" encoding="UTF-8"?>
<svg width="24px" height="24px" viewBox="0 0 24 24" version="1.1" xmlns="http://www.w3.org/2000/svg" xmlns:xlink="http://www.w3.org/1999/xlink">
    <!-- Generator: Sketch 48.2 (47327) - http://www.bohemiancoding.com/sketch -->
    <title>zthree</title>
    <desc>Created with Sketch.</desc>
    <defs></defs>
    <g id="Page-1" stroke="none" stroke-width="1" fill="none" fill-rule="evenodd">
        <g id="zthree" fill="#000000">
            <path d="M11.2002,21.209 L3.4602,17.339 C3.0512,17.133 2.7982,16.718 2.8002,16.253 L2.80018823,7.788 L11.2002,11.988 L11.2002,21.209 Z M21.2482,5.228 L13.2472,1.227 C12.4662,0.839 11.5352,0.839 10.7542,1.228 L6.8322,3.188 C6.5602,3.323 6.3892,3.6 6.3892,3.903 C6.3892,4.206 6.5602,4.483 6.8322,4.619 L16.3852,9.396 L16.3852,12.5 C16.3852,12.941 16.7432,13.299 17.1842,13.299 C17.6262,13.299 17.9842,12.941 17.9842,12.5 L17.9842,8.901 C17.9842,8.598 17.8132,8.321 17.5422,8.186 L8.9782,3.903 L11.4682,2.659 C11.8022,2.493 12.1992,2.494 12.5332,2.659 L20.5342,6.66 C20.9452,6.864 21.2002,7.275 21.2002,7.733 L21.2002,16.264 C21.2002,16.722 20.9452,17.133 20.5332,17.338 L12.8002,21.205 L12.8002,11.494 C12.8002,11.19 12.6292,10.914 12.3572,10.778 L2.3572,5.778 C2.1102,5.653 1.8152,5.668 1.5792,5.813 C1.3442,5.959 1.2002,6.216 1.2002,6.494 L1.2002,16.25 C1.1942,17.322 1.7852,18.287 2.7432,18.769 L10.7422,22.769 C11.1352,22.966 11.5652,23.064 11.9962,23.064 C12.4262,23.064 12.8562,22.966 13.2482,22.769 L21.2472,18.77 C22.2052,18.293 22.8002,17.333 22.8002,16.264 L22.8002,7.733 C22.8002,6.664 22.2052,5.703 21.2482,5.228 Z" id="Fill-1"></path>
        </g>
    </g>
</svg>