<svg xmlns="http://www.w3.org/2000/svg" width="64" height="64" viewBox="0 0 64 64">
  <title>zthree</title>
  <path d="M56.66,13.94,35.33,3.27a7.54,7.54,0,0,0-6.65,0L18.22,8.5a2.14,2.14,0,0,0,0,3.82L43.69,25.06v8.27a2.14,2.14,0,0,0,4.27,0V23.74a2.14,2.14,0,0,0-1.18-1.91L23.94,10.41l6.64-3.32a3.22,3.22,0,0,1,2.84,0L54.76,17.76a3.18,3.18,0,0,1,1.77,2.86V43.37a3.18,3.18,0,0,1-1.77,2.86L34.13,56.55V30.65A2.12,2.12,0,0,0,33,28.74L6.29,15.41a2.11,2.11,0,0,0-2.08.09,2.14,2.14,0,0,0-1,1.82v26a7.41,7.41,0,0,0,4.12,6.72L28.65,60.72a7.54,7.54,0,0,0,6.68,0L56.66,50.05a7.43,7.43,0,0,0,4.14-6.68V20.62A7.43,7.43,0,0,0,56.66,13.94ZM29.87,56.56,9.23,46.24a3.2,3.2,0,0,1-1.76-2.9V20.77L29.87,32Z" fill-rule="evenodd"/>
</svg>
